<svg version="1.1" xmlns="http://www.w3.org/2000/svg" xmlns:xlink="http://www.w3.org/1999/xlink" width="400" height="65" viewBox="0 0 400 65"><defs/><g><g><path fill="rgb(245,158,11)" stroke="none" paint-order="stroke fill markers" d=" M 33.730000000000004 28.349999999999998 L 21.575 28.349999999999998 L 21.575 35.11 L 25.41 35.11 L 25.41 41.675 C 25.41 46.485 23.85 48.5 20.990000000000002 48.5 C 18.130000000000003 48.5 15.92 46.485 15.92 40.57 L 15.92 22.305 C 15.92 16.455 18.065 14.375 21.38 14.375 C 24.89 14.375 26.580000000000002 16.78 26.580000000000002 19.705 L 34.510000000000005 19.705 C 33.795 11.384999999999998 29.310000000000002 7.225000000000001 21.38 7.225000000000001 C 11.825 7.225000000000001 7.6 13.269999999999996 7.6 22.305 L 7.6 40.57 C 7.6 49.67 11.89 55.65 19.04 55.65 C 22.355 55.65 25.475 54.35 26.71 52.335 L 26.71 55 L 33.730000000000004 55 Z M 65.775 47.07 L 50.175 47.07 L 50.175 34.980000000000004 L 64.475 34.980000000000004 L 64.475 27.375 L 50.175 27.375 L 50.175 15.805 L 65.775 15.805 L 65.775 7.875 L 41.855000000000004 7.875 L 41.855000000000004 55 L 65.775 55 Z M 100.745 7.875 L 71.755 7.875 L 71.755 15.805 L 82.09 15.805 L 82.09 55 L 90.41 55 L 90.41 15.805 L 100.745 15.805 Z M 140.2 15.805 L 147.09 15.805 L 147.09 47.07 L 140.2 47.07 L 140.2 55 L 162.3 55 L 162.3 47.07 L 155.41 47.07 L 155.41 15.805 L 162.3 15.805 L 162.3 7.875 L 140.2 7.875 Z M 196.75 7.875 L 189.275 7.875 L 189.275 33.614999999999995 L 180.37 7.875 L 170.75 7.875 L 170.75 55 L 178.225 55 L 178.225 27.439999999999998 L 188.755 55 L 196.75 55 Z M 263.245 7.875 L 234.255 7.875 L 234.255 15.805 L 244.59 15.805 L 244.59 55 L 252.91 55 L 252.91 15.805 L 263.245 15.805 Z M 281.25 48.5 C 278.065 48.5 275.92 46.355000000000004 275.92 40.57 L 275.92 22.305 C 275.92 16.519999999999996 278.065 14.375 281.25 14.375 C 284.435 14.375 286.58 16.519999999999996 286.58 22.305 L 286.58 40.57 C 286.58 46.355000000000004 284.435 48.5 281.25 48.5 Z M 281.25 55.65 C 290.285 55.65 294.9 49.735 294.9 40.57 L 294.9 22.305 C 294.9 13.14 290.285 7.225000000000001 281.25 7.225000000000001 C 272.215 7.225000000000001 267.6 13.14 267.6 22.305 L 267.6 40.57 C 267.6 49.735 272.215 55.65 281.25 55.65 Z M 327.725 7.875 L 319.665 7.875 L 319.665 41.155 C 319.665 46.29 316.935 48.11 313.815 48.11 C 310.63 48.11 308.095 46.29 308.095 41.155 L 308.095 7.875 L 299.775 7.875 L 299.775 41.61 C 299.775 51.1 305.105 55.65 313.815 55.65 C 322.265 55.65 327.725 51.295 327.725 41.61 Z M 346.38 7.225000000000001 C 336.825 7.225000000000001 332.6 13.269999999999996 332.6 22.305 L 332.6 40.57 C 332.6 49.605 336.825 55.65 346.38 55.65 C 354.31 55.65 358.795 51.49 359.51 43.17 L 351.58 43.17 C 351.58 46.095 349.89 48.5 346.38 48.5 C 343.065 48.5 340.92 46.42 340.92 40.57 L 340.92 22.305 C 340.92 16.455 343.065 14.375 346.38 14.375 C 349.89 14.375 351.58 16.78 351.58 19.705 L 359.51 19.705 C 358.795 11.384999999999998 354.31 7.225000000000001 346.38 7.225000000000001 Z M 391.62 7.875 L 383.3 7.875 L 383.3 26.724999999999998 L 374.2 26.724999999999998 L 374.2 7.875 L 365.88 7.875 L 365.88 55 L 374.2 55 L 374.2 34.655 L 383.3 34.655 L 383.3 55 L 391.62 55 Z" fill-opacity="1"/></g></g></svg>