<svg version="1.1" xmlns="http://www.w3.org/2000/svg" xmlns:xlink="http://www.w3.org/1999/xlink" width="352" height="65" viewBox="0 0 352 65"><defs/><g><g><path fill="rgb(245,158,11)" stroke="none" paint-order="stroke fill markers" d=" M 26.52 30.400000000000002 L 15.299999999999999 30.400000000000002 L 15.299999999999999 36.64 L 18.84 36.64 L 18.84 42.7 C 18.84 47.14 17.4 49 14.76 49 C 12.12 49 10.08 47.14 10.08 41.68 L 10.08 24.82 C 10.08 19.42 12.059999999999999 17.5 15.12 17.5 C 18.36 17.5 19.919999999999998 19.72 19.919999999999998 22.42 L 27.24 22.42 C 26.58 14.740000000000002 22.439999999999998 10.899999999999999 15.12 10.899999999999999 C 6.3 10.899999999999999 2.4 16.480000000000004 2.4 24.82 L 2.4 41.68 C 2.4 50.08 6.359999999999999 55.6 12.959999999999999 55.6 C 16.02 55.6 18.9 54.4 20.04 52.54 L 20.04 55 L 26.52 55 Z M 56.099999999999994 47.68 L 41.7 47.68 L 41.7 36.519999999999996 L 54.9 36.519999999999996 L 54.9 29.5 L 41.7 29.5 L 41.7 18.82 L 56.099999999999994 18.82 L 56.099999999999994 11.5 L 34.019999999999996 11.5 L 34.019999999999996 55 L 56.099999999999994 55 Z M 88.38 11.5 L 61.62 11.5 L 61.62 18.82 L 71.16 18.82 L 71.16 55 L 78.84 55 L 78.84 18.82 L 88.38 18.82 Z M 94.8 18.82 L 101.16 18.82 L 101.16 47.68 L 94.8 47.68 L 94.8 55 L 115.2 55 L 115.2 47.68 L 108.84 47.68 L 108.84 18.82 L 115.2 18.82 L 115.2 11.5 L 94.8 11.5 Z M 147 11.5 L 140.1 11.5 L 140.1 35.260000000000005 L 131.88 11.5 L 123 11.5 L 123 55 L 129.9 55 L 129.9 29.560000000000002 L 139.62 55 L 147 55 Z M 178.38 11.5 L 151.62 11.5 L 151.62 18.82 L 161.16 18.82 L 161.16 55 L 168.84 55 L 168.84 18.82 L 178.38 18.82 Z M 195 49 C 192.06 49 190.08 47.02 190.08 41.68 L 190.08 24.82 C 190.08 19.480000000000004 192.06 17.5 195 17.5 C 197.94 17.5 199.92 19.480000000000004 199.92 24.82 L 199.92 41.68 C 199.92 47.02 197.94 49 195 49 Z M 195 55.6 C 203.34 55.6 207.6 50.14 207.6 41.68 L 207.6 24.82 C 207.6 16.36 203.34 10.899999999999999 195 10.899999999999999 C 186.66 10.899999999999999 182.4 16.36 182.4 24.82 L 182.4 41.68 C 182.4 50.14 186.66 55.6 195 55.6 Z M 237.9 11.5 L 230.46 11.5 L 230.46 42.22 C 230.46 46.96 227.94 48.64 225.06 48.64 C 222.12 48.64 219.78 46.96 219.78 42.22 L 219.78 11.5 L 212.1 11.5 L 212.1 42.64 C 212.1 51.4 217.02 55.6 225.06 55.6 C 232.86 55.6 237.9 51.58 237.9 42.64 Z M 255.12 10.899999999999999 C 246.3 10.899999999999999 242.4 16.480000000000004 242.4 24.82 L 242.4 41.68 C 242.4 50.02 246.3 55.6 255.12 55.6 C 262.44 55.6 266.58 51.76 267.24 44.08 L 259.92 44.08 C 259.92 46.78 258.36 49 255.12 49 C 252.06 49 250.08 47.08 250.08 41.68 L 250.08 24.82 C 250.08 19.42 252.06 17.5 255.12 17.5 C 258.36 17.5 259.92 19.72 259.92 22.42 L 267.24 22.42 C 266.58 14.740000000000002 262.44 10.899999999999999 255.12 10.899999999999999 Z M 296.88 11.5 L 289.2 11.5 L 289.2 28.900000000000002 L 280.8 28.900000000000002 L 280.8 11.5 L 273.12 11.5 L 273.12 55 L 280.8 55 L 280.8 36.22 L 289.2 36.22 L 289.2 55 L 296.88 55 Z" fill-opacity="1"/></g><g><path fill="rgb(245,158,11)" stroke="none" paint-order="stroke fill markers" d=" M 334.24 29.740000000000002 L 315.7 29.740000000000002 L 315.7 36.16 L 334.24 36.16 Z" fill-opacity="1"/></g></g></svg>