<svg version="1.1" xmlns="http://www.w3.org/2000/svg" xmlns:xlink="http://www.w3.org/1999/xlink" width="500" height="500" viewBox="0 0 500 500"><defs/><g><g><g><g><path fill="rgb(125,211,252)" stroke="none" paint-order="stroke fill markers" d=" M 250.0732421875 18.14453125 L 262.20703125 32.79296875 Q 264.6484375 35.234375 262.20703125 35.234375 L 262.20703125 35.234375 L 256.103515625 35.234375 Q 253.662109375 35.234375 253.662109375 37.67578125 L 253.662109375 37.67578125 L 253.662109375 40.1171875 Q 253.662109375 45 247.55859375 45 L 247.55859375 45 Q 241.455078125 45 241.455078125 40.1171875 L 241.455078125 40.1171875 L 241.455078125 37.67578125 Q 241.455078125 35.234375 239.013671875 35.234375 L 239.013671875 35.234375 L 232.91015625 35.234375 Q 230.46875 35.234375 232.91015625 32.79296875 L 232.91015625 32.79296875 L 245.1904296875 18.14453125 Q 247.6318359375 15.703125 250.0732421875 18.14453125 L 250.0732421875 18.14453125 Z M 247.55859375 42.55859375 L 247.55859375 42.55859375 Q 251.220703125 42.55859375 251.220703125 40.1171875 L 251.220703125 40.1171875 L 251.220703125 35.234375 Q 251.220703125 32.79296875 253.662109375 32.79296875 L 253.662109375 32.79296875 L 258.9599609375 32.79296875 L 249.169921875 20.5859375 Q 247.6318359375 19.2431640625 245.849609375 20.5859375 L 245.849609375 20.5859375 L 235.986328125 32.79296875 L 241.455078125 32.79296875 Q 243.896484375 32.79296875 243.896484375 35.234375 L 243.896484375 35.234375 L 243.896484375 40.1171875 Q 243.896484375 42.55859375 247.55859375 42.55859375 Z" fill-opacity="1"/></g></g><g><g><path fill="rgb(125,211,252)" stroke="none" paint-order="stroke fill markers" d=" M 329.3680657958391 32.15217723023346 L 335.760037146796 50.067206129266715 Q 337.21919846872044 53.196387682273496 334.9250270312548 52.361377566732315 L 334.9250270312548 52.361377566732315 L 329.1895984375908 50.27385227787936 Q 326.8954270001252 49.438842162338176 326.060416884584 51.73301359980377 L 326.060416884584 51.73301359980377 L 324.3903966535017 56.32135647473496 Q 323.5553865379605 58.61552791220056 321.2612151004949 57.780517796659375 L 321.2612151004949 57.780517796659375 L 314.3787007880981 55.275487450035826 Q 312.0845293506325 54.440477334494645 312.9195394661737 52.146305897029045 L 312.9195394661737 52.146305897029045 L 314.58955969725605 47.55796302209785 Q 315.42456981279724 45.26379158463226 313.13039837533165 44.42878146909107 L 313.13039837533165 44.42878146909107 L 307.39496978166767 42.34125618023811 Q 305.1007983442021 41.50624606469693 308.22997989720886 40.04708474277252 L 308.22997989720886 40.04708474277252 L 324.7797229209079 30.48215699915109 Q 327.9089044739147 29.022995677226675 329.3680657958391 32.15217723023346 L 329.3680657958391 32.15217723023346 Z" fill-opacity="1"/></g></g><g><g><path fill="rgb(125,211,252)" stroke="none" paint-order="stroke fill markers" d=" M 399.0899293213008 72.43548572794796 L 398.96911688033913 91.45628914312367 Q 399.27003688383627 94.8958205220434 397.39981119262785 93.32651483433212 L 397.39981119262785 93.32651483433212 L 392.7242469646068 89.40325061505392 Q 390.8540212733983 87.83394492734264 389.284715585687 89.70417061855109 L 389.284715585687 89.70417061855109 L 387.71540989797575 91.57439630975952 Q 384.5767985225532 95.31484769217641 379.9012342945321 91.39158347289822 L 379.9012342945321 91.39158347289822 Q 375.225670066511 87.46831925362002 378.36428144193354 83.72786787120315 L 378.36428144193354 83.72786787120315 L 379.9335871296448 81.8576421799947 Q 381.5028928173561 79.98741648878625 379.6326671261477 78.41811080107497 L 379.6326671261477 78.41811080107497 L 374.95710289812655 74.49484658179679 Q 373.0868772069181 72.92554089408551 376.5264085858378 72.62462089058835 L 376.5264085858378 72.62462089058835 L 395.349477938884 69.2968743525254 Q 398.7890093178037 68.99595434902825 399.0899293213008 72.43548572794796 L 399.0899293213008 72.43548572794796 Z M 381.4705399822434 89.52135778168977 L 381.4705399822434 89.52135778168977 Q 384.27587851905605 91.87531631325669 385.8451842067673 90.00509062204826 L 385.8451842067673 90.00509062204826 L 388.9837955821899 86.26463923963136 Q 390.55310126990116 84.39441354842293 392.4233269611096 85.9637192361342 L 392.4233269611096 85.9637192361342 L 396.4817167110319 89.36911257846768 L 396.82864012784245 73.72506831470324 Q 396.5135160706223 71.70778160128049 394.285133187799 71.59081257941591 L 394.285133187799 71.59081257941591 L 378.8828929567605 74.60194605710456 L 383.0721985050674 78.11719079757782 Q 384.9424241962758 79.6864964852891 383.3731185085645 81.55672217649753 L 383.3731185085645 81.55672217649753 L 380.23450713314196 85.29717355891442 Q 378.6652014454307 87.16739925012286 381.4705399822434 89.52135778168977 Z" fill-opacity="1"/></g></g><g><g><path fill="rgb(125,211,252)" stroke="none" paint-order="stroke fill markers" d=" M 450.829347037599 134.1356952200037 L 444.2103225681004 151.9680835422905 Q 443.3167058596423 155.30310650074858 442.0960027346423 153.1887866672905 L 442.0960027346423 153.1887866672905 L 439.0442449221423 147.90298708364523 Q 437.8235417971423 145.78866725018713 435.70922196368423 147.00937037518713 L 435.70922196368423 147.00937037518713 L 431.48058229676803 149.45077662518713 Q 429.3662624633099 150.67147975018713 428.1455593383099 148.55715991672903 L 428.1455593383099 148.55715991672903 L 424.4834499633099 142.2142004163547 Q 423.2627468383099 140.09988058289662 425.37706667176803 138.87917745789662 L 425.37706667176803 138.87917745789662 L 429.60570633868423 136.43777120789662 Q 431.7200261721423 135.21706808289662 430.4993230471423 133.10274824943852 L 430.4993230471423 133.10274824943852 L 427.4475652346423 127.81694866579326 Q 426.2268621096423 125.70262883233515 429.5618850681004 126.59624554079326 L 429.5618850681004 126.59624554079326 L 448.387940787599 129.9070555530875 Q 451.72296374605713 130.8006722615456 450.829347037599 134.1356952200037 L 450.829347037599 134.1356952200037 Z" fill-opacity="1"/></g></g><g><g><path fill="rgb(125,211,252)" stroke="none" paint-order="stroke fill markers" d=" M 478.3457815756674 209.81084984354814 L 466.0268971150507 224.3039738632558 Q 464.0465270580554 227.1322354127654 463.6225813117982 224.72791960951295 L 463.6225813117982 224.72791960951295 L 462.5627169461554 218.7171301013818 Q 462.1387711998982 216.31281429812933 459.7344553966457 216.7367600443865 L 459.7344553966457 216.7367600443865 L 457.3301395933933 217.16070579064365 Q 452.52150798688837 218.00859728315794 451.46164362124546 211.99780777502679 L 451.46164362124546 211.99780777502679 Q 450.4017792556026 205.98701826689563 455.2104108621075 205.13912677438134 L 455.2104108621075 205.13912677438134 L 457.61472666535997 204.7151810281242 Q 460.01904246861244 204.29123528186702 459.59509672235527 201.88691947861457 L 459.59509672235527 201.88691947861457 L 458.5352323567124 195.87612997048342 Q 458.11128661045524 193.47181416723095 460.93954815996483 195.45218422422627 L 460.93954815996483 195.45218422422627 L 477.4978900831531 205.00221823704322 Q 480.32615163266274 206.98258829403852 478.3457815756674 209.81084984354814 L 478.3457815756674 209.81084984354814 Z M 453.86595942449793 211.57386202876964 L 453.86595942449793 211.57386202876964 Q 454.50187804388366 215.18033573364835 456.90619384713614 214.75638998739117 L 456.90619384713614 214.75638998739117 L 461.714825453641 213.90849849487688 Q 464.1191412568935 213.4845527486197 464.5430870031507 215.88886855187218 L 464.5430870031507 215.88886855187218 L 465.4630492725287 221.10623384493002 L 475.7846058462998 209.34519874260187 Q 476.83989371794667 207.59730962611138 475.2080396313901 206.07532925017853 L 475.2080396313901 206.07532925017853 L 461.4737198002489 198.48162213632435 L 462.4233582718649 203.86728953560987 Q 462.84730401812203 206.27160533886234 460.4429882148696 206.6955510851195 L 460.4429882148696 206.6955510851195 L 455.63435660836467 207.5434425776338 Q 453.2300408051122 207.96738832389096 453.86595942449793 211.57386202876964 Z" fill-opacity="1"/></g></g><g><g><path fill="rgb(125,211,252)" stroke="none" paint-order="stroke fill markers" d=" M 478.320344830892 290.33340910464693 L 461.7874396524792 299.73918416926875 Q 458.95917810296953 301.71955422626405 459.3831238492267 299.3152384230116 L 459.3831238492267 299.3152384230116 L 460.4429882148696 293.3044489148805 Q 460.86693396112673 290.900133111628 458.46261815787426 290.47618736537083 L 458.46261815787426 290.47618736537083 L 453.65398655136937 289.62829587285654 Q 451.2496707481169 289.20435012659937 451.6736164943741 286.8000343233469 L 451.6736164943741 286.8000343233469 L 452.94545373314554 279.58708691358953 Q 453.36939947940266 277.18277111033706 455.77371528265513 277.60671685659423 L 455.77371528265513 277.60671685659423 L 460.5823468891601 278.4546083491085 Q 462.9866626924125 278.8785540953657 463.41060843866967 276.4742382921132 L 463.41060843866967 276.4742382921132 L 464.4704728043126 270.4634487839821 Q 464.8944185505697 268.0591329807296 466.874788607565 270.88739453023925 L 466.874788607565 270.88739453023925 L 479.1682363234063 285.52477749814204 Q 481.1486063804016 288.35303904765163 478.320344830892 290.33340910464693 L 478.320344830892 290.33340910464693 Z" fill-opacity="1"/></g></g><g><g><path fill="rgb(125,211,252)" stroke="none" paint-order="stroke fill markers" d=" M 450.75610485009906 365.9911639700037 L 432.0032913181004 369.17511479229046 Q 428.6682683596423 370.0687315007485 429.8889714846423 367.95441166729046 L 429.8889714846423 367.95441166729046 L 432.9407292971423 362.6686120836452 Q 434.1614324221423 360.5542922501871 432.04711258868423 359.3335891251871 L 432.04711258868423 359.3335891251871 L 429.9327927552261 358.1128860001871 Q 425.7041530883099 355.6714797501871 428.7559109008099 350.3856801665418 L 428.7559109008099 350.3856801665418 Q 431.8076687133099 345.09988058289656 436.0363083802261 347.54128683289656 L 436.0363083802261 347.54128683289656 L 438.15062821368423 348.76198995789656 Q 440.2649480471423 349.98269308289656 441.4856511721423 347.8683732494385 L 441.4856511721423 347.8683732494385 L 444.5374089846423 342.58257366579323 Q 445.7581121096423 340.4682538323351 446.6517288181004 343.80327679079323 L 446.6517288181004 343.80327679079323 L 453.19751110009906 361.7625243030875 Q 454.09112780855713 365.09754726154557 450.75610485009906 365.9911639700037 L 450.75610485009906 365.9911639700037 Z M 430.87023073426803 351.6063832915418 L 430.87023073426803 351.6063832915418 Q 429.03917604676803 354.777863041729 431.1534958802261 355.998566166729 L 431.1534958802261 355.998566166729 L 435.3821355471423 358.439972416729 Q 437.4964553806004 359.660675541729 436.2757522556004 361.7749953751871 L 436.2757522556004 361.7749953751871 L 433.6268264743504 366.36306941379115 L 449.09344517289094 363.9881625066242 Q 451.02536405004287 363.32752773029557 450.75360142289094 361.1126875331212 L 450.75360142289094 361.1126875331212 L 445.1136428806004 346.46731978095045 L 442.3792678806004 351.20339620789656 Q 441.1585647556004 353.3177160413547 439.0442449221423 352.0970129163547 L 439.0442449221423 352.0970129163547 L 434.8156052552261 349.6556066663547 Q 432.70128542176803 348.4349035413547 430.87023073426803 351.6063832915418 Z" fill-opacity="1"/></g></g><g><g><path fill="rgb(125,211,252)" stroke="none" paint-order="stroke fill markers" d=" M 398.9777157798284 427.65867261331465 L 380.2668599682548 424.23676773398904 Q 376.827328589335 423.9358477304919 378.6975542805435 422.3665420427806 L 378.6975542805435 422.3665420427806 L 383.3731185085646 418.4432778235024 Q 385.24334419977305 416.8739721357911 383.67403851206177 415.0037464445827 L 383.67403851206177 415.0037464445827 L 380.5354271366392 411.2632950621658 Q 378.96612144892794 409.3930693709574 380.83634714013635 407.82376368324606 L 380.83634714013635 407.82376368324606 L 386.4470242137617 403.1158466201123 Q 388.31724990497014 401.54654093240094 389.8865555926814 403.4167666236094 L 389.8865555926814 403.4167666236094 L 393.025166968104 407.1572180060263 Q 394.59447265581525 409.02744369723473 396.46469834702367 407.45813800952345 L 396.46469834702367 407.45813800952345 L 401.1402625750448 403.5348737902453 Q 403.0104882662532 401.965568102534 402.7095682627561 405.4050994814537 L 402.7095682627561 405.4050994814537 L 402.71816716224527 424.5200612378921 Q 402.4172471587481 427.9595926168118 398.9777157798284 427.65867261331465 L 398.9777157798284 427.65867261331465 Z" fill-opacity="1"/></g></g><g><g><path fill="rgb(125,211,252)" stroke="none" paint-order="stroke fill markers" d=" M 329.2304155095912 467.89792337669905 L 312.8183227721401 458.2828950261451 Q 309.6891412191333 456.82373370422073 311.9833126565989 455.98872358867953 L 311.9833126565989 455.98872358867953 L 317.7187412502629 453.9011982998266 Q 320.0129126877285 453.0661881842854 319.1779025721873 450.7720167468198 L 319.1779025721873 450.7720167468198 L 318.34289245664615 448.4778453093542 Q 316.67287222556376 443.88950243442304 322.40830081922775 441.80197714557005 L 322.40830081922775 441.80197714557005 Q 328.14372941289173 439.7144518567171 329.8137496439741 444.3027947316483 L 329.8137496439741 444.3027947316483 L 330.6487597595153 446.5969661691139 Q 331.48376987505645 448.8911376065795 333.7779413125221 448.0561274910383 L 333.7779413125221 448.0561274910383 L 339.5133699061861 445.96860220218537 Q 341.8075413436517 445.13359208664417 340.3483800217273 448.26277363965096 L 340.3483800217273 448.26277363965096 L 333.8187583845224 466.22790314561666 Q 332.35959706259797 469.35708469862345 329.2304155095912 467.89792337669905 L 329.2304155095912 467.89792337669905 Z M 323.24331093476894 444.09614858303564 L 323.24331093476894 444.09614858303564 Q 319.80205377857055 445.34866375634743 320.63706389411175 447.642835193813 L 320.63706389411175 447.642835193813 L 322.3070841251941 452.2311780687442 Q 323.1420942407353 454.5253495062098 320.8479228032697 455.360359621751 L 320.8479228032697 455.360359621751 L 315.8695707839693 457.1723315724754 L 329.2442488259123 465.2947981964832 Q 331.14883239506327 466.03053611429834 332.3643219808655 464.1591844393472 L 332.3643219808655 464.1591844393472 L 337.4577240105206 449.31488638523285 L 332.31877999059765 451.1853090440451 Q 330.02460855313205 452.0203191595863 329.18959843759086 449.7261477221207 L 329.18959843759086 449.7261477221207 L 327.5195782065085 445.1378048471895 Q 326.68456809096733 442.8436334097239 323.24331093476894 444.09614858303564 Z" fill-opacity="1"/></g></g><g><g><path fill="rgb(125,211,252)" stroke="none" paint-order="stroke fill markers" d=" M 249.92675781250003 481.85546875 L 237.79296875000003 467.20703125 Q 235.35156250000003 464.765625 237.79296875000003 464.765625 L 237.79296875000003 464.765625 L 243.89648437500003 464.765625 Q 246.33789062500003 464.765625 246.33789062500003 462.32421875 L 246.33789062500003 462.32421875 L 246.33789062500003 457.44140625 Q 246.33789062500003 455 248.77929687500003 455 L 248.77929687500003 455 L 256.103515625 455 Q 258.544921875 455 258.544921875 457.44140625 L 258.544921875 457.44140625 L 258.54492187500006 462.32421875 Q 258.54492187500006 464.765625 260.98632812500006 464.765625 L 260.98632812500006 464.765625 L 267.08984375 464.765625 Q 269.53125 464.765625 267.08984375 467.20703125 L 267.08984375 467.20703125 L 254.80957031250003 481.85546875 Q 252.36816406250003 484.296875 249.92675781250003 481.85546875 L 249.92675781250003 481.85546875 Z" fill-opacity="1"/></g></g><g><g><path fill="rgb(125,211,252)" stroke="none" paint-order="stroke fill markers" d=" M 170.63193420416096 467.8478227697666 L 164.23996285320402 449.9327938707333 Q 162.78080153127962 446.8036123177265 165.07497296874521 447.6386224332677 L 165.07497296874521 447.6386224332677 L 170.8104015624092 449.7261477221207 Q 173.1045729998748 450.5611578376619 173.93958311541599 448.2669864001963 L 173.93958311541599 448.2669864001963 L 174.77459323095718 445.97281496273064 Q 176.44461346203954 441.38447208779945 182.18004205570352 443.47199737665244 L 182.18004205570352 443.47199737665244 Q 187.9154706493675 445.55952266550537 186.24545041828515 450.14786554043656 L 186.24545041828515 450.14786554043656 L 185.41044030274398 452.44203697790215 Q 184.57543018720278 454.7362084153678 186.86960162466838 455.57121853090894 L 186.86960162466838 455.57121853090894 L 192.6050302183324 457.6587438197619 Q 194.89920165579798 458.4937539353031 191.7700201027912 459.9529152572275 L 191.7700201027912 459.9529152572275 L 175.22027707909214 469.5178430008489 Q 172.09109552608535 470.9770043227734 170.63193420416096 467.8478227697666 L 170.63193420416096 467.8478227697666 Z M 181.34503194016236 445.76616881411803 L 181.34503194016236 445.76616881411803 Q 177.90377478396394 444.51365364080624 177.06876466842277 446.80782507827183 L 177.06876466842277 446.80782507827183 L 175.3987444373404 451.396167953203 Q 174.56373432179922 453.6903393906686 172.26956288433362 452.8553292751275 L 172.26956288433362 452.8553292751275 L 167.29121086503326 451.0433573244031 L 172.31578775156441 465.8626050750512 Q 173.3018601936201 467.6504557384482 175.4358609065176 466.9982188321872 L 175.4358609065176 466.9982188321872 L 188.87936409158453 458.9008025116456 L 183.7404200716616 457.0303798528334 Q 181.446248634196 456.1953697372922 182.2812587497372 453.9011982998266 L 182.2812587497372 453.9011982998266 L 183.95127898081955 449.3128554248954 Q 184.78628909636075 447.0186839874298 181.34503194016236 445.76616881411803 Z" fill-opacity="1"/></g></g><g><g><path fill="rgb(125,211,252)" stroke="none" paint-order="stroke fill markers" d=" M 100.91007067869916 427.564514272052 L 101.03088311966087 408.5437108568763 Q 100.7299631161637 405.1041794779566 102.60018880737215 406.6734851656679 L 102.60018880737215 406.6734851656679 L 107.27575303539325 410.59674938494607 Q 109.1459787266017 412.16605507265734 110.71528441431298 410.2958293814489 L 110.71528441431298 410.2958293814489 L 113.85389578973553 406.55537799903203 Q 115.4232014774468 404.6851523078236 117.29342716865524 406.2544579955349 L 117.29342716865524 406.2544579955349 L 122.90410424228057 410.96237505866867 Q 124.77432993348901 412.53168074637995 123.20502424577774 414.4019064375884 L 123.20502424577774 414.4019064375884 L 120.06641287035518 418.1423578200053 Q 118.4971071826439 420.01258351121373 120.36733287385235 421.581889198925 L 120.36733287385235 421.581889198925 L 125.04289710187345 425.50515341820324 Q 126.9131227930819 427.0744591059145 123.47359141416217 427.37537910941165 L 123.47359141416217 427.37537910941165 L 104.65052206111605 430.70312564747456 Q 101.21099068219632 431.00404565097176 100.91007067869916 427.564514272052 L 100.91007067869916 427.564514272052 Z" fill-opacity="1"/></g></g><g><g><path fill="rgb(125,211,252)" stroke="none" paint-order="stroke fill markers" d=" M 49.17065296240101 365.86430477999636 L 55.789677431899605 348.0319164577096 Q 56.6832941403577 344.69689349925153 57.90399726535771 346.8112133327096 L 57.90399726535771 346.8112133327096 L 60.95575507785771 352.09701291635486 Q 62.17645820285771 354.211332749813 64.29077803631581 352.990629624813 L 64.29077803631581 352.990629624813 L 66.40509786977391 351.769926499813 Q 70.63373753669012 349.328520249813 73.68549534919012 354.61431983345824 L 73.68549534919012 354.61431983345824 Q 76.73725316169012 359.9001194171035 72.50861349477393 362.3415256671035 L 72.50861349477393 362.3415256671035 L 70.39429366131581 363.5622287921035 Q 68.27997382785772 364.7829319171035 69.50067695285772 366.89725175056157 L 69.50067695285772 366.89725175056157 L 72.55243476535772 372.1830513342068 Q 73.77313789035772 374.29737116766495 70.43811493189962 373.4037544592068 L 70.43811493189962 373.4037544592068 L 51.61205921240101 370.0929444469126 Q 48.2770362539429 369.1993277384545 49.17065296240101 365.86430477999636 L 49.17065296240101 365.86430477999636 Z M 71.57117551573202 355.83502295845824 L 71.57117551573202 355.83502295845824 Q 69.74012082823202 352.66354320827105 67.62580099477391 353.88424633327105 L 67.62580099477391 353.88424633327105 L 63.39716132785772 356.32565258327105 Q 61.28284149439961 357.54635570827105 60.06213836939961 355.432035874813 L 60.06213836939961 355.432035874813 L 57.413212588149605 350.8439618362089 L 51.736632952109105 365.4258999933759 Q 51.34280001245715 367.4293082072045 53.396789202109105 368.3013749668789 L 53.396789202109105 368.3013749668789 L 68.90002899439962 370.7397114690496 L 66.16565399439962 366.0036350421035 Q 64.94495086939962 363.88931520864537 67.05927070285772 362.66861208364537 L 67.05927070285772 362.66861208364537 L 71.28791036977393 360.22720583364537 Q 73.40223020323202 359.00650270864537 71.57117551573202 355.83502295845824 Z" fill-opacity="1"/></g></g><g><g><path fill="rgb(125,211,252)" stroke="none" paint-order="stroke fill markers" d=" M 21.654218424332583 290.1891501564519 L 33.97310288494929 275.6960261367442 Q 35.9534729419446 272.8677645872346 36.37741868820176 275.2720803904871 L 36.37741868820176 275.2720803904871 L 37.43728305384464 281.28286989861823 Q 37.86122880010179 283.68718570187065 40.26554460335425 283.2632399556135 L 40.26554460335425 283.2632399556135 L 45.074176209859175 282.4153484630992 Q 47.478492013111634 281.99140271684206 47.90243775936879 284.39571852009453 L 47.90243775936879 284.39571852009453 L 49.174274998140255 291.6086659298519 Q 49.59822074439741 294.01298173310437 47.19390494114494 294.4369274793615 L 47.19390494114494 294.4369274793615 L 42.385273334640026 295.28481897187584 Q 39.98095753138756 295.70876471813295 40.40490327764472 298.1130805213854 L 40.40490327764472 298.1130805213854 L 41.4647676432876 304.1238700295166 Q 41.888713389544755 306.52818583276905 39.06045184003514 304.54781577577376 L 39.06045184003514 304.54781577577376 L 22.50210991684689 294.9977817629568 Q 19.673848367337275 293.0174117059615 21.654218424332583 290.1891501564519 L 21.654218424332583 290.1891501564519 Z" fill-opacity="1"/></g></g><g><g><path fill="rgb(125,211,252)" stroke="none" paint-order="stroke fill markers" d=" M 21.679655169107978 209.66659089535312 L 38.2125603475208 200.2608158307313 Q 41.04082189703041 198.280445773736 40.61687615077326 200.68476157698845 L 40.61687615077326 200.68476157698845 L 39.55701178513038 206.6955510851196 Q 39.133066038873224 209.09986688837208 41.53738184212568 209.52381263462922 L 41.53738184212568 209.52381263462922 L 43.94169764537815 209.94775838088637 Q 48.750329251883066 210.7956498734007 47.690464886240186 216.80643938153185 L 47.690464886240186 216.80643938153185 Q 46.630600520597305 222.817228889663 41.82196891409238 221.96933739714868 L 41.82196891409238 221.96933739714868 L 39.41765311083992 221.54539165089153 Q 37.013337307587456 221.12144590463438 36.5893915613303 223.52576170788683 L 36.5893915613303 223.52576170788683 L 35.52952719568742 229.53655121601798 Q 35.10558144943027 231.94086701927046 33.12521139243496 229.11260546976084 L 33.12521139243496 229.11260546976084 L 20.831763676593674 214.47522250185804 Q 18.85139361959837 211.64696095234842 21.679655169107978 209.66659089535312 L 21.679655169107978 209.66659089535312 Z M 45.28614908298773 216.38249363527467 L 45.28614908298773 216.38249363527467 Q 45.922067702373454 212.776019930396 43.517751899120995 212.35207418413884 L 43.517751899120995 212.35207418413884 L 38.70912029261607 211.50418269162452 Q 36.30480448936361 211.08023694536737 36.728750235620765 208.6759211421149 L 36.728750235620765 208.6759211421149 L 37.648712504998784 203.45855584905706 L 23.927111046245294 210.98013348881366 Q 22.337651534314436 212.26168228442128 23.350544831335565 214.25000298123703 L 23.350544831335565 214.25000298123703 L 33.65938303271898 226.08316755766273 L 34.609021504335 220.6975001583772 Q 35.03296725059215 218.29318435512477 37.43728305384461 218.7171301013819 L 37.43728305384461 218.7171301013819 L 42.245914660349534 219.56502159389623 Q 44.65023046360199 219.98896734015338 45.28614908298773 216.38249363527467 Z" fill-opacity="1"/></g></g><g><g><path fill="rgb(125,211,252)" stroke="none" paint-order="stroke fill markers" d=" M 49.243895149900965 134.00883602999622 L 67.99670868189958 130.82488520770946 Q 71.33173164035769 129.93126849925136 70.11102851535769 132.04558833270946 L 70.11102851535769 132.04558833270946 L 67.05927070285769 137.3313879163547 Q 65.83856757785769 139.4457077498128 67.95288741131579 140.6664108748128 L 67.95288741131579 140.6664108748128 L 72.181527078232 143.1078171248128 Q 74.29584691169009 144.3285202498128 73.07514378669009 146.4428400832709 L 73.07514378669009 146.4428400832709 L 69.41303441169009 152.78579958364523 Q 68.19233128669009 154.90011941710333 66.078011453232 153.67941629210333 L 66.078011453232 153.67941629210333 L 61.849371786315785 151.23801004210333 Q 59.73505195285768 150.01730691710333 58.51434882785768 152.13162675056142 L 58.51434882785768 152.13162675056142 L 55.46259101535768 157.41742633420668 Q 54.24188789035768 159.53174616766478 53.34827118189958 156.19672320920668 L 53.34827118189958 156.19672320920668 L 46.802488899900965 138.23747569691244 Q 45.90887219144287 134.90245273845431 49.243895149900965 134.00883602999622 L 49.243895149900965 134.00883602999622 Z" fill-opacity="1"/></g></g><g><g><path fill="rgb(125,211,252)" stroke="none" paint-order="stroke fill markers" d=" M 101.02228422017157 72.34132738668535 L 119.7331400317452 75.76323226601096 Q 123.17267141066492 76.06415226950811 121.30244571945647 77.63345795721939 L 121.30244571945647 77.63345795721939 L 116.62688149143537 81.55672217649759 Q 114.75665580022692 83.12602786420887 116.3259614879382 84.99625355541731 L 116.3259614879382 84.99625355541731 L 117.89526717564948 86.86647924662576 Q 121.03387855107204 90.60693062904264 116.35831432305093 94.53019484832083 L 116.35831432305093 94.53019484832083 Q 111.68275009502983 98.45345906759903 108.54413871960728 94.71300768518215 L 108.54413871960728 94.71300768518215 L 106.974833031896 92.8427819939737 Q 105.40552734418472 90.97255630276526 103.53530165297627 92.54186199047653 L 103.53530165297627 92.54186199047653 L 98.85973742495517 96.46512620975473 Q 96.98951173374672 98.034431897466 97.29043173724389 94.5949005185463 L 97.29043173724389 94.5949005185463 L 97.28183283775469 75.4799387621079 Q 97.58275284125185 72.0404073831882 101.02228422017157 72.34132738668535 L 101.02228422017157 72.34132738668535 Z M 114.78900863533966 92.65996915711239 L 114.78900863533966 92.65996915711239 Q 117.59434717215233 90.30601062554547 116.02504148444105 88.43578493433704 L 116.02504148444105 88.43578493433704 L 112.88643010901849 84.69533355192014 Q 111.31712442130721 82.82510786071171 113.18735011251565 81.25580217300043 L 113.18735011251565 81.25580217300043 L 117.24573986243797 77.85040883066695 L 101.89960640213573 74.79219618234697 Q 99.8582460884332 74.75223463544043 99.35609946209225 76.92645191763431 L 99.35609946209225 76.92645191763431 L 99.64691610816654 92.61757535203009 L 103.83622165647344 89.10233061155682 Q 105.70644734768189 87.53302492384555 107.27575303539317 89.40325061505398 L 107.27575303539317 89.40325061505398 L 110.41436441081572 93.14370199747087 Q 111.983670098527 95.0139276886793 114.78900863533966 92.65996915711239 Z" fill-opacity="1"/></g></g><g><g><path fill="rgb(125,211,252)" stroke="none" paint-order="stroke fill markers" d=" M 170.7695844904087 32.102076623301045 L 187.1816772278598 41.71710497385494 Q 190.3108587808666 43.17626629577934 188.016687343401 44.01127641132053 L 188.016687343401 44.01127641132053 L 182.28125874973702 46.098801700173496 Q 179.98708731227143 46.93381181571468 180.8220974278126 49.22798325318028 L 180.8220974278126 49.22798325318028 L 182.49211765889498 53.81632612811147 Q 183.32712777443615 56.11049756557706 181.03295633697056 56.94550768111825 L 181.03295633697056 56.94550768111825 L 174.15044202457378 59.45053802774181 Q 171.85627058710818 60.28554814328299 171.021260471567 57.991376705817395 L 171.021260471567 57.991376705817395 L 169.35124024048463 53.4030338308862 Q 168.51623012494343 51.10886239342061 166.22205868747784 51.94387250896179 L 166.22205868747784 51.94387250896179 L 160.48663009381386 54.031397797814755 Q 158.19245865634826 54.866407913355935 159.65161997827266 51.737226360349155 L 159.65161997827266 51.737226360349155 L 166.1812416154775 33.77209685438342 Q 167.64040293740192 30.64291530137664 170.7695844904087 32.102076623301045 L 170.7695844904087 32.102076623301045 Z" fill-opacity="1"/></g></g></g></g></svg>