<svg version="1.1" xmlns="http://www.w3.org/2000/svg" xmlns:xlink="http://www.w3.org/1999/xlink" width="500" height="500" viewBox="0 0 500 500"><defs/><g><g><g><g><path fill="rgb(125,211,252)" stroke="none" paint-order="stroke fill markers" d=" M 243.896484375 13.26171875 L 236.572265625 13.26171875 L 246.337890625 -1.38671875 L 256.103515625 13.26171875 L 248.779296875 13.26171875 L 248.779296875 35.234375 Q 248.779296875 40.1171875 253.662109375 40.1171875 L 253.662109375 40.1171875 L 260.986328125 40.1171875 Q 265.869140625 40.1171875 265.869140625 35.234375 L 265.869140625 35.234375 L 265.869140625 30.3515625 Q 265.869140625 25.46875 260.986328125 25.46875 L 260.986328125 25.46875 L 253.662109375 25.46875 L 253.662109375 20.5859375 L 260.986328125 20.5859375 Q 270.751953125 20.5859375 270.751953125 30.3515625 L 270.751953125 30.3515625 L 270.751953125 35.234375 Q 270.751953125 45 260.986328125 45 L 260.986328125 45 L 253.662109375 45 Q 243.896484375 45 243.896484375 35.234375 L 243.896484375 35.234375 L 243.896484375 13.26171875 Z M 224.365234375 20.5859375 L 239.013671875 20.5859375 L 239.013671875 25.46875 L 224.365234375 25.46875 L 224.365234375 20.5859375 Z" fill-opacity="1"/></g></g><g><g><path fill="rgb(125,211,252)" stroke="none" paint-order="stroke fill markers" d=" M 302.9626539936036 19.1814045746259 L 295.86853904393104 17.35994544011769 L 308.9702772458443 5.600327720116788 L 314.78617890972464 22.21716979880626 L 307.69206396005205 20.395710664298043 L 302.2276865565274 41.67805551331582 Q 301.01338046685527 46.40746547976421 305.74279043330364 47.621771569436355 L 305.74279043330364 47.621771569436355 L 312.8369053829762 49.443230703944565 Q 317.56631534942466 50.65753679361671 318.78062143909676 45.92812682716831 L 318.78062143909676 45.92812682716831 L 319.9949275287689 41.19871686071993 Q 321.2092336184411 36.469306894271526 316.47982365199266 35.25500080459939 L 316.47982365199266 35.25500080459939 L 309.3857087023201 33.433541670091174 L 310.60001479199224 28.70413170364278 L 317.6941297416648 30.525590838150993 Q 327.15294967456157 32.954203017495274 324.7243374952173 42.41302295039206 L 324.7243374952173 42.41302295039206 L 323.5100314055452 47.142432916840455 Q 321.08141922620086 56.60125284973724 311.6225992933041 54.17264067039296 L 311.6225992933041 54.17264067039296 L 304.52848434363153 52.35118153588475 Q 295.06966441073473 49.922569356540464 297.498276590079 40.46374942364368 L 297.498276590079 40.46374942364368 L 302.9626539936036 19.1814045746259 Z M 282.22355499330183 21.418295165609923 L 296.41178489264706 25.06121343462635 L 295.1974788029749 29.790623401074743 L 281.0092489036297 26.147705132058316 L 282.22355499330183 21.418295165609923 Z" fill-opacity="1"/></g></g><g><g><path fill="rgb(125,211,252)" stroke="none" paint-order="stroke fill markers" d=" M 358.70098527877315 39.60427164124109 L 352.2827234620456 36.07580234850392 L 367.89734446982334 27.943904438698446 L 369.3980883066523 45.48505379580305 L 362.97982648992485 41.95658450306587 L 352.3944186117133 61.21136995324842 Q 350.04210574988855 65.4902111644001 354.3209469610402 67.84252402622488 L 354.3209469610402 67.84252402622488 L 360.7392087777677 71.37099331896205 Q 365.0180499889194 73.72330618078684 367.3703628507442 69.44446496963516 L 367.3703628507442 69.44446496963516 L 369.72267571256896 65.16562375848348 Q 372.0749885743937 60.886782547331805 367.7961473632421 58.53446968550702 L 367.7961473632421 58.53446968550702 L 361.37788554651456 55.00600039276985 L 363.73019840833933 50.72715918161817 L 370.14846022506686 54.25562847435535 Q 378.7061426473702 58.960254198004904 374.00151692372066 67.51793662030826 L 374.00151692372066 67.51793662030826 L 371.64920406189583 71.79677783145993 Q 366.9445783382463 80.35446025376329 358.38689591594294 75.64983453011374 L 358.38689591594294 75.64983453011374 L 351.9686340992154 72.12136523737657 Q 343.4109516769121 67.416739513727 348.1155774005616 58.85905709142364 L 348.1155774005616 58.85905709142364 L 358.70098527877315 39.60427164124109 Z M 338.05715114142924 36.61328201066948 L 350.8936747748843 43.67022059614382 L 348.5413619130595 47.94906180729551 L 335.7048382796045 40.89212322182116 L 338.05715114142924 36.61328201066948 Z" fill-opacity="1"/></g></g><g><g><path fill="rgb(125,211,252)" stroke="none" paint-order="stroke fill markers" d=" M 407.60923388461805 73.24707610199911 L 402.2701081954964 68.23330335349797 L 419.4164879446609 64.2400823065895 L 416.50777669982085 81.60336401616767 L 411.1686510106992 76.58959126766655 L 396.1273327651958 92.60696833503154 Q 392.7848175995283 96.16638546111265 396.34423472560945 99.50890062678008 L 396.34423472560945 99.50890062678008 L 401.6833604147311 104.52267337528122 Q 405.2427775408122 107.86518854094864 408.58529270647966 104.30577141486754 L 408.58529270647966 104.30577141486754 L 411.92780787214707 100.74635428878642 Q 415.2703230378145 97.1869371627053 411.7109059117334 93.84442199703788 L 411.7109059117334 93.84442199703788 L 406.37178022261173 88.83064924853674 L 409.71429538827914 85.27123212245564 L 415.0534210774008 90.28500487095677 Q 422.17225532956303 96.97003520229163 415.48722499822816 104.08886945445384 L 415.48722499822816 104.08886945445384 L 412.14470983256075 107.64828658053496 Q 405.45967950122593 114.76712083269717 398.3408452490637 108.08209050136233 L 398.3408452490637 108.08209050136233 L 393.00171955994205 103.06831775286119 Q 385.8828853077798 96.38328742152633 392.56791563911463 89.26445316936412 L 392.56791563911463 89.26445316936412 L 407.60923388461805 73.24707610199911 Z M 388.3577926317925 65.21614112845108 L 399.0360440100358 75.24368662545336 L 395.6935288443684 78.80310375153447 L 385.01527746612504 68.7755582545322 L 388.3577926317925 65.21614112845108 Z" fill-opacity="1"/></g></g><g><g><path fill="rgb(125,211,252)" stroke="none" paint-order="stroke fill markers" d=" M 446.6143146792771 117.99591682305085 L 442.68980202073953 111.8118743999404 L 460.2905704116772 112.20823898034585 L 453.155169110173 128.3026541949016 L 449.23065645163547 122.11861177179115 L 430.6785291823041 133.89214974740386 Q 426.55583423356376 136.50849151976226 429.17217600592215 140.63118646850256 L 429.17217600592215 140.63118646850256 L 433.09668866445975 146.81522889161303 Q 435.7130304368181 150.93792384035333 439.8357253855584 148.32158206799494 L 439.8357253855584 148.32158206799494 L 443.9584203342987 145.70524029563657 Q 448.081115283039 143.08889852327817 445.46477351068063 138.96620357453787 L 445.46477351068063 138.96620357453787 L 441.5402608521431 132.7821611514274 L 445.66295580088337 130.16581937906903 L 449.58746845942096 136.3498618021795 Q 454.8201520041377 144.5952516996601 446.5747621066571 149.82793524437687 L 446.5747621066571 149.82793524437687 L 442.4520671579168 152.44427701673527 Q 434.20667726043615 157.676960561452 428.9739937157194 149.4315706639714 L 428.9739937157194 149.4315706639714 L 425.0494810571818 143.24752824086093 Q 419.8167975124651 135.00213834338032 428.0621874099457 129.76945479866356 L 428.0621874099457 129.76945479866356 L 446.6143146792771 117.99591682305085 Z M 429.9649051667331 105.42964968662719 L 437.81393048380824 117.79773453284811 L 433.6912355350679 120.41407630520649 L 425.8422102179928 108.04599145898557 L 429.9649051667331 105.42964968662719 Z" fill-opacity="1"/></g></g><g><g><path fill="rgb(125,211,252)" stroke="none" paint-order="stroke fill markers" d=" M 473.2653949857692 171.0390595671685 L 471.0020869214996 164.07331359820986 L 487.9513229451097 168.83435876161545 L 477.0375750928853 182.64863618209958 L 474.77426702861567 175.68289021314092 L 453.8770291217397 182.47281440594983 Q 449.23319847576727 183.98168644879627 450.74207051861373 188.6255170947687 L 450.74207051861373 188.6255170947687 L 453.00537858288334 195.59126306372733 Q 454.5142506257298 200.23509370969975 459.1580812717022 198.72622166685335 L 459.1580812717022 198.72622166685335 L 463.8019119176746 197.2173496240069 Q 468.44574256364706 195.70847758116048 466.93687052080065 191.06464693518805 L 466.93687052080065 191.06464693518805 L 464.673562456531 184.09890096622942 L 469.31739310250344 182.590028923383 L 471.58070116677305 189.55577489234165 Q 474.5984452524659 198.8434361842865 465.31078396052106 201.86118026997934 L 465.31078396052106 201.86118026997934 L 460.6669533145486 203.37005231282578 Q 451.37929202260375 206.38779639851862 448.36154793691094 197.10013510657376 L 448.36154793691094 197.10013510657376 L 446.0982398726413 190.1343891376151 Q 443.08049578694846 180.84672784567024 452.3681570788933 177.8289837599774 L 452.3681570788933 177.8289837599774 L 473.2653949857692 171.0390595671685 Z M 460.2641608454249 154.72704504754842 L 464.79077697396417 168.6585369854657 L 460.1469463279917 170.16740902831214 L 455.62033019945244 156.23591709039485 L 460.2641608454249 154.72704504754842 Z" fill-opacity="1"/></g></g><g><g><path fill="rgb(125,211,252)" stroke="none" paint-order="stroke fill markers" d=" M 485.8878894126205 229.04360859670624 L 485.42799791216163 221.73384251935073 L 500.6607187341511 230.5604142882404 L 486.65437524671853 241.2265520589654 L 486.1944837462597 233.9167859816099 L 464.2651855141932 235.29646048298642 Q 459.39200812928954 235.60305481662564 459.69860246292876 240.4762322015293 L 459.69860246292876 240.4762322015293 L 460.15849396338757 247.78599827888482 Q 460.4650882970268 252.6591756637885 465.33826568193047 252.35258133014926 L 465.33826568193047 252.35258133014926 L 470.21144306683414 252.04598699651004 Q 475.0846204517378 251.7393926628708 474.7780261180986 246.86621527796714 L 474.7780261180986 246.86621527796714 L 474.31813461763977 239.55644920061164 L 479.19131200254344 239.2498548669724 L 479.65120350300225 246.55962094432792 Q 480.2643921702807 256.30597571413523 470.51803740047336 256.9191643814137 L 470.51803740047336 256.9191643814137 L 465.6448600155697 257.22575871505296 Q 455.89850524576235 257.8389473823314 455.2853165784839 248.09259261252404 L 455.2853165784839 248.09259261252404 L 454.8254250780251 240.78282653516854 Q 454.21223641074664 231.0364717653612 463.958591180554 230.42328309808275 L 463.958591180554 230.42328309808275 L 485.8878894126205 229.04360859670624 Z M 477.3517460007081 210.0107905575504 L 478.27152900162577 224.6303227122614 L 473.3983516167221 224.93691704590063 L 472.4785686158044 210.31738489118962 L 477.3517460007081 210.0107905575504 Z" fill-opacity="1"/></g></g><g><g><path fill="rgb(125,211,252)" stroke="none" paint-order="stroke fill markers" d=" M 483.6886802127045 288.3649247703292 L 485.061101950393 281.1704380706562 L 497.6201796994878 293.50793047893035 L 481.40131064989055 300.3557359364509 L 482.77373238757895 293.1612492367779 L 461.1902722885599 289.04398402371265 Q 456.3939478221112 288.129036198587 455.47899999698564 292.9253606650357 L 455.47899999698564 292.9253606650357 L 454.1065782592972 300.11984736470873 Q 453.1916304341716 304.9161718311574 457.98795490062025 305.831119656283 L 457.98795490062025 305.831119656283 L 462.78427936706896 306.7460674814086 Q 467.5806038335176 307.66101530653424 468.49555165864325 302.86469084008553 L 468.49555165864325 302.86469084008553 L 469.86797339633165 295.6702041404125 L 474.6642978627803 296.58515196553816 L 473.2918761250919 303.77963866521117 Q 471.4619804748407 313.3722875981085 461.8693315419433 311.54239194785725 L 461.8693315419433 311.54239194785725 L 457.0730070754947 310.6274441227317 Q 447.4803581425973 308.79754847248046 449.3102537928485 299.2048995395831 L 449.3102537928485 299.2048995395831 L 450.6826755305369 292.0104128399101 Q 452.51257118078814 282.4177639070127 462.1052201136855 284.24765955726394 L 462.1052201136855 284.24765955726394 L 483.6886802127045 288.3649247703292 Z M 480.15398481353395 267.8072051668461 L 477.40914133815716 282.1961785661921 L 472.61281687170845 281.2812307410665 L 475.3576603470853 266.8922573417205 L 480.15398481353395 267.8072051668461 Z" fill-opacity="1"/></g></g><g><g><path fill="rgb(125,211,252)" stroke="none" paint-order="stroke fill markers" d=" M 466.8059517881779 345.2756316243089 L 469.9244524588205 338.64848036113005 L 479.020754090988 353.72168338665375 L 461.60845067044016 356.320883729607 L 464.7269513410828 349.6937324664282 L 444.8454975515462 340.33823045450026 Q 440.427396709427 338.2592300074052 438.3483962623319 342.6773308495244 L 438.3483962623319 342.6773308495244 L 435.2298955916893 349.3044821127033 Q 433.1508951445942 353.72258295482254 437.56899598671345 355.8015834019176 L 437.56899598671345 355.8015834019176 L 441.98709682883265 357.8805838490127 Q 446.4051976709519 359.9595842961078 448.484198118047 355.5414834539885 L 448.484198118047 355.5414834539885 L 451.6026987886896 348.91433219080966 L 456.0207996308088 350.99333263790476 L 452.9022989601662 357.6204839010836 Q 448.74429806597607 366.4566855853221 439.9080963817376 362.29868469113194 L 439.9080963817376 362.29868469113194 L 435.48999553961835 360.21968424403684 Q 426.6537938553799 356.0616833498467 430.81179474957 347.2254816656082 L 430.81179474957 347.2254816656082 L 433.93029542021264 340.5983304024293 Q 438.08829631440284 331.76212871819087 446.9244979986413 335.92012961238106 L 446.9244979986413 335.92012961238106 L 466.8059517881779 345.2756316243089 Z M 468.49480231337935 324.4847275851893 L 462.2578009720941 337.73903011154704 L 457.83970012997486 335.660029664452 L 464.0767014712601 322.4057271380943 L 468.49480231337935 324.4847275851893 Z" fill-opacity="1"/></g></g><g><g><path fill="rgb(125,211,252)" stroke="none" paint-order="stroke fill markers" d=" M 436.3005080562853 396.199820144071 L 440.9691407937024 390.55641260420924 L 446.03111222353635 407.4182214655259 L 428.5194534939233 405.6054993771739 L 433.1880862313405 399.96209183731213 L 416.2578636117553 385.9561936250607 Q 412.49559191851415 382.8437718001159 409.3831700935694 386.60604349335705 L 409.3831700935694 386.60604349335705 L 404.7145373561522 392.2494510332188 Q 401.6021155312074 396.01172272645994 405.3643872244486 399.1241445514047 L 405.3643872244486 399.1241445514047 L 409.1266589176897 402.2365663763495 Q 412.8889306109309 405.3489882012943 416.0013524358757 401.5867165080531 L 416.0013524358757 401.5867165080531 L 420.66998517329284 395.9433089681914 L 424.432256866534 399.05573079313615 L 419.76362412911686 404.6991383329979 Q 413.5387804792273 412.2236817194802 406.01423709274496 405.99883806959065 L 406.01423709274496 405.99883806959065 L 402.25196539950383 402.8864162446459 Q 394.7274220130215 396.6615725947563 400.95226566291103 389.13702920827404 L 400.95226566291103 389.13702920827404 L 405.6208984003282 383.4936216684123 Q 411.8457420502178 375.96907828192997 419.37028543670004 382.1939219318195 L 419.37028543670004 382.1939219318195 L 436.3005080562853 396.199820144071 Z M 443.10678781620265 376.4821006336892 L 433.7695223413683 387.7689157134127 L 430.0072506481272 384.6564938884679 L 439.34451612296147 373.3696788087444 L 443.10678781620265 376.4821006336892 Z" fill-opacity="1"/></g></g><g><g><path fill="rgb(125,211,252)" stroke="none" paint-order="stroke fill markers" d=" M 394.08911823787577 437.9377362788543 L 400.0145356771454 433.63266851304024 L 400.7241146230806 451.2235937459982 L 384.2134225057597 445.11284922187764 L 390.13883994502936 440.8077814560636 L 377.2236366475873 423.0315291382547 Q 374.353591470378 419.0812508454083 370.4033131775315 421.95129602261767 L 370.4033131775315 421.95129602261767 L 364.4778957382619 426.25636378843166 Q 360.5276174454155 429.126408965641 363.3976626226248 433.0766872584874 L 363.3976626226248 433.0766872584874 L 366.26770779983417 437.02696555133383 Q 369.13775297704353 440.9772438441803 373.08803126988994 438.10719866697093 L 373.08803126988994 438.10719866697093 L 379.01344870915955 433.8021309011569 L 381.8834938863689 437.75240919400335 L 375.9580764470993 442.05747695981734 Q 368.05751986140643 447.797567314236 362.31742950698776 439.8970107285432 L 362.31742950698776 439.8970107285432 L 359.4473843297784 435.94673243569673 Q 353.70729397535973 428.0461758500039 361.60785056105254 422.30608549558525 L 361.60785056105254 422.30608549558525 L 367.5332680003222 418.0010177297712 Q 375.433824586015 412.26092737535254 381.17391494043375 420.1614839610454 L 381.17391494043375 420.1614839610454 L 394.08911823787577 437.9377362788543 Z M 405.58516364344746 420.5321381307473 L 393.7343287649082 429.1422736623753 L 390.8642835876988 425.19199536952885 L 402.7151184662381 416.5818598379009 L 405.58516364344746 420.5321381307473 Z" fill-opacity="1"/></g></g><g><g><path fill="rgb(125,211,252)" stroke="none" paint-order="stroke fill markers" d=" M 342.82407919787227 467.86683325659243 L 349.6339655691241 465.1706085054839 L 345.94656657633857 482.38534758279894 L 331.47426857911915 472.36054117510656 L 338.28415495037103 469.66431642399806 L 330.1954806970456 449.23465731024254 Q 328.39799752963995 444.6947330627413 323.8580732821387 446.492216230147 L 323.8580732821387 446.492216230147 L 317.04818691088684 449.18844098125544 Q 312.5082626633856 450.9859241486611 314.3057458307913 455.52584839616236 L 314.3057458307913 455.52584839616236 L 316.1032289981969 460.06577264366354 Q 317.9007121656026 464.60569689116477 322.44063641310385 462.80821372375914 L 322.44063641310385 462.80821372375914 L 329.25052278435567 460.11198897265064 L 331.0480059517613 464.65191322015187 L 324.2381195805095 467.34813797126037 Q 315.158271085507 470.9431043060717 311.5633047506957 461.8632558110692 L 311.5633047506957 461.8632558110692 L 309.76582158329006 457.323331563568 Q 306.17085524847874 448.2434830685655 315.2507037434812 444.6485167337542 L 315.2507037434812 444.6485167337542 L 322.06059011473303 441.95229198264576 Q 331.1404386097355 438.35732564783444 334.7354049445468 447.4371741428369 L 334.7354049445468 447.4371741428369 L 342.82407919787227 467.86683325659243 Z M 358.2875514367687 453.867014215718 L 344.667778694265 459.2594637179349 L 342.87029552685937 454.7195394704337 L 356.490068269363 449.32708996821674 L 358.2875514367687 453.867014215718 Z" fill-opacity="1"/></g></g><g><g><path fill="rgb(125,211,252)" stroke="none" paint-order="stroke fill markers" d=" M 285.7265618787833 484.1065558426551 L 292.99302697630145 483.1885878233853 L 285.14034288481685 498.945475377448 L 273.61578671625307 485.6365025414381 L 280.8822518137712 484.71853452216834 L 278.1283477559618 462.9191392296139 Q 277.5163690764486 458.0748291646018 272.6720590114365 458.686807844115 L 272.6720590114365 458.686807844115 L 265.4055939139183 459.6047758633848 Q 260.5612838489062 460.216754542898 261.17326252841946 465.0610646079101 L 261.17326252841946 465.0610646079101 L 261.78524120793264 469.90537467292216 Q 262.39721988744583 474.7496847379343 267.24152995245794 474.1377060584211 L 267.24152995245794 474.1377060584211 L 274.5079950499761 473.21973803915125 L 275.1199737294893 478.06404810416336 L 267.8535086319711 478.9820161234332 Q 258.16488850194696 480.20597348245957 256.94093114292053 470.5173533524354 L 256.94093114292053 470.5173533524354 L 256.32895246340735 465.6730432874233 Q 255.10499510438095 455.9844231573991 264.79361523440514 454.7604657983727 L 264.79361523440514 454.7604657983727 L 272.0600803319233 453.84249777910287 Q 281.74870046194746 452.6185404200765 282.9726578209739 462.30716055010066 L 282.9726578209739 462.30716055010066 L 285.7265618787833 484.1065558426551 Z M 304.1858341195619 474.39217602708413 L 289.6529039245256 476.22811206562375 L 289.0409252450124 471.3838020006117 L 303.5738554400487 469.5478659620721 L 304.1858341195619 474.39217602708413 Z" fill-opacity="1"/></g></g><g><g><path fill="rgb(125,211,252)" stroke="none" paint-order="stroke fill markers" d=" M 226.3842132837469 485.6365025414381 L 233.65067838126507 486.55447056070795 L 222.12612221270123 499.8634433967178 L 214.27343812121666 484.1065558426551 L 221.53990321873482 485.02452386192493 L 224.29380727654424 463.2251285693705 Q 224.90578595605743 458.3808185043584 220.06147589104535 457.7688398248452 L 220.06147589104535 457.7688398248452 L 212.79501079352718 456.85087180557537 Q 207.95070072851507 456.2388931260622 207.3387220490019 461.0832031910743 L 207.3387220490019 461.0832031910743 L 206.72674336948867 465.92751325608634 Q 206.11476468997546 470.77182332109845 210.95907475498757 471.3838020006117 L 210.95907475498757 471.3838020006117 L 218.22553985250573 472.3017700198815 L 217.61356117299252 477.1460800848936 L 210.34709607547438 476.22811206562375 Q 200.65847594545016 475.0041547065974 201.8824333044766 465.31553457657316 L 201.8824333044766 465.31553457657316 L 202.49441198398978 460.47122451156105 Q 203.7183693430162 450.7826043815369 213.4069894730404 452.00656174056326 L 213.4069894730404 452.00656174056326 L 220.67345457055853 452.9245297598331 Q 230.36207470058275 454.14848711885946 229.13811734155632 463.8371072488837 L 229.13811734155632 463.8371072488837 L 226.3842132837469 485.6365025414381 Z M 246.67942156306512 480.8179521619728 L 232.14649136802882 478.9820161234332 L 232.75847004754203 474.1377060584211 L 247.2914002425783 475.9736420969607 L 246.67942156306512 480.8179521619728 Z" fill-opacity="1"/></g></g><g><g><path fill="rgb(125,211,252)" stroke="none" paint-order="stroke fill markers" d=" M 168.5257314208807 472.36054117510656 L 175.33561779213255 475.056765926215 L 160.86331979491314 485.0815723339074 L 157.17592080212765 467.86683325659243 L 163.9858071733795 470.5630580077009 L 172.07448142670495 450.13339889394535 Q 173.8719645941106 445.5934746464442 169.33204034660938 443.7959914790385 L 169.33204034660938 443.7959914790385 L 162.52215397535753 441.09976672793 Q 157.9822297278563 439.30228356052436 156.18474656045063 443.8422078080256 L 156.18474656045063 443.8422078080256 L 154.38726339304498 448.3821320555268 Q 152.58978022563934 452.92205630302806 157.12970447314058 454.7195394704337 L 157.12970447314058 454.7195394704337 L 163.9395908443924 457.4157642215422 L 162.14210767698674 461.9556884690434 L 155.3322213057349 459.2594637179349 Q 146.25237281073245 455.6644973831236 149.84733914554377 446.58464888812114 L 149.84733914554377 446.58464888812114 L 151.64482231294943 442.0447246406199 Q 155.23978864776072 432.9648761456175 164.31963714276318 436.55984248042876 L 164.31963714276318 436.55984248042876 L 171.12952351401503 439.25606723153726 Q 180.20937200901747 442.8510335663486 176.61440567420615 451.93088206135104 L 176.61440567420615 451.93088206135104 L 168.5257314208807 472.36054117510656 Z M 189.3816531619941 472.7405874734773 L 175.76188041949044 467.34813797126037 L 177.55936358689607 462.80821372375914 L 191.17913632939977 468.2006632259761 L 189.3816531619941 472.7405874734773 Z" fill-opacity="1"/></g></g><g><g><path fill="rgb(125,211,252)" stroke="none" paint-order="stroke fill markers" d=" M 115.78657749424026 445.1128492218776 L 121.71199493350989 449.41791698769157 L 105.20130281618901 455.5286615118122 L 105.9108817621242 437.93773627885423 L 111.83629920139384 442.2428040446682 L 124.75150249883588 424.46655172685934 Q 127.62154767604522 420.51627343401293 123.6712693831988 417.64622825680357 L 123.6712693831988 417.64622825680357 L 117.74585194392917 413.3411604909896 Q 113.79557365108275 410.4711153137802 110.9255284738734 414.4213936066266 L 110.9255284738734 414.4213936066266 L 108.05548329666405 418.3716718994731 Q 105.18543811945472 422.3219501923195 109.13571641230114 425.1919953695288 L 109.13571641230114 425.1919953695288 L 115.06113385157077 429.49706313534284 L 112.19108867436142 433.44734142818925 L 106.26567123509179 429.14227366237526 Q 98.36511464939895 423.40218330795653 104.10520500381764 415.5016267222637 L 104.10520500381764 415.5016267222637 L 106.97525018102698 411.5513484294173 Q 112.71534053544566 403.65079184372445 120.6158971211385 409.3908821981431 L 120.6158971211385 409.3908821981431 L 126.54131456040814 413.69594996395716 Q 134.441871146101 419.43604031837583 128.7017807916823 427.3365969040687 L 128.7017807916823 427.3365969040687 L 115.78657749424026 445.1128492218776 Z M 135.89275843143997 450.6676124914453 L 124.0419235529007 442.0574769598173 L 126.91196873011003 438.1071986669709 L 138.7628036086493 446.7173341985989 L 135.89275843143997 450.6676124914453 Z" fill-opacity="1"/></g></g><g><g><path fill="rgb(125,211,252)" stroke="none" paint-order="stroke fill markers" d=" M 71.48054650607662 405.6054993771738 L 76.14917924349378 411.2489069170356 L 58.63752051388075 413.06162900538754 L 63.69949194371469 396.19982014407094 L 68.36812468113185 401.8432276839327 L 85.29834730071707 387.8373294716812 Q 89.06061899395822 384.7249076467364 85.94819716901344 380.96263595349524 L 85.94819716901344 380.96263595349524 L 81.27956443159628 375.31922841363354 Q 78.16714260665151 371.55695672039235 74.40487091341035 374.6693785453371 L 74.40487091341035 374.6693785453371 L 70.64259922016919 377.7818003702819 Q 66.88032752692804 380.8942221952267 69.99274935187282 384.6564938884678 L 69.99274935187282 384.6564938884678 L 74.66138208928997 390.2999014283296 L 70.89911039604881 393.41232325327434 L 66.23047765863166 387.76891571341264 Q 60.005634008742106 380.2443723269303 67.53017739522443 374.01952867704074 L 67.53017739522443 374.01952867704074 L 71.29244908846559 370.907106852096 Q 78.8169924749479 364.6822632022064 85.04183612483745 372.2068065886887 L 85.04183612483745 372.2068065886887 L 89.7104688622546 377.8502141285505 Q 95.93531251214415 385.3747575150328 88.41076912566183 391.5996011649224 L 88.41076912566183 391.5996011649224 L 71.48054650607662 405.6054993771738 Z M 89.57364134571745 415.9859534127213 L 80.23637587088314 404.69913833299785 L 83.9986475641243 401.58671650805303 L 93.33591303895861 412.87353158777654 L 89.57364134571745 415.9859534127213 Z" fill-opacity="1"/></g></g><g><g><path fill="rgb(125,211,252)" stroke="none" paint-order="stroke fill markers" d=" M 38.39154932955974 356.32088372960686 L 41.510050000202355 362.9480349927857 L 24.09774657965449 360.3488346498325 L 33.19404821182204 345.2756316243088 L 36.31254888246466 351.90278288748766 L 56.194002672001226 342.54728087555975 Q 60.61210351412046 340.4682804284647 58.53310306702539 336.05017958634545 L 58.53310306702539 336.05017958634545 L 55.41460239638277 329.4230283231666 Q 53.33560194928769 325.0049274810474 48.91750110716845 327.08392792814243 L 48.91750110716845 327.08392792814243 L 44.49940026504922 329.1629283752375 Q 40.08129942292997 331.2419288223326 42.16029987002506 335.6600296644518 L 42.16029987002506 335.6600296644518 L 45.278800540667675 342.2871809276307 L 40.86069969854844 344.3661813747258 L 37.74219902790582 337.7390301115469 Q 33.58419813371566 328.90282842730846 42.420399817954134 324.74482753311827 L 42.420399817954134 324.74482753311827 L 46.83850066007337 322.6658270860232 Q 55.67470234431185 318.50782619183303 59.832703238502006 327.34402787607155 L 59.832703238502006 327.34402787607155 L 62.951203909144624 333.9711791392504 Q 67.10920480333478 342.80738082348887 58.27300311909631 346.965381717679 L 58.27300311909631 346.965381717679 L 38.39154932955974 356.32088372960686 Z M 53.33470238111891 370.8747864274412 L 47.09770103983367 357.6204839010835 L 51.51580188195291 355.5414834539884 L 57.752803223238146 368.7957859803461 L 53.33470238111891 370.8747864274412 Z" fill-opacity="1"/></g></g><g><g><path fill="rgb(125,211,252)" stroke="none" paint-order="stroke fill markers" d=" M 18.59868935010944 300.35573593645086 L 19.97111108779785 307.55022263612386 L 3.752242038200606 300.7024171786033 L 16.311319787295417 288.36492477032914 L 17.68374152498383 295.55941147000215 L 39.267201624002865 291.4421462569369 Q 44.063526090451546 290.5271984318113 43.14857826532594 285.7308739653626 L 43.14857826532594 285.7308739653626 L 41.776156527637525 278.5363872656896 Q 40.86120870251192 273.74006279924095 36.064884236063236 274.6550106243665 L 36.064884236063236 274.6550106243665 L 31.268559769614562 275.56995844949216 Q 26.47223530316589 276.48490627461774 27.387183128291497 281.28123074106645 L 27.387183128291497 281.28123074106645 L 28.75960486597991 288.47571744073946 L 23.963280399531236 289.39066526586504 L 22.590858661842823 282.19617856619203 Q 20.760963011591606 272.60352963329467 30.353611944488954 270.7736339830435 L 30.353611944488954 270.7736339830435 L 35.14993641093763 269.8586861579179 Q 44.74258534383498 268.02879050766666 46.5724809940862 277.621439440564 L 46.5724809940862 277.621439440564 L 47.94490273177461 284.815926140237 Q 49.77479838202583 294.4085750731344 40.182149449128474 296.2384707233856 L 40.182149449128474 296.2384707233856 L 18.59868935010944 300.35573593645086 Z M 29.452967350284887 318.1686120645571 L 26.70812387490806 303.7796386652111 L 31.504448341356735 302.8646908400855 L 34.24929181673356 317.2536642394315 L 29.452967350284887 318.1686120645571 Z" fill-opacity="1"/></g></g><g><g><path fill="rgb(125,211,252)" stroke="none" paint-order="stroke fill markers" d=" M 13.345624753281456 241.2265520589653 L 12.885733252822611 248.5363181363208 L -1.1206102346099414 237.87018036559576 L 14.112110587379522 229.04360859670612 L 13.652219086920681 236.35337467406163 L 35.581517318987196 237.73304917543814 Q 40.454694703890866 238.03964350907737 40.76128903753009 233.1664661241737 L 40.76128903753009 233.1664661241737 L 41.221180537988936 225.8567000468182 Q 41.52777487162816 220.98352266191452 36.65459748672449 220.6769283282753 L 36.65459748672449 220.6769283282753 L 31.78142010182082 220.37033399463607 Q 26.90824271691715 220.06373966099684 26.601648383277922 224.93691704590051 L 26.601648383277922 224.93691704590051 L 26.14175688281908 232.24668312325602 L 21.26857949791541 231.9400887896168 L 21.728470998374252 224.6303227122613 Q 22.341659665652706 214.88396794245395 32.088014435460046 215.4971566097324 L 32.088014435460046 215.4971566097324 L 36.961191820363716 215.80375094337163 Q 46.707546590171056 216.41693961065008 46.094357922892605 226.16329438045742 L 46.094357922892605 226.16329438045742 L 45.63446642243376 233.47306045781292 Q 45.02127775515531 243.21941522762026 35.27492298534797 242.6062265603418 L 35.27492298534797 242.6062265603418 L 13.345624753281456 241.2265520589653 Z M 19.42901349608005 261.1791530990388 L 20.348796496997732 246.5596209443278 L 25.221973881901402 246.86621527796703 L 24.30219088098372 261.485747432678 L 19.42901349608005 261.1791530990388 Z" fill-opacity="1"/></g></g><g><g><path fill="rgb(125,211,252)" stroke="none" paint-order="stroke fill markers" d=" M 22.96242490711468 182.6486361820996 L 20.69911684284505 189.61438215105827 L 9.785368990620604 175.80010473057413 L 26.734605014230738 171.03905956716852 L 24.471296949961104 178.00480553612718 L 45.36853485683704 184.7947297289361 Q 50.012365502809466 186.3036017717825 51.52123754565589 181.65977112581007 L 51.52123754565589 181.65977112581007 L 53.78454560992552 174.69402515685144 Q 55.29341765277194 170.050194510879 50.649587006799514 168.54132246803258 L 50.649587006799514 168.54132246803258 L 46.005756360827085 167.03245042518614 Q 41.36192571485466 165.52357838233974 39.85305367200823 170.16740902831216 L 39.85305367200823 170.16740902831216 L 37.5897456077386 177.1331549972708 L 32.945914961766164 175.6242829544244 L 35.2092230260358 168.65853698546573 Q 38.22696711172865 159.37087569352087 47.514628403673505 162.3886197792137 L 47.514628403673505 162.3886197792137 L 52.15845904964594 163.89749182206015 Q 61.4461203415908 166.915235907753 58.42837625589795 176.20289719969784 L 58.42837625589795 176.20289719969784 L 56.16506819162832 183.1686431686565 Q 53.147324105935475 192.45630446060136 43.85966281399062 189.43856037490852 L 43.85966281399062 189.43856037490852 L 22.96242490711468 182.6486361820996 Z M 23.892682704687637 203.48726683025896 L 28.419298833226904 189.55577489234167 L 33.06312947919933 191.0646469351881 L 28.53651335066007 204.9961388731054 L 23.892682704687637 203.48726683025896 Z" fill-opacity="1"/></g></g><g><g><path fill="rgb(125,211,252)" stroke="none" paint-order="stroke fill markers" d=" M 46.84483088982694 128.30265419490158 L 42.920318231289365 134.48669661801205 L 35.784916929785204 118.39228140345628 L 53.3856853207229 117.9959168230508 L 49.46117266218532 124.17995924616127 L 68.01329993151671 135.953497221774 Q 72.13599488025702 138.56983899413237 74.7523366526154 134.44714404539206 L 74.7523366526154 134.44714404539206 L 78.67684931115298 128.2631016222816 Q 81.29319108351136 124.14040667354129 77.17049613477104 121.52406490118292 L 77.17049613477104 121.52406490118292 L 73.04780118603074 118.90772312882453 Q 68.92510623729044 116.29138135646615 66.30876446493205 120.41407630520646 L 66.30876446493205 120.41407630520646 L 62.384251806394474 126.59811872831692 L 58.26155685765417 123.98177695595854 L 62.18606951619174 117.79773453284807 Q 67.4187530609085 109.55234463536746 75.66414295838912 114.78502818008423 L 75.66414295838912 114.78502818008423 L 79.78683790712942 117.40136995244261 Q 88.03222780461005 122.63405349715937 82.79954425989328 130.87944339464 L 82.79954425989328 130.87944339464 L 78.8750316013557 137.06348581775046 Q 73.64234805663894 145.30887571523107 65.39695815915832 140.0761921705143 L 65.39695815915832 140.0761921705143 L 46.84483088982694 128.30265419490158 Z M 42.56350622350387 148.71794664840039 L 50.41253154057902 136.34986180217945 L 54.53522648931933 138.96620357453784 L 46.68620117224418 151.33428842075875 L 42.56350622350387 148.71794664840039 Z" fill-opacity="1"/></g></g><g><g><path fill="rgb(125,211,252)" stroke="none" paint-order="stroke fill markers" d=" M 83.49222330017926 81.6033640161676 L 78.15309761105759 86.61713676466874 L 75.24438636621754 69.25385505509055 L 92.39076611538204 73.24707610199906 L 87.05164042626036 78.26084885050018 L 102.09295867176377 94.2782259178652 Q 105.43547383743119 97.8376430439463 108.9948909635123 94.49512787827888 L 108.9948909635123 94.49512787827888 L 114.33401665263398 89.48135512977775 Q 117.89343377871509 86.13883996411033 114.55091861304767 82.57942283802922 L 114.55091861304767 82.57942283802922 L 111.20840344738025 79.0200057119481 Q 107.86588828171281 75.46058858586699 104.30647115563171 78.80310375153441 L 104.30647115563171 78.80310375153441 L 98.96734546651004 83.81687650003555 L 95.62483030084262 80.25745937395443 L 100.96395598996429 75.2436866254533 Q 108.0827902421265 68.55865629411845 114.76782057346135 75.67749054628068 L 114.76782057346135 75.67749054628068 L 118.11033573912877 79.23690767236178 Q 124.79536607046363 86.35574192452401 117.6765318183014 93.04077225585885 L 117.6765318183014 93.04077225585885 L 112.33740612917973 98.05454500436 Q 105.21857187701751 104.73957533569484 98.53354154568265 97.62074108353262 L 98.53354154568265 97.62074108353262 L 83.49222330017926 81.6033640161676 Z M 74.26832754435594 100.31255036795898 L 84.94657892259929 90.2850048709567 L 88.2890940882667 93.84442199703781 L 77.61084271002336 103.87196749404008 L 74.26832754435594 100.31255036795898 Z" fill-opacity="1"/></g></g><g><g><path fill="rgb(125,211,252)" stroke="none" paint-order="stroke fill markers" d=" M 130.60191169334766 45.48505379580305 L 124.18364987662014 49.01352308854022 L 125.68439371344915 31.472373731435617 L 141.29901472122685 39.60427164124109 L 134.88075290449933 43.13274093397827 L 145.46616078271086 62.387526384160815 Q 147.81847364453563 66.6663675953125 152.09731485568733 64.31405473348771 L 152.09731485568733 64.31405473348771 L 158.51557667241482 60.78558544075054 Q 162.7944178835665 58.43327257892575 160.44210502174172 54.15443136777408 L 160.44210502174172 54.15443136777408 L 158.08979215991695 49.8755901566224 Q 155.73747929809215 45.59674894547072 151.45863808694048 47.94906180729551 L 151.45863808694048 47.94906180729551 L 145.04037627021296 51.47753110003268 L 142.6880634083882 47.198689888881 L 149.1063252251157 43.67022059614382 Q 157.66400764741906 38.965594872494265 162.36863337106863 47.523277294797616 L 162.36863337106863 47.523277294797616 L 164.7209462328934 51.802118505949295 Q 169.42557195654297 60.35980092825265 160.86788953423962 65.06442665190221 L 160.86788953423962 65.06442665190221 L 154.4496277175121 68.59289594463938 Q 145.89194529520876 73.29752166828895 141.1873195715592 64.73983924598559 L 141.1873195715592 64.73983924598559 L 130.60191169334766 45.48505379580305 Z M 117.01501614147813 61.31256705982969 L 129.85153977493314 54.25562847435535 L 132.20385263675794 58.53446968550702 L 119.3673290033029 65.59140827098136 L 117.01501614147813 61.31256705982969 Z" fill-opacity="1"/></g></g><g><g><path fill="rgb(125,211,252)" stroke="none" paint-order="stroke fill markers" d=" M 185.21382109027545 22.217169798806225 L 178.11970614060283 24.03862893331444 L 183.9356078044832 7.421786854624976 L 197.03734600639643 19.181404574625873 L 189.94323105672382 21.002863709134083 L 195.40760846024847 42.28520855815186 Q 196.6219145499206 47.01461852460025 201.351324516369 45.80031243492811 L 201.351324516369 45.80031243492811 L 208.4454394660416 43.9788533004199 Q 213.17484943249 42.76454721074776 211.96054334281786 38.035137244299364 L 211.96054334281786 38.035137244299364 L 210.7462372531457 33.30572727785097 Q 209.53193116347356 28.576317311402576 204.80252119702516 29.790623401074715 L 204.80252119702516 29.790623401074715 L 197.70840624735257 31.61208253558293 L 196.49410015768044 26.882672569134535 L 203.58821510735302 25.06121343462632 Q 213.04703504024982 22.63260125528204 215.4756472195941 32.09142118817883 L 215.4756472195941 32.09142118817883 L 216.68995330926623 36.82083115462722 Q 219.11856548861053 46.279651087524016 209.65974555571373 48.70826326686829 L 209.65974555571373 48.70826326686829 L 202.56563060604114 50.5297224013765 Q 193.10681067314437 52.95833458072079 190.67819849380007 43.499514647824 L 190.67819849380007 43.499514647824 L 185.21382109027545 22.217169798806225 Z M 168.11764035899006 34.16850910716738 L 182.30587025833526 30.525590838150958 L 183.5201763480074 35.25500080459935 L 169.33194644866222 38.897919073615775 L 168.11764035899006 34.16850910716738 Z" fill-opacity="1"/></g></g></g></g></svg>