<svg version="1.1" xmlns="http://www.w3.org/2000/svg" xmlns:xlink="http://www.w3.org/1999/xlink" width="500" height="500" viewBox="0 0 500 500"><defs/><g><g><g><g><path fill="rgb(244,244,245)" stroke="none" paint-order="stroke fill markers" d=" M 266.925 35.95 C 266.925 27.099999999999998 259.725 19.9 250.875 19.9 C 242.025 19.9 234.825 27.099999999999998 234.825 35.95 C 234.825 36.45 234.825 36.9 234.875 37.35 L 231.125 37.35 L 236.025 42.25 L 240.925 37.35 L 236.925 37.35 C 236.875 36.9 236.825 36.45 236.825 35.95 C 236.825 28.2 243.125 21.9 250.875 21.9 C 258.625 21.9 264.925 28.2 264.925 35.95 Z" fill-opacity="1"/></g></g><g><g><path fill="rgb(244,244,245)" stroke="none" paint-order="stroke fill markers" d=" M 270.06616700977423 36.338721181080984 C 271.3417750844499 28.69442107970989 278.5927972146557 23.51729078704136 286.2370973160268 24.79289886171705 C 293.8813974173979 26.068506936392737 299.0585277100664 33.31952906659851 297.7829196353907 40.963829167969614 C 297.7006223402504 41.45700981967097 297.5772367094539 41.89264267668816 297.45385107865746 42.32827553370535 L 293.50840586504654 41.66989717258242 L 297.5350627593443 47.30958105163135 L 303.17474663839323 43.28292415733361 L 299.475891750633 42.66569444378085 C 299.5992773814295 42.23006158676367 299.67334494705585 41.78619900023244 299.7556422421962 41.29301834853108 C 301.21230436618066 32.563720813416985 295.2955840317024 24.2768383788961 286.56628649658825 22.820176254911605 C 277.83698896147416 21.36351413092711 269.5501065269533 27.280234465405428 268.0934444029688 36.00953200051952 Z" fill-opacity="1"/></g></g><g><g><path fill="rgb(244,244,245)" stroke="none" paint-order="stroke fill markers" d=" M 335.5098781990457 53.04335793026843 C 338.38346850150714 44.672875341217804 333.9114205395363 35.52515502269952 325.54093795048567 32.65156472023807 C 317.1704553614351 29.777974417776626 308.0227350429168 34.25002237974747 305.1491447404553 42.62050496879809 C 304.98679500585297 43.09341358964841 304.8406802447109 43.51903134841369 304.7418563456538 43.96088408063921 L 301.1950416892764 42.74326107112165 L 304.2385187745066 48.968792954557706 L 310.46405065794266 45.92531586932755 L 306.6807816911401 44.62651799250881 C 306.7796055901972 44.184665260283296 306.87842948925424 43.74281252805777 307.0407792238566 43.26990390720746 C 309.55720011019287 35.93982028402753 317.5614553888964 32.02677831730304 324.8915390120763 34.54319920363935 C 332.2216226352562 37.05962008997564 336.1346646019807 45.06387536867914 333.61824371564444 52.39395899185906 Z" fill-opacity="1"/></g></g><g><g><path fill="rgb(244,244,245)" stroke="none" paint-order="stroke fill markers" d=" M 338.3546305547858 54.43095238630602 C 342.0432228508231 47.61503081445573 350.5823760595576 45.07281475798841 357.39829763140784 48.761407054025725 C 364.21421920325815 52.44999935006305 366.7564352597255 60.9891525587975 363.0678429636881 67.80507413064778 C 362.8298692671696 68.24481100625103 362.5717192527426 68.6167768246421 362.3135692383156 68.98874264303316 L 358.79567423348965 67.08495307088486 L 360.7729533885198 73.72651667767832 L 367.41451699531325 71.74923752264819 L 364.1164904282889 69.96443479875916 C 364.37464044271593 69.5924689803681 364.5888167695826 69.19670579232518 364.8267904661011 68.75696891672193 C 369.03892489447924 60.9736262185445 366.1335351156594 51.21459397999085 358.350192417482 47.002459551612745 C 350.56684971930457 42.79032512323465 340.80781748075094 45.69571490205444 336.5956830523728 53.47905760023187 Z" fill-opacity="1"/></g></g><g><g><path fill="rgb(244,244,245)" stroke="none" paint-order="stroke fill markers" d=" M 394.82843427275736 91.48002412597458 C 400.2642167800609 84.4961306178165 399.0047366437725 74.39198741879686 392.0208431356144 68.9562049114933 C 385.03694962745635 63.52042240418974 374.93280642843666 64.77990254047816 369.4970239211331 71.76379604863624 C 369.1899175647883 72.15836630333445 368.91352184407793 72.51347953256283 368.6765831488374 72.89930339742568 L 365.71730623860094 70.59600572483942 L 366.5744524424639 77.47243651306113 L 373.4508832306856 76.61529030919817 L 370.2943211931 74.1584394584395 C 370.5312598883405 73.77261559357663 370.76819858358107 73.38679172871377 371.0753049399259 72.99222147401558 C 375.8354534632708 66.87638252619354 384.67657876241304 65.77433740694116 390.7924177102351 70.53448593028608 C 396.9082566580571 75.294634453631 398.0103017773095 84.1357597527732 393.2501532539646 90.25159870059525 Z" fill-opacity="1"/></g></g><g><g><path fill="rgb(244,244,245)" stroke="none" paint-order="stroke fill markers" d=" M 397.06849891583806 93.71612446691071 C 402.7703592235548 88.46719228681123 411.6722937620377 88.83537902280979 416.9212259421372 94.53723933052656 C 422.17015812223667 100.23909963824333 421.80197138623816 109.14103417672624 416.10011107852137 114.38996635682572 C 415.73224912318483 114.7286071426386 415.3673092848006 114.99659765433651 415.0023694464164 115.26458816603444 L 412.29324315991346 112.32169252334192 L 412.0068756985812 119.2454193866064 L 418.9306025618457 119.5317868479386 L 416.3907966682492 116.77282218291437 C 416.75573650663335 116.50483167121644 417.0868122664363 116.20005496398485 417.45467422177285 115.86141417817198 C 423.96583083123005 109.86747226928418 424.38661567237125 99.6938327967323 418.39267376348346 93.18267618727508 C 412.39873185459567 86.67151957781786 402.2250923820438 86.25073473667665 395.7139357725866 92.24467664556445 Z" fill-opacity="1"/></g></g><g><g><path fill="rgb(244,244,245)" stroke="none" paint-order="stroke fill markers" d=" M 438.45258224831633 147.0947893984878 C 445.8615055809397 142.2542981991043 447.9510774859484 132.28867281713264 443.11058628656497 124.87974948450926 C 438.27009508718146 117.47082615188589 428.3044697052098 115.38125424687715 420.8955463725864 120.22174544626064 C 420.4769631334552 120.49521952532186 420.100238218237 120.74134619647694 419.750860710925 121.02933119154517 L 417.69980511796587 117.88995689806067 L 416.2777353492794 124.67211861634696 L 423.05989706756566 126.09418838503346 L 420.872104435076 122.74552247198335 C 421.221481942388 122.45753747691512 421.5708594497 122.1695524818469 421.9894426888313 121.89607840278569 C 428.4774828953659 117.65723017733688 437.1974051045911 119.48560559421952 441.4362533300399 125.97364580075413 C 445.6751015554887 132.4616860072887 443.8467261386061 141.18160821651395 437.35868593207147 145.42045644196276 Z" fill-opacity="1"/></g></g><g><g><path fill="rgb(244,244,245)" stroke="none" paint-order="stroke fill markers" d=" M 439.8452134164756 149.93707945571037 C 446.9424566980523 146.82393991464986 455.24250983129286 150.062630697263 458.35564937235335 157.1598739788397 C 461.4687889134139 164.25711726041638 458.23009813080074 172.55717039365697 451.13285484922403 175.67030993471747 C 450.6749681858965 175.87115764704396 450.2427854176691 176.00613192180504 449.81060264944165 176.14110619656614 L 448.20382095082977 172.4780128899459 L 445.68483923101957 178.93360977135524 L 452.14043611242886 181.45259149116546 L 450.63407826998025 178.018441516209 C 451.06626103820764 177.8834672414479 451.47835903520246 177.70270430035407 451.93624569853 177.50185658802758 C 460.04083963942725 173.9468520798488 463.74220053384227 164.46107707043103 460.18719602566347 156.35648312953376 C 456.6321915174847 148.2518891886365 447.1464165080669 144.55052829422146 439.0418225671697 148.10553280240026 Z" fill-opacity="1"/></g></g><g><g><path fill="rgb(244,244,245)" stroke="none" paint-order="stroke fill markers" d=" M 461.6549687941717 213.8609309785351 C 470.2341611477347 211.68838441733902 475.4463475550842 202.94120699516208 473.2738009938881 194.36201464159902 C 471.10125443269203 185.78282228803593 462.3540770105151 180.5706358806865 453.774884656952 182.7431824418826 C 453.29018452398236 182.865925185453 452.85395440430966 182.97639365466634 452.429998558994 183.13533213717668 L 451.509427982216 179.50008113990418 L 447.9622455661032 185.45302132999683 L 453.9151857561958 189.0002037461096 L 452.9332438076326 185.1226026823523 C 453.3571996529483 184.96366419984196 453.78115549826396 184.80472571733165 454.2658556312336 184.68198297376125 C 461.7787076922634 182.77947044842006 469.4324879366682 187.3401335548508 471.3350004620094 194.8529856158806 C 473.2375129873506 202.36583767691042 468.67684988091986 210.01961792131524 461.1639978198901 211.92213044665644 Z" fill-opacity="1"/></g></g><g><g><path fill="rgb(244,244,245)" stroke="none" paint-order="stroke fill markers" d=" M 462.04925329144055 217.0014045216697 C 469.7727831122423 216.36141459425912 476.57151529466 222.11964702372546 477.21150522207057 229.84317684452714 C 477.85149514948114 237.56670666532884 472.0932627200148 244.36543884774656 464.3697328992131 245.00542877515713 C 463.8714406527098 245.04671844789328 463.41884866358316 245.0340499287055 462.96625667445653 245.02138140951772 L 462.63593929256723 241.03504343749105 L 458.157314069649 246.32294624603816 L 463.44521687819605 250.8015714689564 L 463.13554433267484 247.0643796201814 C 463.5881363218014 247.0770481393692 464.0365993436544 247.03988743390664 464.53489159015777 246.99859776117046 C 473.3546643532668 246.26777055374032 479.935501415514 238.4977909166915 479.2046742080839 229.67801815358249 C 478.47384700065373 220.85824539047346 470.70386736360496 214.27740832822622 461.8840946004959 215.00823553565635 Z" fill-opacity="1"/></g></g><g><g><path fill="rgb(244,244,245)" stroke="none" paint-order="stroke fill markers" d=" M 461.9212553059584 284.5433014424906 C 470.7410280690675 285.2741286499207 478.5110077061163 278.6932915876735 479.2418349135464 269.8735188245645 C 479.97266212097657 261.05374606145546 473.39182505872935 253.28376642440665 464.5720522956203 252.5529392169765 C 464.07376004911697 252.51164954424033 463.62529702726397 252.47448883877777 463.17270503813734 252.48715735796557 L 463.4823775836586 248.74996550919056 L 458.1944747751115 253.2285907321088 L 462.6730999980298 258.5164935406559 L 463.0034173799191 254.53015556862923 C 463.4560093690457 254.51748704944146 463.90860135817235 254.50481853025366 464.40689360467564 254.54610820298984 C 472.1304234254774 255.1860981304004 477.8886558549437 261.98483031281813 477.2486659275331 269.7083601336198 C 476.6086760001225 277.43188995442154 469.80994381770483 283.19012238388785 462.0864139969031 282.5501324564773 Z" fill-opacity="1"/></g></g><g><g><path fill="rgb(244,244,245)" stroke="none" paint-order="stroke fill markers" d=" M 461.27446628910343 287.64163943367083 C 468.7873183501332 289.544151959012 473.34798145656396 297.1979322034168 471.44546893122276 304.71078426444666 C 469.54295640588157 312.2236363254765 461.88917616147677 316.78429943190724 454.37632410044694 314.88178690656605 C 453.8916239674773 314.7590441629956 453.4676681221616 314.6001056804853 453.043712276846 314.44116719797495 L 454.0256542254092 310.56356613421764 L 448.07271403531655 314.11074855033047 L 451.6198964514293 320.0636887404231 L 452.54046702820733 316.4284377431506 C 452.964422873523 316.58737622566093 453.4006529931957 316.6978446948743 453.88535312616534 316.8205874384447 C 462.46454547972843 318.99313399964075 471.2117229019054 313.78094759229134 473.3842694631014 305.20175523872825 C 475.5568160242975 296.62256288516517 470.3446296169481 287.8753854629883 461.765437263385 285.7028389017922 Z" fill-opacity="1"/></g></g><g><g><path fill="rgb(244,244,245)" stroke="none" paint-order="stroke fill markers" d=" M 439.22258550826353 351.4823692006049 C 447.3271794491608 355.0373737087837 456.8129544585786 351.3360128143687 460.3679589667574 343.2314188734714 C 463.9229634749362 335.12682493257415 460.2216025805211 325.6410499231564 452.11700863962386 322.0860454149776 C 451.6591219762963 321.8851977026511 451.24702397930156 321.70443476155725 450.8148412110741 321.5694604867962 L 452.3211990535228 318.13531051183975 L 445.8656021721134 320.65429223164995 L 448.3845838919237 327.1098891130593 L 449.99136559053557 323.44679580643907 C 450.42354835876296 323.58177008120015 450.8557311269904 323.7167443559612 451.31361779031795 323.9175920682877 C 458.4108610718946 327.0307316093482 461.64955185450776 335.3307847425888 458.5364123134473 342.4280280241655 C 455.4232727723868 349.5252713057422 447.1232196391462 352.76396208835536 440.0259763575695 349.6508225472948 Z" fill-opacity="1"/></g></g><g><g><path fill="rgb(244,244,245)" stroke="none" paint-order="stroke fill markers" d=" M 437.60481260322655 354.20281864281907 C 444.09285280976115 358.4416668682679 445.9212282266438 367.1615890774931 441.682380001195 373.6496292840277 C 437.4435317757462 380.13766949056225 428.72360956652096 381.96604490744494 422.23556935998636 377.72719668199613 C 421.8169861208551 377.4537226029349 421.46760861354306 377.1657376078667 421.11823110623106 376.8777526127985 L 423.3060237387208 373.52908669974835 L 416.5238620204345 374.9511564684348 L 417.945931789121 381.73331818672114 L 419.9969873820801 378.59394389323666 C 420.34636488939213 378.88192888830486 420.72308980461025 379.12805555945994 421.1416730437415 379.40152963852114 C 428.55059637636487 384.24202083790465 438.5162217583366 382.15244893289594 443.35671295772005 374.7435256002725 C 448.19720415710356 367.33460226764913 446.1076322520948 357.36897688567745 438.6987089194714 352.528485686294 Z" fill-opacity="1"/></g></g><g><g><path fill="rgb(244,244,245)" stroke="none" paint-order="stroke fill markers" d=" M 396.0187124798182 407.4242475946326 C 402.52986908927545 413.41818950352047 412.70350856182733 412.9974046623792 418.6974504707151 406.486248052922 C 424.6913923796029 399.9750914434648 424.2706075384617 389.8014519709129 417.7594509290045 383.8075100620251 C 417.3915889736679 383.4688692762122 417.060513213865 383.16409256898066 416.6955733754808 382.8961020572827 L 419.2353792690773 380.13713739225847 L 412.3116524058129 380.4235048535907 L 412.59801986714507 387.34723171685516 L 415.30714615364803 384.40433607416264 C 415.67208599203224 384.67232658586056 416.03702583041644 384.9403170975585 416.40488778575303 385.2789578833714 C 422.1067480934698 390.52789006347086 422.47493482946834 399.4298246019537 417.22600264936887 405.1316849096705 C 411.9770704692694 410.83354521738727 403.0751359307865 411.20173195338583 397.3732756230697 405.95279977328636 Z" fill-opacity="1"/></g></g><g><g><path fill="rgb(244,244,245)" stroke="none" paint-order="stroke fill markers" d=" M 393.60526648319296 409.4720055786944 C 398.3654150065379 415.5878445265164 397.26336988728553 424.4289698256586 391.1475309394635 429.18911834900354 C 385.0316919916414 433.94926687234846 376.1905666924992 432.8472217530961 371.4304181691543 426.73138280527405 C 371.12331181280945 426.3368125505758 370.88637311756895 425.95098868571296 370.6494344223284 425.5651648208501 L 373.80599645991396 423.10831397009144 L 366.9295656716923 422.2511677662285 L 366.0724194678293 429.1275985544502 L 369.0316963780658 426.82430088186396 C 369.2686350733063 427.2101247467268 369.54503079401667 427.5652379759552 369.8521371503615 427.9598082306534 C 375.28791965766504 434.94370173881146 385.39206285668473 436.20318187509986 392.3759563648428 430.7673993677963 C 399.3598498730009 425.3316168604928 400.6193300092893 415.22747366147314 395.18354750198574 408.243580153315 Z" fill-opacity="1"/></g></g><g><g><path fill="rgb(244,244,245)" stroke="none" paint-order="stroke fill markers" d=" M 336.9914462404158 446.30676607290144 C 341.2035806687939 454.09010877107886 350.96261290734753 456.9954985498987 358.745955605525 452.78336412152055 C 366.52929830370243 448.57122969314247 369.4346880825222 438.8121974545888 365.2225536541441 431.02885475641136 C 364.98457995762556 430.58911788080815 364.7704036307589 430.19335469276524 364.51225361633186 429.8213888743741 L 367.8102801833562 428.0365861504851 L 361.16871657656276 426.05930699545496 L 359.1914374215326 432.7008706022485 L 362.70933242635857 430.7970810301002 C 362.9674824407856 431.16904684849123 363.2256324552126 431.5410126668823 363.46360615173114 431.9807495424855 C 367.15219844776846 438.7966711143358 364.6099823913011 447.33582432307026 357.79406081945086 451.02441661910757 C 350.97813924760055 454.7130089151449 342.4389860388661 452.1707928586776 338.7503937428288 445.3548712868273 Z" fill-opacity="1"/></g></g><g><g><path fill="rgb(244,244,245)" stroke="none" paint-order="stroke fill markers" d=" M 334.04386147440977 447.45992624699886 C 336.5602823607461 454.7900098701788 332.6472403940216 462.7942651488823 325.3171567708417 465.31068603521857 C 317.98707314766176 467.8271069215549 309.98281786895825 463.9140649548304 307.4663969826219 456.5839813316505 C 307.30404724801963 456.11107271080016 307.20522334896253 455.66921997857463 307.10639944990544 455.2273672463491 L 310.889668416708 453.92856936953035 L 304.6641365332719 450.88509228430024 L 301.62065944804175 457.11062416773626 L 305.16747410441917 455.8930011582187 C 305.2662980034762 456.3348538904442 305.41241276461835 456.76047164920953 305.5747624992207 457.23338027005985 C 308.4483528016821 465.60386285911045 317.5960731202004 470.0759108210813 325.96655570925105 467.20232051861984 C 334.33703829830165 464.3287302161584 338.8090862602725 455.1810098976401 335.93549595781104 446.8105273085895 Z" fill-opacity="1"/></g></g><g><g><path fill="rgb(244,244,245)" stroke="none" paint-order="stroke fill markers" d=" M 268.53730698950005 463.9164004338541 C 269.9939691134845 472.6456979689682 278.28085154800544 478.5624183034465 287.01014908311953 477.10575617946205 C 295.7394466182336 475.6490940554775 301.65616695271194 467.36221162095666 300.1995048287274 458.6329140858426 C 300.1172075335871 458.1397334341412 300.0431399679607 457.69587084760997 299.91975433716425 457.26023799059277 L 303.61860922492446 456.64300827704005 L 297.97892534587555 452.61635138274227 L 293.95226845157777 458.2560352617912 L 297.8977136651887 457.5976569006683 C 298.02109929598515 458.03328975768545 298.1444849267816 458.46892261470265 298.22678222192195 458.96210326640403 C 299.50239029659764 466.6064033677751 294.32526000392915 473.8574254979809 286.680959902558 475.1330335726566 C 279.03665980118694 476.4086416473323 271.78563767098115 471.2315113546638 270.51002959630546 463.58721125329265 Z" fill-opacity="1"/></g></g><g><g><path fill="rgb(244,244,245)" stroke="none" paint-order="stroke fill markers" d=" M 265.37500000000006 464.05 C 265.37500000000006 471.8 259.07500000000005 478.1 251.32500000000005 478.1 C 243.57500000000005 478.1 237.27500000000003 471.8 237.27500000000003 464.05 C 237.27500000000003 463.55 237.32500000000005 463.1 237.37500000000003 462.65 L 241.37500000000003 462.65 L 236.47500000000002 457.75 L 231.57500000000005 462.65 L 235.32500000000005 462.65 C 235.27500000000003 463.1 235.27500000000003 463.55 235.27500000000003 464.05 C 235.27500000000003 472.9 242.47500000000002 480.1 251.32500000000005 480.1 C 260.175 480.1 267.37500000000006 472.9 267.37500000000006 464.05 Z" fill-opacity="1"/></g></g><g><g><path fill="rgb(244,244,245)" stroke="none" paint-order="stroke fill markers" d=" M 198.07436289031784 458.34487355285125 C 196.61770076633337 467.0741710879654 202.53442110081167 475.36105352248626 211.26371863592576 476.81771564647073 C 219.99301617103987 478.27437777045526 228.27989860556073 472.35765743597693 229.73656072954523 463.62835990086285 C 229.8188580246856 463.13517924916147 229.89292559031193 462.69131666263024 229.91767509076814 462.239224346585 L 233.61652997852835 462.85645406013776 L 229.5898730842306 457.2167701810888 L 223.95018920518166 461.24342707538653 L 227.89563441879255 461.9018054365095 C 227.87088491833634 462.35389775255476 227.84613541788016 462.8059900686 227.7638381227398 463.2991707203014 C 226.4882300480641 470.94347082167246 219.23720791785834 476.120601114341 211.59290781648724 474.8449930396653 C 203.94860771511614 473.56938496498964 198.77147742244762 466.31836283478384 200.0470854971233 458.67406273341277 Z" fill-opacity="1"/></g></g><g><g><path fill="rgb(244,244,245)" stroke="none" paint-order="stroke fill markers" d=" M 195.04001870788477 457.44443492504286 C 192.5235978215485 464.7745185482228 184.51934254284498 468.6875605149473 177.18925891966506 466.171139628611 C 169.85917529648515 463.65471874227467 165.94613332976064 455.6504634635712 168.46255421609692 448.3203798403913 C 168.62490395069926 447.847471219541 168.81830957392643 447.4380884342359 169.01171519715356 447.02870564893084 L 172.7949841639561 448.3275035257496 L 169.75150707872592 442.1019716423135 L 163.52597519528987 445.1454487275437 L 167.07278985166727 446.36307173706126 C 166.8793842284401 446.7724545223663 166.73326946729802 447.1980722811316 166.57091973269567 447.6709809019819 C 163.69732943023422 456.0414634910325 168.16937739220506 465.1891838095508 176.5398599812557 468.0627741120123 C 184.9103425703063 470.9363644144737 194.0580628888246 466.4643164525029 196.93165319128605 458.09383386345223 Z" fill-opacity="1"/></g></g><g><g><path fill="rgb(244,244,245)" stroke="none" paint-order="stroke fill markers" d=" M 133.2383672812446 430.1959468185965 C 129.02623285286649 437.9792895167739 131.93162263168628 447.7383217553276 139.71496532986373 451.9504561837057 C 147.49830802804115 456.1625906120838 157.2573402665948 453.257200833264 161.46947469497292 445.4738581350866 C 161.70744839149143 445.0341212594833 161.92162471835812 444.6383580714404 162.09182735766447 444.21879751374564 L 165.38985392468882 446.00360023763466 L 163.41257476965868 439.3620366308412 L 156.77101116286522 441.33931578587135 L 160.28890616769118 443.24310535801965 C 160.11870352838483 443.6626659157144 159.94850088907845 444.08222647340915 159.7105271925599 444.5219633490124 C 156.0219348965226 451.33788492086273 147.48278168778816 453.88010097733 140.66686011593788 450.1915086812927 C 133.85093854408757 446.5029163852554 131.30872248762026 437.96376317652096 134.99731478365757 431.14784160467065 Z" fill-opacity="1"/></g></g><g><g><path fill="rgb(244,244,245)" stroke="none" paint-order="stroke fill markers" d=" M 130.66080418074617 428.3590464939017 C 125.90065565740123 434.47488544172376 117.05953035825905 435.57693056097617 110.943691410437 430.81678203763124 C 104.82785246261494 426.0566335142863 103.72580734336256 417.2155082151441 108.4859558667075 411.09966926732204 C 108.79306222305233 410.70509901262386 109.1089149692325 410.38069641902996 109.42476771541267 410.05629382543606 L 112.58132975299824 412.5131446761947 L 111.72418354913529 405.63671388797303 L 104.84775276091358 406.493860091836 L 107.80702967115006 408.79715776442225 C 107.49117692496989 409.12156035801615 107.21478120425954 409.47667358724453 106.9076748479147 409.8712438419427 C 101.47189234061115 416.8551373501008 102.73137247689957 426.9592805491204 109.71526598505766 432.395063056424 C 116.69915949321575 437.83084556372756 126.80330269223539 436.57136542743916 132.23908519953895 429.58747191928103 Z" fill-opacity="1"/></g></g><g><g><path fill="rgb(244,244,245)" stroke="none" paint-order="stroke fill markers" d=" M 81.05530632065057 382.5199932183472 C 74.54414971119336 388.5139351272351 74.12336487005214 398.68757459978696 80.11730677893996 405.19873120924416 C 86.11124868782778 411.70988781870136 96.28488816037967 412.13067265984256 102.79604476983687 406.13673075095477 C 103.16390672517343 405.7980899651419 103.49498248497635 405.4933132579103 103.79219416619797 405.15175035514505 L 106.3320000597945 407.91071502016933 L 106.61836752112671 400.98698815690483 L 99.69464065786224 400.70062069557264 L 102.4037669443652 403.64351633826516 C 102.10655526314358 403.9850792410304 101.80934358192195 404.32664214379565 101.44148162658539 404.6652829296085 C 95.73962131886861 409.914215109708 86.83768678038572 409.5460283737094 81.58875460028622 403.8441680659927 C 76.33982242018672 398.14230775827593 76.70800915618528 389.240373219793 82.40986946390206 383.9914410396935 Z" fill-opacity="1"/></g></g><g><g><path fill="rgb(244,244,245)" stroke="none" paint-order="stroke fill markers" d=" M 79.21384325903807 379.94568784939185 C 72.72580305250347 384.1845360748407 64.00588084327825 382.356160657958 59.76703261782944 375.86812045142347 C 55.52818439238064 369.38008024488886 57.356559809263274 360.66015803566364 63.844600015797866 356.42130981021484 C 64.26318325492913 356.1478357311536 64.6672555780534 355.9435673839116 65.07132790117765 355.73929903666965 L 67.25912053366736 359.0879649497198 L 68.68119030235385 352.3058032314335 L 61.89902858406758 350.883733462747 L 63.95008417702668 354.02310775623147 C 63.546011853902414 354.22737610347343 63.16928693868428 354.4735027746285 62.750703699553014 354.7469768536898 C 55.34178036692964 359.5874680530732 53.25220846192091 369.5530934350449 58.09269966130439 376.9620167676683 C 62.933190860687866 384.37094010029165 72.89881624265954 386.4605120053004 80.30773957528292 381.6200208059169 Z" fill-opacity="1"/></g></g><g><g><path fill="rgb(244,244,245)" stroke="none" paint-order="stroke fill markers" d=" M 47.18002436723346 320.48344209333135 C 39.075430426336204 324.03844660151015 35.37406953192118 333.52422161092795 38.92907404009996 341.6288155518252 C 42.484078548278745 349.73340949272244 51.96985355769654 353.4347703871375 60.07444749859379 349.8797658789587 C 60.53233416192133 349.67891816663223 60.9444321589161 349.49815522553837 61.33644538467823 349.2716036181118 L 62.842803227126865 352.70575359306827 L 65.36178494693709 346.2501567116589 L 58.90618806552776 343.7311749918487 L 60.51296976413964 347.39426829846894 C 60.12095653837751 347.62081990589553 59.728943312615385 347.8473715133221 59.27105664928786 348.0482192256486 C 52.17381336771116 351.1613587667091 43.87376023447059 347.92266798409594 40.760620693410075 340.8254247025193 C 37.647481152349556 333.7281814209426 40.886171934962704 325.428128287702 47.9834152165394 322.31498874664146 Z" fill-opacity="1"/></g></g><g><g><path fill="rgb(244,244,245)" stroke="none" paint-order="stroke fill markers" d=" M 46.27421244047613 317.45069761130526 C 38.761360379446316 319.35321013664645 31.107580135041502 314.7925470302157 29.205067609700308 307.27969496918587 C 27.302555084359113 299.7668429081561 31.86321819078986 292.11306266375124 39.37607025181967 290.21055013841004 C 39.86077038478933 290.0878073948397 40.30927477881907 290.02580893892326 40.757779172848814 289.9638104830069 L 41.73972112141201 293.8414115467642 L 45.286903537524815 287.8884713566716 L 39.333963347432174 284.34128894055874 L 40.25453392421018 287.97653993783126 C 39.80602953018044 288.0385383937477 39.36979941050774 288.149006862961 38.885099277538075 288.2717496065314 C 30.305906923974998 290.4442961677275 25.093720516625574 299.19147358990443 27.266267077821645 307.77066594346746 C 29.438813639017717 316.34985829703055 38.18599106119465 321.56204470438 46.76518341475772 319.3894981431839 Z" fill-opacity="1"/></g></g><g><g><path fill="rgb(244,244,245)" stroke="none" paint-order="stroke fill markers" d=" M 35.28343384980309 250.80891635421494 C 26.46366108669406 251.53974356164508 19.882824024446833 259.3097231986939 20.61365123187698 268.12949596180295 C 21.34447843930712 276.949268724912 29.11445807635594 283.5301057871592 37.93423083946497 282.79927857972905 C 38.432523085968306 282.75798890699286 38.88098610782131 282.7208282015303 39.32532016240069 282.63383827141746 L 39.63499270792194 286.3710301201925 L 44.11361793084019 281.08312731164534 L 38.82571512229308 276.6045020887271 L 39.15603250418241 280.5908400607538 C 38.71169844960303 280.67782999086666 38.26736439502364 280.76481992097956 37.76907214852031 280.8061095937157 C 30.045542327718614 281.4460995211263 23.2468101453009 275.68786709165994 22.60682021789032 267.96433727085827 C 21.96683029047974 260.2408074500566 27.725062719946063 253.44207526763887 35.448592540747754 252.8020853402283 Z" fill-opacity="1"/></g></g><g><g><path fill="rgb(244,244,245)" stroke="none" paint-order="stroke fill markers" d=" M 35.411431835285214 247.6463776816248 C 27.68790201448352 247.00638775421424 21.929669585017194 240.20765557179652 22.56965951242777 232.48412575099482 C 23.209649439838344 224.76059593019315 30.00838162225606 219.0023635007268 37.731911443057754 219.64235342813737 C 38.23020368956109 219.68364310087355 38.67453774414047 219.77063303098643 39.11887179871986 219.8576229610993 L 38.78855441683053 223.843960933126 L 44.07645722537764 219.36533571020775 L 39.597832002459384 214.07743290166064 L 39.28815945693814 217.81462475043566 C 38.84382540235875 217.72763482032275 38.39536238050575 217.6904741148602 37.89707013400242 217.64918444212404 C 29.077297370893387 216.9183572346939 21.30731773384457 223.49919429694114 20.576490526414428 232.31896706005017 C 19.845663318984286 241.1387398231592 26.426500381231516 248.908719460208 35.24627314434055 249.63954666763814 Z" fill-opacity="1"/></g></g><g><g><path fill="rgb(244,244,245)" stroke="none" paint-order="stroke fill markers" d=" M 46.65471494554433 181.04673197648884 C 38.075522591981255 178.87418541529277 29.328345169804322 184.0863718226422 27.15579860860825 192.66556417620527 C 24.983252047412183 201.24475652976835 30.19543845476161 209.9919339519453 38.77463080832469 212.16448051314137 C 39.25933094129435 212.28722325671174 39.69556106096705 212.3976917259251 40.14406545499679 212.4596901818415 L 39.223494878218794 216.094941179114 L 45.17643506831143 212.54775876300118 L 41.62925265219862 206.59481857290857 L 40.647310703635426 210.47241963666588 C 40.198806309605686 210.4104211807495 39.750301915575946 210.34842272483309 39.26560178260628 210.2256799812627 C 31.752749721576475 208.3231674559215 27.192086615145723 200.6693872115167 29.094599140486913 193.1565351504869 C 30.997111665828104 185.64368308945706 38.65089191023292 181.0830199830263 46.16374397126273 182.9855325083675 Z" fill-opacity="1"/></g></g><g><g><path fill="rgb(244,244,245)" stroke="none" paint-order="stroke fill markers" d=" M 47.80265227544557 178.09710925035338 C 40.70540899386887 174.98396970929286 37.466718211255724 166.6839165760523 40.57985775231623 159.58667329447562 C 43.69299729337675 152.4894300128989 51.993050426617316 149.25073923028575 59.09029370819401 152.36387877134626 C 59.54818037152154 152.56472648367276 59.94019359728367 152.79127809109934 60.332206823045794 153.01782969852593 L 58.72542512443392 156.68092300514616 L 65.18102200584325 154.16194128533593 L 62.66204028603302 147.7063444039266 L 61.15568244358438 151.14049437888306 C 60.763669217822255 150.91394277145648 60.35157122082748 150.73317983036264 59.89368455749995 150.53233211803615 C 51.78909061660269 146.97732760985738 42.3033156071849 150.6786885042724 38.748311099006116 158.78328244516968 C 35.19330659082733 166.88787638606692 38.894667485242366 176.37365139548473 46.999261426139626 179.9286559036635 Z" fill-opacity="1"/></g></g><g><g><path fill="rgb(244,244,245)" stroke="none" paint-order="stroke fill markers" d=" M 80.06161290412778 118.75670410930127 C 72.65268957150441 113.91621290991779 62.687064189532734 116.00578481492653 57.846572990149255 123.4147081475499 C 53.006081790765776 130.8236314801733 55.095653695774516 140.78925686214498 62.5045770283979 145.62974806152846 C 62.92316026752916 145.90322214058966 63.2998851827473 146.14934881174474 63.70395750587156 146.3536171589867 L 61.652901912912455 149.4929914524712 L 68.43506363119874 148.0709216837847 L 67.01299386251225 141.28875996549843 L 64.82520123002253 144.63742587854853 C 64.42112890689828 144.43315753130656 64.017056583774 144.2288891840646 63.59847334464275 143.9554151050034 C 57.11043313810815 139.7165668795546 55.28205772122551 130.99664467032937 59.52090594667432 124.50860446379477 C 63.759754172123124 118.02056425726016 72.47967638134834 116.19218884037753 78.96771658788293 120.43103706582633 Z" fill-opacity="1"/></g></g><g><g><path fill="rgb(244,244,245)" stroke="none" paint-order="stroke fill markers" d=" M 82.1050927566703 116.33963472010966 C 76.40323244895353 111.09070254001017 76.03504571295497 102.18876800152727 81.28397789305444 96.4869076938105 C 86.53291007315394 90.78504738609371 95.43484461163683 90.41686065009515 101.13670491935362 95.66579283019463 C 101.50456687469018 96.0044336160075 101.8017785559118 96.34599651877275 102.09899023713342 96.68755942153798 L 99.38986395063046 99.63045506423052 L 106.31359081389493 99.3440876028983 L 106.02722335256271 92.42036073963382 L 103.48741745896619 95.17932540465807 C 103.19020577774457 94.83776250189283 102.85913001794167 94.53298579466124 102.49126806260509 94.19434500884837 C 95.98011145314787 88.20040309996057 85.80647198059599 88.6211879411018 79.81253007170818 95.13234455055901 C 73.81858816282039 101.64350116001623 74.2393730039616 111.81714063256811 80.75052961341882 117.81108254145592 Z" fill-opacity="1"/></g></g><g><g><path fill="rgb(244,244,245)" stroke="none" paint-order="stroke fill markers" d=" M 131.8839719703105 70.68892380142938 C 126.44818946300695 63.70503029327131 116.34404626398731 62.445550156982875 109.36015275582923 67.88133266428645 C 102.37625924767116 73.31711517159 101.11677911138273 83.42125837060965 106.55256161868628 90.40515187876773 C 106.85966797503113 90.79972213346592 107.13606369574147 91.1548353626943 107.45191644192164 91.4792379562882 L 104.49263953168517 93.78253562887446 L 111.36907031990687 94.63968183273741 L 112.22621652376982 87.7632510445157 L 109.06965448618425 90.22010189527438 C 108.75380174000408 89.89569930168048 108.43794899382391 89.57129670808659 108.13084263747908 89.1767264533884 C 103.37069411413415 83.06088750556634 104.47273923338652 74.21976220642415 110.58857818120856 69.45961368307923 C 116.70441712903062 64.6994651597343 125.54554242817281 65.80151027898667 130.30569095151773 71.91734922680872 Z" fill-opacity="1"/></g></g><g><g><path fill="rgb(244,244,245)" stroke="none" paint-order="stroke fill markers" d=" M 134.60155159561452 69.0663347221961 C 130.91295929957718 62.250413150345814 133.4551753560445 53.71125994161137 140.27109692789477 50.022667645574046 C 147.08701849974508 46.33407534953672 155.62617170847952 48.87629140600403 159.31476400451686 55.69221297785431 C 159.5527377010354 56.131949853457556 159.72294034034175 56.551510411152336 159.8931429796481 56.97107096884711 L 156.37524797482214 58.8748605409954 L 163.0168115816156 60.85213969602554 L 164.99409073664575 54.21057608923208 L 161.6960641696214 55.99537881312111 C 161.52586153031504 55.57581825542633 161.31168520344838 55.18005506738341 161.07371150692984 54.74031819178016 C 156.86157707855173 46.95697549360274 147.10254483999807 44.05158571478296 139.31920214182063 48.263720143161066 C 131.5358594436432 52.475854571539166 128.63046966482344 62.234886810092824 132.84260409320154 70.01822950827025 Z" fill-opacity="1"/></g></g><g><g><path fill="rgb(244,244,245)" stroke="none" paint-order="stroke fill markers" d=" M 196.5060354325207 42.05228089768989 C 193.63244513005924 33.68179830863927 184.48472481154096 29.20975034666843 176.11424222249033 32.08334064912988 C 167.7437596334397 34.95693095159133 163.27171167146886 44.10465127010962 166.14530197393032 52.47513385916024 C 166.30765170853266 52.94804248001056 166.45376646967478 53.37366023877584 166.6471720929019 53.78304302408089 L 163.10035743652452 55.000666033598456 L 169.3258893199606 58.044143118828615 L 172.36936640519076 51.81861123539255 L 168.5860974383882 53.11740911221129 C 168.39269181516107 52.708026326906236 168.19928619193394 52.29864354160119 168.0369364573316 51.82573492075087 C 165.5205155709953 44.49565129757095 169.4335575377198 36.49139601886745 176.7636411608997 33.97497513253114 C 184.09372478407963 31.458554246194847 192.0979800627831 35.37159621291934 194.6144009491194 42.70167983609926 Z" fill-opacity="1"/></g></g><g><g><path fill="rgb(244,244,245)" stroke="none" paint-order="stroke fill markers" d=" M 199.6032229105919 41.4000048322136 C 198.32761483591622 33.755704730842496 203.50474512858474 26.50468260063672 211.14904522995585 25.22907452596103 C 218.79334533132695 23.953466451285337 226.04436746153272 29.130596743953856 227.3199755362084 36.77489684532495 C 227.4022728313488 37.26807749702631 227.42702233180498 37.72016981307158 227.45177183226116 38.17226212911684 L 223.5063266186503 38.83064049023978 L 229.14601049769922 42.85729738453752 L 233.17266739199695 37.21761350548858 L 229.47381250423675 37.83484321904133 C 229.44906300378057 37.38275090299607 229.37499543815423 36.93888831646485 229.29269814301387 36.44570766476349 C 227.83603601902936 27.716410129649393 219.54915358450847 21.799689795171084 210.81985604939436 23.256351919155584 C 202.09055851428027 24.713014043140085 196.17383817980198 32.99989647766097 197.63050030378648 41.72919401277507 Z" fill-opacity="1"/></g></g></g></g></svg>