<svg version="1.1" xmlns="http://www.w3.org/2000/svg" xmlns:xlink="http://www.w3.org/1999/xlink" width="500" height="500" viewBox="0 0 500 500"><defs/><g><g><g><g><path fill="rgb(125,211,252)" stroke="none" paint-order="stroke fill markers" d=" M 242.67578125 45 L 242.67578125 36.748046875 Q 236.572265625 37.5048828125 230.46875 40.1171875 L 230.46875 40.1171875 L 247.55859375 23.02734375 L 264.6484375 40.1171875 Q 258.544921875 37.5048828125 252.44140625 36.748046875 L 252.44140625 36.748046875 L 252.44140625 45 L 242.67578125 45 Z M 250 42.55859375 L 250 33.5009765625 Q 253.5888671875 33.7939453125 256.6650390625 35.234375 L 256.6650390625 35.234375 L 247.55859375 26.54296875 L 238.8427734375 35.234375 Q 242.67578125 33.5009765625 245.1171875 33.57421875 L 245.1171875 33.57421875 L 245.1171875 42.55859375 L 250 42.55859375 Z" fill-opacity="1"/></g></g><g><g><path fill="rgb(125,211,252)" stroke="none" paint-order="stroke fill markers" d=" M 298.25572123649806 50.62590552370341 L 300.4820715453622 42.67995720525722 Q 294.4006989442192 41.762018804830596 287.8187268653434 42.63074333991259 L 287.8187268653434 42.63074333991259 L 308.8856175136192 30.785422018292902 L 320.7309388352389 51.85231266656869 Q 315.55854949629486 47.690170514823805 309.88556067961804 45.31469129858753 L 309.88556067961804 45.31469129858753 L 307.6592103707539 53.260639617033725 L 298.25572123649806 50.62590552370341 Z M 305.9670216105225 50.25108381013718 L 308.4107374820864 41.529347638114885 Q 311.7874777161255 42.77971709144145 314.3609535146499 44.99667297814324 L 314.3609535146499 44.99667297814324 L 307.93711324002027 34.17067810662501 L 297.19958584463296 40.188283257815414 Q 301.3581206313945 39.553297068117146 303.6892324092585 40.28250675995665 L 303.6892324092585 40.28250675995665 L 301.26527704339463 48.93371676347203 L 305.9670216105225 50.25108381013718 Z" fill-opacity="1"/></g></g><g><g><path fill="rgb(125,211,252)" stroke="none" paint-order="stroke fill markers" d=" M 350.2567551341206 71.03847555892125 L 354.5443375343154 63.98784668351321 Q 348.9361355424277 61.46321323703086 342.36386176824766 60.52392829507812 L 342.36386176824766 60.52392829507812 L 365.84536441002854 54.80164269552395 L 371.5676500095827 78.28314533730484 Q 367.7099994118573 72.87985276417662 362.88827703183966 69.06190869557798 L 362.88827703183966 69.06190869557798 L 358.60069463164496 76.11253757098602 L 350.2567551341206 71.03847555892125 Z M 357.78322526028006 72.75803719358876 L 362.48941777647013 65.01903330963496 Q 365.4035936814484 67.1340692839945 367.283510476389 69.96312989367974 L 367.283510476389 69.96312989367974 L 364.0187020856852 57.805460914632704 L 352.05582089340714 60.70296672166152 Q 356.2314631533269 61.21348680058638 358.2793925626175 62.544581849834 L 358.2793925626175 62.544581849834 L 353.6112555115179 70.22100618755637 L 357.78322526028006 72.75803719358876 Z" fill-opacity="1"/></g></g><g><g><path fill="rgb(125,211,252)" stroke="none" paint-order="stroke fill markers" d=" M 394.82220414758194 104.72380316743573 L 400.8530282668692 99.09140662427399 Q 396.13393157015815 95.14731864503197 390.0587915803529 92.46968669324646 L 390.0587915803529 92.46968669324646 L 414.2133905854248 93.294832560962 L 413.38824471770926 117.4494315660339 Q 411.13143715845865 111.20572606325247 407.5185863061139 106.22847658792755 L 407.5185863061139 106.22847658792755 L 401.4877621868266 111.86087313108929 L 394.82220414758194 104.72380316743573 Z M 401.60564016792887 108.41021613036473 L 408.2252725592175 102.2279110489653 Q 410.4607530397303 105.05075100178533 411.5076860024535 108.28209785112477 L 411.5076860024535 108.28209785112477 L 411.6440453985095 95.69443345509009 L 399.343042580832 95.25694516745705 Q 403.22610402978404 96.87510857622513 404.83896551486777 98.70936775243285 L 404.83896551486777 98.70936775243285 L 398.2728611483065 104.84168114853796 L 401.60564016792887 108.41021613036473 Z" fill-opacity="1"/></g></g><g><g><path fill="rgb(125,211,252)" stroke="none" paint-order="stroke fill markers" d=" M 428.64685279691696 149.18360170064327 L 435.9736399995537 145.38716657483445 Q 432.4936424115835 140.31613902525123 427.3662015472807 136.09874777614576 L 427.3662015472807 136.09874777614576 L 450.4024608073752 143.41012781691373 L 443.0910807666072 166.44638707700818 Q 442.60249333829336 159.82533571866279 440.46646263364704 154.05792066079513 L 440.46646263364704 154.05792066079513 L 433.13967543101023 157.85435578660395 L 428.64685279691696 149.18360170064327 Z M 434.1841582939771 154.56346160659047 L 442.22628270870564 150.39636861346895 Q 443.6172724041561 153.7176554190823 443.75357530621625 157.11163429468868 L 443.75357530621625 157.11163429468868 L 447.2809893364293 145.0275439651873 L 435.554173998996 141.2875080878104 Q 438.8566657331357 143.89330304899843 439.9148407360143 146.0946877402443 L 439.9148407360143 146.0946877402443 L 431.93774697693044 150.2280845636101 L 434.1841582939771 154.56346160659047 Z" fill-opacity="1"/></g></g><g><g><path fill="rgb(125,211,252)" stroke="none" paint-order="stroke fill markers" d=" M 449.22208162927586 201.12049129138052 L 457.30143762626375 199.44158180867078 Q 455.3186346482044 193.61970960369155 451.51917174182825 188.1753436729311 L 451.51917174182825 188.1753436729311 L 471.7285972914979 201.4307062764658 L 458.4732346879632 221.64013182613547 Q 459.78910368500544 215.1327877021801 459.2883127537309 209.00294985244346 L 459.2883127537309 209.00294985244346 L 451.20895675674296 210.68185933515318 L 449.22208162927586 201.12049129138052 Z M 453.1025799858194 207.79479854234324 L 461.97074884641853 205.95197186161747 Q 462.4140844144495 209.52538087152794 461.6296482931452 212.83027588661776 L 461.6296482931452 212.83027588661776 L 468.2865047957398 202.14598132235398 L 458.00360118551765 195.3807792067326 Q 460.48059250081815 198.78094582878796 460.9056010223567 201.18618940318714 L 460.9056010223567 201.18618940318714 L 452.10914242208577 203.0141145204569 L 453.1025799858194 207.79479854234324 Z" fill-opacity="1"/></g></g><g><g><path fill="rgb(125,211,252)" stroke="none" paint-order="stroke fill markers" d=" M 455.0219200475713 256.68255043416275 L 463.2546359652081 257.24568363038486 Q 462.9160830232223 251.10474839815978 460.7263868571525 244.83719150051198 L 460.7263868571525 244.83719150051198 L 476.61013805534844 263.0534470617582 L 458.3938824941022 278.93719825995424 Q 461.41661593269 273.0261813149441 462.5882061471937 266.98854270451125 L 462.5882061471937 266.98854270451125 L 454.35549022955695 266.4254095082891 L 455.0219200475713 256.68255043416275 Z M 456.9578124525921 264.1563021942611 L 465.9943142438443 264.77441585046944 Q 465.4571155135003 268.33492366567043 463.8101184073921 271.30562587586314 L 463.8101184073921 271.30562587586314 L 473.10270878866294 262.8135323272731 L 465.0263528252683 253.5249080655825 Q 466.49413660735513 257.4672715448747 466.2544577097956 259.89798808977116 L 466.2544577097956 259.89798808977116 L 457.29102736159933 259.2848726571979 L 456.9578124525921 264.1563021942611 Z" fill-opacity="1"/></g></g><g><g><path fill="rgb(125,211,252)" stroke="none" paint-order="stroke fill markers" d=" M 445.6162205688137 311.7489953818772 L 453.39171352965747 314.51240624403033 Q 454.72251954667564 308.50785305782415 454.30498986835613 301.8819412162226 L 454.30498986835613 301.8819412162226 L 464.68504155203493 323.7080733940269 L 442.8589093742306 334.0881250777057 Q 447.3643249433092 329.211828397349 450.1214048170502 323.71417306159697 L 450.1214048170502 323.71417306159697 L 442.34591185620644 320.9507621994438 L 445.6162205688137 311.7489953818772 Z M 445.46393073874987 319.46789767320394 L 453.9985694620429 322.5011090041472 Q 452.52067800563276 325.7846490482247 450.13327015557036 328.2008350606486 L 450.13327015557036 328.2008350606486 L 461.37240549771093 322.5307622574883 L 456.10158355607865 311.40761061858956 Q 456.4513009964984 315.5997838909723 455.56471056721483 317.8756982800194 L 455.56471056721483 317.8756982800194 L 447.0990850950535 314.8670142644207 L 445.46393073874987 319.46789767320394 Z" fill-opacity="1"/></g></g><g><g><path fill="rgb(125,211,252)" stroke="none" paint-order="stroke fill markers" d=" M 421.7025608951304 362.2357998249752 L 428.44415815678883 366.99453881117694 Q 431.3456233385611 361.5716979118075 432.73122641416165 355.0788446960141 L 432.73122641416165 355.0788446960141 L 436.8377376355216 378.89610911465945 L 413.02047321687616 383.0026203360194 Q 418.67442485459185 379.52269653752523 422.81251438613583 374.97276042260705 L 422.81251438613583 374.97276042260705 L 416.0709171244774 370.2140214364053 L 421.7025608951304 362.2357998249752 Z M 419.47338346999817 369.627376976211 L 426.8731840145996 374.85072657349167 Q 424.56420828054166 377.61377370257264 421.61345280510005 379.2962460540018 L 421.61345280510005 379.2962460540018 L 433.96557785540676 376.8687173572244 L 431.89120268654176 364.73599161314183 Q 431.09691684258934 368.8670603649191 429.62916923784036 370.8193784394967 L 429.62916923784036 370.8193784394967 L 422.28920535532467 365.63826617049597 L 419.47338346999817 369.627376976211 Z" fill-opacity="1"/></g></g><g><g><path fill="rgb(125,211,252)" stroke="none" paint-order="stroke fill markers" d=" M 385.0545077668049 404.3985884396742 L 390.2622159011361 410.7997216491003 Q 394.51915184845046 406.3607803382275 397.6051238365661 400.48253096843047 L 397.6051238365661 400.48253096843047 L 395.1335334443577 424.5245100827208 L 371.09155433006737 422.0529196905124 Q 377.4747143085584 420.22745880242303 382.68691032785074 416.96268985540945 L 382.68691032785074 416.96268985540945 L 377.47920219351954 410.56155664598333 L 385.0545077668049 404.3985884396742 Z M 380.91377063841816 410.91464098772735 L 386.62992364976986 417.94073690694955 Q 383.6611098053982 419.97836855556955 380.3658507393827 420.8023459684973 L 380.3658507393827 420.8023459684973 L 392.9148648900864 421.7974000763381 L 394.19078341062846 409.5549289919832 Q 392.3114028297339 413.3185107522177 390.3713541748652 414.8024380119953 L 390.3713541748652 414.8024380119953 L 384.7014234250608 407.8331568845728 L 380.91377063841816 410.91464098772735 Z" fill-opacity="1"/></g></g><g><g><path fill="rgb(125,211,252)" stroke="none" paint-order="stroke fill markers" d=" M 338.3900796306777 435.11034007634555 L 341.6776667490378 442.6791247420888 Q 346.97435599686816 439.5532989899348 351.5318244725228 434.7256163306905 L 351.5318244725228 434.7256163306905 L 342.66543901936245 457.20922653445484 L 320.1818288155981 448.34284108129447 Q 326.8207873602737 448.3072291867516 332.7205251327736 446.5697603851185 L 332.7205251327736 446.5697603851185 L 329.43293801441354 439.0009757193753 L 338.3900796306777 435.11034007634555 Z M 332.644882329237 440.26760221268387 L 336.25344688814704 448.5753510617689 Q 332.84497827487905 449.7364454120944 329.44960990840895 449.6408172512498 L 329.44960990840895 449.6408172512498 L 341.2648101878718 453.98465555259975 L 345.7963933580911 442.5404072027206 Q 342.9713031003452 445.65737432949663 340.7028379289564 446.56285467813206 L 340.7028379289564 446.56285467813206 L 337.1234531373691 438.32228439116903 L 332.644882329237 440.26760221268387 Z" fill-opacity="1"/></g></g><g><g><path fill="rgb(125,211,252)" stroke="none" paint-order="stroke fill markers" d=" M 285.1701636460514 452.0933046130124 L 286.29380445158193 460.2683986013005 Q 292.2374157891576 458.68751660420116 297.92837416454296 455.26844779316724 L 297.92837416454296 455.26844779316724 L 283.324772898477 474.52618257326503 L 264.0670381183793 459.9225813071991 Q 270.4694140451952 461.6794595775074 276.61913700982086 461.59815103388104 L 276.61913700982086 461.59815103388104 L 275.4954962042903 453.42305704559294 L 285.1701636460514 452.0933046130124 Z M 278.2466011728757 455.5092857978881 L 279.47994655409417 464.48253985012144 Q 275.8846136962696 464.6809838458419 272.6409549683092 463.6728424144451 L 272.6409549683092 463.6728424144451 L 282.8460620227481 471.043302294231 L 290.2972230495231 461.2460442249856 Q 286.73594713541496 463.485225525686 284.30730713173034 463.74510362801794 L 284.30730713173034 463.74510362801794 L 283.08393489375624 454.8444095815978 L 278.2466011728757 455.5092857978881 Z" fill-opacity="1"/></g></g><g><g><path fill="rgb(125,211,252)" stroke="none" paint-order="stroke fill markers" d=" M 229.3418375165903 454.0879332618832 L 228.21819671105973 462.26302725017126 Q 234.36791967568539 462.34433579379765 240.7702956025013 460.5874575234894 L 240.7702956025013 460.5874575234894 L 221.51256082240357 475.19105878955526 L 206.90895955633766 455.9333240094575 Q 212.59991793172304 459.35239282049145 218.5435292692987 460.93327481759076 L 218.5435292692987 460.93327481759076 L 219.66717007482924 452.75818082930266 L 229.3418375165903 454.0879332618832 Z M 221.75339882712436 455.5092857978881 L 220.52005344590592 464.48253985012144 Q 217.00450573403614 463.70361580789523 214.15312397368706 461.8577303439726 L 214.15312397368706 461.8577303439726 L 221.99127169813255 471.7081785105213 L 231.80939205490097 464.2845285334321 Q 227.7760540272267 465.4798541745568 225.3673603100308 465.0748560605985 L 225.3673603100308 465.0748560605985 L 226.5907325480049 456.1741620141783 L 221.75339882712436 455.5092857978881 Z" fill-opacity="1"/></g></g><g><g><path fill="rgb(125,211,252)" stroke="none" paint-order="stroke fill markers" d=" M 175.04563279371868 440.94629354089017 L 171.75804567535857 448.5150782066334 Q 177.65778344785852 450.2525470082665 184.29674199253407 450.28815890280936 L 184.29674199253407 450.28815890280936 L 161.81313178876977 459.15454435596973 L 152.9467463356094 436.67093415220546 Q 157.5042148112641 441.49861681144966 162.8009040590944 444.6244425636037 L 162.8009040590944 444.6244425636037 L 166.0884911774545 437.05565789786044 L 175.04563279371868 440.94629354089017 Z M 167.35511767076312 440.2676022126839 L 163.74655311185307 448.57535106176897 Q 160.57152263716688 446.87682821446765 158.32389178539051 444.3300995985143 L 158.32389178539051 444.3300995985143 L 163.21376062026044 455.92997337411464 L 174.67067523507268 451.4305096470435 Q 170.46440932405122 451.49332779404125 168.2543036873079 450.45349032116184 L 168.2543036873079 450.45349032116184 L 171.8336884788952 442.21292003419876 L 167.35511767076312 440.2676022126839 Z" fill-opacity="1"/></g></g><g><g><path fill="rgb(125,211,252)" stroke="none" paint-order="stroke fill markers" d=" M 126.30845059312321 413.64304074913787 L 121.10074245879201 420.044173958564 Q 126.3129384780843 423.30894290557757 132.69609845657533 425.13440379366693 L 132.69609845657533 425.13440379366693 L 108.65411934228504 427.6059941858754 L 106.18252895007662 403.56401507158506 Q 109.26850093819228 409.44226444138206 113.52543688550666 413.88120575225486 L 113.52543688550666 413.88120575225486 L 118.73314501983786 407.48007254282874 L 126.30845059312321 413.64304074913787 Z M 119.08622936158191 410.91464098772735 L 113.37007635023022 417.94073690694955 Q 110.77104059823714 415.4485869239324 109.29385715308284 412.3898943668854 L 109.29385715308284 412.3898943668854 L 110.87278789655632 424.8788841794926 L 123.1187898243286 423.6373113433995 Q 119.05155553019424 422.5629630616814 117.20395139842022 420.96540621830445 L 117.20395139842022 420.96540621830445 L 122.8738821482246 413.99612509088195 L 119.08622936158191 410.91464098772735 Z" fill-opacity="1"/></g></g><g><g><path fill="rgb(125,211,252)" stroke="none" paint-order="stroke fill markers" d=" M 86.74490476084915 374.2031322421203 L 80.00330749919073 378.9618712283221 Q 84.14139703073468 383.5118073432403 89.79534866845036 386.9917311417344 L 89.79534866845036 386.9917311417344 L 65.97808424980494 382.88521992037454 L 70.08459547116486 359.0679555017291 Q 71.47019854676543 365.5608087175226 74.37166372853773 370.983649616892 L 74.37166372853773 370.983649616892 L 81.11326099019615 366.2249106306902 L 86.74490476084915 374.2031322421203 Z M 80.52661653000187 369.627376976211 L 73.12681598540047 374.85072657349167 Q 71.29653354802839 371.74978081817153 70.69935344795863 368.4059735543997 L 70.69935344795863 368.4059735543997 L 68.85024402991976 380.8578281629394 L 80.97710332940036 382.96622799525966 Q 77.35054881339022 380.83439278206424 76.00247453281268 378.7976000509268 L 76.00247453281268 378.7976000509268 L 83.34243841532837 373.616487781926 L 80.52661653000187 369.627376976211 Z" fill-opacity="1"/></g></g><g><g><path fill="rgb(125,211,252)" stroke="none" paint-order="stroke fill markers" d=" M 59.28924250009729 325.55164560822715 L 51.51374953925351 328.31505647038034 Q 54.27082941299447 333.81271180613237 58.776244982073095 338.68900848648906 L 58.776244982073095 338.68900848648906 L 36.950112804268784 328.30895680281026 L 47.330164487947584 306.48282462500595 Q 46.912634809628074 313.1087364666075 48.24344082664622 319.1132896528137 L 48.24344082664622 319.1132896528137 L 56.01893378749 316.34987879066057 L 59.28924250009729 325.55164560822715 Z M 54.53606926125017 319.467897673204 L 46.00143053795714 322.5011090041473 Q 45.075645090600965 319.02135043731334 45.40275845172074 315.6404233546703 L 45.40275845172074 315.6404233546703 L 40.26274885859276 327.13164566627165 L 51.37107185222904 332.43364779672936 Q 48.45416207241261 329.40243411732223 47.705598145392536 327.077465097586 L 47.705598145392536 327.077465097586 L 56.171223617553814 324.0687810819873 L 54.53606926125017 319.467897673204 Z" fill-opacity="1"/></g></g><g><g><path fill="rgb(125,211,252)" stroke="none" paint-order="stroke fill markers" d=" M 45.97772467945025 271.2968390453524 L 37.74500876181348 271.85997224157455 Q 38.91659897631725 277.8976108520074 41.93933241490503 283.80862779701755 L 41.93933241490503 283.80862779701755 L 23.723076853658757 267.9248765988215 L 39.60682805185474 249.70862103757526 Q 37.417131885784926 255.9761779352231 37.07857894379911 262.11711316744817 L 37.07857894379911 262.11711316744817 L 45.31129486143588 261.55397997122606 L 45.97772467945025 271.2968390453524 Z M 43.042187547407885 264.15630219426123 L 34.005685756155685 264.77441585046955 Q 34.053058570259196 261.17392224618766 35.28020489101831 258.0066232396808 L 35.28020489101831 258.0066232396808 L 27.23050612034425 267.68496186433634 L 36.49643930889453 275.78734104996136 Q 34.505508119666466 272.0815601560643 34.41197210821882 269.6408471638976 L 34.41197210821882 269.6408471638976 L 43.37540245641507 269.0277317313244 L 43.042187547407885 264.15630219426123 Z" fill-opacity="1"/></g></g><g><g><path fill="rgb(125,211,252)" stroke="none" paint-order="stroke fill markers" d=" M 47.79760567952344 215.4625433570397 L 39.71824968253552 213.78363387432998 Q 39.21745875126095 219.91347172406662 40.53332774830319 226.420815848022 L 40.53332774830319 226.420815848022 L 27.277965144768462 206.21139029835234 L 47.487390694438126 192.9560276948176 Q 43.68792778806198 198.40039362557806 41.705124810002644 204.2222658305573 L 41.705124810002644 204.2222658305573 L 49.784480806990565 205.90117531326703 L 47.79760567952344 215.4625433570397 Z M 46.89742001418061 207.79479854234341 L 38.02925115358144 205.95197186161766 Q 39.04626880423879 202.49777535935522 41.08243625584741 199.77900850686822 L 41.08243625584741 199.77900850686822 L 30.72005764052663 206.9266653442405 L 37.45638914821991 217.22850518675335 Q 36.5390948079811 213.12299789444717 37.10752385017618 210.74755744696 L 37.10752385017618 210.74755744696 L 45.90398245044705 212.57548256422976 L 46.89742001418061 207.79479854234341 Z" fill-opacity="1"/></g></g><g><g><path fill="rgb(125,211,252)" stroke="none" paint-order="stroke fill markers" d=" M 64.61391325194305 162.18973282958444 L 57.28712604930625 158.39329770377563 Q 55.15109534465991 164.1607127616433 54.6625079163461 170.78176411998868 L 54.6625079163461 170.78176411998868 L 47.351127875578115 147.74550485989423 L 70.38738713567257 140.43412481912623 Q 65.25994627136978 144.65151606823173 61.77994868339953 149.72254361781492 L 61.77994868339953 149.72254361781492 L 69.10673588603632 153.51897874362376 L 64.61391325194305 162.18973282958444 Z M 65.81584170602282 154.5634616065906 L 57.773717291294275 150.3963686134691 Q 59.68495223190238 147.34465116590133 62.379127589320966 145.27605496735248 L 62.379127589320966 145.27605496735248 L 50.472599346523964 149.3629210081678 L 54.17972628210073 161.10018117423076 Q 54.40410031572432 156.8994341779396 55.592336629892344 154.76544182620515 L 55.592336629892344 154.76544182620515 L 63.56943038897619 158.89883864957096 L 65.81584170602282 154.5634616065906 Z" fill-opacity="1"/></g></g><g><g><path fill="rgb(125,211,252)" stroke="none" paint-order="stroke fill markers" d=" M 95.17945879355095 115.42940811291618 L 89.14863467426369 109.79701156975445 Q 85.53578382191893 114.77426104507938 83.27897626266835 121.0179665478608 L 83.27897626266835 121.0179665478608 L 82.45383039495277 96.86336754278891 L 106.60842940002468 96.03822167507334 Q 100.53328941021942 98.71585362685887 95.81419271350836 102.65994160610089 L 95.81419271350836 102.65994160610089 L 101.84501683279562 108.29233814926262 L 95.17945879355095 115.42940811291618 Z M 98.39435983207106 108.41021613036484 L 91.77472744078239 102.22791104896542 Q 94.43843211911441 99.80500457850007 97.59080072111537 98.53999735073779 L 97.59080072111537 98.53999735073779 L 85.02317558186806 99.26296843691699 L 85.42615729949387 111.56515003440555 Q 86.7755589113489 107.58071352170559 88.49547644588745 105.84643771608654 L 88.49547644588745 105.84643771608654 L 95.06158081244874 111.97875111219163 L 98.39435983207106 108.41021613036484 Z" fill-opacity="1"/></g></g><g><g><path fill="rgb(125,211,252)" stroke="none" paint-order="stroke fill markers" d=" M 137.22733561959288 78.64956857701841 L 132.93975321939814 71.59893970161038 Q 128.11803083938048 75.416883770209 124.26038024165511 80.82017634333724 L 124.26038024165511 80.82017634333724 L 129.98266584120927 57.338673701556345 L 153.46416848299017 63.06095930111051 Q 146.89189470881016 64.00024424306325 141.28369271692245 66.5248776895456 L 141.28369271692245 66.5248776895456 L 145.57127511711718 73.57550656495364 L 137.22733561959288 78.64956857701841 Z M 142.2167747397199 72.75803719358876 L 137.51058222352984 65.01903330963496 Q 140.72920184923197 63.404633705126884 144.10596693773167 63.037035247211314 L 144.10596693773167 63.037035247211314 L 131.8093281655526 60.3424919206651 L 128.87827735474983 72.29719841922955 Q 131.2526276003866 68.82457981868355 133.37666793985818 67.61864386189879 L 133.37666793985818 67.61864386189879 L 138.04480499095777 75.29506819962114 L 142.2167747397199 72.75803719358876 Z" fill-opacity="1"/></g></g><g><g><path fill="rgb(125,211,252)" stroke="none" paint-order="stroke fill markers" d=" M 187.6390450621181 54.578006663698886 L 185.412694753254 46.63205834525269 Q 179.73970593657717 49.00753756148897 174.56731659763312 53.169679713233855 L 174.56731659763312 53.169679713233855 L 186.4126379192528 32.10278906495806 L 207.4795285675286 43.948110386577746 Q 200.89755648865284 43.07938585149576 194.81618388750982 43.99732425192237 L 194.81618388750982 43.99732425192237 L 197.04253419637396 51.94327257036857 L 187.6390450621181 54.578006663698886 Z M 194.03297838947742 50.25108381013718 L 191.58926251791354 41.529347638114885 Q 195.12408679755248 40.843187532843665 198.4748091536093 41.40026094074736 L 198.4748091536093 41.40026094074736 L 187.36114219285173 35.48804515329017 L 181.31344148359236 46.20865066107518 Q 184.53664566722165 43.50539820811262 186.90727845648559 42.917240853286955 L 186.90727845648559 42.917240853286955 L 189.33123382234947 51.56845085680234 L 194.03297838947742 50.25108381013718 Z" fill-opacity="1"/></g></g></g></g></svg>