<svg version="1.1" xmlns="http://www.w3.org/2000/svg" xmlns:xlink="http://www.w3.org/1999/xlink" width="500" height="500" viewBox="0 0 500 500"><defs/><g><g><g><g><path fill="rgb(125,211,252)" stroke="none" paint-order="stroke fill markers" d=" M 250.0732421875 18.14453125 L 262.20703125 32.79296875 Q 264.6484375 35.234375 262.20703125 35.234375 L 262.20703125 35.234375 L 256.103515625 35.234375 Q 253.662109375 35.234375 253.662109375 37.67578125 L 253.662109375 37.67578125 L 253.662109375 40.1171875 Q 253.662109375 45 247.55859375 45 L 247.55859375 45 Q 241.455078125 45 241.455078125 40.1171875 L 241.455078125 40.1171875 L 241.455078125 37.67578125 Q 241.455078125 35.234375 239.013671875 35.234375 L 239.013671875 35.234375 L 232.91015625 35.234375 Q 230.46875 35.234375 232.91015625 32.79296875 L 232.91015625 32.79296875 L 245.1904296875 18.14453125 Q 247.6318359375 15.703125 250.0732421875 18.14453125 L 250.0732421875 18.14453125 Z M 247.55859375 42.55859375 L 247.55859375 42.55859375 Q 251.220703125 42.55859375 251.220703125 40.1171875 L 251.220703125 40.1171875 L 251.220703125 35.234375 Q 251.220703125 32.79296875 253.662109375 32.79296875 L 253.662109375 32.79296875 L 258.9599609375 32.79296875 L 249.169921875 20.5859375 Q 247.6318359375 19.2431640625 245.849609375 20.5859375 L 245.849609375 20.5859375 L 235.986328125 32.79296875 L 241.455078125 32.79296875 Q 243.896484375 32.79296875 243.896484375 35.234375 L 243.896484375 35.234375 L 243.896484375 40.1171875 Q 243.896484375 42.55859375 247.55859375 42.55859375 Z" fill-opacity="1"/></g></g><g><g><path fill="rgb(125,211,252)" stroke="none" paint-order="stroke fill markers" d=" M 305.5577594252528 24.89935779446123 L 313.8333620787737 42.025944112980454 Q 315.61955874170945 44.980674292945324 313.24909532025913 44.39640753443078 L 313.24909532025913 44.39640753443078 L 307.3229367666333 42.93574063814441 Q 304.95247334518297 42.351473879629864 304.36820658666846 44.72193730108019 L 304.36820658666846 44.72193730108019 L 303.19967306963935 49.46286414398083 Q 302.6154063111248 51.833327565431155 300.24494288967446 51.24906080691661 L 300.24494288967446 51.24906080691661 L 293.13355262532355 49.496260531372975 Q 290.7630892038732 48.91199377285843 291.3473559623877 46.541530351408106 L 291.3473559623877 46.541530351408106 L 292.51588947941684 41.800603508507464 Q 293.1001562379314 39.43014008705714 290.7296928164811 38.845873328542595 L 290.7296928164811 38.845873328542595 L 284.80353426285524 37.38520643225623 Q 282.4330708414049 36.80093967374169 285.3878010213698 35.01474301080591 L 285.3878010213698 35.01474301080591 L 300.81683258235216 23.73082427743214 Q 303.77156276231705 21.944627614496362 305.5577594252528 24.89935779446123 L 305.5577594252528 24.89935779446123 Z" fill-opacity="1"/></g></g><g><g><path fill="rgb(125,211,252)" stroke="none" paint-order="stroke fill markers" d=" M 357.81346162944874 44.7362154563654 L 361.7499299283595 63.34561564917983 Q 362.7771097467419 66.64195158105721 360.615351871612 65.50737352430974 L 360.615351871612 65.50737352430974 L 355.2109571837873 62.67092838244103 Q 353.04919930865736 61.53635032569355 351.91462125190986 63.698108200823455 L 351.91462125190986 63.698108200823455 L 350.78004319516236 65.85986607595336 Q 348.5108870816674 70.18338182621318 343.10649239384264 67.34693668434447 L 343.10649239384264 67.34693668434447 Q 337.70209770601787 64.51049154247578 339.97125381951287 60.18697579221596 L 339.97125381951287 60.18697579221596 L 341.1058318762603 58.02521791708605 Q 342.2404099330078 55.863460041956145 340.0786520578779 54.72888198520866 L 340.0786520578779 54.72888198520866 L 334.67425737005317 51.89243684333996 Q 332.51249949492325 50.75785878659248 335.8088354268006 49.73067896821005 L 335.8088354268006 49.73067896821005 L 353.48994587918895 42.46705934287044 Q 356.7862818110663 41.43987952448802 357.81346162944874 44.7362154563654 L 357.81346162944874 44.7362154563654 Z M 344.24107045059014 65.18517880921456 L 344.24107045059014 65.18517880921456 Q 347.483707263285 66.88704589433578 348.6182853200325 64.72528801920588 L 348.6182853200325 64.72528801920588 L 350.88744143352744 60.40177226894607 Q 352.02201949027494 58.24001439381616 354.1837773654048 59.37459245056364 L 354.1837773654048 59.37459245056364 L 358.8747919544367 61.83662683370568 L 355.8790331589032 46.47817945049874 Q 355.1411436287825 44.574428443426385 352.9390424487265 44.935153293322166 L 352.9390424487265 44.935153293322166 L 338.5326503494643 51.16024731971187 L 343.3749879897553 53.70170216682624 Q 345.53674586488523 54.836280223573716 344.40216780813773 56.998038098703624 L 344.40216780813773 56.998038098703624 L 342.13301169464273 61.32155384896344 Q 340.9984336378953 63.48331172409335 344.24107045059014 65.18517880921456 Z" fill-opacity="1"/></g></g><g><g><path fill="rgb(125,211,252)" stroke="none" paint-order="stroke fill markers" d=" M 403.8034373297289 76.50225817244652 L 403.171998044977 95.51296154276721 Q 403.38046506140836 98.95933216389001 401.5530462426313 97.34038036154432 L 401.5530462426313 97.34038036154432 L 396.9844991956885 93.29300085568009 Q 395.15708037691144 91.6740490533344 393.53812857456575 93.50146787211149 L 393.53812857456575 93.50146787211149 L 390.30022496987436 97.1563055096657 Q 388.6812731675287 98.9837243284428 386.85385434875155 97.36477252609711 L 386.85385434875155 97.36477252609711 L 381.37159789242025 92.50791711906004 Q 379.54417907364314 90.88896531671435 381.1631308759888 89.06154649793724 L 381.1631308759888 89.06154649793724 L 384.4010344806802 85.40670886038305 Q 386.0199862830259 83.57929004160594 384.1925674642488 81.96033823926025 L 384.1925674642488 81.96033823926025 L 379.62402041730604 77.91295873339602 Q 377.7966015985289 76.29400693105033 381.24297221965173 76.08553991461892 L 381.24297221965173 76.08553991461892 L 400.1485996921747 73.26435456775513 Q 403.5949703132975 73.05588755132372 403.8034373297289 76.50225817244652 L 403.8034373297289 76.50225817244652 Z" fill-opacity="1"/></g></g><g><g><path fill="rgb(125,211,252)" stroke="none" paint-order="stroke fill markers" d=" M 440.8549163051531 118.35135900491306 L 435.6922663927798 136.65853257395216 Q 435.06990526201196 140.05464735086818 433.68302843893787 138.04540939702625 L 433.68302843893787 138.04540939702625 L 430.2158363812526 133.02231451242142 Q 428.8289595581785 131.01307655857948 426.81972160433656 132.3999533816536 L 426.81972160433656 132.3999533816536 L 424.81048365049463 133.78683020472772 Q 420.79200774281077 136.56058385087593 417.3248156851255 131.5374889662711 L 417.3248156851255 131.5374889662711 Q 413.8576236274402 126.51439408166625 417.87609953512407 123.74064043551803 L 417.87609953512407 123.74064043551803 L 419.885337488966 122.35376361244393 Q 421.89457544280793 120.96688678936982 420.5076986197338 118.95764883552788 L 420.5076986197338 118.95764883552788 L 417.04050656204856 113.93455395092305 Q 415.6536297389744 111.92531599708111 419.0497445158905 112.54767712784894 L 419.0497445158905 112.54767712784894 L 438.08116265900486 114.3328830972292 Q 441.4772774359209 114.95524422799701 440.8549163051531 118.35135900491306 L 440.8549163051531 118.35135900491306 Z M 419.3340536389674 130.15061214319698 L 419.3340536389674 130.15061214319698 Q 421.41436887357855 133.16446907395988 423.4236068274205 131.7775922508858 L 423.4236068274205 131.7775922508858 L 427.44208273510435 129.00383860473755 Q 429.4513206889463 127.61696178166345 430.83819751202043 129.62619973550537 L 430.83819751202043 129.62619973550537 L 433.84772021809124 133.98624609534238 L 438.33253392677375 118.99481778506566 Q 438.5638824028501 116.96621562145448 436.4463814473929 116.26225416784064 L 436.4463814473929 116.26225416784064 L 420.79720931296384 115.07931694968977 L 423.90381339664987 119.5800099662957 Q 425.29069021972396 121.58924792013764 423.281452265882 122.97612474321176 L 423.281452265882 122.97612474321176 L 419.26297635819816 125.74987838935998 Q 417.2537384043562 127.13675521243408 419.3340536389674 130.15061214319698 Z" fill-opacity="1"/></g></g><g><g><path fill="rgb(125,211,252)" stroke="none" paint-order="stroke fill markers" d=" M 466.81460127431575 167.85140032867437 L 457.4207751817594 184.39109771246765 Q 456.0037552705219 187.53958679871752 455.1380206830157 185.25683229997384 L 455.1380206830157 185.25683229997384 L 452.9736842142502 179.54994605311464 Q 452.107949626744 177.26719155437092 449.82519512800036 178.13292614187714 L 449.82519512800036 178.13292614187714 L 445.259686130513 179.8643953168895 Q 442.9769316317693 180.7301299043957 442.11119704426306 178.44737540565202 L 442.11119704426306 178.44737540565202 L 439.5139932817445 171.59911190942094 Q 438.64825869423834 169.31635741067726 440.931013192982 168.45062282317107 L 440.931013192982 168.45062282317107 L 445.49652219046936 166.71915364815868 Q 447.7792766892131 165.8534190606525 446.91354210170687 163.5706645619088 L 446.91354210170687 163.5706645619088 L 444.7492056329414 157.8637783150496 Q 443.8834710454352 155.5810238163059 447.0319601316851 156.9980437275434 L 447.0319601316851 156.9980437275434 L 465.0831320993034 163.285891331187 Q 468.23162118555325 164.7029112424245 466.81460127431575 167.85140032867437 L 466.81460127431575 167.85140032867437 Z" fill-opacity="1"/></g></g><g><g><path fill="rgb(125,211,252)" stroke="none" paint-order="stroke fill markers" d=" M 480.17380970642495 222.12561966732275 L 467.0947424610163 235.936613773278 Q 464.96541581589247 238.65449842746105 464.6711368113629 236.2308927778076 L 464.6711368113629 236.2308927778076 L 463.93543930003887 230.17187865367396 Q 463.6411602955093 227.74827300402052 461.21755464585584 228.0425520085501 L 461.21755464585584 228.0425520085501 L 458.7939489962024 228.33683101307972 Q 453.94673769689547 228.92538902213892 453.2110401855715 222.8663748980053 L 453.2110401855715 222.8663748980053 Q 452.4753426742475 216.80736077387164 457.3225539735544 216.21880276481244 L 457.3225539735544 216.21880276481244 L 459.74615962320786 215.92452376028285 Q 462.1697652728613 215.63024475575327 461.8754862683317 213.2066391060998 L 461.8754862683317 213.2066391060998 L 461.1397887570077 207.14762498196617 Q 460.8455097524781 204.7240193323127 463.5633944066612 206.85334597743656 L 463.5633944066612 206.85334597743656 L 479.5852516973658 217.27840836801585 Q 482.3031363515488 219.4077350131397 480.17380970642495 222.12561966732275 L 480.17380970642495 222.12561966732275 Z M 455.63464583522494 222.57209589347568 L 455.63464583522494 222.57209589347568 Q 456.0760643420193 226.20750436795586 458.4996699916728 225.91322536342625 L 458.4996699916728 225.91322536342625 L 463.3468812909797 225.32466735436705 Q 465.77048694063313 225.03038834983747 466.0647659451628 227.4539939994909 L 466.0647659451628 227.4539939994909 L 466.70335138499195 232.71321825923891 L 477.64132082509553 221.5231645814806 Q 478.7889081595513 219.83443956970763 477.2411013789353 218.22706089795187 L 477.2411013789353 218.22706089795187 L 463.93418595236847 209.90708909599994 L 464.59337092251474 215.33596575122365 Q 464.8876499270444 217.75957140087712 462.4640442773909 218.0538504054067 L 462.4640442773909 218.0538504054067 L 457.616832978084 218.6424084144659 Q 455.19322732843057 218.9366874189955 455.63464583522494 222.57209589347568 Z" fill-opacity="1"/></g></g><g><g><path fill="rgb(125,211,252)" stroke="none" paint-order="stroke fill markers" d=" M 480.1561529661532 278.01979667165637 L 464.15195241572036 288.29944272325645 Q 461.43406776153734 290.4287693683803 461.7283467660669 288.00516371872686 L 461.7283467660669 288.00516371872686 L 462.4640442773909 281.94614959459324 Q 462.7583232819205 279.5225439449398 460.33471763226703 279.22826494041016 L 460.33471763226703 279.22826494041016 L 455.48750633296015 278.639706931351 Q 453.0639006833067 278.3454279268214 453.3581796878363 275.92182227716796 L 453.3581796878363 275.92182227716796 L 454.2410167014251 268.6510053282076 Q 454.5352957059547 266.22739967855415 456.95890135560813 266.52167868308373 L 456.95890135560813 266.52167868308373 L 461.806112654915 267.1102366921429 Q 464.2297183045685 267.40451569667255 464.5239973090981 264.98091004701905 L 464.5239973090981 264.98091004701905 L 465.25969482042206 258.9218959228854 Q 465.5539738249517 256.498290273232 467.68330047007555 259.216174927415 L 467.68330047007555 259.216174927415 L 480.74471097521234 273.1725853723495 Q 482.87403762033625 275.8904700265325 480.1561529661532 278.01979667165637 L 480.1561529661532 278.01979667165637 Z" fill-opacity="1"/></g></g><g><g><path fill="rgb(125,211,252)" stroke="none" paint-order="stroke fill markers" d=" M 466.7626571990654 332.2855649412502 L 448.76342930669756 338.43644727496917 Q 445.61494022044764 339.8534671862067 446.48067480795385 337.57071268746296 L 446.48067480795385 337.57071268746296 L 448.64501127671934 331.86382644060376 Q 449.5107458642255 329.58107194186005 447.22799136548184 328.7153373543539 L 447.22799136548184 328.7153373543539 L 444.9452368667381 327.8496027668477 Q 440.37972786925076 326.1181335918353 442.54406433801626 320.41124734497606 L 442.54406433801626 320.41124734497606 Q 444.7084008067817 314.70436109811686 449.27390980426907 316.4358302731292 L 449.27390980426907 316.4358302731292 L 451.5566643030128 317.30156486063544 Q 453.83941880175644 318.16729944814165 454.70515338926265 315.88454494939793 L 454.70515338926265 315.88454494939793 L 456.86948985802815 310.17765870253874 Q 457.7352244455343 307.894904203795 459.1522443567718 311.0433932900449 L 459.1522443567718 311.0433932900449 L 468.49412637407784 327.7200559437628 Q 469.91114628531534 330.8685450300127 466.7626571990654 332.2855649412502 L 466.7626571990654 332.2855649412502 Z M 444.8268188367599 321.2769819324823 L 444.8268188367599 321.2769819324823 Q 443.5282169555006 324.7011136805978 445.81097145424434 325.566848268104 L 445.81097145424434 325.566848268104 L 450.3764804517317 327.2983174431164 Q 452.65923495047537 328.16405203062254 451.7935003629692 330.44680652936626 L 451.7935003629692 330.44680652936626 L 449.91485630808074 335.4003837916401 L 464.80022449769905 330.5752111892088 Q 466.60115226213696 329.6132298781287 465.9776235367074 327.4706650709174 L 465.9776235367074 327.4706650709174 L 458.061418776514 313.91966395846197 L 456.12217330050015 319.0330340356478 Q 455.25643871299394 321.3157885343915 452.9736842142503 320.4500539468853 L 452.9736842142503 320.4500539468853 L 448.4081752167629 318.71858477187294 Q 446.1254207180192 317.85285018436673 444.8268188367599 321.2769819324823 Z" fill-opacity="1"/></g></g><g><g><path fill="rgb(125,211,252)" stroke="none" paint-order="stroke fill markers" d=" M 440.7717036957686 381.7691952723174 L 421.8234981620387 383.43384696446714 Q 418.42738338512265 384.056208095235 419.81426020819674 382.04697014139305 L 419.81426020819674 382.04697014139305 L 423.281452265882 377.0238752567882 Q 424.66832908895617 375.01463730294626 422.65909113511424 373.62776047987217 L 422.65909113511424 373.62776047987217 L 418.6406152274303 370.85400683372393 Q 416.6313772735884 369.46713001064984 418.01825409666253 367.4578920568079 L 418.01825409666253 367.4578920568079 L 422.17888456588486 361.43017819528205 Q 423.56576138895895 359.4209402414401 425.5749993428009 360.80781706451427 L 425.5749993428009 360.80781706451427 L 429.59347525048474 363.58157071066245 Q 431.6027132043267 364.9684475337366 432.9895900274008 362.95920957989466 L 432.9895900274008 362.95920957989466 L 436.4567820850861 357.9361146952898 Q 437.8436589081602 355.92687674144787 438.46602003892804 359.32299151836395 L 438.46602003892804 359.32299151836395 L 443.54545734191686 377.75071936463354 Q 444.1678184726847 381.14683414154956 440.7717036957686 381.7691952723174 L 440.7717036957686 381.7691952723174 Z" fill-opacity="1"/></g></g><g><g><path fill="rgb(125,211,252)" stroke="none" paint-order="stroke fill markers" d=" M 403.6937922006024 423.59487893569417 L 384.8978098572061 420.67655648068967 Q 381.4514392360833 420.46808946425824 383.2788580548604 418.84913766191255 L 383.2788580548604 418.84913766191255 L 387.84740510180313 414.8017581560483 Q 389.67482392058025 413.18280635370263 388.05587211823456 411.3553875349255 L 388.05587211823456 411.3553875349255 L 386.4369203158888 409.5279687161484 Q 383.19901671119743 405.8731310785942 387.7675637581402 401.82575157273 L 387.7675637581402 401.82575157273 Q 392.33611080508297 397.77837206686576 395.57401440977435 401.43320970441994 L 395.57401440977435 401.43320970441994 L 397.19296621212004 403.26062852319706 Q 398.81191801446573 405.0880473419742 400.63933683324285 403.4690955396285 L 400.63933683324285 403.4690955396285 L 405.2078838801856 399.42171603376426 Q 407.0353026989627 397.80276423141856 406.8268356825313 401.2491348525413 L 406.8268356825313 401.2491348525413 L 407.3486298381566 420.3569753310028 Q 407.1401628217252 423.8033459521256 403.6937922006024 423.59487893569417 L 403.6937922006024 423.59487893569417 Z M 389.3865155604859 403.6531703915071 L 389.3865155604859 403.6531703915071 Q 386.64538733232024 406.08159809502564 388.26433913466593 407.9090169138027 L 388.26433913466593 407.9090169138027 L 391.5022427393573 411.56385455135694 Q 393.121194541703 413.39127337013406 391.29377572292594 415.01022517247975 L 391.29377572292594 415.01022517247975 L 387.3282768861796 418.5233505835699 L 402.75098536120424 421.16844795004914 Q 404.7926827083239 421.1535886648988 405.23627495474113 418.966673498859 L 405.23627495474113 418.966673498859 L 404.52428797087214 403.2890141234969 L 400.4308698168114 406.91546616075124 Q 398.6034509980343 408.5344179630969 396.9844991956886 406.70699914431987 L 396.9844991956886 406.70699914431987 L 393.74659559099723 403.05216150676563 Q 392.12764378865154 401.22474268798857 389.3865155604859 403.6531703915071 Z" fill-opacity="1"/></g></g><g><g><path fill="rgb(125,211,252)" stroke="none" paint-order="stroke fill markers" d=" M 357.68375615694094 455.33185922703944 L 340.13235117706046 448.00016491829496 Q 336.83601524518303 446.97298509991253 338.99777312031296 445.83840704316503 L 338.99777312031296 445.83840704316503 L 344.40216780813773 443.00196190129634 Q 346.56392568326766 441.86738384454884 345.42934762652015 439.705625969419 L 345.42934762652015 439.705625969419 L 343.1601915130252 435.38211021915913 Q 342.0256134562777 433.22035234402927 344.18737133140763 432.08577428728177 L 344.18737133140763 432.08577428728177 L 350.67264495679734 428.6820401170393 Q 352.83440283192726 427.5474620602918 353.9689808886747 429.70921993542174 L 353.9689808886747 429.70921993542174 L 356.2381370021697 434.03273568568153 Q 357.37271505891715 436.19449356081145 359.5344729340471 435.05991550406395 L 359.5344729340471 435.05991550406395 L 364.93886762187185 432.22347036219526 Q 367.1006254970018 431.08889230544776 366.07344567861935 434.3852282373252 L 366.07344567861935 434.3852282373252 L 362.0072719072008 453.06270311354444 Q 360.98009208881837 456.3590390454218 357.68375615694094 455.33185922703944 L 357.68375615694094 455.33185922703944 Z" fill-opacity="1"/></g></g><g><g><path fill="rgb(125,211,252)" stroke="none" paint-order="stroke fill markers" d=" M 305.4155316199659 475.1356982110496 L 290.12872786427056 463.816723472165 Q 287.1739976843057 462.0305268092292 289.544461105756 461.44626005071467 L 289.544461105756 461.44626005071467 L 295.47061965938184 459.9855931544283 Q 297.84108308083216 459.40132639591377 297.2568163223176 457.03086297446345 L 297.2568163223176 457.03086297446345 L 296.67254956380305 454.6603995530131 Q 295.504016046774 449.9194727101125 301.43017460039977 448.4588058138261 L 301.43017460039977 448.4588058138261 Q 307.35633315402555 446.99813891753973 308.52486667105467 451.7390657604404 L 308.52486667105467 451.7390657604404 L 309.1091334295692 454.1095291818907 Q 309.69340018808373 456.47999260334103 312.06386360953405 455.8957258448265 L 312.06386360953405 455.8957258448265 L 317.9900221631599 454.4350589485401 Q 320.3604855846102 453.8507921900256 318.57428892167445 456.8055223699904 L 318.57428892167445 456.8055223699904 L 310.15645846286657 473.96716469402054 Q 308.3702617999308 476.92189487398537 305.4155316199659 475.1356982110496 L 305.4155316199659 475.1356982110496 Z M 302.0144413589143 450.8292692352764 L 302.0144413589143 450.8292692352764 Q 298.4587462267388 451.70566937304824 299.04301298525337 454.07613279449856 L 299.04301298525337 454.07613279449856 L 300.2115465022825 458.8170596373992 Q 300.795813260797 461.18752305884954 298.42534983934667 461.77178981736404 L 298.42534983934667 461.77178981736404 L 293.2814442147995 463.0396486833406 L 305.708336327388 472.54905608894893 Q 307.5230750000847 473.48472291288243 308.9321665805605 471.75445329736914 L 308.9321665805605 471.75445329736914 L 315.587505010647 457.54169848571877 L 310.2776669465983 458.85045602479136 Q 307.90720352514796 459.43472278330586 307.3229367666334 457.06425936185553 L 307.3229367666334 457.06425936185553 L 306.15440324960434 452.3233325189549 Q 305.5701364910898 449.9528690975046 302.0144413589143 450.8292692352764 Z" fill-opacity="1"/></g></g><g><g><path fill="rgb(125,211,252)" stroke="none" paint-order="stroke fill markers" d=" M 249.92675781250003 481.85546875 L 237.79296875000003 467.20703125 Q 235.35156250000003 464.765625 237.79296875000003 464.765625 L 237.79296875000003 464.765625 L 243.89648437500003 464.765625 Q 246.33789062500003 464.765625 246.33789062500003 462.32421875 L 246.33789062500003 462.32421875 L 246.33789062500003 457.44140625 Q 246.33789062500003 455 248.77929687500003 455 L 248.77929687500003 455 L 256.103515625 455 Q 258.544921875 455 258.544921875 457.44140625 L 258.544921875 457.44140625 L 258.54492187500006 462.32421875 Q 258.54492187500006 464.765625 260.98632812500006 464.765625 L 260.98632812500006 464.765625 L 267.08984375 464.765625 Q 269.53125 464.765625 267.08984375 467.20703125 L 267.08984375 467.20703125 L 254.80957031250003 481.85546875 Q 252.36816406250003 484.296875 249.92675781250003 481.85546875 L 249.92675781250003 481.85546875 Z" fill-opacity="1"/></g></g><g><g><path fill="rgb(125,211,252)" stroke="none" paint-order="stroke fill markers" d=" M 194.44224057474722 475.1006422055388 L 186.1666379212264 457.9740558870196 Q 184.3804412582906 455.0193257070547 186.75090467974093 455.60359246556925 L 186.75090467974093 455.60359246556925 L 192.67706323336674 457.06425936185565 Q 195.04752665481706 457.64852612037015 195.63179341333162 455.2780626989198 L 195.63179341333162 455.2780626989198 L 196.21606017184615 452.9075992774695 Q 197.38459368887524 448.16667243456885 203.31075224250105 449.62733933085525 L 203.31075224250105 449.62733933085525 Q 209.23691079612686 451.0880062271416 208.06837727909777 455.82893307004224 L 208.06837727909777 455.82893307004224 L 207.48411052058322 458.19939649149256 Q 206.89984376206868 460.5698599129429 209.270307183519 461.15412667145745 L 209.270307183519 461.15412667145745 L 215.19646573714482 462.6147935677438 Q 217.56692915859514 463.19906032625835 214.61219897863026 464.9852569891941 L 214.61219897863026 464.9852569891941 L 199.18316741764787 476.26917572256787 Q 196.228437237683 478.0553723855037 194.44224057474722 475.1006422055388 L 194.44224057474722 475.1006422055388 Z M 202.7264854839865 451.9978027523056 L 202.7264854839865 451.9978027523056 Q 199.17079035181104 451.12140261453374 198.58652359329648 453.49186603598406 L 198.58652359329648 453.49186603598406 L 197.4179900762674 458.2327928788847 Q 196.83372331775286 460.60325630033503 194.46325989630253 460.0189895418205 L 194.46325989630253 460.0189895418205 L 189.31935427175532 458.7511306758439 L 195.90357879919839 472.9463574847389 Q 197.0756240375291 474.6182004244007 199.12740905237084 473.7409602763186 L 199.12740905237084 473.7409602763186 L 211.62541506760286 464.2490808734658 L 206.31557700355413 462.9403233343932 Q 203.9451135821038 462.35605657587865 204.52938034061836 459.98559315442833 L 204.52938034061836 459.98559315442833 L 205.69791385764745 455.2446663115277 Q 206.28218061616198 452.87420289007736 202.7264854839865 451.9978027523056 Z" fill-opacity="1"/></g></g><g><g><path fill="rgb(125,211,252)" stroke="none" paint-order="stroke fill markers" d=" M 142.18653837055126 455.26378454363464 L 138.25007007164052 436.6543843508202 Q 137.2228902532581 433.3580484189428 139.384648128388 434.4926264756903 L 139.384648128388 434.4926264756903 L 144.78904281621277 437.329071617559 Q 146.95080069134266 438.46364967430645 148.08537874809016 436.3018917991766 L 148.08537874809016 436.3018917991766 L 150.3545348615851 431.97837604891674 Q 151.4891129183326 429.8166181737868 153.6508707934625 430.9511962305343 L 153.6508707934625 430.9511962305343 L 160.13614441885224 434.35493040077677 Q 162.29790229398213 435.48950845752427 161.16332423723466 437.6512663326542 L 161.16332423723466 437.6512663326542 L 158.8941681237397 441.974782082914 Q 157.75959006699222 444.1365399580439 159.9213479421221 445.27111801479134 L 159.9213479421221 445.27111801479134 L 165.3257426299469 448.1075631566601 Q 167.48750050507678 449.24214121340754 164.19116457319942 450.26932103178996 L 164.19116457319942 450.26932103178996 L 146.51005412081108 457.5329406571296 Q 143.21371818893368 458.560120475512 142.18653837055126 455.26378454363464 L 142.18653837055126 455.26378454363464 Z" fill-opacity="1"/></g></g><g><g><path fill="rgb(125,211,252)" stroke="none" paint-order="stroke fill markers" d=" M 96.19656267027112 423.4977418275535 L 96.82800195502307 404.4870384572328 Q 96.61953493859166 401.04066783611 98.44695375736876 402.6596196384557 L 98.44695375736876 402.6596196384557 L 103.01550080431151 406.7069991443199 Q 104.84291962308862 408.3259509466656 106.46187142543431 406.4985321278885 L 106.46187142543431 406.4985321278885 L 108.08082322778 404.6711133091114 Q 111.31872683247138 401.0162756715572 115.88727387941414 405.0636551774214 L 115.88727387941414 405.0636551774214 Q 120.45582092635689 409.11103468328565 117.21791732166551 412.76587232083983 L 117.21791732166551 412.76587232083983 L 115.59896551931982 414.59329113961695 Q 113.98001371697413 416.42070995839407 115.80743253575123 418.03966176073976 L 115.80743253575123 418.03966176073976 L 120.37597958269399 422.087041266604 Q 122.20339840147109 423.7059930689497 118.7570277803483 423.91446008538105 L 118.7570277803483 423.91446008538105 L 99.85140030782533 426.7356454322449 Q 96.40502968670253 426.94411244867626 96.19656267027112 423.4977418275535 L 96.19656267027112 423.4977418275535 Z M 114.26832207706845 406.89107399619854 L 114.26832207706845 406.89107399619854 Q 111.5271938489028 404.46264629268 109.9082420465571 406.29006511145707 L 109.9082420465571 406.29006511145707 L 106.67033844186572 409.9449027490113 Q 105.05138663952003 411.7723215677884 103.22396782074293 410.15336976544273 L 103.22396782074293 410.15336976544273 L 99.25846898399661 406.64024435435255 L 98.49165943556434 422.2693351756443 Q 98.75250980010378 424.2943551614495 100.9769490291012 424.47110962683445 L 100.9769490291012 424.47110962683445 L 116.45448006868915 421.8745808144255 L 112.36106191462844 418.2481287771712 Q 110.53364309585133 416.6291769748255 112.15259489819702 414.8017581560484 L 112.15259489819702 414.8017581560484 L 115.3904985028884 411.14692051849414 Q 117.0094503052341 409.3195016997171 114.26832207706845 406.89107399619854 Z" fill-opacity="1"/></g></g><g><g><path fill="rgb(125,211,252)" stroke="none" paint-order="stroke fill markers" d=" M 59.145083694846946 381.6486409950869 L 64.30773360722023 363.34146742604787 Q 64.93009473798804 359.9453526491318 66.31697156106216 361.9545906029737 L 66.31697156106216 361.9545906029737 L 69.78416361874744 366.9776854875786 Q 71.17104044182155 368.9869234414205 73.18027839566348 367.6000466183464 L 73.18027839566348 367.6000466183464 L 77.19875430334736 364.8262929721982 Q 79.20799225718929 363.43941614912404 80.5948690802634 365.448654102966 L 80.5948690802634 365.448654102966 L 84.75549954948573 371.4763679644918 Q 86.14237637255984 373.48560591833376 84.1331384187179 374.87248274140785 L 84.1331384187179 374.87248274140785 L 80.11466251103404 377.6462363875561 Q 78.10542455719211 379.0331132106302 79.49230138026621 381.0423511644721 L 79.49230138026621 381.0423511644721 L 82.9594934379515 386.06544604907697 Q 84.3463702610256 388.0746840029189 80.95025548410956 387.45232287215106 L 80.95025548410956 387.45232287215106 L 61.91883734099517 385.6671169027708 Q 58.52272256407913 385.044755772003 59.145083694846946 381.6486409950869 L 59.145083694846946 381.6486409950869 Z" fill-opacity="1"/></g></g><g><g><path fill="rgb(125,211,252)" stroke="none" paint-order="stroke fill markers" d=" M 33.18539872568422 332.14859967132566 L 42.57922481824059 315.60890228753243 Q 43.99624472947808 312.4604132012825 44.861979316984275 314.7431677000262 L 44.861979316984275 314.7431677000262 L 47.02631578574975 320.4500539468854 Q 47.89205037325594 322.73280844562913 50.17480487199963 321.8670738581229 L 50.17480487199963 321.8670738581229 L 52.45755937074332 321.0013392706167 Q 57.023068368230696 319.26987009560435 59.18740483699617 324.9767563424636 L 59.18740483699617 324.9767563424636 Q 61.35174130576165 330.6836425893228 56.78623230827428 332.41511176433517 L 56.78623230827428 332.41511176433517 L 54.50347780953059 333.2808463518414 Q 52.2207233107869 334.1465809393476 53.08645789829309 336.42933543809124 L 53.08645789829309 336.42933543809124 L 55.25079436705857 342.13622168495044 Q 56.11652895456476 344.41897618369416 52.96803986831488 343.00195627245665 L 52.96803986831488 343.00195627245665 L 34.91686790069661 336.7141086688131 Q 31.76837881444673 335.2970887575756 33.18539872568422 332.14859967132566 L 33.18539872568422 332.14859967132566 Z M 56.90465033825249 325.84249092996976 L 56.90465033825249 325.84249092996976 Q 55.6060484569932 322.4183591818542 53.32329395824951 323.2840937693604 L 53.32329395824951 323.2840937693604 L 48.75778496076214 325.0155629443728 Q 46.475030462018445 325.881297531879 45.609295874512256 323.5985430331353 L 45.609295874512256 323.5985430331353 L 43.730651819623816 318.6449657708615 L 35.788475021805205 332.1274842483547 Q 35.07837283762508 334.04177360569156 36.965874060813626 335.2320303666461 L 36.965874060813626 335.2320303666461 L 51.877214288057075 340.12568560403963 L 49.93796881204321 335.01231552685374 Q 49.07223422453702 332.7295610281101 51.35498872328071 331.8638264406039 L 51.35498872328071 331.8638264406039 L 55.92049772076808 330.1323572655915 Q 58.203252219511775 329.2666226780853 56.90465033825249 325.84249092996976 Z" fill-opacity="1"/></g></g><g><g><path fill="rgb(125,211,252)" stroke="none" paint-order="stroke fill markers" d=" M 19.826190293575078 277.87438033267733 L 32.90525753898368 264.06338622672206 Q 35.03458418410754 261.34550157253904 35.328863188637136 263.7691072221925 L 35.328863188637136 263.7691072221925 L 36.064560699961135 269.8281213463261 Q 36.358839704490734 272.25172699597954 38.78244535414419 271.95744799144995 L 38.78244535414419 271.95744799144995 L 43.629656653451086 271.3688899823907 Q 46.05326230310454 271.07461097786114 46.34754130763414 273.4982166275146 L 46.34754130763414 273.4982166275146 L 47.230378321222936 280.76903357647495 Q 47.524657325752536 283.1926392261284 45.10105167609908 283.48691823065803 L 45.10105167609908 283.48691823065803 L 40.253840376792176 284.0754762397172 Q 37.83023472713872 284.3697552442468 38.12451373166832 286.7933608939003 L 38.12451373166832 286.7933608939003 L 38.86021124299232 292.8523750180339 Q 39.15449024752192 295.27598066768735 36.43660559333887 293.1466540225635 L 36.43660559333887 293.1466540225635 L 20.414748302634273 282.7215916319842 Q 17.696863648451224 280.59226498686036 19.826190293575078 277.87438033267733 L 19.826190293575078 277.87438033267733 Z" fill-opacity="1"/></g></g><g><g><path fill="rgb(125,211,252)" stroke="none" paint-order="stroke fill markers" d=" M 19.84384703384682 221.98020332834378 L 35.84804758427963 211.7005572767437 Q 38.56593223846267 209.57123063161984 38.27165323393308 211.99483628127328 L 38.27165323393308 211.99483628127328 L 37.53595572260909 218.0538504054069 Q 37.241676718079496 220.47745605506037 39.66528236773294 220.77173505958996 L 39.66528236773294 220.77173505958996 L 42.088888017386395 221.06601406411957 Q 46.9360993166933 221.65457207317874 46.20040180536932 227.71358619731237 L 46.20040180536932 227.71358619731237 Q 45.464704294045326 233.77260032144602 40.61749299473842 233.18404231238682 L 40.61749299473842 233.18404231238682 L 38.19388734508497 232.88976330785724 Q 35.77028169543152 232.59548430332762 35.47600269090192 235.0190899529811 L 35.47600269090192 235.0190899529811 L 34.74030517957793 241.07810407711472 Q 34.44602617504834 243.50170972676815 32.31669952992448 240.78382507258513 L 32.31669952992448 240.78382507258513 L 19.25528902478763 226.82741462765068 Q 17.125962379663772 224.10952997346763 19.84384703384682 221.98020332834378 L 19.84384703384682 221.98020332834378 Z M 43.776796155715864 227.41930719278278 L 43.776796155715864 227.41930719278278 Q 44.218214662510256 223.7838987183026 41.7946090128568 223.489619713773 L 41.7946090128568 223.489619713773 L 36.9473977135499 222.9010617047138 Q 34.523792063896444 222.60678270018423 34.81807106842604 220.18317705053076 L 34.81807106842604 220.18317705053076 L 35.456656508255264 214.92395279078278 L 22.158569451824324 223.17121642324514 Q 20.64019057166128 224.53623453003556 21.758350005664074 226.46732010677385 L 21.758350005664074 226.46732010677385 L 32.68749107563177 237.73008195402176 L 33.34667604577807 232.30120529879804 Q 33.64095505030766 229.87759964914457 36.06456069996111 230.17187865367418 L 36.06456069996111 230.17187865367418 L 40.91177199926802 230.76043666273335 Q 43.335377648921465 231.05471566726297 43.776796155715864 227.41930719278278 Z" fill-opacity="1"/></g></g><g><g><path fill="rgb(125,211,252)" stroke="none" paint-order="stroke fill markers" d=" M 33.23734280093457 167.7144350587498 L 51.23657069330247 161.56355272503083 Q 54.38505977955234 160.14653281379333 53.51932519204615 162.429287312537 L 53.51932519204615 162.429287312537 L 51.35498872328068 168.13617355939624 Q 50.48925413577449 170.41892805813993 52.77200863451817 171.2846626456461 L 52.77200863451817 171.2846626456461 L 57.33751763200555 173.0161318206585 Q 59.62027213074924 173.88186640816468 58.75453754324305 176.16462090690837 L 58.75453754324305 176.16462090690837 L 56.15733378072448 183.01288440313945 Q 55.29159919321829 185.29563890188314 53.008844694474604 184.42990431437696 L 53.008844694474604 184.42990431437696 L 48.44333569698722 182.69843513936456 Q 46.160581198243534 181.83270055185838 45.294846610737345 184.11545505060207 L 45.294846610737345 184.11545505060207 L 43.13051014197187 189.8223412974613 Q 42.26477555446568 192.10509579620498 40.84775564322818 188.95660670995508 L 40.84775564322818 188.95660670995508 L 31.505873625922188 172.27994405623718 Q 30.08885371468469 169.13145496998732 33.23734280093457 167.7144350587498 L 33.23734280093457 167.7144350587498 Z" fill-opacity="1"/></g></g><g><g><path fill="rgb(125,211,252)" stroke="none" paint-order="stroke fill markers" d=" M 59.228296304231336 118.23080472768262 L 78.17650183796127 116.56615303553286 Q 81.57261661487732 115.94379190476504 80.1857397918032 117.95302985860697 L 80.1857397918032 117.95302985860697 L 76.71854773411793 122.97612474321181 Q 75.33167091104382 124.98536269705374 77.34090886488576 126.37223952012785 L 77.34090886488576 126.37223952012785 L 79.3501468187277 127.75911634320197 Q 83.36862272641156 130.5328699893502 79.90143066872629 135.55596487395502 L 79.90143066872629 135.55596487395502 Q 76.43423861104101 140.57905975855985 72.41576270335713 137.80530611241164 L 72.41576270335713 137.80530611241164 L 70.4065247495152 136.41842928933752 Q 68.39728679567327 135.0315524662634 67.01040997259916 137.04079042010537 L 67.01040997259916 137.04079042010537 L 63.54321791491388 142.0638853047102 Q 62.15634109183977 144.07312325855213 61.53397996107195 140.67700848163608 L 61.53397996107195 140.67700848163608 L 56.45454265808311 122.24928063536649 Q 55.832181527315285 118.85316585845044 59.228296304231336 118.23080472768262 L 59.228296304231336 118.23080472768262 Z M 77.89219271488435 134.1690880508809 L 77.89219271488435 134.1690880508809 Q 79.97250794949552 131.155231120118 77.96326999565358 129.7683542970439 L 77.96326999565358 129.7683542970439 L 73.94479408796971 126.99460065089568 Q 71.93555613412778 125.60772382782157 73.32243295720188 123.59848587397963 L 73.32243295720188 123.59848587397963 L 76.33195566327271 119.23843951414264 L 60.72438983353585 120.36109959367825 Q 58.7455765603861 120.8641372519079 58.838237354155055 123.09366321090327 L 58.838237354155055 123.09366321090327 L 63.28144475814533 138.14536865979525 L 66.38804884183133 133.64467564318932 Q 67.77492566490544 131.63543768934738 69.78416361874739 133.02231451242147 L 69.78416361874739 133.02231451242147 L 73.80263952643125 135.7960681585697 Q 75.81187748027318 137.18294498164383 77.89219271488435 134.1690880508809 Z" fill-opacity="1"/></g></g><g><g><path fill="rgb(125,211,252)" stroke="none" paint-order="stroke fill markers" d=" M 96.30620779939761 76.40512106430586 L 115.10219014279397 79.32344351931039 Q 118.54856076391675 79.53191053574179 116.72114194513966 81.15086233808748 L 116.72114194513966 81.15086233808748 L 112.15259489819691 85.19824184395172 Q 110.3251760794198 86.81719364629741 111.9441278817655 88.64461246507452 L 111.9441278817655 88.64461246507452 L 115.18203148645688 92.29945010262871 Q 116.80098328880257 94.12686892140582 114.97356447002547 95.7458207237515 L 114.97356447002547 95.7458207237515 L 109.49130801369417 100.60267613078858 Q 107.66388919491706 102.22162793313427 106.04493739257137 100.39420911435717 L 106.04493739257137 100.39420911435717 L 102.80703378787999 96.73937147680297 Q 101.1880819855343 94.91195265802587 99.36066316675719 96.53090446037156 L 99.36066316675719 96.53090446037156 L 94.79211611981444 100.57828396623579 Q 92.96469730103735 102.19723576858148 93.17316431746875 98.7508651474587 L 93.17316431746875 98.7508651474587 L 92.65137016184342 79.64302466899726 Q 92.85983717827483 76.19665404787446 96.30620779939761 76.40512106430586 L 96.30620779939761 76.40512106430586 Z" fill-opacity="1"/></g></g><g><g><path fill="rgb(125,211,252)" stroke="none" paint-order="stroke fill markers" d=" M 142.3162438430589 44.66814077296065 L 159.86764882293943 51.99983508170509 Q 163.16398475481682 53.02701490008752 161.00222687968693 54.161592956835 L 161.00222687968693 54.161592956835 L 155.59783219186215 56.99803809870371 Q 153.43607431673226 58.13261615545119 154.57065237347973 60.294374030581096 L 154.57065237347973 60.294374030581096 L 155.7052304302272 62.456131905711004 Q 157.97438654372218 66.77964765597082 152.56999185589743 69.61609279783953 L 152.56999185589743 69.61609279783953 Q 147.16559716807265 72.45253793970824 144.89644105457768 68.12902218944842 L 144.89644105457768 68.12902218944842 L 143.7618629978302 65.96726431431851 Q 142.6272849410827 63.80550643918861 140.4655270659528 64.94008449593609 L 140.4655270659528 64.94008449593609 L 135.06113237812804 67.7765296378048 Q 132.89937450299814 68.91110769455229 133.92655432138056 65.61477176267489 L 133.92655432138056 65.61477176267489 L 137.9927280927991 46.93729688645561 Q 139.01990791118152 43.640960954578226 142.3162438430589 44.66814077296065 L 142.3162438430589 44.66814077296065 Z M 151.43541379914993 67.45433492270962 L 151.43541379914993 67.45433492270962 Q 154.67805061184478 65.7524678375884 153.5434725550973 63.59070996245849 L 153.5434725550973 63.59070996245849 L 151.27431644160234 59.267194212198675 Q 150.13973838485487 57.10543633706877 152.30149625998476 55.97085828032129 L 152.30149625998476 55.97085828032129 L 156.99251084901667 53.50882389717925 L 142.65097148600833 47.24969252908713 Q 140.66504609346538 46.77550987351659 139.71098077583164 48.792718686263704 L 139.71098077583164 48.792718686263704 L 136.65036924404424 64.18520341117306 L 141.49270688433523 61.643748564058704 Q 143.65446475946513 60.50917050731122 144.78904281621263 62.670928382441126 L 144.78904281621263 62.670928382441126 L 147.0581989297076 66.99444413270093 Q 148.19277698645507 69.15620200783084 151.43541379914993 67.45433492270962 Z" fill-opacity="1"/></g></g><g><g><path fill="rgb(125,211,252)" stroke="none" paint-order="stroke fill markers" d=" M 194.58446838003397 24.864301788950417 L 209.87127213572936 36.18327652783505 Q 212.8260023156942 37.96947319077082 210.4555388942439 38.55373994928537 L 210.4555388942439 38.55373994928537 L 204.52938034061808 40.01440684557174 Q 202.15891691916778 40.59867360408629 202.7431836776823 42.96913702553661 L 202.7431836776823 42.96913702553661 L 203.9117171947114 47.71006386843725 Q 204.49598395322596 50.08052728988757 202.12552053177563 50.66479404840212 L 202.12552053177563 50.66479404840212 L 195.01413026742466 52.417594323945764 Q 192.64366684597434 53.00186108246031 192.0594000874598 50.63139766100999 L 192.0594000874598 50.63139766100999 L 190.89086657043072 45.89047081810934 Q 190.30659981191616 43.520007396659025 187.93613639046583 44.10427415517357 L 187.93613639046583 44.10427415517357 L 182.00997783684002 45.56494105145994 Q 179.6395144153897 46.149207809974484 181.4257110783255 43.194477630009615 L 181.4257110783255 43.194477630009615 L 189.84354153713332 26.032835305979514 Q 191.62973820006908 23.078105126014645 194.58446838003397 24.864301788950417 L 194.58446838003397 24.864301788950417 Z" fill-opacity="1"/></g></g></g></g></svg>