<svg version="1.1" xmlns="http://www.w3.org/2000/svg" xmlns:xlink="http://www.w3.org/1999/xlink" width="500" height="500" viewBox="0 0 500 500"><defs/><g><g><g><g><path fill="rgb(125,211,252)" stroke="none" paint-order="stroke fill markers" d=" M 267.08984375 23.02734375 L 228.02734375 23.02734375 L 247.55859375 3.49609375 L 267.08984375 23.02734375 Z M 240.234375 25.46875 L 254.8828125 25.46875 L 254.8828125 32.79296875 L 240.234375 32.79296875 L 240.234375 25.46875 Z M 240.234375 35.234375 L 254.8828125 35.234375 L 254.8828125 40.1171875 L 240.234375 40.1171875 L 240.234375 35.234375 Z M 240.234375 42.55859375 L 254.8828125 42.55859375 L 254.8828125 45 L 240.234375 45 L 240.234375 42.55859375 Z" fill-opacity="1"/></g></g><g><g><path fill="rgb(125,211,252)" stroke="none" paint-order="stroke fill markers" d=" M 278.1961883135318 39.20256063148161 L 297.374483181944 42.898873997895876 L 295.98836566953867 50.09073457355046 L 276.81007080112647 46.394421207136205 L 278.1961883135318 39.20256063148161 Z M 279.12026665513537 34.407986914378554 L 280.5063841675407 27.21612633872396 L 270.91723673333456 25.36796965551683 L 293.79184496816106 9.885988153518852 L 309.27382647015907 32.76059638834535 L 299.68467903595297 30.912439705138222 L 298.2985615235476 38.10430028079281 L 279.12026665513537 34.407986914378554 Z" fill-opacity="1"/></g></g><g><g><path fill="rgb(125,211,252)" stroke="none" paint-order="stroke fill markers" d=" M 330.7238499582972 61.49933181598406 L 323.9242801364021 58.77719468956564 L 317.12471031450707 56.05505756314723 L 318.48770320909995 46.08158542514767 L 309.42161011323986 42.45206925658979 L 334.8128286420758 31.57891540198539 L 345.6859824966802 56.97013393082133 L 336.6198894008201 53.34061776226345 L 330.7238499582972 61.49933181598406 Z" fill-opacity="1"/></g></g><g><g><path fill="rgb(125,211,252)" stroke="none" paint-order="stroke fill markers" d=" M 381.8078783623239 76.51328470035315 L 348.94641223610586 55.39450276849388 L 375.9365362651445 49.52316067131451 L 381.8078783623239 76.51328470035315 Z M 346.30656449462344 59.502186034271126 L 379.1680306208415 80.62096796613041 L 375.20825900861786 86.78249286479628 L 342.3467928823998 65.66371093293701 L 346.30656449462344 59.502186034271126 Z" fill-opacity="1"/></g></g><g><g><path fill="rgb(125,211,252)" stroke="none" paint-order="stroke fill markers" d=" M 403.50603661224034 99.62109660746952 L 396.4383213963705 92.88204376096454 L 389.37060618050066 86.14299091445953 L 396.1096590270057 79.0752756985897 L 389.04194381113587 72.33622285208472 L 416.6554799358855 71.67889811335505 L 417.31280467461517 99.2924342381047 L 410.2450894587453 92.5533813915997 L 403.50603661224034 99.62109660746952 Z M 403.97984287973577 95.58631808656656 L 410.1629238664041 89.101689376006 L 414.58024587632275 93.31359740507162 L 414.12833511844616 74.32929131930624 L 394.967336152284 74.61272575602025 L 399.56135104259937 78.9931101062485 L 393.37827005593107 85.47773881680907 L 403.97984287973577 95.58631808656656 Z M 387.68584296887445 87.90991971842699 L 401.8212734006141 101.38802541143698 L 396.76698376573535 106.68881182333936 L 382.63155333399567 93.21070613032936 L 387.68584296887445 87.90991971842699 Z M 398.36958138502035 101.4701910037782 L 387.76800856121565 91.3616117340207 L 386.0832453495894 93.12854053798816 L 396.68481817339415 103.23711980774566 L 398.36958138502035 101.4701910037782 Z" fill-opacity="1"/></g></g><g><g><path fill="rgb(125,211,252)" stroke="none" paint-order="stroke fill markers" d=" M 419.82037929908444 135.06575517877513 L 415.571915605936 129.09962271746897 L 411.32345191278756 123.1334902561628 L 417.8621406301463 115.48016117819618 L 412.1975223726151 107.52531789645462 L 439.43644545116064 112.10576794487527 L 434.85599540274 139.34469102342086 L 429.1913771452088 131.3898477416793 L 419.82037929908444 135.06575517877513 Z" fill-opacity="1"/></g></g><g><g><path fill="rgb(125,211,252)" stroke="none" paint-order="stroke fill markers" d=" M 443.329290384137 156.34157262094973 L 452.21241533877094 152.2847853846032 L 449.16982491151106 145.62244166862772 L 462.1097371024915 150.44877938691513 L 457.28339938420413 163.38869157789566 L 454.2408089569442 156.72634786192017 L 445.35768400231024 160.78313509826674 L 448.4002744295702 167.4454788142422 L 435.46036223858965 162.61914109595477 L 440.28669995687704 149.67922890497428 L 443.329290384137 156.34157262094973 Z" fill-opacity="1"/></g></g><g><g><path fill="rgb(125,211,252)" stroke="none" paint-order="stroke fill markers" d=" M 450.37253818361813 206.4145918940222 L 448.64578816767994 199.29683138384001 L 446.91903815174174 192.17907087365785 L 455.8338021600053 187.5041506823462 L 453.53146880542107 178.0138033354366 L 477.1168302084087 192.38983132008727 L 462.74080222375807 215.97519272307494 L 460.4384688691738 206.48484537616537 L 450.37253818361813 206.4145918940222 Z M 452.16954168169946 203.46642171864875 L 462.2354723672551 203.5366752007919 L 463.6111165466192 209.20715774057038 L 473.36814300637946 193.29925299514804 L 457.40632815601464 183.63067164064904 L 458.7819723353788 189.30115418042752 L 449.86720832711524 193.97607437173917 L 452.16954168169946 203.46642171864875 Z" fill-opacity="1"/></g></g><g><g><path fill="rgb(125,211,252)" stroke="none" paint-order="stroke fill markers" d=" M 455.0001381058747 245.12298918573734 L 454.65163774583755 237.80706629133056 L 454.30313738580037 230.49114339692375 L 464.0577012450094 230.0264762502075 L 463.4768673116141 217.8332714261962 L 483.91532932346473 236.41306485118184 L 465.33553589847907 256.85152686303246 L 464.75470196508377 244.6583220390211 L 455.0001381058747 245.12298918573734 Z" fill-opacity="1"/></g></g><g><g><path fill="rgb(125,211,252)" stroke="none" paint-order="stroke fill markers" d=" M 485.03910566134994 261.594915582232 L 479.4799322912997 300.25981565570595 L 462.92706893958785 278.14777893394387 L 485.03910566134994 261.594915582232 Z M 463.2900993700208 258.46788056157874 L 457.7309259999706 297.1327806350527 L 450.48125723619427 296.0904356281683 L 456.04043060624446 257.42553555469436 L 463.2900993700208 258.46788056157874 Z" fill-opacity="1"/></g></g><g><g><path fill="rgb(125,211,252)" stroke="none" paint-order="stroke fill markers" d=" M 446.2839463311521 329.5861032673289 L 446.2839463311521 329.5861032673289 Q 445.7532759416839 328.73072738567026 445.30068840110977 327.79903638320536 L 445.30068840110977 327.79903638320536 Q 442.20800687385304 321.43248119969513 444.523673606325 314.7418015750063 L 444.523673606325 314.7418015750063 Q 446.83934033879694 308.0511219503175 453.2058955223072 304.9584404230608 Q 459.5724507058174 301.86575889580405 466.2631303305062 304.18142562827603 L 466.2631303305062 304.18142562827603 Q 472.953809955195 306.49709236074796 476.04649148245176 312.8636475442582 Q 479.1391730097085 319.2302027277684 476.8235062772365 325.9208823524572 L 476.8235062772365 325.9208823524572 Q 474.5078395447645 332.61156197714604 468.1412843612543 335.70424350440277 L 468.1412843612543 335.70424350440277 Q 464.1039566839064 337.6654561802241 459.91390792103635 337.4553444944558 L 459.91390792103635 337.4553444944558 Q 463.8713850214025 335.724844909141 466.7080904827695 332.7538886632639 L 466.7080904827695 332.7538886632639 Q 471.28130088993936 329.1696992961988 472.21722952480445 324.30079950377075 L 472.21722952480445 324.30079950377075 Q 473.8701364683276 319.52503853028594 471.6675437708667 314.99080898495674 Q 469.4649510734058 310.4565794396275 464.7122614089717 308.8116575538026 L 464.7122614089717 308.8116575538026 Q 459.9365004354869 307.15875061027947 455.4022708901577 309.36134330774036 Q 450.86804134482844 311.56393600520124 449.21513440130536 316.33969697868605 L 449.21513440130536 316.33969697868605 Q 447.5702125154804 321.09238664312016 449.7728052129413 325.62661618844936 L 449.7728052129413 325.62661618844936 Q 450.1047027426957 326.30985625692364 450.5066980636459 326.93985251364234 L 450.5066980636459 326.93985251364234 Q 452.6096317995211 325.34253816097447 454.4623165920147 323.34859223422615 L 454.4623165920147 323.34859223422615 L 455.0840495530553 336.4812582991875 L 441.24126412266463 331.69022368028 Q 443.9147935364989 330.8329286640176 446.2839463311521 329.5861032673289 Z" fill-opacity="1"/></g></g><g><g><path fill="rgb(125,211,252)" stroke="none" paint-order="stroke fill markers" d=" M 438.0191644019328 378.28656695920665 L 457.5504144019328 344.45744962387704 L 464.69934806959765 371.1376332915418 L 438.0191644019328 378.28656695920665 Z M 449.33257894347474 353.80834566616755 L 442.00836019347474 366.49426466691614 L 435.6654006931004 362.83215529191614 L 442.9896194431004 350.14623629116755 L 449.33257894347474 353.80834566616755 Z M 440.8752996096423 348.92553316616755 L 433.5510808596423 361.61145216691614 L 429.3224411927261 359.17004591691614 L 436.6466599427261 346.48412691616755 L 440.8752996096423 348.92553316616755 Z M 434.53234010926803 345.26342379116755 L 427.20812135926803 357.94934279191614 L 425.0938015258099 356.72863966691614 L 432.4180202758099 344.04272066616755 L 434.53234010926803 345.26342379116755 Z" fill-opacity="1"/></g></g><g><g><path fill="rgb(125,211,252)" stroke="none" paint-order="stroke fill markers" d=" M 418.45784338908095 379.81733505366765 L 405.6675946792121 394.5780689277742 L 400.1323194764221 389.78172566157343 L 412.92256818629096 375.0209917874668 L 418.45784338908095 379.81733505366765 Z M 422.1480268576076 383.01489723113485 L 427.6833020603976 387.8112404973357 L 434.078426415332 380.43087356028235 L 436.04891157956973 407.9818561442578 L 408.4979289955943 409.9523413084956 L 414.8930533505287 402.57197437144225 L 409.3577781477387 397.7756311052415 L 422.1480268576076 383.01489723113485 Z" fill-opacity="1"/></g></g><g><g><path fill="rgb(125,211,252)" stroke="none" paint-order="stroke fill markers" d=" M 372.88444229855037 414.15923884717665 L 378.641667113561 409.6317072098187 L 384.39889192857163 405.10417557246075 L 392.35467571671916 411.27129811335567 L 400.03097547006666 405.23458926354505 L 396.7517936629928 432.6606064698613 L 369.3257764566765 429.3814246627875 L 377.0020762100241 423.34471581297686 L 372.88444229855037 414.15923884717665 Z" fill-opacity="1"/></g></g><g><g><path fill="rgb(125,211,252)" stroke="none" paint-order="stroke fill markers" d=" M 334.33996348745063 450.89232873052515 L 369.0600982005336 432.99285522554817 L 360.6497675964806 459.3026593345781 L 334.33996348745063 450.89232873052515 Z M 366.82266401241145 428.6528383864128 L 332.1025292993285 446.55231189138976 L 328.74637801714533 440.0422866326867 L 363.46651273022826 422.1428131277097 L 366.82266401241145 428.6528383864128 Z" fill-opacity="1"/></g></g><g><g><path fill="rgb(125,211,252)" stroke="none" paint-order="stroke fill markers" d=" M 303.4789322250572 458.1295790367294 L 312.8489807955113 455.3782845363248 L 322.21902936596535 452.62699003592024 L 324.97032386636994 461.9970386063743 L 334.340372436824 459.2457441059697 L 321.10286429672504 483.48843024768706 L 296.8601781550077 470.2509221075881 L 306.2302267254618 467.4996276071835 L 303.4789322250572 458.1295790367294 Z M 306.73624978905525 460.55729656130427 L 309.26056249317645 469.15431612469587 L 303.4042821366427 470.87387518744873 L 320.0711288590733 479.9746620337668 L 329.4061669196527 463.239032948826 L 323.3156353488576 465.027374374089 L 320.79132264473634 456.4303548106974 L 306.73624978905525 460.55729656130427 Z M 321.5312057408642 450.28447789330676 L 302.79110859995603 455.7870668941159 L 300.7276377246526 448.75953046627535 L 319.4677348655608 443.2569414654662 L 321.5312057408642 450.28447789330676 Z M 304.44579711746843 452.75673112640123 L 318.5008699731495 448.62978937579436 L 317.8130463480484 446.2872772331808 L 303.7579734923673 450.41421898378775 L 304.44579711746843 452.75673112640123 Z" fill-opacity="1"/></g></g><g><g><path fill="rgb(125,211,252)" stroke="none" paint-order="stroke fill markers" d=" M 264.6257861304186 454.5358849639286 L 271.9168402508269 453.8396737092593 L 279.2078943712353 453.14346245458995 L 282.5665274175971 462.6327975302446 L 292.2879329114749 461.7045158573522 L 274.70168526950414 483.0038901908926 L 253.40231093596378 465.41764254892183 L 263.1237164298416 464.4893608760294 L 264.6257861304186 454.5358849639286 Z" fill-opacity="1"/></g></g><g><g><path fill="rgb(125,211,252)" stroke="none" paint-order="stroke fill markers" d=" M 234.44593219668906 464.25729045780633 L 233.51765052379665 473.97869595168413 L 240.80870464420497 474.67490720635345 L 230.1590174774348 483.4680310273388 L 221.36589365644943 472.81834386056863 L 228.65694777685775 473.5145551152379 L 229.58522944975016 463.79314962136016 L 222.29417532934184 463.09693836669084 L 232.94386249611202 454.30381454570545 L 241.73698631709738 464.95350171247566 L 234.44593219668906 464.25729045780633 Z" fill-opacity="1"/></g></g><g><g><path fill="rgb(125,211,252)" stroke="none" paint-order="stroke fill markers" d=" M 187.55980156227994 445.3204123407697 L 194.5873379901205 447.3838832160731 L 201.61487441796106 449.44735409137655 L 201.20609206017 459.50522628693176 L 210.57614063062405 462.25652078733634 L 186.33345448890674 475.49402892743535 L 173.09594634880776 451.251342785718 L 182.46599491926185 454.0026372861226 L 187.55980156227994 445.3204123407697 Z M 189.2144900797923 448.35074810848437 L 184.12068343677421 457.0329730538373 L 178.5220794159279 455.38907458984556 L 187.42021581656655 471.792859742106 L 203.77436031330163 462.8038132684359 L 198.17575629245533 461.15991480444416 L 198.58453865024637 451.10204260888895 L 189.2144900797923 448.35074810848437 Z" fill-opacity="1"/></g></g><g><g><path fill="rgb(125,211,252)" stroke="none" paint-order="stroke fill markers" d=" M 151.7235462067455 429.97383278613717 L 158.23357146544856 433.32998406832036 L 164.74359672415162 436.6861353505035 L 160.26872834790737 445.36616902877427 L 171.11877044574578 450.95975449907957 L 144.80896633671583 459.37008510313257 L 136.39863573266285 433.0602809941026 L 147.24867783050126 438.6538664644079 L 151.7235462067455 429.97383278613717 Z" fill-opacity="1"/></g></g><g><g><path fill="rgb(125,211,252)" stroke="none" paint-order="stroke fill markers" d=" M 122.43895572037616 447.75237859438795 L 91.73375670698601 423.6055431951456 L 119.15977391330227 420.3263613880717 L 122.43895572037616 447.75237859438795 Z M 136.02155063245 430.480704149356 L 105.31635161905986 406.3338687501136 L 109.8438832564178 400.57664393510294 L 140.54908226980794 424.7234793343453 L 136.02155063245 430.480704149356 Z" fill-opacity="1"/></g></g><g><g><path fill="rgb(125,211,252)" stroke="none" paint-order="stroke fill markers" d=" M 82.93443961670543 380.1938322441746 L 82.93443961670543 380.1938322441746 Q 83.94055205474044 380.1619461466883 84.97371390163951 380.2358393403472 L 84.97371390163951 380.2358393403472 Q 92.03365318878323 380.7407761636831 96.67011834611068 386.0915421930468 L 96.67011834611068 386.0915421930468 Q 101.30658350343815 391.4423082224104 100.80164668010222 398.50224750955414 Q 100.2967098567663 405.56218679669786 94.94594382740266 410.1986519540253 L 94.94594382740266 410.1986519540253 Q 89.595177798039 414.83511711135276 82.5352385108953 414.33018028801683 Q 75.47529922375159 413.8252434646809 70.83883406642413 408.4744774353173 L 70.83883406642413 408.4744774353173 Q 66.20236890909668 403.1237114059536 66.70730573243259 396.0637721188099 L 66.70730573243259 396.0637721188099 Q 67.02750957162124 391.5867374489139 69.30449601056358 388.06310462005706 L 69.30449601056358 388.06310462005706 Q 68.82441406250159 392.3556301165267 69.97898491427968 396.29776723206317 L 69.97898491427968 396.29776723206317 Q 70.7963787545472 402.05037830505614 74.54500534583812 405.29536617519267 L 74.54500534583812 405.29536617519267 Q 77.85448219951668 409.1147060651178 82.8825365210922 409.47431960759116 Q 87.91059084266772 409.8339331500645 91.71147981525017 406.5404441072733 L 91.71147981525017 406.5404441072733 Q 95.53081970517526 403.23096725359477 95.89043324764864 398.2029129320192 Q 96.25004679012204 393.1748586104437 92.94056993644347 389.3555187205186 L 92.94056993644347 389.3555187205186 Q 89.64708089365224 385.5546297479362 84.61902657207672 385.19501620546276 L 84.61902657207672 385.19501620546276 Q 83.8613745510174 385.14082786344625 83.11478412793481 385.1739678952323 L 83.11478412793481 385.1739678952323 Q 83.44663206723706 387.7938191093094 84.24709749732685 390.39526416818813 L 84.24709749732685 390.39526416818813 L 72.56300858513217 384.3673676743387 L 83.63355899071212 374.7746811419371 Q 83.03923354641604 377.5186730402137 82.93443961670543 380.1938322441746 Z" fill-opacity="1"/></g></g><g><g><path fill="rgb(125,211,252)" stroke="none" paint-order="stroke fill markers" d=" M 44.8909918480672 348.6860892907934 L 64.42224184806722 382.515206626123 L 37.742058180402395 375.36627295845824 L 44.8909918480672 348.6860892907934 Z M 60.43304605652531 370.7229043338325 L 53.1088273065253 358.0369853330839 L 59.45178680689961 354.3748759580839 L 66.77600555689962 367.0607949588325 L 60.43304605652531 370.7229043338325 Z M 68.89032539035772 365.8400918338325 L 61.56610664035771 353.1541728330839 L 65.79474630727391 350.7127665830839 L 73.11896505727393 363.3986855838325 L 68.89032539035772 365.8400918338325 Z M 75.23328489073202 362.1779824588325 L 67.90906614073202 349.4920634580839 L 70.02338597419012 348.2713603330839 L 77.34760472419012 360.9572793338325 L 75.23328489073202 362.1779824588325 Z" fill-opacity="1"/></g></g><g><g><path fill="rgb(125,211,252)" stroke="none" paint-order="stroke fill markers" d=" M 53.34596829738729 330.9801043148508 L 46.95792213884389 312.5230570743299 L 53.879314854039215 310.12753976487613 L 60.26736101258261 328.584587005397 L 53.34596829738729 330.9801043148508 Z M 48.73170648725707 332.57711585448664 L 41.81031377206175 334.97263316394043 L 45.00433685133345 344.20115678420086 L 20.15924345226918 332.1321557022234 L 32.228244534246656 307.28706230315913 L 35.42226761351835 316.51558592341956 L 42.343660328713675 314.12006861396577 L 48.73170648725707 332.57711585448664 Z" fill-opacity="1"/></g></g><g><g><path fill="rgb(125,211,252)" stroke="none" paint-order="stroke fill markers" d=" M 46.39170774315254 274.34142933683927 L 47.43405275003695 281.5910981006156 L 48.476397756921365 288.840766864392 L 39.157621074181016 292.64711646149664 L 40.54741441669357 302.31334147986513 L 18.435377694931496 285.76047812815324 L 34.98824104664337 263.6484414063912 L 36.378034389155914 273.31466642475965 L 46.39170774315254 274.34142933683927 Z" fill-opacity="1"/></g></g><g><g><path fill="rgb(125,211,252)" stroke="none" paint-order="stroke fill markers" d=" M 33.85215815022545 222.59438656912167 L 31.99348956336051 261.6126420059579 L 13.413696138374853 241.17417999410733 L 33.85215815022545 222.59438656912167 Z M 36.87077149296504 261.84497557931604 L 38.72944007982998 222.8267201424798 L 46.045362974236774 223.17522050251696 L 44.18669438737184 262.1934759393532 L 36.87077149296504 261.84497557931604 Z" fill-opacity="1"/></g></g><g><g><path fill="rgb(125,211,252)" stroke="none" paint-order="stroke fill markers" d=" M 43.01503116270251 192.2493243558011 L 40.71269780811827 201.7396717027107 L 38.41036445353403 211.23001904962027 L 28.92001710662444 208.92768569503605 L 26.617683752040193 218.41803304194562 L 12.241655767389503 194.83267163895795 L 35.827017170377175 180.45664365430727 L 33.524683815792926 189.94699100121684 L 43.01503116270251 192.2493243558011 Z M 39.283907331209015 193.85638535212922 L 30.576513640419467 191.7439944992982 L 32.01547198703462 185.8125274074797 L 15.8005360224806 195.69604664692704 L 25.626496928063343 212.1482412951538 L 27.1230136085431 205.97951551966258 L 35.83040729933265 208.0919063724936 L 39.283907331209015 193.85638535212922 Z M 40.78295129026142 211.80560238826635 L 45.387617999429914 192.82490769444718 L 52.5053785096121 194.55165771038534 L 47.90071180044362 213.53235240420452 L 40.78295129026142 211.80560238826635 Z M 47.184621497511245 195.7730778698206 L 43.731121465634885 210.008598890185 L 46.10370830236228 210.58418222883105 L 49.557208334238645 196.3486612084667 L 47.184621497511245 195.7730778698206 Z" fill-opacity="1"/></g></g><g><g><path fill="rgb(125,211,252)" stroke="none" paint-order="stroke fill markers" d=" M 65.55383457049696 160.39835985729638 L 62.51124414323706 167.06070357327187 L 59.46865371597715 173.72304728924735 L 49.57133195225654 171.88704129155929 L 45.51454471591 180.77016624619324 L 35.861869279335146 154.89034186423223 L 61.741693661296175 145.23766642765736 L 57.68490642494963 154.12079138229134 L 65.55383457049696 160.39835985729638 Z" fill-opacity="1"/></g></g><g><g><path fill="rgb(125,211,252)" stroke="none" paint-order="stroke fill markers" d=" M 72.22477741917398 129.40113692124396 L 64.26993413743241 123.73651866371274 L 60.02147044428399 129.70265112501892 L 57.73124542007366 116.08318958574611 L 71.35070695934645 113.79296456153578 L 67.10224326619803 119.75909702284196 L 75.05708654793959 125.42371528037319 L 79.30555024108801 119.45758281906701 L 81.59577526529834 133.0770443583398 L 67.97631372602555 135.36726938255015 L 72.22477741917398 129.40113692124396 Z" fill-opacity="1"/></g></g><g><g><path fill="rgb(125,211,252)" stroke="none" paint-order="stroke fill markers" d=" M 112.06766025410195 98.26499576520814 L 106.76687384219957 103.31928540008688 L 101.46608743029721 108.37357503496564 L 92.96010577982474 102.99062303072206 L 85.89239056395493 109.72967587722707 L 86.54971530268458 82.11613975247741 L 114.16325142743423 82.77346449120706 L 107.0955362115644 89.51251733771207 L 112.06766025410195 98.26499576520814 Z M 108.61596823850824 98.18283017286693 L 103.6438441959707 89.43035174537086 L 107.86680403745291 85.40376766958411 L 89.21164117705405 84.90788726274599 L 88.81931153068373 103.5655150909151 L 93.04227137216596 99.53893101512836 L 101.54825302263842 104.92188301937193 L 108.61596823850824 98.18283017286693 Z" fill-opacity="1"/></g></g><g><g><path fill="rgb(125,211,252)" stroke="none" paint-order="stroke fill markers" d=" M 143.2763156873796 74.90317802812552 L 137.11479078871372 78.86294964034914 L 130.95326589004785 82.82272125257276 L 125.67357040708302 74.60735472101827 L 115.4043622426399 81.2069740747243 L 121.27570433981924 54.216850045685646 L 148.2658283688579 60.08819214286499 L 137.99662020441477 66.68781149657103 L 143.2763156873796 74.90317802812552 Z" fill-opacity="1"/></g></g><g><g><path fill="rgb(125,211,252)" stroke="none" paint-order="stroke fill markers" d=" M 142.52193861827388 40.65270582338018 L 178.7863110017142 26.134641149148614 L 167.9131571471098 51.52585967798456 L 142.52193861827388 40.65270582338018 Z M 150.68834999752914 61.05141528906537 L 186.95272238096945 46.5333506148338 L 189.67485950738788 53.33292043672886 L 153.41048712394755 67.85098511096042 L 150.68834999752914 61.05141528906537 Z" fill-opacity="1"/></g></g><g><g><path fill="rgb(125,211,252)" stroke="none" paint-order="stroke fill markers" d=" M 220.78161405214246 40.22006448849651 L 220.78161405214246 40.22006448849651 Q 220.30617200357563 41.10732646764147 219.72559769725072 41.96512427644746 L 219.72559769725072 41.96512427644746 Q 215.75833993736373 47.82674263662175 208.8062080475643 49.166656231946924 L 208.8062080475643 49.166656231946924 Q 201.85407615776487 50.5065698272721 195.99245779759056 46.53931206738512 Q 190.13083943741628 42.57205430749814 188.7909258420911 35.6199224176987 L 188.7909258420911 35.6199224176987 Q 187.4510122467659 28.667790527899268 191.4182700066529 22.806172167724974 Q 195.3855277665399 16.94455380755068 202.33765965633933 15.604640212225505 L 202.33765965633933 15.604640212225505 Q 209.28979154613876 14.264726616900333 215.15140990631306 18.231984376787317 L 215.15140990631306 18.231984376787317 Q 218.86853374447236 20.747806370861987 220.78159606840003 24.481550885487152 L 220.78159606840003 24.481550885487152 Q 217.30420091609588 21.919524974332308 213.3129246029508 20.948344104672962 L 213.3129246029508 20.948344104672962 Q 207.92232035551342 18.779922398745057 203.23776512935737 20.403834321036587 L 203.23776512935737 20.403834321036587 Q 198.27538133215572 21.36025540459628 195.44991970804108 25.53487140745212 Q 192.62445808392644 29.709487410307954 193.57625877577811 34.64789833892411 L 193.57625877577811 34.64789833892411 Q 194.5326798593378 39.610282136125775 198.70729586219366 42.4357437602404 Q 202.8819118650495 45.26120538435503 207.84429566225114 44.30478430079534 L 207.84429566225114 44.30478430079534 Q 212.78270659086732 43.35298360894367 215.60816821498193 39.178367606087825 L 215.60816821498193 39.178367606087825 Q 216.0339227062869 38.5493158796301 216.37851780841925 37.88617959112539 L 216.37851780841925 37.88617959112539 Q 213.9437361332418 36.86364272971608 211.29058591065842 36.25614359758571 L 211.29058591065842 36.25614359758571 L 222.35294186181252 29.151374026473732 L 225.12517688662322 43.53509517778291 Q 223.045972917085 41.648398295768736 220.78161405214246 40.22006448849651 Z" fill-opacity="1"/></g></g></g></g></svg>