<svg version="1.1" xmlns="http://www.w3.org/2000/svg" xmlns:xlink="http://www.w3.org/1999/xlink" width="500" height="500" viewBox="0 0 500 500"><defs/><g><g><g><g><path fill="rgb(244,244,245)" stroke="none" paint-order="stroke fill markers" d=" M 242.67578125 35.234375 L 232.91015625 35.234375 L 247.55859375 13.26171875 L 262.20703125 35.234375 L 252.44140625 35.234375 L 252.44140625 45 L 242.67578125 45 L 242.67578125 35.234375 Z" fill-opacity="1"/></g></g><g><g><path fill="rgb(244,244,245)" stroke="none" paint-order="stroke fill markers" d=" M 278.1249341006041 36.95797141461698 L 268.4924994970619 35.35060236890669 L 286.55773175522336 16.088678079502156 L 297.3898033076885 40.17270950603756 L 287.7573687041463 38.56534046032728 L 286.149999658436 48.197775063869486 L 276.5175650548938 46.59040601815919 L 278.1249341006041 36.95797141461698 Z M 284.14373326897805 45.38782415155636 L 285.75110231468835 35.75538954801415 L 292.97542826734497 36.96091633229687 L 285.75404723236824 20.90489538127326 L 273.71055906026055 33.74617824087628 L 280.9348850129172 34.951705025159 L 279.3275159672069 44.58413962870121 L 284.14373326897805 45.38782415155636 Z" fill-opacity="1"/></g></g><g><g><path fill="rgb(244,244,245)" stroke="none" paint-order="stroke fill markers" d=" M 312.80691206517497 44.492799009923154 L 303.5704155641922 41.321905755971166 L 324.55967013705833 25.296128509687936 L 331.27990506714053 50.83458551782713 L 322.0434085661578 47.66369226387514 L 318.8725153122058 56.9001887648579 L 309.636018811223 53.729295510905914 L 312.80691206517497 44.492799009923154 Z" fill-opacity="1"/></g></g><g><g><path fill="rgb(244,244,245)" stroke="none" paint-order="stroke fill markers" d=" M 345.7756811940083 57.63332733094813 L 337.18707034238247 52.98540357082046 L 360.5278150801085 40.63291479485376 L 362.95290289726006 66.92917485120347 L 354.3642920456342 62.2812510910758 L 349.7163682855065 70.86986194270168 L 341.1277574338807 66.221938182574 L 345.7756811940083 57.63332733094813 Z M 348.731196512632 67.56072828976329 L 353.3791202727596 58.97211743813742 L 359.82057841147906 62.45806025823317 L 358.2038532000447 44.92722022066669 L 342.6433567082273 53.162212737977825 L 349.0848148469467 56.648155558073576 L 344.43689108681906 65.23676640969944 L 348.731196512632 67.56072828976329 Z" fill-opacity="1"/></g></g><g><g><path fill="rgb(244,244,245)" stroke="none" paint-order="stroke fill markers" d=" M 376.1319394084363 76.02111701989513 L 368.42548912136215 70.02294599753509 L 393.4810493522835 61.6806893851583 L 391.5448399825846 88.01745906461521 L 383.8383896955105 82.01928804225517 L 377.84021867315045 89.72573832932933 L 370.13376838607627 83.72756730696929 L 376.1319394084363 76.02111701989513 Z" fill-opacity="1"/></g></g><g><g><path fill="rgb(244,244,245)" stroke="none" paint-order="stroke fill markers" d=" M 403.04764711722856 99.15459710743998 L 396.4335692693209 91.96979329227267 L 422.5204946253088 87.86532385723146 L 416.2758028130438 113.52420473777458 L 409.66172496513616 106.33940092260728 L 402.47692114996886 112.9534787705149 L 395.86284330206126 105.7686749553476 L 403.04764711722856 99.15459710743998 Z M 402.6196026417838 109.50375835474617 L 409.8044064569511 102.88968050683854 L 414.7649648428818 108.27828336821402 L 418.9280927177251 91.17236278118529 L 401.53680914706655 93.90867573787942 L 406.49736753299726 99.2972785992549 L 399.31256371782996 105.91135644716252 L 402.6196026417838 109.50375835474617 Z" fill-opacity="1"/></g></g><g><g><path fill="rgb(244,244,245)" stroke="none" paint-order="stroke fill markers" d=" M 425.7886139781026 126.40274656127627 L 420.4473233714383 118.22729267199377 L 446.8540305323204 118.47256964092279 L 436.47119519143126 142.7536543398413 L 431.12990458476696 134.57820045055877 L 422.95445069548447 139.9194910572231 L 417.6131600888201 131.7440371679406 L 425.7886139781026 126.40274656127627 Z" fill-opacity="1"/></g></g><g><g><path fill="rgb(244,244,245)" stroke="none" paint-order="stroke fill markers" d=" M 443.73452569637004 157.02230689492774 L 439.81171881499336 148.07920800181196 L 465.8179016465689 152.66754085838818 L 451.58013945912336 174.90850468115934 L 447.6573325777467 165.96540578804354 L 438.71423368463087 169.8882126694202 L 434.79142680325424 160.9451137763044 L 443.73452569637004 157.02230689492774 Z M 439.9693066875657 166.67173622579708 L 448.9124055806815 162.74892934442042 L 451.85451074171397 169.45625351425727 L 461.346352200011 154.6289442990765 L 444.00889697896065 151.5700557280257 L 446.95100213999314 158.27737989786255 L 438.00790324687733 162.20018677923917 L 439.9693066875657 166.67173622579708 Z" fill-opacity="1"/></g></g><g><g><path fill="rgb(244,244,245)" stroke="none" paint-order="stroke fill markers" d=" M 456.3958645818569 190.17805632172895 L 453.9985453714976 180.71125684966518 L 478.8948229991801 189.51748783445225 L 461.19050300257567 209.1116552658565 L 458.7931837922163 199.64485579379274 L 449.32638432015256 202.0421750041521 L 446.92906510979316 192.57537553208832 L 456.3958645818569 190.17805632172895 Z" fill-opacity="1"/></g></g><g><g><path fill="rgb(244,244,245)" stroke="none" paint-order="stroke fill markers" d=" M 463.4272623154144 224.96559242790494 L 462.62082339478616 215.23332198838665 L 485.7280902646446 228.0172400762505 L 465.0401401566709 244.43013330694146 L 464.23370123604263 234.69786286742317 L 454.5014307965244 235.50430178805144 L 453.6949918758961 225.77203134853318 L 463.4272623154144 224.96559242790494 Z M 456.7328886762469 232.8696244480148 L 466.4651591157651 232.06318552738657 L 467.0699883062363 239.36238835702525 L 480.86195504488546 228.42045953656464 L 465.45711046497985 219.89784747798873 L 466.061939655451 227.19705030762742 L 456.32966921593277 228.00348922825566 L 456.7328886762469 232.8696244480148 Z" fill-opacity="1"/></g></g><g><g><path fill="rgb(244,244,245)" stroke="none" paint-order="stroke fill markers" d=" M 464.63692069635675 260.43600191281763 L 465.443359616985 250.7037314732994 L 486.1313097249587 267.11662470399034 L 463.0240428551003 279.90054279185415 L 463.8304817757285 270.1682723523359 L 454.0982113362102 269.3618334317077 L 454.9046502568385 259.6295629921894 L 464.63692069635675 260.43600191281763 Z" fill-opacity="1"/></g></g><g><g><path fill="rgb(244,244,245)" stroke="none" paint-order="stroke fill markers" d=" M 459.991843397396 295.6217444701754 L 462.38916260775534 286.1549449981116 L 480.0934826043598 305.74911242951583 L 455.19720497667726 314.5553434143029 L 457.5945241870366 305.08854394223914 L 448.1277247149728 302.69122473187974 L 450.5250439253322 293.224425259816 L 459.991843397396 295.6217444701754 Z M 451.0937543855786 300.9238546664537 L 460.5605538576424 303.321173876813 L 458.7625644498729 310.42127348086086 L 475.36008286832794 304.5504528243361 L 463.5572028705916 291.4876745367333 L 461.7592134628221 298.58777414078116 L 452.2924139907583 296.19045493042177 L 451.0937543855786 300.9238546664537 Z" fill-opacity="1"/></g></g><g><g><path fill="rgb(244,244,245)" stroke="none" paint-order="stroke fill markers" d=" M 449.6187360184351 329.56304476539856 L 453.5415428998117 320.61994587228276 L 467.7793050872573 342.8609096950539 L 441.77312225568176 347.4492425516301 L 445.69592913705844 338.5061436585143 L 436.75283024394264 334.5833367771377 L 440.67563712531927 325.6402378840219 L 449.6187360184351 329.56304476539856 Z" fill-opacity="1"/></g></g><g><g><path fill="rgb(244,244,245)" stroke="none" paint-order="stroke fill markers" d=" M 433.8005498880991 361.3340726047999 L 439.1418404947634 353.1586187155174 L 449.5246758356526 377.4397034144359 L 423.11796867477045 377.6849803833649 L 428.4592592814348 369.5095264940824 L 420.28380539215226 364.1682358874181 L 425.6250959988166 355.99278199813557 L 433.8005498880991 361.3340726047999 Z M 423.662991516139 363.4596950667636 L 431.8384454054215 368.8009856734279 L 427.83247745042326 374.9325760903898 L 445.43694889101135 374.76905811110373 L 438.5150586637519 358.5816683118247 L 434.50909070875366 364.7132587287866 L 426.33363681947117 359.37196812212227 L 423.662991516139 363.4596950667636 Z" fill-opacity="1"/></g></g><g><g><path fill="rgb(244,244,245)" stroke="none" paint-order="stroke fill markers" d=" M 412.96876388909004 390.0681971698091 L 419.5828417369977 382.8833933546418 L 425.8275335492627 408.5422742351849 L 399.7406081932748 404.4378048001437 L 406.35468604118245 397.2530009849764 L 399.16988222601515 390.63892313706873 L 405.78396007392274 383.45411932190143 L 412.96876388909004 390.0681971698091 Z" fill-opacity="1"/></g></g><g><g><path fill="rgb(244,244,245)" stroke="none" paint-order="stroke fill markers" d=" M 387.69161483904753 414.9816264465648 L 395.3980651261217 408.98345542420475 L 397.3342744958206 435.32022510366164 L 372.27871426489924 426.97796849128486 L 379.9851645519734 420.9797974689248 L 373.98699352961336 413.2733471818507 L 381.69344381668753 407.2751761594906 L 387.69161483904753 414.9816264465648 Z M 377.41314885697193 413.7004169980292 L 383.4113198793319 421.4068672851034 L 377.63148216402635 425.9054955518734 L 394.3351889846405 431.46699996012455 L 393.04438273817465 413.9091535071533 L 387.264545022869 418.4077817739233 L 381.266374000509 410.7013314868492 L 377.41314885697193 413.7004169980292 Z" fill-opacity="1"/></g></g><g><g><path fill="rgb(244,244,245)" stroke="none" paint-order="stroke fill markers" d=" M 358.6585974714472 435.3947870288604 L 367.24720832307304 430.7468632687327 L 364.82212050592153 457.04312332508243 L 341.48137576819545 444.6906345491157 L 350.0699866198213 440.042710788988 L 345.42206285969365 431.4540999373622 L 354.0106737113195 426.8061761772345 L 358.6585974714472 435.3947870288604 Z" fill-opacity="1"/></g></g><g><g><path fill="rgb(244,244,245)" stroke="none" paint-order="stroke fill markers" d=" M 326.6616568166492 450.7508611091489 L 335.89815331763197 447.5799678551969 L 329.17791838754977 473.1184248633361 L 308.18866381468365 457.0926476170529 L 317.4251603156664 453.9217543631009 L 314.2542670617144 444.68525786211814 L 323.4907635626972 441.51436460816615 L 326.6616568166492 450.7508611091489 Z M 317.35611450044814 446.20165867387584 L 320.52700775440013 455.4381551748586 L 313.59963537866304 457.81632511532257 L 327.5924717605738 468.5001766128447 L 332.07262838062854 451.4745386074186 L 325.1452560048915 453.85270854788257 L 321.9743627509395 444.6162120468998 L 317.35611450044814 446.20165867387584 Z" fill-opacity="1"/></g></g><g><g><path fill="rgb(244,244,245)" stroke="none" paint-order="stroke fill markers" d=" M 292.57358600591743 460.63097501681756 L 302.20602060945964 459.02360597110726 L 291.3739490569945 483.1076373976427 L 273.308716798833 463.84571310823816 L 282.9411514023752 462.23834406252786 L 281.3337823566649 452.60590945898565 L 290.96621696020713 450.99854041327535 L 292.57358600591743 460.63097501681756 Z" fill-opacity="1"/></g></g><g><g><path fill="rgb(244,244,245)" stroke="none" paint-order="stroke fill markers" d=" M 257.32421875000006 464.765625 L 267.08984375 464.765625 L 252.44140625000003 486.73828125 L 237.79296875000003 464.765625 L 247.55859375000003 464.765625 L 247.55859375000003 455 L 257.32421875 455 L 257.32421875000006 464.765625 Z M 250.00000000000003 457.44140625 L 250.00000000000003 467.20703125 L 242.67578125000003 467.20703125 L 252.44140625000003 481.85546875 L 262.20703125000006 467.20703125 L 254.88281250000003 467.20703125 L 254.88281250000003 457.44140625 L 250.00000000000003 457.44140625 Z" fill-opacity="1"/></g></g><g><g><path fill="rgb(244,244,245)" stroke="none" paint-order="stroke fill markers" d=" M 221.87506589939593 463.042028585383 L 231.50750050293814 464.6493976310933 L 213.44226824477667 483.9113219204978 L 202.61019669231152 459.82729049396244 L 212.24263129585373 461.4346595396727 L 213.850000341564 451.8022249361305 L 223.48243494510623 453.40959398184077 L 221.87506589939593 463.042028585383 Z" fill-opacity="1"/></g></g><g><g><path fill="rgb(244,244,245)" stroke="none" paint-order="stroke fill markers" d=" M 187.19308793482497 455.50720099007685 L 196.42958443580775 458.67809424402884 L 175.44032986294164 474.7038714903121 L 168.72009493285947 449.1654144821729 L 177.95659143384222 452.33630773612487 L 181.1274846877942 443.0998112351421 L 190.36398118877696 446.2707044890941 L 187.19308793482497 455.50720099007685 Z M 182.6438854995519 446.20165867387584 L 179.47299224559993 455.4381551748586 L 172.54561986986283 453.05998523439456 L 177.02577648991763 470.08562323982073 L 191.01861287182837 459.40177174229854 L 184.0912404960913 457.02360180183456 L 187.2621337500433 447.7871053008518 L 182.6438854995519 446.20165867387584 Z" fill-opacity="1"/></g></g><g><g><path fill="rgb(244,244,245)" stroke="none" paint-order="stroke fill markers" d=" M 154.2243188059917 442.36667266905187 L 162.81292965761753 447.01459642917956 L 139.47218491989148 459.3670852051462 L 137.04709710273994 433.07082514879653 L 145.6357079543658 437.7187489089242 L 150.28363171449348 429.1301380572983 L 158.87224256611935 433.778061817426 L 154.2243188059917 442.36667266905187 Z" fill-opacity="1"/></g></g><g><g><path fill="rgb(244,244,245)" stroke="none" paint-order="stroke fill markers" d=" M 123.86806059156368 423.9788829801049 L 131.57451087863782 429.9770540024649 L 106.51895064771652 438.31931061484175 L 108.45516001741537 411.9825409353848 L 116.16161030448953 417.98071195774486 L 122.15978132684955 410.2742616706707 L 129.86623161392373 416.27243269303074 L 123.86806059156368 423.9788829801049 Z M 122.58685114302808 413.70041699802925 L 116.58868012066804 421.40686728510343 L 110.80884240536244 416.9082390183334 L 109.51803615889654 434.46608547130467 L 126.22174297951075 428.90458106305346 L 120.44190526420513 424.40595279628343 L 126.44007628656517 416.69950250920925 L 122.58685114302808 413.70041699802925 Z" fill-opacity="1"/></g></g><g><g><path fill="rgb(244,244,245)" stroke="none" paint-order="stroke fill markers" d=" M 96.9523528827715 400.8454028925601 L 103.56643073067914 408.0302067077274 L 77.47950537469127 412.1346761427687 L 83.72419718695625 386.4757952622255 L 90.33827503486387 393.6605990773928 L 97.52307885003117 387.0465212294852 L 104.1371566979388 394.2313250446525 L 96.9523528827715 400.8454028925601 Z" fill-opacity="1"/></g></g><g><g><path fill="rgb(244,244,245)" stroke="none" paint-order="stroke fill markers" d=" M 74.21138602189737 373.5972534387237 L 79.5526766285617 381.7727073280062 L 53.14596946767958 381.5274303590772 L 63.52880480856872 357.24634566015874 L 68.87009541523305 365.42179954944123 L 77.04554930451556 360.0805089427769 L 82.38683991117988 368.2559628320594 L 74.21138602189737 373.5972534387237 Z M 76.33700848386101 363.45969506676363 L 68.1615545945785 368.80098567342793 L 64.15558663958026 362.66939525646603 L 57.233696412320825 378.85678505574504 L 74.83816785290891 379.0203030350311 L 70.83219989791067 372.8887126180692 L 79.00765378719318 367.5474220114049 L 76.33700848386101 363.45969506676363 Z" fill-opacity="1"/></g></g><g><g><path fill="rgb(244,244,245)" stroke="none" paint-order="stroke fill markers" d=" M 56.265474303629944 342.9776931050723 L 60.1882811850066 351.9207919981881 L 34.18209835343108 347.33245914161193 L 48.41986054087663 325.09149531884077 L 52.342667422253285 334.0345942119566 L 61.28576631536908 330.1117873305799 L 65.20857319674575 339.0548862236957 L 56.265474303629944 342.9776931050723 Z" fill-opacity="1"/></g></g><g><g><path fill="rgb(244,244,245)" stroke="none" paint-order="stroke fill markers" d=" M 43.60413541814303 309.821943678271 L 46.0014546285024 319.28874315033477 L 21.10517700081986 310.4825121655477 L 38.8094969974243 290.88834473414346 L 41.20681620778367 300.3551442062072 L 50.67361567984744 297.9578249958479 L 53.07093489020681 307.42462446791166 L 43.60413541814303 309.821943678271 Z M 48.90624561442134 300.9238546664537 L 39.43944614235756 303.321173876813 L 37.64145673458804 296.2210742727652 L 25.838576736851746 309.283852560368 L 42.436095155306774 315.1546732168927 L 40.638105747537246 308.05457361284493 L 50.10490521960102 305.65725440248553 L 48.90624561442134 300.9238546664537 Z" fill-opacity="1"/></g></g><g><g><path fill="rgb(244,244,245)" stroke="none" paint-order="stroke fill markers" d=" M 36.57273768458561 275.0344075720952 L 37.379176605213864 284.7666780116134 L 14.271909735355404 271.9827599237496 L 34.95985984332911 255.56986669305866 L 35.766298763957366 265.3021371325769 L 45.498569203475625 264.49569821194865 L 46.30500812410387 274.22796865146694 L 36.57273768458561 275.0344075720952 Z" fill-opacity="1"/></g></g><g><g><path fill="rgb(244,244,245)" stroke="none" paint-order="stroke fill markers" d=" M 35.36307930364324 239.5639980871823 L 34.556640383014994 249.29626852670057 L 13.868690275041278 232.88337529600963 L 36.97595714489973 220.0994572081458 L 36.169518224271485 229.83172764766405 L 45.901788663789745 230.6381665682923 L 45.0953497431615 240.37043700781055 L 35.36307930364324 239.5639980871823 Z M 43.26711132375312 232.8696244480148 L 33.53484088423486 232.06318552738657 L 34.139670074706046 224.76398269774785 L 18.734825494800408 233.28659475632375 L 32.526792233449555 244.22852357678437 L 33.131621423920734 236.92932074714568 L 42.863891863438994 237.73575966777392 L 43.26711132375312 232.8696244480148 Z" fill-opacity="1"/></g></g><g><g><path fill="rgb(244,244,245)" stroke="none" paint-order="stroke fill markers" d=" M 40.008156602603954 204.3782555298247 L 37.61083739224459 213.84505500188848 L 19.906517395640144 194.25088757048425 L 44.80279502332268 185.44465658569717 L 42.40547581296332 194.91145605776094 L 51.872275285027094 197.30877526812029 L 49.47495607466773 206.77557474018408 L 40.008156602603954 204.3782555298247 Z" fill-opacity="1"/></g></g><g><g><path fill="rgb(244,244,245)" stroke="none" paint-order="stroke fill markers" d=" M 50.381263981564956 170.43695523460144 L 46.4584571001883 179.38005412771724 L 32.220694912742744 157.13909030494608 L 58.22687774431827 152.55075744836984 L 54.304070862941614 161.49385634148564 L 63.24716975605741 165.4166632228623 L 59.32436287468075 174.3597621159781 L 50.381263981564956 170.43695523460144 Z M 60.030693312434295 166.67173622579708 L 51.0875944193185 162.74892934442042 L 54.02969958035099 156.0416051745836 L 36.692244359300645 159.1004937456344 L 46.18408581759768 173.92780296081517 L 49.12619097863018 167.22047879097832 L 58.069289871745966 171.14328567235498 L 60.030693312434295 166.67173622579708 Z" fill-opacity="1"/></g></g><g><g><path fill="rgb(244,244,245)" stroke="none" paint-order="stroke fill markers" d=" M 66.19945011190086 138.6659273952001 L 60.858159505236536 146.8413812844826 L 50.475324164347384 122.56029658556412 L 76.8820313252295 122.31501961663507 L 71.54074071856517 130.49047350591758 L 79.71619460784768 135.8317641125819 L 74.37490400118337 144.0072180018644 L 66.19945011190086 138.6659273952001 Z" fill-opacity="1"/></g></g><g><g><path fill="rgb(244,244,245)" stroke="none" paint-order="stroke fill markers" d=" M 87.03123611090989 109.93180283019105 L 80.41715826300226 117.11660664535836 L 74.17246645073726 91.45772576481525 L 100.25939180672513 95.56219519985643 L 93.64531395881751 102.74699901502375 L 100.83011777398481 109.36107686293137 L 94.2160399260772 116.54588067809867 L 87.03123611090989 109.93180283019105 Z M 97.38039735821609 109.5037583547463 L 90.19559354304877 102.88968050683867 L 95.1561519289795 97.50107764546318 L 77.76486835832091 94.76476468876906 L 81.92799623316425 111.8706852757978 L 86.88855461909496 106.48208241442232 L 94.07335843426227 113.09616026232995 L 97.38039735821609 109.5037583547463 Z" fill-opacity="1"/></g></g><g><g><path fill="rgb(244,244,245)" stroke="none" paint-order="stroke fill markers" d=" M 112.3083851609524 85.01837355343525 L 104.60193487387825 91.0165445757953 L 102.66572550417939 64.67977489633839 L 127.72128573510071 73.02203150871517 L 120.01483544802656 79.02020253107521 L 126.0130064703866 86.72665281814936 L 118.30655618331244 92.7248238405094 L 112.3083851609524 85.01837355343525 Z" fill-opacity="1"/></g></g><g><g><path fill="rgb(244,244,245)" stroke="none" paint-order="stroke fill markers" d=" M 141.34140252855272 64.60521297113971 L 132.75279167692685 69.25313673126738 L 135.17787949407838 42.956876674917666 L 158.51862423180447 55.30936545088434 L 149.9300133801786 59.957289211012025 L 154.57793714030626 68.54590006263788 L 145.9893262886804 73.19382382276557 L 141.34140252855272 64.60521297113971 Z M 151.26880348736788 67.56072828976335 L 146.6208797272402 58.972117438137474 L 153.0623378659596 55.486174618041716 L 137.50184137414223 47.251182100730595 L 135.88511616270787 64.78202213829707 L 142.32657430142729 61.296079318201315 L 146.97449806155495 69.88469016982718 L 151.26880348736788 67.56072828976335 Z" fill-opacity="1"/></g></g><g><g><path fill="rgb(244,244,245)" stroke="none" paint-order="stroke fill markers" d=" M 173.3383431833508 49.249138890851135 L 164.10184668236803 52.42003214480312 L 170.82208161245018 26.88157513666393 L 191.8113361853163 42.90735238294716 L 182.57483968433354 46.07824563689915 L 185.74573293828553 55.31474213788191 L 176.50923643730277 58.485635391833895 L 173.3383431833508 49.249138890851135 Z" fill-opacity="1"/></g></g><g><g><path fill="rgb(244,244,245)" stroke="none" paint-order="stroke fill markers" d=" M 207.42641399408245 39.369024983182456 L 197.79397939054024 40.976394028892756 L 208.6260509430054 16.892362602357334 L 226.6912832011669 36.154286891761856 L 217.0588485976247 37.761655937472156 L 218.666217643335 47.394090541014364 L 209.03378303979275 49.001459586724664 L 207.42641399408245 39.369024983182456 Z M 215.85626673102186 45.38782415155639 L 214.24889768531156 35.75538954801418 L 221.4732236379682 34.549862763731454 L 209.42973546586055 21.708579904128438 L 202.2083544308838 37.764600855152054 L 209.43268038354046 36.55907407086933 L 211.04004942925073 46.19150867441154 L 215.85626673102186 45.38782415155639 Z" fill-opacity="1"/></g></g></g></g></svg>