<svg version="1.1" xmlns="http://www.w3.org/2000/svg" xmlns:xlink="http://www.w3.org/1999/xlink" width="500" height="500" viewBox="0 0 500 500"><defs/><g><g><g><g><path fill="rgb(125,211,252)" stroke="none" paint-order="stroke fill markers" d=" M 242.67578125 35.234375 L 232.91015625 35.234375 L 247.55859375 13.26171875 L 262.20703125 35.234375 L 252.44140625 35.234375 L 252.44140625 45 L 242.67578125 45 L 242.67578125 35.234375 Z M 250 42.55859375 L 250 32.79296875 L 257.32421875 32.79296875 L 247.55859375 18.14453125 L 237.79296875 32.79296875 L 245.1171875 32.79296875 L 245.1171875 42.55859375 L 250 42.55859375 Z" fill-opacity="1"/></g></g><g><g><path fill="rgb(125,211,252)" stroke="none" paint-order="stroke fill markers" d=" M 289.0152783626785 38.68098543618658 L 279.47796824832216 36.5816647310008 L 298.50740500652466 18.271698031477765 L 308.0898985913911 42.879626846558146 L 298.5525884770348 40.780306141372364 L 296.453267771849 50.31761625572868 L 286.9159576574927 48.2182955505429 L 289.0152783626785 38.68098543618658 Z M 294.5937704195564 47.40845855084316 L 296.6930911247422 37.87114843648684 L 303.8460737105094 39.445638965376176 L 297.45774465393174 23.040353088655923 L 284.77145348179675 35.24699755500461 L 291.924436067564 36.82148808389395 L 289.8251153623782 46.35879819825026 L 294.5937704195564 47.40845855084316 Z" fill-opacity="1"/></g></g><g><g><path fill="rgb(125,211,252)" stroke="none" paint-order="stroke fill markers" d=" M 333.53046442148553 52.00863812916127 L 324.66742321376137 47.90815862173682 L 347.18806391705266 34.11703516549407 L 351.2565468369339 60.20959714401019 L 342.39350562920976 56.10911763658574 L 338.29302612178526 64.97215884430992 L 329.4299849140611 60.871679336885464 L 333.53046442148553 52.00863812916127 Z M 337.10238569671037 61.73127866552276 L 341.2028652041348 52.86823745779857 L 347.85014610992795 55.943597088366914 L 345.13782416334044 38.54855576935617 L 330.12406369447956 47.742638073517995 L 336.7713446002727 50.81799770408634 L 332.67086509284826 59.68103891181053 L 337.10238569671037 61.73127866552276 Z" fill-opacity="1"/></g></g><g><g><path fill="rgb(125,211,252)" stroke="none" paint-order="stroke fill markers" d=" M 374.1398588013872 74.59414685162264 L 366.36551245660553 68.68424240637103 L 391.3243169755942 60.05681979848968 L 389.68855149095054 86.41395574212588 L 381.9142051461689 80.50405129687425 L 376.00430070091727 88.27839764165594 L 368.2299543561356 82.36849319640432 L 374.1398588013872 74.59414685162264 Z M 375.53819022603477 84.85733494414761 L 381.44809467128636 77.08298859936593 L 387.27885442987264 81.51541693330465 L 388.3693647529684 63.943992970880515 L 371.73016174030926 69.69560804280141 L 377.56092149889554 74.12803637674013 L 371.65101705364395 81.9023827215218 L 375.53819022603477 84.85733494414761 Z" fill-opacity="1"/></g></g><g><g><path fill="rgb(125,211,252)" stroke="none" paint-order="stroke fill markers" d=" M 408.9446113552794 105.38143831769844 L 402.62247966795684 97.93844949809261 L 428.85240204305376 94.87813643102564 L 421.5888747299245 120.26741595691009 L 415.26674304260195 112.82442713730426 L 407.8237542229961 119.1465588246268 L 401.50162253567356 111.70357000502096 L 408.9446113552794 105.38143831769844 Z M 408.1039685060669 115.7052786978947 L 415.54695732567274 109.38314701057217 L 420.28855609116465 114.96538862527653 L 425.13090763325084 98.0392022746869 L 407.6442927165196 100.07941098606489 L 412.3858914820115 105.66165260076926 L 404.9429026624057 111.98378428809178 L 408.1039685060669 115.7052786978947 Z" fill-opacity="1"/></g></g><g><g><path fill="rgb(125,211,252)" stroke="none" paint-order="stroke fill markers" d=" M 436.3172905364462 142.93093299605175 L 431.7429893577373 134.30288568700854 L 458.0175475711478 136.95277899847835 L 445.46589289386395 160.18702761413812 L 440.8915917151551 151.55898030509493 L 432.2635444061119 156.1332814838038 L 427.689243227403 147.50523417476063 L 436.3172905364462 142.93093299605175 Z M 433.2769809386955 152.8326943618658 L 441.90502824773864 148.25839318315693 L 445.33575413177033 154.72942866493932 L 453.70352391662624 139.2399295878328 L 436.18715177435257 137.47333404685293 L 439.6178776583842 143.94436952863532 L 430.98983034934105 148.5186707073442 L 433.2769809386955 152.8326943618658 Z" fill-opacity="1"/></g></g><g><g><path fill="rgb(125,211,252)" stroke="none" paint-order="stroke fill markers" d=" M 454.9779802889242 185.48685824878868 L 452.36539885797475 176.07719035309313 L 477.45602376971385 184.31338397700026 L 460.203143150823 204.30619404017975 L 457.59056171987356 194.89652614448423 L 448.18089382417804 197.50910757543363 L 445.5683123932286 188.0994396797381 L 454.9779802889242 185.48685824878868 Z M 449.8801654403646 194.5035452437724 L 459.2898333360601 191.89096381282297 L 461.2492694092722 198.94821473459461 L 472.7511898218661 185.61967469247497 L 456.0241065473733 180.12887894320355 L 457.9835426205854 187.18612986497521 L 448.5738747248899 189.79871129592462 L 449.8801654403646 194.5035452437724 Z" fill-opacity="1"/></g></g><g><g><path fill="rgb(125,211,252)" stroke="none" paint-order="stroke fill markers" d=" M 464.05412749975443 231.059346308605 L 463.52542722059997 221.30804343896511 L 486.2589090960214 234.7454221153274 L 465.1115280580634 250.56195204788477 L 464.5828277789089 240.8106491782449 L 454.83152490926904 241.33934945739935 L 454.30282463011457 231.58804658775946 L 464.05412749975443 231.059346308605 Z M 457.1371755568904 238.76934867020077 L 466.88847842653024 238.2406483910463 L 467.28500363589615 245.5541255432762 L 481.38325766120147 235.00977225490462 L 466.22760307758716 226.05151980399646 L 466.624128286953 233.36499695622635 L 456.87282541731315 233.89369723538084 L 457.1371755568904 238.76934867020077 Z" fill-opacity="1"/></g></g><g><g><path fill="rgb(125,211,252)" stroke="none" paint-order="stroke fill markers" d=" M 463.12134161277163 277.5174782840065 L 464.7012439228572 267.88050052481185 L 484.01459041591664 285.89074736129635 L 459.96153699260043 296.7914338023956 L 461.541439302686 287.15445604320104 L 451.90446154349144 285.57455373311547 L 453.484363853577 275.93757597392084 L 463.12134161277163 277.5174782840065 Z M 454.7086815608115 283.5602848708382 L 464.34565932000606 285.14018718092376 L 463.1607325874419 292.3679205003197 L 479.19610153631936 285.1007962062535 L 466.3205372076131 273.0939649819305 L 465.13561047504885 280.3216983013265 L 455.4986327158543 278.7417959912409 L 454.7086815608115 283.5602848708382 Z" fill-opacity="1"/></g></g><g><g><path fill="rgb(125,211,252)" stroke="none" paint-order="stroke fill markers" d=" M 452.22323865933413 322.68892355832816 L 455.8378690825755 313.6168852788673 L 470.8280095765004 335.3578611503516 L 444.9939778128514 340.83300011724987 L 448.6086082360928 331.760961837789 L 439.5365699566319 328.14633141454766 L 443.1512003798733 319.0742931350868 L 452.22323865933413 322.68892355832816 Z M 442.7082371323075 326.78197945049277 L 451.78027541176834 330.3966098737341 L 449.06930259433733 337.20063858332975 L 466.29199043676994 333.5505459387309 L 456.29856344082003 319.05656202440804 L 453.587590623389 325.8605907340037 L 444.51555234392816 322.24596031076237 L 442.7082371323075 326.78197945049277 Z" fill-opacity="1"/></g></g><g><g><path fill="rgb(125,211,252)" stroke="none" paint-order="stroke fill markers" d=" M 431.8694018211731 364.4615155549984 L 437.3497442563526 356.3786151823725 L 447.3157564419916 380.8337362204653 L 420.9087169508141 380.6273163002502 L 426.3890593859936 372.5444159276243 L 418.30615901336773 367.0640734924448 L 423.7865014485472 358.98117311981895 L 431.8694018211731 364.4615155549984 Z M 421.696969715319 366.4134340080832 L 429.7798700879449 371.8937764432627 L 425.6696132615603 377.95595172273215 L 443.27430625567865 378.09356500287555 L 436.63029813191935 361.7901509774804 L 432.5200413055347 367.85232625694977 L 424.4371409329088 362.37198382177024 L 421.696969715319 366.4134340080832 Z" fill-opacity="1"/></g></g><g><g><path fill="rgb(125,211,252)" stroke="none" paint-order="stroke fill markers" d=" M 403.0115538871761 400.8820142991546 L 410.10135361298796 394.16619927128914 L 414.57723783696747 420.19197119616393 L 388.83195443555246 414.3136443548855 L 395.9217541613643 407.59782932702007 L 389.2059391334988 400.50802960120825 L 396.29573885931063 393.79221457334273 L 403.0115538871761 400.8820142991546 Z M 392.6573428219182 400.6015257756948 L 399.37315784978364 407.69132550150664 L 394.05580805542473 412.7281867724057 L 411.21933032303474 416.647071333258 L 408.2354075070484 399.2965567166748 L 402.9180577126895 404.3334179875739 L 396.20224268482406 397.2436182617621 L 392.6573428219182 400.6015257756948 Z" fill-opacity="1"/></g></g><g><g><path fill="rgb(125,211,252)" stroke="none" paint-order="stroke fill markers" d=" M 366.9990557535425 430.2474377479966 L 375.3668016145541 425.2127321115023 L 374.14327050514896 451.59221875351994 L 350.26356403151925 440.31684902098533 L 358.63130989253085 435.282143384491 L 353.5966042560365 426.9143975234794 L 361.9643501170481 421.87969188698503 L 366.9990557535425 430.2474377479966 Z M 356.94721713041304 427.7476575796087 L 361.98192276690736 436.1154034406203 L 355.70611337114866 439.89143266799107 L 371.6259176869018 447.40834582301414 L 372.44160509317186 429.82202139500237 L 366.16579569741316 433.59805062237314 L 361.13109006091884 425.23030476136154 L 356.94721713041304 427.7476575796087 Z" fill-opacity="1"/></g></g><g><g><path fill="rgb(125,211,252)" stroke="none" paint-order="stroke fill markers" d=" M 325.51581180798405 451.1846913383809 L 334.77023730781616 448.06651233314676 L 327.90450181984494 473.5662382156201 L 307.00696080831995 457.4210493488493 L 316.261386308152 454.3028703436151 L 313.14320730291786 445.04844484378305 L 322.3976328027499 441.93026583854885 L 325.51581180798405 451.1846913383809 Z M 316.2363584291844 446.5825064674325 L 319.3545374344186 455.83693196726455 L 312.41371830954455 458.1755662211902 L 326.34541231722784 468.9390254657041 L 330.92256930920865 451.93920821072186 L 323.9817501843346 454.27784246464745 L 320.8635711791004 445.0234169648154 L 316.2363584291844 446.5825064674325 Z" fill-opacity="1"/></g></g><g><g><path fill="rgb(125,211,252)" stroke="none" paint-order="stroke fill markers" d=" M 280.5015324320811 462.714772362507 L 290.20991091991664 461.6589225732107 L 278.02300521408 485.0865488547852 L 261.08477545641 464.82647194109967 L 270.79315394424555 463.7706221518033 L 269.73730415494924 454.0622436639678 L 279.4456826427848 453.00639387467146 L 280.5015324320811 462.714772362507 Z M 272.4283612242322 456.2253758386026 L 273.4842110135285 465.93375432643813 L 266.20292714765185 466.7256416684104 L 277.49508031943185 480.2323596108674 L 285.61968412332294 464.6139420898178 L 278.33840025744627 465.40582943179 L 277.28255046814996 455.69745094395444 L 272.4283612242322 456.2253758386026 Z" fill-opacity="1"/></g></g><g><g><path fill="rgb(125,211,252)" stroke="none" paint-order="stroke fill markers" d=" M 234.06103529967228 464.29854704645146 L 243.76941378750783 465.3543968357478 L 226.83118402983783 485.61447374943333 L 214.64427832400122 462.18684746785885 L 224.35265681183674 463.24269725715516 L 225.40850660113307 453.5343187693196 L 235.1168850889686 454.59016855861597 L 234.06103529967228 464.29854704645146 Z M 227.57163877576787 456.2253758386026 L 226.51578898647156 465.93375432643813 L 219.23450512059492 465.14186698446593 L 227.35910892448598 480.76028450551553 L 238.65126209626598 467.25356656305854 L 231.36997823038934 466.4616792210863 L 232.42582801968564 456.75330073325074 L 227.57163877576787 456.2253758386026 Z" fill-opacity="1"/></g></g><g><g><path fill="rgb(125,211,252)" stroke="none" paint-order="stroke fill markers" d=" M 188.36582644176397 455.8619598462322 L 197.62025194159602 458.9801388514664 L 176.72271093007106 475.1253277182372 L 169.85697544209987 449.6256018357638 L 179.11140094193192 452.743780840998 L 182.2295799471661 443.48935534116595 L 191.48400544699817 446.60753434640014 L 188.36582644176397 455.8619598462322 Z M 183.76364157081557 446.5825064674325 L 180.6454625655814 455.83693196726455 L 173.70464344070734 453.49829771333896 L 178.28180043268813 470.4981149683212 L 192.21349444037145 459.7346557238073 L 185.27267531549742 457.39602146988165 L 188.3908543207316 448.1415959700496 L 183.76364157081557 446.5825064674325 Z" fill-opacity="1"/></g></g><g><g><path fill="rgb(125,211,252)" stroke="none" paint-order="stroke fill markers" d=" M 145.55256303797486 437.7994962027381 L 153.9203088989865 442.8342018392325 L 130.04060242535678 454.10957157176705 L 128.81707131595164 427.7300849297494 L 137.18481717696326 432.7647905662438 L 142.21952281345762 424.39704470523213 L 150.58726867446921 429.4317503417265 L 145.55256303797486 437.7994962027381 Z M 143.05278286958693 427.74765757960864 L 138.01807723309258 436.11540344062024 L 131.74226783733386 432.33937421324947 L 132.55795524360394 449.92569864126125 L 148.47775955935708 442.40878548623823 L 142.20195016359838 438.63275625886746 L 147.23665580009273 430.2650103978558 L 143.05278286958693 427.74765757960864 Z" fill-opacity="1"/></g></g><g><g><path fill="rgb(125,211,252)" stroke="none" paint-order="stroke fill markers" d=" M 107.62314570154159 410.95573684095274 L 114.71294542735342 417.6715518688182 L 88.96766202593838 423.5498787100966 L 93.44354624991794 397.5241067852218 L 100.53334597572977 404.2399218130873 L 107.24916100359523 397.1501220872754 L 114.33896072940705 403.8659371151409 L 107.62314570154159 410.95573684095274 Z M 107.34265717808182 400.60152577569477 L 100.62684215021636 407.6913255015066 L 95.30949235585749 402.65446423060746 L 92.32556953987113 420.00497884719067 L 109.48909180748115 416.0860942863384 L 104.17174201312227 411.0492330154393 L 110.88755704098773 403.9594332896275 L 107.34265717808182 400.60152577569477 Z" fill-opacity="1"/></g></g><g><g><path fill="rgb(125,211,252)" stroke="none" paint-order="stroke fill markers" d=" M 76.3511118315962 376.58586611393736 L 81.83145426677572 384.66876648656324 L 55.42441477559821 384.87518640677837 L 65.39042696123717 360.4200653686856 L 70.87076939641668 368.50296574131147 L 78.95366976904256 363.022623306132 L 84.43401220422209 371.10552367875783 L 76.3511118315962 376.58586611393736 Z M 78.30303028468097 366.4134340080833 L 70.22012991205509 371.8937764432628 L 66.10987308567044 365.83160116379344 L 59.465864961911144 382.1350151891886 L 77.07055795602949 381.9974019090452 L 72.96030112964485 375.93522662957577 L 81.04320150227073 370.45488419439624 L 78.30303028468097 366.4134340080833 Z" fill-opacity="1"/></g></g><g><g><path fill="rgb(125,211,252)" stroke="none" paint-order="stroke fill markers" d=" M 53.19870697552793 336.2969809775194 L 56.81333739876928 345.36901925698027 L 30.979305635120333 339.89388029008205 L 45.969446129045224 318.1529044185977 L 49.584076552286575 327.22494269805856 L 58.65611483174743 323.6103122748172 L 62.27074525498878 332.68235055427806 L 53.19870697552793 336.2969809775194 Z M 57.291762867692555 326.78197945049277 L 48.2197245882317 330.3966098737341 L 45.508751770800686 323.5925811641385 L 35.515324774850754 338.0865650784614 L 52.73801261728339 341.7366577230602 L 50.027039799852375 334.9326290134645 L 59.09907807931323 331.31799859022317 L 57.291762867692555 326.78197945049277 Z" fill-opacity="1"/></g></g><g><g><path fill="rgb(125,211,252)" stroke="none" paint-order="stroke fill markers" d=" M 39.24851185235674 291.9729449227983 L 40.82841416244234 301.60992268199294 L 16.77536073912612 290.70923624089363 L 36.088707232185556 272.69898940440913 L 37.668609542271156 282.33596716360375 L 47.30558730146574 280.7560648535181 L 48.885489611551336 290.39304261271275 L 39.24851185235674 291.9729449227983 Z M 45.291318439188494 283.5602848708382 L 35.6543406799939 285.14018718092376 L 34.46941394742971 277.91245386152787 L 21.593849618723418 289.91928508585085 L 37.629218567600894 297.18640937991705 L 36.4442918350367 289.9586760605211 L 46.081269594231294 288.37877375043547 L 45.291318439188494 283.5602848708382 Z" fill-opacity="1"/></g></g><g><g><path fill="rgb(125,211,252)" stroke="none" paint-order="stroke fill markers" d=" M 35.152822081513875 245.68630061306482 L 34.62412180235941 255.4376034827047 L 13.47674076440138 239.62107355014734 L 36.21022263982282 226.18369487378507 L 35.681522360668346 235.93499774342496 L 45.432825230308225 236.46369802257942 L 44.904124951153754 246.2150008922193 L 35.152822081513875 245.68630061306482 Z M 42.86282444310964 238.76934867020077 L 33.11152157346976 238.2406483910463 L 33.508046782835606 230.92717123881638 L 18.35239219922132 239.88542368972458 L 32.45064622452667 250.42977697809616 L 32.84717143389253 243.11629982586624 L 42.598474303532406 243.6450001050207 L 42.86282444310964 238.76934867020077 Z" fill-opacity="1"/></g></g><g><g><path fill="rgb(125,211,252)" stroke="none" paint-order="stroke fill markers" d=" M 41.1031475646517 199.60136009233193 L 38.49056613370227 209.01102798802745 L 21.237685514811453 189.01821792484796 L 46.328310426550544 180.78202430094086 L 43.715728995601125 190.19169219663638 L 53.12539689129666 192.80427362758581 L 50.512815460347234 202.21394152328133 L 41.1031475646517 199.60136009233193 Z M 50.119834559635414 194.50354524377235 L 40.71016666393988 191.89096381282292 L 42.66960273715195 184.83371289105128 L 25.942519462659224 190.32450864032268 L 37.4444398752531 203.65304868244235 L 39.40387594846517 196.59579776067068 L 48.813543844160705 199.2083791916201 L 50.119834559635414 194.50354524377235 Z" fill-opacity="1"/></g></g><g><g><path fill="rgb(125,211,252)" stroke="none" paint-order="stroke fill markers" d=" M 56.82125769549047 155.87300395961648 L 52.24695651678158 164.50105126865967 L 39.69530183949773 141.26680265299987 L 65.96986005290825 138.6169093415301 L 61.39555887419936 147.24495665057327 L 70.02360618324255 151.81925782928218 L 65.44930500453366 160.44730513832536 L 56.82125769549047 155.87300395961648 Z M 66.72301906130453 152.83269436186575 L 58.094971752261344 148.25839318315687 L 61.52569763629301 141.78735770137445 L 44.00932549401933 143.5539532423543 L 52.37709527887523 159.04345231946084 L 55.8078211629069 152.57241683767845 L 64.43586847195009 157.14671801638735 L 66.72301906130453 152.83269436186575 Z" fill-opacity="1"/></g></g><g><g><path fill="rgb(125,211,252)" stroke="none" paint-order="stroke fill markers" d=" M 81.57219111373685 116.54592154710711 L 75.25005942641431 123.98891036671293 L 67.98653211328502 98.5996308408285 L 94.21645448838193 101.65994390789547 L 87.89432280105939 109.10293272750128 L 95.33731162066522 115.42506441482382 L 89.01517993334268 122.86805323442965 L 81.57219111373685 116.54592154710711 Z M 91.89603149393312 115.70527869789464 L 84.4530426743273 109.3831470105721 L 89.19464143981921 103.80090539586774 L 71.70802652308794 101.76069668448976 L 76.55037806517413 118.68688303507939 L 81.29197683066603 113.10464142037502 L 88.73496565027186 119.42677310769756 L 91.89603149393312 115.70527869789464 Z" fill-opacity="1"/></g></g><g><g><path fill="rgb(125,211,252)" stroke="none" paint-order="stroke fill markers" d=" M 114.19862168144033 83.4590035195 L 106.42427533665864 89.36890796475161 L 104.78850985201504 63.01177202111542 L 129.74731437100368 71.63919462899679 L 121.972968026222 77.54909907424839 L 127.88287247147362 85.32344541903008 L 120.10852612669194 91.23334986428168 L 114.19862168144033 83.4590035195 Z M 124.4618097739653 84.85733494414755 L 118.55190532871369 77.08298859936588 L 124.38266508729994 72.65056026542717 L 107.74346207464085 66.89894519350626 L 108.83397239773659 84.47036915593038 L 114.66473215632284 80.03794082199168 L 120.57463660157445 87.81228716677336 L 124.4618097739653 84.85733494414755 Z" fill-opacity="1"/></g></g><g><g><path fill="rgb(125,211,252)" stroke="none" paint-order="stroke fill markers" d=" M 153.1749737669281 58.15935739029799 L 144.3119325592039 62.25983689772246 L 148.38041547908517 36.167274919206335 L 170.9010561823765 49.958398375449065 L 162.0380149746523 54.05887788287353 L 166.13849448207677 62.92191909059772 L 157.27545327435257 67.02239859802218 L 153.1749737669281 58.15935739029799 Z M 162.8976143032896 61.73127866552279 L 158.79713479586513 52.8682374577986 L 165.44441570165827 49.79287782723026 L 150.4306552327974 40.59879552306843 L 147.71833328620988 57.993836842079176 L 154.36561419200305 54.91847721151083 L 158.4660936994275 63.78151841923502 L 162.8976143032896 61.73127866552279 Z" fill-opacity="1"/></g></g><g><g><path fill="rgb(125,211,252)" stroke="none" paint-order="stroke fill markers" d=" M 196.678756465787 41.82996649396526 L 187.1414463514307 43.92928719915104 L 196.72393993629714 19.321358384070656 L 215.75337669449962 37.63132508359369 L 206.21606658014332 39.73064578877947 L 208.31538728532908 49.267955903135785 L 198.77807717097278 51.367276608321575 L 196.678756465787 41.82996649396526 Z M 205.40622958044358 47.40845855084316 L 203.3069088752578 37.87114843648684 L 210.45989146102502 36.2966579075975 L 197.77360028889004 24.090013441248814 L 191.3852712323124 40.49529931796907 L 198.53825381807962 38.92080878907973 L 200.6375745232654 48.458118903436045 L 205.40622958044358 47.40845855084316 Z" fill-opacity="1"/></g></g></g></g></svg>