<svg version="1.1" xmlns="http://www.w3.org/2000/svg" xmlns:xlink="http://www.w3.org/1999/xlink" width="500" height="500" viewBox="0 0 500 500"><defs/><g><g><g><g><path fill="rgb(125,211,252)" stroke="none" paint-order="stroke fill markers" d=" M 242.67578125 35.234375 L 232.91015625 35.234375 L 247.55859375 13.26171875 L 262.20703125 35.234375 L 252.44140625 35.234375 L 252.44140625 45 L 242.67578125 45 L 242.67578125 35.234375 Z M 250 42.55859375 L 250 32.79296875 L 257.32421875 32.79296875 L 247.55859375 18.14453125 L 237.79296875 32.79296875 L 245.1171875 32.79296875 L 245.1171875 42.55859375 L 250 42.55859375 Z" fill-opacity="1"/></g></g><g><g><path fill="rgb(125,211,252)" stroke="none" paint-order="stroke fill markers" d=" M 287.4881172257208 38.40472848192214 L 277.9358945623047 36.37434087627996 L 296.8326006701238 17.927421292057073 L 306.592562552553 42.4655036932065 L 297.0403398891369 40.435116087564325 L 295.0099522834947 49.98733875098039 L 285.4577296200786 47.95695114533821 L 287.4881172257208 38.40472848192214 Z" fill-opacity="1"/></g></g><g><g><path fill="rgb(125,211,252)" stroke="none" paint-order="stroke fill markers" d=" M 330.6620425907329 50.82281067594798 L 321.74070023094185 46.850773145910864 L 344.0597982132119 32.735809131436724 L 348.50472731031493 58.766885736022196 L 339.5833849505239 54.79484820598508 L 335.61134742048677 63.71619056577611 L 326.69000506069574 59.744153035739 L 330.6620425907329 50.82281067594798 Z M 334.3740212130483 60.492845593319075 L 338.3460587430854 51.57150323352805 L 345.0370655129287 54.55053138105588 L 342.0737794481933 37.19648031133224 L 327.1943807933466 46.606456320981664 L 333.8853875631899 49.5854844685095 L 329.91335003315277 58.50682682830052 L 334.3740212130483 60.492845593319075 Z" fill-opacity="1"/></g></g><g><g><path fill="rgb(125,211,252)" stroke="none" paint-order="stroke fill markers" d=" M 370.3106496351061 71.9458918016289 L 362.4100930494132 66.20580144721022 L 387.1761312253945 57.03968466102934 L 386.11176280649175 83.42607251046627 L 378.2112062207989 77.68598215604759 L 372.4711158663802 85.58653874174043 L 364.5705592806874 79.84644838732174 L 370.3106496351061 71.9458918016289 Z" fill-opacity="1"/></g></g><g><g><path fill="rgb(125,211,252)" stroke="none" paint-order="stroke fill markers" d=" M 404.70110397587604 100.85079185398382 L 398.1666253981528 93.59351816768115 L 424.29720905891867 89.77685189725791 L 417.7700611313225 115.36533922658919 L 411.2355825535993 108.1080655402865 L 403.97830886729656 114.64254411800972 L 397.4438302895734 107.38527043170706 L 404.70110397587604 100.85079185398382 Z M 404.15900764444143 111.19460605200325 L 411.41628133074414 104.66012747428003 L 416.31714026403654 110.10308273900704 L 420.6685722157673 93.04409118611952 L 403.24818310859007 95.58853536640169 L 408.1490420418825 101.03149063112869 L 400.8917683555798 107.56596920885191 L 404.15900764444143 111.19460605200325 Z" fill-opacity="1"/></g></g><g><g><path fill="rgb(125,211,252)" stroke="none" paint-order="stroke fill markers" d=" M 432.3303777346423 136.27422799962568 L 427.4475652346423 127.81694866579326 L 453.80066248576526 129.51653954154187 L 442.0960027346423 153.1887866672905 L 437.2131902346423 144.73150733345807 L 428.7559109008099 149.61431983345807 L 423.8730984008099 141.15704049962568 L 432.3303777346423 136.27422799962568 Z" fill-opacity="1"/></g></g><g><g><path fill="rgb(125,211,252)" stroke="none" paint-order="stroke fill markers" d=" M 451.9909390681817 176.6680260984843 L 448.97319498248885 167.38036480653943 L 474.39704901790407 174.5219325516478 L 458.0264272395674 195.243348682374 L 455.00868315387453 185.95568739042915 L 445.72102186192967 188.97343147612202 L 442.70327777623686 179.68577018417713 L 451.9909390681817 176.6680260984843 Z M 447.2885011634927 185.89708013171258 L 456.57616245543755 182.87933604601972 L 458.83947051970716 189.84508201497837 L 469.7532183719316 176.03080459449424 L 452.8039823483215 171.26975943108866 L 455.0672904125911 178.2355054000473 L 445.77962912064623 181.25324948574016 L 447.2885011634927 185.89708013171258 Z" fill-opacity="1"/></g></g><g><g><path fill="rgb(125,211,252)" stroke="none" paint-order="stroke fill markers" d=" M 462.8235271043782 220.26678334269096 L 461.80274133028 210.55465545823517 L 485.18620773145284 222.82607929319795 L 464.86509865257455 239.69103911160255 L 463.8443128784764 229.97891122714677 L 454.1321849940206 230.99969700124493 L 453.1113992199224 221.28756911678914 L 462.8235271043782 220.26678334269096 Z" fill-opacity="1"/></g></g><g><g><path fill="rgb(125,211,252)" stroke="none" paint-order="stroke fill markers" d=" M 464.35470576552547 265.16502483062527 L 465.3754915396236 255.4528969461695 L 485.6966006185019 272.31785676457406 L 462.3131342173291 284.5892805995369 L 463.3339199914273 274.8771527150811 L 453.6217921069715 273.8563669409829 L 454.64257788106966 264.1442390565271 L 464.35470576552547 265.16502483062527 Z M 456.30502052161 271.6835314133935 L 466.01714840606576 272.70431718749165 L 465.25155907549214 279.9884131008335 L 480.84053667627404 271.807463877525 L 467.2931306236885 260.56415733192193 L 466.5275412931149 267.8482532452638 L 456.8154134086591 266.8274674711656 L 456.30502052161 271.6835314133935 Z" fill-opacity="1"/></g></g><g><g><path fill="rgb(125,211,252)" stroke="none" paint-order="stroke fill markers" d=" M 456.51755519672093 309.4004819635984 L 459.5352992824138 300.11282067165354 L 475.9059210607505 320.83423680237973 L 450.48206702533525 327.9758045474881 L 453.4998111110281 318.68814325554325 L 444.21214981908327 315.67039916985044 L 447.2298939047761 306.3827378779056 L 456.51755519672093 309.4004819635984 Z" fill-opacity="1"/></g></g><g><g><path fill="rgb(125,211,252)" stroke="none" paint-order="stroke fill markers" d=" M 439.6545964846423 351.0398529996256 L 444.5374089846423 342.58257366579323 L 456.24206873576526 366.2548207915418 L 429.8889714846423 367.95441166729046 L 434.7717839846423 359.49713233345807 L 426.3145046508099 354.61431983345807 L 431.1973171508099 346.1570404996256 L 439.6545964846423 351.0398529996256 Z M 429.64952760926803 353.72070312499994 L 438.1068069431004 358.60351562499994 L 434.4446975681004 364.94647512537426 L 452.01342906884906 363.8134145415418 L 444.2103225681004 348.0319164577094 L 440.5482131931004 354.37487595808375 L 432.09093385926803 349.49206345808375 L 429.64952760926803 353.72070312499994 Z" fill-opacity="1"/></g></g><g><g><path fill="rgb(125,211,252)" stroke="none" paint-order="stroke fill markers" d=" M 414.502821842461 388.2632976165621 L 421.03730042018424 381.0060239302594 L 427.5644483477804 406.59451125959066 L 401.43386468701453 402.7778449891675 L 407.96834326473777 395.52057130286477 L 400.7110695784351 388.98609272514153 L 407.2455481561583 381.7288190388389 L 414.502821842461 388.2632976165621 Z" fill-opacity="1"/></g></g><g><g><path fill="rgb(125,211,252)" stroke="none" paint-order="stroke fill markers" d=" M 382.16148451364535 419.44397266674304 L 390.06204109933816 413.70388231232437 L 391.12640951824096 440.0902701617613 L 366.36037134225967 430.92415337558043 L 374.2609279279525 425.1840630211617 L 368.5208375735338 417.2835064354689 L 376.4213941592266 411.5434160810502 L 382.16148451364535 419.44397266674304 Z M 371.9309993085617 417.8236229932874 L 377.67108966298036 425.7241795789803 L 371.74567222371076 430.02924734479427 L 388.2563643410316 436.1399918689149 L 387.54678539509644 418.54906663595693 L 381.62136795582677 422.8541344017709 L 375.8812776014081 414.9535778160781 L 371.9309993085617 417.8236229932874 Z" fill-opacity="1"/></g></g><g><g><path fill="rgb(125,211,252)" stroke="none" paint-order="stroke fill markers" d=" M 344.04405613041945 443.21913302899634 L 352.9653984902105 439.24709549895925 L 348.5204693931075 465.2781721035447 L 326.2013714108374 451.16320808907057 L 335.1227137706284 447.1911705590335 L 331.15067624059134 438.26982819924245 L 340.07201860038236 434.2977906692053 L 344.04405613041945 443.21913302899634 Z" fill-opacity="1"/></g></g><g><g><path fill="rgb(125,211,252)" stroke="none" paint-order="stroke fill markers" d=" M 301.81645122084495 458.5496901096146 L 311.36867388426106 456.5193025039724 L 301.60871200183186 481.0573849051218 L 282.71200589401286 462.6104653208989 L 292.2642285574289 460.5800777152568 L 290.2338409517867 451.0278550518407 L 299.7860636152028 448.9974674461985 L 301.81645122084495 458.5496901096146 Z M 293.12949351905127 452.9083138162842 L 295.15988112469347 462.46053647970024 L 287.9957141271314 463.98332718393186 L 300.59351819901076 476.2812735734138 L 307.10015945396356 459.9225519726475 L 299.9359924564015 461.44534267687914 L 297.90560485075935 451.8931200134631 L 293.12949351905127 452.9083138162842 Z" fill-opacity="1"/></g></g><g><g><path fill="rgb(125,211,252)" stroke="none" paint-order="stroke fill markers" d=" M 257.32421875000006 464.765625 L 267.08984375 464.765625 L 252.44140625000003 486.73828125 L 237.79296875000003 464.765625 L 247.55859375000003 464.765625 L 247.55859375000003 455 L 257.32421875 455 L 257.32421875000006 464.765625 Z" fill-opacity="1"/></g></g><g><g><path fill="rgb(125,211,252)" stroke="none" paint-order="stroke fill markers" d=" M 212.5118827742793 461.5952715180779 L 222.06410543769533 463.62565912372 L 203.16739932987633 482.0725787079429 L 193.40743744744714 457.53449630679347 L 202.9596601108632 459.5648839124357 L 204.9900477165054 450.01266124901963 L 214.54227037992146 452.0430488546618 L 212.5118827742793 461.5952715180779 Z M 206.87050648094885 452.9083138162842 L 204.84011887530667 462.46053647970024 L 197.67595187774464 460.9377457754686 L 204.18259313269743 477.2964673762349 L 216.78039720457676 464.99852098675296 L 209.61623020701472 463.47573028252134 L 211.6466178126569 453.92350761910524 L 206.87050648094885 452.9083138162842 Z" fill-opacity="1"/></g></g><g><g><path fill="rgb(125,211,252)" stroke="none" paint-order="stroke fill markers" d=" M 169.3379574092672 449.1771893240521 L 178.25929976905823 453.1492268540892 L 155.94020178678818 467.26419086856333 L 151.49527268968515 441.2331142639779 L 160.41661504947618 445.20515179401497 L 164.3886525795133 436.28380943422394 L 173.30999493930432 440.2558469642611 L 169.3379574092672 449.1771893240521 Z" fill-opacity="1"/></g></g><g><g><path fill="rgb(125,211,252)" stroke="none" paint-order="stroke fill markers" d=" M 129.68935036489398 428.0541081983711 L 137.58990695058685 433.7941985527898 L 112.82386877460553 442.9603153389707 L 113.8882371935083 416.5739274895338 L 121.78879377920114 422.31401784395246 L 127.52888413361983 414.4134612582596 L 135.42944071931268 420.15355161267826 L 129.68935036489398 428.0541081983711 Z M 128.06900069143836 417.8236229932875 L 122.32891033701969 425.72417957898034 L 116.40349289775006 421.4191118131663 L 115.69391395181488 439.0100370461243 L 132.20460606913576 432.8992925220037 L 126.27918862986611 428.59422475618965 L 132.0192789842848 420.69366817049684 L 128.06900069143836 417.8236229932875 Z" fill-opacity="1"/></g></g><g><g><path fill="rgb(125,211,252)" stroke="none" paint-order="stroke fill markers" d=" M 95.29889602412396 399.14920814601624 L 101.8333746018472 406.4064818323189 L 75.70279094108133 410.22314810274213 L 82.22993886867751 384.63466077341087 L 88.76441744640073 391.8919344597136 L 96.02169113270341 385.35745588199035 L 102.55616971042664 392.614729568293 L 95.29889602412396 399.14920814601624 Z" fill-opacity="1"/></g></g><g><g><path fill="rgb(125,211,252)" stroke="none" paint-order="stroke fill markers" d=" M 67.66962226535772 363.72577200037443 L 72.55243476535772 372.1830513342068 L 46.1993375142348 370.48346045845824 L 57.90399726535771 346.8112133327096 L 62.78680976535771 355.268492666542 L 71.24408909919012 350.385680166542 L 76.12690159919012 358.84295950037443 L 67.66962226535772 363.72577200037443 Z M 70.35047239073202 353.7207031250001 L 61.89319305689961 358.6035156250001 L 58.231083681899605 352.2605561246258 L 50.42797718115101 368.04205420845824 L 67.99670868189962 369.17511479229063 L 64.33459930689962 362.8321552919163 L 72.79187864073202 357.9493427919163 L 70.35047239073202 353.7207031250001 Z" fill-opacity="1"/></g></g><g><g><path fill="rgb(125,211,252)" stroke="none" paint-order="stroke fill markers" d=" M 48.00906093181831 323.33197390151577 L 51.02680501751116 332.6196351934606 L 25.602950982095955 325.47806744835225 L 41.97357276043262 304.75665131762605 L 44.99131684612546 314.0443126095709 L 54.27897813807032 311.02656852387804 L 57.29672222376317 320.3142298158229 L 48.00906093181831 323.33197390151577 Z" fill-opacity="1"/></g></g><g><g><path fill="rgb(125,211,252)" stroke="none" paint-order="stroke fill markers" d=" M 37.17647289562181 279.7332166573092 L 38.19725866971999 289.44534454176494 L 14.813792268547179 277.17392070680216 L 35.13490134742543 260.30896088839756 L 36.15568712152362 270.0210887728534 L 45.867815005979416 269.00030299875516 L 46.8886007800776 278.71243088321097 L 37.17647289562181 279.7332166573092 Z M 43.69497947839002 271.68353141339367 L 33.98285159393422 272.7043171874919 L 33.21726226336058 265.42022127415004 L 19.669856210775077 276.6635278197531 L 35.258833811556954 284.8444770430616 L 34.493244480983314 277.56038112971976 L 44.2053723654391 276.53959535562154 L 43.69497947839002 271.68353141339367 Z" fill-opacity="1"/></g></g><g><g><path fill="rgb(125,211,252)" stroke="none" paint-order="stroke fill markers" d=" M 35.645294234474534 234.83497516937481 L 34.62450846037636 244.5471030538306 L 14.303399381498085 227.68214323542603 L 37.686865782670885 215.41071940046322 L 36.66608000857271 225.122847284919 L 46.37820789302851 226.1436330590172 L 45.35742211893033 235.85576094347297 L 35.645294234474534 234.83497516937481 Z" fill-opacity="1"/></g></g><g><g><path fill="rgb(125,211,252)" stroke="none" paint-order="stroke fill markers" d=" M 43.48244480327901 190.5995180364016 L 40.46470071758617 199.88717932834646 L 24.0940789392495 179.1657631976203 L 49.5179329746647 172.0241954525119 L 46.500188888971856 181.31185674445675 L 55.78785018091671 184.3296008301496 L 52.77010609522387 193.61726212209447 L 43.48244480327901 190.5995180364016 Z M 52.71149883650729 185.8970801317126 L 43.42383754456243 182.87933604601977 L 45.68714560883206 175.91359007706112 L 28.737909585221928 180.6746352404667 L 39.651657437446374 194.48891266095083 L 41.914965501716004 187.5231666919922 L 51.20262679366087 190.54091077768504 L 52.71149883650729 185.8970801317126 Z" fill-opacity="1"/></g></g><g><g><path fill="rgb(125,211,252)" stroke="none" paint-order="stroke fill markers" d=" M 60.3454035153576 148.96014700037446 L 55.4625910153576 157.41742633420688 L 43.75793126423467 133.74517920845827 L 70.11102851535759 132.04558833270963 L 65.22821601535759 140.50286766654204 L 73.68549534919 145.38568016654204 L 68.80268284919 153.84295950037446 L 60.3454035153576 148.96014700037446 Z" fill-opacity="1"/></g></g><g><g><path fill="rgb(125,211,252)" stroke="none" paint-order="stroke fill markers" d=" M 85.49717815753901 111.73670238343794 L 78.96269957981579 118.99397606974063 L 72.43555165221959 93.40548874040935 L 98.56613531298545 97.22215501083258 L 92.03165673526223 104.47942869713526 L 99.28893042156491 111.01390727485848 L 92.7544518438417 118.27118096116115 L 85.49717815753901 111.73670238343794 Z M 95.84099235555844 111.19460605200334 L 88.58371866925575 104.66012747428012 L 93.48457760254817 99.21717220955311 L 76.06418849537093 96.67272802927096 L 80.41562044710173 113.73171958215848 L 85.31647938039414 108.28876431743146 L 92.57375306669682 114.82324289515468 L 95.84099235555844 111.19460605200334 Z" fill-opacity="1"/></g></g><g><g><path fill="rgb(125,211,252)" stroke="none" paint-order="stroke fill markers" d=" M 117.83851548635464 80.55602733325696 L 109.9379589006618 86.29611768767565 L 108.87359048175902 59.90972983823871 L 133.63962865774033 69.07584662441958 L 125.73907207204748 74.81593697883827 L 131.47916242646616 82.71649356453112 L 123.57860584077332 88.4565839189498 L 117.83851548635464 80.55602733325696 Z" fill-opacity="1"/></g></g><g><g><path fill="rgb(125,211,252)" stroke="none" paint-order="stroke fill markers" d=" M 155.95594386958044 56.780866971003704 L 147.0346015097894 60.752904501040824 L 151.4795306068924 34.72182789645535 L 173.79862858916246 48.83679191092947 L 164.87728622937144 52.80882944096659 L 168.84932375940855 61.73017180075761 L 159.92798139961755 65.70220933079473 L 155.95594386958044 56.780866971003704 Z M 165.62597878695152 60.49284559331913 L 161.6539412569144 51.57150323352811 L 168.34494802675766 48.59247508600028 L 153.46554937191098 39.18249907635086 L 150.50226330717564 56.53655014607451 L 157.1932700770189 53.557521998546676 L 161.165307607056 62.478864358337695 L 165.62597878695152 60.49284559331913 Z" fill-opacity="1"/></g></g><g><g><path fill="rgb(125,211,252)" stroke="none" paint-order="stroke fill markers" d=" M 198.183548779155 41.45030989038541 L 188.63132611573891 43.4806974960276 L 198.3912879981681 18.942615094878168 L 217.28799410598714 37.38953467910105 L 207.73577144257106 39.41992228474323 L 209.76615904821324 48.972144948159304 L 200.21393638479717 51.00253255380149 L 198.183548779155 41.45030989038541 Z" fill-opacity="1"/></g></g></g></g></svg>