<svg version="1.1" xmlns="http://www.w3.org/2000/svg" xmlns:xlink="http://www.w3.org/1999/xlink" width="500" height="500" viewBox="0 0 500 500"><defs/><g><g><g><g><path fill="rgb(125,211,252)" stroke="none" paint-order="stroke fill markers" d=" M 243.675 26.15 L 234.775 35.95 L 265.975 26.15 L 234.775 17.4 Z" fill-opacity="1"/></g></g><g><g><path fill="rgb(125,211,252)" stroke="none" paint-order="stroke fill markers" d=" M 317.79169276801946 38.78612257560714 C 318.52707720820683 37.473983206054385 319.12878615899467 36.07739939598719 319.4997254386404 34.57243957897681 C 321.61766906758527 25.97960449475625 316.3499607649881 17.26575062641826 307.75712568076756 15.147806997473374 C 299.164290596547 13.029863368528488 290.450436728209 18.297571671125645 288.3324930992641 26.89040675534621 C 286.21454947031924 35.483241839566766 291.4822577729164 44.19709570790476 300.07509285713695 46.315039336849644 C 300.56056376585 46.434697168993424 300.99748758369174 46.542389217922825 301.4463771847478 46.60153417598092 L 300.5489434436695 50.24256599132862 L 306.4792051040662 46.65759784095 L 302.89423695368754 40.72733618055331 L 301.9369742965373 44.61110345025752 C 301.48808469548123 44.55195849219942 301.0391950944251 44.49281353414132 300.5537241857121 44.37315570199754 C 293.02892510066016 42.51845930376897 288.4196803358877 34.89383716897323 290.27437673411623 27.369038083921325 C 292.1290731323448 19.84423899886942 299.75369526714053 15.23499423409691 307.27849435219247 17.08969063232548 C 314.80329343724435 18.944387030554054 319.4125382020169 26.569009165349794 317.5578418037883 34.09380825040169 C 317.1749367409282 35.64731515828338 316.5127149160547 37.08048027600749 315.6802362941247 38.36868807913149 Z" fill-opacity="1"/></g></g><g><g><path fill="rgb(125,211,252)" stroke="none" paint-order="stroke fill markers" d=" M 353.161128370839 56.07886985102604 L 365.1512179712898 61.637669305329204 L 346.4903131252076 34.79031132869645 L 347.4406343228572 67.19354248889555 Z" fill-opacity="1"/></g></g><g><g><path fill="rgb(125,211,252)" stroke="none" paint-order="stroke fill markers" d=" M 389.5463507285862 95.27456253629654 C 383.78281796766873 90.16851806784243 383.2491424056043 81.34580927776807 388.38834300697044 75.54485097944203 C 393.5275436083366 69.74389268111601 402.42083406873155 69.20594771455508 408.2217923670576 74.34514831592124 C 408.59604774114314 74.67670964504164 408.8997214449081 75.01254037865854 409.20339514867305 75.34837111227546 L 406.5509045157099 78.34241410495987 L 413.4679082071282 77.92401246430137 L 413.0495065664697 71.00700877288307 L 410.5627965980667 73.8139240785247 C 410.25912289430175 73.47809334490779 409.92229305762476 73.17968814869944 409.5480376835392 72.84812681957904 C 402.92371756222497 66.979491294148 392.7599570360593 67.5942855416462 386.89132151062825 74.21860566296044 C 381.0226859851972 80.8429257842747 381.70379249851953 90.93183523562324 388.2575309495132 96.8047401655508 C 393.6093827989365 101.54606717197248 401.052615212451 100.4582752624565 405.7607860859606 95.14384895044168 C 410.5021130923823 89.79199710101831 410.0922502607168 83.01615675024121 404.7403984112934 78.27482974381952 C 404.440994112025 78.0095806805232 404.1790153501651 77.77748775013893 403.8838804553932 77.5828203571632 L 402.78972806929585 78.81786309164552 C 403.0848629640678 79.01253048462124 403.3799978588397 79.20719787759697 403.67940215810813 79.47244694089329 C 408.3575943341775 83.61696355489825 408.67025996548324 89.37150438827499 404.5257433514783 94.04969656434437 C 400.3812267374733 98.72788874041376 394.22454290465555 99.41907915030151 389.5463507285862 95.27456253629654 Z" fill-opacity="1"/></g></g><g><g><path fill="rgb(125,211,252)" stroke="none" paint-order="stroke fill markers" d=" M 446.43389347026806 111.92053738476747 C 450.8079920200979 118.25751315214862 449.2147475253323 126.95156698105369 442.83662256465647 131.35406876822015 C 436.4584976039806 135.75657055538662 427.69489134444433 134.15058010466285 423.2923895572779 127.77245514398702 C 423.00835718391227 127.36096321104019 422.79387724117794 126.9622172340515 422.5793972984436 126.56347125706279 L 425.87133276201826 124.29121227013816 L 419.0551945601567 123.04210858624191 L 417.8060908762604 129.8582467881035 L 420.89228037336164 127.72800398786165 C 421.106760316096 128.12674996485035 421.362389452125 128.4970927045025 421.64642182549056 128.90858463744934 C 426.6737948340613 136.1919918506082 436.6893448449599 138.0274095085782 443.9727520581188 133.00003650000747 C 451.2561592712776 127.97266349143673 453.0092785426583 118.0139199552112 448.0514579647188 110.74325869801046 C 443.98979502559104 104.85892405687082 436.50252377505643 104.13382460099074 430.65933832721146 108.16708430278194 C 424.7750036860718 112.2287472419097 423.5513919140918 118.90578058250881 427.6130548532196 124.79011522364846 C 427.840280751912 125.11930877000592 428.0391034132679 125.40735312306869 428.27907526791853 125.66699423879491 L 429.63699864664306 124.72968740668851 C 429.39702679199246 124.47004629096229 429.15705493734185 124.21040517523606 428.9298290386494 123.8812116288786 C 425.3794243715797 118.73756246704325 426.4529959974825 113.07541234857621 431.59664515931786 109.52500768150648 C 436.7402943211532 105.97460301443675 442.8834888031983 106.77688822293212 446.43389347026806 111.92053738476747 Z" fill-opacity="1"/></g></g><g><g><path fill="rgb(125,211,252)" stroke="none" paint-order="stroke fill markers" d=" M 452.0827525178198 159.05555674027366 C 453.26122362619236 158.07387153271927 454.604117336242 157.2437290849977 456.1001433245387 156.67636126572967 C 463.34651920535066 153.92817339115 471.4711323226367 157.58476493170016 474.21932019721635 164.8311408125121 C 476.96750807179603 172.07751669332407 473.3109165312459 180.20212981061016 466.0645406504339 182.95031768518982 C 458.81816476962194 185.69850555976947 450.6935516523359 182.04191401921935 447.9453637777562 174.79553813840738 C 447.768061334235 174.32803001706466 447.6552399472001 173.8895424635041 447.54241856016523 173.45105490994354 L 451.28248353090686 172.0326353617734 L 444.9633399952399 169.1886197191233 L 442.1193243525898 175.50776325479023 L 445.6256352626601 174.17799492838074 C 445.73845664969497 174.6164824819413 445.8980288488641 175.03723979114974 446.0753312923854 175.50474791249243 C 449.2135845427118 183.77964166025836 458.49885667675306 187.9586034208871 466.773750424519 184.82035017056066 C 475.0486441722849 181.68209692023422 479.22760593291366 172.39682478619295 476.0893526825872 164.12193103842705 C 472.9510994322608 155.84703729066112 463.66582729821954 151.6680755300324 455.3909335504536 154.80632878035883 C 453.9416583742912 155.35596635527477 452.6277852320237 156.12162774650992 451.41385363494686 157.00981132979578 Z" fill-opacity="1"/></g></g><g><g><path fill="rgb(125,211,252)" stroke="none" paint-order="stroke fill markers" d=" M 459.53626614584175 214.81163125890896 C 464.499810516332 214.20894785763235 469.06411728918084 217.78485385238756 469.6668006904575 222.74839822287782 C 470.02841073122346 225.72652484517198 468.8211878470736 228.64330610333738 466.73684295906935 230.5585101101864 L 462.3455498533863 227.16306538821252 L 463.5810508260033 237.33833134771757 L 473.9052231166231 236.0847498730622 L 470.40452645442275 233.38704290616252 C 473.18058226348836 230.53160701212587 474.7019337927015 226.46860448633774 474.1836260676036 222.19995632771608 C 473.2735741316759 214.70500432827578 466.4827762501203 209.38475394583512 458.98782425068003 210.2948058817628 Z" fill-opacity="1"/></g></g><g><g><path fill="rgb(125,211,252)" stroke="none" paint-order="stroke fill markers" d=" M 460.44925118736717 292.60247410276145 C 469.23472472313495 293.66922372302105 477.25009271447925 287.3895839273534 478.31684233473885 278.6041103915856 C 479.38359195499845 269.81863685581783 473.1039521593308 261.8032688644735 464.318478623563 260.7365192442139 C 463.822124186514 260.67625090408626 463.37540519316985 260.62200939797134 462.922659365813 260.6174033355614 L 463.3746719167704 256.8947450576937 L 457.91976870043885 261.16838880752306 L 462.1934124502683 266.6232920238546 L 462.67555917128954 262.6524565274624 C 463.12830499864646 262.65706258987234 463.5810508260033 262.66166865228234 464.07740526305236 262.72193699241 C 471.7708990373123 263.6560962643888 477.2655838585215 270.6695432568151 476.3314245865427 278.36303703107495 C 475.397265314564 286.0565308053349 468.3838183221377 291.5512156265441 460.69032454787776 290.61705635456536 Z" fill-opacity="1"/></g></g><g><g><path fill="rgb(125,211,252)" stroke="none" paint-order="stroke fill markers" d=" M 476.17851219812644 330.0028944466509 C 473.4303243235468 337.24927032746285 465.3057112062607 340.905861868013 458.0593353254487 338.1576739934334 C 450.81295944463676 335.4094861188537 447.15636790408666 327.28487300156763 449.9045557786663 320.03849712075566 C 450.0818582221876 319.5709889994129 450.28818123349095 319.1679619345566 450.49450424479437 318.7649348697003 L 454.23456921553606 320.1833544178705 L 451.39055357288595 313.8642108822035 L 445.071410037219 316.7082265248536 L 448.57772094728927 318.03799485126314 C 448.37139793598584 318.44102191611944 448.2118257368167 318.8617792253279 448.0345232932955 319.3292873466706 C 444.89627004296904 327.6041810944365 449.0752318035978 336.88945322847775 457.35012555136365 340.0277064788042 C 465.6250192991296 343.16595972913063 474.9102914331708 338.9869979685019 478.04854468349725 330.71210422073597 Z" fill-opacity="1"/></g></g><g><g><path fill="rgb(125,211,252)" stroke="none" paint-order="stroke fill markers" d=" M 446.56756631810026 390.9664388135674 C 451.594939326671 383.6830316004085 449.75952166870104 373.6674815895099 442.47611445554213 368.64010858093917 C 435.1927072423833 363.6127355723684 425.17715723148467 365.44815323033845 420.1497842229139 372.7315604434973 C 419.86575184954836 373.14305237644413 419.61012271351933 373.51339511609626 419.395642770785 373.912141093085 L 416.30945327368374 371.78189829284315 L 417.55855695758004 378.59803649470473 L 424.3746951594416 377.3489328108085 L 421.08275969586697 375.0766738238839 C 421.2972396386013 374.67792784689516 421.5117195813356 374.27918186990644 421.79575195470125 373.8676899369596 C 426.1982537418677 367.48956497628376 434.96186000140403 365.88357452556005 441.3399849620798 370.2860763127265 C 447.7181099227557 374.68857809989294 449.32410037347944 383.4521843594293 444.921598586313 389.8303093201051 Z" fill-opacity="1"/></g></g><g><g><path fill="rgb(125,211,252)" stroke="none" paint-order="stroke fill markers" d=" M 389.69605287822054 404.5928129320552 C 394.37424505428993 400.44829631805027 400.5309288871076 401.13948672793805 404.6754455011126 405.8176789040074 C 408.81996211511756 410.49587108007677 408.5072964838119 416.25041191345355 403.8291043077425 420.3949285274585 C 403.52970000847404 420.6601775907548 403.23456511370216 420.8548449837305 402.9394302189302 421.0495123767063 L 404.0335826050275 422.2845551111886 C 404.32871749979944 422.0898877182128 404.59069626165933 421.8577947878286 404.8901005609278 421.5925457245323 C 410.24195241035113 416.85121871811054 410.6518152420166 410.0753783673335 405.9104882355949 404.7235265179101 C 401.2023173620853 399.4091002058953 393.7590849485709 398.3213082963793 388.4072330991475 403.06263530280097 C 381.85349464815386 408.93554023272856 381.1723881348316 419.02444968407707 387.0410236602626 425.64876980539134 C 392.90965918569367 432.27308992670555 403.0734197118593 432.8878841742038 409.69773983317356 427.01924864877276 C 410.0719952072591 426.68768731965235 410.4088250439361 426.389282123444 410.71249874770103 426.05345138982705 L 413.199208716104 428.8603666954687 L 413.61761035676255 421.9433630040504 L 406.70060666534425 421.5249613633919 L 409.35309729830743 424.5190043560763 C 409.0494235945425 424.8548350896932 408.7457498907775 425.19066582331016 408.37149451669194 425.52222715243056 C 402.57053621836593 430.6614277537967 393.677245757971 430.1234827872358 388.5380451566048 424.3225244889097 C 383.39884455523867 418.5215661905837 383.93252011730306 409.6988574005094 389.69605287822054 404.5928129320552 Z" fill-opacity="1"/></g></g><g><g><path fill="rgb(125,211,252)" stroke="none" paint-order="stroke fill markers" d=" M 359.9419399602504 463.45772962761663 C 354.40783979991784 466.3622494528902 348.5954707020557 464.2177528988671 345.69095087678215 458.68365273853453 C 342.7864310515086 453.14955257820196 344.4671629500246 447.6370540262465 350.0012631103572 444.73253420097296 C 350.3554455206185 444.54664493215546 350.6885912881993 444.42826462322284 351.0217370557801 444.3098843142902 L 350.2549438219079 442.84888187196236 C 349.92179805432704 442.96726218089503 349.6118884453484 443.12991529111036 349.25770603508715 443.31580455992787 C 342.9266954516667 446.6385752400408 340.9071777543414 453.1194353889863 344.22994843445434 459.4504459724067 C 347.5294829559651 465.7371837545445 354.49610291963484 468.5746485176382 360.8271135030553 465.2518778375253 C 368.59589037020135 461.1180411222574 371.6716392333937 451.4852965014045 367.5588391608063 443.6490106743736 C 363.446039088219 435.8127248473427 353.72474886480074 432.7834483013547 345.88846303776984 436.89624837394206 C 345.44573502494325 437.12860995996397 345.0472798133993 437.33773538738365 344.67206076045755 437.591133616086 L 342.9293488652934 434.2706735198865 L 340.8677578826071 440.88655158860166 L 347.48363595132236 442.9481425712879 L 345.62474326314725 439.40631846867507 C 345.999962316089 439.15292023997273 346.37518136903077 438.8995220112704 346.81790938185736 438.6671604252485 C 353.68019358066977 435.06555584190926 362.1863225261607 437.71617281964876 365.78792710949995 444.57845701846117 C 369.3895316928391 451.4407412172735 366.7599513577801 459.87936120287964 359.9419399602504 463.45772962761663 Z" fill-opacity="1"/></g></g><g><g><path fill="rgb(125,211,252)" stroke="none" paint-order="stroke fill markers" d=" M 304.46243154873105 472.7386678931159 L 316.1075707716656 479.0347565581897 L 299.1256922351185 451.08666536451494 L 298.0966000584123 483.4740621307239 Z" fill-opacity="1"/></g></g><g><g><path fill="rgb(125,211,252)" stroke="none" paint-order="stroke fill markers" d=" M 248.67500000000004 485.4 L 264.57500000000005 457.15 L 235.57500000000002 472.25 L 248.77500000000003 472.9 Z" fill-opacity="1"/></g></g><g><g><path fill="rgb(125,211,252)" stroke="none" paint-order="stroke fill markers" d=" M 201.85789932353592 451.48358808463087 L 179.65925691033817 475.10757536474466 L 211.43023614643582 467.38650818595045 L 198.76935933819883 463.59642923602775 Z" fill-opacity="1"/></g></g><g><g><path fill="rgb(125,211,252)" stroke="none" paint-order="stroke fill markers" d=" M 147.63070698671717 448.00714247966073 L 159.620796587168 453.56594193396387 L 140.9598917410858 426.71858395733113 L 141.91021293873538 459.1218151175302 Z" fill-opacity="1"/></g></g><g><g><path fill="rgb(125,211,252)" stroke="none" paint-order="stroke fill markers" d=" M 119.56694775668852 420.4142365164764 C 114.42774715532236 426.21519481480243 105.53445669492741 426.7531397813634 99.73349839660138 421.6139391799972 C 93.93254009827535 416.47473857863105 93.39459513171441 407.5814481182361 98.53379573308058 401.7804898199101 C 98.86535706220097 401.4062344458245 99.20118779581789 401.10256074205955 99.5370185294348 400.7988870382946 L 102.5310615221192 403.4513776712578 L 102.1126598814607 396.53437397983953 L 95.19565619004241 396.952775620498 L 98.00257149568404 399.439485588901 C 97.66674076206712 399.74315929266595 97.36833556585877 400.07998912934295 97.03677423673837 400.45424450342847 C 91.16813871130734 407.07856462474274 91.78293295880555 417.2423251509084 98.40725308011979 423.11096067633946 C 105.03157320143404 428.97959620177045 115.19533372759969 428.36480195427225 121.06396925303073 421.74048183295804 Z" fill-opacity="1"/></g></g><g><g><path fill="rgb(125,211,252)" stroke="none" paint-order="stroke fill markers" d=" M 57.33784446803721 364.8498561199699 C 63.71596942871305 360.4473543328034 72.47957568824937 362.05334478352717 76.88207747541583 368.431469744203 C 81.28457926258228 374.80959470487886 79.67858881185853 383.57320096441515 73.3004638511827 387.97570275158165 C 72.88897191823587 388.2597351249472 72.49022594124716 388.47421506768154 72.09147996425845 388.68869501041587 L 69.81922097733383 385.3967595468413 L 68.57011729343758 392.21289774870286 L 75.38625549529917 393.4620014325991 L 73.25601269505734 390.3758119354979 C 73.65475867204603 390.1613319927635 74.02510141169817 389.90570285673454 74.436593344645 389.6216704833689 C 81.72000055780387 384.5942974747982 83.55541821577387 374.57874746389956 78.52804520720314 367.2953402507407 C 73.5006721986324 360.01193303758185 63.48512218773376 358.1765153796118 56.2017149745749 363.2038883881826 Z" fill-opacity="1"/></g></g><g><g><path fill="rgb(125,211,252)" stroke="none" paint-order="stroke fill markers" d=" M 46.869164310664 345.5129793125101 C 55.14405805842991 342.37472606218364 59.32301981905864 333.0894539281424 56.1847665687322 324.8145601803765 C 53.04651331840576 316.5396664326106 43.761241184364515 312.36070467198186 35.48634743659859 315.4989579223083 C 35.01883931525589 315.67626036582953 34.59808200604745 315.8358325649987 34.19505494119113 316.0421555763021 L 32.865286614781624 312.5358446662318 L 30.02127097213152 318.8549882018988 L 36.34041450779848 321.6990038445489 L 34.921994959628336 317.9589388738072 C 35.325022024484646 317.7526158625038 35.728049089340956 317.5462928512004 36.19555721068367 317.3689904076791 C 43.44193309149563 314.6208025330995 51.566546208781716 318.2773940736496 54.31473408336137 325.52376995446156 C 57.06292195794102 332.7701458352735 53.40633041739088 340.89475895255964 46.15995453657892 343.64294682713927 Z" fill-opacity="1"/></g></g><g><g><path fill="rgb(125,211,252)" stroke="none" paint-order="stroke fill markers" d=" M 46.10323456547473 280.1972108867389 C 45.036484945215115 271.4117373509711 37.021116953870795 265.13209755530346 28.23564341810302 266.19884717556306 C 19.45016988233524 267.2655967958227 13.170530086667583 275.280964787167 14.237279706927197 284.0664383229348 C 14.29754804705486 284.56279275998384 14.351789553169752 285.00951175332796 14.455666502989551 285.45020391265933 L 10.73300822512185 285.90221646361675 L 16.187911441453398 290.17586021344613 L 20.46155519128278 284.7209569971146 L 16.490719694890565 285.2031037181359 C 16.386842745070762 284.76241155880456 16.282965795250963 284.3217193994732 16.222697455123303 283.82536496242415 C 15.288538183144546 276.1318711881642 20.783223004353747 269.11842419573793 28.476716778613667 268.1842649237592 C 36.170210552873584 267.2501056517804 43.183657545299866 272.7447904729896 44.11781681727862 280.43828424724956 Z" fill-opacity="1"/></g></g><g><g><path fill="rgb(125,211,252)" stroke="none" paint-order="stroke fill markers" d=" M 26.78669420845173 214.20864989122697 C 31.750238578942003 214.81133329250358 35.326144573697206 219.37564006535243 34.72346117242059 224.3391844358427 C 34.361851131654625 227.31731105813685 32.491676506100504 229.86042860751076 30.0095605732537 231.22116388518532 L 26.558453573562144 226.8734793891944 L 25.32295260094509 237.04874534869944 L 35.64712489156485 238.30232682335478 L 32.89375564694748 234.84523877084655 C 36.27249485728976 232.7371302943929 38.721978824468856 229.15627448962604 39.24028654956674 224.8876263310044 C 40.15033848549442 217.3926743315641 34.830088103053754 210.60187645000852 27.33513610361345 209.69182451408082 Z" fill-opacity="1"/></g></g><g><g><path fill="rgb(125,211,252)" stroke="none" paint-order="stroke fill markers" d=" M 33.73557625918471 183.19536206929126 C 40.7949488914596 185.8726289664624 48.6616377828001 182.33211969704084 51.33890467997124 175.27274706476595 C 52.86370569425414 171.25217722121866 52.358902023997075 166.94315491279474 50.34686388927862 163.50633915624934 L 54.391440203569545 161.72479419810855 L 44.66727127964123 158.0369033728662 L 41.03257118745524 167.6208198603917 L 46.108844405528515 165.37494581773657 C 47.674283700084786 167.73331385836536 48.14839543688021 170.85424610066616 47.0845807757526 173.6592948287224 C 45.31155634053992 178.3343760421495 40.02410970865533 180.7140626002853 35.349028495228254 178.94103816507263 Z" fill-opacity="1"/></g></g><g><g><path fill="rgb(125,211,252)" stroke="none" paint-order="stroke fill markers" d=" M 84.85433381127143 124.85972045707648 L 54.206670661491735 114.33720918563392 L 74.3167327594085 140.12607116940382 L 72.55921087092028 127.00505303773869 Z" fill-opacity="1"/></g></g><g><g><path fill="rgb(125,211,252)" stroke="none" paint-order="stroke fill markers" d=" M 119.11384489554541 82.39195267836139 C 114.1072688258274 76.74069652966958 105.49630504671484 76.21982918109472 99.84504889802302 81.22640525081272 C 96.62645268088728 84.07783268124814 95.07093161691014 88.12787641181741 95.25533498702885 92.10606637674981 L 90.84611529423994 91.8039377605573 L 97.74259093994421 99.58844954153676 L 105.414826108698 92.7914422945686 L 99.87629969077956 92.42100320643186 C 99.58616031130805 89.60527609954102 100.61672474850533 86.62149712971362 102.86225699301863 84.63212915499123 C 106.60481073387415 81.31651586378726 112.39250770016292 81.6666070325015 115.7081209913669 85.409160773357 Z" fill-opacity="1"/></g></g><g><g><path fill="rgb(125,211,252)" stroke="none" paint-order="stroke fill markers" d=" M 156.0505501924293 36.61897575966424 L 132.49064994743216 58.866078951895425 L 164.67116503384125 53.044185035531285 L 152.23631931949873 48.502752215319376 Z" fill-opacity="1"/></g></g><g><g><path fill="rgb(125,211,252)" stroke="none" paint-order="stroke fill markers" d=" M 204.43397295077673 46.954531744859054 C 196.90917386572485 48.80922814308764 189.2845517309291 44.19998337831513 187.42985533270053 36.67518429326323 C 185.57515893447194 29.150385208211326 190.18440369924446 21.52576307341558 197.70920278429634 19.671066675187 C 198.19467369300938 19.55140884304322 198.64356329406547 19.49226388498512 199.09245289512157 19.433118926927023 L 200.0497155522718 23.31688619663123 L 203.63468370265042 17.386624536234535 L 197.70442204225373 13.801656385855921 L 198.60185578333207 17.442688201203616 C 198.15296618227597 17.501833159261714 197.71604236443426 17.609525208191116 197.23057145572122 17.729183040334895 C 188.63773637150067 19.847126669279792 183.3700280689035 28.560980537617784 185.48797169784842 37.15381562183835 C 187.6059153267933 45.7466507060589 196.3197691951313 51.01435900865605 204.91260427935185 48.89641537971116 Z" fill-opacity="1"/></g></g></g></g></svg>