<svg version="1.1" xmlns="http://www.w3.org/2000/svg" xmlns:xlink="http://www.w3.org/1999/xlink" width="500" height="500" viewBox="0 0 500 500"><defs/><g><g><g><g><path fill="rgb(245,158,11)" stroke="none" paint-order="stroke fill markers" d=" M 250.1 8.25 C 242.75 8.25 239.5 12.899999999999999 239.5 19.849999999999998 L 239.5 33.9 C 239.5 40.85 242.75 45.5 250.1 45.5 C 256.2 45.5 259.65 42.3 260.2 35.9 L 254.1 35.9 C 254.1 38.15 252.8 40 250.1 40 C 247.55 40 245.9 38.4 245.9 33.9 L 245.9 19.849999999999998 C 245.9 15.349999999999998 247.55 13.75 250.1 13.75 C 252.8 13.75 254.1 15.599999999999998 254.1 17.849999999999998 L 260.2 17.849999999999998 C 259.65 11.449999999999996 256.2 8.25 250.1 8.25 Z" fill-opacity="1"/></g></g><g><g><path fill="rgb(245,158,11)" stroke="none" paint-order="stroke fill markers" d=" M 282.8512376584485 42.58544847502106 C 280.4314012239904 42.202184035672495 279.0598323293248 40.31438140637413 279.75596569875387 35.91916829072577 L 281.9538699325691 22.042147105364084 C 282.65000330199814 17.646933989715723 284.5378059312965 16.275365095050127 286.95764236575457 16.658629534398692 C 289.37747880021266 17.041893973747257 290.74904769487824 18.929696603045617 290.05291432544925 23.324909718693977 L 287.85501009163397 37.201930904055665 C 287.158876722205 41.597144019704025 285.2710740929066 42.968712914369625 282.8512376584485 42.58544847502106 Z M 281.99084810072725 48.01773434829432 C 288.85528206786347 49.10495388032392 293.07335249290924 45.16631428150887 294.17621547144284 38.20311148031314 L 296.3741197052581 24.326090294951456 C 297.47698268379173 17.362887493755736 294.68246589061204 12.31356319315504 287.8180319234758 11.226343661125433 C 280.95359795633965 10.139124129095826 276.7355275312938 14.077763727910884 275.6326645527602 21.040966529106605 L 273.434760318945 34.917987714468296 C 272.33189734041133 41.88119051566402 275.126414133591 46.93051481626471 281.99084810072725 48.01773434829432 Z" fill-opacity="1"/></g></g><g><g><path fill="rgb(245,158,11)" stroke="none" paint-order="stroke fill markers" d=" M 334.06091505590757 23.647785387543692 L 328.59234008721046 21.870937669887745 L 322.4738035985865 40.701856692531784 L 322.07760295058864 19.754171258419355 L 315.0397847300045 17.467445500044747 L 303.8379186839127 51.94324421574406 L 309.3064936526098 53.720091933400006 L 315.8576539333587 33.55769378794275 L 317.01005143460054 56.22312958783708 L 322.85904900981575 58.123584103243005 Z" fill-opacity="1"/></g></g><g><g><path fill="rgb(245,158,11)" stroke="none" paint-order="stroke fill markers" d=" M 369.459930806866 40.1066701116522 L 349.5904853174654 29.9826819674603 L 346.8211432690541 35.41782176500935 L 353.9046451363517 39.02704623793875 L 340.2168315692043 65.89089294221804 L 345.9192733240099 68.79643214055113 L 359.6070868911572 41.93258543627185 L 366.69058875845474 45.54180990920124 Z" fill-opacity="1"/></g></g><g><g><path fill="rgb(245,158,11)" stroke="none" paint-order="stroke fill markers" d=" M 374.37925829295676 86.97288536413963 L 379.8805738547064 90.96982507972845 L 394.392046497559 56.705562914379826 L 389.17388688384057 52.914348037093376 L 361.1113795852076 77.33320722654307 L 366.2890883492073 81.0950328412149 L 370.3824366680137 77.33245399939315 L 376.65231837441956 81.88778970465982 Z M 384.6578058015079 64.40423540198067 L 379.2375987575391 76.28789458594042 L 374.94980868735183 73.17263274879032 Z" fill-opacity="1"/></g></g><g><g><path fill="rgb(245,158,11)" stroke="none" paint-order="stroke fill markers" d=" M 421.0137750299665 79.12764632627079 C 415.81654018824537 73.93041148454967 410.23039661687164 74.92036097821082 405.31600448762515 79.83475310745733 L 395.38115421195414 89.76960338312833 C 390.46676208270765 94.68399551237484 389.47681258904646 100.27013908374856 394.6740474307676 105.46737392546969 C 398.98739879600555 109.78072529070762 403.6896588908961 109.95750198600426 408.6040510201426 105.82092731606295 L 404.29069965490464 101.50757595082501 C 402.6997093972349 103.09856620849474 400.4723230364973 103.48747493814734 398.56313472729363 101.57828662894367 C 396.7600124352679 99.77516433691797 396.7246570962086 97.4770672980617 399.90663761154804 94.29508678272222 L 409.84148788721905 84.36023650705124 C 413.0234684025585 81.17825599171178 415.3215654414148 81.2136113307711 417.1246877334405 83.01673362279679 C 419.0338760426442 84.92592193200048 418.6449673129916 87.1533082927381 417.0539770553218 88.74429855040783 L 421.3673284205598 93.05764991564577 C 425.50390309050107 88.14325778639926 425.32712639520446 83.44099769150873 421.0137750299665 79.12764632627079 Z" fill-opacity="1"/></g></g><g><g><path fill="rgb(245,158,11)" stroke="none" paint-order="stroke fill markers" d=" M 451.72915545601717 117.2173473717215 L 438.621544329895 99.17626839716017 L 433.6865406642079 102.76175843614425 L 438.359433419933 109.1934435414251 L 413.96757103952837 126.91516889804315 L 417.7293966542002 132.0928776620428 L 442.12125903460486 114.37115230542476 L 446.79415179033003 120.80283741070559 Z" fill-opacity="1"/></g></g><g><g><path fill="rgb(245,158,11)" stroke="none" paint-order="stroke fill markers" d=" M 469.81302230765687 150.00856174664986 L 467.04368025924566 144.5734219491008 L 452.54848247300293 146.85250973541042 L 463.0712633865246 136.77711486245258 L 460.09762561323055 130.9410221290188 L 427.7986391114022 147.39817774457737 L 430.2501878099958 152.20961297519455 L 450.07508297318697 142.10832435598962 L 438.3369284121985 154.09365820625618 L 454.9327813204001 151.64209416480517 L 435.10788615720895 161.74338278401007 L 437.51403580582854 166.46571736220844 Z" fill-opacity="1"/></g></g><g><g><path fill="rgb(245,158,11)" stroke="none" paint-order="stroke fill markers" d=" M 453.62643778787515 193.56378526317877 L 449.9182338553758 182.15110706763693 L 458.7630594569207 179.27724901994992 L 462.16224639504514 189.7388706991966 L 467.7259270153718 187.93112128210316 L 464.3267400772474 177.46949960285647 L 472.7911430722742 174.71924835291944 L 476.4993470047736 186.13192654846128 L 482.30079175417404 184.2469228827741 L 476.614879057675 166.7474829829433 L 442.13908034197567 177.94934902903515 L 447.82499303847476 195.44878892886595 Z" fill-opacity="1"/></g></g><g><g><path fill="rgb(245,158,11)" stroke="none" paint-order="stroke fill markers" d=" M 474.4714947723407 222.24318940023835 L 472.0545822874691 206.98340453804346 L 466.7704496652851 207.8203289260087 L 469.1873621501567 223.0801137882036 Z" fill-opacity="1"/></g></g><g><g><path fill="rgb(245,158,11)" stroke="none" paint-order="stroke fill markers" d=" M 491.75 250.1 C 491.75 242.75 487.1 239.5 480.15 239.5 L 466.1 239.5 C 459.15 239.5 454.5 242.75 454.5 250.1 C 454.5 256.2 457.7 259.65 464.1 260.2 L 464.1 254.1 C 461.85 254.1 460 252.8 460 250.1 C 460 247.55 461.6 245.9 466.1 245.9 L 480.15 245.9 C 484.65 245.9 486.25 247.55 486.25 250.1 C 486.25 252.8 484.4 254.1 482.15 254.1 L 482.15 260.2 C 488.55 259.65 491.75 256.2 491.75 250.1 Z" fill-opacity="1"/></g></g><g><g><path fill="rgb(245,158,11)" stroke="none" paint-order="stroke fill markers" d=" M 457.41455152497895 282.85123765844844 C 457.7978159643275 280.43140122399035 459.68561859362586 279.05983232932476 464.0808317092742 279.7559656987538 L 477.9578528946359 281.95386993256903 C 482.3530660102843 282.6500033019981 483.7246349049499 284.5378059312964 483.3413704656013 286.9576423657545 C 482.9581060262527 289.3774788002126 481.0703033969544 290.7490476948782 476.67509028130604 290.0529143254492 L 462.79806909594436 287.8550100916339 C 458.40285598029595 287.1588767222049 457.03128708563037 285.27107409290653 457.41455152497895 282.85123765844844 Z M 451.9822656517057 281.9908481007272 C 450.89504611967607 288.8552820678634 454.83368571849115 293.0733524929092 461.79688851968683 294.1762154714428 L 475.6739097050486 296.37411970525807 C 482.63711250624425 297.4769826837917 487.68643680684494 294.682465890612 488.77365633887456 287.81803192347576 C 489.8608758709042 280.9535979563396 485.9222362720891 276.73552753129377 478.9590334708934 275.63266455276016 L 465.08201228553173 273.4347603189449 C 458.118809484336 272.3318973404113 453.0694851837353 275.12641413359097 451.9822656517057 281.9908481007272 Z" fill-opacity="1"/></g></g><g><g><path fill="rgb(245,158,11)" stroke="none" paint-order="stroke fill markers" d=" M 476.3522146124563 334.06091505590757 L 478.1290623301123 328.59234008721046 L 459.2981433074682 322.4738035985865 L 480.2458287415807 322.07760295058864 L 482.53255449995527 315.0397847300045 L 448.0567557842559 303.8379186839127 L 446.2799080666 309.3064936526098 L 466.44230621205725 315.8576539333587 L 443.7768704121629 317.01005143460054 L 441.876415896757 322.85904900981575 Z" fill-opacity="1"/></g></g><g><g><path fill="rgb(245,158,11)" stroke="none" paint-order="stroke fill markers" d=" M 459.8933298883478 369.45993080686594 L 470.0173180325397 349.5904853174653 L 464.5821782349907 346.82114326905406 L 460.97295376206125 353.90464513635163 L 434.109107057782 340.21683156920426 L 431.20356785944887 345.91927332400985 L 458.06741456372816 359.60708689115717 L 454.4581900907988 366.6905887584547 Z" fill-opacity="1"/></g></g><g><g><path fill="rgb(245,158,11)" stroke="none" paint-order="stroke fill markers" d=" M 413.0271146358604 374.3792582929567 L 409.0301749202716 379.88057385470637 L 443.2944370856202 394.3920464975589 L 447.08565196290664 389.1738868838405 L 422.66679277345696 361.11137958520754 L 418.90496715878515 366.28908834920725 L 422.6675460006069 370.38243666801367 L 418.1122102953402 376.6523183744195 Z M 435.59576459801934 384.65780580150783 L 423.7121054140596 379.237598757539 L 426.8273672512097 374.9498086873518 Z" fill-opacity="1"/></g></g><g><g><path fill="rgb(245,158,11)" stroke="none" paint-order="stroke fill markers" d=" M 420.87235367372926 421.0137750299665 C 426.0695885154504 415.81654018824537 425.0796390217892 410.23039661687164 420.1652468925427 405.31600448762515 L 410.2303966168717 395.38115421195414 C 405.3160044876252 390.46676208270765 399.7298609162515 389.47681258904646 394.53262607453036 394.6740474307676 C 390.2192747092924 398.98739879600555 390.0424980139958 403.6896588908961 394.1790726839371 408.6040510201426 L 398.492424049175 404.29069965490464 C 396.90143379150527 402.6997093972349 396.51252506185267 400.4723230364973 398.42171337105634 398.56313472729363 C 400.22483566308205 396.7600124352679 402.5229327019383 396.7246570962086 405.7049132172778 399.90663761154804 L 415.6397634929488 409.84148788721905 C 418.82174400828825 413.0234684025585 418.7863886692289 415.3215654414148 416.9832663772032 417.1246877334405 C 415.07407806799955 419.0338760426442 412.8466917072619 418.6449673129916 411.2557014495922 417.0539770553218 L 406.94235008435425 421.3673284205598 C 411.8567422136008 425.50390309050107 416.5590023084913 425.32712639520446 420.87235367372926 421.0137750299665 Z" fill-opacity="1"/></g></g><g><g><path fill="rgb(245,158,11)" stroke="none" paint-order="stroke fill markers" d=" M 382.7826526282785 451.7291554560171 L 400.8237316028398 438.62154432989496 L 397.23824156385575 433.6865406642078 L 390.8065564585749 438.35943341993294 L 373.08483110195687 413.9675710395283 L 367.90712233795716 417.7293966542001 L 385.62884769457526 442.1212590346048 L 379.1971625892944 446.79415179033 Z" fill-opacity="1"/></g></g><g><g><path fill="rgb(245,158,11)" stroke="none" paint-order="stroke fill markers" d=" M 349.99143825335017 469.81302230765687 L 355.4265780508992 467.04368025924566 L 353.1474902645896 452.54848247300293 L 363.2228851375474 463.0712633865246 L 369.0589778709812 460.09762561323055 L 352.60182225542263 427.7986391114022 L 347.79038702480545 430.2501878099958 L 357.8916756440104 450.07508297318697 L 345.9063417937438 438.3369284121985 L 348.35790583519486 454.9327813204001 L 338.25661721598993 435.10788615720895 L 333.5342826377916 437.51403580582854 Z" fill-opacity="1"/></g></g><g><g><path fill="rgb(245,158,11)" stroke="none" paint-order="stroke fill markers" d=" M 306.4362147368213 453.62643778787515 L 317.8488929323631 449.9182338553758 L 320.72275098005014 458.7630594569207 L 310.2611293008034 462.16224639504514 L 312.0688787178969 467.7259270153718 L 322.53050039714356 464.3267400772474 L 325.2807516470806 472.7911430722742 L 313.86807345153875 476.4993470047736 L 315.7530771172259 482.30079175417404 L 333.2525170170568 476.614879057675 L 322.0506509709649 442.13908034197567 L 304.5512110711341 447.82499303847476 Z" fill-opacity="1"/></g></g><g><g><path fill="rgb(245,158,11)" stroke="none" paint-order="stroke fill markers" d=" M 277.75681059976165 474.47149477234063 L 293.0165954619565 472.05458228746903 L 292.1796710739913 466.77044966528507 L 276.91988621179644 469.1873621501566 Z" fill-opacity="1"/></g></g><g><g><path fill="rgb(245,158,11)" stroke="none" paint-order="stroke fill markers" d=" M 249.90000000000003 491.75 C 257.25000000000006 491.75 260.50000000000006 487.1 260.50000000000006 480.15 L 260.50000000000006 466.1 C 260.5 459.15 257.25 454.5 249.90000000000003 454.5 C 243.80000000000004 454.5 240.35000000000002 457.7 239.80000000000004 464.1 L 245.90000000000003 464.1 C 245.90000000000003 461.85 247.20000000000002 460 249.90000000000003 460 C 252.45000000000002 460 254.10000000000002 461.6 254.10000000000002 466.1 L 254.10000000000002 480.15 C 254.10000000000002 484.65 252.45000000000005 486.25 249.90000000000003 486.25 C 247.20000000000005 486.25 245.90000000000003 484.4 245.90000000000003 482.15 L 239.80000000000004 482.15 C 240.35000000000002 488.55 243.80000000000004 491.75 249.90000000000003 491.75 Z" fill-opacity="1"/></g></g><g><g><path fill="rgb(245,158,11)" stroke="none" paint-order="stroke fill markers" d=" M 217.14876234155156 457.41455152497895 C 219.56859877600965 457.7978159643275 220.94016767067524 459.68561859362586 220.24403430124622 464.0808317092742 L 218.04613006743097 477.9578528946359 C 217.34999669800195 482.3530660102843 215.46219406870358 483.7246349049499 213.0423576342455 483.3413704656013 C 210.6225211997874 482.9581060262527 209.2509523051218 481.0703033969544 209.94708567455083 476.67509028130604 L 212.14498990836609 462.79806909594436 C 212.8411232777951 458.40285598029595 214.72892590709347 457.03128708563037 217.14876234155156 457.41455152497895 Z M 218.0091518992728 451.9822656517057 C 211.14471793213661 450.89504611967607 206.92664750709082 454.83368571849115 205.8237845285572 461.7968885196869 L 203.62588029474196 475.6739097050486 C 202.52301731620832 482.63711250624425 205.31753410938802 487.68643680684494 212.1819680765242 488.77365633887456 C 219.04640204366044 489.8608758709042 223.26447246870623 485.9222362720891 224.36733544723984 478.9590334708934 L 226.5652396810551 465.08201228553173 C 227.66810265958873 458.118809484336 224.87358586640903 453.0694851837353 218.0091518992728 451.9822656517057 Z" fill-opacity="1"/></g></g><g><g><path fill="rgb(245,158,11)" stroke="none" paint-order="stroke fill markers" d=" M 165.93908494409243 476.3522146124563 L 171.40765991278957 478.1290623301123 L 177.52619640141353 459.2981433074682 L 177.9223970494114 480.2458287415807 L 184.9602152699955 482.53255449995527 L 196.16208131608735 448.0567557842559 L 190.6935063473902 446.2799080666 L 184.14234606664132 466.44230621205725 L 182.98994856539946 443.7768704121629 L 177.14095099018428 441.876415896757 Z" fill-opacity="1"/></g></g><g><g><path fill="rgb(245,158,11)" stroke="none" paint-order="stroke fill markers" d=" M 130.54006919313406 459.8933298883478 L 150.40951468253468 470.0173180325397 L 153.1788567309459 464.5821782349907 L 146.0953548636484 460.97295376206125 L 159.7831684307957 434.109107057782 L 154.08072667599018 431.20356785944887 L 140.39291310884283 458.06741456372816 L 133.30941124154532 454.4581900907988 Z" fill-opacity="1"/></g></g><g><g><path fill="rgb(245,158,11)" stroke="none" paint-order="stroke fill markers" d=" M 125.6207417070433 413.0271146358604 L 120.11942614529364 409.0301749202716 L 105.60795350244106 443.2944370856202 L 110.82611311615948 447.08565196290664 L 138.88862041479243 422.66679277345696 L 133.71091165079278 418.90496715878515 L 129.61756333198636 422.6675460006069 L 123.3476816255805 418.1122102953402 Z M 115.3421941984922 435.59576459801934 L 120.76240124246098 423.7121054140596 L 125.05019131264821 426.8273672512097 Z" fill-opacity="1"/></g></g><g><g><path fill="rgb(245,158,11)" stroke="none" paint-order="stroke fill markers" d=" M 78.9862249700335 420.87235367372926 C 84.18345981175463 426.0695885154504 89.76960338312836 425.0796390217892 94.68399551237486 420.1652468925427 L 104.61884578804586 410.2303966168717 C 109.53323791729235 405.3160044876252 110.52318741095353 399.7298609162515 105.3259525692324 394.53262607453036 C 101.01260120399446 390.2192747092924 96.31034110910392 390.0424980139958 91.39594897985741 394.1790726839371 L 95.70930034509536 398.49242404917504 C 97.30029060276509 396.90143379150527 99.52767696350271 396.51252506185267 101.43686527270638 398.42171337105634 C 103.23998756473209 400.22483566308205 103.27534290379141 402.5229327019383 100.09336238845195 405.7049132172778 L 90.15851211278095 415.6397634929488 C 86.9765315974415 418.82174400828825 84.67843455858521 418.7863886692289 82.87531226655952 416.9832663772032 C 80.96612395735585 415.07407806799955 81.35503268700845 412.8466917072619 82.94602294467816 411.2557014495922 L 78.63267157944023 406.94235008435425 C 74.49609690949893 411.8567422136008 74.67287360479557 416.5590023084913 78.9862249700335 420.87235367372926 Z" fill-opacity="1"/></g></g><g><g><path fill="rgb(245,158,11)" stroke="none" paint-order="stroke fill markers" d=" M 48.27084454398287 382.7826526282785 L 61.378455670105026 400.8237316028398 L 66.3134593357922 397.23824156385575 L 61.64056658006704 390.8065564585749 L 86.0324289604717 373.08483110195687 L 82.27060334579987 367.90712233795716 L 57.87874096539521 385.62884769457526 L 53.205848209670044 379.1971625892944 Z" fill-opacity="1"/></g></g><g><g><path fill="rgb(245,158,11)" stroke="none" paint-order="stroke fill markers" d=" M 30.186977692343135 349.99143825335017 L 32.95631974075437 355.4265780508992 L 47.45151752699704 353.1474902645896 L 36.92873661347541 363.2228851375474 L 39.90237438676944 369.0589778709812 L 72.20136088859778 352.60182225542263 L 69.74981219000422 347.79038702480545 L 49.924917026813034 357.8916756440104 L 61.663071587801504 345.9063417937438 L 45.067218679599875 348.35790583519486 L 64.89211384279106 338.25661721598993 L 62.485964194171466 333.5342826377916 Z" fill-opacity="1"/></g></g><g><g><path fill="rgb(245,158,11)" stroke="none" paint-order="stroke fill markers" d=" M 46.37356221212483 306.4362147368213 L 50.0817661446242 317.8488929323631 L 41.23694054307927 320.72275098005014 L 37.83775360495485 310.2611293008034 L 32.274072984628205 312.0688787178969 L 35.67325992275263 322.53050039714356 L 27.20885692772576 325.2807516470806 L 23.500652995226385 313.86807345153875 L 17.699208245825957 315.7530771172259 L 23.38512094232499 333.2525170170568 L 57.8609196580243 322.0506509709649 L 52.17500696152527 304.5512110711341 Z" fill-opacity="1"/></g></g><g><g><path fill="rgb(245,158,11)" stroke="none" paint-order="stroke fill markers" d=" M 25.52850522765935 277.75681059976165 L 27.94541771253092 293.0165954619565 L 33.2295503347149 292.1796710739913 L 30.812637849843334 276.91988621179644 Z" fill-opacity="1"/></g></g><g><g><path fill="rgb(245,158,11)" stroke="none" paint-order="stroke fill markers" d=" M 8.25 249.90000000000003 C 8.25 257.25000000000006 12.899999999999999 260.50000000000006 19.85 260.50000000000006 L 33.9 260.50000000000006 C 40.85 260.5 45.5 257.25 45.5 249.90000000000003 C 45.5 243.80000000000004 42.3 240.35000000000002 35.9 239.80000000000004 L 35.9 245.90000000000003 C 38.15 245.90000000000003 40 247.20000000000002 40 249.90000000000003 C 40 252.45000000000002 38.4 254.10000000000002 33.9 254.10000000000002 L 19.849999999999998 254.10000000000002 C 15.349999999999998 254.10000000000002 13.75 252.45000000000005 13.75 249.90000000000003 C 13.75 247.20000000000005 15.599999999999998 245.90000000000003 17.849999999999998 245.90000000000003 L 17.849999999999994 239.80000000000004 C 11.449999999999996 240.35000000000002 8.25 243.80000000000004 8.25 249.90000000000003 Z" fill-opacity="1"/></g></g><g><g><path fill="rgb(245,158,11)" stroke="none" paint-order="stroke fill markers" d=" M 42.58544847502106 217.14876234155156 C 42.202184035672495 219.56859877600965 40.31438140637414 220.94016767067524 35.91916829072577 220.24403430124622 L 22.042147105364084 218.04613006743097 C 17.646933989715723 217.34999669800195 16.275365095050127 215.46219406870358 16.658629534398692 213.0423576342455 C 17.041893973747257 210.6225211997874 18.929696603045617 209.2509523051218 23.324909718693977 209.94708567455083 L 37.201930904055665 212.14498990836609 C 41.597144019704025 212.8411232777951 42.968712914369625 214.72892590709347 42.58544847502106 217.14876234155156 Z M 48.01773434829432 218.0091518992728 C 49.10495388032392 211.14471793213661 45.16631428150886 206.92664750709082 38.20311148031314 205.8237845285572 L 24.326090294951452 203.62588029474196 C 17.362887493755732 202.52301731620832 12.313563193155034 205.31753410938802 11.226343661125433 212.18196807652424 C 10.139124129095833 219.04640204366044 14.077763727910892 223.26447246870623 21.04096652910661 224.36733544723984 L 34.917987714468296 226.5652396810551 C 41.88119051566402 227.66810265958873 46.93051481626471 224.87358586640903 48.01773434829432 218.0091518992728 Z" fill-opacity="1"/></g></g><g><g><path fill="rgb(245,158,11)" stroke="none" paint-order="stroke fill markers" d=" M 23.647785387543657 165.93908494409243 L 21.87093766988771 171.40765991278957 L 40.70185669253175 177.52619640141353 L 19.75417125841932 177.9223970494114 L 17.46744550004471 184.9602152699955 L 51.94324421574403 196.16208131608735 L 53.72009193339998 190.6935063473902 L 33.55769378794272 184.14234606664132 L 56.22312958783705 182.98994856539946 L 58.123584103242976 177.14095099018428 Z" fill-opacity="1"/></g></g><g><g><path fill="rgb(245,158,11)" stroke="none" paint-order="stroke fill markers" d=" M 40.10667011165219 130.54006919313406 L 29.98268196746031 150.40951468253468 L 35.41782176500935 153.1788567309459 L 39.02704623793875 146.0953548636484 L 65.89089294221804 159.7831684307957 L 68.79643214055113 154.08072667599018 L 41.93258543627185 140.39291310884283 L 45.54180990920124 133.30941124154532 Z" fill-opacity="1"/></g></g><g><g><path fill="rgb(245,158,11)" stroke="none" paint-order="stroke fill markers" d=" M 86.97288536413963 125.6207417070433 L 90.96982507972845 120.11942614529364 L 56.705562914379826 105.60795350244106 L 52.914348037093376 110.82611311615948 L 77.33320722654307 138.88862041479243 L 81.0950328412149 133.71091165079278 L 77.33245399939315 129.61756333198636 L 81.88778970465982 123.3476816255805 Z M 64.40423540198066 115.3421941984922 L 76.28789458594042 120.76240124246098 L 73.17263274879032 125.05019131264821 Z" fill-opacity="1"/></g></g><g><g><path fill="rgb(245,158,11)" stroke="none" paint-order="stroke fill markers" d=" M 79.12764632627075 78.9862249700335 C 73.93041148454962 84.18345981175463 74.9203609782108 89.76960338312836 79.8347531074573 94.68399551237486 L 89.7696033831283 104.61884578804586 C 94.6839955123748 109.53323791729235 100.27013908374853 110.52318741095353 105.46737392546966 105.3259525692324 C 109.7807252907076 101.01260120399446 109.95750198600423 96.31034110910392 105.82092731606292 91.39594897985741 L 101.50757595082499 95.70930034509536 C 103.09856620849472 97.30029060276509 103.48747493814732 99.52767696350271 101.57828662894364 101.43686527270638 C 99.77516433691794 103.23998756473209 97.47706729806167 103.27534290379141 94.2950867827222 100.09336238845195 L 84.36023650705121 90.15851211278095 C 81.17825599171174 86.9765315974415 81.21361133077107 84.67843455858522 83.01673362279676 82.87531226655952 C 84.92592193200045 80.96612395735585 87.15330829273807 81.35503268700845 88.74429855040779 82.94602294467818 L 93.05764991564574 78.63267157944023 C 88.14325778639923 74.49609690949893 83.44099769150868 74.67287360479557 79.12764632627075 78.9862249700335 Z" fill-opacity="1"/></g></g><g><g><path fill="rgb(245,158,11)" stroke="none" paint-order="stroke fill markers" d=" M 117.21734737172146 48.27084454398287 L 99.17626839716013 61.378455670105026 L 102.76175843614422 66.3134593357922 L 109.19344354142505 61.64056658006704 L 126.91516889804312 86.0324289604717 L 132.09287766204278 82.27060334579987 L 114.37115230542472 57.87874096539521 L 120.80283741070555 53.205848209670044 Z" fill-opacity="1"/></g></g><g><g><path fill="rgb(245,158,11)" stroke="none" paint-order="stroke fill markers" d=" M 150.00856174664986 30.186977692343135 L 144.5734219491008 32.95631974075437 L 146.85250973541042 47.45151752699704 L 136.77711486245258 36.92873661347541 L 130.9410221290188 39.90237438676944 L 147.39817774457737 72.20136088859778 L 152.20961297519455 69.74981219000422 L 142.10832435598962 49.924917026813034 L 154.09365820625618 61.663071587801504 L 151.64209416480514 45.067218679599875 L 161.74338278401007 64.89211384279106 L 166.46571736220844 62.485964194171466 Z" fill-opacity="1"/></g></g><g><g><path fill="rgb(245,158,11)" stroke="none" paint-order="stroke fill markers" d=" M 193.56378526317872 46.37356221212483 L 182.15110706763687 50.0817661446242 L 179.27724901994986 41.23694054307927 L 189.73887069919655 37.83775360495485 L 187.9311212821031 32.274072984628205 L 177.46949960285642 35.67325992275263 L 174.71924835291938 27.20885692772576 L 186.13192654846122 23.500652995226385 L 184.24692288277404 17.69920824582595 L 166.7474829829432 23.385120942324992 L 177.9493490290351 57.8609196580243 L 195.4487889288659 52.17500696152526 Z" fill-opacity="1"/></g></g><g><g><path fill="rgb(245,158,11)" stroke="none" paint-order="stroke fill markers" d=" M 222.24318940023832 25.52850522765935 L 206.98340453804343 27.94541771253092 L 207.82032892600867 33.2295503347149 L 223.08011378820356 30.812637849843334 Z" fill-opacity="1"/></g></g></g></g></svg>