<svg version="1.1" xmlns="http://www.w3.org/2000/svg" xmlns:xlink="http://www.w3.org/1999/xlink" width="500" height="500" viewBox="0 0 500 500"><defs/><g><g><g><g><path fill="rgb(214,211,209)" stroke="none" paint-order="stroke fill markers" d=" M 247.55859375 32.79296875 L 230.46875 35.234375 L 247.55859375 18.14453125 L 264.6484375 35.234375 L 247.55859375 32.79296875 Z M 254.8828125 36.748046875 L 247.55859375 35.234375 L 240.234375 36.89453125 L 242.67578125 45 L 252.44140625 45 L 254.8828125 36.748046875 Z" fill-opacity="1"/></g></g><g><g><path fill="rgb(214,211,209)" stroke="none" paint-order="stroke fill markers" d=" M 306.25088342028886 40.188911152548755 L 289.13609391200856 37.92899877278467 L 310.20298456028434 26.083677451164977 L 322.04830588190407 47.15056809944077 L 306.25088342028886 40.188911152548755 Z M 312.236432963182 45.97337482192011 L 305.5921998969563 42.539783436112714 L 298.0916782503983 42.16232601893847 L 298.25572123649806 50.62590552370341 L 307.6592103707539 53.260639617033725 L 312.236432963182 45.97337482192011 Z" fill-opacity="1"/></g></g><g><g><path fill="rgb(214,211,209)" stroke="none" paint-order="stroke fill markers" d=" M 360.7713023979638 63.145582193048256 L 344.90089277428 56.35195854631597 L 368.38239541606094 50.6296729467618 L 374.1046810156151 74.1111755885427 L 360.7713023979638 63.145582193048256 Z M 364.97426190622076 70.33042419859419 L 359.5027868949476 65.23156706742934 L 352.38224172975333 62.84449027295988 L 350.2567551341206 71.03847555892125 L 358.60069463164496 76.11253757098602 L 364.97426190622076 70.33042419859419 Z" fill-opacity="1"/></g></g><g><g><path fill="rgb(214,211,209)" stroke="none" paint-order="stroke fill markers" d=" M 407.07632062177123 99.96039060020668 L 393.6273265621797 89.13690767362412 L 417.78192556725156 89.96205354133967 L 416.956779699536 114.11665254641156 L 407.07632062177123 99.96039060020668 Z M 409.18497581592504 108.01274407884092 L 405.2920531308578 101.62678011001785 L 399.07958270760327 97.40712250394927 L 394.82220414758194 104.72380316743573 L 401.4877621868266 111.86087313108929 L 409.18497581592504 108.01274407884092 Z" fill-opacity="1"/></g></g><g><g><path fill="rgb(214,211,209)" stroke="none" paint-order="stroke fill markers" d=" M 441.73170672141447 147.902950451007 L 431.701578590261 133.85233645909912 L 454.7378378503555 141.1637164998671 L 447.42645780958753 164.19997575996155 L 441.73170672141447 147.902950451007 Z M 441.58966829217036 156.2256091822853 L 439.5640181999243 149.02615610953032 L 434.720373029741 143.28687039285566 L 428.64685279691696 149.18360170064327 L 433.13967543101023 157.85435578660395 L 441.58966829217036 156.2256091822853 Z" fill-opacity="1"/></g></g><g><g><path fill="rgb(214,211,209)" stroke="none" paint-order="stroke fill markers" d=" M 462.1672292477253 203.41758140393293 L 456.2998557637146 187.1819061091975 L 476.5092813133843 200.43726871273225 L 463.2539187098496 220.64669426240192 L 462.1672292477253 203.41758140393293 Z M 459.7850315355977 211.39329186338665 L 459.7768872367821 203.91430018579973 L 456.66129832374037 197.08104292463963 L 449.22208162927586 201.12049129138052 L 451.20895675674296 210.68185933515318 L 459.7850315355977 211.39329186338665 Z" fill-opacity="1"/></g></g><g><g><path fill="rgb(214,211,209)" stroke="none" paint-order="stroke fill markers" d=" M 466.8672789812221 262.38701724374386 L 465.59781639421567 245.17040640951916 L 481.48156759241164 263.38666197076543 L 463.26531203116537 279.2704131689614 L 466.8672789812221 262.38701724374386 Z M 462.42159869269017 269.4242574730428 L 464.4315642126905 262.2204097892403 L 463.2751005335998 254.79997241458307 L 455.0219200475713 256.68255043416275 L 454.35549022955695 266.4254095082891 L 462.42159869269017 269.4242574730428 Z" fill-opacity="1"/></g></g><g><g><path fill="rgb(214,211,209)" stroke="none" paint-order="stroke fill markers" d=" M 455.4832747344683 320.4377646814196 L 458.9058732771394 303.5170955725262 L 469.28592496081825 325.3432277503305 L 447.45979278301394 335.7232794340093 L 455.4832747344683 320.4377646814196 Z M 449.3038276388984 326.0146147659886 L 453.18283303007667 319.6201875032678 L 454.0712642055458 312.1629099089496 L 445.6162205688137 311.7489953818772 L 442.34591185620644 320.9507621994438 L 449.3038276388984 326.0146147659886 Z" fill-opacity="1"/></g></g><g><g><path fill="rgb(214,211,209)" stroke="none" paint-order="stroke fill markers" d=" M 428.8595160240915 373.26446534400645 L 436.72033721987674 357.8946665813406 L 440.8268484412366 381.71193099998595 L 417.00958402259124 385.8184422213459 L 428.8595160240915 373.26446534400645 Z M 421.4046034434726 376.9673158254646 L 426.864960621234 371.8565544013432 L 429.7323957752806 364.91550875175966 L 421.7025608951304 362.2357998249752 L 416.0709171244774 370.2140214364053 L 421.4046034434726 376.9673158254646 Z" fill-opacity="1"/></g></g><g><g><path fill="rgb(214,211,209)" stroke="none" paint-order="stroke fill markers" d=" M 388.9705652380486 416.94920450943545 L 400.68660793972066 404.27018375507316 L 398.2150175475123 428.3121628693635 L 374.17303843322196 425.84057247715504 L 388.9705652380486 416.94920450943545 Z M 380.79308393452936 418.5034319069867 L 387.4298231864713 415.0553781161141 L 392.06359777136277 409.14535001392375 L 385.0545077668049 404.3985884396742 L 377.47920219351954 410.56155664598333 L 380.79308393452936 418.5034319069867 Z" fill-opacity="1"/></g></g><g><g><path fill="rgb(214,211,209)" stroke="none" paint-order="stroke fill markers" d=" M 338.7748033763327 448.25208491819063 L 353.47714229403766 439.2041871388226 L 344.6107568408773 461.6877973425869 L 322.127146637113 452.8214118894266 L 338.7748033763327 448.25208491819063 Z M 330.4812397287076 447.5424192958759 L 337.80214446557534 446.0127995141246 L 343.85859261845843 441.5721087070874 L 338.3900796306777 435.11034007634555 L 329.43293801441354 439.0009757193753 L 330.4812397287076 447.5424192958759 Z" fill-opacity="1"/></g></g><g><g><path fill="rgb(214,211,209)" stroke="none" paint-order="stroke fill markers" d=" M 281.9950204658965 464.85151513150396 L 298.5932503808332 460.10578151404775 L 283.9896491147673 479.36351629414554 L 264.73191433466957 464.75991502807966 L 281.9950204658965 464.85151513150396 Z M 274.20047014938064 461.9305891420261 L 281.6625823577514 462.43284827106373 L 288.6925250255335 459.7908404815289 L 285.1701636460514 452.0933046130124 L 275.4954962042903 453.42305704559294 L 274.20047014938064 461.9305891420261 Z" fill-opacity="1"/></g></g><g><g><path fill="rgb(214,211,209)" stroke="none" paint-order="stroke fill markers" d=" M 222.8423132549841 465.51639134779424 L 240.10541938621105 465.4247912443699 L 220.8476846061133 480.0283925104358 L 206.2440833400474 460.77065773033803 L 222.8423132549841 465.51639134779424 Z M 216.12486240885843 460.6008367094456 L 223.17475136312922 463.09772448735396 L 230.6568098579887 462.45034534668997 L 229.3418375165903 454.0879332618832 L 219.66717007482924 452.75818082930266 L 216.12486240885843 460.6008367094456 Z" fill-opacity="1"/></g></g><g><g><path fill="rgb(214,211,209)" stroke="none" paint-order="stroke fill markers" d=" M 165.70376743179946 450.1974027397055 L 182.35142417101923 454.7667297109415 L 159.8678139672549 463.6331151641018 L 151.00142851409456 441.14950496033754 L 165.70376743179946 450.1974027397055 Z M 160.56161865502835 443.6517836528463 L 166.67642634255688 447.9581173356395 L 174.05569061407007 449.35337999314686 L 175.04563279371868 440.94629354089017 L 166.0884911774545 437.05565789786044 L 160.56161865502835 443.6517836528463 Z" fill-opacity="1"/></g></g><g><g><path fill="rgb(214,211,209)" stroke="none" paint-order="stroke fill markers" d=" M 114.81708754859415 420.03068861259 L 129.6146143534208 428.9220565803096 L 105.57263523913048 431.393646972518 L 103.10104484692206 407.3516678582277 L 114.81708754859415 420.03068861259 Z M 111.63161049218533 412.3404637006776 L 116.35782960017143 418.13686221926866 L 123.08701337520799 421.471286426542 L 126.30845059312321 413.64304074913787 L 118.73314501983786 407.48007254282874 L 111.63161049218533 412.3404637006776 Z" fill-opacity="1"/></g></g><g><g><path fill="rgb(214,211,209)" stroke="none" paint-order="stroke fill markers" d=" M 73.95630586123502 377.25357614972154 L 85.8062378627353 389.8075530270609 L 61.988973444089886 385.70104180570104 L 66.0954846654498 361.8837773870556 L 73.95630586123502 377.25357614972154 Z M 72.96375278587448 368.9890942140345 L 75.95086126409255 375.8456652070583 L 81.53089176602542 380.87195197461983 L 86.74490476084915 374.2031322421203 L 81.11326099019615 366.2249106306902 L 72.96375278587448 368.9890942140345 Z" fill-opacity="1"/></g></g><g><g><path fill="rgb(214,211,209)" stroke="none" paint-order="stroke fill markers" d=" M 46.151879621835384 325.03864809020297 L 54.17536157328979 340.3241628427927 L 32.34922939548548 329.9441111591139 L 42.72928107916428 308.1179789813096 L 46.151879621835384 325.03864809020297 Z M 47.4258636484944 316.8128479484221 L 48.452321326227036 324.2210709120511 L 52.469353219668825 330.56644354408286 L 59.28924250009729 325.55164560822715 L 56.01893378749 316.34987879066057 L 47.4258636484944 316.8128479484221 Z" fill-opacity="1"/></g></g><g><g><path fill="rgb(214,211,209)" stroke="none" paint-order="stroke fill markers" d=" M 33.46593592778512 267.25844678080716 L 37.06790287784185 284.1418427060247 L 18.851647316595578 268.25809150782874 L 34.73539851479156 250.04183594658247 L 33.46593592778512 267.25844678080716 Z M 36.91197148929552 259.6813983989166 L 35.90165069631671 267.09183932630356 L 38.05775910242896 274.2856905628359 L 45.97772467945025 271.2968390453524 L 45.31129486143588 261.55397997122606 L 36.91197148929552 259.6813983989166 Z" fill-opacity="1"/></g></g><g><g><path fill="rgb(214,211,209)" stroke="none" paint-order="stroke fill markers" d=" M 36.83933318854115 208.19826542581947 L 35.75264372641685 225.42737828428844 L 22.497281122882118 205.21795273461876 L 42.70670667255178 191.96259013108403 L 36.83933318854115 208.19826542581947 Z M 42.20184359186943 201.83192381961413 L 39.22967519948432 208.69498420768625 L 39.36495142132533 216.20377901218515 L 47.79760567952344 215.4625433570397 L 49.784480806990565 205.90117531326703 L 42.20184359186943 201.83192381961413 Z" fill-opacity="1"/></g></g><g><g><path fill="rgb(214,211,209)" stroke="none" paint-order="stroke fill markers" d=" M 56.02188196153881 152.2383274939875 L 50.327130873365746 168.53535280294204 L 43.01575083259776 145.4990935428476 L 66.05201009269221 138.1877135020796 L 56.02188196153881 152.2383274939875 Z M 62.90315434192285 147.55485509632476 L 58.18957048302898 153.36153315251082 L 56.293981702072344 160.6283785647772 L 64.61391325194305 162.18973282958444 L 69.10673588603632 153.51897874362376 L 62.90315434192285 147.55485509632476 Z" fill-opacity="1"/></g></g><g><g><path fill="rgb(214,211,209)" stroke="none" paint-order="stroke fill markers" d=" M 89.59090035860633 103.52892558203357 L 79.71044128084156 117.68518752823847 L 78.885295413126 93.53058852316659 L 103.03989441819789 92.70544265545101 L 89.59090035860633 103.52892558203357 Z M 97.48058222331953 100.8756741151875 L 91.37516784951973 105.19531509184473 L 87.58930121390733 111.6812624312565 L 95.17945879355095 115.42940811291618 L 101.84501683279562 108.29233814926262 L 97.48058222331953 100.8756741151875 Z" fill-opacity="1"/></g></g><g><g><path fill="rgb(214,211,209)" stroke="none" paint-order="stroke fill markers" d=" M 135.05672785327405 65.68261319908065 L 121.72334923562272 76.64820659457509 L 127.44563483517689 53.166703952794194 L 150.9271374769578 58.888989552348356 L 135.05672785327405 65.68261319908065 Z M 143.3696775913035 65.2563621865294 L 136.32524335629026 67.76859807346172 L 130.92987927519803 72.99261429708945 L 137.22733561959288 78.64956857701841 L 145.57127511711718 73.57550656495364 L 143.3696775913035 65.2563621865294 Z" fill-opacity="1"/></g></g><g><g><path fill="rgb(214,211,209)" stroke="none" paint-order="stroke fill markers" d=" M 189.04737201258314 41.50627819921391 L 173.24994955096798 48.46793514610593 L 185.09527087258766 27.401044497830135 L 206.16216152086346 39.24636581944982 L 189.04737201258314 41.50627819921391 Z M 197.1670561710738 43.338640728589795 L 189.7060555359157 43.857150482777875 L 183.10134348108997 47.431794205599104 L 187.6390450621181 54.578006663698886 L 197.04253419637396 51.94327257036857 L 197.1670561710738 43.338640728589795 Z" fill-opacity="1"/></g></g></g></g></svg>