<svg version="1.1" xmlns="http://www.w3.org/2000/svg" xmlns:xlink="http://www.w3.org/1999/xlink" width="500" height="500" viewBox="0 0 500 500"><defs/><g><g><g><g><path fill="rgb(214,211,209)" stroke="none" paint-order="stroke fill markers" d=" M 247.55859375 42.55859375 L 230.46875 45 L 247.55859375 27.91015625 L 264.6484375 45 L 247.55859375 42.55859375 Z" fill-opacity="1"/></g></g><g><g><path fill="rgb(214,211,209)" stroke="none" paint-order="stroke fill markers" d=" M 303.6161493269586 49.592400286804605 L 286.5013598186782 47.332487907040516 L 307.56825046695405 35.48716658542083 L 319.41357178857373 56.55405723369662 L 303.6161493269586 49.592400286804605 Z" fill-opacity="1"/></g></g><g><g><path fill="rgb(214,211,209)" stroke="none" paint-order="stroke fill markers" d=" M 355.69724038589897 71.48952169057256 L 339.82683076221525 64.69589804384027 L 363.30833340399613 58.973612444286104 L 369.0306190035503 82.455115086067 L 355.69724038589897 71.48952169057256 Z" fill-opacity="1"/></g></g><g><g><path fill="rgb(214,211,209)" stroke="none" paint-order="stroke fill markers" d=" M 399.93925065811766 106.62594863945134 L 386.4902565985261 95.8024657128688 L 410.644855603598 96.62761158058434 L 409.81970973588244 120.78221058565623 L 399.93925065811766 106.62594863945134 Z" fill-opacity="1"/></g></g><g><g><path fill="rgb(214,211,209)" stroke="none" paint-order="stroke fill markers" d=" M 433.06095263545376 152.3957730851003 L 423.03082450430037 138.3451590931924 L 446.0670837643948 145.65653913396037 L 438.7557037236268 168.69279839405482 L 433.06095263545376 152.3957730851003 Z" fill-opacity="1"/></g></g><g><g><path fill="rgb(214,211,209)" stroke="none" paint-order="stroke fill markers" d=" M 452.6058612039526 205.40445653140006 L 446.73848771994193 189.16878123666464 L 466.9479132696116 202.42414384019938 L 453.6925506660769 222.63356938986905 L 452.6058612039526 205.40445653140006 Z" fill-opacity="1"/></g></g><g><g><path fill="rgb(214,211,209)" stroke="none" paint-order="stroke fill markers" d=" M 457.1244199070957 261.7205874257295 L 455.8549573200893 244.5039765915048 L 471.73870851828525 262.72023215275107 L 453.52245295703904 278.60398335094703 L 457.1244199070957 261.7205874257295 Z" fill-opacity="1"/></g></g><g><g><path fill="rgb(214,211,209)" stroke="none" paint-order="stroke fill markers" d=" M 446.2815079169017 317.1674559688123 L 449.7041064595728 300.2467868599189 L 460.0841581432516 322.07291903772324 L 438.2580259654473 332.45297072140204 L 446.2815079169017 317.1674559688123 Z" fill-opacity="1"/></g></g><g><g><path fill="rgb(214,211,209)" stroke="none" paint-order="stroke fill markers" d=" M 420.8812944126614 367.63282157335345 L 428.7421156084466 352.2630228106876 L 432.84862682980656 376.08028722933295 L 409.0313624111611 380.1867984506929 L 420.8812944126614 367.63282157335345 Z" fill-opacity="1"/></g></g><g><g><path fill="rgb(214,211,209)" stroke="none" paint-order="stroke fill markers" d=" M 382.8075970317395 409.3738989361501 L 394.5236397334115 396.69487818178783 L 392.05204934120314 420.73685729607814 L 368.01007022691283 418.2652669038697 L 382.8075970317395 409.3738989361501 Z" fill-opacity="1"/></g></g><g><g><path fill="rgb(214,211,209)" stroke="none" paint-order="stroke fill markers" d=" M 334.88416773330306 439.2949433019264 L 349.58650665100794 430.24704552255844 L 340.7201211978476 452.7306557263227 L 318.2365109940833 443.8642702731624 L 334.88416773330306 439.2949433019264 Z" fill-opacity="1"/></g></g><g><g><path fill="rgb(214,211,209)" stroke="none" paint-order="stroke fill markers" d=" M 280.66526803331595 455.17684768974294 L 297.2634979482527 450.43111407228673 L 282.6598966821868 469.68884885238447 L 263.402161902089 455.0852475863186 L 280.66526803331595 455.17684768974294 Z" fill-opacity="1"/></g></g><g><g><path fill="rgb(214,211,209)" stroke="none" paint-order="stroke fill markers" d=" M 224.17206568756464 455.84172390603317 L 241.4351718187916 455.75012380260887 L 222.17743703869382 470.35372506867475 L 207.57383577262794 451.095990288577 L 224.17206568756464 455.84172390603317 Z" fill-opacity="1"/></g></g><g><g><path fill="rgb(214,211,209)" stroke="none" paint-order="stroke fill markers" d=" M 169.59440307482916 441.24026112344137 L 186.24205981404893 445.8095880946773 L 163.7584496102846 454.67597354783766 L 154.89206415712425 432.1923633440733 L 169.59440307482916 441.24026112344137 Z" fill-opacity="1"/></g></g><g><g><path fill="rgb(214,211,209)" stroke="none" paint-order="stroke fill markers" d=" M 120.98005575490326 412.45538303930465 L 135.7775825597299 421.34675100702424 L 111.7356034454396 423.8183413992327 L 109.26401305323117 399.77636228494237 L 120.98005575490326 412.45538303930465 Z" fill-opacity="1"/></g></g><g><g><path fill="rgb(214,211,209)" stroke="none" paint-order="stroke fill markers" d=" M 81.93452747266512 371.62193237906854 L 93.7844594741654 384.1759092564079 L 69.96719505551998 380.06939803504804 L 74.0737062768799 356.2521336164026 L 81.93452747266512 371.62193237906854 Z" fill-opacity="1"/></g></g><g><g><path fill="rgb(214,211,209)" stroke="none" paint-order="stroke fill markers" d=" M 55.35364643940199 321.7683393775957 L 63.3771283908564 337.0538541301854 L 41.55099621305209 326.6738024465066 L 51.93104789673089 304.8476702687023 L 55.35364643940199 321.7683393775957 Z" fill-opacity="1"/></g></g><g><g><path fill="rgb(214,211,209)" stroke="none" paint-order="stroke fill markers" d=" M 43.208795001911476 266.5920169627928 L 46.81076195196821 283.47541288801034 L 28.594506390721936 267.5916616898144 L 44.47825758891792 249.37540612856807 L 43.208795001911476 266.5920169627928 Z" fill-opacity="1"/></g></g><g><g><path fill="rgb(214,211,209)" stroke="none" paint-order="stroke fill markers" d=" M 46.40070123231383 210.18514055328657 L 45.31401177018954 227.41425341175557 L 32.0586491666548 207.2048278620859 L 52.26807471632446 193.94946525855116 L 46.40070123231383 210.18514055328657 Z" fill-opacity="1"/></g></g><g><g><path fill="rgb(214,211,209)" stroke="none" paint-order="stroke fill markers" d=" M 64.6926360474995 156.73115012808077 L 58.99788495932645 173.02817543703532 L 51.686504918558455 149.99191617694086 L 74.72276417865291 142.6805361361729 L 64.6926360474995 156.73115012808077 Z" fill-opacity="1"/></g></g><g><g><path fill="rgb(214,211,209)" stroke="none" paint-order="stroke fill markers" d=" M 96.72797032225989 110.19448362127824 L 86.84751124449512 124.35074556748313 L 86.02236537677956 100.19614656241124 L 110.17696438185145 99.37100069469567 L 96.72797032225989 110.19448362127824 Z" fill-opacity="1"/></g></g><g><g><path fill="rgb(214,211,209)" stroke="none" paint-order="stroke fill markers" d=" M 140.13078986533884 74.02655269660495 L 126.7974112476875 84.99214609209939 L 132.51969684724168 61.5106434503185 L 156.00119948902255 67.23292904987267 L 140.13078986533884 74.02655269660495 Z" fill-opacity="1"/></g></g><g><g><path fill="rgb(214,211,209)" stroke="none" paint-order="stroke fill markers" d=" M 191.68210610591345 50.909767333469766 L 175.8846836442983 57.87142428036178 L 187.73000496591797 36.804533632085985 L 208.79689561419377 48.64985495370567 L 191.68210610591345 50.909767333469766 Z" fill-opacity="1"/></g></g></g></g></svg>