<svg version="1.1" xmlns="http://www.w3.org/2000/svg" xmlns:xlink="http://www.w3.org/1999/xlink" width="500" height="500" viewBox="0 0 500 500"><defs/><g><g><g><g><path fill="rgb(125,211,252)" stroke="none" paint-order="stroke fill markers" d=" M 255.35 26.875 L 252.3 26.875 L 250.025 33.85 L 247.925 26.875 L 244.65 26.875 L 244.65 45 L 247.35 45 L 247.35 33.875 L 250.025 41.825 L 252.7 33.875 L 252.7 45 L 255.35 45 Z" fill-opacity="1"/></g></g><g><g><path fill="rgb(125,211,252)" stroke="none" paint-order="stroke fill markers" d=" M 277.09252075017656 46.78396884251171 L 280.4677309221099 47.19379355537981 L 278.4830809805258 28.69469115528023 L 275.2815948615596 28.305960361456812 L 268.9523079825725 45.79556806441806 L 272.12897637968626 46.1812854412351 L 273.00342871413596 43.54244893345833 L 276.8501756012659 44.0095285694477 Z M 276.10008695188606 34.424227738588435 L 276.6191737345794 40.9342622171479 L 273.9884952182196 40.61484001447129 Z" fill-opacity="1"/></g></g><g><g><path fill="rgb(125,211,252)" stroke="none" paint-order="stroke fill markers" d=" M 307.06945601710953 39.97980974460765 C 307.9549239749735 36.38732502013126 306.7956039551525 34.1962118118186 303.59149595764654 33.406470119669656 L 298.5425985070311 32.16202866537436 L 294.2050020918191 49.76034910622155 L 299.25389954243457 51.00479056051685 C 302.4580075399405 51.79453225266579 304.4968126260183 50.417434281937716 305.3643319090607 46.897770193768274 Z M 302.29919833454767 45.96204524999853 C 301.9043274884732 47.56409924875152 301.05184831768025 48.3066652480837 299.7896239550264 47.99555488450988 L 298.0419286836595 47.564786688792275 L 300.91969954671737 35.889211334243996 L 302.6673948180843 36.3199795299616 C 303.92961918073814 36.631089893535425 304.3214156977775 37.75758689274839 303.8906475020599 39.505282164115286 Z" fill-opacity="1"/></g></g><g><g><path fill="rgb(125,211,252)" stroke="none" paint-order="stroke fill markers" d=" M 328.09999687161957 57.10991831187117 L 322.48989941550707 54.98228898961595 L 324.13881214025486 50.634463461128774 L 329.2814014750246 52.58479033986272 L 330.31862076962403 49.84986783000788 L 325.1760314348543 47.899540951273934 L 326.7540231821936 43.73871867132384 L 332.364120638306 45.866347993579055 L 333.44566554378576 43.01454845338854 L 324.84351611107996 39.75218349259721 L 318.416302533434 56.69935289127036 L 327.0184519661398 59.96171785206168 Z" fill-opacity="1"/></g></g><g><g><path fill="rgb(125,211,252)" stroke="none" paint-order="stroke fill markers" d=" M 353.5684673534981 60.951274283460435 L 346.72831955532706 57.36128777942232 L 345.48518507010994 59.72988264804466 L 352.325332868281 63.31986915208277 Z" fill-opacity="1"/></g></g><g><g><path fill="rgb(125,211,252)" stroke="none" paint-order="stroke fill markers" d=" M 379.11552522883335 68.00491106932998 L 372.66087172961204 75.63973740690898 L 375.1226334455161 68.77257975223779 L 369.5541076358635 73.49529298799887 L 374.4245171932395 64.76694201296239 L 371.74981962908515 62.920731586086134 L 363.0584646330756 78.9450404115344 L 365.0953497011624 80.35100065969402 L 370.7059300396814 75.17127930956096 L 367.81119645861145 82.22561432390683 L 369.7863577367562 83.5889697160616 L 381.7696481963404 69.83691987753795 Z" fill-opacity="1"/></g></g><g><g><path fill="rgb(125,211,252)" stroke="none" paint-order="stroke fill markers" d=" M 392.7555483326158 82.45322579872153 L 394.73910181526924 84.21050084305965 L 386.7650518499237 93.21134258981714 L 384.7814983672702 91.45406754547903 L 382.7589742596358 93.73702532740089 L 389.1213156190902 99.37356792244765 L 391.1438397267246 97.09061014052578 L 389.1602862440712 95.33333509618768 L 397.13433620941674 86.3324933494302 L 399.11788969207015 88.0897683937683 L 401.14041379970456 85.80681061184643 L 394.77807244025024 80.17026801679968 Z" fill-opacity="1"/></g></g><g><g><path fill="rgb(125,211,252)" stroke="none" paint-order="stroke fill markers" d=" M 420.7083695053694 106.21370430107642 L 413.3145518659845 97.86780945896865 L 411.03159408406265 99.89033356660306 L 413.6675066505698 102.8656637905832 L 402.38370712189044 112.86223786356318 L 404.505699628261 115.25747225771072 L 415.78949915694034 105.26089818473072 L 418.4254117234475 108.23622840871084 Z" fill-opacity="1"/></g></g><g><g><path fill="rgb(125,211,252)" stroke="none" paint-order="stroke fill markers" d=" M 436.4401955738413 127.32432352178444 L 434.62238838430164 124.69077515092474 L 428.6557553565726 128.80924456472562 L 426.6675287430136 125.92880103409782 L 432.6341617707426 121.81033162029694 L 430.81635458120286 119.17678324943724 L 415.8997720118804 129.47295678393942 L 417.71757920142005 132.10650515479912 L 424.1574279520379 127.66139851162784 L 426.14565456559694 130.54184204225564 L 419.7058058149791 134.98694868542694 L 421.5236130045188 137.62049705628664 Z" fill-opacity="1"/></g></g><g><g><path fill="rgb(125,211,252)" stroke="none" paint-order="stroke fill markers" d=" M 442.62709414127664 153.24954404403164 L 439.0371076372385 146.4093962458606 L 436.66851276861615 147.65253073107766 L 440.25849927265426 154.4926785292487 Z" fill-opacity="1"/></g></g><g><g><path fill="rgb(125,211,252)" stroke="none" paint-order="stroke fill markers" d=" M 460.39852358439583 175.5538657920613 L 459.3790345341485 172.8656940943407 L 450.1223737315629 176.37628247606182 L 458.16451279602785 169.66326346314318 L 456.8524747139704 166.20370336520713 L 439.9053053152973 172.6309169428531 L 440.9247943655446 175.31908864057365 L 450.83596653801 171.56027683792277 L 442.36094415806684 179.1059044234496 L 443.45135418572266 181.98107936970723 Z" fill-opacity="1"/></g></g><g><g><path fill="rgb(125,211,252)" stroke="none" paint-order="stroke fill markers" d=" M 453.1112800628201 204.7009819505691 L 451.6753860770947 198.87533104601278 L 456.19026552812585 197.7625132070756 L 457.5065016817074 203.1026932029189 L 460.3465064976786 202.4026948848778 L 459.03027034409706 197.06251488903453 L 463.350961431643 195.99756018295489 L 464.7868554173683 201.8232110875112 L 467.7482279605178 201.09329831143415 L 465.54652384907223 192.16063359111448 L 447.9482034082251 196.49823000632645 L 450.1499075196706 205.43089472664613 Z" fill-opacity="1"/></g></g><g><g><path fill="rgb(125,211,252)" stroke="none" paint-order="stroke fill markers" d=" M 462.9131721651854 226.23790058605684 L 472.16413269153895 228.58996974742274 L 471.7452677276517 225.140306409932 L 465.9292472013587 223.90736065372946 L 471.2691478406432 221.2191063572447 L 470.83220237471767 217.62053668863925 L 462.31668747172245 222.1550301484279 L 452.83935403169045 219.80526401826697 L 453.276299497616 223.40383368687242 L 459.2600172428634 224.5660500803254 L 453.72831204857346 227.12649196474013 L 454.17128434851173 230.7746970770505 Z" fill-opacity="1"/></g></g><g><g><path fill="rgb(125,211,252)" stroke="none" paint-order="stroke fill markers" d=" M 473.125 255.575 L 473.125 244.425 L 470.075 244.425 L 470.075 248.4 L 455 248.4 L 455 251.6 L 470.075 251.6 L 470.075 255.575 Z" fill-opacity="1"/></g></g><g><g><path fill="rgb(125,211,252)" stroke="none" paint-order="stroke fill markers" d=" M 470.8804170468198 281.98237976172146 L 471.49214069911557 276.94438222567385 L 468.63810268608364 276.5978392699398 L 468.4211366616241 278.3847152433163 L 459.3626681854793 277.28481803598646 C 457.0298023313489 277.00155683738643 456.46075924794695 275.6732816515788 456.6114300982661 274.4323955589562 L 457.09659023629376 270.43674234071153 L 454.06882817029475 270.0691054659328 L 453.5324399431585 274.48665995566915 C 453.10152131124573 278.0355941805697 455.220434557923 280.0809136306938 459.11681688875785 280.5540201006959 Z" fill-opacity="1"/></g></g><g><g><path fill="rgb(125,211,252)" stroke="none" paint-order="stroke fill markers" d=" M 466.87216268432996 303.5056836011045 C 467.63797281005014 300.39866978534116 466.41745595812966 298.0379837379858 463.334715687802 297.2781565038728 C 461.56274687099943 296.841405416548 460.1935144174299 297.17337301751553 459.05009468041607 297.94722139091124 C 457.84616206931656 298.75765107196383 456.8441106083439 300.1070557071873 455.9012041054294 301.0075707413547 C 454.7225709767862 302.1332145340639 453.93487767665164 302.29954031355453 453.0610300409682 302.0841562156957 C 452.0172675872352 301.8268918765866 451.1174365110816 301.0901395203716 451.446495549477 299.75509452141085 C 451.75162302144366 298.5171437041926 452.81658120955024 297.85269727476077 454.16325001271855 298.0301321489351 L 454.87521411397404 295.1415802420926 C 451.641533637439 294.57628335047167 449.5781130269187 295.84432135624274 448.8302515760201 298.8785145356992 C 447.9866638594064 302.301084442126 449.63743767954765 304.5875819371468 452.6473573135684 305.32946049643823 C 454.273684857757 305.7303142341199 455.5887293078549 305.5137314687235 457.05864498172593 304.45988237530054 C 458.46206488990407 303.4668881349702 459.54257789978396 302.00808155578284 460.56428793061264 301.1012416510014 C 461.2232626959342 300.5169666655113 461.7436050172696 300.1817520049918 462.7388203801313 300.4270505608865 C 463.6369415612504 300.6484175503525 464.5969435324828 301.24551152556074 464.2260042528371 302.75047134257113 C 463.92685967247763 303.9641486143537 463.0736965436709 304.50056046698626 461.7871986355814 304.18346721180524 L 461.0872003175403 307.02347202777645 C 463.908914479683 307.69321390877474 466.0884038837882 306.6855180531748 466.87216268432996 303.5056836011045 Z" fill-opacity="1"/></g></g><g><g><path fill="rgb(125,211,252)" stroke="none" paint-order="stroke fill markers" d=" M 450.1541468896603 330.0260308141813 L 452.89346964206385 322.8030303394365 L 450.3923011928804 321.8544622665977 L 447.6529784404768 329.0774627413425 Z" fill-opacity="1"/></g></g><g><g><path fill="rgb(125,211,252)" stroke="none" paint-order="stroke fill markers" d=" M 449.89099158409135 349.2640776339998 L 433.84210111912694 340.84097014070653 L 432.33175080998467 343.71870222407944 L 438.77344339661175 347.09956330069787 L 430.57742083551943 347.0612987209203 L 428.8463270196564 350.35962241647854 L 437.0318312594085 350.36413251631365 C 436.541813654265 352.5350787953932 437.6759308599329 354.5702454135864 440.1773441324033 355.88308837461005 C 443.34284942411347 357.54447371466654 446.0105530975259 356.65763544820413 447.55575764457143 353.7134941629072 Z M 445.6800003967068 350.72440404263926 L 445.1571868281576 351.7205420714991 C 444.3323031977799 353.29222651703355 443.3490242476061 353.82082135823543 441.4452937924517 352.82166653834133 C 439.60797253922135 351.8573659563505 439.1291492891064 350.61786876186017 439.80299788856985 349.33395752466305 L 440.5000826466355 348.0057734861832 Z" fill-opacity="1"/></g></g><g><g><path fill="rgb(125,211,252)" stroke="none" paint-order="stroke fill markers" d=" M 418.59449384554364 371.9921709371751 L 422.00288232593056 367.05426774181313 L 425.8297573023361 369.695768814113 L 422.7054011953147 374.22218007652816 L 425.11262900305366 375.8837694607168 L 428.236985110075 371.35735819830165 L 431.8992633133018 373.8852463212553 L 428.49087483291487 378.82314951661726 L 431.0009756238905 380.5557469941473 L 436.22717129381715 372.98429542792564 L 421.3105887244946 362.68812189342344 L 416.08439305456795 370.2595734596451 Z" fill-opacity="1"/></g></g><g><g><path fill="rgb(125,211,252)" stroke="none" paint-order="stroke fill markers" d=" M 401.85320899529785 387.7365707349736 L 399.5985919572791 390.2815072787554 L 415.9504644324917 399.15686031705116 L 418.08903500531824 396.74291315419936 L 407.29081479287237 381.5987825999706 L 405.1688222865018 383.9940169941181 L 406.8437966132356 386.2127071493184 L 404.27419631255253 389.1131862984814 Z M 412.5888431647227 393.94094693087584 L 406.9363149207146 390.6700258907572 L 408.6935899650527 388.6864724081037 Z" fill-opacity="1"/></g></g><g><g><path fill="rgb(125,211,252)" stroke="none" paint-order="stroke fill markers" d=" M 398.08759824712916 417.2317445056317 C 400.83837524665796 414.7947687365968 400.51294503202615 411.97690692745766 398.2085937946394 409.3758320775631 L 393.55015712049783 404.1175440716611 C 391.245805883111 401.51646922176656 388.4877157369232 400.85375605191 385.7369387373943 403.2907318209449 C 383.4539809554725 405.3132559285794 383.2237961680626 407.6547597111185 385.13994821868613 410.23235283628225 L 387.42290600060795 408.20982872864784 C 386.6768930100871 407.36775413695534 386.55003653752556 406.24435196704053 387.56052604755655 405.3491363784155 C 388.5148772514747 404.50365498915846 389.6628967453085 404.5553873946467 391.15492272635026 406.2395365780317 L 395.8133594004919 411.49782458393366 C 397.30538538153365 413.1819737673186 397.2183621408851 414.32785855890415 396.264010936967 415.1733399481612 C 395.253521426936 416.0685555367862 394.15360098175205 415.8072128225845 393.40758799123114 414.965138230892 L 391.1246302093093 416.98766233852643 C 393.45246317142687 419.2005380016577 395.8046404652073 419.2542686132661 398.08759824712916 417.2317445056317 Z" fill-opacity="1"/></g></g><g><g><path fill="rgb(125,211,252)" stroke="none" paint-order="stroke fill markers" d=" M 372.161311562032 436.7952360405483 L 381.33758166674625 430.4613141144959 L 379.6049841892162 427.9512133235203 L 376.33362332228893 430.2092706917766 L 367.77004726531675 417.8027889134297 L 365.1364988944571 419.62059610296944 L 373.70007495142926 432.0270778813163 L 370.42871408450196 434.28513524957265 Z" fill-opacity="1"/></g></g><g><g><path fill="rgb(125,211,252)" stroke="none" paint-order="stroke fill markers" d=" M 346.7504559559684 442.62709414127653 L 353.5906037541394 439.0371076372384 L 352.34746926892234 436.6685127686161 L 345.50732147075126 440.2584992726542 Z" fill-opacity="1"/></g></g><g><g><path fill="rgb(125,211,252)" stroke="none" paint-order="stroke fill markers" d=" M 323.9084998683946 460.6024213944453 L 334.33393097433697 456.64857690392097 L 333.2523860688573 453.7967773637305 L 329.53569650418274 455.2063317897246 L 324.1900278320165 441.11096193124195 L 321.1979758554232 442.24569756977803 L 326.5436445275894 456.34106742826066 L 322.8269549629149 457.75062185425475 Z" fill-opacity="1"/></g></g><g><g><path fill="rgb(125,211,252)" stroke="none" paint-order="stroke fill markers" d=" M 296.7294508171269 449.61743016663075 L 293.42824863787837 450.43110342520845 L 301.84380068627974 467.0242980760479 L 304.9750880474788 466.25250505872054 L 304.6911737200205 447.6550417194728 L 301.58415990425715 448.420851845193 L 301.70227708985647 451.1982919130371 L 297.93987754733047 452.1256401121514 Z M 302.04021713635024 460.8220669792456 L 299.24637252225597 454.9191497112927 L 301.819368338435 454.28496320093063 Z" fill-opacity="1"/></g></g><g><g><path fill="rgb(125,211,252)" stroke="none" paint-order="stroke fill markers" d=" M 280.74612262210707 467.95812457604416 L 278.1154441057472 468.27754677872076 L 276.66599052567693 456.3402225676916 L 279.2966690420368 456.020800365015 L 278.9290321672581 452.99303829901595 L 270.4910067374246 454.01760008118623 L 270.8586436122033 457.0453621471853 L 273.4893221285632 456.7259399445087 L 274.93877570863344 468.6632641555378 L 272.3080971922736 468.9826863582144 L 272.67573406705236 472.01044842421345 L 281.1137594968858 470.98588664204317 Z" fill-opacity="1"/></g></g><g><g><path fill="rgb(125,211,252)" stroke="none" paint-order="stroke fill markers" d=" M 244.97500000000002 458.05 L 251.80000000000004 458.05 L 251.80000000000004 473.125 L 255.00000000000003 473.125 L 255.00000000000003 455 L 244.97500000000002 455 Z" fill-opacity="1"/></g></g><g><g><path fill="rgb(125,211,252)" stroke="none" paint-order="stroke fill markers" d=" M 220.25121520499917 471.1516245773943 L 222.41844632578525 461.3916945433676 L 223.42999186891907 468.6162983812376 L 226.1659223255054 461.8467205113314 L 225.90965578735808 471.8386836548496 L 229.13595962817678 472.2304278656794 L 229.3849046533133 454.0025329961543 L 226.9279501899206 453.70420471252237 L 224.3671645579042 460.8979868851252 L 223.65201090539702 453.3064336676798 L 221.2695096075617 453.01714563506704 L 217.04972908603295 470.76289378357086 Z" fill-opacity="1"/></g></g><g><g><path fill="rgb(125,211,252)" stroke="none" paint-order="stroke fill markers" d=" M 201.4591079059765 464.6971120432606 L 198.88611208979748 464.06292553289853 L 201.76388295285537 452.38735017835023 L 204.3368787690344 453.0215366887123 L 205.06679154511144 450.0601641455628 L 196.81378609699001 448.0259809991186 L 196.08387332091294 450.987353542268 L 198.656869137092 451.62154005263005 L 195.7790982740341 463.29711540717835 L 193.20610245785508 462.6629288968163 L 192.47618968177804 465.6243014399658 L 200.72919512989947 467.65848458641 Z" fill-opacity="1"/></g></g><g><g><path fill="rgb(125,211,252)" stroke="none" paint-order="stroke fill markers" d=" M 166.20370336520725 456.8524747139706 L 168.89187506292782 457.87196376421787 L 172.40246344464893 448.61530296163227 L 172.09430569412538 459.0864855023385 L 175.5538657920614 460.39852358439595 L 181.98107936970734 443.4513541857228 L 179.2929076719868 442.4318651354755 L 175.5340958693359 452.3430373079409 L 175.50609188911085 440.99571534295325 L 172.63091694285322 439.9053053152974 Z" fill-opacity="1"/></g></g><g><g><path fill="rgb(125,211,252)" stroke="none" paint-order="stroke fill markers" d=" M 144.32775731046306 440.25977044547176 C 142.6082815739011 443.53595774038865 143.20954614794792 445.9408446217193 146.1315510326035 447.47443108946374 L 150.7359223660002 449.89099158409135 L 159.15902985929353 433.84210111912694 L 154.55465852589683 431.4255406244993 C 151.63265364124123 429.8919541567549 149.32353140993357 430.74111816969975 147.63890991127488 433.95089626269265 Z M 150.39104263825752 435.59296521772205 C 151.15783587212974 434.13196277539424 152.1632512229448 433.6149860134935 153.31434405629398 434.21912613715034 L 154.90816490246974 435.05562784682917 L 149.31986875864342 445.703236555309 L 147.72604791246766 444.8667348456302 C 146.57495507911847 444.2625947219733 146.46413183448766 443.07506863449163 147.30063354416643 441.4812477883159 Z" fill-opacity="1"/></g></g><g><g><path fill="rgb(125,211,252)" stroke="none" paint-order="stroke fill markers" d=" M 123.06738800563342 433.805617806659 C 126.09185371279261 435.89325575089595 128.74995303101974 434.9029234761313 130.7239780259105 432.04305454215086 L 134.71463287169686 426.26159288424793 C 136.68865786658765 423.40172395026747 136.67205962066038 420.5651812486266 133.6475939135012 418.4775433043896 C 131.13749312252554 416.7449458268596 128.80894235908914 417.0818083241782 126.76481460642869 419.55913888968684 L 129.27491539740433 421.29173636721686 C 129.91398823747687 420.3658795180865 130.97438764103407 419.9738615275101 132.08541585999052 420.74074893559714 C 133.13472028900492 421.46503148767937 133.35923018098228 422.5920719964475 132.08108450083716 424.44378569470825 L 128.0904296550508 430.2252473526112 C 126.8122839749057 432.0769610508719 125.67887048815851 432.2666947275336 124.6295660591441 431.5424121754514 C 123.51853784018766 430.77552476736435 123.5090582180831 429.64502260603746 124.14813105815566 428.7191657569071 L 121.63803026718 426.9865682793771 C 120.04654364076106 429.77633445558786 120.55728721465778 432.07302032912895 123.06738800563342 433.805617806659 Z" fill-opacity="1"/></g></g><g><g><path fill="rgb(125,211,252)" stroke="none" paint-order="stroke fill markers" d=" M 101.83755067805387 417.16543223980767 C 104.2327850722014 419.2874247461782 106.890271220465 419.3037762533604 108.99568566037951 416.92725462791714 C 110.20588451166897 415.56122251250486 110.54825584815875 414.1945543494345 110.39442079015609 412.8224811826794 C 110.23631632765694 411.3798263456037 109.50715439584825 409.8654542390193 109.1479784336286 408.6120617912346 C 108.69900848085402 407.0453212315038 108.91779364621871 406.2705580086955 109.51460403863544 405.5968983353415 C 110.22746089624428 404.7922492810576 111.29799506148267 404.3378743245983 112.32719734021794 405.24966797967943 C 113.28154854413609 406.0951493689364 113.37497589152939 407.34690666600284 112.59203691512998 408.45686457476995 L 114.818856390939 410.4296544830363 C 116.82216817833911 407.8290791846718 116.65829565675331 405.4127243273155 114.31919956871862 403.34046602031304 C 111.68069918141549 401.00295865001425 108.88895335078551 401.40205790729266 106.83327311023905 403.72244122662306 C 105.72254265768572 404.97619672980966 105.30318554413057 406.2412617918957 105.5532186994329 408.0325555760778 C 105.78026968153445 409.73668962348336 106.56983932395248 411.37137759975644 106.89799385550836 412.69748642010995 C 107.109102818812 413.55250572142006 107.16410552573666 414.16902798560113 106.48440480103984 414.9362515024765 C 105.87101634216711 415.6286239445348 104.89618072269838 416.20118006843444 103.73598906303317 415.17333994816124 C 102.80035062781928 414.34443662536023 102.7218661961638 413.3397151744159 103.60050371833285 412.34793843308915 L 101.41110977993237 410.40830465773485 C 99.50676683973835 412.59556389388706 99.38617797779351 414.9937055340691 101.83755067805387 417.16543223980767 Z" fill-opacity="1"/></g></g><g><g><path fill="rgb(125,211,252)" stroke="none" paint-order="stroke fill markers" d=" M 82.7682554943683 398.08759824712916 C 84.89024800073885 400.4828326412767 87.52638712651986 400.8193894856975 89.90290875196311 398.713975045783 C 91.26894086737538 397.5037761944935 91.77354957473273 396.1883408853813 91.78622129209418 394.8077289096332 C 91.80316241395215 393.35653526356447 91.26185427999013 391.7653138760428 91.05637687964503 390.477766192286 C 90.79953012921365 388.86833158759003 91.11010749125342 388.12558889850555 91.78376716460741 387.5287785060889 C 92.58841621889134 386.81592164848 93.7059138335914 386.49389823141274 94.6177074886725 387.52310051014797 C 95.46318887792951 388.47745171406615 95.4050523656965 389.73134371338085 94.49403125440165 390.7388359142316 L 96.46682116266801 392.9656553900406 C 98.76899126482418 390.6255137659635 98.89757295124969 388.207024206359 96.8253146442472 385.8679281183243 C 94.48780727394839 383.2294277310212 91.66831031409107 383.2891093308266 89.34792699476066 385.3447895713731 C 88.09417149157407 386.4555200239264 87.52538522064089 387.6608134230612 87.55767874662094 389.46918482522943 C 87.57766361064148 391.18826178837276 88.16443653947505 392.9062031523279 88.33035370016334 394.262197804157 C 88.43686225330237 395.13642942570146 88.41715038153801 395.7550863921308 87.64992686466263 396.4347871168276 C 86.95755442260436 397.0481755757003 85.92081243793615 397.4990536714493 84.89297231766291 396.3388620117841 C 84.06406899486191 395.4032235765702 84.10726259135711 394.3963674233776 85.09903933268382 393.51772990120855 L 83.15940555732949 391.32833596280807 C 81.00530245408932 393.27010444041065 80.5965287886297 395.6362255468688 82.7682554943683 398.08759824712916 Z" fill-opacity="1"/></g></g><g><g><path fill="rgb(125,211,252)" stroke="none" paint-order="stroke fill markers" d=" M 70.43935302835477 369.2636666555418 L 74.82765319685295 375.6212170195703 L 77.02913503811848 374.1016438220645 L 72.6408348696203 367.744093458036 Z" fill-opacity="1"/></g></g><g><g><path fill="rgb(125,211,252)" stroke="none" paint-order="stroke fill markers" d=" M 50.0625360987044 349.1755320314346 L 54.75624013634646 358.11863789053206 L 70.80513060131089 349.6955303972387 L 69.31801645077083 346.86207111514847 L 62.54427785452377 350.4172033812833 L 59.604903791346935 344.8166940190267 L 57.01494491631129 346.1760092972548 L 59.954318979488136 351.77651865951134 L 55.969766864048694 353.8677729337083 L 52.76317697694668 347.75812635670115 Z" fill-opacity="1"/></g></g><g><g><path fill="rgb(125,211,252)" stroke="none" paint-order="stroke fill markers" d=" M 43.14752528602952 333.79629663479295 L 60.09469468470266 327.36908305714695 L 58.94222880181442 324.33028026841936 L 52.13998563627803 326.91003082165383 L 57.60359535322885 320.80059395228193 L 56.2826921489954 317.31765844827873 L 50.85132296028778 323.4416056015417 C 49.55128811360221 321.63521848981753 47.27588520938642 321.1345523101266 44.634464323800124 322.1363111160217 C 41.29178125619977 323.4040235871988 40.18657447922435 325.9889110083697 41.365635728640775 329.09784001529874 Z M 44.846858943331796 329.6759489405856 L 44.44792844540894 328.6240556675645 C 43.81850477090844 326.9644018367979 44.07488040207248 325.8778837579123 46.08516532384612 325.11548325077086 C 48.02532402741836 324.37967811015756 49.27061954626599 324.8432124354648 49.784796632477665 326.19898598735864 L 50.31670396304147 327.60151035138676 Z" fill-opacity="1"/></g></g><g><g><path fill="rgb(125,211,252)" stroke="none" paint-order="stroke fill markers" d=" M 50.382569833369196 296.7294508171268 L 49.5688965747915 293.4282486378782 L 32.97570192395205 301.8438006862796 L 33.74749494127943 304.97508804747866 L 52.34495828052717 304.6911737200204 L 51.57914815480699 301.58415990425704 L 48.80170808696284 301.70227708985635 L 47.874359887848556 297.93987754733035 Z M 39.177933020754374 302.0402171363501 L 45.08085028870728 299.24637252225585 L 45.71503679906931 301.8193683384349 Z" fill-opacity="1"/></g></g><g><g><path fill="rgb(125,211,252)" stroke="none" paint-order="stroke fill markers" d=" M 27.85696122750573 271.58375430554446 L 28.224598102284467 274.61151637154353 L 35.42296344669926 276.02918571533576 L 28.75194607840151 278.9546176957225 L 29.14670370623769 282.20573925839363 L 47.13955204926492 280.0210119287659 L 46.81410301257554 277.3406979687012 L 35.77021678823469 278.6816685365416 L 43.33981671763124 275.06790569029954 L 35.125345548868715 273.37067606011703 L 46.16923177320957 272.0297054922766 L 45.849809570532955 269.39902697591674 Z" fill-opacity="1"/></g></g><g><g><path fill="rgb(125,211,252)" stroke="none" paint-order="stroke fill markers" d=" M 41.949999999999996 245.37500000000003 L 41.95 251.37500000000003 L 37.3 251.37500000000003 L 37.3 245.87500000000003 L 34.375 245.87500000000003 L 34.375 251.37500000000003 L 29.924999999999997 251.37500000000003 L 29.924999999999997 245.37500000000003 L 26.875 245.37500000000003 L 26.875 254.57500000000005 L 45 254.57500000000002 L 45 245.37500000000003 Z" fill-opacity="1"/></g></g><g><g><path fill="rgb(125,211,252)" stroke="none" paint-order="stroke fill markers" d=" M 27.89914906559507 228.06879758852148 L 45.891997408622295 230.2535249181492 L 46.283741619452094 227.02722107733052 L 39.06178456038875 226.15031672847306 L 46.738767587415936 223.27974507761036 L 47.18776672136701 219.5819045215951 L 39.53258799918589 222.48030731131664 C 39.220934259128455 220.276674640859 37.43883622196279 218.7759242998861 34.634433652635785 218.43540817816483 C 31.085499427735243 218.00448954625205 28.90563034572701 219.77967848980273 28.504845883878062 223.08043549617875 Z M 31.31865534242393 225.21013062248153 L 31.454259107711167 224.09333313912123 C 31.66821171516436 222.33127488759717 32.400151190711824 221.48835460421606 34.53447527002264 221.747508466765 C 36.594346183776096 221.9976220782948 37.48158546265075 222.9867790233859 37.30680727628053 224.4262068908281 L 37.126002255897546 225.91527020197518 Z" fill-opacity="1"/></g></g><g><g><path fill="rgb(125,211,252)" stroke="none" paint-order="stroke fill markers" d=" M 34.63894579075054 191.40815368260937 L 33.9090330146735 194.36952622575882 L 40.13690905496602 198.2476456188088 L 32.86202698341543 198.6173966769978 L 32.078268182873686 201.79723112906814 L 49.676588623720875 206.1348275442801 L 50.32274091729728 203.51328463722976 L 39.521013198432456 200.85089787203069 L 47.88017004893878 200.15618804150208 L 40.801352002370884 195.6563591488013 L 51.603079721235716 198.31874591400037 L 52.237266231597744 195.74575009782134 Z" fill-opacity="1"/></g></g><g><g><path fill="rgb(125,211,252)" stroke="none" paint-order="stroke fill markers" d=" M 55.984129642776416 176.4194859386739 C 55.549738656149316 177.56488083596352 54.485801224123755 178.0437202043689 52.405390084148706 177.25472433069925 L 45.83690097928367 174.76362499922544 C 43.756489839308614 173.9746291255558 43.27765047090324 172.91069169353023 43.71204145753035 171.76529679624062 C 44.146432444157455 170.61990189895099 45.21036987618301 170.1410625305456 47.290781016158064 170.93005840421523 L 53.8592701210231 173.42115773568906 C 55.93968126099815 174.21015360935868 56.418520629403524 175.27409104138425 55.984129642776416 176.4194859386739 Z M 58.55542431016131 177.39464937804087 C 59.78767629263412 174.14546793470905 58.2899380150253 171.67908798592066 54.994005759559215 170.42910575909573 L 48.42551665469418 167.9380064276219 C 45.12958439922809 166.68802420079697 42.37299877261827 167.54095191354182 41.14074679014546 170.79013335687364 C 39.908494807672646 174.03931480020546 41.406233085281464 176.50569474899382 44.702165340747555 177.75567697581877 L 51.27065444561259 180.24677630729258 C 54.56658670107868 181.49675853411753 57.323172327688496 180.6438308213727 58.55542431016131 177.39464937804087 Z" fill-opacity="1"/></g></g><g><g><path fill="rgb(125,211,252)" stroke="none" paint-order="stroke fill markers" d=" M 55.023455960271505 141.3722248947176 L 49.84179259198349 151.2450595807509 L 52.542433470225774 152.6624652554844 L 54.389708079099755 149.14277755351287 L 67.7379576658219 156.14847937207267 L 69.22507181636196 153.31502008998243 L 55.876822229639814 146.3093182714226 L 57.72409683851379 142.7896305694511 Z" fill-opacity="1"/></g></g><g><g><path fill="rgb(125,211,252)" stroke="none" paint-order="stroke fill markers" d=" M 66.46755053984612 128.48083229318897 L 67.97292211868367 126.29992504857077 L 77.8693031060549 133.1309036280129 L 76.36393152721733 135.3118108726311 L 78.87403231819299 137.04440835016112 L 83.7025826654078 130.04904549006505 L 81.19248187443215 128.31644801253503 L 79.6871102955946 130.4973552571532 L 69.79072930822338 123.66637667771107 L 71.29610088706093 121.48546943309287 L 68.78600009608527 119.75287195556285 L 63.95744974887046 126.74823481565893 Z" fill-opacity="1"/></g></g><g><g><path fill="rgb(125,211,252)" stroke="none" paint-order="stroke fill markers" d=" M 94.6840197544964 112.40204841503511 C 93.87169449815143 113.31897408154471 92.7070969378616 113.38941925573721 91.04166052318091 111.91397134115144 L 85.78337251727892 107.25553466700985 C 84.11793610259822 105.78008675242408 84.04749092840572 104.61548919213428 84.85981618475068 103.69856352562468 C 85.67214144109566 102.78163785911508 86.83673900138548 102.71119268492257 88.50217541606618 104.18664059950834 L 93.76046342196817 108.84507727364992 C 95.42589983664887 110.32052518823569 95.49634501084137 111.4851227485255 94.6840197544964 112.40204841503511 Z M 96.74242431196693 114.2256357251973 C 99.0467755493537 111.6245608753027 98.52095631564184 108.7873502498012 95.88245592833871 106.4498428795024 L 90.62416792243673 101.79140620536081 C 87.98566753513359 99.453898835062 85.10576286466693 99.27390136556791 82.80141162728016 101.87497621546248 C 80.49706038989339 104.47605106535707 81.02287962360525 107.31326169085858 83.66138001090837 109.65076906115738 L 88.91966801681036 114.30920573529896 C 91.5581684041135 116.64671310559777 94.43807307458017 116.82671057509187 96.74242431196693 114.2256357251973 Z" fill-opacity="1"/></g></g><g><g><path fill="rgb(125,211,252)" stroke="none" paint-order="stroke fill markers" d=" M 105.78331062087801 79.67292602311917 L 103.6313422198861 81.57940366556146 L 110.19625653646996 88.98966007245537 L 101.06769290740007 83.85059877003619 L 98.298203139167 86.30415260552712 L 110.31730131978142 99.87090991612833 L 112.46926972077333 97.96443227368604 L 105.4401695434209 90.03021834307238 L 115.50073825086629 95.27878550781082 L 117.80240880149242 93.23968333372038 Z" fill-opacity="1"/></g></g><g><g><path fill="rgb(125,211,252)" stroke="none" paint-order="stroke fill markers" d=" M 130.7363333444582 70.43935302835477 L 124.37878298042969 74.82765319685295 L 125.89835617793554 77.02913503811848 L 132.25590654196404 72.6408348696203 Z" fill-opacity="1"/></g></g><g><g><path fill="rgb(125,211,252)" stroke="none" paint-order="stroke fill markers" d=" M 141.88136210946794 54.75624013634646 L 150.3044696027613 70.80513060131089 L 153.1822016861342 69.29478029216864 L 149.8013406095158 62.85308770554154 L 156.52479818297508 67.5404503177034 L 159.82312187853327 65.80935650184037 L 153.08914598373374 61.15574836962092 C 154.72566061496298 59.647456334976226 154.9484068621855 57.32829504059666 153.63556390116185 54.82688176812634 C 151.97417856110536 51.661376476416116 149.27491992367226 50.875801649780996 146.33077863837534 52.421006196826525 Z M 146.1764998675744 55.946530705446506 L 147.17263789643425 55.42371713689727 C 148.74432234196868 54.59883350651957 149.85382114822528 54.72237458841234 150.85297596811938 56.62610504356674 C 151.8172765501102 58.46342629679715 151.5072256997074 59.75551509798866 150.22331446251025 60.429363697452125 L 148.89513042403044 61.12644845551778 Z" fill-opacity="1"/></g></g><g><g><path fill="rgb(125,211,252)" stroke="none" paint-order="stroke fill markers" d=" M 180.3612281363742 51.3609361094201 C 179.61655787358487 49.39740199978073 178.46317446059157 48.47120995563873 176.868042609944 48.354251078037755 C 177.7676392875578 47.130741446843054 177.90554836997197 45.66135174870723 177.32931542852785 44.141950354343436 C 176.38074735568907 41.64078190515995 173.89906236380253 39.96168554072906 170.6498809204707 41.19393752320187 C 167.93833381668298 42.22229169562522 166.6945050453516 44.512163960099436 167.6067769466464 47.481635289832724 L 170.48195189290405 46.39122526217693 C 170.06529115062906 45.29258117702157 170.19914458974242 44.30600464332663 171.6250443598377 43.76523219058676 C 172.9106916935301 43.27765047090327 173.93916863685143 43.6629882150401 174.59518767788012 45.392768264008126 C 175.21574623020456 47.029046688707595 174.8126782417156 48.01077281989463 173.3634030655532 48.56041039481056 L 172.98939656847904 48.70225234962758 L 173.81385293085293 50.87616511387117 L 174.2579856461285 50.70772779252596 C 175.61375919802236 50.193550706314284 176.70993715829113 50.68690035861073 177.40141668802406 52.51018203184729 C 178.06630085122882 54.26333748688244 177.68175786629908 55.50541304526902 176.3026089083381 56.028455253656766 C 175.01696157464565 56.51603697334025 174.0666812124947 55.91388065367709 173.6588855923958 54.838611974588865 L 170.80708605220528 55.920156880068596 C 172.20217111794094 58.893683853102694 174.5896006499845 59.619238971288944 177.25439694163794 58.60861504321772 C 180.4802029789026 57.38522818292097 181.593480118847 54.61011755275192 180.3612281363742 51.3609361094201 Z" fill-opacity="1"/></g></g><g><g><path fill="rgb(125,211,252)" stroke="none" paint-order="stroke fill markers" d=" M 201.55449567471135 32.13809709894566 L 191.7479833187082 34.55518530825 L 196.0855797339202 52.153505749097185 L 199.19259354968358 51.387695623377 L 197.36182871788375 43.9599907200677 L 203.50303571310354 42.446319143448896 L 202.80303739506243 39.60631432747769 L 196.66183039984264 41.1199859040965 L 195.58490991054865 36.75074772567927 L 202.2844084507884 35.099469642095116 Z" fill-opacity="1"/></g></g><g><g><path fill="rgb(125,211,252)" stroke="none" paint-order="stroke fill markers" d=" M 227.84326115324887 35.58235369103392 L 220.1745851008414 36.5134995460063 L 220.4970207205244 39.168995784218595 L 228.16569677293185 38.23784992924622 Z" fill-opacity="1"/></g></g></g></g></svg>