<svg version="1.1" xmlns="http://www.w3.org/2000/svg" xmlns:xlink="http://www.w3.org/1999/xlink" width="500" height="500" viewBox="0 0 500 500"><defs/><g><g><g><g><path fill="rgb(125,211,252)" stroke="none" paint-order="stroke fill markers" d=" M 250.1 8.25 C 242.75 8.25 239.5 12.899999999999999 239.5 19.849999999999998 L 239.5 33.9 C 239.5 40.85 242.75 45.5 250.1 45.5 C 256.2 45.5 259.65 42.3 260.2 35.9 L 254.1 35.9 C 254.1 38.15 252.8 40 250.1 40 C 247.55 40 245.9 38.4 245.9 33.9 L 245.9 19.849999999999998 C 245.9 15.349999999999998 247.55 13.75 250.1 13.75 C 252.8 13.75 254.1 15.599999999999998 254.1 17.849999999999998 L 260.2 17.849999999999998 C 259.65 11.449999999999996 256.2 8.25 250.1 8.25 Z" fill-opacity="1"/></g></g><g><g><path fill="rgb(125,211,252)" stroke="none" paint-order="stroke fill markers" d=" M 293.6614550717295 44.58900384590082 C 291.26499344993164 44.07962020339731 289.9941041985702 42.122622372337226 290.9193112227092 37.76986554907179 L 293.8404704786987 24.02689175876182 C 294.7656775028378 19.674134935496383 296.7226753338978 18.40324568413491 299.11913695569564 18.91262932663842 C 301.5155985774935 19.42201296914193 302.78648782885494 21.37901080020201 301.86128080471593 25.731767623467448 L 298.94012154872644 39.474741413777416 C 298.01491452458737 43.82749823704285 296.0579166935273 45.09838748840433 293.6614550717295 44.58900384590082 Z M 292.5179407722318 49.96881564993675 C 299.31606659733177 51.41380190112018 303.7344887731576 47.70131682018441 305.20026619342275 40.805376235011074 L 308.1214254494123 27.062402444701107 C 309.5872028696775 20.166461859527775 307.0607770802933 14.977803773785915 300.26265125519336 13.532817522602485 C 293.4645254300934 12.087831271419056 289.04610325426756 15.800316352354827 287.5803258340024 22.69625693752816 L 284.65916657801284 36.43923072783813 C 283.1933891577477 43.335171313011465 285.71981494713185 48.52382939875332 292.5179407722318 49.96881564993675 Z" fill-opacity="1"/></g></g><g><g><path fill="rgb(125,211,252)" stroke="none" paint-order="stroke fill markers" d=" M 357.2606697184628 33.67452477448055 L 352.0077833370178 31.335789076794704 L 343.954397804117 49.4239891381182 L 345.74999695216604 28.54964307172547 L 338.98976056561077 25.539791912964553 L 324.245557254113 58.65581475250883 L 329.498443635558 60.99455045019468 L 338.12126046876494 41.62738674817154 L 336.898161842463 64.28911725910866 L 342.51646640696504 66.79054761402483 Z" fill-opacity="1"/></g></g><g><g><path fill="rgb(125,211,252)" stroke="none" paint-order="stroke fill markers" d=" M 400.8237316028398 61.37845567010499 L 382.78265262827847 48.27084454398284 L 379.1971625892944 53.205848209670016 L 385.62884769457526 57.87874096539518 L 367.90712233795716 82.27060334579984 L 373.08483110195687 86.03242896047168 L 390.8065564585749 61.640566580067 L 397.23824156385575 66.31345933579217 Z" fill-opacity="1"/></g></g><g><g><path fill="rgb(125,211,252)" stroke="none" paint-order="stroke fill markers" d=" M 405.5565161333883 116.39532085872555 L 410.10660425662854 121.44870567197184 L 431.4249070867697 90.9503046574531 L 427.109014675755 86.15702053312391 L 394.582774189103 104.20774572089628 L 398.86521006979973 108.96387260395161 L 403.65139303564627 106.13457010732097 L 408.8371552349274 111.89394250477078 Z M 420.3027388910126 96.4568802380922 L 412.53022470143503 106.95392854572681 L 408.9838324877331 103.01526097069662 Z" fill-opacity="1"/></g></g><g><g><path fill="rgb(125,211,252)" stroke="none" paint-order="stroke fill markers" d=" M 459.41164136488806 129.2116025403784 C 455.73664136488804 122.84631582256279 450.0846232372904 122.35673326026335 444.0657466809885 125.83173326026336 L 431.89808975781716 132.85673326026335 C 425.8792132015153 136.33173326026338 423.4771950739177 141.4713158225628 427.1521950739177 147.8366025403784 C 430.20219507391766 153.1193575034635 434.6984763660279 154.5071451465198 440.5160389502483 151.78345911860126 L 437.4660389502483 146.50070415551616 C 435.5174817917333 147.62570415551616 433.2653347947321 147.4248711305964 431.9153347947321 145.0866025403784 C 430.6403347947321 142.8782377607281 431.2009754407872 140.64929584448376 435.0980897578172 138.39929584448376 L 447.2657466809885 131.37429584448375 C 451.1628609980185 129.12429584448375 453.3735016440736 129.7532377607281 454.64850164407363 131.9616025403784 C 455.9985016440736 134.2998711305964 455.0463546470724 136.35070415551615 453.09779748855743 137.47570415551615 L 456.14779748855744 142.75845911860125 C 461.41536007277784 139.0821451465198 462.461641364888 134.49435750346348 459.41164136488806 129.2116025403784 Z" fill-opacity="1"/></g></g><g><g><path fill="rgb(125,211,252)" stroke="none" paint-order="stroke fill markers" d=" M 482.88792404348646 186.0539302637349 L 475.9968450689251 164.845369950353 L 470.1954003195247 166.73037361604017 L 472.65208542480553 174.29127292058664 L 443.97773145850664 183.6081353009913 L 445.9554402225063 189.69489700528027 L 474.6297941888052 180.37803462487562 L 477.086479294086 187.9389339294221 Z" fill-opacity="1"/></g></g><g><g><path fill="rgb(125,211,252)" stroke="none" paint-order="stroke fill markers" d=" M 491.04686181455986 235.42389251711907 L 490.40923818862717 229.3573089553726 L 476.06005324037193 226.29040639403073 L 489.4946141350352 220.6552423709002 L 488.80995270063204 214.141123956238 L 452.7585339935321 217.93028074969047 L 453.32298769517746 223.30069898467914 L 475.45109986712157 220.97494067697386 L 460.19742900924797 227.9576353831498 L 476.5695544240854 231.61632495741438 L 454.44144225214137 233.94208326511966 L 454.99544310745995 239.2130493105715 Z" fill-opacity="1"/></g></g><g><g><path fill="rgb(125,211,252)" stroke="none" paint-order="stroke fill markers" d=" M 458.9766838270167 281.2652861279582 L 460.23102538622857 269.3310233835389 L 469.4800790131535 270.3031380919281 L 468.3302659172093 281.2428789409791 L 474.14821900511373 281.85437045109484 L 475.2980321010579 270.9146296020438 L 484.1492769698355 271.84493292512593 L 482.8949354106237 283.77919566954523 L 488.9615189723702 284.4168192954779 L 490.88484269649496 266.11761642070167 L 454.83342398939504 262.32845962724923 L 452.9101002652702 280.6276625020255 Z" fill-opacity="1"/></g></g><g><g><path fill="rgb(125,211,252)" stroke="none" paint-order="stroke fill markers" d=" M 462.60689465183236 327.17642675392955 L 467.3812072149253 312.4826035771694 L 462.2930548527462 310.82936265726346 L 457.5187422896533 325.5231858340236 Z" fill-opacity="1"/></g></g><g><g><path fill="rgb(125,211,252)" stroke="none" paint-order="stroke fill markers" d=" M 459.31164136488803 370.9616025403784 C 462.98664136488804 364.59631582256276 460.5846232372904 359.4567332602633 454.5657466809885 355.98173326026335 L 442.39808975781716 348.9567332602633 C 436.3792132015153 345.48173326026335 430.7271950739177 345.97131582256276 427.0521950739177 352.3366025403784 C 424.0021950739177 357.61935750346345 425.0484763660279 362.2071451465198 430.3160389502483 365.8834591186012 L 433.3660389502483 360.60070415551615 C 431.41748179173334 359.47570415551615 430.4653347947321 357.4248711305964 431.8153347947321 355.0866025403784 C 433.0903347947321 352.87823776072804 435.3009754407872 352.24929584448375 439.1980897578172 354.49929584448375 L 451.36574668098854 361.52429584448373 C 455.26286099801854 363.77429584448373 455.82350164407364 366.00323776072804 454.5485016440736 368.2116025403784 C 453.19850164407364 370.5498711305964 450.9463546470724 370.75070415551613 448.9977974885574 369.62570415551613 L 445.9477974885574 374.90845911860123 C 451.7653600727778 377.63214514651975 456.261641364888 376.24435750346345 459.31164136488803 370.9616025403784 Z" fill-opacity="1"/></g></g><g><g><path fill="rgb(125,211,252)" stroke="none" paint-order="stroke fill markers" d=" M 406.0604133502529 390.5174273353602 C 407.6997833358321 388.69672251294054 410.0300377983619 388.57459905139496 413.3370322717363 391.5522302496919 L 423.7782170696937 400.95351526903386 C 427.0852115430681 403.93114646733073 427.2073350046137 406.2614009298606 425.5679650190345 408.0821057522802 C 423.9285950334553 409.9028105746998 421.5983405709255 410.0249340362454 418.29134609755107 407.04730283794845 L 407.85016129959365 397.64601781860654 C 404.54316682621925 394.6683866203096 404.42104336467366 392.3381321577798 406.0604133502529 390.5174273353602 Z M 401.9731168101272 386.83720900038645 C 397.32265909593315 392.00206553745437 398.32855439928136 397.6847739268319 403.56772541889694 402.4021447016618 L 414.00891021685436 411.8034297210038 C 419.24808123647 416.5208004958337 425.0048038449661 416.9271806243218 429.6552615591601 411.7623240872539 C 434.3057192733542 406.597467550186 433.299823970006 400.91475916080844 428.06065295039036 396.1973883859785 L 417.619468152433 386.79610336663654 C 412.38029713281736 382.0787325918066 406.62357452432127 381.6723524633186 401.9731168101272 386.83720900038645 Z" fill-opacity="1"/></g></g><g><g><path fill="rgb(125,211,252)" stroke="none" paint-order="stroke fill markers" d=" M 383.7130221718097 451.0532024158808 L 388.36486988946564 447.67343721519904 L 376.7267218940747 431.6549007265751 L 393.90663630093405 443.6471082369956 L 399.89336205930863 439.2974973700313 L 378.5861466637065 409.9706313239395 L 373.93429894605055 413.3503965246212 L 386.39534629465095 430.5015568053701 L 367.38126129161344 418.11145706819025 L 362.40580677620756 421.72633636978895 Z" fill-opacity="1"/></g></g><g><g><path fill="rgb(125,211,252)" stroke="none" paint-order="stroke fill markers" d=" M 337.9391832893218 474.92795522657264 L 358.31124699475185 465.8577280859823 L 355.83015347198943 460.2851007943624 L 348.5674670837308 463.518657106815 L 336.3043572949954 435.9752615588906 L 330.4576663660828 438.5783760745757 L 342.72077615481817 466.12177162250015 L 335.45808976655945 469.35532793495275 Z" fill-opacity="1"/></g></g><g><g><path fill="rgb(125,211,252)" stroke="none" paint-order="stroke fill markers" d=" M 287.92678813411845 451.5182342663554 L 281.2753844491286 452.93203376391614 L 297.02862308743636 486.6434260876474 L 303.3376751121694 485.3023956818729 L 303.9684087861529 448.10848253694417 L 297.70826414145654 449.4391173581778 L 297.7654204956061 454.9987246420766 L 290.1847765899191 456.6100402459142 Z M 297.8208728446224 474.25805809463895 L 292.61641944024717 462.27833920137243 L 297.8006017241363 461.1764072400383 Z" fill-opacity="1"/></g></g><g><g><path fill="rgb(125,211,252)" stroke="none" paint-order="stroke fill markers" d=" M 249.90000000000003 491.75 C 257.25000000000006 491.75 260.50000000000006 487.1 260.50000000000006 480.15 L 260.50000000000006 466.1 C 260.5 459.15 257.25 454.5 249.90000000000003 454.5 C 243.80000000000004 454.5 240.35000000000002 457.7 239.80000000000004 464.1 L 245.90000000000003 464.1 C 245.90000000000003 461.85 247.20000000000002 460 249.90000000000003 460 C 252.45000000000002 460 254.10000000000002 461.6 254.10000000000002 466.1 L 254.10000000000002 480.15 C 254.10000000000002 484.65 252.45000000000005 486.25 249.90000000000003 486.25 C 247.20000000000005 486.25 245.90000000000003 484.4 245.90000000000003 482.15 L 239.80000000000004 482.15 C 240.35000000000002 488.55 243.80000000000004 491.75 249.90000000000003 491.75 Z" fill-opacity="1"/></g></g><g><g><path fill="rgb(125,211,252)" stroke="none" paint-order="stroke fill markers" d=" M 188.9349588420337 483.65989332441256 L 210.74765033839756 488.29632402964864 L 212.0159116523859 482.3296236651724 L 204.23963822655213 480.6767257231712 L 210.50817570470758 451.18557556104696 L 204.24803106001121 449.85494073981334 L 197.9794935818558 479.34609090193754 L 190.20322015602204 477.69319295993637 Z" fill-opacity="1"/></g></g><g><g><path fill="rgb(125,211,252)" stroke="none" paint-order="stroke fill markers" d=" M 142.09984846118746 466.04075957536645 L 147.67247575280732 468.5218530981288 L 157.50308375598857 457.62854569000945 L 155.6659985071801 472.0807987250421 L 161.64972125473912 474.74492373718857 L 176.39392456623688 441.62890089764426 L 171.46077909496682 439.432523025035 L 162.41088878653028 459.75890945758283 L 163.99053321304757 443.05749564060994 L 152.63595238975444 455.4068273766718 L 161.68584269819098 435.0804409441239 L 156.8440517726852 432.9247367358222 Z" fill-opacity="1"/></g></g><g><g><path fill="rgb(125,211,252)" stroke="none" paint-order="stroke fill markers" d=" M 118.43512604309069 415.3464739288461 L 128.14332997559006 422.39989695635575 L 122.67692712927007 429.9237550040428 L 113.77774019114564 423.4581172288256 L 110.33919646523466 428.190866645919 L 119.2383834033591 434.6565044211362 L 114.00709465795609 441.85675567107324 L 104.29889072545672 434.8033326435636 L 100.71340068647262 439.7383363092507 L 115.59931338297167 450.55358495143224 L 136.9065287785738 421.2267189053404 L 122.02061608207478 410.4114702631589 Z" fill-opacity="1"/></g></g><g><g><path fill="rgb(125,211,252)" stroke="none" paint-order="stroke fill markers" d=" M 76.85980653187187 395.534758411244 L 87.19787440011623 407.01634596486974 L 91.17369921642029 403.4364972208499 L 80.83563134817592 391.9549096672241 Z" fill-opacity="1"/></g></g><g><g><path fill="rgb(125,211,252)" stroke="none" paint-order="stroke fill markers" d=" M 40.58835863511201 370.7883974596217 C 44.26335863511201 377.1536841774373 49.915376762709656 377.64326673973676 55.934253319011496 374.16826673973674 L 68.10191024218285 367.1432667397367 C 74.1207867984847 363.66826673973674 76.52280492608234 358.5286841774373 72.84780492608233 352.16339745962165 C 69.79780492608234 346.8806424965366 65.30152363397212 345.4928548534803 59.48396104975173 348.2165408813988 L 62.533961049751724 353.4992958444839 C 64.48251820826671 352.3742958444839 66.73466520526793 352.57512886940367 68.08466520526792 354.91339745962165 C 69.35966520526793 357.121762239272 68.79902455921282 359.3507041555163 64.90191024218285 361.6007041555163 L 52.73425331901149 368.6257041555163 C 48.83713900198152 370.8757041555163 46.62649835592642 370.246762239272 45.351498355926424 368.0383974596217 C 44.001498355926415 365.7001288694037 44.95364535292763 363.6492958444839 46.90220251144262 362.5242958444839 L 43.85220251144261 357.24154088139886 C 38.584639927222206 360.9178548534803 37.538358635112004 365.5056424965366 40.58835863511201 370.7883974596217 Z" fill-opacity="1"/></g></g><g><g><path fill="rgb(125,211,252)" stroke="none" paint-order="stroke fill markers" d=" M 50.278131578017764 314.893568818739 C 51.03522321423639 317.22365728366213 49.97585800306805 319.3027785762678 45.74365650555461 320.6779042012363 L 32.381312451607705 325.01959297220435 C 28.149110954094272 326.39471859717287 26.069989661488606 325.3353533860045 25.312898025269984 323.0052649210814 C 24.555806389051362 320.6751764561582 25.6151716002197 318.5960551635526 29.847373097733133 317.2209295385841 L 43.20971715168004 312.87924076761607 C 47.441918649193475 311.50411514264755 49.521039941799145 312.56348035381586 50.278131578017764 314.893568818739 Z M 55.50894241764111 313.1939753496768 C 53.361274306735226 306.58413256142546 47.93695682756121 304.6139092529837 41.23200838768038 306.79247906332705 L 27.869664333733468 311.1341678342951 C 21.164715893852637 313.31273764463845 17.93441907474076 318.09501560189227 20.082087185646643 324.7048583901436 C 22.229755296552526 331.3147011783949 27.654072775726533 333.2849244868367 34.35902121560737 331.1063546764933 L 47.721365269554276 326.7646659055253 C 54.42631370943511 324.5860960951819 57.65661052854699 319.8038181379281 55.50894241764111 313.1939753496768 Z" fill-opacity="1"/></g></g><g><g><path fill="rgb(125,211,252)" stroke="none" paint-order="stroke fill markers" d=" M 9.026308109727516 265.2722728096389 L 9.627346773516528 270.99077370800643 L 29.31888030180834 268.9211101353069 L 10.34336674689996 277.8032486912791 L 11.116877375080598 285.1627107170043 L 47.168296082180504 281.37355392355187 L 46.56725741839149 275.6550530251843 L 25.483393236584096 277.87105644645857 L 45.72057686592349 267.5994256727013 L 45.07772681682742 261.4831160161864 Z" fill-opacity="1"/></g></g><g><g><path fill="rgb(125,211,252)" stroke="none" paint-order="stroke fill markers" d=" M 11.237085107838382 213.69358910332247 L 8.906100376969718 235.87142737003495 L 14.972683938716187 236.50905099596764 L 15.803685221694032 228.60260192778986 L 45.788520367047475 231.7541350953096 L 46.45750253196045 225.38919496495265 L 16.47266738660701 222.2376617974329 L 17.30366866958485 214.33121272925513 Z" fill-opacity="1"/></g></g><g><g><path fill="rgb(125,211,252)" stroke="none" paint-order="stroke fill markers" d=" M 56.51669573249325 182.08644487491907 L 58.61801129424289 175.61926056411204 L 21.546469825794013 172.40626925489948 L 19.55331021207561 178.54058378500324 L 51.448817024744116 197.6837717421596 L 53.42652578874378 191.5970100378706 L 48.583186468747634 188.86670525060248 L 50.978068175153474 181.49601724931503 Z M 31.876388264365026 179.28506166726888 L 44.853355858317855 180.7677322529008 L 43.21556578813063 185.8083317892651 Z" fill-opacity="1"/></g></g><g><g><path fill="rgb(125,211,252)" stroke="none" paint-order="stroke fill markers" d=" M 40.68835863511187 129.03839745962173 C 37.01335863511188 135.40368417743736 39.41537676270952 140.54326673973677 45.43425331901137 144.01826673973676 L 57.60191024218274 151.04326673973677 C 63.62078679848459 154.51826673973676 69.27280492608223 154.02868417743733 72.94780492608223 147.6633974596217 C 75.99780492608222 142.3806424965366 74.95152363397202 137.7928548534803 69.6839610497516 134.11654088139886 L 66.6339610497516 139.39929584448396 C 68.58251820826659 140.52429584448396 69.53466520526781 142.57512886940373 68.1846652052678 144.9133974596217 C 66.90966520526781 147.12176223927202 64.69902455921272 147.75070415551636 60.801910242182736 145.50070415551636 L 48.634253319011364 138.47570415551635 C 44.73713900198139 136.22570415551635 44.176498355926284 133.99676223927204 45.45149835592629 131.7883974596217 C 46.801498355926284 129.45012886940373 49.05364535292749 129.24929584448395 51.002202511442476 130.37429584448395 L 54.052202511442474 125.09154088139888 C 48.23463992722207 122.36785485348032 43.738358635111865 123.75564249653664 40.68835863511187 129.03839745962173 Z" fill-opacity="1"/></g></g><g><g><path fill="rgb(125,211,252)" stroke="none" paint-order="stroke fill markers" d=" M 78.17711711447981 80.28617641185261 L 63.25550459267728 96.85830601999851 L 67.7886880280894 100.94000271878753 L 73.1082763486423 95.03200135624225 L 95.51409283678576 115.2062891379618 L 99.79652871748245 110.45016225490649 L 77.390712229339 90.27587447318692 L 82.71030054989193 84.36787311064163 Z" fill-opacity="1"/></g></g><g><g><path fill="rgb(125,211,252)" stroke="none" paint-order="stroke fill markers" d=" M 116.85328972425273 48.53534790751448 L 111.91828605856556 52.12083794649857 L 116.43686300363954 66.08104791595983 L 104.83938735778477 57.263958904057716 L 99.54032604462887 61.11395230657341 L 120.84754144023103 90.44081835266525 L 125.21623320985574 87.2667779902859 L 112.13801134634821 69.26614986544331 L 125.8120377777045 78.98486897624025 L 120.79449318616014 62.97684766591385 L 133.87271504966768 80.97747579075643 L 138.1605051198549 77.86221395360631 Z" fill-opacity="1"/></g></g><g><g><path fill="rgb(125,211,252)" stroke="none" paint-order="stroke fill markers" d=" M 172.58819012989247 53.38823994319586 L 161.62564463818126 58.269079660105476 L 157.84299385757632 49.77310690402929 L 167.89199389164492 45.29900383019548 L 165.5125845296515 39.95476290298627 L 155.4635844955829 44.42886597682008 L 151.84362837220826 36.29831140380094 L 162.80617386391947 31.41747168689132 L 160.32508034115708 25.84484439527146 L 143.51584392053323 33.32879862786619 L 158.260047232031 66.44482146741046 L 175.06928365265486 58.96086723481573 Z" fill-opacity="1"/></g></g><g><g><path fill="rgb(125,211,252)" stroke="none" paint-order="stroke fill markers" d=" M 210.53329881629568 27.28881483482649 L 195.42091838495838 30.50105045796088 L 196.5332459308334 35.73414012188674 L 211.6456263621707 32.52190449875235 Z" fill-opacity="1"/></g></g></g></g></svg>