<svg version="1.1" xmlns="http://www.w3.org/2000/svg" xmlns:xlink="http://www.w3.org/1999/xlink" width="700" height="500" viewBox="0 0 700 500"><defs/><g><path fill="rgb(245,158,11)" stroke="none" paint-order="stroke fill markers" d=" M 0 150 L 700 150 L 700 151 L 0 151 L 0 150 Z" fill-opacity="1"/><path fill="rgb(245,158,11)" stroke="none" paint-order="stroke fill markers" d=" M 0 220 L 700 220 L 700 221 L 0 221 L 0 220 Z" fill-opacity="1"/><path fill="rgb(245,158,11)" stroke="none" paint-order="stroke fill markers" d=" M 0 290 L 700 290 L 700 291 L 0 291 L 0 290 Z" fill-opacity="1"/><path fill="rgb(245,158,11)" stroke="none" paint-order="stroke fill markers" d=" M 0 360 L 700 360 L 700 361 L 0 361 L 0 360 Z" fill-opacity="1"/><g><path fill="rgb(245,158,11)" stroke="none" paint-order="stroke fill markers" d=" M 147.44873046875 159.740234375 L 151.62353515625 159.740234375 Q 158.28857421875 159.740234375 166.22314453125 165.697265625 L 166.22314453125 165.697265625 Q 175.01220703125 174.046875 175.01220703125 184.7646484375 L 175.01220703125 184.7646484375 Q 175.01220703125 197.2646484375 163.97705078125 205.638671875 L 163.97705078125 205.638671875 Q 157.38525390625 209.9599609375 149.84130859375 209.9599609375 L 149.84130859375 209.9599609375 Q 136.14501953125 209.9599609375 128.06396484375 197.435546875 L 128.06396484375 197.435546875 Q 124.64599609375 191.380859375 124.64599609375 184.7646484375 L 124.64599609375 184.7646484375 Q 124.64599609375 172.6064453125 135.21728515625 164.3544921875 L 135.21728515625 164.3544921875 Q 141.00341796875 160.375 147.44873046875 159.740234375 L 147.44873046875 159.740234375 Z M 135.97412109375 177.611328125 L 135.97412109375 177.611328125 L 135.97412109375 193.724609375 Q 136.16943359375 195.2138671875 137.46337890625 195.2138671875 L 137.46337890625 195.2138671875 L 162.19482421875 195.2138671875 Q 163.68408203125 194.994140625 163.68408203125 193.724609375 L 163.68408203125 193.724609375 L 163.68408203125 177.7822265625 Q 163.68408203125 176.87890625 162.80517578125 176.2685546875 L 162.80517578125 176.2685546875 L 136.85302734375 176.2685546875 Q 135.97412109375 176.8056640625 135.97412109375 177.611328125 Z M 137.60986328125 177.7822265625 L 137.60986328125 177.7822265625 L 137.75634765625 177.7822265625 Q 139.17236328125 178.734375 146.69189453125 185.08203125 L 146.69189453125 185.08203125 Q 148.25439453125 186.44921875 149.84130859375 187.5966796875 L 149.84130859375 187.5966796875 Q 156.18896484375 182.4453125 161.29150390625 178.0751953125 L 161.29150390625 178.0751953125 L 161.46240234375 178.3681640625 Q 158.65478515625 180.8095703125 154.89501953125 184.7646484375 L 154.89501953125 184.7646484375 L 162.19482421875 193.4072265625 L 162.19482421875 193.724609375 L 153.84521484375 185.521484375 L 153.69873046875 185.521484375 Q 153.69873046875 185.9365234375 149.84130859375 189.5498046875 L 149.84130859375 189.5498046875 L 145.66650390625 185.66796875 Q 141.56494140625 189.96484375 137.31689453125 193.87109375 L 137.31689453125 193.87109375 L 137.31689453125 193.578125 L 144.76318359375 184.7646484375 Q 143.59130859375 183.3974609375 137.60986328125 177.7822265625 Z" fill-opacity="1"/></g><g><path fill="rgb(245,158,11)" stroke="none" paint-order="stroke fill markers" d=" M 49.714999999999954 141.04 C 65.18499999999995 141.04 78.57499999999996 132.33 85.20499999999996 119.59 L 70.38499999999995 111.92 C 66.61499999999995 119.33 58.94499999999995 124.27 49.714999999999954 124.27 C 36.58499999999995 124.27 26.574999999999953 114.13 26.574999999999953 101 C 26.574999999999953 87.87 36.58499999999995 77.72999999999999 49.714999999999954 77.72999999999999 C 58.94499999999995 77.72999999999999 66.61499999999995 82.66999999999999 70.38499999999995 90.08 L 85.20499999999996 82.41 C 78.57499999999996 69.67 65.18499999999995 60.959999999999994 49.714999999999954 60.959999999999994 C 27.614999999999952 60.959999999999994 9.674999999999953 78.9 9.674999999999953 101 C 9.674999999999953 123.1 27.614999999999952 141.04 49.714999999999954 141.04 Z M 133.43499999999995 141.04 C 155.66499999999996 141.04 173.47499999999997 123.1 173.47499999999997 101 C 173.47499999999997 78.9 155.66499999999996 60.959999999999994 133.43499999999995 60.959999999999994 C 111.33499999999995 60.959999999999994 93.39499999999995 78.9 93.39499999999995 101 C 93.39499999999995 123.1 111.33499999999995 141.04 133.43499999999995 141.04 Z M 133.43499999999995 124.27 C 120.30499999999995 124.27 110.29499999999996 114.13 110.29499999999996 101 C 110.29499999999996 87.87 120.30499999999995 77.72999999999999 133.43499999999995 77.72999999999999 C 146.69499999999994 77.72999999999999 156.70499999999996 87.87 156.70499999999996 101 C 156.70499999999996 114.13 146.69499999999994 124.27 133.43499999999995 124.27 Z M 242.11499999999995 62 L 242.11499999999995 113.61 L 203.76499999999996 62 L 186.08499999999995 62 L 186.08499999999995 140 L 203.24499999999998 140 L 203.24499999999998 88.25999999999999 L 241.46499999999997 140 L 259.145 140 L 259.145 62 Z M 322.7149999999999 62 L 266.29499999999996 62 L 266.29499999999996 77.21000000000001 L 286.05499999999995 77.21000000000001 L 286.05499999999995 140 L 303.0849999999999 140 L 303.0849999999999 77.21000000000001 L 322.7149999999999 77.21000000000001 Z M 377.44499999999994 140 L 395.775 140 L 367.69499999999994 62 L 348.4549999999999 62 L 320.37499999999994 140 L 338.7049999999999 140 L 343.51499999999993 125.31 L 372.63499999999993 125.31 Z M 348.06499999999994 111.00999999999999 L 358.07499999999993 80.07 L 368.0849999999999 111.00999999999999 Z M 438.93499999999995 141.04 C 454.4049999999999 141.04 467.79499999999996 132.33 474.42499999999995 119.59 L 459.6049999999999 111.92 C 455.8349999999999 119.33 448.1649999999999 124.27 438.93499999999995 124.27 C 425.80499999999995 124.27 415.7949999999999 114.13 415.7949999999999 101 C 415.7949999999999 87.87 425.80499999999995 77.72999999999999 438.93499999999995 77.72999999999999 C 448.1649999999999 77.72999999999999 455.8349999999999 82.66999999999999 459.6049999999999 90.08 L 474.42499999999995 82.41 C 467.79499999999996 69.67 454.4049999999999 60.959999999999994 438.93499999999995 60.959999999999994 C 416.8349999999999 60.959999999999994 398.8949999999999 78.9 398.8949999999999 101 C 398.8949999999999 123.1 416.8349999999999 141.04 438.93499999999995 141.04 Z M 533.5749999999999 62 L 477.155 62 L 477.155 77.21000000000001 L 496.91499999999996 77.21000000000001 L 496.91499999999996 140 L 513.9449999999999 140 L 513.9449999999999 77.21000000000001 L 533.5749999999999 77.21000000000001 Z M 608.5849999999999 62 L 583.755 115.95 L 559.185 62 L 540.5949999999999 62 L 540.5949999999999 140 L 557.755 140 L 557.755 93.46000000000001 L 578.8149999999999 140 L 588.6949999999999 140 L 609.885 93.59 L 609.885 140 L 627.045 140 L 627.045 62 Z M 689.9649999999999 77.08 L 689.9649999999999 62 L 643.035 62 L 643.035 140 L 689.9649999999999 140 L 689.9649999999999 124.92 L 660.1949999999999 124.92 L 660.1949999999999 108.53999999999999 L 685.675 108.53999999999999 L 685.675 93.46000000000001 L 660.1949999999999 93.46000000000001 L 660.1949999999999 77.08 Z" fill-opacity="1"/></g><g><path fill="rgb(245,158,11)" stroke="none" paint-order="stroke fill markers" d=" M 210.025 189.95 C 210.025 183.7 205.725 179.55 199.275 179.55 C 192.825 179.55 188.275 183.75 188.275 190 C 188.275 196.25 192.775 200.4 199.475 200.4 C 205.025 200.4 208.725 197.45 209.725 193.1 L 203.575 193.1 C 203.025 194.7 201.575 195.65 199.375 195.65 C 196.475 195.65 194.975 193.9 194.725 191.05 L 210.025 191.05 Z M 199.375 184.45 C 201.525 184.45 202.775 185.45 203.42499999999998 187.2 L 195.125 187.2 C 195.775 185.5 197.125 184.45 199.375 184.45 Z M 214.475 200 L 220.875 200 L 220.875 165.75 L 214.475 165.75 Z M 249.07500000000002 194.8 C 248.22500000000002 194.8 247.32500000000002 194.5 247.32500000000002 192.85 L 247.32500000000002 180 L 240.97500000000002 180 L 240.97500000000002 181.75 C 239.47500000000002 180.4 237.57500000000002 179.6 235.275 179.6 C 229.72500000000002 179.6 225.37500000000003 184.2 225.37500000000003 190 C 225.37500000000003 195.8 229.72500000000002 200.4 235.275 200.4 C 238.175 200.4 240.525 199.1 242.12500000000003 197 C 243.37500000000003 199.05 245.57500000000002 200.4 248.27500000000003 200.4 C 248.925 200.4 249.52500000000003 200.2 249.97500000000002 200 L 249.97500000000002 194.8 Z M 236.525 194.75 C 233.87500000000003 194.75 231.775 192.65 231.775 190 C 231.775 187.35 233.87500000000003 185.25 236.525 185.25 C 239.12500000000003 185.25 241.275 187.35 241.275 190 C 241.275 192.65 239.12500000000003 194.75 236.525 194.75 Z M 257.475 200.4 C 259.475 200.4 261.175 198.75 261.175 196.75 C 261.175 194.75 259.475 193.1 257.475 193.1 C 255.52500000000003 193.1 253.87500000000003 194.75 253.87500000000003 196.75 C 253.87500000000003 198.75 255.52500000000003 200.4 257.475 200.4 Z M 281.425 165.75 L 281.425 181.75 C 279.925 180.4 278.02500000000003 179.6 275.725 179.6 C 270.175 179.6 265.82500000000005 184.2 265.82500000000005 190 C 265.82500000000005 195.8 270.175 200.4 275.725 200.4 C 278.02500000000003 200.4 279.925 199.6 281.425 198.25 L 281.425 200.05 L 287.77500000000003 200 L 287.77500000000003 165.75 Z M 276.975 194.75 C 274.32500000000005 194.75 272.225 192.65 272.225 190 C 272.225 187.35 274.32500000000005 185.25 276.975 185.25 C 279.57500000000005 185.25 281.725 187.35 281.725 190 C 281.725 192.65 279.57500000000005 194.75 276.975 194.75 Z M 314.02500000000003 189.95 C 314.02500000000003 183.7 309.725 179.55 303.27500000000003 179.55 C 296.82500000000005 179.55 292.27500000000003 183.75 292.27500000000003 190 C 292.27500000000003 196.25 296.77500000000003 200.4 303.475 200.4 C 309.02500000000003 200.4 312.725 197.45 313.725 193.1 L 307.57500000000005 193.1 C 307.02500000000003 194.7 305.57500000000005 195.65 303.375 195.65 C 300.475 195.65 298.975 193.9 298.725 191.05 L 314.02500000000003 191.05 Z M 303.375 184.45 C 305.52500000000003 184.45 306.77500000000003 185.45 307.425 187.2 L 299.125 187.2 C 299.77500000000003 185.5 301.125 184.45 303.375 184.45 Z M 330.52500000000003 180 L 326.32500000000005 193.15 L 322.07500000000005 180 L 315.27500000000003 180 L 323.27500000000003 200 L 329.27500000000003 200 L 337.37500000000006 180 Z M 343.87500000000006 200.4 C 345.87500000000006 200.4 347.57500000000005 198.75 347.57500000000005 196.75 C 347.57500000000005 194.75 345.87500000000006 193.1 343.87500000000006 193.1 C 341.92500000000007 193.1 340.27500000000003 194.75 340.27500000000003 196.75 C 340.27500000000003 198.75 341.92500000000007 200.4 343.87500000000006 200.4 Z M 356.92500000000007 176.65 C 358.82500000000005 176.65 360.42500000000007 175.05 360.42500000000007 173.15 C 360.42500000000007 171.2 358.82500000000005 169.65 356.92500000000007 169.65 C 355.0250000000001 169.65 353.42500000000007 171.2 353.42500000000007 173.15 C 353.42500000000007 175.05 355.0250000000001 176.65 356.92500000000007 176.65 Z M 352.2750000000001 212 C 356.4750000000001 212 360.07500000000005 208.7 360.07500000000005 204.45 L 360.07500000000005 180 L 353.7250000000001 180 L 353.7250000000001 203.7 C 353.7250000000001 205.35 352.7750000000001 206.4 351.4750000000001 206.4 L 349.0250000000001 206.4 L 349.0250000000001 211.35 C 349.57500000000005 211.7 350.92500000000007 212 352.2750000000001 212 Z M 375.87500000000006 200.4 C 382.57500000000005 200.4 386.9750000000001 196 386.9750000000001 190 C 386.9750000000001 184 382.57500000000005 179.6 375.87500000000006 179.6 C 369.17500000000007 179.6 364.7250000000001 184 364.7250000000001 190 C 364.7250000000001 196 369.17500000000007 200.4 375.87500000000006 200.4 Z M 375.87500000000006 194.75 C 373.12500000000006 194.7 371.12500000000006 192.7 371.12500000000006 190 C 371.12500000000006 187.3 373.12500000000006 185.3 375.87500000000006 185.25 C 378.57500000000005 185.3 380.62500000000006 187.3 380.62500000000006 190 C 380.62500000000006 192.7 378.57500000000005 194.7 375.87500000000006 194.75 Z M 403.62500000000006 179.6 C 401.32500000000005 179.6 399.42500000000007 180.4 397.92500000000007 181.75 L 397.92500000000007 165.75 L 391.52500000000003 165.75 L 391.52500000000003 200 L 397.92500000000007 200.05 L 397.92500000000007 198.25 C 399.42500000000007 199.6 401.32500000000005 200.4 403.62500000000006 200.4 C 409.12500000000006 200.4 413.475 195.8 413.475 190 C 413.475 184.2 409.12500000000006 179.6 403.62500000000006 179.6 Z M 402.37500000000006 194.75 C 399.725 194.75 397.62500000000006 192.65 397.62500000000006 190 C 397.62500000000006 187.35 399.725 185.25 402.37500000000006 185.25 C 405.02500000000003 185.25 407.12500000000006 187.35 407.12500000000006 190 C 407.12500000000006 192.65 405.02500000000003 194.75 402.37500000000006 194.75 Z M 436.62500000000006 194.05 L 436.62500000000006 185.35 C 436.62500000000006 181.25 432.925 178.05 428.175 178.05 C 422.175 178.05 417.37500000000006 182.9 417.37500000000006 188.95 C 417.37500000000006 195.15 422.37500000000006 200 428.77500000000003 200 L 436.62500000000006 200 L 436.62500000000006 196.35 L 428.77500000000003 196.35 C 424.475 196.35 421.02500000000003 193.15 421.02500000000003 188.95 C 421.02500000000003 184.95 424.225 181.7 428.175 181.7 C 430.87500000000006 181.7 432.975 183.35 432.975 185.35 L 432.975 185.75 C 432.07500000000005 184.95 430.725 184.45 429.475 184.45 C 426.82500000000005 184.45 424.62500000000006 186.65 424.62500000000006 189.45 C 424.62500000000006 192.3 426.82500000000005 194.5 429.52500000000003 194.5 C 430.675 194.5 432.02500000000003 194.05 432.975 193.3 L 432.975 194.05 Z M 431.07500000000005 191.45 C 429.82500000000005 191.45 428.87500000000006 190.6 428.87500000000006 189.45 C 428.87500000000006 188.3 429.82500000000005 187.45 431.07500000000005 187.45 C 431.87500000000006 187.45 432.57500000000005 187.85 432.975 188.45 L 432.975 190.45 C 432.57500000000005 191.05 431.87500000000006 191.45 431.07500000000005 191.45 Z M 464.27500000000003 180 L 457.875 180 L 457.875 182 C 456.225 180.5 454.075 179.6 451.625 179.6 C 446.075 179.6 441.725 184.15 441.725 190 C 441.725 195.8 446.075 200.4 451.625 200.4 C 454.125 200.4 456.325 199.45 457.975 197.9 L 457.975 200.55 C 457.975 204.25 455.925 206.5 452.675 206.5 C 450.375 206.5 448.625 205.25 447.875 203.25 L 442.02500000000003 205.6 C 443.675 209.7 447.425 212.05 452.675 212.05 C 459.975 212.05 464.325 207.6 464.325 200.2 Z M 453.225 194.75 C 450.575 194.75 448.475 192.65 448.475 190 C 448.475 187.35 450.575 185.25 453.225 185.25 C 455.875 185.25 458.02500000000003 187.35 458.02500000000003 190 C 458.02500000000003 192.65 455.875 194.75 453.225 194.75 Z M 494.125 179.6 C 491.275 179.6 489.075 180.9 487.825 183.1 C 486.675 181 484.675 179.6 482.125 179.6 C 479.825 179.6 477.97499999999997 180.7 476.675 182.45 L 476.675 180 L 470.275 180 L 470.275 200 L 476.675 200 L 476.675 188.4 C 476.675 186.95 477.575 185.25 479.525 185.25 C 481.275 185.25 482.425 186.65 482.425 188.4 L 482.425 200 L 488.825 200 L 488.825 188.4 C 488.825 186.95 489.72499999999997 185.25 491.675 185.25 C 493.425 185.25 494.625 186.65 494.625 188.4 L 494.625 200 L 500.97499999999997 200 L 500.97499999999997 187.35 C 500.97499999999997 182.7 498.525 179.6 494.125 179.6 Z M 528.775 194.8 C 527.925 194.8 527.025 194.5 527.025 192.85 L 527.025 180 L 520.675 180 L 520.675 181.75 C 519.175 180.4 517.275 179.6 514.975 179.6 C 509.42499999999995 179.6 505.075 184.2 505.075 190 C 505.075 195.8 509.42499999999995 200.4 514.975 200.4 C 517.875 200.4 520.225 199.1 521.8249999999999 197 C 523.0749999999999 199.05 525.275 200.4 527.975 200.4 C 528.625 200.4 529.225 200.2 529.675 200 L 529.675 194.8 Z M 516.225 194.75 C 513.5749999999999 194.75 511.47499999999997 192.65 511.47499999999997 190 C 511.47499999999997 187.35 513.5749999999999 185.25 516.225 185.25 C 518.8249999999999 185.25 520.975 187.35 520.975 190 C 520.975 192.65 518.8249999999999 194.75 516.225 194.75 Z M 536.675 176.65 C 538.5749999999999 176.65 540.175 175.05 540.175 173.15 C 540.175 171.2 538.5749999999999 169.65 536.675 169.65 C 534.775 169.65 533.175 171.2 533.175 173.15 C 533.175 175.05 534.775 176.65 536.675 176.65 Z M 533.4749999999999 200 L 539.8249999999999 200 L 539.8249999999999 180 L 533.4749999999999 180 Z M 545.875 200 L 552.275 200 L 552.275 165.75 L 545.875 165.75 Z M 561.9749999999999 200.4 C 563.9749999999999 200.4 565.675 198.75 565.675 196.75 C 565.675 194.75 563.9749999999999 193.1 561.9749999999999 193.1 C 560.0249999999999 193.1 558.3749999999999 194.75 558.3749999999999 196.75 C 558.3749999999999 198.75 560.0249999999999 200.4 561.9749999999999 200.4 Z M 581.4749999999999 200.4 C 587.4749999999999 200.4 591.5749999999998 196.9 592.4249999999998 191.9 L 585.8249999999998 191.9 C 585.1749999999998 193.6 583.5249999999999 194.7 581.4749999999999 194.75 C 578.7249999999999 194.7 576.7249999999999 192.7 576.7249999999999 190 C 576.7249999999999 187.3 578.7249999999999 185.3 581.4749999999999 185.25 C 583.5249999999999 185.3 585.1749999999998 186.4 585.8249999999998 188.1 L 592.4249999999998 188.1 C 591.5749999999998 183.1 587.4749999999999 179.6 581.4749999999999 179.6 C 574.7749999999999 179.6 570.3249999999998 184 570.3249999999998 190 C 570.3249999999998 196 574.7749999999999 200.4 581.4749999999999 200.4 Z M 606.2749999999999 200.4 C 612.9749999999998 200.4 617.3749999999998 196 617.3749999999998 190 C 617.3749999999998 184 612.9749999999998 179.6 606.2749999999999 179.6 C 599.5749999999998 179.6 595.1249999999998 184 595.1249999999998 190 C 595.1249999999998 196 599.5749999999998 200.4 606.2749999999999 200.4 Z M 606.2749999999999 194.75 C 603.5249999999999 194.7 601.5249999999999 192.7 601.5249999999999 190 C 601.5249999999999 187.3 603.5249999999999 185.3 606.2749999999999 185.25 C 608.9749999999998 185.3 611.0249999999999 187.3 611.0249999999999 190 C 611.0249999999999 192.7 608.9749999999998 194.7 606.2749999999999 194.75 Z M 645.7749999999997 179.6 C 642.9249999999998 179.6 640.7249999999998 180.9 639.4749999999998 183.1 C 638.3249999999998 181 636.3249999999998 179.6 633.7749999999997 179.6 C 631.4749999999998 179.6 629.6249999999998 180.7 628.3249999999998 182.45 L 628.3249999999998 180 L 621.9249999999998 180 L 621.9249999999998 200 L 628.3249999999998 200 L 628.3249999999998 188.4 C 628.3249999999998 186.95 629.2249999999998 185.25 631.1749999999998 185.25 C 632.9249999999998 185.25 634.0749999999998 186.65 634.0749999999998 188.4 L 634.0749999999998 200 L 640.4749999999998 200 L 640.4749999999998 188.4 C 640.4749999999998 186.95 641.3749999999998 185.25 643.3249999999998 185.25 C 645.0749999999998 185.25 646.2749999999997 186.65 646.2749999999997 188.4 L 646.2749999999997 200 L 652.6249999999998 200 L 652.6249999999998 187.35 C 652.6249999999998 182.7 650.1749999999998 179.6 645.7749999999997 179.6 Z" fill-opacity="1"/></g><g><path fill="rgb(245,158,11)" stroke="none" paint-order="stroke fill markers" d=" M 47.19999999999999 278.6 C 59.94999999999999 278.6 70.29999999999998 268.25 70.29999999999998 255.5 C 70.29999999999998 242.75 59.94999999999999 232.4 47.19999999999999 232.4 C 34.52499999999999 232.4 24.099999999999987 242.75 24.099999999999987 255.5 C 24.099999999999987 268.25 34.52499999999999 278.6 47.19999999999999 278.6 Z M 47.19999999999999 273.575 C 37.07499999999999 273.575 29.12499999999999 265.625 29.12499999999999 255.5 C 29.12499999999999 245.375 37.07499999999999 237.425 47.19999999999999 237.425 C 57.399999999999984 237.425 65.27499999999998 245.375 65.27499999999998 255.5 C 65.27499999999998 265.625 57.399999999999984 273.575 47.19999999999999 273.575 Z M 47.27499999999999 266.375 C 53.27499999999999 266.375 57.32499999999999 262.7 58.22499999999999 257.525 L 51.624999999999986 257.525 C 50.94999999999999 259.325 49.29999999999998 260.45 47.27499999999999 260.525 C 44.499999999999986 260.45 42.54999999999998 258.35 42.54999999999998 255.575 C 42.54999999999998 252.8 44.499999999999986 250.7 47.27499999999999 250.7 C 49.29999999999998 250.7 50.94999999999999 251.825 51.624999999999986 253.625 L 58.22499999999999 253.625 C 57.32499999999999 248.45 53.27499999999999 244.85 47.27499999999999 244.85 C 40.59999999999999 244.85 36.17499999999999 249.35 36.17499999999999 255.575 C 36.17499999999999 261.8 40.59999999999999 266.375 47.27499999999999 266.375 Z M 123.02499999999998 241.7 L 123.02499999999998 233 L 95.94999999999997 233 L 95.94999999999997 278 L 123.02499999999998 278 L 123.02499999999998 269.3 L 105.84999999999998 269.3 L 105.84999999999998 259.85 L 120.54999999999998 259.85 L 120.54999999999998 251.15 L 105.84999999999998 251.15 L 105.84999999999998 241.7 Z M 148.52499999999998 247.4 C 144.99999999999997 247.4 142.07499999999996 249.2 140.12499999999997 252.125 L 140.12499999999997 248 L 130.52499999999998 248 L 130.52499999999998 278 L 140.12499999999997 278 L 140.12499999999997 263.675 C 140.12499999999997 258.725 143.49999999999997 255.875 148.22499999999997 255.875 C 149.34999999999997 255.875 150.32499999999996 256.025 150.99999999999997 256.175 L 150.99999999999997 247.7 C 150.32499999999996 247.475 149.42499999999995 247.4 148.52499999999998 247.4 Z M 160.22499999999997 242.975 C 163.07499999999996 242.975 165.47499999999997 240.575 165.47499999999997 237.725 C 165.47499999999997 234.8 163.07499999999996 232.475 160.22499999999997 232.475 C 157.37499999999997 232.475 154.97499999999997 234.8 154.97499999999997 237.725 C 154.97499999999997 240.575 157.37499999999997 242.975 160.22499999999997 242.975 Z M 155.42499999999995 278 L 164.94999999999996 278 L 164.94999999999996 248 L 155.42499999999995 248 Z M 188.64999999999998 278.6 C 197.64999999999998 278.6 203.79999999999995 273.35 205.07499999999996 265.85 L 195.17499999999995 265.85 C 194.19999999999996 268.4 191.72499999999997 270.05 188.64999999999998 270.125 C 184.52499999999998 270.05 181.52499999999998 267.05 181.52499999999998 263 C 181.52499999999998 258.95 184.52499999999998 255.95 188.64999999999998 255.875 C 191.72499999999997 255.95 194.19999999999996 257.6 195.17499999999995 260.15 L 205.07499999999996 260.15 C 203.79999999999995 252.65 197.64999999999998 247.4 188.64999999999998 247.4 C 178.59999999999997 247.4 171.92499999999995 254 171.92499999999995 263 C 171.92499999999995 272 178.59999999999997 278.6 188.64999999999998 278.6 Z M 239.12499999999994 269.225 L 239.12499999999994 233 L 229.22499999999997 233 L 229.22499999999997 278 L 254.04999999999995 278 L 254.04999999999995 269.225 Z M 264.32499999999993 278.6 C 267.32499999999993 278.6 269.87499999999994 276.125 269.87499999999994 273.125 C 269.87499999999994 270.125 267.32499999999993 267.65 264.32499999999993 267.65 C 261.4 267.65 258.92499999999995 270.125 258.92499999999995 273.125 C 258.92499999999995 276.125 261.4 278.6 264.32499999999993 278.6 Z M 306.47499999999997 278 L 317.04999999999995 278 L 300.84999999999997 233 L 289.75 233 L 273.54999999999995 278 L 284.125 278 L 286.9 269.525 L 303.7 269.525 Z M 289.525 261.275 L 295.29999999999995 243.425 L 301.075 261.275 Z M 326.2 278.6 C 329.2 278.6 331.75 276.125 331.75 273.125 C 331.75 270.125 329.2 267.65 326.2 267.65 C 323.275 267.65 320.8 270.125 320.8 273.125 C 320.8 276.125 323.275 278.6 326.2 278.6 Z M 370.75 269.525 L 377.79999999999995 260.75 C 383.72499999999997 253.325 385.525 250.4 385.525 245.15 C 385.525 237.725 379.525 232.325 371.72499999999997 232.325 C 363.54999999999995 232.325 356.34999999999997 238.175 357.09999999999997 246.575 L 366.4 246.575 C 365.95 243.05 368.275 240.875 371.275 240.875 C 373.525 240.875 376.22499999999997 242 376.22499999999997 246.05 C 376.22499999999997 248.075 375.7 249.425 370.97499999999997 255.425 L 353.34999999999997 278 L 386.34999999999997 278 L 386.34999999999997 269.525 Z M 409.3 278.6 C 420.4 278.6 426.1 269.225 426.1 255.5 C 426.1 241.775 420.4 232.4 409.3 232.4 C 398.05 232.4 392.425 241.775 392.425 255.5 C 392.425 269.225 398.05 278.6 409.3 278.6 Z M 409.3 270.125 C 403.825 270.125 402.025 264.275 402.025 255.5 C 402.025 246.725 403.825 240.875 409.3 240.875 C 414.7 240.875 416.5 246.725 416.5 255.5 C 416.5 264.275 414.7 270.125 409.3 270.125 Z M 446.20000000000005 269.525 L 453.25 260.75 C 459.175 253.325 460.975 250.4 460.975 245.15 C 460.975 237.725 454.975 232.325 447.175 232.325 C 439 232.325 431.8 238.175 432.55 246.575 L 441.85 246.575 C 441.40000000000003 243.05 443.725 240.875 446.725 240.875 C 448.975 240.875 451.675 242 451.675 246.05 C 451.675 248.075 451.15000000000003 249.425 446.425 255.425 L 428.8 278 L 461.8 278 L 461.8 269.525 Z M 499.6 260 L 495.92500000000007 260 L 495.92500000000007 233 L 483.77500000000003 233 L 465.02500000000003 268.55 L 486.32500000000005 268.55 L 486.32500000000005 278 L 495.92500000000007 278 L 495.92500000000007 268.55 L 499.6 268.55 Z M 477.1 260 L 486.32500000000005 241.775 L 486.32500000000005 260 Z" fill-opacity="1"/></g><g><path fill="rgb(245,158,11)" stroke="none" paint-order="stroke fill markers" d=" M 422.234375 296.75 L 398.328125 296.75 L 398.328125 353 L 410.703125 353 L 410.703125 330.21875 L 422.234375 330.21875 C 431.703125 330.21875 439.015625 323.1875 439.015625 313.71875 C 439.015625 304.34375 431.703125 296.75 422.234375 296.75 Z M 420.265625 320 L 410.703125 320 L 410.703125 307.625 L 420.265625 307.625 C 424.203125 307.625 427.203125 310.15625 427.203125 313.8125 C 427.203125 317.5625 424.203125 320 420.265625 320 Z M 479.328125 353 L 492.546875 353 L 472.296875 296.75 L 458.421875 296.75 L 438.171875 353 L 451.390625 353 L 454.859375 342.40625 L 475.859375 342.40625 Z M 458.140625 332.09375 L 465.359375 309.78125 L 472.578125 332.09375 Z M 526.203125 329.84375 C 532.859375 327.875 537.546875 321.6875 537.546875 314 C 537.546875 304.4375 530.421875 296.75 520.765625 296.75 L 496.859375 296.75 L 496.859375 353 L 509.234375 353 L 509.234375 331.25 L 514.203125 331.25 L 528.078125 353 L 541.953125 353 Z M 518.890625 321.03125 L 509.234375 321.03125 L 509.234375 307.71875 L 518.890625 307.71875 C 522.828125 307.71875 525.734375 310.53125 525.734375 314.375 C 525.734375 318.3125 522.828125 321.03125 518.890625 321.03125 Z M 547.484375 353 L 559.859375 353 L 559.859375 296.75 L 547.484375 296.75 Z M 588.640625 353.75 C 599.140625 353.75 608.046875 347.5625 608.046875 337.0625 C 608.046875 316.25 582.171875 321.40625 582.171875 311.65625 C 582.171875 308.46875 584.609375 306.96875 587.609375 306.96875 C 590.796875 306.96875 593.984375 308.75 596.796875 311.84375 L 605.046875 303.96875 C 600.921875 299.1875 594.640625 296 587.703125 296 C 578.796875 296 569.703125 301.34375 569.703125 312.59375 C 569.703125 331.71875 595.671875 327.125 595.671875 336.96875 C 595.671875 340.0625 593.046875 342.125 588.734375 342.125 C 583.578125 342.125 579.546875 339.21875 577.484375 334.8125 L 567.265625 341.1875 C 570.921875 348.21875 578.796875 353.75 588.640625 353.75 Z" fill-opacity="1"/></g><g><path fill="rgb(245,158,11)" stroke="none" paint-order="stroke fill markers" d=" M 220.86874999999998 353.45 C 230.48749999999998 353.45 238.19374999999997 345.6875 238.19374999999997 336.125 C 238.19374999999997 326.5625 230.48749999999998 318.8 220.86874999999998 318.8 C 211.30624999999998 318.8 203.54375 326.5625 203.54375 336.125 C 203.54375 345.6875 211.30624999999998 353.45 220.86874999999998 353.45 Z M 220.86874999999998 346.19375 C 215.18749999999997 346.19375 210.85625 341.80625 210.85625 336.125 C 210.85625 330.44375 215.18749999999997 326.05625 220.86874999999998 326.05625 C 226.60625 326.05625 230.93749999999997 330.44375 230.93749999999997 336.125 C 230.93749999999997 341.80625 226.60625 346.19375 220.86874999999998 346.19375 Z M 257.15 330.05 C 254.50625 330.05 252.31249999999997 331.4 250.85 333.59375 L 250.85 330.5 L 243.64999999999998 330.5 L 243.64999999999998 353 L 250.85 353 L 250.85 342.25625 C 250.85 338.54375 253.38125 336.40625 256.92499999999995 336.40625 C 257.76874999999995 336.40625 258.5 336.51875 259.00624999999997 336.63125 L 259.00624999999997 330.275 C 258.5 330.10625 257.825 330.05 257.15 330.05 Z M 262.2125 353 L 269.41249999999997 353 L 269.41249999999997 314.46875 L 262.2125 314.46875 Z M 296.07499999999993 319.19375 L 289.26874999999995 319.19375 L 284.3187499999999 327.575 L 289.04374999999993 327.575 Z M 298.9437499999999 341.69375 C 298.9437499999999 334.6625 294.10624999999993 329.99375 286.8499999999999 329.99375 C 279.59374999999994 329.99375 274.4749999999999 334.71875 274.4749999999999 341.75 C 274.4749999999999 348.78125 279.5374999999999 353.45 287.07499999999993 353.45 C 293.3187499999999 353.45 297.48124999999993 350.13125 298.60624999999993 345.2375 L 291.68749999999994 345.2375 C 291.0687499999999 347.0375 289.43749999999994 348.10625 286.9624999999999 348.10625 C 283.69999999999993 348.10625 282.01249999999993 346.1375 281.73124999999993 342.93125 L 298.9437499999999 342.93125 Z M 286.9624999999999 335.50625 C 289.3812499999999 335.50625 290.7874999999999 336.63125 291.51874999999995 338.6 L 282.1812499999999 338.6 C 282.9124999999999 336.6875 284.4312499999999 335.50625 286.9624999999999 335.50625 Z M 329.0374999999999 347.15 C 328.0812499999999 347.15 327.0687499999999 346.8125 327.0687499999999 344.95625 L 327.0687499999999 330.5 L 319.9249999999999 330.5 L 319.9249999999999 332.46875 C 318.2374999999999 330.95 316.0999999999999 330.05 313.51249999999993 330.05 C 307.2687499999999 330.05 302.3749999999999 335.225 302.3749999999999 341.75 C 302.3749999999999 348.275 307.2687499999999 353.45 313.51249999999993 353.45 C 316.7749999999999 353.45 319.41874999999993 351.9875 321.2187499999999 349.625 C 322.6249999999999 351.93125 325.0999999999999 353.45 328.13749999999993 353.45 C 328.8687499999999 353.45 329.54374999999993 353.225 330.0499999999999 353 L 330.0499999999999 347.15 Z M 314.91874999999993 347.09375 C 311.9374999999999 347.09375 309.57499999999993 344.73125 309.57499999999993 341.75 C 309.57499999999993 338.76875 311.9374999999999 336.40625 314.91874999999993 336.40625 C 317.8437499999999 336.40625 320.26249999999993 338.76875 320.26249999999993 341.75 C 320.26249999999993 344.73125 317.8437499999999 347.09375 314.91874999999993 347.09375 Z M 347.8249999999999 330.05 C 345.2374999999999 330.05 342.9874999999999 331.2875 341.4124999999999 333.25625 L 341.4124999999999 330.5 L 334.2124999999999 330.5 L 334.2124999999999 353 L 341.4124999999999 353 L 341.4124999999999 339.95 C 341.4124999999999 337.925 343.0999999999999 336.40625 345.1812499999999 336.40625 C 347.2624999999999 336.40625 348.7249999999999 337.925 348.7249999999999 339.95 L 348.7249999999999 353 L 355.8687499999999 353 L 355.8687499999999 338.76875 C 355.8687499999999 333.81875 352.2687499999999 330.05 347.8249999999999 330.05 Z M 369.3124999999999 353.45 C 374.3749999999999 353.45 377.4687499999999 350.35625 377.4687499999999 346.1375 C 377.4687499999999 341.6375 373.7562499999999 339.8375 370.5499999999999 338.6 C 368.9187499999999 337.925 368.1312499999999 337.5875 368.1312499999999 336.74375 C 368.1312499999999 336.0125 368.6937499999999 335.45 369.9312499999999 335.45 C 371.3937499999999 335.45 372.7437499999999 336.2375 373.4187499999999 337.08125 L 377.0187499999999 333.03125 C 375.3312499999999 331.34375 372.5749999999999 330.05 369.4249999999999 330.05 C 364.3062499999999 330.05 361.0437499999999 333.425 361.0437499999999 337.25 C 361.0437499999999 341.75 365.5437499999999 343.26875 368.1312499999999 344.225 C 370.1562499999999 345.0125 370.8312499999999 345.575 370.8312499999999 346.3625 C 370.8312499999999 347.2625 370.0437499999999 347.76875 368.8624999999999 347.76875 C 367.6812499999999 347.76875 366.1062499999999 347.31875 365.0937499999999 345.40625 L 359.8062499999999 348.05 C 361.1562499999999 351.5375 365.3187499999999 353.45 369.3124999999999 353.45 Z" fill-opacity="1"/></g><g><path fill="rgb(245,158,11)" stroke="none" paint-order="stroke fill markers" d=" M 654.677734375 295.6640625 L 654.677734375 295.6640625 Q 670.17578125 295.6640625 680.107421875 309.7265625 L 680.107421875 309.7265625 Q 684.560546875 317.109375 684.560546875 325.546875 L 684.560546875 325.546875 L 684.560546875 326.103515625 Q 684.560546875 342.099609375 669.443359375 351.884765625 L 669.443359375 351.884765625 Q 661.9140625 355.810546875 654.47265625 355.810546875 L 654.47265625 355.810546875 Q 640.76171875 355.810546875 630.654296875 343.88671875 L 630.654296875 343.88671875 Q 624.58984375 335.5078125 624.58984375 325.37109375 L 624.58984375 325.37109375 Q 624.58984375 311.162109375 637.216796875 301.171875 L 637.216796875 301.171875 Q 645.361328125 295.6640625 654.677734375 295.6640625 Z M 637.392578125 326.279296875 L 637.392578125 326.279296875 Q 637.392578125 336.240234375 647.177734375 341.748046875 L 647.177734375 341.748046875 Q 650.95703125 343.359375 653.59375 343.359375 L 653.59375 343.359375 L 655.556640625 343.359375 Q 662.880859375 343.359375 668.7109375 336.064453125 L 668.7109375 336.064453125 Q 671.7578125 331.5234375 671.7578125 326.630859375 L 671.7578125 326.630859375 L 671.7578125 326.279296875 Q 671.7578125 315.5859375 661.416015625 310.4296875 L 661.416015625 310.4296875 Q 657.900390625 309.0234375 654.47265625 309.0234375 L 654.47265625 309.0234375 Q 644.6875 309.0234375 639.00390625 318.80859375 L 639.00390625 318.80859375 Q 637.392578125 322.96875 637.392578125 326.279296875 Z M 654.296875 311.513671875 L 654.296875 311.513671875 Q 660.244140625 311.513671875 664.08203125 315.234375 L 664.08203125 315.234375 L 664.08203125 315.5859375 Q 658.984375 320.390625 656.787109375 320.390625 L 656.787109375 320.390625 Q 656.611328125 320.390625 652.158203125 313.271484375 L 652.158203125 313.271484375 Q 651.71875 313.271484375 651.455078125 311.865234375 L 651.455078125 311.865234375 Q 653.798828125 311.513671875 654.296875 311.513671875 Z M 648.4375 313.095703125 L 648.4375 313.095703125 Q 653.59375 320.390625 653.59375 321.474609375 L 653.59375 321.474609375 Q 647.001953125 323.232421875 640.615234375 323.232421875 L 640.615234375 323.232421875 L 640.439453125 322.880859375 L 640.439453125 322.705078125 Q 640.439453125 319.892578125 644.86328125 315.234375 L 644.86328125 315.234375 Q 647.44140625 313.095703125 648.4375 313.095703125 Z M 665.869140625 317.197265625 L 665.869140625 317.197265625 L 666.044921875 317.197265625 Q 669.267578125 320.947265625 669.267578125 325.927734375 L 669.267578125 325.927734375 Q 669.0625 325.927734375 669.0625 326.103515625 L 669.0625 326.103515625 Q 666.279296875 325.546875 662.5 325.37109375 L 662.5 325.37109375 Q 662.1484375 325.546875 661.97265625 325.546875 L 661.97265625 325.546875 L 661.591796875 325.37109375 Q 660.390625 325.546875 659.658203125 325.546875 L 659.658203125 325.546875 L 659.27734375 325.546875 Q 658.6328125 325.546875 658.046875 322.705078125 L 658.046875 322.705078125 Q 661.97265625 321.09375 665.869140625 317.197265625 Z M 654.853515625 323.7890625 L 654.853515625 323.7890625 Q 655.439453125 324.08203125 656.083984375 326.103515625 L 656.083984375 326.103515625 Q 651.162109375 327.802734375 646.650390625 332.138671875 L 646.650390625 332.138671875 Q 643.984375 335.56640625 643.6328125 335.712890625 L 643.6328125 335.712890625 L 643.45703125 335.712890625 Q 639.8828125 331.640625 639.8828125 326.103515625 L 639.8828125 326.103515625 Q 640.322265625 325.72265625 640.615234375 325.72265625 L 640.615234375 325.72265625 Q 647.646484375 325.72265625 654.853515625 323.7890625 Z M 662.67578125 327.685546875 L 662.67578125 327.685546875 Q 669.0625 327.919921875 669.0625 328.9453125 L 669.0625 328.9453125 Q 668.18359375 333.515625 664.2578125 337.470703125 L 664.2578125 337.470703125 Q 663.90625 337.470703125 663.203125 338.203125 L 663.203125 338.203125 L 663.02734375 338.203125 Q 662.705078125 338.14453125 660.888671875 330.3515625 L 660.888671875 330.3515625 Q 660.654296875 330.3515625 660.009765625 328.037109375 L 660.009765625 328.037109375 Q 661.064453125 327.685546875 662.67578125 327.685546875 Z M 656.962890625 328.76953125 L 657.16796875 328.76953125 Q 659.27734375 333.69140625 660.361328125 339.609375 L 660.361328125 339.609375 Q 658.10546875 340.869140625 655.732421875 340.869140625 L 655.732421875 340.869140625 L 653.41796875 340.869140625 Q 649.84375 340.869140625 645.947265625 338.02734375 L 645.947265625 338.02734375 Q 645.771484375 337.705078125 645.771484375 337.294921875 L 645.771484375 337.294921875 Q 649.7265625 331.259765625 656.962890625 328.76953125 L 656.962890625 328.76953125 Z" fill-opacity="1"/></g><g><path fill="rgb(245,158,11)" stroke="none" paint-order="stroke fill markers" d=" M 142.16796875 424.8046875 L 141.11328125 424.21875 L 141.81640625 423.28125 Q 141.58203125 423.046875 141.34765625 422.8125 Q 141.11328125 422.578125 140.87890625 422.34375 L 140.87890625 422.34375 L 141.58203125 421.40625 Q 142.05078125 421.640625 142.40234375 421.875 Q 142.75390625 422.109375 142.98828125 422.34375 L 142.98828125 422.34375 L 143.69140625 422.6953125 L 142.16796875 424.8046875 Z M 50.99609375 440.859375 L 50.05859375 440.15625 Q 50.52734375 439.5703125 51.171875 438.80859375 Q 51.81640625 438.046875 52.16796875 437.4609375 L 52.16796875 437.4609375 L 53.10546875 438.28125 Q 52.63671875 438.8671875 52.109375 439.51171875 Q 51.58203125 440.15625 50.99609375 440.859375 L 50.99609375 440.859375 Z M 55.68359375 435.5859375 L 54.98046875 434.765625 Q 55.56640625 434.1796875 56.15234375 433.59375 Q 56.73828125 433.0078125 57.44140625 432.421875 L 57.44140625 432.421875 L 58.37890625 433.4765625 Q 57.67578125 433.9453125 56.97265625 434.53125 Q 56.26953125 435.1171875 55.68359375 435.5859375 L 55.68359375 435.5859375 Z M 61.19140625 431.015625 L 60.13671875 430.078125 Q 60.95703125 429.609375 61.66015625 428.96484375 Q 62.36328125 428.3203125 63.30078125 427.96875 L 63.30078125 427.96875 L 63.88671875 428.7890625 Q 63.30078125 429.4921875 62.5390625 429.9609375 Q 61.77734375 430.4296875 61.19140625 431.015625 L 61.19140625 431.015625 Z M 67.05078125 426.9140625 L 65.99609375 426.09375 Q 66.93359375 425.625 67.63671875 425.15625 Q 68.33984375 424.6875 69.16015625 424.21875 L 69.16015625 424.21875 L 69.74609375 425.0390625 Q 69.16015625 425.625 68.3984375 426.03515625 Q 67.63671875 426.4453125 67.05078125 426.9140625 L 67.05078125 426.9140625 Z M 73.14453125 423.6328125 L 72.55859375 422.34375 Q 73.14453125 421.875 74.0234375 421.58203125 Q 74.90234375 421.2890625 75.60546875 420.8203125 L 75.60546875 420.8203125 L 76.30859375 422.109375 Q 75.37109375 422.34375 74.609375 422.6953125 Q 73.84765625 423.046875 73.14453125 423.6328125 L 73.14453125 423.6328125 Z M 138.41796875 419.53125 L 137.83203125 420.8203125 Q 137.12890625 420.3515625 136.25 420.1171875 Q 135.37109375 419.8828125 134.78515625 419.296875 L 134.78515625 419.296875 L 135.01953125 418.125 Q 135.95703125 418.59375 136.71875 418.9453125 Q 137.48046875 419.296875 138.41796875 419.53125 L 138.41796875 419.53125 Z M 79.23828125 420.46875 L 79.00390625 419.296875 Q 79.94140625 419.0625 80.703125 418.828125 Q 81.46484375 418.59375 82.40234375 418.125 L 82.40234375 418.125 L 82.63671875 419.296875 Q 82.05078125 419.53125 81.11328125 419.8828125 Q 80.17578125 420.234375 79.23828125 420.46875 L 79.23828125 420.46875 Z M 86.03515625 418.125 L 85.80078125 417.0703125 Q 86.73828125 416.6015625 87.5 416.42578125 Q 88.26171875 416.25 89.19921875 416.015625 L 89.19921875 416.015625 L 89.55078125 417.0703125 Q 88.61328125 417.3046875 87.79296875 417.59765625 Q 86.97265625 417.890625 86.03515625 418.125 L 86.03515625 418.125 Z M 131.62109375 416.8359375 L 131.38671875 418.125 Q 130.44921875 417.890625 129.62890625 417.48046875 Q 128.80859375 417.0703125 127.87109375 416.8359375 L 127.87109375 416.8359375 L 128.33984375 416.015625 Q 129.27734375 416.25 130.15625 416.42578125 Q 131.03515625 416.6015625 131.62109375 416.8359375 L 131.62109375 416.8359375 Z M 92.94921875 416.484375 L 92.94921875 415.3125 Q 93.53515625 415.078125 94.4140625 414.84375 Q 95.29296875 414.609375 96.23046875 414.375 L 96.23046875 414.375 L 96.58203125 415.546875 Q 95.64453125 415.8984375 94.70703125 416.07421875 Q 93.76953125 416.25 92.94921875 416.484375 L 92.94921875 416.484375 Z M 124.94140625 414.9609375 L 124.70703125 416.25 Q 123.76953125 416.015625 122.83203125 415.78125 Q 121.89453125 415.546875 121.19140625 415.3125 L 121.19140625 415.3125 L 121.19140625 414.140625 Q 122.12890625 414.375 123.06640625 414.55078125 Q 124.00390625 414.7265625 124.94140625 414.9609375 L 124.94140625 414.9609375 Z M 99.86328125 415.3125 L 99.62890625 414.140625 Q 100.56640625 413.7890625 101.50390625 413.73046875 Q 102.44140625 413.671875 103.26171875 413.4375 L 103.26171875 413.4375 L 103.26171875 414.7265625 Q 102.67578125 414.9609375 101.73828125 415.01953125 Q 100.80078125 415.078125 99.86328125 415.3125 L 99.86328125 415.3125 Z M 117.79296875 413.671875 L 117.55859375 414.9609375 Q 116.73828125 414.7265625 115.91796875 414.7265625 Q 115.09765625 414.7265625 114.16015625 414.7265625 L 114.16015625 414.7265625 L 114.16015625 413.4375 Q 115.09765625 413.4375 115.9765625 413.5546875 Q 116.85546875 413.671875 117.79296875 413.671875 L 117.79296875 413.671875 Z M 107.01171875 414.7265625 L 107.01171875 413.4375 L 110.17578125 413.4375 L 110.41015625 413.4375 L 110.41015625 414.7265625 L 109.82421875 414.7265625 L 107.01171875 414.7265625 Z M 46.66015625 446.953125 L 46.66015625 444.84375 L 46.66015625 442.96875 L 47.94921875 442.96875 L 48.76953125 443.5546875 Q 48.53515625 444.140625 48.359375 444.55078125 Q 48.18359375 444.9609375 47.94921875 445.1953125 L 47.94921875 445.1953125 L 46.66015625 446.953125 Z M 47.71484375 438.984375 L 46.42578125 439.3359375 Q 46.42578125 438.3984375 46.25 437.34375 Q 46.07421875 436.2890625 46.07421875 435.3515625 L 46.07421875 435.3515625 L 47.24609375 435.3515625 Q 47.24609375 436.2890625 47.48046875 437.16796875 Q 47.71484375 438.046875 47.71484375 438.984375 L 47.71484375 438.984375 Z M 46.66015625 431.3671875 L 45.37109375 431.6015625 Q 45.13671875 430.6640625 44.9609375 429.78515625 Q 44.78515625 428.90625 44.55078125 427.96875 L 44.55078125 427.96875 L 45.37109375 427.6171875 Q 45.95703125 428.5546875 46.19140625 429.4921875 Q 46.42578125 430.4296875 46.66015625 431.3671875 L 46.66015625 431.3671875 Z M 44.19921875 423.984375 L 43.26171875 424.21875 Q 42.79296875 423.28125 42.3828125 422.51953125 Q 41.97265625 421.7578125 41.38671875 420.8203125 L 41.38671875 420.8203125 L 42.67578125 420.234375 Q 43.14453125 421.171875 43.5546875 422.109375 Q 43.96484375 423.046875 44.19921875 423.984375 L 44.19921875 423.984375 Z M 40.80078125 416.8359375 L 39.51171875 417.421875 Q 39.16015625 416.71875 38.515625 416.015625 Q 37.87109375 415.3125 37.40234375 414.7265625 L 37.40234375 414.7265625 L 38.45703125 413.671875 Q 39.04296875 414.4921875 39.5703125 415.37109375 Q 40.09765625 416.25 40.80078125 416.8359375 L 40.80078125 416.8359375 Z M 35.52734375 410.9765625 L 34.70703125 411.796875 Q 34.35546875 411.5625 34.00390625 411.26953125 Q 33.65234375 410.9765625 33.41796875 410.7421875 L 33.41796875 410.7421875 L 32.83203125 410.390625 L 33.41796875 409.6875 Q 34.12109375 409.21875 34.70703125 408.515625 L 34.70703125 408.515625 L 35.52734375 409.453125 Q 35.29296875 409.6875 35.1171875 409.921875 Q 34.94140625 410.15625 34.70703125 410.390625 L 34.70703125 410.390625 Q 34.94140625 410.390625 35.52734375 410.9765625 L 35.52734375 410.9765625 Z M 140.64453125 411.5625 L 140.05859375 412.8515625 Q 139.12109375 412.3828125 138.359375 411.9140625 Q 137.59765625 411.4453125 136.66015625 410.9765625 L 136.66015625 410.9765625 L 137.12890625 409.6875 Q 138.06640625 410.2734375 138.88671875 410.68359375 Q 139.70703125 411.09375 140.64453125 411.5625 L 140.64453125 411.5625 Z M 134.19921875 407.8125 L 133.49609375 409.1015625 Q 132.55859375 408.6328125 131.796875 408.22265625 Q 131.03515625 407.8125 130.09765625 407.578125 L 130.09765625 407.578125 L 130.80078125 406.2890625 Q 132.08984375 407.4609375 134.19921875 407.8125 L 134.19921875 407.8125 Z M 38.45703125 407.34375 L 37.75390625 406.2890625 Q 39.16015625 405.1171875 40.80078125 404.1796875 L 40.80078125 404.1796875 L 41.38671875 405.1171875 Q 40.80078125 405.5859375 39.921875 406.23046875 Q 39.04296875 406.875 38.45703125 407.34375 L 38.45703125 407.34375 Z M 127.40234375 404.8828125 L 126.81640625 406.0546875 Q 125.87890625 405.5859375 125.1171875 405.17578125 Q 124.35546875 404.765625 123.41796875 404.4140625 L 123.41796875 404.4140625 L 123.65234375 403.359375 Q 124.58984375 403.7109375 125.52734375 404.00390625 Q 126.46484375 404.296875 127.40234375 404.8828125 L 127.40234375 404.8828125 Z M 44.55078125 403.359375 L 43.96484375 402.3046875 Q 44.90234375 401.8359375 45.78125 401.42578125 Q 46.66015625 401.015625 47.24609375 400.4296875 L 47.24609375 400.4296875 L 47.94921875 401.484375 Q 47.01171875 401.953125 46.25 402.36328125 Q 45.48828125 402.7734375 44.55078125 403.359375 L 44.55078125 403.359375 Z M 120.25390625 401.71875 L 119.90234375 403.0078125 Q 118.96484375 402.65625 118.0859375 402.3046875 Q 117.20703125 401.953125 116.26953125 401.71875 L 116.26953125 401.71875 L 116.85546875 400.4296875 Q 118.61328125 401.3671875 120.25390625 401.71875 L 120.25390625 401.71875 Z M 113.10546875 399.375 L 112.87109375 400.4296875 Q 111.93359375 400.1953125 111.0546875 399.9609375 Q 110.17578125 399.7265625 109.47265625 399.375 L 109.47265625 399.375 L 109.82421875 398.3203125 Q 110.76171875 398.5546875 111.46484375 398.7890625 Q 112.16796875 399.0234375 113.10546875 399.375 L 113.10546875 399.375 Z M 51.23046875 400.1953125 L 50.64453125 398.90625 Q 51.58203125 398.4375 52.51953125 398.203125 Q 53.45703125 397.96875 54.39453125 397.5 L 54.39453125 397.5 L 54.62890625 398.5546875 Q 53.69140625 399.140625 52.9296875 399.43359375 Q 52.16796875 399.7265625 51.23046875 400.1953125 L 51.23046875 400.1953125 Z M 106.19140625 397.1484375 L 105.83984375 398.3203125 Q 104.90234375 398.0859375 103.96484375 397.91015625 Q 103.02734375 397.734375 102.20703125 397.5 L 102.20703125 397.5 L 102.44140625 396.2109375 Q 103.37890625 396.4453125 104.31640625 396.6796875 Q 105.25390625 396.9140625 106.19140625 397.1484375 L 106.19140625 397.1484375 Z M 58.02734375 397.734375 L 57.79296875 396.4453125 Q 58.73046875 396.2109375 59.609375 396.03515625 Q 60.48828125 395.859375 61.42578125 395.625 L 61.42578125 395.625 L 61.77734375 396.796875 Q 60.83984375 397.03125 59.90234375 397.265625 Q 58.96484375 397.5 58.02734375 397.734375 L 58.02734375 397.734375 Z M 98.80859375 395.625 L 98.45703125 396.796875 Q 96.93359375 396.2109375 95.05859375 396.2109375 L 95.05859375 396.2109375 L 95.05859375 394.921875 Q 95.99609375 394.921875 96.93359375 395.15625 Q 97.87109375 395.390625 98.80859375 395.625 L 98.80859375 395.625 Z M 65.41015625 395.859375 L 65.17578125 394.5703125 Q 66.11328125 394.5703125 67.05078125 394.453125 Q 67.98828125 394.3359375 68.92578125 394.1015625 L 68.92578125 394.1015625 L 69.16015625 395.390625 Q 68.22265625 395.625 67.28515625 395.7421875 Q 66.34765625 395.859375 65.41015625 395.859375 L 65.41015625 395.859375 Z M 91.30859375 394.3359375 L 91.30859375 395.625 Q 90.37109375 395.390625 89.4921875 395.390625 Q 88.61328125 395.390625 87.67578125 395.390625 L 87.67578125 395.390625 L 87.67578125 394.1015625 Q 88.61328125 394.1015625 89.4921875 394.1015625 Q 90.37109375 394.1015625 91.30859375 394.3359375 L 91.30859375 394.3359375 Z M 72.91015625 394.921875 L 72.55859375 393.75 L 76.54296875 393.75 L 76.54296875 394.921875 L 72.91015625 394.921875 Z M 83.92578125 393.75 L 83.92578125 394.921875 Q 82.98828125 394.921875 82.109375 394.74609375 Q 81.23046875 394.5703125 80.29296875 394.5703125 L 80.29296875 394.5703125 L 80.29296875 393.515625 Q 81.23046875 393.515625 82.109375 393.6328125 Q 82.98828125 393.75 83.92578125 393.75 L 83.92578125 393.75 Z M 145.56640625 416.25 L 144.62890625 415.546875 Q 144.16015625 415.3125 143.8671875 415.13671875 Q 143.57421875 414.9609375 142.98828125 414.7265625 L 142.98828125 414.7265625 L 143.69140625 413.671875 Q 143.92578125 413.671875 144.16015625 413.90625 L 144.16015625 413.90625 Q 144.27734375 414.0234375 144.27734375 414.140625 L 144.27734375 414.140625 L 144.62890625 413.4375 L 145.80078125 413.4375 L 145.56640625 416.25 Z M 145.80078125 410.7421875 L 144.62890625 410.390625 L 144.86328125 407.578125 L 146.15234375 407.8125 L 145.80078125 410.7421875 Z M 146.38671875 405.1171875 L 145.33203125 404.8828125 L 145.56640625 401.1328125 L 147.44140625 404.1796875 L 146.38671875 405.1171875 Z M 158.80859375 423.984375 L 156.69921875 420.8203125 L 157.51953125 420.234375 L 159.62890625 423.28125 L 158.80859375 423.984375 Z M 154.35546875 417.7734375 L 152.59765625 414.7265625 L 153.53515625 413.671875 L 155.64453125 417.0703125 L 154.35546875 417.7734375 Z M 150.37109375 411.328125 L 148.61328125 408.1640625 L 149.55078125 407.578125 L 151.66015625 410.7421875 L 150.37109375 411.328125 Z M 160.68359375 429.2578125 L 160.33203125 428.203125 L 161.26953125 427.96875 L 160.68359375 427.3828125 L 161.73828125 426.6796875 L 163.37890625 428.7890625 L 160.68359375 429.2578125 Z M 141.81640625 431.953125 L 141.58203125 430.6640625 L 144.62890625 430.3125 L 144.86328125 431.3671875 L 141.81640625 431.953125 Z M 148.02734375 431.015625 L 148.02734375 429.7265625 L 151.07421875 429.4921875 L 151.07421875 430.6640625 L 148.02734375 431.015625 Z M 154.12109375 430.078125 L 154.12109375 428.7890625 L 157.28515625 428.4375 L 157.28515625 429.7265625 L 154.12109375 430.078125 Z M 135.37109375 432.890625 L 137.12890625 430.078125 L 138.18359375 430.6640625 L 138.18359375 431.015625 L 138.41796875 431.015625 L 138.76953125 432.1875 L 135.37109375 432.890625 Z M 139.70703125 428.7890625 L 138.41796875 428.203125 L 140.05859375 426.09375 L 140.87890625 426.6796875 L 139.70703125 428.7890625 Z M 50.41015625 447.5390625 L 43.02734375 458.7890625 Q 43.37890625 448.828125 42.91015625 441.73828125 Q 42.44140625 434.6484375 40.44921875 428.3203125 L 40.44921875 428.3203125 Q 39.62890625 425.7421875 38.1640625 423.046875 Q 36.69921875 420.3515625 34.8828125 418.0078125 Q 33.06640625 415.6640625 30.95703125 413.7890625 Q 28.84765625 411.9140625 26.73828125 410.9765625 L 26.73828125 410.9765625 L 31.30859375 406.9921875 Q 50.87890625 389.765625 79.23828125 389.765625 L 79.23828125 389.765625 Q 88.14453125 389.765625 97.4609375 391.81640625 Q 106.77734375 393.8671875 116.50390625 397.1484375 L 116.50390625 397.1484375 Q 123.30078125 399.4921875 129.51171875 402.12890625 Q 135.72265625 404.765625 141.81640625 408.28125 L 141.81640625 408.28125 L 143.45703125 390.9375 L 169.12109375 431.3671875 L 128.45703125 437.4609375 L 137.12890625 424.21875 Q 131.26953125 420.9375 124.47265625 419.6484375 Q 117.67578125 418.359375 109.82421875 418.359375 L 109.82421875 418.359375 Q 100.80078125 418.359375 92.01171875 420.46875 Q 83.22265625 422.578125 75.4296875 426.38671875 Q 67.63671875 430.1953125 61.19140625 435.5859375 Q 54.74609375 440.9765625 50.41015625 447.5390625 L 50.41015625 447.5390625 Z M 32.12890625 408.515625 L 29.78515625 410.390625 Q 32.48046875 412.6171875 34.4140625 414.66796875 Q 36.34765625 416.71875 37.75390625 418.76953125 Q 39.16015625 420.8203125 40.15625 423.10546875 Q 41.15234375 425.390625 42.08984375 428.0859375 L 42.08984375 428.0859375 Q 44.31640625 434.4140625 44.55078125 440.68359375 Q 44.78515625 446.953125 44.55078125 453.8671875 L 44.55078125 453.8671875 L 49.35546875 446.1328125 Q 53.80859375 439.453125 60.37109375 434.00390625 Q 66.93359375 428.5546875 74.90234375 424.6875 Q 82.87109375 420.8203125 91.77734375 418.65234375 Q 100.68359375 416.484375 109.82421875 416.484375 L 109.82421875 416.484375 Q 117.91015625 416.484375 125.41015625 418.06640625 Q 132.91015625 419.6484375 139.35546875 423.3984375 L 139.35546875 423.3984375 L 131.62109375 435 L 166.54296875 430.3125 L 144.27734375 395.625 L 142.75390625 410.9765625 L 141.81640625 410.390625 Q 129.74609375 403.0078125 115.91796875 398.3203125 L 115.91796875 398.3203125 Q 106.42578125 395.15625 97.28515625 393.3984375 Q 88.14453125 391.640625 79.23828125 391.640625 L 79.23828125 391.640625 Q 65.05859375 391.640625 53.33984375 395.91796875 Q 41.62109375 400.1953125 32.12890625 408.515625 L 32.12890625 408.515625 Z M 392.24609375 439.5703125 L 392.24609375 441.2109375 Q 390.95703125 441.2109375 389.84375 441.03515625 Q 388.73046875 440.859375 387.44140625 440.859375 L 387.44140625 440.859375 L 387.44140625 439.21875 Q 388.73046875 439.21875 389.84375 439.39453125 Q 390.95703125 439.5703125 392.24609375 439.5703125 L 392.24609375 439.5703125 Z M 397.16796875 440.859375 L 397.16796875 439.21875 Q 398.45703125 439.21875 399.5703125 439.16015625 Q 400.68359375 439.1015625 401.62109375 438.75 L 401.62109375 438.75 L 402.08984375 440.390625 Q 400.80078125 440.7421875 399.62890625 440.80078125 Q 398.45703125 440.859375 397.16796875 440.859375 L 397.16796875 440.859375 Z M 382.51953125 438.3984375 L 382.51953125 440.0390625 Q 381.23046875 440.0390625 380.05859375 439.74609375 Q 378.88671875 439.453125 377.59765625 439.21875 L 377.59765625 439.21875 L 378.06640625 437.578125 Q 379.35546875 437.8125 380.29296875 438.10546875 Q 381.23046875 438.3984375 382.51953125 438.3984375 L 382.51953125 438.3984375 Z M 406.89453125 439.5703125 L 406.54296875 437.9296875 Q 407.83203125 437.6953125 408.9453125 437.34375 Q 410.05859375 436.9921875 410.99609375 436.7578125 L 410.99609375 436.7578125 L 411.81640625 437.9296875 Q 410.52734375 438.515625 409.35546875 438.92578125 Q 408.18359375 439.3359375 406.89453125 439.5703125 L 406.89453125 439.5703125 Z M 373.14453125 435.9375 L 372.79296875 437.578125 Q 371.50390625 437.2265625 370.33203125 436.69921875 Q 369.16015625 436.171875 368.22265625 435.9375 L 368.22265625 435.9375 L 368.69140625 434.296875 Q 369.98046875 434.8828125 371.09375 435.234375 Q 372.20703125 435.5859375 373.14453125 435.9375 L 373.14453125 435.9375 Z M 416.26953125 436.2890625 L 415.44921875 434.6484375 Q 416.73828125 434.4140625 417.734375 433.828125 Q 418.73046875 433.2421875 420.01953125 432.65625 L 420.01953125 432.65625 L 420.72265625 433.828125 Q 419.55078125 434.4140625 418.5546875 435.05859375 Q 417.55859375 435.703125 416.26953125 436.2890625 L 416.26953125 436.2890625 Z M 364.58984375 432.3046875 L 363.76953125 433.4765625 Q 362.48046875 432.890625 361.6015625 432.24609375 Q 360.72265625 431.6015625 359.78515625 431.015625 L 359.78515625 431.015625 L 360.48828125 429.375 Q 362.24609375 431.1328125 364.58984375 432.3046875 L 364.58984375 432.3046875 Z M 424.82421875 431.015625 L 423.65234375 429.84375 Q 424.58984375 429.2578125 425.46875 428.37890625 Q 426.34765625 427.5 427.28515625 426.5625 L 427.28515625 426.5625 L 428.45703125 427.734375 Q 427.51953125 428.671875 426.640625 429.55078125 Q 425.76171875 430.4296875 424.82421875 431.015625 L 424.82421875 431.015625 Z M 303.30078125 476.71875 L 300.83984375 476.71875 L 300.83984375 475.078125 L 305.76171875 475.078125 L 305.76171875 476.71875 L 303.30078125 476.71875 Z M 296.38671875 474.2578125 L 295.91796875 475.8984375 Q 294.62890625 475.6640625 293.515625 475.25390625 Q 292.40234375 474.84375 291.11328125 474.2578125 L 291.11328125 474.2578125 L 291.93359375 473.0859375 Q 292.87109375 473.3203125 293.984375 473.671875 Q 295.09765625 474.0234375 296.38671875 474.2578125 L 296.38671875 474.2578125 Z M 311.03515625 475.8984375 L 310.56640625 474.2578125 Q 311.85546875 474.0234375 312.8515625 473.671875 Q 313.84765625 473.3203125 315.13671875 473.0859375 L 315.13671875 473.0859375 L 315.48828125 474.2578125 Q 314.55078125 474.84375 313.4375 475.25390625 Q 312.32421875 475.6640625 311.03515625 475.8984375 L 311.03515625 475.8984375 Z M 356.97265625 426.796875 L 355.68359375 427.8515625 Q 354.74609375 426.9140625 353.69140625 426.03515625 Q 352.63671875 425.15625 352.05078125 424.1015625 L 352.05078125 424.1015625 L 353.45703125 423.046875 Q 353.92578125 423.984375 355.0390625 424.921875 Q 356.15234375 425.859375 356.97265625 426.796875 L 356.97265625 426.796875 Z M 287.36328125 471.09375 L 286.54296875 472.265625 Q 285.60546875 471.6796875 284.55078125 471.03515625 Q 283.49609375 470.390625 282.55859375 469.453125 L 282.55859375 469.453125 L 283.73046875 468.1640625 Q 284.66796875 468.75 285.546875 469.62890625 Q 286.42578125 470.5078125 287.36328125 471.09375 L 287.36328125 471.09375 Z M 319.94140625 472.265625 L 319.12109375 470.625 Q 321.69921875 469.3359375 323.22265625 467.8125 L 323.22265625 467.8125 L 324.04296875 468.984375 Q 323.10546875 469.921875 322.16796875 470.80078125 Q 321.23046875 471.6796875 319.94140625 472.265625 L 319.94140625 472.265625 Z M 431.73828125 424.1015625 L 430.56640625 423.28125 Q 431.50390625 422.34375 432.1484375 421.23046875 Q 432.79296875 420.1171875 433.37890625 419.1796875 L 433.37890625 419.1796875 L 434.66796875 420 Q 434.08203125 421.2890625 433.37890625 422.2265625 Q 432.67578125 423.1640625 431.73828125 424.1015625 L 431.73828125 424.1015625 Z M 280.09765625 464.8828125 L 278.80859375 465.703125 Q 278.22265625 464.765625 277.40234375 463.88671875 Q 276.58203125 463.0078125 275.99609375 462.0703125 L 275.99609375 462.0703125 L 277.28515625 460.8984375 Q 277.87109375 462.1875 278.69140625 463.06640625 Q 279.51171875 463.9453125 280.09765625 464.8828125 L 280.09765625 464.8828125 Z M 327.67578125 465.3515625 L 326.03515625 464.53125 Q 326.97265625 463.59375 327.67578125 462.65625 Q 328.37890625 461.71875 328.96484375 460.4296875 L 328.96484375 460.4296875 L 330.13671875 461.25 Q 329.55078125 462.1875 328.90625 463.30078125 Q 328.26171875 464.4140625 327.67578125 465.3515625 L 327.67578125 465.3515625 Z M 437.48046875 416.015625 L 435.83984375 415.1953125 Q 436.42578125 413.90625 436.8359375 412.91015625 Q 437.24609375 411.9140625 437.83203125 410.7421875 L 437.83203125 410.7421875 L 439.47265625 411.4453125 Q 438.88671875 412.3828125 438.30078125 413.5546875 Q 437.71484375 414.7265625 437.48046875 416.015625 L 437.48046875 416.015625 Z M 244.70703125 460.078125 L 240.95703125 460.078125 L 240.95703125 458.4375 L 244.70703125 458.4375 L 245.87890625 458.4375 L 245.87890625 460.078125 L 244.70703125 460.078125 Z M 250.80078125 460.078125 L 250.80078125 458.4375 Q 252.08984375 458.0859375 253.203125 457.96875 Q 254.31640625 457.8515625 255.25390625 457.6171875 L 255.25390625 457.6171875 L 255.60546875 459.2578125 Q 254.43359375 459.4921875 253.26171875 459.609375 Q 252.08984375 459.7265625 250.80078125 460.078125 L 250.80078125 460.078125 Z M 236.15234375 457.96875 L 236.15234375 459.609375 Q 234.86328125 459.609375 233.69140625 459.375 Q 232.51953125 459.140625 231.23046875 458.7890625 L 231.23046875 458.7890625 L 231.23046875 457.1484375 Q 232.51953125 457.5 233.69140625 457.734375 Q 234.86328125 457.96875 236.15234375 457.96875 L 236.15234375 457.96875 Z M 260.52734375 457.96875 L 260.17578125 456.796875 Q 261.46484375 456.5625 262.578125 456.03515625 Q 263.69140625 455.5078125 264.62890625 455.15625 L 264.62890625 455.15625 L 265.44921875 456.796875 Q 264.16015625 457.03125 262.98828125 457.3828125 Q 261.81640625 457.734375 260.52734375 457.96875 L 260.52734375 457.96875 Z M 226.77734375 456.4453125 L 226.30859375 457.96875 Q 225.01953125 457.734375 223.90625 457.3828125 Q 222.79296875 457.03125 221.50390625 456.796875 L 221.50390625 456.796875 L 221.85546875 455.15625 Q 223.14453125 455.5078125 224.31640625 455.80078125 Q 225.48828125 456.09375 226.77734375 456.4453125 L 226.77734375 456.4453125 Z M 275.17578125 456.796875 L 273.53515625 457.6171875 Q 273.30078125 456.6796875 272.94921875 455.7421875 Q 272.59765625 454.8046875 272.36328125 453.515625 L 272.36328125 453.515625 Q 271.77734375 453.8671875 271.1328125 454.16015625 Q 270.48828125 454.453125 269.90234375 454.8046875 L 269.90234375 454.8046875 L 269.08203125 453.515625 Q 270.37109375 452.9296875 271.30859375 452.28515625 Q 272.24609375 451.640625 273.53515625 451.0546875 L 273.53515625 451.0546875 L 274.35546875 452.6953125 Q 274.00390625 452.6953125 274.00390625 453.1640625 L 274.00390625 453.1640625 Q 274.23828125 454.1015625 274.58984375 454.98046875 Q 274.94140625 455.859375 275.17578125 456.796875 L 275.17578125 456.796875 Z M 331.77734375 456.4453125 L 330.60546875 455.9765625 Q 330.83984375 455.0390625 330.8984375 453.92578125 Q 330.95703125 452.8125 330.95703125 451.875 L 330.95703125 451.875 L 330.95703125 451.5234375 L 332.59765625 451.5234375 L 332.59765625 451.875 Q 332.59765625 453.1640625 332.48046875 454.16015625 Q 332.36328125 455.15625 331.77734375 456.4453125 L 331.77734375 456.4453125 Z M 217.40234375 453.515625 L 216.93359375 455.15625 Q 215.76171875 454.921875 214.58984375 454.39453125 Q 213.41796875 453.8671875 212.12890625 453.515625 L 212.12890625 453.515625 L 212.94921875 451.875 Q 213.88671875 452.2265625 215 452.75390625 Q 216.11328125 453.28125 217.40234375 453.515625 L 217.40234375 453.515625 Z M 440.76171875 406.640625 L 439.47265625 406.171875 Q 439.82421875 404.8828125 440.1171875 403.76953125 Q 440.41015625 402.65625 440.76171875 401.71875 L 440.76171875 401.71875 L 441.93359375 401.71875 Q 441.93359375 404.296875 440.76171875 406.640625 L 440.76171875 406.640625 Z M 208.49609375 449.8828125 L 207.67578125 451.5234375 Q 206.73828125 450.9375 205.56640625 450.29296875 Q 204.39453125 449.6484375 203.10546875 449.0625 L 203.10546875 449.0625 L 203.92578125 447.890625 Q 205.21484375 448.4765625 206.2109375 448.88671875 Q 207.20703125 449.296875 208.49609375 449.8828125 L 208.49609375 449.8828125 Z M 278.45703125 450.234375 L 277.63671875 448.7109375 Q 278.57421875 448.125 279.453125 447.421875 Q 280.33203125 446.71875 281.26953125 445.78125 L 281.26953125 445.78125 L 282.55859375 447.0703125 Q 281.62109375 448.0078125 280.5078125 448.65234375 Q 279.39453125 449.296875 278.45703125 450.234375 L 278.45703125 450.234375 Z M 272.71484375 447.890625 L 271.07421875 447.890625 Q 270.83984375 446.6015625 270.78125 445.4296875 Q 270.72265625 444.2578125 270.72265625 442.96875 L 270.72265625 442.96875 L 272.36328125 442.96875 Q 272.36328125 444.2578125 272.421875 445.4296875 Q 272.48046875 446.6015625 272.71484375 447.890625 L 272.71484375 447.890625 Z M 199.94140625 445.4296875 L 199.12109375 447.0703125 Q 197.94921875 446.484375 197.12890625 445.95703125 Q 196.30859375 445.4296875 195.72265625 444.9609375 L 195.72265625 444.9609375 Q 195.01953125 444.4921875 194.55078125 444.140625 L 194.55078125 444.140625 L 195.83984375 442.96875 Q 196.19140625 443.203125 196.77734375 443.671875 L 196.77734375 443.671875 Q 197.36328125 444.0234375 198.06640625 444.4921875 Q 198.76953125 444.9609375 199.94140625 445.4296875 L 199.94140625 445.4296875 Z M 331.77734375 446.25 L 330.13671875 447.0703125 Q 329.90234375 445.78125 329.4921875 444.609375 Q 329.08203125 443.4375 328.49609375 442.5 L 328.49609375 442.5 L 329.78515625 441.6796875 Q 330.37109375 442.96875 330.8984375 443.96484375 Q 331.42578125 444.9609375 331.77734375 446.25 L 331.77734375 446.25 Z M 286.19140625 444.140625 L 285.37109375 442.96875 Q 286.30859375 442.03125 287.24609375 441.38671875 Q 288.18359375 440.7421875 289.47265625 440.15625 L 289.47265625 440.15625 L 290.29296875 441.328125 Q 289.35546875 441.9140625 288.2421875 442.55859375 Q 287.12890625 443.203125 286.19140625 444.140625 L 286.19140625 444.140625 Z M 443.22265625 396.796875 L 441.58203125 396.796875 Q 441.58203125 395.625 441.7578125 394.453125 Q 441.93359375 393.28125 441.93359375 391.9921875 L 441.93359375 391.9921875 L 443.57421875 391.9921875 Q 443.57421875 393.28125 443.3984375 394.453125 Q 443.22265625 395.625 443.22265625 396.796875 L 443.22265625 396.796875 Z M 326.50390625 437.6953125 L 325.21484375 438.8671875 Q 324.27734375 438.28125 323.3984375 437.63671875 Q 322.51953125 436.9921875 321.58203125 436.40625 L 321.58203125 436.40625 L 322.40234375 434.765625 Q 323.33984375 435.3515625 324.453125 436.23046875 Q 325.56640625 437.109375 326.50390625 437.6953125 L 326.50390625 437.6953125 Z M 294.27734375 438.8671875 L 293.45703125 437.2265625 Q 294.74609375 436.640625 295.7421875 436.23046875 Q 296.73828125 435.8203125 298.02734375 435.234375 L 298.02734375 435.234375 L 298.84765625 436.875 Q 297.55859375 437.109375 296.5625 437.6953125 Q 295.56640625 438.28125 294.27734375 438.8671875 L 294.27734375 438.8671875 Z M 272.36328125 438.046875 L 270.72265625 438.046875 Q 270.72265625 436.7578125 270.78125 435.5859375 Q 270.83984375 434.4140625 271.07421875 433.2421875 L 271.07421875 433.2421875 L 272.71484375 433.2421875 Q 272.48046875 434.4140625 272.421875 435.5859375 Q 272.36328125 436.7578125 272.36328125 438.046875 L 272.36328125 438.046875 Z M 303.30078125 435.234375 L 302.83203125 433.59375 Q 304.12109375 433.359375 305.29296875 433.0078125 Q 306.46484375 432.65625 307.75390625 432.421875 L 307.75390625 432.421875 L 307.75390625 433.9453125 Q 306.46484375 434.296875 305.52734375 434.58984375 Q 304.58984375 434.8828125 303.30078125 435.234375 L 303.30078125 435.234375 Z M 317.48046875 433.2421875 L 317.12890625 434.765625 Q 316.19140625 434.53125 315.078125 434.23828125 Q 313.96484375 433.9453125 312.67578125 433.9453125 L 312.67578125 433.9453125 L 312.67578125 432.421875 Q 313.96484375 432.421875 315.078125 432.65625 Q 316.19140625 432.890625 317.48046875 433.2421875 L 317.48046875 433.2421875 Z M 273.53515625 428.3203125 L 271.89453125 428.3203125 L 271.89453125 427.8515625 Q 272.24609375 426.5625 272.5390625 425.44921875 Q 272.83203125 424.3359375 273.18359375 423.3984375 L 273.18359375 423.3984375 L 274.35546875 423.8671875 Q 274.12109375 424.8046875 274.00390625 425.859375 Q 273.88671875 426.9140625 273.53515625 427.8515625 L 273.53515625 427.8515625 L 273.53515625 428.3203125 Z M 350.64453125 419.53125 L 349.47265625 420.703125 Q 348.88671875 419.765625 348.0078125 418.7109375 Q 347.12890625 417.65625 346.54296875 416.71875 L 346.54296875 416.71875 L 347.83203125 415.8984375 Q 348.41796875 416.8359375 349.23828125 417.71484375 Q 350.05859375 418.59375 350.64453125 419.53125 L 350.64453125 419.53125 Z M 275.99609375 419.296875 L 274.82421875 418.59375 Q 275.05859375 417.65625 275.64453125 416.484375 Q 276.23046875 415.3125 276.81640625 414.0234375 L 276.81640625 414.0234375 L 277.98828125 414.84375 Q 277.75390625 416.1328125 277.16796875 417.12890625 Q 276.58203125 418.125 275.99609375 419.296875 L 275.99609375 419.296875 Z M 344.55078125 412.265625 L 343.02734375 413.4375 Q 342.55859375 412.3828125 341.97265625 411.85546875 Q 341.38671875 411.328125 340.21484375 409.8046875 L 340.21484375 409.8046875 L 341.15234375 408.75 Q 342.08984375 409.453125 342.8515625 410.390625 Q 343.61328125 411.328125 344.55078125 412.265625 L 344.55078125 412.265625 Z M 280.91796875 410.859375 L 279.62890625 410.0390625 Q 280.21484375 409.1015625 281.09375 408.1640625 Q 281.97265625 407.2265625 282.91015625 406.2890625 L 282.91015625 406.2890625 L 283.73046875 407.578125 Q 283.14453125 408.1640625 282.32421875 409.04296875 Q 281.50390625 409.921875 280.91796875 410.859375 L 280.91796875 410.859375 Z M 337.87109375 405.46875 L 336.69921875 406.7578125 Q 335.76171875 406.171875 334.82421875 405.3515625 Q 333.88671875 404.53125 332.59765625 404.296875 L 332.59765625 404.296875 L 333.41796875 402.65625 Q 334.70703125 403.2421875 335.64453125 403.88671875 Q 336.58203125 404.53125 337.87109375 405.46875 L 337.87109375 405.46875 Z M 287.36328125 404.296875 L 286.54296875 403.125 Q 288.30078125 401.3671875 290.64453125 400.1953125 L 290.64453125 400.1953125 L 291.46484375 401.484375 Q 290.52734375 402.0703125 289.4140625 402.71484375 Q 288.30078125 403.359375 287.36328125 404.296875 L 287.36328125 404.296875 Z M 328.96484375 400.1953125 L 328.49609375 401.8359375 Q 327.20703125 401.25 326.09375 400.8984375 Q 324.98046875 400.546875 324.04296875 400.1953125 L 324.04296875 400.1953125 L 324.39453125 398.5546875 Q 325.68359375 398.90625 326.85546875 399.43359375 Q 328.02734375 399.9609375 328.96484375 400.1953125 L 328.96484375 400.1953125 Z M 295.91796875 399.84375 L 295.09765625 398.203125 Q 296.38671875 397.6171875 297.55859375 397.20703125 Q 298.73046875 396.796875 300.01953125 396.5625 L 300.01953125 396.5625 L 300.37109375 398.203125 Q 299.19921875 398.4375 298.02734375 398.84765625 Q 296.85546875 399.2578125 295.91796875 399.84375 L 295.91796875 399.84375 Z M 319.58984375 396.9140625 L 319.12109375 398.5546875 Q 318.18359375 398.3203125 317.0703125 398.203125 Q 315.95703125 398.0859375 314.66796875 397.734375 L 314.66796875 397.734375 L 314.66796875 396.09375 Q 315.95703125 396.4453125 317.12890625 396.5625 Q 318.30078125 396.6796875 319.58984375 396.9140625 L 319.58984375 396.9140625 Z M 304.94140625 397.3828125 L 304.94140625 396.09375 Q 306.23046875 395.859375 307.34375 395.80078125 Q 308.45703125 395.7421875 309.74609375 395.7421875 L 309.74609375 395.7421875 L 309.74609375 397.3828125 L 304.94140625 397.3828125 Z M 450.37109375 395.7421875 L 447.55859375 396.328125 Q 446.62109375 394.3359375 445.390625 391.40625 Q 444.16015625 388.4765625 443.57421875 386.484375 L 443.57421875 386.484375 Q 441.93359375 388.2421875 440.05859375 390.76171875 Q 438.18359375 393.28125 436.77734375 394.921875 L 436.77734375 394.921875 L 435.01953125 392.578125 Q 437.24609375 390.46875 438.828125 388.06640625 Q 440.41015625 385.6640625 442.40234375 383.3203125 L 442.40234375 383.3203125 L 446.26953125 384.0234375 Q 446.50390625 385.6640625 447.6171875 389.00390625 Q 448.73046875 392.34375 450.37109375 395.7421875 L 450.37109375 395.7421875 Z M 186.23046875 441.328125 L 186.93359375 439.6875 Q 187.75390625 439.6875 188.92578125 439.8046875 Q 190.09765625 439.921875 191.15234375 440.2734375 L 191.15234375 440.2734375 Q 190.56640625 439.6875 189.8046875 439.39453125 Q 189.04296875 439.1015625 188.22265625 438.515625 L 188.22265625 438.515625 Q 187.28515625 438.515625 185.29296875 438.046875 Q 183.30078125 437.578125 181.42578125 437.34375 L 181.42578125 437.34375 L 182.12890625 435.8203125 Q 183.06640625 435.8203125 184.6484375 436.11328125 Q 186.23046875 436.40625 187.28515625 436.875 L 187.28515625 436.875 Q 186.93359375 435.703125 186.34765625 434.1796875 Q 185.76171875 432.65625 185.52734375 431.6015625 L 185.52734375 431.6015625 L 187.16796875 430.78125 Q 187.51953125 432.3046875 188.1640625 434.00390625 Q 188.80859375 435.703125 189.27734375 437.2265625 L 189.27734375 437.2265625 L 191.50390625 438.75 Q 191.26953125 437.8125 190.9765625 436.875 Q 190.68359375 435.9375 190.44921875 435.234375 L 190.44921875 435.234375 L 192.08984375 434.6484375 Q 192.44140625 436.2890625 193.14453125 437.98828125 Q 193.84765625 439.6875 194.31640625 441.2109375 L 194.31640625 441.2109375 L 193.14453125 442.734375 Q 192.20703125 442.3828125 190.21484375 441.9140625 Q 188.22265625 441.4453125 186.23046875 441.328125 L 186.23046875 441.328125 Z M 474.51171875 428.203125 L 475.68359375 431.3671875 Q 473.92578125 432.65625 471.171875 434.12109375 Q 468.41796875 435.5859375 466.42578125 436.5234375 L 466.42578125 436.5234375 Q 468.41796875 437.8125 471.23046875 439.27734375 Q 474.04296875 440.7421875 475.91796875 441.9140625 L 475.91796875 441.9140625 L 474.16015625 444.9609375 Q 471.69921875 443.203125 468.65234375 441.5625 Q 465.60546875 439.921875 463.02734375 438.28125 L 463.02734375 438.28125 L 463.02734375 434.4140625 Q 464.66796875 433.828125 468.06640625 432.0703125 Q 471.46484375 430.3125 474.51171875 428.203125 L 474.51171875 428.203125 Z M 590.76171875 444.2578125 L 589.35546875 443.203125 Q 589.58984375 442.5 589.94140625 441.328125 Q 590.29296875 440.15625 590.87890625 439.21875 L 590.87890625 439.21875 Q 590.29296875 439.8046875 589.765625 440.44921875 Q 589.23828125 441.09375 588.53515625 441.6796875 L 588.53515625 441.6796875 Q 588.30078125 442.6171875 587.36328125 444.4921875 Q 586.42578125 446.3671875 585.83984375 448.125 L 585.83984375 448.125 L 584.43359375 447.0703125 Q 584.66796875 446.1328125 585.37109375 444.66796875 Q 586.07421875 443.203125 586.66015625 442.265625 L 586.66015625 442.265625 Q 585.48828125 442.3828125 583.84765625 442.55859375 Q 582.20703125 442.734375 581.15234375 442.734375 L 581.15234375 442.734375 L 580.68359375 440.9765625 Q 582.32421875 440.9765625 584.08203125 440.7421875 Q 585.83984375 440.5078125 587.48046875 440.390625 L 587.48046875 440.390625 L 589.47265625 438.515625 Q 588.53515625 438.6328125 587.5390625 438.69140625 Q 586.54296875 438.75 585.83984375 438.75 L 585.83984375 438.75 L 585.60546875 437.109375 Q 587.24609375 437.109375 589.0625 436.81640625 Q 590.87890625 436.5234375 592.51953125 436.40625 L 592.51953125 436.40625 L 593.69140625 437.9296875 Q 593.10546875 438.6328125 592.2265625 440.5078125 Q 591.34765625 442.3828125 590.76171875 444.2578125 L 590.76171875 444.2578125 Z M 538.14453125 443.7890625 L 537.67578125 445.546875 Q 536.38671875 445.3125 535.390625 445.1953125 Q 534.39453125 445.078125 533.10546875 444.609375 L 533.10546875 444.609375 L 533.10546875 443.5546875 L 532.63671875 443.5546875 L 532.63671875 438.515625 L 534.39453125 438.515625 L 534.39453125 442.96875 Q 536.03515625 443.7890625 538.14453125 443.7890625 L 538.14453125 443.7890625 Z M 613.84765625 426.9140625 L 612.55859375 427.265625 Q 611.97265625 426.328125 611.6796875 425.15625 Q 611.38671875 423.984375 610.91796875 422.8125 L 610.91796875 422.8125 L 611.50390625 422.8125 L 611.50390625 422.2265625 Q 612.32421875 421.640625 613.4375 421.2890625 Q 614.55078125 420.9375 615.60546875 420.234375 L 615.60546875 420.234375 L 616.19140625 421.5234375 Q 615.25390625 422.109375 614.609375 422.51953125 Q 613.96484375 422.9296875 613.02734375 423.515625 L 613.02734375 423.515625 Q 613.26171875 424.1015625 613.37890625 425.0390625 Q 613.49609375 425.9765625 613.84765625 426.9140625 L 613.84765625 426.9140625 Z M 541.77734375 460.8984375 L 540.60546875 462.0703125 Q 539.66796875 461.1328125 538.7890625 460.1953125 Q 537.91015625 459.2578125 537.20703125 457.96875 L 537.20703125 457.96875 L 538.49609375 457.03125 Q 539.43359375 457.96875 540.13671875 458.96484375 Q 540.83984375 459.9609375 541.77734375 460.8984375 L 541.77734375 460.8984375 Z M 600.25390625 390 L 598.84765625 391.2890625 Q 597.91015625 390.3515625 597.03125 389.70703125 Q 596.15234375 389.0625 595.21484375 388.4765625 L 595.21484375 388.4765625 L 596.03515625 386.6015625 Q 597.32421875 387.3046875 598.26171875 388.18359375 Q 599.19921875 389.0625 600.25390625 390 L 600.25390625 390 Z M 671.03515625 424.8046875 L 669.16015625 425.2734375 Q 668.57421875 424.3359375 667.98828125 423.3984375 Q 667.40234375 422.4609375 666.81640625 421.5234375 L 666.81640625 421.5234375 L 668.10546875 420.234375 Q 668.92578125 421.171875 669.62890625 422.34375 Q 670.33203125 423.515625 671.03515625 424.8046875 L 671.03515625 424.8046875 Z M 618.06640625 436.0546875 L 616.19140625 436.875 Q 615.72265625 435.5859375 615.13671875 434.53125 Q 614.55078125 433.4765625 614.19921875 432.3046875 L 614.19921875 432.3046875 L 615.60546875 431.3671875 Q 616.07421875 432.65625 616.71875 433.7109375 Q 617.36328125 434.765625 618.06640625 436.0546875 L 618.06640625 436.0546875 Z M 623.33984375 443.7890625 L 621.69921875 445.1953125 Q 621.11328125 444.140625 620.29296875 443.203125 Q 619.47265625 442.265625 618.76953125 440.9765625 L 618.76953125 440.9765625 L 620.52734375 440.15625 Q 621.11328125 441.09375 621.7578125 442.1484375 Q 622.40234375 443.203125 623.33984375 443.7890625 L 623.33984375 443.7890625 Z M 566.15234375 453.75 L 565.44921875 455.5078125 Q 564.51171875 454.921875 563.515625 454.21875 Q 562.51953125 453.515625 561.11328125 452.9296875 L 561.11328125 452.9296875 L 562.05078125 451.171875 Q 564.27734375 452.4609375 566.15234375 453.75 L 566.15234375 453.75 Z M 544.35546875 406.171875 L 543.18359375 405.46875 Q 543.65234375 404.53125 544.53125 403.359375 Q 545.41015625 402.1875 546.34765625 401.3671875 L 546.34765625 401.3671875 L 547.63671875 402.421875 Q 546.69921875 403.359375 545.99609375 404.296875 Q 545.29296875 405.234375 544.35546875 406.171875 L 544.35546875 406.171875 Z M 654.86328125 413.203125 L 654.39453125 414.9609375 Q 653.10546875 414.7265625 651.875 414.609375 Q 650.64453125 414.4921875 649.35546875 414.0234375 L 649.35546875 414.0234375 L 649.35546875 412.3828125 Q 650.99609375 412.734375 652.28515625 412.8515625 Q 653.57421875 412.96875 654.86328125 413.203125 L 654.86328125 413.203125 Z M 591.46484375 384.609375 L 591.11328125 386.3671875 Q 589.82421875 386.015625 588.59375 385.72265625 Q 587.36328125 385.4296875 586.07421875 385.078125 L 586.07421875 385.078125 L 586.54296875 383.4375 Q 587.83203125 383.671875 589.00390625 384.0234375 Q 590.17578125 384.375 591.46484375 384.609375 L 591.46484375 384.609375 Z M 549.74609375 465.9375 L 549.27734375 467.4609375 Q 546.69921875 466.7578125 544.70703125 465.3515625 L 544.70703125 465.3515625 L 545.64453125 463.7109375 Q 546.58203125 464.4140625 547.6953125 464.94140625 Q 548.80859375 465.46875 549.74609375 465.9375 L 549.74609375 465.9375 Z M 550.91796875 399.140625 L 549.74609375 397.8515625 Q 551.73828125 395.859375 553.84765625 394.5703125 L 553.84765625 394.5703125 L 554.78515625 395.7421875 Q 553.84765625 396.4453125 552.91015625 397.32421875 Q 551.97265625 398.203125 550.91796875 399.140625 L 550.91796875 399.140625 Z M 534.86328125 433.828125 L 533.10546875 433.4765625 Q 533.33984375 432.3046875 533.45703125 431.07421875 Q 533.57421875 429.84375 534.04296875 428.4375 L 534.04296875 428.4375 L 535.56640625 429.0234375 Q 535.33203125 430.3125 535.21484375 431.484375 Q 535.09765625 432.65625 534.86328125 433.828125 L 534.86328125 433.828125 Z M 630.37109375 450.46875 L 629.19921875 452.109375 Q 628.26171875 451.171875 627.265625 450.46875 Q 626.26953125 449.765625 625.33203125 448.828125 L 625.33203125 448.828125 L 626.62109375 447.65625 Q 627.20703125 448.59375 628.3203125 449.23828125 Q 629.43359375 449.8828125 630.37109375 450.46875 L 630.37109375 450.46875 Z M 518.69140625 440.5078125 L 518.22265625 442.265625 Q 517.05078125 441.796875 515.76171875 441.73828125 Q 514.47265625 441.6796875 513.18359375 441.4453125 L 513.18359375 441.4453125 L 513.65234375 439.6875 Q 514.94140625 440.0390625 516.171875 440.15625 Q 517.40234375 440.2734375 518.69140625 440.5078125 L 518.69140625 440.5078125 Z M 630.01953125 416.484375 L 629.43359375 414.9609375 Q 630.83984375 414.7265625 632.0703125 414.31640625 Q 633.30078125 413.90625 634.47265625 413.671875 L 634.47265625 413.671875 L 634.94140625 415.1953125 Q 633.65234375 415.546875 632.421875 415.8984375 Q 631.19140625 416.25 630.01953125 416.484375 L 630.01953125 416.484375 Z M 498.76953125 437.9296875 L 498.76953125 439.6875 Q 497.48046875 439.6875 496.25 439.51171875 Q 495.01953125 439.3359375 493.73046875 439.3359375 L 493.73046875 439.3359375 L 493.73046875 437.578125 Q 495.01953125 437.578125 496.25 437.75390625 Q 497.48046875 437.9296875 498.76953125 437.9296875 L 498.76953125 437.9296875 Z M 620.87890625 419.8828125 L 620.05859375 418.125 Q 621.34765625 417.5390625 622.51953125 417.1875 Q 623.69140625 416.8359375 624.98046875 416.484375 L 624.98046875 416.484375 L 625.33203125 417.7734375 Q 624.16015625 418.4765625 623.1640625 418.88671875 Q 622.16796875 419.296875 620.87890625 419.8828125 L 620.87890625 419.8828125 Z M 648.65234375 457.96875 L 646.77734375 457.96875 Q 645.95703125 457.96875 645.078125 457.91015625 Q 644.19921875 457.8515625 643.26171875 457.5 L 643.26171875 457.5 L 643.61328125 455.859375 Q 644.90234375 456.09375 646.015625 456.15234375 Q 647.12890625 456.2109375 648.18359375 456.2109375 L 648.18359375 456.2109375 L 648.65234375 457.96875 Z M 606.46484375 398.3203125 L 604.82421875 398.7890625 Q 604.12109375 397.8515625 603.4765625 396.6796875 Q 602.83203125 395.5078125 602.36328125 394.5703125 L 602.36328125 394.5703125 L 603.53515625 393.75 Q 604.12109375 394.6875 604.94140625 395.859375 Q 605.76171875 397.03125 606.46484375 398.3203125 L 606.46484375 398.3203125 Z M 576.58203125 385.546875 L 576.23046875 383.7890625 Q 577.75390625 383.5546875 579.04296875 383.49609375 Q 580.33203125 383.4375 581.50390625 383.4375 L 581.50390625 383.4375 L 581.50390625 385.078125 Q 580.33203125 385.078125 579.1015625 385.13671875 Q 577.87109375 385.1953125 576.58203125 385.546875 L 576.58203125 385.546875 Z M 666.34765625 448.828125 L 662.59765625 452.578125 L 661.54296875 451.171875 Q 662.36328125 450.3515625 663.2421875 449.6484375 Q 664.12109375 448.9453125 665.05859375 448.0078125 L 665.05859375 448.0078125 L 666.34765625 448.828125 Z M 528.18359375 442.265625 L 528.18359375 443.7890625 Q 526.89453125 443.5546875 525.72265625 443.26171875 Q 524.55078125 442.96875 523.26171875 442.96875 L 523.26171875 442.96875 L 523.61328125 441.4453125 Q 524.90234375 441.4453125 526.07421875 441.62109375 Q 527.24609375 441.796875 528.18359375 442.265625 L 528.18359375 442.265625 Z M 564.16015625 468.75 L 563.69140625 466.9921875 Q 566.62109375 466.5234375 568.26171875 465.3515625 L 568.26171875 465.3515625 L 569.19921875 466.640625 Q 567.32421875 467.8125 564.16015625 468.75 L 564.16015625 468.75 Z M 611.50390625 417.421875 L 610.09765625 417.7734375 Q 609.74609375 416.8359375 609.62890625 416.1328125 Q 609.51171875 415.4296875 609.27734375 414.609375 L 609.27734375 414.609375 L 609.27734375 412.8515625 L 610.56640625 412.3828125 Q 610.80078125 412.96875 610.859375 413.37890625 Q 610.91796875 413.7890625 610.91796875 414.0234375 L 610.91796875 414.0234375 Q 611.38671875 414.9609375 611.4453125 415.83984375 Q 611.50390625 416.71875 611.50390625 417.421875 L 611.50390625 417.421875 Z M 536.50390625 452.9296875 L 534.86328125 453.3984375 Q 534.51171875 452.4609375 534.21875 451.2890625 Q 533.92578125 450.1171875 533.45703125 448.828125 L 533.45703125 448.828125 L 535.21484375 448.359375 Q 535.44921875 449.6484375 535.80078125 450.64453125 Q 536.15234375 451.640625 536.50390625 452.9296875 L 536.50390625 452.9296875 Z M 539.66796875 414.9609375 L 538.49609375 414.0234375 Q 538.96484375 413.0859375 539.375 411.796875 Q 539.78515625 410.5078125 540.60546875 409.5703125 L 540.60546875 409.5703125 L 541.77734375 410.2734375 Q 541.19140625 411.5625 540.78125 412.67578125 Q 540.37109375 413.7890625 539.66796875 414.9609375 L 539.66796875 414.9609375 Z M 558.88671875 392.9296875 L 557.94921875 391.640625 Q 558.88671875 390.703125 560 390.1171875 Q 561.11328125 389.53125 562.05078125 389.1796875 L 562.05078125 389.1796875 L 562.98828125 390.46875 Q 562.05078125 391.0546875 560.9375 391.69921875 Q 559.82421875 392.34375 558.88671875 392.9296875 L 558.88671875 392.9296875 Z M 478.96484375 436.40625 L 478.96484375 437.9296875 Q 477.67578125 437.9296875 476.38671875 437.75390625 Q 475.09765625 437.578125 473.92578125 437.578125 L 473.92578125 437.578125 L 473.92578125 436.0546875 Q 475.09765625 436.0546875 476.38671875 436.23046875 Q 477.67578125 436.40625 478.96484375 436.40625 L 478.96484375 436.40625 Z M 672.20703125 429.7265625 L 672.20703125 434.765625 L 670.44921875 434.765625 L 670.44921875 429.7265625 L 672.20703125 429.7265625 Z M 603.53515625 429.0234375 L 602.71484375 427.734375 Q 603.65234375 427.1484375 604.765625 426.4453125 Q 605.87890625 425.7421875 606.81640625 424.8046875 L 606.81640625 424.8046875 L 607.63671875 426.4453125 Q 606.69921875 427.03125 605.76171875 427.734375 Q 604.82421875 428.4375 603.53515625 429.0234375 L 603.53515625 429.0234375 Z M 668.92578125 444.609375 L 667.63671875 443.7890625 Q 668.22265625 442.8515625 668.57421875 441.73828125 Q 668.92578125 440.625 669.16015625 439.3359375 L 669.16015625 439.3359375 L 671.03515625 439.6875 Q 670.56640625 440.9765625 670.0390625 442.1484375 Q 669.51171875 443.3203125 668.92578125 444.609375 L 668.92578125 444.609375 Z M 663.88671875 416.953125 L 663.06640625 418.125 Q 662.12890625 417.5390625 661.19140625 417.12890625 Q 660.25390625 416.71875 658.96484375 416.1328125 L 658.96484375 416.1328125 L 659.43359375 414.609375 Q 660.60546875 415.078125 661.77734375 415.72265625 Q 662.94921875 416.3671875 663.88671875 416.953125 L 663.88671875 416.953125 Z M 567.44140625 388.4765625 L 566.73828125 386.6015625 Q 567.91015625 386.3671875 569.08203125 385.8984375 Q 570.25390625 385.4296875 571.19140625 385.078125 L 571.19140625 385.078125 L 572.12890625 386.6015625 Q 570.72265625 387.0703125 569.55078125 387.421875 Q 568.37890625 387.7734375 567.44140625 388.4765625 L 567.44140625 388.4765625 Z M 638.57421875 454.921875 L 638.22265625 456.796875 Q 636.93359375 456.09375 635.99609375 455.68359375 Q 635.05859375 455.2734375 633.76953125 454.6875 L 633.76953125 454.6875 L 634.47265625 452.9296875 Q 635.41015625 453.515625 636.5234375 454.1015625 Q 637.63671875 454.6875 638.57421875 454.921875 L 638.57421875 454.921875 Z M 609.62890625 407.34375 L 607.98828125 407.9296875 Q 607.75390625 406.640625 607.40234375 405.5859375 Q 607.05078125 404.53125 606.81640625 403.2421875 L 606.81640625 403.2421875 L 607.98828125 402.890625 Q 608.69140625 403.828125 609.04296875 405 Q 609.39453125 406.171875 609.62890625 407.34375 L 609.62890625 407.34375 Z M 639.86328125 414.609375 L 639.51171875 412.8515625 Q 640.80078125 412.8515625 641.97265625 412.6171875 Q 643.14453125 412.3828125 644.55078125 412.3828125 L 644.55078125 412.3828125 L 644.55078125 414.0234375 Q 643.61328125 414.0234375 642.3828125 414.31640625 Q 641.15234375 414.609375 639.86328125 414.609375 L 639.86328125 414.609375 Z M 547.63671875 446.3671875 L 547.28515625 448.0078125 Q 546.23046875 447.7734375 545.05859375 447.36328125 Q 543.88671875 446.953125 542.59765625 446.71875 L 542.59765625 446.71875 L 543.18359375 445.1953125 Q 544.35546875 445.4296875 545.52734375 445.72265625 Q 546.69921875 446.015625 547.63671875 446.3671875 L 547.63671875 446.3671875 Z M 488.80859375 437.34375 L 488.80859375 438.8671875 Q 487.51953125 438.6328125 486.34765625 438.57421875 Q 485.17578125 438.515625 484.00390625 438.515625 L 484.00390625 438.515625 L 484.00390625 436.875 Q 485.17578125 436.875 486.34765625 436.93359375 Q 487.51953125 436.9921875 488.80859375 437.34375 L 488.80859375 437.34375 Z M 559.12109375 467.4609375 L 559.12109375 469.1015625 Q 557.94921875 469.1015625 556.71875 469.04296875 Q 555.48828125 468.984375 554.19921875 468.75 L 554.19921875 468.75 L 554.19921875 466.9921875 Q 555.48828125 467.34375 556.71875 467.40234375 Q 557.94921875 467.4609375 559.12109375 467.4609375 L 559.12109375 467.4609375 Z M 653.57421875 457.03125 L 653.10546875 455.5078125 Q 654.39453125 455.0390625 655.390625 454.74609375 Q 656.38671875 454.453125 657.79296875 453.75 L 657.79296875 453.75 L 658.02734375 455.5078125 Q 657.08984375 455.7421875 655.9765625 456.26953125 Q 654.86328125 456.796875 653.57421875 457.03125 L 653.57421875 457.03125 Z M 572.36328125 461.6015625 L 572.36328125 462.0703125 L 570.83984375 462.0703125 L 570.83984375 461.6015625 Q 570.83984375 460.3125 569.19921875 458.3203125 L 569.19921875 458.3203125 L 570.25390625 457.03125 Q 571.19140625 458.3203125 571.77734375 459.4921875 Q 572.36328125 460.6640625 572.36328125 461.6015625 L 572.36328125 461.6015625 Z M 508.73046875 439.3359375 L 508.26171875 440.9765625 Q 507.32421875 440.625 506.2109375 440.5078125 Q 505.09765625 440.390625 503.80859375 440.15625 L 503.80859375 440.15625 L 503.80859375 438.515625 Q 505.09765625 438.75 506.26953125 438.8671875 Q 507.44140625 438.984375 508.73046875 439.3359375 L 508.73046875 439.3359375 Z M 536.85546875 424.1015625 L 535.21484375 423.515625 Q 535.44921875 422.578125 535.859375 421.40625 Q 536.26953125 420.234375 536.85546875 419.0625 L 536.85546875 419.0625 L 538.14453125 419.4140625 Q 537.79296875 420.703125 537.44140625 421.93359375 Q 537.08984375 423.1640625 536.85546875 424.1015625 L 536.85546875 424.1015625 Z M 595.68359375 435.1171875 L 594.74609375 433.828125 Q 595.68359375 432.890625 596.6796875 432.24609375 Q 597.67578125 431.6015625 598.61328125 430.6640625 L 598.61328125 430.6640625 L 599.78515625 431.953125 Q 598.61328125 432.890625 597.6171875 433.53515625 Q 596.62109375 434.1796875 595.68359375 435.1171875 L 595.68359375 435.1171875 Z M 557.01171875 449.6484375 L 556.77734375 450.8203125 Q 555.83984375 450.5859375 554.66796875 450.234375 Q 553.49609375 449.8828125 552.32421875 449.296875 L 552.32421875 449.296875 L 552.55859375 448.0078125 Q 553.84765625 448.2421875 554.9609375 448.65234375 Q 556.07421875 449.0625 557.01171875 449.6484375 L 557.01171875 449.6484375 Z" fill-opacity="1"/></g></g></svg>