<svg version="1.1" xmlns="http://www.w3.org/2000/svg" xmlns:xlink="http://www.w3.org/1999/xlink" width="500" height="500" viewBox="0 0 500 500"><defs/><g><g><g><g><path fill="rgb(245,158,11)" stroke="none" paint-order="stroke fill markers" d=" M 232.91015625 12.67578125 L 233.10546875 12.48046875 L 265.234375 12.48046875 L 265.4296875 12.67578125 L 265.4296875 44.8046875 L 265.234375 45 L 233.10546875 45 L 232.91015625 44.8046875 L 232.91015625 12.67578125 Z M 258.88671875 18.92578125 L 239.453125 18.92578125 L 239.453125 38.45703125 L 258.984375 38.45703125 L 258.984375 28.7890625 L 255.76171875 28.7890625 L 255.76171875 35.0390625 L 255.56640625 35.234375 L 242.7734375 35.234375 L 242.578125 35.0390625 L 242.578125 22.34375 L 242.7734375 22.1484375 L 258.88671875 22.1484375 L 258.88671875 18.92578125 Z" fill-opacity="1"/></g></g><g><g><path fill="rgb(245,158,11)" stroke="none" paint-order="stroke fill markers" d=" M 278.132895705439 13.730264858310377 L 278.3616417877872 13.5754450432904 L 309.90993684632537 19.65588053104186 L 310.06475666134537 19.88462661339012 L 303.9843211735939 51.432921671928256 L 303.75557509124565 51.58774148694824 L 272.2072800327075 45.50730599919678 L 272.05246021768755 45.278559916848515 L 278.132895705439 13.730264858310377 Z M 302.4572076031747 24.783415993533264 L 283.3748042091045 21.105584193951074 L 279.6784908426903 40.28387906236331 L 298.76089423676046 43.961710861945505 L 299.3707859422188 40.79729220865748 L 283.5486926757787 37.74783368136572 L 283.39387286075873 37.51908759901745 L 284.244024935034 33.10807977928263 L 284.4727710173823 32.95325996426266 L 300.29486428382233 36.002718491554425 L 300.9047559892807 32.83829983826641 L 285.0826627228406 29.78884131097464 L 284.92784290782066 29.560095228626373 L 285.796476548928 25.0531959345495 L 286.0252226312763 24.898376119529516 L 301.8473158977163 27.94783464682128 L 302.4572076031747 24.783415993533264 Z" fill-opacity="1"/></g></g><g><g><path fill="rgb(245,158,11)" stroke="none" paint-order="stroke fill markers" d=" M 322.3388390105386 23.324152289431936 L 322.59275119582696 23.215420750885897 L 352.4201974812066 35.15652894544134 L 352.5289290197527 35.410441130729694 L 340.58782082519724 65.23788741610937 L 340.3339086399089 65.34661895465541 L 310.5064623545292 53.40551076009997 L 310.39773081598315 53.151598574811615 L 322.3388390105386 23.324152289431936 Z M 344.13175629764936 38.78096487914637 L 326.0902310368878 31.558227703716174 L 324.89249070126374 34.550038425349996 L 332.2360261089104 37.48994652188189 L 332.34475764745645 37.74385870717025 L 326.3560559693359 52.70291231533939 L 329.34786669096974 53.90065265096349 L 335.33656836909023 38.94159904279435 L 335.5904805543786 38.832867504248306 L 342.9340159620253 41.77277560078019 L 344.13175629764936 38.78096487914637 Z" fill-opacity="1"/></g></g><g><g><path fill="rgb(245,158,11)" stroke="none" paint-order="stroke fill markers" d=" M 363.9302681967906 41.11069545497401 L 364.20016943708106 41.051982034002215 L 391.22872532589537 58.42218017295647 L 391.28743874686717 58.69208141324686 L 373.9172406079129 85.72063730206118 L 373.6473393676225 85.77935072303296 L 346.6187834788082 68.40915258407871 L 346.5600700578364 68.13925134378833 L 363.9302681967906 41.11069545497401 Z M 375.5325868856083 56.112526434310055 L 372.8215159301953 54.370226924931664 L 362.3149219190953 70.71880632272513 L 365.0259928745083 72.46110583210351 L 375.5325868856083 56.112526434310055 Z" fill-opacity="1"/></g></g><g><g><path fill="rgb(245,158,11)" stroke="none" paint-order="stroke fill markers" d=" M 401.40396064799233 66.44704234254773 L 401.68009600923983 66.44046909516044 L 424.93287906945153 88.61195296016189 L 424.9394523168388 88.88808832140938 L 402.7679684518374 112.14087138162111 L 402.4918330905899 112.1474446290084 L 379.23905003037817 89.97596076400696 L 379.2324767829909 89.69982540275946 L 401.40396064799233 66.44704234254773 Z M 413.6672018610962 91.22860667364476 L 401.7556588687032 75.41815495939773 L 396.09814110133266 81.49310342135212 L 388.3482303278519 89.62097591960243 L 390.60989919693026 91.77747283048403 L 401.3249932228732 80.53980563725099 L 401.46306090349697 80.53651901355735 L 401.530451431962 80.46584186139866 L 409.3805305143727 91.05435664690036 L 400.0806375861958 100.80780364480073 L 402.41298360743286 103.03169108414737 L 413.6672018610962 91.22860667364476 Z" fill-opacity="1"/></g></g><g><g><path fill="rgb(245,158,11)" stroke="none" paint-order="stroke fill markers" d=" M 433.4055194822037 98.41747136242824 L 433.67790871298916 98.46327586291245 L 452.31450278026693 124.6347102598422 L 452.2686982797827 124.90709949062764 L 426.097263882853 143.5436935579054 L 425.82487465206754 143.4978890574212 L 407.18828058478977 117.32645466049146 L 407.234085085274 117.05406542970601 L 433.4055194822037 98.41747136242824 Z M 443.3823043469222 123.20271017668078 L 432.10971401443504 107.37257204601508 L 429.4846157314603 109.24189607100038 L 434.0729565200606 115.68531912921105 L 434.0271520195764 115.95770835999652 L 420.90166060470284 125.30432848492305 L 422.77098462968814 127.92942676789777 L 435.8964760445617 118.58280664297122 L 436.1688652753472 118.62861114345543 L 440.7572060639475 125.0720342016661 L 443.3823043469222 123.20271017668078 Z" fill-opacity="1"/></g></g><g><g><path fill="rgb(245,158,11)" stroke="none" paint-order="stroke fill markers" d=" M 458.77832498390825 135.86648791169677 L 459.0371232277279 135.96301466606252 L 472.383953235308 165.18849576680827 L 472.28742648094226 165.44729401062787 L 443.0619453801965 178.794124018208 L 442.8031471363769 178.69759726384225 L 429.45631712879674 149.4721161630965 L 429.5528438831625 149.2133179192769 L 458.77832498390825 135.86648791169677 Z M 463.8841790616243 162.0919441222849 L 455.8111724612947 144.41452546256332 L 438.0449225520268 152.5280999352564 L 446.1179291523564 170.205518594978 L 463.8841790616243 162.0919441222849 Z M 454.00025064280373 148.67700098076747 L 454.2590488866233 148.77352773513323 L 459.5734401662373 160.41042142570373 L 459.4769134118715 160.66921966952333 L 447.9288509708474 165.94304307677385 L 447.6700527270278 165.8465163224081 L 442.3556614474138 154.2096226318376 L 442.45218820177956 153.950824388018 L 454.00025064280373 148.67700098076747 Z" fill-opacity="1"/></g></g><g><g><path fill="rgb(245,158,11)" stroke="none" paint-order="stroke fill markers" d=" M 476.6053378540743 177.44058695980178 L 476.84119146810417 177.58434723964828 L 484.4158682046864 208.80759001098082 L 484.2721079248399 209.0434436250107 L 453.04886515350734 216.61812036159287 L 452.81301153947743 216.47436008174637 L 445.2383348028953 185.25111731041383 L 445.3820950827418 185.01526369638395 L 476.6053378540743 177.44058695980178 Z M 472.8108255730906 188.3095241801762 L 472.0740788996236 185.27261302916511 L 453.09338420580445 189.8772797383336 L 457.6750275814271 208.7630709586837 L 476.65572227524626 204.1584042495152 L 475.9189756017793 201.12149309850412 L 460.2599024793785 204.92034313356814 L 460.0240488653486 204.77658285372164 L 457.00799217084324 192.34422782927007 L 457.15175245068974 192.1083742152402 L 472.8108255730906 188.3095241801762 Z" fill-opacity="1"/></g></g><g><g><path fill="rgb(245,158,11)" stroke="none" paint-order="stroke fill markers" d=" M 486.2422433997452 221.63717224688622 L 486.4466280198637 221.82297018113607 L 487.97538293256014 253.9154852779339 L 487.78958499831026 254.1198698980524 L 455.69706990151246 255.6486248107488 L 455.49268528139396 255.46282687649895 L 453.9639303686975 223.37031177970113 L 454.1497283029474 223.16592715958262 L 486.2422433997452 221.63717224688622 Z M 481.2353371401166 247.88169908628072 L 480.31064951815125 228.4701170064547 L 460.80152179973317 229.39945129988715 L 461.72620942169846 248.8110333797132 L 464.94521549523745 248.65769322129682 L 464.17851470315566 232.56266285360186 L 464.36431263740553 232.35827823348336 L 477.0452456543773 231.75421094275225 L 477.2496302744958 231.94000887700213 L 478.0163310665776 248.0350392446971 L 481.2353371401166 247.88169908628072 Z" fill-opacity="1"/></g></g><g><g><path fill="rgb(245,158,11)" stroke="none" paint-order="stroke fill markers" d=" M 487.34073874578786 266.85886402759513 L 487.506267379305 267.07998439481275 L 482.9338472824387 298.88186470524505 L 482.7127269152211 299.04739333876216 L 450.9108466047888 294.4749732418959 L 450.7453179712716 294.2538528746783 L 455.31773806813794 262.451972564246 L 455.53885843535556 262.2864439307288 L 487.34073874578786 266.85886402759513 Z M 479.7784593249446 275.5389590565719 L 480.2231931945486 272.445767050694 L 477.2266634388544 272.0149311145151 L 470.5708661096053 270.9593114579977 L 463.7906106633222 270.0831183684226 L 460.89074315781164 269.6661803656689 L 460.4460092882076 272.7593723715468 L 468.2756515530861 273.88510497898193 L 468.4411801866032 274.10622534619955 L 466.6344488413369 286.6723178700786 L 466.4133284741193 286.8378465035957 L 458.5836862092408 285.71211389616053 L 458.1250544062117 288.90196815222214 L 477.4575044429487 291.68155483724723 L 477.9161362459778 288.4917005811857 L 469.9898317309156 287.3520700403254 L 469.8243030973985 287.13094967310775 L 471.6310344426648 274.5648571492287 L 471.85215480988245 274.3993285157116 L 479.7784593249446 275.5389590565719 Z" fill-opacity="1"/></g></g><g><g><path fill="rgb(245,158,11)" stroke="none" paint-order="stroke fill markers" d=" M 479.8611214082946 311.47123253700494 L 479.98181141911436 311.7196834709956 L 469.4734754883105 342.0815261816524 L 469.2250245543198 342.2022161924722 L 438.863181843663 331.6938802616683 L 438.7424918328432 331.4454293276777 L 449.2508277636471 301.08358661702084 L 449.49927869763775 300.96289660620107 L 479.8611214082946 311.47123253700494 Z M 461.63911002833896 322.3189494356569 L 464.52823600002404 320.8387290750269 L 463.04801563939407 317.9496031033418 L 460.19082989850165 319.3375382277692 L 460.09854466229905 319.3055979969765 L 458.6786693070789 316.5406974922867 L 455.82148356618654 317.9286326167141 L 457.1171334544113 320.7538781268138 L 457.0851932236186 320.8461633630164 L 454.32029271892884 322.26603871823653 L 455.70822784335627 325.1232244591289 L 458.5334733534559 323.8275745709041 L 458.6257585896585 323.85951480169683 L 460.04563394487866 326.6244153063866 L 462.902819685771 325.23648018195917 L 461.60716979754625 322.4112346718595 L 461.63911002833896 322.3189494356569 Z" fill-opacity="1"/></g></g><g><g><path fill="rgb(245,158,11)" stroke="none" paint-order="stroke fill markers" d=" M 464.0737242457952 353.86187054079323 L 464.1452135824718 354.12867237746985 L 448.08076045747185 381.9531213857785 L 447.8139586207952 382.0246107224551 L 419.9895096124866 365.9601575974551 L 419.9180202758099 365.6933557607785 L 435.9824734008099 337.86890675246985 L 436.24927523748653 337.79741741579323 L 464.0737242457952 353.86187054079323 Z M 445.67278422214247 373.23323356878745 L 455.3895810971424 356.40324769446096 L 438.47502242947763 346.63762269446096 L 428.70939742947763 363.55218136212574 L 437.0821039699717 368.38616573712574 L 438.6934320949717 365.5952635569611 L 433.280773321319 362.4702635569611 L 433.2092839846423 362.2034617202844 L 439.6057683596423 351.12442579296396 L 439.872570196319 351.0529364562873 L 450.86703333030107 357.4005927062873 L 450.93852266697775 357.66739454296396 L 442.88188204197775 371.62190544378745 L 445.67278422214247 373.23323356878745 Z" fill-opacity="1"/></g></g><g><g><path fill="rgb(245,158,11)" stroke="none" paint-order="stroke fill markers" d=" M 440.54914492540456 392.4986699337731 L 440.568849777047 392.7741797596129 L 419.5288906493127 417.0555869825182 L 419.253380823473 417.0752918341606 L 394.9719736005676 396.03533270642635 L 394.95226874892523 395.75982288058657 L 415.99222787665946 371.47841565768124 L 416.26773770249923 371.4587108060389 L 440.54914492540456 392.4986699337731 Z M 418.8146793015649 408.03756639917685 L 431.54097676788444 393.35063619444077 L 416.7802428937778 380.56038748457195 L 404.0539454274583 395.24731768930803 L 406.4894665166859 397.3577087264364 L 417.0414217023277 385.1801032802984 L 417.31693152816746 385.16039842865604 L 420.71190031921196 388.1021556319259 L 420.7316051708543 388.37766545776566 L 410.17964998521256 400.5552709039036 L 412.6151710744401 402.66566194103194 L 423.16712626008194 390.488056494894 L 423.44263608592166 390.4683516432516 L 426.91140854633676 393.4740600900708 L 426.9311133979791 393.74956991591057 L 416.3791582123373 405.9271753620485 L 418.8146793015649 408.03756639917685 Z" fill-opacity="1"/></g></g><g><g><path fill="rgb(245,158,11)" stroke="none" paint-order="stroke fill markers" d=" M 410.1376230364554 425.9851961186831 L 410.1048312183847 426.2594562907463 L 384.8498050298713 446.1202284066232 L 384.5755448578081 446.08743658855246 L 364.71477274193126 420.83241040003907 L 364.747564560002 420.5581502279759 L 390.00259074851533 400.69737811209905 L 390.2768509205785 400.7301699301698 L 410.1376230364554 425.9851961186831 Z M 385.8551720286722 437.1300098170369 L 401.13100853783374 425.1169592059138 L 399.13889461739626 422.58378028730914 L 392.9210918171848 427.47351445565573 L 392.6468316451216 427.440722637585 L 382.6862620429341 414.77482804456156 L 380.15308312432944 416.7669419649991 L 390.11365272651693 429.4328365580225 L 390.0808609084462 429.70709673008565 L 383.86305810823467 434.59683089843224 L 385.8551720286722 437.1300098170369 Z" fill-opacity="1"/></g></g><g><g><path fill="rgb(245,158,11)" stroke="none" paint-order="stroke fill markers" d=" M 373.9383102164614 453.111158790908 L 373.8542069104208 453.3742568319983 L 345.2968961089101 468.09657378984184 L 345.0337980678198 468.01247048380134 L 330.3114811099762 439.45515968229057 L 330.3955844160168 439.19206164120027 L 358.9528952175275 424.46974468335674 L 359.2159932586178 424.55384798939724 L 373.9383102164614 453.111158790908 Z M 355.14518414066714 455.658146028559 L 358.0095952544965 454.18143946439835 L 349.1046071857705 436.9081724446396 L 346.2401960719411 438.3848790088002 L 355.14518414066714 455.658146028559 Z" fill-opacity="1"/></g></g><g><g><path fill="rgb(245,158,11)" stroke="none" paint-order="stroke fill markers" d=" M 333.259543947127 472.8961549834669 L 333.127168865726 473.138581844884 L 302.2997090689321 482.19034075121516 L 302.0572822075149 482.05796566981417 L 293.0055233011838 451.23050587302026 L 293.1378983825848 450.9880790116031 L 323.9653581793787 441.936320105272 L 324.2077850407959 442.068695186673 L 333.259543947127 472.8961549834669 Z M 305.6664590843267 471.1256512412026 L 325.3144834103684 468.7151782686433 L 322.88218259931995 460.77814992876137 L 319.71819392385464 450.00259407273916 L 316.71977838130937 450.88300831286864 L 321.0943366369526 465.7813855398906 L 321.02814909625215 465.90259897059923 L 321.0556620412562 465.99629945630375 L 307.96069970745924 467.5004099706374 L 304.1639132969009 454.5697429434108 L 301.07179726865104 455.47767012854433 L 305.6664590843267 471.1256512412026 Z" fill-opacity="1"/></g></g><g><g><path fill="rgb(245,158,11)" stroke="none" paint-order="stroke fill markers" d=" M 289.5715608289175 484.6251033846561 L 289.3956983524978 484.8380971279915 L 257.4122742776399 487.8921438318075 L 257.1992805343045 487.7162813553878 L 254.14523383048845 455.7328572805299 L 254.32109630690815 455.5198635371945 L 286.30452038176605 452.4658168333785 L 286.51751412510146 452.6416793097982 L 289.5715608289175 484.6251033846561 Z M 263.11852194455145 480.8726331184681 L 282.4641188773682 479.02535258941225 L 282.1577859253137 475.8172887764326 L 274.28344747527274 476.5691969314754 L 274.07045373193733 476.3933344550557 L 272.53878897166487 460.3530153901574 L 269.3307251586852 460.65934834221184 L 270.86238991895766 476.6996674071102 L 270.68652744253797 476.9126611504456 L 262.81218899249694 477.66456930548844 L 263.11852194455145 480.8726331184681 Z" fill-opacity="1"/></g></g><g><g><path fill="rgb(245,158,11)" stroke="none" paint-order="stroke fill markers" d=" M 244.4533583996548 487.87408923977955 L 244.2403646563194 488.04995171619925 L 212.25694058146152 484.9959050123832 L 212.0810781050418 484.7829112690478 L 215.13512480885782 452.7994871941899 L 215.34811855219323 452.6236247177702 L 247.33154262705114 455.67767142158624 L 247.50740510347083 455.89066516492164 L 244.4533583996548 487.87408923977955 Z M 219.18852005659107 479.1831604738039 L 238.53411698940783 481.03044100285985 L 240.39068033519266 461.58763001510425 L 221.04508340237587 459.7403494860484 L 219.18852005659107 479.1831604738039 Z M 235.7481658168793 477.330898944677 L 235.5351720735439 477.50676142109677 L 222.800130876564 476.2907124296077 L 222.6242684001443 476.0777186862723 L 223.83103457490444 463.43989154423116 L 224.04402831823984 463.26402906781146 L 236.7790695152197 464.4800780593005 L 236.95493199163943 464.6930718026359 L 235.7481658168793 477.330898944677 Z" fill-opacity="1"/></g></g><g><g><path fill="rgb(245,158,11)" stroke="none" paint-order="stroke fill markers" d=" M 199.53562604946242 482.525685734883 L 199.29319918804526 482.658060816284 L 168.46573939125136 473.6063019099529 L 168.33336430985037 473.3638750485357 L 177.38512321618146 442.5364152517418 L 177.6275500775986 442.4040401703408 L 208.45500987439252 451.4557990766719 L 208.5873849557935 451.6982259380891 L 199.53562604946242 482.525685734883 Z M 192.02010644497184 473.80507309439184 L 195.01852198751715 474.6854873345213 L 200.5211109883263 455.94539019361315 L 181.87471433312268 450.47031413780803 L 176.37212533231352 469.2104112787162 L 179.37054087485882 470.09082551884563 L 183.9101768005264 454.63024537759645 L 184.15260366194357 454.49787029619546 L 196.42736728923842 458.1020660917254 L 196.55974237063938 458.3444929531426 L 192.02010644497184 473.80507309439184 Z" fill-opacity="1"/></g></g><g><g><path fill="rgb(245,158,11)" stroke="none" paint-order="stroke fill markers" d=" M 156.4418076574862 468.7731981077628 L 156.1787096163959 468.8573014138034 L 127.6213988148852 454.1349844559598 L 127.53729550884466 453.8718864148695 L 142.25961246668822 425.3145756133588 L 142.52271050777853 425.2304723073183 L 171.08002130928924 439.9527892651618 L 171.16412461532977 440.2158873062521 L 156.4418076574862 468.7731981077628 Z M 136.21683383408237 451.3148266728599 L 153.49010085384114 460.21981474158594 L 162.43983760632963 442.85974738504444 L 145.16657058657086 433.9547593163184 L 143.68986402241026 436.8191704301478 L 158.01191959155696 444.2027032509508 L 158.0960228975975 444.4658012920411 L 152.27869400848 455.749845073793 L 152.0155959673897 455.83394837983354 L 137.693540398243 448.45041555903055 L 136.21683383408237 451.3148266728599 Z" fill-opacity="1"/></g></g><g><g><path fill="rgb(245,158,11)" stroke="none" paint-order="stroke fill markers" d=" M 116.72942610026111 447.1136770930204 L 116.45516592819794 447.1464689110911 L 91.20013973968454 427.2856967952142 L 91.16734792161381 427.0114366231511 L 111.02812003749067 401.7564104346377 L 111.30238020955383 401.72361861656697 L 136.55740639806723 421.5843907324438 L 136.59019821613796 421.858650904507 L 116.72942610026111 447.1136770930204 Z M 112.99338300832582 436.22450348956545 L 115.44979892939705 438.15625032150484 L 117.32117867283833 435.7765973979671 L 121.56327077674112 430.5403176566554 L 125.71220397407505 425.106540740814 L 127.52321662901824 422.80365081480977 L 125.06680070794702 420.8719039828704 L 120.17706653960043 427.0897067830819 L 119.90280636753728 427.12249860115264 L 109.92361668818548 419.27477709639885 L 109.89082487011474 419.00051692433567 L 114.78055903846132 412.7827141241242 L 112.24738011985664 410.79060020368667 L 100.17396242023544 426.14319971038174 L 102.70714133884013 428.13531363081927 L 107.65724259568482 421.84074783307426 L 107.93150276774799 421.8079560150035 L 117.91069244709978 429.6556775197573 L 117.94348426517053 429.9299376918205 L 112.99338300832582 436.22450348956545 Z" fill-opacity="1"/></g></g><g><g><path fill="rgb(245,158,11)" stroke="none" paint-order="stroke fill markers" d=" M 81.8337903168659 418.3299542134597 L 81.55828049102614 418.3102493618173 L 60.51832136329188 394.02884213891195 L 60.53802621493426 393.7533323130722 L 84.81943343783962 372.7133731853379 L 85.09494326367938 372.7330780369803 L 106.13490239141363 397.01448525988565 L 106.11519753977126 397.2899950857254 L 81.8337903168659 418.3299542134597 Z M 81.55039759954937 397.125371001043 L 81.38774304921138 400.36753766757073 L 84.62990971573909 400.5301922179087 L 84.85651550962643 397.36182922075153 L 84.93031917899697 397.2978779772022 L 88.03473093260479 397.450680101719 L 88.26133672649213 394.2823171045618 L 85.16677739870549 393.99176006712514 L 85.10282615515615 393.9179563977546 L 85.25562827967295 390.81354464414676 L 82.08726528251577 390.5869388502594 L 81.79670824507909 393.68149817804607 L 81.72290457570855 393.7454494215954 L 78.61849282210072 393.5926472970786 L 78.39188702821338 396.7610102942358 L 81.48644635600003 397.05156733167246 L 81.55039759954937 397.125371001043 Z" fill-opacity="1"/></g></g><g><g><path fill="rgb(245,158,11)" stroke="none" paint-order="stroke fill markers" d=" M 53.016119504204866 383.4623482092068 L 52.74931766752822 383.3908588725302 L 36.6848645425282 355.56640986422155 L 36.75635387920485 355.29960802754493 L 64.58080288751347 339.23515490254493 L 64.84760472419012 339.30664423922155 L 80.91205784919012 367.1310932475302 L 80.84056851251347 367.3978950842068 L 53.016119504204866 383.4623482092068 Z M 45.44049702785759 357.84098518121266 L 55.1572939028576 374.6709710555391 L 72.07185257052241 364.9053460555391 L 62.3062275705224 347.9907873878743 L 53.933521030028324 352.8247717628743 L 55.544849155028324 355.615673943039 L 60.95750792868107 352.490673943039 L 61.22430976535771 352.56216327971566 L 67.62079414035772 363.6411992070361 L 67.54930480368107 363.9080010437128 L 56.554841669698945 370.2556572937128 L 56.288039833022296 370.1841679570361 L 48.23139920802228 356.22965705621266 L 45.44049702785759 357.84098518121266 Z" fill-opacity="1"/></g></g><g><g><path fill="rgb(245,158,11)" stroke="none" paint-order="stroke fill markers" d=" M 31.317959369156426 343.77106520791654 L 31.069508435165783 343.65037519709676 L 20.5611725043619 313.28853248644 L 20.68186251518167 313.0400815524493 L 51.043705225838494 302.5317456216454 L 51.29215615982914 302.6524356324652 L 61.80049209063303 333.01427834312204 L 61.67980207981325 333.26272927711267 L 31.317959369156426 343.77106520791654 Z M 28.728113095260387 317.1790176072899 L 35.084219023011066 335.54377961160816 L 53.54126626353193 329.1557334530648 L 47.185160335781255 310.7909714487465 L 44.13974754109531 311.8449990649062 L 49.409885621893615 327.0720630383359 L 49.289195611073836 327.3205139723265 L 45.04407474575404 328.7897645887915 L 44.79562381176339 328.66907457797174 L 39.52548573096509 313.442010604542 L 36.48007293627915 314.4960382207017 L 41.75021101707745 329.7231021941314 L 41.629521006257676 329.971553128122 L 37.29211490473527 331.47274397537973 L 37.04366397074463 331.35205396455996 L 31.77352588994633 316.12498999113024 L 28.728113095260387 317.1790176072899 Z" fill-opacity="1"/></g></g><g><g><path fill="rgb(245,158,11)" stroke="none" paint-order="stroke fill markers" d=" M 17.523537953006095 300.6906515918849 L 17.302417585788472 300.5251229583678 L 12.72999748892218 268.7232426479354 L 12.8955261224393 268.5021222807178 L 44.69740643287161 263.92970218385153 L 44.91852680008923 264.09523081736864 L 49.49094689695552 295.89711112780094 L 49.32541826343841 296.11823149501856 L 17.523537953006095 300.6906515918849 Z M 20.01307167367854 274.0890253038167 L 22.778760425278517 293.32481309036996 L 25.968614681340117 292.8661812873408 L 24.84288207390495 285.03653902246236 L 25.008410707422065 284.81541865524474 L 40.95768198773006 282.52225964009904 L 40.49905018470092 279.33240538403743 L 24.549778904392923 281.62556439918313 L 24.328658537175304 281.460035765666 L 23.20292592974014 273.63039350078753 L 20.01307167367854 274.0890253038167 Z" fill-opacity="1"/></g></g><g><g><path fill="rgb(245,158,11)" stroke="none" paint-order="stroke fill markers" d=" M 12.131421586747962 255.77814575411793 L 11.9456236524981 255.57376113399943 L 13.474378565194513 223.48124603720163 L 13.67876318531302 223.29544810295175 L 45.771278282110835 224.82420301564818 L 45.95707621636069 225.02858763576668 L 44.428321303664276 257.1211027325645 L 44.22393668354577 257.30690066681433 L 12.131421586747962 255.77814575411793 Z M 19.32222897372456 238.2293275371309 L 19.1688888153082 241.4483336106699 L 38.58047089513423 242.3730212326352 L 38.73381105355059 239.15401515909622 L 19.32222897372456 238.2293275371309 Z" fill-opacity="1"/></g></g><g><g><path fill="rgb(245,158,11)" stroke="none" paint-order="stroke fill markers" d=" M 15.336495404880758 210.65680267398545 L 15.192735125034247 210.4209490599556 L 22.767411861616413 179.19770628862304 L 23.003265475646288 179.05394600877653 L 54.22650824697884 186.6286227453587 L 54.37026852682534 186.8644763593886 L 46.79559179024318 218.08771913072113 L 46.5597381762133 218.23147941056763 L 15.336495404880758 210.65680267398545 Z M 30.666339054577147 187.64574208515268 L 22.929857720928492 205.86666677195905 L 31.019676299347484 207.72874664988657 L 41.933575748293514 210.37643000765846 L 42.670322421760474 207.33951885664737 L 27.580670140174224 203.67880882285843 L 27.508790000250972 203.5608820158435 L 27.413886526781877 203.53785868229764 L 32.65876977816813 191.44523338246228 L 45.75544911690336 194.62245341178854 L 46.51521912391616 191.49063878730837 L 30.666339054577147 187.64574208515268 Z" fill-opacity="1"/></g></g><g><g><path fill="rgb(245,158,11)" stroke="none" paint-order="stroke fill markers" d=" M 27.0229196888788 166.95742525291575 L 26.926392934513053 166.69862700909613 L 40.27322294209318 137.47314590835038 L 40.53202118591279 137.37661915398462 L 69.75750228665855 150.72344916156476 L 69.8540290410243 150.98224740538436 L 56.507199033444174 180.20772850613014 L 56.24840078962456 180.3042552604959 L 27.0229196888788 166.95742525291575 Z M 43.49917370852634 145.92465670485117 L 35.42616710819672 163.60207536457278 L 38.35759834322593 164.94081515256713 L 41.643596004666634 157.74548393931363 L 41.902394248486246 157.64895718494788 L 56.559550423632295 164.34265612491967 L 57.89829021162666 161.41122488989046 L 43.2411340364806 154.71752594991867 L 43.144607282114855 154.45872770609904 L 46.43060494355555 147.26339649284554 L 43.49917370852634 145.92465670485117 Z" fill-opacity="1"/></g></g><g><g><path fill="rgb(245,158,11)" stroke="none" paint-order="stroke fill markers" d=" M 46.768316616436934 126.25942284852378 L 46.722512115952725 125.98703361773832 L 65.35910618323047 99.8155992208086 L 65.63149541401593 99.76979472032438 L 91.80292981094567 118.40638878760213 L 91.84873431142987 118.67877801838759 L 73.21214024415212 144.85021241531732 L 72.93975101336667 144.89601691580154 L 46.768316616436934 126.25942284852378 Z M 66.9273008817846 108.7248954039112 L 55.654710549297455 124.55503353457692 L 71.56439711278057 135.88427004963938 L 82.83698744526772 120.05413191897367 L 66.9273008817846 108.7248954039112 Z M 60.251583540317 123.99210007455555 L 60.20577903983279 123.7197108437701 L 67.6264289571987 113.29886614468865 L 67.89881818798415 113.25306164420445 L 78.24011445424819 120.61706537899505 L 78.2859189547324 120.8894546097805 L 70.86526903736647 131.31029930886194 L 70.59287980658102 131.35610380934614 L 60.251583540317 123.99210007455555 Z" fill-opacity="1"/></g></g><g><g><path fill="rgb(245,158,11)" stroke="none" paint-order="stroke fill markers" d=" M 73.85903609646329 90.03372730531527 L 73.86560934385058 89.75759194406777 L 97.1183924040623 67.58610807906632 L 97.3945277653098 67.59268132645362 L 119.56601163031125 90.84546438666534 L 119.55943838292396 91.12159974791284 L 96.30665532271223 113.29308361291429 L 96.03051996146473 113.286510365527 L 73.85903609646329 90.03372730531527 Z M 85.16906798193762 87.885402725432 L 82.90739911285927 90.0418996363136 L 96.38550480586927 104.17733006805325 L 110.45025808545023 90.7666149035083 L 96.97215239244022 76.63118447176865 L 94.71048352336189 78.78768138265025 L 105.82992072009513 90.44941148883547 L 105.82334747270784 90.72554685008296 L 96.56464053991836 99.55370607900451 L 96.28850517867086 99.54713283161722 L 85.16906798193762 87.885402725432 Z" fill-opacity="1"/></g></g><g><g><path fill="rgb(245,158,11)" stroke="none" paint-order="stroke fill markers" d=" M 107.31594894276842 59.58962964535099 L 107.3746623637402 59.3197284050606 L 134.4032182525545 41.94953026610632 L 134.67311949284488 42.00824368707812 L 152.04331763179917 69.03679957589242 L 151.98460421082737 69.30670081618281 L 124.95604832201307 86.67689895513709 L 124.68614708172268 86.61818553416529 L 107.31594894276842 59.58962964535099 Z M 132.54782902580087 50.80347424085943 L 116.19924962800741 61.310068251959436 L 126.75864059393706 77.74080131506844 L 143.10721999173052 67.23420730396843 L 141.36492048235212 64.52313634855544 L 127.8095657052872 73.23463389544742 L 127.5396644649968 73.17592047447562 L 120.67606033714253 62.495943983454765 L 120.73477375811433 62.22604274316438 L 134.29012853517926 53.514545196272415 L 132.54782902580087 50.80347424085943 Z" fill-opacity="1"/></g></g><g><g><path fill="rgb(245,158,11)" stroke="none" paint-order="stroke fill markers" d=" M 145.92983515395096 36.02745887938461 L 146.038566692497 35.773546694096254 L 175.8660129778767 23.832438499540793 L 176.11992516316505 23.94117003808683 L 188.0610333577205 53.7686163234665 L 187.95230181917447 54.02252850875486 L 158.1248555337948 65.96363670331033 L 157.87094334850644 65.85490516476428 L 145.92983515395096 36.02745887938461 Z M 157.2281576667295 38.23653745386275 L 154.32700787605427 39.39798262780128 L 155.45215788830723 42.2084714875179 L 157.86586311365357 48.50037088534694 L 160.4971853626027 54.81034089076341 L 161.58604021317007 57.53016881952144 L 164.48719000384528 56.36872364558292 L 161.5472819073134 49.02518823793625 L 161.65601344585943 48.77127605264789 L 173.44193447047755 44.05290503352263 L 173.6958466557659 44.16163657206867 L 176.6357547522978 51.50517197971534 L 179.6275654739316 50.30743164409124 L 172.36853313681584 32.17524545237107 L 169.376722415182 33.37298578799518 L 172.35292567339948 40.807182126600445 L 172.24419413485344 41.0610943118888 L 160.45827311023533 45.77946533101406 L 160.20436092494697 45.67073379246801 L 157.2281576667295 38.23653745386275 Z" fill-opacity="1"/></g></g><g><g><path fill="rgb(245,158,11)" stroke="none" paint-order="stroke fill markers" d=" M 188.3050882748395 20.198813249535373 L 188.45990808985948 19.97006716718711 L 220.0082031483976 13.889631679435638 L 220.23694923074586 14.044451494455615 L 226.31738471849735 45.592746552993745 L 226.16256490347737 45.82149263534201 L 194.61426984493923 51.901928123093484 L 194.38552376259096 51.74710830807351 L 188.3050882748395 20.198813249535373 Z M 206.81049237211164 30.555679563300096 L 204.08402095076454 28.793733257402405 L 202.32207464486683 31.52020467874951 L 204.9526545918719 33.300632551479275 L 204.97113615870396 33.396524025821336 L 203.28659976031625 36.008622405994316 L 205.9171797073213 37.78905027872408 L 207.71608914688315 35.2543618060611 L 207.8119806212252 35.235880239229026 L 210.42407900139818 36.92041663761673 L 212.20450687412796 34.28983669061168 L 209.66981840146497 32.49092725104984 L 209.65133683463287 32.395035776707786 L 211.33587323302058 29.782937396534805 L 208.70529328601555 28.00250952380504 L 206.9063838464537 30.537197996468027 L 206.81049237211164 30.555679563300096 Z" fill-opacity="1"/></g></g></g></g></svg>