<svg version="1.1" xmlns="http://www.w3.org/2000/svg" xmlns:xlink="http://www.w3.org/1999/xlink" width="500" height="500" viewBox="0 0 500 500"><defs/><g><g><g><g><path fill="rgb(244,244,245)" stroke="none" paint-order="stroke fill markers" d=" M 259.6 24.5 L 250.25 24.5 L 250.25 29.7 L 253.2 29.7 L 253.2 34.75 C 253.2 38.45 252 40 249.8 40 C 247.6 40 245.9 38.45 245.9 33.9 L 245.9 19.849999999999998 C 245.9 15.349999999999998 247.55 13.75 250.1 13.75 C 252.8 13.75 254.1 15.599999999999998 254.1 17.849999999999998 L 260.2 17.849999999999998 C 259.65 11.449999999999996 256.2 8.25 250.1 8.25 C 242.75 8.25 239.5 12.899999999999999 239.5 19.849999999999998 L 239.5 33.9 C 239.5 40.9 242.8 45.5 248.3 45.5 C 250.85 45.5 253.25 44.5 254.2 42.95 L 254.2 45 L 259.6 45 Z" fill-opacity="1"/></g></g><g><g><path fill="rgb(244,244,245)" stroke="none" paint-order="stroke fill markers" d=" M 299.0337781341626 44.4654260181764 L 287.25063376701013 42.19441108585148 L 289.01067033956195 33.062474201308305 L 299.81188600945177 35.144237889272816 L 300.91900578896013 29.39995501028598 L 290.1177901190704 27.318191322321468 L 291.802126193878 18.579025916683378 L 303.5852705610305 20.8500408490083 L 304.739703151629 14.860275795705789 L 286.6722151219952 11.378052899474241 L 279.8118575139303 46.97296817524736 L 297.8793455435641 50.45519107147891 Z" fill-opacity="1"/></g></g><g><g><path fill="rgb(244,244,245)" stroke="none" paint-order="stroke fill markers" d=" M 350.01486988118324 30.17527254048514 L 329.3122649749248 21.88719977925983 L 327.0451239953968 27.55024417065787 L 334.4256490628746 30.504960693157475 L 323.2200260247157 58.49525387359207 L 329.1615807960186 60.87389358981817 L 340.3672038341775 32.883600409383575 L 347.74772890165525 35.83831693188318 Z" fill-opacity="1"/></g></g><g><g><path fill="rgb(244,244,245)" stroke="none" paint-order="stroke fill markers" d=" M 369.9810331956187 47.58378480637516 L 374.43967691962393 50.44918113888983 L 361.43726525981685 70.68132860347973 L 356.97862153581156 67.81593227096506 L 353.68071254933244 72.94757882123527 L 367.9820226074625 82.13847271798043 L 371.2799315939417 77.00682616771023 L 366.8212878699364 74.14142983519555 L 379.8236995297435 53.90928237060565 L 384.28234325374876 56.774678703120316 L 387.58025224022794 51.64303215285011 L 373.27894218209786 42.45213825610495 Z" fill-opacity="1"/></g></g><g><g><path fill="rgb(244,244,245)" stroke="none" paint-order="stroke fill markers" d=" M 423.71890190111026 82.29995342197293 L 419.5574311820061 78.33199910595079 L 405.8938667546603 92.66193306043118 L 414.59985302098636 73.60495787729832 L 409.2442211390088 68.49837319233069 L 384.22885697278224 94.73373207363949 L 388.3903276918864 98.70168638966163 L 403.0200027353072 83.35852478183415 L 394.25257340053747 104.29132638266674 L 398.7035377348837 108.53531230328173 Z" fill-opacity="1"/></g></g><g><g><path fill="rgb(244,244,245)" stroke="none" paint-order="stroke fill markers" d=" M 452.9840829738623 119.14379243130966 L 440.0488138904246 100.97874870058718 L 435.07990058291756 104.5170958489715 L 439.6913530140086 110.99297466777166 L 415.13188805969094 128.4816904913433 L 418.84425228094665 133.69497658446545 L 443.40371723526425 116.20626076089381 L 448.0151696663553 122.68213957969398 Z" fill-opacity="1"/></g></g><g><g><path fill="rgb(244,244,245)" stroke="none" paint-order="stroke fill markers" d=" M 441.02271902444886 162.76284726960384 C 440.00495224259424 160.53424888098527 440.8204102634761 158.3479213171972 444.8682726428037 156.4993245093388 L 457.64860217753466 150.6627435766623 C 461.6964645568623 148.8141467688039 463.8827921206504 149.62960478968574 464.900558902505 151.85820317830434 C 465.9183256843596 154.0868015669229 465.10286766347775 156.27312913071097 461.0550052841501 158.12172593856937 L 448.27467574941915 163.95830687124587 C 444.2268133700916 165.80690367910427 442.0404858063035 164.9914456582224 441.02271902444886 162.76284726960384 Z M 436.019743049999 165.04762984111423 C 438.9068773903621 171.36957220882812 444.5204262653819 172.70862748317808 450.93333183263127 169.77995164151477 L 463.71366136736225 163.94337070883827 C 470.12656693461156 161.01469486717497 472.79066921731794 155.89536297450786 469.90353487695484 149.57342060679395 C 467.01640053659173 143.25147823908006 461.40285166157196 141.9124229647301 454.9899460943226 144.8410988063934 L 442.2096165595916 150.6776797390699 C 435.7967109923423 153.6063555807332 433.1326087096359 158.7256874734003 436.019743049999 165.04762984111423 Z" fill-opacity="1"/></g></g><g><g><path fill="rgb(244,244,245)" stroke="none" paint-order="stroke fill markers" d=" M 486.98394941478074 203.57013116782875 L 485.5222440146223 197.5448994442228 L 460.6438678655396 203.58032819326414 C 456.80521217066166 204.51157598852637 454.9495822104389 202.80083420476012 454.38376076521627 200.46848644078364 C 453.80615137321814 198.08754809839095 454.7069576446277 195.86245303044686 458.54561333950573 194.93120523518462 L 483.4239894885884 188.8957764861433 L 481.9151323013281 182.67618244887262 L 456.6966221033322 188.79412682534226 C 449.6023976545703 190.51516705456106 447.16766880102654 195.3247507589706 448.7472536689397 201.83588826673832 C 450.279686749751 208.15266346084132 454.52544303277443 211.44447961384364 461.76543921678484 209.68807554429839 Z" fill-opacity="1"/></g></g><g><g><path fill="rgb(244,244,245)" stroke="none" paint-order="stroke fill markers" d=" M 491.4809374390745 238.5969585835286 C 491.13121035777 231.25528364053346 486.33183600414185 228.2302206967691 479.38970799682 228.5609150117441 L 465.3556218812987 229.2294409290677 C 458.4134938739768 229.5601352440427 453.92340197320294 233.02771000496787 454.2731290545075 240.369384947963 C 454.5633787410323 246.46247571697933 457.92391183600984 249.75630590652474 464.3428328604841 250.00115868180345 L 464.0525831739593 243.9080679127871 C 461.80513166079754 244.01512722339052 459.8953705927381 242.80462622672653 459.766899420014 240.10768441093242 C 459.6455655346635 237.56057269601573 461.1652431162471 235.8363105210458 465.6601461425706 235.62219189983895 L 479.6942322580919 234.95366598251536 C 484.18913528441544 234.73954736130852 485.86583318821744 236.3115474056425 485.987167073568 238.85865912055917 C 486.11563824629206 241.5556009363533 484.3295901593744 242.94215502156513 482.0821386462126 243.04921433216853 L 482.37238833273744 249.1423051011849 C 488.7389692498056 248.28840380336229 491.77118712559934 244.69004935254495 491.4809374390745 238.5969585835286 Z" fill-opacity="1"/></g></g><g><g><path fill="rgb(244,244,245)" stroke="none" paint-order="stroke fill markers" d=" M 487.38550595486953 294.1326870080512 L 488.2963209198185 287.7978297800133 L 473.943910012545 285.7342646250506 L 474.940113880458 278.8055145318841 L 489.2925247877315 280.86907968684676 L 490.20333975268056 274.53422245880876 L 454.32231248449676 269.37530957140217 L 453.4114975195477 275.7101667994402 L 468.9022030849843 277.9373940184171 L 467.9059992170713 284.8661441115836 L 452.4152936516347 282.6389168926067 L 451.5044786866857 288.9737741206447 Z" fill-opacity="1"/></g></g><g><g><path fill="rgb(244,244,245)" stroke="none" paint-order="stroke fill markers" d=" M 461.0990117529067 331.2102194120061 L 466.1522117861609 316.60995676286444 L 461.09645740603736 314.86014315911626 L 456.0432573727832 329.46040580825786 Z" fill-opacity="1"/></g></g><g><g><path fill="rgb(244,244,245)" stroke="none" paint-order="stroke fill markers" d=" M 440.4887285533909 371.06384387633057 L 445.1637285533909 362.966506350946 L 440.6603964537118 360.36650635094605 L 439.1853964537118 362.92128129211017 L 434.8119681646004 360.39628129211013 C 431.607674170598 358.54628129211017 430.8653347947321 356.73205080756884 431.9653347947321 354.82679491924307 C 433.0653347947321 352.9215390309173 435.25767417059797 352.2242958444837 439.1980897578172 354.49929584448375 L 451.36574668098854 361.52429584448373 C 455.26286099801854 363.77429584448373 455.82350164407364 366.00323776072804 454.5485016440736 368.2116025403784 C 453.19850164407364 370.5498711305964 450.9463546470724 370.75070415551613 448.9977974885574 369.62570415551613 L 445.9477974885574 374.90845911860123 C 451.7653600727778 377.63214514651975 456.261641364888 376.24435750346345 459.31164136488803 370.9616025403784 C 462.98664136488804 364.59631582256276 460.5846232372904 359.4567332602633 454.5657466809885 355.98173326026335 L 442.39808975781716 348.9567332602633 C 436.3359119313261 345.4567332602633 430.70219507391766 346.01461709275196 427.95219507391766 350.7777568135664 C 426.6771950739177 352.9861215932167 426.3432204777021 355.5645825622994 427.210559853568 357.1623066958946 L 425.4352077758099 356.1373066958946 L 422.7352077758099 360.81384387633057 Z" fill-opacity="1"/></g></g><g><g><path fill="rgb(244,244,245)" stroke="none" paint-order="stroke fill markers" d=" M 403.48127335719 395.23178449862655 L 411.3396021645334 386.1627896063755 L 418.36807320602804 392.2529944320666 L 411.1646051326299 400.5662397499635 L 415.58574014260233 404.39717504354337 L 422.7892082160004 396.08392972564656 L 429.5153794277533 401.91219025775956 L 421.6570506204099 410.9811851500107 L 426.2671230239709 414.9758356270769 L 438.31656052856414 401.07004345895854 L 410.9206384582223 377.331341853442 L 398.87120095362906 391.23713402156034 Z" fill-opacity="1"/></g></g><g><g><path fill="rgb(244,244,245)" stroke="none" paint-order="stroke fill markers" d=" M 390.366363419339 446.52778180305717 L 407.89534743210316 432.74283641033765 L 404.12457761615747 427.94791253240663 L 397.87545551295227 432.86227647286046 L 379.23796207840104 409.1627756663654 L 374.2072222720472 413.11899317817733 L 392.84471570659844 436.81849398467233 L 386.5955936033933 441.73285792512615 Z" fill-opacity="1"/></g></g><g><g><path fill="rgb(244,244,245)" stroke="none" paint-order="stroke fill markers" d=" M 365.3070678977674 455.11473031652224 L 360.5962400198963 457.5433308816775 L 349.5758921723521 436.1668383415266 L 354.2867200502232 433.7382377763713 L 351.491538267686 428.3163415395763 L 336.38133564055227 436.10619240894226 L 339.1765174230895 441.5280886457373 L 343.8873453009606 439.09948808058203 L 354.9076931485048 460.4759806207329 L 350.19686527063374 462.9045811858882 L 352.9920470531709 468.32647742268324 L 368.1022496803046 460.53662655331726 Z" fill-opacity="1"/></g></g><g><g><path fill="rgb(244,244,245)" stroke="none" paint-order="stroke fill markers" d=" M 308.37304960185 484.2950054529117 L 313.8901342001334 482.67504325107353 L 308.3118295746731 463.6770823735065 L 320.4626610693927 480.7451752367097 L 327.56290907413995 478.66035431608316 L 317.35010388863816 443.87873402255764 L 311.8330192903548 445.4986962243958 L 317.8057494953931 465.83994726502317 L 304.06112620407737 447.7807299348114 L 298.1602444163482 449.5133851593862 Z" fill-opacity="1"/></g></g><g><g><path fill="rgb(244,244,245)" stroke="none" paint-order="stroke fill markers" d=" M 261.83275851044425 491.2174762035983 L 284.031782383824 489.097726437915 L 283.4519405196685 483.0253477102192 L 275.5379387352125 483.7810432544875 L 272.67199902959135 453.767564788909 L 266.3009787251236 454.3759234660557 L 269.1669184307447 484.38940193163427 L 261.2529166462887 485.1450974759025 Z" fill-opacity="1"/></g></g><g><g><path fill="rgb(244,244,245)" stroke="none" paint-order="stroke fill markers" d=" M 230.03823090612167 459.0491037403478 C 232.47713711642572 459.281991046443 233.9628233172194 461.0813621901405 233.5398239245158 465.51121224559074 L 232.20428651609203 479.4975927577426 C 231.7812871233884 483.92744281319284 229.9819159796909 485.4131290139865 227.54300976938686 485.18024170789124 C 225.1041035590828 484.947354401796 223.61841735828912 483.1479832580985 224.04141675099274 478.7181332026483 L 225.3769541594165 464.7317526904965 C 225.79995355212012 460.30190263504625 227.5993246958176 458.8162164342525 230.03823090612167 459.0491037403478 Z M 230.56103914429465 453.5740081661958 C 223.6425092824117 452.91336866523176 219.67607896024325 457.10531695920946 219.00593385494875 464.1233940133497 L 217.670396446525 478.1097745255015 C 217.0002513412305 485.12785157964174 220.10167166933093 489.99469778107914 227.02020153121387 490.6553372820432 C 233.9387313930968 491.3159767830073 237.90516171526528 487.1240284890296 238.57530682055977 480.10595143488933 L 239.91084422898354 466.1195709227375 C 240.58098933427803 459.1014938685973 237.4795690061776 454.2346476671599 230.56103914429465 453.5740081661958 Z" fill-opacity="1"/></g></g><g><g><path fill="rgb(244,244,245)" stroke="none" paint-order="stroke fill markers" d=" M 171.7174711956493 478.4490548984521 L 177.6663276320592 480.195796750869 L 184.8786810871998 455.6327766263379 C 185.99152468672344 451.8427793805606 188.40088551089187 451.0911275868673 190.70366864756667 451.76728572328676 C 193.05442643292218 452.45753048754824 194.53101215189247 454.3501991364493 193.41816855236883 458.1401963822266 L 186.20581509722822 482.7032165067577 L 192.346570128361 484.50630487054286 L 199.6575299783961 459.60746220524663 C 201.71417764333853 452.6031634978608 198.7663204004641 448.08983460716024 192.33771747724697 446.20222647632266 C 186.10101314875274 444.37096485685333 181.12733859415306 446.4019895797279 179.0284310456844 453.55021223315595 Z" fill-opacity="1"/></g></g><g><g><path fill="rgb(244,244,245)" stroke="none" paint-order="stroke fill markers" d=" M 139.13485482753305 464.83014706015496 C 145.66779537514674 468.19811199485144 150.6872639093077 465.5542633542201 153.8719382353132 459.3768569860684 L 160.3100208655833 446.88871893246676 C 163.49469519158882 440.711312564315 162.73673330949276 435.08899153245557 156.20379276187907 431.7210265977591 C 150.78189652508405 428.92584481522186 146.24908935769685 430.18923675095806 142.82758012188123 435.6257590353995 L 148.24947635867625 438.4209408179367 C 149.28048603256292 436.4210610584631 151.28369118101003 435.37240995669714 153.68354689237833 436.6096215653611 C 155.9500772864484 437.77809919576606 156.68349334196515 439.95630967446414 154.6214739941918 443.9560691934113 L 148.1833913639217 456.44420724701297 C 146.12137201614834 460.4439667659601 143.92163109110385 461.1100297229578 141.65510069703382 459.9415520925529 C 139.2552449856655 458.70434048388887 138.9474779676098 456.4643004256316 139.97848764149649 454.46442066615805 L 134.55659140470146 451.6692388836209 C 132.11280116240624 457.60981034196243 133.71295859073803 462.03496527761774 139.13485482753305 464.83014706015496 Z" fill-opacity="1"/></g></g><g><g><path fill="rgb(244,244,245)" stroke="none" paint-order="stroke fill markers" d=" M 93.08721893632546 433.51553514311354 L 98.1179587426793 437.4717526549254 L 107.08126404287808 426.073982781155 L 112.58363570607759 430.4010956846992 L 103.62033040587882 441.79886555846963 L 108.65107021223267 445.75508307028156 L 131.0593334627296 417.2606583858555 L 126.02859365637575 413.3044408740436 L 116.35440552202328 425.6061718067682 L 110.85203385882377 421.279058903224 L 120.52622199317624 408.97732797049935 L 115.49548218682239 405.0211104586875 Z" fill-opacity="1"/></g></g><g><g><path fill="rgb(244,244,245)" stroke="none" paint-order="stroke fill markers" d=" M 74.12038106584124 392.2119971858039 L 84.2379794052959 403.8883281095772 L 88.28123962809119 400.3848231829699 L 78.16364128863653 388.70849225919665 Z" fill-opacity="1"/></g></g><g><g><path fill="rgb(244,244,245)" stroke="none" paint-order="stroke fill markers" d=" M 49.91127144660913 354.4361561236695 L 54.58627144660913 362.53349364905404 L 59.08960354628821 359.933493649054 L 57.61460354628821 357.3787187078899 L 61.988031835399624 354.8537187078899 C 65.19232582940205 353.0037187078899 67.13466520526792 353.2679491924312 68.23466520526793 355.173205080757 C 69.33466520526792 357.07846096908276 68.84232582940206 359.3257041555163 64.90191024218285 361.6007041555163 L 52.73425331901149 368.6257041555163 C 48.83713900198152 370.8757041555163 46.62649835592642 370.246762239272 45.351498355926424 368.0383974596217 C 44.001498355926415 365.7001288694037 44.95364535292763 363.6492958444839 46.90220251144262 362.5242958444839 L 43.85220251144261 357.24154088139886 C 38.584639927222206 360.9178548534803 37.538358635112004 365.5056424965366 40.58835863511201 370.7883974596217 C 44.26335863511201 377.1536841774373 49.915376762709656 377.64326673973676 55.934253319011496 374.16826673973674 L 68.10191024218285 367.1432667397367 C 74.16408806867392 363.6432667397367 76.49780492608234 358.4853829072481 73.74780492608234 353.7222431864337 C 72.47280492608233 351.51387840678336 70.4067795222979 349.93541743770066 68.58944014643203 349.8876933041055 L 70.36479222419013 348.86269330410545 L 67.66479222419011 344.1861561236695 Z" fill-opacity="1"/></g></g><g><g><path fill="rgb(244,244,245)" stroke="none" paint-order="stroke fill markers" d=" M 47.484948508647356 310.30278948319705 L 51.40976406845642 321.6427993077731 L 42.62125645441 324.6845313666251 L 39.023508857918365 314.2895223607637 L 33.49525406843756 316.20286994617067 L 37.0930016649292 326.59787895203203 L 28.682494378368645 329.5087838255571 L 24.757678818559583 318.16877400098105 L 18.99317382440011 320.16388857721734 L 25.01122434944067 337.5519036415672 L 59.2675040278474 325.6956899713107 L 53.24945350280684 308.3076749069608 Z" fill-opacity="1"/></g></g><g><g><path fill="rgb(244,244,245)" stroke="none" paint-order="stroke fill markers" d=" M 9.618766699477874 273.2969456564577 L 12.792387592972133 295.36996381040245 L 18.83029838844582 294.5018432969354 L 17.6988954241732 286.63276283398204 L 47.542011896883324 282.3419704600425 L 46.6311969319343 276.0071132320045 L 16.788080459224176 280.29790560594404 L 15.656677494951559 272.42882514299066 Z" fill-opacity="1"/></g></g><g><g><path fill="rgb(244,244,245)" stroke="none" paint-order="stroke fill markers" d=" M 14.711898906613865 247.30148487710255 L 14.964083060479698 242.0074879794326 L 38.98684256783104 243.1518330549936 L 38.73465841396521 248.44582995266356 L 44.827749182981556 248.73607963918838 L 45.636641751985174 231.75533487307726 L 39.543550982968824 231.46508518655241 L 39.29136682910299 236.75908208422237 L 15.268607321751649 235.61473700866136 L 15.520791475617482 230.3207401109914 L 9.427700706601136 230.0304904244666 L 8.618808137597519 247.01123519057774 Z" fill-opacity="1"/></g></g><g><g><path fill="rgb(244,244,245)" stroke="none" paint-order="stroke fill markers" d=" M 17.9080484970398 183.40504112511542 L 16.55243461786059 188.99295764297577 L 35.79430367066672 193.6609845660624 L 14.937485909621024 195.64986688599203 L 13.192869786851261 202.84127249158624 L 48.42103913857966 211.38753390380296 L 49.77665301775886 205.79961738594258 L 29.174247769299768 200.80152795314274 L 51.68630039538521 197.92794368252189 L 53.13621784876818 191.9513025373321 Z" fill-opacity="1"/></g></g><g><g><path fill="rgb(244,244,245)" stroke="none" paint-order="stroke fill markers" d=" M 35.18315851569342 139.6387313650921 L 25.919403725751366 159.92352486149787 L 31.46815889741393 162.45755644080938 L 34.770708250778924 155.22598207774095 L 62.19611291071766 167.75074471974781 L 64.85476899392972 161.9290999494789 L 37.42936433399099 149.40433730747205 L 40.731913687355984 142.17276294440362 Z" fill-opacity="1"/></g></g><g><g><path fill="rgb(244,244,245)" stroke="none" paint-order="stroke fill markers" d=" M 78.93905006942947 128.18804899004843 C 77.51791064098003 130.18376007257174 75.2167664193045 130.57071649266234 71.59190343268051 127.9894632450705 L 60.14711130637329 119.83966366559517 C 56.522248319749295 117.25841041800334 56.135291899658725 114.95726619632781 57.55643132810816 112.96155511380448 C 58.9775707565576 110.96584403128116 61.278714978233126 110.57888761119058 64.9035779648571 113.16014085878241 L 76.34837009116433 121.30994043825774 C 79.97323307778834 123.89119368584957 80.3601894978789 126.1923379075251 78.93905006942947 128.18804899004843 Z M 83.41921780570632 131.37836199269003 C 87.45061332722615 125.71705912594018 85.80349477437487 120.18605555761255 80.06073431242 116.09665434513559 L 68.61594218611278 107.94685476566026 C 62.87318172415792 103.85745355318332 57.10765911335113 104.10993924441306 53.07626359183131 109.77124211116289 C 49.04486807031149 115.43254497791273 50.691986623162755 120.96354854624038 56.43474708511762 125.05294975871732 L 67.87953921142484 133.20274933819263 C 73.62229967337971 137.2921505506696 79.3878222841865 137.03966485943985 83.41921780570632 131.37836199269003 Z" fill-opacity="1"/></g></g><g><g><path fill="rgb(244,244,245)" stroke="none" paint-order="stroke fill markers" d=" M 91.29857938956997 67.98081393371913 L 86.81142835331855 72.25930380490823 L 104.47745104726062 90.78689518039803 C 107.20326314261496 93.64564463091305 106.64953227866926 96.10803820837259 104.91257058721709 97.76422783592966 C 103.13942219385967 99.45492141406083 100.76203020347982 99.78734783310385 98.03621810812548 96.92859838258883 L 80.37019541418341 78.40100700709903 L 75.73829757031098 82.81751268058454 L 93.64584791827177 101.59841096941112 C 98.68342470209119 106.88166944757813 104.06601079850937 106.58541463386922 108.91502885381334 101.96188525693907 C 113.6193001014963 97.47637168230534 114.34721837307252 92.15353080642848 109.20612973753079 86.76171222254571 Z" fill-opacity="1"/></g></g><g><g><path fill="rgb(244,244,245)" stroke="none" paint-order="stroke fill markers" d=" M 119.38420773339223 46.57289435631648 C 113.20099426708306 50.546604364615135 112.98090008655025 56.215515949010815 116.73835376786666 62.06222800218752 L 124.33435725311782 73.8818401384656 C 128.09181093443422 79.72855219164232 133.3398647173041 81.88329846257662 139.52307818361328 77.90958845427797 C 144.65472473388348 74.61167946779882 145.82699880629315 70.05445734251722 142.82958701763445 64.37308228279709 L 137.69794046736425 67.67099126927624 C 138.91438230663934 69.5638117181464 138.82093822625166 71.82296381657636 136.54955368760747 73.28269402370647 C 134.40435717888798 74.66132810821824 132.15126354178756 74.2073798044901 129.71837986323737 70.42173890674978 L 122.12237637798621 58.60212677047169 C 119.68949269943602 54.81648587273138 120.21253572067852 52.57842287139975 122.35773222939802 51.19978878688798 C 124.62911676804221 49.74005857975786 126.72293187301561 50.593544552803266 127.9393737122907 52.48636500167342 L 133.07102026256092 49.18845601519428 C 129.14822958778794 44.1017858546753 124.51585428366243 43.27498536983734 119.38420773339223 46.57289435631648 Z" fill-opacity="1"/></g></g><g><g><path fill="rgb(244,244,245)" stroke="none" paint-order="stroke fill markers" d=" M 169.52727510880496 22.351777848835297 L 163.5857203375021 24.7304175650614 L 168.97482594457685 38.19175259379445 L 162.47625041346436 40.79338978341674 L 157.08714480638957 27.332054754683696 L 151.1455900350867 29.710694470909797 L 164.6183540527736 63.36403204274242 L 170.55990882407647 60.98539232651632 L 164.74339139299235 46.45643417481479 L 171.24196692410484 43.85479698519249 L 177.058484355189 58.383755136894024 L 183.00003912649186 56.00511542066792 Z" fill-opacity="1"/></g></g><g><g><path fill="rgb(244,244,245)" stroke="none" paint-order="stroke fill markers" d=" M 214.780607181252 26.577783402190008 L 199.6098088085432 29.501715127558352 L 200.6223029658714 34.75503365791383 L 215.79310133858021 31.831101932545486 Z" fill-opacity="1"/></g></g></g></g></svg>