<svg version="1.1" xmlns="http://www.w3.org/2000/svg" xmlns:xlink="http://www.w3.org/1999/xlink" width="500" height="500" viewBox="0 0 500 500"><defs/><g><g><g><g><path fill="rgb(244,244,245)" stroke="none" paint-order="stroke fill markers" d=" M 250.5 29.75 L 250.5 19.0625 L 270.5625 19.0625 L 270.5625 29.75 Q 270.5625 33.0625 268.90625 36 Q 267.25 38.9375 264.625 41.15625 Q 262 43.375 258.75 44.6875 Q 255.5 46 252.3125 46 L 252.3125 46 Q 247.375 46 243.15625 44.21875 Q 238.9375 42.4375 235.875 39.34375 Q 232.8125 36.25 231.09375 32.0625 Q 229.375 27.875 229.375 23.125 L 229.375 23.125 Q 229.375 18.375 231.09375 14.1875 Q 232.8125 10 235.875 6.90625 Q 238.9375 3.8125 243.15625 2 Q 247.375 0.1875 252.3125 0.1875 L 252.3125 0.1875 Q 255.875 0.1875 258.96875 1.125 Q 262.0625 2.0625 264.75 3.6875 L 264.75 3.6875 L 264.75 17.75 Q 262.6875 16.0625 260.34375 15.0625 Q 258 14.0625 255 14.0625 L 255 14.0625 Q 252.625 14.0625 250.84375 14.84375 Q 249.0625 15.625 247.90625 16.90625 Q 246.75 18.1875 246.1875 19.8125 Q 245.625 21.4375 245.625 23.125 L 245.625 23.125 Q 245.625 24.75 245.8125 26.4375 Q 246 28.125 246.6875 29.5 Q 247.375 30.875 248.71875 31.71875 Q 250.0625 32.5625 252.3125 32.5625 L 252.3125 32.5625 Q 253.875 32.5625 254.875 31.71875 Q 255.875 30.875 256.5 29.75 L 256.5 29.75 L 250.5 29.75 Z" fill-opacity="1"/></g></g><g><g><path fill="rgb(244,244,245)" stroke="none" paint-order="stroke fill markers" d=" M 278.40818929447755 46.45852509237428 L 287.50432576775455 3.664567560270278 L 315.381532388668 9.590050748576424 L 312.7436528114177 22.000298432886584 L 300.5168078022451 19.401402297664593 L 299.7631279230307 22.947187350324636 L 311.0118253314695 25.33817179472887 L 308.7897691358547 35.79212427757142 L 297.54107172741595 33.401139833167186 L 296.69643048346876 37.37486446114827 L 309.5346177431 40.103705403131364 L 306.8967381658497 52.51395308744152 L 278.40818929447755 46.45852509237428 Z" fill-opacity="1"/></g></g><g><g><path fill="rgb(244,244,245)" stroke="none" paint-order="stroke fill markers" d=" M 338.70690514494027 31.09228226063714 L 332.997246034674 28.55017824141339 L 338.1577171936982 16.95957024757289 L 364.1937627365123 28.551564575233193 L 359.0332915774881 40.14217256907369 L 353.3236324672219 37.600068549849944 L 340.6893754916798 65.97707432787323 L 326.07264816939824 59.46928803866043 L 338.70690514494027 31.09228226063714 Z" fill-opacity="1"/></g></g><g><g><path fill="rgb(244,244,245)" stroke="none" paint-order="stroke fill markers" d=" M 364.0238407649574 79.44923413479597 L 389.7394455527531 44.05474063089202 L 402.68371746275227 53.459304667571594 L 376.9681126749566 88.85379817147555 L 364.0238407649574 79.44923413479597 Z" fill-opacity="1"/></g></g><g><g><path fill="rgb(244,244,245)" stroke="none" paint-order="stroke fill markers" d=" M 425.07687015880106 97.910813055634 L 437.61743908873206 86.61923407332827 L 448.3235287904738 98.50955128096658 L 415.8109426758378 127.78401530916662 L 404.64482568222434 115.3827860340126 L 412.31088060793587 98.30389165744437 L 399.5845254716355 109.7627532913398 L 388.87843576989377 97.8724360837015 L 421.3910218845298 68.59797205550146 L 432.64078020393805 81.09209443384015 L 425.07687015880106 97.910813055634 Z" fill-opacity="1"/></g></g><g><g><path fill="rgb(244,244,245)" stroke="none" paint-order="stroke fill markers" d=" M 450.43612188086405 125.04054676972446 L 447.31112188086405 119.62788799607172 L 458.2988191913791 113.28413799607172 L 472.5488191913791 137.9658620039282 L 461.56112188086405 144.3096120039282 L 458.43612188086405 138.89695323027547 L 431.5352077758099 154.42820323027547 L 423.5352077758099 140.57179676972447 L 450.43612188086405 125.04054676972446 Z" fill-opacity="1"/></g></g><g><g><path fill="rgb(244,244,245)" stroke="none" paint-order="stroke fill markers" d=" M 458.6732130449134 158.0471900425295 L 458.6732130449134 158.0471900425295 Q 463.19073149731537 156.5793593192485 467.70440361838325 156.9199790426857 Q 472.21807573945114 157.2605987661229 476.10677138201254 159.2171880209293 Q 479.99546702457394 161.17377727573574 483.02292240537827 164.62595365155133 Q 486.05037778618254 168.0781300273669 487.57614919590884 172.77397157657424 L 487.57614919590884 172.77397157657424 Q 489.10192060563514 177.46981312578154 488.6817961148695 182.0421761062063 Q 488.2616716241038 186.61453908663108 486.26570507208896 190.4831709941325 Q 484.2697385200741 194.3518029016339 480.8279690982443 197.3101604690955 Q 477.3861996764145 200.2685180365571 472.8686812240125 201.7363487598381 L 472.8686812240125 201.7363487598381 Q 468.3511627716106 203.2041794831191 463.82783386946846 202.8338392435477 Q 459.3045049673263 202.46349900397627 455.4158093247649 200.50690974916986 Q 451.5271136822035 198.55032049436343 448.5293788175334 195.08848733747362 Q 445.5316439528634 191.62665418058384 444.0058725431371 186.9308126313765 L 444.0058725431371 186.9308126313765 Q 442.4801011334108 182.23497108216918 442.8705051080422 177.67226488281864 Q 443.26090908267366 173.1095586834681 445.2568756346885 169.24092677596667 Q 447.2528421867034 165.37229486846527 450.70426838960736 162.4436578171379 Q 454.1556945925114 159.5150207658105 458.6732130449134 158.0471900425295 Z M 463.6947392035063 173.50185843232575 L 463.6947392035063 173.50185843232575 Q 462.14927236452667 174.00401104818505 460.90766677631717 174.83458968734394 Q 459.66606118810773 175.66516832650282 458.90663994747376 176.76623230251602 Q 458.1472187068398 177.8672962785292 457.9487364081983 179.27897306151672 Q 457.7502541095567 180.69064984450424 458.2717202875644 182.2955577157523 L 458.2717202875644 182.2955577157523 Q 458.79318646557215 183.90046558700038 459.7835248122995 184.9258711270192 Q 460.77386315902686 185.95127666703803 462.04509379659436 186.42540004613866 Q 463.3163244341618 186.89952342523932 464.8090063303009 186.84167820557025 Q 466.30168822644 186.78383298590117 467.84715506541966 186.28168037004187 L 467.84715506541966 186.28168037004187 Q 469.3926219043993 185.7795277541826 470.6342274926087 184.94894911502368 Q 471.87583308081815 184.1183704758648 472.65531805651216 182.97792920264317 Q 473.4348030322061 181.83748792942154 473.6332853308477 180.42581114643403 Q 473.83176762948926 179.01413436344652 473.3103014514815 177.40922649219846 L 473.3103014514815 177.40922649219846 Q 472.7888352734738 175.80431862095037 471.7984969267464 174.77891308093155 Q 470.80815858001904 173.75350754091272 469.51686420739156 173.31876145902052 Q 468.2255698347641 172.8840153771283 466.732887938625 172.94186059679737 Q 465.2402060424859 172.99970581646647 463.6947392035063 173.50185843232575 Z" fill-opacity="1"/></g></g><g><g><path fill="rgb(244,244,245)" stroke="none" paint-order="stroke fill markers" d=" M 468.0489255594939 227.08213442856692 L 468.0489255594939 227.08213442856692 Q 468.19265219648696 228.4496020346983 469.0806839194653 229.42461868659925 Q 469.96871564244367 230.39963533850016 471.39834086703553 230.24937567255293 L 471.39834086703553 230.24937567255293 L 497.75317109429477 227.4793713959601 L 499.27536684063 241.96209649726057 L 469.68834045342385 245.07181827947326 Q 465.95888334579286 245.46380001672696 462.99846479121385 244.20384585815432 Q 460.0380462366349 242.94389169958168 457.905463495696 240.59142021132732 Q 455.7728807547571 238.23894872307298 454.53187778145974 235.10148148296238 Q 453.29087480816236 231.96401424285182 452.94462427358826 228.6696604644444 L 452.94462427358826 228.6696604644444 Q 452.59837373901416 225.375306686037 453.1599417010718 222.0483816062538 Q 453.72150966312944 218.7214565264706 455.3183840298216 215.97700330096256 Q 456.9152583965137 213.2325500754545 459.5490255033813 211.3846233110013 Q 462.18279261024884 209.53669654654811 465.9122497178799 209.14471480929438 L 465.9122497178799 209.14471480929438 L 495.499276105086 206.0349930270817 L 497.0214718514212 220.51771812838217 L 470.66664162416197 223.287722404975 Q 469.23701639957005 223.43798207092226 468.5711076610355 224.5763244466789 Q 467.9051989225009 225.71466682243553 468.0489255594939 227.08213442856692 Z" fill-opacity="1"/></g></g><g><g><path fill="rgb(244,244,245)" stroke="none" paint-order="stroke fill markers" d=" M 471.4635953175425 289.4591606992629 L 454.1216197670583 287.6364456210332 Q 452.94024964272705 285.1241964535863 452.4818114951869 282.3108648938728 Q 452.0233733476467 279.4975333341593 452.3369587374497 276.51396764805446 L 452.3369587374497 276.51396764805446 Q 452.8269359090168 271.8521462635157 455.01000885925794 268.12240762569866 Q 457.19308180949906 264.39266898788156 460.57366976966625 261.8257246627018 Q 463.9542577298335 259.25878033752207 468.2886769194981 258.08039519748195 Q 472.62309610916265 256.90201005744177 477.347075112162 257.3985202579631 L 477.347075112162 257.3985202579631 Q 482.07105411516125 257.8950304584845 486.06575579920593 259.9488414783912 Q 490.0604574832507 262.00265249829795 492.83347375067467 265.2163666899463 Q 495.6064900180986 268.4300808815947 496.99748012933725 272.53546868427986 Q 498.3884702405758 276.64085648696505 497.89849306900874 281.3026778715039 L 497.89849306900874 281.3026778715039 Q 497.58490767920574 284.28624355760866 496.52048417446326 286.9395159079436 Q 495.4560606697207 289.59278825827846 493.7781803448682 291.80451809383084 L 493.7781803448682 291.80451809383084 L 477.86583001897577 290.1320626815484 Q 478.621427140538 289.5201921969792 479.41790261476183 288.8183517991964 Q 480.2143780889856 288.11651140141356 480.90613741315104 287.2151320903407 Q 481.5978967373165 286.3137527792679 482.1047695416413 285.0787197745526 Q 482.61164234596606 283.8436867698374 482.7880341277302 282.1654310714034 L 482.7880341277302 282.1654310714034 Q 482.9970910542655 280.1763872806669 482.52904105008474 278.65035295730246 Q 482.0609910459039 277.124318633938 481.0744946716354 276.046547541101 Q 480.08799829736694 274.968776448264 478.7073707899317 274.3523346438629 Q 477.3267432824965 273.73589283946177 475.6484875840626 273.55950105769756 L 475.6484875840626 273.55950105769756 Q 474.03238950408917 273.3896423048876 472.5537665623405 273.7055647773943 Q 471.0751436205919 274.0214872499009 469.9172021579726 274.87386884381704 Q 468.75926069535325 275.72625043773314 467.98415833032374 277.121624182013 Q 467.2090559652942 278.5169979262929 466.9999990387589 280.50604171702946 L 466.9999990387589 280.50604171702946 Q 466.66681456209324 283.6760802585158 467.96102020097794 286.0116561140125 Q 469.2552258398626 288.3472319695092 471.4635953175425 289.4591606992629 L 471.4635953175425 289.4591606992629 Z" fill-opacity="1"/></g></g><g><g><path fill="rgb(244,244,245)" stroke="none" paint-order="stroke fill markers" d=" M 480.26943038695566 346.27547438641614 L 438.6607077990427 332.7559808825122 L 443.60497970904186 317.5390766217897 L 459.71349945379103 322.7730519640154 L 462.43671171672025 314.3918664141644 L 446.3281919719711 309.1578910719387 L 451.2724638819702 293.94098681121625 L 492.88118646988323 307.4604803151202 L 487.93691455988403 322.67738457584267 L 472.6011282346247 317.6944855415466 L 469.8779159716955 326.0756710913977 L 485.2137022969548 331.0585701256937 L 480.26943038695566 346.27547438641614 Z" fill-opacity="1"/></g></g><g><g><path fill="rgb(244,244,245)" stroke="none" paint-order="stroke fill markers" d=" M 440.4920951835226 360.55801270189215 L 449.74774168646877 365.90176270189215 L 439.71649168646877 383.27639736531745 L 430.4608451835226 377.93264736531745 Q 427.59213603348667 376.27639736531745 425.87631140986986 373.3732927902995 Q 424.16048678625305 370.4701882152815 423.5514929216063 367.0874965303474 Q 422.9424990569596 363.7048048454132 423.43084071449255 360.23397228311376 Q 423.9191823720255 356.76313972081437 425.5129323720255 354.0026837462515 L 425.5129323720255 354.0026837462515 Q 427.9816823720255 349.72668331506577 431.6336651225165 346.9637636428502 Q 435.2856478730075 344.2008439706346 439.49616396596565 343.0955161715448 Q 443.7066800589237 341.9901883724549 448.1925364372711 342.5954572097004 Q 452.6783928156184 343.2007260469459 456.7920134835945 345.5757260469459 L 456.7920134835945 345.5757260469459 Q 460.90563415157055 347.9507260469459 463.6727405299179 351.5329572097004 Q 466.4398469082653 355.1151883724549 467.58786300122335 359.3142661715447 Q 468.7358790941815 363.5133439706346 468.19617513854075 368.07313864285015 Q 467.6564711829001 372.63293331506577 465.1877211829001 376.9089337462514 L 465.1877211829001 376.9089337462514 Q 463.4064711829001 379.9941492472335 461.04769736685216 382.20466534019164 Q 458.68892355080425 384.4151814331497 455.93788226965455 385.9301247058204 L 455.93788226965455 385.9301247058204 L 443.7594000289359 378.8988747058204 Q 446.2520678978221 377.956447310515 448.28996830160656 376.4267002703952 Q 450.327868705391 374.89695323027547 451.827868705391 372.29887701892216 L 451.827868705391 372.29887701892216 Q 453.015368705391 370.2420666849341 453.2294113586844 368.30883393444304 Q 453.4434540119778 366.375601183952 452.911983963379 364.7336343108263 Q 452.3805139147802 363.0916674377005 451.2544726336305 361.7920281480718 Q 450.12843135248073 360.492388858443 448.66701348359453 359.648638858443 L 448.66701348359453 359.648638858443 Q 447.2597222024448 358.836138858443 445.7045543335586 358.1547686216526 Q 444.1493864646723 357.4733983848622 442.6148515344687 357.381290849964 Q 441.0803166042651 357.28918331506577 439.677732669822 358.03102995140114 Q 438.2751487353789 358.77287658773645 437.1501487353789 360.7214337462515 L 437.1501487353789 360.7214337462515 Q 436.3688987353789 362.07459843966467 436.599607669822 363.3624988434491 Q 436.83031660426514 364.6503992472335 437.4920951835226 365.7541651245988 L 437.4920951835226 365.7541651245988 L 440.4920951835226 360.55801270189215 Z" fill-opacity="1"/></g></g><g><g><path fill="rgb(244,244,245)" stroke="none" paint-order="stroke fill markers" d=" M 412.06799334651805 376.3729510583475 L 444.58057946115406 405.64741508654754 L 425.5103571799266 426.82704261265326 L 416.08170720668215 418.33744804447525 L 424.4458397861679 409.04813772600784 L 421.7519397938123 406.62253927795695 L 414.05693782068545 415.168704770947 L 406.1145774983958 408.0173714154867 L 413.8095794715227 399.47120592249667 L 410.79055361802074 396.7528628341638 L 402.00821440956076 406.5066386685546 L 392.57956443631633 398.0170441003766 L 412.06799334651805 376.3729510583475 Z" fill-opacity="1"/></g></g><g><g><path fill="rgb(244,244,245)" stroke="none" paint-order="stroke fill markers" d=" M 395.22619207429153 436.2762922162962 L 400.282548289135 432.6026343894683 L 407.7400736775957 442.8670375056004 L 384.68308933790973 459.6189171959359 L 377.22556394944894 449.3545140798038 L 382.2819201642924 445.6808562529758 L 364.0238407649574 420.55076586520397 L 376.9681126749566 411.14620182852445 L 395.22619207429153 436.2762922162962 Z" fill-opacity="1"/></g></g><g><g><path fill="rgb(244,244,245)" stroke="none" paint-order="stroke fill markers" d=" M 340.68937549167987 434.02292567212675 L 358.48410362624617 473.99053944399054 L 343.86737630396453 480.49832573320333 L 326.0726481693983 440.5307119613396 L 340.68937549167987 434.02292567212675 Z" fill-opacity="1"/></g></g><g><g><path fill="rgb(244,244,245)" stroke="none" paint-order="stroke fill markers" d=" M 294.1746644553411 477.66561064477446 L 297.6831742378908 494.1718514071574 L 282.0328126261499 497.4984384602416 L 272.9366761528729 454.70448092813757 L 289.2595142401183 451.2349545876162 L 300.21724317592185 466.4134000883733 L 296.6567554706677 449.6626224258069 L 312.3071170824086 446.33603537272273 L 321.4032535556856 489.12999290482674 L 304.9581470183485 492.6255082067003 L 294.1746644553411 477.66561064477446 Z" fill-opacity="1"/></g></g><g><g><path fill="rgb(244,244,245)" stroke="none" paint-order="stroke fill markers" d=" M 258.00000000000006 486.0625 L 264.25000000000006 486.0625 L 264.25000000000006 498.75 L 235.75000000000003 498.75 L 235.75000000000003 486.0625 L 242.00000000000003 486.0625 L 242.00000000000003 455 L 258 455 L 258.00000000000006 486.0625 Z" fill-opacity="1"/></g></g><g><g><path fill="rgb(244,244,245)" stroke="none" paint-order="stroke fill markers" d=" M 225.2968628500755 476.69270856495257 L 225.2968628500755 476.69270856495257 Q 224.30928231869117 481.33890966843813 221.75746092463058 485.0775545279179 Q 219.20563953056998 488.8161993873977 215.56683570985524 491.20561397403856 Q 211.92803188914053 493.59502856067934 207.4246317589376 494.49079364137197 Q 202.92123162873466 495.3865587220646 198.0916278501115 494.3599947486519 L 198.0916278501115 494.3599947486519 Q 193.26202407148833 493.3334307752392 189.51230382049977 490.6834108032717 Q 185.76258356951124 488.0333908313043 183.4102333357314 484.3705171384047 Q 181.05788310195155 480.7076434455051 180.21675500596675 476.2478049085012 Q 179.37562690998197 471.7879663714973 180.3632074413663 467.14176526801174 L 180.3632074413663 467.14176526801174 Q 181.35078797275068 462.4955641645262 183.9331764793342 458.7634165453844 Q 186.51556498591773 455.0312689262427 190.15436880663245 452.6418543396019 Q 193.79317262734716 450.25243975296104 198.29007551721205 449.3872417847914 Q 202.78697840707693 448.5220438166217 207.61658218570008 449.5486077900344 L 207.61658218570008 449.5486077900344 Q 212.44618596432326 450.5751717634471 216.20240345564986 453.1946246228916 Q 219.95862094697648 455.81407748233613 222.31097118075633 459.4769511752357 Q 224.66332141453614 463.1398248681353 225.473882397998 467.5931661648011 Q 226.28444338145988 472.046507461467 225.2968628500755 476.69270856495257 Z M 209.40196433815117 473.31414358916396 L 209.40196433815117 473.31414358916396 Q 209.73982083573003 471.72465373797155 209.64132142848246 470.234102437522 Q 209.54282202123488 468.7435511370724 208.96898326713253 467.53534106250333 Q 208.39514451303017 466.3271309879342 207.27183770635108 465.44940188361534 Q 206.148530899672 464.5716727792965 204.4979068234337 464.2208218010415 L 204.4979068234337 464.2208218010415 Q 202.8472827471954 463.8699708227865 201.4640863269941 464.2149262193849 Q 200.08088990679283 464.5598816159833 199.03467169717982 465.42373795263546 Q 197.9884534875668 466.28759428928765 197.29220796921817 467.6092173409478 Q 196.59596245086954 468.9308403926079 196.25810595329065 470.52033024380034 L 196.25810595329065 470.52033024380034 Q 195.9202494557118 472.10982009499276 196.0187488629594 473.6003713954423 Q 196.11724827020697 475.0909226958919 196.7151568964942 476.336197123322 Q 197.31306552278141 477.58147155075204 198.4363723294605 478.45920065507096 Q 199.55967913613958 479.3369297593898 201.21030321237788 479.6877807376448 L 201.21030321237788 479.6877807376448 Q 202.86092728861618 480.0386317158998 204.24412370881748 479.6936763193014 Q 205.62732012901876 479.348720922703 206.6494684664469 478.4478002331898 Q 207.67161680387505 477.54687954367665 208.3678623222237 476.2252564920165 Q 209.06410784057232 474.90363344035643 209.40196433815117 473.31414358916396 Z" fill-opacity="1"/></g></g><g><g><path fill="rgb(244,244,245)" stroke="none" paint-order="stroke fill markers" d=" M 160.82299100563088 450.2948415881403 L 160.82299100563088 450.2948415881403 Q 159.56686600137232 449.7355787039111 158.2784609502241 450.01712840942633 Q 156.99005589907586 450.29867811494154 156.40537197465437 451.6118997103028 L 156.40537197465437 451.6118997103028 L 145.6268509331457 475.82085433783175 L 132.32334520622533 469.8977519730404 L 144.42376033773036 442.719774608173 Q 145.9490227492646 439.29397914201326 148.52038433548185 437.3601585471994 Q 151.0917459216991 435.4263379523855 154.1953373626754 434.7557028671874 Q 157.29892880365168 434.0850677819892 160.63655662377758 434.57906130099695 Q 163.97418444390348 435.0730548200047 167.0003037723446 436.4203699501933 L 167.0003037723446 436.4203699501933 Q 170.0264231007857 437.76768508038185 172.62684075533673 439.91747974136683 Q 175.22725840988772 442.0672744023518 176.80558743932977 444.8224347833134 Q 178.38391646877182 447.577595164275 178.6673844376877 450.78246776870077 Q 178.95085240660356 453.98734037312653 177.42558999506932 457.41313583928627 L 177.42558999506932 457.41313583928627 L 165.32517486356429 484.59111320415366 L 152.0216691366439 478.6680108393623 L 162.8001901781526 454.4590562118334 Q 163.38487410257406 453.14583461647214 162.73199505623177 451.9999695444208 Q 162.07911600988947 450.8541044723695 160.82299100563088 450.2948415881403 Z" fill-opacity="1"/></g></g><g><g><path fill="rgb(244,244,245)" stroke="none" paint-order="stroke fill markers" d=" M 105.09556676365457 422.0635192087969 L 115.34507210050457 407.95628536938375 Q 118.1114287623155 408.18931341416436 120.77706443606596 409.1989601121875 Q 123.44270010981641 410.20860681021054 125.86975109294126 411.971962567088 L 125.86975109294126 411.971962567088 Q 129.6620182540738 414.72720593720896 131.80053018877922 418.4826718893409 Q 133.9390421234846 422.2381378414729 134.47178713910697 426.4492850572954 Q 135.0045321547293 430.6604322731179 133.85783402661386 435.00334197203824 Q 132.7111358984984 439.3462516709586 129.91915595010917 443.1890823942396 L 129.91915595010917 443.1890823942396 Q 127.12717600171993 447.0319131175206 123.35117264188591 449.46452074649045 Q 119.57516928205189 451.8971283754603 115.40550301786986 452.69177381233277 Q 111.23583675368783 453.48641924920526 106.98497156855638 452.63835812060825 Q 102.7341063834249 451.79029699201124 98.94183922229234 449.03505362189026 L 98.94183922229234 449.03505362189026 Q 96.5147882391675 447.2716978650128 94.74919873298988 445.02324389435313 Q 92.98360922681226 442.7747899236934 91.9071351653422 440.2158380200848 L 91.9071351653422 440.2158380200848 L 101.31169920202177 427.2715661100856 Q 101.46379602470347 428.2318676546695 101.67336990147368 429.27255584772996 Q 101.8829437782439 430.31324404079044 102.31768149799598 431.36301484435893 Q 102.75241921774804 432.41278564792736 103.56855277218128 433.4692668753177 Q 104.3846863266145 434.525748102708 105.74990250462221 435.5176357159516 L 105.74990250462221 435.5176357159516 Q 107.36793649337211 436.6932062205365 108.92354598654312 437.05088018835676 Q 110.47915547971411 437.408554156177 111.90578081270974 437.0931087817377 Q 113.33240614570536 436.77766340729846 114.55657416198905 435.89022581489655 Q 115.78074217827273 435.00278822249464 116.77262979151628 433.63757204448694 L 116.77262979151628 433.63757204448694 Q 117.72778082649155 432.32291942862764 118.19349541054872 430.88443316220156 Q 118.6592099946059 429.4459468957755 118.49999661186592 428.01694937609375 Q 118.34078322912595 426.5879518564121 117.51990530132053 425.21900664562315 Q 116.69902737351512 423.85006143483423 115.08099338476524 422.6744909302493 L 115.08099338476524 422.6744909302493 Q 112.50225171519509 420.80092543856705 109.83248087242703 420.7539524718139 Q 107.162710029659 420.70697950506076 105.09556676365457 422.0635192087969 L 105.09556676365457 422.0635192087969 Z" fill-opacity="1"/></g></g><g><g><path fill="rgb(244,244,245)" stroke="none" paint-order="stroke fill markers" d=" M 51.48827822648778 401.281439236868 L 84.00086434112376 372.00697520866794 L 94.7069540428655 383.89729241630624 L 82.11993856134214 395.2306920615094 L 88.01665202987958 401.77965583602895 L 100.60366751140293 390.44625619082575 L 111.30975721314468 402.33657339846405 L 78.79717109850868 431.6110374266641 L 68.09108139676695 419.7207202190258 L 80.07429170758994 408.93098919148923 L 74.17757823905248 402.38202541696967 L 62.19436792822951 413.1717564445063 L 51.48827822648778 401.281439236868 Z" fill-opacity="1"/></g></g><g><g><path fill="rgb(244,244,245)" stroke="none" paint-order="stroke fill markers" d=" M 59.007904816477435 359.6919872981079 L 49.75225831353125 365.0357372981079 L 39.72100831353124 347.6611026346826 L 48.97665481647743 342.3173526346826 Q 51.845363966513375 340.6611026346826 55.217438590130165 340.62670720970056 Q 58.589513213746955 340.59231178471856 61.823507078393675 341.7562534696527 Q 65.0575009430404 342.92019515458685 67.81915928550748 345.0785277168863 Q 70.58081762797455 347.2368602791857 72.17456762797455 349.9973162537486 L 72.17456762797455 349.9973162537486 Q 74.64331762797455 354.2733166849343 75.21008487748352 358.81748635714985 Q 75.77685212699251 363.36165602936546 74.62883603403439 367.5607338284553 Q 73.48081994107629 371.75981162754516 70.71371356272896 375.3420427902997 Q 67.94660718438162 378.9242739530542 63.83298651640554 381.2992739530542 L 63.83298651640554 381.2992739530542 Q 59.719365848429455 383.6742739530542 55.23350947008212 384.2795427902997 Q 50.74765309173478 384.88481162754516 46.53713699877668 383.77948382845534 Q 42.32662090581857 382.67415602936546 38.64757486145927 379.9268613571499 Q 34.96852881709997 377.1795666849343 32.49977881709997 372.90356625374864 L 32.49977881709997 372.90356625374864 Q 30.718528817099973 369.81835075276655 29.98355263314788 366.6703346598085 Q 29.248576449195788 363.52231856685034 29.312117730345506 360.38237529417967 L 29.312117730345506 360.38237529417967 L 41.49059997106417 353.35112529417967 Q 41.06043210217793 355.98105268948507 41.36628169839349 358.51079972960486 Q 41.67213129460906 361.04054676972464 43.17213129460906 363.63862298107796 L 43.17213129460906 363.63862298107796 Q 44.35963129460906 365.695433315066 45.926838641315655 366.847416065557 Q 47.49404598802224 367.99939881604803 49.181766036621056 368.36011568917377 Q 50.86948608521986 368.72083256229956 52.55802736636958 368.3954718519283 Q 54.24656864751929 368.07011114155705 55.70798651640553 367.22636114155705 L 55.70798651640553 367.22636114155705 Q 57.115277797555244 366.41386114155705 58.48294566644149 365.4077313783475 Q 59.850613535327724 364.40160161513785 60.69764846553133 363.11870915003607 Q 61.54468339573493 361.8358166849343 61.60351733017805 360.2502200485989 Q 61.662351264621165 358.6646234122636 60.537351264621165 356.7160662537486 L 60.537351264621165 356.7160662537486 Q 59.756101264621165 355.36290156033544 58.52539233017805 354.91875115655097 Q 57.29468339573492 354.47460075276655 56.007904816477435 354.4958348754013 L 56.007904816477435 354.4958348754013 L 59.007904816477435 359.6919872981079 Z" fill-opacity="1"/></g></g><g><g><path fill="rgb(244,244,245)" stroke="none" paint-order="stroke fill markers" d=" M 59.52381735900449 327.16852384927824 L 17.915094771091525 340.6880173531822 L 9.108110431405521 313.5829066387703 L 21.174639981900278 309.66225352263814 L 25.03735241158712 321.55045997632755 L 28.48493228315705 320.4302733717184 L 24.931236847845156 309.4931234343241 L 35.09565336574961 306.1905043069419 L 38.64934880106151 317.12765424433616 L 42.51301589851057 315.87227270468793 L 38.45716784733938 303.389655928314 L 50.52369739783414 299.4690028121819 L 59.52381735900449 327.16852384927824 Z" fill-opacity="1"/></g></g><g><g><path fill="rgb(244,244,245)" stroke="none" paint-order="stroke fill markers" d=" M 16.066902780768206 282.6314255230668 L 16.720205676191046 288.8471873691185 L 4.102209128706079 290.1733922468269 L 1.123147925577939 261.8295182288311 L 13.741144473062903 260.50331335112276 L 14.39444736848574 266.71907519717445 L 45.286783743362726 263.47215980692295 L 46.9592391556452 279.3845101328153 L 16.066902780768206 282.6314255230668 Z" fill-opacity="1"/></g></g><g><g><path fill="rgb(244,244,245)" stroke="none" paint-order="stroke fill markers" d=" M 45.28678374336274 236.5278401930773 L 1.776450821000779 231.9547199251175 L 3.4489062332832248 216.0423695992251 L 46.959239155645186 220.61548986718495 L 45.28678374336274 236.5278401930773 Z" fill-opacity="1"/></g></g><g><g><path fill="rgb(244,244,245)" stroke="none" paint-order="stroke fill markers" d=" M 30.748465385857905 174.4235762995916 L 14.699386673377191 169.20891451951437 L 19.643658583376343 153.9920102587919 L 61.252381171289315 167.51150376269584 L 56.095660077657385 183.38225937837123 L 37.47187621614234 185.28270825418235 L 53.758719057696844 190.57462428285334 L 48.81444714769769 205.7915285435758 L 7.20572455978472 192.27203503967183 L 12.401072777713516 176.28239735945957 L 30.748465385857905 174.4235762995916 Z" fill-opacity="1"/></g></g><g><g><path fill="rgb(244,244,245)" stroke="none" paint-order="stroke fill markers" d=" M 41.56387811913587 138.89695323027567 L 38.43887811913588 144.3096120039284 L 27.451180808620805 137.96586200392844 L 41.70118080862079 113.2841379960719 L 52.68887811913586 119.6278879960719 L 49.563878119135865 125.04054676972464 L 76.46479222419 140.57179676972464 L 68.46479222419 154.42820323027564 L 41.56387811913587 138.89695323027567 Z" fill-opacity="1"/></g></g><g><g><path fill="rgb(244,244,245)" stroke="none" paint-order="stroke fill markers" d=" M 66.02992410501108 115.26010139251804 L 66.02992410501108 115.26010139251804 Q 62.49998618399346 112.08173101231347 60.538135456986154 108.00246642939648 Q 58.57628472997885 103.92320184647949 58.32639290813216 99.57719800503224 Q 58.076501086285475 95.23119416358502 59.55244583568413 90.88325270707682 Q 61.02839058508279 86.53531125056864 64.33222295397965 82.866033674774 L 64.33222295397965 82.866033674774 Q 67.6360553228765 79.19675609897936 71.80590006463072 77.27441309052203 Q 75.97574480638492 75.3520700820647 80.32406159217962 75.1463118674629 Q 84.67237837797431 74.9405536528611 88.9552758957889 76.44203462240337 Q 93.23817341360349 77.94351559194565 96.76811133462111 81.12188597215022 L 96.76811133462111 81.12188597215022 Q 100.29804925563874 84.30025635235481 102.23898965119733 88.40274421106795 Q 104.17993004675591 92.50523206978112 104.4298218686026 96.85123591122834 Q 104.67971369044929 101.19723975267559 103.18054566525447 105.52427087773506 Q 101.68137764005965 109.85130200279454 98.37754527116279 113.52057957858918 L 98.37754527116279 113.52057957858918 Q 95.07371290226592 117.1898571543838 90.92709143630789 119.13311049428985 Q 86.78046997034984 121.07636383419589 82.43215318455515 121.2821220487977 Q 78.08383639876047 121.4878802633995 73.82184921239458 119.96317601806106 Q 69.55986202602871 118.43847177272261 66.02992410501108 115.26010139251804 Z M 76.90329645834252 103.18399797851038 L 76.90329645834252 103.18399797851038 Q 78.11090679974329 104.27133521384351 79.45101179520033 104.93130787513418 Q 80.79111679065737 105.59128053642485 82.12437678539368 105.69842663498076 Q 83.45763678012997 105.80557273353666 84.77942588545064 105.27162505486804 Q 86.1012149907713 104.7376773761994 87.23037288900187 103.48362048320631 L 87.23037288900187 103.48362048320631 Q 88.35953078723244 102.2295635902132 88.75238886070636 100.859202653596 Q 89.14524693418026 99.48884171697881 88.92023450622582 98.15086200122597 Q 88.69522207827137 96.81288228547314 87.89878570048091 95.54910445348207 Q 87.10234932269044 94.28532662149104 85.89473898128968 93.19798938615789 L 85.89473898128968 93.19798938615789 Q 84.68712863988891 92.11065215082475 83.34702364443186 91.45067948953408 Q 82.00691864897483 90.7907068282434 80.62952504699363 90.68587367403497 Q 79.25213144501245 90.5810405198265 77.93034233969179 91.11498819849514 Q 76.60855323437113 91.64893587716377 75.47939533614056 92.90299277015687 L 75.47939533614056 92.90299277015687 Q 74.35023743790998 94.15704966314996 73.95737936443608 95.52741059976717 Q 73.56452129096216 96.89777153638437 73.83366732616149 98.23343830778975 Q 74.10281336136082 99.56910507919514 74.89924973915129 100.83288291118618 Q 75.69568611694176 102.09666074317724 76.90329645834252 103.18399797851038 Z" fill-opacity="1"/></g></g><g><g><path fill="rgb(244,244,245)" stroke="none" paint-order="stroke fill markers" d=" M 121.12808343487521 72.62302398329278 L 121.12808343487521 72.62302398329278 Q 122.24048180214076 71.81481926139064 122.64085513031065 70.55825290397445 Q 123.04122845848053 69.30168654655827 122.19628715831011 68.13872461714429 L 122.19628715831011 68.13872461714429 L 106.61997797255957 46.69977426620819 L 118.40128795314473 38.14015152969904 L 135.88789920884582 62.208407112353726 Q 138.0920939049426 65.24222084125978 138.48115087330433 68.4359955946463 Q 138.87020784166606 71.62977034803284 137.89919914162863 74.65287692148533 Q 136.92819044159123 77.67598349493781 134.83156559476268 80.31945721604065 Q 132.73494074793416 82.96293093714348 130.05507195406716 84.9099695853623 L 130.05507195406716 84.9099695853623 Q 127.37520316020014 86.85700823358111 124.21321754359151 88.03413865237935 Q 121.05123192698287 89.21126907117761 117.87602853084869 89.20056191572404 Q 114.70082513471449 89.18985476027048 111.78359005893105 87.83290892029792 Q 108.86635498314762 86.47596308032537 106.66216028705085 83.44214935141932 L 106.66216028705085 83.44214935141932 L 89.17554903134976 59.373893768764646 L 100.95685901193494 50.8142710322555 L 116.53316819768548 72.2532213831916 Q 117.3781094978559 73.4161833126056 118.69689728273278 73.42370600890027 Q 120.01568506760967 73.43122870519494 121.12808343487521 72.62302398329278 Z" fill-opacity="1"/></g></g><g><g><path fill="rgb(244,244,245)" stroke="none" paint-order="stroke fill markers" d=" M 173.44083791880277 38.477320091940335 L 180.53330813243704 54.407269009583175 Q 178.94832159495732 56.686490132249446 176.74112406874704 58.490174993939846 Q 174.53392654253673 60.29385985563025 171.79329016960892 61.514069784857654 L 171.79329016960892 61.514069784857654 Q 167.51104583690923 63.42064779927547 163.18946095196273 63.39492048496055 Q 158.86787606701623 63.36919317064564 154.95454309122664 61.724990280002885 Q 151.04121011543708 60.08078738936014 147.85348905388793 56.91626283047992 Q 144.6657679923388 53.75173827159971 142.73376893772874 49.41239734779736 L 142.73376893772874 49.41239734779736 Q 140.80176988311868 45.07305642399501 140.583071558908 40.58663777511844 Q 140.36437323469733 36.100219126241875 141.76102323145537 32.09185949772103 Q 143.1576732282134 28.083499869200196 146.01754830210626 24.826173195112013 Q 148.87742337599911 21.56884652102383 153.1596677086988 19.66226850660602 L 153.1596677086988 19.66226850660602 Q 155.9003040816266 18.44205857737861 158.73031709254673 18.037240197703447 Q 161.56033010346684 17.63242181802827 164.31468448978947 17.97964388608448 L 164.31468448978947 17.97964388608448 L 170.8224707790023 32.596371208366094 Q 169.91477683475838 32.24794014835142 168.90872748376438 31.909092353073767 Q 167.90267813277038 31.570244557796116 166.77618108885284 31.421853065300503 Q 165.64968404493533 31.27346157280489 164.3266776861773 31.452013350129786 Q 163.0036713274193 31.630565127454684 161.4620633676474 32.3169332126451 L 161.4620633676474 32.3169332126451 Q 159.6349724523622 33.1304064987967 158.547412963372 34.29876685434091 Q 157.45985347438182 35.46712720988511 157.0197245156547 36.860343677161396 Q 156.57959555692761 38.25356014443767 156.7360550480791 39.757439541240686 Q 156.8925145392306 41.26131893804371 157.578882624421 42.802926897815595 L 157.578882624421 42.802926897815595 Q 158.23982966941918 44.28743826648483 159.2527380271106 45.41000206040428 Q 160.26564638480204 46.532565854323735 161.58280123016135 47.109181780089315 Q 162.89995607552066 47.685797705854895 164.49593636835561 47.65936917236394 Q 166.09191666119057 47.63294063887298 167.91900757647576 46.819467352721375 L 167.91900757647576 46.819467352721375 Q 170.83093372271153 45.52299430291727 172.20649892659492 43.234391414173714 Q 173.58206413047827 40.945788525430174 173.44083791880277 38.477320091940335 L 173.44083791880277 38.477320091940335 Z" fill-opacity="1"/></g></g><g><g><path fill="rgb(244,244,245)" stroke="none" paint-order="stroke fill markers" d=" M 218.24229138655645 2.4430863767159394 L 227.33842785983344 45.237043908819935 L 211.68806624809255 48.563630961904096 L 208.16656198486675 31.99625597447526 L 199.5466362534001 33.82847774980677 L 203.0681405166259 50.3958527372356 L 187.417778904885 53.72243979031976 L 178.321642431608 10.928482258215766 L 193.9720040433489 7.601895205131605 L 197.32458005778528 23.374525266964223 L 205.94450578925193 21.542303491632712 L 202.59192977481555 5.7696734298001005 L 218.24229138655645 2.4430863767159394 Z" fill-opacity="1"/></g></g></g></g></svg>