<svg version="1.1" xmlns="http://www.w3.org/2000/svg" xmlns:xlink="http://www.w3.org/1999/xlink" width="500" height="500" viewBox="0 0 500 500"><defs/><g><g><g><g><path fill="rgb(245,158,11)" stroke="none" paint-order="stroke fill markers" d=" M 251.2 45.05 C 258.6 44.85 261.4 38.9 261.4 33.2 C 261.4 31.5 261.15 29.85 260.7 28.349999999999998 C 260 26 257.5 25.65 254.85 25.65 C 254.15 25.65 253.45 25.7 252.75 25.7 C 250.75 25.75 250.2 26.9 250.2 28.05 C 250.2 28.75 250.45 29.45 250.65 29.75 C 251 30.25 251.5 30.299999999999997 252 30.299999999999997 L 252.35 30.299999999999997 C 252.9 30.299999999999997 253.35 30.35 253.6 31 C 253.7 31.299999999999997 253.8 31.7 253.8 32.1 C 253.8 33.35 253.25 34.8 252.3 35.05 C 252.1 35.1 251.95 35.1 251.75 35.1 C 249.35 35.1 248.15 30.799999999999997 248.15 26.599999999999998 C 248.15 22.599999999999998 249.25 18.65 251.35 18.65 C 251.55 18.65 251.75 18.7 251.95 18.75 C 253.55 19.25 251.9 22.4 254.7 23.099999999999998 C 255.15 23.2 255.55 23.25 255.9 23.25 C 258.25 23.25 259.45 21.299999999999997 259.45 19 C 259.45 15.599999999999998 256.8 11.350000000000001 251 11.350000000000001 C 243.15 11.350000000000001 238.85 20.25 238.85 28.9 C 238.85 37.1 242.7 45.05 250.9 45.05 Z" fill-opacity="1"/></g></g><g><g><path fill="rgb(245,158,11)" stroke="none" paint-order="stroke fill markers" d=" M 295.6226647978804 41.16013770896073 C 295.0145824550868 41.14477983207075 294.5141555442374 41.09925064475368 294.02319119560605 41.00462502257348 C 291.470176582723 40.51257178723641 290.8306837490821 38.810793624336824 291.1145606156227 37.33790057844277 C 291.3511246710732 36.110489706864385 292.26557625238956 35.06465114120142 293.26643007408836 35.15570951583556 C 295.4248895842933 35.31711751689477 296.81673126112406 35.22893165273938 297.270934247589 32.872302779308875 C 297.3087844964611 32.67591703985634 297.35609730755124 32.43043486554066 297.36377624599623 32.12639369414383 C 297.6369513698986 29.123832229047583 295.6293484118292 29.500701387709835 293.4750005925232 28.5253627421864 C 292.5800185789957 28.14918832059147 292.16886641900743 26.84786057504196 292.40543047445794 25.620449703463574 C 292.7176950276526 24.00026735298011 294.19702783157146 22.40133819405857 297.19191035822274 22.978554489357823 C 297.5355854022647 23.044792424883966 297.91889431895174 23.16958935749127 298.3022032356388 23.294386290098565 C 298.48912641287336 23.381332973833782 298.6855121523259 23.419183222705865 298.8818978917784 23.457033471577947 C 300.8457552863038 23.835535960298767 302.1511947227523 22.610453155846272 302.4350715892929 21.137560109952215 C 302.74733614248754 19.517377759468747 301.86057751075793 17.513342048945358 299.354875708965 16.775806639292618 C 298.05765965431436 16.373028154816666 296.839711344954 16.087367664503006 295.75958977796506 15.879191295706555 C 286.0875921099274 14.015066538756514 284.45398580004144 18.792234154017766 282.74126203857975 27.67868886424526 L 281.936944250048 31.851885827611767 C 279.94980618426365 42.16213714887019 279.45309681467484 46.85290252374907 288.63413013408115 48.62240165851891 C 290.05792674511207 48.8968159628415 291.75559321711273 49.07125377366479 293.659107990784 49.23444539849703 C 297.3679446684001 49.541903523725466 299.3648458838314 47.63536594586103 299.75281093477025 45.62241211647248 C 300.121850861273 43.70765115681021 299.07834036273596 41.72432419449589 296.6726150544423 41.26065864581289 C 296.3780364452635 41.20388327250477 295.9758024041404 41.17727920962374 295.6226647978804 41.16013770896073 Z" fill-opacity="1"/></g></g><g><g><path fill="rgb(245,158,11)" stroke="none" paint-order="stroke fill markers" d=" M 347.0325545466563 36.68302140206894 C 348.02686984646783 33.795749838020875 346.579120322889 31.492703742742435 339.31934614319414 28.370896756422628 C 339.2265093498925 28.333730510856594 339.0872541599401 28.277981142507546 338.9479989699877 28.222231774158494 C 331.34471289095416 25.01676132500839 327.8070320295005 25.647089907974923 326.5340487085571 28.961379192964998 C 325.6513109660571 31.300882148288196 326.4122731527991 32.62882663144586 328.77028041029183 33.73440420611512 C 330.84052513679495 34.61706312800166 330.9143847042462 36.04693891431875 330.3752376816983 38.20084710365221 C 329.97558231094325 39.60272997487456 329.5480916663204 40.9396113266631 329.102096719528 42.05365284628239 C 326.9464544766981 47.438186857775605 319.5900601142548 57.203608609252214 326.90566248291225 59.91690217679955 C 332.7451283098287 62.146955731374995 334.428201461814 53.503330058946425 337.0114919904937 46.24339823802457 C 337.60615191955026 44.75800954519885 338.08931311190867 43.55113123227795 338.45172341648424 42.51134338317726 C 338.6933040126634 41.907904226716816 338.9720508544087 41.21162827695476 339.2878851211065 40.69177376271115 C 340.16105543006785 39.31788380658354 341.043320248887 38.59393022418064 342.8165502933158 39.14225057719983 C 344.90545696321544 39.70923287361552 346.40064955142026 38.53050511701631 347.0325545466563 36.68302140206894 Z" fill-opacity="1"/></g></g><g><g><path fill="rgb(245,158,11)" stroke="none" paint-order="stroke fill markers" d=" M 361.05671159737403 77.74728069148608 C 364.3225697396469 79.78668516204858 366.8067193043881 77.40099848102861 369.18553890119273 73.6994829365714 C 370.9696535987962 70.92334627822851 372.699588697099 67.39916913233188 374.5918315581936 64.45478176742274 C 375.61904911135923 62.8564000550435 376.8385201812991 61.14383171784358 377.9198018162103 59.46132465218122 C 380.5419097808699 55.38124501794999 382.38894521710307 51.397407659661 378.8136177025705 49.09968418547471 L 378.7294923492874 49.04562010372915 C 375.5627901960665 47.129374432426545 373.18676879481643 49.346810406880294 371.1323336884851 52.54357383163878 C 369.4293151135 55.193522460057 367.9727296545898 58.477324951208274 366.56706352920526 60.664584136569346 C 365.29655760818457 62.64152993872263 363.24503621496297 65.1863796343145 361.5960817217234 67.75220290944961 C 359.13616600230046 71.57990648383148 357.56550943612467 75.50362129904536 361.0146489207325 77.72024865061331 Z" fill-opacity="1"/></g></g><g><g><path fill="rgb(245,158,11)" stroke="none" paint-order="stroke fill markers" d=" M 388.1929835827387 98.58260531398341 C 389.98885666735214 99.74227762285382 391.4960850606748 99.17591857563895 392.7727312319167 97.83701060514457 C 395.2225117226782 95.26775476987157 396.8618889334949 89.85319639816157 398.34555880818147 88.29716821623568 C 398.7251022644966 87.89911449527789 399.1096939748052 87.71313273175818 399.46819549119544 87.91679093254051 C 399.57507284558005 87.94961213178347 399.64744624939055 88.01862003293168 399.68363295129586 88.05312398350578 C 401.7462749598953 90.0198491662298 390.8245163138353 100.67724979101696 394.7065899256843 104.79331641732242 L 394.85133673330535 104.93133221961884 C 398.2890734143044 108.20920752415887 405.60894409343706 103.72038883314744 411.3711038393127 97.6772096149701 C 417.20227148633654 91.56165699298225 421.43954149819814 83.8572398932544 418.4722319419673 81.02791594617774 C 418.3274851343463 80.88990014388132 418.14655162482006 80.71738039101079 417.9673008666249 80.61555129061963 C 416.2076144839167 79.49038293232333 414.49841064114287 80.4859341484078 412.9457328653081 82.1143357341442 C 410.9790076825841 84.17697774274366 409.2150917766913 87.3311179864453 407.83493375372706 88.77858606265545 C 407.14485474224495 89.50232010076051 406.5860605277347 89.79854472132713 406.0828122037234 89.45687071824837 L 406.0104387999129 89.38786281710016 C 403.9839834932187 87.45564158495024 415.0774129681981 78.06730720212926 411.24162256624123 74.40988844127406 C 411.0606890567149 74.23736868840354 410.84525159661456 74.10103563743826 410.59362743460895 73.93019863589888 C 406.9707428174702 71.78842202502204 398.990248823436 76.75271609479522 393.15908117641214 82.86826871678306 C 387.84547278799994 88.4410208101921 384.2881852796336 94.99755995693873 387.50880174920115 98.06841155803413 C 387.6897352587274 98.24093131090466 387.941359420733 98.41176831244402 388.1929835827387 98.58260531398341 Z" fill-opacity="1"/></g></g><g><g><path fill="rgb(245,158,11)" stroke="none" paint-order="stroke fill markers" d=" M 446.9568449983525 123.00609775152611 C 449.3542931156703 121.11473778452641 449.38148943789423 118.39457963470176 444.96195504269184 111.84341823158987 C 444.90394935173475 111.76196063638483 444.81694081529906 111.63977424357728 444.7299322788634 111.51758785076973 C 440.06664916770853 104.71032770991879 436.7497812846207 103.32797918435054 433.8870395003206 105.4279100109308 C 431.8796024656733 106.91878108246132 431.80182360271095 108.44732628901436 433.18778517478853 110.65223230078091 C 434.4521844237212 112.51403103837274 433.7412698317985 113.75685059204548 432.12321981015907 115.27734857871722 C 431.0290932161218 116.24061749040301 429.94669257420844 117.13415475900771 428.96920143174805 117.83022305049316 C 424.24466090985607 121.19455312600611 412.7764825650343 125.43258161238518 417.4638416500997 131.67026265646356 C 421.1706549301247 136.70335666582102 427.25964301456764 130.34181407714712 433.3578607724839 125.63100308783379 C 434.66118229576443 124.70291203251986 435.7201310334299 123.94883805007731 436.5871617352067 123.27004665194647 C 437.1166361040394 122.8930096607252 437.7275680680771 122.45796697854679 438.27431933026446 122.19139042800911 C 439.7516579264163 121.5076721583103 440.88526517873083 121.37563202236679 442.0805568542451 122.79558899722423 C 443.5313231978358 124.40191306673965 445.42642758281147 124.21866632039499 446.9568449983525 123.00609775152611 Z" fill-opacity="1"/></g></g><g><g><path fill="rgb(245,158,11)" stroke="none" paint-order="stroke fill markers" d=" M 467.04213419005566 150.77024394756435 C 464.41713941120867 145.26303027720198 452.8096991456269 145.12220953671692 444.3501215888299 148.98556915763447 C 437.70980802274187 152.01809875254824 433.08498659324334 157.5381555226595 436.40830669725847 164.81521148549564 L 436.59524345310933 165.22454588340517 C 439.9758654522947 172.1456292450346 447.1802000608725 172.1535568959358 453.77503202719276 169.1417980516721 C 462.18912798422207 165.29920918140468 469.6592487719675 156.5009255182978 467.0629049407057 150.81572554733208 Z M 451.19877707701687 158.44540097453935 C 450.59642530816416 157.1264345812753 451.3259304862905 155.47406591929735 452.8268232786254 154.78863114784423 C 454.3277160709604 154.1031963763911 456.05421728029125 154.633944503264 456.65656904914397 155.95291089652804 C 457.2589208179967 157.2718772897921 456.52941563987036 158.92424595177005 455.02852284753544 159.60968072322316 C 453.52763005520046 160.29511549467628 451.8011288458696 159.7643673678034 451.19877707701687 158.44540097453935 Z" fill-opacity="1"/></g></g><g><g><path fill="rgb(245,158,11)" stroke="none" paint-order="stroke fill markers" d=" M 459.2489394864742 209.70689328451044 C 461.7949090837235 209.80955199033883 466.09157829526947 209.28169435181007 470.3189586174769 208.25614298234407 C 477.36459248782256 206.5468906999007 484.4320858441437 203.44317717279228 483.58623125893837 199.53235500594718 L 483.550867418612 199.38658327069865 C 482.73749909110444 196.03383335998242 478.77061477301055 196.22443453222652 474.34887213713847 197.29713768879444 C 470.99612222642224 198.11050601630194 467.39754184099655 199.3951145985672 464.6764694496906 200.05523961799358 C 462.29553110729796 200.63284900999167 460.5727237604951 200.74209572986064 460.2898130378838 199.5759218478724 L 460.2780250911083 199.52733126945623 C 459.9611893194849 198.00923539177927 462.42895966324875 197.15330926737386 465.73311899554875 196.3517288866418 C 467.4823798185312 195.92736280272484 469.4495788487292 195.55302608853833 471.39320198537627 195.08150821751948 C 476.6895750327396 193.7966220189931 481.7105089303242 192.0126032982152 480.76747318828643 188.12535702492104 L 480.75568524151095 188.07676644650485 C 479.82443744624874 184.23811075162686 473.34838616254626 184.26567469285095 466.83724865477853 185.8452595607641 C 461.97819081316084 187.02405423831124 457.11337780628594 189.0274499576191 454.3954606138698 190.97306711810276 C 449.9593300648547 194.10727287907244 448.68042593783804 198.37920502201428 449.5645219459984 202.02349840322756 C 450.554709475138 206.10510699018644 454.2423935020326 209.42940940088658 459.2489394864742 209.70689328451044 Z" fill-opacity="1"/></g></g><g><g><path fill="rgb(245,158,11)" stroke="none" paint-order="stroke fill markers" d=" M 469.6879097390415 246.61799770982597 C 469.7259576270447 246.365901779239 469.71644124387996 246.16612831140242 469.7069248607152 245.96635484356582 C 469.55704182587044 242.81992272513935 465.17155956128573 244.28024642453374 464.8266788948425 242.29440722512368 L 464.81716251167774 242.09463375728708 C 464.70772410528315 239.79723887716617 469.15028702420057 238.484366182858 473.3954732157283 238.2821430406071 C 477.3409992055012 238.09419447310333 481.1295754516789 238.814742894029 481.21284380437044 240.56276073759926 C 481.2223601875352 240.76253420543586 481.18193320374075 240.96468676906363 481.0915628529872 241.16921842848262 C 480.9132012472713 241.62822511427973 480.51841250318046 241.7471446145275 480.0689222005481 241.7685564766482 C 479.6194318979158 241.7899683387689 479.11524003674185 241.71387256276245 478.61580636715036 241.73766352067432 C 477.816712495804 241.77572905333332 477.07707837458145 242.01118895803774 476.83451647181505 243.22410433980446 C 476.7536625042262 243.62840946706004 476.7203728078054 243.98039213156528 476.7370264783437 244.32999570027934 C 476.84170669315597 246.52750384648195 478.89653967051044 247.63098082185408 481.29382128454967 247.5167842238771 C 484.6899702377719 247.35500571007637 488.6711297304453 244.7626382411598 488.4308410555353 239.71835817828563 L 488.4022919060411 239.11903777477582 C 487.62210728843377 232.1983216295746 478.8034726201617 228.8641526795137 470.4129869710244 229.26384077243313 C 462.22227478972377 229.6540124821878 454.40025187743396 233.58064686287742 454.7642535334856 241.22198200762745 L 454.7880444913975 241.72141567721894 C 455.39460805021554 248.14983544020222 460.1107316958079 250.4780703423297 464.1062010525399 250.2877426790347 C 466.9529729692115 250.15213421893705 469.4382281935573 248.7322727926486 469.6879097390415 246.61799770982597 Z" fill-opacity="1"/></g></g><g><g><path fill="rgb(245,158,11)" stroke="none" paint-order="stroke fill markers" d=" M 454.2525266238449 276.1846876585445 C 455.00752858257493 277.9602078759213 456.6827901705572 278.6051874196519 458.4644687659429 278.8613541285438 C 459.9492009287643 279.0748263859537 461.5190028732481 279.0479590248071 462.7562796755993 279.2258525726487 C 464.24101183842066 279.43932483005864 465.230514159 279.9351929149039 465.0028104177627 281.5189072219134 L 464.9885789339354 281.6178893661015 C 464.74696283017244 282.94703257072706 463.50936690651963 283.12269226945745 461.92565259951016 282.8949885282202 C 460.3914293645947 282.6744005288966 458.5534630765029 282.1070559036131 456.9202576973994 281.8722364204622 C 455.7819630392363 281.7085743564479 454.72130329952034 281.7076169925431 453.95015512915336 282.1523983987863 C 453.1224001447787 282.6395551352099 452.2584282082325 284.08127372524774 452.0236087250816 285.71447910435126 C 451.76744201618965 287.49615769973695 452.2889009769752 289.4906703099293 454.42349457632963 290.4542626332668 C 457.9292875891885 292.069631120947 462.5526662770726 293.29002839577964 467.204827053913 293.95890813566405 C 473.2922289214807 294.8341443910448 479.4229634831336 294.7053277207172 482.92451284579323 293.1882080613435 C 484.21903470475536 292.61661978586073 485.267058567152 290.94879306109374 485.5089937922166 289.2660966098961 C 485.6655401143172 288.1772930238271 485.51802426193984 287.0952860583701 484.8257874952264 286.28855917843487 C 484.3172835330618 285.6092774103423 483.10135395645165 285.28291064621857 481.6661128657243 285.0765541307223 C 479.9834164145267 284.83461890565775 477.91870374910246 284.79032884766775 476.1370251537168 284.5341621387758 C 473.86043583739064 284.2068380107473 472.13568317731426 283.554742725103 472.38473414429257 281.8225552018113 L 472.3918498862062 281.7730641297173 C 472.61955362744345 280.1893498227078 474.24596238593494 280.1201071313808 476.3245874138849 280.41896829175465 C 477.462882072048 280.58263035576897 478.7849095347599 280.873737531626 480.0716774092051 281.05874682138125 C 482.051320292967 281.3433764979278 484.00993507228947 281.42292614418454 485.2624007223728 280.44117780812206 C 485.94168249046527 279.9326738459575 486.73481612917647 278.63231273028816 486.9411726446727 277.1970716395608 C 487.1546449020826 275.71233947673943 486.72473322226995 274.13510266904035 484.9860681996679 273.2284362810122 C 481.7419620311066 271.5496643587122 476.4046802294664 270.0245666667985 470.91117122702724 269.2347193143817 C 465.5661354408702 268.466219187706 460.0719881958278 268.3834783284332 456.21720470789785 269.54672561993334 C 454.68234323037916 270.0332441137537 453.9034410754954 271.234623085235 453.70420030191275 272.6203731038683 C 453.53342249598484 273.8081588341254 453.80094859698966 275.10947731369953 454.2525266238449 276.1846876585445 Z" fill-opacity="1"/></g></g><g><g><path fill="rgb(245,158,11)" stroke="none" paint-order="stroke fill markers" d=" M 450.7227302869548 319.76181743009863 C 451.1642720374333 318.4860663248338 452.05284801518496 316.8359351992069 452.6252169509904 315.1821837664562 C 453.45924025744984 312.7724316787338 453.61359943908127 310.33908557859803 450.5423467782586 309.2761146978164 L 450.49509673732285 309.25976129965056 C 447.59649084207723 308.30945405246814 446.3135611386739 309.8760080337038 445.51224462854617 312.1912600395547 C 444.8908154982431 313.9867615951126 444.53291290826473 316.24384062254757 443.8787769816299 318.1338422599769 C 443.51900222198077 319.17334316056304 443.04837398229427 320.2273873057532 442.6722458244792 321.3141382472751 C 441.7728089253563 323.9128904987404 441.44399282458596 326.39167648625005 444.5624955263444 327.4710007651975 L 444.7042456491516 327.5200609596952 C 447.5083514625257 328.4376614105458 448.7113243286616 326.94925411301574 449.41452044979405 324.9175023527792 C 450.0032427837654 323.2165008790928 450.23212834197864 321.1793186581706 450.7227302869548 319.76181743009863 Z" fill-opacity="1"/></g></g><g><g><path fill="rgb(245,158,11)" stroke="none" paint-order="stroke fill markers" d=" M 426.8919065056207 353.51423048454126 C 423.36511158637757 360.02281847254613 427.117962738895 365.42268960314254 432.0543075404663 368.27268960314257 C 433.5265507268998 369.12268960314253 435.08049264314417 369.73118325219644 436.6045307488208 370.09147182049344 C 438.9896904477142 370.6602540378443 440.5427993390388 368.6701905283832 441.8677993390388 366.37522320835444 C 442.2177993390388 365.76900542570536 442.5244980688496 365.13778764305624 442.87449806884956 364.53156986040716 C 443.83119679866036 362.7745190528383 443.11026758430825 361.7232050807568 442.11433836995616 361.14820508075684 C 441.508120587307 360.7982050807568 440.77690280465794 360.6647114317029 440.4170951835226 360.6879165124598 C 439.80908248163036 360.74102540378436 439.51578121144115 361.1490381056766 439.26578121144115 361.5820508075688 L 439.09078121144114 361.88515969889335 C 438.81578121144116 362.3614736709748 438.54747994125194 362.7261851026778 437.85956342879206 362.61769145362393 C 437.5497558076567 362.55429399400236 437.15334564614295 362.4408965343808 436.80693548462915 362.2408965343808 C 435.7244037298986 361.6158965343808 434.7436668944112 360.41458256229936 435.0021605434651 359.46685842870414 C 435.05885927327586 359.26865334794724 435.13385927327585 359.1387495373796 435.23385927327587 358.9655444566227 C 436.43385927327586 356.88708348754005 440.75776850954895 357.99785300299874 444.39507520544356 360.0978530029987 C 447.85917682058135 362.0978530029987 450.7299771655299 365.0254809471616 449.67997716552986 366.8441342951089 C 449.5799771655299 367.01733937586584 449.43667589534067 367.1655444566227 449.29337462515144 367.3137495373796 C 448.0603619232592 368.4493901834347 446.1573819013382 365.4454482671904 444.1511641186891 367.5203193977868 C 443.8395615783107 367.8600308294898 443.59626030812143 368.18144099100357 443.4212603081215 368.4845498823281 C 442.24626030812146 370.51970958122155 443.33500984550113 372.53394006576286 445.3268682742053 373.6839400657629 C 448.2713546470724 375.3839400657629 453.2769626131563 375.2139727457341 456.17696261315626 370.19102540378435 C 460.1019626131563 363.39272598407655 454.54433651947477 355.21881674780343 447.05321677673936 350.89381674780344 C 439.95180846570696 346.7938167478035 431.1419065056207 346.1530145523735 427.04190650562066 353.2544228634059 Z" fill-opacity="1"/></g></g><g><g><path fill="rgb(245,158,11)" stroke="none" paint-order="stroke fill markers" d=" M 408.0492936679436 393.9303178488261 C 408.3666351508753 393.411382030819 408.65627803913026 393.00076420694467 408.9837084061029 392.62288941976755 C 410.68634631436066 390.65794052644645 412.47987585185774 390.9550125684251 413.61350021338916 391.937303669343 C 414.55818718133196 392.75587958677465 415.00668415679536 394.07073716955693 414.4273983802855 394.89197281730577 C 413.2083851958917 396.6805495856537 412.5888355560896 397.93001276791284 414.4026345345398 399.5016785293815 C 414.55378444941067 399.63265067617056 414.74272184299923 399.7963658596569 415.0021897520028 399.95503660112274 C 417.4658966952491 401.69289393065236 418.1433199089795 399.7658241889203 420.06516186294846 398.3877735715754 C 420.83842947506736 397.8007836227279 422.1709884413569 398.09537928013197 423.1156754092997 398.9139551975636 C 424.3626622069842 399.9944754085733 425.00770907550253 402.0750797768795 423.0103838369694 404.38011597865994 C 422.78118258008857 404.64462832968394 422.4814508077927 404.9141851227284 422.18171903549694 405.1837419157728 C 422.0129594099901 405.3021487939464 421.8819872632011 405.4532987088173 421.751015116412 405.60444862368814 C 420.4412936485215 407.1159477723966 420.8495267606926 408.8590328896893 421.98315112222394 409.8413239906072 C 423.2301379199085 410.9218442016169 425.4090630711778 411.15590655477564 427.30063837302407 409.35467284494086 C 428.2980628000033 408.4326400296544 429.15442619615266 407.52069609840885 429.87477300349246 406.6893715666192 C 436.32515123285356 399.2452382592297 433.00480587484395 395.4419098874553 426.16527222693793 389.5154202452505 L 422.9533365359323 386.732262125983 C 415.0179660052126 379.8562244195575 411.2039987121695 377.0806787997564 405.08105084978104 384.1469373199687 C 404.1315027855604 385.2427742027824 403.13160197400657 386.6257775892764 402.0385164943814 388.19267392733855 C 399.9178316085255 391.2508916460274 400.57049097651014 393.9335276163711 402.11977760393637 395.27599212095896 C 403.59348927392716 396.55297055215226 405.8328560565705 396.64092743246056 407.43726485473644 394.78934097529265 C 407.63372307492006 394.56261610298634 407.85787988978046 394.2275732365474 408.0492936679436 393.9303178488261 Z" fill-opacity="1"/></g></g><g><g><path fill="rgb(245,158,11)" stroke="none" paint-order="stroke fill markers" d=" M 386.22164525102164 440.69114653046904 C 388.2249381232059 442.99588462150143 390.943309309593 442.89361980340453 397.27676055530515 438.1673744312103 C 397.3553658647794 438.10555853258825 397.47327382899084 438.01283468465516 397.5911817932023 437.9201108367221 C 404.16884367276333 432.9382071646135 405.3918035379097 429.5593213766294 403.1580364820894 426.7997408396035 C 401.5733363618008 424.86551605205756 400.0428216111998 424.86055639551665 397.9063597169355 426.34986179547883 C 396.1068323044532 427.701416859738 394.8315937655207 427.05044322830474 393.23582806741257 425.50657411573684 C 392.2215895731813 424.4595209762929 391.27756168299817 423.420862542275 390.5357708995334 422.47759882858367 C 386.9504487794539 417.91849087907553 382.1715426452277 406.6649556052047 376.16396030347806 411.643806316674 C 371.3129443599577 415.58590529002703 377.9570071970915 421.3653022322881 382.952647319413 427.23246336594144 C 383.941701697366 428.4901483175299 384.7453083794528 429.5120173406955 385.4645859190326 430.34576779560155 C 385.866389260076 430.8567023071844 386.33000849974144 431.44624212824147 386.62229858199953 431.97968988370917 C 387.3755370315297 433.42282253116383 387.56136681564175 434.54886306832793 386.19989243830065 435.8103651570475 C 384.66441803115885 437.3359202511075 384.9376299184172 439.22015889434266 386.22164525102164 440.69114653046904 Z" fill-opacity="1"/></g></g><g><g><path fill="rgb(245,158,11)" stroke="none" paint-order="stroke fill markers" d=" M 343.64687499343626 432.30429315834476 C 340.2477698422012 434.112907039428 341.07176033106407 437.45708700980396 343.0879570266647 441.3679629838856 C 344.60010454836515 444.30111996444685 346.7871639349968 447.5613762794237 348.3909567610427 450.67230034971595 C 349.26158715232475 452.3610877021603 350.1349793030868 454.2734647965084 351.0514323465417 456.05113569381825 C 353.2738309769196 460.3619876197946 355.80041761562677 463.95348590840706 359.5779682724102 462.0060231910656 L 359.6668518172757 461.9602005388929 C 362.9097203251262 460.17587886363594 362.1773751406088 457.009465982991 360.4361143580446 453.6318912781023 C 358.99270081460327 450.8320596148393 356.8771371657108 447.92871835906436 355.6857482092195 445.6177461925616 C 354.6089158831601 443.5289828882225 353.4307720945752 440.4798883974894 352.03318120330664 437.7689402790919 C 349.9482505294469 433.724738987712 347.3355421053542 430.402653093176 343.69131676586903 432.2813818322584 Z" fill-opacity="1"/></g></g><g><g><path fill="rgb(245,158,11)" stroke="none" paint-order="stroke fill markers" d=" M 312.03481858157596 445.3873317504258 C 310.1325763597221 446.36276730923856 309.869443485612 447.9512449107686 310.3906487157687 449.7263069119554 C 311.39079929255576 453.1325069682869 315.2602557873219 457.2595284650945 315.865980784531 459.3224383583656 C 316.0209336907938 459.8501594938536 315.9897027674882 460.2762165668256 315.63407883372656 460.48485888692363 C 315.55221616420715 460.5610067912885 315.45626686684574 460.5891800469727 315.408292218165 460.60326667481473 C 312.6737372433637 461.4062044618128 308.90503688701983 446.6189837079289 303.3993818190455 447.9229247619987 L 303.2074832243226 447.9792712733669 C 298.64989159965376 449.31750091836375 298.87738727948573 457.90110422441523 301.22985412911163 465.9128705540963 C 303.6104942344217 474.02058618113875 308.1640801582065 481.5423782039688 312.0980013500259 480.3872747209189 C 312.28989994474887 480.3309282095506 312.5297731881525 480.26049507034026 312.7075851550333 480.1561739102913 C 314.5618527282065 479.1948249793205 314.5542820056957 477.2168354231902 313.9203837528025 475.05797623255756 C 313.1174459658044 472.32342125775625 311.2678383406064 469.2187551512628 310.7043732269235 467.2997692040338 C 310.42264067008205 466.3402762304193 310.44549973070013 465.70823393488234 310.99302225918467 465.443245103416 L 311.08897155654614 465.4150718477319 C 313.7755518826667 464.62622068857587 316.3593732199229 478.9275796204096 321.4446859800797 477.43439706915 C 321.68455922348335 477.36396392993964 321.9103458390449 477.24555614204854 322.1841071032872 477.1130617263154 C 325.8503823661073 475.04643991833177 325.5414245868443 465.6529823498625 323.1607844815342 457.54526672282 C 320.99144379385524 450.1571708259884 317.0919580860487 443.79819990180476 312.8222143534642 445.0519097797491 C 312.58234111006055 445.1223429189595 312.30857984581826 445.25483733469264 312.03481858157596 445.3873317504258 Z" fill-opacity="1"/></g></g><g><g><path fill="rgb(245,158,11)" stroke="none" paint-order="stroke fill markers" d=" M 261.5015229737199 484.0665823420443 C 261.9407646941836 487.0885132993966 264.2828925931311 488.47214508024433 272.1661319901193 487.9202967226559 C 272.26567918237663 487.91079111832545 272.41499997076255 487.8965327118298 272.56432075914853 487.8822743053342 C 280.7912225268721 487.2473827364607 283.64680540844205 485.06606515149406 283.25958285858354 481.5368926285248 C 282.97216915419443 479.0529656242573 281.6872996059678 478.2213345497779 279.08481420078215 478.3191594739828 C 276.8402495728275 478.48326197528854 276.1193935629882 477.2461821019261 275.61162869094704 475.08466068525655 C 275.32447663977 473.65548480402117 275.09185098688687 472.2713297167493 274.97778373492184 471.07676340966157 C 274.4264586837576 465.3030262587377 276.4903075250021 453.2522782338019 268.7446377375929 454.19280975608916 C 262.53244382584154 454.8864572189976 264.9972072726683 463.3404468778029 266.02778038288244 470.9770638686244 C 266.1798700521691 472.5698189447413 266.30344290846455 473.86393244408634 266.45777815222783 474.9541987567515 C 266.5195645803755 475.601255506424 266.59085661285366 476.3478594483538 266.54834304657885 476.9546482062281 C 266.40179113909363 478.5759200953363 265.9493376249826 479.62367284172666 264.12197297471806 479.94884731022535 C 262.00547235201196 480.40208578397267 261.21661649701946 482.1349176973572 261.5015229737199 484.0665823420443 Z" fill-opacity="1"/></g></g><g><g><path fill="rgb(245,158,11)" stroke="none" paint-order="stroke fill markers" d=" M 227.41442245771412 487.57887992639706 C 233.49630678974037 488.0591745982953 239.42198126117106 478.0772468256336 240.30600246389994 468.8193579457039 C 240.9999115800205 461.5524129109204 238.5318129015211 454.7871716799524 230.56803752093643 454.02672333351893 L 230.12007515577855 453.98394811403205 C 222.43593014330494 453.4511109651044 218.8268972919433 459.6862839280456 218.137740977988 466.9034553667005 C 217.2584725774243 476.1115706505015 221.1429493455037 486.98002685358074 227.36464886158547 487.57412712423184 Z M 228.68922005083851 470.0205516717891 C 230.1326543385695 470.1583829345802 231.19889498719655 471.6163372820189 231.04205251574464 473.2588659542645 C 230.88521004429273 474.90139462651007 229.5623180787444 476.1312144700187 228.11888379101342 475.9933832072276 C 226.67544950328244 475.85555194443657 225.60920885465538 474.39759759699785 225.7660513261073 472.75506892475227 C 225.9228937975592 471.1125402525067 227.24578576310753 469.88272040899807 228.68922005083851 470.0205516717891 Z" fill-opacity="1"/></g></g><g><g><path fill="rgb(245,158,11)" stroke="none" paint-order="stroke fill markers" d=" M 180.27038426977424 451.36145066798423 C 178.9084944239826 453.51499566355074 177.2172979427572 457.49994917167237 175.99176132049698 461.6737436068954 C 173.9492002833966 468.63006766560056 173.10334836578133 476.30255321680664 176.91314700455519 477.52543274153385 L 177.05707095059734 477.56769262506003 C 180.36732170956736 478.539669946163 182.1856984114598 475.0089467666975 183.4675815450883 470.64325373675155 C 184.43955886619125 467.3330029777815 185.12634539274288 463.57423665530985 185.91519655189887 460.88765632918927 C 186.60544131616038 458.53689854383373 187.37223455487515 456.99028025574154 188.52362612321255 457.32835932395125 L 188.5716007718933 457.3424459517933 C 190.0447282531537 457.82710606357824 189.5520968487696 460.3922209341863 188.59420615550874 463.6544970444756 C 188.08708755319415 465.3815843969817 187.42767314214984 467.27239708852653 186.86420802846698 469.19138303575556 C 185.3287655936812 474.42061974195457 184.3633041779096 479.66088540837416 188.2012760723676 480.7878156357399 L 188.24925072104833 480.80190226358195 C 192.03924796682557 481.9147458631056 195.25340253534833 476.2925389645964 197.1410106661859 469.8639360413793 C 198.54967345039304 465.0664711733068 199.24708836707688 459.85172166503827 198.9210930762672 456.52512775078156 C 198.42485654108742 451.11622312034547 195.36470684556483 447.8726935858733 191.76660819451047 446.816196497718 C 187.73673770532957 445.632919758984 183.01396535435413 447.1643966020547 180.27038426977424 451.36145066798423 Z" fill-opacity="1"/></g></g><g><g><path fill="rgb(245,158,11)" stroke="none" paint-order="stroke fill markers" d=" M 143.0849450294271 441.94631188339974 C 143.28424256550446 442.10531028626434 143.46200965523545 442.19695559060983 143.6397767449664 442.28860089495527 C 146.43960840822945 443.7320144383966 147.36767211909776 439.203913539723 149.25989964683944 439.89815772101406 L 149.43766673657043 439.98980302535955 C 151.48198826847675 441.0437240253326 150.39768791422384 445.54753271817987 148.45022519688234 449.3250833749633 C 146.64023043605906 452.83598339715024 144.12192907579185 455.7567124600516 142.56646704064573 454.9548160470286 C 142.38869995091474 454.8631707426831 142.23384418727014 454.7270836659049 142.1018997497119 454.5465548166939 C 141.79356910216265 454.16258579218555 141.88797616598814 453.76122896055085 142.09417810076548 453.36125300865615 C 142.3003800355428 452.96127705676145 142.61837684127198 452.56268198460674 142.8474901021357 452.11826426027926 C 143.21407131951761 451.4071959013553 143.3799741210822 450.64892401051867 142.4508395392145 449.8324015498493 C 142.14112801192528 449.5602273962928 141.85294693098243 449.3554063412555 141.54185452395322 449.1950270586509 C 139.5864165369124 448.18692871085057 137.60336095507165 449.41472778208754 136.50361730292587 451.5479328588593 C 134.94564712905267 454.5699733842861 135.2001234667421 459.31394237591707 139.68874248244947 461.6279863106405 L 140.22204375164242 461.9029222236769 C 146.60565205457146 464.6876205977877 153.90244439996954 458.7175434234004 157.75154718247978 451.25132565469903 C 161.50900466064456 443.9628749757287 162.01945099173886 435.225487234357 155.21985980952869 431.7200543431423 L 154.77544208520123 431.4909410822786 C 148.90498548485874 428.8020306517333 144.5306130908426 431.72219608514104 142.69770700393298 435.2775378797607 C 141.39176141700983 437.81071890842725 141.37876986985634 440.67294378074297 143.0849450294271 441.94631188339974 Z" fill-opacity="1"/></g></g><g><g><path fill="rgb(245,158,11)" stroke="none" paint-order="stroke fill markers" d=" M 125.19713198561723 413.7955330141349 C 123.28198539307103 413.56162378161366 121.88578592928785 414.6899531029253 120.77309975409077 416.10484867346236 C 119.84586127475986 417.28392831557653 119.08422811980361 418.656850358983 118.31152938702786 419.63941672741146 C 117.38429090769695 420.81849636952563 116.46010538900534 421.4274964738284 115.20242043741688 420.4384420958754 L 115.1238151279426 420.37662619725336 C 114.09355139935087 419.5028089111184 114.56022359965561 418.34318955224984 115.54927797760858 417.08550460066135 C 116.50742440625052 415.86712230381005 117.9177424084925 414.5590691196649 118.93770473575651 413.26208151333935 C 119.6485875699102 412.35812045438513 120.17974654123041 411.44004085697213 120.18012862947631 410.54981624823085 C 120.17211601229609 409.58938103544136 119.35553705648816 408.12030009521663 118.05854945016256 407.1003377679526 C 116.64365387962555 405.9876515927555 114.65562581063776 405.44199199473064 112.7538335800586 406.8088081168585 C 109.60198692682529 409.03722968256415 106.23340254016888 412.43099444017105 103.32805530493204 416.12544398546214 C 99.52637753967531 420.9596705181303 96.57256876778344 426.3334507275448 96.13565825205205 430.12444125790006 C 95.98340728964442 431.53132421125684 96.90377567120495 433.27285286224816 98.2400659322677 434.3237231388232 C 99.10472433648476 435.00369802366583 100.11552778183086 435.4169490307747 101.1602921371273 435.22081784533486 C 102.00281938570534 435.12008138022156 102.89342608269251 434.23023885972617 103.78975661271238 433.0904618723491 C 104.84062688928742 431.7541716112864 105.91133953735397 429.9882230205085 107.02402571255105 428.5733274499715 C 108.44579138085844 426.7654053320631 109.87289879395264 425.5977733560143 111.24849170975253 426.67955158190034 L 111.28779436448966 426.71045953121137 C 112.54547931607812 427.69951390916435 111.79224086654798 429.142646556619 110.49410699548471 430.79335805557884 C 109.78322416133102 431.69731911453306 108.87010422045893 432.69667489381374 108.06649753837215 433.7185439169794 C 106.83017956593093 435.29065010646497 105.78198016174932 436.9470854384575 106.00596633586085 438.5226266768283 C 106.10670280097416 439.36515392540633 106.8362817418817 440.70220836296085 107.97605872925874 441.5985388929807 C 109.15513837137293 442.5257773723116 110.7360213545305 442.9420813400597 112.39054999062142 441.88968645582895 C 115.46646220677385 439.9195940624311 119.45587645204428 436.05992128101116 122.88665882556863 431.6973266051887 C 126.22471735115991 427.45263989357767 129.04344665974224 422.735939236875 129.96343669838473 418.8159751644888 C 130.30953006208463 417.24348688675735 129.65855643065137 415.9682483478249 128.55808209801148 415.10282576711603 C 127.61481838432013 414.36103498365134 126.35408047209238 413.9420601435098 125.19713198561723 413.7955330141349 Z" fill-opacity="1"/></g></g><g><g><path fill="rgb(245,158,11)" stroke="none" paint-order="stroke fill markers" d=" M 89.2231287478852 388.95007483042565 C 90.10719073871132 389.9703367558039 91.09195822420382 391.56493168854286 92.23796450860807 392.88749344366283 C 93.90785938016856 394.8146548582662 95.93801932827024 396.16500688093424 98.39420544492158 394.03670949561206 L 98.4319929236393 394.0039664589148 C 100.70428608872251 391.96885374166396 99.98907539627446 390.0745270366292 98.38466659810851 388.22294057946124 C 97.14043120361247 386.7870163881882 95.36469472249387 385.3485241394692 94.0549732546033 383.8370249907607 C 93.33462644726349 383.005700458971 92.65711156066183 382.0711023750691 91.90402171662475 381.20199036456165 C 90.10315469827522 379.1236790350875 88.12087111293214 377.59952294489216 85.6268975175631 379.76056336691164 L 85.51353508140996 379.8587924770034 C 83.31681687376215 381.82841912085973 84.0043289715334 383.6144278317618 85.41227954951576 385.2392894166235 C 86.59102887061728 386.59963865046115 88.24083764696726 387.8164504688943 89.2231287478852 388.95007483042565 Z" fill-opacity="1"/></g></g><g><g><path fill="rgb(245,158,11)" stroke="none" paint-order="stroke fill markers" d=" M 71.90809349437934 351.4357695154588 C 68.03488841362245 345.12718152745396 61.48203726110504 345.67731039685754 56.54569245953374 348.5273103968575 C 55.073449273100195 349.3773103968575 53.769507356855875 350.41881674780365 52.69546925117922 351.55852817950665 C 51.01030955228579 353.33974596215575 51.957200660961234 355.67980947161686 53.28220066096124 357.9747767916456 C 53.63220066096123 358.5809945742947 54.02550193115046 359.1622123569438 54.37550193115046 359.7684301395929 C 55.418803201339685 361.47548094716177 56.689732415691786 361.37679491924325 57.68566163004389 360.8017949192432 C 58.29187941269299 360.45179491924324 58.7730971953421 359.88528856829714 58.93290481647743 359.56208348754024 C 59.19091751836965 359.0089745962157 58.98421878855888 358.55096189432345 58.73421878855888 358.11794919243124 L 58.55921878855887 357.8148403011067 C 58.284218788558874 357.3385263290252 58.1025200587481 356.92381489732225 58.540436571207984 356.3823085463761 C 58.75024419234331 356.1457060059977 59.046654353857086 355.8591034656192 59.39306451537087 355.65910346561924 C 60.47559627010141 355.03410346561924 62.006333105588844 354.7854174377007 62.69783945653496 355.4831415712959 C 62.84114072672418 355.6313466520528 62.91614072672418 355.76125046262047 63.01614072672418 355.93445554337734 C 64.21614072672418 358.01291651246 61.0922314904511 361.2021469970013 57.454924794556455 363.30214699700133 C 53.9908231794187 365.30214699700133 50.02002283447017 366.32451905283847 48.97002283447017 364.5058657048911 C 48.87002283447017 364.33266062413423 48.81332410465939 364.1344555433774 48.75662537484861 363.9362504626205 C 48.38963807674083 362.3006098165654 51.94261809866181 362.1545517328097 51.148835881310916 359.3796806022133 C 51.01043842168936 358.93996917051027 50.85373969187859 358.5685590089965 50.67873969187858 358.26545011767195 C 49.50373969187858 356.2302904187785 47.21499015449892 356.1660599342372 45.223131725794715 357.31605993423716 C 42.278645352927626 359.0160599342372 39.92303738684377 363.4360272542659 42.823037386843765 368.4589745962157 C 46.74803738684378 375.25727401592354 56.60566348052528 374.5311832521966 64.09678322326067 370.20618325219664 C 71.19819153429306 366.1061832521966 76.15809349437934 358.7969854476265 72.05809349437934 351.6955771365941 Z" fill-opacity="1"/></g></g><g><g><path fill="rgb(245,158,11)" stroke="none" paint-order="stroke fill markers" d=" M 46.32804153417597 314.9095444422132 C 46.61878239403789 315.4438381371102 46.82956641663233 315.8999851483017 46.99310039829105 316.37248555765905 C 47.843477102916346 318.8294876863172 46.68944039906016 320.2341938072381 45.271939170988155 320.7247957522142 C 44.09068814759482 321.13363070636103 42.72773959081502 320.86461168924166 42.306171545626135 319.95231766685873 C 41.36672521981501 318.00233289745154 40.59443318278636 316.8410555793478 38.32643121787115 317.62601869130964 C 38.13743105412822 317.69143228397314 37.90118084944955 317.7731992748025 37.634034002001016 317.91856970473344 C 34.897151934852246 319.1832738403001 36.22733167919135 320.7334744233699 36.45983754452835 323.08686368623825 C 36.581551945936965 324.0500280566807 35.66014513963569 325.0567601448261 34.47889411624236 325.46559509897287 C 32.91964276536315 326.00525723844663 30.795263092925982 325.52358202906197 29.797705804807844 322.64132953198225 C 29.68323201764675 322.3105792454321 29.59965487325551 321.91622551978037 29.516077728864275 321.52187179412863 C 29.497914177136526 321.31651823221983 29.43250058447304 321.1275180684769 29.367086991809554 320.93851790473394 C 28.71295106517471 319.04851626730465 26.99927851655515 318.5305139544645 25.581777288483146 319.02111589944064 C 24.022525937603945 319.56077803891435 22.730359418064317 321.3307513962791 23.344485918010946 323.86952051576657 C 23.64427754568227 325.194331815529 24.00586245889331 326.3919362370882 24.365637218542474 327.4314371376743 C 27.58725665721908 336.73969520201376 32.54120832511462 335.76585595852697 41.093465734482365 332.80589089050426 L 45.109719214019705 331.41585204640523 C 55.03222781052373 327.9816384315723 59.3429044731557 326.06641867649455 56.2848190161378 317.2306610215124 C 55.810570469327544 315.8604098343761 55.112804808880725 314.3029686370588 54.30237551483469 312.5728806741644 C 52.71422372307436 309.2072048302471 50.06466313965848 308.4311064377679 48.12741146129341 309.1015957625686 C 46.284659864799806 309.73937829103755 45.08880358069353 311.6347483730436 45.89012009082121 313.9500003788945 C 45.98824047981644 314.2335006245089 46.16631770607914 314.5951475538289 46.32804153417597 314.9095444422132 Z" fill-opacity="1"/></g></g><g><g><path fill="rgb(245,158,11)" stroke="none" paint-order="stroke fill markers" d=" M 16.74580020232219 272.625832067462 C 13.748192030326337 273.2083655404777 12.47757036751807 275.613676453853 13.403893301500837 283.461728812367 C 13.41812478532816 283.5607109565551 13.439472011069157 283.70918417283724 13.460819236810146 283.85765738911937 C 14.48644343628262 292.04503151037807 16.801164432589907 294.7935887153957 20.30791480935355 294.23887996743144 C 22.775352672142223 293.8336017996542 23.544905236001163 292.5106169730375 23.323359872772766 289.91573399840604 C 23.05264255875192 287.6815200122603 24.254021530233157 286.90261785737647 26.388934250889225 286.29257878061094 C 27.802828115875585 285.93774904883253 29.174346650681564 285.63952613106187 30.362132380938686 285.4687483251339 C 36.10309674384809 284.64332226314883 48.238397240517614 286.1314357855431 46.9303772136098 278.43929150652644 C 45.94192733021367 272.2671389785979 37.61479134109453 275.1313677087654 30.035860690093333 276.524138396034 C 28.45214638308384 276.75184213727124 27.165378508638625 276.9368514270265 26.083690664483264 277.14288882122116 C 25.440306727260655 277.2353934660988 24.697940645849954 277.3421295948038 24.08981629689407 277.32853635357964 C 22.463407538402592 277.2592936622526 21.395312935471352 276.8572067074914 20.983557268383635 275.04738426575267 C 20.43012500562584 272.954846875277 18.661720530162675 272.249335988641 16.74580020232219 272.625832067462 Z" fill-opacity="1"/></g></g><g><g><path fill="rgb(245,158,11)" stroke="none" paint-order="stroke fill markers" d=" M 45.29641340918964 239.9484261501691 C 45.4296604181519 236.10040779852332 42.12152036454781 235.14191450916738 37.726504072142575 234.9325540795429 C 34.43024185283865 234.77553375732458 30.513247367904235 235.03945458824433 27.017211680763708 234.87291788286123 C 25.11936373631599 234.78251224279612 23.02650051561405 234.58270348564795 21.028765837248034 234.48753965400047 C 16.184259242210445 234.25676736225532 11.810637167270123 234.64910643193184 11.608414025019215 238.89429262345965 L 11.60365583343684 238.99417935737793 C 11.52748947880729 242.69474670393745 14.63585606457477 243.64372361012863 18.4315519534702 243.82453489025886 C 21.577984071896676 243.97441792510364 25.150133179699413 243.5939566897273 27.747188261575236 243.71766967086901 C 30.094526508655303 243.82948717305482 33.32419169046177 244.33373196819602 36.370737074969945 244.47885681145843 C 40.91558346825263 244.69535452845645 45.09894845852111 244.0937256077786 45.29403431339845 239.99836951712825 Z" fill-opacity="1"/></g></g><g><g><path fill="rgb(245,158,11)" stroke="none" paint-order="stroke fill markers" d=" M 49.77219783568541 206.03006293559085 C 49.878566972925796 203.89495506790766 48.63447145371325 202.8728365135925 46.8366200523147 202.43668248290007 C 43.38668898476613 201.5997382618416 37.87785527918321 202.88727513674402 35.78846040728759 202.38039342539875 C 35.25396404470964 202.25072601086856 34.900603257706635 202.01065070141627 34.89772567507806 201.5983501805359 C 34.87271099021282 201.48938107692808 34.896286883763764 201.39219992009572 34.908074830539235 201.34360934167955 C 35.5799877967411 198.57394637195745 50.27044679914493 202.70376650105416 51.89402825527026 197.28375882067897 L 51.94118004237214 197.08939650701427 C 53.06103498604192 192.47329155747744 45.51366862707726 188.3785069424374 37.39904203157568 186.4099198309337 C 29.18723427924175 184.41775682587905 20.39637834359543 184.6003819027769 19.42976670800678 188.5848093329034 C 19.382614920904896 188.77917164656813 19.32367518702754 189.022124538649 19.325113978341836 189.22827479908918 C 19.23053278787693 191.31479208835623 20.94730735316147 192.2972304284021 23.13388338188944 192.82768803329827 C 25.903546351611535 193.49960099950016 29.51706988270242 193.45012686229197 31.460693019349502 193.9216447333108 C 32.432504587673044 194.15740366882022 32.968439741565284 194.4932213437906 32.92416553709198 195.09988417833566 L 32.90058964354104 195.19706533516802 C 32.24046462411464 197.91813772647393 18.563213811879073 193.00511317746123 17.313691453679112 198.155714489576 C 17.254751719801753 198.3986673816569 17.244402564340575 198.65340822051326 17.222265462103927 198.95673963778577 C 17.178874816422635 203.16513805664627 25.468326589719716 207.59430155534235 33.68013434205365 209.58646456039702 C 41.16308341814492 211.4018083638196 48.619856634317806 211.20424014125658 49.668983897334755 206.8796786622168 C 49.727923631212114 206.6367257701359 49.75006073344876 206.3333943528634 49.77219783568541 206.03006293559085 Z" fill-opacity="1"/></g></g><g><g><path fill="rgb(245,158,11)" stroke="none" paint-order="stroke fill markers" d=" M 41.54163202792758 142.9273199064297 C 38.70494219014601 141.7967489160771 36.33561796897463 143.13327528505403 32.87191296718882 150.23628504575436 C 32.83037146588863 150.3272482452898 32.76805921393835 150.463693044593 32.70574696198807 150.60013784389616 C 29.142128305419327 158.04228955362063 29.603413306937163 161.60595566415552 32.853377641095804 163.0351973605445 C 35.14822838013219 164.02825329328147 36.510876791321245 163.33133916120784 37.72740062442932 161.02860822523638 C 38.7075660034513 159.0027069863388 40.1393366052133 158.99696730602855 42.265151498893815 159.63799073602632 C 43.646430144108145 160.1038977055759 44.961456438904655 160.5945155242431 46.05301483333008 161.09301353984534 C 51.32888040638629 163.50242061525628 60.73320990996357 171.315140153813 63.79152061230738 164.1369275874474 C 66.29690124403372 158.41018611518146 57.743149712764016 156.3177390450501 50.61435884463366 153.39193304354194 C 49.15894765206643 152.7272690227389 47.97642605810555 152.18722950583646 46.95506011256549 151.7757545913021 C 46.363799315585055 151.50573483285086 45.68157531906917 151.19417357309948 45.177337623156646 150.85396136576287 C 43.84655093448998 149.9164077463535 43.16539719628649 149.00069513590662 43.79747017103681 147.25556369255048 C 44.46320445015223 145.1960011492878 43.35695592016907 143.6464159822479 41.54163202792758 142.9273199064297 Z" fill-opacity="1"/></g></g><g><g><path fill="rgb(245,158,11)" stroke="none" paint-order="stroke fill markers" d=" M 55.54344335223023 111.65087612603864 C 52.086553799050954 116.67779512450281 57.76831959320205 126.80054363764955 65.34387594727018 132.19507289666169 C 71.29028039723762 136.42948833653145 78.38320050523552 137.67467279738818 83.0236557818051 131.1580651809855 L 83.28468139111214 130.79150600256284 C 87.5882044044003 124.40325978986101 83.9929026471842 118.16015917601867 78.08722699481926 113.95474658162748 C 70.55239943835366 108.5892201680939 59.19780188252878 106.51904762812153 55.572446197708786 111.61014732843613 Z M 70.11200287214461 121.53404735367158 C 69.27092035326638 122.71518248414458 67.47517452651299 122.90959679868386 66.13112420562993 121.95250289789139 C 64.78707388474689 120.9954089970989 64.38346464096438 119.23484102671739 65.22454715984261 118.0537058962444 C 66.06562967872084 116.87257076577141 67.86137550547423 116.67815645123213 69.20542582635728 117.63525035202461 C 70.54947614724034 118.59234425281709 70.95308539102285 120.3529122231986 70.11200287214461 121.53404735367158 Z" fill-opacity="1"/></g></g><g><g><path fill="rgb(245,158,11)" stroke="none" paint-order="stroke fill markers" d=" M 110.48067624375155 88.93165604750534 C 109.29659649229392 86.67545234611045 106.69112376197337 83.21835647651758 103.68928006202619 80.07011341076054 C 98.68620722878086 74.82304163449876 92.46456579007497 70.2542696104011 89.50062173650647 72.94221225251903 L 89.39206163079072 73.04572410424134 C 86.89517919932823 75.42649669385463 89.04368681552967 78.766618701076 92.18354631777328 82.05960857445406 C 94.56431890738656 84.55649100591656 97.47611276626061 87.03064874612298 99.40833399841053 89.05710405281718 C 101.0990275765417 90.8302524461746 102.05504168462977 92.26762401439785 101.18656083890369 93.09571882817639 L 101.15037413699844 93.1302227787505 C 99.99408242736146 94.16365854464252 98.01894348798172 92.45446979843986 95.67267484894253 89.99377406888262 C 94.43053262827473 88.69105280029349 93.12274800912101 87.17457682293514 91.74258998615679 85.727108746725 C 87.98165937357928 81.78275823905237 83.92618689176629 78.32651129341066 81.031250739346 81.08682733933911 L 80.99506403744076 81.12133128991321 C 78.13631458692574 83.84714338526756 81.39821130210544 89.44178634255266 86.02174067903559 94.29080439785663 C 89.47213573644615 97.90947458838198 93.63953382663718 101.12082837734266 96.68344630986307 102.50180513111573 C 101.61581339405788 104.77650400058212 105.95486721659715 103.74810139211239 108.66886985949115 101.16030509905447 C 111.70855281953246 98.2619732508296 112.74364114361333 93.40619399705875 110.48067624375155 88.93165604750534 Z" fill-opacity="1"/></g></g><g><g><path fill="rgb(245,158,11)" stroke="none" paint-order="stroke fill markers" d=" M 137.2271452315312 61.43569040677434 C 136.98979980745065 61.52878793449668 136.8215491008844 61.6369160979878 136.65329839431817 61.745044261478924 C 134.00334976589997 63.448062836464054 137.46076831961634 66.51584003574331 135.91342145831788 67.8074350538623 L 135.74517075175166 67.91556321735342 C 133.81028762623993 69.1590370975013 130.45202506157543 65.96810109896214 128.15430158738914 62.39277358442963 C 126.01877035843953 59.069822129746456 124.7484954725291 55.42854464591949 126.22068915498367 54.482423215372194 C 126.3889398615499 54.37429505188108 126.58422260898892 54.30822956503152 126.80653739730072 54.28422675482352 C 127.29322965056588 54.20918909353473 127.59361133083122 54.49162642492164 127.83689969868624 54.87019051469567 C 128.08018806654127 55.24875460446971 128.26638312198594 55.723445452630855 128.53670353071374 56.14407221904645 C 128.96921618467823 56.81707504531139 129.54294750433615 57.33988703144365 130.71464398897027 56.94349411034629 C 131.10520948384828 56.811363136647174 131.42668026121197 56.66420152717927 131.7211189977029 56.47497724106981 C 133.5718767699315 55.2855674426675 133.50009937441772 52.95429139605842 132.20256141252426 50.935282917263585 C 130.36438263317524 48.07502090563757 126.12874680281246 45.92341938292317 121.88041646201499 48.653655511073936 L 121.37566434231628 48.9780400015473 C 115.7722406569946 53.114057772637736 117.29408297986859 62.41830389708594 121.83546584649562 69.48483357286786 C 126.26872054963152 76.38311254208354 133.580297130827 81.19386590276561 140.01588665698554 77.05796364923029 L 140.43651342340112 76.78764324050249 C 145.70040646492555 73.04813390806453 145.35865521334932 67.79973357252932 143.19609194352694 64.43471944120459 C 141.65526561377848 62.03714687263573 139.18300193658615 60.5947834266085 137.2271452315312 61.43569040677434 Z" fill-opacity="1"/></g></g><g><g><path fill="rgb(245,158,11)" stroke="none" paint-order="stroke fill markers" d=" M 170.55034139053782 60.01977932732074 C 171.710486024354 58.478168342465125 171.43142390015487 56.704859477422865 170.76243147996627 55.033797197993934 C 170.20493779647578 53.641245298469826 169.39676900694826 52.29519061621 168.93219093737284 51.13473069993991 C 168.37469725388235 49.7421788004158 168.30938045199463 48.63731061126781 169.79476914482035 48.04265068221129 L 169.88760593812194 48.005484436645254 C 171.15948577047666 47.55015851815461 171.93040949382467 48.534118178292786 172.52506942288122 50.0195068711185 C 173.10114622915472 51.45847716729341 173.5287945150045 53.33387497672205 174.14203756684407 54.865682066198566 C 174.56944939085344 55.93330518916705 175.0989501592492 56.85234215048488 175.86971624137027 57.29778535298295 C 176.70548384292516 57.771063829348805 178.38603473527928 57.798426179535745 179.91784182475578 57.185183127696206 C 181.58890410418473 56.51619070750761 183.055473212387 55.06733769534013 182.82267184361172 52.736929249874755 C 182.46872548398616 48.893139196488924 181.21393118275844 44.2789771640494 179.4671176411549 39.91564787887386 C 177.1813935388439 34.20618509082502 174.00446774908283 28.961221551738106 170.93982890215463 26.687350680756524 C 169.7975580056002 25.852056002882485 167.829165761643 25.778354076658218 166.25094027551566 26.410180251280778 C 165.22973554919798 26.819008952507133 164.3664479562292 27.487764910855304 164.01392036764622 28.49062297623039 C 163.67989708123278 29.27064120943623 164.00521996085578 30.486850494055375 164.54413052156326 31.83298399692868 C 165.1759566961858 33.411209483056 166.16995671354348 35.22144813182386 166.8389491337321 36.8925104112528 C 167.69377278175085 39.02775665718976 167.991418028733 40.84748391888282 166.36677414595488 41.497893216288396 L 166.32035574930407 41.51647633907142 C 164.83496705647835 42.111136268127936 163.961796747517 40.73724631200032 163.18130559063033 38.78767365266657 C 162.75389376662093 37.720050529698085 162.3449862447811 36.42958757456036 161.8618250524227 35.222709261639466 C 161.11850014110203 33.36597339560731 160.20808476596116 31.629988417358042 158.73163294176632 31.036195515049737 C 157.9516147085605 30.702172228636293 156.4289021289418 30.66547890675111 155.08276862606849 31.204389467458586 C 153.69021672654438 31.761883150949078 152.53924542319947 32.92281599090002 152.62338180971062 34.88187726315896 C 152.7915757621195 38.530741578856805 154.13944331848924 43.91551205219045 156.20216994740406 49.06795408042965 C 158.20914720796983 54.08114091871644 160.88456514442987 58.88058243469181 163.8193585937174 61.63729921557791 C 165.00812670753612 62.723268999488994 166.43800249385322 62.79712856694021 167.7377176000757 62.27680112901575 C 168.851759119695 61.830806182223355 169.84497093091792 60.94846254279071 170.55034139053782 60.01977932732074 Z" fill-opacity="1"/></g></g><g><g><path fill="rgb(245,158,11)" stroke="none" paint-order="stroke fill markers" d=" M 210.05414096515997 41.288107739475734 C 208.72853722385534 41.54359691936229 206.8551937606112 41.59913311225023 205.13681854040146 41.93032278988095 C 202.63290036238158 42.412913462999995 200.44838123264847 43.49590754046772 201.0634477768198 46.68717580657152 L 201.07291033903783 46.736272241434655 C 201.6992230692002 49.72169220586789 203.69736346505164 50.049464929667 206.10308877334526 49.585799380984 C 207.9687532981444 49.22622201669922 210.10239236924133 48.40763523798321 212.06624976376676 48.02913274926239 C 213.14637133075573 47.82095638046594 214.29451445704387 47.701510319177736 215.423732458896 47.483871388163266 C 218.12403637636845 46.963430466172134 220.43513606248186 46.00880056885777 219.81060695609253 42.768435867890844 L 219.78221926943846 42.62114656330144 C 219.1748316637121 39.73391946859447 217.28434669980496 39.43631805522245 215.17320000069014 39.84320823059734 C 213.40572834561726 40.18386047044608 211.52703401105404 41.00423087293511 210.05414096515997 41.288107739475734 Z" fill-opacity="1"/></g></g></g></g></svg>