<svg version="1.1" xmlns="http://www.w3.org/2000/svg" xmlns:xlink="http://www.w3.org/1999/xlink" width="500" height="500" viewBox="0 0 500 500"><defs/><g><g><g><g><path fill="rgb(245,158,11)" stroke="none" paint-order="stroke fill markers" d=" M 253.564453125 36.1328125 L 256.396484375 36.1328125 L 256.396484375 26.7578125 L 262.353515625 26.7578125 L 262.353515625 42.08984375 L 253.564453125 42.08984375 Q 246.728515625 42.08984375 241.89453125 37.255859375 Q 237.060546875 32.421875 237.060546875 25.5859375 L 237.060546875 25.5859375 Q 237.060546875 18.75 241.89453125 13.916015625 Q 246.728515625 9.08203125 253.564453125 9.08203125 L 253.564453125 9.08203125 Q 260.400390625 9.08203125 265.234375 13.916015625 L 265.234375 13.916015625 L 261.03515625 18.115234375 Q 257.958984375 15.0390625 253.564453125 15.0390625 L 253.564453125 15.0390625 Q 249.21875 15.0390625 246.1181640625 18.115234375 Q 243.017578125 21.19140625 243.017578125 25.5859375 L 243.017578125 25.5859375 Q 243.017578125 29.98046875 246.1181640625 33.056640625 Q 249.21875 36.1328125 253.564453125 36.1328125 L 253.564453125 36.1328125 Z M 253.564453125 44.04296875 L 264.306640625 44.04296875 L 264.306640625 26.7578125 L 270.263671875 26.7578125 L 270.263671875 50 L 253.564453125 50 Q 243.45703125 50 236.3037109375 42.8466796875 Q 229.150390625 35.693359375 229.150390625 25.5859375 L 229.150390625 25.5859375 Q 229.150390625 15.478515625 236.3037109375 8.3251953125 Q 243.45703125 1.171875 253.564453125 1.171875 L 253.564453125 1.171875 Q 263.671875 1.171875 270.849609375 8.30078125 L 270.849609375 8.30078125 L 266.650390625 12.5 Q 261.23046875 7.12890625 253.564453125 7.12890625 L 253.564453125 7.12890625 Q 245.947265625 7.12890625 240.52734375 12.5244140625 Q 235.107421875 17.919921875 235.107421875 25.5859375 L 235.107421875 25.5859375 Q 235.107421875 33.251953125 240.52734375 38.6474609375 Q 245.947265625 44.04296875 253.564453125 44.04296875 L 253.564453125 44.04296875 Z" fill-opacity="1"/></g></g><g><g><path fill="rgb(245,158,11)" stroke="none" paint-order="stroke fill markers" d=" M 297.1178890357724 21.751951872785554 L 296.80317895689785 23.23254638561505 L 310.1285295723633 26.064937095485888 L 308.8899931329216 31.891792920169692 L 289.64226446613816 27.8005618948007 L 291.59143656755464 18.63042813792127 L 291.63919768087175 18.64058007594948 Q 292.30738322146595 16.436415502159548 294.34449195657936 15.07233325373204 L 294.34449195657936 15.07233325373204 Q 296.6508620723628 13.615727355494336 299.27772330480224 14.174083947045936 L 299.27772330480224 14.174083947045936 L 315.08665181275586 17.534375434383747 L 313.85826731134233 23.313470145750472 L 299.43441108958405 20.247584861230777 Q 298.67023327651077 20.085153852779406 297.9752766603673 20.53646395624584 Q 297.2803200442238 20.987774059712265 297.1178890357724 21.751951872785554 L 297.1178890357724 21.751951872785554 Z M 293.83881305266027 37.17879147420251 L 293.53425491181395 38.61162487371492 Q 293.37182390336255 39.375802686788205 293.82313400682904 40.070759302931705 Q 294.27444411029546 40.7657159190752 295.03862192336874 40.92814692752657 L 295.03862192336874 40.92814692752657 L 309.462478145127 43.994032212046264 L 308.22394170568526 49.82088803673007 L 292.4150131977317 46.46059654939226 Q 289.78815196529223 45.90223995784066 288.27363301570927 43.63347901734609 L 288.27363301570927 43.63347901734609 Q 286.96746381862704 41.55876110694381 287.2535604526846 39.2733810289282 L 287.2535604526846 39.2733810289282 L 287.20579933936756 39.26322909089998 L 289.15497144078404 30.093095334020557 L 308.4027001075674 34.18432635938955 L 307.1641636681257 40.011182184073355 L 293.83881305266027 37.17879147420251 Z M 279.46849898200054 37.618615130329815 L 283.8541362101876 16.985814177351102 Q 285.2502627119891 11.591806949344999 290.0092848603312 8.460093462340623 L 290.0092848603312 8.460093462340623 Q 295.0954814406886 5.1982471502371865 301.01785949200655 6.457087465735341 L 301.01785949200655 6.457087465735341 L 316.731265773326 9.797075077016729 L 315.49272933388426 15.623930901700533 L 299.77932305256485 12.283943290419145 Q 296.29276178041795 11.54285181435975 293.2812831104628 13.49852892938096 Q 290.2698044405077 15.45420604440217 289.5287129644483 18.940767316549042 L 289.5287129644483 18.940767316549042 L 285.4476338771075 38.14073487001534 Q 284.7065424010481 41.62729614216221 286.66221951606934 44.638774812117354 Q 288.6178966310905 47.6502534820725 292.1044579032374 48.391344958131896 L 292.1044579032374 48.391344958131896 L 307.8178641845568 51.73133256941328 L 306.5793277451151 57.55818839409709 L 290.86592146379564 54.2182007828157 Q 284.9435434124777 52.959360467317545 281.623784049029 47.91077306224899 L 281.623784049029 47.91077306224899 Q 278.5499836133699 43.11414173861803 279.46849898200054 37.618615130329815 L 279.46849898200054 37.618615130329815 Z" fill-opacity="1"/></g></g><g><g><path fill="rgb(245,158,11)" stroke="none" paint-order="stroke fill markers" d=" M 362.0915665259564 42.65616554219767 L 351.92123623579465 38.12804275795537 L 337.68148169061163 70.11105511780619 L 332.2394628511391 67.68811222448355 L 348.8823001019946 30.307687736959153 L 364.4946492316289 37.2587534145241 L 362.0915665259564 42.65616554219767 Z M 347.09803163003636 29.513280230951736 L 330.4551943791809 66.89370471847613 L 325.0577822515073 64.49062201280367 L 339.29753679669034 32.50760965295285 L 329.0825997947296 27.959626681060364 L 331.4856825004021 22.562214553386788 L 347.09803163003636 29.513280230951736 Z M 334.70303289973214 15.335927241956064 L 367.7119996309589 30.032466103093377 L 365.2890567376363 35.4744849425659 L 332.2800900064095 20.77794608142859 L 334.70303289973214 15.335927241956064 Z" fill-opacity="1"/></g></g><g><g><path fill="rgb(245,158,11)" stroke="none" paint-order="stroke fill markers" d=" M 397.04755788915736 49.26782723198816 L 401.86689740643 52.76928234818355 L 373.1664456343366 92.27206527664778 L 368.3471061170639 88.77061016045238 L 397.04755788915736 49.26782723198816 Z M 390.64810705474616 44.618354044909026 L 395.4674465720188 48.11980916110442 L 366.7669947999254 87.62259208956866 L 361.9476552826527 84.12113697337325 L 390.64810705474616 44.618354044909026 Z" fill-opacity="1"/></g></g><g><g><path fill="rgb(245,158,11)" stroke="none" paint-order="stroke fill markers" d=" M 419.12350963343783 89.60597463423194 L 419.12350963343783 89.60597463423194 L 410.13973057912744 117.20930839602872 Q 409.90755646636677 117.68117779864093 409.8279023914205 118.54135532737111 L 409.8279023914205 118.54135532737111 Q 409.80275117562275 119.68098187692469 410.5542162120609 120.5155683508495 L 410.5542162120609 120.5155683508495 Q 411.30568124849907 121.35015482477431 412.4435008102812 121.40978542123212 Q 413.5813203720633 121.46941601768992 414.45219321441965 120.68527858836313 L 414.45219321441965 120.68527858836313 L 444.24330169669213 93.86124402680929 L 448.22933362910334 98.28818097545393 L 418.43822514683086 125.11221553700777 Q 415.71674751446733 127.56264500365398 412.1308919258206 127.37471827542332 Q 408.5450363371739 127.18679154719266 406.12727926341626 124.50160028326067 L 406.12727926341626 124.50160028326067 Q 403.7095221896587 121.81640901932867 403.89744891788934 118.23055343068194 L 403.89744891788934 118.23055343068194 Q 403.9045302559726 117.435720687729 404.0822015095847 116.68440226429337 L 404.0822015095847 116.68440226429337 L 404.0132427482646 116.68078828875048 L 410.23334936771704 97.61071089194289 L 394.5939245737348 111.69251222693644 L 390.57522024843496 107.22928890986029 L 420.3663287307075 80.40525434830646 Q 420.6203333097281 80.17654759808615 420.9996064969888 80.19642446357207 Q 421.3788796842495 80.21630132905801 421.6075864344698 80.47030590807861 L 421.6075864344698 80.47030590807861 Q 421.86896557757876 80.76059685553071 421.8508956998643 81.10539066213136 L 421.8508956998643 81.10539066213136 Q 421.80738138034695 81.27598057766023 419.12350963343783 89.60597463423194 Z M 414.42078898903327 110.06938993360862 L 414.42078898903327 110.06938993360862 L 423.4045680433437 82.46605617181184 Q 423.6367421561044 81.99418676919963 423.7163962310506 81.13400924046945 L 423.7163962310506 81.13400924046945 Q 423.7415474468484 79.99438269091587 422.9900824104102 79.15979621699107 L 422.9900824104102 79.15979621699107 Q 422.23861737397203 78.32520974306625 421.1007978121899 78.26557914660845 Q 419.9629782504078 78.20594855015065 419.09210540805145 78.99008597947744 L 419.09210540805145 78.99008597947744 L 389.300996925779 105.81412054103127 L 385.31496499336777 101.38718359238663 L 415.1060734756403 74.5631490308328 Q 417.8275511080038 72.11271956418659 421.41340669665055 72.30064629241724 Q 424.9992622852973 72.4885730206479 427.41701935905485 75.1737642845799 L 427.41701935905485 75.1737642845799 Q 429.8347764328124 77.85895554851189 429.64684970458177 81.44481113715862 L 429.64684970458177 81.44481113715862 Q 429.6397683664985 82.23964388011156 429.4620971128864 82.99096230354719 L 429.4620971128864 82.99096230354719 L 429.5310558742065 82.9945762790901 L 423.31094925475406 102.06465367589767 L 438.95037404873636 87.98285234090412 L 442.96907837403614 92.44607565798027 L 413.1779698917636 119.2701102195341 Q 412.92396531274306 119.49881696975443 412.54469212548236 119.47894010426849 Q 412.1654189382216 119.45906323878255 411.9367121880013 119.20505865976196 L 411.9367121880013 119.20505865976196 Q 411.6753330448924 118.91476771230985 411.72968929103837 118.53730151282059 L 411.72968929103837 118.53730151282059 Q 411.73691724212415 118.39938399018033 414.42078898903327 110.06938993360862 Z" fill-opacity="1"/></g></g><g><g><path fill="rgb(245,158,11)" stroke="none" paint-order="stroke fill markers" d=" M 462.5576302936769 148.14108395508993 L 456.9912240436769 138.49978551452097 L 426.6718776318877 156.004668327021 L 423.6933620068877 150.84572793338322 L 459.12936241564546 130.38674355838322 L 467.67428429064546 145.18698239258993 L 462.5576302936769 148.14108395508993 Z M 458.15279991564546 128.69528769161673 L 422.7167995068877 149.15427206661673 L 419.7626979443877 144.03761806964812 L 450.0820443561769 126.53273525714812 L 444.4912240436769 116.84915041991002 L 449.60787804064546 113.89504885741002 L 458.15279991564546 128.69528769161673 Z M 456.45827430104976 109.93997073241002 L 474.52468055104976 141.23190426758993 L 469.36574015741195 144.21041989258993 L 451.29933390741195 112.91848635741002 L 456.45827430104976 109.93997073241002 Z" fill-opacity="1"/></g></g><g><g><path fill="rgb(245,158,11)" stroke="none" paint-order="stroke fill markers" d=" M 447.7267645452918 185.72900926236946 L 447.7267645452918 185.72900926236946 Q 445.6294324057353 179.27408466446778 448.73304142283007 173.18290900253712 Q 451.8366504399248 167.09173334060645 458.3380133442862 164.97931248062145 L 458.3380133442862 164.97931248062145 Q 464.7929379421879 162.88198034106492 470.9073327573484 165.97804499794543 Q 477.0217275725089 169.07410965482595 479.11905971206545 175.52903425272763 L 479.11905971206545 175.52903425272763 Q 481.216391851622 181.9839588506293 478.08956368129736 188.0826788727742 Q 474.9627355109728 194.18139889491908 468.50781091307107 196.27873103447564 L 468.50781091307107 196.27873103447564 Q 462.0064480087097 198.39115189446062 455.91527234677903 195.28754287736587 Q 449.82409668484837 192.18393386027114 447.7267645452918 185.72900926236946 Z M 473.5000246304388 177.3547694245718 L 473.5000246304388 177.3547694245718 Q 472.1571285123055 173.22176014965635 468.25016230490553 171.23106143667133 Q 464.34319609750554 169.2403627236863 460.2101868225901 170.58325884181963 L 460.2101868225901 170.58325884181963 Q 456.0307392412149 171.9412436803814 454.0400405282299 175.84820988778137 Q 452.0493418152449 179.75517609518135 453.39223793337817 183.8881853700968 L 453.39223793337817 183.8881853700968 Q 454.7351340515115 188.0211946450123 458.64210025891146 190.01189335799728 Q 462.54906646631144 192.0025920709823 466.72851404768664 190.64460723242053 L 466.72851404768664 190.64460723242053 Q 470.8615233226021 189.3017111142872 472.85222203558715 185.39474490688724 Q 474.8429207485721 181.48777869948725 473.5000246304388 177.3547694245718 Z M 480.9765919704544 174.92548543558905 L 480.9765919704544 174.92548543558905 Q 478.622751583614 167.68110962787208 471.81647075225493 164.19376121818797 Q 465.01018992089587 160.70641280850387 457.76581411317886 163.0602531953443 L 457.76581411317886 163.0602531953443 Q 450.4285616925425 165.44427102304164 446.97197679630244 172.26622664741635 Q 443.51539190006247 179.08818227179103 445.86923228690284 186.33255807950803 L 445.86923228690284 186.33255807950803 Q 448.2230726737433 193.576933887225 455.02935350510234 197.0642822969091 Q 461.8356343364614 200.55163070659322 469.17288675709784 198.16761287889585 L 469.17288675709784 198.16761287889585 Q 476.41726256481485 195.81377249205545 479.8738474610548 188.99181686768074 Q 483.33043235729485 182.16986124330606 480.9765919704544 174.92548543558905 Z M 440.2037588988165 188.17338197178066 L 440.2037588988165 188.17338197178066 Q 437.0803937701244 178.56065253461773 441.673108123704 169.5469430954981 Q 446.2658224772836 160.53323365637848 455.8785519144465 157.4098685276864 L 455.8785519144465 157.4098685276864 Q 465.44484304514975 154.30159211942276 474.4817716374992 158.88676211278812 Q 483.5187002298487 163.4719321061535 486.6420653585408 173.08466154331643 L 486.6420653585408 173.08466154331643 Q 489.7654304872329 182.69739098047935 485.15704134063765 191.74186393304308 Q 480.5486521940424 200.78633688560677 470.9823610633392 203.8946132938704 L 470.9823610633392 203.8946132938704 Q 461.3696316261763 207.0179784225625 452.34837782684247 202.40204491575304 Q 443.3271240275086 197.78611140894358 440.2037588988165 188.17338197178066 Z" fill-opacity="1"/></g></g><g><g><path fill="rgb(245,158,11)" stroke="none" paint-order="stroke fill markers" d=" M 467.53306770923695 231.62873645604418 L 467.53306770923695 231.62873645604418 L 497.9320279875836 228.4336769831169 L 498.55470730978345 234.35807499263493 L 468.1557470314368 237.55313446556224 Q 463.88241076227627 238.00228020616544 460.5258232795429 235.26195547696753 Q 457.1692357968096 232.52163074776965 456.72009005620635 228.2482944786091 L 456.72009005620635 228.2482944786091 Q 456.2709443156032 223.97495820944854 458.98698872508993 220.6209226911504 Q 461.7030331345767 217.2668871728523 465.97636940373724 216.8177414322491 L 465.97636940373724 216.8177414322491 L 496.3753296820839 213.6226819593218 L 496.99800900428374 219.54707996883982 L 466.5990487259371 222.74213944176714 Q 464.7537444278905 222.9360887388458 463.60214159826813 224.3581997986042 Q 462.45053876864574 225.7803108583626 462.6444880657244 227.6256151564092 L 462.6444880657244 227.6256151564092 Q 462.83843736280306 229.4709194544558 464.2631003869967 230.64680260378933 Q 465.68776341119036 231.82268575312284 467.53306770923695 231.62873645604418 Z M 468.3599041862565 239.49556004245338 L 468.3599041862565 239.49556004245338 L 498.7588644646031 236.3005005695261 L 499.3764398579325 242.17633793962185 L 468.97747957958586 245.37139741254913 Q 461.45058046913266 246.16250638747522 455.57431024107433 241.40399658205445 Q 449.69804001301605 236.64548677663365 448.9018271092194 229.0700270267581 L 448.9018271092194 229.0700270267581 Q 448.11071813429334 221.54312791630488 452.86922793971416 215.66685768824658 Q 457.62773774513494 209.79058746018828 465.1546368555882 208.9994784852622 L 465.1546368555882 208.9994784852622 L 495.55359713393483 205.8044190123349 L 496.1711725272642 211.68025638243063 L 465.7722122489176 214.87531585535794 Q 460.7219057490006 215.406124457889 457.48438081289237 219.40413479570037 Q 454.24685587678414 223.4021451335117 454.7776644793152 228.45245163342872 L 454.7776644793152 228.45245163342872 Q 455.31357701071676 233.551318772768 459.3115873485281 236.78884370887624 Q 463.3095976863395 240.02636864498444 468.3599041862565 239.49556004245338 Z" fill-opacity="1"/></g></g><g><g><path fill="rgb(245,158,11)" stroke="none" paint-order="stroke fill markers" d=" M 464.60143302845455 283.65146048102605 L 459.98628015527635 287.3887375884798 Q 455.6840658106493 282.0759453274956 456.39861585251805 275.27745580837654 L 456.39861585251805 275.27745580837654 Q 457.1131658943868 268.47896628925747 462.425958155371 264.17675194463044 Q 467.73875041635523 259.87453760000346 474.53723993547425 260.58908764187214 L 474.53723993547425 260.58908764187214 Q 481.3357294545933 261.3036376837409 485.63794379922035 266.6164299447251 Q 489.9401581438474 271.9292222057093 489.22560810197865 278.7277117248284 L 489.22560810197865 278.7277117248284 Q 488.5110580601099 285.5262012439474 483.1982657991257 289.82841558857444 L 483.1982657991257 289.82841558857444 L 479.4609886916719 285.21326271539624 Q 482.8418564941164 282.4754899506336 483.3012100924606 278.10503240262847 L 483.3012100924606 278.10503240262847 Q 483.7554597619343 273.78313549404567 481.0202389616069 270.37798737189 Q 478.2850181612795 266.97283924973436 473.9145606132744 266.5134856513902 L 473.9145606132744 266.5134856513902 Q 469.54410306526927 266.05413205304603 466.16068329838953 268.8161851375198 Q 462.7772635315098 271.5782382219936 462.3230138620361 275.9001351305764 L 462.3230138620361 275.9001351305764 Q 461.8636602636919 280.2705926785815 464.60143302845455 283.65146048102605 L 464.60143302845455 283.65146048102605 Z M 488.1957875125813 295.999840942243 L 484.4585104051276 291.3846880690648 Q 490.36671684620273 286.5558892689458 491.1680336788698 278.931868879648 L 491.1680336788698 278.931868879648 Q 491.96424658266636 271.3564091297725 487.16483203112904 265.4021940137103 Q 482.3654174795917 259.44797889764806 474.7413970902939 258.646662064981 L 474.7413970902939 258.646662064981 Q 467.1173767009961 257.84534523231395 461.1848899402098 262.67159206799766 Q 455.2524031794235 267.4978389036814 454.4561902756269 275.0732986535569 L 454.4561902756269 275.0732986535569 Q 453.65487344295985 282.6973190428547 458.4785683142083 288.65408612335216 L 458.4785683142083 288.65408612335216 L 453.8634154410301 292.39136323080595 Q 447.47527898991723 284.50267169176874 448.5317922661089 274.450619331357 L 448.5317922661089 274.450619331357 Q 449.5883055423005 264.39856697094524 457.45016479719123 258.03215887510834 Q 465.31202405208205 251.66575077927135 475.3640764124938 252.72226405546297 L 475.3640764124938 252.72226405546297 Q 485.41612877290555 253.7787773316546 491.7825368687425 261.6406365865454 Q 498.14894496457947 269.50249584143614 497.0924316883878 279.5545482018479 L 497.0924316883878 279.5545482018479 Q 496.0359184121962 289.60660056225964 488.1957875125813 295.999840942243 L 488.1957875125813 295.999840942243 Z" fill-opacity="1"/></g></g><g><g><path fill="rgb(245,158,11)" stroke="none" paint-order="stroke fill markers" d=" M 492.30033551921485 309.5009735342869 L 490.45951162694223 315.16644692237327 L 444.02120516721794 300.07772649390904 L 445.86202905949057 294.4122531058227 L 469.08118228935274 301.9566133200548 L 492.30033551921485 309.5009735342869 Z M 482.8246190901393 338.6642299909938 L 480.9988839182952 344.28326507262045 L 434.5605774585709 329.1945446441562 L 436.38631263041503 323.5755095625296 L 482.8246190901393 338.6642299909938 Z M 485.2689917995506 331.14122434451843 L 483.4281679072779 336.8066977326048 L 461.3235340324492 329.6244668086558 L 467.75132893497494 309.8417482568133 L 489.85596280980366 317.02397918076224 L 488.01513891753103 322.68945256884865 L 471.5295401243289 317.33295681674383 L 468.78339300634843 325.78472859241367 L 485.2689917995506 331.14122434451843 Z M 436.9898614475536 321.7179773041406 L 438.83068533982623 316.0525039160542 L 455.22340752010894 321.3788222273021 L 457.96955463808945 312.9270504516323 L 441.57683245780674 307.6007321403844 L 443.41765635007937 301.93525875229807 L 465.52229022490815 309.11748967624703 L 459.0944953223824 328.9002082280896 L 436.9898614475536 321.7179773041406 Z" fill-opacity="1"/></g></g><g><g><path fill="rgb(245,158,11)" stroke="none" paint-order="stroke fill markers" d=" M 433.4321908484298 360.0205007068488 L 432.0161752234298 362.47311171366016 L 440.1351633839089 367.16061171366016 L 437.1566477589089 372.3195521072979 L 423.878719204792 364.65353648229797 L 428.273250454792 357.0419850818488 Q 431.691219204792 351.1218895481661 438.2945646625391 349.352528465419 Q 444.8979101202861 347.583167382672 450.8180056539688 351.001136132672 L 450.8180056539688 351.001136132672 Q 456.73810118765147 354.419104882672 458.5074622703985 361.022450340419 Q 460.2768233531456 367.62579579816605 456.8588546031456 373.54589133184874 L 456.8588546031456 373.54589133184874 Q 453.4408858531456 379.4659868655315 446.8375403953985 381.2353479482785 L 446.8375403953985 381.2353479482785 L 445.30051965685055 375.49910845973056 Q 449.50264858450777 374.37315140707335 451.69991420950777 370.5673757068488 L 451.69991420950777 370.5673757068488 Q 453.87276577200777 366.80388640329335 452.75901575060055 362.58061427730155 Q 451.64526572919334 358.35734215130975 447.8394900289688 356.16007652630975 L 447.8394900289688 356.16007652630975 Q 444.03371432874417 353.96281090130975 439.81937836983695 355.10991115230155 Q 435.6050424109298 356.25701140329335 433.4321908484298 360.0205007068488 L 433.4321908484298 360.0205007068488 Z M 426.5817945880255 356.0654225818488 L 421.2107008380255 365.3684298490644 L 436.1800852589089 374.0110079740644 L 433.2015696339089 379.1699483677022 L 413.07324481938775 367.5488546177022 L 421.42285419438775 353.0869069568488 Q 426.47656513188775 344.3336228463322 436.24818240017 341.71532589055 Q 446.0197996684522 339.09702893476776 454.7730837789688 344.15073987226776 L 454.7730837789688 344.15073987226776 Q 463.5263678894853 349.20445080976776 466.1446648452676 358.97606807805 Q 468.7629618010498 368.7476853463322 463.7092508635498 377.50096945684874 L 463.7092508635498 377.50096945684874 Q 458.6555399260498 386.2542535673653 448.89285882485217 388.9059007527321 L 448.89285882485217 388.9059007527321 L 447.35583808630423 383.1696612641842 Q 454.717302657412 381.1614181089072 458.550310469912 374.52245383184874 L 458.550310469912 374.52245383184874 Q 462.358904219912 367.92577595145946 460.39621832546965 360.5342320149325 Q 458.43353243102723 353.1426880784055 451.7945681539688 349.3096802659055 L 451.7945681539688 349.3096802659055 Q 445.15560387691033 345.4766724534055 437.7729961074679 347.4727085774325 Q 430.3903883380255 349.4687447014595 426.5817945880255 356.0654225818488 L 426.5817945880255 356.0654225818488 Z" fill-opacity="1"/></g></g><g><g><path fill="rgb(245,158,11)" stroke="none" paint-order="stroke fill markers" d=" M 424.1096635244947 404.9293129412823 L 422.98478610311776 403.9164687617352 L 413.86918848719387 414.04036555412745 L 409.4422515385492 410.0543336217163 L 422.6092258726615 395.43092714381635 L 429.57620861151213 401.70402657843067 L 429.5435362186235 401.74031294686216 Q 431.11830596335017 403.4210608863532 431.2810814757831 405.86728992544636 L 431.2810814757831 405.86728992544636 Q 431.38935412906744 408.5929679853629 429.5923725201936 410.58871824909613 L 429.5923725201936 410.58871824909613 L 418.77781047406165 422.5995061999271 L 414.3871598938485 418.6461466604045 L 424.2542225462106 407.6876633940875 Q 424.7769808324284 407.10708149918327 424.7336131259137 406.27957636334173 Q 424.6902454193989 405.45207122750014 424.1096635244947 404.9293129412823 L 424.1096635244947 404.9293129412823 Z M 412.38916652111584 394.3761300382593 L 411.30057546817045 393.3959582516008 Q 410.71999357326627 392.873199965383 409.8924884374247 392.9165676718977 Q 409.06498330158314 392.95993537841247 408.54222501536526 393.5405172733167 L 408.54222501536526 393.5405172733167 L 398.6751623630032 404.49900053963376 L 394.24822541435856 400.5129686072226 L 405.0627874604905 388.50218065639166 Q 406.8597690693644 386.5064303926584 409.58183315373805 386.3291989780539 L 409.58183315373805 386.3291989780539 Q 412.03167616837413 386.2353822269411 413.8678250562097 387.62583921898005 L 413.8678250562097 387.62583921898005 L 413.90049744909834 387.5895528505485 L 420.8674801879489 393.8626522851628 L 407.7005058538366 408.4860587630627 L 403.27356890519195 404.50002683065156 L 412.38916652111584 394.3761300382593 Z M 419.1934250970541 381.71116116464333 L 434.8691362594679 395.8256348925255 Q 438.84242029621737 399.7317195239853 439.17505265916645 405.41901034512455 L 439.17505265916645 405.41901034512455 Q 439.4567961385099 411.4547089484073 435.4054194203215 415.954218633915 L 435.4054194203215 415.954218633915 L 424.6562021599668 427.8924338478829 L 420.2292652113222 423.90640191547175 L 430.9784824716769 411.9681867015038 Q 433.36356715254584 409.31928180600335 433.1756404243152 405.7334262173566 Q 432.98771369608454 402.14757062870984 430.33880880058405 399.7624859478409 L 430.33880880058405 399.7624859478409 L 415.75168869111565 386.62818400661723 Q 413.1027837956152 384.24309932574823 409.51692820696843 384.4310260539789 Q 405.9310726183217 384.61895278220953 403.54598793745276 387.26785767771 L 403.54598793745276 387.26785767771 L 392.79677067709804 399.20607289167793 L 388.3698337284534 395.2200409592668 L 399.1190509888081 383.2818257452989 Q 403.1704277069965 378.7823160597912 409.2025123347364 378.4316138191276 L 409.2025123347364 378.4316138191276 Q 414.8934171314185 378.16794021749865 419.1934250970541 381.71116116464333 L 419.1934250970541 381.71116116464333 Z" fill-opacity="1"/></g></g><g><g><path fill="rgb(245,158,11)" stroke="none" paint-order="stroke fill markers" d=" M 373.5192446955539 450.74606139037286 L 382.52587920324373 444.20235838633556 L 361.9476552826527 415.87886302662673 L 366.7669947999254 412.3774079104313 L 390.81797338493965 445.48074000448435 L 376.99199935997717 455.52589812471706 L 373.5192446955539 450.74606139037286 Z M 392.3980847020782 444.3327219336006 L 368.3471061170639 411.2293898395476 L 373.1269428514081 407.7566351751243 L 393.7051667719991 436.08013053483313 L 402.7513040626174 429.50772707902377 L 406.2240587270407 434.2875638133679 L 392.3980847020782 444.3327219336006 Z M 410.87353191411984 440.6870146477791 L 381.6414725470563 461.92534895912826 L 378.1400174308609 457.10600944185563 L 407.3720767979244 435.8676751305065 L 410.87353191411984 440.6870146477791 Z" fill-opacity="1"/></g></g><g><g><path fill="rgb(245,158,11)" stroke="none" paint-order="stroke fill markers" d=" M 350.31538202936656 477.713007080479 L 344.87336318989406 480.13594997380164 L 325.01317553970847 435.5292381748465 L 330.455194379181 433.1062952815239 L 350.31538202936656 477.713007080479 Z M 357.5416693407973 474.49565668114894 L 352.0996505013248 476.91859957447156 L 332.2394628511392 432.3118877755164 L 337.68148169061175 429.8889448821938 L 357.5416693407973 474.49565668114894 Z" fill-opacity="1"/></g></g><g><g><path fill="rgb(245,158,11)" stroke="none" paint-order="stroke fill markers" d=" M 304.34354576528193 476.6622684026234 L 304.34354576528193 476.6622684026234 L 284.93024702558046 455.0804206387057 Q 284.63768319203 454.6434172576477 283.9325746378583 454.1443460408642 L 283.9325746378583 454.1443460408642 Q 282.9582047030166 453.5527511742705 281.8596990967237 453.7862457489193 L 281.8596990967237 453.7862457489193 Q 280.76119349043086 454.0197403235682 280.1406420981645 454.9753056707655 Q 279.52009070589816 455.93087101796283 279.7637372185752 457.07713773757274 L 279.7637372185752 457.07713773757274 L 288.0984783397364 496.2890117708957 L 282.2716225150526 497.52754821033744 L 273.93688139389144 458.31567417701444 Q 273.1754860417756 454.73359067823344 275.13116315679684 451.7221120082783 Q 277.08684027181806 448.71063333832313 280.62116265728196 447.95938992423555 L 280.62116265728196 447.95938992423555 Q 284.1554850427459 447.2081465101479 287.1669637127011 449.16382362516913 L 287.1669637127011 449.16382362516913 Q 287.85176839081635 449.5673726153185 288.41359360503685 450.09689964618667 L 288.41359360503685 450.09689964618667 L 288.4512027803257 450.03898659484133 L 301.85632094837024 464.96079563993874 L 297.48083565821133 444.3757558002771 L 303.3554525962122 443.12706742280716 L 311.6901937173734 482.3389414561301 Q 311.7612572835709 482.6732692493497 311.5544068194821 482.9917910317488 Q 311.3475563553933 483.3103128141479 311.01322856217377 483.38137638034533 L 311.01322856217377 483.38137638034533 Q 310.6311396556371 483.46259188457105 310.34157439891067 483.2745460081267 L 310.34157439891067 483.2745460081267 Q 310.2155963581919 483.15156654423186 304.34354576528193 476.6622684026234 Z M 288.9730685900328 462.3578852079792 L 288.9730685900328 462.3578852079792 L 308.38636732973436 483.93973297189694 Q 308.67893116328474 484.37673635295494 309.38403971745646 484.8758075697384 L 309.38403971745646 484.8758075697384 Q 310.3584096522982 485.4674024363321 311.45691525859104 485.2339078616833 L 311.45691525859104 485.2339078616833 Q 312.5554208648839 485.0004132870344 313.17597225715025 484.0448479398371 Q 313.7965236494166 483.08928259263985 313.55287713673954 481.9430158730299 L 313.55287713673954 481.9430158730299 L 305.21813601557835 442.73114183970694 L 311.0449918402622 441.4926054002652 L 319.3797329614233 480.7044794335882 Q 320.1411283135392 484.2865629323692 318.18545119851797 487.2980416023243 Q 316.22977408349675 490.3095202722795 312.6954516980328 491.06076368636707 L 312.6954516980328 491.06076368636707 Q 309.16112931256885 491.8120071004547 306.1496506426137 489.8563299854335 L 306.1496506426137 489.8563299854335 Q 305.4648459644984 489.4527809952841 304.90302075027796 488.923253964416 L 304.90302075027796 488.923253964416 L 304.8654115749891 488.9811670157613 L 291.4602934069445 474.0593579706639 L 295.8357786971034 494.64439781032553 L 289.96116175910254 495.89308618779546 L 281.62642063794135 456.6812121544725 Q 281.5553570717439 456.34688436125293 281.76220753583266 456.02836257885383 Q 281.96905799992146 455.7098407964547 282.30338579314105 455.6387772302573 L 282.30338579314105 455.6387772302573 Q 282.6854746996777 455.55756172603157 282.9851918944323 455.793368715793 L 282.9851918944323 455.793368715793 Q 283.10101799712294 455.86858706637076 288.9730685900328 462.3578852079792 Z" fill-opacity="1"/></g></g><g><g><path fill="rgb(245,158,11)" stroke="none" paint-order="stroke fill markers" d=" M 231.93359375000003 485.009765625 L 243.06640625000003 485.009765625 L 243.06640625000003 450 L 249.02343750000003 450 L 249.02343750000003 490.91796875 L 231.93359375000003 490.91796875 L 231.93359375000003 485.009765625 Z M 250.97656250000003 490.91796875 L 250.97656250000003 450 L 256.884765625 450 L 256.88476562500006 485.009765625 L 268.06640625000006 485.009765625 L 268.06640625000006 490.91796875 L 250.97656250000003 490.91796875 Z M 268.06640625000006 498.828125 L 231.93359375000003 498.828125 L 231.93359375000003 492.87109375 L 268.06640625000006 492.87109375 L 268.06640625000006 498.828125 Z" fill-opacity="1"/></g></g><g><g><path fill="rgb(245,158,11)" stroke="none" paint-order="stroke fill markers" d=" M 206.79692843253656 453.3718964731423 L 206.79692843253656 453.3718964731423 Q 213.43572318361075 454.7830158590636 217.15903153720882 460.5164079422474 Q 220.8823398908069 466.2498000254312 219.46106856685736 472.9363558898225 L 219.46106856685736 472.9363558898225 Q 218.04994918093604 479.57515064089665 212.3114811287381 483.3223395511533 Q 206.57301307654018 487.0695284614099 199.934218325466 485.6584090754886 L 199.934218325466 485.6584090754886 Q 193.29542357439183 484.24728968956725 189.57719118980788 478.4900170497249 Q 185.8589588052239 472.7327444098825 187.27007819114522 466.09394965880836 L 187.27007819114522 466.09394965880836 Q 188.6913495150947 459.4073937944171 194.42474159827856 455.68408544081905 Q 200.1581336814624 451.96077708722095 206.79692843253656 453.3718964731423 Z M 201.16260282687952 479.87931436412185 L 201.16260282687952 479.87931436412185 Q 205.41334191209967 480.78283684863266 209.09082067252567 478.3946542177894 Q 212.76829943295166 476.0064715869462 213.67182191746244 471.7557325017261 L 213.67182191746244 471.7557325017261 Q 214.5854963400014 467.45723230318885 212.1973137091582 463.7797535427628 Q 209.80913107831498 460.10227478233685 205.55839199309483 459.19875229782605 L 205.55839199309483 459.19875229782605 Q 201.30765290787468 458.2952298133153 197.63017414744868 460.68341244415853 Q 193.9526953870227 463.0715950750017 193.0390209644837 467.37009527353894 L 193.0390209644837 467.37009527353894 Q 192.13549847997294 471.6208343587591 194.52368111081617 475.2983131191851 Q 196.91186374165937 478.9757918796111 201.16260282687952 479.87931436412185 Z M 199.52814080433757 487.5688536081718 L 199.52814080433757 487.5688536081718 Q 206.9788744818021 489.1525559405727 213.40214721211532 485.0018180401667 Q 219.82541994242854 480.85108013976077 221.40912227482946 473.4003464622962 L 221.40912227482946 473.4003464622962 Q 223.01312848328678 465.8540905581975 218.83343405720814 459.4496224155287 Q 214.65373963112953 453.0451542728599 207.203005953665 451.461451940459 L 207.203005953665 451.461451940459 Q 199.75227227620047 449.87774960805814 193.32899954588726 454.02848750846414 Q 186.905726815574 458.1792254088701 185.3017206071167 465.7254813129688 L 185.3017206071167 465.7254813129688 Q 183.7180182747158 473.1762149904333 187.89771270079441 479.5806831331021 Q 192.07740712687303 485.9851512757709 199.52814080433757 487.5688536081718 Z M 208.44154239310674 445.63459611577525 L 208.44154239310674 445.63459611577525 Q 218.32809284974238 447.7360472876149 223.83783702956174 456.22030930970004 Q 229.34758120938113 464.70457133178525 227.24613003754146 474.5911217884209 L 227.24613003754146 474.5911217884209 Q 225.15483080373002 484.4299111317394 216.66549281263073 489.9635358682173 Q 208.17615482153147 495.49716060469524 198.28960436489584 493.3957094328556 L 198.28960436489584 493.3957094328556 Q 188.4030539082602 491.29425826101595 182.8745051407964 482.7810397132581 Q 177.34595637333257 474.2678211655003 179.43725560714404 464.42903182218174 L 179.43725560714404 464.42903182218174 Q 181.53870677898368 454.5424813655461 190.04684935772738 449.03781315474083 Q 198.55499193647108 443.5331449439356 208.44154239310674 445.63459611577525 Z" fill-opacity="1"/></g></g><g><g><path fill="rgb(245,158,11)" stroke="none" paint-order="stroke fill markers" d=" M 157.14344707406624 447.57479457133746 L 157.14344707406624 447.57479457133746 L 144.7109696050501 475.49859615748335 L 139.26895076557759 473.07565326416074 L 151.70142823459372 445.15185167801485 Q 153.44912474781006 441.22646103970675 157.5006093192808 439.68973337423375 Q 161.5520938907516 438.15300570876076 165.47748452905964 439.9007022219771 L 165.47748452905964 439.9007022219771 Q 169.40287516736768 441.64839873519344 170.9495329266658 445.6775799507647 Q 172.49619068596388 449.706761166336 170.74849417274757 453.632151804644 L 170.74849417274757 453.632151804644 L 158.3160167037314 481.55595339078997 L 152.87399786425888 479.13301049746735 L 165.30647533327505 451.2092089113214 Q 166.0611624639821 449.5141538629611 165.4053795740397 447.8057810275589 Q 164.7495966840973 446.09740819215665 163.054541635737 445.3427210614496 L 163.054541635737 445.3427210614496 Q 161.35948658737672 444.58803393074254 159.628810396075 445.23388672685985 Q 157.8981342047733 445.87973952297716 157.14344707406624 447.57479457133746 Z M 149.91715976263552 444.3574441720074 L 149.91715976263552 444.3574441720074 L 137.48468229361936 472.2812457581533 L 132.0872701659458 469.8781630524809 L 144.51974763496196 441.95436146633494 Q 147.5980767207407 435.0403211374969 154.65720221042162 432.3305767432066 Q 161.7163277001025 429.6208323489164 168.67497474073951 432.71902162234534 L 168.67497474073951 432.71902162234534 Q 175.58901506957756 435.79735070812404 178.29875946386784 442.85647619780497 Q 181.0085038581581 449.9156016874859 177.93017477237933 456.82964201632393 L 177.93017477237933 456.82964201632393 L 165.4976973033632 484.7534436024698 L 160.10028517568963 482.3503608967974 L 172.53276264470577 454.42655931065144 Q 174.59822216032507 449.78746128356016 172.75460611124174 444.98467727459916 Q 170.9109900621584 440.18189326563817 166.27189203506705 438.11643375001887 L 166.27189203506705 438.11643375001887 Q 161.58818729617678 436.0311140467494 156.7854032872158 437.8747300958327 Q 151.98261927825482 439.7183461449161 149.91715976263552 444.3574441720074 Z" fill-opacity="1"/></g></g><g><g><path fill="rgb(245,158,11)" stroke="none" paint-order="stroke fill markers" d=" M 113.55626383475608 419.0245624506735 L 112.62726335530819 413.1590842664255 Q 119.3793835906634 412.0896534819448 124.90977320064839 416.1077167300379 L 124.90977320064839 416.1077167300379 Q 130.44016281063338 420.125779978131 131.5095935951141 426.87790021348616 Q 132.5790243795948 433.6300204488414 128.56096113150173 439.16041005882636 L 128.56096113150173 439.16041005882636 Q 124.54289788340866 444.6907996688114 117.79077764805345 445.7602304532921 Q 111.03865741269824 446.8296612377728 105.50826780271325 442.81159798967974 L 105.50826780271325 442.81159798967974 Q 99.97787819272826 438.79353474158665 98.90844740824754 432.04141450623143 L 98.90844740824754 432.04141450623143 L 104.7739255924955 431.11241402678354 Q 105.45447245534686 435.40921781291865 109.00972291890864 437.99225847240706 L 109.00972291890864 437.99225847240706 Q 112.52547059954196 440.5465986801234 116.84202577714132 439.8804020431581 Q 121.15858095474069 439.2142054061928 123.74162161422909 435.658954942631 L 123.74162161422909 435.658954942631 Q 126.32466227371751 432.1037044790692 125.62436401940191 427.79255046704804 Q 124.92406576508631 423.48139645502687 121.408318084453 420.92705624731053 L 121.408318084453 420.92705624731053 Q 117.85306762089121 418.3440155878221 113.55626383475608 419.0245624506735 L 113.55626383475608 419.0245624506735 Z M 91.0650754176834 433.2836825892141 L 96.93055360193136 432.3546821097662 Q 98.15831281206063 439.8857383785996 104.36024973182951 444.3917093068183 L 104.36024973182951 444.3917093068183 Q 110.52268386866993 448.8689797832649 118.07889269454579 447.68967241637193 Q 125.63510152042164 446.510365049479 130.1410724486403 440.30842812971014 L 130.1410724486403 440.30842812971014 Q 134.64704337685896 434.1064912099412 133.43363439261577 426.55568354964356 Q 132.22022540837256 419.0048758893459 126.05779127153212 414.52760541289933 L 126.05779127153212 414.52760541289933 Q 119.85585435176324 410.02163448468065 112.28529530000134 411.22069324303783 L 112.28529530000134 411.22069324303783 L 111.35629482055344 405.3552150587899 Q 121.38217032153543 403.76727237880334 129.5592463877275 409.7082658956267 L 129.5592463877275 409.7082658956267 Q 137.73632245391963 415.64925941245 139.31886396832795 425.64103329608173 Q 140.90140548273627 435.63280717971344 134.96041196591295 443.8098832459055 L 134.96041196591295 443.8098832459055 Q 129.0194184490896 451.9869593120976 119.0276445654579 453.56950082650593 Q 109.03587068182621 455.15204234091425 100.85879461563411 449.21104882409094 L 100.85879461563411 449.21104882409094 Q 92.68171854944202 443.27005530726757 91.0650754176834 433.2836825892141 L 91.0650754176834 433.2836825892141 Z" fill-opacity="1"/></g></g><g><g><path fill="rgb(245,158,11)" stroke="none" paint-order="stroke fill markers" d=" M 77.32047760979455 430.08775913798956 L 73.33444567738339 425.66082218934497 L 109.62081410889677 392.9884293007288 L 113.60684604130793 397.41536624937345 L 95.46366182555124 413.75156269368154 L 77.32047760979455 430.08775913798956 Z M 56.80221487574362 407.2999197629992 L 52.84885533622107 402.90926918278603 L 89.13522376773446 370.2368762941699 L 93.08858330725701 374.627526874383 L 56.80221487574362 407.2999197629992 Z M 62.09514252369944 413.17831144890437 L 58.10911059128827 408.7513745002597 L 75.38142196468864 393.1993154852784 L 89.29986133523911 408.65730843710315 L 72.02754996183874 424.2093674520844 L 68.04151802942758 419.7824305034398 L 80.92317882261483 408.183731027981 L 74.97680331688669 401.5796119734456 L 62.09514252369944 413.17831144890437 Z M 94.39547902280165 376.0789816116436 L 98.38151095521282 380.5059185602882 L 85.57242289888859 392.0392732499697 L 91.51879840461673 398.64339230450514 L 104.32788646094096 387.1100376148236 L 108.31391839335213 391.5369745634683 L 91.04160701995175 407.0890335784496 L 77.12316764940128 391.63104062662484 L 94.39547902280165 376.0789816116436 Z" fill-opacity="1"/></g></g><g><g><path fill="rgb(245,158,11)" stroke="none" paint-order="stroke fill markers" d=" M 63.003356026570316 353.84668679315126 L 61.587340401570316 351.3940757863399 L 53.4683522410912 356.0815757863399 L 50.4898366160912 350.92263539270215 L 63.76776517020808 343.25661976770215 L 68.16229642020808 350.86817116815126 Q 71.58026517020808 356.78826670183395 69.81090408746104 363.39161215958103 Q 68.041543004714 369.99495761732805 62.121447471031324 373.41292636732805 L 62.121447471031324 373.41292636732805 Q 56.20135193734864 376.83089511732805 49.598006479601594 375.06153403458103 Q 42.994661021854554 373.292172951834 39.576692271854554 367.3720774181513 L 39.576692271854554 367.3720774181513 Q 36.15872352185455 361.45198188446864 37.92808460460158 354.84863642672155 L 37.92808460460158 354.84863642672155 L 43.664324093149524 356.3856571652695 Q 42.53836704049232 360.5877860929267 44.73563266549232 364.3935617931513 L 44.73563266549232 364.3935617931513 Q 46.90848422799232 368.1570510967067 51.12282018689953 369.3041513476985 Q 55.33715614580674 370.4512515986903 59.14293184603132 368.2539859736903 L 59.14293184603132 368.2539859736903 Q 62.9487075462559 366.0567203486903 64.0624575676631 361.8334482226985 Q 65.17620758907032 357.6101760967067 63.003356026570316 353.84668679315126 L 63.003356026570316 353.84668679315126 Z M 69.85375228697457 349.89160866815126 L 64.48265853697455 340.58860140093566 L 49.513274116091196 349.23117952593566 L 46.534758491091196 344.0722391322979 L 66.66308330561232 332.45114538229785 L 75.01269268061233 346.91309304315126 Q 80.06640361811233 355.66637715366784 77.4481066623301 365.43799442195007 Q 74.82980970654786 375.2096116902323 66.07652559603133 380.2633226277323 L 66.07652559603133 380.2633226277323 Q 57.323241485514785 385.3170335652323 47.55162421723254 382.69873660945007 Q 37.7800069489503 380.08043965366784 32.7262960114503 371.3271555431513 L 32.7262960114503 371.3271555431513 Q 27.672585073950295 362.57387143263475 30.25753180014795 352.79331799726793 L 30.25753180014795 352.79331799726793 L 35.99377128869589 354.3303387358159 Q 34.052228592588065 361.7096756410929 37.88523640508807 368.3486399181513 L 37.88523640508807 368.3486399181513 Q 41.69383015508807 374.9453177985406 49.07643792453048 376.94135392256754 Q 56.45904569397288 378.93739004659454 63.098009971031324 375.10438223409454 L 63.098009971031324 375.10438223409454 Q 69.73697424808977 371.27137442159454 71.69966014253217 363.87983048506754 Q 73.66234603697457 356.48828654854054 69.85375228697457 349.89160866815126 L 69.85375228697457 349.89160866815126 Z" fill-opacity="1"/></g></g><g><g><path fill="rgb(245,158,11)" stroke="none" paint-order="stroke fill markers" d=" M 28.772447439732954 323.3187351859321 L 30.212034939984406 322.8509848526497 L 26.002281940442884 309.8946973503866 L 31.667755328529246 308.05387345811397 L 37.74850966120033 326.76851096138284 L 28.832354820933272 329.665545283648 L 28.817266100504806 329.61910697718827 Q 26.574310815183907 330.1425236114872 24.374426567637585 329.06037682082155 L 24.374426567637585 329.06037682082155 Q 21.959783798569774 327.79130465914267 21.129904175004235 325.23719780385784 L 21.129904175004235 325.23719780385784 L 16.135537713182572 309.8661183656891 L 21.754572794809206 308.04038319384495 L 26.311366364205412 322.0647517446817 Q 26.552785891060836 322.8077646480373 27.2911102137191 323.1839596804124 Q 28.029434536377366 323.5601547127875 28.772447439732954 323.3187351859321 L 28.772447439732954 323.3187351859321 Z M 43.772020426223904 318.4450784875381 L 45.165169620015625 317.9924168746842 Q 45.90818252337122 317.7509973478288 46.28437755574634 317.0126730251705 Q 46.660572588121454 316.27434870251227 46.41915306126603 315.53133579915664 L 46.41915306126603 315.53133579915664 L 41.86235949186983 301.50696724831994 L 47.52783287995619 299.6661433560473 L 52.522199341777856 315.037222794216 Q 53.35207896534339 317.5913296495009 52.14453383055271 320.03732200459996 L 52.14453383055271 320.03732200459996 Q 51.000860012998885 322.205856666115 48.8786144911057 323.10077975209174 L 48.8786144911057 323.10077975209174 L 48.89370321153416 323.14721805855146 L 39.977548371267105 326.0442523808166 L 33.89679403859601 307.32961487754767 L 39.56226742668238 305.48879098527505 L 43.772020426223904 318.4450784875381 Z M 51.33807592094537 330.6702237050268 L 31.276727530344477 337.1885509301233 Q 25.907316991793586 338.6764735266696 20.815662480502397 336.12089619253476 L 20.815662480502397 336.12089619253476 Q 15.447722420801533 333.34704390135545 13.57672108767197 327.5886939003496 L 13.57672108767197 327.5886939003496 L 8.612532066707232 312.31049107510034 L 14.2780054547936 310.46966718282766 L 19.242194475758332 325.747870008077 Q 20.34367106703622 329.1378663796369 23.54307646522203 330.7680448532624 Q 26.742481863407832 332.3982233268879 30.132478234967706 331.29674673561 L 30.132478234967706 331.29674673561 L 48.80067743177687 325.2310811233674 Q 52.19067380333674 324.1296045320895 53.82085227696227 320.93019913390367 Q 55.45103075058779 317.7307937357179 54.3495541593099 314.340797364158 L 54.3495541593099 314.340797364158 L 49.385365138345165 299.06259453890874 L 55.050838526431534 297.22177064663606 L 60.015027547396265 312.49997347188537 Q 61.88602888052583 318.25832347289116 59.17370361623467 323.6576131186233 L 59.17370361623467 323.6576131186233 Q 56.55659925521162 328.71791804388323 51.33807592094537 330.6702237050268 L 51.33807592094537 330.6702237050268 Z" fill-opacity="1"/></g></g><g><g><path fill="rgb(245,158,11)" stroke="none" paint-order="stroke fill markers" d=" M 14.389188778489668 256.5977730674296 L 15.552884560961601 267.6695988557092 L 50.37086302673562 264.0100818555672 L 50.99354234893551 269.9344798650852 L 10.299726513065735 274.21157225855666 L 8.513351408393909 257.215348460759 L 14.389188778489668 256.5977730674296 Z M 10.503883667885376 276.1539978354478 L 51.19769950375515 271.8769054419764 L 51.81527489708456 277.75274281207214 L 16.997296431310538 281.41225981221413 L 18.16609614265296 292.53264623991606 L 12.290258772557202 293.15022163324545 L 10.503883667885376 276.1539978354478 Z M 4.423435186148012 293.977058110265 L 0.6465278219847193 258.04218493777853 L 6.570925831502748 257.41950561557866 L 10.347833195666041 293.3543787880651 L 4.423435186148012 293.977058110265 Z" fill-opacity="1"/></g></g><g><g><path fill="rgb(245,158,11)" stroke="none" paint-order="stroke fill markers" d=" M 2.6370600814761787 223.01916568753296 L 3.2597394036760647 217.09476767801493 L 51.82037882595504 222.19869654850578 L 51.19769950375515 228.12309455802384 L 2.6370600814761787 223.01916568753296 Z M 1.8102236044566524 230.88598927394216 L 2.4329029266565385 224.96159126442413 L 50.99354234893551 230.06552013491498 L 50.37086302673563 235.98991814443303 L 1.8102236044566524 230.88598927394216 Z" fill-opacity="1"/></g></g><g><g><path fill="rgb(245,158,11)" stroke="none" paint-order="stroke fill markers" d=" M 26.532944601280313 183.73175696314468 L 26.532944601280313 183.73175696314468 L 54.9300223952922 177.71027096526564 Q 55.454760341603304 177.67540494371138 56.23952297072129 177.31429863176473 L 56.23952297072129 177.31429863176473 Q 57.23904412136077 176.76626694880486 57.58608469121545 175.69818590023118 L 57.58608469121545 175.69818590023118 Q 57.933125261070124 174.63010485165753 57.41585709155433 173.6149089080024 Q 56.89858892203854 172.5997129643473 55.784069567005155 172.23758367406415 L 55.784069567005155 172.23758367406415 L 17.658219963571504 159.84974420229503 L 19.499043855844135 154.18427081420867 L 57.62489345927779 166.5721102859778 Q 61.107766443757114 167.7037643181126 62.73794491738264 170.9031697162984 Q 64.36812339100817 174.1025751144842 63.25155807930181 177.5390097925038 L 63.25155807930181 177.5390097925038 Q 62.134992767595456 180.97544447052343 58.93558736940965 182.60562294414893 L 58.93558736940965 182.60562294414893 Q 58.243701353211115 182.99690669695252 57.50420488537852 183.21869808952002 L 57.50420488537852 183.21869808952002 L 57.53555447140978 183.2802251164082 L 37.910329683912764 187.4284934681184 L 57.92523976805394 193.9317319727865 L 56.06932715535284 199.64364366733258 L 17.943477551919187 187.25580419556346 Q 17.61840940670112 187.1501831525642 17.445986683529192 186.81178450467917 Q 17.273563960357258 186.47338585679415 17.37918500335651 186.14831771157606 L 17.37918500335651 186.14831771157606 Q 17.499894766784223 185.77681125989827 17.807529901225166 185.62006332974198 L 17.807529901225166 185.62006332974198 Q 17.977022261461265 185.57245287810792 26.532944601280313 183.73175696314468 Z M 46.60614242093393 177.5727248584122 L 46.60614242093393 177.5727248584122 L 18.209064626922043 183.59421085629123 Q 17.684326680610944 183.62907687784548 16.899564051492952 183.99018318979213 L 16.899564051492952 183.99018318979213 Q 15.900042900853478 184.53821487275204 15.553002330998801 185.60629592132568 L 15.553002330998801 185.60629592132568 Q 15.205961761144124 186.67437696989936 15.723229930659912 187.68957291355446 Q 16.240498100175706 188.70476885720956 17.355017455209087 189.0668981474927 L 17.355017455209087 189.0668981474927 L 55.48086705864274 201.45473761926183 L 53.640043166370106 207.1202110073482 L 15.514193562936455 194.73237153557906 Q 12.031320578457127 193.60071750344426 10.401142104831607 190.40131210525846 Q 8.77096363120608 187.20190670707265 9.887528942912432 183.76547202905306 L 9.887528942912432 183.76547202905306 Q 11.004094254618785 180.32903735103346 14.203499652804588 178.69885887740793 L 14.203499652804588 178.69885887740793 Q 14.895385669003126 178.30757512460434 15.63488213683572 178.08578373203687 L 15.63488213683572 178.08578373203687 L 15.603532550804466 178.02425670514867 L 35.22875733830148 173.87598835343846 L 15.2138472541603 167.37274984877038 L 17.069759866861403 161.66083815422428 L 55.195609470295054 174.0486776259934 Q 55.52067761551312 174.15429866899265 55.693100338685056 174.4926973168777 Q 55.86552306185698 174.83109596476274 55.75990201885773 175.1561641099808 L 55.75990201885773 175.1561641099808 Q 55.63919225543002 175.5276705616586 55.285118814529355 175.66932977138643 L 55.285118814529355 175.66932977138643 Q 55.162064760752976 175.73202894344897 46.60614242093393 177.5727248584122 Z" fill-opacity="1"/></g></g><g><g><path fill="rgb(245,158,11)" stroke="none" paint-order="stroke fill markers" d=" M 55.50877595632298 116.84915041991017 L 49.94236970632299 126.49044886047912 L 80.26171611811219 143.9953316729791 L 77.28320049311219 149.15427206661687 L 41.847200084354384 128.6952876916169 L 50.39212195935437 113.89504885741019 L 55.50877595632298 116.84915041991017 Z M 40.870637584354384 130.3867435583834 L 76.30663799311219 150.84572793338336 L 73.35253643061219 155.96238193035197 L 43.033190018823 138.457499117852 L 37.44236970632301 148.1410839550901 L 32.3257157093544 145.1869823925901 L 40.870637584354384 130.3867435583834 Z M 25.475319448950138 141.2319042675901 L 43.54172569895011 109.93997073241019 L 48.70066609258789 112.91848635741019 L 30.634259842587916 144.2104198925901 L 25.475319448950138 141.2319042675901 Z" fill-opacity="1"/></g></g><g><g><path fill="rgb(245,158,11)" stroke="none" paint-order="stroke fill markers" d=" M 95.4763070221716 110.89909426448838 L 95.4763070221716 110.89909426448838 Q 90.93484441065397 115.94289947646874 84.10792703996114 116.30068305521557 Q 77.28100966926831 116.6584666339624 72.20091808885644 112.08433162955616 L 72.20091808885644 112.08433162955616 Q 67.15711287687608 107.54286901803852 66.78118611391349 100.69961545090139 Q 66.4052593509509 93.85636188376427 70.94672196246854 88.8125566717839 L 70.94672196246854 88.8125566717839 Q 75.48818457398617 83.76875145980352 82.33324512889476 83.427304077501 Q 89.17830568380333 83.08585669519849 94.2221108957837 87.62731930671612 L 94.2221108957837 87.62731930671612 Q 99.30220247619557 92.20145431112238 99.65998605494241 99.0283716818152 Q 100.01776963368924 105.85528905250801 95.4763070221716 110.89909426448838 Z M 75.33737254268166 92.76591621130643 L 75.33737254268166 92.76591621130643 Q 72.42952957559483 95.99540300171114 72.6590170225688 100.37428434553937 Q 72.8885044695428 104.75316568936758 76.11799125994747 107.66100865645441 L 76.11799125994747 107.66100865645441 Q 79.38376441878368 110.60152401642986 83.76264576261191 110.37203656945589 Q 88.14152710644014 110.14254912248191 91.04937007352697 106.91306233207722 L 91.04937007352697 106.91306233207722 Q 93.9572130406138 103.68357554167252 93.72772559363982 99.3046941978443 Q 93.49823814666584 94.92581285401607 90.23246498782964 91.98529749404062 L 90.23246498782964 91.98529749404062 Q 87.00297819742494 89.07745452695379 82.62409685359671 89.30694197392776 Q 78.2452155097685 89.53642942090175 75.33737254268166 92.76591621130643 Z M 69.49526722520801 87.50566095623924 L 69.49526722520801 87.50566095623924 Q 64.39837393458389 93.16633443155534 64.78138203562973 100.8044207416454 Q 65.16439013667558 108.44250705173548 70.82506361199167 113.53940034235958 L 70.82506361199167 113.53940034235958 Q 76.55830982417079 118.70163841876094 84.1945891464894 118.28415093705502 Q 91.83086846880803 117.86666345534911 96.92776175943214 112.20598998003302 L 96.92776175943214 112.20598998003302 Q 102.02465505005625 106.54531650471694 101.64164694901041 98.90723019462686 Q 101.25863884796456 91.26914388453679 95.52539263578544 86.10690580813545 L 95.52539263578544 86.10690580813545 Q 89.86471916046935 81.01001251751134 82.22843983815073 81.42749999921725 Q 74.59216051583212 81.84498748092315 69.49526722520801 87.50566095623924 Z M 101.35469870807677 116.19202191244419 L 101.35469870807677 116.19202191244419 Q 94.59151338013324 123.70330017776746 84.48905484673426 124.23274759480192 Q 74.3865963133353 124.76219501183637 66.87531804801202 117.99900968389284 L 66.87531804801202 117.99900968389284 Q 59.400326151120254 111.26849674883792 58.85273554987005 101.14970201899465 Q 58.305144948619834 91.03090728915136 65.06833027656336 83.51962902382809 L 65.06833027656336 83.51962902382809 Q 71.8315156045069 76.0083507585048 81.96845351856594 75.4770963536989 Q 92.10539143262497 74.945841948893 99.58038332951674 81.67635488394792 L 99.58038332951674 81.67635488394792 Q 107.09166159484002 88.43954021189145 107.60477281543017 98.56014192950619 Q 108.11788403602031 108.6807436471209 101.35469870807677 116.19202191244419 Z" fill-opacity="1"/></g></g><g><g><path fill="rgb(245,158,11)" stroke="none" paint-order="stroke fill markers" d=" M 125.32348521669687 70.79646897261838 L 125.32348521669687 70.79646897261838 L 107.35700240736638 46.06772685939977 L 112.17634192463902 42.56627174320437 L 130.1428247339695 67.29501385642298 Q 132.66846448991373 70.77125875412783 131.97356740117633 75.04831114879873 Q 131.27867031243892 79.32536354346963 127.80242541473406 81.85100329941385 L 127.80242541473406 81.85100329941385 Q 124.3261805170292 84.37664305535807 120.06347834824435 83.7014973580849 Q 115.80077617945949 83.02635166081173 113.27513642351528 79.55010676310687 L 113.27513642351528 79.55010676310687 L 95.30865361418479 54.82136464988827 L 100.12799313145743 51.319909533692865 L 118.09447594078792 76.04865164691148 Q 119.18509310812746 77.54975739819312 120.99247882769224 77.83601917383695 Q 122.79986454725702 78.12228094948077 124.30097029853866 77.03166378214121 L 124.30097029853866 77.03166378214121 Q 125.8020760498203 75.94104661480166 126.10808921692836 74.11931066935084 Q 126.41410238403641 72.29757472390001 125.32348521669687 70.79646897261838 Z M 131.72293605110806 66.14699578553925 L 131.72293605110806 66.14699578553925 L 113.75645324177759 41.41825367232063 L 118.53628997612175 37.945499007897325 L 136.50277278545224 62.67424112111594 Q 140.95134281012673 68.79717247502789 139.7684875485041 76.26542667473896 Q 138.58563228688152 83.73368087445002 132.4231981500411 88.2109513508966 L 132.4231981500411 88.2109513508966 Q 126.30026679612914 92.65952137557107 118.83201259641808 91.47666611394847 Q 111.36375839670701 90.29381085232586 106.91518837203253 84.17087949841391 L 106.91518837203253 84.17087949841391 L 88.94870556270205 59.44213738519531 L 93.72854229704622 55.969382720772 L 111.6950251063767 80.6981248339906 Q 114.67987209067442 84.80641425855089 119.76101307586597 85.6111879297005 Q 124.84215406105751 86.41596160085014 128.9504434856178 83.43111461655242 L 128.9504434856178 83.43111461655242 Q 133.09823569310655 80.4175671804826 133.90300936425615 75.33642619529107 Q 134.70778303540578 70.25528521009952 131.72293605110806 66.14699578553925 Z" fill-opacity="1"/></g></g><g><g><path fill="rgb(245,158,11)" stroke="none" paint-order="stroke fill markers" d=" M 171.8423031367893 47.32397706830053 L 177.3864564894154 49.452178145094706 Q 174.9365505986872 55.83440119055964 168.6916109468335 58.61482746158562 L 168.6916109468335 58.61482746158562 Q 162.44667129497978 61.3952537326116 156.06444824951484 58.94534784188342 Q 149.68222520404993 56.495441951155236 146.90179893302394 50.25050229930152 L 146.90179893302394 50.25050229930152 Q 144.12137266199795 44.00556264744781 146.57127855272614 37.62333960198288 Q 149.02118444345433 31.24111655651795 155.26612409530804 28.460690285491964 L 155.26612409530804 28.460690285491964 Q 161.51106374716176 25.680264014465983 167.89328679262667 28.130169905194165 L 167.89328679262667 28.130169905194165 L 165.7650857158325 33.67432325782027 Q 161.70367105053663 32.115292236447786 157.68906698863069 33.90270912496449 L 157.68906698863069 33.90270912496449 Q 153.71906963852368 35.67026582583101 152.13773526125172 39.74161058495197 Q 150.55640088397976 43.81295534407292 152.34381777249646 47.82755940597888 L 152.34381777249646 47.82755940597888 Q 154.13123466101317 51.842163467884845 158.2149526822085 53.39126439543223 Q 162.29867070340384 54.940365322979616 166.26866805351085 53.172808622113095 L 166.26866805351085 53.172808622113095 Q 170.28327211541682 51.38539173359639 171.8423031367893 47.32397706830053 L 171.8423031367893 47.32397706830053 Z M 170.73913706973516 20.716476468542993 L 168.610935992941 26.260629821169083 Q 161.47497034173657 23.558372352454626 154.4717165893006 26.676421813533764 L 154.4717165893006 26.676421813533764 Q 147.51306954866362 29.77461108696272 144.7562752743251 36.90813356991786 Q 141.9994809999866 44.041656052872995 145.11753046106574 51.04490980530895 L 145.11753046106574 51.04490980530895 Q 148.23557992214486 58.0481635577449 155.38147566717439 60.77272438235884 Q 162.5273714122039 63.49728520697278 169.4860184528409 60.399095933543826 L 169.4860184528409 60.399095933543826 Q 176.48927220527688 57.28104647246469 179.23613638579027 50.12522063361007 L 179.23613638579027 50.12522063361007 L 184.78028973841637 52.25342171040425 Q 181.14255068854726 61.73005592942793 171.90896134616355 65.84111477301634 L 171.90896134616355 65.84111477301634 Q 162.67537200377984 69.95217361660477 153.23097123448073 66.32680782881003 Q 143.78657046518163 62.7014420410153 139.67551162159322 53.46785269863159 L 139.67551162159322 53.46785269863159 Q 135.5644527780048 44.23426335624789 139.18981856579953 34.78986258694877 Q 142.81518435359425 25.345461817649664 152.04877369597796 21.23440297406124 L 152.04877369597796 21.23440297406124 Q 161.28236303836167 17.123344130472823 170.73913706973516 20.716476468542993 L 170.73913706973516 20.716476468542993 Z" fill-opacity="1"/></g></g><g><g><path fill="rgb(245,158,11)" stroke="none" paint-order="stroke fill markers" d=" M 180.3791868709905 10.411267327723536 L 186.20604269567428 9.172730888281798 L 196.35798072388522 56.93384420536215 L 190.53112489920142 58.17238064480389 L 185.45515588509596 34.29182398626371 L 180.3791868709905 10.411267327723536 Z M 210.37316603411696 4.035850246007065 L 216.1522607454837 2.807465744593543 L 226.30419877369462 50.568579061673894 L 220.5251040623279 51.79696356308742 L 210.37316603411696 4.035850246007065 Z M 202.63586567674994 5.680464206577241 L 208.46272150143375 4.441927767135503 L 213.29504400286214 27.176217706065753 L 192.94880972978592 31.50094330608361 L 188.11648722835753 8.76665336715336 L 193.9433430530413 7.528116927711629 L 197.5472810530562 24.483312155275154 L 206.2398036767648 22.635659434140763 L 202.63586567674994 5.680464206577241 Z M 218.61465952964468 52.203041084215855 L 212.78780370496088 53.44157752365759 L 209.20416958100242 36.58190452272822 L 200.51164695729378 38.42955724386262 L 204.09528108125224 55.28923024479198 L 198.26842525656843 56.52776668423371 L 193.43610275514004 33.793476745303465 L 213.78233702821626 29.468751145285612 L 218.61465952964468 52.203041084215855 Z" fill-opacity="1"/></g></g></g></g></svg>