<svg version="1.1" xmlns="http://www.w3.org/2000/svg" xmlns:xlink="http://www.w3.org/1999/xlink" width="500" height="500" viewBox="0 0 500 500"><defs/><g><g><g><g><path fill="rgb(244,244,245)" stroke="none" paint-order="stroke fill markers" d=" M 255.322265625 36.009765625 L 249.70703125 36.009765625 L 249.70703125 38.841796875 L 252.34375 38.841796875 Q 252.34375 40.404296875 252.1484375 41.4296875 Q 251.953125 42.455078125 251.5869140625 43.0654296875 Q 251.220703125 43.67578125 250.7080078125 43.919921875 Q 250.1953125 44.1640625 249.560546875 44.1640625 L 249.560546875 44.1640625 Q 248.046875 44.115234375 247.36328125 41.7958984375 Q 246.6796875 39.4765625 246.728515625 35.619140625 L 246.728515625 35.619140625 Q 246.77734375 34.3984375 246.8994140625 32.8359375 Q 247.021484375 31.2734375 247.3876953125 29.8818359375 Q 247.75390625 28.490234375 248.4130859375 27.5380859375 Q 249.072265625 26.5859375 250.1953125 26.5859375 L 250.1953125 26.5859375 Q 250.9765625 26.537109375 251.416015625 27.0986328125 Q 251.85546875 27.66015625 252.05078125 29.759765625 L 252.05078125 29.759765625 L 255.078125 29.759765625 Q 255.029296875 26.48828125 253.7353515625 24.9013671875 Q 252.44140625 23.314453125 250.146484375 23.412109375 L 250.146484375 23.412109375 Q 248.291015625 23.509765625 247.0947265625 24.6328125 Q 245.8984375 25.755859375 245.21484375 27.4892578125 Q 244.53125 29.22265625 244.2626953125 31.3466796875 Q 243.994140625 33.470703125 243.9453125 35.5703125 L 243.9453125 35.5703125 Q 243.84765625 41.185546875 245.1171875 44.1396484375 Q 246.38671875 47.09375 249.51171875 47.142578125 L 249.51171875 47.142578125 Q 251.025390625 47.142578125 252.197265625 46.556640625 Q 253.369140625 45.970703125 254.1015625 44.65234375 Q 254.833984375 43.333984375 255.1513671875 41.2099609375 Q 255.46875 39.0859375 255.322265625 36.009765625 L 255.322265625 36.009765625 Z M 232.6171875 35.1796875 L 232.6171875 35.1796875 Q 232.6171875 31.56640625 233.984375 28.392578125 Q 235.3515625 25.21875 237.6953125 22.875 Q 240.0390625 20.53125 243.212890625 19.1640625 Q 246.38671875 17.796875 250 17.796875 L 250 17.796875 Q 253.61328125 17.796875 256.787109375 19.1640625 Q 259.9609375 20.53125 262.3046875 22.875 Q 264.6484375 25.21875 266.015625 28.392578125 Q 267.3828125 31.56640625 267.3828125 35.1796875 L 267.3828125 35.1796875 Q 267.3828125 38.79296875 266.015625 41.966796875 Q 264.6484375 45.140625 262.3046875 47.484375 Q 259.9609375 49.828125 256.787109375 51.1953125 Q 253.61328125 52.5625 250 52.5625 L 250 52.5625 Q 246.38671875 52.5625 243.212890625 51.1953125 Q 240.0390625 49.828125 237.6953125 47.484375 Q 235.3515625 45.140625 233.984375 41.966796875 Q 232.6171875 38.79296875 232.6171875 35.1796875 Z" fill-opacity="1"/></g></g><g><g><path fill="rgb(244,244,245)" stroke="none" paint-order="stroke fill markers" d=" M 277.66069805299384 36.259936801195536 L 277.66069805299384 36.259936801195536 Q 278.4119414670814 32.725614415731584 280.4091286117934 29.905396314911275 Q 282.40631575650536 27.085178214090956 285.18614222107936 25.279937800225223 Q 287.9659686856533 23.474697386359487 291.35469531605344 22.79726218531495 Q 294.74342194645357 22.11982698427041 298.2777443319175 22.871070398358015 L 298.2777443319175 22.871070398358015 Q 301.81206671738147 23.622313812445622 304.6322848182018 25.619500957157577 Q 307.4525029190221 27.616688101869535 309.25774333288786 30.396514566443518 Q 311.06298374675356 33.1763410310175 311.7404189477981 36.56506766141763 Q 312.41785414884265 39.95379429181775 311.66661073475507 43.488116677281695 L 311.66661073475507 43.488116677281695 Q 310.91536732066743 47.02243906274565 308.9181801759555 49.84265716356597 Q 306.92099303124354 52.66287526438628 304.14116656666954 54.46811567825202 Q 301.3613401020956 56.27335609211775 297.97261347169547 56.95079129316229 Q 294.58388684129534 57.628226494206835 291.0495644558314 56.876983080119224 L 291.0495644558314 56.876983080119224 Q 287.51524207036744 56.12573966603162 284.6950239695471 54.12855252131966 Q 281.8748058687268 52.131365376607704 280.06956545486105 49.35153891203372 Q 278.26432504099535 46.57171244745974 277.5868898399508 43.18298581705961 Q 276.90945463890625 39.79425918665948 277.66069805299384 36.259936801195536 Z M 301.2827936164917 29.40025231625605 L 292.3037043128806 27.4916879669524 L 287.41047018328294 50.512544585785136 L 296.3895594868941 52.42110893508878 L 297.03928352069954 49.36439768279564 L 291.1545146446705 48.16347041864278 L 292.4235068981968 42.19333125400774 L 297.3429015698561 43.23898087091346 L 297.9926256036616 40.18226961862032 L 293.07323093200233 39.13662000171459 L 294.77875652074175 31.112752964445093 L 300.65337345874264 32.36144134191503 L 301.2827936164917 29.40025231625605 Z" fill-opacity="1"/></g></g><g><g><path fill="rgb(244,244,245)" stroke="none" paint-order="stroke fill markers" d=" M 331.14659891833145 64.02025116805027 L 334.0014284734646 65.29130317766213 L 342.3427072865425 46.55648422210099 L 346.26809792485057 48.30418073531732 L 347.4994295591621 45.5385646037821 L 336.7938187274129 40.77211956773756 L 335.56248709310137 43.53773569927279 L 339.4878777314094 45.28543221248911 L 331.14659891833145 64.02025116805027 Z M 321.4953033703163 46.681652502794904 L 321.4953033703163 46.681652502794904 Q 322.96495725643007 43.380755829672225 325.50485738406286 41.03740481694534 Q 328.04475751169565 38.694053804218456 331.13916868525445 37.50622064507751 Q 334.2335798588132 36.318387485936576 337.68910137995044 36.36031175282789 Q 341.14462290108776 36.40223601971921 344.44551957421044 37.871889905832944 L 344.44551957421044 37.871889905832944 Q 347.7464162473331 39.34154379194667 350.08976726006 41.881443919579475 Q 352.4331182727869 44.42134404721228 353.6209514319278 47.515755220771034 Q 354.80878459106873 50.61016639432978 354.7668603241774 54.065687915467066 Q 354.72493605728613 57.52120943660434 353.2552821711724 60.822106109727024 L 353.2552821711724 60.822106109727024 Q 351.78562828505864 64.1230027828497 349.24572815742584 66.46635379557658 Q 346.70582802979305 68.80970480830348 343.6114168562343 69.99753796744442 Q 340.5170056826755 71.18537112658535 337.06148416153826 71.14344685969404 Q 333.605962640401 71.10152259280272 330.3050659672783 69.63186870668899 L 330.3050659672783 69.63186870668899 Q 327.00416929415564 68.16221482057526 324.6608182814287 65.62231469294245 Q 322.3174672687018 63.08241456530965 321.1296341095609 59.988003391750894 Q 319.94180095042 56.89359221819214 319.9837252173113 53.43807069705486 Q 320.0256494842026 49.98254917591758 321.4953033703163 46.681652502794904 Z" fill-opacity="1"/></g></g><g><g><path fill="rgb(244,244,245)" stroke="none" paint-order="stroke fill markers" d=" M 365.3545258380517 83.00405075967106 L 372.93906016031684 88.51453749991299 L 374.7184881701866 86.06536495834821 L 372.1903100627649 84.22853604493423 L 382.46507179717435 70.08653975654404 L 384.99324990459604 71.92336866995802 L 386.7726779144659 69.47419612839323 L 379.18814359220073 63.9637093881513 L 377.40871558233096 66.41288192971608 L 379.93689368975265 68.24971084313006 L 369.66213195534317 82.39170713152025 L 367.1339538479215 80.55487821810628 L 365.3545258380517 83.00405075967106 Z M 362.20522085782716 65.98935561969778 L 362.20522085782716 65.98935561969778 Q 364.3290542889621 63.06614968299142 367.30066157614516 61.30208144225987 Q 370.27226886332824 59.53801320152831 373.546024128955 59.019501306022505 Q 376.81977939458176 58.50098941051671 380.19107293455056 59.26044085370578 Q 383.56236647451937 60.01989229689485 386.4855724112257 62.143725728029764 L 386.4855724112257 62.143725728029764 Q 389.40877834793207 64.26755915916468 391.1728465886636 67.23916644634775 Q 392.93691482939516 70.21077373353083 393.455426724901 73.48452899915759 Q 393.9739386204068 76.75828426478435 393.2144871772177 80.12957780475315 Q 392.4550357340286 83.50087134472193 390.3312023028937 86.42407728142828 L 390.3312023028937 86.42407728142828 Q 388.20736887175883 89.34728321813465 385.23576158457576 91.11135145886621 Q 382.2641542973927 92.87541969959776 378.9903990317659 93.39393159510357 Q 375.7166437661391 93.91244349060936 372.34535022617035 93.15299204742028 Q 368.97405668620155 92.39354060423122 366.05085074949517 90.26970717309631 L 366.05085074949517 90.26970717309631 Q 363.12764481278884 88.1458737419614 361.3635765720573 85.17426645477832 Q 359.5995083313257 82.20265916759524 359.08099643581994 78.92890390196848 Q 358.56248454031413 75.65514863634172 359.3219359835032 72.28385509637292 Q 360.0813874266923 68.91256155640414 362.20522085782716 65.98935561969778 Z" fill-opacity="1"/></g></g><g><g><path fill="rgb(244,244,245)" stroke="none" paint-order="stroke fill markers" d=" M 411.1400137701122 99.4553878837805 L 403.53321074716627 117.27727285174504 L 405.52622671337184 119.49074132606736 L 423.0525426657928 103.70997556086577 L 421.05952669958725 101.49650708654346 L 408.6858750644412 112.63779306156155 L 415.83194383740863 95.69068813750131 L 413.67556590675997 93.29578782102143 L 396.14924995433904 109.07655358622301 L 398.07692113476736 111.2174493236823 L 411.1400137701122 99.4553878837805 Z M 398.01123177346443 93.33920687705682 L 398.01123177346443 93.33920687705682 Q 400.6964230373964 90.92144980329923 403.96986398632606 89.81376258162155 Q 407.24330493525565 88.70607535994387 410.5533254786219 88.87954618600295 Q 413.8633460219881 89.05301701206201 417.00306987583053 90.49680395922914 Q 420.1427937296729 91.94059090639625 422.56055080343054 94.62578217032825 L 422.56055080343054 94.62578217032825 Q 424.9783078771881 97.31097343426023 426.0859950988658 100.58441438318985 Q 427.1936823205435 103.85785533211947 427.0202114944844 107.16787587548569 Q 426.84674066842535 110.47789641885191 425.4029537212582 113.61762027269434 Q 423.9591667740911 116.75734412653676 421.2739755101591 119.17510120029435 L 421.2739755101591 119.17510120029435 Q 418.58878424622714 121.59285827405195 415.3153432972975 122.70054549572961 Q 412.0419023483679 123.8082327174073 408.73188180500165 123.63476189134822 Q 405.42186126163546 123.46129106528915 402.282137407793 122.01750411812203 Q 399.1424135539506 120.57371717095492 396.724656480193 117.88852590702292 L 396.724656480193 117.88852590702292 Q 394.30689940643543 115.20333464309093 393.19921218475776 111.92989369416131 Q 392.0915249630801 108.65645274523169 392.2649957891391 105.34643220186547 Q 392.4384666151982 102.03641165849926 393.8822535623653 98.89668780465684 Q 395.32604050953245 95.75696395081441 398.01123177346443 93.33920687705682 Z" fill-opacity="1"/></g></g><g><g><path fill="rgb(244,244,245)" stroke="none" paint-order="stroke fill markers" d=" M 424.96513114913625 147.23599670325595 L 426.52763114913625 149.94232609008233 L 444.2879177501843 139.6884198400823 L 446.4363552501843 143.40962274696858 L 449.05811184367235 141.89595087196858 L 443.19873684367235 131.74721567136967 L 440.5769802501843 133.26088754636967 L 442.7254177501843 136.98209045325595 L 424.96513114913625 147.23599670325595 Z M 427.34844162391175 127.53588653577827 L 427.34844162391175 127.53588653577827 Q 430.4776349774298 125.72924591077827 433.9098445109253 125.32635095501482 Q 437.3420540444208 124.92345599925136 440.5436760845406 125.78132803937113 Q 443.7452981246604 126.6392000794909 446.5162312938969 128.70422211298643 Q 449.2871644631335 130.76924414648198 451.0938050881335 133.89843749999997 L 451.0938050881335 133.89843749999997 Q 452.9004457131335 137.02763085351796 453.3033406688969 140.4598403870135 Q 453.7062356246604 143.892049920509 452.8483635845406 147.0936719606288 Q 451.9904915444208 150.29529400074858 449.9254695109253 153.06622716998513 Q 447.8604474774298 155.83716033922167 444.73125412391175 157.64380096422167 L 444.73125412391175 157.64380096422167 Q 441.6020607703938 159.45044158922167 438.16985123689824 159.85333654498513 Q 434.73764170340274 160.25623150074858 431.53601966328296 159.3983594606288 Q 428.33439762316317 158.54048742050904 425.56346445392666 156.4754653870135 Q 422.7925312846901 154.41044335351796 420.9858906596901 151.28124999999997 L 420.9858906596901 151.28124999999997 Q 419.1792500346901 148.15205664648198 418.7763550789266 144.71984711298646 Q 418.37346012316317 141.2876375794909 419.23133216328296 138.08601553937115 Q 420.08920420340274 134.88439349925136 422.15422623689824 132.11346033001482 Q 424.2192482703938 129.34252716077827 427.34844162391175 127.53588653577827 Z" fill-opacity="1"/></g></g><g><g><path fill="rgb(244,244,245)" stroke="none" paint-order="stroke fill markers" d=" M 455.6791824278386 189.89644421235698 L 455.6791824278386 189.89644421235698 Q 457.0874203420588 189.4902209059628 459.07035094457285 188.64056398127144 Q 461.05328154708684 187.79090705658012 462.71466043990574 186.58366025546513 Q 464.3760393327247 185.37641345435017 465.2990939028854 183.79297162086004 Q 466.22214847304605 182.20952978736995 465.54198390859085 180.27420963648999 L 465.54198390859085 180.27420963648999 Q 464.87573591938974 178.53973143187739 463.43102293269163 177.64861252033515 Q 461.9863099459935 176.7574936087929 460.08124181938945 176.50369197418806 Q 458.1761736927853 176.24989033958323 456.04294195857386 176.5579623797735 Q 453.90971022436236 176.86603441996377 451.89777432616575 177.468411091928 L 451.89777432616575 177.468411091928 Q 446.5271916424405 179.11073732828194 444.23882102899637 181.54852466716068 Q 441.95045041555227 183.98631200603944 442.9010398025455 186.9119253130021 L 442.9010398025455 186.9119253130021 Q 443.42914501754177 188.53726603909243 444.62657775151274 189.45739024631726 Q 445.82401048548377 190.37751445354212 447.52010623301913 190.69921533007505 Q 449.21620198055444 191.02091620660795 451.2948649755048 190.78191555352012 Q 453.3735279704552 190.54291490043227 455.6791824278386 189.89644421235698 Z M 454.7912922129079 186.84777685161797 L 454.7912922129079 186.84777685161797 Q 451.13892686819247 187.93182043211874 448.7700617495783 187.75170418189472 Q 446.4011966309641 187.5715879316707 445.93461844285605 185.97759679161163 L 445.93461844285605 185.97759679161163 Q 445.4668681095736 184.53800929136017 447.29253929276314 183.0463465090341 Q 449.1182104759526 181.55468372670805 452.8019254066993 180.4091131193191 L 452.8019254066993 180.4091131193191 Q 453.97797178862083 180.07833341506722 455.501133323816 179.7887919474095 Q 457.0242948590112 179.49925047975177 458.46036592373963 179.4947110658923 Q 459.8964369884681 179.4901716520328 461.02077041064547 179.86929704734374 Q 462.1451038328228 180.2484224426547 462.49214440267747 181.31650349122836 L 462.49214440267747 181.31650349122836 Q 462.703386488676 181.9666397816645 462.2424452761828 182.68115887850573 Q 461.7815040636896 183.39567797534696 460.7644753188541 184.13685807752213 Q 459.74744657401857 184.8780381796973 458.20567988287195 185.5843522603182 Q 456.6639131917253 186.29066634093914 454.7912922129079 186.84777685161797 Z M 448.93467356315296 167.08483560090122 L 448.93467356315296 167.08483560090122 Q 452.3711082411725 165.96827028919486 455.81208233305165 166.28777604221696 Q 459.2530564249307 166.60728179523906 462.20635371556375 168.11206192473955 Q 465.1596510061968 169.61684205424004 467.44069041491923 172.2128478021251 Q 469.72172982364174 174.8088535500102 470.83829513534806 178.2452882280298 L 470.83829513534806 178.2452882280298 Q 471.95486044705444 181.6817229060494 471.63535469403234 185.12269699792847 Q 471.3158489410102 188.56367108980754 469.8110688115097 191.5169683804406 Q 468.30628868200927 194.47026567107366 465.71028293412417 196.7513050797961 Q 463.11427718623906 199.03234448851856 459.6778425082195 200.1489098002249 L 459.6778425082195 200.1489098002249 Q 456.2414078301999 201.26547511193127 452.8004337383208 200.94596935890917 Q 449.35945964644174 200.62646360588707 446.4061623558087 199.12168347638658 Q 443.4528650651756 197.6169033468861 441.17182565645317 195.02089759900102 Q 438.8907862477307 192.42489185111592 437.7742209360244 188.98845717309632 L 437.7742209360244 188.98845717309632 Q 436.657655624318 185.55202249507673 436.9771613773401 182.11104840319766 Q 437.2966671303622 178.6700743113186 438.8014472598627 175.71677702068553 Q 440.3062273893632 172.76347973005247 442.9022331372483 170.48244032133002 Q 445.49823888513333 168.20140091260757 448.93467356315296 167.08483560090122 Z" fill-opacity="1"/></g></g><g><g><path fill="rgb(244,244,245)" stroke="none" paint-order="stroke fill markers" d=" M 454.80036404737956 228.42551727070494 L 454.80036404737956 228.42551727070494 Q 454.77236575374445 227.69200375050025 455.3040541381069 227.14515020983157 Q 455.83574252246933 226.5982966691629 456.72777109826967 226.20995818408988 Q 457.61979967407007 225.8216196990169 458.69710227445984 225.561099381164 Q 459.77440487484967 225.30057906331112 460.78907437384703 225.14483591760853 L 460.78907437384703 225.14483591760853 Q 464.41070661503596 224.56779869463261 467.93900886645696 224.27060481065544 Q 471.4673111178779 223.97341092667827 474.973885014023 223.70304932684746 L 474.973885014023 223.70304932684746 L 474.662545352923 220.74085032208845 Q 470.7725902702702 221.10060399230545 467.1254383847288 221.43483801816998 Q 463.4782864991874 221.76907204403454 460.28859608392844 222.25161326775375 L 460.28859608392844 222.25161326775375 Q 458.69630284073423 222.51716419932453 457.0924891000051 222.90666869388622 Q 455.48867535927593 223.29617318844794 454.2605135965962 223.98987465687213 Q 453.03235183391644 224.68357612529636 452.3165554344533 225.8143966636737 Q 451.60075903499006 226.94521720205105 451.77939654545725 228.6448395818308 L 451.77939654545725 228.6448395818308 Q 451.97334584253593 230.49014387987742 452.93799543201186 231.4934395116451 Q 453.9026450214878 232.4967351434128 455.3261420361927 232.96083312781752 Q 456.74963905089766 233.42493111222225 458.4211165067371 233.4456400883147 Q 460.0925939625766 233.46634906440713 461.75386356067503 233.38993676165498 L 461.75386356067503 233.38993676165498 Q 464.5805885049082 233.19103016601107 468.3657664154107 232.76864339440164 Q 472.1509443259132 232.34625662279223 475.83134506426546 231.86123674979035 L 475.83134506426546 231.86123674979035 L 475.525109332036 228.9475983844536 Q 471.8396046648133 229.38405761803318 468.4748480827059 229.83590195337686 Q 465.11009150059846 230.28774628872054 461.6418703861347 230.45588268083628 L 461.6418703861347 230.45588268083628 Q 460.5684323899741 230.5196084765648 459.3876652572279 230.49642085118975 Q 458.2068981244817 230.47323322581468 457.2050617628132 230.28394796669085 Q 456.20322540114466 230.09466270756698 455.5183458355149 229.65112706894942 Q 454.8334662698851 229.2075914303319 454.80036404737956 228.42551727070494 Z M 461.82650567321 210.25757522136655 L 461.82650567321 210.25757522136655 Q 465.4199929904587 209.87988448495022 468.71934456128054 210.90782701219212 Q 472.01869613210243 211.93576953943403 474.5945954101554 214.02169164591987 Q 477.17049468820835 216.10761375240568 478.86194796861406 219.1211453064801 Q 480.55340124901977 222.13467686055446 480.9310919854361 225.7281641778031 L 480.9310919854361 225.7281641778031 Q 481.3087827218524 229.32165149505175 480.28084019461056 232.62100306587362 Q 479.25289766736864 235.9203546366955 477.1669755608828 238.49625391474845 Q 475.08105345439697 241.0721531928014 472.0675219003226 242.76360647320712 Q 469.0539903462482 244.45505975361286 465.46050302899954 244.83275049002918 L 465.46050302899954 244.83275049002918 Q 461.8670157117509 245.2104412264455 458.567664140929 244.18249869920362 Q 455.2683125701072 243.1545561719617 452.6924132920542 241.06863406547586 Q 450.11651401400127 238.98271195899005 448.42506073359556 235.96918040491565 Q 446.7336074531898 232.95564885084127 446.3559167167735 229.36216153359263 L 446.3559167167735 229.36216153359263 Q 445.97822598035714 225.76867421634398 447.00616850759906 222.4693226455221 Q 448.034111034841 219.16997107470024 450.1200331413268 216.59407179664728 Q 452.2059552478126 214.01817251859433 455.219486801887 212.32671923818862 Q 458.2330183559614 210.63526595778288 461.82650567321 210.25757522136655 Z" fill-opacity="1"/></g></g><g><g><path fill="rgb(244,244,245)" stroke="none" paint-order="stroke fill markers" d=" M 471.3140466214579 276.55054824922576 L 474.25087261216976 278.0375511142014 Q 474.66225209231254 277.3934296643829 474.876837050331 276.7531728187936 Q 475.09142200834947 276.11291597320434 475.21143765195865 275.4381709501629 L 475.21143765195865 275.4381709501629 Q 475.46925937507103 273.45228866272 474.55914710276613 271.8346224054785 Q 473.64903483046123 270.21695614823705 471.98120203339306 269.03516963630744 Q 470.31336923632495 267.8533831243778 468.1063387918939 267.1304440376772 Q 465.89930834746286 266.40750495097654 463.56839765519345 266.16251636519297 L 463.56839765519345 266.16251636519297 Q 461.5237468705872 265.99671199205466 459.5085536497153 266.25132894731144 Q 457.49336042884335 266.5059459025682 455.87438153180796 267.1949833330376 Q 454.25540263477257 267.884020763507 453.15403966012946 269.0202384913653 Q 452.05267668548635 270.1564562192236 451.8842470327602 271.75895732015886 L 451.8842470327602 271.75895732015886 Q 451.7923763130913 272.63304882975984 451.95227732363355 273.68089386641543 Q 452.1121783341758 274.72873890307096 452.884191266367 275.79182241118536 L 452.884191266367 275.79182241118536 L 455.6544797324143 274.65917602694583 Q 454.82107302347197 273.24596018513444 455.0790413768896 272.1929379044558 L 455.0790413768896 272.1929379044558 Q 455.21947273598073 271.3239503237253 455.9976089762259 270.6938280207243 Q 456.775745216471 270.0637057177234 457.91939889217724 269.6929377230867 Q 459.0630525678834 269.3221697284499 460.42398979634856 269.21972457527704 Q 461.78492702481367 269.1172794221041 463.1446249286375 269.26018943047785 L 463.1446249286375 269.26018943047785 Q 467.11638950352335 269.7758328767027 469.57016106444763 271.18751613326225 Q 472.02393262537186 272.5991993898218 472.13418030215576 274.8201556659178 L 472.13418030215576 274.8201556659178 Q 472.0933488711918 275.208640781296 471.8940756997848 275.70321570861853 Q 471.6948025283778 276.197790635941 471.3140466214579 276.55054824922576 L 471.3140466214579 276.55054824922576 Z M 465.46050302899954 255.16724950997076 L 465.46050302899954 255.16724950997076 Q 469.0539903462482 255.54494024638709 472.0675219003226 257.2363935267928 Q 475.08105345439697 258.92784680719853 477.1669755608828 261.50374608525146 Q 479.25289766736864 264.07964536330445 480.28084019461056 267.3789969341263 Q 481.3087827218524 270.6783485049482 480.9310919854361 274.2718358221968 L 480.9310919854361 274.2718358221968 Q 480.55340124901977 277.8653231394455 478.86194796861406 280.8788546935199 Q 477.17049468820835 283.89238624759423 474.5945954101554 285.97830835408007 Q 472.01869613210243 288.0642304605659 468.7193445612806 289.0921729878078 Q 465.4199929904587 290.1201155150497 461.82650567321 289.7424247786334 L 461.82650567321 289.7424247786334 Q 458.2330183559614 289.36473404221704 455.219486801887 287.6732807618113 Q 452.20595524781265 285.9818274814056 450.1200331413268 283.4059282033527 Q 448.034111034841 280.8300289252997 447.00616850759906 277.53067735447786 Q 445.97822598035714 274.23132578365596 446.3559167167735 270.6378384664073 L 446.3559167167735 270.6378384664073 Q 446.7336074531898 267.0443511491587 448.42506073359556 264.03081959508427 Q 450.11651401400127 261.0172880410099 452.6924132920542 258.9313659345241 Q 455.2683125701072 256.84544382803824 458.567664140929 255.81750130079632 Q 461.8670157117509 254.78955877355443 465.46050302899954 255.16724950997076 Z" fill-opacity="1"/></g></g><g><g><path fill="rgb(244,244,245)" stroke="none" paint-order="stroke fill markers" d=" M 441.1948422489548 318.18119967713915 L 463.6245442690016 325.46905164408736 L 464.5751336559949 322.5434383371247 L 454.6837743800736 319.32954088586183 L 456.47933211106084 313.80338241715464 L 466.3706913869821 317.0172798684175 L 467.32128077397533 314.0916665614549 L 444.8915787539285 306.80381459450666 L 443.94098936693524 309.7294279014693 L 453.5072804976385 312.83770430973294 L 451.71172276665123 318.36386277844014 L 442.145431635948 315.2555863701765 L 441.1948422489548 318.18119967713915 Z M 459.67784250821956 299.85109019977506 L 459.67784250821956 299.85109019977506 Q 463.1142771862391 300.96765551148144 465.7102829341242 303.2486949202039 Q 468.3062886820093 305.52973432892634 469.8110688115098 308.48303161955937 Q 471.31584894101024 311.43632891019246 471.63535469403234 314.8773030020715 Q 471.9548604470545 318.3182770939506 470.8382951353481 321.7547117719702 L 470.8382951353481 321.7547117719702 Q 469.7217298236418 325.1911464499898 467.44069041491935 327.7871521978749 Q 465.15965100619684 330.38315794576 462.2063537155638 331.8879380752604 Q 459.2530564249308 333.3927182047609 455.8120823330517 333.712223957783 Q 452.37110824117264 334.03172971080517 448.934673563153 332.9151643990988 L 448.934673563153 332.9151643990988 Q 445.4982388851334 331.7985990873924 442.90223313724834 329.51755967866995 Q 440.30622738936324 327.2365202699475 438.80144725986275 324.2832229793145 Q 437.29666713036227 321.32992568868144 436.97716137734017 317.88895159680237 Q 436.65765562431807 314.44797750492324 437.77422093602445 311.0115428269037 L 437.77422093602445 311.0115428269037 Q 438.8907862477308 307.57510814888406 441.1718256564532 304.979102400999 Q 443.4528650651757 302.3830966531139 446.40616235580876 300.8783165236134 Q 449.3594596464418 299.37353639411293 452.80043373832086 299.05403064109083 Q 456.24140783019993 298.73452488806873 459.67784250821956 299.85109019977506 Z" fill-opacity="1"/></g></g><g><g><path fill="rgb(244,244,245)" stroke="none" paint-order="stroke fill markers" d=" M 432.65984631803605 361.6043344244386 L 435.46746350553605 356.741398807485 L 433.0148524987246 355.325383182485 L 431.6964931237246 357.60884860261973 Q 430.34332843031143 356.82759860261973 429.55297035025905 356.14575770344305 Q 428.76261227020666 355.46391680426643 428.4171377805921 354.8415930479977 Q 428.0716632909776 354.219269291729 428.11657896388175 353.6531918142028 Q 428.16149463678596 353.08711433667656 428.47887744928596 352.5373911799775 L 428.47887744928596 352.5373911799775 Q 429.27799978345513 351.25092694573345 431.62840050024033 351.8185853611152 Q 433.97880121702553 352.38624377649694 437.29501249138934 354.3572411106661 L 437.29501249138934 354.3572411106661 Q 438.32775834561835 355.0098790698352 439.61988788278154 355.89684506150815 Q 440.91201741994473 356.78381105318107 441.9340742562659 357.7967598094498 Q 442.956131092587 358.8097085657185 443.4511259838856 359.85664913950217 Q 443.9461208751843 360.90358971328584 443.3845974376843 361.87617683667656 L 443.3845974376843 361.87617683667656 Q 443.0362588343535 362.57717324588316 442.3302387101581 362.6769890971556 Q 441.62421858596275 362.7768049484281 439.70824727918875 361.89614584760477 L 439.70824727918875 361.89614584760477 L 438.19457540418875 364.5179024410928 Q 441.05217804352264 366.11135823192365 443.07345859152036 365.78422575144083 Q 445.09473913951814 365.457093270958 446.15762728367986 363.42080450250745 L 446.15762728367986 363.42080450250745 Q 447.0007888653415 361.76509330407924 446.6263462732008 360.1675531481848 Q 446.25190368106007 358.57001299229034 445.0925334743048 357.11130422017203 Q 443.93316326754956 355.6525954480538 442.227982356191 354.3580085476234 Q 440.52280144483245 353.063421647193 438.72890045055846 351.97133056302386 L 438.72890045055846 351.97133056302386 Q 433.91479295860483 349.0791405821855 430.72170033512054 348.70153611433375 Q 427.52860771163625 348.3239316464819 425.9238213149671 351.0058469708083 L 425.9238213149671 351.0058469708083 Q 425.1669853774671 352.31672526755233 425.088484637497 353.6245675376122 Q 425.009983897527 354.9324098076721 425.7855056700943 356.22588544520954 Q 426.5610274426617 357.51936108274697 428.24179429152025 358.8562343798465 Q 429.92256114037883 360.1931076769461 432.65984631803605 361.6043344244386 L 432.65984631803605 361.6043344244386 Z M 444.73125412391175 342.3561990357783 L 444.73125412391175 342.3561990357783 Q 447.8604474774298 344.1628396607783 449.9254695109253 346.9337728300148 Q 451.9904915444208 349.7047059992513 452.8483635845406 352.9063280393711 Q 453.7062356246604 356.1079500794909 453.3033406688969 359.54015961298643 Q 452.9004457131335 362.9723691464819 451.0938050881335 366.10156249999994 L 451.0938050881335 366.10156249999994 Q 449.2871644631335 369.2307558535179 446.5162312938969 371.29577788701346 Q 443.7452981246604 373.360799920509 440.5436760845406 374.2186719606288 Q 437.3420540444208 375.0765440007485 433.9098445109253 374.6736490449851 Q 430.4776349774298 374.2707540892216 427.3484416239118 372.4641134642216 L 427.3484416239118 372.4641134642216 Q 424.2192482703938 370.6574728392216 422.15422623689824 367.8865396699851 Q 420.08920420340274 365.1156065007485 419.23133216328296 361.9139844606288 Q 418.37346012316317 358.712362420509 418.77635507892666 355.28015288701346 Q 419.1792500346901 351.84794335351796 420.9858906596901 348.71874999999994 L 420.9858906596901 348.71874999999994 Q 422.7925312846901 345.5895566464819 425.5634644539266 343.52453461298643 Q 428.33439762316317 341.4595125794909 431.53601966328296 340.6016405393711 Q 434.73764170340274 339.7437684992513 438.16985123689824 340.1466634550148 Q 441.6020607703938 340.5495584107783 444.73125412391175 342.3561990357783 Z" fill-opacity="1"/></g></g><g><g><path fill="rgb(244,244,245)" stroke="none" paint-order="stroke fill markers" d=" M 421.2739755101592 380.82489879970564 L 421.2739755101592 380.82489879970564 Q 423.95916677409116 383.2426558734632 425.40295372125826 386.38237972730565 Q 426.8467406684254 389.52210358114803 427.02021149448444 392.8321241245143 Q 427.19368232054353 396.1421446678805 426.08599509886585 399.4155856168101 Q 424.9783078771882 402.6890265657397 422.5605508034306 405.3742178296717 L 422.5605508034306 405.3742178296717 Q 420.14279372967303 408.05940909360373 417.0030698758306 409.50319604077083 Q 413.86334602198815 410.94698298793793 410.55332547862196 411.120453813997 Q 407.2433049352557 411.2939246400561 403.9698639863261 410.1862374183784 Q 400.69642303739647 409.07855019670075 398.0112317734645 406.6607931229432 L 398.0112317734645 406.6607931229432 Q 395.3260405095325 404.24303604918555 393.8822535623654 401.10331219534316 Q 392.43846661519825 397.9635883415007 392.2649957891392 394.6535677981345 Q 392.09152496308013 391.3435472547683 393.1992121847578 388.07010630583864 Q 394.3068994064355 384.79666535690905 396.72465648019306 382.11147409297706 L 396.72465648019306 382.11147409297706 Q 399.14241355395063 379.4262828290451 402.2821374077931 377.9824958818779 Q 405.4218612616355 376.5387089347108 408.7318818050017 376.36523810865174 Q 412.04190234836796 376.19176728259265 415.31534329729755 377.29945450427033 Q 418.5887842462272 378.407141725948 421.2739755101592 380.82489879970564 Z M 415.4035887543138 404.7120758907882 L 421.54599861737364 397.8902386256637 L 404.05596903338414 382.1421452533507 L 397.91355917032433 388.96398251847523 L 400.2358867499412 391.05501566334664 L 404.2183047068095 386.5591199533819 L 408.75410076074866 390.6431690644589 L 405.3888442932212 394.3806650129048 L 407.71117187283807 396.47169815777625 L 411.0764283403655 392.73420220933036 L 417.17253823685974 398.22316421461784 L 413.15383391155996 402.686387531694 L 415.4035887543138 404.7120758907882 Z" fill-opacity="1"/></g></g><g><g><path fill="rgb(244,244,245)" stroke="none" paint-order="stroke fill markers" d=" M 370.48988761875205 413.2648905099568 L 367.96170951133035 415.10171942337075 L 380.01589925560955 431.69288825332575 L 376.53965435790474 434.21852800926996 L 378.3190823677745 436.66770055083475 L 387.79975027060595 429.7795921255323 L 386.0203222607361 427.3304195839675 L 382.5440773630313 429.8560593399117 L 370.48988761875205 413.2648905099568 Z M 390.3312023028937 413.5759227185717 L 390.3312023028937 413.5759227185717 Q 392.4550357340286 416.499128655278 393.2144871772177 419.8704221952468 Q 393.9739386204068 423.2417157352156 393.455426724901 426.51547100084235 Q 392.93691482939516 429.78922626646914 391.1728465886636 432.7608335536522 Q 389.40877834793207 435.7324408408353 386.4855724112257 437.8562742719702 L 386.4855724112257 437.8562742719702 Q 383.56236647451937 439.9801077031051 380.19107293455056 440.7395591462942 Q 376.81977939458176 441.49901058948325 373.546024128955 440.98049869397744 Q 370.27226886332824 440.4619867984717 367.30066157614516 438.6979185577401 Q 364.3290542889621 436.93385031700853 362.20522085782716 434.0106443803022 L 362.20522085782716 434.0106443803022 Q 360.0813874266923 431.08743844359583 359.3219359835032 427.716144903627 Q 358.56248454031413 424.3448513636583 359.08099643581994 421.0710960980315 Q 359.5995083313257 417.7973408324047 361.3635765720573 414.8257335452217 Q 363.12764481278884 411.8541262580386 366.05085074949517 409.7302928269037 L 366.05085074949517 409.7302928269037 Q 368.97405668620155 407.60645939576875 372.34535022617035 406.8470079525797 Q 375.7166437661391 406.0875565093906 378.9903990317659 406.6060684048964 Q 382.2641542973927 407.1245803004022 385.23576158457576 408.88864854113376 Q 388.2073688717588 410.6527167818653 390.3312023028937 413.5759227185717 Z" fill-opacity="1"/></g></g><g><g><path fill="rgb(244,244,245)" stroke="none" paint-order="stroke fill markers" d=" M 336.9454714521957 433.3979244374256 L 328.3809827867963 437.2110804662612 L 329.61231442110784 439.97669659779643 L 332.46714397624095 438.70564458818455 L 339.5770911550074 454.6748474122105 L 336.72226159987423 455.9458994218224 L 337.95359323418575 458.7115155533576 L 346.5180818995851 454.89835952452194 L 345.2867502652736 452.13274339298675 L 342.4319207101405 453.40379540259863 L 335.32197353137406 437.4345925785727 L 338.1768030865072 436.1635405689608 L 336.9454714521957 433.3979244374256 Z M 353.25528217117244 439.17789389027297 L 353.25528217117244 439.17789389027297 Q 354.7249360572862 442.4787905633956 354.7668603241775 445.9343120845329 Q 354.8087845910688 449.38983360567016 353.6209514319279 452.4842447792289 Q 352.43311827278694 455.5786559527877 350.08976726006006 458.1185560804205 Q 347.7464162473332 460.6584562080533 344.4455195742105 462.128110094167 L 344.4455195742105 462.128110094167 Q 341.1446229010878 463.5977639802808 337.6891013799505 463.6396882471721 Q 334.23357985881324 463.6816125140634 331.1391686852545 462.4937793549225 Q 328.04475751169576 461.30594619578153 325.5048573840629 458.96259518305465 Q 322.9649572564301 456.61924417032776 321.4953033703164 453.3183474972051 L 321.4953033703164 453.3183474972051 Q 320.0256494842027 450.0174508240824 319.98372521731136 446.5619293029451 Q 319.94180095042003 443.10640778180783 321.129634109561 440.0119966082491 Q 322.3174672687019 436.91758543469035 324.66081828142876 434.3776853070575 Q 327.0041692941557 431.8377851794247 330.3050659672784 430.36813129331097 L 330.3050659672784 430.36813129331097 Q 333.605962640401 428.8984774071973 337.0614841615383 428.85655314030595 Q 340.5170056826756 428.8146288734146 343.6114168562343 430.00246203255557 Q 346.7058280297931 431.19029519169646 349.2457281574259 433.5336462044234 Q 351.7856282850587 435.8769972171503 353.25528217117244 439.17789389027297 Z" fill-opacity="1"/></g></g><g><g><path fill="rgb(244,244,245)" stroke="none" paint-order="stroke fill markers" d=" M 299.8054516104647 464.8236515492012 L 288.17464799635627 449.3250244057635 L 285.2612200840144 449.94429262548437 L 290.16460615164027 473.01291035763415 L 293.07803406398216 472.3936421379133 L 289.6162231963622 456.1071024967889 L 300.719812194715 470.7693320533996 L 303.87204567364233 470.0993041435376 L 298.96865960601644 447.0306864113878 L 296.1507539203087 447.62965075505224 L 299.8054516104647 464.8236515492012 Z M 311.6666107347551 456.5118833227183 L 311.6666107347551 456.5118833227183 Q 312.4178541488427 460.04620570818224 311.74041894779816 463.43493233858237 Q 311.0629837467536 466.8236589689825 309.2577433328879 469.6034854335565 Q 307.4525029190222 472.38331189813044 304.63228481820187 474.3804990428424 Q 301.8120667173815 476.3776861875544 298.2777443319176 477.12892960164197 L 298.2777443319176 477.12892960164197 Q 294.7434219464537 477.8801730157296 291.35469531605355 477.20273781468507 Q 287.9659686856534 476.5253026136405 285.1861422210794 474.72006219977476 Q 282.4063157565054 472.91482178590906 280.40912861179345 470.0946036850887 Q 278.41194146708153 467.27438558426843 277.6606980529939 463.7400631988045 L 277.6606980529939 463.7400631988045 Q 276.9094546389063 460.2057408133405 277.58688983995086 456.8170141829404 Q 278.2643250409954 453.42828755254027 280.0695654548611 450.64846108796627 Q 281.87480586872687 447.8686346233923 284.69502396954715 445.87144747868035 Q 287.5152420703675 443.8742603339684 291.04956445583144 443.1230169198808 L 291.04956445583144 443.1230169198808 Q 294.5838868412954 442.37177350579316 297.9726134716955 443.0492087068377 Q 301.3613401020956 443.72664390788225 304.1411665666696 445.53188432174795 Q 306.9209930312436 447.3371247356137 308.91818017595557 450.15734283643405 Q 310.9153673206675 452.97756093725434 311.6666107347551 456.5118833227183 Z" fill-opacity="1"/></g></g><g><g><path fill="rgb(244,244,245)" stroke="none" paint-order="stroke fill markers" d=" M 251.51367187500003 452.90625 L 248.38867187500003 452.90625 L 248.38867187500003 473.4140625 L 244.09179687500003 473.4140625 L 244.09179687500003 476.44140625 L 255.81054687500003 476.44140625 L 255.81054687500003 473.4140625 L 251.51367187500003 473.4140625 L 251.51367187500003 452.90625 Z M 267.38281250000006 464.8203125 L 267.38281250000006 464.8203125 Q 267.38281250000006 468.43359375 266.01562500000006 471.607421875 Q 264.64843750000006 474.78125 262.30468750000006 477.125 Q 259.96093750000006 479.46875 256.78710937500006 480.8359375 Q 253.61328125000003 482.203125 250.00000000000003 482.203125 L 250.00000000000003 482.203125 Q 246.38671875000003 482.203125 243.21289062500003 480.8359375 Q 240.03906250000003 479.46875 237.69531250000003 477.125 Q 235.35156250000003 474.78125 233.98437500000003 471.607421875 Q 232.61718750000003 468.43359375 232.61718750000003 464.8203125 L 232.61718750000003 464.8203125 Q 232.61718750000003 461.20703125 233.98437500000003 458.033203125 Q 235.35156250000003 454.859375 237.69531250000003 452.515625 Q 240.03906250000003 450.171875 243.21289062500003 448.8046875 Q 246.38671875000003 447.4375 250.00000000000003 447.4375 L 250.00000000000003 447.4375 Q 253.61328125000003 447.4375 256.787109375 448.8046875 Q 259.9609375 450.171875 262.3046875 452.515625 Q 264.6484375 454.859375 266.015625 458.033203125 Q 267.3828125 461.20703125 267.38281250000006 464.8203125 Z" fill-opacity="1"/></g></g><g><g><path fill="rgb(244,244,245)" stroke="none" paint-order="stroke fill markers" d=" M 199.21161495595481 458.1751749059437 L 199.21161495595481 458.1751749059437 Q 198.8592957017914 459.59785636742794 198.60365488181847 461.7399531054923 Q 198.3480140618455 463.8820498435567 198.56283101383912 465.9244695706066 Q 198.77764796583273 467.96688929765656 199.68742153396983 469.5579989212401 Q 200.59719510210692 471.1491085448236 202.61331379945253 471.5277288286914 L 202.61331379945253 471.5277288286914 Q 204.44853998155799 471.81798024712924 205.94262809009535 471.01238155524254 Q 207.43671619863275 470.20678286335584 208.60904892502458 468.68384628707906 Q 209.78138165141644 467.1609097108023 210.58119930552172 465.15944081672086 Q 211.381016959627 463.15797192263943 211.86531140815714 461.1143959880332 L 211.86531140815714 461.1143959880332 Q 213.12830650803556 455.64217183262537 212.16130605026456 452.4414910786696 Q 211.19430559249358 449.24081032471383 208.1853554535175 448.60123822893655 L 208.1853554535175 448.60123822893655 Q 206.51371648741969 448.24592039794913 205.11814918234046 448.8228654612787 Q 203.7225818772612 449.3998105246082 202.5959328719963 450.70782209095813 Q 201.46928386673142 452.015833657308 200.63693300635137 453.9355089433856 Q 199.80458214597132 455.8551842294632 199.21161495595481 458.1751749059437 Z M 202.29578344550862 458.93057310441156 L 202.29578344550862 458.93057310441156 Q 203.18315683834325 455.22551014173575 204.52357464597873 453.264070895989 Q 205.8639924536142 451.3026316502423 207.4777183683667 451.69555865651853 L 207.4777183683667 451.69555865651853 Q 208.9583128811962 452.0102687353931 209.33729515297563 454.3371777501554 Q 209.71627742475505 456.6640867649177 208.8665132072093 460.4270627789388 L 208.8665132072093 460.4270627789388 Q 208.56495364318695 461.61093867383767 208.05412314203 463.0748059912128 Q 207.543292640873 464.53867330858805 206.8291883562294 465.7846170392124 Q 206.11508407158576 467.0305607698367 205.22458513693797 467.81469937811073 Q 204.3340862022902 468.59883798638475 203.23558059599736 468.36534341173586 L 203.23558059599736 468.36534341173586 Q 202.56692500955822 468.22321627934093 202.1786039264512 467.46676993125004 Q 201.79028284334416 466.71032358315915 201.65691641849867 465.458960802665 Q 201.5235499936532 464.2075980221708 201.68274740235816 462.5192318606187 Q 201.84194481106312 460.8308656990666 202.29578344550862 458.93057310441156 Z M 222.33930194700622 463.7400631988045 L 222.33930194700622 463.7400631988045 Q 221.5880585329186 467.27438558426843 219.59087138820666 470.0946036850887 Q 217.5936842434947 472.91482178590906 214.81385777892072 474.72006219977476 Q 212.03403131434675 476.5253026136405 208.64530468394662 477.20273781468507 Q 205.2565780535465 477.8801730157296 201.72225566808254 477.12892960164197 L 201.72225566808254 477.12892960164197 Q 198.1879332826186 476.3776861875544 195.36771518179827 474.3804990428424 Q 192.54749708097796 472.38331189813044 190.74225666711223 469.6034854335565 Q 188.9370162532465 466.8236589689825 188.25958105220195 463.43493233858237 Q 187.5821458511574 460.04620570818224 188.333389265245 456.5118833227183 L 188.333389265245 456.5118833227183 Q 189.0846326793326 452.97756093725434 191.08181982404457 450.15734283643405 Q 193.07900696875652 447.3371247356137 195.85883343333052 445.531884321748 Q 198.6386598979045 443.72664390788225 202.02738652830462 443.0492087068377 Q 205.41611315870475 442.37177350579316 208.9504355441687 443.1230169198808 L 208.9504355441687 443.1230169198808 Q 212.48475792963265 443.8742603339684 215.30497603045296 445.87144747868035 Q 218.12519413127328 447.8686346233923 219.930434545139 450.64846108796627 Q 221.73567495900474 453.42828755254027 222.41311016004929 456.8170141829404 Q 223.09054536109383 460.2057408133405 222.33930194700622 463.7400631988045 Z" fill-opacity="1"/></g></g><g><g><path fill="rgb(244,244,245)" stroke="none" paint-order="stroke fill markers" d=" M 166.28386809338843 438.1495593339794 L 166.28386809338843 438.1495593339794 Q 166.93310858272258 438.49206886053116 167.1408534489099 439.22595127862047 Q 167.34859831509723 439.9598336967098 167.23889502053743 440.92652234679105 Q 167.12919172597762 441.8932109968723 166.81615763924532 442.9564425752994 Q 166.50312355251302 444.0196741537264 166.13066632365806 444.97627528915467 L 166.13066632365806 444.97627528915467 Q 164.81957909708998 448.40121942467704 163.3128054247531 451.605415748626 Q 161.8060317524162 454.80961207257496 160.28688481800495 457.98157494679936 L 160.28688481800495 457.98157494679936 L 163.0078942377412 459.1930463934607 Q 164.641315961555 455.6443696371945 166.17543674711789 452.318726439923 Q 167.70955753268075 448.99308324265155 168.88650978219613 445.98945970097 L 168.88650978219613 445.98945970097 Q 169.45268255105432 444.47771783630407 169.91726863424026 442.8940221466132 Q 170.38185471742617 441.3103264569224 170.3951725044681 439.89985643627296 Q 170.40849029151005 438.4893864156235 169.78706917788566 437.3040782805623 Q 169.16564806426126 436.11877014550106 167.60441315129785 435.42366357774455 L 167.60441315129785 435.42366357774455 Q 165.90935810293755 434.6689764470375 164.5581538035828 435.00273968139004 Q 163.20694950422808 435.3365029157426 162.09328035253594 436.337238500486 Q 160.9796112008438 437.33797408522946 160.12593797354168 438.7751615357932 Q 159.27226474623956 440.2123489863569 158.50780494253533 441.689256812221 L 158.50780494253533 441.689256812221 Q 157.26670063522667 444.23672572126003 155.73990935441168 447.7259793354036 Q 154.21311807359666 451.2152329495472 152.79295723578048 454.6450634215682 L 152.79295723578048 454.6450634215682 L 155.4693599437178 455.83667468057934 Q 156.93412749333294 452.42670439620855 158.22519711142291 449.2868175508808 Q 159.5162667295129 446.146930705553 161.1047668998719 443.05929491842795 L 161.1047668998719 443.05929491842795 Q 161.58629773997492 442.0978074465011 162.19676237897625 441.0868269262768 Q 162.80722701797757 440.0758464060524 163.47207104177502 439.30287329597445 Q 164.13691506557245 438.52990018589645 164.8634679789139 438.158544902837 Q 165.59002089225532 437.7871896197775 166.28386809338843 438.1495593339794 Z M 178.50469662968374 453.31834749720514 L 178.50469662968374 453.31834749720514 Q 177.03504274357002 456.6192441703278 174.4951426159372 458.9625951830547 Q 171.9552424883044 461.3059461957816 168.86083131474564 462.49377935492254 Q 165.7664201411869 463.68161251406343 162.3108986200496 463.63968824717216 Q 158.85537709891233 463.59776398028083 155.55448042578965 462.1281100941671 L 155.55448042578965 462.1281100941671 Q 152.25358375266697 460.6584562080534 149.91023273994008 458.11855608042055 Q 147.5668817272132 455.57865595278776 146.37904856807225 452.484244779229 Q 145.19121540893133 449.3898336056703 145.23313967582263 445.93431208453296 Q 145.27506394271396 442.4787905633957 146.74471782882767 439.177893890273 L 146.74471782882767 439.177893890273 Q 148.21437171494142 435.87699721715035 150.7542718425742 433.53364620442346 Q 153.294171970207 431.1902951916966 156.38858314376577 430.0024620325556 Q 159.4829943173245 428.8146288734147 162.9385158384618 428.856553140306 Q 166.39403735959908 428.89847740719733 169.69493403272176 430.368131293311 L 169.69493403272176 430.368131293311 Q 172.99583070584444 431.83778517942477 175.33918171857133 434.37768530705756 Q 177.6825327312982 436.91758543469035 178.87036589043916 440.01199660824915 Q 180.05819904958008 443.1064077818079 180.01627478268878 446.56192930294515 Q 179.97435051579745 450.01745082408246 178.50469662968374 453.31834749720514 Z" fill-opacity="1"/></g></g><g><g><path fill="rgb(244,244,245)" stroke="none" paint-order="stroke fill markers" d=" M 116.3495274210371 428.38831246390333 L 113.59333216911207 430.18817694586636 Q 113.94546796770591 430.8665027511749 114.3926541819239 431.37246719888356 Q 114.83984039614188 431.8784316465922 115.36417890536829 432.31974075433 L 115.36417890536829 432.31974075433 Q 116.95509255366323 433.53596205991425 118.81108876343168 433.556614840423 Q 120.66708497320013 433.57726762093165 122.52445851291506 432.7237753053706 Q 124.38183205262997 431.8702829898096 126.11143088931696 430.3204081013569 Q 127.84102972600395 428.7705332129043 129.21865141106443 426.874399632338 L 129.21865141106443 426.874399632338 Q 130.3845676025639 425.1865822975704 131.17165946151326 423.3140652971327 Q 131.95875132046262 421.44154829669503 132.17151685003546 419.69495272843676 Q 132.38428237960827 417.9483571601785 131.9509704503743 416.42643998142086 Q 131.51765852114033 414.90452280266317 130.214066684501 413.9574078941841 L 130.214066684501 413.9574078941841 Q 129.50301659178865 413.4407997622864 128.5156056655444 413.055355581179 Q 127.52819473930013 412.6699114000716 126.22153094883316 412.80695245734205 L 126.22153094883316 412.80695245734205 L 125.81728725806559 415.77241583686987 Q 127.45787143257598 415.7572723761471 128.24083130168592 416.50719066391855 L 128.24083130168592 416.50719066391855 Q 128.92318094262617 417.0633015787447 129.07981474439356 418.0522484819028 Q 129.23644854616094 419.04119538506086 128.9857162105735 420.2170125186722 Q 128.73498387498603 421.39282965228364 128.14323536589578 422.62265844167683 Q 127.55148685680552 423.8524872310701 126.74787420718691 424.95856515306707 L 126.74787420718691 424.95856515306707 Q 124.31543159601833 428.140392449657 121.86599225327846 429.5595793282214 Q 119.4165529105386 430.9787662067858 117.43802451635305 429.9637653575408 L 117.43802451635305 429.9637653575408 Q 117.12200225292534 429.7341617433641 116.79332438749275 429.3142986509717 Q 116.46464652206015 428.89443555857935 116.3495274210371 428.38831246390333 L 116.3495274210371 428.38831246390333 Z M 137.79477914217287 434.01064438030227 L 137.79477914217287 434.01064438030227 Q 135.67094571103797 436.9338503170086 132.6993384238549 438.69791855774014 Q 129.72773113667182 440.46198679847174 126.45397587104506 440.98049869397755 Q 123.1802206054183 441.4990105894833 119.8089270654495 440.73955914629425 Q 116.4376335254807 439.9801077031052 113.51442758877435 437.8562742719703 L 113.51442758877435 437.8562742719703 Q 110.591221652068 435.73244084083535 108.82715341133644 432.7608335536523 Q 107.0630851706049 429.7892262664692 106.54457327509908 426.51547100084247 Q 106.02606137959329 423.2417157352157 106.78551282278235 419.8704221952469 Q 107.54496426597143 416.49912865527807 109.66879769710634 413.57592271857175 L 109.66879769710634 413.57592271857175 Q 111.79263112824125 410.65271678186537 114.76423841542433 408.8886485411338 Q 117.73584570260739 407.1245803004023 121.00960096823417 406.60606840489646 Q 124.28335623386093 406.08755650939065 127.65464977382972 406.84700795257976 Q 131.0259433137985 407.6064593957688 133.94914925050486 409.73029282690374 L 133.94914925050486 409.73029282690374 Q 136.8723551872112 411.85412625803866 138.6364234279428 414.82573354522174 Q 140.40049166867433 417.79734083240476 140.91900356418014 421.07109609803155 Q 141.43751545968593 424.34485136365834 140.67806401649688 427.7161449036271 Q 139.9186125733078 431.0874384435959 137.79477914217287 434.01064438030227 Z" fill-opacity="1"/></g></g><g><g><path fill="rgb(244,244,245)" stroke="none" paint-order="stroke fill markers" d=" M 95.35592789462082 381.4889906215835 L 77.82961194219986 397.2697563867851 L 79.88797269418268 399.55579759797047 L 87.61696917009503 392.59657791269524 L 91.50498392384034 396.9146557560453 L 83.775987447928 403.87387544132054 L 85.8343481999108 406.1599166525059 L 103.36066415233178 390.3791508873043 L 101.30230340034896 388.09310967611896 L 93.8273115034572 394.8236226111739 L 89.93929674971189 390.5055447678238 L 97.41428864660364 383.7750318327689 L 95.35592789462082 381.4889906215835 Z M 101.9887682265356 406.66079312294323 L 101.9887682265356 406.66079312294323 Q 99.30357696260361 409.0785501967008 96.030136013674 410.1862374183785 Q 92.75669506474438 411.29392464005616 89.44667452137816 411.1204538139971 Q 86.13665397801194 410.94698298793804 82.99693012416952 409.5031960407709 Q 79.8572062703271 408.0594090936038 77.4394491965695 405.3742178296718 L 77.4394491965695 405.3742178296718 Q 75.0216921228119 402.6890265657398 73.91400490113423 399.4155856168102 Q 72.80631767945655 396.1421446678806 72.97978850551561 392.83212412451434 Q 73.15325933157469 389.52210358114814 74.5970462787418 386.3823797273057 Q 76.04083322590893 383.24265587346326 78.72602448984091 380.8248987997057 L 78.72602448984091 380.8248987997057 Q 81.41121575377291 378.40714172594807 84.68465670270253 377.29945450427044 Q 87.95809765163214 376.19176728259276 91.26811819499837 376.3652381086518 Q 94.57813873836459 376.5387089347109 97.71786259220701 377.982495881878 Q 100.85758644604942 379.42628282904514 103.27534351980702 382.1114740929771 L 103.27534351980702 382.1114740929771 Q 105.69310059356462 384.7966653569091 106.80078781524229 388.0701063058387 Q 107.90847503691997 391.34354725476834 107.7350042108609 394.65356779813453 Q 107.56153338480183 397.9635883415008 106.11774643763471 401.10331219534316 Q 104.6739594904676 404.2430360491856 101.9887682265356 406.66079312294323 Z" fill-opacity="1"/></g></g><g><g><path fill="rgb(244,244,245)" stroke="none" paint-order="stroke fill markers" d=" M 62.017888056964004 352.38589995056145 L 64.82550524446401 357.2488355675151 L 67.2781162512754 355.8328199425151 L 65.9597568762754 353.5493545223803 Q 67.31292156968858 352.7681045223803 68.298592149741 352.424554796557 Q 69.2842627297934 352.0810050707336 69.99594815690791 352.09297726450234 Q 70.70763358402245 352.10494945827105 71.17541322361826 352.4268863107973 Q 71.64319286321407 352.7488231633235 71.96057567571407 353.2985463200226 L 71.96057567571407 353.2985463200226 Q 72.67512521654491 354.6338386792666 71.00831824975971 356.38551620138486 Q 69.34151128297452 358.1371937235031 65.97647188361071 360.023618264334 L 65.97647188361071 360.023618264334 Q 64.89489790438166 360.59168343016484 63.48069805471848 361.2672174384919 Q 62.0664982050553 361.942751446819 60.67823043123417 362.3214042530503 Q 59.28996265741306 362.70005705928156 58.1357880786144 362.6052649229979 Q 56.98161349981574 362.5104727867142 56.42009006231574 361.5378856633235 L 56.42009006231574 361.5378856633235 Q 55.987178665646574 360.8857173791169 56.25374566484194 360.22437809034443 Q 56.520312664037306 359.56303880157196 58.24097147081127 358.34408852739534 L 58.24097147081127 358.34408852739534 L 56.72729959581126 355.7223319339073 Q 53.91852508147741 357.4003605180764 53.19118984597965 359.3144070610592 Q 52.46385461048188 361.22845360404204 53.695888341320206 363.16708612249266 L 53.695888341320206 363.16708612249266 Q 54.70819550965853 364.7251410709208 56.278927164299255 365.1996343518153 Q 57.849658818939986 365.6741276327097 59.69262277569524 365.399437967328 Q 61.53558673245049 365.1247483019463 63.509322331309036 364.29531176487666 Q 65.48305793016759 363.46587522780703 67.32578704944154 362.4583569369762 L 67.32578704944154 362.4583569369762 Q 72.2375507913952 359.73531254281454 74.16111216487948 357.1588154481663 Q 76.08467353836379 354.58231835351813 74.56445993503296 351.85157490419175 L 74.56445993503296 351.85157490419175 Q 73.80762399753296 350.5406966074477 72.71424973750301 349.81879183738783 Q 71.62087547747306 349.09688706732794 70.11293182990569 349.1217708047905 Q 68.6049881823383 349.1466545422531 66.60683852097976 349.93380468265354 Q 64.60868885962121 350.72095482305394 62.017888056964004 352.38589995056145 L 62.017888056964004 352.38589995056145 Z M 72.65155837608826 372.4641134642218 L 72.65155837608826 372.4641134642218 Q 69.52236502257027 374.2707540892218 66.09015548907473 374.67364904498527 Q 62.65794595557921 375.07654400074875 59.45632391545943 374.21867196062897 Q 56.25470187533965 373.3607999205092 53.48376870610311 371.2957778870136 Q 50.71283553686657 369.23075585351813 48.90619491186657 366.1015625000001 L 48.90619491186657 366.1015625000001 Q 47.09955428686657 362.97236914648215 46.696659331103106 359.5401596129866 Q 46.29376437533964 356.10795007949105 47.151636415459414 352.9063280393713 Q 48.009508455579194 349.70470599925153 50.074530489074725 346.93377283001496 Q 52.139552522570256 344.16283966077845 55.268745876088246 342.35619903577845 L 55.268745876088246 342.35619903577845 Q 58.39793922960624 340.54955841077845 61.83014876310177 340.14666345501496 Q 65.2623582965973 339.74376849925153 68.46398033671709 340.60164053937126 Q 71.66560237683686 341.45951257949105 74.4365355460734 343.5245346129866 Q 77.20746871530993 345.58955664648215 79.01410934030994 348.7187500000001 L 79.01410934030994 348.7187500000001 Q 80.82074996530994 351.8479433535181 81.2236449210734 355.2801528870136 Q 81.62653987683687 358.7123624205092 80.76866783671709 361.91398446062897 Q 79.91079579659731 365.11560650074875 77.84577376310179 367.88653966998527 Q 75.78075172960625 370.6574728392218 72.65155837608826 372.4641134642218 Z" fill-opacity="1"/></g></g><g><g><path fill="rgb(244,244,245)" stroke="none" paint-order="stroke fill markers" d=" M 51.06532643684705 332.91516439909884 L 51.06532643684705 332.91516439909884 Q 47.62889175882745 334.0317297108052 44.18791766694838 333.71222395778307 Q 40.746943575069295 333.39271820476097 37.79364628443625 331.88793807526054 Q 34.8403489938032 330.38315794576005 32.55930958508074 327.78715219787495 Q 30.278270176358287 325.19114644998984 29.161704864651934 321.7547117719703 L 29.161704864651934 321.7547117719703 Q 28.045139552945578 318.31827709395066 28.364645305967684 314.8773030020716 Q 28.68415105898979 311.4363289101925 30.188931188490272 308.4830316195595 Q 31.693711317990758 305.5297343289264 34.289717065875834 303.24869492020395 Q 36.88572281376092 300.9676555114815 40.322157491780516 299.8510901997752 L 40.322157491780516 299.8510901997752 Q 43.75859216980011 298.7345248880688 47.19956626167919 299.0540306410909 Q 50.640540353558265 299.373536394113 53.59383764419132 300.8783165236135 Q 56.54713493482436 302.38309665311397 58.82817434354682 304.97910240099907 Q 61.10921375226928 307.5751081488841 62.22577906397563 311.01154282690374 L 62.22577906397563 311.01154282690374 Q 63.34234437568198 314.4479775049233 63.022838622659876 317.8889515968024 Q 62.70333286963778 321.3299256886815 61.198552740137295 324.28322297931453 Q 59.693772610636806 327.23652026994756 57.097766862751726 329.51755967867 Q 54.501761114866646 331.7985990873925 51.06532643684705 332.91516439909884 Z M 33.31361762919455 315.88767179295576 L 36.150297069745825 324.6180734073839 L 58.53356078333293 317.34531016086413 L 55.69688134278166 308.61490854643597 L 52.7248297293593 309.5805866538577 L 54.62718064852013 315.2774096279753 L 48.822392341054595 317.1634996815333 L 47.26825413692278 312.38035411618176 L 44.29620252350042 313.34603222360346 L 45.850340727632236 318.1291777889551 L 38.048705242398555 320.66408282093704 L 36.19279262969745 314.95217112639097 L 33.31361762919455 315.88767179295576 Z" fill-opacity="1"/></g></g><g><g><path fill="rgb(244,244,245)" stroke="none" paint-order="stroke fill markers" d=" M 48.363513462916515 272.7148583219931 L 48.036862015205095 269.6069773989673 L 27.64139345784793 271.7506275245735 L 27.192247717244726 267.4772912554129 L 24.181488073063427 267.7937348453833 L 25.40643100198125 279.4482883067303 L 28.41719064616255 279.1318447167599 L 27.96804490555935 274.8585084475993 L 48.363513462916515 272.7148583219931 Z M 38.17349432679 289.74242477863356 L 38.17349432679 289.74242477863356 Q 34.58000700954135 290.1201155150499 31.280655438719478 289.092172987808 Q 27.981303867897598 288.0642304605661 25.40540458984464 285.97830835408024 Q 22.829505311791685 283.89238624759446 21.138052031385964 280.87885469352005 Q 19.446598750980243 277.86532313944565 19.068908014563917 274.27183582219703 L 19.068908014563917 274.27183582219703 Q 18.69121727814759 270.67834850494836 19.719159805389488 267.3789969341265 Q 20.747102332631385 264.0796453633046 22.833024439117214 261.5037460852517 Q 24.91894654560304 258.9278468071987 27.932478099677425 257.236393526793 Q 30.946009653751812 255.54494024638728 34.53949697100046 255.16724950997093 L 34.53949697100046 255.16724950997093 Q 38.1329842882491 254.7895587735546 41.432335859070974 255.81750130079652 Q 44.73168742989286 256.8454438280384 47.307586707945816 258.93136593452425 Q 49.88348598599877 261.0172880410101 51.57493926640449 264.03081959508444 Q 53.26639254681021 267.04435114915884 53.64408328322654 270.63783846640746 L 53.64408328322654 270.63783846640746 Q 54.02177401964287 274.23132578365613 52.993831492400965 277.53067735447803 Q 51.96588896515907 280.83002892529987 49.87996685867324 283.40592820335286 Q 47.79404475218742 285.9818274814058 44.78051319811303 287.6732807618115 Q 41.766981644038644 289.36473404221726 38.17349432679 289.74242477863356 Z" fill-opacity="1"/></g></g><g><g><path fill="rgb(244,244,245)" stroke="none" paint-order="stroke fill markers" d=" M 47.70000270975267 233.5980248029034 L 48.67995705288692 224.27438203382584 L 45.66919740870562 223.95793844385543 L 45.3425459609942 227.06581936688127 L 27.957837047818334 225.23861283124555 L 28.284488495529747 222.13073190821967 L 25.27372885134845 221.81428831824925 L 24.293774508214206 231.13793108732682 L 27.3045341523955 231.45437467729724 L 27.631185600106917 228.3464937542714 L 45.01589451328279 230.17370028990712 L 44.689243065571375 233.28158121293296 L 47.70000270975267 233.5980248029034 Z M 34.539496971000446 244.83275049002933 L 34.539496971000446 244.83275049002933 Q 30.946009653751805 244.455059753613 27.932478099677414 242.7636064732073 Q 24.918946545603024 241.07215319280158 22.833024439117196 238.49625391474862 Q 20.747102332631368 235.92035463669566 19.71915980538946 232.6210030658738 Q 18.691217278147555 229.32165149505192 19.06890801456388 225.72816417780328 L 19.06890801456388 225.72816417780328 Q 19.446598750980208 222.13467686055463 21.13805203138592 219.12114530648023 Q 22.82950531179164 216.10761375240585 25.405404589844593 214.02169164592001 Q 27.981303867897548 211.9357695394342 31.280655438719425 210.90782701219229 Q 34.580007009541305 209.87988448495037 38.17349432678995 210.2575752213667 L 38.17349432678995 210.2575752213667 Q 41.766981644038594 210.63526595778302 44.78051319811298 212.32671923818876 Q 47.79404475218737 214.01817251859447 49.8799668586732 216.59407179664743 Q 51.965888965159024 219.16997107470036 52.99383149240093 222.46932264552225 Q 54.021774019642834 225.76867421634412 53.644083283226514 229.36216153359277 L 53.644083283226514 229.36216153359277 Q 53.26639254681019 232.9556488508414 51.57493926640447 235.9691804049158 Q 49.88348598599875 238.9827119589902 47.3075867079458 241.06863406547603 Q 44.731687429892844 243.15455617196184 41.43233585907097 244.18249869920376 Q 38.13298428824909 245.21044122644565 34.539496971000446 244.83275049002933 Z" fill-opacity="1"/></g></g><g><g><path fill="rgb(244,244,245)" stroke="none" paint-order="stroke fill markers" d=" M 39.05453461942321 185.72096056701835 L 58.29214125647748 183.39770274249153 L 59.21255320261379 180.56496604844835 L 36.78285118256696 173.27711408150012 L 35.86243923643064 176.1098507755433 L 51.697901739196624 181.2551044416496 L 33.448243967876365 183.53997980909918 L 32.452388419597725 186.60490803544099 L 54.882090439644564 193.89276000238922 L 55.77232494492395 191.1528999212655 L 39.05453461942321 185.72096056701835 Z M 40.32215749178049 200.14890980022494 L 40.32215749178049 200.14890980022494 Q 36.88572281376089 199.0323444885186 34.28971706587581 196.75130507979614 Q 31.69371131799073 194.4702656710737 30.188931188490244 191.51696838044063 Q 28.684151058989762 188.5636710898076 28.364645305967656 185.1226969979285 Q 28.04513955294555 181.68172290604943 29.161704864651902 178.24528822802984 L 29.161704864651902 178.24528822802984 Q 30.278270176358255 174.80885355001024 32.55930958508071 172.21284780212517 Q 34.84034899380316 169.61684205424007 37.793646284436214 168.11206192473958 Q 40.74694357506927 166.6072817952391 44.18791766694834 166.287776042217 Q 47.628891758827415 165.9682702891949 51.065326436847016 167.08483560090124 L 51.065326436847016 167.08483560090124 Q 54.50176111486661 168.2014009126076 57.0977668627517 170.48244032133005 Q 59.69377261063678 172.7634797300525 61.19855274013726 175.71677702068556 Q 62.70333286963774 178.67007431131861 63.02283862265985 182.11104840319769 Q 63.342344375681954 185.55202249507676 62.2257790639756 188.98845717309635 L 62.2257790639756 188.98845717309635 Q 61.10921375226925 192.42489185111594 58.8281743435468 195.02089759900105 Q 56.54713493482434 197.61690334688612 53.59383764419129 199.1216834763866 Q 50.640540353558244 200.6264636058871 47.199566261679166 200.9459693589092 Q 43.75859216980009 201.2654751119313 40.32215749178049 200.14890980022494 Z" fill-opacity="1"/></g></g><g><g><path fill="rgb(244,244,245)" stroke="none" paint-order="stroke fill markers" d=" M 73.52119697586367 149.85775329674414 L 75.08369697586367 147.15142390991778 L 57.32341037481561 136.89751765991778 L 59.4718478748156 133.17631475303153 L 56.85009128132755 131.66264287803153 L 50.990716281327565 141.8113780786304 L 53.61247287481561 143.3250499536304 L 55.76091037481561 139.60384704674416 L 73.52119697586367 149.85775329674414 Z M 55.26874587608814 157.6438009642218 L 55.26874587608814 157.6438009642218 Q 52.13955252257015 155.8371603392218 50.07453048907462 153.0662271699853 Q 48.00950845557908 150.29529400074875 47.15163641545929 147.09367196062897 Q 46.29376437533952 143.89204992050918 46.69665933110298 140.45984038701366 Q 47.099554286866436 137.02763085351813 48.906194911866436 133.89843750000014 L 48.906194911866436 133.89843750000014 Q 50.712835536866436 130.76924414648215 53.48376870610297 128.7042221129866 Q 56.25470187533951 126.63920007949108 59.45632391545928 125.78132803937129 Q 62.65794595557906 124.92345599925152 66.09015548907459 125.32635095501497 Q 69.52236502257013 125.72924591077843 72.65155837608812 127.53588653577843 L 72.65155837608812 127.53588653577843 Q 75.78075172960611 129.34252716077842 77.84577376310165 132.11346033001496 Q 79.91079579659718 134.8843934992515 80.76866783671696 138.0860155393713 Q 81.62653987683674 141.28763757949105 81.22364492107329 144.7198471129866 Q 80.82074996530982 148.15205664648212 79.01410934030983 151.2812500000001 L 79.01410934030983 151.2812500000001 Q 77.20746871530983 154.4104433535181 74.43653554607329 156.47546538701363 Q 71.66560237683676 158.54048742050918 68.46398033671697 159.39835946062897 Q 65.2623582965972 160.25623150074873 61.83014876310167 159.85333654498527 Q 58.39793922960614 159.4504415892218 55.26874587608814 157.6438009642218 Z" fill-opacity="1"/></g></g><g><g><path fill="rgb(244,244,245)" stroke="none" paint-order="stroke fill markers" d=" M 95.10920261620652 101.92838088169943 L 95.10920261620652 101.92838088169943 Q 94.05328395614974 100.91192272660943 92.32599417360868 99.61948291323637 Q 90.59870439106763 98.32704309986332 88.72250854625509 97.49187017392835 Q 86.84631270144254 96.65669724799338 85.01348456314476 96.64902945789997 Q 83.18065642484699 96.64136166780655 81.84470229195662 98.19806153481873 L 81.84470229195662 98.19806153481873 Q 80.67572409905223 99.64228832099347 80.62634897721296 101.33900592442244 Q 80.57697385537368 103.0357235278514 81.30970925558594 104.812461738733 Q 82.04244465579819 106.58919994961461 83.3758587359044 108.28259680350575 Q 84.70927281601061 109.97599365739691 86.23691426567707 111.41719292003891 L 86.23691426567707 111.41719292003891 Q 90.34450184952388 115.24709083909279 93.59987292073902 116.00998425416982 Q 96.85524399195415 116.77287766924684 98.91360474393697 114.48683645806149 L 98.91360474393697 114.48683645806149 Q 100.05713849503853 113.21681356295852 100.25527306614676 111.71974429240416 Q 100.45340763725498 110.22267502184978 99.88396089498454 108.59296257896695 Q 99.3145141527141 106.96325013608413 98.06820201814378 105.28257550309439 Q 96.82188988357345 103.60190087010464 95.10920261620652 101.92838088169943 Z M 92.91292434158345 104.22165004397057 L 92.91292434158345 104.22165004397057 Q 95.67791629346426 106.84266942614565 96.70636360444297 108.98422492211637 Q 97.73481091542168 111.12578041808709 96.58766318877721 112.32684455186994 L 96.58766318877721 112.32684455186994 Q 95.57481900923011 113.45172197324685 93.37016555426123 112.61647574081061 Q 91.16551209929234 111.78122950837437 88.33156138609141 109.1638241017422 L 88.33156138609141 109.1638241017422 Q 87.45707456819218 108.31072791109527 86.44474353415397 107.13640206137781 Q 85.43241250011576 105.96207621166035 84.71044572003093 104.72067189489547 Q 83.9884789399461 103.4792675781306 83.75464445241653 102.31600357454565 Q 83.52080996488695 101.15273957096069 84.27227500132511 100.31815309703588 L 84.27227500132511 100.31815309703588 Q 84.72968850176574 99.81014393899468 85.57895079736595 99.85207119024436 Q 86.42821309296616 99.89399844149403 87.57860826264717 100.40418111981302 Q 88.72900343232817 100.914363798132 90.11157271476985 101.89641587906321 Q 91.49414199721153 102.87846795999441 92.91292434158345 104.22165004397057 Z M 78.7260244898408 119.17510120029445 L 78.7260244898408 119.17510120029445 Q 76.04083322590881 116.75734412653685 74.59704627874169 113.61762027269444 Q 73.15325933157457 110.47789641885201 72.9797885055155 107.1678758754858 Q 72.80631767945644 103.85785533211958 73.9140049011341 100.58441438318997 Q 75.02169212281177 97.31097343426033 77.43944919656937 94.62578217032834 L 77.43944919656937 94.62578217032834 Q 79.85720627032696 91.94059090639635 82.99693012416938 90.49680395922923 Q 86.13665397801181 89.05301701206211 89.44667452137801 88.87954618600304 Q 92.75669506474424 88.70607535994397 96.03013601367385 89.81376258162163 Q 99.30357696260349 90.92144980329931 101.98876822653547 93.33920687705691 L 101.98876822653547 93.33920687705691 Q 104.67395949046747 95.7569639508145 106.11774643763458 98.89668780465692 Q 107.5615333848017 102.03641165849933 107.73500421086078 105.34643220186555 Q 107.90847503691984 108.65645274523177 106.80078781524217 111.9298936941614 Q 105.69310059356451 115.20333464309101 103.27534351980691 117.88852590702301 L 103.27534351980691 117.88852590702301 Q 100.85758644604932 120.573717170955 97.7178625922069 122.01750411812212 Q 94.57813873836447 123.46129106528925 91.26811819499827 123.63476189134832 Q 87.95809765163204 123.80823271740738 84.68465670270243 122.70054549572971 Q 81.4112157537728 121.59285827405205 78.7260244898408 119.17510120029445 Z" fill-opacity="1"/></g></g><g><g><path fill="rgb(244,244,245)" stroke="none" paint-order="stroke fill markers" d=" M 128.9157678592321 83.42492339531564 L 128.9157678592321 83.42492339531564 Q 128.29452566353302 83.81592738896859 127.55509241298327 83.62889851154794 Q 126.8156591624335 83.44186963412731 126.03333388119295 82.86351946911905 Q 125.25100859995239 82.2851693041108 124.48674008629489 81.48245804353662 Q 123.72247157263739 80.67974678296247 123.08025930249497 79.87888879323681 L 123.08025930249497 79.87888879323681 Q 120.76971428787411 77.03098188069036 118.74818570879003 74.12397944071857 Q 116.72665712970596 71.21697700074677 114.73923016797215 68.31537572635315 L 114.73923016797215 68.31537572635315 L 112.32956040933584 70.06610328445086 Q 114.58609376817485 73.25502637050009 116.69912486815339 76.246435541907 Q 118.81215596813193 79.2378447133139 120.82489413387549 81.75892703127627 L 120.82489413387549 81.75892703127627 Q 121.8510146082115 83.00511796437141 122.99024226575472 84.19930915950053 Q 124.12946992329793 85.39350035462967 125.34431389893575 86.1102689068549 Q 126.55915787457357 86.82703745908012 127.89637538766114 86.881525055764 Q 129.2335929007487 86.93601265244789 130.61619030324496 85.93149684042461 L 130.61619030324496 85.93149684042461 Q 132.1172960545266 84.84087967308507 132.5038507644054 83.50382080696484 Q 132.89040547428422 82.16676194084461 132.5805776112714 80.70192837169645 Q 132.2707497482586 79.23709480254828 131.45294551972125 77.77919837589212 Q 130.63514129118394 76.32130194923596 129.7383314967897 74.92080642612399 L 129.7383314967897 74.92080642612399 Q 128.1527108598652 72.57224411272888 125.89432423017769 69.50537727019471 Q 123.63593760049017 66.43851042766056 121.37569769995415 63.49369982864147 L 121.37569769995415 63.49369982864147 L 119.00553072424628 65.21572693496708 Q 121.22626784185385 68.18923798575825 123.29995480587128 70.87728049574234 Q 125.37364176988869 73.56532300572641 127.25336271399347 76.48482240073575 L 127.25336271399347 76.48482240073575 Q 127.84526987005107 77.38258407693405 128.41557236379592 78.41675222253347 Q 128.98587485754075 79.4509203681329 129.32286719541185 80.41317873733475 Q 129.65985953328294 81.37543710653658 129.61818618557126 82.1903280282136 Q 129.5765128378596 83.00521894989062 128.9157678592321 83.42492339531564 Z M 109.66879769710629 86.42407728142832 L 109.66879769710629 86.42407728142832 Q 107.54496426597137 83.50087134472197 106.7855128227823 80.12957780475318 Q 106.02606137959322 76.7582842647844 106.54457327509903 73.48452899915762 Q 107.06308517060482 70.21077373353086 108.82715341133638 67.23916644634778 Q 110.59122165206793 64.2675591591647 113.51442758877428 62.1437257280298 L 113.51442758877428 62.1437257280298 Q 116.43763352548063 60.01989229689489 119.80892706544944 59.260440853705816 Q 123.18022060541823 58.50098941051674 126.45397587104499 59.01950130602253 Q 129.72773113667176 59.53801320152833 132.69933842385484 61.30208144225989 Q 135.6709457110379 63.06614968299145 137.7947791421728 65.9893556196978 L 137.7947791421728 65.9893556196978 Q 139.91861257330774 68.91256155640416 140.6780640164968 72.28385509637295 Q 141.43751545968587 75.65514863634174 140.9190035641801 78.92890390196851 Q 140.40049166867428 82.20265916759527 138.63642342794273 85.17426645477835 Q 136.87235518721116 88.14587374196141 133.9491492505048 90.26970717309634 L 133.9491492505048 90.26970717309634 Q 131.02594331379845 92.39354060423125 127.65464977382966 93.15299204742031 Q 124.28335623386087 93.91244349060939 121.00960096823411 93.3939315951036 Q 117.73584570260734 92.8754196995978 114.76423841542427 91.11135145886624 Q 111.7926311282412 89.34728321813468 109.66879769710629 86.42407728142832 Z" fill-opacity="1"/></g></g><g><g><path fill="rgb(244,244,245)" stroke="none" paint-order="stroke fill markers" d=" M 162.33642595750484 45.061139286871025 L 162.15579521871805 41.774271939932405 Q 161.3922799399814 41.740067584442315 160.73050876774494 41.87435998232296 Q 160.06873759550848 42.0086523802036 159.42438344267293 42.24208829550724 L 159.42438344267293 42.24208829550724 Q 157.5756480712656 43.011749277365894 156.62976413380207 44.608762754098656 Q 155.68388019633855 46.205776230831425 155.49433945369174 48.24105505832209 Q 155.30479871104492 50.27633388581276 155.782230318789 52.54914786096602 Q 156.25966192653308 54.82196183611929 157.21295093374198 56.96308400246914 L 157.21295093374198 56.96308400246914 Q 158.09168552684875 58.81670571037507 159.31978688877132 60.434605755555985 Q 160.54788825069392 62.0525058007369 161.95410161815647 63.11006393852574 Q 163.36031498561906 64.16762207631457 164.89498988949612 64.55332152721395 Q 166.42966479337318 64.93902097811332 167.9016862827387 64.2836347856572 L 167.9016862827387 64.2836347856572 Q 168.70460709511988 63.92615140795385 169.53211701082193 63.2637505524057 Q 170.35962692652396 62.601349696857554 170.89427778479973 61.40122513147265 L 170.89427778479973 61.40122513147265 L 168.52823300952 59.56840813618445 Q 167.72105554395193 60.996767438718564 166.68012732142435 61.29987143162578 L 166.68012732142435 61.29987143162578 Q 165.85734632139298 61.61274809753017 164.92257627938045 61.25392349737301 Q 163.9878062373679 60.89509889721585 163.0948848972492 60.09004975824122 Q 162.20196355713045 59.28500061926658 161.43277483775557 58.157616983046246 Q 160.6635861183807 57.03023334682591 160.1075008641755 55.78124541645517 L 160.1075008641755 55.78124541645517 Q 158.56817890045818 52.08377467364048 158.56384668227378 49.252904538516496 Q 158.5595144640894 46.422034403392516 160.4277951814911 45.21607897654148 L 160.4277951814911 45.21607897654148 Q 160.7846488758827 45.05719747533999 161.3125999127223 44.98248564040991 Q 161.8405509495619 44.90777380547982 162.33642595750484 45.061139286871025 L 162.33642595750484 45.061139286871025 Z M 146.74471782882745 60.82210610972712 L 146.74471782882745 60.82210610972712 Q 145.2750639427137 57.52120943660445 145.2331396758224 54.065687915467166 Q 145.19121540893107 50.610166394329895 146.379048568072 47.51575522077114 Q 147.56688172721294 44.421344047212386 149.91023273993983 41.881443919579574 Q 152.2535837526667 39.34154379194677 155.5544804257894 37.87188990583304 L 155.5544804257894 37.87188990583304 Q 158.85537709891207 36.402236019719304 162.31089862004936 36.36031175282798 Q 165.76642014118661 36.31838748593666 168.86083131474538 37.506220645077605 Q 171.95524248830412 38.69405380421854 174.49514261593694 41.037404816945426 Q 177.03504274356973 43.38075582967231 178.50469662968348 46.68165250279498 L 178.50469662968348 46.68165250279498 Q 179.9743505157972 49.98254917591766 180.01627478268853 53.43807069705494 Q 180.05819904957986 56.89359221819222 178.8703658904389 59.98800339175097 Q 177.68253273129798 63.082414565309726 175.3391817185711 65.62231469294252 Q 172.9958307058442 68.16221482057534 169.69493403272153 69.63186870668908 L 169.69493403272153 69.63186870668908 Q 166.39403735959885 71.10152259280281 162.93851583846157 71.14344685969412 Q 159.4829943173243 71.18537112658545 156.38858314376554 69.99753796744452 Q 153.2941719702068 68.80970480830358 150.75427184257398 66.4663537955767 Q 148.2143717149412 64.1230027828498 146.74471782882745 60.82210610972712 Z" fill-opacity="1"/></g></g><g><g><path fill="rgb(244,244,245)" stroke="none" paint-order="stroke fill markers" d=" M 213.44922985642438 50.32980970127736 L 208.5458437887985 27.261191969127555 L 205.53689364982245 27.900764064904845 L 207.69925644983135 38.07388120144296 L 202.01568396509882 39.28196182680006 L 199.85332116508988 29.108844690261943 L 196.8443710261138 29.748416786039233 L 201.7477570937397 52.81703451818904 L 204.75670723271577 52.17746242241175 L 202.6654079989043 42.3386730790932 L 208.34898048363686 41.1305924537361 L 210.4402797174483 50.96938179705465 L 213.44922985642438 50.32980970127736 Z M 188.33338926524482 43.48811667728174 L 188.33338926524482 43.48811667728174 Q 187.5821458511572 39.95379429181779 188.25958105220175 36.565067661417665 Q 188.9370162532463 33.176341031017536 190.74225666711203 30.396514566443553 Q 192.54749708097776 27.616688101869574 195.36771518179808 25.619500957157616 Q 198.1879332826184 23.62231381244565 201.72225566808234 22.871070398358043 L 201.72225566808234 22.871070398358043 Q 205.2565780535463 22.119826984270432 208.64530468394642 22.797262185314978 Q 212.03403131434655 23.474697386359512 214.81385777892052 25.279937800225245 Q 217.5936842434945 27.08517821409098 219.59087138820647 29.905396314911293 Q 221.58805853291844 32.72561441573161 222.33930194700605 36.25993680119556 L 222.33930194700605 36.25993680119556 Q 223.09054536109363 39.7942591866595 222.41311016004911 43.18298581705963 Q 221.73567495900457 46.57171244745976 219.93043454513884 49.351538912033746 Q 218.1251941312731 52.131365376607725 215.3049760304528 54.12855252131968 Q 212.48475792963248 56.12573966603164 208.95043554416853 56.87698308011925 L 208.95043554416853 56.87698308011925 Q 205.41611315870458 57.628226494206864 202.02738652830445 56.950791293162325 Q 198.63865989790432 56.27335609211779 195.85883343333035 54.468115678252055 Q 193.07900696875635 52.66287526438632 191.0818198240444 49.842657163566 Q 189.08463267933243 47.02243906274569 188.33338926524482 43.48811667728174 Z" fill-opacity="1"/></g></g></g></g></svg>