<svg version="1.1" xmlns="http://www.w3.org/2000/svg" xmlns:xlink="http://www.w3.org/1999/xlink" width="500" height="500" viewBox="0 0 500 500"><defs/><g><g><g><g><path fill="rgb(245,158,11)" stroke="none" paint-order="stroke fill markers" d=" M 260.7142857142857 5.714285714285715 L 235.71428571428572 5.714285714285715 L 235.71428571428572 45 L 260.7142857142857 45 L 260.7142857142857 20 L 250 20 L 250 34.285714285714285 L 246.42857142857142 34.285714285714285 L 246.42857142857142 16.42857142857143 L 260.7142857142857 16.42857142857143 L 260.7142857142857 5.714285714285715 Z" fill-opacity="1"/></g></g><g><g><path fill="rgb(245,158,11)" stroke="none" paint-order="stroke fill markers" d=" M 274.76895227584544 46.0010278559964 L 299.3171697074131 50.73230896500665 L 301.3448616112746 40.21164435147765 L 287.31730879323595 37.508055146328935 L 287.99320609452315 34.00116694181927 L 302.0207589125618 36.70475614696799 L 304.0484508164233 26.184091533438984 L 290.02089799838467 23.480502328290267 L 290.69679529967186 19.973614123780603 L 304.7243481177105 22.67720332892932 L 306.75204002157204 12.156538715400316 L 282.2038225900044 7.425257606390062 L 274.76895227584544 46.0010278559964 Z" fill-opacity="1"/></g></g><g><g><path fill="rgb(245,158,11)" stroke="none" paint-order="stroke fill markers" d=" M 350.7386277364808 27.19507410243434 L 327.529429411079 17.903512710926158 L 323.5473316718612 27.85031199324122 L 330.1785311934046 30.50504381938642 L 319.5596038888238 57.02984190555992 L 329.50640317113886 61.01193964477771 L 340.12533047571964 34.48714155860421 L 346.756529997263 37.14187338474941 L 350.7386277364808 27.19507410243434 Z" fill-opacity="1"/></g></g><g><g><path fill="rgb(245,158,11)" stroke="none" paint-order="stroke fill markers" d=" M 354.8224137724605 73.68130564492502 L 363.835844481366 79.47388583194927 L 385.0753051671216 46.42463989929573 L 376.0618744582161 40.63205971227146 L 354.8224137724605 73.68130564492502 Z" fill-opacity="1"/></g></g><g><g><path fill="rgb(245,158,11)" stroke="none" paint-order="stroke fill markers" d=" M 381.12713966661767 91.77625059585901 L 388.88143293202916 99.1699542903102 L 408.59797611723235 78.49183891587964 L 411.18274053903616 80.95640681403003 L 391.46619735383297 101.63452218846061 L 399.22049061924446 109.02822588291181 L 426.3307374988988 80.59581724306977 L 408.2373865462721 63.343841956016966 L 381.12713966661767 91.77625059585901 Z" fill-opacity="1"/></g></g><g><g><path fill="rgb(245,158,11)" stroke="none" paint-order="stroke fill markers" d=" M 455.20416374627337 117.02798300528946 L 440.70274100699345 96.66358420403107 L 431.97514152073984 102.87847966372247 L 436.1184051605341 108.69687932122487 L 412.8448065305245 125.26993388040196 L 419.05970199021596 133.99753336665557 L 442.33330062022554 117.42447880747847 L 446.4765642600198 123.24287846498086 L 455.20416374627337 117.02798300528946 Z" fill-opacity="1"/></g></g><g><g><path fill="rgb(245,158,11)" stroke="none" paint-order="stroke fill markers" d=" M 476.660976861624 158.266103916909 L 466.27560153657686 135.52530403304604 L 430.54005886193505 151.84517954383443 L 440.9254341869822 174.5859794276974 L 476.660976861624 158.266103916909 Z M 462.46404462923397 152.97092196313082 L 446.2206161407604 160.38904719530734 L 444.7369910943251 157.14036149761264 L 460.9804195827986 149.7222362654361 L 462.46404462923397 152.97092196313082 Z" fill-opacity="1"/></g></g><g><g><path fill="rgb(245,158,11)" stroke="none" paint-order="stroke fill markers" d=" M 489.92567171378045 202.81972684330646 L 487.3996831190366 192.40746003983992 L 459.63363830979256 199.14342962582356 L 458.7916421115446 195.67267402466805 L 486.5576869207886 188.93670443868442 L 484.03169832604476 178.5244376352179 L 445.8533867133342 187.7863958159454 L 451.7473601010699 212.08168502403393 L 489.92567171378045 202.81972684330646 Z" fill-opacity="1"/></g></g><g><g><path fill="rgb(245,158,11)" stroke="none" paint-order="stroke fill markers" d=" M 494.5188276699606 249.07856776858944 L 493.329279774367 224.10688428901426 L 454.08806287789173 225.9761738392327 L 455.27761077348526 250.9478573188079 L 473.11452754461044 250.09818025052678 L 472.6047213036417 239.3960301878517 L 465.46995459519167 239.73590101516416 L 465.30001918153545 236.16851766093913 L 483.1369359526606 235.318840592658 L 483.30687136631684 238.88622394688304 L 476.1721046578668 239.22609477419547 L 476.68191089883544 249.92824483687056 L 494.5188276699606 249.07856776858944 Z" fill-opacity="1"/></g></g><g><g><path fill="rgb(245,158,11)" stroke="none" paint-order="stroke fill markers" d=" M 490.27443610655695 295.3707116554839 L 491.7992379451993 284.76548192104536 L 477.65893163261455 282.73241280285555 L 478.167198912162 279.1973362247094 L 492.3075052247467 281.23040534289913 L 493.83230706338907 270.6251756084606 L 454.946464703781 265.0342355334387 L 453.42166286513867 275.63946526787726 L 467.5619691777234 277.672534386067 L 467.053701898176 281.2076109642132 L 452.9133955855912 279.17454184602343 L 451.38859374694886 289.779771580462 L 490.27443610655695 295.3707116554839 Z" fill-opacity="1"/></g></g><g><g><path fill="rgb(245,158,11)" stroke="none" paint-order="stroke fill markers" d=" M 450.34587700147756 330.67824085898667 L 458.5225760844131 307.05322039111996 L 448.39756731247024 303.5489207841476 L 440.2208682295347 327.1739412520143 L 450.34587700147756 330.67824085898667 Z" fill-opacity="1"/></g></g><g><g><path fill="rgb(245,158,11)" stroke="none" paint-order="stroke fill markers" d=" M 456.20049149591284 381.4217007548332 L 468.70049149591284 359.77106566022223 L 434.678064918667 340.1282085173651 L 422.1780649186671 361.7788436119761 L 443.828700013278 374.2788436119761 L 449.18584287042086 364.99999999999994 L 436.81405138778604 357.8571428571428 L 438.5997656735003 354.7641949864841 L 454.0645050267939 363.69276641505553 L 446.9216478839367 376.06455789769035 L 456.20049149591284 381.4217007548332 Z" fill-opacity="1"/></g></g><g><g><path fill="rgb(245,158,11)" stroke="none" paint-order="stroke fill markers" d=" M 414.2838160846984 373.4500279680083 L 397.9122977360663 392.3437673268648 L 406.00961460414766 399.3601323334214 L 415.36476794622314 388.5637098426463 L 418.0638735689169 390.90249817816516 L 408.7087202268414 401.6989206689403 L 416.8060370949228 408.7152856754969 L 426.16119043699825 397.9188631847218 L 428.860296059692 400.25765152024064 L 419.50514271761654 411.05407401101576 L 427.6024595856979 418.0704390175724 L 443.97397793433 399.17669965871596 L 414.2838160846984 373.4500279680083 Z" fill-opacity="1"/></g></g><g><g><path fill="rgb(245,158,11)" stroke="none" paint-order="stroke fill markers" d=" M 392.5854120473609 448.6446737109588 L 412.2367394159306 433.19069905544364 L 405.6136074207098 424.76870161177095 L 399.99894245826135 429.18412294191813 L 382.3372571376726 406.7254630921242 L 373.9152596939999 413.34859508734496 L 391.5769450145886 435.8072549371389 L 385.9622800521401 440.2226762672861 L 392.5854120473609 448.6446737109588 Z" fill-opacity="1"/></g></g><g><g><path fill="rgb(245,158,11)" stroke="none" paint-order="stroke fill markers" d=" M 350.2852615873686 428.93822039049206 L 340.7620246374944 433.8477902661429 L 358.7637808482141 468.76632574901487 L 368.2870177980883 463.856755873364 L 350.2852615873686 428.93822039049206 Z" fill-opacity="1"/></g></g><g><g><path fill="rgb(245,158,11)" stroke="none" paint-order="stroke fill markers" d=" M 321.4622166327003 442.67130877895147 L 311.18193477254493 445.68987188796683 L 319.2314363965858 473.103956848381 L 315.80467577653405 474.1101445513861 L 307.75517415249317 446.6960595909719 L 297.4748922923378 449.7146226999872 L 308.542957025394 487.40898952055676 L 332.5302813657564 480.365675599521 L 321.4622166327003 442.67130877895147 Z" fill-opacity="1"/></g></g><g><g><path fill="rgb(245,158,11)" stroke="none" paint-order="stroke fill markers" d=" M 262.5550628367388 494.1980272639698 L 287.44186090106587 491.8216261813652 L 286.42340329423536 481.1558555823679 L 279.31288956157044 481.8348273202549 L 276.5970026100224 453.39277238959534 L 265.93123201102503 454.41122999642585 L 268.64711896257313 482.85328492708544 L 261.5366052299082 483.53225666497246 L 262.5550628367388 494.1980272639698 Z" fill-opacity="1"/></g></g><g><g><path fill="rgb(245,158,11)" stroke="none" paint-order="stroke fill markers" d=" M 216.11339596526662 492.1611120503087 L 241.00019402959376 494.5375131329133 L 244.73453858797234 455.4296876032564 L 219.84774052364523 453.05328652065185 L 216.11339596526662 492.1611120503087 Z M 227.7976241710945 482.5137990581419 L 229.49505351581203 464.7375147264797 L 233.0503103821445 465.0770005954232 L 231.35288103742693 482.85328492708544 L 227.7976241710945 482.5137990581419 Z" fill-opacity="1"/></g></g><g><g><path fill="rgb(245,158,11)" stroke="none" paint-order="stroke fill markers" d=" M 170.89647925429549 481.3718633025262 L 181.1767611144508 484.3904264115415 L 189.22626273849167 456.9763414511273 L 192.65302335854344 457.9825291541324 L 184.6035217345026 485.3966141145466 L 194.88380359465793 488.41517722356195 L 205.95186832771407 450.7208104029924 L 181.96454398735165 443.67749648195667 L 170.89647925429549 481.3718633025262 Z" fill-opacity="1"/></g></g><g><g><path fill="rgb(245,158,11)" stroke="none" paint-order="stroke fill markers" d=" M 128.538569885287 462.22023258148045 L 150.75945610166008 473.6758956246657 L 168.76121231237977 438.7573601417937 L 146.54032609600668 427.30169709860843 L 138.35770963658865 443.17375868173207 L 147.88094658646284 448.0833285573829 L 151.15399317023005 441.73450392413343 L 154.32840548685476 443.37102721601707 L 146.14578902743673 459.2430887991407 L 142.971376710812 457.6065655072571 L 146.24442329457924 451.25774087400765 L 136.72118634470505 446.3481709983568 L 128.538569885287 462.22023258148045 Z" fill-opacity="1"/></g></g><g><g><path fill="rgb(245,158,11)" stroke="none" paint-order="stroke fill markers" d=" M 90.57059306529379 435.39840972051735 L 98.99259050896652 442.0215417157381 L 107.82343316926087 430.7922117908412 L 110.6307656504851 432.99992245591477 L 101.79992299019075 444.2292523808117 L 110.22192043386347 450.8523843760325 L 134.50673774967296 419.97172708256585 L 126.08474030600023 413.3485950873451 L 117.25389764570588 424.577925012242 L 114.44656516448164 422.3702143471684 L 123.27740782477599 411.1408844222715 L 114.85541038110327 404.5177524270507 L 90.57059306529379 435.39840972051735 Z" fill-opacity="1"/></g></g><g><g><path fill="rgb(245,158,11)" stroke="none" paint-order="stroke fill markers" d=" M 79.95765538273912 383.1654985972587 L 96.32917373137124 402.05923795611517 L 104.42649059945258 395.04287294955856 L 88.05497225082046 376.1491335907021 L 79.95765538273912 383.1654985972587 Z" fill-opacity="1"/></g></g><g><g><path fill="rgb(245,158,11)" stroke="none" paint-order="stroke fill markers" d=" M 33.08522278980146 362.86401353088115 L 45.58522278980148 384.5146486254921 L 79.60764936704727 364.87179148263493 L 67.10764936704726 343.221156388024 L 45.4570142724363 355.721156388024 L 50.81415712957916 365.0000000000001 L 63.18594861221399 357.857142857143 L 64.97166289792828 360.9500907278017 L 49.506923544634745 369.87866215637314 L 42.36406640177759 357.50687067373826 L 33.08522278980146 362.86401353088115 Z" fill-opacity="1"/></g></g><g><g><path fill="rgb(245,158,11)" stroke="none" paint-order="stroke fill markers" d=" M 60.947231639456156 330.5489441759953 L 52.77053255652061 306.9239237081286 L 42.64552378457773 310.428223315101 L 47.31792326054091 323.9282350110248 L 43.94292033655995 325.0963348800156 L 39.270520860596775 311.5963231840918 L 29.145512088653902 315.10062279106415 L 33.81791156461708 328.600634486988 L 30.442908640636116 329.7687343559788 L 25.770509164672944 316.26872266005495 L 15.64550039273007 319.77302226702733 L 23.822199475665613 343.39804273489403 L 60.947231639456156 330.5489441759953 Z" fill-opacity="1"/></g></g><g><g><path fill="rgb(245,158,11)" stroke="none" paint-order="stroke fill markers" d=" M 6.675960216158401 274.16025218660684 L 10.233831172990527 298.9057882336302 L 20.839060907429097 297.3809863949878 L 19.8225263483342 290.31083323869547 L 48.103138973503704 286.24469500231584 L 46.578337134861364 275.6394652678773 L 18.29772450969186 279.7056035042569 L 17.281189950596964 272.6354503479645 L 6.675960216158401 274.16025218660684 Z" fill-opacity="1"/></g></g><g><g><path fill="rgb(245,158,11)" stroke="none" paint-order="stroke fill markers" d=" M 44.89232464017092 247.38047396458288 L 45.402130881139584 236.6783239019078 L 6.160913984664276 234.80903435168935 L 5.651107743695604 245.51118441436444 L 44.89232464017092 247.38047396458288 Z" fill-opacity="1"/></g></g><g><g><path fill="rgb(245,158,11)" stroke="none" paint-order="stroke fill markers" d=" M 47.410643700682115 215.55244062518955 L 49.936632295425966 205.14017382172304 L 22.17058748618192 198.40420423573943 L 23.01258368442987 194.93344863458393 L 50.77862849367392 201.66941822056754 L 53.30461708841778 191.25715141710103 L 15.126305475707206 181.99519323637355 L 9.232332087971542 206.2904824444621 L 47.410643700682115 215.55244062518955 Z" fill-opacity="1"/></g></g><g><g><path fill="rgb(245,158,11)" stroke="none" paint-order="stroke fill markers" d=" M 32.240773416987814 138.77398973074085 L 21.855398091940664 161.5147896146038 L 31.601455185024793 165.96566475390975 L 34.568705277895404 159.46829335852033 L 60.55819085945308 171.33729373000278 L 65.009065998759 161.59123663691867 L 39.019580417201325 149.7222362654362 L 41.98683051007194 143.2248648700468 L 32.240773416987814 138.77398973074085 Z" fill-opacity="1"/></g></g><g><g><path fill="rgb(245,158,11)" stroke="none" paint-order="stroke fill markers" d=" M 57.225627173109366 99.57278403278232 L 42.72420443382942 119.93718283404073 L 74.72540255009261 142.7251328529092 L 89.22682528937256 122.36073405165082 L 57.225627173109366 99.57278403278232 Z M 59.738331199671556 114.51527897872734 L 74.28433034342756 124.87343807821301 L 72.21269852353042 127.78263790696421 L 57.66669937977442 117.42447880747854 L 59.738331199671556 114.51527897872734 Z" fill-opacity="1"/></g></g><g><g><path fill="rgb(245,158,11)" stroke="none" paint-order="stroke fill markers" d=" M 89.1778490319241 65.8084098541674 L 81.42355576651264 73.2021135486186 L 101.14009895171583 93.88022892304917 L 98.55533452991202 96.34479682119957 L 78.83879134470881 75.66668144676899 L 71.08449807929735 83.0603851412202 L 98.19474495895174 111.49279378106223 L 116.2880959115785 94.24081849400943 L 89.1778490319241 65.8084098541674 Z" fill-opacity="1"/></g></g><g><g><path fill="rgb(245,158,11)" stroke="none" paint-order="stroke fill markers" d=" M 126.94260244475221 38.701199649930146 L 105.9112641239727 52.2172200863201 L 127.15072480972835 85.26646601897363 L 148.18206313050786 71.75044558258367 L 138.52776281880074 56.72806106774115 L 129.51433210989524 62.52064125476542 L 133.37605223457808 68.52959506070243 L 130.3715753316096 70.46045512304386 L 120.71727501990247 55.43807060820134 L 123.72175192287098 53.50721054585992 L 127.58347204755383 59.51616435179692 L 136.59690275645931 53.72358416477265 L 126.94260244475221 38.701199649930146 Z" fill-opacity="1"/></g></g><g><g><path fill="rgb(245,158,11)" stroke="none" paint-order="stroke fill markers" d=" M 169.1549708281492 19.23087862399882 L 159.20817154583412 23.21297636321662 L 164.51763519812454 36.475375406303364 L 161.20203543735283 37.80274131937597 L 155.89257178506244 24.540342276289216 L 145.9457725027474 28.52244001550702 L 160.54679754654597 64.99403738399558 L 170.49359682886106 61.01193964477777 L 165.18413317657064 47.749540601691024 L 168.49973293734234 46.422174688618426 L 173.80919658963273 59.68457373170517 L 183.7559958719478 55.70247599248737 L 169.1549708281492 19.23087862399882 Z" fill-opacity="1"/></g></g><g><g><path fill="rgb(245,158,11)" stroke="none" paint-order="stroke fill markers" d=" M 219.6964676157833 36.1562605437546 L 195.1482501842156 40.88754165276487 L 197.17594208807716 51.40820626629387 L 221.72415951964481 46.6769251572836 L 219.6964676157833 36.1562605437546 Z" fill-opacity="1"/></g></g></g></g></svg>