<svg version="1.1" xmlns="http://www.w3.org/2000/svg" xmlns:xlink="http://www.w3.org/1999/xlink" width="500" height="500" viewBox="0 0 500 500"><defs/><g><g><g><g><path fill="rgb(244,244,245)" stroke="none" paint-order="stroke fill markers" d=" M 243.75 41.875 L 253.125 41.875 L 256.25 38.75 L 256.25 32.5 L 246.875 32.5 L 250 35.625 L 253.125 35.625 L 253.125 38.75 L 243.75 38.75 L 243.75 23.125 L 253.125 23.125 L 253.125 26.25 L 256.25 26.25 L 256.25 23.125 L 253.125 20 L 243.75 20 L 240.625 23.125 L 240.625 38.75 L 243.75 41.875 Z M 259.375 45 L 237.5 45 L 237.5 16.875 L 259.375 16.875 L 259.375 45 Z" fill-opacity="1"/></g></g><g><g><path fill="rgb(244,244,245)" stroke="none" paint-order="stroke fill markers" d=" M 280.1823336956725 43.86185946632031 L 295.5249695904023 46.81891015945172 L 296.11637972902855 43.75038298050576 L 283.8422710132447 41.384742426000635 L 285.0250912904973 35.247688068108715 L 294.2306728273352 37.02191848398756 L 294.82208296596144 33.953391305041606 L 285.61650142912356 32.17916088916276 L 286.79932170637613 26.042106531270843 L 299.07343042215996 28.40774708577597 L 299.6648405607863 25.33921990683001 L 284.32220466605645 22.3821692136986 L 280.1823336956725 43.86185946632031 Z M 298.002086630722 50.47884747702396 L 276.52239637810027 46.33897650663999 L 281.8450876257368 18.72223189612636 L 303.32477787835853 22.862102866510334 L 298.002086630722 50.47884747702396 Z" fill-opacity="1"/></g></g><g><g><path fill="rgb(244,244,245)" stroke="none" paint-order="stroke fill markers" d=" M 324.4510987936304 55.62197876709136 L 327.3522485843057 56.78342394102989 L 334.3209196279368 39.37652519697853 L 340.1232192092873 41.69941554485557 L 341.2846643832258 38.79826575418035 L 326.77891542984963 32.99103988448773 L 325.61747025591114 35.89218967516295 L 331.4197698372616 38.21508002304 L 324.4510987936304 55.62197876709136 Z M 334.8942527823928 63.16890925352069 L 314.5862042476663 55.038793035951024 L 325.03921081311296 28.92844491987398 L 345.34725934783955 37.05856113744365 L 334.8942527823928 63.16890925352069 Z" fill-opacity="1"/></g></g><g><g><path fill="rgb(244,244,245)" stroke="none" paint-order="stroke fill markers" d=" M 354.6341182626539 69.84560081586419 L 367.7787047131411 78.2931135886079 L 369.4682072676898 75.66419629851045 L 364.21037268749495 72.28519118941297 L 372.6578854602387 59.14060473892576 L 377.91572004043354 62.51960984802325 L 379.6052225949823 59.8906925579258 L 366.4606361444951 51.443179785182096 L 364.7711335899464 54.07209707527954 L 370.02896817014124 57.45110218437702 L 361.5814553973975 70.59568863486423 L 356.32362081720265 67.21668352576674 L 354.6341182626539 69.84560081586419 Z M 368.7181194486898 82.61153343325408 L 350.3156984180077 70.78501555141288 L 365.5212214089464 47.12475994053591 L 383.92364243962845 58.95127782237711 L 368.7181194486898 82.61153343325408 Z" fill-opacity="1"/></g></g><g><g><path fill="rgb(244,244,245)" stroke="none" paint-order="stroke fill markers" d=" M 395.88436313379293 101.52935023026386 L 398.14603200287127 103.68584714114546 L 413.24151037904244 87.85416505759706 L 410.9798415099641 85.69766814671546 L 402.3538538664377 94.74434362302883 L 402.03833799184747 81.489846283149 L 404.1948349027291 79.22817741407066 L 401.9331660336507 77.07168050318906 L 386.83768765747953 92.90336258673746 L 389.09935652655787 95.05985949761906 L 397.72534417008427 86.01318402130569 L 398.0408600446745 99.26768136118552 L 395.88436313379293 101.52935023026386 Z M 398.251203961068 108.10401292110541 L 382.41952187751957 93.00853454493421 L 401.827994075454 72.65351472322911 L 417.6596761590024 87.74899309940031 L 398.251203961068 108.10401292110541 Z" fill-opacity="1"/></g></g><g><g><path fill="rgb(244,244,245)" stroke="none" paint-order="stroke fill markers" d=" M 417.7209421780661 126.73010584533706 L 419.53362002047606 129.27565569549438 L 434.80691912141987 118.3995886410344 L 438.4322748062399 123.490688341349 L 440.97782465639716 121.678010498939 L 431.9144354443472 108.95026124815251 L 429.3688855941899 110.7629390905625 L 432.9942412790099 115.8540387908771 L 417.7209421780661 126.73010584533706 Z M 422.4261036975488 138.72498308837626 L 409.7373588006788 120.90613413727516 L 432.6473074520945 104.59203355558522 L 445.3360523489645 122.4108825066863 L 422.4261036975488 138.72498308837626 Z" fill-opacity="1"/></g></g><g><g><path fill="rgb(244,244,245)" stroke="none" paint-order="stroke fill markers" d=" M 443.4579309342729 165.08617848883435 L 439.5634151873802 156.55837853238575 L 453.7764151147946 150.06751895423128 L 457.6709308616873 158.59531891067988 L 443.4579309342729 165.08617848883435 Z M 436.7208152018974 157.85655044801663 L 440.61533094879 166.38435040446524 L 444.7561028499038 167.92877847431723 L 458.96910277731814 161.43791889616276 L 460.51353084717016 157.297146995049 L 456.61901510027747 148.7693470386004 L 452.47824319916367 147.2249189687484 L 438.26524327174934 153.71577854690287 L 436.7208152018974 157.85655044801663 Z M 440.369074794569 173.36772229106188 L 431.2818713851527 153.4695223926818 L 456.8652712544985 141.78597515200374 L 465.9524746639148 161.68417505038383 L 440.369074794569 173.36772229106188 Z" fill-opacity="1"/></g></g><g><g><path fill="rgb(244,244,245)" stroke="none" paint-order="stroke fill markers" d=" M 450.78478931040314 194.85884924507832 L 452.9950293308041 203.96958269811154 L 456.76868715528207 206.26974717565562 L 474.9901540613485 201.84926713485387 L 474.2534073878815 198.81235598384282 L 456.0319404818151 203.23283602464457 L 453.82170046141425 194.12210257161138 L 472.04316736748063 189.7016225308096 L 471.3064206940137 186.66471137979855 L 453.08495378794726 191.0851914206003 L 450.78478931040314 194.85884924507832 Z M 451.4316115267269 210.7801516736006 L 446.2743848124582 189.52177361652315 L 473.6065851715578 182.89105355532052 L 478.7638118858265 204.149431612398 L 451.4316115267269 210.7801516736006 Z" fill-opacity="1"/></g></g><g><g><path fill="rgb(244,244,245)" stroke="none" paint-order="stroke fill markers" d=" M 457.5918779935651 233.8540928992898 L 458.0379584544127 243.21847420413053 L 461.30811237630877 246.1912411521282 L 464.4295728112557 246.04254766517903 L 461.1594188893596 243.06978071718132 L 460.71333842851203 233.70539941234063 L 476.3206406032465 232.96193197759465 L 476.7667210640941 242.32631328243536 L 473.7939541160964 245.59646720433145 L 476.9154145510433 245.44777371738226 L 479.888181499041 242.17761979548615 L 479.4421010381934 232.81323849064546 L 476.1719471162973 229.84047154264775 L 460.56464494156285 230.58393897739373 L 457.5918779935651 233.8540928992898 Z M 455.2138849933642 249.6100885609735 L 454.1730305847198 227.75986551634523 L 482.2661744992419 226.42162413380245 L 483.3070289078863 248.27184717843076 L 455.2138849933642 249.6100885609735 Z" fill-opacity="1"/></g></g><g><g><path fill="rgb(244,244,245)" stroke="none" paint-order="stroke fill markers" d=" M 455.56185372186513 282.71246772150533 L 455.1171198522611 285.8056597273833 L 476.7694638934065 288.91879681461137 L 477.21419776301053 285.8256048087335 L 467.9346217453768 284.4914031999214 L 469.26882335418884 275.21182718228766 L 478.5483993718226 276.54602879109973 L 478.99313324142656 273.4528367852218 L 457.34078920028116 270.3396996979937 L 456.89605533067714 273.43289170387163 L 466.1756313483109 274.76709331268364 L 464.84142973949884 284.0466693303174 L 455.56185372186513 282.71246772150533 Z M 451.57919397677915 288.4541178636572 L 454.6923310640073 266.8017738225118 L 482.5310591169085 270.80437864894793 L 479.4179220296804 292.45672269009333 L 451.57919397677915 288.4541178636572 Z" fill-opacity="1"/></g></g><g><g><path fill="rgb(244,244,245)" stroke="none" paint-order="stroke fill markers" d=" M 449.74455755109125 309.2116371899883 L 444.6341206242565 323.97727498240505 L 447.58724818273987 324.999362367772 L 452.6976851095746 310.23372457535527 L 449.74455755109125 309.2116371899883 Z M 440.65890568040624 325.90831515552145 L 447.81351737797485 305.23642224613803 L 474.3916654043249 314.43520871444053 L 467.2370537067563 335.1071016238239 L 440.65890568040624 325.90831515552145 Z" fill-opacity="1"/></g></g><g><g><path fill="rgb(244,244,245)" stroke="none" paint-order="stroke fill markers" d=" M 433.3665371626363 348.6498412263472 L 428.6790371626363 356.7688293868263 L 429.8228665494627 361.0376587736527 L 435.2355253231154 364.1626587736527 L 439.9230253231154 356.04367061317356 L 435.654195936289 357.18749999999994 L 434.091695936289 359.8938293868263 L 431.3853665494627 358.3313293868263 L 436.0728665494627 350.2123412263472 L 449.60451348359453 358.0248412263472 L 444.91701348359453 366.1438293868263 L 442.21068409676815 364.5813293868263 L 440.64818409676815 367.2876587736527 L 443.35451348359453 368.85015877365265 L 447.62334287042086 367.7063293868263 L 452.31084287042086 359.5873412263472 L 451.1670134835945 355.31851183952085 L 437.6353665494627 347.50601183952085 L 433.3665371626363 348.6498412263472 Z M 422.8477077758099 360.61898816047903 L 433.7852077758099 341.67468245269447 L 458.14217225724724 355.73718245269447 L 447.20467225724724 374.68148816047903 L 422.8477077758099 360.61898816047903 Z" fill-opacity="1"/></g></g><g><g><path fill="rgb(244,244,245)" stroke="none" paint-order="stroke fill markers" d=" M 413.429699543217 379.2077379927913 L 403.19750057532195 391.01632509207656 L 405.559217995179 393.0627648856556 L 413.7449771694951 383.6158952062274 L 418.4684120092092 387.7087747933854 L 412.32909262847215 394.7939270529566 L 414.6908100483292 396.8403668465356 L 420.83012942906623 389.7552145869644 L 425.55356426878035 393.8480941741224 L 417.3678050944643 403.29496385355066 L 419.72952251432133 405.3414036471297 L 429.96172148221643 393.5328165478444 L 413.429699543217 379.2077379927913 Z M 398.78934336188587 391.3316027183546 L 413.11442191693897 374.7995807793552 L 434.3698786956525 393.21753892156636 L 420.04480014059936 409.74956086056574 L 398.78934336188587 391.3316027183546 Z" fill-opacity="1"/></g></g><g><g><path fill="rgb(244,244,245)" stroke="none" paint-order="stroke fill markers" d=" M 381.1107549282347 411.6655535114032 L 378.6543390071635 413.59730034334257 L 390.24481999879987 428.33579586976987 L 385.3319881566575 432.19928953364865 L 387.26373498859687 434.65570545471985 L 399.5458145939529 424.9969712950229 L 397.6140677620135 422.5405553739517 L 392.70123591987107 426.4040490378305 L 381.1107549282347 411.6655535114032 Z M 369.3533444120105 416.93612491808955 L 386.54825585950897 403.4138970945138 L 403.9339773469635 425.5216403841547 L 386.739065899465 439.04386820773044 L 369.3533444120105 416.93612491808955 Z" fill-opacity="1"/></g></g><g><g><path fill="rgb(244,244,245)" stroke="none" paint-order="stroke fill markers" d=" M 353.7012271656572 430.6930041101114 L 339.813173280424 437.8527935121022 L 341.24513116082215 440.6304042891489 L 346.80035271491545 437.76648852835257 L 353.96014211690624 451.6545424135857 L 348.40492056281295 454.51845817438203 L 349.8368784432111 457.29606895142865 L 363.7249323284443 450.13627954943786 L 362.29297444804615 447.35866877239124 L 356.73775289395286 450.22258453318756 L 349.57796349196207 436.3345306479544 L 355.13318504605536 433.4706148871581 L 353.7012271656572 430.6930041101114 Z M 335.6036046229792 436.50714061545375 L 355.04688006230566 426.48343545266664 L 367.9345009858891 451.4819324460864 L 348.49122554656265 461.5056376088735 L 335.6036046229792 436.50714061545375 Z" fill-opacity="1"/></g></g><g><g><path fill="rgb(244,244,245)" stroke="none" paint-order="stroke fill markers" d=" M 305.6371728500773 450.57488937364667 L 302.63875730753205 451.45530361377615 L 308.8016569884383 472.4442124115933 L 311.80007253098364 471.5637981714638 L 308.27841557046577 459.5701360012826 L 319.91490491849004 465.9241399085301 L 320.7953191586195 468.9225554510754 L 323.79373470116485 468.04214121094594 L 317.63083502025853 447.0532324131288 L 314.63241947771326 447.9336466532583 L 318.15407643823113 459.9273088234395 L 306.5175870902068 453.573304916192 L 305.6371728500773 450.57488937364667 Z M 298.75992752485723 449.3373023113603 L 319.7488363226744 443.17440263045404 L 327.6725644838396 470.1601425133618 L 306.68365568602246 476.32304219426806 L 298.75992752485723 449.3373023113603 Z" fill-opacity="1"/></g></g><g><g><path fill="rgb(244,244,245)" stroke="none" paint-order="stroke fill markers" d=" M 272.89438877072394 456.88554375019766 L 269.78353901268304 457.18259388552326 L 271.5658398246365 475.8476924337686 L 265.3441403085547 476.44179270441975 L 265.6411904438803 479.5526424624606 L 281.19543923408474 478.06739178583274 L 280.89838909875914 474.9565420277919 L 274.6766895826774 475.550642298443 L 272.89438877072394 456.88554375019766 Z M 260.15393960323485 454.96289453345906 L 281.929887909521 452.88354358618005 L 284.6033391274512 480.8811914085481 L 262.82739082116495 482.9605423558271 L 260.15393960323485 454.96289453345906 Z" fill-opacity="1"/></g></g><g><g><path fill="rgb(244,244,245)" stroke="none" paint-order="stroke fill markers" d=" M 226.80856109395054 459.99639350823855 L 236.1411103680732 460.88754391421526 L 234.65585969144536 476.44179270441975 L 225.3233104173227 475.550642298443 L 226.80856109395054 459.99639350823855 Z M 236.43816050339876 457.7766941561744 L 227.10561122927612 456.88554375019766 L 223.69771133590964 459.699343372913 L 222.2124606592818 475.25359216311745 L 225.0262602819971 478.6614920564839 L 234.35880955611978 479.5526424624606 L 237.76670944948626 476.7388428397453 L 239.25196012611408 461.18459404954086 L 236.43816050339876 457.7766941561744 Z M 221.1809618485199 453.18059372150566 L 242.95691015480614 455.25994466878467 L 240.283458936876 483.25759249115265 L 218.50751063058976 481.17824154387364 L 221.1809618485199 453.18059372150566 Z" fill-opacity="1"/></g></g><g><g><path fill="rgb(244,244,245)" stroke="none" paint-order="stroke fill markers" d=" M 197.36124269246812 451.4553036137762 L 188.3659960648322 448.8140608933878 L 184.48716628215743 450.93206219580367 L 179.20468084138062 468.9225554510755 L 182.20309638392592 469.80296969120496 L 187.48558182470273 451.8124764359331 L 196.48082845233864 454.45371915632154 L 191.19834301156186 472.44421241159336 L 194.19675855410716 473.32462665172284 L 199.47924399488394 455.33413339645097 L 197.36124269246812 451.4553036137762 Z M 183.24957921987107 444.0548168705836 L 204.23848801768818 450.21771655148984 L 196.31475985652298 477.2034564343976 L 175.32585105870587 471.04055675349133 L 183.24957921987107 444.0548168705836 Z" fill-opacity="1"/></g></g><g><g><path fill="rgb(244,244,245)" stroke="none" paint-order="stroke fill markers" d=" M 160.18682671957598 437.8527935121022 L 151.85399438843606 433.55691987090773 L 147.6444257309913 434.90257276755625 L 146.21246785059313 437.68018354460287 L 150.4220365080379 436.3345306479544 L 158.75486883917782 440.6304042891489 L 151.59507943718705 454.51845817438203 L 143.26224710604714 450.22258453318756 L 141.91659420939865 446.0130158757428 L 140.4846363290005 448.7906266527894 L 141.83028922564898 453.0001953102342 L 150.1631215567889 457.29606895142865 L 154.37269021423367 455.9504160547802 L 161.53247961622446 442.06236216954704 L 160.18682671957598 437.8527935121022 Z M 147.73073071474096 427.9153933330648 L 167.1740061540674 437.9390984958519 L 154.286385230484 462.93759548927164 L 134.84310979115753 452.91389032648453 L 147.73073071474096 427.9153933330648 Z" fill-opacity="1"/></g></g><g><g><path fill="rgb(244,244,245)" stroke="none" paint-order="stroke fill markers" d=" M 118.88924507176539 411.6655535114033 L 116.43282915069418 409.7338066794639 L 102.91060132711844 426.9287181269624 L 105.36701724818965 428.8604649589018 L 111.16225774400783 421.49121719568814 L 118.53150550722147 427.2864576915063 L 112.73626501140329 434.65570545471996 L 115.1926809324745 436.58745228665936 L 128.71490875605025 419.39254083916086 L 126.25849283497902 417.46079400722147 L 120.46325233916085 424.8300417704351 L 113.09400457594722 419.03480127461694 L 118.88924507176539 411.6655535114033 Z M 115.90816006156236 405.3456439264533 L 133.10307150906084 418.86787175002905 L 115.71735002160632 440.97561503966995 L 98.52243857410784 427.4533872160942 L 115.90816006156236 405.3456439264533 Z" fill-opacity="1"/></g></g><g><g><path fill="rgb(244,244,245)" stroke="none" paint-order="stroke fill markers" d=" M 98.84893921825707 393.37804251193364 L 88.616740250362 381.5694554126483 L 86.25502283050494 383.6158952062274 L 96.48722179840001 395.42448230551264 L 98.84893921825707 393.37804251193364 Z M 88.93201787664003 377.1612981992123 L 103.25709643169314 393.6933201382117 L 82.00163965297963 412.1112782804228 L 67.67656109792652 395.57925634142345 L 88.93201787664003 377.1612981992123 Z" fill-opacity="1"/></g></g><g><g><path fill="rgb(244,244,245)" stroke="none" paint-order="stroke fill markers" d=" M 72.88346283736375 359.4751587736529 L 68.19596283736375 351.35617061317373 L 63.927133450537376 350.21234122634735 L 58.51447467688464 353.3373412263474 L 63.201974676884646 361.4563293868265 L 64.34580406371101 357.1875000000001 L 62.78330406371101 354.48117061317373 L 65.48963345053738 352.91867061317373 L 70.17713345053738 361.0376587736529 L 56.64548651640553 368.8501587736529 L 51.957986516405526 360.73117061317373 L 54.6643159032319 359.16867061317373 L 53.101815903231895 356.4623412263474 L 50.395486516405526 358.0248412263474 L 49.25165712957916 362.29367061317373 L 53.939157129579165 370.4126587736529 L 58.20798651640553 371.55648816047926 L 71.73963345053738 363.7439881604792 L 72.88346283736375 359.4751587736529 Z M 67.77729222419012 344.381011839521 L 78.71479222419012 363.3253175473056 L 54.3578277427528 377.3878175473056 L 43.42032774275279 358.443511839521 L 67.77729222419012 344.381011839521 Z" fill-opacity="1"/></g></g><g><g><path fill="rgb(244,244,245)" stroke="none" paint-order="stroke fill markers" d=" M 56.38796676111048 326.93040254088845 L 51.27752983427576 312.1647647484717 L 48.32440227579242 313.18685213383867 L 52.4127518172602 324.99936236777205 L 46.506496700293525 327.04353713850594 L 43.44023454419269 318.1841544630559 L 40.48710698570935 319.20624184842285 L 43.55336914181018 328.0656245238729 L 37.6471140248435 330.1097992946068 L 33.55876448337573 318.2972890606734 L 30.605636924892394 319.31937644604034 L 35.71607385172711 334.085014238457 L 56.38796676111048 326.93040254088845 Z M 53.208570007392154 308.18954980462144 L 60.36318170496076 328.86144271400485 L 33.785033678610716 338.0602291823073 L 26.63042198104211 317.38833627292394 L 53.208570007392154 308.18954980462144 Z" fill-opacity="1"/></g></g><g><g><path fill="rgb(244,244,245)" stroke="none" paint-order="stroke fill markers" d=" M 44.43814627813491 282.7124677215054 L 43.993412408530894 279.6192757156275 L 25.43426037326341 282.2876789332516 L 24.544792634055376 276.10129492149576 L 21.45160062817746 276.5460287910998 L 23.67526997619754 292.01198882048936 L 26.768461982075458 291.56725495088534 L 25.878994242867424 285.3808709391295 L 44.43814627813491 282.7124677215054 Z M 45.75240280559676 269.89496582838973 L 48.86553989282488 291.5473098695351 L 21.026811839923646 295.54991469597127 L 17.91367475269553 273.89757065482587 L 45.75240280559676 269.89496582838973 Z" fill-opacity="1"/></g></g><g><g><path fill="rgb(244,244,245)" stroke="none" paint-order="stroke fill markers" d=" M 41.66465457168888 249.46139507402432 L 42.40812200643485 233.8540928992898 L 39.286661571487954 233.70539941234063 L 38.989274597589564 239.94832028223442 L 23.381972422855064 239.20485284748844 L 23.679359396753455 232.96193197759465 L 20.557898961806558 232.81323849064546 L 19.81443152706058 248.42054066537995 L 22.935891962007478 248.56923415232916 L 23.23327893590587 242.32631328243536 L 38.84058111064037 243.06978071718132 L 38.54319413674198 249.31270158707514 L 41.66465457168888 249.46139507402432 Z M 45.67827592833095 230.88132595129213 L 44.63742151968658 252.7315489959204 L 16.54427760516449 251.39330761337766 L 17.585132013808852 229.54308456874935 L 45.67827592833095 230.88132595129213 Z" fill-opacity="1"/></g></g><g><g><path fill="rgb(244,244,245)" stroke="none" paint-order="stroke fill markers" d=" M 48.47846401612981 197.8957603960895 L 49.215210689596766 194.85884924507843 L 27.95683263251929 189.70162253080974 L 27.22008595905233 192.7385336818208 L 39.36773056309661 195.68552037568864 L 28.046757089662524 202.58601380832096 L 25.009845938651456 201.84926713485402 L 24.2730992651845 204.88617828586507 L 45.53147732226198 210.0434050001338 L 46.26822399572894 207.0064938491227 L 34.12057939168466 204.0595071552549 L 45.441552865118744 197.15901372262255 L 48.47846401612981 197.8957603960895 Z M 52.988868514074795 192.55868476753432 L 47.831641799806086 213.8170628246118 L 20.499441440706473 207.1863427634092 L 25.65666815497518 185.9279647063317 L 52.988868514074795 192.55868476753432 Z" fill-opacity="1"/></g></g><g><g><path fill="rgb(244,244,245)" stroke="none" paint-order="stroke fill markers" d=" M 59.384669051209926 166.38435040446535 L 60.68284096684082 163.54175041898247 L 43.6272410539436 155.75271892519712 L 46.22358488520538 150.06751895423136 L 43.38098489972252 148.76934703860047 L 36.89012532156805 162.98234696601483 L 39.73272530705091 164.28051888164572 L 42.329069138312704 158.59531891067996 L 59.384669051209926 166.38435040446535 Z M 67.41995669921637 156.31212237816476 L 58.33275328980012 176.21032227654484 L 32.749353420454284 164.5267750358668 L 41.836556829870545 144.6285751374867 L 67.41995669921637 156.31212237816476 Z" fill-opacity="1"/></g></g><g><g><path fill="rgb(244,244,245)" stroke="none" paint-order="stroke fill markers" d=" M 79.73350797177655 124.91742800292712 L 74.29547444454656 132.55407755339903 L 61.56772519376007 123.49068834134906 L 67.00575872099004 115.85403879087717 L 79.73350797177655 124.91742800292712 Z M 76.84102429470386 134.36675539580904 L 82.27905782193385 126.73010584533712 L 81.54618581418654 122.37187815276982 L 68.81843656340004 113.30848894071987 L 64.46020887083274 114.04136094846717 L 59.02217534360277 121.67801049893907 L 59.75504735135007 126.03623819150636 L 72.48279660213657 135.09962740355633 L 76.84102429470386 134.36675539580904 Z M 88.44996335691113 123.45168398743252 L 75.76121846004118 141.27053293853362 L 52.85126980862548 124.95643235684368 L 65.54001470549544 107.13758340574257 L 88.44996335691113 123.45168398743252 Z" fill-opacity="1"/></g></g><g><g><path fill="rgb(244,244,245)" stroke="none" paint-order="stroke fill markers" d=" M 101.85396799712875 103.68584714114549 L 108.63897460436378 97.21635640850069 L 108.74414656256052 92.79819062854075 L 95.80516509727092 79.22817741407069 L 93.54349622819258 81.38467432495229 L 106.48247769348218 94.95468753942235 L 99.69747108624715 101.42417827206715 L 86.75848962095755 87.85416505759709 L 84.4968207518792 90.01066196847869 L 97.4358022171688 103.58067518294875 L 101.85396799712875 103.68584714114549 Z M 115.31880925340207 95.16503145581584 L 99.48712716985365 110.26050983198704 L 80.07865497191926 89.90549001028194 L 95.91033705546766 74.81001163411074 L 115.31880925340207 95.16503145581584 Z" fill-opacity="1"/></g></g><g><g><path fill="rgb(244,244,245)" stroke="none" paint-order="stroke fill markers" d=" M 132.22129528685872 78.29311358860798 L 140.10804715715105 73.22460592496175 L 141.04746189269974 68.90618608031556 L 139.357959338151 66.27726879021813 L 138.4185446026023 70.59568863486432 L 130.53179273230998 75.66419629851055 L 122.08427995956626 62.51960984802335 L 129.9710318298586 57.45110218437711 L 134.28945167450476 58.39051691992581 L 132.59994911995602 55.76159962982837 L 128.28152927530982 54.82218489427967 L 120.39477740501752 59.8906925579259 L 119.45536266946883 64.20911240257209 L 127.90287544221255 77.35369885305929 L 132.22129528685872 78.29311358860798 Z M 147.05538429189468 72.4745181059617 L 128.6529632612126 84.30103598780292 L 113.44744027027389 60.64078037692596 L 131.84986130095598 48.81426249508475 L 147.05538429189468 72.4745181059617 Z" fill-opacity="1"/></g></g><g><g><path fill="rgb(244,244,245)" stroke="none" paint-order="stroke fill markers" d=" M 175.54890120636944 55.62197876709142 L 178.45005099704466 54.460533593152896 L 170.31993477947498 34.152485058426315 L 167.41878498879976 35.31393023236484 L 170.90312051061534 44.01737960439051 L 162.19967113858965 47.50171512620609 L 158.71533561677407 38.79826575418041 L 155.81418582609885 39.95971092811894 L 163.94430204366853 60.26775946284552 L 166.84545183434375 59.106314288906994 L 163.36111631252817 50.40286491688132 L 172.06456568455386 46.91852939506575 L 175.54890120636944 55.62197876709142 Z M 182.51264596165842 56.2002382098896 L 162.20459742693183 64.33035442745927 L 151.7515908614851 38.220006311382235 L 172.05963939621168 30.08989009381256 L 182.51264596165842 56.2002382098896 Z" fill-opacity="1"/></g></g><g><g><path fill="rgb(244,244,245)" stroke="none" paint-order="stroke fill markers" d=" M 201.40650323065165 47.410320298078034 L 216.74913912538145 44.45326960494662 L 216.15772898675516 41.38474242600066 L 200.8150930920254 44.34179311913208 L 201.40650323065165 47.410320298078034 Z M 220.4090764429537 46.930386645266296 L 198.929386190332 51.07025761565028 L 193.60669494269544 23.453513005136653 L 215.08638519531715 19.313642034752668 L 220.4090764429537 46.930386645266296 Z" fill-opacity="1"/></g></g></g></g></svg>