<svg version="1.1" xmlns="http://www.w3.org/2000/svg" xmlns:xlink="http://www.w3.org/1999/xlink" width="500" height="500" viewBox="0 0 500 500"><defs/><g><g><g><g><path fill="rgb(244,244,245)" stroke="none" paint-order="stroke fill markers" d=" M 259.15 36.25 C 254.05 36.25 250.1 32.25 250.1 27.2 C 250.1 24.25 251.55 21.549999999999997 253.8 19.95 C 252.65 19.65 251.25 19.5 249.95 19.5 C 241.3 19.5 234.2 26.599999999999998 234.2 35.25 C 234.2 44.05 241.3 51 249.95 51 C 258.75 51 265.85 44.05 265.85 35.25 C 265.85 34.65 265.8 34.05 265.7 33.65 C 264.05 35.25 261.65 36.25 259.15 36.25 Z" fill-opacity="1"/></g></g><g><g><path fill="rgb(244,244,245)" stroke="none" paint-order="stroke fill markers" d=" M 300.8898330595639 48.579060445122224 C 301.5135681320172 45.64461764292081 303.5005687601623 43.51111617731293 306.0340595671218 42.4138813204788 C 304.14509500169737 40.478858615038135 303.2288395812637 37.574899936866906 303.852574653717 34.64045713466549 C 304.41393621892496 31.999458612684215 306.25421470695994 29.834770393453677 308.6513789583503 28.657441402960192 C 306.7000408856805 27.015862977739665 304.5261410384467 25.94038194387765 301.88514251646546 25.3790203786697 C 293.3263510100446 23.559793084014306 284.99274921556105 29.0981665935367 283.1943130899874 37.559143339884116 C 281.37508579533204 46.11793484630492 286.7667371647443 54.42034988716588 295.32552867116516 56.23957718182127 C 297.9665271931464 56.80093874702922 300.3899210693615 56.70264266001067 302.8402471999939 55.99666684347006 C 301.0980047746795 54.092830891652056 300.2972847407333 51.36678110721357 300.8898330595639 48.579060445122224 Z" fill-opacity="1"/></g></g><g><g><path fill="rgb(244,244,245)" stroke="none" paint-order="stroke fill markers" d=" M 339.5994141425056 63.63091059588299 C 341.3687185398854 59.65698785513767 345.94903222809216 57.974511549918134 349.83160042307327 59.703142282990285 C 350.51675951630517 60.008194765297134 351.06488679089074 60.25223675114261 351.5520035690149 60.63331055563448 C 351.6130140654763 60.49627873698809 351.6740245619377 60.359246918341704 351.73503505839903 60.22221509969531 C 355.31431751746607 52.183015072440426 351.7919962562268 43.007054472447535 343.75279622897193 39.42777201338049 C 335.71359620171705 35.84848955431345 326.53763560172416 39.370810815552716 322.95835314265713 47.41001084280761 C 322.89734264619574 47.547042661454 322.8363321497344 47.684074480100385 322.775321653273 47.82110629874678 C 323.38445942431997 47.92811646594586 324.0696185175519 48.23316894825272 324.61774579213744 48.477210934098196 C 328.5003139871185 50.20584166717035 330.3148185024099 54.73547447392049 328.5455141050302 58.709397214665806 C 327.7117039867248 60.582165402833134 326.0963766208486 61.99751606646799 324.26831851199665 62.66137113397938 C 326.0080912965254 65.02319048740443 328.2456328720386 67.00458083204882 330.94059197208423 68.20445392912242 C 333.6355510721299 69.40432702619603 336.6965731509438 69.7820092113913 339.52452765462806 69.45387307334525 C 338.79465848208076 67.65115540522162 338.76560402420023 65.50367878405032 339.5994141425056 63.63091059588299 Z" fill-opacity="1"/></g></g><g><g><path fill="rgb(244,244,245)" stroke="none" paint-order="stroke fill markers" d=" M 381.768649341277 80.28992943618347 C 384.2079581382908 76.93250890952743 388.1957857207102 75.44179392238368 392.0449078054302 76.01342245291781 C 391.98385491727714 71.33381001759284 389.7318398738836 66.60745537111009 385.48450065341507 63.521582796574606 C 381.3989648318216 60.553267272497614 376.20802352696563 59.8719975978896 371.73858124661905 61.26001262037673 C 373.47167642308614 64.74410233066067 373.286228714229 68.99740800357904 370.84691991721525 72.35482853023508 C 368.40761112020147 75.71224905689111 364.41978353778205 77.20296404403486 360.57066145306203 76.63133551350073 C 360.54354655337124 81.43230049798196 362.88372938460867 86.03730259530846 366.9692652062022 89.00561811938545 C 371.21660442667064 92.09149069392093 376.31937794368275 92.89411291768518 380.8769880118732 91.38474534604181 C 379.1438928354061 87.90065563575787 379.32934054426323 83.6473499628395 381.768649341277 80.28992943618347 Z" fill-opacity="1"/></g></g><g><g><path fill="rgb(244,244,245)" stroke="none" paint-order="stroke fill markers" d=" M 404.7697134350128 121.27522265218708 C 409.88396107241454 122.99480722507985 415.7446038511058 121.95660386322142 420.1663155626963 117.9752767553862 C 426.520203820528 112.25421007101797 427.1163185478614 102.23075521593651 421.3283388028573 95.80255247555704 C 415.5738155881711 89.41150697645145 405.50950278085986 88.91946255102779 399.15561452302813 94.64052923539603 C 394.73390281143764 98.62185634323123 393.12223938312513 104.37902934687114 394.3312759758146 109.68216337473973 C 394.74340607735394 107.89816539845017 395.72414706258365 106.07315933821623 397.1361222309907 104.8018111861344 C 401.11194704729473 101.2219624421145 407.03610243909515 101.67404970559598 410.5155815921612 105.53840279807844 C 414.06197380586315 109.47707037310862 413.82542856811307 115.341714126185 409.849603751809 118.9215628702049 C 408.43762858340193 120.19291102228672 406.55356127958777 121.01467156812619 404.7697134350128 121.27522265218708 Z" fill-opacity="1"/></g></g><g><g><path fill="rgb(244,244,245)" stroke="none" paint-order="stroke fill markers" d=" M 432.03245096224344 151.8894536928958 C 435.7996614687058 149.71445369289583 440.49414784157284 151.04554260614137 442.61914784157284 154.72615057222524 C 442.99414784157284 155.37566962506355 443.29414784157285 155.89528486733423 443.4642440310052 156.4899001096049 C 443.59414784157286 156.41490010960487 443.72405165214053 156.33990010960488 443.8539554627082 156.26490010960487 C 451.4749790160113 151.8649001096049 454.0188555723131 142.37102355330302 449.61885557231307 134.74999999999997 C 445.2188555723131 127.12897644669691 435.7249790160112 124.58509989039506 428.1039554627082 128.98509989039508 C 427.97405165214053 129.06009989039507 427.84414784157286 129.13509989039505 427.7142440310052 129.21009989039507 C 428.1441478415729 129.65471513266573 428.5191478415729 130.30423418550404 428.8191478415728 130.82384942777472 C 430.9441478415728 134.5044573938586 429.74966146870577 139.23554630710413 425.98245096224343 141.4105463071041 C 424.20709888448533 142.43554630710412 422.0683493471057 142.63112344369813 420.1992150519967 142.09368787839992 C 420.21847821650925 145.02705265805022 420.86405535310325 147.9452250588359 422.3390553531033 150.49999999999997 C 423.8140553531033 153.05477494116406 426.0684782165093 155.15954988232815 428.5492150519967 156.55631212160003 C 429.0183493471057 154.66887655630183 430.25709888448534 152.91445369289582 432.03245096224344 151.8894536928958 Z" fill-opacity="1"/></g></g><g><g><path fill="rgb(244,244,245)" stroke="none" paint-order="stroke fill markers" d=" M 459.10640453578964 198.6177405896287 C 467.475701879187 195.8983910391292 471.93787655653244 187.14088013997198 469.2185270060329 178.77158279657462 C 466.54553000468957 170.54494393062154 457.7416665563761 165.94011077583184 449.3723692129788 168.65946032633138 C 441.14573034702573 171.3324573276747 436.58724974139227 180.2789792534324 439.26024674273555 188.50561811938547 C 441.9795962932351 196.87491546278284 450.87976566983656 201.29073759097201 459.10640453578964 198.6177405896287 Z" fill-opacity="1"/></g></g><g><g><path fill="rgb(244,244,245)" stroke="none" paint-order="stroke fill markers" d=" M 477.9248496671597 233.98764838624064 C 476.5375952873749 235.1389629765104 474.6662210925308 235.9892327118717 472.77662949133105 236.18783679208025 C 467.45593735111083 236.7470640705622 462.9393780343767 232.99863880941282 462.3853771790582 227.72767276396098 C 461.8418291700664 222.55615890804594 465.4698965490254 217.851148058565 470.7905886892456 217.29192078008305 C 472.6801802904454 217.0933166998745 474.69266791070083 217.58565152326037 476.2942056401843 218.47310681849558 C 473.16221241693705 214.02612824315557 467.80538576287074 211.37152691747875 461.8879804854295 211.99347127392127 C 453.3848182800308 212.8871896348597 447.01613881734795 220.6956736043382 447.9150836014498 229.24856190450532 C 448.819254808715 237.8511762994409 456.6670120266351 244.1151771494235 465.17017423203384 243.22145878848505 C 471.08757950947506 242.59951443204253 475.78065042179173 238.93890172213082 477.9248496671597 233.98764838624064 Z" fill-opacity="1"/></g></g><g><g><path fill="rgb(244,244,245)" stroke="none" paint-order="stroke fill markers" d=" M 463.1633028120112 276.350985926049 C 468.9315298051472 276.95725101300144 473.42838462468814 281.0497193063387 474.83983358115466 286.2758853813204 C 476.9907463405235 283.98818472310825 478.52911654374867 280.83169662431413 478.90019258834883 277.3011438957568 C 479.80436379561405 268.6985295008212 473.48541042769966 260.89527195450614 464.8827960327641 259.9911007472409 C 456.1807294482917 259.07647669364894 448.4769240915134 265.40588290789015 447.57275288424825 274.00849730282573 C 447.2016768396481 277.53905003138306 447.9009809010015 280.93072717252943 449.5292513440321 283.6156359911586 C 452.1456160638071 278.81281019241095 457.44480191364363 275.74994726226004 463.1633028120112 276.350985926049 Z" fill-opacity="1"/></g></g><g><g><path fill="rgb(244,244,245)" stroke="none" paint-order="stroke fill markers" d=" M 465.3280554663583 327.3771350534313 C 462.7839029118478 325.4990275540113 461.7470374635073 322.21803531963496 462.7822443946634 319.0319959900462 C 463.7710987766632 315.9886151379017 466.55391024322216 313.89613805521043 469.7160967864825 313.8721325220401 C 468.75633283989384 308.250402079656 464.90784928519014 303.26726307605844 459.15395736160445 301.39771026009004 C 453.44761826383353 299.54360829384035 447.2624555716234 301.26661800678215 443.18161998184775 305.25055837897906 C 445.72577253635825 307.1286658783991 446.79473996079474 310.4726617883089 445.8058855787949 313.5160426404534 C 444.7706786476388 316.7020819700422 441.9557652049839 318.7315553771999 438.7935786617235 318.75556091037026 C 439.75334260831215 324.3772913527544 443.7444846404602 329.4067829055082 449.4508237382311 331.26088487175787 C 455.2047156618168 333.13043768772627 461.2472198765827 331.3610754256282 465.3280554663583 327.3771350534313 Z" fill-opacity="1"/></g></g><g><g><path fill="rgb(244,244,245)" stroke="none" paint-order="stroke fill markers" d=" M 430.53793005892373 364.79913244462756 C 433.08793005892375 360.38240288532694 438.5270316740615 358.9616025403784 442.9004599631729 361.4866025403784 C 445.45523490433703 362.9616025403784 447.068503494555 365.5673393758658 447.3291441406101 368.3158965343808 C 448.1639517617454 367.4699673200287 448.9938555723131 366.3325317547305 449.6438555723131 365.20669872981074 C 453.9688555723131 357.71557898707533 451.3700752054436 348.0167986202058 443.8789554627082 343.6917986202058 C 436.2579319094051 339.2917986202058 426.6890553531033 341.96557898707533 422.36405535310325 349.45669872981074 C 417.9640553531033 357.07772228311376 420.4329319094051 366.7015026499833 428.0539554627082 371.1015026499833 C 428.57357070497886 371.4015026499833 429.1181859472495 371.6582013797941 429.51459610876327 371.7715988394156 C 428.95395546270817 369.5426569231713 429.28793005892373 366.96419595408867 430.53793005892373 364.79913244462756 Z" fill-opacity="1"/></g></g><g><g><path fill="rgb(244,244,245)" stroke="none" paint-order="stroke fill markers" d=" M 398.99073397887213 394.78235800137037 C 401.2201684553043 396.78974982044696 402.07433460945947 399.57729357456014 401.75782246591586 402.3199784020585 C 404.3780835684394 401.65159845427263 407.3511132654928 402.3100773229075 409.580547741925 404.3174691419841 C 411.58703877071395 406.12412177915303 412.54157451582296 408.80019380944464 412.36258920450706 411.4648634434393 C 414.75990685938734 410.59574431374574 416.77825067961714 409.2508323376892 418.58490331678604 407.24434130890023 C 424.43979612242606 400.741824085973 423.8102248647747 390.75552647216546 417.38202212439523 384.96754672716133 C 410.879504901468 379.1126539215213 400.99357687861425 379.63075345535105 395.13868407297423 386.1332706782783 C 393.33203143580533 388.13976170706724 392.20546140614846 390.28763041075445 391.5916913324139 392.7626629957092 C 394.11158284398357 392.205754771745 396.87277122626153 392.8753357732476 398.99073397887213 394.78235800137037 Z" fill-opacity="1"/></g></g><g><g><path fill="rgb(244,244,245)" stroke="none" paint-order="stroke fill markers" d=" M 366.6006588328858 420.7799135136711 C 369.15752468035805 424.2991374392021 368.32443505784016 429.1070436031006 364.88611283174663 431.6051309253436 C 364.2793500859654 432.04596986456295 363.79393988934044 432.39864101593844 363.2203619048716 432.62995961815767 C 363.30852969271547 432.7513121673139 363.39669748055934 432.8726647164702 363.4848652684032 432.9940172656264 C 368.657375488577 440.11336681612596 378.36515110291555 441.6509274235991 385.48450065341507 436.47841720342535 C 392.60385020391465 431.3059069832516 394.1414108113878 421.598131368913 388.96890059121404 414.4787818184135 C 388.88073280337017 414.35742926925724 388.7925650155263 414.236076720101 388.7043972276824 414.1147241709448 C 388.3071548189013 414.58874787147647 387.70039207312016 415.02958681069583 387.2149818764952 415.3822579620713 C 383.77665965040165 417.88034528431433 378.94663031229493 417.1869358864632 376.38976446482263 413.66771196093214 C 375.18480469762306 412.0092271224635 374.7667387505902 409.90263725636913 375.1058524521203 407.9875649607535 C 372.1905705006401 408.31334271225563 369.3558653396083 409.2604153863517 366.9692652062022 410.9943818806145 C 364.5826650727961 412.7283483748773 362.72507166645323 415.19043016407755 361.5952686460587 417.8035786740378 C 363.5214025287784 418.0728522632345 365.39569906568624 419.1214286752024 366.6006588328858 420.7799135136711 Z" fill-opacity="1"/></g></g><g><g><path fill="rgb(244,244,245)" stroke="none" paint-order="stroke fill markers" d=" M 331.0889077156763 448.97003303381774 C 332.77686478444093 452.7612466830345 332.0739480418999 456.9601641688939 329.65434217056935 460.0077874112621 C 333.7375318635029 462.2947202768096 338.9566825763483 462.70759536276745 343.752796228972 460.57222798661945 C 348.3662007900671 458.51820793908666 351.55166828753363 454.3633557368315 352.58433315739865 449.7986976700595 C 348.7004753709952 449.55755726491435 345.10972846261603 447.27030200151125 343.42177139385143 443.4790883522944 C 341.7338143250869 439.6878747030776 342.4367310676279 435.4889572172183 344.8563369389584 432.44133397485007 C 340.7121367495635 430.0173692906562 335.55399653317943 429.74152602334476 330.9405919720843 431.79554607087755 C 326.14447831946063 433.9309134470255 322.8980003255328 437.9487338306343 321.92634595212917 442.65042371605267 C 325.81020373853255 442.89156412119786 329.4009506469118 445.17881938460096 331.0889077156763 448.97003303381774 Z" fill-opacity="1"/></g></g><g><g><path fill="rgb(244,244,245)" stroke="none" paint-order="stroke fill markers" d=" M 284.09407056219527 448.3968922450653 C 280.0477428194135 451.9661683338534 278.01653191573166 457.5607355436351 279.25360647609733 463.3807137680012 C 281.03125143258916 471.7438757542752 289.4137606071095 477.2718536792567 297.8747373534569 475.47341755368313 C 306.28680671976764 473.6853770126504 311.74508609563065 465.21544866259757 309.9674411391388 456.85228667632356 C 308.73036657877316 451.0323084519574 304.5503402177953 446.7579804788685 299.35317313364266 445.15346986830826 C 300.69209565063977 446.40238399405035 301.7822267682481 448.1642336319088 302.1772589808018 450.02271407330306 C 303.2895865266768 455.2558037372289 299.9359897758743 460.1602291707539 294.8496222520585 461.24136996300626 C 289.6654399681693 462.3433019243404 284.70478211273456 459.2061258627663 283.59245456685954 453.9730361988405 C 283.1974223543058 452.1145557574463 283.42779049768814 450.0720253369838 284.09407056219527 448.3968922450653 Z" fill-opacity="1"/></g></g><g><g><path fill="rgb(244,244,245)" stroke="none" paint-order="stroke fill markers" d=" M 243.95000000000002 456.7 C 243.95000000000002 461.05 240.45000000000002 464.45 236.20000000000002 464.45 C 235.45000000000002 464.45 234.85000000000002 464.45 234.25000000000003 464.3 C 234.25000000000003 464.45 234.25000000000003 464.6 234.25000000000003 464.75 C 234.25000000000003 473.55 241.20000000000005 480.5 250.00000000000003 480.5 C 258.8 480.5 265.75000000000006 473.55 265.75000000000006 464.75 C 265.75000000000006 464.6 265.75000000000006 464.45 265.75000000000006 464.3 C 265.15000000000003 464.45 264.40000000000003 464.45 263.8 464.45 C 259.55 464.45 256.05 461.05 256.05 456.7 C 256.05 454.65 256.95000000000005 452.7 258.35 451.35 C 255.80000000000004 449.9 252.95000000000002 449 250.00000000000003 449 C 247.05 449 244.10000000000002 449.9 241.65000000000003 451.35 C 243.05000000000004 452.7 243.95000000000002 454.65 243.95000000000002 456.7 Z" fill-opacity="1"/></g></g><g><g><path fill="rgb(244,244,245)" stroke="none" paint-order="stroke fill markers" d=" M 189.9451396853288 456.7825881272051 C 188.11551680613252 465.3902870136626 193.46865638004903 473.63339908994595 202.07635526650654 475.46302196914223 C 210.53733201285394 477.26145809471586 218.9271662292474 471.939505274422 220.75678910844368 463.3318063879645 C 222.55522523401729 454.8708296416171 217.08655027361337 446.449808671601 208.62557352726594 444.65137254602735 C 200.01787464080846 442.82174966683107 191.74357581090243 448.3216113808577 189.9451396853288 456.7825881272051 Z" fill-opacity="1"/></g></g><g><g><path fill="rgb(244,244,245)" stroke="none" paint-order="stroke fill markers" d=" M 149.90467843826454 455.3948857723891 C 149.60123794523565 453.6178309428494 149.80056985176577 451.5720384824471 150.57336947360977 449.83630211292615 C 152.74941051406532 444.9488339145382 158.25392167277502 442.91159143912193 163.0957125982808 445.06729564742363 C 167.84614897802234 447.1823261914178 170.10677420927473 452.6768301329784 167.93073316881922 457.56429833136633 C 167.1579335469752 459.3000347008873 165.72531527262757 460.7967326931373 164.15598757748913 461.7399774043716 C 169.57318060544236 461.2510809962288 174.55054611743145 457.9392336929762 176.97062914373248 452.5036382200027 C 180.44822744203057 444.6928245571585 176.87022169076005 435.27314436917567 169.0137307550337 431.7752092387238 C 161.11156254642518 428.25693727611815 151.7629000720529 431.92129396457835 148.28530177375478 439.7321076274226 C 145.86521874745378 445.16770310039607 146.6888668914952 451.06232808718 149.90467843826454 455.3948857723891 Z" fill-opacity="1"/></g></g><g><g><path fill="rgb(244,244,245)" stroke="none" paint-order="stroke fill markers" d=" M 120.59772536726976 421.42934242677205 C 117.18857090397341 426.12164099414673 111.39596198799049 427.9697973583311 106.16424492442667 426.57906497328526 C 107.06999543100835 429.58566039332885 109.0344092096947 432.4961721191439 111.90641953972576 434.5828097647822 C 118.90441654106907 439.6671521971121 128.82171249240776 438.0964068283265 133.90605492473765 431.09840982698324 C 139.0491758822968 424.0195111262024 137.41965198828197 414.1831168743013 130.42165498693868 409.09877444197133 C 127.5496446569076 407.0121367963331 124.26271406056318 405.9219133078616 121.12337959527011 405.9895824664428 C 123.9745663870494 410.6568336787072 123.97749056795148 416.7774947091161 120.59772536726976 421.42934242677205 Z" fill-opacity="1"/></g></g><g><g><path fill="rgb(244,244,245)" stroke="none" paint-order="stroke fill markers" d=" M 75.32540763849005 397.7909986546553 C 78.22397272128109 396.5267516610561 81.58382807004068 397.2692959596751 83.82541560134285 399.75883112502436 C 85.9666335416912 402.13689456655203 86.38736611885915 405.5931185318803 84.82706224878584 408.3436551764343 C 90.17550559841317 410.32334043824414 96.41527234346955 409.48202541562284 100.91129853760779 405.4337852471517 C 105.37016749047216 401.4190016089986 106.97057865420227 395.20098873453395 105.56080287960512 389.6749112590221 C 102.66223779681408 390.9391582526213 99.23176867646268 390.1929132430464 97.09055073611434 387.81484980151873 C 94.84896320481215 385.3253146361695 94.498844399236 381.87279138179713 96.05914826930933 379.1222547372431 C 90.710704919682 377.1425694754333 84.359466450804 378.0842540890084 79.90059749793963 382.09903772716154 C 75.4045713038014 386.14727789563267 73.9156318638929 392.26492117914347 75.32540763849005 397.7909986546553 Z" fill-opacity="1"/></g></g><g><g><path fill="rgb(244,244,245)" stroke="none" paint-order="stroke fill markers" d=" M 60.31206994107628 348.9508675553725 C 62.862069941076285 353.3675971146731 61.37296832593853 358.7883974596217 56.99954003682711 361.3133974596217 C 54.44476509566303 362.7883974596217 51.381496505445035 362.88266062413425 48.870855859389934 361.7341034656193 C 49.1860482382546 362.88003267997135 49.75614442768695 364.16746824526956 50.40614442768694 365.2933012701894 C 54.73114442768695 372.7844210129247 64.42992479455646 375.38320137979423 71.92104453729186 371.05820137979424 C 79.54206809059491 366.65820137979426 82.01094464689676 357.0344210129247 77.68594464689676 349.5433012701893 C 73.28594464689675 341.9222777168863 63.71706809059489 339.24849735001675 56.09604453729184 343.6484973500168 C 55.57642929502117 343.9484973500168 55.08181405275052 344.291798620206 54.78540389123674 344.57840116058446 C 56.99604453729184 345.20734307682875 59.06206994107628 346.7858040459114 60.31206994107628 348.9508675553725 Z" fill-opacity="1"/></g></g><g><g><path fill="rgb(244,244,245)" stroke="none" paint-order="stroke fill markers" d=" M 50.119432961564044 306.63858155350744 C 47.26626341267858 307.5656325366323 44.42509663037828 306.9115902481269 42.208117966962405 305.26614027746274 C 41.47682142986331 307.86954293068925 39.42004715324357 310.1150227402256 36.56687760435811 311.0420737233504 C 33.999025010361194 311.8764196081628 31.20421077721713 311.3650357971017 28.986031837142736 309.87769515360054 C 28.540052254932185 312.3883927085146 28.695608281936224 314.80878571843317 29.52995416674858 317.37663831243003 C 32.23385286752937 325.69838283001263 41.197025919664355 330.14630693429785 49.42366478561743 327.4733099329546 C 57.74540930320002 324.76941123217375 62.239685956641466 315.94889665748303 59.535787255860676 307.6271521399005 C 58.70144137104832 305.05929954590357 57.4046175244901 303.0097269292349 55.56806146759228 301.24067016082074 C 54.79041238133694 303.70141433660297 52.82994403300523 305.7578831195388 50.119432961564044 306.63858155350744 Z" fill-opacity="1"/></g></g><g><g><path fill="rgb(244,244,245)" stroke="none" paint-order="stroke fill markers" d=" M 43.7999270246086 265.5891758904461 C 39.47375677975661 266.04387470566036 35.72653271406769 262.91844484698146 35.28228674518016 258.69172679166627 C 35.203890397729424 257.94583537014006 35.141173319768825 257.3491222329191 35.22763452611348 256.736729826208 C 35.07845624180824 256.75240909569817 34.92927795750299 256.7680883651883 34.78009967319775 256.78376763467844 C 26.02830699395695 257.7036181114338 19.842852640857643 265.3420181039535 20.762703117613004 274.09381078319433 C 21.68255359436836 282.8456034624351 29.320953586888056 289.0310578155344 38.07274626612886 288.1112073387791 C 38.2219245504341 288.0955280692889 38.37110283473935 288.07984879979875 38.52028111904458 288.0641695303086 C 38.30838575677875 287.4831356625778 38.22998940932801 286.7372442410516 38.167272331367414 286.1405311038306 C 37.723026362479885 281.91381304851546 40.73855118529523 278.07758963961646 45.064721430147216 277.6228908244022 C 47.10349131565218 277.4086074747035 49.1368846285612 278.099846677163 50.625829035883086 279.35106390526727 C 51.801338202834565 276.6634668003401 52.398501788353194 273.7350037815996 52.09014282171361 270.8011641902632 C 51.78178385507403 267.86732459892676 50.578355182603005 265.02756062453125 48.880203699313256 262.7425482526171 C 47.683938989140806 264.275992331544 45.83869691011356 265.3748925407474 43.7999270246086 265.5891758904461 Z" fill-opacity="1"/></g></g><g><g><path fill="rgb(244,244,245)" stroke="none" paint-order="stroke fill markers" d=" M 37.1424429430467 220.74003752999886 C 33.01517707726836 220.3062444074381 29.730266237389976 217.59804190872248 28.300750024000493 213.97879013582016 C 24.278613219220038 216.37146970559763 21.31147754976815 220.68494926612254 20.762703117612972 225.90618921680598 C 20.234834378111323 230.92852478841579 22.240308185500805 235.76464666527897 25.6770855959824 238.94128970956382 C 27.82784820591869 235.69834040442507 31.604042823155048 233.7322899949098 35.73130868893338 234.16608311747055 C 39.85857455471172 234.5998762400313 43.14348539459011 237.30807873874693 44.5730016079796 240.92733051164925 C 48.74431669706529 238.5503302113619 51.562274082211935 234.22117138134684 52.090142821713584 229.19883580973706 C 52.63891725386876 223.97759585905362 50.78262173078453 219.1571532516806 47.19666603599769 215.96483093790556 C 45.04590342606139 219.20778024304434 41.26970880882504 221.17383065255962 37.1424429430467 220.74003752999886 Z" fill-opacity="1"/></g></g><g><g><path fill="rgb(244,244,245)" stroke="none" paint-order="stroke fill markers" d=" M 61.136216002791926 180.32788510274764 C 60.06829610817202 175.03902444106683 56.23886423316258 170.4826605931436 50.58007796120641 168.64400947661267 C 42.44854474688285 166.00191417470688 33.46992084502912 170.4973911048068 30.796923843685832 178.72402997075991 C 28.139377692061288 186.90311601089823 32.74541112350951 195.86508878637468 40.87694433783307 198.5071840882805 C 46.53573060978924 200.34583520481144 52.32742039907959 198.8629901742604 56.31555089054275 195.16436675695203 C 54.564498272006325 195.69945060749953 52.49362616916831 195.762607029875 50.686618788207525 195.1754747405626 C 45.59846642602845 193.52223382065662 43.02790778503059 188.1657211236502 44.63479615578032 183.22022723891538 C 46.272586225967544 178.17962770255107 51.46978931915245 175.4521600110487 56.55794168133152 177.1054009309547 C 58.36494906229231 177.69253322026708 60.018648222724146 178.91330309489007 61.136216002791926 180.32788510274764 Z" fill-opacity="1"/></g></g><g><g><path fill="rgb(244,244,245)" stroke="none" paint-order="stroke fill markers" d=" M 74.01754903775645 141.41054630710425 C 70.25033853129415 139.23554630710427 69.05585215842704 134.50445739385873 71.18085215842704 130.82384942777486 C 71.55585215842704 130.17433037493652 71.85585215842704 129.65471513266587 72.2857559689947 129.2100998903952 C 72.15585215842704 129.13509989039522 72.02594834785938 129.0600998903952 71.89604453729171 128.98509989039522 C 64.27502098398865 124.58509989039521 54.781144427686804 127.12897644669707 50.381144427686806 134.75000000000014 C 45.981144427686814 142.3710235533032 48.52502098398867 151.86490010960503 56.146044537291736 156.26490010960504 C 56.2759483478594 156.33990010960503 56.40585215842707 156.41490010960504 56.535755968994735 156.48990010960503 C 56.705852158427064 155.89528486733437 57.080852158427064 155.24576581449605 57.38085215842706 154.72615057222538 C 59.50585215842706 151.0455426061415 64.20033853129415 149.71445369289597 67.96754903775647 151.88945369289598 C 69.74290111551456 152.91445369289596 70.98165065289422 154.66887655630197 71.45078494800322 156.55631212160017 C 73.98152178349065 155.07294734194986 76.18594464689664 153.0547749411642 77.66094464689664 150.5000000000001 C 79.13594464689663 147.94522505883603 79.83152178349064 144.94045011767193 79.8007849480032 142.09368787840006 C 77.9316506528942 142.63112344369827 75.79290111551455 142.43554630710426 74.01754903775645 141.41054630710425 Z" fill-opacity="1"/></g></g><g><g><path fill="rgb(244,244,245)" stroke="none" paint-order="stroke fill markers" d=" M 100.94845577888152 94.59967128316632 C 94.40878131468045 88.71132194720838 84.5934670634185 89.2257207700822 78.70511772746056 95.76539523428328 C 72.91713798245644 102.19359797466274 73.33116721437644 112.1203839497463 79.8708416785775 118.00873328570425 C 86.29904441895697 123.79671303070836 96.32619998499436 123.27121207496675 102.11417972999848 116.8430093345873 C 108.00252906595644 110.30333487038622 107.37665851926099 100.38765102817044 100.94845577888152 94.59967128316632 Z" fill-opacity="1"/></g></g><g><g><path fill="rgb(244,244,245)" stroke="none" paint-order="stroke fill markers" d=" M 122.17047189457581 60.61746584137023 C 123.86116676738946 61.24320608064018 125.53320905570351 62.438728805681215 126.6500010350592 63.97586109499362 C 129.79465213482393 68.30410201489958 128.8067002928483 74.08976975146525 124.51891022266108 77.20503158861537 C 120.31202185191135 80.26151490053623 114.42332924169995 79.47202180845657 111.2786781419352 75.14378088855061 C 110.1618861625795 73.60664859923821 109.58201681667164 71.61761578360233 109.54980678232664 69.7869157771328 C 107.26460697762069 74.72279076061567 107.64406811969785 80.68923938954507 111.14139037083805 85.502890506076 C 116.16695427793871 92.4199858079818 126.11363949189202 94.03118202648612 133.07118564351657 88.97622885677085 C 140.06918264485986 83.89188642444095 141.57008790131206 73.96352888599814 136.5445239942114 67.04643358409234 C 133.04720174307118 62.23278246756141 127.53048268671311 59.998770190689214 122.17047189457581 60.61746584137023 Z" fill-opacity="1"/></g></g><g><g><path fill="rgb(244,244,245)" stroke="none" paint-order="stroke fill markers" d=" M 166.23897182071894 52.21967164717903 C 163.87989929087928 46.921107992851944 165.17565338732123 40.98048333533032 168.99592149441855 37.14504964539445 C 165.93925822846802 36.426154883563015 162.4364742465565 36.67213125654204 159.19338787192527 38.116046339461136 C 151.29121966331675 41.63431830206681 147.69287707989247 51.00832121716746 151.21114904249816 58.91048942577596 C 154.7700946694114 66.90401218014871 164.10342392020448 70.41100021780873 172.005592128813 66.89272825520305 C 175.2486785034442 65.44881317228396 177.8363050384352 63.14735951960908 179.34736906069767 60.39478154239864 C 173.87981754914335 60.53035612888198 168.5777075184048 57.472558028623986 166.23897182071894 52.21967164717903 Z" fill-opacity="1"/></g></g><g><g><path fill="rgb(244,244,245)" stroke="none" paint-order="stroke fill markers" d=" M 209.34653689515164 24.831866291913446 C 208.9921243668711 27.974220784932623 206.66913446645196 30.512668720689962 203.39234000399372 31.20917288492946 C 200.26226768164554 31.87449029554629 197.0587236379187 30.510743412909296 195.45684096473158 27.78421230152564 C 191.06816156169293 31.42625748209991 188.67687837134028 37.250711508318744 189.93474410078773 43.168504492758274 C 191.1822142456943 49.03739009716111 195.7669657741743 53.53239325868392 201.2575771385471 55.07453036199882 C 201.6119896668276 51.932175868979634 203.97349136274255 49.33442496864472 207.10356368509073 48.66910755802789 C 210.38035814754898 47.97260339378839 213.54539039578006 49.39565324100297 215.14727306896714 52.122184352386626 C 219.5359524720058 48.480139171812354 221.8960489087358 42.508963005483444 220.64857876382922 36.64007740108061 C 219.39071303438178 30.722284416641088 214.8371482595244 26.374003395228346 209.34653689515164 24.831866291913446 Z" fill-opacity="1"/></g></g></g></g></svg>