<svg version="1.1" xmlns="http://www.w3.org/2000/svg" xmlns:xlink="http://www.w3.org/1999/xlink" width="500" height="500" viewBox="0 0 500 500"><defs/><g><g><g><g><path fill="rgb(244,244,245)" stroke="none" paint-order="stroke fill markers" d=" M 266.375 22.599999999999998 L 266.325 29.9 Q 266.325 31 266.125 31.85 L 266.125 31.85 Q 265.975 32.65 265.725 33.425 Q 265.475 34.2 265.175 34.95 L 265.175 34.95 Q 264.875 35.65 264.475 36.35 Q 264.075 37.05 263.625 37.75 L 263.625 37.75 Q 263.225 38.4 262.7 39 Q 262.175 39.6 261.625 40.15 L 261.625 40.15 Q 261.075 40.7 260.475 41.2 Q 259.875 41.7 259.225 42.15 L 259.225 42.15 Q 258.525 42.6 257.85 42.975 Q 257.175 43.35 256.425 43.65 L 256.425 43.65 Q 255.675 44 254.925 44.225 Q 254.175 44.45 253.325 44.65 L 253.325 44.65 Q 251.725 44.95 250.025 44.95 L 250.025 44.95 Q 248.375 44.95 246.725 44.65 L 246.725 44.65 Q 245.925 44.45 245.15 44.225 Q 244.375 44 243.675 43.7 L 243.675 43.7 Q 242.925 43.35 242.225 42.975 Q 241.525 42.6 240.875 42.15 L 240.875 42.15 Q 239.525 41.25 238.425 40.15 L 238.425 40.15 Q 237.375 39.1 236.425 37.75 L 236.425 37.75 Q 235.575 36.45 234.925 34.95 L 234.925 34.95 Q 234.625 34.2 234.375 33.425 Q 234.125 32.65 233.975 31.85 L 233.975 31.85 Q 233.775 31.049999999999997 233.7 30.225 Q 233.625 29.4 233.625 28.55 L 233.625 28.55 L 233.625 24.75 Q 233.625 23 233.975 21.45 L 233.975 21.45 Q 234.125 20.65 234.375 19.875 Q 234.625 19.099999999999998 234.925 18.349999999999998 L 234.925 18.349999999999998 Q 235.575 16.849999999999998 236.425 15.549999999999997 L 236.425 15.549999999999997 Q 236.875 14.899999999999999 237.375 14.299999999999997 Q 237.875 13.7 238.425 13.149999999999999 L 238.425 13.149999999999999 Q 239.525 12.049999999999997 240.875 11.149999999999999 L 240.875 11.149999999999999 Q 242.125 10.25 243.675 9.649999999999999 L 243.675 9.649999999999999 Q 244.375 9.299999999999997 245.15 9.074999999999996 Q 245.925 8.850000000000001 246.725 8.699999999999996 L 246.725 8.699999999999996 Q 250.075 8 253.325 8.699999999999996 L 253.325 8.699999999999996 Q 254.975 9 256.425 9.649999999999999 L 256.425 9.649999999999999 Q 257.175 9.949999999999996 257.85 10.324999999999996 Q 258.525 10.699999999999996 259.225 11.149999999999999 L 259.225 11.149999999999999 Q 259.875 11.600000000000001 260.475 12.100000000000001 Q 261.075 12.600000000000001 261.625 13.149999999999999 L 261.625 13.149999999999999 L 255.875 18.95 Q 255.225 18.299999999999997 254.625 17.9 L 254.625 17.9 Q 254.075 17.5 253.225 17.15 L 253.225 17.15 Q 252.875 17 252.5 16.9 Q 252.125 16.799999999999997 251.725 16.7 L 251.725 16.7 Q 250.025 16.299999999999997 248.375 16.7 L 248.375 16.7 Q 247.525 16.849999999999998 246.825 17.15 L 246.825 17.15 Q 246.475 17.299999999999997 246.125 17.474999999999998 Q 245.775 17.65 245.425 17.9 L 245.425 17.9 Q 245.125 18.15 244.8 18.4 Q 244.475 18.65 244.225 18.95 L 244.225 18.95 Q 243.925 19.2 243.7 19.5 Q 243.475 19.799999999999997 243.225 20.15 L 243.225 20.15 Q 242.725 20.849999999999998 242.475 21.549999999999997 L 242.475 21.549999999999997 Q 242.125 22.25 241.975 23.099999999999998 L 241.975 23.099999999999998 Q 241.825 23.95 241.825 24.75 L 241.825 24.75 L 241.825 28.55 Q 241.825 29.45 241.975 30.2 L 241.975 30.2 Q 242.125 31.049999999999997 242.475 31.75 L 242.475 31.75 Q 242.725 32.45 243.225 33.15 L 243.225 33.15 Q 243.725 33.9 244.225 34.4 L 244.225 34.4 Q 244.475 34.65 244.8 34.9 Q 245.125 35.15 245.425 35.4 L 245.425 35.4 Q 245.775 35.65 246.125 35.825 Q 246.475 36 246.825 36.15 L 246.825 36.15 Q 247.525 36.45 248.375 36.6 L 248.375 36.6 Q 250.025 37 251.725 36.6 L 251.725 36.6 Q 252.125 36.5 252.5 36.4 Q 252.875 36.3 253.225 36.15 L 253.225 36.15 Q 254.075 35.8 254.625 35.4 L 254.625 35.4 Q 254.975 35.15 255.275 34.9 Q 255.575 34.65 255.875 34.4 L 255.875 34.4 Q 256.125 34.1 256.375 33.8 Q 256.625 33.5 256.875 33.15 L 256.875 33.15 Q 257.325 32.45 257.625 31.75 L 257.625 31.75 Q 257.725 31.5 257.8 31.25 Q 257.875 31 257.975 30.75 L 257.975 30.75 L 250.025 30.75 L 250.025 22.599999999999998 L 266.375 22.599999999999998 Z" fill-opacity="1"/></g></g><g><g><path fill="rgb(244,244,245)" stroke="none" paint-order="stroke fill markers" d=" M 305.894042180018 22.873546127320584 L 305.894042180018 22.873546127320584 L 290.5759545027198 19.921226715298182 L 289.4120593499033 25.960088203463826 L 304.7301470272015 28.912407615486227 L 303.1877493856642 36.91512649817729 L 287.8696617083659 33.96280708615489 L 286.7057665555494 40.00166857432054 L 302.02385423284767 42.95398798634294 L 300.4814565913103 50.956706869033994 L 282.11938995249767 47.417708599494325 L 282.11938995249767 47.417708599494325 L 277.1115535964579 46.452527253256235 L 284.075999388921 10.317551193988628 L 292.1278147064752 11.869411397743988 L 292.11835214425713 11.918507832607126 L 307.4364398215554 14.870827244629524 L 305.894042180018 22.873546127320584 Z" fill-opacity="1"/></g></g><g><g><path fill="rgb(244,244,245)" stroke="none" paint-order="stroke fill markers" d=" M 351.81609284070674 30.250077955298046 L 351.81609284070674 30.250077955298046 L 348.76846070429207 37.862695006029846 L 340.64524129040143 34.61064851900198 L 329.9971119357331 61.20838979991245 L 322.38449488500123 58.16075766349777 L 333.03262423966964 31.563016382587293 L 324.909404825779 28.310969895559424 L 327.9570369621937 20.69835284482763 L 351.81609284070674 30.250077955298046 Z" fill-opacity="1"/></g></g><g><g><path fill="rgb(244,244,245)" stroke="none" paint-order="stroke fill markers" d=" M 364.2805070630053 79.7596531211758 L 364.2805070630053 79.7596531211758 L 357.38222809378965 75.3263984180399 L 377.27781017615564 44.36826840985243 L 384.1760891453713 48.801523112988335 L 364.2805070630053 79.7596531211758 Z" fill-opacity="1"/></g></g><g><g><path fill="rgb(244,244,245)" stroke="none" paint-order="stroke fill markers" d=" M 401.81559409873546 111.50265205265481 L 401.81559409873546 111.50265205265481 L 395.4829212653161 105.46446070218633 L 401.5430789625164 82.22662541821325 L 387.05141972139205 97.42504021841972 L 381.1168006089305 91.7663923242664 L 406.4772042808981 65.16916642390507 L 412.80987711431743 71.20735777437355 L 406.7859061190224 94.47969700892074 L 421.27756536014675 79.28128220871426 L 427.1759977707031 84.90542615229347 L 401.81559409873546 111.50265205265481 Z" fill-opacity="1"/></g></g><g><g><path fill="rgb(244,244,245)" stroke="none" paint-order="stroke fill markers" d=" M 454.4589252913636 120.18053740405252 L 454.4589252913636 120.18053740405252 L 447.7794024845508 124.93700406253635 L 442.70390452580284 117.8094644820959 L 419.36630349956073 134.42809494131075 L 414.60983684107686 127.74857213449799 L 437.94743786731897 111.12994167528315 L 432.871939908571 104.00240209484272 L 439.55146271538376 99.24593543635889 L 454.4589252913636 120.18053740405252 Z" fill-opacity="1"/></g></g><g><g><path fill="rgb(244,244,245)" stroke="none" paint-order="stroke fill markers" d=" M 469.90353487695484 149.57342060679395 L 469.90353487695484 149.57342060679395 Q 471.482111926362 153.0300221891411 471.55478582665427 156.67964114243148 Q 471.62745972694654 160.32926009572185 470.4146580709488 163.63149224128782 Q 469.2018564149511 166.93372438685378 466.7569409993662 169.64433107367415 Q 464.3120255837813 172.35493776049452 460.85542400143413 173.9335148099017 L 460.85542400143413 173.9335148099017 Q 457.3533408193192 175.53286260995895 453.70372186602884 175.60553651025123 Q 450.0541029127385 175.6782104105435 446.7642261917313 174.43228257933688 Q 443.4743494707242 173.18635474813024 440.7637427839038 170.74143933254535 Q 438.05313609708344 168.29652391696044 436.4745590476763 164.83992233461328 L 436.4745590476763 164.83992233461328 Q 434.8959819982691 161.38332075226612 434.82330809797685 157.73370179897574 Q 434.7506341976846 154.08408284568537 435.9634358536823 150.7818507001194 Q 437.17623750968 147.47961855455344 439.62115292526494 144.76901186773307 Q 442.0660683408498 142.0584051809127 445.5681515229647 140.45905738085543 L 445.5681515229647 140.45905738085543 Q 449.0247531053119 138.88048033144827 452.6743720586022 138.807806431156 Q 456.32399101189264 138.73513253086372 459.6138677328998 139.98106036207037 Q 462.90374445390694 141.22698819327698 465.6143511407273 143.67190360886187 Q 468.3249578275477 146.11681902444678 469.90353487695484 149.57342060679395 Z M 443.8880598098156 161.4542899786479 L 443.8880598098156 161.4542899786479 Q 444.76043133711954 163.36451716889238 446.2670400827817 164.7377451497806 Q 447.77364882844387 166.1109731306688 449.6183292648178 166.78013610607863 Q 451.4630097011917 167.44929908148845 453.5009017028829 167.39810152839354 Q 455.5387937045742 167.3469039752986 457.44902089481866 166.47453244799465 L 457.44902089481866 166.47453244799465 Q 459.35924808506314 165.6021609206907 460.7097352660675 164.1059375503536 Q 462.06022244707185 162.60971418001648 462.7625115976906 160.77738916820138 Q 463.4648007483093 158.94506415638628 463.41360319521436 156.90717215469505 Q 463.3624056421195 154.8692801530038 462.4900341148155 152.95905296275933 L 462.4900341148155 152.95905296275933 Q 461.6176625875115 151.04882577251485 460.1110538418494 149.67559779162661 Q 458.60444509618725 148.3023698107384 456.7597646598133 147.6332068353286 Q 454.9150842234394 146.96404385991877 452.899933021632 147.00485603768863 Q 450.88478181982464 147.0456682154585 448.97455462958015 147.9180397427625 L 448.97455462958015 147.9180397427625 Q 447.06432743933567 148.79041127006644 445.69109945844747 150.2970200157286 Q 444.31787147755927 151.80362876139074 443.6155823269405 153.63595377320584 Q 442.9132931763218 155.46827878502094 442.9644907294167 157.50617078671218 Q 443.01568828251163 159.5440627884034 443.8880598098156 161.4542899786479 Z" fill-opacity="1"/></g></g><g><g><path fill="rgb(244,244,245)" stroke="none" paint-order="stroke fill markers" d=" M 449.221371506326 201.66941822056742 L 449.221371506326 201.66941822056742 Q 448.5376705933487 198.85116467242915 449.01137200634327 196.13800563335184 Q 449.4850734193379 193.42484659427453 450.8835734216847 191.1304626369919 Q 452.2820734240315 188.83607867970923 454.4765628049881 187.17179464239206 Q 456.67105218594463 185.50751060507486 459.4893057340829 184.8238096920975 L 459.4893057340829 184.8238096920975 L 481.64660949185964 179.44850596248256 L 483.57983276303696 187.41736082273562 L 461.42252900526023 192.79266455235054 Q 460.256355123272 193.07557527496186 459.3420444975115 193.76043736299235 Q 458.427733871751 194.44529945102283 457.83889176549974 195.4113558540892 Q 457.2500496592484 196.37741225715558 457.0543873624 197.47961063566646 Q 456.8587250655516 198.58180901417734 457.1416357881629 199.74798289616558 L 457.1416357881629 199.74798289616558 Q 457.4245465107742 200.91415677815385 458.1094085988047 201.82846740391432 Q 458.7942706868352 202.74277802967478 459.7603270899016 203.33162013592607 Q 460.72638349296795 203.92046224217736 461.8528771606869 204.11023056563806 Q 462.9793708284059 204.29999888909876 464.1455447103941 204.01708816648744 L 464.1455447103941 204.01708816648744 L 486.30284846817085 198.6417844368725 L 488.2242837925727 206.56204871870938 L 466.06698003479596 211.9373524483243 Q 463.2487264866577 212.62105336130165 460.5355674475804 212.14735194830706 Q 457.82240840850307 211.67365053531248 455.5280244512204 210.27515053296565 Q 453.23364049393774 208.87665053061883 451.56935645662054 206.68216114966228 Q 449.90507241930334 204.4876717687057 449.221371506326 201.66941822056742 Z" fill-opacity="1"/></g></g><g><g><path fill="rgb(244,244,245)" stroke="none" paint-order="stroke fill markers" d=" M 454.7261880008266 240.42288813628105 L 454.7261880008266 240.42288813628105 Q 454.6857433723764 239.57385089797546 454.7463750257401 238.74502715156711 Q 454.80700667910384 237.91620340515877 454.9187712473223 237.1099722464388 L 454.9187712473223 237.1099722464388 Q 455.03053581554076 236.30374108771883 455.2433766655731 235.51772342089606 Q 455.4562175156055 234.7317057540733 455.72019128049254 233.9682806749389 L 455.72019128049254 233.9682806749389 Q 456.03648750813 233.2524198669725 456.377755419247 232.5353695111105 Q 456.719023330364 231.81831915524847 457.13520629191976 231.0977001556997 L 457.13520629191976 231.0977001556997 Q 457.50382498230755 230.42940361890123 457.99968118588436 229.80510270958396 Q 458.4955373894612 229.1808018002667 459.0187443723088 228.60525471001299 L 459.0187443723088 228.60525471001299 Q 460.01283587525364 227.4065962583376 461.32086215470054 226.49332343366999 L 461.32086215470054 226.49332343366999 Q 462.62650933835624 225.53010724204324 464.0439387348861 224.81184969362985 L 464.0439387348861 224.81184969362985 Q 465.4161829560393 224.19585797492596 467.0952246663209 223.7154217823524 L 467.0952246663209 223.7154217823524 Q 468.62919446730746 223.3420096110707 470.3772123108777 223.25874125837913 L 470.3772123108777 223.25874125837913 L 474.17290819977313 223.0779299782489 Q 475.8210393094251 222.99941981713974 477.4834449938242 223.22056985778548 L 477.4834449938242 223.22056985778548 Q 478.2920552483354 223.38227779296307 479.07688336726255 223.57014695951585 Q 479.8617114861897 223.75801612606864 480.62513656532406 224.02198989095572 L 480.62513656532406 224.02198989095572 Q 481.3409973732905 224.33828611859315 482.0580477291525 224.67955402971018 Q 482.7750980850145 225.02082194082718 483.44577371760414 225.4393839981741 L 483.44577371760414 225.4393839981741 Q 484.16401362136173 225.80562359277067 484.78831453067903 226.3014797963475 Q 485.4126154399963 226.79733599992434 485.98816253025 227.32054298277194 L 485.98816253025 227.32054298277194 Q 487.0869342480071 228.31939267729916 488.100093806593 229.6226607651637 L 488.100093806593 229.6226607651637 Q 489.01098753546944 230.8807436776514 489.731624179674 232.3481164411405 L 489.731624179674 232.3481164411405 Q 490.0669708182967 233.08299237078063 490.35356363785587 233.8452190796915 Q 490.640156457415 234.6074457886024 490.8280520909515 235.39940237257525 L 490.8280520909515 235.39940237257525 Q 491.6842795505979 238.66235725080256 491.14209273538813 241.9919268111831 L 491.14209273538813 241.9919268111831 Q 491.03032816716967 242.7981579699031 490.81748731713736 243.58417563672583 Q 490.604646467105 244.3701933035486 490.3406727022179 245.13361838268298 L 490.3406727022179 245.13361838268298 Q 489.76516090127575 246.71279100370208 488.9732219619587 247.95187643917188 L 488.9732219619587 247.95187643917188 Q 488.13847694305605 249.3431710713103 487.0920629773608 250.49426525181772 L 487.0920629773608 250.49426525181772 Q 486.04564901166566 251.64535943232517 484.74000182800995 252.6085756239519 L 484.74000182800995 252.6085756239519 Q 483.5818056494405 253.51471116124597 482.0644895189923 254.23772690124173 L 482.0644895189923 254.23772690124173 Q 480.6946243936303 254.90366198690475 479.01320358755754 255.3341548125192 L 479.01320358755754 255.3341548125192 L 476.9844171513156 247.4217262601643 Q 477.7763737352885 247.23383062662785 478.5112496649286 246.89848398800513 L 478.5112496649286 246.89848398800513 Q 479.2913107699455 246.46087151967293 479.8715984071258 246.03277543450548 L 479.8715984071258 246.03277543450548 Q 480.50420850705643 245.652243620506 481.0226572983217 244.97680979633398 L 481.0226572983217 244.97680979633398 Q 481.31042202112064 244.71281838679113 481.5208925976897 244.40245225397587 Q 481.7313631742588 244.09208612116063 481.9644263385162 243.73058707349063 L 481.9644263385162 243.73058707349063 Q 482.3354241246951 243.11223390365134 482.69690552770936 242.29410726597544 L 482.69690552770936 242.29410726597544 Q 482.9608792925965 241.53068218684106 483.07264386081494 240.72445102812108 L 483.07264386081494 240.72445102812108 Q 483.39130153958774 239.00734378518047 482.91562353859655 237.42818880881717 L 482.91562353859655 237.42818880881717 Q 482.72772790506014 236.63623222484432 482.3923812664374 235.90135629520418 L 482.3923812664374 235.90135629520418 Q 481.9547687981052 235.12129519018728 481.52667271293774 234.54100755300695 L 481.52667271293774 234.54100755300695 Q 481.2603022076037 234.20329946324884 481.0212824815404 233.9143451925543 Q 480.7822627554771 233.62539092185972 480.4683279789751 233.34000529485195 L 480.4683279789751 233.34000529485195 Q 479.840458425971 232.76923404083638 479.2221052561317 232.39823625465743 L 479.2221052561317 232.39823625465743 Q 478.49910716079177 231.93210992614254 477.7880045444077 231.7157004324234 L 477.7880045444077 231.7157004324234 Q 477.38132032136093 231.58490309787547 477.00079732968936 231.4778878989115 Q 476.62027433801774 231.3708726999475 476.2159692107622 231.2900187323587 L 476.2159692107622 231.2900187323587 Q 475.35979468508305 231.18063325993143 474.5607008137367 231.21869879259043 L 474.5607008137367 231.21869879259043 L 470.7650049248412 231.39951007272066 Q 469.8660243195765 231.44233379696203 469.07406773560365 231.63022943049847 L 469.07406773560365 231.63022943049847 Q 468.67927899151283 231.74914893074626 468.3106514787972 231.89185056657803 Q 467.94202396608154 232.03455220240983 467.599557684741 232.20103597382558 L 467.599557684741 232.20103597382558 Q 466.76717411697376 232.5910841709898 466.23682984675264 233.01680116036607 L 466.23682984675264 233.01680116036607 Q 465.89912175699453 233.28317166570014 465.6113570341955 233.54716307524302 Q 465.32359231139657 233.8111544847859 465.0358275885976 234.07514589432876 L 465.0358275885976 234.07514589432876 Q 464.800385328549 234.3867015750396 464.5649430685003 234.69825725575043 Q 464.3295008084517 235.0098129364613 464.0964376441943 235.37131198413127 L 464.0964376441943 235.37131198413127 Q 463.63031131567936 236.09431007947126 463.4139018219603 236.8054126958553 L 463.4139018219603 236.8054126958553 Q 463.2831044874123 237.21209691890206 463.17608928844834 237.59261991057363 Q 463.06907408948433 237.97314290224523 462.98822012189555 238.3774480295008 L 462.98822012189555 238.3774480295008 Q 462.7646909854586 239.98991034694075 463.1452404441139 241.67371024880475 L 463.1452404441139 241.67371024880475 Q 463.2641599443617 242.06849899289557 463.4068615801935 242.43712650561125 Q 463.54956321602526 242.8057540183269 463.7184260832322 243.19816366662653 L 463.7184260832322 243.19816366662653 Q 464.00145025910456 243.8854753250987 464.5341912697727 244.56089150461494 L 464.5341912697727 244.56089150461494 Q 464.96228735494014 245.14117914179525 465.5901569079442 245.71195039581082 L 465.5901569079442 245.71195039581082 Q 465.9040916844462 245.9973360228186 466.21564736515705 246.23277828286723 Q 466.5272030458679 246.46822054291584 466.88632299774673 246.65134034021415 L 466.88632299774673 246.65134034021415 Q 467.1978786784575 246.88678260026276 467.55580908244076 247.0449307140815 Q 467.91373948642394 247.20307882790019 468.3228028052619 247.3838195294073 L 468.3228028052619 247.3838195294073 Q 468.6795436613495 247.51699595974645 469.05887710512553 247.59903947523085 Q 469.4382105489015 247.68108299071525 469.8425156761571 247.76193695830403 L 469.8425156761571 247.76193695830403 L 468.62498326005425 255.8290067370861 Q 466.96257757565513 255.60785669644036 465.48329168855435 255.02758670391583 L 465.48329168855435 255.02758670391583 Q 464.0587073599951 254.54482434951842 462.6150902651063 253.6625150594478 L 462.6150902651063 253.6625150594478 Q 461.94441463251667 253.24395300210088 461.321303271095 252.77306848200362 Q 460.6981919096733 252.30218396190637 460.12264481941963 251.77897697905877 L 460.12264481941963 251.77897697905877 Q 459.5470977291659 251.25576999621117 458.99414322660056 250.68143009850883 Q 458.44118872403527 250.1070902008065 458.00833444728545 249.4269158297079 L 458.00833444728545 249.4269158297079 Q 457.52791589936766 248.79906392135962 457.1200333060974 248.1177000023654 Q 456.71215071282717 247.4363360833712 456.3292398030365 246.75378261648143 L 456.3292398030365 246.75378261648143 Q 455.99389316441375 246.0189066868413 455.7073003448546 245.2566799779304 Q 455.4207075252955 244.4944532690195 455.232811891759 243.70249668504664 L 455.232811891759 243.70249668504664 Q 455.04253716243136 242.86059673411467 454.9045848958541 242.06626105435063 Q 454.7666326292768 241.27192537458657 454.7261880008266 240.42288813628105 Z" fill-opacity="1"/></g></g><g><g><path fill="rgb(244,244,245)" stroke="none" paint-order="stroke fill markers" d=" M 488.5133985848245 290.15269225738973 L 488.5133985848245 290.15269225738973 L 487.35353265289723 298.21973700871933 L 450.9281035916789 292.9825509602624 L 452.08796952360615 284.9155062089328 L 466.2424161425035 286.9506083962408 L 467.8861525245599 275.518170742516 L 453.7317059056626 273.4830685552081 L 454.89868757950353 265.36653273178445 L 491.32411664072185 270.6037187802413 L 490.15713496688096 278.72025460366496 L 475.9531972758896 276.6780366744433 L 474.3094608938331 288.1104743281681 L 488.5133985848245 290.15269225738973 Z" fill-opacity="1"/></g></g><g><g><path fill="rgb(244,244,245)" stroke="none" paint-order="stroke fill markers" d=" M 440.0211231519373 327.75106675201505 L 440.0211231519373 327.75106675201505 L 447.42921252107686 306.3467982081278 L 455.1309691936014 309.0124021091648 L 447.7228798244618 330.416670653052 L 440.0211231519373 327.75106675201505 Z" fill-opacity="1"/></g></g><g><g><path fill="rgb(244,244,245)" stroke="none" paint-order="stroke fill markers" d=" M 438.74667682058134 377.88116598697013 L 432.44969137295493 374.1878647167809 Q 431.49706342879205 373.6378647167809 430.86094183557526 373.039659636024 L 430.86094183557526 373.039659636024 Q 430.24312151254776 372.50975582545635 429.6969518246148 371.90574947451023 Q 429.15078213668187 371.3017431235641 428.6512630838435 370.6669355024288 L 428.6512630838435 370.6669355024288 Q 428.1950453011944 370.05712788129347 427.7888275185453 369.3607177197797 Q 427.3826097358962 368.66430755826593 427.0013919532471 367.9245961265629 L 427.0013919532471 367.9245961265629 Q 426.6384754407872 367.25318596504917 426.3813601985165 366.4985226280623 Q 426.1242449562459 365.74385929107547 425.92293098416445 364.992545318994 L 425.92293098416445 364.992545318994 Q 425.721617012083 364.2412313469126 425.58860431019076 363.47161610464195 Q 425.45559160829856 362.7020008623713 425.39088017659554 361.9140843499114 L 425.39088017659554 361.9140843499114 Q 425.35116874489256 361.0828665672623 425.3639092184734 360.3107994197078 Q 425.37664969205423 359.5387322721533 425.4918420709189 358.73921321931493 L 425.4918420709189 358.73921321931493 Q 425.56373317959435 357.91469416647664 425.7438774637429 357.1526751136383 Q 425.92402174789135 356.3906560608 426.1758166671345 355.5545344675832 L 426.1758166671345 355.5545344675832 Q 426.71600904599916 354.0188938215281 427.5660090459991 352.5466506350946 L 427.5660090459991 352.5466506350946 Q 428.3910090459991 351.1177087188502 429.47581666713444 349.8387668026059 L 429.47581666713444 349.8387668026059 Q 430.04902174789135 349.2459464795784 430.63137746374287 348.6872767916454 Q 431.2137331795943 348.12860710371245 431.8235408007297 347.67238932106335 L 431.8235408007297 347.67238932106335 Q 432.50164969205423 347.197870268225 433.1764092184734 346.77915248557593 Q 433.85116874489256 346.36043470292685 434.56588017659556 346.02251819046694 L 434.56588017659556 346.02251819046694 Q 436.0203030400015 345.30338389535797 437.5229309841644 344.90075595119504 L 437.5229309841644 344.90075595119504 Q 438.9572576581381 344.5164292772214 440.60139195324706 344.3687051436262 L 440.60139195324706 344.3687051436262 Q 442.1522249781668 344.2825835504094 443.7762630838435 344.46966703794953 L 443.7762630838435 344.46966703794953 Q 444.5757821366818 344.5848594168142 445.37195182461477 344.7558530658681 Q 446.1681215125477 344.92684671492196 446.93594183557525 345.19694290435433 L 446.93594183557525 345.19694290435433 Q 447.7287621586028 345.42373782359743 448.480733116725 345.7712859183136 Q 449.23270407484716 346.11883401302975 449.9688256680639 346.54383401302977 L 449.9688256680639 346.54383401302977 L 453.2597222024448 348.44383401302974 Q 454.77526665906754 349.31883401302974 455.9426060349334 350.3969429043543 L 455.9426060349334 350.3969429043543 Q 456.560426357961 350.92684671492196 457.1065960458939 351.5308530658681 Q 457.65276573382687 352.1348594168142 458.1522847866652 352.76966703794955 L 458.1522847866652 352.76966703794955 Q 459.1263228923419 354.0825835504094 459.8271559172616 355.4687051436262 L 459.8271559172616 355.4687051436262 Q 460.16507242972153 356.1834165753292 460.43468767199215 356.9164292772214 Q 460.7043029142628 357.6494419791136 460.90561688634426 358.40075595119504 L 460.90561688634426 358.40075595119504 Q 461.3082448305072 359.90338389535793 461.41266769391314 361.52251819046694 L 461.41266769391314 361.52251819046694 Q 461.56709055731915 363.0550499451975 461.31170579958984 364.6973893210634 L 461.31170579958984 364.6973893210634 Q 461.26481469091436 365.4786071037125 461.07217040676585 366.26227679164543 Q 460.87952612261734 367.04594647957833 460.609429933185 367.8137668026059 L 460.609429933185 367.8137668026059 Q 459.54064771583415 371.06495190528375 457.309429933185 373.5295344675832 L 457.309429933185 373.5295344675832 Q 456.2246223120497 374.8084763838275 454.93670579958984 375.73921321931493 L 454.93670579958984 375.73921321931493 Q 454.3018981784545 376.2387322721533 453.63963865203533 376.6357994197078 Q 452.97737912561615 377.03286656726226 452.2376676939132 377.4140843499114 L 452.2376676939132 377.4140843499114 Q 451.5229562622102 377.7520008623713 450.78994356031797 378.0216161046419 Q 450.05693085842574 378.2912313469126 449.3056168863443 378.492545318994 L 449.3056168863443 378.492545318994 L 447.15766954439454 370.6128992472335 Q 448.0455860568544 370.37498273477365 448.6919962183682 370.05536749250297 L 448.6919962183682 370.05536749250297 Q 449.313406379882 369.77905352042154 450.04151527120655 369.21793192720475 L 450.04151527120655 369.21793192720475 Q 450.3464190817742 368.9898230358802 450.62052162215264 368.71506350946106 Q 450.8946241625311 368.4403039830419 451.1812267029095 368.1438938215281 L 451.1812267029095 368.1438938215281 Q 452.3776368644233 366.87165063509457 452.8562267029095 365.2427087188502 L 452.8562267029095 365.2427087188502 Q 453.15132289234185 364.4315871256334 453.24151527120654 363.67536934298437 L 453.24151527120654 363.67536934298437 Q 453.2866114606389 363.2972604516598 453.31005701497656 362.90665156033526 Q 453.3335025693143 362.5160426690107 453.2919962183682 362.08793377768615 L 453.2919962183682 362.08793377768615 Q 453.2254898674221 361.7031261565508 453.171483516476 361.29666790032087 Q 453.11747716552986 360.89020964409093 452.9826695443945 360.5237032931448 L 452.9826695443945 360.5237032931448 Q 452.9161631934484 360.1388956720095 452.7688555723131 359.794039956158 Q 452.6215479511778 359.44918424030647 452.44343905985323 359.0576778893604 L 452.44343905985323 359.0576778893604 Q 452.0872212772041 358.27466518746814 451.606003494555 357.70815883652205 L 451.606003494555 357.70815883652205 Q 451.1747857119059 357.0550499451975 450.5136641186891 356.5001461346298 L 450.5136641186891 356.5001461346298 Q 449.85254252547236 355.9452423240622 449.1597222024448 355.54524232406214 L 449.1597222024448 355.54524232406214 L 445.86882566806395 353.64524232406217 Q 445.08940280465794 353.1952423240622 444.3648837518196 352.95014613462985 L 444.3648837518196 352.95014613462985 Q 443.5537621586028 352.6550499451975 442.7725443759537 352.608158836522 L 442.7725443759537 352.608158836522 Q 442.04132659330463 352.47466518746813 441.1851088106555 352.5576778893604 L 441.1851088106555 352.5576778893604 Q 440.2855897578172 352.6156905912526 439.60257705592494 352.7987032931448 L 439.60257705592494 352.7987032931448 Q 439.26107070497886 352.89020964409093 438.88206435403276 353.04666790032087 Q 438.5030580030866 353.2031261565508 438.1365516521405 353.33793377768615 L 438.1365516521405 353.33793377768615 Q 437.7450453011944 353.5160426690107 437.4184908555321 353.73165156033525 Q 437.09193640986985 353.9472604516598 436.78703259930217 354.17536934298437 L 436.78703259930217 354.17536934298437 Q 436.17722497816686 354.6315871256335 435.6223211675992 355.29270871885024 L 435.6223211675992 355.29270871885024 Q 434.4509110060854 356.52165063509455 433.94732116759917 358.1938938215281 L 433.94732116759917 358.1938938215281 Q 433.83392370797765 358.59030398304185 433.73302624835605 358.96506350946106 Q 433.6321287887345 359.3398230358802 433.5870325993022 359.71793192720475 L 433.5870325993022 359.71793192720475 Q 433.46514149062676 360.6290535204215 433.53655165214053 361.30536749250297 L 433.53655165214053 361.30536749250297 Q 433.57805800308665 361.7334763838275 433.64456435403275 362.11828400496285 Q 433.71107070497885 362.5030916260982 433.77757705592495 362.8878992472335 L 433.77757705592495 362.8878992472335 Q 433.9123846770603 363.25440559817963 434.0471922981956 363.62091194912574 Q 434.18199991933096 363.98741830007185 434.3601088106555 364.37892465101794 L 434.3601088106555 364.37892465101794 Q 434.7413265933046 365.11863608272097 435.1975443759537 365.72844370385627 L 435.1975443759537 365.72844370385627 Q 435.36405072689985 365.94004624423474 435.54305707784596 366.12999814951854 Q 435.72206342879207 366.3199500548024 435.88856977973813 366.5315525951808 L 435.88856977973813 366.5315525951808 L 439.86356977973816 359.64665063509455 L 446.92167682058135 363.72165063509453 L 438.74667682058134 377.88116598697013 Z" fill-opacity="1"/></g></g><g><g><path fill="rgb(244,244,245)" stroke="none" paint-order="stroke fill markers" d=" M 418.75025783520584 411.96888738443425 L 418.75025783520584 411.96888738443425 L 428.96608528475224 400.17919402450786 L 424.31822540247356 396.15180051074435 L 414.1023979529271 407.94149387067074 L 407.94303892193994 402.6043788890167 L 418.15886637148634 390.81468552909024 L 413.51100648920766 386.7872920153268 L 403.2951790396612 398.5769853752532 L 397.13582000867405 393.2398703935991 L 409.38171573345085 379.10735335317446 L 409.38171573345085 379.10735335317446 L 412.7215054765718 375.25303052396777 L 440.5330898128085 399.35190553315425 L 435.1632317944572 405.54905204285916 L 435.12544431573946 405.5163090061619 L 424.909616866193 417.30600236608836 L 418.75025783520584 411.96888738443425 Z" fill-opacity="1"/></g></g><g><g><path fill="rgb(244,244,245)" stroke="none" paint-order="stroke fill markers" d=" M 389.4009685500086 448.05028393647785 L 389.4009685500086 448.05028393647785 L 384.33206486299963 441.604648559587 L 391.21002944199904 436.19575743015673 L 373.4997744867787 413.67533626577585 L 379.94540986366957 408.6064325787669 L 397.6556648188899 431.12685374314776 L 404.5336293978893 425.7179626137174 L 409.60253308489825 432.1635979906083 L 389.4009685500086 448.05028393647785 Z" fill-opacity="1"/></g></g><g><g><path fill="rgb(244,244,245)" stroke="none" paint-order="stroke fill markers" d=" M 340.29221161463397 434.08999571334164 L 340.29221161463397 434.08999571334164 L 347.5806622936043 430.3325382351769 L 364.443398293173 463.0416827456781 L 357.1549476142027 466.79914022384287 L 340.29221161463397 434.08999571334164 Z" fill-opacity="1"/></g></g><g><g><path fill="rgb(244,244,245)" stroke="none" paint-order="stroke fill markers" d=" M 294.03442462980587 450.72483515380435 L 294.03442462980587 450.72483515380435 L 302.4299881489327 448.25967528144184 L 319.52446498521164 465.1268434401436 L 313.6080812915416 444.9774909942392 L 321.47592367518047 442.6672840281395 L 331.82959513910305 477.92865080847224 L 323.43403161997617 480.39381068083475 L 306.29158013501655 463.54072914997505 L 312.20796382868656 483.69008159587946 L 304.3880960937284 485.9862019341371 L 294.03442462980587 450.72483515380435 Z" fill-opacity="1"/></g></g><g><g><path fill="rgb(244,244,245)" stroke="none" paint-order="stroke fill markers" d=" M 260.1974898680525 491.97635463075926 L 260.1974898680525 491.97635463075926 L 259.4180303129582 483.81348486566 L 268.1284096354727 482.98174448674837 L 265.4050539948078 454.4614739050295 L 273.56792375990716 453.68201434993523 L 276.29127940057197 482.2022849316541 L 285.00165872308645 481.3705445527425 L 285.78111827818077 489.5334143178418 L 260.1974898680525 491.97635463075926 Z" fill-opacity="1"/></g></g><g><g><path fill="rgb(244,244,245)" stroke="none" paint-order="stroke fill markers" d=" M 227.02020153121387 490.6553372820432 L 227.02020153121387 490.6553372820432 Q 223.23740822543613 490.29412431748733 220.04040854760737 488.53225228468733 Q 216.84340886977859 486.77038025188733 214.58999277052374 484.0689471352585 Q 212.3365766712689 481.36751401862966 211.21158012860693 477.8948518152188 Q 210.08658358594496 474.4221896118079 210.44779655050084 470.63939630603016 L 210.44779655050084 470.63939630603016 Q 210.81376231722194 466.8068294041238 212.57563435002194 463.609829726295 Q 214.3375063828219 460.4128300484662 217.0614498964325 458.18667714835834 Q 219.78539341004304 455.9605242482504 223.25805561345396 454.83552770558845 Q 226.73071781686485 453.7105311629265 230.51351112264257 454.07174412748236 L 230.51351112264257 454.07174412748236 Q 234.29630442842029 454.43295709203824 237.49330410624907 456.19482912483824 Q 240.69030378407783 457.95670115763824 242.94371988333268 460.65813427426707 Q 245.19713598258755 463.3595673908959 246.32213252524951 466.8322295943068 Q 247.44712906791148 470.3048917977177 247.08116330119037 474.13745869962406 L 247.08116330119037 474.13745869962406 Q 246.71995033663447 477.9202520054018 244.9580783038345 481.11725168323056 Q 243.1962062710345 484.31425136105935 240.47226275742395 486.5404042611673 Q 237.74831924381337 488.7665571612752 234.27565704040248 489.8915537039372 Q 230.8029948369916 491.01655024659914 227.02020153121387 490.6553372820432 Z M 229.73880436971348 462.184840296453 L 229.73880436971348 462.184840296453 Q 227.64831333231 461.9852226055142 225.7057586428421 462.60337006237734 Q 223.76320395337424 463.2215175192405 222.2613515992104 464.48447615129953 Q 220.75949924504656 465.7474347833586 219.78489162579274 467.5378998035398 Q 218.81028400653892 469.32836482372096 218.61066631560016 471.4188558611245 L 218.61066631560016 471.4188558611245 Q 218.41104862466136 473.50934689852795 219.0315724826071 475.4270147899315 Q 219.65209634055282 477.34468268133503 220.88779177346495 478.8690454324806 Q 222.1234872063771 480.39340818362615 223.91395222655828 481.36801580288 Q 225.70441724673947 482.3426234221338 227.79490828414293 482.5422411130726 L 227.79490828414293 482.5422411130726 Q 229.88539932154643 482.7418588040114 231.8279540110143 482.12371134714823 Q 233.7705087004822 481.5055638902851 235.27236105464604 480.24260525822604 Q 236.77421340880989 478.979646626167 237.7464446269811 477.2140684040501 Q 238.7186758451523 475.44849018193327 238.91829353609108 473.3579991445298 L 238.91829353609108 473.3579991445298 Q 239.11791122702985 471.26750810712633 238.49976377016674 469.32495341765843 Q 237.8816163133036 467.38239872819054 236.64592088039146 465.85803597704495 Q 235.41022544747935 464.3336732258994 233.61976042729816 463.3590656066456 Q 231.82929540711697 462.3844579873918 229.73880436971348 462.184840296453 Z" fill-opacity="1"/></g></g><g><g><path fill="rgb(244,244,245)" stroke="none" paint-order="stroke fill markers" d=" M 192.24482584750697 446.69605959097197 L 192.24482584750697 446.69605959097197 Q 195.02735547098902 447.5130840058121 197.14016941684005 449.27990098281265 Q 199.25298336269108 451.04671795981324 200.54072815455993 453.4050464676795 Q 201.82847294642875 455.76337497554573 202.17254051138008 458.49600054644793 Q 202.5166080763314 461.22862611735013 201.69958366149126 464.0111557408321 L 201.69958366149126 464.0111557408321 L 195.27608136550668 485.8875955392427 L 187.4082389818678 483.57738857314297 L 193.8317412778524 461.7009487747324 Q 194.1698203460621 460.54955720639504 194.03386769261908 459.41530993352114 Q 193.89791503917607 458.2810626606473 193.3557067057576 457.28808223628255 Q 192.81349837233915 456.29510181191785 191.95679772496294 455.57455410302885 Q 191.10009707758672 454.85400639413984 189.94870550924932 454.51592732593014 L 189.94870550924932 454.51592732593014 Q 188.79731394091192 454.1778482577204 187.66306666803806 454.3138009111634 Q 186.5288193951642 454.44975356460645 185.53583897079946 454.9919618980249 Q 184.5428585464347 455.53417023144334 183.8152675236247 456.41485820315995 Q 183.08767650081467 457.2955461748765 182.74959743260496 458.44693774321394 L 182.74959743260496 458.44693774321394 L 176.32609513662035 480.3233775416245 L 168.50622740166222 478.02725720336684 L 174.9297296976468 456.1508174049563 Q 175.74675411248694 453.36828778147424 177.5135710894875 451.2554738356232 Q 179.28038806648806 449.1426598897722 181.6387165743543 447.85491509790336 Q 183.99704508222058 446.5671703060345 186.72967065312275 446.22310274108315 Q 189.46229622402493 445.8790351761318 192.24482584750697 446.69605959097197 Z" fill-opacity="1"/></g></g><g><g><path fill="rgb(244,244,245)" stroke="none" paint-order="stroke fill markers" d=" M 155.93092816845262 432.08663556052426 L 155.93092816845262 432.08663556052426 Q 156.6864382998093 432.47612810399255 157.3739048927769 432.94304852928315 Q 158.06137148574444 433.40996895457374 158.70370586640928 433.9098754892539 L 158.70370586640928 433.9098754892539 Q 159.34604024707411 434.4097820239341 159.92033108934982 434.9871164404365 Q 160.49462193162555 435.564450856939 161.0237805615985 436.17477138283107 L 161.0237805615985 436.17477138283107 Q 161.48558609305235 436.80662235506946 161.93593596146303 437.4606942135243 Q 162.38628582987369 438.11476607197903 162.80226870915482 438.8355005890829 L 162.80226870915482 438.8355005890829 Q 163.19672114208953 439.4888820076677 163.4894534873756 440.230456531248 Q 163.78218583266167 440.9720310548283 164.0190207424718 441.71291513853856 L 164.0190207424718 441.71291513853856 Q 164.56004366061117 443.17315285961274 164.69694798763587 444.7625732587652 L 164.69694798763587 444.7625732587652 Q 164.87829408709328 446.37490498400405 164.79160867221424 447.96156362367645 L 164.79160867221424 447.96156362367645 Q 164.6389510385561 449.4579578387434 164.21550013108146 451.1522687101478 L 164.21550013108146 451.1522687101478 Q 163.77189965700043 452.66743161208115 162.9700032439775 454.22289364722724 L 162.9700032439775 454.22289364722724 L 161.2287424614133 457.60046835211597 Q 160.47266870056308 459.06704684239656 159.4499443051164 460.39615737615895 L 159.4499443051164 460.39615737615895 Q 158.90559599800346 461.01558043073743 158.35048246771737 461.60132693605635 Q 157.79536893743128 462.1870734413752 157.18504841153924 462.7162320713482 L 157.18504841153924 462.7162320713482 Q 156.55319743930082 463.1780376028021 155.89912558084603 463.6283874712127 Q 155.24505372239125 464.0787373396234 154.5472305313737 464.45027844647177 L 154.5472305313737 464.45027844647177 Q 153.87093778670257 464.88917265183926 153.1293632631223 465.1819049971253 Q 152.387788739542 465.47463734241137 151.64690465583172 465.7114722522215 L 151.64690465583172 465.7114722522215 Q 150.23248958693028 466.1636116254954 148.59724653560508 466.38939949738557 L 148.59724653560508 466.38939949738557 Q 147.0522679088854 466.5492151504966 145.42116749678019 466.4396184095312 L 145.42116749678019 466.4396184095312 Q 144.61707295377076 466.3625991528321 143.81366885063136 466.2296824606571 Q 143.01026474749193 466.0967657684821 142.2304624103089 465.8635098683984 L 142.2304624103089 465.8635098683984 Q 138.97654686453845 464.9735471607564 136.3641484491864 462.8392148249975 L 136.3641484491864 462.8392148249975 Q 135.72181406852155 462.3393082903173 135.14752322624585 461.76197387381484 Q 134.57323238397012 461.1846394573124 134.04407375399717 460.57431893142035 L 134.04407375399717 460.57431893142035 Q 132.96422604770484 459.2863247811172 132.28711605278724 457.9809428236876 L 132.28711605278724 457.9809428236876 Q 131.49959206665775 456.56238511556614 131.0259222470375 455.0806169481456 L 131.0259222470375 455.0806169481456 Q 130.55225242741722 453.598848780725 130.3709063279598 451.9865170554862 L 130.3709063279598 451.9865170554862 Q 130.165268022676 450.530421973632 130.2977760897278 448.85487978909407 L 130.2977760897278 448.85487978909407 Q 130.40599195095322 447.3355742479407 130.8738846308606 445.66417470262274 L 130.8738846308606 445.66417470262274 L 138.74064198095022 447.8634083861614 Q 138.50738608086652 448.64321072334445 138.43036682416744 449.44730526635385 L 138.43036682416744 449.44730526635385 Q 138.41931978624748 450.3416642339688 138.499918052673 451.0582561118527 L 138.499918052673 451.0582561118527 Q 138.5131632205794 451.796378436083 138.83888167525504 452.583085171966 L 138.83888167525504 452.583085171966 Q 138.92362258090054 452.96429243699436 139.08717224810835 453.3017483694599 Q 139.25072191531615 453.6392043019255 139.44725769191353 454.02179244669384 L 139.44725769191353 454.02179244669384 Q 139.79726835241553 454.65226253919224 140.32504610264849 455.3743779360361 L 140.32504610264849 455.3743779360361 Q 140.85420473262147 455.9846984619282 141.4965391132863 456.48460499660837 L 141.4965391132863 456.48460499660837 Q 142.8242687673087 457.61912426300694 144.42969609384755 457.99675251830877 L 144.42969609384755 457.99675251830877 Q 145.2094984310306 458.23000841839246 146.01359297404 458.30702767509155 L 146.01359297404 458.30702767509155 Q 146.90795194165491 458.3180747130115 147.62454381953881 458.237476446586 L 147.62454381953881 458.237476446586 Q 148.0501928569999 458.17564686702684 148.41994445898504 458.11312684759775 Q 148.7896960609702 458.0506068281686 149.19381465208488 457.92142415009033 L 149.19381465208488 457.92142415009033 Q 150.0020518343143 457.6630587939338 150.6325219268127 457.31304813343183 L 150.6325219268127 457.31304813343183 Q 151.39769821634937 456.9199765802371 151.94066564372227 456.4123483966105 L 151.94066564372227 456.4123483966105 Q 152.25728156971147 456.12554819540765 152.5402209464411 455.849513217378 Q 152.82316032317078 455.57347823934833 153.09533447672723 455.26376671205907 L 153.09533447672723 455.26376671205907 Q 153.61815233749377 454.5769905589615 153.98473355487567 453.8659222000376 L 153.98473355487567 453.8659222000376 L 155.72599433743986 450.48834749514884 Q 156.1383982069945 449.68839559135944 156.3716541070782 448.90859325417637 L 156.3716541070782 448.90859325417637 Q 156.46606117090369 448.50723642254167 156.5267916854696 448.11664481408013 Q 156.5875222000355 447.7260532056186 156.61457616534187 447.3462268203303 L 156.61457616534187 447.3462268203303 Q 156.69297630178093 446.430337406369 156.58946670926903 445.7581873009178 L 156.58946670926903 445.7581873009178 Q 156.52763712970992 445.33253826345674 156.44289622406438 444.95133099842843 Q 156.35815531841888 444.5701237334001 156.27341441277338 444.18891646837176 L 156.27341441277338 444.18891646837176 Q 156.12132040860877 443.82923964968984 155.96922640444413 443.46956283100786 Q 155.81713240027952 443.1098860123259 155.62059662368213 442.7272978675576 L 155.62059662368213 442.7272978675576 Q 155.2275250704874 441.9621215780209 154.7198968868608 441.419154150648 L 154.7198968868608 441.419154150648 Q 154.43309668565794 441.1025382246588 154.1570617076283 440.81959884792917 Q 153.8810267295986 440.5366594711995 153.57131520230936 440.26448531764305 L 153.57131520230936 440.26448531764305 Q 152.28664644097972 439.26467224828275 150.63815822174814 438.7523377959426 L 150.63815822174814 438.7523377959426 Q 150.2368013901134 438.65793073211717 149.8462097816519 438.59720021755123 Q 149.45561817319037 438.5364697029853 149.0313500154693 438.4865044115926 L 149.0313500154693 438.4865044115926 Q 148.294608570979 438.3879547085471 147.44331049605685 438.5116138676654 L 147.44331049605685 438.5116138676654 Q 146.72671861817292 438.5922121340909 145.91848143594353 438.8505774902474 L 145.91848143594353 438.8505774902474 Q 145.51436284482884 438.9797601683257 145.15468602614686 439.1318541724903 Q 144.79500920746491 439.2839481766549 144.45686283512933 439.5033952793387 L 144.45686283512933 439.5033952793387 Q 144.09718601644738 439.6554892835033 143.78126053032818 439.8863920492302 Q 143.46533504420898 440.1172948149572 143.104277345787 440.38118369007367 L 143.104277345787 440.38118369007367 Q 142.8105727458842 440.6235421188438 142.54985425537092 440.9110327599166 Q 142.28913576485763 441.1985234009895 142.01696161130118 441.5082349282787 L 142.01696161130118 441.5082349282787 L 135.63944045682567 436.4202860366115 Q 136.66216485227238 435.0911755028491 137.90433635040282 434.1002113414223 L 137.90433635040282 434.1002113414223 Q 139.0347129775814 433.1078663002555 140.52062378422195 432.29881186777965 L 140.52062378422195 432.29881186777965 Q 141.2184469752395 431.92727076093126 141.93780061260338 431.62308275260204 Q 142.65715424996728 431.31889474427277 143.3980383336776 431.08205983446265 L 143.3980383336776 431.08205983446265 Q 144.13892241738785 430.84522492465254 144.9127926104877 430.6535222271451 Q 145.68666280358755 430.46181952963775 146.49213822633695 430.42704391538496 L 146.49213822633695 430.42704391538496 Q 147.27608320273998 430.32491520261306 148.0701029624462 430.3123604745767 Q 148.86412272215244 430.29980574654024 149.64668681881548 430.3094719047202 L 149.64668681881548 430.3094719047202 Q 150.4507813618249 430.3864911614193 151.2541854649643 430.5194078535943 Q 152.05758956810374 430.6523245457693 152.83739190528678 430.885580445853 L 152.83739190528678 430.885580445853 Q 153.66163601490257 431.1417476720231 154.41852702599925 431.4194453445395 Q 155.17541803709594 431.6971430170559 155.93092816845262 432.08663556052426 Z" fill-opacity="1"/></g></g><g><g><path fill="rgb(244,244,245)" stroke="none" paint-order="stroke fill markers" d=" M 95.97004918234956 436.48231618872654 L 95.97004918234956 436.48231618872654 L 89.56371646019583 431.44432045102866 L 112.3119671531141 402.517566564494 L 118.71829987526782 407.55556230219196 L 109.87862637231316 418.79612155701386 L 118.95753961659237 425.9358578478618 L 127.79721311954702 414.69529859304 L 134.2428484964379 419.76420228004895 L 111.49459780351961 448.69095616658353 L 105.04896242662875 443.62205247957456 L 113.91954387889444 432.34219057001553 L 104.84063063461524 425.20245427916757 L 95.97004918234956 436.48231618872654 Z" fill-opacity="1"/></g></g><g><g><path fill="rgb(244,244,245)" stroke="none" paint-order="stroke fill markers" d=" M 87.65503944544673 375.68758652922145 L 87.65503944544673 375.68758652922145 L 102.48763506930743 392.80531438834544 L 96.32827603832024 398.1424293699995 L 81.49568041445951 381.02470151087556 L 87.65503944544673 375.68758652922145 Z" fill-opacity="1"/></g></g><g><g><path fill="rgb(244,244,245)" stroke="none" paint-order="stroke fill markers" d=" M 44.878323179418686 349.51883401302996 L 51.225308627045095 345.9121352832192 Q 52.17793657120797 345.3621352832192 53.014058164424746 345.11034036397604 L 53.014058164424746 345.11034036397604 Q 53.781878487452296 344.8402441745437 54.578048175385234 344.6692505254898 Q 55.37421786331818 344.49825687643596 56.17373691615651 344.38306449757124 L 56.17373691615651 344.38306449757124 Q 56.929954698805616 344.2928721187066 57.736172481454716 344.2892822802204 Q 58.54239026410383 344.28569244173417 59.373608046752935 344.32540387343715 L 59.373608046752935 344.32540387343715 Q 60.136524559212816 344.3468140349509 60.91863980148348 344.50147737193777 Q 61.70075504375414 344.65614070892457 62.45206901583559 344.857454681006 L 62.45206901583559 344.857454681006 Q 63.203382987917024 345.05876865308744 63.936395689809245 345.3283838953581 Q 64.66940839170147 345.5979991376288 65.38411982340446 345.93591565008865 L 65.38411982340446 345.93591565008865 Q 66.12383125510746 346.31713343273776 66.78609078152662 346.7142005802923 Q 67.44835030794579 347.1112677278468 68.08315792908112 347.6107867806851 L 68.08315792908112 347.6107867806851 Q 68.76126682040568 348.0853058335234 69.33112253625718 348.62232488636175 Q 69.90097825210867 349.1593439392001 70.49918333286557 349.79546553241687 L 70.49918333286557 349.79546553241687 Q 71.55899095400089 351.03110617847193 72.4089909540009 352.5033493649055 L 72.4089909540009 352.5033493649055 Q 73.2339909540009 353.93229128114984 73.79918333286557 355.5112331973942 L 73.79918333286557 355.5112331973942 Q 74.02597825210869 356.3040535204217 74.21862253625719 357.08772320835465 Q 74.41126682040569 357.8713928962876 74.50145919927036 358.62761067893666 L 74.50145919927036 358.62761067893666 Q 74.5733503079458 359.452129731775 74.59859078152664 360.2458475144241 Q 74.62383125510748 361.03956529707324 74.55911982340447 361.82748180953314 L 74.55911982340447 361.82748180953314 Q 74.45469695999849 363.4466161046421 74.0520690158356 364.949244048805 L 74.0520690158356 364.949244048805 Q 73.66774234186194 366.38357072277864 72.97360804675294 367.88129485637387 L 72.97360804675294 367.88129485637387 Q 72.27277502183318 369.26741644959066 71.29873691615651 370.58033296205053 L 71.29873691615651 370.58033296205053 Q 70.79921786331819 371.21514058318587 70.25304817538526 371.819146934132 Q 69.70687848745231 372.42315328507806 69.08905816442476 372.95305709564576 L 69.08905816442476 372.95305709564576 Q 68.49623784139722 373.5262621764026 67.81926688327505 374.00371408168644 Q 67.1422959251529 374.4811659869703 66.40617433193611 374.9061659869703 L 66.40617433193611 374.9061659869703 L 63.11527779755525 376.8061659869703 Q 61.59973334093248 377.6811659869703 60.0823939650666 378.15305709564575 L 60.0823939650666 378.15305709564575 Q 59.31457364203905 378.4231532850781 58.51840395410611 378.59414693413197 Q 57.722234266173174 378.7651405831859 56.92271521333484 378.88033296205055 L 56.92271521333484 378.88033296205055 Q 55.29867710765818 379.06741644959067 53.74784408273841 378.9812948563739 L 53.74784408273841 378.9812948563739 Q 52.95992757027853 378.9165834246709 52.19031232800786 378.7835707227787 Q 51.4206970857372 378.6505580208864 50.66938311365576 378.449244048805 L 50.66938311365576 378.449244048805 Q 49.16675516949287 378.0466161046421 47.71233230608688 377.32748180953314 L 47.71233230608688 377.32748180953314 Q 46.307909442680895 376.6949500548026 45.01329420041022 375.6526106789367 L 45.01329420041022 375.6526106789367 Q 44.36018530908567 375.2213928962876 43.77782959323417 374.66272320835463 Q 43.195473877382675 374.1040535204217 42.66557006681501 373.48623319739414 L 42.66557006681501 373.48623319739414 Q 40.3843522841659 370.9350480947163 39.365570066815 367.7704655324169 L 39.365570066815 367.7704655324169 Q 38.80037768795034 366.19152361617256 38.638294200410215 364.6107867806851 L 38.638294200410215 364.6107867806851 Q 38.523101821545545 363.81126772784677 38.51036134796471 363.0392005802923 Q 38.49762087438388 362.2671334327378 38.537332306086874 361.4359156500887 L 38.537332306086874 361.4359156500887 Q 38.60204373778988 360.6479991376288 38.73505643968209 359.8783838953581 Q 38.86806914157431 359.10876865308745 39.06938311365575 358.35745468100606 L 39.06938311365575 358.35745468100606 L 46.96733045560549 360.4371007527665 Q 46.72941394314561 361.32501726522645 46.68300378163184 362.0446325074971 L 46.68300378163184 362.0446325074971 Q 46.611593620118065 362.7209464795785 46.73348472879351 363.63206807279533 L 46.73348472879351 363.63206807279533 Q 46.77858091822584 364.01017696411986 46.879478377847406 364.384936490539 Q 46.980375837468955 364.7596960169582 47.09377329709051 365.156106178472 L 47.09377329709051 365.156106178472 Q 47.59736313557673 366.82834936490553 48.76877329709051 368.05729128114984 L 48.76877329709051 368.05729128114984 Q 49.32367710765818 368.7184128743666 49.933484728793516 369.1746306570157 L 49.933484728793516 369.1746306570157 Q 50.238388539361175 369.40273954834026 50.56494298502346 369.6183484396648 Q 50.89149743068573 369.8339573309894 51.28300378163184 370.01206622231393 L 51.28300378163184 370.01206622231393 Q 51.64951013257795 370.14687384344927 52.02851648352406 370.3033320996792 Q 52.40752283447017 370.45979035590915 52.7923304556055 370.52629670685525 L 52.7923304556055 370.52629670685525 Q 53.15883680655161 370.6611043279906 53.53114442768694 370.7059600438421 Q 53.903452048822274 370.7508157596936 54.33156094014683 370.7923221106397 L 54.33156094014683 370.7923221106397 Q 55.18777872279593 370.8753348125319 55.91899650544504 370.741841163478 L 55.91899650544504 370.741841163478 Q 56.70021428809415 370.6949500548026 57.51133588131092 370.39985386537023 L 57.51133588131092 370.39985386537023 Q 58.322457474527695 370.1047576759379 59.01527779755524 369.7047576759379 L 59.01527779755524 369.7047576759379 L 62.30617433193611 367.8047576759379 Q 63.0855971953421 367.3547576759379 63.66011624818044 366.8498538653702 L 63.66011624818044 366.8498538653702 Q 64.3212378413972 366.2949500548026 64.75245562404632 365.64184116347803 L 64.75245562404632 365.64184116347803 Q 65.23367340669542 365.0753348125319 65.58989118934453 364.2923221106397 L 65.58989118934453 364.2923221106397 Q 65.98941024218286 363.4843094087475 66.17242294407508 362.8012967068552 L 66.17242294407508 362.8012967068552 Q 66.26392929502119 362.45979035590915 66.3179356459673 362.0533320996792 Q 66.3719419969134 361.64687384344927 66.4384483478595 361.26206622231393 L 66.4384483478595 361.26206622231393 Q 66.47995469880563 360.8339573309894 66.4565091444679 360.4433484396648 Q 66.43306359013017 360.05273954834024 66.38796740069785 359.6746306570157 L 66.38796740069785 359.6746306570157 Q 66.29777502183317 358.9184128743666 66.00267883240083 358.10729128114986 L 66.00267883240083 358.10729128114986 Q 65.52408899391462 356.4783493649055 64.32767883240084 355.20610617847194 L 64.32767883240084 355.20610617847194 Q 64.0410762920224 354.9096960169582 63.766973751643945 354.634936490539 Q 63.4928712112655 354.36017696411983 63.187967400697836 354.1320680727953 L 63.187967400697836 354.1320680727953 Q 62.459858509373284 353.57094647957854 61.83844834785951 353.2946325074971 L 61.83844834785951 353.2946325074971 Q 61.446941996913395 353.1165236161725 61.080435645967285 352.9817159950372 Q 60.713929295021174 352.8469083739019 60.34742294407507 352.71210075276656 L 60.34742294407507 352.71210075276656 Q 59.96261532293974 352.64559440182046 59.5778077018044 352.5790880508743 Q 59.19300008066907 352.5125816999282 58.764891189344524 352.4710753489821 L 58.764891189344524 352.4710753489821 Q 57.93367340669541 352.4313639172791 57.17745562404631 352.5215562961438 L 57.17745562404631 352.5215562961438 Q 56.9109492731002 352.5599537557653 56.65694292215409 352.6200018504815 Q 56.40293657120798 352.68004994519765 56.13643022026187 352.71844740481924 L 56.13643022026187 352.71844740481924 L 60.11143022026187 359.6033493649055 L 53.0533231794187 363.6783493649055 L 44.878323179418686 349.51883401302996 Z" fill-opacity="1"/></g></g><g><g><path fill="rgb(244,244,245)" stroke="none" paint-order="stroke fill markers" d=" M 25.35569998477615 315.1575664882452 L 25.35569998477615 315.1575664882452 L 30.457960212527933 329.899579260194 L 36.26971524762314 327.88811128579187 L 31.167455019871362 313.146098513843 L 38.86921169239591 310.48049461280607 L 43.97147192014769 325.22250738475486 L 49.7832269552429 323.2110394103527 L 44.68096672749112 308.46902663840393 L 52.38272340001567 305.80342273736693 L 58.498894314051455 323.4749380473312 L 58.498894314051455 323.4749380473312 L 60.166940926970305 328.294442222776 L 25.390910798270507 340.33054327285714 L 22.708953499067647 332.58153655939685 L 22.756203540003384 332.565183161231 L 17.653943312251606 317.82317038928215 L 25.35569998477615 315.1575664882452 Z" fill-opacity="1"/></g></g><g><g><path fill="rgb(244,244,245)" stroke="none" paint-order="stroke fill markers" d=" M 8.78293860928472 271.69963810822406 L 8.78293860928472 271.69963810822406 L 16.89947443270837 270.5326564343831 L 18.14472926759962 279.1935940508413 L 46.50311357748834 275.11627393431166 L 47.67009525132928 283.2328097577353 L 19.311710941440555 287.31012987426493 L 20.556965776331804 295.9710674907231 L 12.440429952908154 297.13804916456405 L 8.78293860928472 271.69963810822406 Z" fill-opacity="1"/></g></g><g><g><path fill="rgb(244,244,245)" stroke="none" paint-order="stroke fill markers" d=" M 45.427281322360706 236.15035116548248 L 45.427281322360706 236.15035116548248 L 45.037109612606024 244.34106334678316 L 8.278791530671327 242.59004884446944 L 8.66896324042601 234.39933666316875 L 45.427281322360706 236.15035116548248 Z" fill-opacity="1"/></g></g><g><g><path fill="rgb(244,244,245)" stroke="none" paint-order="stroke fill markers" d=" M 54.14998127145872 187.7725127935409 L 54.14998127145872 187.7725127935409 L 52.08709058575124 196.27586401637188 L 28.932456052272038 202.64653114164318 L 49.34049898706642 207.59746878734114 L 47.40727571588912 215.56632364759417 L 11.693200579998958 206.90218276762275 L 13.756091265706438 198.39883154479176 L 36.92251374596111 191.9795738411043 L 16.51447081116673 187.02863619540634 L 18.43590613556856 179.10837191356944 L 54.14998127145872 187.7725127935409 Z" fill-opacity="1"/></g></g><g><g><path fill="rgb(244,244,245)" stroke="none" paint-order="stroke fill markers" d=" M 35.343584840583915 137.8431079651883 L 35.343584840583915 137.8431079651883 L 42.80256720249097 141.24951107180377 L 39.167685838724466 149.2087910311558 L 65.22864250563143 161.11043115365985 L 61.822239399015956 168.56941351556688 L 35.761282732109 156.66777339306284 L 32.1264013683425 164.6270533524149 L 24.667419006435445 161.22065024579942 L 35.343584840583915 137.8431079651883 Z" fill-opacity="1"/></g></g><g><g><path fill="rgb(244,244,245)" stroke="none" paint-order="stroke fill markers" d=" M 53.07626359183131 109.77124211116289 L 53.07626359183131 109.77124211116289 Q 55.280479848201864 106.67585349337162 58.404805625738355 104.78810657288123 Q 61.52913140327486 102.90035965239085 64.99534915852743 102.29956062345371 Q 68.46156691378002 101.6987615945166 72.03147887202687 102.46081711110712 Q 75.60139083027374 103.22287262769764 78.69677944806502 105.4270888840682 L 78.69677944806502 105.4270888840682 Q 81.83289686345881 107.66030798591731 83.72064378394919 110.78463376345381 Q 85.60839070443959 113.90895954099031 86.17432391183617 117.38104027230487 Q 86.74025711923275 120.85312100361942 85.97820160264223 124.42303296186628 Q 85.21614608605171 127.99294492011315 83.01192982968115 131.08833353790442 L 83.01192982968115 131.08833353790442 Q 80.8077135733106 134.1837221556957 77.6833877957741 136.07146907618608 Q 74.5590620182376 137.95921599667648 71.09284426298503 138.5600150256136 Q 67.62662650773244 139.1608140545507 64.05671454948558 138.3987585379602 Q 60.48680259123872 137.63670302136967 57.35068517584493 135.40348391952057 L 57.35068517584493 135.40348391952057 Q 54.25529655805365 133.19926766315 52.367549637563265 130.0749418856135 Q 50.47980271707287 126.950616108077 49.91386950967629 123.47853537676245 Q 49.347936302279706 120.00645464544789 50.10999181887023 116.43654268720104 Q 50.872047335460756 112.86663072895416 53.07626359183131 109.77124211116289 Z M 76.3731358204709 126.36086972489916 L 76.3731358204709 126.36086972489916 Q 77.59125533057043 124.65026022559346 78.02720127437615 122.65888478784211 Q 78.46314721818189 120.66750935009077 78.12031913597181 118.73538774262188 Q 77.77749105376174 116.803266135153 76.71420667132432 115.06399866806673 Q 75.65092228888689 113.32473120098047 73.94031278958118 112.10661169088095 L 73.94031278958118 112.10661169088095 Q 72.22970329027548 110.88849218078144 70.2586922513254 110.46704765971499 Q 68.28768121237532 110.04560313864854 66.34969662884446 110.35356539931807 Q 64.41171204531359 110.66152765998761 62.67244457822733 111.72481204242503 Q 60.933177111141056 112.78809642486246 59.71505760104154 114.49870592416815 L 59.71505760104154 114.49870592416815 Q 58.496938090942024 116.20931542347387 58.060992147136304 118.2006908612252 Q 57.62504620333058 120.19206629897654 57.967874285540645 122.12418790644543 Q 58.31070236775072 124.05630951391431 59.35362235138688 125.7810755582613 Q 60.39654233502304 127.50584160260829 62.10715183432875 128.7239611127078 L 62.10715183432875 128.7239611127078 Q 63.81776133363446 129.9420806228073 65.8091367713858 130.37802656661304 Q 67.80051220913714 130.81397251041878 69.738496792668 130.50601024974924 Q 71.67648137619886 130.1980479890797 73.41574884328513 129.13476360664228 Q 75.1550163103714 128.07147922420486 76.3731358204709 126.36086972489916 Z" fill-opacity="1"/></g></g><g><g><path fill="rgb(244,244,245)" stroke="none" paint-order="stroke fill markers" d=" M 108.53380264616703 101.63452218846064 L 108.53380264616703 101.63452218846064 Q 106.43497393566233 103.63575132175876 103.84845857681671 104.58209338383551 Q 101.26194321797108 105.52843544591228 98.57569842375543 105.46449089532865 Q 95.88945362953979 105.40054634474504 93.35089668363187 104.33220481116005 Q 90.81233973772396 103.26386327757507 88.81111060442583 101.16503456707036 L 88.81111060442583 101.16503456707036 L 73.07730914263368 84.66389849827478 L 79.01192825509526 79.00525060412146 L 94.74572971688741 95.50638667291705 Q 95.57382453066595 96.37486751864314 96.62408780986945 96.82425270348651 Q 97.67435108907296 97.27363788832989 98.80540152874269 97.30056190962824 Q 99.93645196841244 97.32748593092661 100.98881491263708 96.94583526130474 Q 102.04117785686174 96.56418459168285 102.90965870258782 95.73608977790431 L 102.90965870258782 95.73608977790431 Q 103.7781395483139 94.90799496412578 104.22752473315728 93.85773168492229 Q 104.67690991800065 92.80746840571878 104.70383393929902 91.67641796604903 Q 104.73075796059739 90.5453675263793 104.33185531568844 89.47491123120201 Q 103.93295267077951 88.40445493602475 103.10485785700098 87.53597409029865 L 103.10485785700098 87.53597409029865 L 87.37105639520883 71.03483802150306 L 93.26948880576515 65.41069407792385 L 109.0032902675573 81.91183014671944 Q 111.00451940085543 84.01065885722414 111.95086146293218 86.59717421606977 Q 112.89720352500893 89.1836895749154 112.83325897442532 91.86993436913104 Q 112.76931442384169 94.55617916334668 111.70097289025671 97.0947361092546 Q 110.63263135667174 99.63329305516251 108.53380264616703 101.63452218846064 Z" fill-opacity="1"/></g></g><g><g><path fill="rgb(244,244,245)" stroke="none" paint-order="stroke fill markers" d=" M 139.34288383072058 77.49047630319477 L 139.34288383072058 77.49047630319477 Q 138.62781832781408 77.95002099803203 137.87972008148282 78.31192431914978 Q 137.13162183515152 78.67382764026753 136.37752288626822 78.98015226430732 L 136.37752288626822 78.98015226430732 Q 135.62342393738496 79.28647688834712 134.8362922450769 79.49516013866742 Q 134.04916055276883 79.70384338898772 133.25602815790876 79.85694794223006 L 133.25602815790876 79.85694794223006 Q 132.47792639881746 79.94095777795806 131.6863086192898 80.00393627536529 Q 130.89469083976212 80.06691477277252 130.06252499892528 80.0667992552174 L 130.06252499892528 80.0667992552174 Q 129.29945387560275 80.08171437343107 128.51086532673986 79.96444075916806 Q 127.72227677787697 79.84716714490504 126.96223488521925 79.68183015144848 L 126.96223488521925 79.68183015144848 Q 125.427120464135 79.42025088204967 123.98218985766344 78.74410330756484 L 123.98218985766344 78.74410330756484 Q 122.49519657455032 78.09498777395278 121.16445259289944 77.2265866826937 L 121.16445259289944 77.2265866826937 Q 119.94486600540445 76.34618418633065 118.68927520259746 75.13230950749987 L 118.68927520259746 75.13230950749987 Q 117.59890587569193 73.99055877684822 116.65278444514463 72.51836509439366 L 116.65278444514463 72.51836509439366 L 114.59834933881336 69.32160166963516 Q 113.70629199001162 67.93353334046373 113.06661070105923 66.3832727660556 L 113.06661070105923 66.3832727660556 Q 112.802348753661 65.60214177629953 112.57263416501992 64.82852610442785 Q 112.34291957637885 64.05491043255617 112.1898150231365 63.26177803769611 L 112.1898150231365 63.26177803769611 Q 112.10580518740849 62.483676278604825 112.04282669000128 61.69205849907715 Q 111.97984819259405 60.900440719549465 112.00699575102195 60.110337555354185 L 112.00699575102195 60.110337555354185 Q 111.9650485919355 59.305203755390124 112.08232220619851 58.51661520652722 Q 112.19959582046152 57.72802665766433 112.36493281391809 56.9679847650066 L 112.36493281391809 56.9679847650066 Q 112.68057616506245 55.51699569720548 113.30265965780173 53.987939737450795 L 113.30265965780173 53.987939737450795 Q 113.936744555645 52.570041171852026 114.84720832354563 51.21226514932835 L 114.84720832354563 51.21226514932835 Q 115.31595622793233 50.5544084763873 115.8327675115126 49.925098459651416 Q 116.34957879509287 49.29578844291554 116.94148549873948 48.73708775902638 L 116.94148549873948 48.73708775902638 Q 119.33917358486346 46.364095588441074 122.49375881542528 45.16885836381943 L 122.49375881542528 45.16885836381943 Q 123.24785776430855 44.86253373977963 124.03498945661661 44.65385048945933 Q 124.82212114892468 44.44516723913904 125.61525354378475 44.292062685896695 L 125.61525354378475 44.292062685896695 Q 127.27061305101921 44.00088421518079 128.7396619852539 44.06718073714057 L 128.7396619852539 44.06718073714057 Q 130.36193099028603 44.094443813123576 131.88201477560148 44.42511780003672 L 131.88201477560148 44.42511780003672 Q 133.40209856091693 44.75579178694986 134.88909184403005 45.40490732056192 L 134.88909184403005 45.40490732056192 Q 136.25292632788327 45.95486686512207 137.63773439127974 46.907393309664265 L 137.63773439127974 46.907393309664265 Q 138.89938365541627 47.76076376515456 140.11291178158172 49.00167048485811 L 140.11291178158172 49.00167048485811 L 134.274940867734 54.71486535367434 Q 133.71624018384483 54.12295865002773 133.05838351090378 53.65421074564103 L 133.05838351090378 53.65421074564103 Q 132.28936944380683 53.19746424635832 131.62848354020102 52.908968453641855 L 131.62848354020102 52.908968453641855 Q 130.98262827236394 52.55137794341105 130.1384610264231 52.440105031700035 L 130.1384610264231 52.440105031700035 Q 129.76595539797864 52.32288917621458 129.39193515420178 52.29579937656425 Q 129.0179149104249 52.268709576913906 128.5883159695701 52.24762047981557 L 128.5883159695701 52.24762047981557 Q 127.86730752288915 52.235503557156456 126.97804836964195 52.33151479798846 L 126.97804836964195 52.33151479798846 Q 126.18491597478189 52.48461935123081 125.4308170258986 52.79094397527061 L 125.4308170258986 52.79094397527061 Q 123.78442969310336 53.37353195181265 122.65468036755571 54.575058672874086 L 122.65468036755571 54.575058672874086 Q 122.0627736639091 55.13375935676324 121.5940257595224 55.791616029704294 L 121.5940257595224 55.791616029704294 Q 121.1372792602397 56.56063009680125 120.84878346752322 57.22151600040708 L 120.84878346752322 57.22151600040708 Q 120.68950493539622 57.62105366972433 120.55877305947436 57.97252795984802 Q 120.42804118355252 58.32400224997173 120.33785736893985 58.738570555057755 L 120.33785736893985 58.738570555057755 Q 120.15748973971449 59.56770716522982 120.14537281705539 60.288715611910774 L 120.14537281705539 60.288715611910774 Q 120.10319462285871 61.14791349362039 120.27132981186983 61.87195117096612 L 120.27132981186983 61.87195117096612 Q 120.3613981089274 62.289548706716936 120.45898172386936 62.67259888371058 Q 120.55656533881131 63.05564906070422 120.68869631251042 63.44621455558225 L 120.68869631251042 63.44621455558225 Q 121.022052977423 64.24237618110709 121.45456563138748 64.91537900737204 L 121.45456563138748 64.91537900737204 L 123.50900073771876 68.11214243213053 Q 123.9955774734288 68.86927061167859 124.55427815731795 69.46117731532519 L 124.55427815731795 69.46117731532519 Q 124.85465983758331 69.7436146467121 125.16255683573306 69.99150461934185 Q 125.4704538338828 70.23939459197159 125.78586614991694 70.45273720584417 L 125.78586614991694 70.45273720584417 Q 126.53984958124511 70.9785784226412 127.17370344397816 71.22501153871612 L 127.17370344397816 71.22501153871612 Q 127.57324111329541 71.38429007084314 127.9457467417399 71.50150592632859 Q 128.31825237018435 71.61872178181405 128.69075799862884 71.7359376372995 L 128.69075799862884 71.7359376372995 Q 129.0782942628421 71.78405877527061 129.46583052705535 71.83217991324173 Q 129.8533667912686 71.88030105121284 130.28296573212342 71.90139014831118 L 130.28296573212342 71.90139014831118 Q 131.14216361383305 71.94356834250786 131.86620129117875 71.77543315349673 L 131.86620129117875 71.77543315349673 Q 132.28379882692957 71.68536485643916 132.66684900392323 71.58778124149721 Q 133.04989918091687 71.49019762655527 133.44046467579489 71.35806665285614 L 133.44046467579489 71.35806665285614 Q 134.94866257356148 70.74541740477655 136.2166013341378 69.57395195525267 L 136.2166013341378 69.57395195525267 Q 136.4990386655247 69.2735702749873 136.74692863815446 68.96567327683756 Q 136.9948186107842 68.65777627868782 137.2502239012983 68.3153319217809 L 137.2502239012983 68.3153319217809 Q 137.70394116991625 67.72656996635419 138.02249823417029 66.92749462771968 L 138.02249823417029 66.92749462771968 Q 138.31099402688676 66.26660872411385 138.4913616561121 65.43747211394178 L 138.4913616561121 65.43747211394178 Q 138.58154547072476 65.02290380885574 138.62966660869589 64.63536754464249 Q 138.677787746667 64.24783128042924 138.65681416712377 63.845264380447205 L 138.65681416712377 63.845264380447205 Q 138.7049353050949 63.45772811623395 138.6629303872309 63.06867723668831 Q 138.62092546936688 62.679626357142666 138.57291984895087 62.234996780519076 L 138.57291984895087 62.234996780519076 Q 138.5098835927661 61.85946192140982 138.39126863950338 61.48992776485257 Q 138.27265368624063 61.120393608295316 138.14052271254153 60.729828113417284 L 138.14052271254153 60.729828113417284 L 145.73557628311994 57.75070722630239 Q 146.37525757207231 59.30096780071052 146.61237196104267 60.87220195466187 L 146.61237196104267 60.87220195466187 Q 146.90657966242335 62.3473093502261 146.86428595067156 64.03867307277257 L 146.86428595067156 64.03867307277257 Q 146.83713839224367 64.82877623696785 146.74089611630143 65.60384876539436 Q 146.6446538403592 66.37892129382087 146.47931684690263 67.1389631864786 L 146.47931684690263 67.1389631864786 Q 146.31397985344606 67.89900507913633 146.09306416291156 68.66504767434606 Q 145.87214847237703 69.43109026955578 145.49952732637743 70.14604025490718 L 145.49952732637743 70.14604025490718 Q 145.1960008978922 70.87602087602734 144.8098637314562 71.56993952305795 Q 144.42372656502025 72.26385817008857 144.02407337814788 72.9367454787984 L 144.02407337814788 72.9367454787984 Q 143.55532547376117 73.59460215173945 143.0385141901809 74.22391216847534 Q 142.52170290660064 74.85322218521122 141.92979620295404 75.41192286910038 L 141.92979620295404 75.41192286910038 Q 141.29582682266587 75.99765559386232 140.67688807814648 76.51429360110991 Q 140.05794933362708 77.0309316083575 139.34288383072058 77.49047630319477 Z" fill-opacity="1"/></g></g><g><g><path fill="rgb(244,244,245)" stroke="none" paint-order="stroke fill markers" d=" M 165.5165522328259 23.364991553883797 L 165.5165522328259 23.364991553883797 L 173.08275088690687 20.335942540252127 L 186.75992925520694 54.499882475243595 L 179.19373060112596 57.52893148887527 L 173.87895748518326 44.253270046745435 L 163.15630785884764 48.545971409622226 L 168.4710809747903 61.82163285175206 L 160.85846392405853 64.86926498816675 L 147.18128555575845 30.70532505317528 L 154.79390260649024 27.65769291676059 L 160.12725884521595 40.979772755541234 L 170.84990847155157 36.68707139266444 L 165.5165522328259 23.364991553883797 Z" fill-opacity="1"/></g></g><g><g><path fill="rgb(244,244,245)" stroke="none" paint-order="stroke fill markers" d=" M 222.32383740261596 46.561346718763495 L 222.32383740261596 46.561346718763495 L 200.08315240961568 50.84788740352679 L 198.54075476807833 42.845168520835735 L 220.78143976107862 38.55862783607243 L 222.32383740261596 46.561346718763495 Z" fill-opacity="1"/></g></g></g></g></svg>