<svg version="1.1" xmlns="http://www.w3.org/2000/svg" xmlns:xlink="http://www.w3.org/1999/xlink" width="500" height="500" viewBox="0 0 500 500"><defs/><g><g><g><g><path fill="rgb(244,244,245)" stroke="none" paint-order="stroke fill markers" d=" M 264.975 34.3 C 266.325 33.95 267.225 32.7 267.225 30.15 C 267.225 27.2 266.025 25.95 264.325 25.9 C 261.975 25.799999999999997 260.875 26.9 258.825 26.9 C 256.825 26.9 255.725 25.799999999999997 253.375 25.9 C 251.725 25.95 250.475 27.2 250.475 30.15 C 250.475 33.05 251.725 34.35 253.375 34.4 C 253.925 34.4 254.425 34 254.575 34.9 C 254.775 35.75 253.725 36.85 251.725 36.85 C 248.275 36.85 247.025 34.15 247.025 28.15 C 247.025 22.349999999999998 248.225 19.65 250.825 19.65 C 253.825 19.65 254.275 24.2 258.975 24.15 C 263.225 24.099999999999998 266.175 20.849999999999998 264.375 17.049999999999997 C 262.225 12.5 255.375 11.25 249.875 11.25 C 240.625 11.25 232.775 17.349999999999998 232.775 28.349999999999998 C 232.775 39.65 237.525 45.5 246.725 45.5 C 250.825 45.5 252.875 44.1 253.725 44.1 C 255.175 44.1 256.025 45.5 259.275 45.5 C 262.975 45.5 265.575 43.75 265.575 41.25 C 265.575 38.7 264.425 38.45 263.825 35.7 C 263.725 35 264.075 34.55 264.975 34.3 Z" fill-opacity="1"/></g></g><g><g><path fill="rgb(244,244,245)" stroke="none" paint-order="stroke fill markers" d=" M 291.4541239687657 38.21806915843314 C 291.69068802421623 36.99065828685475 292.32359080611786 36.34883738608793 293.1582301987912 36.50970094379428 C 295.4072036402774 36.99407524068636 296.8777686190456 38.346827488224896 299.20422618204896 38.693375042745586 C 300.83387109475046 38.95654316107713 302.75863905998364 37.95266653518517 303.3453179175009 34.90868757367078 C 303.93199677501815 31.86470861215639 302.5182071695581 30.217377755439042 300.90748738129264 29.85601676738123 C 298.6679765020245 29.322546035626015 296.7508874752363 30.022381490121138 294.4829889093141 29.636200062955332 C 293.64834951664074 29.475336505248983 293.32771128793377 28.49697505553234 293.6305132789104 26.925889139912012 C 293.895465021015 25.55118896374422 294.6851196697241 24.888659314768326 295.76524123671305 25.096835683564777 L 298.12187011014356 25.55103867002976 C 300.4294025487109 25.995779094276724 301.7503501557638 28.389019036159123 304.0768077187672 28.735566590679817 C 305.7159151936867 28.94963827414822 307.8317180270533 27.218777687527258 308.5319476311868 23.58564150765524 C 309.24163979753837 19.903408892920098 307.8449916927413 17.902940429942774 306.23427190447586 17.541579441884963 C 303.94566459034456 16.998646147911725 303.0672796341272 17.59315423758845 300.75974719555984 17.148413813341488 C 298.79588980103443 16.76991132462067 297.6666717991823 16.552272393606195 295.7028144046569 16.173769904885376 C 293.19889622663703 15.691179231766327 291.9188216726494 14.935263141030397 289.31671062490324 14.43374734347531 C 286.66550314229397 13.922768983702198 280.7473268958367 13.189495558662841 280.0187096050491 16.969921043124266 C 279.38471793644175 20.259382178954333 281.5567516997636 19.557763100686177 280.364468860293 25.743913893441228 L 278.7274455965755 34.23759712476364 C 277.5351627571049 40.423747917518696 275.77948173137594 38.9651238618089 275.14549006276854 42.254584997638965 C 274.416872771981 46.03501048210039 280.16472289851384 47.65201973467618 282.83485550555923 48.06480522472302 C 285.4067952428783 48.458665590333815 286.9062923516534 48.34030841575132 289.4102105296733 48.82289908887037 L 294.4671433205762 49.79754299732648 C 296.7746757591436 50.24228342157345 297.3691838488203 51.120668377790786 299.6956414118237 51.467215932311476 C 301.3252863245252 51.73038405064302 303.32575478750255 50.33373594584598 304.02598439163603 46.70059976597396 C 304.7356765579876 43.01836715123882 303.4638253857978 40.63458977157443 301.85310559753236 40.27322878351662 C 299.56449828340106 39.73029548954339 297.44869545003445 41.46115607616436 295.1411630114671 41.01641565191739 C 291.9989911802264 40.410811669964076 291.15132197778905 39.78915507405347 291.4541239687657 38.21806915843314 Z" fill-opacity="1"/></g></g><g><g><path fill="rgb(244,244,245)" stroke="none" paint-order="stroke fill markers" d=" M 328.2131808298687 33.780664961538974 C 329.345805472271 34.18024151168056 328.02648257529034 37.20668944506757 327.8034851018941 37.76371020487721 L 324.5886048604323 45.794092825466244 C 322.2471313897722 51.6428108034675 320.79922422496645 49.878281165829165 319.5541549985044 52.98831374143301 C 318.1232545442121 56.56253028354489 323.4983787633936 59.145269067930265 326.004972182537 60.14875769821315 C 328.4651472050296 61.13366320571302 334.13760138873937 62.973707643685536 335.5685018430316 59.39949110157366 C 336.8135710694937 56.28945852596981 334.5480065022352 56.56733834096684 336.8894799728953 50.71862036296558 L 340.1043602143571 42.68823774237656 C 340.3273576877533 42.13121698256691 341.41458860148 39.011853435264825 342.5750485177501 39.476431504840235 C 343.76334370788794 40.006011093849466 343.37254638515026 42.8656050252567 346.53832832910314 43.97141906176638 C 349.3141799770666 44.97498651266274 351.07863079409145 43.796337576677004 352.3051168977705 40.73272339772397 C 353.69885110649676 37.251343648913696 353.02178884442554 34.77211257995724 350.33885281037715 33.53645314580686 C 348.1943544133554 32.57020958170348 344.90790040223317 31.362227780193944 342.72623575964536 30.488821009392176 L 334.3709243625007 27.143858908449225 C 332.18925971991297 26.27045213764746 328.9307198032719 24.858213626751684 326.7118889151181 24.077643649251527 C 323.9174541443717 23.120494595005972 321.71657581409306 24.447572051415413 320.3228416053668 27.928951800225683 C 319.09635550168775 30.99256597917872 319.5599877239015 33.06320480874925 322.26150688073284 34.25244584624882 C 325.3622084846385 35.65535338544635 327.0063025169478 33.29750376918055 328.2131808298687 33.780664961538974 Z" fill-opacity="1"/></g></g><g><g><path fill="rgb(244,244,245)" stroke="none" paint-order="stroke fill markers" d=" M 361.90794497809475 63.61386190014099 C 358.5019078281245 68.91375915697743 357.41410566166326 66.90709863595194 355.60295892318703 69.7252979709364 C 353.52149177598295 72.96412407233645 358.3106939693463 76.51743834932972 360.58207850799045 77.97716855645983 C 362.81140036999307 79.40986672271717 368.03311521732087 82.2901781734455 370.1145823645249 79.05135207204545 C 371.9257291030012 76.23315273706099 369.64851713813766 76.0772499882641 373.0545542881079 70.77735273142765 L 377.73109735909884 63.500509672437936 C 381.1371345090691 58.2006124156015 382.2249366755303 60.20727293662699 384.03608341400655 57.38907360164254 C 386.1175505612106 54.150247500242486 381.3283483678473 50.59693322324921 379.0990265058447 49.16423505699188 C 376.82764196720046 47.70450484986176 371.6059271198727 44.82419339913343 369.52445997266864 48.06301950053348 C 367.7133132341924 50.88121883551793 369.9905251990559 51.03712158431483 366.5844880490857 56.33701884115127 Z" fill-opacity="1"/></g></g><g><g><path fill="rgb(244,244,245)" stroke="none" paint-order="stroke fill markers" d=" M 395.9331704706818 102.09403407443317 C 395.68657946609846 105.1059591857961 396.838656749122 107.44801339822183 398.24993812342683 108.79366747061195 C 399.7697796034475 110.24283339472439 403.4835478890394 113.23121508402238 406.14035208324555 110.44483903731786 C 408.4521167717106 108.02033000966588 406.2455617828702 107.43627942861724 410.5930595552075 102.87675498855529 L 416.5622430045278 96.61645555894643 C 420.9097407768651 92.05693111888449 421.7790554499711 94.40571633663481 424.0908201384362 91.98120730898283 C 426.7476243326423 89.19483126227831 424.0563463810044 86.07601369995963 422.3555713914575 84.45432802297667 C 420.6547964019106 82.8326423459937 416.9772148182239 79.8787646072698 414.32041062401777 82.66514065397433 C 412.5262051941643 84.5468491530475 413.0757367280677 85.34717102157653 411.32949725943746 87.75821803857933 C 410.8498074540623 88.4062131702116 410.3978905939366 88.73525899002118 410.07894128211393 88.70748604477166 C 409.6547973672378 88.71758255275854 409.39307669724525 88.122601636343 409.47303003033153 87.02437239591623 L 410.3154810684238 76.35934655213988 C 410.5065261825081 73.98532006442234 409.32835870556625 72.03290581629865 407.98945073507184 70.75625964505674 C 406.2524890436197 69.10007001749968 402.24922714278574 65.83565672360882 399.5924229485796 68.62203277031335 C 397.28065826011454 71.04654179796533 399.48721324895496 71.63059237901398 395.13971547661765 76.19011681907591 L 389.1705320272974 82.45041624868477 C 384.8230342549601 87.00994068874672 384.1346530913803 84.83367522386692 381.8228884029152 87.25818425151891 C 379.1660842087091 90.04456029822343 382.2916025832101 93.57742526743138 383.84763076513593 95.06109514211792 C 385.3674722451566 96.51026106623036 388.719373511696 99.1536032497873 391.37617770590214 96.36722720308278 C 393.5154226414967 94.12365168495707 392.0915130839226 93.73316279670387 395.32815343256397 90.0488502076926 C 395.81120874060144 89.54223638101905 396.1596137490048 89.32175066692524 396.47856306082747 89.34952361217475 C 396.7991951239813 89.44798720990363 396.9868596388322 89.90326957269158 396.90185805175247 90.78942685568029 Z" fill-opacity="1"/></g></g><g><g><path fill="rgb(244,244,245)" stroke="none" paint-order="stroke fill markers" d=" M 432.69411273199034 110.38995855214854 C 433.4309098210783 111.33844684913038 430.68480348835504 113.17117705551031 430.19605791712485 113.51921120125303 L 423.14997593188946 118.53670346904389 C 418.01814743397233 122.19106199934244 417.75406716208533 119.92384749471344 415.02523772271667 121.86703814177696 C 411.8891203073229 124.10025724362607 415.0146285384514 129.17900692215406 416.58078219429365 131.37836199268997 C 418.1179330046573 133.53698826562336 421.8951019974261 138.15169241649437 425.03121941281984 135.91847331464527 C 427.7600488521885 133.97528266758175 425.7039014857907 132.9841933640094 430.83572998370784 129.32983483371083 L 437.8818119689432 124.31234256591998 C 438.3705575401734 123.96430842017726 440.9716496455039 121.92793422578475 441.6967207824679 122.94615416584767 C 442.4100659673079 124.03410574899166 440.5352931382668 126.22846826222626 442.6006701781379 128.8702891651592 C 444.39329565657795 131.21528253275056 446.5148718641515 131.17767408346137 449.20297250591756 129.26348628187642 C 452.2576323261063 127.08827287098443 453.02842481797416 124.63656348068545 451.43944332754666 122.14655588570129 C 450.1577671852594 120.17429670742587 448.04611040655516 117.38128656620682 446.68297666906284 115.46703307888853 L 441.4624644829221 108.1358495104355 C 440.09933074542977 106.22159602311723 438.12158631165704 103.27184570238141 436.67699497895967 101.41559790602024 C 434.84364070291707 99.09960738390743 432.2746717913785 99.02613132285038 429.22001197118976 101.20134473374236 C 426.5319113294237 103.1155325353273 425.802471704821 105.10812326953732 427.43218199285104 107.56912801904292 C 429.28218909258555 110.42569479244975 431.9400387495478 109.33100981448311 432.69411273199034 110.38995855214854 Z" fill-opacity="1"/></g></g><g><g><path fill="rgb(244,244,245)" stroke="none" paint-order="stroke fill markers" d=" M 444.13207616097003 141.52714565186668 C 434.4899770102121 145.93054478968668 431.2113142745022 154.51863949488566 436.03012842532405 165.07037064099808 C 440.80740107484576 175.53113858757504 449.37472502939465 178.76431972351725 459.10778737968803 174.31937908439707 C 468.7044049306782 169.93675069722715 472.0038384170382 161.3941375917959 467.1850242662163 150.84240644568348 C 462.4077516166946 140.38163849910651 453.8196569114956 137.10297576339659 444.13207616097003 141.52714565186668 Z M 451.0236843435517 154.21043137196986 C 456.9187323376432 153.27720623977623 459.85353624836495 153.8058138500243 460.2306205350039 156.43693669792972 C 460.6739571720606 159.0927703949528 457.9747823918947 160.76518048405055 452.23694994775644 161.6815749640616 C 446.45363590385045 162.61874019472276 443.44863954424335 162.17715568554263 443.0092430056541 159.409588038334 C 442.5866771192475 156.79923594107865 445.17411794922793 155.12288575351337 451.0236843435517 154.21043137196986 Z" fill-opacity="1"/></g></g><g><g><path fill="rgb(244,244,245)" stroke="none" paint-order="stroke fill markers" d=" M 469.0975180449099 194.73805480658166 C 475.2199309253482 193.25277351287227 474.5753042841093 195.261369164915 477.8308730379932 194.47157673095842 C 481.5723475760388 193.56390482924715 480.605458324189 187.881684737183 479.96890919831355 185.25779350270943 C 479.34414801921355 182.68249284665205 477.55265772560307 176.99451758933074 473.8111831875574 177.90218949104204 C 470.55561443367355 178.69198192499863 472.0961250298483 180.37627023258534 465.97371214941 181.86155152629473 L 457.56754208341135 183.90086631845128 C 449.50150606632593 185.85766548317952 446.3660884202945 192.02059142667053 448.8769210834699 202.37038462931625 C 451.15199481113586 211.74836626363845 456.7628812800163 215.7894617875446 464.8289172971017 213.83266262281637 L 473.2350873631003 211.79334783065983 C 479.35750024353865 210.30806653695043 478.71287360229974 212.31666218899318 481.9684423561836 211.52686975503659 C 485.70991689422925 210.6191978533253 485.0023624714398 206.00597048641706 484.4247530794417 203.62503214402437 C 483.85893163421906 201.2926843800479 482.527171264852 197.49974168095747 478.78569672680635 198.40741358266877 C 475.53012797292246 199.19720601662536 477.07063856909724 200.88149432421207 470.9482256886589 202.36677561792146 L 463.51386719098383 204.17033147456857 C 460.1611172802676 204.9836998020761 457.94781015909894 204.13148410908272 457.38198871387635 201.7991363451062 C 456.79259137510275 199.36960742429736 458.4561813717671 197.3196151504099 461.6631595472348 196.54161066322877 Z" fill-opacity="1"/></g></g><g><g><path fill="rgb(244,244,245)" stroke="none" paint-order="stroke fill markers" d=" M 480.18306586455776 241.0122686848874 C 480.325811612029 244.0088707024364 474.80350974168397 244.72244063789054 475.0770881130147 249.41473803625948 C 475.32925462222477 253.65754513199607 479.7148074654326 256.40198064033507 483.4248559058453 254.42320814967542 C 487.8674011801069 252.05914565343392 488.79004923069306 245.15742698525065 488.52834869366245 239.6636566197441 C 488.08821597229286 230.42413373230127 481.6216071640601 222.8732748062395 470.63406643304705 223.39667588030065 C 459.346865500279 223.93435152910894 453.7818457736273 230.05607967089844 454.324279614018 241.44316733758473 C 454.72634680272864 249.88359635368116 458.14397819669466 254.37606735024616 460.80526886493254 255.6008252770015 C 462.546167065785 256.41891662536585 464.71988425407574 255.81480274096208 465.85191037894214 254.3592901671174 C 466.4654877125433 253.5792114174447 466.7199450942656 252.61601287047372 466.6676049868595 251.51725879737242 C 466.6128857836622 250.36856135731196 466.20142572437726 249.08668748691235 465.3951769210015 247.92373311676056 C 464.47952500054276 246.5657634703545 463.1667052402019 245.27676995723715 463.0596459295985 243.02931844407536 C 462.888351032633 239.43339602301654 465.5186781662739 237.90651057543622 471.511882201372 237.62101908049377 C 477.3053127686334 237.34504396871606 480.059352883416 238.41521360301158 480.18306586455776 241.0122686848874 Z" fill-opacity="1"/></g></g><g><g><path fill="rgb(244,244,245)" stroke="none" paint-order="stroke fill markers" d=" M 475.9726297738209 278.6508829375931 C 480.12956070841926 279.6021585049129 479.46355306024924 281.07234006260535 482.383526313798 281.49216883551156 C 486.1943388650396 282.0400809628637 487.437040729518 276.2075693189815 487.8141750509422 273.584542497997 C 488.19842511428004 270.9120246049185 488.6492698252537 264.9656610904176 484.83845727401217 264.4177489630655 C 481.52255544371104 263.94099425484995 482.3267293532335 266.07718346071243 476.0908542693836 265.18059997959074 L 467.5288987971135 263.9495766285268 C 461.29302371326366 263.0529931474051 462.66645697587927 261.22989658574386 459.35055514557814 260.7531418775284 C 455.53974259433653 260.2052297501762 454.2970407298581 266.03774139405846 453.91279066652027 268.710259287137 C 453.535656345096 271.33328610812146 453.0848116341224 277.27964962262234 456.89562418536394 277.82756174997445 C 459.81559743891273 278.24739052288066 459.5907657893899 276.64912561074226 463.79782603868546 276.90041042683174 C 464.9008611085818 276.9579746047442 465.5859821333816 277.81419255677355 465.4223200693673 278.95248721493664 L 464.8530607162742 282.9117729824604 C 464.6893986522599 284.0500676406234 463.7908053700502 284.6785818514155 462.70911752589484 284.47254445722086 C 458.6087934053042 283.4788935597207 459.2748010534742 282.00871200202823 456.3548277999255 281.588883229122 C 452.5440152486839 281.04097110176986 451.30131338420546 286.8734827456521 450.9170633208676 289.5460006387306 C 450.53992899944336 292.1690274597151 450.08908428846973 298.115390974216 453.8998968397113 298.6633031015681 C 457.2157986700124 299.1400578097836 456.41162476049 297.00386860392115 462.64749984433985 297.90045208504284 L 471.20945531660993 299.13147543610677 C 477.4453304004598 300.02805891722846 476.0718971378442 301.8511554788897 479.3877989681453 302.3279101871052 C 483.19861151938693 302.87582231445737 484.44131338386535 297.0433106705751 484.81844770528954 294.42028384959065 C 485.20269776862744 291.7477659565121 485.6535424796011 285.80140244201124 481.8427299283595 285.25349031465913 C 478.9227566748107 284.8336615417529 479.1475883243336 286.4319264538913 474.8839212610303 286.22301696798223 C 473.7880019330476 286.11596171797567 473.1028809082478 285.2597437659464 473.2665429722621 284.1214491077833 L 473.83580232535525 280.16216334025955 C 473.9994643893695 279.02386868209646 474.89805767157924 278.3953544713044 475.9726297738209 278.6508829375931 Z" fill-opacity="1"/></g></g><g><g><path fill="rgb(244,244,245)" stroke="none" paint-order="stroke fill markers" d=" M 435.0229836052492 314.063532238019 C 433.46941077949145 318.55228612691366 432.59175773922004 320.62947777452405 431.79225138265423 322.78662625940194 C 430.84737459615747 325.2109215917283 432.893669600998 326.02497119289814 434.4529209518772 326.5646333323719 C 435.9649222618207 327.08794207367976 438.1238809002604 327.72934490927247 438.87975752301423 325.2396359842826 C 439.53751375677285 323.0334273049071 440.1316665514298 320.8581152683015 441.6852393771876 316.3693613794068 C 443.25516560111123 311.8333574495764 444.13281864138264 309.756165801966 444.97957503888415 307.615370715254 C 445.9244518253809 305.19107538292764 443.8309067796047 304.360672383592 442.31890546966116 303.8373636422841 C 440.75965411878195 303.29770150281036 438.64794552127796 302.6726520653835 437.89206889852414 305.1623609903734 C 437.1870626238298 307.35221627158296 436.5929098291728 309.5275283081886 435.0229836052492 314.063532238019 Z" fill-opacity="1"/></g></g><g><g><path fill="rgb(244,244,245)" stroke="none" paint-order="stroke fill markers" d=" M 429.3141795963034 370.8187304216719 C 428.94228848762793 372.1628647167809 429.5748202423585 373.56728758018687 431.7831850220088 374.8422875801869 C 434.3379599631729 376.31728758018687 436.0204917179035 375.9030570956456 436.91379298809267 374.455813909212 C 438.17539552847114 372.47065421031857 437.77276758430827 370.96802626615573 438.79776758430825 369.19267418839763 C 439.79776758430825 367.46062338082874 441.30039552847114 367.05799543666586 442.3887929880927 364.9728357377724 C 443.1704917179035 363.5188938215281 442.7129599631729 361.8113620667975 440.1581850220088 360.33636206679756 C 437.64671135103396 358.8863620667976 435.8958783261142 359.3188938215281 435.02757705592495 360.7228357377724 C 434.752577055925 361.1991497098539 434.8489872174387 361.8321624117461 433.9945643540327 361.51206622231376 C 433.15844276081594 361.2602713030706 432.7308148166531 359.800944629097 433.7308148166531 358.0688938215281 C 435.45581481665306 355.08110617847177 438.4190834068711 355.34857442374124 443.6152358295777 358.34857442374124 C 448.63818317152743 361.2485744237412 450.37645176174544 363.63780490828253 449.07645176174543 365.8894709581221 C 447.57645176174543 368.4875471694754 443.41103617452626 366.6022586011784 441.10433744471544 370.6975779989653 C 439.0226387149047 374.40318596504915 440.3622212772041 378.5829609062132 444.55311781158497 378.92411517940127 C 449.56853339880416 379.3371605612647 454.0760651535347 374.0298865453413 456.8260651535347 369.2667468245269 C 461.4510651535347 361.2560118395208 460.09331019044964 351.407712419813 450.5670307488208 345.907712419813 C 440.7809436860567 340.257712419813 433.3396950739177 341.44633308778907 428.7396950739177 349.4137668026059 C 426.6896950739177 352.9644709581221 426.8771306392159 355.4398230358802 426.4521306392159 356.175944629097 C 425.7271306392159 357.4316814645844 424.0896950739177 357.4678030578012 422.4646950739177 360.2823856201006 C 420.6146950739177 363.486679614103 420.83023953054044 366.6133456639426 422.99530304000155 367.8633456639426 C 425.20366781965186 369.1383456639426 425.995174170598 368.2674164495905 428.67674403100517 369.1228012073198 C 429.3329618136543 369.38619866694137 429.5476732453573 369.91430755826593 429.3141795963034 370.8187304216719 Z" fill-opacity="1"/></g></g><g><g><path fill="rgb(244,244,245)" stroke="none" paint-order="stroke fill markers" d=" M 412.6814701869331 391.79128986936394 C 413.62615715487595 392.6098657867955 413.865538968669 393.47888612443165 413.3089073448155 394.12127326263277 C 411.7649401780236 395.82675424695026 409.85813987724464 396.42392475271 408.3947921099087 398.265422325837 C 407.3520593776167 399.5451521602188 407.25905805528794 401.7139884274472 409.60188173578615 403.74405670267754 C 411.9447054162843 405.77412497790795 414.0782305893696 405.37341269233184 415.196538279097 404.1591689313446 C 416.7782929246066 402.4864309837243 417.13076215593884 400.4762654579618 418.5991543652953 398.7052984002498 C 419.1557859891488 398.0629112620486 420.16339097304024 398.27441113542227 421.3725902920071 399.3221883097347 C 422.430639696103 400.23899333725814 422.609579878522 401.25411914774463 421.8892330711822 402.0854436795343 L 420.3175673097135 403.89924265798453 C 418.77864458494207 405.675254157717 416.0455641943939 405.62260837155185 414.5822164270579 407.4641059446789 C 413.5772711734836 408.77657881575794 414.0183389952233 411.474348112163 416.8146124203341 413.8973328277606 C 419.64867332416253 416.3530605800554 422.07945388496904 416.1437620726424 423.1977615746965 414.92951831165516 C 424.8122592569033 413.21899288531716 424.7365926265966 412.16103515409253 426.27551535136797 410.38502365436 C 427.58523681925857 408.8735245056515 428.3383266632956 408.0044124951441 429.6480481311862 406.49291334643556 C 431.3179430027467 404.5657519318322 432.61262281744723 403.8351328947089 434.3480037624022 401.83239652267014 C 436.1161277440545 399.7918726719136 439.71024928128725 395.03321841092765 436.80061342002335 392.51200458523834 C 434.2688523459366 390.3182211265216 433.79045540983566 392.55006708256997 429.02923309140385 388.4244444587147 L 422.4919992732395 382.75989911008793 C 417.7307769548077 378.63427648623264 419.8718229544879 377.84312414486396 417.3400618804012 375.64934068614724 C 414.43042601913726 373.1281268604579 410.1561298649857 377.29740646089306 408.4635808407689 379.4034163850441 C 406.83651788994655 381.4338513517597 406.18926965546757 382.7916325281515 404.5193747839071 384.71879394275487 L 401.1468420040889 388.6109042506793 C 399.60791927931746 390.3869157504118 398.5499615480928 390.4625823807185 397.0866137807568 392.30407995384553 C 396.0438810484648 393.58380978822737 396.2531795558778 396.0145903490338 399.0494529809885 398.4375750646314 C 401.88351388481703 400.8933028169262 404.58385123866793 400.98373608180907 405.70215892839536 399.7694923208218 C 407.3166566106022 398.05896689448383 406.8755887888625 395.3611975980788 408.41451151363395 393.5851860983463 C 410.51006586225884 391.16678746041265 411.4722708679663 390.7435126950515 412.6814701869331 391.79128986936394 Z" fill-opacity="1"/></g></g><g><g><path fill="rgb(244,244,245)" stroke="none" paint-order="stroke fill markers" d=" M 398.1448465177517 425.8442690286828 C 397.23249075337145 426.62536246688467 395.2711714083177 423.96957135561144 394.90027601658534 423.49793949876573 L 389.5532007857771 416.69858022924063 C 385.6587991725873 411.74644573236105 387.91088024691555 411.37478616413694 385.8400476430765 408.7415082967486 C 383.46013554612716 405.7152038819888 378.53585603791936 409.07882861210436 376.41351268211383 410.7478578749 C 374.33047198104543 412.38597918838457 369.9007196618141 416.3784463942943 372.28063175876343 419.404750809054 C 374.3514643626024 422.03802867644237 375.24359566724536 419.9370522997841 379.1379972804352 424.88918679666364 L 384.4850725112434 431.6885460661888 C 384.85596790297575 432.16017792303444 387.0138005217152 434.6614292877525 386.03123415328673 435.4341280205283 C 384.97845718081004 436.19843204787793 382.6973748530724 434.43019467295255 380.1568208336172 436.618935241003 C 377.899780102748 438.52110955982806 378.0382946149427 440.6384932590927 380.0782192694707 443.23246847174386 C 382.396315467798 446.18016757702935 384.88192368640154 446.8334299926101 387.29350416382584 445.1277689474707 C 389.2025448350935 443.7537006393266 391.89191476807116 441.5115388780802 393.73913954071674 440.05886526046174 L 400.8136173934018 434.4954343844763 C 402.66084216604736 433.0427607668579 405.5131465510063 430.92690167524904 407.2985554250298 429.3956227481563 C 409.52468820658794 427.4541457745941 409.475844581687 424.88459050172946 407.1577483833597 421.936891396444 C 405.11782372883175 419.3429161837928 403.09278178925433 418.7091140514577 400.71210926114105 420.4540777513342 C 397.9468048910825 422.4379103402728 399.1667155409174 425.04066234659604 398.1448465177517 425.8442690286828 Z" fill-opacity="1"/></g></g><g><g><path fill="rgb(244,244,245)" stroke="none" paint-order="stroke fill markers" d=" M 355.46115801870513 440.10819228627076 C 352.5743309318225 434.5085289597447 354.85605100303246 434.5697949098103 353.3209921552456 431.5921961568163 C 351.5568200465951 428.1701796794949 346.08495851840735 430.541093304311 343.6851028070391 431.778304912975 C 341.3296888681035 432.99260519555264 336.2244085572977 436.0745871792927 337.98858066594823 439.4966036566141 C 339.523639513735 442.47420240960815 340.7972612371447 440.5800303726329 343.6840883240274 446.1796936991589 L 347.6477477369695 453.868120330024 C 350.5345748238522 459.46778365655 348.2528547526422 459.40651770648446 349.787913600429 462.38411645947843 C 351.55208570907956 465.8061329367999 357.0239472372673 463.43521931198376 359.37936117620285 462.2209190294061 C 361.7792168875712 460.9837074207421 366.884497198377 457.901725437002 365.12032508972646 454.4797089596806 C 363.5852662419396 451.5021102066866 362.31164451852993 453.39628224366186 359.4248174316472 447.79661891713585 Z" fill-opacity="1"/></g></g><g><g><path fill="rgb(244,244,245)" stroke="none" paint-order="stroke fill markers" d=" M 305.12373862747563 450.3348158451989 C 302.6386304690307 448.6152992152035 300.03431338251795 448.44200030321196 298.16330208396965 448.99137878905276 C 296.1483668393792 449.58301715841975 291.70346823744694 451.30504399286235 292.78813858128643 454.99909194127815 C 293.7319426467052 458.2133934028867 295.34102278140864 456.59448601822794 297.11593788950967 462.6392917519993 L 299.552924506188 470.93890597376463 C 301.327839614289 476.983711707536 298.85907461113084 476.56216768945325 299.80287867654965 479.7764691510618 C 300.88754902038914 483.47051709947766 304.9341632349451 482.6992108058736 307.1889717229392 482.0371392972962 C 309.44378021093326 481.37506778871887 313.84070416418484 479.6671275821183 312.75603382034535 475.9730796337025 C 312.02352917255763 473.47839790230483 311.0556643362556 473.5541452365813 309.84075610412754 470.83633398715506 C 309.51942076129296 470.09691286394764 309.46041715239164 469.54101847277553 309.64394388442696 469.2786867388423 C 309.8472720094589 468.9063190797055 310.4934009328379 468.97715278900426 311.40451868768326 469.59550902678757 L 320.219476481365 475.65760594910824 C 322.1799211719434 477.01006911503293 324.45984524800014 476.9659532741505 326.23490724918696 476.4447480439938 C 328.53769038586177 475.7685899075744 333.36638617723986 473.9338700503952 332.28171583340037 470.2398221019794 C 331.33791176798155 467.02552064037087 329.72883163327816 468.64442802502964 327.95391652517714 462.5996222912583 L 325.51692990849875 454.30000806949295 C 323.7420148003978 448.2552023357216 325.97090656015234 448.7471794930147 325.0271024947335 445.5328780314061 C 323.94243215089404 441.8388300829903 319.32012215216935 442.7791759106992 317.25721225889816 443.3849009079083 C 315.2422770143077 443.9765392772753 311.27712489918264 445.5576998332972 312.3617952430222 449.251747781713 C 313.2351661692306 452.2261759999179 314.28529424514045 451.1882785944939 315.85768236838635 455.8334476538367 C 316.0548951581754 456.5050927353668 316.07163888355046 456.91706318049677 315.88811215151514 457.17939491443 C 315.64252414295703 457.4078386275246 315.1544057934622 457.3427196833804 314.4294718681852 456.826027508113 Z" fill-opacity="1"/></g></g><g><g><path fill="rgb(244,244,245)" stroke="none" paint-order="stroke fill markers" d=" M 279.55878615124266 478.0227634716874 C 278.3689726463201 478.1866043197811 278.1548348956736 474.89204137095953 278.0978012696911 474.2947582174157 L 277.27556649510996 465.6839260871585 C 276.6767134222936 459.41245297494805 278.77221891507435 460.31736000317005 278.45378117000536 456.98252906255027 C 278.08781540328425 453.1499621606439 272.1267350466527 453.3173568492745 269.4389608557054 453.5740081661958 C 266.8009602608867 453.8259066809519 260.9159247388985 454.789678907641 261.28189050561963 458.6222458095474 C 261.6003282506887 461.95707675016723 263.4867104482002 460.6719455487285 264.0855635210166 466.9434186609389 L 264.9077982955978 475.55425079119607 C 264.96483192158024 476.1515339447399 265.42783765287004 479.4223328827355 264.18349774965367 479.5411529368657 C 262.88463144814347 479.6149521970325 261.9216441810906 476.8941700441408 258.6010716469664 477.3619285775958 C 255.6739350797062 477.74189109760044 254.6457168484008 479.5980342140683 254.95940179130463 482.8830915585595 C 255.3158619536953 486.61611126820856 257.05370832245717 488.5094918423619 260.0046089005434 488.37839730300055 C 262.3534735229206 488.25456279349305 265.82811964759594 487.82231944967106 268.1674786656427 487.59893774790623 L 277.12672596880043 486.7434333581686 C 279.4660849868472 486.5200516564038 283.00951591631207 486.28214989493125 285.3393693300284 485.9592210009091 C 288.26175309512337 485.5294848847758 289.6098696863381 483.3414305763795 289.25340952394737 479.6084108667304 C 288.9397245810436 476.32335352223924 287.5788101981736 474.69534490970136 284.63266242225257 474.8762130451914 C 281.23379947900844 475.0500828040397 280.85289965058763 477.899190615392 279.55878615124266 478.0227634716874 Z" fill-opacity="1"/></g></g><g><g><path fill="rgb(244,244,245)" stroke="none" paint-order="stroke fill markers" d=" M 246.8742094060078 472.35973681888214 C 247.8818034650321 461.80773443960743 242.0836266480781 454.6742818674417 230.53615234623032 453.57163176511324 C 219.08822523663986 452.4784872671151 212.00454626060284 458.2814168862343 210.98744659724807 468.9329664577663 C 209.98460534038895 479.4351952409124 215.7330085612143 486.56389501091286 227.28048286306208 487.66654511324134 C 238.72840997265254 488.7596896112395 245.86186254481822 482.96151279428545 246.8742094060078 472.35973681888214 Z M 232.44435767765117 471.98640171787497 C 230.3050303525352 477.5582756033835 228.3798407780657 479.83558654007044 225.91267940798247 478.846589687715 C 223.39099163960537 477.90261362932296 223.29222940698432 474.72885465589604 225.36752472947603 469.30154875660827 C 227.44757285413294 463.82446926119184 229.33249443680418 461.44285833008234 231.9489765952734 462.4461135889335 C 234.42089076752183 463.3853368451603 234.57893220060197 466.4643014284951 232.44435767765117 471.98640171787497 Z" fill-opacity="1"/></g></g><g><g><path fill="rgb(244,244,245)" stroke="none" paint-order="stroke fill markers" d=" M 188.30948937758876 467.37498912972063 C 186.53457426948773 473.419794863492 185.11739272950723 471.85723399020145 184.17358866408844 475.07153545181 C 183.08891832024892 478.7655834002258 188.4933098957957 480.7693427915098 191.08394092455487 481.5300206949817 C 193.62659730463326 482.2766119706115 199.44827352037612 483.5691234943722 200.5329438642156 479.8750755459564 C 201.4767479296344 476.6607740843478 199.24785616987984 477.1527512416409 201.02277127798084 471.10794550786954 L 203.4597578946592 462.80833128610413 C 205.79813811644306 454.8445396051038 202.0285965107534 449.04772530042106 191.809996341759 446.0472735700599 C 182.5508891463791 443.3285543965401 176.24575452911654 446.1671768543878 173.90737430733267 454.13096853538815 L 171.47038769065432 462.43058275715356 C 169.6954725825533 468.47538849092484 168.2782910425728 466.9128276176344 167.334486977154 470.12712907924293 C 166.24981663331448 473.82117702765873 170.59876593788533 475.51503060641716 172.94952372324087 476.2052753706787 C 175.25230685991565 476.8814335070981 179.2029717771102 477.624566545018 180.28764212094973 473.9305185966022 C 181.23144618636852 470.71621713499366 179.00255442661393 471.20819429228675 180.77746953471495 465.1633885585154 L 182.93272359455187 457.8232673103645 C 183.90470091565481 454.51301655139446 185.74939491587517 453.02234420458217 188.05217805254995 453.6985023410016 C 190.4509104865862 454.4028337331051 191.3944608750024 456.8685410686419 190.46474343742568 460.0348678815697 Z" fill-opacity="1"/></g></g><g><g><path fill="rgb(244,244,245)" stroke="none" paint-order="stroke fill markers" d=" M 142.69207070899753 453.83824821724994 C 140.02556436303277 452.4635686520677 142.1687456067252 447.32432997725556 137.96830767196067 445.2151070975695 C 134.16784568909088 443.31208615266075 129.59831839821737 445.73786857034827 129.45696142323206 449.94025101434636 C 129.28302696398043 454.9696393274402 134.7987666351074 459.2195353120916 139.68736160270947 461.7397811815923 C 147.90908950276753 465.9783765075709 157.68162955724586 464.15355846633605 162.7221212962474 454.3763685311319 C 167.9000809917671 444.3325279613312 165.38101876924117 436.45221543459456 155.24829465457503 431.2284330869021 C 147.73763511344094 427.3564189783055 142.13822540766782 428.0699390879688 139.7469085954924 429.7623054501396 C 138.1679716047664 430.8609218432983 137.60429098129353 433.04547309120284 138.29878878333756 434.7535927600071 C 138.66756813070592 435.6750056929284 139.37449385040986 436.3769715231659 140.3522128439303 436.88102069706605 C 141.37437360988346 437.40798119705255 142.69023897573945 437.69258326826895 144.10051140542092 437.57582850785064 C 145.7343735770061 437.46183550691234 147.5070845848495 436.9693970004257 149.50696434432308 438.0004066743124 C 152.70677195948082 439.65002215253105 152.7139299789337 442.6913949943177 149.96457084856925 448.0244076862473 C 147.30685702255025 453.1796532884458 145.00304287550034 455.0296371737412 142.69207070899753 453.83824821724994 Z" fill-opacity="1"/></g></g><g><g><path fill="rgb(244,244,245)" stroke="none" paint-order="stroke fill markers" d=" M 112.20129264827982 431.3725964753082 C 109.29899837368228 434.49696648278785 108.35878762063022 433.18509616151164 106.53521861127945 435.50395279100286 C 104.1553065143301 438.5302572057626 108.58505883356146 442.5227244116723 110.66809953462985 444.16084572515695 C 112.79044289043537 445.82987498795256 117.7147223986432 449.19349971806804 120.09463449559253 446.1671953033083 C 122.16546709943157 443.53391743592 119.91338602510332 443.1622578676958 123.80778763829312 438.2101233708163 L 129.15486286910135 431.41076410129114 C 133.04926448229116 426.4586296044116 133.9413957869341 428.55960598106986 136.01222839077312 425.9263281136815 C 138.39214048772243 422.9000236989218 133.9623881684911 418.90755649301207 131.84004481268556 417.23852723021645 C 129.7570041116172 415.60040591673186 124.83272460340935 412.2367811866164 122.45281250646002 415.2630856013761 C 120.62924349710924 417.5819422308673 122.12579733775983 418.186364766875 119.80464817879326 421.7041434099719 C 119.20327860342488 422.63061771281104 118.1192115933913 422.7958409489398 117.21525053443709 422.0849581147861 L 114.07103815546594 419.6123221699037 C 113.16707709651175 418.90143933575 113.07206446443114 417.8089776202903 113.79134200401094 416.9752271653843 C 116.7020309840346 413.9210677619528 117.64224173708664 415.232938083229 119.46581074643743 412.91408145373777 C 121.84572284338675 409.8877770389781 117.41597052415541 405.8953098330683 115.29362716834989 404.2262805702727 C 113.2105864672815 402.5881592567881 108.28630695907367 399.22453452667264 105.90639486212433 402.25083894143233 C 103.83556225828531 404.8841168088207 106.08764333261355 405.2557763770448 102.19324171942374 410.2079108739244 L 96.84616648861551 417.0072701434495 C 92.9517648754257 421.95940464032907 92.05963357078278 419.8584282636708 89.98880096694376 422.4917061310591 C 87.60888886999443 425.51801054581887 92.03864118922579 429.51047775172856 94.12168189029416 431.1485990652132 C 96.2440252460997 432.8176283280088 101.16830475430751 436.1812530581243 103.54821685125685 433.15494864336455 C 105.37178586060763 430.8360920138733 103.87523201995704 430.2316694778657 106.1879864734975 426.6436802307206 C 106.82865870360303 425.7481138771925 107.9127257136366 425.5828906410637 108.8166867725908 426.2937734752174 L 111.96089915156196 428.7664094200998 C 112.86486021051616 429.47729225425354 112.95987284259677 430.5697539697132 112.20129264827982 431.3725964753082 Z" fill-opacity="1"/></g></g><g><g><path fill="rgb(244,244,245)" stroke="none" paint-order="stroke fill markers" d=" M 102.00786182308762 378.20283796712795 C 98.89727333684752 374.61302748894525 97.53719912162377 372.8143618365564 96.06880691226732 371.0433947788443 C 94.44174396144501 369.0129598121287 92.71360882447111 370.3780784693729 91.46662202678658 371.45859868038264 C 90.25742270781977 372.5063758546951 88.62247223891723 374.0553874635074 90.40068510461039 375.9548502834339 C 91.98243975011997 377.62758823105423 93.56923883765 379.2297956632595 96.67982732389011 382.81960614144225 C 99.82315884682747 386.44720409834264 101.18323306205123 388.2458697507315 102.61383779268995 390.04957984514084 C 104.24090074351227 392.0800148118565 106.00682335920388 390.682153117915 107.2160226781707 389.63437594360255 C 108.46300947585522 388.5538557325928 110.06017246604006 387.03758716047776 108.2819596003469 385.1381243405512 C 106.73799243355502 383.4326433562337 105.151193346025 381.8304359240284 102.00786182308762 378.20283796712795 Z" fill-opacity="1"/></g></g><g><g><path fill="rgb(244,244,245)" stroke="none" paint-order="stroke fill markers" d=" M 55.71082040369662 344.88126957832816 C 54.73271151237206 343.88713528321915 53.20017975764152 343.73271241981314 50.9918149779912 345.0077124198132 C 48.437040036827106 346.4827124198132 47.95450828209656 348.1469429043545 48.761207011907345 349.644186090788 C 49.84960447152889 351.7293457896815 51.35223241569178 352.13197373384435 52.37723241569178 353.90732581160245 C 53.37723241569178 355.63937661917134 52.97460447152889 357.14200456333424 54.23620701190735 359.12716426222767 C 55.10450828209657 360.531106178472 56.81204003682711 360.98863793320254 59.36681497799121 359.5136379332025 C 61.878288648966084 358.06363793320253 62.37912167388585 356.33110617847194 61.59742294407507 354.87716426222767 C 61.32242294407507 354.4008502901462 60.7260127825613 354.167837588254 61.43043564596729 353.5879337776863 C 62.066557239184064 352.98972869692943 63.54418518334695 353.3490553709031 64.54418518334694 355.08110617847194 C 66.26918518334695 358.06889382152826 64.55591659312897 360.50142557625884 59.35976417042234 363.50142557625884 C 54.33681682847259 366.4014255762588 51.398548238254605 366.7121950917175 50.09854823825461 364.460529041878 C 48.59854823825461 361.86245283052466 52.3139638254738 359.1977413988217 49.92066255528458 355.1524220010348 C 47.75236128509535 351.49681403495094 43.462778722795925 350.56703909378683 41.07188218841506 354.02588482059883 C 38.206466601195864 358.1628394387354 40.54893484646532 364.72011345465876 43.29893484646533 369.4832531754732 C 47.92393484646533 377.49398816047926 57.13168980955041 381.24228758018705 66.65796925117922 375.74228758018705 C 76.44405631394338 370.0922875801871 79.13530492608234 363.053666912211 74.53530492608235 355.08623319739417 C 72.48530492608234 351.53552904187796 70.24786936078412 350.46017696411985 69.82286936078413 349.7240553709031 C 69.09786936078412 348.4683185354156 69.88530492608234 347.0321969421989 68.26030492608234 344.21761437989943 C 66.41030492608233 341.01332038589703 63.594760469459565 339.63665433605746 61.429696959998466 340.88665433605746 C 59.22133218034815 342.1616543360575 59.57982582940204 343.2825835504096 57.49825596899484 345.17719879268026 C 56.94203818634573 345.6138013330587 56.37732675464273 345.53569244173417 55.71082040369662 344.88126957832816 Z" fill-opacity="1"/></g></g><g><g><path fill="rgb(244,244,245)" stroke="none" paint-order="stroke fill markers" d=" M 45.86440584430118 319.990640972203 C 44.683154820907845 320.39947592634974 43.81087022521314 320.17227648948045 43.532862456393325 319.369025793573 C 42.82785618169899 317.1791705123634 43.26409150370977 315.2292477590652 42.400981708042366 313.04120263141743 C 41.81406952763288 311.49830467870413 39.98230288472846 310.3333450373677 37.05280034671299 311.3472557236517 C 34.123297808697515 312.3611664099357 33.403562241072336 314.4092095522292 33.89597433961035 315.98481430127424 C 34.55373057336895 318.19102298064973 36.118350368824835 319.5013530519171 36.91785672539065 321.658501536795 C 37.195864494210454 322.46175223270245 36.50889773902596 323.22861380904544 34.9968964290825 323.7519225503533 C 33.67389528288196 324.2098176989977 32.7053004517539 323.8572215374871 32.34552569210474 322.81772063690096 L 31.560562580142925 320.5497186719858 C 30.791952866346982 318.3289667480063 32.2040856498423 315.98837259228907 31.34097585417489 313.8003274646413 C 30.70681363282968 312.27378291009387 28.149942977723384 311.3068742003098 24.65343994847911 312.51702566458425 C 21.109686878299108 313.7435305270246 20.075554422289656 315.95329749741484 20.567966520827667 317.5289022464599 C 21.242076152752148 319.78236096677114 22.196127739276214 320.24581060831906 22.964737453072154 322.46656253229855 C 23.618873379706997 324.3565641697279 23.99500153752203 325.4433151112497 24.649137464156876 327.33331674867907 C 25.4831607706163 329.7430688364015 25.468555509903357 331.2296039642607 26.335285612694527 333.7338561338546 C 27.218369113651566 336.28535834438424 29.542423822876092 341.7772860304095 33.180676974927565 340.51807437163745 C 36.3464297176217 339.4223966945241 34.652792890400725 337.8921698167439 40.60629804830313 335.83164164784415 L 48.780555130185014 333.00250376514845 C 54.73406028808743 330.9419755962487 54.34869531413614 333.1917519933272 57.514448056830275 332.09607431621384 C 61.15270120888175 330.83686265744177 59.67914723650043 325.05057380443077 58.70156365367192 322.5317783902329 C 57.756686867175155 320.1074830579065 56.904437992879025 318.8680590560972 56.070414686419596 316.4583069683748 L 54.38601467533488 311.59155275199424 C 53.61740496153894 309.3708008280148 54.08085460308687 308.4167492414907 53.217744807419464 306.228704113843 C 52.63083262700998 304.6858061611297 50.421065656619696 303.65167370512023 46.92456262737542 304.86182516939465 C 43.38080955719542 306.088330031835 41.95232337553423 308.38167414661655 42.444735474072246 309.9572788956616 C 43.11884510599671 312.2107376159728 45.67571576110301 313.1776463257569 46.444325474898946 315.3983982497364 C 47.490942957514704 318.4224008696233 47.376407154244646 319.46733223089507 45.86440584430118 319.990640972203 Z" fill-opacity="1"/></g></g><g><g><path fill="rgb(244,244,245)" stroke="none" paint-order="stroke fill markers" d=" M 23.64197265237964 290.3750660097782 C 23.42170377435765 289.1943960214347 26.702346016392056 288.823739199321 27.296238881520615 288.738350296357 L 35.85819435379069 287.5073269452931 C 42.09406943764056 286.6107434641714 41.28989552811811 288.74693267003386 44.60579735841923 288.2701779618184 C 48.41660990966082 287.7222658344662 47.965765198687144 281.7759023199654 47.58151513534928 279.10338442688686 C 47.20438081392507 276.4803576059024 45.96167894944665 270.64784596202014 42.15086639820506 271.1957580893723 C 38.83496456790394 271.6725127975878 40.20839783051953 273.49560935924904 33.972522746669654 274.39219284037074 L 25.410567274399586 275.62321619143466 C 24.816674409271027 275.70860509439865 21.57161087680494 276.3267172769826 21.393717328963334 275.08944047463143 C 21.258199111302112 273.79555685827256 23.930078761777427 272.7042003017907 23.30485083727978 269.4096456972306 C 22.786039920185495 266.50390392750916 20.883074590965922 265.56516916423027 17.616663832758842 266.03480813053216 C 13.904833425705341 266.56848877405696 12.09628746917302 268.39445742743266 12.36764302579708 271.3357779067224 C 12.603100751551196 273.67608977896987 13.200184829695793 277.1262333417258 13.534624699638016 279.45231373014605 L 14.815458244097584 288.3607067070744 C 15.149898114039804 290.6867870954946 15.556133645721868 294.21488469799925 15.989555659852186 296.5267336025921 C 16.557857649040514 299.4253596303999 18.80757960422002 300.66783744685506 22.519410011273518 300.13415680333026 C 25.785820769480598 299.6645178370284 27.34723048684429 298.22768113979305 27.026383858126188 295.29347640241696 C 26.69098662427916 291.90673627428083 23.82698194213491 291.6618338842234 23.64197265237964 290.3750660097782 Z" fill-opacity="1"/></g></g><g><g><path fill="rgb(244,244,245)" stroke="none" paint-order="stroke fill markers" d=" M 32.630897003200076 246.27794581358822 C 38.923761240053025 246.5777118832778 37.72984333530423 248.52310645423768 41.076048921567306 248.68250587224722 C 44.921688177421885 248.86569624816863 45.604347512246356 242.94146834635924 45.73281868497046 240.2445265305651 C 45.85891076190338 237.59752808173013 45.742476225381445 231.63523464726174 41.89683696952686 231.45204427134033 C 38.550631383263784 231.2926448533308 39.55422162471761 233.34271963910294 33.26135738786466 233.04295356941336 L 24.62115490393164 232.631369997538 C 18.32829066707869 232.33160392784842 19.52220857182748 230.38620935688851 16.176002985564406 230.22680993887897 C 12.330363729709823 230.04361956295756 11.64770439488536 235.96784746476698 11.521612317952439 238.61484591360193 C 11.393141145228334 241.31178772939606 11.50957568175027 247.27408116386445 15.355214937604853 247.45727153978586 C 18.701420523867927 247.6166709577954 17.697830282414102 245.56659617202325 23.990694519267052 245.86636224171284 Z" fill-opacity="1"/></g></g><g><g><path fill="rgb(244,244,245)" stroke="none" paint-order="stroke fill markers" d=" M 48.943090901842645 197.57115008036803 C 51.67479006487088 196.27874159900045 53.12702986836016 194.10998629856627 53.586759792603544 192.21495374033537 C 54.08185355717334 190.17414944685592 54.8129838735137 185.46374092311532 51.071509335468065 184.55606902140403 C 47.8159405815842 183.76627658744746 48.41341543572124 185.9692345531549 42.29100255528293 184.4839532594455 L 33.884832489284285 182.444638467289 C 27.762419608845974 180.9593571735796 29.361869938898078 179.032115973912 26.106301185014217 178.2423235399554 C 22.364826646968577 177.3346516382441 21.009490384050512 181.22477549416686 20.45545688560336 183.50853267972718 C 19.901423387156207 185.79228986528753 19.18208101759132 190.45410781061193 22.92355555563696 191.36177971232323 C 25.450265633278164 191.97475294464775 25.86859893567683 191.09868374184225 28.82974663643505 191.40544797426566 C 29.63077178464482 191.49687396584085 30.14169225367183 191.72372253720337 30.27711483345918 192.01382721638615 C 30.497930623303414 192.37609836753603 30.113522369916872 192.9002455746528 29.122451281985267 193.3801185772963 L 19.465042450211236 197.98304749875194 C 17.313552645548548 199.00461082054483 16.211796046433683 201.00114090955094 15.77564201574124 202.7989923109495 C 15.209820570518616 205.13134007492602 14.38438667997449 210.230473225996 18.125861218020127 211.1381451277073 C 21.381429971903987 211.9279375616639 20.783955117766947 209.72497959595643 26.90636799820526 211.21026088966582 L 35.3125380642039 213.24957568182236 C 41.43495094464221 214.73485697553176 39.89444034846746 216.41914528311847 43.150009102351326 217.20893771707503 C 46.89148364039696 218.11660961878633 48.38827526462069 213.64339882186945 48.89515697596595 211.55400394997383 C 49.39025074053575 209.5131996564944 50.0035015891214 205.28869691691557 46.26202705107576 204.3810250152043 C 43.24941118927278 203.65017231512508 43.623192670937 205.07855860880227 38.81416419904976 204.11770213847078 C 38.133896101223286 203.9526708836142 37.76874736744481 203.76118615257806 37.63332478765746 203.4710814733953 C 37.55828073306176 203.14417416257183 37.85873456770571 202.75401074392812 38.66867008006237 202.38454563620675 Z" fill-opacity="1"/></g></g><g><g><path fill="rgb(244,244,245)" stroke="none" paint-order="stroke fill markers" d=" M 37.74710111676701 161.5872779761641 C 38.20011753260155 160.4749488310886 41.160361615971276 161.93678157353025 41.706140813183985 162.1860305813314 L 49.57445757300057 165.77937044379772 C 55.30513914373404 168.39648502570958 53.4737139228403 169.75879250211656 56.52098110727793 171.15043279567288 C 60.02306428939283 172.74978059573013 62.858636414895855 167.5036362285715 63.98025695000095 165.04762984111431 C 65.08110673445594 162.63710505342482 67.18897326367536 157.0586286758647 63.68689008156047 155.45928087580742 C 60.63962289712283 154.0676405822511 60.80938806600903 156.3438610872622 55.07870649527556 153.72674650535035 L 47.210389735458975 150.13340664288404 C 46.664610538246265 149.8841576350829 43.60051270162607 148.64973289147986 44.119781467878425 147.51269289728668 C 44.705302584548605 146.35094205397593 47.54306268064258 146.87736169363305 48.79825817489572 143.76778225724513 C 49.93276926371583 141.0428263696491 48.83941128744769 139.22429170247037 45.83762570277777 137.85342215956416 C 42.42650572019833 136.2956158608071 39.91786685956865 136.85394467695272 38.5559477719099 139.47504681129826 C 37.48875929182002 141.5711404990812 36.12576994584887 144.7963939841222 35.149544665294435 146.93402917320532 L 31.410809548277463 155.120717131396 C 30.434584267723032 157.2583523204791 28.868897772030884 160.44600440268746 27.983635691011905 162.62518109307075 C 26.89460620195952 165.37090773131686 28.115458522283355 167.63243810077026 31.5265785048628 169.19024439952733 C 34.528364089532715 170.56111394243354 36.618718097005384 170.1965318207614 37.93515558489639 167.5546589357658 C 39.48401142840599 164.5242224035107 37.20706159986456 162.76979957012497 37.74710111676701 161.5872779761641 Z" fill-opacity="1"/></g></g><g><g><path fill="rgb(244,244,245)" stroke="none" paint-order="stroke fill markers" d=" M 58.99371443302221 136.11311752925127 C 67.62821952475578 142.26172077070598 76.7050590774197 140.80707863767265 83.4337192284456 131.35799759388877 C 90.10437368851437 121.9903741453099 88.6207287100025 112.95426339024849 79.9047660230639 106.74765445783666 C 71.31098972893285 100.62805406186052 62.26315302174749 102.04196739729133 55.53449287072159 111.49104844107524 C 48.86383841065282 120.85867188965409 50.318480543686135 129.93551144231802 58.99371443302221 136.11311752925127 Z M 66.53195797879712 123.80316691015524 C 62.77623730982161 119.16451815684032 61.766622973569326 116.35859960990531 63.85670005701363 114.71647361435535 C 65.93505118833399 113.00461597572432 68.73298820112102 114.50596486005347 72.39552532276755 119.01687627933019 C 76.09879124201659 123.55679054408547 77.21886601895247 126.37998598437508 75.04178039907248 128.1442983727326 C 72.99243211323069 129.81542721376113 70.24694985017013 128.4128128179916 66.53195797879712 123.80316691015524 Z" fill-opacity="1"/></g></g><g><g><path fill="rgb(244,244,245)" stroke="none" paint-order="stroke fill markers" d=" M 92.59299257750139 87.88695606369774 C 88.24549480516409 83.3274316236358 90.30730298638353 82.88139684488358 87.99553829791846 80.4568878172316 C 85.33873410371233 77.67051177052707 80.90123178001534 81.34897247130719 78.94714987713164 83.2121858023089 C 77.0292546761532 85.04089518273649 72.99906875402088 89.43635891629708 75.65587294822701 92.22273496300161 C 77.96763763669209 94.64724399065359 78.65601880027191 92.47097852577379 83.00351657260921 97.03050296583572 L 88.97270002192948 103.29080239544459 C 94.70035581723101 109.29779491171666 101.60531506895214 108.9316832729084 109.31308257477113 101.58234180062391 C 116.29711604248506 94.92307933982153 116.99136419086717 88.04336135806761 111.26370839556564 82.03636884179554 L 105.29452494624537 75.77606941218667 C 100.94702717390807 71.21654497212474 103.00883535512752 70.77051019337252 100.69707066666244 68.34600116572054 C 98.04026647245631 65.559625119016 94.39887159067489 68.4789989071658 92.62572319731747 70.16969248529698 C 90.88876150586529 71.82588211285405 88.26985695803786 74.87569177402452 90.926661152244 77.66206782072905 C 93.23842584070907 80.08657684838103 93.92680700428889 77.91031138350122 98.2743047766262 82.46983582356316 L 103.55340921446435 88.00640121506694 C 105.93418180407764 90.50328364652944 106.3027949250259 92.84617168633518 104.56583323357374 94.50236131389225 C 102.75649813831106 96.22755884259753 100.14935775323052 95.81184378094827 97.87209701533955 93.42352145520154 Z" fill-opacity="1"/></g></g><g><g><path fill="rgb(244,244,245)" stroke="none" paint-order="stroke fill markers" d=" M 127.12486342644452 55.1494830978627 C 129.64862402493807 53.5275606454959 133.02774465159067 57.95322938485394 136.95460421502443 55.37015486617106 C 140.50289968868418 53.030368715343215 140.68687413634987 47.86015078931668 137.11818267092247 45.636540835978266 C 132.84957185591247 42.971215019125935 126.41118413419937 45.62303770265781 121.78428970362788 48.5965621986636 C 114.00269452493944 53.597489760127885 110.69676327869382 62.97316672742453 116.64381227070541 72.22695558856752 C 122.75305350795367 81.73312050955985 130.83713545713132 83.49170489450702 140.4274257314068 77.3283995755132 C 147.53601808383027 72.75998466801339 149.71779639563735 67.55399356178508 149.44782253957487 64.63686927285895 C 149.28586132944844 62.72016153133591 147.67582476463053 61.13972416783511 145.84930083772016 60.887117072875526 C 144.86694415675063 60.74578288962696 143.9055610553243 61.007015606360426 142.98018216921002 61.60172050556159 C 142.01274060645417 62.223457445635525 141.1083352998831 63.22072924481871 140.50431167357738 64.50043837538882 C 139.78610142245097 65.97240102273315 139.3262101749484 67.75383304233719 137.43338972607822 68.97027488161228 C 134.40487700788597 70.91658182445244 131.7673918547922 69.4020944302461 128.52354695005863 64.354573233259 C 125.38783020881615 59.47530274283815 124.93760424108345 56.555149223247255 127.12486342644452 55.1494830978627 Z" fill-opacity="1"/></g></g><g><g><path fill="rgb(244,244,245)" stroke="none" paint-order="stroke fill markers" d=" M 161.82607757789918 39.976520587098776 C 160.57144091789843 35.90087501229935 162.1776593191205 35.74256377588307 161.08125507492252 33.00387837348566 C 159.65035462063025 29.42966183137378 153.9779004369205 31.269706269346305 151.5177254144279 32.254611776846176 C 149.0111319952845 33.258100407129064 143.636007776103 35.84083919151444 145.06690823039526 39.41505573362632 C 146.31197745685736 42.525088309230156 147.75988462166316 40.760558671591824 150.1013580923232 46.609276649593085 L 153.31623833378507 54.63965927018211 C 155.6577118044451 60.48837724818336 153.3921472371866 60.21049743318634 154.6372164636487 63.320530008790186 C 156.06811691794098 66.89474655090206 161.74057110165074 65.05470211292953 164.24716452079414 64.05121348264666 C 166.70733954328674 63.066307975146785 172.08246376246822 60.4835691907614 170.65156330817595 56.909352648649524 C 169.555159063978 54.17066724625211 168.28343687285025 55.16450962238285 166.39752578252123 51.39544616319646 C 165.89586028799326 50.41140768244482 166.29480627322704 49.38996649428671 167.36242939619552 48.962554670277335 L 171.07590112825983 47.47590484763602 C 172.1435242512283 47.04849302362665 173.1371301655186 47.512440528294256 173.4995404700942 48.552228377394954 C 174.68917561066112 52.60003867832659 173.08295720943906 52.758349914742865 174.17936145363703 55.49703531714027 C 175.6102619079293 59.07125185925216 181.28271609163906 57.231207421279635 183.78930951078246 56.22771879099675 C 186.24948453327505 55.24281328349688 191.62460875245657 52.660074499111495 190.1937082981643 49.08585795699962 C 188.9486390717022 45.97582538139577 187.50073190689642 47.74035501903411 185.15925843623634 41.89163704103285 L 181.94437819477452 33.86125442044383 C 179.60290472411444 28.01253644244257 181.86846929137295 28.290416257439592 180.62340006491084 25.180383681835757 C 179.19249961061857 21.606167139723873 173.5200454269088 23.446211577696403 171.05987040441622 24.43111708519627 C 168.55327698527282 25.434605715479158 163.17815276609133 28.017344499864535 164.6090532203836 31.591561041976416 C 165.70545746458157 34.33024644437383 166.97717965570934 33.336404068243084 168.92809226547215 37.13330280129726 C 169.3833393633493 38.135924404831925 168.98439337811553 39.15736559299003 167.91677025514704 39.5847774169994 L 164.20329852308274 41.07142723964071 C 163.13567540011425 41.498839063650095 162.14206948582395 41.03489155898248 161.82607757789918 39.976520587098776 Z" fill-opacity="1"/></g></g><g><g><path fill="rgb(244,244,245)" stroke="none" paint-order="stroke fill markers" d=" M 212.96915457166315 57.73362979485303 C 217.63331588366103 56.83468638414109 219.87104313915617 56.556160388919565 222.13894170507842 56.169978961753756 C 224.7108814423975 55.77611859614296 224.39272157453087 53.59695033772896 224.0804570213362 51.976767987245495 C 223.77765503035954 50.405682071625165 223.25364686082233 48.215267627220115 220.71955737237533 48.80551373228346 C 218.48004649310715 49.338984464038674 216.29909461092012 49.912089068439 211.63493329892228 50.81103247915095 C 206.9216755520613 51.71943845208092 204.68394829656614 51.997964447302444 202.40658716842586 52.335049439605115 C 199.8346474311068 52.72890980521591 200.16226986119145 54.957174498493046 200.4650718521681 56.528260414113376 C 200.77733640536277 58.14844276459684 201.29188201268195 60.289760774138756 203.82597150112895 59.69951466907541 C 206.07494494261516 59.215140372183335 208.25589682480216 58.64203576778301 212.96915457166315 57.73362979485303 Z" fill-opacity="1"/></g></g></g></g></svg>