<svg version="1.1" xmlns="http://www.w3.org/2000/svg" xmlns:xlink="http://www.w3.org/1999/xlink" width="500" height="500" viewBox="0 0 500 500"><defs/><g><g><g><g><path fill="rgb(244,244,245)" stroke="none" paint-order="stroke fill markers" d=" M 245 15 L 265 15 L 265 5 L 235 5 L 235 45 L 265 45 L 265 25 L 255 25 L 255 35 L 245 35 L 245 15 Z" fill-opacity="1"/></g></g><g><g><path fill="rgb(244,244,245)" stroke="none" paint-order="stroke fill markers" d=" M 307.3104604400329 31.904811781297134 L 311.0954853272411 12.266237836042997 L 281.6376244093599 6.5887005052306975 L 274.06757463494347 45.865848395738965 L 303.5254355528247 51.543385726551264 L 305.4179479964288 41.7240987539242 L 285.77937405117467 37.939073866716 L 289.56439893838285 18.30049992146186 L 299.38368591100993 20.193012365065965 L 297.4911734674058 30.012299337693033 L 307.3104604400329 31.904811781297134 Z" fill-opacity="1"/></g></g><g><g><path fill="rgb(244,244,245)" stroke="none" paint-order="stroke fill markers" d=" M 354.98282063202134 28.12479324596712 L 327.1317826415392 16.974919576157298 L 323.4151580849359 26.258598906318028 L 332.6988374150966 29.9752234629213 L 321.5489637452868 57.826261453403475 L 330.8326430754475 61.542886010006754 L 341.9825167452573 33.69184801952458 L 351.26619607541807 37.40847257612785 L 354.98282063202134 28.12479324596712 Z" fill-opacity="1"/></g></g><g><g><path fill="rgb(244,244,245)" stroke="none" paint-order="stroke fill markers" d=" M 365.0376352425534 80.24622985688583 L 386.6632679407773 46.596088543638594 L 378.25073261246547 41.189680369082616 L 356.62509991424156 74.83982168232987 L 365.0376352425534 80.24622985688583 Z" fill-opacity="1"/></g></g><g><g><path fill="rgb(244,244,245)" stroke="none" paint-order="stroke fill markers" d=" M 415.78723788882166 83.37289610271907 L 395.0848675443583 105.08491724587117 L 402.32220792540903 111.98570736069229 L 429.9253683846935 83.03634583648949 L 408.2133472415414 62.33397549202612 L 380.6101867822569 91.28333701622893 L 387.84752716330763 98.18412713105005 L 408.549897507771 76.47210598789795 L 415.78723788882166 83.37289610271907 Z" fill-opacity="1"/></g></g><g><g><path fill="rgb(244,244,245)" stroke="none" paint-order="stroke fill markers" d=" M 458.2719618959002 120.10469643581146 L 440.87025460876424 95.66741787430139 L 432.7244950882609 101.46798697001338 L 438.52506418397286 109.61374649051673 L 414.0877856224628 127.01545377765268 L 419.8883547181748 135.16121329815604 L 444.32563327968484 117.7595060110201 L 450.1262023753968 125.90526553152344 L 458.2719618959002 120.10469643581146 Z" fill-opacity="1"/></g></g><g><g><path fill="rgb(244,244,245)" stroke="none" paint-order="stroke fill markers" d=" M 479.09106405688533 161.8678017448556 L 466.6286136668287 134.57884188422005 L 430.243333852648 151.1954424042955 L 442.70578424270457 178.48440226493105 L 479.09106405688533 161.8678017448556 Z M 443.49380393621203 156.13761222782182 L 461.6864438433024 147.8293119677841 L 465.84059397332123 156.92563192132928 L 447.6479540662309 165.233932181367 L 443.49380393621203 156.13761222782182 Z" fill-opacity="1"/></g></g><g><g><path fill="rgb(244,244,245)" stroke="none" paint-order="stroke fill markers" d=" M 452.75775553896744 216.24659174542055 L 491.6302182719091 206.81623432504347 L 489.2726289168148 197.09811864180804 L 460.1182818671086 204.17088670709086 L 457.7606925120143 194.45277102385543 L 486.91503956172056 187.38000295857262 L 484.5574502066263 177.66188727533722 L 445.6849874736846 187.0922446957143 L 452.75775553896744 216.24659174542055 Z" fill-opacity="1"/></g></g><g><g><path fill="rgb(244,244,245)" stroke="none" paint-order="stroke fill markers" d=" M 464.51856834522795 234.77555140198035 L 484.49591512888816 233.8239130855055 L 485.447553445363 253.80125986916568 L 495.4362268371931 253.32544071092823 L 494.0087693624808 223.359420535438 L 454.0540757951605 225.2626971683877 L 455.4815332698727 255.22871734387795 L 465.47020666170283 254.7528981856405 L 464.51856834522795 234.77555140198035 Z" fill-opacity="1"/></g></g><g><g><path fill="rgb(244,244,245)" stroke="none" paint-order="stroke fill markers" d=" M 450.77867301149195 294.0218634742374 L 490.3715306867293 299.7144570051688 L 491.7946790694621 289.8162425863595 L 481.8964646506528 288.3930942036267 L 483.3196130333856 278.49487978481733 L 493.21782745219497 279.9180281675502 L 494.6409758349278 270.01981374874083 L 455.0481181596905 264.32722021780944 L 453.62496977695764 274.2254346366188 L 473.4213986145763 277.0717314020845 L 471.99825023184343 286.96994582089377 L 452.2018213942248 284.1236490554281 L 450.77867301149195 294.0218634742374 Z" fill-opacity="1"/></g></g><g><g><path fill="rgb(244,244,245)" stroke="none" paint-order="stroke fill markers" d=" M 449.90449639047955 329.7696203003923 L 456.445855656828 310.86960392609893 L 446.9958474696813 307.5989242929247 L 440.45448820333286 326.4989406672181 L 449.90449639047955 329.7696203003923 Z" fill-opacity="1"/></g></g><g><g><path fill="rgb(244,244,245)" stroke="none" paint-order="stroke fill markers" d=" M 456.01596988934307 363.16987298107773 L 446.01596988934307 380.4903810567665 L 454.67622392718744 385.4903810567665 L 469.67622392718744 359.50961894323336 L 435.0352077758099 339.50961894323336 L 420.0352077758099 365.4903810567665 L 437.3557158514987 375.4903810567665 L 442.3557158514987 366.83012701892216 L 433.6954618136543 361.83012701892216 L 438.6954618136543 353.16987298107773 L 456.01596988934307 363.16987298107773 Z" fill-opacity="1"/></g></g><g><g><path fill="rgb(244,244,245)" stroke="none" paint-order="stroke fill markers" d=" M 410.2207432205288 408.679908753003 L 425.335734707614 421.7771234319087 L 444.9815567259725 399.104636201281 L 414.7515737518022 372.91020684346955 L 395.10575173344364 395.58269407409733 L 402.6632474769862 402.13130141355015 L 415.7604621558919 387.016309926465 L 430.8754536429771 400.1135246053707 L 424.32684630352423 407.67102034891326 L 416.76935055998166 401.12241300946044 L 410.2207432205288 408.679908753003 Z" fill-opacity="1"/></g></g><g><g><path fill="rgb(244,244,245)" stroke="none" paint-order="stroke fill markers" d=" M 389.6581552029065 451.85539300529194 L 413.23974804519014 433.3106234186738 L 407.0581581829841 425.4500924712459 L 399.19762723555624 431.631682333452 L 380.65285764893804 408.05008949116836 L 372.7923267015102 414.2316793533744 L 391.33709628812835 437.813272195658 L 383.47656534070046 443.99486205786405 L 389.6581552029065 451.85539300529194 Z" fill-opacity="1"/></g></g><g><g><path fill="rgb(244,244,245)" stroke="none" paint-order="stroke fill markers" d=" M 339.4922597108445 434.5023995828963 L 357.82132057994096 470.05581752909325 L 366.70967506649015 465.47355231181916 L 348.38061419739375 429.92013436562223 L 339.4922597108445 434.5023995828963 Z" fill-opacity="1"/></g></g><g><g><path fill="rgb(244,244,245)" stroke="none" paint-order="stroke fill markers" d=" M 311.40968598966356 476.88951158361397 L 302.9577092844207 448.10472237517905 L 293.3627795482757 450.9220479435934 L 304.6320818219329 489.30176688817323 L 333.4168710303678 480.84979018293035 L 322.14756875671065 442.47007123835044 L 312.55263902056566 445.2873968067648 L 321.00461572580855 474.0721860151997 L 311.40968598966356 476.88951158361397 Z" fill-opacity="1"/></g></g><g><g><path fill="rgb(244,244,245)" stroke="none" paint-order="stroke fill markers" d=" M 258.3566517709285 495.3164616799685 L 288.2208094481211 492.464780380843 L 287.27024901507923 482.51006115511217 L 277.3155297893484 483.46062158815397 L 274.4638484902229 453.59646391096146 L 264.50912926449206 454.54702434400326 L 267.3608105636176 484.4111820211958 L 257.4060913378867 485.3617424542376 L 258.3566517709285 495.3164616799685 Z" fill-opacity="1"/></g></g><g><g><path fill="rgb(244,244,245)" stroke="none" paint-order="stroke fill markers" d=" M 211.779190551879 492.464780380843 L 241.64334822907153 495.3164616799685 L 245.44558996123885 455.4975847770451 L 215.5814322840463 452.6459034779196 L 211.779190551879 492.464780380843 Z M 234.54031030246617 464.5017435697341 L 232.6391894363825 484.4111820211958 L 222.68447021065168 483.46062158815397 L 224.5855910767353 463.5511831366923 L 234.54031030246617 464.5017435697341 Z" fill-opacity="1"/></g></g><g><g><path fill="rgb(244,244,245)" stroke="none" paint-order="stroke fill markers" d=" M 177.85243124328952 442.47007123835056 L 166.58312896963233 480.8497901829304 L 176.17805870577732 483.66711575134474 L 184.6300354110202 454.8823265429098 L 194.22496514716516 457.6996521113241 L 185.77298844192228 486.484441319759 L 195.36791817806727 489.3017668881733 L 206.63722045172443 450.9220479435934 L 177.85243124328952 442.47007123835056 Z" fill-opacity="1"/></g></g><g><g><path fill="rgb(244,244,245)" stroke="none" paint-order="stroke fill markers" d=" M 155.92547507188138 443.39075406944556 L 146.76094463733318 461.16746304254406 L 128.98423566423472 452.00293260799583 L 124.4019704469606 460.8912870945451 L 151.06703390660832 474.6380827463674 L 169.3960947757047 439.0846648001704 L 142.73103131605703 425.33786914834815 L 138.14876609878291 434.22622363489734 L 155.92547507188138 443.39075406944556 Z" fill-opacity="1"/></g></g><g><g><path fill="rgb(244,244,245)" stroke="none" paint-order="stroke fill markers" d=" M 111.48661140363417 401.8684996289624 L 86.76025195480997 433.3106234186739 L 94.62078290223786 439.49221328088 L 100.8023727644439 431.6316823334521 L 108.66290371187178 437.81327219565816 L 102.48131384966572 445.67380314308605 L 110.34184479709361 451.85539300529206 L 135.0682042459178 420.41326921558056 L 127.20767329848994 414.2316793533745 L 114.84449357407783 429.95274124823027 L 106.98396262664996 423.7711513860242 L 119.34714235106205 408.0500894911685 L 111.48661140363417 401.8684996289624 Z" fill-opacity="1"/></g></g><g><g><path fill="rgb(244,244,245)" stroke="none" paint-order="stroke fill markers" d=" M 80.96523417438165 383.23756205469374 L 94.06244885328735 398.3525535417789 L 101.61994459682994 391.803946202326 L 88.52272991792422 376.68895471524087 L 80.96523417438165 383.23756205469374 Z" fill-opacity="1"/></g></g><g><g><path fill="rgb(244,244,245)" stroke="none" paint-order="stroke fill markers" d=" M 48.984030110656974 371.8301270189223 L 38.98403011065696 354.50961894323353 L 30.323776072812578 359.50961894323353 L 45.32377607281259 385.4903810567667 L 79.96479222419012 365.4903810567667 L 64.96479222419012 339.50961894323353 L 47.64428414850134 349.50961894323353 L 52.64428414850135 358.16987298107796 L 61.30453818634574 353.1698729810779 L 66.30453818634574 361.8301270189223 L 48.984030110656974 371.8301270189223 Z" fill-opacity="1"/></g></g><g><g><path fill="rgb(244,244,245)" stroke="none" paint-order="stroke fill markers" d=" M 32.4687963394383 309.4152794656999 L 13.568779965144927 315.9566387320483 L 23.38081886466759 344.3066632934884 L 61.18085161325432 331.2239447607915 L 51.36881271373166 302.87392019935146 L 41.91880452658498 306.14459983252567 L 48.460163792933415 325.04461620681906 L 29.560147418640046 331.5859754731675 L 26.289467785465828 322.1359672860208 L 35.73947597261251 318.8652876528466 L 32.4687963394383 309.4152794656999 Z" fill-opacity="1"/></g></g><g><g><path fill="rgb(244,244,245)" stroke="none" paint-order="stroke fill markers" d=" M 5.359024165072228 270.0198137487409 L 9.628469313270784 299.71445700516887 L 19.52668373208011 298.291308622436 L 18.103535349347258 288.39309420362673 L 47.798178605775234 284.12364905542813 L 46.37503022304239 274.22543463661884 L 16.680386966614403 278.4948797848174 L 15.257238583881552 268.59666536600804 L 5.359024165072228 270.0198137487409 Z" fill-opacity="1"/></g></g><g><g><path fill="rgb(244,244,245)" stroke="none" paint-order="stroke fill markers" d=" M 45.47010504660208 235.25137056021777 L 5.5154114792817595 233.34809392726808 L 5.039592321044331 243.33676731909816 L 44.99428588836465 245.24004395204787 L 45.47010504660208 235.25137056021777 Z" fill-opacity="1"/></g></g><g><g><path fill="rgb(244,244,245)" stroke="none" paint-order="stroke fill markers" d=" M 22.8030761215148 189.73759231366702 L 51.95742317122105 196.81036037894984 L 54.31501252631532 187.0922446957144 L 15.442549793373644 177.66188727533734 L 8.369781728090842 206.8162343250436 L 47.24224446103252 216.24659174542066 L 49.59983381612679 206.52847606218523 L 20.44548676642053 199.45570799690245 L 22.8030761215148 189.73759231366702 Z" fill-opacity="1"/></g></g><g><g><path fill="rgb(244,244,245)" stroke="none" paint-order="stroke fill markers" d=" M 33.371386333171245 134.57884188422014 L 20.908935943114656 161.8678017448557 L 30.005255896659847 166.02195187487456 L 34.1594060266787 156.92563192132937 L 61.44836588731426 169.38808231138594 L 65.60251601733312 160.29176235784078 L 38.313556156697565 147.82931196778418 L 42.46770628671642 138.73299201423902 L 33.371386333171245 134.57884188422014 Z" fill-opacity="1"/></g></g><g><g><path fill="rgb(244,244,245)" stroke="none" paint-order="stroke fill markers" d=" M 59.12974539123569 95.66741787430146 L 41.72803810409975 120.10469643581155 L 74.31107618611318 143.30697281865946 L 91.71278347324912 118.86969425714938 L 59.12974539123569 95.66741787430146 Z M 71.9658857613218 129.36064420244412 L 55.674366720315085 117.75950601102016 L 61.47493581602706 109.6137464905168 L 77.76645485703378 121.21488468194076 L 71.9658857613218 129.36064420244412 Z" fill-opacity="1"/></g></g><g><g><path fill="rgb(244,244,245)" stroke="none" paint-order="stroke fill markers" d=" M 119.38981321774308 91.28333701622896 L 91.7866527584586 62.333975492026156 L 84.5493123774079 69.23476560684728 L 105.25168272187126 90.94678674999938 L 98.01434234082056 97.8475768648205 L 77.3119719963572 76.1355557216684 L 70.0746316153065 83.03634583648952 L 97.67779207459098 111.98570736069232 L 119.38981321774308 91.28333701622896 Z" fill-opacity="1"/></g></g><g><g><path fill="rgb(244,244,245)" stroke="none" paint-order="stroke fill markers" d=" M 129.55595658289047 71.83369452857411 L 118.7431402337785 55.008623871950505 L 135.56821089040213 44.195807522838535 L 130.16180271584614 35.78327219452673 L 104.92419673091072 52.00249671819468 L 126.54982942913465 85.65263803144191 L 151.78743541407007 69.43341350777396 L 146.38102723951408 61.02087817946216 L 129.55595658289047 71.83369452857411 Z" fill-opacity="1"/></g></g><g><g><path fill="rgb(244,244,245)" stroke="none" paint-order="stroke fill markers" d=" M 187.7347155848738 54.109636896800254 L 172.8682173584607 16.97491957615736 L 163.58453802829996 20.69154413276064 L 167.30116258490324 29.975223462921363 L 158.01748325474253 33.69184801952464 L 154.30085869813925 24.40816868936392 L 145.01717936797854 28.1247932459672 L 159.88367759439166 65.25951056661009 L 169.16735692455237 61.54288601000681 L 161.7341078113458 42.975527349685365 L 171.01778714150655 39.258902793082086 L 178.4510362547131 57.82626145340353 L 187.7347155848738 54.109636896800254 Z" fill-opacity="1"/></g></g><g><g><path fill="rgb(244,244,245)" stroke="none" paint-order="stroke fill markers" d=" M 219.13026943513879 36.99281764491397 L 199.49169548988465 40.777842532122186 L 201.38420793348877 50.59712950474925 L 221.02278187874288 46.81210461754104 L 219.13026943513879 36.99281764491397 Z" fill-opacity="1"/></g></g></g></g></svg>