<svg version="1.1" xmlns="http://www.w3.org/2000/svg" xmlns:xlink="http://www.w3.org/1999/xlink" width="500" height="500" viewBox="0 0 500 500"><defs/><g><g><g><g><path fill="rgb(244,244,245)" stroke="none" paint-order="stroke fill markers" d=" M 256.25 45 L 237.5 45 L 237.5 13.75 L 256.25 13.75 L 256.25 20 L 243.75 20 L 243.75 38.75 L 250 38.75 L 250 32.5 L 246.875 32.5 L 246.875 26.25 L 256.25 26.25 L 256.25 45 Z" fill-opacity="1"/></g></g><g><g><path fill="rgb(244,244,245)" stroke="none" paint-order="stroke fill markers" d=" M 294.93355945177603 49.887437338397675 L 276.52239637810027 46.33897650663999 L 282.4364977643631 15.653704717180403 L 300.84766083803885 19.202165548938094 L 299.6648405607863 25.33921990683001 L 287.39073184500245 22.973579352324883 L 286.2079115677499 29.1106337102168 L 298.4820202835337 31.476274264721926 L 297.2992000062811 37.61332862261384 L 285.0250912904973 35.247688068108715 L 283.8422710132447 41.384742426000635 L 296.11637972902855 43.75038298050576 L 294.93355945177603 49.887437338397675 Z" fill-opacity="1"/></g></g><g><g><path fill="rgb(244,244,245)" stroke="none" paint-order="stroke fill markers" d=" M 326.19080341036715 59.684573731705115 L 320.3885038290167 57.361683383828066 L 329.6800652205249 34.15248505842625 L 323.8777656391744 31.829594710549205 L 326.2006559870515 26.027295129198755 L 343.6075547311028 32.995966172829895 L 341.2846643832258 38.79826575418035 L 335.48236480187535 36.4753754063033 L 326.19080341036715 59.684573731705115 Z" fill-opacity="1"/></g></g><g><g><path fill="rgb(244,244,245)" stroke="none" paint-order="stroke fill markers" d=" M 360.8313675783975 77.54302576960785 L 355.5735329982026 74.16402066051036 L 372.46855854369 47.87484775953595 L 377.7263931238849 51.25385286863344 L 360.8313675783975 77.54302576960785 Z" fill-opacity="1"/></g></g><g><g><path fill="rgb(244,244,245)" stroke="none" paint-order="stroke fill markers" d=" M 386.9428596156763 97.32152836669741 L 382.41952187751957 93.00853454493421 L 403.9844909863356 70.39184585415077 L 417.55450420080564 83.33082731944036 L 395.98953509198964 105.94751601022381 L 391.46619735383297 101.63452218846061 L 408.71817264088577 83.54117123583386 L 404.1948349027291 79.22817741407066 L 386.9428596156763 97.32152836669741 Z" fill-opacity="1"/></g></g><g><g><path fill="rgb(244,244,245)" stroke="none" paint-order="stroke fill markers" d=" M 416.9880701703188 131.08833353790436 L 413.3627144854988 125.99723383758976 L 433.7271132867572 111.49581109830982 L 430.1017576019372 106.40471139799521 L 435.1928573022518 102.77935571317522 L 446.06892435671176 118.05265481411901 L 440.97782465639716 121.678010498939 L 437.3524689715772 116.5869107986244 L 416.9880701703188 131.08833353790436 Z" fill-opacity="1"/></g></g><g><g><path fill="rgb(244,244,245)" stroke="none" paint-order="stroke fill markers" d=" M 439.5634151873802 156.55837853238575 L 442.15975901864203 162.2435785033515 L 459.21535893153924 154.4545470095661 L 456.61901510027747 148.7693470386004 L 439.5634151873802 156.55837853238575 Z M 439.07090287893806 170.525122305579 L 431.2818713851527 153.4695223926818 L 459.7078712399814 140.48780323637286 L 467.4969027337668 157.54340314927006 L 439.07090287893806 170.525122305579 Z" fill-opacity="1"/></g></g><g><g><path fill="rgb(244,244,245)" stroke="none" paint-order="stroke fill markers" d=" M 450.69486485325996 207.74324052258956 L 446.2743848124582 189.52177361652315 L 476.64349632256886 182.15430688185356 L 478.1169896695028 188.2281291838757 L 453.82170046141425 194.12210257161138 L 455.29519380834813 200.19592487363352 L 479.5904830164367 194.30195148589783 L 481.0639763633706 200.37577378791997 L 450.69486485325996 207.74324052258956 Z" fill-opacity="1"/></g></g><g><g><path fill="rgb(244,244,245)" stroke="none" paint-order="stroke fill markers" d=" M 455.065191506415 246.4886281260266 L 454.1730305847198 227.75986551634523 L 485.38763493418884 226.27293064685327 L 486.279795855884 245.00169325653468 L 480.0368749859902 245.29908023043305 L 479.4421010381934 232.81323849064546 L 460.71333842851203 233.70539941234063 L 461.30811237630877 246.1912411521282 L 455.065191506415 246.4886281260266 Z" fill-opacity="1"/></g></g><g><g><path fill="rgb(244,244,245)" stroke="none" paint-order="stroke fill markers" d=" M 453.80286332479926 272.9881578342676 L 454.6923310640073 266.8017738225118 L 485.6242511227864 271.24911251855195 L 484.7347833835784 277.4354965303078 L 472.3620153600667 275.6565610518917 L 471.47254762085873 281.8429450636475 L 483.8453156443704 283.6218805420636 L 482.95584790516233 289.8082645538194 L 452.0239278463832 285.36092585777925 L 452.9133955855912 279.17454184602343 L 465.28616360910286 280.9534773244395 L 466.1756313483109 274.76709331268364 L 453.80286332479926 272.9881578342676 Z" fill-opacity="1"/></g></g><g><g><path fill="rgb(244,244,245)" stroke="none" paint-order="stroke fill markers" d=" M 438.72786550728983 321.93310021167116 L 444.8603898194915 304.2143348607711 L 447.81351737797485 305.23642224613803 L 441.6809930657732 322.9551875970381 L 438.72786550728983 321.93310021167116 Z" fill-opacity="1"/></g></g><g><g><path fill="rgb(244,244,245)" stroke="none" paint-order="stroke fill markers" d=" M 424.4102077758099 357.9126587736527 L 433.7852077758099 341.67468245269447 L 460.8485016440736 357.29968245269447 L 451.4735016440736 373.53765877365265 L 446.06084287042086 370.41265877365265 L 452.31084287042086 359.5873412263472 L 436.0728665494627 350.2123412263472 L 432.9478665494627 355.62499999999994 L 438.3605253231154 358.74999999999994 L 439.9230253231154 356.04367061317356 L 445.33568409676815 359.16867061317356 L 440.64818409676815 367.2876587736527 L 424.4102077758099 357.9126587736527 Z" fill-opacity="1"/></g></g><g><g><path fill="rgb(244,244,245)" stroke="none" paint-order="stroke fill markers" d=" M 400.83578315546487 388.96988529849756 L 413.11442191693897 374.7995807793552 L 436.73159611550955 395.26397871514536 L 424.45295735403545 409.4342832342877 L 419.72952251432133 405.3414036471297 L 427.9152816886374 395.8945339677015 L 423.1918468489233 391.8016543805434 L 415.0060876746072 401.24852405997166 L 410.2826528348931 397.1556444728136 L 418.4684120092092 387.7087747933854 L 413.7449771694951 383.6158952062274 L 405.559217995179 393.0627648856556 L 400.83578315546487 388.96988529849756 Z" fill-opacity="1"/></g></g><g><g><path fill="rgb(244,244,245)" stroke="none" paint-order="stroke fill markers" d=" M 376.7225921752241 411.14088442227137 L 381.6354240173665 407.2773907583926 L 397.08939867288166 426.9287181269623 L 402.0022305150241 423.0652244630835 L 405.8657241789029 427.9780563052259 L 391.12722865247565 439.56853729686225 L 387.26373498859687 434.65570545471985 L 392.17656683073926 430.79221179084107 L 376.7225921752241 411.14088442227137 Z" fill-opacity="1"/></g></g><g><g><path fill="rgb(244,244,245)" stroke="none" paint-order="stroke fill markers" d=" M 343.93643695411913 432.2112669742593 L 349.4916585082124 429.34735121346296 L 363.81123731219395 457.1234589839293 L 358.2560157581007 459.9873747447256 L 343.93643695411913 432.2112669742593 Z" fill-opacity="1"/></g></g><g><g><path fill="rgb(244,244,245)" stroke="none" paint-order="stroke fill markers" d=" M 313.7520052375838 444.93523111071295 L 319.7488363226744 443.17440263045404 L 328.5529787239691 473.15855805590706 L 310.5624854686973 478.4410434966839 L 301.75834306740256 448.4568880712309 L 307.75517415249317 446.6960595909719 L 314.7984880735289 470.68338393133433 L 320.7953191586195 468.9225554510754 L 313.7520052375838 444.93523111071295 Z" fill-opacity="1"/></g></g><g><g><path fill="rgb(244,244,245)" stroke="none" paint-order="stroke fill markers" d=" M 269.4864888773575 454.07174412748236 L 275.7081883934393 453.4776438568312 L 278.08458947604385 478.36444192115835 L 284.3062889921256 477.7703416505072 L 284.90038926277674 483.992041166589 L 266.2352907145314 485.7743419785424 L 265.6411904438803 479.5526424624606 L 271.86288995996205 478.9585421918095 L 269.4864888773575 454.07174412748236 Z" fill-opacity="1"/></g></g><g><g><path fill="rgb(244,244,245)" stroke="none" paint-order="stroke fill markers" d=" M 236.1411103680732 460.88754391421526 L 229.91941085199142 460.29344364356416 L 228.137110040038 478.9585421918095 L 234.35880955611978 479.5526424624606 L 236.1411103680732 460.88754391421526 Z M 224.2918116065608 453.4776438568312 L 242.95691015480614 455.25994466878467 L 239.98640880155043 486.36844224919355 L 221.32131025330509 484.58614143724014 L 224.2918116065608 453.4776438568312 Z" fill-opacity="1"/></g></g><g><g><path fill="rgb(244,244,245)" stroke="none" paint-order="stroke fill markers" d=" M 186.24799476241637 444.93523111071306 L 204.23848801768818 450.21771655148984 L 195.43434561639353 480.20187197694287 L 189.43751453130292 478.44104349668396 L 196.48082845233864 454.45371915632154 L 190.48399736724804 452.6928906760626 L 183.4406834462123 476.680215016425 L 177.44385236112169 474.9193865361661 L 186.24799476241637 444.93523111071306 Z" fill-opacity="1"/></g></g><g><g><path fill="rgb(244,244,245)" stroke="none" paint-order="stroke fill markers" d=" M 150.5083414917876 429.34735121346296 L 167.1740061540674 437.9390984958519 L 152.85442735008584 465.71520626631826 L 136.18876268780602 457.1234589839293 L 139.05267844860234 451.5682374298361 L 150.1631215567889 457.29606895142865 L 158.75486883917782 440.6304042891489 L 147.6444257309913 434.90257276755625 L 150.5083414917876 429.34735121346296 Z" fill-opacity="1"/></g></g><g><g><path fill="rgb(244,244,245)" stroke="none" paint-order="stroke fill markers" d=" M 128.19023966691842 415.00437808615027 L 133.10307150906084 418.86787175002905 L 113.78560318966693 443.43203096074114 L 108.87277134752452 439.56853729686236 L 116.59975867528208 429.7428736125775 L 111.68692683313965 425.8793799486987 L 103.9599395053821 435.7050436329836 L 99.04710766323967 431.8415499691048 L 118.36457598263357 407.2773907583927 L 123.27740782477599 411.1408844222715 L 115.55042049701844 420.96654810655633 L 120.46325233916085 424.8300417704351 L 128.19023966691842 415.00437808615027 Z" fill-opacity="1"/></g></g><g><g><path fill="rgb(244,244,245)" stroke="none" paint-order="stroke fill markers" d=" M 93.3401750900761 377.47657582549033 L 105.6188138515502 391.6468803446327 L 103.25709643169314 393.6933201382117 L 90.97845767021904 379.5230156190693 L 93.3401750900761 377.47657582549033 Z" fill-opacity="1"/></g></g><g><g><path fill="rgb(244,244,245)" stroke="none" paint-order="stroke fill markers" d=" M 69.33979222419012 347.08734122634735 L 78.71479222419012 363.3253175473056 L 51.65149835592643 378.9503175473056 L 42.27649835592642 362.7123412263474 L 47.68915712957916 359.5873412263474 L 53.939157129579165 370.4126587736529 L 70.17713345053738 361.0376587736529 L 67.05213345053738 355.6250000000001 L 61.63947467688464 358.7500000000001 L 63.201974676884646 361.4563293868265 L 57.7893159032319 364.5813293868265 L 53.101815903231895 356.4623412263474 L 69.33979222419012 347.08734122634735 Z" fill-opacity="1"/></g></g><g><g><path fill="rgb(244,244,245)" stroke="none" paint-order="stroke fill markers" d=" M 54.2306573927591 311.1426773631048 L 60.36318170496076 328.86144271400485 L 30.83190612012738 339.08231656767424 L 24.699381807925718 321.3635512167742 L 30.605636924892394 319.31937644604034 L 34.693986466360165 331.1318866799737 L 40.60024158332684 329.08771190923983 L 36.51189204185907 317.27520167530645 L 42.41814715882575 315.23102690457256 L 46.506496700293525 327.04353713850594 L 52.4127518172602 324.99936236777205 L 48.32440227579242 313.18685213383867 L 54.2306573927591 311.1426773631048 Z" fill-opacity="1"/></g></g><g><g><path fill="rgb(244,244,245)" stroke="none" paint-order="stroke fill markers" d=" M 47.08660441440881 279.1745418460235 L 47.97607215361684 285.3609258577793 L 23.230536106593526 288.9187968146114 L 24.12000384580156 295.1051808263673 L 17.933619834045732 295.9946485655753 L 15.265216616421633 277.43549653030783 L 21.45160062817746 276.5460287910998 L 22.341068367385493 282.7324128028556 L 47.08660441440881 279.1745418460235 Z" fill-opacity="1"/></g></g><g><g><path fill="rgb(244,244,245)" stroke="none" paint-order="stroke fill markers" d=" M 45.232195467483365 240.24570725613282 L 44.934808493584974 246.4886281260266 L 13.720204144115975 245.00169325653468 L 14.017591118014366 238.75877238664086 L 45.232195467483365 240.24570725613282 Z" fill-opacity="1"/></g></g><g><g><path fill="rgb(244,244,245)" stroke="none" paint-order="stroke fill markers" d=" M 49.30513514674001 207.74324052258967 L 47.831641799806086 213.8170628246118 L 17.4625302896954 206.44959608994222 L 21.883010330497154 188.2281291838758 L 52.252121840607835 195.5955959185454 L 50.77862849367392 201.66941822056754 L 26.483339285585373 195.77544483283188 L 25.009845938651456 201.84926713485402 L 49.30513514674001 207.74324052258967 Z" fill-opacity="1"/></g></g><g><g><path fill="rgb(244,244,245)" stroke="none" paint-order="stroke fill markers" d=" M 63.52544095232369 164.83992233461336 L 60.9290971210619 170.5251223055791 L 38.18829723719894 160.13974698053195 L 35.591953405937154 165.82494695149768 L 29.906753434971407 163.2286031202359 L 37.69578492875677 146.1730032073387 L 43.38098489972252 148.76934703860047 L 40.78464106846073 154.4545470095662 L 63.52544095232369 164.83992233461336 Z" fill-opacity="1"/></g></g><g><g><path fill="rgb(244,244,245)" stroke="none" paint-order="stroke fill markers" d=" M 74.29547444454656 132.55407755339903 L 77.92083012936655 127.46297785308442 L 62.647531028422755 116.58691079862447 L 59.02217534360277 121.67801049893907 L 74.29547444454656 132.55407755339903 Z M 86.63728551450114 125.99723383758982 L 75.76121846004118 141.27053293853362 L 50.30571995846818 123.14375451443368 L 61.18178701292814 107.87045541348988 L 86.63728551450114 125.99723383758982 Z" fill-opacity="1"/></g></g><g><g><path fill="rgb(244,244,245)" stroke="none" paint-order="stroke fill markers" d=" M 113.05714038432372 97.32152836669744 L 99.48712716985365 110.26050983198704 L 77.92215806103766 87.6438211412036 L 82.44549579919435 83.3308273194404 L 99.69747108624715 101.42417827206715 L 104.22080882440383 97.11118445030395 L 86.96883353735103 79.0178334976772 L 91.49217127550772 74.704839675914 L 113.05714038432372 97.32152836669744 Z" fill-opacity="1"/></g></g><g><g><path fill="rgb(244,244,245)" stroke="none" paint-order="stroke fill markers" d=" M 144.42646700179722 74.16402066051045 L 128.6529632612126 84.30103598780292 L 111.75793771572515 58.01186308682851 L 127.53144145630979 47.87484775953605 L 130.91044656540728 53.132682339730934 L 120.39477740501752 59.8906925579259 L 130.53179273230998 75.66419629851055 L 141.04746189269974 68.90618608031556 L 144.42646700179722 74.16402066051045 Z" fill-opacity="1"/></g></g><g><g><path fill="rgb(244,244,245)" stroke="none" paint-order="stroke fill markers" d=" M 168.0068970082823 62.00746407958222 L 162.20459742693183 64.33035442745927 L 150.59014568754657 35.318856520707016 L 156.39244526889703 32.99596617282996 L 161.03822596465113 44.60056533553087 L 166.84052554600157 42.27767498765381 L 162.19474485024747 30.67307582495291 L 167.99704443159794 28.35018547707586 L 179.61149617098317 57.36168338382812 L 173.80919658963273 59.68457373170517 L 169.16341589387864 48.079974569004264 L 163.36111631252817 50.40286491688132 L 168.0068970082823 62.00746407958222 Z" fill-opacity="1"/></g></g><g><g><path fill="rgb(244,244,245)" stroke="none" paint-order="stroke fill markers" d=" M 217.93195940263402 50.59032396283853 L 199.52079632895828 54.13878479459623 L 198.929386190332 51.07025761565028 L 217.34054926400773 47.521796783892576 L 217.93195940263402 50.59032396283853 Z" fill-opacity="1"/></g></g></g></g></svg>