<svg version="1.1" xmlns="http://www.w3.org/2000/svg" xmlns:xlink="http://www.w3.org/1999/xlink" width="500" height="500" viewBox="0 0 500 500"><defs/><g><g><g><g><path fill="rgb(244,244,245)" stroke="none" paint-order="stroke fill markers" d=" M 262.975 18.45 L 262.975 18.45 Q 262.975 20.65 261.95 21.95 Q 260.925 23.25 259.25 23.95 Q 257.575 24.65 255.425 24.9 Q 253.275 25.15 251.025 25.2 Q 248.775 25.25 246.625 25.275 Q 244.475 25.299999999999997 242.8 25.549999999999997 Q 241.125 25.799999999999997 240.1 26.4 Q 239.075 27 239.075 28.3 L 239.075 28.3 Q 239.075 29.9 240.6 30.775 Q 242.125 31.65 244.225 31.65 L 244.225 31.65 Q 245.675 31.65 246.225 31.25 Q 246.775 30.85 247 30.275 Q 247.225 29.7 247.375 29.025 Q 247.525 28.349999999999998 248.175 27.775 Q 248.825 27.2 250.2 26.8 Q 251.575 26.4 254.225 26.4 L 254.225 26.4 Q 256.425 26.4 258.15 26.75 Q 259.875 27.099999999999998 261.05 28 Q 262.225 28.9 262.85 30.424999999999997 Q 263.475 31.95 263.475 34.3 L 263.475 34.3 Q 263.475 37.3 262.525 39.375 Q 261.575 41.45 259.85 42.75 Q 258.125 44.05 255.75 44.65 Q 253.375 45.25 250.475 45.25 L 250.475 45.25 Q 246.725 45.25 244.075 44.275 Q 241.425 43.3 239.75 41.2 Q 238.075 39.1 237.3 35.825 Q 236.525 32.55 236.525 28 L 236.525 28 Q 236.525 23.349999999999998 237.35 20.025 Q 238.175 16.7 239.9 14.599999999999998 Q 241.625 12.5 244.35 11.5 Q 247.075 10.5 250.875 10.5 L 250.875 10.5 Q 256.675 10.5 259.825 12.600000000000001 Q 262.975 14.7 262.975 18.45 Z" fill-opacity="1"/></g></g><g><g><path fill="rgb(244,244,245)" stroke="none" paint-order="stroke fill markers" d=" M 303.02292443077334 42.79010162444338 L 303.02292443077334 42.79010162444338 Q 302.2091440800236 47.01239502267302 298.9650150566914 48.65308904654636 Q 295.7208860333592 50.29378307041971 290.27118176355117 49.243438664219426 L 290.27118176355117 49.243438664219426 Q 283.1031022735334 47.86190458038843 280.53012043061335 43.11416675738223 Q 277.9571385876933 38.36642893437602 279.64147466250097 29.62726352873793 L 279.64147466250097 29.62726352873793 Q 281.33527329952665 20.839001688236703 285.53197637472374 17.294173300482047 Q 289.72867944992083 13.749344912727395 296.74946963534916 15.10249130990433 L 296.74946963534916 15.10249130990433 Q 302.15007747029404 16.143373153886586 304.60675798408107 18.98464854588558 Q 307.0634384978681 21.82592393788459 306.24019558490033 26.097313770977365 L 306.24019558490033 26.097313770977365 Q 305.625129040729 29.28858203708116 303.6983052300464 30.69942398520523 Q 301.7714814193638 32.1102659333293 298.82569532757566 31.54251220024807 L 298.82569532757566 31.54251220024807 Q 297.3528022816816 31.258635333707453 296.1028990381211 30.610374674915818 Q 294.8529957945606 29.962114016124183 293.5880068957866 29.2600256413604 Q 292.3230179970125 28.557937266596618 290.97492188372576 27.89075148336894 Q 289.62682577043904 27.22356570014126 287.9575469850924 26.901838584728566 L 287.9575469850924 26.901838584728566 Q 285.6991109813882 26.466560722699622 284.5110617607785 26.950465723096077 Q 283.3230125401688 27.434370723492528 283.1905366691165 28.121720811576424 L 283.1905366691165 28.121720811576424 Q 283.0864484847183 28.661781595070913 283.53099183414605 29.129361759833643 Q 283.9755351835738 29.596941924596376 284.95746388083654 29.786193168956785 L 284.95746388083654 29.786193168956785 Q 285.7430068386467 29.937594164445112 286.62495904241007 29.852975547835783 Q 287.5069112461735 29.768356931226457 288.39832601215494 29.63464187975399 Q 289.2897407781363 29.50092682828153 290.2207894167629 29.425770773890218 Q 291.1518380553894 29.350614719498914 292.084670317789 29.5304034016413 L 292.084670317789 29.5304034016413 Q 293.6557562334093 29.83320539261796 294.32390897538073 30.72578419216233 Q 294.99206171735216 31.6183629917067 294.8122730352098 32.55119525410627 L 294.8122730352098 32.55119525410627 Q 294.6419469152854 33.4349310816427 293.6899173067734 34.015245327992396 Q 292.7378876982613 34.59555957434209 291.166801782641 34.29275758336543 L 291.166801782641 34.29275758336543 Q 290.2830659551046 34.12243146344106 289.4466429386582 33.706623169201016 Q 288.6102199222119 33.29081487496097 287.8030764043061 32.855189644398365 Q 286.9959328864004 32.419564413835765 286.23315452224875 32.01794996292275 Q 285.4703761580971 31.616335512009734 284.68483320028696 31.464934516521403 L 284.68483320028696 31.464934516521403 Q 283.70290450302423 31.275683272160993 283.11642272032617 31.544549630345294 Q 282.5299409376281 31.813415988529595 282.4258527532299 32.35347677202408 L 282.4258527532299 32.35347677202408 Q 282.2933768821776 33.04082686010798 283.1966574243602 33.90234253733874 Q 284.0999379665427 34.763858214569495 286.35837397024693 35.199136076598435 L 286.35837397024693 35.199136076598435 Q 288.0276527555935 35.520863192011134 289.52241858325965 35.427054234860215 Q 291.0171844109257 35.333245277709295 292.45723071073314 35.12704960750507 Q 293.89727701054056 34.92085393730085 295.29384996848034 34.80811985571389 Q 296.6904229264201 34.69538577412693 298.1633159723142 34.97926264066754 L 298.1633159723142 34.97926264066754 Q 301.10910206410233 35.547016373748775 302.37354651952353 37.572924866044175 Q 303.63799097494467 39.59883335833958 303.02292443077334 42.79010162444338 Z" fill-opacity="1"/></g></g><g><g><path fill="rgb(244,244,245)" stroke="none" paint-order="stroke fill markers" d=" M 319.72260975340623 32.5897292808497 L 319.72260975340623 32.5897292808497 Q 321.9711676101512 26.973103286102457 326.6974589441966 25.795321376864948 Q 331.42375027824204 24.61753946762743 339.12920412227544 27.70233784960815 L 339.12920412227544 27.70233784960815 Q 346.83465796630884 30.787136231588867 349.4424733030904 34.901051540542966 Q 352.05028863987195 39.01496684949707 349.80173078312697 44.63159284424431 L 349.80173078312697 44.63159284424431 Q 348.29649783770265 48.3914829729594 345.95169883162254 49.74173021738751 Q 343.6068998255424 51.09197746181562 340.6825408365418 49.921240726485586 L 340.6825408365418 49.921240726485586 Q 339.01147855711287 49.25224830629699 338.3014820219506 48.26785513278471 Q 337.5914854867884 47.28346195927243 337.47575477761524 46.15997123703468 Q 337.3600240684421 45.03648051479694 337.6017623058483 43.89452490069639 Q 337.84350054325444 42.75256928659584 338.052698610637 41.759160423839205 Q 338.26189667801947 40.76575156108258 338.22496689429386 40.05081366792403 Q 338.18803711056825 39.33587577476549 337.4917611608062 39.057128933020245 L 337.4917611608062 39.057128933020245 Q 336.841903607695 38.79696521405802 336.1964750785924 39.265657025188226 Q 335.55104654948985 39.73434883631844 335.1236347254805 40.80197195928692 L 335.1236347254805 40.80197195928692 Q 334.5103916736409 42.33377904876344 334.8117565591105 43.66623137654328 Q 335.1131214445801 44.99868370432311 335.8787491171712 46.24770903111306 Q 336.6443767897623 47.49673435790301 337.6096350961973 48.7179638211319 Q 338.5748934026322 49.939193284360805 339.3033548296573 51.28105540445236 Q 340.0318162566823 52.622917524543915 340.25884865101983 54.141043438926964 Q 340.48588104535736 55.65916935331001 339.7611392568197 57.46948682269136 L 339.7611392568197 57.46948682269136 Q 338.40457129365956 60.85802977820002 334.9783103482905 61.47910621008179 Q 331.5520494029215 62.100182641963556 326.2139337880791 59.96312352191667 L 326.2139337880791 59.96312352191667 Q 320.87581817323667 57.82606440186979 318.82470831381085 55.01217948159209 Q 316.773598454385 52.19829456131439 318.13016641754524 48.80975160580572 L 318.13016641754524 48.80975160580572 Q 318.8549082060829 46.999434136424384 320.06684610792024 46.05738502831484 Q 321.27878400975766 45.1153359202053 322.7319872253204 44.64688057091551 Q 324.18519044088305 44.17842522162573 325.7265255535915 43.96068438867971 Q 327.26786066629995 43.7429435557337 328.68389763629665 43.36732499974552 Q 330.09993460629335 42.991706443757344 331.23754001699865 42.23533092225101 Q 332.37514542770396 41.47895540074468 332.9883884795435 39.947148311268165 L 332.9883884795435 39.947148311268165 Q 333.4158003035529 38.87952518829968 333.27211608959175 38.094920289858194 Q 333.12843187563067 37.31031539141671 332.4785743225194 37.050151672454476 L 332.4785743225194 37.050151672454476 Q 331.78229837275734 36.77140483070923 331.2622073966733 37.26334525047158 Q 330.7421164205893 37.75528567023393 330.20798957665113 38.618612673509446 Q 329.673862732713 39.48193967678496 329.0607773221004 40.47523030862138 Q 328.4476919114878 41.46852094045779 327.5886362909941 42.2017660842522 Q 326.7295806705003 42.9350112280466 325.5364229429796 43.15749636745521 Q 324.3432652154589 43.37998150686382 322.67220293603 42.71098908667523 L 322.67220293603 42.71098908667523 Q 319.74784394702937 41.5402523513452 318.98261037750564 38.944935880455 Q 318.2173768079819 36.349619409564795 319.72260975340623 32.5897292808497 Z" fill-opacity="1"/></g></g><g><g><path fill="rgb(244,244,245)" stroke="none" paint-order="stroke fill markers" d=" M 362.8265145387713 58.43898461056217 L 362.8265145387713 58.43898461056217 Q 367.4760255688894 51.20420422821401 371.52383621091997 48.60500165698879 Q 375.5716468529506 46.00579908576357 379.4834757806156 48.5197788869321 L 379.4834757806156 48.5197788869321 Q 383.3953047082806 51.033758688100626 382.7125081975747 55.79552452914824 Q 382.02971168686884 60.55729037019586 377.3802006567507 67.792070752544 L 377.3802006567507 67.792070752544 Q 372.75772166750534 74.98478845825062 368.66184764628116 77.612537685681 Q 364.565973625057 80.24028691311139 360.6962073740336 77.75333915281564 L 360.6962073740336 77.75333915281564 Q 356.82644112301017 75.26639139251989 357.515238336268 70.44904685439434 Q 358.2040355495259 65.63170231626877 362.8265145387713 58.43898461056217 Z" fill-opacity="1"/></g></g><g><g><path fill="rgb(244,244,245)" stroke="none" paint-order="stroke fill markers" d=" M 414.71290859786524 99.8964078836509 L 414.71290859786524 99.8964078836509 Q 408.4676935439521 106.44620092850178 404.087389668943 108.1419125674841 Q 399.70708579393386 109.83762420646643 396.41409592055584 106.69776470422282 L 396.41409592055584 106.69776470422282 Q 394.0257735948091 104.42050396633185 394.35231038419306 101.79569469227425 Q 394.6788471735771 99.17088541821664 397.61168297237606 96.0950157562701 L 397.61168297237606 96.0950157562701 Q 399.0263449459144 94.6113609781547 399.77449397489227 93.3557642951233 Q 400.5226430038701 92.10016761209188 400.79994044610413 91.12101944734331 Q 401.0772378883381 90.14187128259475 400.95437439630757 89.43748888479789 Q 400.8315109042771 88.73310648700101 400.43345718331926 88.35356303068585 L 400.43345718331926 88.35356303068585 Q 399.99921676045625 87.93951562379658 399.3646836394731 88.02535103825628 Q 398.73015051849006 88.11118645271597 398.14358335873027 88.72636038510527 L 398.14358335873027 88.72636038510527 Q 397.38449644609994 89.52246782702085 397.0423979810456 90.75071602677832 Q 396.7002995159913 91.9789642265358 396.44950918136567 93.32881762896821 Q 396.19871884674 94.67867103140063 395.75310852996336 96.01547933687385 Q 395.3074982131867 97.35228764234708 394.34138759711175 98.36551529569418 L 394.34138759711175 98.36551529569418 Q 392.8577177224252 99.92154347762009 390.87248982334415 99.72124323121447 Q 388.8872619242631 99.52094298480885 386.9693667232846 97.69223360438126 L 386.9693667232846 97.69223360438126 Q 383.53163004228554 94.41435829984123 384.7258213983012 89.61160835785824 Q 385.9200127543169 84.80885841587528 391.95820410478535 78.47618558245591 L 391.95820410478535 78.47618558245591 Q 398.06540335640204 72.07113934522604 402.55342596146136 70.44359423172635 Q 407.04144856652067 68.81604911822666 410.4429985456145 72.05942047219258 L 410.4429985456145 72.05942047219258 Q 412.8675075732665 74.37118516065766 412.54097078388247 76.99599443471527 Q 412.21443399449845 79.62080370877287 409.3161021462736 82.66048666881416 L 409.3161021462736 82.66048666881416 Q 407.90144017273525 84.14414144692955 407.13603916847035 85.41783148091359 Q 406.37063816420545 86.69152151489763 406.11143407292406 87.68792165493325 Q 405.8522299816427 88.68432179496887 405.99318682462587 89.4059561680528 Q 406.134143667609 90.12759054113671 406.4960106866615 90.47263004687777 L 406.4960106866615 90.47263004687777 Q 406.89406440761934 90.85217350319293 407.5113455533153 90.78443143968586 Q 408.12862669901136 90.7166893761788 408.71519385877116 90.1015154437895 L 408.71519385877116 90.1015154437895 Q 409.4742807714015 89.30540800187391 409.8163792364558 88.07715980211644 Q 410.15847770151015 86.84891160235897 410.4092680361358 85.49905819992657 Q 410.6600583707614 84.14920479749415 411.10566868753807 82.81239649202091 Q 411.5512790043147 81.47558818654768 412.5173896203897 80.46236053320058 L 412.5173896203897 80.46236053320058 Q 414.0355634456503 78.87014564936942 416.0207913447314 79.07044589577504 Q 418.0060192438125 79.27074614218066 419.9239144447909 81.09945552260825 L 419.9239144447909 81.09945552260825 Q 423.2892777219795 84.30832292600007 422.0546927857307 88.89984228621054 Q 420.82010784948193 93.49136164642101 414.71290859786524 99.8964078836509 Z" fill-opacity="1"/></g></g><g><g><path fill="rgb(244,244,245)" stroke="none" paint-order="stroke fill markers" d=" M 426.1952582581069 104.79773041595045 L 426.1952582581069 104.79773041595045 Q 431.12344276801144 101.28838611304471 435.73620902416116 102.85279893136561 Q 440.3489752803108 104.41721174968653 445.1634476297518 111.17819215170431 L 445.1634476297518 111.17819215170431 Q 449.97791997919273 117.9391725537221 449.9476033086555 122.80990975659884 Q 449.9172866381183 127.68064695947558 444.98910212821374 131.18999126238134 L 444.98910212821374 131.18999126238134 Q 441.6900695224099 133.53922174614468 438.98750030077116 133.40742795929918 Q 436.28493107913243 133.27563417245366 434.4577518139832 130.7097199234951 L 434.4577518139832 130.7097199234951 Q 433.413649376755 129.24348320980448 433.34856541327724 128.03150586773162 Q 433.28348144979947 126.81952852565874 433.79352752432493 125.81181924126112 Q 434.3035735988504 124.8041099568635 435.124324561794 123.97412932044655 Q 435.9450755247377 123.1441486840296 436.65814151761305 122.42154098284959 Q 437.37120751048843 121.69893328166958 437.72666480644983 121.07752350483321 Q 438.0821221024112 120.45611372799684 437.6470794202328 119.84518176395908 L 437.6470794202328 119.84518176395908 Q 437.24103958353294 119.27497859752384 436.4446766293312 119.32032223186302 Q 435.64831367512943 119.36566586620218 434.71155133027156 120.03273131220905 L 434.71155133027156 120.03273131220905 Q 433.36750100938855 120.98982521300154 432.9006471682496 122.27368559910815 Q 432.4337933271106 123.55754598521474 432.40260623781273 125.0222225247487 Q 432.37141914851486 126.48689906428264 432.52319961359694 128.03612070446826 Q 432.6749800786791 129.5853423446539 432.56233539417616 131.10802457514495 Q 432.44969070967323 132.63070680563604 431.8199216781242 134.03057857365687 Q 431.1901526465752 135.43045034167773 429.60172954007703 136.56156131534155 L 429.60172954007703 136.56156131534155 Q 426.6285273150933 138.67876903527645 423.4103939205652 137.34887525943466 Q 420.192260526037 136.01898148359288 416.8569332960026 131.33516975930345 L 416.8569332960026 131.33516975930345 Q 413.52160606596823 126.65135803501403 413.3174036940263 123.17525369375882 Q 413.11320132208436 119.69914935250361 416.08640354706813 117.58194163256874 L 416.08640354706813 117.58194163256874 Q 417.67482665356624 116.45083065890489 419.20368389495064 116.31355161656208 Q 420.73254113633504 116.17627257421924 422.20831955833023 116.56784383104647 Q 423.6840979803255 116.9594150878737 425.09847117108563 117.60954851822397 Q 426.51284436184574 118.25968194857424 427.90716518863593 118.70925889635859 Q 429.3014860154261 119.15883584414294 430.6674280664005 119.13756818371435 Q 432.0333701173748 119.11630052328576 433.3774204382578 118.15920662249329 L 433.3774204382578 118.15920662249329 Q 434.3141827831157 117.4921411764864 434.61749736418193 116.75440798290445 Q 434.92081194524815 116.01667478932251 434.5147721085483 115.44647162288727 L 434.5147721085483 115.44647162288727 Q 434.0797294263699 114.83553965884951 433.3762379846658 114.96820386445569 Q 432.67274654296176 115.10086807006186 431.75666063173645 115.53837418802426 Q 430.84057472051114 115.97588030598665 429.78780099373904 116.48003056158346 Q 428.7350272669669 116.98418081718027 427.6159214373917 117.13658535192505 Q 426.4968156078165 117.28898988666982 425.37278290667325 116.8310865270395 Q 424.2487502055301 116.3731831674092 423.2046477683019 114.90694645371858 L 423.2046477683019 114.90694645371858 Q 421.37746850315267 112.34103220476003 422.13684707772785 109.74399655223692 Q 422.89622565230303 107.1469608997138 426.1952582581069 104.79773041595045 Z" fill-opacity="1"/></g></g><g><g><path fill="rgb(244,244,245)" stroke="none" paint-order="stroke fill markers" d=" M 436.2471510488376 164.94377608786374 L 436.2471510488376 164.94377608786374 Q 434.87628150593144 161.94199050319384 434.68506371683094 159.1160507025025 Q 434.4938459277305 156.29011090181112 435.63555534392145 153.7349201831013 Q 436.7772647601125 151.17972946439147 439.3408945318966 148.90961330145578 Q 441.9045243036808 146.63949713852008 445.9978682827761 144.7701295800116 L 445.9978682827761 144.7701295800116 Q 450.0912122618714 142.9007620215031 453.5084128595432 142.4395244739514 Q 456.92561345721504 141.97828692639968 459.66022539660577 142.79070463973537 Q 462.39483733599656 143.60312235307103 464.44041534024876 145.55472057722466 Q 466.4859933445009 147.50631880137828 467.85686288740715 150.5081043860482 L 467.85686288740715 150.5081043860482 Q 469.2277324303134 153.50988997071812 469.3630832443211 156.3338597221757 Q 469.4984340583288 159.15782947363329 468.32162841769514 161.75653174287706 Q 467.14482277706145 164.35523401212083 464.55845220539345 166.63573555038158 Q 461.9720816337254 168.91623708864233 457.8787376546301 170.78560464715082 L 457.8787376546301 170.78560464715082 Q 453.78539367553475 172.6549722056593 450.3909338777468 173.10582437788597 Q 446.9964740799589 173.55667655011263 444.3177291156609 172.74622888601073 Q 441.63898415136293 171.93578122190883 439.6285023715534 169.94067144722123 Q 437.61802059174386 167.94556167253367 436.2471510488376 164.94377608786374 Z M 438.0664150395467 164.11294606186 L 438.0664150395467 164.11294606186 Q 438.7933913123 165.7048020537304 440.4368095190305 166.05362378153237 Q 442.08022772576095 166.4024455093343 443.7175653173991 165.65469848593094 L 443.7175653173991 165.65469848593094 Q 445.3549029090372 164.90695146252753 446.1902318896478 163.42612382429542 Q 447.0255608702584 161.9452961860633 446.29858459750506 160.3534401941929 L 446.29858459750506 160.3534401941929 Q 445.57160832475176 158.7615842023225 443.8950639428124 158.4004070499617 Q 442.218519560873 158.03922989760093 440.5811819692349 158.7869769210043 L 440.5811819692349 158.7869769210043 Q 438.9438443775967 159.53472394440772 438.14164157219506 161.02790700719865 Q 437.33943876679336 162.52109006998955 438.0664150395467 164.11294606186 Z" fill-opacity="1"/></g></g><g><g><path fill="rgb(244,244,245)" stroke="none" paint-order="stroke fill markers" d=" M 471.50494725159547 212.08444952176086 L 471.50494725159547 212.08444952176086 Q 452.6032122477026 216.66996081741922 449.01967642795927 201.8984249789014 L 449.01967642795927 201.8984249789014 Q 447.2043326245367 194.41547590281013 451.01656019823946 189.45179068653178 Q 454.82878777194225 184.4881054702534 464.2067694062644 182.21303174258745 L 464.2067694062644 182.21303174258745 Q 471.495356168691 180.44483972626674 475.86964404619573 181.82753837916064 Q 480.24393192370053 183.21023703205455 481.31663508026844 187.63197966792666 L 481.31663508026844 187.63197966792666 Q 481.96497215291936 190.3044614808164 480.9941575965141 192.13493794804336 Q 480.02334304010884 193.96541441527032 477.5452235408838 194.56659970081935 L 477.5452235408838 194.56659970081935 Q 476.4276402373117 194.8377224766552 475.287919831503 194.8055138352185 Q 474.1481994256943 194.7733051937818 473.05117562491404 194.70501331636154 Q 471.95415182413376 194.6367214389413 470.9116125751574 194.58093690395367 Q 469.86907332618097 194.52515236896602 468.9944429146898 194.73733541092452 L 468.9944429146898 194.73733541092452 Q 467.58531614062065 195.07918586741317 467.07597327103855 195.94878050930436 Q 466.5666304014564 196.8183751511955 466.7670254966394 197.64441498427053 L 466.7670254966394 197.64441498427053 Q 466.9674205918224 198.47045481734554 467.81861391789323 199.0099869495235 Q 468.66980724396404 199.54951908170148 470.030343439617 199.21945657198827 L 470.030343439617 199.21945657198827 Q 470.9049738511082 199.0072735300298 471.8060577387789 198.4799711240233 Q 472.7071416264496 197.9526687180168 473.65092211914873 197.38928307602677 Q 474.59470261184794 196.8258974340367 475.61726294555905 196.26912516109155 Q 476.6398232792702 195.71235288814637 477.7574065828423 195.44123011231054 L 477.7574065828423 195.44123011231054 Q 480.23552608206734 194.8400448267615 481.9371933385518 196.0221842213375 Q 483.6388605950363 197.20432361591355 484.27540972091174 199.82821485038713 L 484.27540972091174 199.82821485038713 Q 485.31274903715325 204.1041857510107 482.1017321040038 207.19843368144996 Q 478.8907151708544 210.29268161188924 471.50494725159547 212.08444952176086 Z" fill-opacity="1"/></g></g><g><g><path fill="rgb(244,244,245)" stroke="none" paint-order="stroke fill markers" d=" M 472.4050209350934 243.7604757504546 L 472.4050209350934 243.7604757504546 Q 472.3098571034459 241.76274107208857 472.5797609631552 240.07298460841872 Q 472.84966482286444 238.3832281447489 473.1825970763844 236.9657811035632 Q 473.5155293299044 235.54833406237748 473.8092241475255 234.35801126829912 Q 474.1029189651467 233.16768847422077 474.05533704932293 232.16882113503777 L 474.05533704932293 232.16882113503777 Q 473.98158507979616 230.6205767593041 473.12064354020674 229.88570965199187 Q 472.2597020006174 229.15084254467962 471.2608346614344 229.19842446050336 L 471.2608346614344 229.19842446050336 Q 470.2619673222514 229.2460063763271 469.4747777521888 230.05938364474852 Q 468.6875881821262 230.87276091316994 468.75896105586185 232.37106192194446 L 468.75896105586185 232.37106192194446 Q 468.8065429716856 233.36992926112745 469.2120552914925 234.5269447141292 Q 469.6175676112995 235.68396016713092 470.08372922912594 237.06334167565763 Q 470.54989084695234 238.44272318418433 470.97919412467115 240.09917230677758 Q 471.40849740238997 241.7556214293708 471.5036612340375 243.7533561077368 L 471.5036612340375 243.7533561077368 Q 471.63213240676157 246.45029792353094 471.0375966618178 248.1555185098435 Q 470.44306091687406 249.86073909615607 469.3883201159097 250.83703149230647 Q 468.3335793149454 251.81332388845686 467.0255442131706 252.2010018121578 Q 465.7175091113958 252.58867973585873 464.36903820349875 252.6529153222208 L 464.36903820349875 252.6529153222208 Q 461.77198312162295 252.77662830336251 459.9823311017069 251.98588773426894 Q 458.19267908179086 251.19514716517534 457.0213625870584 249.72421458032738 Q 455.85004609232584 248.25328199547943 455.27566208298407 246.17826199321138 Q 454.70127807364224 244.10324199094333 454.5847023798741 241.65601700994497 L 454.5847023798741 241.65601700994497 Q 454.4038910997439 237.86032112104954 455.3503918645371 235.13720042922446 Q 456.29689262933033 232.4140797373994 458.364757699569 230.63867582524682 Q 460.4326227698077 228.86327191309422 463.64325518528466 227.9594801822798 Q 466.85388760076165 227.0556884514654 471.1490171592486 226.8510862134233 L 471.1490171592486 226.8510862134233 Q 479.7892196431816 226.43950264154793 484.362659297598 229.45029983289305 Q 488.9360989520144 232.4610970242382 489.2929633206924 239.95260206811076 L 489.2929633206924 239.95260206811076 Q 489.40715991866944 242.34988368215 489.0076482723078 244.47129605234616 Q 488.60813662594614 246.59270842254236 487.55816283889203 248.19448245357773 Q 486.508189051838 249.7962564846131 484.7530515655499 250.78088453836054 Q 482.9979140792619 251.765512592108 480.35091563042687 251.8916046690409 L 480.35091563042687 251.8916046690409 Q 479.00244472252984 251.95584025540296 477.66348137546964 251.69425440863495 Q 476.32451802840944 251.43266856186693 475.18294023106677 250.58602806400833 Q 474.0413624337241 249.73938756614973 473.28742727077076 248.09840256619924 Q 472.5334921078175 246.45741756624872 472.4050209350934 243.7604757504546 Z" fill-opacity="1"/></g></g><g><g><path fill="rgb(244,244,245)" stroke="none" paint-order="stroke fill markers" d=" M 467.5800941841668 297.3215409703564 L 467.5800941841668 297.3215409703564 Q 458.96864763980267 296.08340187737883 454.997204676912 293.3150285657558 Q 451.02576171402137 290.5466552541329 451.7231044215605 285.6965301889163 L 451.7231044215605 285.6965301889163 Q 452.12870171063935 282.8755390795556 453.70673632159236 281.561744283313 Q 455.2847709325454 280.24794948707034 457.7593245372477 280.6037365827535 L 457.7593245372477 280.6037365827535 Q 458.94711026750485 280.7745143886815 460.01796493813896 281.2315650143032 Q 461.088819608773 281.68861563992493 462.07832192935234 282.1844837247702 Q 463.0678242499317 282.6803518096155 463.9654601682366 283.11249733853936 Q 464.8630960865415 283.54464286746327 465.6549532400462 283.6584947380819 L 465.6549532400462 283.6584947380819 Q 466.94172111449143 283.8435040278372 467.691841180419 283.1936425913041 Q 468.4419612463466 282.54378115477107 468.5700446007925 281.6529418570782 L 468.5700446007925 281.6529418570782 Q 468.6981279552385 280.76210255938537 468.1367346106738 279.9236739621402 Q 467.57534126610915 279.08524536489506 466.28857339166393 278.9002360751398 L 466.28857339166393 278.9002360751398 Q 465.4967162381592 278.78638420452114 464.5136914168903 278.9481315407258 Q 463.5306665956214 279.10987887693045 462.4415438882508 279.30688580140185 Q 461.3524211808802 279.5038927258732 460.19617760728215 279.64073496538003 Q 459.0399340336841 279.7775772048869 457.90163937552103 279.6139151408726 L 457.90163937552103 279.6139151408726 Q 455.4270857708187 279.2581280451894 454.29022715851283 277.50347637160115 Q 453.153368546207 275.7488246980129 453.55896583528585 272.9278335886523 L 453.55896583528585 272.9278335886523 Q 454.27054002665227 267.9787263792476 458.9530784989569 266.3283223513239 Q 463.6356169712616 264.6779183234002 472.0985902993436 265.8947101906368 L 472.0985902993436 265.8947101906368 Q 480.61105469951957 267.11861779978705 484.6389449157671 270.02139240451567 Q 488.6668351320147 272.92416700924423 487.95526094064826 277.87327421864893 L 487.95526094064826 277.87327421864893 Q 487.5496636515694 280.6942653280096 485.9645132987027 282.05755119634625 Q 484.37936294583596 283.420837064683 481.90480934113367 283.06504996899974 L 481.90480934113367 283.06504996899974 Q 480.7665146829706 282.9013879049855 479.69566001233653 282.44433727936376 Q 478.6248053417024 281.98728665374205 477.63530302112315 281.49141856889673 Q 476.6458007005438 280.9955504840515 475.77291031828594 280.5669628260844 Q 474.90001993602806 280.13837516811736 474.0586717104292 280.01740755558507 L 474.0586717104292 280.01740755558507 Q 472.77190383598406 279.8323982658298 471.99703823400944 280.478701831406 Q 471.22217263203487 281.12500539698226 471.09408927758886 282.0158446946751 L 471.09408927758886 282.0158446946751 Q 470.9660059231429 282.9066839923679 471.5026537316606 283.74155471865623 Q 472.0393015401782 284.5764254449446 473.3260694146234 284.7614347346999 L 473.3260694146234 284.7614347346999 Q 474.16741764022225 284.88240234723213 475.12569692544406 284.7170971400707 Q 476.0839762106659 284.55179193290917 477.17309891803654 284.3547850084378 Q 478.26222162540716 284.15777808396643 479.4184651990052 284.0209358444596 Q 480.57470877260323 283.88409360495274 481.76249450286036 284.0548714108807 L 481.76249450286036 284.0548714108807 Q 484.2370481075627 284.4106585065639 485.3810224617822 286.1158191080581 Q 486.52499681600176 287.82097970955226 486.1193995269229 290.64197081891297 L 486.1193995269229 290.64197081891297 Q 485.4220568193838 295.4920958841295 480.83154431000435 297.0294458446886 Q 476.2410318006249 298.56679580524764 467.5800941841668 297.3215409703564 Z" fill-opacity="1"/></g></g><g><g><path fill="rgb(244,244,245)" stroke="none" paint-order="stroke fill markers" d=" M 468.3931234637568 321.1421543372442 L 468.3931234637568 321.1421543372442 Q 470.41201810073335 318.82503016172245 471.7567720977309 318.07352388260097 Q 473.10152609472846 317.3220176034794 474.02655320815353 318.0125426496787 L 474.02655320815353 318.0125426496787 Q 475.10787368898974 318.86298137041297 474.43738436418903 320.80023304877807 L 474.43738436418903 320.80023304877807 Q 473.96313581737877 322.17048423591433 472.59481881602227 324.2894954637748 L 472.59481881602227 324.2894954637748 Q 475.41165772043854 325.4760529156359 476.5302413895657 326.52457357597694 Q 477.64882505869286 327.573094236318 477.2726969008778 328.6598451778399 L 477.2726969008778 328.6598451778399 Q 476.89656874306274 329.74659611936175 475.3773268188718 329.8557014619462 Q 473.8580848946808 329.96480680453055 470.8940654067717 329.2034997210911 L 470.8940654067717 329.2034997210911 Q 470.64339598970696 331.7622425458682 470.18550084106255 333.08524369206873 L 470.18550084106255 333.08524369206873 Q 469.4823047199301 335.1169954523053 468.1393298684399 335.02255738654276 L 468.1393298684399 335.02255738654276 Q 466.9853551806927 334.99353291344374 466.3928574993252 333.57153730952155 Q 465.8003598179577 332.1495417055993 465.64575257189045 329.08016121444746 L 465.64575257189045 329.08016121444746 Q 461.9512606272028 329.9707954101968 460.3920092763236 329.431133270723 L 460.3920092763236 329.431133270723 Q 459.68325866228764 329.18583229823497 459.3661155355061 328.5734229276868 Q 459.0489724087245 327.9610135571386 459.2942733812126 327.2522629431026 L 459.2942733812126 327.2522629431026 Q 459.83393552068634 325.6930115922234 464.1371855207439 324.1136004877277 L 464.1371855207439 324.1136004877277 Q 462.8795359510979 322.0910235275185 462.4442367139225 320.7498898376447 Q 462.0089374767472 319.4087561477709 462.286945245567 318.6055054518634 L 462.286945245567 318.6055054518634 Q 462.5158928198892 317.9440048787631 463.1673755322901 317.66684017061533 Q 463.8188582446911 317.3896754624675 464.4803588177914 317.6186230367897 L 464.4803588177914 317.6186230367897 Q 466.0396101686706 318.1582851762634 468.3931234637568 321.1421543372442 Z" fill-opacity="1"/></g></g><g><g><path fill="rgb(244,244,245)" stroke="none" paint-order="stroke fill markers" d=" M 444.04068224628674 377.01167961410306 L 444.04068224628674 377.01167961410306 Q 442.135426357961 375.91167961410304 441.5220933330412 374.374003575224 Q 440.90876030812143 372.8363275363449 441.1400425254723 371.035734985006 Q 441.3713247428232 369.2351424336671 442.22981839187713 367.2481878155305 Q 443.08831204093104 365.26123319739395 444.1700107707418 363.287676038879 Q 445.2517095005526 361.314118880364 446.30505886545797 359.43966426222744 Q 447.35840823036335 357.56520964409094 447.97940187941725 355.989617092752 Q 448.60039552847115 354.414024541413 448.59328028620047 353.226348502534 Q 448.5861650439298 352.03867246365496 447.46033201901 351.3886724636549 L 447.46033201901 351.3886724636549 Q 446.07469137295493 350.588672463655 444.55441914464353 351.4718612044262 Q 443.0341469163322 352.3550499451975 441.9841469163322 354.1737032931448 L 441.9841469163322 354.1737032931448 Q 441.25914691633216 355.4294401286322 441.3305570778459 356.1057541007137 Q 441.4019672393597 356.78206807279514 441.78743184653575 357.26442378864664 Q 442.1728964537118 357.74677950449814 442.6824636012663 358.2141833150658 Q 443.1920307488208 358.6815871256334 443.3649953559969 359.53200363809333 Q 443.5379599631729 360.38242015055323 443.1968701246867 361.77320508075684 Q 442.85578028620046 363.16399001096045 441.53078028620047 365.45895733098916 L 441.53078028620047 365.45895733098916 Q 440.43078028620045 367.36421321931493 439.2651713948759 368.6831070408431 Q 438.09956250355134 370.0020008623713 436.73263964014535 370.569580711818 Q 435.36571677673936 371.1371605612647 433.73252803596813 370.91592643863 Q 432.09933929519684 370.69469231599527 430.0641795963034 369.51969231599526 L 430.0641795963034 369.51969231599526 Q 427.4661033849501 368.01969231599526 426.14410067209735 366.1594681824 Q 424.8220979592447 364.29924404880484 424.55876493432487 362.15535022727664 Q 424.2954319094051 360.0114564057485 424.96331666713445 357.65464607176045 Q 425.6312014248638 355.2978357377724 427.0812014248638 352.78636206679755 L 427.0812014248638 352.78636206679755 Q 428.9562014248638 349.5387668026059 431.1255761935536 347.7312994825771 Q 433.29495096224343 345.92383216254836 435.9511043101908 345.5232396112094 Q 438.6072576581381 345.12264705987053 441.83099085553215 346.0889773719376 Q 445.0547240529262 347.0553076840046 448.99513964014534 349.33030768400465 L 448.99513964014534 349.33030768400465 Q 453.022157767743 351.65530768400464 455.48919223532624 354.0322786421268 Q 457.95622670290953 356.4092496002489 458.9123800508568 358.9531434217771 Q 459.8685333988042 361.4970372433053 459.3720588025886 364.35695646861785 Q 458.87558420637305 367.21687569393043 456.975584206373 370.5077722283113 L 456.975584206373 370.5077722283113 Q 454.07558420637304 375.53071957026106 450.68193085842574 377.20869959218203 Q 447.2882775104784 378.88667961410306 444.04068224628674 377.01167961410306 Z" fill-opacity="1"/></g></g><g><g><path fill="rgb(244,244,245)" stroke="none" paint-order="stroke fill markers" d=" M 402.9375736934372 399.5241487277706 L 402.9375736934372 399.5241487277706 Q 399.6878505237139 396.7082475718059 399.88903233086836 393.0784024125091 Q 400.0902141380228 389.44855725321236 403.72469121141916 385.25414711554623 L 403.72469121141916 385.25414711554623 Q 408.5051745692197 379.73717522276013 413.90332705591135 379.88277649481836 Q 419.301479542603 380.0283777668766 426.02765075435593 385.85663829898965 L 426.02765075435593 385.85663829898965 Q 432.7916094448265 391.71764186779995 433.7631693430797 397.1245075369382 Q 434.73472924133296 402.5313732060765 430.0524749936242 407.93498266270944 L 430.0524749936242 407.93498266270944 Q 426.4507409569251 412.0916053216579 422.76178403141284 412.79851535958016 Q 419.0728271059006 413.50542539750245 415.7853164574596 410.65678120484046 L 415.7853164574596 410.65678120484046 Q 413.32913034080826 408.52848381951827 413.0707172783494 406.1543844767883 Q 412.81230421589055 403.78028513405843 414.77688641772636 401.51303641099565 L 414.77688641772636 401.51303641099565 Q 415.7591775186443 400.37941204946424 416.94553933921213 399.6210944176641 Q 418.13190115978 398.86277678586396 419.37242197741415 398.11830845140224 Q 420.61294279504835 397.3738401169405 421.8647906890107 396.53994752770495 Q 423.1166385829731 395.70605493846944 424.2299018306801 394.42128066206715 L 424.2299018306801 394.42128066206715 Q 425.73608151875425 392.68305664105236 425.9110321056974 391.41222333485985 Q 426.08598269264064 390.14139002866733 425.55695799059265 389.6829875149056 L 425.55695799059265 389.6829875149056 Q 425.1412957246978 389.32281411123574 424.5140877489937 389.47400986254223 Q 423.88687977328954 389.6252056138487 423.23201903934427 390.38095518820296 L 423.23201903934427 390.38095518820296 Q 422.7081304521881 390.9855548476864 422.34043622192314 391.7916571693738 Q 421.9727419916582 392.59775949106125 421.64283524011097 393.436604849446 Q 421.3129284885638 394.27545020783066 420.91249122160156 395.11934000823584 Q 420.5120539546394 395.96322980864096 419.88993625739135 396.6811919042775 L 419.88993625739135 396.6811919042775 Q 418.8421590830789 397.89039122324436 417.73508679680833 398.02273907162765 Q 416.6280145105378 398.15508692001094 415.91005241490126 397.5329692227629 L 415.91005241490126 397.5329692227629 Q 415.2298777979824 396.9435945622122 415.20332572272156 395.82895561291093 Q 415.1767736474608 394.71431666360974 416.2245508217732 393.5051173446429 L 416.2245508217732 393.5051173446429 Q 416.81392548232395 392.8249427277241 417.5922375364633 392.30848329429153 Q 418.3705495906026 391.79202386085905 419.15138386575217 391.310829685134 Q 419.9322181409017 390.829635509409 420.66141563999514 390.3698572940531 Q 421.39061313908854 389.9100790786971 421.9145017262448 389.3054794192137 L 421.9145017262448 389.3054794192137 Q 422.56936246019006 388.5497298448594 422.6297582551285 387.907388543094 Q 422.6901540500669 387.2650472413285 422.2744917841721 386.9048738376586 L 422.2744917841721 386.9048738376586 Q 421.7454670821241 386.4464713238969 420.5477323487924 386.7979773815558 Q 419.3499976154607 387.1494834392147 417.84381792738657 388.88770746022954 L 417.84381792738657 388.88770746022954 Q 416.7305546796796 390.17248173663177 416.0644127058418 391.5138913946749 Q 415.398270732004 392.85530105271806 414.85681827064747 394.20551556607916 Q 414.315365809291 395.5557300794403 413.7147099088477 396.82156478004805 Q 413.1140540084044 398.08739948065573 412.13176290748646 399.22102384218715 L 412.13176290748646 399.22102384218715 Q 410.1671807056506 401.48827256524993 407.7804702578696 401.5703593391713 Q 405.39375981008857 401.65244611309276 402.9375736934372 399.5241487277706 Z" fill-opacity="1"/></g></g><g><g><path fill="rgb(244,244,245)" stroke="none" paint-order="stroke fill markers" d=" M 403.4215126097332 419.0866866241735 L 403.4215126097332 419.0866866241735 Q 407.1613744763679 423.8423078473674 405.8182178628626 428.5242871629558 Q 404.4750612493573 433.2062664785441 397.95082056299213 438.3369860641751 L 397.95082056299213 438.3369860641751 Q 391.42657987662704 443.46770564980613 386.5599170416643 443.66918232536057 Q 381.69325420670157 443.870659000915 377.9533923400669 439.11503777772117 L 377.9533923400669 439.11503777772117 Q 375.44984844587344 435.93152274401285 375.45289953384884 433.22574361576494 Q 375.45595062182423 430.51996448751703 377.93201787026396 428.5727636809221 L 377.93201787026396 428.5727636809221 Q 379.346913440801 427.460077505725 380.55442120395577 427.3373990564317 Q 381.7619289671105 427.21472060713836 382.7927658280711 427.67624023411537 Q 383.82360268903165 428.1377598610923 384.6916961421339 428.9180891228024 Q 385.55978959523617 429.6984183845125 386.3155078730367 430.3762936566667 Q 387.07122615083733 431.05416892882084 387.7088454203036 431.3796557445375 Q 388.3464646897698 431.7051425602541 388.9360045108269 431.24152332058867 L 388.9360045108269 431.24152332058867 Q 389.48624167714684 430.80881203023426 389.4030569267136 430.0155086221391 Q 389.3198721762804 429.222205214044 388.6089893421267 428.31824415508976 L 388.6089893421267 428.31824415508976 Q 387.5890270148627 427.02125654876414 386.28440700693886 426.6160200314995 Q 384.979786999015 426.21078351423483 383.5152854997492 426.2493238651441 Q 382.0507840004834 426.2878642160534 380.51053910825965 426.51318769902554 Q 378.97029421603594 426.7385111819977 377.4439768181481 426.69844622343265 Q 375.9176594202602 426.65838126486767 374.48940761509226 426.09593412865445 Q 373.0611558099243 425.5334869924412 371.8557457867941 424.0006834576928 L 371.8557457867941 424.0006834576928 Q 369.5994654870889 421.1315896618816 370.774727992072 417.85382242725666 Q 371.94999049705507 414.5760551926317 376.46979579182613 411.0216410218633 L 376.46979579182613 411.0216410218633 Q 380.98960108659713 407.4672268510948 384.4520518405965 407.09785606701814 Q 387.91450259459583 406.7284852829415 390.17078289430106 409.5975790787527 L 390.17078289430106 409.5975790787527 Q 391.37619291743124 411.1303826135011 391.58606242574785 412.6509761783563 Q 391.7959319340645 414.1715697432114 391.4750245593068 415.6643083193949 Q 391.15411718454914 417.1570468955783 390.5720187209673 418.6007526754018 Q 389.98992025738556 420.04445845522525 389.6071969840058 421.4585917219344 Q 389.22447371062606 422.87272498864354 389.31071142169856 424.23610793455015 Q 389.3969491327711 425.59949088045676 390.4169114600351 426.89647848678237 L 390.4169114600351 426.89647848678237 Q 391.1277942941888 427.8004395457366 391.8791241751534 428.0683078155442 Q 392.63045405611797 428.33617608535184 393.18069122243793 427.9034647949974 L 393.18069122243793 427.9034647949974 Q 393.770231043495 427.43984555533194 393.60424363087446 426.74346334788294 Q 393.4382562182539 426.04708114043393 392.9576565236133 425.1528502231026 Q 392.47705682897265 424.25861930577116 391.92338461376755 423.2310264495728 Q 391.3697123985624 422.20343359337454 391.16423128708175 421.0928470308659 Q 390.9587501756011 419.9822604683573 391.3626512566691 418.83771299589836 Q 391.76655233773704 417.69316552343946 393.18144790827404 416.58047934824236 L 393.18144790827404 416.58047934824236 Q 395.6575151567138 414.6332785416474 398.2877419361268 415.26822506605635 Q 400.91796871553976 415.90317159046526 403.4215126097332 419.0866866241735 Z" fill-opacity="1"/></g></g><g><g><path fill="rgb(244,244,245)" stroke="none" paint-order="stroke fill markers" d=" M 359.4834484326093 443.4911355057491 L 359.4834484326093 443.4911355057491 Q 363.42419651946506 451.13512036418143 363.65126665471263 455.9402284955016 Q 363.8783367899602 460.74533662682165 359.7452519537148 462.87608995285416 L 359.7452519537148 462.87608995285416 Q 355.6121671174694 465.0068432788866 351.82975518760213 462.0346412344761 Q 348.04734325773484 459.0624391900657 344.10659517087913 451.4184543316333 L 344.10659517087913 451.4184543316333 Q 340.18875841010976 443.8189112456337 339.9609978349922 438.9579056788377 Q 339.7332372598746 434.0969001120416 343.82188032368725 431.98905811209556 L 343.82188032368725 431.98905811209556 Q 347.91052338749995 429.88121611214945 351.73806752966993 432.88640426594947 Q 355.56561167184 435.8915924197495 359.4834484326093 443.4911355057491 Z" fill-opacity="1"/></g></g><g><g><path fill="rgb(244,244,245)" stroke="none" paint-order="stroke fill markers" d=" M 297.6370696731234 467.6973592351501 L 297.6370696731234 467.6973592351501 Q 295.08739003370846 459.01394782393885 295.80901261436134 454.3726375723944 Q 296.53063519501427 449.7313273208499 300.89632822496026 448.4494441872214 L 300.89632822496026 448.4494441872214 Q 304.0626550378881 447.5197267496447 306.17253815461896 449.11492054155025 Q 308.28242127134985 450.7101143334558 309.4797846379259 454.78795947131744 L 309.4797846379259 454.78795947131744 Q 310.0573363794508 456.75492006722715 310.7706404893746 458.03063447365435 Q 311.48394459929835 459.30634888008154 312.1932630629225 460.03606959183486 Q 312.90258152654667 460.76579030358823 313.5740263230326 461.0115785971906 Q 314.2454711195186 461.2573668907929 314.77319225500656 461.10241398453013 L 314.77319225500656 461.10241398453013 Q 315.3488880391752 460.9333744504253 315.5918189502003 460.3409349408815 Q 315.8347498612254 459.74849543133763 315.5952771879102 458.93292640376535 L 315.5952771879102 458.93292640376535 Q 315.2853713753846 457.8774841327894 314.39272646476934 456.96709407157795 Q 313.500081554154 456.0567040103665 312.4564693835755 455.1645865083409 Q 311.412857212997 454.27246900631525 310.47795241885547 453.21815499906165 Q 309.54304762471395 452.163840991808 309.14862204513594 450.82055082874774 L 309.14862204513594 450.82055082874774 Q 308.54289704792683 448.75764093547656 309.70897609923895 447.13853326577356 Q 310.875055150551 445.51942559607056 313.41771153062945 444.7728343204407 L 313.41771153062945 444.7728343204407 Q 317.9753031552983 443.43460467544395 321.53751093507196 446.8701796977248 Q 325.0997187148456 450.3057547200056 327.5648785872081 458.7013182391325 L 327.5648785872081 458.7013182391325 Q 330.0582117152548 467.1928310556208 329.2236958268211 471.8933452011108 Q 328.38917993838743 476.5938593466008 323.8795629623993 477.91800236375553 L 323.8795629623993 477.91800236375553 Q 320.66526150079073 478.8618064291743 318.55537838405985 477.26661263726874 Q 316.44549526732897 475.6714188453632 315.262218528595 471.64154835618234 L 315.262218528595 471.64154835618234 Q 314.68466678707 469.6745877602726 313.96431936322523 468.37488602950503 Q 313.24397193938046 467.0751842987375 312.51066615141593 466.35250690090515 Q 311.7773603634514 465.6298295030728 311.08192824262505 465.3910845233915 Q 310.38649612179876 465.15233954371024 309.9067496349915 465.2932058221309 L 309.9067496349915 465.2932058221309 Q 309.37902849950353 465.4481587283937 309.1290542745574 466.01661091359716 Q 308.87908004961133 466.5850630988006 309.11855272292655 467.40063212637295 L 309.11855272292655 467.40063212637295 Q 309.4284585354521 468.4560743973489 310.3211034460674 469.36646445856036 Q 311.2137483566827 470.2768545197718 312.25736052726126 471.1689720217974 Q 313.30097269783977 472.061089523823 314.2358774919813 473.11540353107665 Q 315.1707822861228 474.16971753833025 315.5652078657008 475.51300770139056 L 315.5652078657008 475.51300770139056 Q 316.1850194907519 477.6238922433424 315.01894043943986 479.2429999130454 Q 313.8528613881278 480.8621075827485 311.31020500804937 481.60869885837826 L 311.31020500804937 481.60869885837826 Q 306.84856268074196 482.9187552476909 303.489482740956 479.5538136496646 Q 300.13040280117 476.1888720516384 297.6370696731234 467.6973592351501 Z" fill-opacity="1"/></g></g><g><g><path fill="rgb(244,244,245)" stroke="none" paint-order="stroke fill markers" d=" M 287.65122501789 475.1907044699053 L 287.65122501789 475.1907044699053 Q 288.2263140798803 481.2133096014725 284.56510970913354 484.4258759518573 Q 280.9039053383868 487.6384423022421 272.6414883810302 488.4274074616668 L 272.6414883810302 488.4274074616668 Q 264.37907142367357 489.2163726210915 260.17604760609294 486.7547490128097 Q 255.97302378851236 484.293125404528 255.39793472652204 478.2705202729608 L 255.39793472652204 478.2705202729608 Q 255.0129577511401 474.2388589865398 256.4783791294286 471.9642622785375 Q 257.9438005077171 469.6896655705352 261.0795370638224 469.39023903412703 L 261.0795370638224 469.39023903412703 Q 262.8713865244539 469.2191381561795 263.95353167323907 469.7687624614652 Q 265.0356768220242 470.31838676675096 265.65335562467925 471.26395426658934 Q 266.2710344273343 472.2095217664277 266.5794432616487 473.3353032687259 Q 266.8878520959631 474.46108477102416 267.15711572571763 475.43992188601896 Q 267.4263793554721 476.4187590010138 267.7868073603917 477.0372989376951 Q 268.14723536531136 477.65583887437634 268.8938393072412 477.5845468418982 L 268.8938393072412 477.5845468418982 Q 269.59066965304237 477.5180076115853 269.94958239090556 476.8056652454442 Q 270.3084951287688 476.09332287930306 270.199180678969 474.948530168344 L 270.199180678969 474.948530168344 Q 270.0423382075171 473.3060014960984 269.16390941880576 472.25976401676445 Q 268.2854806300944 471.2135265374305 267.0326270831799 470.4541794560614 Q 265.77977353626534 469.6948323746924 264.3622180072309 469.0516672931589 Q 262.94466247819656 468.40850221162543 261.68230332695157 467.54960793799904 Q 260.41994417570663 466.6907136643727 259.52250417833443 465.4453818005241 Q 258.6250641809623 464.20004993667555 258.4397048965191 462.258879687658 L 258.4397048965191 462.258879687658 Q 258.09275033845887 458.62540717026627 260.8535388299367 456.5033687857587 Q 263.6143273214146 454.38133040125115 269.3382908762098 453.8347581522521 L 269.3382908762098 453.8347581522521 Q 275.06225443100504 453.28818590325307 278.1747502827084 454.8493936322659 Q 281.2872461344117 456.4106013612788 281.634200692472 460.04407387867053 L 281.634200692472 460.04407387867053 Q 281.8195599769151 461.9852441276881 281.17401849429905 463.37791285865814 Q 280.5284770116829 464.77058158962825 279.45147714488115 465.8528575650194 Q 278.3744772780793 466.93513354041056 277.1042586161664 467.83494993886535 Q 275.8340399542535 468.73476633732014 274.7475344831213 469.71749512045403 Q 273.66102901198906 470.70022390358787 272.99647632071213 471.89379825004335 Q 272.3319236294352 473.0873725964988 272.4887661008871 474.7299012687444 L 272.4887661008871 474.7299012687444 Q 272.5980805506869 475.87469397970347 273.0853189470108 476.506238709036 Q 273.57255734333467 477.13778343836856 274.26938768913584 477.07124420805565 L 274.26938768913584 477.07124420805565 Q 275.0159916310657 476.9999521755775 275.2528467796899 476.32437861291373 Q 275.48970192831405 475.64880505024996 275.56885347146016 474.6366983200986 Q 275.64800501460627 473.62459158994733 275.7377849493211 472.4607876703274 Q 275.8275648840359 471.29698375070757 276.25513160008256 470.2516074053998 Q 276.6826983161293 469.206231060092 277.641270608619 468.4617418660327 Q 278.5998429011087 467.7172526719734 280.39169236174024 467.5461517940259 L 280.39169236174024 467.5461517940259 Q 283.52742891784544 467.2467252576177 285.3968384801767 469.202884220551 Q 287.26624804250804 471.1590431834843 287.65122501789 475.1907044699053 Z" fill-opacity="1"/></g></g><g><g><path fill="rgb(244,244,245)" stroke="none" paint-order="stroke fill markers" d=" M 230.53727513346863 453.82287614683906 L 230.53727513346863 453.82287614683906 Q 233.8223324779598 454.1365610897429 236.3652770294743 455.38393152707204 Q 238.90822158098877 456.63130196440125 240.5502269468102 458.8976466819174 Q 242.19223231263163 461.16399139943366 242.8763956933835 464.5192179891647 Q 243.5605590741354 467.87444457889575 243.13280687926658 472.3540682304746 L 243.13280687926658 472.3540682304746 Q 242.70505468439777 476.8336918820535 241.39589781892087 480.0236931832405 Q 240.08674095344398 483.2136944844275 238.01586060551546 485.17572903676427 Q 235.94498025758693 487.13776358910104 233.23205761536317 487.93348699412934 Q 230.51913497313944 488.7292103991576 227.23407762864827 488.41552545625376 L 227.23407762864827 488.41552545625376 Q 223.9490202841571 488.10184051335 221.43571533287212 486.8070728809748 Q 218.92241038158718 485.51230524859955 217.26027101986665 483.19381053387207 Q 215.5981316581461 480.8753158191446 214.9163446784768 477.49520243134924 Q 214.23455769880752 474.1150890435539 214.66230989367637 469.635465391975 L 214.66230989367637 469.635465391975 Q 215.09006208854518 465.1558417403961 216.39684255293946 461.99072723727346 Q 217.70362301733374 458.82561273415075 219.74486376503273 456.91097537686005 Q 221.78610451273173 454.9963380195693 224.5191611508546 454.2527646117523 Q 227.25221778897745 453.5091912039353 230.53727513346863 453.82287614683906 Z M 230.34716304686026 455.81381999198527 L 230.34716304686026 455.81381999198527 Q 228.60508718235735 455.64747191620296 227.48128960132362 456.8963029683724 Q 226.3574920202899 458.1451340205419 226.18639114234236 459.93698348117346 L 226.18639114234236 459.93698348117346 Q 226.01529026439482 461.728832941805 226.88006012742466 463.1926628786472 Q 227.7448299904545 464.65649281548934 229.4869058549574 464.82284089127165 L 229.4869058549574 464.82284089127165 Q 231.2289817194603 464.989188967054 232.38004249964095 463.7178475179028 Q 233.53110327982162 462.4465060687516 233.70220415776916 460.65465660812004 L 233.70220415776916 460.65465660812004 Q 233.87330503571667 458.86280714748847 232.98127197353992 457.421487607628 Q 232.08923891136314 455.9801680677676 230.34716304686026 455.81381999198527 Z" fill-opacity="1"/></g></g><g><g><path fill="rgb(244,244,245)" stroke="none" paint-order="stroke fill markers" d=" M 172.08335628682863 460.78668662293336 L 172.08335628682863 460.78668662293336 Q 177.56305451739442 442.12454828613136 192.1473477163348 446.4068831501211 L 192.1473477163348 446.4068831501211 Q 199.53544361316642 448.5762238378001 201.92800732000137 454.3595523697734 Q 204.3205710268363 460.14288090174665 201.6018518533165 469.4019880971266 L 201.6018518533165 469.4019880971266 Q 199.48885767700577 476.5981853992353 196.10426157906875 479.6950804981738 Q 192.7196654811317 482.7919755971123 188.35397245118574 481.51009246348383 L 188.35397245118574 481.51009246348383 Q 185.71536677374587 480.73532793216987 184.61553493030036 478.97933963034575 Q 183.51570308685484 477.2233513285216 184.2341211068005 474.7766442458046 L 184.2341211068005 474.7766442458046 Q 184.55811354716815 473.6732273261479 185.15586725177806 472.70230482222445 Q 185.75362095638798 471.7313823183009 186.3612753574962 470.81547777697915 Q 186.96892975860442 469.8995732356574 187.53851020753018 469.0246000290953 Q 188.10809065645597 468.14962682253326 188.36164995761325 467.2860831462802 L 188.36164995761325 467.2860831462802 Q 188.77016216503333 465.8948183345392 188.2717425489518 465.018917149299 Q 187.77332293287031 464.1430159640588 186.95775390529798 463.9035432907436 L 186.95775390529798 463.9035432907436 Q 186.14218487772567 463.66407061742837 185.24933968206614 464.1314595952485 Q 184.35649448640663 464.5988485730686 183.96206890682862 465.9421387361289 L 183.96206890682862 465.9421387361289 Q 183.70850960567134 466.80568241238194 183.71462494091426 467.84969515304886 Q 183.7207402761572 468.8937078937158 183.7367563078984 469.9927385969845 Q 183.75277233963962 471.0917693002532 183.72367110527736 472.2557186626219 Q 183.6945698709151 473.41966802499064 183.37057743054746 474.52308494464734 L 183.37057743054746 474.52308494464734 Q 182.6521594106018 476.9697920273643 180.77756303584238 477.85240940298 Q 178.90296666108293 478.73502677859574 176.3123356323238 477.9743488751239 L 176.3123356323238 477.9743488751239 Q 172.09056654842 476.7347256250216 171.01637770162688 472.4067794237126 Q 169.94218885483377 468.07883322240355 172.08335628682863 460.78668662293336 Z" fill-opacity="1"/></g></g><g><g><path fill="rgb(244,244,245)" stroke="none" paint-order="stroke fill markers" d=" M 144.20107604008865 445.72816018377347 L 144.20107604008865 445.72816018377347 Q 145.97874693739848 446.64461322722826 147.3071670312909 447.7232350581509 Q 148.6355871251833 448.8018568890735 149.69666614460922 449.7989081989539 Q 150.75774516403516 450.79595950883424 151.6417475336001 451.64546807889315 Q 152.52574990316504 452.4949766489521 153.41458535181997 452.9532031706795 L 153.41458535181997 452.9532031706795 Q 154.7922802972351 453.663454279357 155.85916465036777 453.2852905885554 Q 156.92604900350045 452.90712689775387 157.38427552522785 452.0182914490989 L 157.38427552522785 452.0182914490989 Q 157.84250204695527 451.129456000444 157.53169145467282 450.04104120096497 Q 157.22088086239037 448.9526264014859 155.887627689408 448.2652866188948 L 155.887627689408 448.2652866188948 Q 154.99879224075306 447.8070600971674 153.79403130597893 447.5797363411669 Q 152.5892703712048 447.3524125851664 151.16161013439694 447.06642963421 Q 149.7339498975891 446.7804466832536 148.0847712384875 446.32400966638943 Q 146.4355925793859 445.8675726495252 144.65792168207605 444.9511196060704 L 144.65792168207605 444.9511196060704 Q 142.25806597070778 443.7139079974064 141.07856949637676 442.3464146456709 Q 139.89907302204577 440.9789212939354 139.58094940594012 439.57734276781713 Q 139.26282578983447 438.17576424169886 139.58110441031045 436.8491336526697 Q 139.8993830307864 435.5225030636405 140.51798883511842 434.3225752079564 L 140.51798883511842 434.3225752079564 Q 141.70937779160968 432.01160304145355 143.2890052222057 430.85708921281895 Q 144.86863265280172 429.7025753841843 146.72815588590063 429.4236518362982 Q 148.58767911899955 429.14472828841207 150.6718911589954 429.6848071459285 Q 152.75610319899127 430.224886003445 154.93375004819583 431.3475409816772 L 154.93375004819583 431.3475409816772 Q 158.31132475308453 433.08880176424134 160.1963660673795 435.27005581716617 Q 162.08140738167444 437.45130987009105 162.58501973645753 440.1298355085926 Q 163.08863209124058 442.80836114709405 162.26602248211768 446.0407462465181 Q 161.4434128729948 449.27313134594215 159.47303882956692 453.09512377515836 L 159.47303882956692 453.09512377515836 Q 155.50937941662482 460.78355040602344 150.61523273606892 463.23886673375057 Q 145.72108605551298 465.6941830614777 139.05482019060108 462.2574841485221 L 139.05482019060108 462.2574841485221 Q 136.92161511382926 461.15774049637633 135.2841739325176 459.75104707642134 Q 133.64673275120597 458.3443536564663 132.78454264273418 456.634162668052 Q 131.9223525342624 454.92397167963776 131.9472083695823 452.9116640025042 Q 131.9720642049022 450.8993563253707 133.18636448747984 448.54394238643516 L 133.18636448747984 448.54394238643516 Q 133.80497029181186 447.344014530751 134.70099195391353 446.31523118084465 Q 135.5970136160152 445.28644783093824 136.90101469370478 444.7211327069725 Q 138.20501577139436 444.15581758300675 140.00311805005734 444.3233830790581 Q 141.80122032872035 444.4909485751094 144.20107604008865 445.72816018377347 Z" fill-opacity="1"/></g></g><g><g><path fill="rgb(244,244,245)" stroke="none" paint-order="stroke fill markers" d=" M 100.22829628136189 414.76911843612106 L 100.22829628136189 414.76911843612106 Q 105.60627946148115 407.9304565118588 109.98948255795084 405.8752726721261 Q 114.37268565442051 403.8200888323933 118.22434581866017 406.84906786487426 L 118.22434581866017 406.84906786487426 Q 120.46459713867712 408.610820975603 120.81335950210654 410.63433643486076 Q 121.16212186553595 412.6578518941185 119.61672439998445 414.6229846309755 L 119.61672439998445 414.6229846309755 Q 118.87493361651971 415.5662483446668 117.9436888285987 416.26511038038626 Q 117.01244404067769 416.9639724161057 116.08825852198608 417.5729725204084 Q 115.16407300329446 418.1819726247112 114.34100603796205 418.7432753688506 Q 113.51793907262964 419.3045781129901 113.02341188365315 419.9334205887843 L 113.02341188365315 419.9334205887843 Q 112.21980520156637 420.95528961195 112.40754168158007 421.92984336319824 Q 112.59527816159377 422.9043971144465 113.30272594686227 423.46074020204503 L 113.30272594686227 423.46074020204503 Q 114.01017373213078 424.01708328964355 115.01697086888679 423.9501166903577 Q 116.02376800564278 423.88315009107174 116.82737468772957 422.8612810679061 L 116.82737468772957 422.8612810679061 Q 117.32190187670605 422.23243859211186 117.67333698519279 421.30024045624003 Q 118.02477209367953 420.3680423203682 118.39872044605119 419.3263309257111 Q 118.77266879842284 418.2846195310539 119.2322817294982 417.2148621036021 Q 119.69189466057354 416.1451046761503 120.40277749472723 415.2411436171961 L 120.40277749472723 415.2411436171961 Q 121.94817496027875 413.27601088033913 124.03617719055197 413.16878827836524 Q 126.12417942082519 413.06156567639135 128.36443074084212 414.82331878712006 L 128.36443074084212 414.82331878712006 Q 132.29469621455607 417.9141137182231 131.38271879309383 422.7945130033988 Q 130.47074137163156 427.67491228857443 125.1854820394454 434.3956662486253 L 125.1854820394454 434.3956662486253 Q 119.8693147579482 441.15572286341325 115.34149310066913 443.1925908119741 Q 110.81367144339005 445.22945876053495 106.88340596967612 442.13866382943195 L 106.88340596967612 442.13866382943195 Q 104.64315464965917 440.37691071870324 104.25508963149261 438.3224873101344 Q 103.86702461332605 436.26806390156565 105.41242207887757 434.3029311647087 L 105.41242207887757 434.3029311647087 Q 106.12330491303126 433.3989701057545 107.05454970095226 432.700108070035 Q 107.9857944888733 432.00124603431556 108.90998000756491 431.39224593001285 Q 109.83416552625651 430.78324582571014 110.64177851693341 430.24159440893925 Q 111.4493915076103 429.69994299216836 111.97482664589782 429.03179786163696 L 111.97482664589782 429.03179786163696 Q 112.7784333279846 428.00992883847135 112.60615082262643 427.0157237598545 Q 112.43386831726824 426.0215186812377 111.72642053199974 425.4651755936391 L 111.72642053199974 425.4651755936391 Q 111.01897274673122 424.9088325060406 110.02762958463074 424.95614777795794 Q 109.03628642253025 425.00346304987534 108.23267974044347 426.02533207304094 L 108.23267974044347 426.02533207304094 Q 107.70724460215595 426.6934772035723 107.37126346832473 427.6060240120756 Q 107.0352823344935 428.5185708205788 106.66133398212185 429.560282215236 Q 106.28738562975019 430.6019936098931 105.82777269867485 431.6717510373449 Q 105.36815976759951 432.74150846479677 104.62636898413477 433.68477217848806 L 104.62636898413477 433.68477217848806 Q 103.08097151858325 435.6499049153451 101.03227194304718 435.78803546662994 Q 98.9835723675111 435.92616601791485 96.74332104749415 434.16441290718615 L 96.74332104749415 434.16441290718615 Q 92.89166088325449 431.1354338747052 93.85553301759305 426.3912584449128 Q 94.81940515193159 421.6470830151204 100.22829628136189 414.76911843612106 Z" fill-opacity="1"/></g></g><g><g><path fill="rgb(244,244,245)" stroke="none" paint-order="stroke fill markers" d=" M 79.19252533211481 403.5629157628226 L 79.19252533211481 403.5629157628226 Q 80.18976641335148 406.46989189376933 80.16821294367544 408.0102361565706 Q 80.1466594739994 409.55058041937195 79.08613368532887 410.00641487568777 L 79.08613368532887 410.00641487568777 Q 77.80897190839296 410.5176465213572 76.46650740380512 408.968359893931 L 76.46650740380512 408.968359893931 Q 75.51695933958446 407.8725230111173 74.36600028603107 405.62802011358224 L 74.36600028603107 405.62802011358224 Q 71.92999193746152 407.4741954372445 70.46265457464976 407.91865698079647 Q 68.995317211838 408.36311852434847 68.24222736780092 407.49400651384104 L 68.24222736780092 407.49400651384104 Q 67.48913752376384 406.6248945033337 68.15427048749262 405.2546397311977 Q 68.81940345122142 403.8843849590618 70.96072446951558 401.69812232694005 L 70.96072446951558 401.69812232694005 Q 68.87012289003982 400.2016648314216 67.95331786251643 399.14361542732564 L 67.95331786251643 399.14361542732564 Q 66.54536728453405 397.518753842464 67.29864047431374 396.40292253731116 L 67.29864047431374 396.40292253731116 Q 67.90076374922258 395.4180633789473 69.42849690697277 395.6159431371608 Q 70.95623006472296 395.8138228953743 73.69169516697443 397.21461933824685 L 73.69169516697443 397.21461933824685 Q 74.76762930032021 393.5697783621957 76.01461609800474 392.489258151186 L 76.01461609800474 392.489258151186 Q 76.58142827877043 391.99811260072704 77.27036191457157 392.02966328157265 Q 77.9592955503727 392.06121396241826 78.45044110083168 392.62802614318394 L 78.45044110083168 392.62802614318394 Q 79.5309613118414 393.8750129408685 78.74714645132511 398.39144231200163 L 78.74714645132511 398.39144231200163 Q 81.12757426479841 398.31357431573423 82.50667972868797 398.6071609630293 Q 83.88578519257754 398.9007476103243 84.44241681643103 399.5431347485254 L 84.44241681643103 399.5431347485254 Q 84.90081933019273 400.0721594505734 84.81510965228075 400.774942383713 Q 84.72939997436879 401.4777253168525 84.2003752723208 401.9361278306142 L 84.2003752723208 401.9361278306142 Q 82.95338847463628 403.0166480416239 79.19252533211481 403.5629157628226 Z" fill-opacity="1"/></g></g><g><g><path fill="rgb(244,244,245)" stroke="none" paint-order="stroke fill markers" d=" M 42.98431775371328 354.538320385897 L 42.98431775371328 354.538320385897 Q 44.88957364203904 353.43832038589704 46.52790666695881 353.6759964247761 Q 48.16623969187858 353.91367246365513 49.60995747452769 355.01426501499407 Q 51.05367525717679 356.114857566333 52.34518160812291 357.85181218446957 Q 53.63668795906902 359.5887668026061 54.80498922925824 361.51232396112107 Q 55.97329049944746 363.43588111963606 57.06994113454207 365.2853357377726 Q 58.16659176963668 367.13479035590916 59.22059812058279 368.46038290724806 Q 60.2746044715289 369.785975458587 61.306719713799566 370.3736514974661 Q 62.33883495607023 370.9613275363451 63.46466798099 370.3113275363451 L 63.46466798099 370.3113275363451 Q 64.85030862704511 369.5113275363451 64.84558085535649 367.7531387955738 Q 64.84085308366787 365.9949500548026 63.79085308366787 364.1762967068552 L 63.79085308366787 364.1762967068552 Q 63.06585308366787 362.9205598713678 62.444442922154096 362.6442458992864 Q 61.82303276064032 362.36793192720495 61.21256815346426 362.46057621135344 Q 60.60210354628821 362.55322049550193 59.942536398733715 362.7608166849343 Q 59.282969251179225 362.9684128743666 58.46000464400317 362.6929963619067 Q 57.637040036827116 362.41757984944684 56.60312987531334 361.4267949192432 Q 55.56921971379956 360.43600998903963 54.244219713799566 358.14104266901086 L 54.244219713799566 358.14104266901086 Q 53.14421971379956 356.2357867806851 52.584828605124116 354.566892959157 Q 52.02543749644867 352.8979991376288 52.217360359854666 351.43041928818207 Q 52.40928322326066 349.9628394387354 53.417471964031925 348.65907356137006 Q 54.42566070480319 347.3553076840048 56.46082040369662 346.1803076840048 L 56.46082040369662 346.1803076840048 Q 59.05889661504994 344.6803076840048 61.33089932790265 344.46553181760004 Q 63.60290204075536 344.25075595119523 65.59123506567514 345.0946497727234 Q 67.5795680905949 345.93854359425154 69.28668333286556 347.69535392823957 Q 70.99379857513622 349.45216426222765 72.44379857513623 351.9636379332025 L 72.44379857513623 351.9636379332025 Q 74.31879857513623 355.21123319739417 74.7994238064464 357.9937005174229 Q 75.28004903775658 360.7761678374517 74.29889568980926 363.2767603887906 Q 73.31774234186194 365.77735294012956 70.8690091444679 368.0860226280625 Q 68.42027594707386 370.3946923159954 64.47986035985467 372.6696923159954 L 64.47986035985467 372.6696923159954 Q 60.452842232257034 374.99469231599545 57.16080776467378 375.94272135787327 Q 53.86877329709051 376.89075039975114 51.1876199491432 376.44685657822293 Q 48.506466601195875 376.0029627566948 46.27794119741144 374.1430435313822 Q 44.049415793627 372.2831243060696 42.149415793627 368.99222777168876 L 42.149415793627 368.99222777168876 Q 39.249415793626994 363.969280429739 39.49306914157432 360.191300407818 Q 39.73672248952163 356.41332038589707 42.98431775371328 354.538320385897 Z" fill-opacity="1"/></g></g><g><g><path fill="rgb(244,244,245)" stroke="none" paint-order="stroke fill markers" d=" M 44.03950187578943 307.68574964778605 L 44.03950187578943 307.68574964778605 Q 48.10300539626251 306.2793574055212 51.14595261244023 308.26850854094454 Q 54.18889982861796 310.25765967636795 56.00412702502965 315.50241422023436 L 56.00412702502965 315.50241422023436 Q 58.39172315724683 322.4009201968515 55.56655251347526 327.0030567477994 Q 52.741381869703694 331.6051932987474 44.33087458314314 334.51609817227245 L 44.33087458314314 334.51609817227245 Q 35.87311725564686 337.4433564439634 30.704854282196546 335.58131916257975 Q 25.53659130874623 333.71928188119614 23.19805537102667 326.9625260273863 L 23.19805537102667 326.9625260273863 Q 21.399181572780847 321.76502152445556 22.631457984506056 318.2168360945343 Q 23.863734396231266 314.66865066461304 27.974487957640072 313.24590502418226 L 27.974487957640072 313.24590502418226 Q 31.045740618462744 312.18293414340064 33.23097749160422 313.14619153800646 Q 35.416214364745706 314.10944893261234 36.39741825469797 316.9444513887563 L 36.39741825469797 316.9444513887563 Q 36.8880201996741 318.3619526168283 36.95156162266676 319.7685309074201 Q 37.01510304565941 321.17510919801185 37.03957112679927 322.6216659072374 Q 37.06403920793912 324.0682226164629 37.16028742726351 325.5693009889261 Q 37.256535646587906 327.07037936138937 37.81255118422752 328.6768807532043 L 37.81255118422752 328.6768807532043 Q 38.564807499857594 330.850382636248 39.57790613352409 331.6373109420441 Q 40.59100476719058 332.4242392478402 41.25250534029085 332.195291673518 L 41.25250534029085 332.195291673518 Q 41.77225579058392 332.0154042936934 41.954920416860276 331.39662837762415 Q 42.13758504313663 330.7778524615549 41.810517079819206 329.83285164284024 L 41.810517079819206 329.83285164284024 Q 41.54886270916527 329.0768509878685 41.0346047356668 328.35536728279044 Q 40.520346762168316 327.6338835777123 39.958838747734106 326.9287532708001 Q 39.3973307332999 326.2236229638878 38.866719361635546 325.454889217874 Q 38.33610798997121 324.6861554718601 38.025393424819654 323.7884046940812 L 38.025393424819654 323.7884046940812 Q 37.50208468351178 322.2764033841377 37.94100422781091 321.25147673621007 Q 38.37992377211004 320.2265500882824 39.27767454988897 319.91583552313085 L 39.27767454988897 319.91583552313085 Q 40.12817528673217 319.62147435614514 41.106756970505046 320.1557990590967 Q 42.08533865427792 320.69012376204824 42.6086473955858 322.2021250719917 L 42.6086473955858 322.2021250719917 Q 42.90300856257148 323.0526258088349 42.96111952487849 323.98489353650746 Q 43.0192304871855 324.91716126418004 43.045539729941716 325.83398067046767 Q 43.07184897269792 326.75080007675524 43.105429837756134 327.61219274302425 Q 43.13901070281433 328.4735854092932 43.400665073468275 329.22958606426494 L 43.400665073468275 329.22958606426494 Q 43.72773303678569 330.1745868829796 44.25381902454534 330.54806182656074 Q 44.779905012304994 330.9215367701419 45.299655462598054 330.7416493903173 L 45.299655462598054 330.7416493903173 Q 45.96115603569832 330.5127018159951 46.25561022684743 329.29968008110546 Q 46.55006441799654 328.0866583462158 45.797808102366474 325.9131564631721 L 45.797808102366474 325.9131564631721 Q 45.24179256472685 324.30665507135717 44.41316871089859 323.05905437046493 Q 43.58454485707033 321.8114536695727 42.685951018619406 320.6674348264158 Q 41.787357180168485 319.5234159832589 40.99144012267196 318.37031536423814 Q 40.19552306517544 317.21721474521735 39.70492112019931 315.79971351714534 L 39.70492112019931 315.79971351714534 Q 38.72371723024705 312.9647110610013 39.845983222606904 310.8567157947845 Q 40.96824921496676 308.7487205285677 44.03950187578943 307.68574964778605 Z" fill-opacity="1"/></g></g><g><g><path fill="rgb(244,244,245)" stroke="none" paint-order="stroke fill markers" d=" M 26.85587763686065 298.3235840949767 L 26.85587763686065 298.3235840949767 Q 20.867457913481008 299.1845888665301 17.484323192940874 295.6803914601793 Q 14.101188472400736 292.17619405382845 12.919975314732469 283.9606760862167 L 12.919975314732469 283.9606760862167 Q 11.738762157064201 275.745158118605 13.997609655245384 271.42976613409644 Q 16.256457153426567 267.1143741495879 22.24487687680621 266.2533693780345 L 22.24487687680621 266.2533693780345 Q 26.253653716423987 265.6769942830277 28.595401634528724 267.0325261668475 Q 30.937149552633457 268.3880580506674 31.385441293194305 271.5059955925923 L 31.385441293194305 271.5059955925923 Q 31.641608002086215 273.287674187978 31.144096774093725 274.39474581078355 Q 30.646585546101242 275.50181743358917 29.731479394313784 276.1637885288499 Q 28.816373242526325 276.82575962411073 27.70654155201791 277.18738597650116 Q 26.596709861509492 277.54901232889165 25.631793516326386 277.8645459194941 Q 24.666877171143277 278.1800795100965 24.066187685402653 278.56953058753845 Q 23.465498199662036 278.95898166498034 23.572234328367003 279.70134774639104 L 23.572234328367003 279.70134774639104 Q 23.6718547151583 280.3942227557077 24.40046799469408 280.7188343526726 Q 25.129081274229854 281.04344594963754 26.267375932392923 280.8797838856233 L 26.267375932392923 280.8797838856233 Q 27.900581311496463 280.6449644024724 28.90383643395072 279.7177485919572 Q 29.90709155640497 278.79053278144204 30.605965383079678 277.50296710374283 Q 31.304839209754384 276.21540142604357 31.87982579554317 274.7688484798425 Q 32.454812381331955 273.32229553364147 33.25266835219476 272.02049837211496 Q 34.05052432305756 270.7187012105884 35.25174373388799 269.76302243241855 Q 36.45296314471844 268.8073436542487 38.38311495638625 268.5298297196158 L 38.38311495638625 268.5298297196158 Q 41.99596321925166 268.01038055991836 44.24696165963758 270.6670713626615 Q 46.49796010002349 273.3237621654047 47.31627042009488 279.01523545622007 L 47.31627042009488 279.01523545622007 Q 48.13458074016627 284.7067087470354 46.72323984559274 287.88996445138974 Q 45.3118989510192 291.0732201557441 41.699050688153804 291.5926693154416 L 41.699050688153804 291.5926693154416 Q 39.768898876485984 291.8701832500745 38.347091466331946 291.29163879332884 Q 36.925284056177915 290.71309433658325 35.7929882153729 289.6888111096896 Q 34.66069237456788 288.66452788279594 33.70145572544122 287.43856293591847 Q 32.74221907631456 286.212597989041 31.70890537969764 285.17408327832004 Q 30.67559168308071 284.1355685675991 29.451748561302868 283.5285611431988 Q 28.22790543952502 282.9215537187985 26.59470006042148 283.15637320194946 L 26.59470006042148 283.15637320194946 Q 25.45640540225841 283.3200352659637 24.848759735254927 283.8367718945976 Q 24.24111406825144 284.3535085232314 24.340734455042742 285.0463835325481 L 24.340734455042742 285.0463835325481 Q 24.447470583747705 285.78874961395877 25.133548972452292 285.99319140164545 Q 25.819627361156886 286.19763318933207 26.834353899735646 286.22853710338796 Q 27.849080438314402 286.25944101744386 29.015838064132133 286.29374324180577 Q 30.182595689949864 286.3280454661677 31.24713242192427 286.7053868848819 Q 32.31166915389868 287.08272830359607 33.1009258003514 288.00479063664636 Q 33.890182446804126 288.9268529696967 34.146349155696036 290.7085315650824 L 34.146349155696036 290.7085315650824 Q 34.59464089625689 293.8264691070073 32.729647686367656 295.7868390534886 Q 30.864654476478428 297.7472089999699 26.85587763686065 298.3235840949767 Z" fill-opacity="1"/></g></g><g><g><path fill="rgb(244,244,245)" stroke="none" paint-order="stroke fill markers" d=" M 27.690037028619404 248.06987988368866 L 27.690037028619404 248.06987988368866 Q 19.09977791164554 247.66067540760446 14.824897134367365 245.45476984750957 Q 10.550016357089184 243.2488642874147 10.771272265669587 238.6041311602137 L 10.771272265669587 238.6041311602137 Q 10.99252817424999 233.95939803301272 15.457736614823137 232.16983423637558 Q 19.922945055396283 230.38027043973844 28.51320417237015 230.7894749158226 L 28.51320417237015 230.7894749158226 Q 37.053519922384865 231.19630029611562 41.3771545187266 233.42955663548128 Q 45.70078911506833 235.66281297484693 45.48191230227912 240.25760273508877 L 45.48191230227912 240.25760273508877 Q 45.2630354894899 244.85239249533058 40.74669413406201 246.6645488796561 Q 36.23035277863413 248.47670526398164 27.690037028619404 248.06987988368866 Z" fill-opacity="1"/></g></g><g><g><path fill="rgb(244,244,245)" stroke="none" paint-order="stroke fill markers" d=" M 37.650021729011435 182.40623288119912 L 37.650021729011435 182.40623288119912 Q 46.44491642233949 184.53985124755943 50.10359771669569 187.48544986012158 Q 53.76227901105189 190.43104847268373 52.689575854484 194.85279110855583 L 52.689575854484 194.85279110855583 Q 51.91157136730289 198.05976928402353 49.47515146118802 199.08938476617556 Q 47.03873155507314 200.1190002483276 42.908532389698095 199.11702477241255 L 42.908532389698095 199.11702477241255 Q 40.91631867463483 198.63371895461822 39.45486553573322 198.61360123122245 Q 37.99341239683161 198.59348350782668 37.00679649097344 198.84291096082185 Q 36.02018058511528 199.09233841381706 35.47159928065985 199.5509325180116 Q 34.92301797620443 200.00952662220612 34.793350561674245 200.54402298478408 L 34.793350561674245 200.54402298478408 Q 34.651895200368585 201.1271099257782 35.04349741032659 201.63371402086233 Q 35.43509962028459 202.14031811594646 36.2611394533596 202.34071321112947 L 36.2611394533596 202.34071321112947 Q 37.33013217851549 202.60004804018985 38.564875554185136 202.28218990164382 Q 39.79961892985477 201.9643317630978 41.09402143505892 201.50659586269097 Q 42.38842394026306 201.04885996228415 43.768939051181235 200.76636566406455 Q 45.1494541620994 200.48387136584495 46.509990357752365 200.81393387555815 L 46.509990357752365 200.81393387555815 Q 48.59938522964798 201.32081558690342 49.41853407741697 203.14022350301204 Q 50.237682925185965 204.95963141912068 49.61292174608598 207.53493207517806 L 49.61292174608598 207.53493207517806 Q 48.49306680241621 212.15103702471487 43.73666766662688 213.51821194441703 Q 38.980268530837556 214.88538686411917 30.476917308006563 212.82249617841168 L 30.476917308006563 212.82249617841168 Q 21.876384928343214 210.73602959915326 18.222878211717607 207.66306056716294 Q 14.569371495092 204.5900915351726 15.677438491986308 200.02257716405197 L 15.677438491986308 200.02257716405197 Q 16.467230925942886 196.7670084101681 18.903650832057753 195.73739292801605 Q 21.340070738172628 194.707777445864 25.421679325131503 195.6979649750036 L 25.421679325131503 195.6979649750036 Q 27.413893040194765 196.1812707927979 28.899641468304466 196.20728248958144 Q 30.38538989641416 196.23329418636496 31.377899775660065 195.95957144416167 Q 32.37040965490597 195.68584870195838 32.92488493274912 195.20295930855576 Q 33.47936021059229 194.72006991515315 33.59723967834701 194.23416413099136 L 33.59723967834701 194.23416413099136 Q 33.726907092877184 193.6996677684134 33.35960017212727 193.19895764671702 Q 32.99229325137736 192.69824752502063 32.166253418302354 192.49785242983762 L 32.166253418302354 192.49785242983762 Q 31.097260693146456 192.23851760077724 29.862517317476815 192.55637573932327 Q 28.627773941807177 192.8742338778693 27.333371436603034 193.33196977827612 Q 26.038968931398887 193.78970567868294 24.658453820480716 194.07219997690254 Q 23.277938709562545 194.35469427512214 21.917402513909586 194.02463176540894 L 21.917402513909586 194.02463176540894 Q 19.77941706359779 193.5059621072882 18.96026821582881 191.68655419117957 Q 18.14111936805981 189.86714627507095 18.765880547159796 187.29184561901357 L 18.765880547159796 187.29184561901357 Q 19.862159597278627 182.77292182630907 24.455824473313356 181.5463440641249 Q 29.04948934934809 180.3197663019407 37.650021729011435 182.40623288119912 Z" fill-opacity="1"/></g></g><g><g><path fill="rgb(244,244,245)" stroke="none" paint-order="stroke fill markers" d=" M 36.153516724003076 170.01156511414433 L 36.153516724003076 170.01156511414433 Q 30.65024315210824 167.49830428548293 29.698681266705307 162.7213251167772 Q 28.747119381302383 157.9443459480715 32.195063989218035 150.39440038662897 L 32.195063989218035 150.39440038662897 Q 35.64300859713369 142.84445482518646 39.87634908525152 140.4353412305915 Q 44.109689573369344 138.02622763599652 49.61296314526418 140.53948846465795 L 49.61296314526418 140.53948846465795 Q 53.29697272644999 142.22191926731557 54.53412056980018 144.6283097621634 Q 55.771268413150366 147.03470025701122 54.46271112219443 149.90004104237795 L 54.46271112219443 149.90004104237795 Q 53.71496409879103 151.5373786340161 52.69790291348366 152.19973167080326 Q 51.68084172817629 152.8620847075904 50.553116850995785 152.92422649214964 Q 49.42539197381527 152.98636827670887 48.2962321765572 152.6905674108276 Q 47.16707237929913 152.39476654494635 46.18474275666928 152.1385371311315 Q 45.20241313403943 151.88230771731665 44.486527833158426 151.8851775574718 Q 43.77064253227742 151.8880473976269 43.45908127252601 152.5702713941428 L 43.45908127252601 152.5702713941428 Q 43.16829076342469 153.20701379089098 43.60574097976319 153.8740125226929 Q 44.04319119610169 154.54101125449486 45.08926799075938 155.01873851944703 L 45.08926799075938 155.01873851944703 Q 46.59016078309434 155.70417329090014 47.935443412944636 155.46655038412752 Q 49.28072604279493 155.2289274773549 50.56476667900735 154.52359801918996 Q 51.84880731521977 153.81826856102506 53.11458237917207 152.9122120023729 Q 54.38035744312437 152.0061554437208 55.755361278872236 151.34236748685606 Q 57.13036511462011 150.67857952999134 58.65757414354131 150.52403962581909 Q 60.18478317246251 150.36949972164683 61.958565563403816 151.17955899700053 L 61.958565563403816 151.17955899700053 Q 65.27872234644781 152.6958237944574 65.7360672494981 156.1477559548067 Q 66.1934121525484 159.59968811515603 63.80477582778756 164.83007208844452 L 63.80477582778756 164.83007208844452 Q 61.41613950302671 170.060456061733 58.50784602326529 171.97535267397535 Q 55.59955254350387 173.89024928621768 52.27939576045988 172.37398448876078 L 52.27939576045988 172.37398448876078 Q 50.505613369518564 171.56392521340712 49.62229761075029 170.30853552477987 Q 48.73898185198201 169.05314583615262 48.34020329678857 167.5792986039342 Q 47.941424741595135 166.10545137171582 47.797270212747925 164.55550154291075 Q 47.65311568390072 163.0055517141057 47.34530032824273 161.5732459831875 Q 47.03748497258475 160.14094025226927 46.33609561288738 158.9686335662424 Q 45.634706253190004 157.79632688021553 44.133813460855045 157.1108921087624 L 44.133813460855045 157.1108921087624 Q 43.08773666619735 156.63316484381025 42.29718368880725 156.73935330805966 Q 41.506630711417145 156.84554177230905 41.215840202315825 157.4822841690572 L 41.215840202315825 157.4822841690572 Q 40.90427894256441 158.1645081655731 41.370915235644276 158.70741752263066 Q 41.83755152872415 159.25032687968826 42.67448589680335 159.8249274918772 Q 43.51142026488253 160.39952810406612 44.47441405693985 161.0591817680892 Q 45.43740784899717 161.71883543211226 46.1289469625257 162.61180724267527 Q 46.82048607605422 163.50477905323828 46.985946484707725 164.7071716069279 Q 47.151406893361234 165.9095641606175 46.403659869957835 167.54690175225562 L 46.403659869957835 167.54690175225562 Q 45.095102579001896 170.41224253762235 42.46631444209539 171.05311922721216 Q 39.837526305188874 171.69399591680198 36.153516724003076 170.01156511414433 Z" fill-opacity="1"/></g></g><g><g><path fill="rgb(244,244,245)" stroke="none" paint-order="stroke fill markers" d=" M 83.21557381769374 131.23334776529722 L 83.21557381769374 131.23334776529722 Q 81.30138601610878 133.92144840706334 78.94965925369478 135.50001777042553 Q 76.59793249128076 137.07858713378772 73.81421770926833 137.36743313498133 Q 71.03050292725592 137.65627913617493 67.78270977471988 136.57116870937958 Q 64.53491662218383 135.48605828258425 60.86932483795731 132.87580218951385 L 60.86932483795731 132.87580218951385 Q 57.2037330537308 130.26554609644347 55.095689321535886 127.53678234280818 Q 52.98764558934098 124.80801858917289 52.32391399787875 122.03356632350044 Q 51.660182406416524 119.25911405782799 52.32752704438806 116.51179242864609 Q 52.99487168235961 113.76447079946419 54.90905948394456 111.0763701576981 L 54.90905948394456 111.0763701576981 Q 56.82324728552952 108.38826951593198 59.20120142280676 106.85906739684961 Q 61.57915556008402 105.32986527776723 64.41810056243823 105.04965772325093 Q 67.25704556479245 104.76945016873462 70.52520311612976 105.86906201826923 Q 73.79336066746706 106.96867386780386 77.45895245169358 109.57892996087425 L 77.45895245169358 109.57892996087425 Q 81.12454423592008 112.18918605394464 83.21222356931374 114.90344838484066 Q 85.29990290270739 117.61771071573666 85.93740711930637 120.3427957371293 Q 86.57491133590537 123.06788075852194 85.85233647759203 125.80656394102652 Q 85.12976161927868 128.5452471235311 83.21557381769374 131.23334776529722 Z M 81.58642191359306 130.07323394615483 L 81.58642191359306 130.07323394615483 Q 82.60152150534266 128.64772603006674 82.0819008796459 127.05007325009528 Q 81.56228025394915 125.45242047012383 80.09604354025855 124.40831803289566 L 80.09604354025855 124.40831803289566 Q 78.62980682656794 123.36421559566752 76.92970798292752 123.38121329705746 Q 75.22960913928712 123.3982109984474 74.21450954753752 124.82371891453548 L 74.21450954753752 124.82371891453548 Q 73.19940995578793 126.24922683062357 73.72489355754666 127.88174543213556 Q 74.2503771593054 129.51426403364755 75.71661387299599 130.5583664708757 L 75.71661387299599 130.5583664708757 Q 77.1828505866866 131.60246890810387 78.87708645426504 131.55060538517338 Q 80.57132232184347 131.49874186224292 81.58642191359306 130.07323394615483 Z" fill-opacity="1"/></g></g><g><g><path fill="rgb(244,244,245)" stroke="none" paint-order="stroke fill markers" d=" M 106.41169646157593 77.12886385530581 L 106.41169646157593 77.12886385530581 Q 119.83373323490301 91.20549089644943 108.83297585570595 101.69469187097754 L 108.83297585570595 101.69469187097754 Q 103.2602237622969 107.0083002593898 97.05543248175921 106.18865694369487 Q 90.85064120122152 105.36901362799995 84.19137874041914 98.38498016028602 L 84.19137874041914 98.38498016028602 Q 79.0157861543033 92.95697487449799 78.02609437473555 88.47738112266558 Q 77.0364025951678 83.99778737083315 80.32939246854586 80.85792786858954 L 80.32939246854586 80.85792786858954 Q 82.31966107333481 78.96021058701373 84.39030747318557 78.88572242161094 Q 86.46095387303633 78.81123425620814 88.22065535231572 80.65675605337606 L 88.22065535231572 80.65675605337606 Q 89.01424621552015 81.48905019719689 89.55621291671895 82.4921813425571 Q 90.09817961791775 83.49531248791732 90.58754901758982 84.47950890665933 Q 91.0769184172619 85.46370532540134 91.54987721731248 86.39446306695103 Q 92.02283601736308 87.32522080850075 92.64390712769698 87.97658144279531 L 92.64390712769698 87.97658144279531 Q 93.64452169434604 89.02599579804766 94.65228418000969 89.03230234139667 Q 95.66004666567335 89.0386088847457 96.27522059806266 88.4520417249859 L 96.27522059806266 88.4520417249859 Q 96.89039453045197 87.86547456522611 96.93204640004066 86.85855345522802 Q 96.97369826962937 85.85163234522994 96.00758765355441 84.83840469188284 L 96.00758765355441 84.83840469188284 Q 95.38651654322051 84.18704405758828 94.47931732030688 83.67033372292784 Q 93.57211809739323 83.1536233882674 92.61232157295288 82.61797832698878 Q 91.6525250485125 82.08233326571013 90.65906594916362 81.47515617628656 Q 89.66560684981471 80.86797908686299 88.87201598661028 80.03568494304216 L 88.87201598661028 80.03568494304216 Q 87.1123145073309 78.19016314587424 87.28524362560586 76.12540637568249 Q 87.45817274388081 74.06064960549074 89.4122546467645 72.19743627448904 L 89.4122546467645 72.19743627448904 Q 92.5966844144268 69.16108862396774 96.88189019436935 70.39478689483752 Q 101.16709597431188 71.62848516570729 106.41169646157593 77.12886385530581 Z" fill-opacity="1"/></g></g><g><g><path fill="rgb(244,244,245)" stroke="none" paint-order="stroke fill markers" d=" M 133.3939030248178 60.511364065771986 L 133.3939030248178 60.511364065771986 Q 131.71139595915542 61.59264570068318 130.11307200555376 62.20378033343039 Q 128.51474805195207 62.814914966177604 127.12073677900617 63.23531069748297 Q 125.72672550606028 63.655706428788335 124.54902831887418 63.996520652807746 Q 123.37133113168808 64.33733487682716 122.5300775988569 64.87797569428277 L 122.5300775988569 64.87797569428277 Q 121.22613462296857 65.71596896133894 121.02019180942528 66.82899975945276 Q 120.81424899588198 67.94203055756657 121.35488981333758 68.78328409039774 L 121.35488981333758 68.78328409039774 Q 121.89553063079317 69.62453762322893 122.9935307931382 69.89957515428657 Q 124.09153095548325 70.1746126853442 125.35341125473002 69.36365145916079 L 125.35341125473002 69.36365145916079 Q 126.1946647875612 68.8230106417052 126.99391340252838 67.89331894470396 Q 127.79316201749555 66.96362724770272 128.75466063647696 65.87022869013241 Q 129.7161592554584 64.7768301325621 130.93603463684116 63.57681802683306 Q 132.15591001822392 62.37680592110402 133.83841708388627 61.29552428619282 L 133.83841708388627 61.29552428619282 Q 136.10980162253045 59.83579407906271 137.88383384180523 59.49806684448563 Q 139.65786606107997 59.16033960990855 141.03073047815 59.58562573987642 Q 142.40359489521998 60.01091186984429 143.39335137651878 60.94986453517254 Q 144.38310785781758 61.888817200500775 145.11297296138264 63.024509469822874 L 145.11297296138264 63.024509469822874 Q 146.5186390867672 65.21176865518395 146.72866367608722 67.15702305291215 Q 146.93868826540722 69.10227745064037 146.25048152704082 70.85213358337445 Q 145.56227478867444 72.60198971610855 144.05244675802038 74.1369308608601 Q 142.5426187273663 75.67187200561168 140.4815475719299 76.9964420083779 L 140.4815475719299 76.9964420083779 Q 137.28478414717142 79.05087711470917 134.45324206808323 79.59274375360937 Q 131.62169998899506 80.13461039250959 129.0502225639733 79.23148866616067 Q 126.47874513895154 78.32836693981176 124.09072233259745 75.99977357120211 Q 121.70269952624338 73.67118020259248 119.3779440111843 70.0537900114184 L 119.3779440111843 70.0537900114184 Q 114.70140094019338 62.77694695242869 115.02210796633291 57.31083343335641 Q 115.34281499247246 51.84471991428413 121.6522164887063 47.78991378336714 L 121.6522164887063 47.78991378336714 Q 123.67122496750115 46.49237582147371 125.70817779517442 45.777656871232544 Q 127.7451306228477 45.062937920991374 129.6572945183736 45.17135487837028 Q 131.56945841389947 45.27977183574917 133.2997400648676 46.307451459135265 Q 135.03002171583574 47.33513108252135 136.46271988209307 49.56445294452398 L 136.46271988209307 49.56445294452398 Q 137.19258498565813 50.70014521384607 137.63552667061666 51.99051441052046 Q 138.07846835557518 53.280883607194845 137.91604507522828 54.69283922901918 Q 137.75362179488138 56.10479485084352 136.7094546791717 57.57821435474269 Q 135.665287563462 59.051633858641864 133.3939030248178 60.511364065771986 Z" fill-opacity="1"/></g></g><g><g><path fill="rgb(244,244,245)" stroke="none" paint-order="stroke fill markers" d=" M 182.19160953447127 37.90934059352263 L 182.19160953447127 37.90934059352263 Q 185.42507289871614 45.98614161076246 185.0133127651371 50.80969876211818 Q 184.60155263155806 55.63325591347391 180.05254975977928 57.454401946209515 L 180.05254975977928 57.454401946209515 Q 177.4067011506835 58.51363994484145 175.47990417630103 57.80391928182635 Q 173.55310720191858 57.094198618811255 172.62395106276776 54.77327878627107 L 172.62395106276776 54.77327878627107 Q 172.17795611597535 53.659237266651786 172.0383462332623 52.5033246053106 Q 171.89873635054926 51.347411943969426 171.83341954866154 50.24254375482143 Q 171.76810274677382 49.13767556567345 171.69353379380132 48.144227292610076 Q 171.61896484082885 47.15077901954671 171.32163487630058 46.40808467313385 L 171.32163487630058 46.40808467313385 Q 170.83847368394214 45.20120636021296 169.90061713800088 44.87651404549776 Q 168.96276059205962 44.55182173078256 168.12722945234515 44.88631794087685 L 168.12722945234515 44.88631794087685 Q 167.29169831263067 45.220814150971144 166.84629452043936 46.12620934750224 Q 166.40089072824802 47.031604544033335 166.88405192060645 48.23848285695423 L 166.88405192060645 48.23848285695423 Q 167.1813818851347 48.98117720336709 167.81297159791683 49.751628003034256 Q 168.444561310699 50.52207880270143 169.15973566569795 51.36678327288719 Q 169.87491002069692 52.21148774307295 170.5715406632196 53.144402931017936 Q 171.2681713057423 54.077318118962914 171.69558312975167 55.1449412419314 L 171.69558312975167 55.1449412419314 Q 172.6247392689025 57.46586107447158 171.67359565093514 59.3277353500337 Q 170.72245203296777 61.189609625595814 168.07660342387197 62.24884762422775 L 168.07660342387197 62.24884762422775 Q 163.4347637587916 64.10715990252939 159.6642027079492 60.877164645277425 Q 155.89364165710677 57.64716938802546 152.71592766121097 49.70962356073804 L 152.71592766121097 49.70962356073804 Q 149.51963054253216 41.72565933679982 150.01956198356368 36.78601678351035 Q 150.5194934245952 31.84637423022087 155.16133308967557 29.98806195191923 L 155.16133308967557 29.98806195191923 Q 157.80718169877136 28.928823953287296 159.78039706980462 29.619961493519384 Q 161.7536124408379 30.311099033751464 162.6827685799887 32.632018866291645 L 162.6827685799887 32.632018866291645 Q 163.1101804039981 33.69964198926013 163.24979028671115 34.855554650601306 Q 163.3894001694242 36.01146731194248 163.4547169713119 37.116335501090475 Q 163.52003377319963 38.22120369023847 163.58531116478062 39.19144276497643 Q 163.65058855636158 40.1616818397144 163.96650164367287 40.95079458277806 L 163.96650164367287 40.95079458277806 Q 164.4496628360313 42.15767289569895 165.39681094336407 42.50557440873956 Q 166.34395905069684 42.85347592178016 167.17949019041131 42.51897971168586 L 167.17949019041131 42.51897971168586 Q 168.0150213301258 42.18448350159157 168.4697166837086 41.30229750338587 Q 168.92441203729146 40.42011150518019 168.44125084493302 39.213233192259295 L 168.44125084493302 39.213233192259295 Q 168.12533775762176 38.42412044919563 167.50303960623114 37.67687884785386 Q 166.88074145484052 36.92963724651209 166.16556709984152 36.084932776326326 Q 165.45039274484256 35.240228306140565 164.75376210231988 34.30731311819558 Q 164.05713145979718 33.3743979302506 163.6111365130048 32.26035641063132 L 163.6111365130048 32.26035641063132 Q 162.68198037385397 29.939436578091136 163.58670559517054 28.096145425312038 Q 164.49143081648708 26.252854272532936 167.1372794255829 25.193616273901 L 167.1372794255829 25.193616273901 Q 171.68628229736166 23.372470241165388 175.31292267240252 26.57929571039869 Q 178.93956304744341 29.78612117963199 182.19160953447127 37.90934059352263 Z" fill-opacity="1"/></g></g><g><g><path fill="rgb(244,244,245)" stroke="none" paint-order="stroke fill markers" d=" M 202.41435120412834 25.294929899933148 L 202.41435120412834 25.294929899933148 Q 199.39821548591516 24.705077944508208 198.0750149585936 23.916239960828403 Q 196.75181443127207 23.127401977148605 196.88731310651758 21.98104247463348 L 196.88731310651758 21.98104247463348 Q 197.08315440261725 20.61937210822978 199.0961082320058 20.231407057290937 L 199.0961082320058 20.231407057290937 Q 200.51990484303673 19.956992752968343 203.0391808979466 20.082484422642956 L 203.0391808979466 20.082484422642956 Q 202.6583503420999 17.04975164711962 203.00710403578452 15.556769443226571 Q 203.35585772946914 14.063787239333529 204.48507573132125 13.846148308319059 L 204.48507573132125 13.846148308319059 Q 205.61429373317335 13.628509377304589 206.46840269363557 14.889658806856126 Q 207.32251165409775 16.15080823640767 208.14521012371267 19.09837795196882 L 208.14521012371267 19.09837795196882 Q 210.48648112025322 18.036092622710175 211.861181296421 17.7711408806056 L 211.861181296421 17.7711408806056 Q 213.9723279955358 17.364250705230717 214.56202965724628 18.57452007614609 L 214.56202965724628 18.57452007614609 Q 215.1138810700847 19.588403707608926 214.178645593702 20.812519553317667 Q 213.2434101173193 22.03663539902642 210.66255226113506 23.705219447305698 L 210.66255226113506 23.705219447305698 Q 213.28111007247693 26.459426227607516 213.5933746256716 28.079608578090983 L 213.5933746256716 28.079608578090983 Q 213.73531305894193 28.816055101038014 213.36352254992232 29.396913790740566 Q 212.99173204090275 29.97777248044311 212.2552855179557 30.11971091371342 L 212.2552855179557 30.11971091371342 Q 210.63510316747227 30.431975466908096 207.11566802793095 27.49495720027068 L 207.11566802793095 27.49495720027068 Q 205.99288978410365 29.595402156747305 205.04908355738945 30.642949199326065 Q 204.10527733067525 31.690496241904828 203.27063793800195 31.851359799611178 L 203.27063793800195 31.851359799611178 Q 202.58328784991807 31.983835670663463 202.01751481542905 31.558217445671737 Q 201.45174178094007 31.132599220680014 201.31926590988778 30.445249132596118 L 201.31926590988778 30.445249132596118 Q 201.00700135669308 28.82506678211265 202.41435120412834 25.294929899933148 Z" fill-opacity="1"/></g></g></g></g></svg>