<svg version="1.1" xmlns="http://www.w3.org/2000/svg" xmlns:xlink="http://www.w3.org/1999/xlink" width="500" height="500" viewBox="0 0 500 500"><defs/><g><g><g><g><path fill="rgb(244,244,245)" stroke="none" paint-order="stroke fill markers" d=" M 249.96875 24.75 L 249.96875 29.875 L 262.71875 29.875 C 261.21875 35.5 256.15625 39.4375 250.03125 39.4375 C 242.59375 39.4375 236.78125 33.6875 236.78125 26.25 C 236.78125 18.8125 242.59375 13.0625 250.03125 13.0625 C 255.09375 13.0625 259.40625 15.75 261.65625 19.875 L 266.90625 17.0625 C 263.65625 11.0625 257.28125 7 250.03125 7 C 239.34375 7 230.78125 15.625 230.78125 26.25 C 230.78125 36.875 239.34375 45.5 250.03125 45.5 C 260.65625 45.5 269.28125 36.875 269.28125 26.25 L 269.28125 24.75 Z" fill-opacity="1"/></g></g><g><g><path fill="rgb(244,244,245)" stroke="none" paint-order="stroke fill markers" d=" M 306.010155642008 19.497002196917087 L 307.06286568876277 14.035023818393277 L 285.9513986976146 9.966122064644459 L 278.8544770340992 46.78844821199596 L 299.9659440252474 50.85734996574478 L 301.01865407200216 45.39537158722097 L 285.92150035158807 42.485633705179666 L 287.8849820118273 32.29812347107909 L 300.95690779413707 34.817530661627046 L 302.0214460436644 29.294181739524323 L 288.9495202613546 26.77477454897636 L 290.9130019215939 16.58726431487578 Z" fill-opacity="1"/></g></g><g><g><path fill="rgb(244,244,245)" stroke="none" paint-order="stroke fill markers" d=" M 352.1679171289316 29.690773715447264 L 328.08837386632723 20.05077877175752 L 325.97454364975914 25.330871390786434 L 335.20019998410635 29.02426704391094 L 323.3766881134122 58.55797191298475 L 329.00491870732213 60.81117555042548 L 340.8284305780163 31.277470681351673 L 350.0540869123635 34.97086633447618 Z" fill-opacity="1"/></g></g><g><g><path fill="rgb(244,244,245)" stroke="none" paint-order="stroke fill markers" d=" M 358.28131780700295 75.90420829169557 L 363.4339956955939 79.21563329861111 L 383.70802635017884 47.66862581744181 L 378.55534846158787 44.35720081052627 Z" fill-opacity="1"/></g></g><g><g><path fill="rgb(244,244,245)" stroke="none" paint-order="stroke fill markers" d=" M 424.89813430713383 81.69719544186502 L 405.7053118002876 101.82604837666229 L 409.8354196390721 67.33492601539356 L 405.4025486556785 63.10819207006563 L 379.5245857250993 90.24821849900576 L 383.9574567084929 94.4749524443337 L 403.19340915355673 74.30086613215487 L 398.97493799917305 108.79409193258752 L 403.4078089825666 113.02082587791546 L 429.2857719131458 85.88079944897532 Z" fill-opacity="1"/></g></g><g><g><path fill="rgb(244,244,245)" stroke="none" paint-order="stroke fill markers" d=" M 455.0572814182079 119.90023130713722 L 440.0120553262049 98.77216755083164 L 435.3791545989186 102.07124122401783 L 441.1434701377824 110.16608974751804 L 415.2297726631811 128.61915018325178 L 418.7463676774565 133.55751689255695 L 444.66006515205777 115.1044564568232 L 450.42438069092157 123.1993049803234 Z" fill-opacity="1"/></g></g><g><g><path fill="rgb(244,244,245)" stroke="none" paint-order="stroke fill markers" d=" M 436.019743049999 165.04762984111423 C 440.4335275631441 174.71246979175598 451.86205801021805 178.97509126454742 461.5268979608598 174.56130675140238 C 471.19173791150155 170.14752223825735 475.454359384293 158.71899179118336 471.04057487114795 149.05415184054158 C 466.62679035800295 139.38931188989983 455.1982599109289 135.1266904171084 445.5334199602872 139.54047493025342 C 435.8685800096454 143.95425944339848 431.60595853685396 155.38278989047245 436.019743049999 165.04762984111423 Z M 441.5343870218358 162.52917632479028 C 438.47070130094687 155.8206403590507 441.2864855111619 148.14476806129173 448.05187347661115 145.0551189020902 C 454.8172614420603 141.96546974288867 462.4622451784223 144.86406939112595 465.5259308993112 151.57260535686552 C 468.61558005851276 158.33799332231476 465.7738324099851 165.95701362036408 459.0084444445359 169.04666277956562 C 452.24305647908665 172.13631193876714 444.6240361810373 169.29456429023952 441.5343870218358 162.52917632479028 Z" fill-opacity="1"/></g></g><g><g><path fill="rgb(244,244,245)" stroke="none" paint-order="stroke fill markers" d=" M 448.7280982554296 201.75692857681202 C 450.7320492072597 210.01732690756214 457.51923782389156 214.93068644379218 464.56487169423724 213.22143416134884 L 489.1638520174269 207.25378610626646 L 487.7198285374317 201.30144025028477 L 464.15339800558576 207.01859443638838 C 459.6587695020894 208.1089795131195 455.43407122781684 205.27510747271987 454.25527655026974 200.41604963110217 C 453.0764818727226 195.55699178948444 455.5477230641437 191.16301529047774 460.04235156764014 190.07263021374663 L 483.608782099486 184.35547602764302 L 482.1647586194908 178.40313017166133 L 457.5657782963011 184.3707782267437 C 450.52014442595544 186.08003050918705 446.72414730359947 193.49653024606192 448.7280982554296 201.75692857681202 Z" fill-opacity="1"/></g></g><g><g><path fill="rgb(244,244,245)" stroke="none" paint-order="stroke fill markers" d=" M 454.3456914761387 241.89265764021707 C 454.6936342355998 249.19687505799283 459.05189364466816 255.30892360355162 465.1997389061934 258.26975096095396 L 467.7592482395709 252.89187329198887 C 463.5348350245766 250.90312639029898 460.6422081687934 246.6609581801496 460.40132471993564 241.60419227553564 C 460.0504080907356 234.23754564906096 465.51732540531236 228.1580332240732 472.946401240486 227.8041427251341 C 480.3754770756596 227.45025222619503 486.3955341616874 232.98257261920975 486.7464507908875 240.34921924568442 C 486.9873342397452 245.40598515029842 484.5110491474197 249.90390615800038 480.4948068141543 252.28520386523616 L 483.55392626368115 257.3954332576927 C 489.392489072352 253.86362291040544 493.1500267941456 247.36497129877873 492.80208403468447 240.060753881003 C 492.29652617905725 229.44778840218353 483.270901354624 221.24295162570988 472.6579358758045 221.74850948133712 C 462.0449703969851 222.2540673369644 453.84013362051144 231.2796921613976 454.3456914761387 241.89265764021707 Z" fill-opacity="1"/></g></g><g><g><path fill="rgb(244,244,245)" stroke="none" paint-order="stroke fill markers" d=" M 488.7553134503627 293.38880933814124 L 473.0418980605029 291.1295612805528 L 475.5946704720299 273.3746391668136 L 491.3080858618897 275.633887224402 L 492.1797642463136 269.5712308928813 L 455.0614601757786 264.2344244576331 L 454.18978179135473 270.2970807891538 L 469.96506102133213 272.5652235241343 L 467.41228860980505 290.3201456378735 L 451.6370093798277 288.05200290289304 L 450.7653309954038 294.11465923441375 L 487.8836350659388 299.45146566966196 Z" fill-opacity="1"/></g></g><g><g><path fill="rgb(244,244,245)" stroke="none" paint-order="stroke fill markers" d=" M 444.1912750746897 301.3703203968858 L 434.3792361751671 329.7203449583259 L 438.80892751289207 331.2534760363763 L 448.6209664124147 302.9034514749362 Z" fill-opacity="1"/></g></g><g><g><path fill="rgb(244,244,245)" stroke="none" paint-order="stroke fill markers" d=" M 445.0878472024448 362.5979367061317 L 440.64946700804956 360.0354367061317 L 434.27446700804956 371.07726060438324 C 430.15307411176207 366.9657224987066 429.27434908436084 360.6127188920479 432.33684908436084 355.3083132938682 C 436.05559908436084 348.86724935322144 443.9414951561214 346.7084766937244 450.38255909676815 350.4272266937244 C 456.8236230374149 354.1459766937244 458.8970191091754 362.05474935322144 455.1782691091754 368.4958132938682 C 452.6470191091754 372.8800669005269 448.1633258365047 375.27105145434734 443.4659710458939 375.1571086128623 L 443.27666749403767 381.1099919827306 C 450.0978199167443 381.29540942043116 456.8035481196186 377.8057474713054 460.4285481196186 371.5270632938682 C 465.7722981196186 362.271416790922 462.5840790119778 350.54357427101775 453.38255909676815 345.23107427101775 C 444.18103918155845 339.91857427101775 432.4303200739177 343.021416790922 427.0865700739177 352.2770632938682 C 421.7740700739177 361.4785832090779 424.9310391815585 373.26055231671864 434.13255909676815 378.57305231671864 L 435.4315972024448 379.32305231671864 Z" fill-opacity="1"/></g></g><g><g><path fill="rgb(244,244,245)" stroke="none" paint-order="stroke fill markers" d=" M 421.6163739249344 413.7577165574407 L 425.82023093227997 417.4003793900113 L 439.8997367121036 401.15176354139476 L 411.5591276738189 376.59448601844656 L 397.47962189399533 392.8431018670631 L 401.6834789013409 396.48576469963376 L 411.7519626857496 384.86611499393706 L 419.59286451967506 391.6602951086194 L 410.87503099902847 401.7212113172105 L 415.12612235477116 405.4048029456527 L 423.84395587541775 395.3438867370616 L 431.6848577093432 402.13806685174393 Z" fill-opacity="1"/></g></g><g><g><path fill="rgb(244,244,245)" stroke="none" paint-order="stroke fill markers" d=" M 389.70942808605133 448.6346248276744 L 410.09768023094233 432.6011261225774 L 406.58190099681264 428.1304491462278 L 398.7704983678062 434.2734040717951 L 379.1053156186632 409.2670899952902 L 374.33986873178503 413.01467884925256 L 394.00505148092805 438.0209929257575 L 386.19364885192164 444.1639478513248 Z" fill-opacity="1"/></g></g><g><g><path fill="rgb(244,244,245)" stroke="none" paint-order="stroke fill markers" d=" M 346.6307194078544 430.82226783027306 L 341.18660228484293 433.62890527585347 L 358.37009684962084 466.96023460041306 L 363.8142139726323 464.1535971548327 Z" fill-opacity="1"/></g></g><g><g><path fill="rgb(244,244,245)" stroke="none" paint-order="stroke fill markers" d=" M 308.3054371219455 485.617629663548 L 300.4697503847932 458.9317313348948 L 328.2748846352972 479.7540708242857 L 334.151779098686 478.02845891363194 L 323.5868082171324 442.0474724030883 L 317.7099137537436 443.77308431374206 L 325.56320877569846 470.5189509532462 L 297.80043455124274 449.61903486820177 L 291.92354008785395 451.3446467788555 L 302.48851096940757 487.32563328939915 Z" fill-opacity="1"/></g></g><g><g><path fill="rgb(244,244,245)" stroke="none" paint-order="stroke fill markers" d=" M 260.14106400539464 492.63469928557413 L 285.961116997134 490.1691831623719 L 285.4204857508415 484.50743660273747 L 275.52798352027145 485.45205603307284 L 272.50401314265713 453.7836054962166 L 266.46896461205785 454.35988275874814 L 269.49293498967216 486.0283332956044 L 259.6004327591021 486.97295272593976 Z" fill-opacity="1"/></g></g><g><g><path fill="rgb(244,244,245)" stroke="none" paint-order="stroke fill markers" d=" M 230.56103914429465 453.5740081661958 C 219.98414996695564 452.56403770608887 210.57834626126422 460.33012466478317 209.56837580115726 470.9070138421222 C 208.55840534105033 481.4839030194612 216.3244922997446 490.8897067251526 226.90138147708362 491.8996771852596 C 237.47827065442266 492.90964764536653 246.88407436011408 485.14356068667223 247.89404482022104 474.5666715093332 C 248.90401528032797 463.9897823319942 241.1379283216337 454.5839786263028 230.56103914429465 453.5740081661958 Z M 229.98476188176306 459.60905669679516 C 237.32636731073956 460.3100950161635 242.56597561169656 466.58657182266427 241.8589962896217 473.9903942468016 C 241.15201696754684 481.39421667093893 234.81926416859173 486.5656669740286 227.47765873961524 485.86462865466024 C 220.07383631547793 485.1576493325854 214.89644500968174 478.88711352879113 215.6034243317566 471.4832911046538 C 216.31040365383146 464.07946868051647 222.58093945762573 458.9020773747203 229.98476188176306 459.60905669679516 Z" fill-opacity="1"/></g></g><g><g><path fill="rgb(244,244,245)" stroke="none" paint-order="stroke fill markers" d=" M 192.41567628135314 446.225117246566 C 184.2599860056299 443.8303905134139 176.6112975210122 447.25158850757856 174.56873648391186 454.2079125662837 L 167.43738113886317 478.4950784609007 L 173.31427560225197 480.22069037155444 L 180.14629010565665 456.95298576140283 C 181.44930318104824 452.5153307584358 186.01585749624502 450.2735707497913 190.81332236431751 451.68223353399844 C 195.61078723239 453.09089631820564 198.18046190845104 457.4280422183582 196.87744883305945 461.86569722132526 L 190.04543432965477 485.1334018314768 L 195.92232879304356 486.8590137421306 L 203.05368413809225 462.57184784751365 C 205.09624517519262 455.6155237888085 200.57136655707637 448.61984397971815 192.41567628135314 446.225117246566 Z" fill-opacity="1"/></g></g><g><g><path fill="rgb(244,244,245)" stroke="none" paint-order="stroke fill markers" d=" M 154.84831870268033 431.0222311521248 C 148.3487094843912 427.6714497119931 140.8763904702394 428.3897888037494 135.23831613174642 432.23356530006487 L 138.61594014482642 437.13910423847574 C 142.45045209088465 434.4750285290529 147.57059095589236 434.09102429335024 152.0703204147079 436.41079605959527 C 158.62548184853796 439.7902166573349 161.15703539391208 447.56446214464125 157.74897563856447 454.17517579401226 C 154.34091588321687 460.78588944338327 146.5397573379775 463.2332516156085 139.98459590414745 459.85383101786886 C 135.4848664453319 457.53405925162383 132.82769513460903 453.1405729508063 132.77355199280194 448.47175620882604 L 126.81840379500525 448.5659166690991 C 126.9577598727693 455.3881655566427 130.7069883978859 461.89161448520764 137.20659761617503 465.24239592533934 C 146.65047425813358 470.11105271869303 158.26888375268123 466.39705072394327 163.13754054603496 456.9531740819847 C 168.00619733938868 447.50929744002616 164.29219534463888 435.8908879454785 154.84831870268033 431.0222311521248 Z" fill-opacity="1"/></g></g><g><g><path fill="rgb(244,244,245)" stroke="none" paint-order="stroke fill markers" d=" M 93.04653214802893 435.07376206746 L 102.85980605428104 422.5951691884182 L 116.95963344122978 433.6833960037503 L 107.14635953497768 446.16198888279206 L 111.96093474027725 449.9482126733933 L 135.14189672354993 420.47122162053876 L 130.32732151825036 416.6849978299375 L 120.47541267535948 429.21271902740074 L 106.37558528841072 418.1244922120686 L 116.22749413130161 405.59677101460545 L 111.41291892600204 401.8105472240042 L 88.23195694272935 431.28753827685875 Z" fill-opacity="1"/></g></g><g><g><path fill="rgb(244,244,245)" stroke="none" paint-order="stroke fill markers" d=" M 108.41635999840615 392.48941720953025 L 88.77053798004759 369.81692997890246 L 85.227961850262 372.886589669271 L 104.87378386862056 395.55907689989874 Z" fill-opacity="1"/></g></g><g><g><path fill="rgb(244,244,245)" stroke="none" paint-order="stroke fill markers" d=" M 54.943402797555244 362.65206329386837 L 59.38178299195049 360.08956329386837 L 53.00678299195049 349.0477393956168 C 58.62817588823795 347.53427750129345 64.56940091563918 349.94978110795216 67.63190091563918 355.25418670613186 C 71.35065091563918 361.6952506467786 69.27725484387867 369.6040233062757 62.83619090323191 373.3227733062757 C 56.39512696258515 377.0415233062757 48.509230890824625 374.8827506467786 44.79048089082462 368.44168670613186 C 42.25923089082461 364.05743309947314 42.43042416349529 358.97894854565277 44.8777789541061 354.96789138713774 L 39.81708250596236 351.82750801726945 C 36.245930083255736 357.6420905795689 35.91520188038146 365.1942525286947 39.54020188038146 371.47293670613186 C 44.88395188038146 380.72858320907807 56.63467098802225 383.8314257289823 65.83619090323191 378.5189257289823 C 75.03771081844157 373.2064257289823 78.22592992608234 361.478583209078 72.88217992608234 352.22293670613186 C 67.56967992608233 343.0214167909222 55.78771081844155 339.8644476832814 46.586190903231895 345.1769476832814 L 45.28715279755524 345.9269476832814 Z" fill-opacity="1"/></g></g><g><g><path fill="rgb(244,244,245)" stroke="none" paint-order="stroke fill markers" d=" M 22.37347043305759 316.7452812456423 L 17.116903378957247 318.5645967915954 L 24.148864590281818 338.8821143939608 L 59.58639529208188 326.6170657695575 L 52.55443408075732 306.29954816719214 L 47.297867026656974 308.1188637131453 L 52.32653696266233 322.6482513008833 L 42.52215346849765 326.04158142030155 L 38.168061206834466 313.4612580211625 L 32.85243160156446 315.301015314823 L 37.20652386322764 327.88133871396207 L 27.402140369062955 331.2746688333803 Z" fill-opacity="1"/></g></g><g><g><path fill="rgb(244,244,245)" stroke="none" paint-order="stroke fill markers" d=" M 8.122654785017168 271.67460145687835 L 11.813945902730502 297.34809510566504 L 17.443555353428305 296.5386794629857 L 16.029301648087532 286.70232888429393 L 47.51799626792471 282.17493809172504 L 46.65521256089291 276.17414560032194 L 15.166517941055744 280.7015363928908 L 13.752264235714968 270.86518581419904 Z" fill-opacity="1"/></g></g><g><g><path fill="rgb(244,244,245)" stroke="none" paint-order="stroke fill markers" d=" M 45.08796278514264 243.2735238780313 L 45.37940201956307 237.15546142553538 L 7.921876800200266 235.37113958214505 L 7.630437565779843 241.48920203464098 Z" fill-opacity="1"/></g></g><g><g><path fill="rgb(244,244,245)" stroke="none" paint-order="stroke fill markers" d=" M 16.79642857092074 182.68517489458708 L 43.82493781491925 189.242220288443 L 11.889695725630801 202.91100316032077 L 10.445672245635564 208.8633490163025 L 46.888606057768385 217.704309097906 L 48.33262953776362 211.75196324192427 L 21.24338207074489 205.18018291459902 L 53.22462744958422 191.5868731992108 L 54.66865092957946 185.63452734322908 L 18.225717117446635 176.79356726162558 Z" fill-opacity="1"/></g></g><g><g><path fill="rgb(244,244,245)" stroke="none" paint-order="stroke fill markers" d=" M 34.80165457639745 137.46506940728872 L 24.026827676661036 161.05864928679654 L 29.20035965023986 163.4213221732448 L 33.3285463419461 154.38185421940923 L 62.266214194161726 167.59724432053176 L 64.78466771048566 162.08260034869497 L 35.84699985827004 148.86721024757247 L 39.97518654997628 139.82774229373695 Z" fill-opacity="1"/></g></g><g><g><path fill="rgb(244,244,245)" stroke="none" paint-order="stroke fill markers" d=" M 83.41921780570632 131.37836199269003 C 89.58232246990029 122.7234925021552 87.55959572851773 110.69478407066947 78.90472623798291 104.53167940647549 C 70.24985674744809 98.36857474228151 58.22114831596237 100.39130148366408 52.058043651768386 109.0461709741989 C 45.89493898757441 117.70104046473372 47.917665728956976 129.72974889621943 56.5725352194918 135.8928535604134 C 65.2274047100266 142.0559582246074 77.25611314151234 140.03323148322482 83.41921780570632 131.37836199269003 Z M 78.48085109640115 127.86176697841464 C 74.20293138831357 133.86926462478587 66.14753887714156 135.26866011604403 60.08913023376718 130.95448685110827 C 54.03072159039281 126.64031358617248 52.71849065298596 118.57026363484552 56.99641036107355 112.56276598847428 C 61.31058362600933 106.50435734509992 69.32972258033315 105.15587285084487 75.38813122370753 109.47004611578066 C 81.4465398670819 113.78421938071644 82.79502436133694 121.80335833504026 78.48085109640115 127.86176697841464 Z" fill-opacity="1"/></g></g><g><g><path fill="rgb(244,244,245)" stroke="none" paint-order="stroke fill markers" d=" M 108.8562254632173 102.01795417662198 C 115.0079647871104 96.15228257902403 115.86946465509624 87.81772504862926 110.86639182185093 82.5706532723675 L 93.39876684370996 64.25113543283291 L 88.96589586031641 68.47786937816085 L 105.70031188875762 86.02841980220879 C 108.8919273168624 89.37568972844474 108.55007127593814 94.45132177748884 104.93140108541279 97.9017168348994 C 101.31273089488744 101.35211189230996 96.27181502740524 101.40894249116407 93.08019959930047 98.06167256492812 L 76.34578357085925 80.51112214088018 L 71.9129125874657 84.73785608620811 L 89.38053756560666 103.0573739257427 C 94.38361039885197 108.30444570200446 102.7044861393242 107.88362577421994 108.8562254632173 102.01795417662198 Z" fill-opacity="1"/></g></g><g><g><path fill="rgb(244,244,245)" stroke="none" paint-order="stroke fill markers" d=" M 140.80598982118082 77.08511120765817 C 146.95765628000882 73.13167523001411 150.0717158850923 66.30128759269898 149.56194496206004 59.496683738981204 L 143.62481161560248 59.969022469535396 C 144.0147128845386 64.62184508064814 141.7872008753141 69.24801752650018 137.52835486535625 71.98501166486915 C 131.3241100607263 75.97223769360419 123.32563920077537 74.27750463128555 119.30462312094936 68.02068148085365 C 115.28360704112335 61.76385833042174 117.06470850033489 53.784175765181786 123.26895330496485 49.79694973644675 C 127.5277993149227 47.059955598077785 132.66125571797104 46.955520891193345 136.7316411930436 49.24303992593784 L 139.62766994131343 44.03865007320826 C 133.6497510548785 40.74821153295187 126.1429848079683 40.74341421601366 119.99131834914029 44.696850193657724 C 111.05299956280899 50.44115887912345 108.4602148926946 62.35999765034692 114.20452357816032 71.29831643667822 C 119.94883226362606 80.23663522300951 131.86767103484954 82.82941989312391 140.80598982118082 77.08511120765817 Z" fill-opacity="1"/></g></g><g><g><path fill="rgb(244,244,245)" stroke="none" paint-order="stroke fill markers" d=" M 168.19815440160832 21.53742859439889 L 174.09829588521603 36.27526953102904 L 157.44569608674024 42.94196482943617 L 151.54555460313253 28.204123892806024 L 145.8593010134091 30.480556433725532 L 159.7966431006714 65.29435392182825 L 165.48289669039482 63.01792138090874 L 159.55952630330836 48.22205744846509 L 176.21212610178415 41.55536215005795 L 182.13549648887064 56.351226082501604 L 187.82175007859408 54.074793541582096 L 173.88440799133178 19.26099605347938 Z" fill-opacity="1"/></g></g><g><g><path fill="rgb(244,244,245)" stroke="none" paint-order="stroke fill markers" d=" M 197.39236492690412 56.140262393583974 L 226.8502258447853 50.46272506277166 L 225.96311063684587 45.85993429435272 L 196.50524971896468 51.53747162516504 Z" fill-opacity="1"/></g></g></g></g></svg>