<svg version="1.1" xmlns="http://www.w3.org/2000/svg" xmlns:xlink="http://www.w3.org/1999/xlink" width="500" height="500" viewBox="0 0 500 500"><defs/><g><g><g><g><path fill="rgb(245,158,11)" stroke="none" paint-order="stroke fill markers" d=" M 272.9 28.049999999999997 L 272.9 28.049999999999997 Q 272.9 37.55 266.2 44.25 Q 259.5 50.95 250 50.95 L 250 50.95 Q 240.5 50.95 233.8 44.25 Q 227.1 37.55 227.1 28.049999999999997 L 227.1 28.049999999999997 Q 227.1 18.6 233.8 11.899999999999999 Q 240.5 5.199999999999996 250 5.199999999999996 L 250 5.199999999999996 Q 259.5 5.199999999999996 266.2 11.899999999999999 Q 272.9 18.6 272.9 28.049999999999997 Z M 268.55 27.9 L 268.55 27.9 Q 268.55 20.299999999999997 263.2 14.924999999999997 Q 257.85 9.549999999999997 250.25 9.549999999999997 L 250.25 9.549999999999997 Q 242.65 9.549999999999997 237.3 14.924999999999997 Q 231.95 20.299999999999997 231.95 27.9 L 231.95 27.9 Q 231.95 35.45 237.325 40.825 Q 242.7 46.2 250.25 46.2 L 250.25 46.2 Q 257.85 46.2 263.2 40.825 Q 268.55 35.45 268.55 27.9 Z M 264 27.9 L 264 27.9 Q 264 33.55 259.975 37.575 Q 255.95 41.6 250.25 41.6 L 250.25 41.6 Q 244.6 41.6 240.575 37.575 Q 236.55 33.55 236.55 27.9 L 236.55 27.9 Q 236.55 22.2 240.575 18.174999999999997 Q 244.6 14.149999999999999 250.25 14.149999999999999 L 250.25 14.149999999999999 Q 255.95 14.149999999999999 259.975 18.174999999999997 Q 264 22.2 264 27.9 Z M 255.7 35.55 L 255.7 35.55 L 255.7 26.599999999999998 L 251.45 26.599999999999998 L 251.45 29 L 252.35 29 L 252.35 35.3 L 248.25 35.3 L 248.25 20.75 L 252.35 20.75 L 252.35 23.9 L 255.7 23.9 L 255.7 20.15 Q 255.7 19.4 254.9 18.9 Q 254.1 18.4 252.9 18.4 L 252.9 18.4 L 247.55 18.4 Q 246.35 18.4 245.55 18.949999999999996 Q 244.75 19.5 244.75 20.2 L 244.75 20.2 L 244.75 35.65 Q 244.75 36.4 245.55 36.95 Q 246.35 37.5 247.55 37.5 L 247.55 37.5 L 252.95 37.5 Q 254.15 37.5 254.925 36.9 Q 255.7 36.3 255.7 35.55 Z" fill-opacity="1"/></g></g><g><g><path fill="rgb(245,158,11)" stroke="none" paint-order="stroke fill markers" d=" M 318.54557983380585 37.6613177368585 L 318.54557983380585 37.6613177368585 Q 316.5704187710371 46.953719943829654 308.62382151764166 52.114300540267166 Q 300.67722426424615 57.27488113670468 291.384822057275 55.299720073935966 L 291.384822057275 55.299720073935966 Q 282.0924198503038 53.32455901116725 276.9318392538663 45.377961757771764 Q 271.7712586574288 37.431364504376276 273.74641972019754 28.138962297405122 L 273.74641972019754 28.138962297405122 Q 275.71118519842537 18.895467470470663 283.6577824518208 13.734886874033144 Q 291.60437970521633 8.574306277595639 300.8967819121875 10.549467340364352 L 300.8967819121875 10.549467340364352 Q 310.18918411915865 12.524628403133065 315.34976471559617 20.471225656528553 Q 320.5103453120337 28.41782290992404 318.54557983380585 37.6613177368585 Z M 314.32182452423643 36.61017974169118 L 314.32182452423643 36.61017974169118 Q 315.9019533744514 29.176257976114254 311.786389048671 22.80638707629504 Q 307.67082472289064 16.43651617647582 300.2369029573137 14.856387326260844 L 300.2369029573137 14.856387326260844 Q 292.80298119173676 13.276258476045875 286.45236618966544 17.42147428411507 Q 280.1017511875941 21.56669009218426 278.52162233737914 29.000611857761182 L 278.52162233737914 29.000611857761182 Q 276.95188907170507 36.38562624330142 281.09190708750384 42.76069493539108 Q 285.23192510330256 49.13576362748074 292.61693948884283 50.70549689315482 L 292.61693948884283 50.70549689315482 Q 300.0508612544197 52.2856257433698 306.40147625649104 48.1404099353006 Q 312.75209125856236 43.995194127231414 314.32182452423643 36.61017974169118 Z M 309.87125294089765 35.66418154847037 L 309.87125294089765 35.66418154847037 Q 308.6965518877773 41.19071549261638 303.92266323928226 44.29091503002846 Q 299.1487745907872 47.391114567440546 293.5733332666045 46.20601792977932 L 293.5733332666045 46.20601792977932 Q 288.0467993224585 45.03131687665898 284.94659978504643 40.25742822816393 Q 281.84640024763434 35.483539579668886 283.02110130075465 29.957005635522876 L 283.02110130075465 29.957005635522876 Q 284.20619793841587 24.381564311340185 288.98008658691094 21.281364773928097 Q 293.753975235406 18.181165236516016 299.280509179552 19.355866289636353 L 299.280509179552 19.355866289636353 Q 304.8559505037347 20.540962927297585 307.95615004114677 25.314851575792627 Q 311.05634957855887 30.08874022428768 309.87125294089765 35.66418154847037 Z M 291.78477267697605 41.63425120156277 L 299.75667562295655 43.3287314817275 L 300.2140813427556 41.17680676011313 L 292.97578909732545 39.63826024806171 L 294.26484158039557 33.57374512351212 L 301.5031338258257 35.11229163556354 L 302.02291305287014 32.66692263372902 L 294.78462080744 31.128376121677604 L 296.00090419872384 25.40621265738484 L 303.239196444154 26.94475916943626 L 303.72778891757577 24.646112307711814 L 295.75588597159526 22.951632027547078 Q 294.5821088507147 22.702137998565767 293.7096930301962 23.078987618585593 Q 292.8372772096777 23.455837238605426 292.6917390261053 24.14054055911909 L 292.6917390261053 24.14054055911909 L 289.4795034029709 39.25292099045639 Q 289.3235696348576 39.98653169100674 289.96728259547655 40.685644431794096 Q 290.6109955560955 41.38475717258146 291.78477267697605 41.63425120156277 L 291.78477267697605 41.63425120156277 Z" fill-opacity="1"/></g></g><g><g><path fill="rgb(245,158,11)" stroke="none" paint-order="stroke fill markers" d=" M 361.1953889106894 56.552854802660555 L 361.1953889106894 56.552854802660555 Q 357.3313908014693 65.23153665026527 348.485500726656 68.62715570786283 Q 339.63961065184276 72.0227747654604 330.96092880423805 68.15877665624029 L 330.96092880423805 68.15877665624029 Q 322.28224695663334 64.29477854702019 318.8866278990358 55.4488884722069 Q 315.4910088414382 46.60299839739361 319.35500695065826 37.924316549788905 L 319.35500695065826 37.924316549788905 Q 323.1986682277246 29.291311975066336 332.0445583025379 25.895692917468764 Q 340.89044837735116 22.5000738598712 349.56913022495587 26.3640719690913 L 349.56913022495587 26.3640719690913 Q 358.2478120725606 30.228070078311397 361.64343113015815 39.07396015312469 Q 365.0390501877557 47.91985022793798 361.1953889106894 56.552854802660555 Z M 357.28247666640544 54.646518586634436 L 357.28247666640544 54.646518586634436 Q 360.37367515378156 47.70357310855067 357.67241641192606 40.617225233266154 Q 354.97115767007057 33.530877357981645 348.0282121919868 30.43967887060556 L 348.0282121919868 30.43967887060556 Q 341.085266713903 27.348480383229486 334.0115890589827 30.082746177602928 Q 326.93791140406233 32.81701197197638 323.8467129166863 39.75995745006015 L 323.8467129166863 39.75995745006015 Q 320.77585126146397 46.65722565526178 323.49994863976053 53.753741946623194 Q 326.2240460180571 60.8502582379846 333.1213142232587 63.921119893206885 L 333.1213142232587 63.921119893206885 Q 340.0642597013425 67.01231838058297 347.13793735626285 64.27805258620953 Q 354.2116150111832 61.54378679183608 357.28247666640544 54.646518586634436 Z M 353.1258448341316 52.79586686063954 L 353.1258448341316 52.79586686063954 Q 350.82778280075337 57.95739869632024 345.5136473453618 59.99730417495161 Q 340.1995118899702 62.037209653582984 334.99230278140743 59.718810788050924 L 334.99230278140743 59.718810788050924 Q 329.8307709457267 57.42074875467265 327.79086546709533 52.106613299281086 Q 325.750959988464 46.79247784388953 328.04902202184223 41.63094600820883 L 328.04902202184223 41.63094600820883 Q 330.3674208873743 36.423736899646 335.6815563427659 34.38383142101463 Q 340.9956917981574 32.34392594238325 346.1572236338381 34.64198797576152 L 346.1572236338381 34.64198797576152 Q 351.36443274240094 36.960386841293584 353.40433822103233 42.274522296685156 Q 355.4442436996637 47.58865775207672 353.1258448341316 52.79586686063954 Z M 345.07146634041237 41.38317712158535 L 348.45158453369004 42.8881027009658 L 349.4277524770719 40.69559360262357 L 339.4701069887676 36.26216419309735 L 338.4939390453857 38.45467329143959 L 342.0110890573097 40.020609367281416 L 335.2185871179438 55.27681850991285 L 338.27896440104655 56.63938626421678 L 345.07146634041237 41.38317712158535 Z" fill-opacity="1"/></g></g><g><g><path fill="rgb(245,158,11)" stroke="none" paint-order="stroke fill markers" d=" M 398.9854259175007 83.89896037597804 L 398.9854259175007 83.89896037597804 Q 393.40146602072224 91.58462182254003 384.04289096805053 93.06687449449262 Q 374.6843159153788 94.54912716644519 366.9986544688168 88.9651672696667 L 366.9986544688168 88.9651672696667 Q 359.31299302225483 83.3812073728882 357.8307403503022 74.02263232021649 Q 356.34848767834967 64.66405726754476 361.93244757512815 56.97839582098276 L 361.93244757512815 56.97839582098276 Q 367.487018209292 49.33318522413951 376.84559326196376 47.85093255218693 Q 386.20416831463547 46.36867988023435 393.88982976119746 51.95263977701285 L 393.88982976119746 51.95263977701285 Q 401.57549120775946 57.53659967379134 403.057743879712 66.89517472646307 Q 404.5399965516646 76.25374977913478 398.9854259175007 83.89896037597804 Z M 395.5543697798136 81.22074197934954 L 395.5543697798136 81.22074197934954 Q 400.0215376972364 75.07221282209994 398.8526425084025 67.57909537756986 Q 397.6837473195685 60.085977933039786 391.5352181623189 55.61881001561699 L 391.5352181623189 55.61881001561699 Q 385.38668900506934 51.151642098194195 377.8991023540913 52.3554573431948 Q 370.4115157031133 53.55927258819542 365.9443477856905 59.70780174544502 L 365.9443477856905 59.70780174544502 Q 361.5065691308823 65.81588005297587 362.69568974457565 73.32369212881326 Q 363.8848103582689 80.83150420465064 369.9928886657998 85.26928285945881 L 369.9928886657998 85.26928285945881 Q 376.1414178230494 89.73645077688161 383.6290044740274 88.532635531881 Q 391.1165911250054 87.32882028688039 395.5543697798136 81.22074197934954 Z M 391.87334245540757 78.54631908141879 L 391.87334245540757 78.54631908141879 Q 388.5523557799551 83.11726509963724 382.93022673711874 84.0077228615192 Q 377.30809769428237 84.89818062340116 372.69670082634514 81.54780468533406 L 372.69670082634514 81.54780468533406 Q 368.1257548081267 78.22681800988158 367.23529704624474 72.60468896704522 Q 366.3448392843628 66.98255992420886 369.66582595981527 62.41161390599039 L 369.66582595981527 62.41161390599039 Q 373.01620189788235 57.80021703805319 378.63833094071873 56.90975927617123 Q 384.2604599835551 56.019301514289275 388.83140600177353 59.34028818974175 L 388.83140600177353 59.34028818974175 Q 393.44280286971076 62.690664127808844 394.33326063159274 68.31279317064521 Q 395.22371839347466 73.93492221348158 391.87334245540757 78.54631908141879 Z M 373.679779033484 77.13237070455158 L 376.5113385137963 79.18961908757522 L 387.73803683258257 63.73739449501373 L 384.90647735227026 61.680146111990084 L 373.679779033484 77.13237070455158 Z" fill-opacity="1"/></g></g><g><g><path fill="rgb(245,158,11)" stroke="none" paint-order="stroke fill markers" d=" M 430.2640849003255 118.50447842208374 L 430.2640849003255 118.50447842208374 Q 423.20420905829025 124.86121918249289 413.74196366498734 124.3653239143987 Q 404.27971827168443 123.86942864630451 397.9229775112753 116.80955280426926 L 397.9229775112753 116.80955280426926 Q 391.56623675086615 109.74967696223402 392.0621320189603 100.28743156893113 Q 392.55802728705453 90.82518617562823 399.61790312908977 84.46844541521908 L 399.61790312908977 84.46844541521908 Q 406.64062172985115 78.14516118512788 416.10286712315406 78.64105645322206 Q 425.5651125164569 79.13695172131625 431.9218532768661 86.19682756335149 L 431.9218532768661 86.19682756335149 Q 438.27859403727524 93.25670340538674 437.782698769181 102.71894879868964 Q 437.28680350108687 112.18119419199253 430.2640849003255 118.50447842208374 Z M 427.4648384864861 115.17142884030325 L 427.4648384864861 115.17142884030325 Q 433.11273916011424 110.08603623197592 433.52729385303536 102.513634406493 Q 433.9418485459565 94.94123258101008 428.85645593762916 89.29333190738188 L 428.85645593762916 89.29333190738188 Q 423.7710633293018 83.64543123375368 416.19681114834094 83.26618342662849 Q 408.62255896738003 82.88693561950329 402.9746582937519 87.97232822783062 L 402.9746582937519 87.97232822783062 Q 397.3639148613975 93.02426430583999 396.9660884336354 100.61524475195985 Q 396.56826200587324 108.20622519807971 401.62019808388266 113.81696863043403 L 401.62019808388266 113.81696863043403 Q 406.70559069220997 119.46486930406223 414.2798428731709 119.84411711118743 Q 421.85409505413173 120.22336491831263 427.4648384864861 115.17142884030325 Z M 424.42029422755326 111.7901198843811 L 424.42029422755326 111.7901198843811 Q 420.221525963606 115.57070781030865 414.53711735046505 115.27280057835654 Q 408.8527087373241 114.97489334640443 405.03866428107864 110.7389678411833 L 405.03866428107864 110.7389678411833 Q 401.2580763551511 106.54019957723601 401.5559835871032 100.85579096409509 Q 401.8538908190553 95.17138235095418 406.0526590830026 91.39079442502663 L 406.0526590830026 91.39079442502663 Q 410.2885845882237 87.57674996878114 415.97299320136466 87.87465720073324 Q 421.6574018145056 88.17256443268535 425.4379897404331 92.37133269663263 L 425.4379897404331 92.37133269663263 Q 429.2520341966786 96.60725820185377 428.9541269647265 102.2916668149947 Q 428.6562197327744 107.9760754281356 424.42029422755326 111.7901198843811 Z M 409.5911019298434 109.66760821243611 L 411.73231987019176 112.04567165396377 L 425.92638603680996 99.26527707250958 L 423.6847985055078 96.77574190716031 L 415.51020542525646 104.13617857710774 L 420.7108680181668 93.39813366219408 L 418.6997754881343 91.23931295735372 L 404.50570932151606 104.0197075388079 L 406.8476664437721 106.62071442797878 L 414.27911469854604 99.92940836439021 L 409.5911019298434 109.66760821243611 Z" fill-opacity="1"/></g></g><g><g><path fill="rgb(245,158,11)" stroke="none" paint-order="stroke fill markers" d=" M 453.66433836995617 158.85698174666362 L 453.66433836995617 158.85698174666362 Q 445.43709703400395 163.60698174666362 436.2847268286482 161.15461154130787 Q 427.1323566232925 158.70224133595212 422.3823566232925 150.47499999999997 L 422.3823566232925 150.47499999999997 Q 417.6323566232925 142.2477586640478 420.08472682864823 133.09538845869207 Q 422.537097034004 123.94301825333632 430.76433836995614 119.19301825333632 L 430.76433836995614 119.19301825333632 Q 438.9482784357191 114.46801825333633 448.1006486410748 116.92038845869206 Q 457.25301884643056 119.37275866404781 462.00301884643056 127.59999999999997 L 462.00301884643056 127.59999999999997 Q 466.75301884643056 135.82724133595212 464.3006486410748 144.97961154130786 Q 461.84827843571907 154.1319817466636 453.66433836995617 158.85698174666362 Z M 451.6192421805238 155.0147712402013 L 451.6192421805238 155.0147712402013 Q 458.20103524928555 151.21477124020132 460.1809217946269 143.89403532995456 Q 462.16080833996824 136.5732994197078 458.36080833996823 129.99150635094608 L 458.36080833996823 129.99150635094608 Q 454.5608083399683 123.40971328218434 447.2309217946269 121.4639773719376 Q 439.90103524928554 119.51824146169085 433.3192421805238 123.31824146169086 L 433.3192421805238 123.31824146169086 Q 426.7807503819513 127.09324146169085 424.81336383660994 134.43562800703222 Q 422.8459772912686 141.77801455237358 426.62097729126856 148.31650635094607 L 426.62097729126856 148.31650635094607 Q 430.42097729126857 154.89829941970783 437.75086383660994 156.84403532995455 Q 445.0807503819513 158.7897712402013 451.6192421805238 155.0147712402013 Z M 449.3442421805238 151.07435565298212 L 449.3442421805238 151.07435565298212 Q 444.4511986491417 153.8993556529821 438.9529463989094 152.42610340274973 Q 433.454694148677 150.95285115251738 430.604694148677 146.0165063509461 L 430.604694148677 146.0165063509461 Q 427.779694148677 141.123462819564 429.2529463989094 135.62521056933164 Q 430.72619864914174 130.12695831909926 435.6192421805238 127.30195831909927 L 435.6192421805238 127.30195831909927 Q 440.5555869820951 124.45195831909928 446.05383923232745 125.92521056933163 Q 451.55209148255983 127.398462819564 454.3770914825598 132.29150635094607 L 454.3770914825598 132.29150635094607 Q 457.22709148255984 137.2278511525174 455.7538392323275 142.72610340274974 Q 454.2805869820951 148.2243556529821 449.3442421805238 151.07435565298212 Z M 449.53632381758257 137.10705080756884 L 451.38632381758254 140.31134480157127 L 453.4647847866652 139.11134480157128 L 448.0147847866652 129.6716679003209 L 445.93632381758255 130.8716679003209 L 447.86132381758256 134.20586570489098 L 433.3986995743824 142.55586570489098 L 435.07369957438243 145.45705080756883 L 449.53632381758257 137.10705080756884 Z" fill-opacity="1"/></g></g><g><g><path fill="rgb(245,158,11)" stroke="none" paint-order="stroke fill markers" d=" M 468.1634829628956 203.19287232163944 L 468.1634829628956 203.19287232163944 Q 459.12844605809164 206.12853376820144 450.68595353660197 201.82686897133607 Q 442.2434610151123 197.52520417447067 439.3077995685503 188.49016726966673 L 439.3077995685503 188.49016726966673 Q 436.3721381219883 179.45513036486278 440.6738029188537 171.01263784337308 Q 444.97546771571905 162.57014532188342 454.010504620523 159.63448387532142 L 454.010504620523 159.63448387532142 Q 462.99798869951223 156.71427327847817 471.4404812210019 161.01593807534354 Q 479.8829737424916 165.3176028722089 482.81863518905357 174.35263977701288 L 482.81863518905357 174.35263977701288 Q 485.75429663561556 183.38767668181683 481.4526318387502 191.83016920330653 Q 477.1509670418848 200.2726617247962 468.1634829628956 203.19287232163944 Z M 466.9619175148089 199.00942392659928 L 466.9619175148089 199.00942392659928 Q 474.189947038652 196.66089476934968 477.64863489383254 189.91177606240527 Q 481.107322749013 183.16265735546085 478.7587935917634 175.9346278316177 L 478.7587935917634 175.9346278316177 Q 476.4102644345138 168.70659830777453 469.64509473952137 165.2794122903608 Q 462.87992504452893 161.85222627294706 455.6518955206858 164.20075543019666 L 455.6518955206858 164.20075543019666 Q 448.47141882265737 166.53383373772752 445.02045639233626 173.30672885757932 Q 441.56949396201514 180.0796239774311 443.902572269546 187.2601006754595 L 443.902572269546 187.2601006754595 Q 446.2511014267956 194.48813019930267 453.01627112178807 197.9153162167164 Q 459.78144081678045 201.34250223413014 466.9619175148089 199.00942392659928 Z M 465.55589019040286 194.68211677745634 L 465.55589019040286 194.68211677745634 Q 460.1824208733352 196.4280627956748 455.11062499288806 193.84385371994597 Q 450.0388291124409 191.25964464421713 448.2774322445037 185.83862250133475 L 448.2774322445037 185.83862250133475 Q 446.53148622628527 180.46515318426714 449.1156953020141 175.39335730381998 Q 451.69990437774294 170.32156142337283 457.0733736948105 168.57561540515437 L 457.0733736948105 168.57561540515437 Q 462.49439583769293 166.8142185372172 467.5661917181401 169.398427612946 Q 472.63798759858724 171.98263668867483 474.3839336168057 177.35610600574245 L 474.3839336168057 177.35610600574245 Q 476.1453304847429 182.77712814862483 473.56112140901405 187.84892402907198 Q 470.9769123332852 192.92071990951914 465.55589019040286 194.68211677745634 Z M 455.6358119855221 189.23078222442717 L 455.6358119855221 189.23078222442717 L 470.3296351622822 184.4564696613342 Q 470.9953747236888 184.24015776527176 471.2403405127137 183.2142475536999 Q 471.4853063017386 182.18833734212805 471.11448590848863 181.04706952257385 L 471.11448590848863 181.04706952257385 L 469.50759753773895 176.10157563783906 Q 469.136777144489 174.9603078182849 468.3664824650267 174.36942195215497 Q 467.5961877855644 173.77853608602507 466.9304482241578 173.99484798208755 L 466.9304482241578 173.99484798208755 L 452.2366250473977 178.76916054518048 Q 451.5233326601763 179.00092329096168 451.24746517171394 179.93172785090402 Q 450.97159768325156 180.86253241084637 451.3424180765015 182.00380023040054 L 451.3424180765015 182.00380023040054 L 453.0111098461262 187.13950541839438 Q 453.3819302393762 188.28077323794858 454.15222491883844 188.87165910407847 Q 454.9225195983007 189.46254497020837 455.6358119855221 189.23078222442717 Z M 468.7713471471638 181.44038967865168 L 454.9334748350693 185.93658694680715 L 453.6510543084133 181.98970240418228 L 467.48892662050775 177.49350513602678 L 468.7713471471638 181.44038967865168 Z" fill-opacity="1"/></g></g><g><g><path fill="rgb(245,158,11)" stroke="none" paint-order="stroke fill markers" d=" M 473.12783648581757 249.57445898167774 L 473.12783648581757 249.57445898167774 Q 463.67987847981897 250.56747938272042 456.31624107695825 244.60452338764628 Q 448.95260367409753 238.64156739257214 447.9595832730548 229.19360938657354 L 447.9595832730548 229.19360938657354 Q 446.9665628720121 219.74565138057494 452.92951886708624 212.38201397771422 Q 458.89247486216044 205.0183765748535 468.34043286815904 204.0253561738108 L 468.34043286815904 204.0253561738108 Q 477.7386647793892 203.03756219593149 485.1023021822499 209.00051819100563 Q 492.4659395851106 214.9634741860798 493.45895998615333 224.4114321920784 L 493.45895998615333 224.4114321920784 Q 494.45198038719604 233.85939019807697 488.4890243921219 241.22302760093768 Q 482.52606839704777 248.5866650037984 473.12783648581757 249.57445898167774 Z M 472.8223159549085 245.23260946733558 L 472.8223159549085 245.23260946733558 Q 480.3806823597074 244.43819314650142 485.1670102688299 238.55566051621753 Q 489.95333817795245 232.6731278859336 489.15892185711823 225.11476148113474 L 489.15892185711823 225.11476148113474 Q 488.36450553628407 217.55639507633586 482.4597230701977 212.79754342617923 Q 476.55494060411127 208.03869177602263 468.99657419931236 208.8331080968568 L 468.99657419931236 208.8331080968568 Q 461.4879338892819 209.62229799452757 456.70421919174106 215.5296936721957 Q 451.92050449420026 221.43708934986378 452.70969439187104 228.94572965989425 L 452.70969439187104 228.94572965989425 Q 453.5041107127052 236.50409606469313 459.40889317879163 241.26294771484976 Q 465.31367564487806 246.0217993650064 472.8223159549085 245.23260946733558 Z M 472.34671144704066 240.70753484340995 L 472.34671144704066 240.70753484340995 Q 466.7276627382099 241.2981206608722 462.3039850447003 237.7158970966672 Q 457.8803073511907 234.1336735324622 457.2844951105651 228.46489872886303 L 457.2844951105651 228.46489872886303 Q 456.6939092931029 222.8458500200323 460.27613285730786 218.42217232652268 Q 463.85835642151284 213.99849463301308 469.4774051303436 213.40790881555085 L 469.4774051303436 213.40790881555085 Q 475.14617993394273 212.81209657492522 479.56985762745234 216.3943201391302 Q 483.99353532096194 219.9765437033352 484.5841211384242 225.59559241216596 L 484.5841211384242 225.59559241216596 Q 485.1799333790498 231.2643672157651 481.59770981484485 235.6880449092747 Q 478.0154862506398 240.1117226027843 472.34671144704066 240.70753484340995 Z M 461.0902608770791 225.45057510150815 L 461.93171500638374 233.45647635922276 L 480.92708320791775 231.45998271081058 L 480.5769128559711 228.12833436132686 L 463.62031453994206 229.91054466004036 L 463.1917478405447 225.83300488903043 L 480.1483461565737 224.05079459031694 L 479.7929493814637 220.6694201460648 L 462.4882684020558 222.48821540692197 Q 461.792103075298 222.56138533120932 461.37585168664623 223.38440403175358 Q 460.95960029799454 224.2074227322978 461.0902608770791 225.45057510150815 L 461.0902608770791 225.45057510150815 Z" fill-opacity="1"/></g></g><g><g><path fill="rgb(245,158,11)" stroke="none" paint-order="stroke fill markers" d=" M 468.34043286815904 295.97464382618915 L 468.34043286815904 295.97464382618915 Q 458.89247486216044 294.98162342514644 452.9295188670863 287.6179860222857 Q 446.9665628720121 280.254348619425 447.9595832730548 270.8063906134264 L 447.9595832730548 270.8063906134264 Q 448.95260367409753 261.3584326074278 456.31624107695825 255.39547661235366 Q 463.67987847981897 249.4325206172795 473.12783648581757 250.4255410183222 L 473.12783648581757 250.4255410183222 Q 482.52606839704777 251.4133349962015 488.4890243921219 258.77697239906223 Q 494.45198038719604 266.14060980192295 493.45895998615333 275.58856780792155 L 493.45895998615333 275.58856780792155 Q 492.4659395851106 285.03652581392015 485.1023021822499 290.9994818089943 Q 477.73866477938924 296.96243780406843 468.34043286815904 295.97464382618915 Z M 468.9443099676786 291.6641528508273 L 468.9443099676786 291.6641528508273 Q 476.5026763724774 292.45856917166145 482.40745883856385 287.69971752150485 Q 488.3122413046503 282.9408658713482 489.10665762548444 275.38249946654935 L 489.10665762548444 275.38249946654935 Q 489.9010739463186 267.82413306175044 485.1147460371961 261.94160043146655 Q 480.32841812807357 256.05906780118266 472.77005172327466 255.26465148034848 L 472.77005172327466 255.26465148034848 Q 465.2614114132442 254.4754615826777 459.3540157355761 259.2591762802185 Q 453.446620057908 264.0428909777594 452.6574301602372 271.5515312877898 L 452.6574301602372 271.5515312877898 Q 451.86301383940304 279.10989769258873 456.64934174852556 284.9924303228726 Q 461.4356696576481 290.8749629531565 468.9443099676786 291.6641528508273 Z M 469.41991447554636 287.13907822690163 L 469.41991447554636 287.13907822690163 Q 463.8008657667156 286.5484924094394 460.21864220251064 282.1248147159298 Q 456.63641863830566 277.7011370224202 457.23223087893126 272.03236221882105 L 457.23223087893126 272.03236221882105 Q 457.8228166963935 266.4133135099903 462.2464943899031 262.83108994578527 Q 466.6701720834127 259.2488663815803 472.28922079224344 259.8394521990425 L 472.28922079224344 259.8394521990425 Q 477.95799559584265 260.4352644396682 481.5402191600476 264.8589421331778 Q 485.1224427242526 269.2826198266874 484.5318569067904 274.9016685355181 L 484.5318569067904 274.9016685355181 Q 483.9360446661648 280.5704433391173 479.5123669726552 284.15266690332226 Q 475.08868927914557 287.7348904675273 469.41991447554636 287.13907822690163 Z M 474.620985077251 275.9212859041635 L 474.265588302141 279.3026603484156 L 477.99504540977205 279.6946420856693 Q 478.6912107365298 279.76781200995663 479.2969575022123 279.0270719368775 Q 479.90270426789476 278.28633186379847 480.0281384238159 277.0929055893565 L 480.0281384238159 277.0929055893565 L 480.58736570229786 271.77221344913625 Q 480.71279985821906 270.5787871746943 480.2494355863806 269.7256790036025 Q 479.7860713145422 268.8725708325107 479.0899059877844 268.79940090822333 L 479.0899059877844 268.79940090822333 L 463.72454270434457 267.18443615073807 Q 462.9786512828184 267.10603980328733 462.3480414697517 267.8441666647847 Q 461.71743165668505 268.58229352628217 461.59199750076385 269.77571980072406 L 461.59199750076385 269.77571980072406 L 461.0327702222819 275.09641194094434 Q 460.9073360663607 276.2898382153863 461.42303964454925 277.1233097622573 Q 461.9387432227378 277.95678130912825 462.6349085494956 278.0299512334156 L 462.6349085494956 278.0299512334156 L 466.46381784666346 278.4323858169961 L 466.8139881986101 275.1007374675124 L 463.2834354700527 274.7296614229122 L 463.7067757462867 270.7018477466707 L 478.17706932389507 272.22273688721504 L 477.75372904766107 276.25055056345656 L 474.620985077251 275.9212859041635 Z" fill-opacity="1"/></g></g><g><g><path fill="rgb(245,158,11)" stroke="none" paint-order="stroke fill markers" d=" M 454.0105046205231 340.3655161246786 L 454.0105046205231 340.3655161246786 Q 444.9754677157191 337.4298546781166 440.67380291885377 328.9873621566269 Q 436.37213812198837 320.5448696351372 439.30779956855037 311.5098327303333 L 439.30779956855037 311.5098327303333 Q 442.24346101511236 302.4747958255293 450.685953536602 298.17313102866393 Q 459.1284460580917 293.87146623179854 468.16348296289567 296.80712767836053 L 468.16348296289567 296.80712767836053 Q 477.1509670418849 299.7273382752038 481.4526318387503 308.1698307966935 Q 485.7542966356157 316.61232331818314 482.8186351890536 325.6473602229871 L 482.8186351890536 325.6473602229871 Q 479.88297374249163 334.6823971277911 471.44048122100196 338.98406192465643 Q 462.9979886995123 343.2857267215218 454.0105046205231 340.3655161246786 Z M 455.4973870234984 336.2747728279509 L 455.4973870234984 336.2747728279509 Q 462.7254165473415 338.6233019852005 469.49058624233396 335.1961159677868 Q 476.2557559373264 331.76892995037304 478.60428509457597 324.5409004265299 L 478.60428509457597 324.5409004265299 Q 480.9528142518256 317.3128709026867 477.49412639664513 310.5637521957423 Q 474.0354385414646 303.8146334887979 466.80740901762147 301.4661043315483 L 466.80740901762147 301.4661043315483 Q 459.62693231959304 299.13302602401745 452.85403719974124 302.58398845433857 Q 446.08114207988945 306.0349508846597 443.7480637723586 313.21542758268805 L 443.7480637723586 313.21542758268805 Q 441.399534615109 320.44345710653124 444.8582224702895 327.1925758134756 Q 448.31691032546996 333.94169452042007 455.4973870234984 336.2747728279509 Z M 456.9034143479044 331.947465678808 L 456.9034143479044 331.947465678808 Q 451.52994503083676 330.2015196605895 448.9457359551079 325.12972378014234 Q 446.3615268793791 320.0579278996952 448.1229237473163 314.63690575681284 L 448.1229237473163 314.63690575681284 Q 449.8688697655348 309.2634364397452 454.94066564598194 306.67922736401636 Q 460.0124615264291 304.0950182882875 465.3859308434967 305.840964306506 L 465.3859308434967 305.840964306506 Q 470.8069529863791 307.6023611744432 473.3911620621079 312.6741570548904 Q 475.97537113783676 317.7459529353375 474.22942511961827 323.1194222524051 L 474.22942511961827 323.1194222524051 Q 472.46802825168106 328.5404443952875 467.3962323712339 331.12465347101636 Q 462.32443649078675 333.70886254674514 456.9034143479044 331.947465678808 Z M 451.373319775939 317.90109411796993 L 450.338112844783 321.0871334475587 L 468.5032923060204 326.9893580401202 L 469.5384992371765 323.8033187105314 L 461.6447301519267 321.23847765721933 L 462.92715067858273 317.2915931145945 L 470.8684725896473 319.8718850176253 L 471.9191303705221 316.63829286222176 L 453.75395090928464 310.7360682696603 L 452.7032931284098 313.9696604250638 L 460.6446150394744 316.5499523280946 L 459.36219451281835 320.4968368707195 L 451.373319775939 317.90109411796993 Z" fill-opacity="1"/></g></g><g><g><path fill="rgb(245,158,11)" stroke="none" paint-order="stroke fill markers" d=" M 430.76433836995614 380.8069817466636 L 430.76433836995614 380.8069817466636 Q 422.537097034004 376.0569817466636 420.08472682864823 366.9046115413079 Q 417.6323566232925 357.75224133595214 422.3823566232925 349.5249999999999 L 422.3823566232925 349.5249999999999 Q 427.1323566232925 341.29775866404776 436.2847268286482 338.845388458692 Q 445.43709703400395 336.3930182533363 453.66433836995617 341.14301825333627 L 453.66433836995617 341.14301825333627 Q 461.84827843571907 345.8680182533363 464.3006486410748 355.020388458692 Q 466.75301884643056 364.17275866404776 462.00301884643056 372.3999999999999 L 462.00301884643056 372.3999999999999 Q 457.25301884643056 380.6272413359521 448.1006486410748 383.0796115413078 Q 438.9482784357191 385.5319817466636 430.76433836995614 380.8069817466636 Z M 433.0692421805238 377.11477124020126 L 433.0692421805238 377.11477124020126 Q 439.65103524928554 380.9147712402013 446.9809217946269 378.9690353299545 Q 454.3108083399683 377.02329941970777 458.1108083399683 370.44150635094604 L 458.1108083399683 370.44150635094604 Q 461.91080833996824 363.8597132821843 459.9309217946269 356.53897737193756 Q 457.95103524928555 349.2182414616908 451.3692421805238 345.4182414616908 L 451.3692421805238 345.4182414616908 Q 444.8307503819513 341.6432414616908 437.48836383660995 343.6106280070322 Q 430.1459772912686 345.57801455237353 426.37097729126856 352.11650635094605 L 426.37097729126856 352.11650635094605 Q 422.5709772912686 358.6982994197078 424.55086383660995 366.01903532995453 Q 426.5307503819513 373.3397712402013 433.0692421805238 377.11477124020126 Z M 435.3442421805238 373.17435565298206 L 435.3442421805238 373.17435565298206 Q 430.45119864914176 370.34935565298207 428.97794639890935 364.85110340274974 Q 427.504694148677 359.35285115251736 430.354694148677 354.41650635094607 L 430.354694148677 354.41650635094607 Q 433.179694148677 349.523462819564 438.67794639890934 348.0502105693316 Q 444.1761986491417 346.5769583190992 449.0692421805238 349.4019583190992 L 449.0692421805238 349.4019583190992 Q 454.0055869820951 352.25195831909923 455.47883923232746 357.7502105693316 Q 456.95209148255987 363.24846281956394 454.1270914825598 368.14150635094603 L 454.1270914825598 368.14150635094603 Q 451.27709148255985 373.0778511525173 445.77883923232747 374.55110340274973 Q 440.2805869820951 376.0243556529821 435.3442421805238 373.17435565298206 Z M 432.86914784157284 362.16134480157126 L 432.86914784157284 362.16134480157126 L 440.6200752054436 366.6363448015712 L 442.7450752054436 362.95573683548736 L 440.66661423636094 361.75573683548737 L 440.21661423636095 362.5351596988934 L 434.760654192519 359.38515969889335 L 436.81065419251894 355.83445554337715 L 449.41132381758257 363.1094555433772 L 447.36132381758256 366.6601596988934 L 444.6333437956616 365.0851596988934 L 442.95834379566156 367.98634480157125 L 446.2059390598532 369.86134480157125 Q 446.85545811269157 370.23634480157125 447.68847081458375 369.7935244785437 Q 448.521483516476 369.35070415551615 449.12148351647596 368.3114736709748 L 449.12148351647596 368.3114736709748 L 451.796483516476 363.67823776072805 Q 452.396483516476 362.63900727618676 452.32016954439456 361.6711869531592 Q 452.2438555723131 360.70336663013165 451.637637789664 360.35336663013163 L 451.637637789664 360.35336663013163 L 438.2575453011944 352.6283666301316 Q 437.60802624835605 352.2533666301316 436.73171227627466 352.6711869531592 Q 435.8553983041932 353.08900727618675 435.2553983041932 354.12823776072804 L 435.2553983041932 354.12823776072804 L 432.5553983041932 358.80477494116406 Q 431.9553983041932 359.84400542570535 432.08751354646387 360.8151751136383 Q 432.21962878873455 361.78634480157126 432.86914784157284 362.16134480157126 Z" fill-opacity="1"/></g></g><g><g><path fill="rgb(245,158,11)" stroke="none" paint-order="stroke fill markers" d=" M 399.6179031290898 415.5315545847809 L 399.6179031290898 415.5315545847809 Q 392.5580272870546 409.1748138243717 392.0621320189604 399.71256843106886 Q 391.5662367508662 390.25032303776595 397.92297751127535 383.1904471957307 L 397.92297751127535 383.1904471957307 Q 404.2797182716845 376.1305713536955 413.7419636649874 375.63467608560126 Q 423.2042090582903 375.13878081750704 430.26408490032554 381.49552157791624 L 430.26408490032554 381.49552157791624 Q 437.2868035010869 387.8188058080074 437.78269876918114 397.28105120131033 Q 438.2785940372753 406.7432965946132 431.92185327686616 413.8031724366485 L 431.92185327686616 413.8031724366485 Q 425.565112516457 420.8630482786837 416.1028671231541 421.3589435467779 Q 406.6406217298512 421.8548388148721 399.6179031290898 415.5315545847809 Z M 402.6400929905725 412.39924418490807 L 402.6400929905725 412.39924418490807 Q 408.28799366420066 417.4846367932354 415.86224584516157 417.10538898611014 Q 423.4364980261225 416.72614117898496 428.5218906344498 411.0782405053568 L 428.5218906344498 411.0782405053568 Q 433.6072832427771 405.4303398317286 433.192728549856 397.85793800624566 Q 432.77817385693487 390.28553618076273 427.1302731833067 385.2001435724354 L 427.1302731833067 385.2001435724354 Q 421.51952975095236 380.14820749442606 413.9285493048325 380.54603392218814 Q 406.33756885871264 380.9438603499503 401.2856327807033 386.55460378230464 L 401.2856327807033 386.55460378230464 Q 396.20024017237597 392.20250445593285 396.61479486529703 399.7749062814157 Q 397.02934955821814 407.34730810689865 402.6400929905725 412.39924418490807 Z M 405.6846372495053 409.0179352289859 L 405.6846372495053 409.0179352289859 Q 401.485868985558 405.23734730305836 401.1879617536059 399.5529386899174 Q 400.8900545216538 393.86853007677655 404.70409897789926 389.63260457155536 L 404.70409897789926 389.63260457155536 Q 408.48468690382686 385.4338363076081 414.16909551696773 385.135929075656 Q 419.85350413010866 384.83802184370387 424.05227239405593 388.6186097696314 L 424.05227239405593 388.6186097696314 Q 428.28819789927707 392.43265422587695 428.5861051312292 398.1170628390178 Q 428.8840123631813 403.80147145215875 425.10342443725375 408.000239716106 L 425.10342443725375 408.000239716106 Q 421.28937998100827 412.23616522132716 415.60497136786734 412.5340724532793 Q 409.92056275472646 412.8319796852314 405.6846372495053 409.0179352289859 Z M 409.55764539952554 390.36954902883775 L 404.10423095770085 396.4261793564785 L 405.7391495737511 397.898266690468 L 410.69071606080666 392.3989949819353 L 415.2982139787665 396.5476047413602 L 410.34664749171094 402.0468764498929 L 412.2045095554044 403.71970296579 L 417.15607604246 398.2204312572573 L 421.50347327150274 402.13484530445663 L 416.55190678444717 407.63411701298935 L 418.29829712431905 409.20657393793266 L 423.75171156614374 403.1499436102919 Q 424.5546682937744 402.25816981971906 424.6645148596899 401.3142107464767 Q 424.7743614256055 400.37025167323435 424.2541600477713 399.9018602487831 L 424.2541600477713 399.9018602487831 L 412.77257249414555 389.56379238053876 Q 412.21521387503753 389.06194442576964 411.2879080010968 389.26985983201723 Q 410.36060212715614 389.4777752382649 409.55764539952554 390.36954902883775 L 409.55764539952554 390.36954902883775 Z" fill-opacity="1"/></g></g><g><g><path fill="rgb(245,158,11)" stroke="none" paint-order="stroke fill markers" d=" M 361.93244757512815 443.02160417901723 L 361.93244757512815 443.02160417901723 Q 356.34848767834967 435.3359427324552 357.8307403503022 425.97736767978347 Q 359.31299302225483 416.61879262711176 366.9986544688168 411.0348327303333 L 366.9986544688168 411.0348327303333 Q 374.6843159153788 405.4508728335548 384.04289096805053 406.93312550550735 Q 393.40146602072224 408.41537817745996 398.9854259175007 416.10103962402195 L 398.9854259175007 416.10103962402195 Q 404.5399965516646 423.7462502208652 403.057743879712 433.1048252735369 Q 401.57549120775946 442.4634003262086 393.88982976119746 448.0473602229871 L 393.88982976119746 448.0473602229871 Q 386.20416831463547 453.63132011976563 376.84559326196376 452.149067447813 Q 367.48701820929205 450.6668147758605 361.93244757512815 443.02160417901723 Z M 365.53983928850306 440.5860908807012 L 365.53983928850306 440.5860908807012 Q 370.00700720592585 446.7346200379508 377.49459385690386 447.9384352829514 Q 384.9821805078819 449.142250527952 391.13070966513146 444.6750826105292 L 391.13070966513146 444.6750826105292 Q 397.27923882238105 440.20791469310643 398.44813401121496 432.71479724857636 Q 399.61702920004893 425.2216798040463 395.1498612826261 419.07315064679665 L 395.1498612826261 419.07315064679665 Q 390.71208262781795 412.9650723392658 383.2042705519805 411.7759517255725 Q 375.69645847614316 410.58683111187923 369.58838016861233 415.0246097666874 L 369.58838016861233 415.0246097666874 Q 363.4398510113627 419.49177768411016 362.2709558225288 426.9848951286403 Q 361.10206063369486 434.47801257317036 365.53983928850306 440.5860908807012 Z M 369.22086661290905 437.91166798277044 L 369.22086661290905 437.91166798277044 Q 365.8998799374566 433.34072196455196 366.7903376993385 427.71859292171564 Q 367.6807954612205 422.09646387887926 372.2921923291577 418.7460879408122 L 372.2921923291577 418.7460879408122 Q 376.86313834737615 415.4251012653597 382.4852673902125 416.31555902724165 Q 388.1073964330489 417.20601678912357 391.42838310850135 421.77696280734204 L 391.42838310850135 421.77696280734204 Q 394.77875904656844 426.3883596752792 393.8883012846865 432.0104887181156 Q 392.99784352280454 437.632617760952 388.42689750458607 440.9536044364045 L 388.42689750458607 440.9536044364045 Q 383.8155006366489 444.30398037447156 378.1933715938125 443.4135226125896 Q 372.57124255097614 442.5230648507076 369.22086661290905 437.91166798277044 Z M 383.1317350992996 436.64271646504164 L 380.1383722201123 438.81752189852375 L 381.54905682561423 440.7591626850236 L 390.36734206430117 434.3523034350357 L 388.9566574587992 432.41066264853583 L 385.8419420304557 434.67363586986187 L 376.02592831717135 421.16305206380025 L 373.3157213860153 423.13213265898 L 383.1317350992996 436.64271646504164 Z" fill-opacity="1"/></g></g><g><g><path fill="rgb(245,158,11)" stroke="none" paint-order="stroke fill markers" d=" M 319.3550069506584 462.07568345021105 L 319.3550069506584 462.07568345021105 Q 315.49100884143826 453.39700160260634 318.88662789903583 444.55111152779307 Q 322.2822469566334 435.7052214529798 330.9609288042381 431.8412233437597 L 330.9609288042381 431.8412233437597 Q 339.6396106518428 427.97722523453956 348.4855007266561 431.37284429213713 Q 357.33139080146935 434.7684633497347 361.1953889106895 443.4471451973394 L 361.1953889106895 443.4471451973394 Q 365.0390501877558 452.080149772062 361.6434311301582 460.92603984687526 Q 358.24781207256063 469.7719299216886 349.5691302249559 473.63592803090864 L 349.5691302249559 473.63592803090864 Q 340.8904483773512 477.49992614012876 332.04455830253795 474.1043070825312 Q 323.1986682277247 470.7086880249336 319.3550069506584 462.07568345021105 Z M 323.389940187865 460.44341087147774 L 323.389940187865 460.44341087147774 Q 326.48113867524114 467.3863563495615 333.5548163301615 470.12062214393495 Q 340.62849398508183 472.85488793830837 347.5714394631656 469.7636894509323 L 347.5714394631656 469.7636894509323 Q 354.5143849412493 466.67249096355624 357.2156436831048 459.5861430882717 Q 359.9169024249603 452.4997952129872 356.82570393758425 445.55684973490344 L 356.82570393758425 445.55684973490344 Q 353.75484228236195 438.65958152970177 346.65832599100054 435.93548415140526 Q 339.5618096996391 433.2113867731087 332.66454149443746 436.282248428331 L 332.66454149443746 436.282248428331 Q 325.7215960163537 439.37344691570706 323.0203372744982 446.45979479099157 Q 320.3190785326427 453.54614266627607 323.389940187865 460.44341087147774 Z M 327.54657202013885 458.59275914548283 L 327.54657202013885 458.59275914548283 Q 325.2485099867606 453.4312273098021 327.28841546539195 448.11709185441055 Q 329.32832094402335 442.802956399019 334.5355300525862 440.48455753348696 L 334.5355300525862 440.48455753348696 Q 339.6970618882669 438.18649550010866 345.0111973436584 440.22640097874006 Q 350.32533279905 442.2663064573714 352.6233948324283 447.4278382930521 L 352.6233948324283 447.4278382930521 Q 354.94179369796035 452.63504740161494 352.90188821932895 457.9491828570065 Q 350.8619827406976 463.26331831239804 345.7004509050169 465.56138034577634 L 345.7004509050169 465.56138034577634 Q 340.4932417964541 467.8797792113084 335.1791063410625 465.839873732677 Q 329.8649708856709 463.79996825404567 327.54657202013885 458.59275914548283 Z M 337.86786894510743 443.5436452251673 L 334.67045984335834 444.9672234759326 L 342.4391297261061 462.4159417169063 L 345.6365388278552 460.99236346614094 L 337.86786894510743 443.5436452251673 Z" fill-opacity="1"/></g></g><g><g><path fill="rgb(245,158,11)" stroke="none" paint-order="stroke fill markers" d=" M 273.7464197201976 471.8610377025949 L 273.7464197201976 471.8610377025949 Q 271.7712586574289 462.5686354956237 276.93183925386637 454.62203824222826 Q 282.0924198503039 446.67544098883275 291.3848220572751 444.700279926064 L 291.3848220572751 444.700279926064 Q 300.6772242642462 442.72511886329534 308.6238215176417 447.88569945973285 Q 316.57041877103717 453.04628005617036 318.5455798338059 462.3386822631415 L 318.5455798338059 462.3386822631415 Q 320.51034531203373 471.58217709007596 315.3497647155962 479.5287743434714 Q 310.1891841191587 487.4753715968669 300.8967819121876 489.45053265963566 L 300.8967819121876 489.45053265963566 Q 291.6043797052164 491.4256937224044 283.65778245182094 486.2651131259669 Q 275.7111851984254 481.10453252952937 273.7464197201976 471.8610377025949 Z M 278.0325485370123 471.1033439876477 L 278.0325485370123 471.1033439876477 Q 279.6126773872273 478.53726575322463 285.9632923892986 482.6824815612938 Q 292.3139073913699 486.827697369363 299.74782915694686 485.24756851914805 L 299.74782915694686 485.24756851914805 Q 307.1817509225238 483.66743966893307 311.2973152483042 477.2975687691138 Q 315.41287957408457 470.9276978692946 313.8327507238696 463.49377610371766 L 313.8327507238696 463.49377610371766 Q 312.2630174581955 456.10876171817745 305.88794876610586 451.96874370237873 Q 299.5128800740162 447.82872568657996 292.127865688476 449.39845895225403 L 292.127865688476 449.39845895225403 Q 284.69394392289905 450.978587802469 280.57837959711867 457.34845870228827 Q 276.46281527133823 463.7183296021075 278.0325485370123 471.1033439876477 Z M 282.48312012035115 470.1573457944269 L 282.48312012035115 470.1573457944269 Q 281.30841906723083 464.6308118502809 284.40861860464287 459.85692320178583 Q 287.50881814205496 455.0830345532908 293.08425946623765 453.89793791562954 L 293.08425946623765 453.89793791562954 Q 298.6107934103837 452.7232368625092 303.3846820588787 455.8234363999213 Q 308.15857070737377 458.92363593733336 309.3332717604941 464.4501698814794 L 309.3332717604941 464.4501698814794 Q 310.51836839815536 470.0256112056621 307.41816886074326 474.79949985415715 Q 304.31796932333117 479.57338850265216 298.79143537918515 480.74808955577254 L 298.79143537918515 480.74808955577254 Q 293.21599405500245 481.93318619343376 288.44210540650744 478.83298665602166 Q 283.66821675801236 475.73278711860956 282.48312012035115 470.1573457944269 Z M 291.73586529693944 458.3761443829781 L 288.6057929745912 459.041461793595 L 292.57690626921044 477.72408096761063 L 295.8537007316687 477.0275768033712 L 293.5666721326733 466.2679531952993 L 300.26576051951173 476.1408815747279 L 303.14090035713554 475.47863470677885 L 299.1697870625163 456.79601553276314 L 295.746270459948 457.5237064506253 L 297.82538736812563 467.3051824579634 L 291.73586529693944 458.3761443829781 Z" fill-opacity="1"/></g></g><g><g><path fill="rgb(245,158,11)" stroke="none" paint-order="stroke fill markers" d=" M 227.10000000000002 471.95 L 227.10000000000002 471.95 Q 227.10000000000002 462.45 233.8 455.75 Q 240.50000000000003 449.05 250.00000000000003 449.05 L 250.00000000000003 449.05 Q 259.5 449.05 266.20000000000005 455.75 Q 272.90000000000003 462.45 272.90000000000003 471.95 L 272.90000000000003 471.95 Q 272.90000000000003 481.4 266.20000000000005 488.1 Q 259.50000000000006 494.8 250.00000000000003 494.8 L 250.00000000000003 494.8 Q 240.50000000000003 494.8 233.80000000000004 488.1 Q 227.10000000000002 481.4 227.10000000000002 471.95 Z M 231.45000000000002 472.1 L 231.45000000000002 472.1 Q 231.45000000000002 479.7 236.80000000000004 485.075 Q 242.15000000000003 490.45 249.75000000000003 490.45 L 249.75000000000003 490.45 Q 257.35 490.45 262.70000000000005 485.075 Q 268.05 479.7 268.05 472.1 L 268.05 472.1 Q 268.05 464.55 262.675 459.175 Q 257.3 453.8 249.75000000000003 453.8 L 249.75000000000003 453.8 Q 242.15000000000003 453.8 236.80000000000004 459.175 Q 231.45000000000002 464.55 231.45000000000002 472.1 Z M 236.00000000000003 472.1 L 236.00000000000003 472.1 Q 236.00000000000003 466.45 240.02500000000003 462.425 Q 244.05000000000004 458.4 249.75000000000003 458.4 L 249.75000000000003 458.4 Q 255.40000000000003 458.4 259.425 462.425 Q 263.45000000000005 466.45 263.45000000000005 472.1 L 263.45000000000005 472.1 Q 263.45000000000005 477.8 259.425 481.825 Q 255.40000000000003 485.85 249.75000000000003 485.85 L 249.75000000000003 485.85 Q 244.05000000000004 485.85 240.02500000000003 481.825 Q 236.00000000000003 477.8 236.00000000000003 472.1 Z M 248.00000000000003 479.25 L 244.30000000000004 479.25 L 244.30000000000004 481.65 L 255.20000000000005 481.65 L 255.20000000000005 479.25 L 251.35000000000002 479.25 L 251.35000000000002 462.55 L 248.00000000000003 462.55 L 248.00000000000003 479.25 Z" fill-opacity="1"/></g></g><g><g><path fill="rgb(245,158,11)" stroke="none" paint-order="stroke fill markers" d=" M 181.4544201661942 462.3386822631415 L 181.4544201661942 462.3386822631415 Q 183.42958122896295 453.04628005617036 191.37617848235843 447.88569945973285 Q 199.3227757357539 442.72511886329534 208.61517794272504 444.700279926064 L 208.61517794272504 444.700279926064 Q 217.9075801496962 446.67544098883275 223.0681607461337 454.62203824222826 Q 228.22874134257123 462.5686354956237 226.25358027980252 471.8610377025949 L 226.25358027980252 471.8610377025949 Q 224.2888148015747 481.1045325295293 216.3422175481792 486.2651131259669 Q 208.39562029478373 491.4256937224044 199.10321808781256 489.45053265963566 L 199.10321808781256 489.45053265963566 Q 189.81081588084143 487.4753715968669 184.65023528440392 479.52877434347147 Q 179.4896546879664 471.58217709007596 181.4544201661942 462.3386822631415 Z M 185.6781754757636 463.3898202583088 L 185.6781754757636 463.3898202583088 Q 184.09804662554865 470.82374202388576 188.21361095132903 477.19361292370496 Q 192.32917527710944 483.56348382352417 199.76309704268638 485.14361267373914 L 199.76309704268638 485.14361267373914 Q 207.1970188082633 486.7237415239541 213.54763381033462 482.57852571588495 Q 219.89824881240594 478.4333099078157 221.47837766262091 470.9993881422388 L 221.47837766262091 470.9993881422388 Q 223.048110928295 463.61437375669857 218.90809291249624 457.2393050646089 Q 214.76807489669747 450.86423637251926 207.38306051115725 449.2945031068452 L 207.38306051115725 449.2945031068452 Q 199.9491387455803 447.7143742566302 193.59852374350902 451.8595900646994 Q 187.2479087414377 456.0048058727686 185.6781754757636 463.3898202583088 Z M 190.12874705910244 464.33581845152963 L 190.12874705910244 464.33581845152963 Q 191.30344811222278 458.8092845073836 196.0773367607178 455.7090849699715 Q 200.85122540921287 452.6088854325595 206.42666673339556 453.7939820702207 L 206.42666673339556 453.7939820702207 Q 211.95320067754156 454.968683123341 215.05340021495365 459.7425717718361 Q 218.15359975236572 464.5164604203311 216.9788986992454 470.0429943644771 L 216.9788986992454 470.0429943644771 Q 215.79380206158416 475.6184356886598 211.0199134130891 478.7186352260719 Q 206.24602476459407 481.818834763484 200.71949082044807 480.64413371036363 L 200.71949082044807 480.64413371036363 Q 195.14404949626538 479.4590370727024 192.0438499588533 474.6851484242074 Q 188.9436504214412 469.9112597757123 190.12874705910244 464.33581845152963 Z M 199.80978036899396 458.47044599508916 L 199.80978036899396 458.47044599508916 L 196.59754474585958 473.58282642642644 Q 196.45200656228715 474.2675297469401 197.2179879729978 474.9926314490797 Q 197.98396938370846 475.71773315121925 199.15774650458903 475.96722718020055 L 199.15774650458903 475.96722718020055 L 204.24411402840482 477.0483679724529 Q 205.4178911492854 477.2978620014342 206.31476065982218 476.92621017368486 Q 207.211630170359 476.55455834593545 207.35716835393146 475.86985502542177 L 207.35716835393146 475.86985502542177 L 210.56940397706583 460.7574745940845 Q 210.72533774517913 460.02386389353416 210.05717109454187 459.31955336047633 Q 209.38900444390458 458.61524282741857 208.215227323024 458.3657487984372 L 208.215227323024 458.3657487984372 L 202.93323027906146 457.24302566802135 Q 201.7594531581809 456.99353163904004 200.8625836476441 457.3651834667894 Q 199.96571413710728 457.7368352945388 199.80978036899396 458.47044599508916 Z M 199.9886906382676 473.74134941026233 L 203.013805739666 459.50930181958546 L 207.07311828271128 460.3721353364792 L 204.04800318131288 474.60418292715605 L 199.9886906382676 473.74134941026233 Z" fill-opacity="1"/></g></g><g><g><path fill="rgb(245,158,11)" stroke="none" paint-order="stroke fill markers" d=" M 138.80461108931064 443.44714519733947 L 138.80461108931064 443.44714519733947 Q 142.66860919853076 434.76846334973476 151.51449927334403 431.3728442921372 Q 160.36038934815733 427.9772252345396 169.03907119576203 431.84122334375974 L 169.03907119576203 431.84122334375974 Q 177.71775304336674 435.70522145297986 181.1133721009643 444.5511115277931 Q 184.50899115856188 453.3970016026064 180.6449930493418 462.0756834502111 L 180.6449930493418 462.0756834502111 Q 176.80133177227546 470.7086880249337 167.9554416974622 474.10430708253125 Q 159.1095516226489 477.4999261401288 150.4308697750442 473.63592803090876 L 150.4308697750442 473.63592803090876 Q 141.75218792743948 469.77192992168864 138.3565688698419 460.92603984687537 Q 134.96094981224434 452.08014977206204 138.80461108931064 443.44714519733947 Z M 142.71752333359458 445.3534814133656 L 142.71752333359458 445.3534814133656 Q 139.62632484621852 452.29642689144936 142.327583588074 459.38277476673386 Q 145.0288423299295 466.4691226420184 151.97178780801326 469.5603211293945 L 151.97178780801326 469.5603211293945 Q 158.91473328609703 472.65151961677054 165.98841094101738 469.91725382239713 Q 173.06208859593772 467.18298802802366 176.15328708331378 460.24004254993986 L 176.15328708331378 460.24004254993986 Q 179.2241487385361 453.34277434473825 176.50005136023952 446.24625805337683 Q 173.77595398194296 439.1497417620154 166.87868577674132 436.0788801067931 L 166.87868577674132 436.0788801067931 Q 159.93574029865755 432.98768161941706 152.86206264373723 435.72194741379053 Q 145.7883849888169 438.45621320816394 142.71752333359458 445.3534814133656 Z M 146.87415516586844 447.2041331393605 L 146.87415516586844 447.2041331393605 Q 149.1722171992467 442.0426013036798 154.48635265463827 440.0026958250484 Q 159.80048811002982 437.962790346417 165.00769721859265 440.2811892119491 L 165.00769721859265 440.2811892119491 Q 170.16922905427336 442.5792512453274 172.20913453290473 447.89338670071896 Q 174.2490400115361 453.2075221561105 171.95097797815782 458.3690539917912 L 171.95097797815782 458.3690539917912 Q 169.63257911262576 463.576263100354 164.3184436572342 465.6161685789854 Q 159.00430820184263 467.65607405761676 153.84277636616196 465.3580120242385 L 153.84277636616196 465.3580120242385 Q 148.63556725759912 463.03961315870646 146.59566177896775 457.7254777033149 Q 144.55575630033638 452.4113422479233 146.87415516586844 447.2041331393605 Z M 165.71529517185263 445.08424086028083 L 158.3612542378297 441.81001088352065 L 150.59258435508193 459.2587291244943 L 153.65296163818462 460.62129687879826 L 160.58782140262701 445.04534682599194 L 164.3333577789617 446.71296706260273 L 157.3984980145193 462.28891711540905 L 160.50455257050413 463.67182170186675 L 167.58177016002307 447.7761307388855 Q 167.86648581017613 447.1366489185357 167.361856402041 446.3646552913306 Q 166.8572269939059 445.5926616641256 165.71529517185263 445.08424086028083 L 165.71529517185263 445.08424086028083 Z" fill-opacity="1"/></g></g><g><g><path fill="rgb(245,158,11)" stroke="none" paint-order="stroke fill markers" d=" M 101.01457408249932 416.101039624022 L 101.01457408249932 416.101039624022 Q 106.59853397927782 408.41537817746 115.95710903194953 406.9331255055074 Q 125.31568408462125 405.45087283355485 133.00134553118326 411.03483273033333 L 133.00134553118326 411.03483273033333 Q 140.68700697774526 416.6187926271118 142.16925964969784 425.9773676797835 Q 143.65151232165042 435.33594273245524 138.0675524248719 443.02160417901723 L 138.0675524248719 443.02160417901723 Q 132.51298179070807 450.66681477586053 123.15440673803633 452.1490674478131 Q 113.79583168536462 453.6313201197657 106.11017023880261 448.0473602229872 L 106.11017023880261 448.0473602229872 Q 98.4245087922406 442.46340032620867 96.94225612028802 433.10482527353696 Q 95.46000344833546 423.74625022086525 101.01457408249932 416.101039624022 Z M 104.44563022018647 418.7792580206505 L 104.44563022018647 418.7792580206505 Q 99.97846230276367 424.9277871779001 101.1473574915976 432.42090462243016 Q 102.31625268043152 439.91402206696023 108.46478183768113 444.38118998438307 L 108.46478183768113 444.38118998438307 Q 114.61331099493073 448.84835790180585 122.10089764590874 447.64454265680524 Q 129.58848429688675 446.44072741180463 134.05565221430956 440.292198254555 L 134.05565221430956 440.292198254555 Q 138.49343086911773 434.18411994702416 137.3043102554244 426.6763078711868 Q 136.11518964173112 419.1684957953494 130.00711133420026 414.73071714054123 L 130.00711133420026 414.73071714054123 Q 123.85858217695066 410.26354922311845 116.37099552597266 411.46736446811906 Q 108.88340887499464 412.6711797131196 104.44563022018647 418.7792580206505 Z M 108.12665754459249 421.45368091858126 L 108.12665754459249 421.45368091858126 Q 111.44764422004496 416.8827349003628 117.06977326288133 415.99227713848086 Q 122.69190230571769 415.1018193765989 127.30329917365489 418.45219531466597 L 127.30329917365489 418.45219531466597 Q 131.87424519187334 421.7731819901185 132.76470295375532 427.3953110329548 Q 133.65516071563727 433.01744007579117 130.3341740401848 437.58838609400965 L 130.3341740401848 437.58838609400965 Q 126.9837981021177 442.1997829619468 121.36166905928133 443.0902407238288 Q 115.73954001644496 443.9806984857108 111.16859399822651 440.6597118102583 L 111.16859399822651 440.6597118102583 Q 106.55719713028931 437.3093358721912 105.66673936840735 431.6872068293548 Q 104.77628160652539 426.06507778651843 108.12665754459249 421.45368091858126 Z M 115.24101536960947 431.56683634790295 L 112.49035758873465 429.5683664901086 L 110.28616289263789 432.6021802190146 Q 109.87471321603314 433.1684921150771 110.21333955407957 434.0634542389579 Q 110.55196589212596 434.95841636283876 111.5227862853759 435.6637586655897 L 111.5227862853759 435.6637586655897 L 115.85102720528187 438.80840976535444 Q 116.8218475985318 439.5137520681054 117.79234308279263 439.53902092303315 Q 118.76283856705345 439.56428977796094 119.17428824365818 438.99797788189846 L 119.17428824365818 438.99797788189846 L 128.2555703915769 426.49866531880554 Q 128.69640933079626 425.8919025730243 128.37247762405715 424.9767150242841 Q 128.04854591731805 424.0615274755439 127.07772552406811 423.35618517279295 L 127.07772552406811 423.35618517279295 L 122.74948460416215 420.2115340730282 Q 121.77866421091221 419.5061917702772 120.79900488889614 419.5360683963755 Q 119.81934556688007 419.56594502247384 119.40789589027534 420.1322569185363 L 119.40789589027534 420.1322569185363 L 117.14492266894932 423.24697234687983 L 119.85512960010539 425.21605294205966 L 121.94176724574368 422.3440426120286 L 125.2182860729622 424.7245728838131 L 116.66601065210672 436.4957701519686 L 113.38949182488818 434.11523988018405 L 115.24101536960947 431.56683634790295 Z" fill-opacity="1"/></g></g><g><g><path fill="rgb(245,158,11)" stroke="none" paint-order="stroke fill markers" d=" M 69.73591509967454 381.4955215779163 L 69.73591509967454 381.4955215779163 Q 76.79579094170978 375.13878081750715 86.25803633501268 375.6346760856013 Q 95.72028172831557 376.13057135369553 102.07702248872472 383.19044719573077 L 102.07702248872472 383.19044719573077 Q 108.43376324913388 390.250323037766 107.9378679810397 399.7125684310689 Q 107.4419727129455 409.17481382437177 100.38209687091026 415.53155458478096 L 100.38209687091026 415.53155458478096 Q 93.3593782701489 421.85483881487215 83.897132876846 421.358943546778 Q 74.43488748354311 420.8630482786838 68.07814672313395 413.80317243664854 L 68.07814672313395 413.80317243664854 Q 61.721405962724795 406.7432965946133 62.217301230818975 397.2810512013104 Q 62.71319649891318 387.8188058080075 69.73591509967454 381.4955215779163 Z M 72.53516151351397 384.82857115969676 L 72.53516151351397 384.82857115969676 Q 66.88726083988577 389.91396376802413 66.47270614696467 397.48636559350706 Q 66.05815145404358 405.05876741899 71.14354406237089 410.70666809261814 L 71.14354406237089 410.70666809261814 Q 76.22893667069822 416.35456876624636 83.80318885165912 416.73381657337154 Q 91.37744103262 417.1130643804967 97.02534170624818 412.0276717721694 L 97.02534170624818 412.0276717721694 Q 102.63608513860251 406.97573569416005 103.03391156636465 399.38475524804016 Q 103.43173799412678 391.79377480192034 98.37980191611739 386.183031369566 L 98.37980191611739 386.183031369566 Q 93.29440930779006 380.5351306959378 85.72015712682918 380.1558828888126 Q 78.1459049458683 379.7766350816874 72.53516151351397 384.82857115969676 Z M 75.57970577244677 388.20988011561894 L 75.57970577244677 388.20988011561894 Q 79.77847403639404 384.4292921896914 85.46288264953498 384.7271994216435 Q 91.14729126267588 385.02510665359557 94.96133571892138 389.26103215881676 L 94.96133571892138 389.26103215881676 Q 98.74192364484892 393.45980042276403 98.44401641289683 399.1442090359049 Q 98.14610918094472 404.82861764904584 93.94734091699743 408.60920557497343 L 93.94734091699743 408.60920557497343 Q 89.7114154117763 412.4232500312189 84.02700679863537 412.1253427992668 Q 78.34259818549447 411.8274355673147 74.5620102595669 407.6286673033674 L 74.5620102595669 407.6286673033674 Q 70.74796580332142 403.3927417981463 71.04587303527353 397.70833318500536 Q 71.34378026722564 392.0239245718644 75.57970577244677 388.20988011561894 Z M 90.50926766111046 390.44386351138553 L 88.26768012980828 387.9543283460363 L 74.07361396319006 400.73472292749045 L 76.31520149449223 403.2242580928397 L 82.48330354595461 397.6704740600612 L 85.26019556234387 400.7545250857924 L 79.05493626960762 406.34176564888884 L 81.32998033122774 408.868458055512 L 95.52404649784597 396.0880634740578 L 93.24900243622585 393.56137106743466 L 87.0437431434896 399.14861163053115 L 84.26685112710035 396.06456060479996 L 90.50926766111046 390.44386351138553 Z" fill-opacity="1"/></g></g><g><g><path fill="rgb(245,158,11)" stroke="none" paint-order="stroke fill markers" d=" M 46.33566163004388 341.1430182533365 L 46.33566163004388 341.1430182533365 Q 54.562902965996045 336.3930182533365 63.71527317135178 338.84538845869224 Q 72.86764337670752 341.29775866404793 77.61764337670753 349.5250000000001 L 77.61764337670753 349.5250000000001 Q 82.36764337670753 357.7522413359523 79.9152731713518 366.90461154130804 Q 77.46290296599607 376.0569817466638 69.23566163004391 380.8069817466638 L 69.23566163004391 380.8069817466638 Q 61.05172156428096 385.53198174666375 51.899351358925216 383.07961154130805 Q 42.74698115356948 380.6272413359523 37.99698115356947 372.40000000000015 L 37.99698115356947 372.40000000000015 Q 33.246981153569465 364.172758664048 35.6993513589252 355.02038845869225 Q 38.15172156428094 345.8680182533365 46.33566163004388 341.1430182533365 Z M 48.380757819476216 344.9852287597988 L 48.380757819476216 344.9852287597988 Q 41.79896475071448 348.78522875979877 39.81907820537313 356.1059646700455 Q 37.83919166003177 363.4267005802923 41.63919166003178 370.008493649054 L 41.63919166003178 370.008493649054 Q 45.43919166003178 376.59028671781573 52.76907820537314 378.5360226280625 Q 60.0989647507145 380.48175853830924 66.68075781947624 376.6817585383092 L 66.68075781947624 376.6817585383092 Q 73.21924961804875 372.90675853830925 75.18663616339009 365.5643719929679 Q 77.15402270873145 358.22198544762654 73.37902270873144 351.683493649054 L 73.37902270873144 351.683493649054 Q 69.57902270873144 345.1017005802923 62.249136163390084 343.15596467004553 Q 54.919249618048724 341.2102287597988 48.380757819476216 344.9852287597988 Z M 50.65575781947622 348.92564434701796 L 50.65575781947622 348.92564434701796 Q 55.5488013508583 346.100644347018 61.04705360109066 347.5738965972503 Q 66.54530585132304 349.04714884748273 69.39530585132303 353.983493649054 L 69.39530585132303 353.983493649054 Q 72.22030585132303 358.8765371804361 70.74705360109067 364.37478943066844 Q 69.2738013508583 369.8730416809008 64.38075781947623 372.6980416809008 L 64.38075781947623 372.6980416809008 Q 59.444413017904935 375.54804168090084 53.946160767672566 374.0747894306685 Q 48.4479085174402 372.6015371804361 45.622908517440194 367.70849364905405 L 45.622908517440194 367.70849364905405 Q 42.77290851744019 362.77214884748275 44.246160767672556 357.27389659725037 Q 45.71941301790492 351.775644347018 50.65575781947622 348.92564434701796 Z M 61.43085215842717 352.28865519842884 L 61.43085215842717 352.28865519842884 L 53.679924794556456 356.7636551984288 L 55.804924794556456 360.4442631645127 L 57.883385763639104 359.2442631645127 L 57.43338576363911 358.4648403011067 L 62.889345807481064 355.3148403011067 L 64.93934580748106 358.8655444566229 L 52.33867618241749 366.1405444566229 L 50.28867618241749 362.5898403011067 L 53.016656204338474 361.0148403011067 L 51.34165620433847 358.11365519842883 L 48.094060940146825 359.98865519842883 Q 47.444541887308496 360.36365519842883 47.41152918541628 361.3064755214564 Q 47.37851648352406 362.2492958444839 47.97851648352406 363.2885263290253 L 47.97851648352406 363.2885263290253 L 50.65351648352406 367.921762239272 Q 51.25351648352406 368.9609927238133 52.1298304556055 369.3788130468409 Q 53.00614442768695 369.79663336986846 53.61236221033605 369.44663336986844 L 53.61236221033605 369.44663336986844 L 66.99245469880563 361.7216333698684 Q 67.64197375164395 361.3466333698684 67.7182877237254 360.3788130468409 Q 67.79460169580683 359.4109927238133 67.19460169580684 358.371762239272 L 67.19460169580684 358.371762239272 L 64.49460169580684 353.695225058836 Q 63.894601695806834 352.6559945742947 62.987486453536164 352.2848248863618 Q 62.0803712112655 351.91365519842884 61.43085215842717 352.28865519842884 Z" fill-opacity="1"/></g></g><g><g><path fill="rgb(245,158,11)" stroke="none" paint-order="stroke fill markers" d=" M 31.83651703710438 296.80712767836064 L 31.83651703710438 296.80712767836064 Q 40.87155394190834 293.8714662317986 49.314046463398014 298.173131028664 Q 57.7565389848877 302.4747958255294 60.6922004314497 311.50983273033336 L 60.6922004314497 311.50983273033336 Q 63.6278618780117 320.5448696351373 59.32619708114632 328.98736215662694 Q 55.02453228428094 337.42985467811667 45.98949537947698 340.36551612467866 L 45.98949537947698 340.36551612467866 Q 37.00201130048778 343.2857267215219 28.559518778998104 338.98406192465654 Q 20.11702625750842 334.68239712779115 17.18136481094642 325.6473602229872 L 17.18136481094642 325.6473602229872 Q 14.245703364384418 316.6123233181832 18.5473681612498 308.16983079669353 Q 22.84903295811518 299.72733827520386 31.83651703710438 296.80712767836064 Z M 33.038082485191126 300.99057607340075 L 33.038082485191126 300.99057607340075 Q 25.810052961347957 303.3391052306504 22.351365106167478 310.08822393759476 Q 18.892677250987 316.8373426445392 21.2412064082366 324.0653721683824 L 21.2412064082366 324.0653721683824 Q 23.589735565486208 331.29340169222553 30.35490526047862 334.7205877096393 Q 37.12007495547104 338.147773727053 44.34810447931421 335.79924456980336 L 44.34810447931421 335.79924456980336 Q 51.528581177342616 333.4661662622725 54.97954360766373 326.69327114242077 Q 58.430506037984834 319.920376022569 56.09742773045398 312.73989932454054 L 56.09742773045398 312.73989932454054 Q 53.74889857320438 305.51186980069735 46.983728878211956 302.08468378328365 Q 40.21855918321954 298.6574977658699 33.038082485191126 300.99057607340075 Z M 34.44410980959714 305.31788322254374 L 34.44410980959714 305.31788322254374 Q 39.81757912666476 303.57193720432525 44.889375007111916 306.1561462800541 Q 49.96117088755907 308.7403553557829 51.72256775549627 314.1613774986653 L 51.72256775549627 314.1613774986653 Q 53.468513773714726 319.5348468157329 50.8843046979859 324.6066426961801 Q 48.300095622257075 329.67843857662723 42.92662630518945 331.42438459484566 L 42.92662630518945 331.42438459484566 Q 37.50560416230708 333.18578146278287 32.43380828185992 330.60157238705403 Q 27.362012401412763 328.01736331132525 25.61606638319431 322.6438939942576 L 25.61606638319431 322.6438939942576 Q 23.854669515257108 317.22287185137526 26.438878590985937 312.1510759709281 Q 29.023087666714765 307.07928009048095 34.44410980959714 305.31788322254374 Z M 48.657581923498505 317.9961997695995 L 46.13909341934268 310.245089161794 L 44.046769083493345 310.9249265494189 L 46.33349484186795 317.96274477000304 L 40.436944440838005 319.8786501351277 L 38.15021868246339 312.84083191454357 L 35.772577391725505 313.61337440048095 L 38.05930315010012 320.6511926210651 L 32.49562252977347 322.4589420381585 L 30.20889677139886 315.42112381757437 L 27.973913958105243 316.1473137543555 L 30.49240246226107 323.898424362161 Q 30.863222855511005 325.03969218171517 31.62579211011392 325.6068016349377 Q 32.38836136471684 326.17391108816025 33.05410092612345 325.95759919209775 L 33.05410092612345 325.95759919209775 L 47.74792410288357 321.18328662900484 Q 48.46121649010494 320.9515238832236 48.744809403426686 320.04449573618865 Q 49.02840231674844 319.1374675891537 48.657581923498505 317.9961997695995 L 48.657581923498505 317.9961997695995 Z" fill-opacity="1"/></g></g><g><g><path fill="rgb(245,158,11)" stroke="none" paint-order="stroke fill markers" d=" M 26.872163514182457 250.4255410183224 L 26.872163514182457 250.4255410183224 Q 36.320121520181054 249.4325206172797 43.683758923041765 255.39547661235383 Q 51.04739632590248 261.35843260742797 52.040416726945196 270.8063906134266 L 52.040416726945196 270.8063906134266 Q 53.033437127987916 280.2543486194252 47.07048113291377 287.6179860222859 Q 41.107525137839616 294.9816234251466 31.65956713184102 295.9746438261893 L 31.65956713184102 295.9746438261893 Q 22.261335220610842 296.96243780406866 14.897697817750128 290.9994818089945 Q 7.534060414889403 285.0365258139204 6.54104001384669 275.5885678079218 L 6.54104001384669 275.5885678079218 Q 5.5480196128039765 266.1406098019232 11.510975607878123 258.77697239906246 Q 17.473931602952277 251.41333499620174 26.872163514182457 250.4255410183224 Z M 27.17768404509151 254.76739053266454 L 27.17768404509151 254.76739053266454 Q 19.619317640292635 255.5618068534987 14.832989731170116 261.4443394837826 Q 10.046661822047597 267.32687211406653 10.84107814288177 274.8852385188654 L 10.84107814288177 274.8852385188654 Q 11.635494463715943 282.4436049236643 17.54027692980236 287.2024565738209 Q 23.44505939588878 291.96130822397754 31.00342580068766 291.1668919031433 L 31.00342580068766 291.1668919031433 Q 38.51206611071812 290.37770200547254 43.29578080825895 284.47030632780445 Q 48.07949550579978 278.5629106501363 47.29030560812899 271.05427034010586 L 47.29030560812899 271.05427034010586 Q 46.495889287294816 263.495903935307 40.5911068212084 258.73705228515036 Q 34.686324355121975 253.97820063499375 27.17768404509151 254.76739053266454 Z M 27.65328855295934 259.2924651565902 L 27.65328855295934 259.2924651565902 Q 33.272337261790085 258.7018793391279 37.69601495529969 262.28410290333295 Q 42.119692648809306 265.86632646753793 42.71550488943493 271.5351012711371 L 42.71550488943493 271.5351012711371 Q 43.30609070689718 277.1541499799678 39.723867142692185 281.57782767347743 Q 36.14164357848719 286.00150536698703 30.522594869656448 286.59209118444926 L 30.522594869656448 286.59209118444926 Q 24.853820066057292 287.1879034250749 20.43014237254768 283.60567986086994 Q 16.006464679038075 280.0234562966649 15.415878861575827 274.40440758783416 L 15.415878861575827 274.40440758783416 Q 14.8200666209502 268.735632784235 18.402290185155188 264.3119550907254 Q 21.984513749360183 259.8882773972158 27.65328855295934 259.2924651565902 Z M 21.79679856028804 271.9741064133732 L 21.410043246197716 268.2943754005106 L 19.023190697313865 268.54524371235294 L 20.162550946931294 279.3855323718671 L 22.54940349581515 279.13466406002476 L 22.14696891223468 275.3057547628569 L 38.75548456488484 273.56012942628706 L 38.4053142129382 270.22848107680335 L 21.79679856028804 271.9741064133732 Z" fill-opacity="1"/></g></g><g><g><path fill="rgb(245,158,11)" stroke="none" paint-order="stroke fill markers" d=" M 31.65956713184096 204.02535617381096 L 31.65956713184096 204.02535617381096 Q 41.10752513783956 205.01837657485368 47.07048113291372 212.38201397771437 Q 53.033437127987874 219.74565138057508 52.04041672694517 229.19360938657368 L 52.04041672694517 229.19360938657368 Q 51.04739632590247 238.64156739257228 43.68375892304176 244.60452338764645 Q 36.320121520181054 250.5674793827206 26.872163514182454 249.57445898167788 L 26.872163514182454 249.57445898167788 Q 17.47393160295227 248.58666500379857 11.510975607878109 241.22302760093785 Q 5.548019612803955 233.85939019807716 6.541040013846661 224.41143219207856 L 6.541040013846661 224.41143219207856 Q 7.5340604148893675 214.96347418607996 14.897697817750071 209.0005181910058 Q 22.26133522061078 203.03756219593166 31.65956713184096 204.02535617381096 Z M 31.05569003232143 208.3358471491728 L 31.05569003232143 208.3358471491728 Q 23.49732362752255 207.54143082833863 17.592541161436138 212.30028247849526 Q 11.687758695349721 217.0591341286519 10.893342374515562 224.61750053345077 L 10.893342374515562 224.61750053345077 Q 10.098926053681396 232.17586693824967 14.885253962803922 238.05839956853356 Q 19.67158187192645 243.94093219881745 27.22994827672533 244.7353485196516 L 27.22994827672533 244.7353485196516 Q 34.738588586755796 245.5245384173224 40.6459842644239 240.74082371978156 Q 46.55337994209201 235.95710902224073 47.34256983976279 228.44846871221026 L 47.34256983976279 228.44846871221026 Q 48.13698616059695 220.89010230741138 43.35065825147442 215.0075696771275 Q 38.564330342351894 209.12503704684357 31.05569003232143 208.3358471491728 Z M 30.580085524453608 212.86092177309845 L 30.580085524453608 212.86092177309845 Q 36.199134233284354 213.45150759056068 39.78135779748935 217.87518528407028 Q 43.36358136169435 222.2988629775799 42.767769121068724 227.96763778117906 L 42.767769121068724 227.96763778117906 Q 42.17718330360648 233.5866864900098 37.75350561009688 237.1689100542148 Q 33.32982791658728 240.7511336184198 27.710779207756534 240.16054780095754 L 27.710779207756534 240.16054780095754 Q 22.042004404157378 239.56473556033194 18.459780839952373 235.14105786682234 Q 14.877557275747378 230.71738017331273 15.468143093209619 225.098331464482 L 15.468143093209619 225.098331464482 Q 16.06395533383524 219.42955666088284 20.48763302734484 215.84733309667783 Q 24.911310720854452 212.26510953247282 30.580085524453608 212.86092177309845 Z M 38.452352021408615 229.3239840702812 L 38.8182016428454 225.84315743649222 L 19.82283344131138 223.84666378808006 L 19.456983819874594 227.32749042186902 L 38.452352021408615 229.3239840702812 Z" fill-opacity="1"/></g></g><g><g><path fill="rgb(245,158,11)" stroke="none" paint-order="stroke fill markers" d=" M 45.989495379476935 159.63448387532145 L 45.989495379476935 159.63448387532145 Q 55.0245322842809 162.57014532188344 59.32619708114628 171.0126378433731 Q 63.627861878011664 179.45513036486278 60.69220043144967 188.49016726966676 L 60.69220043144967 188.49016726966676 Q 57.75653898488767 197.5252041744707 49.31404646339799 201.8268689713361 Q 40.87155394190832 206.1285337682015 31.836517037104354 203.19287232163947 L 31.836517037104354 203.19287232163947 Q 22.84903295811516 200.27266172479622 18.54736816124977 191.83016920330655 Q 14.245703364384383 183.38767668181688 17.181364810946384 174.3526397770129 L 17.181364810946384 174.3526397770129 Q 20.117026257508385 165.31760287220897 28.55951877899806 161.01593807534357 Q 37.00201130048774 156.7142732784782 45.989495379476935 159.63448387532145 Z M 44.502612976501645 163.72522717204913 L 44.502612976501645 163.72522717204913 Q 37.274583452658476 161.3766980147995 30.509413757666064 164.80388403221326 Q 23.744244062673637 168.23107004962696 21.395714905424043 175.45909957347016 L 21.395714905424043 175.45909957347016 Q 19.047185748174442 182.68712909731332 22.505873603354928 189.43624780425773 Q 25.964561458535407 196.18536651120215 33.192590982378576 198.53389566845175 L 33.192590982378576 198.53389566845175 Q 40.37306768040699 200.8669739759826 47.14596280025878 197.4160115456615 Q 53.91885792011057 193.96504911534038 56.25193622764142 186.78457241731198 L 56.25193622764142 186.78457241731198 Q 58.600465384891024 179.5565428934688 55.14177752971054 172.80742418652437 Q 51.68308967453006 166.05830547957996 44.502612976501645 163.72522717204913 Z M 43.096585652095634 168.05253432119207 L 43.096585652095634 168.05253432119207 Q 48.47005496916326 169.79848033941053 51.054264044892086 174.8702762198577 Q 53.638473120620915 179.94207210030484 51.87707625268372 185.36309424318722 L 51.87707625268372 185.36309424318722 Q 50.13113023446527 190.73656356025484 45.059334354018105 193.32077263598367 Q 39.98753847357095 195.90498171171248 34.614069156503334 194.15903569349405 L 34.614069156503334 194.15903569349405 Q 29.19304701362096 192.39763882555684 26.608837937892126 187.32584294510968 Q 24.024628862163297 182.25404706466253 25.77057488038175 176.8805777475949 L 25.77057488038175 176.8805777475949 Q 27.531971748318945 171.45955560471253 32.60376762876611 168.8753465289837 Q 37.67556350921326 166.29113745325486 43.096585652095634 168.05253432119207 Z M 48.673032773217216 181.95624740458584 L 49.66188715521705 178.91286655244133 L 31.496707693979616 173.01064195987985 L 30.46150076282354 176.19668128946861 L 40.92312244207023 179.59586822759303 L 29.023371462321524 180.46098476307805 L 28.159324154730186 183.28205233586752 L 46.32450361596762 189.184276928429 L 47.40606309627994 185.85557912139598 L 37.8954979333284 182.7654091776465 L 48.673032773217216 181.95624740458584 Z" fill-opacity="1"/></g></g><g><g><path fill="rgb(245,158,11)" stroke="none" paint-order="stroke fill markers" d=" M 69.23566163004374 119.19301825333648 L 69.23566163004374 119.19301825333648 Q 77.46290296599591 123.94301825333648 79.91527317135167 133.0953884586922 Q 82.3676433767074 142.24775866404795 77.61764337670742 150.4750000000001 L 77.61764337670742 150.4750000000001 Q 72.86764337670742 158.7022413359523 63.71527317135168 161.15461154130804 Q 54.562902965995946 163.6069817466638 46.335661630043774 158.8569817466638 L 46.335661630043774 158.8569817466638 Q 38.151721564280834 154.1319817466638 35.699351358925085 144.97961154130806 Q 33.24698115356934 135.82724133595232 37.99698115356933 127.60000000000014 L 37.99698115356933 127.60000000000014 Q 42.74698115356932 119.37275866404798 51.89935135892506 116.92038845869223 Q 61.0517215642808 114.46801825333648 69.23566163004374 119.19301825333648 Z M 66.93075781947609 122.88522875979878 L 66.93075781947609 122.88522875979878 Q 60.348964750714345 119.08522875979878 53.01907820537299 121.03096467004553 Q 45.68919166003163 122.97670058029229 41.889191660031635 129.55849364905404 L 41.889191660031635 129.55849364905404 Q 38.08919166003164 136.14028671781577 40.069078205373 143.46102262806252 Q 42.04896475071437 150.78175853830925 48.6307578194761 154.58175853830926 L 48.6307578194761 154.58175853830926 Q 55.169249618048624 158.35675853830924 62.51163616338998 156.38937199296788 Q 69.85402270873134 154.42198544762653 73.62902270873133 147.883493649054 L 73.62902270873133 147.883493649054 Q 77.42902270873132 141.30170058029228 75.44913616338997 133.98096467004552 Q 73.4692496180486 126.66022875979877 66.93075781947609 122.88522875979878 Z M 64.65575781947608 126.82564434701798 L 64.65575781947608 126.82564434701798 Q 69.54880135085817 129.650644347018 71.02205360109053 135.14889659725034 Q 72.49530585132291 140.6471488474827 69.64530585132292 145.58349364905402 L 69.64530585132292 145.58349364905402 Q 66.82030585132291 150.47653718043608 61.322053601090545 151.94978943066846 Q 55.82380135085819 153.42304168090084 50.9307578194761 150.59804168090085 L 50.9307578194761 150.59804168090085 Q 45.994413017904805 147.74804168090083 44.521160767672434 142.24978943066847 Q 43.047908517440064 136.75153718043612 45.87290851744006 131.85849364905403 L 45.87290851744006 131.85849364905403 Q 48.722908517440054 126.92214884748273 54.221160767672416 125.44889659725035 Q 59.719413017904785 123.97564434701799 64.65575781947608 126.82564434701798 Z M 52.46367618241736 133.64294919243125 L 54.31367618241735 130.43865519842882 L 52.2352152133347 129.23865519842883 L 46.78521521333471 138.6783320996792 L 48.863676182417365 139.87833209967923 L 50.78867618241736 136.54413429510913 L 65.25130042561749 144.89413429510913 L 66.92630042561748 141.99294919243124 L 52.46367618241736 133.64294919243125 Z" fill-opacity="1"/></g></g><g><g><path fill="rgb(245,158,11)" stroke="none" paint-order="stroke fill markers" d=" M 100.38209687091012 84.46844541521918 L 100.38209687091012 84.46844541521918 Q 107.44197271294537 90.82518617562832 107.93786798103957 100.28743156893121 Q 108.43376324913376 109.7496769622341 102.07702248872461 116.80955280426934 L 102.07702248872461 116.80955280426934 Q 95.72028172831547 123.8694286463046 86.25803633501258 124.3653239143988 Q 76.79579094170968 124.86121918249299 69.73591509967443 118.50447842208385 L 69.73591509967443 118.50447842208385 Q 62.71319649891306 112.18119419199265 62.217301230818855 102.71894879868975 Q 61.72140596272466 93.25670340538684 68.07814672313381 86.1968275633516 L 68.07814672313381 86.1968275633516 Q 74.43488748354295 79.13695172131636 83.89713287684586 78.64105645322216 Q 93.35937827014874 78.14516118512796 100.38209687091012 84.46844541521918 Z M 97.35990700942749 87.600755815092 L 97.35990700942749 87.600755815092 Q 91.71200633579929 82.51536320676468 84.1377541548384 82.89461101388989 Q 76.56350197387751 83.2738588210151 71.4781093655502 88.92175949464328 L 71.4781093655502 88.92175949464328 Q 66.39271675722287 94.56966016827148 66.80727145014399 102.14206199375441 Q 67.22182614306509 109.71446381923732 72.86972681669329 114.79985642756465 L 72.86972681669329 114.79985642756465 Q 78.48047024904761 119.85179250557402 86.07145069516747 119.45396607781188 Q 93.66243114128733 119.05613965004976 98.7143672192967 113.44539621769543 L 98.7143672192967 113.44539621769543 Q 103.79975982762403 107.79749554406723 103.38520513470291 100.2250937185843 Q 102.97065044178181 92.65269189310138 97.35990700942749 87.600755815092 Z M 94.31536275049467 90.98206477101415 L 94.31536275049467 90.98206477101415 Q 98.51413101444196 94.7626526969417 98.81203824639407 100.44706131008262 Q 99.10994547834618 106.13146992322353 95.2959010221007 110.36739542844468 L 95.2959010221007 110.36739542844468 Q 91.51531309617314 114.56616369239197 85.83090448303223 114.86407092434408 Q 80.14649586989131 115.16197815629619 75.94772760594404 111.38139023036864 L 75.94772760594404 111.38139023036864 Q 71.71180210072288 107.56734577412314 71.41389486877077 101.88293716098222 Q 71.11598763681866 96.19852854784132 74.89657556274621 91.99976028389403 L 74.89657556274621 91.99976028389403 Q 78.71062001899169 87.76383477867289 84.39502863213261 87.46592754672076 Q 90.07943724527352 87.16802031476867 94.31536275049467 90.98206477101415 Z M 94.5544076454839 102.2987717804838 L 94.5544076454839 102.2987717804838 L 83.07282009185816 91.96070391223945 Q 82.55261871402399 91.49231248778825 81.54167151428844 91.79312099722054 Q 80.53072431455291 92.09392950665281 79.72776758692228 92.9857032972257 L 79.72776758692228 92.9857032972257 L 76.24828843385622 96.85005638970814 Q 75.44533170622559 97.74183018028101 75.31875687515107 98.70436787416031 Q 75.19218204407655 99.6669055680396 75.71238342191073 100.1352969924908 L 75.71238342191073 100.1352969924908 L 87.19397097553647 110.47336486073515 Q 87.75132959464452 110.97521281550429 88.69536373374417 110.74871878861975 Q 89.63939787284383 110.5222247617352 90.44235460047446 109.63045097116233 L 90.44235460047446 109.63045097116233 L 94.05565987481229 105.6174689135844 Q 94.85861660244292 104.72569512301152 94.98519143351743 103.76315742913224 Q 95.11176626459195 102.80061973525295 94.5544076454839 102.2987717804838 Z M 81.23996221456855 94.8182609110861 L 92.05271942526464 104.55411123360749 L 89.27582740887539 107.63816225933867 L 78.4630701981793 97.90231193681728 L 81.23996221456855 94.8182609110861 Z" fill-opacity="1"/></g></g><g><g><path fill="rgb(245,158,11)" stroke="none" paint-order="stroke fill markers" d=" M 138.06755242487185 56.97839582098279 L 138.06755242487185 56.97839582098279 Q 143.65151232165033 64.66405726754479 142.16925964969778 74.0226323202165 Q 140.6870069777452 83.38120737288823 133.0013455311832 88.96516726966672 L 133.0013455311832 88.96516726966672 Q 125.3156840846212 94.54912716644522 115.95710903194947 93.06687449449265 Q 106.59853397927776 91.58462182254007 101.01457408249925 83.89896037597808 L 101.01457408249925 83.89896037597808 Q 95.46000344833539 76.25374977913482 96.94225612028796 66.8951747264631 Q 98.42450879224054 57.53659967379138 106.11017023880254 51.952639777012884 L 106.11017023880254 51.952639777012884 Q 113.79583168536453 46.36867988023439 123.15440673803626 47.85093255218696 Q 132.51298179070798 49.33318522413954 138.06755242487185 56.97839582098279 Z M 134.46016071149697 59.41390911929881 L 134.46016071149697 59.41390911929881 Q 129.99299279407415 53.26537996204921 122.50540614309615 52.0615647170486 Q 115.01781949211814 50.85774947204799 108.86929033486854 55.32491738947079 L 108.86929033486854 55.32491738947079 Q 102.72076117761893 59.79208530689358 101.55186598878501 67.28520275142365 Q 100.38297079995108 74.77832019595374 104.85013871737388 80.92684935320334 L 104.85013871737388 80.92684935320334 Q 109.28791737218205 87.03492766073418 116.79572944801944 88.22404827442749 Q 124.30354152385684 89.41316888812078 130.4116198313877 84.97539023331261 L 130.4116198313877 84.97539023331261 Q 136.56014898863728 80.50822231588981 137.72904417747122 73.01510487135974 Q 138.89793936630514 65.52198742682967 134.46016071149697 59.41390911929881 Z M 130.77913338709095 62.08833201722956 L 130.77913338709095 62.08833201722956 Q 134.10012006254343 66.65927803544801 133.20966230066148 72.28140707828439 Q 132.3192045387795 77.90353612112075 127.7078076708423 81.25391205918785 L 127.7078076708423 81.25391205918785 Q 123.13686165262385 84.57489873464033 117.51473260978749 83.68444097275837 Q 111.89260356695112 82.7939832108764 108.57161689149865 78.22303719265796 L 108.57161689149865 78.22303719265796 Q 105.22124095343155 73.61164032472075 106.1116987153135 67.98951128188439 Q 107.00215647719546 62.36738223904803 111.5731024954139 59.046395563595546 L 111.5731024954139 59.046395563595546 Q 116.18449936335111 55.69601962552845 121.80662840618749 56.5864773874104 Q 127.42875744902385 57.47693514929236 130.77913338709095 62.08833201722956 Z M 123.19444395106831 79.46518403821099 L 129.70703075578663 74.73351275725659 L 118.48033243700038 59.28128816469509 L 115.7701255058443 61.250368759874874 L 125.79186405743098 75.04410851396773 L 122.47489438049371 77.45402804836687 L 112.45315582890703 63.66028829427402 L 109.70249804803221 65.65875815206843 L 119.92996143792125 79.7356538541925 Q 120.34141111452598 80.30196575025498 121.2622919113128 80.25094067691577 Q 122.18317270809962 80.19991560357658 123.19444395106831 79.46518403821099 L 123.19444395106831 79.46518403821099 Z" fill-opacity="1"/></g></g><g><g><path fill="rgb(245,158,11)" stroke="none" paint-order="stroke fill markers" d=" M 180.6449930493415 37.92431654978898 L 180.6449930493415 37.92431654978898 Q 184.50899115856163 46.60299839739369 181.11337210096406 55.448888472206974 Q 177.7177530433665 64.29477854702027 169.0390711957618 68.15877665624038 L 169.0390711957618 68.15877665624038 Q 160.3603893481571 72.02277476546048 151.5144992733438 68.62715570786293 Q 142.66860919853053 65.23153665026537 138.8046110893104 56.55285480266066 L 138.8046110893104 56.55285480266066 Q 134.96094981224408 47.9198502279381 138.35656886984165 39.0739601531248 Q 141.7521879274392 30.228070078311504 150.4308697750439 26.3640719690914 L 150.4308697750439 26.3640719690914 Q 159.1095516226486 22.500073859871293 167.9554416974619 25.89569291746885 Q 176.8013317722752 29.291311975066414 180.6449930493415 37.92431654978898 Z M 176.61005981213484 39.556589128522326 L 176.61005981213484 39.556589128522326 Q 173.51886132475875 32.61364365043856 166.4451836698384 29.87937785606512 Q 159.37150601491805 27.145112061691677 152.42856053683428 30.236310549067767 L 152.42856053683428 30.236310549067767 Q 145.48561505875054 33.32750903644385 142.78435631689504 40.41385691172837 Q 140.08309757503957 47.500204787012876 143.17429606241566 54.44315026509664 L 143.17429606241566 54.44315026509664 Q 146.24515771763794 61.340418470298275 153.34167400899935 64.06451584859482 Q 160.43819030036076 66.78861322689137 167.3354585055624 63.717751571669076 L 167.3354585055624 63.717751571669076 Q 174.27840398364617 60.626553084292986 176.97966272550164 53.54020520900848 Q 179.68092146735714 46.45385733372396 176.61005981213484 39.556589128522326 Z M 172.453427979861 41.40724085451722 L 172.453427979861 41.40724085451722 Q 174.75149001323928 46.56877269019792 172.7115845346079 51.88290814558948 Q 170.67167905597654 57.19704360098105 165.4644699474137 59.51544246651311 L 165.4644699474137 59.51544246651311 Q 160.30293811173303 61.81350449989139 154.98880265634145 59.77359902126002 Q 149.6746672009499 57.73369354262865 147.37660516757163 52.57216170694796 L 147.37660516757163 52.57216170694796 Q 145.05820630203954 47.36495259838514 147.0981117806709 42.050817142993566 Q 149.13801725930227 36.736681687602 154.29954909498298 34.43861965422373 L 154.29954909498298 34.43861965422373 Q 159.50675820354581 32.12022078869166 164.82089365893736 34.16012626732303 Q 170.13502911432894 36.2000317459544 172.453427979861 41.40724085451722 Z M 160.13799955313937 42.511877747933696 L 163.24405410912422 41.12897316147597 L 161.71879169758995 37.703177695316214 Q 161.4340760474369 37.0636958749664 160.489702943708 36.90947382416467 Q 159.54532983997916 36.75525177336294 158.44907529080803 37.24333574505391 L 158.44907529080803 37.24333574505391 L 153.5616070924201 39.41937678550944 Q 152.465352543249 39.907460757200404 151.9582213308266 40.73530007336447 Q 151.4510901184042 41.563139389528544 151.73580576855727 42.202621209878366 L 151.73580576855727 42.202621209878366 L 158.0198869040784 56.31689853045654 Q 158.32493938638524 57.00205762368849 159.27948090619103 57.17911831093129 Q 160.23402242599678 57.35617899817407 161.33027697516792 56.86809502648311 L 161.33027697516792 56.86809502648311 L 166.2177451735558 54.69205398602758 Q 167.31399972272695 54.20397001433662 167.7779554665545 53.34062184136731 Q 168.241911210382 52.477273668398006 167.95719556022894 51.837791848048184 L 167.95719556022894 51.837791848048184 L 166.39125948438712 48.32064183612417 L 163.3308822012844 49.683209590428106 L 164.7747972842035 52.92629596505934 L 161.07493818075096 54.57357936951633 L 155.15692002399805 41.28149296081649 L 158.8567791274506 39.6342095563595 L 160.13799955313937 42.511877747933696 Z" fill-opacity="1"/></g></g><g><g><path fill="rgb(245,158,11)" stroke="none" paint-order="stroke fill markers" d=" M 226.25358027980232 28.138962297405143 L 226.25358027980232 28.138962297405143 Q 228.22874134257106 37.43136450437629 223.06816074613354 45.377961757771786 Q 217.90758014969603 53.324559011167274 208.61517794272487 55.299720073935994 L 208.61517794272487 55.299720073935994 Q 199.32277573575374 57.274881136704714 191.37617848235823 52.11430054026721 Q 183.42958122896275 46.9537199438297 181.45442016619404 37.66131773685854 L 181.45442016619404 37.66131773685854 Q 179.4896546879662 28.417822909924084 184.65023528440372 20.471225656528595 Q 189.81081588084123 12.5246284031331 199.10321808781237 10.54946734036438 L 199.10321808781237 10.54946734036438 Q 208.39562029478353 8.57430627759566 216.342217548179 13.734886874033172 Q 224.2888148015745 18.895467470470685 226.25358027980232 28.138962297405143 Z M 221.9674514629876 28.896656012352324 L 221.9674514629876 28.896656012352324 Q 220.38732261277264 21.462734246775405 214.0367076107013 17.31751843870621 Q 207.68609260863 13.172302630637027 200.25217084305308 14.752431480852003 L 200.25217084305308 14.752431480852003 Q 192.81824907747614 16.33256033106698 188.70268475169576 22.70243123088619 Q 184.58712042591534 29.072302130705413 186.16724927613032 36.506223896282336 L 186.16724927613032 36.506223896282336 Q 187.73698254180442 43.89123828182257 194.11205123389408 48.03125629762132 Q 200.48711992598373 52.171274313420064 207.87213431152398 50.601541047745975 L 207.87213431152398 50.601541047745975 Q 215.3060560771009 49.021412197531 219.4216204028813 42.65154129771178 Q 223.5371847286617 36.281670397892555 221.9674514629876 28.896656012352324 Z M 217.5168798796488 29.842654205573133 L 217.5168798796488 29.842654205573133 Q 218.69158093276914 35.369188149719136 215.59138139535705 40.14307679821418 Q 212.49118185794498 44.91696544670924 206.9157405337623 46.10206208437047 L 206.9157405337623 46.10206208437047 Q 201.38920658961626 47.27676313749082 196.61531794112122 44.17656360007873 Q 191.84142929262617 41.07636406266664 190.66672823950583 35.549830118520646 L 190.66672823950583 35.549830118520646 Q 189.4816316018446 29.97438879433795 192.58183113925668 25.200500145842902 Q 195.68203067666877 20.42661149734785 201.20856462081477 19.251910444227505 L 201.20856462081477 19.251910444227505 Q 206.78400594499746 18.066813806566273 211.5578945934925 21.16701334397836 Q 216.33178324198755 24.267212881390442 217.5168798796488 29.842654205573133 Z M 208.11741256295045 41.65504237064457 L 211.39420702540872 40.95853820640508 L 207.4230937307895 22.27591903238939 L 204.14629926833123 22.97242319662888 L 205.87196630211866 31.09104828271947 L 201.81265375907336 31.953881799613175 L 200.07659114074505 23.7863493334859 L 196.75088929825012 24.493249082266285 L 200.72200259286933 43.175868256281966 L 204.04770443536427 42.468968507501586 L 202.311641817036 34.3014360413743 L 206.37095436008127 33.4386025244806 L 208.11741256295045 41.65504237064457 Z" fill-opacity="1"/></g></g></g></g></svg>