<svg version="1.1" xmlns="http://www.w3.org/2000/svg" xmlns:xlink="http://www.w3.org/1999/xlink" width="500" height="500" viewBox="0 0 500 500"><defs/><g><g><g><g><path fill="rgb(245,158,11)" stroke="none" paint-order="stroke fill markers" d=" M 255.8 4.049999999999997 L 255.8 15.45 L 267.2 15.45 L 267.2 38.3 L 255.8 38.3 L 255.8 38.3 L 244.4 38.3 L 244.4 38.3 L 232.95 38.3 L 232.95 4.049999999999997 L 255.8 4.049999999999997 Z M 244.4 26.849999999999998 L 255.8 26.849999999999998 L 255.8 15.45 L 244.4 15.45 L 244.4 26.849999999999998 Z" fill-opacity="1"/></g></g><g><g><path fill="rgb(245,158,11)" stroke="none" paint-order="stroke fill markers" d=" M 304.3655820955065 21.76577467781756 L 304.3655820955065 21.76577467781756 L 301.9953888201841 32.91665732618294 L 313.14627146854946 35.2868506015054 L 310.7656826086861 46.48664062990748 L 299.6147999603207 44.11644735458502 L 299.6147999603207 44.11644735458502 L 288.4639173119553 41.74625407926256 L 288.4639173119553 41.74625407926256 L 277.26412728355325 39.36566521939922 L 284.3851026940615 5.864109894266377 L 306.73577537082895 10.614892029452172 L 306.73577537082895 10.614892029452172 L 317.88665801919433 12.985085304774628 L 315.5164647438719 24.135967953140018 L 304.3655820955065 21.76577467781756 Z" fill-opacity="1"/></g></g><g><g><path fill="rgb(245,158,11)" stroke="none" paint-order="stroke fill markers" d=" M 355.2669251094969 27.642061974411277 L 355.2669251094969 27.642061974411277 L 365.6813433266226 32.2788597054754 L 361.0445455955585 42.693277922601055 L 350.6301273784328 38.056480191536934 L 341.3361950841508 58.93099389867036 L 330.92177686702513 54.29419616760624 L 340.21570916130713 33.41968246047281 L 329.7556136712994 28.762547897254898 L 334.3924114023635 18.348129680129247 L 355.2669251094969 27.642061974411277 L 355.2669251094969 27.642061974411277 Z" fill-opacity="1"/></g></g><g><g><path fill="rgb(245,158,11)" stroke="none" paint-order="stroke fill markers" d=" M 392.49665321799614 63.61013453873046 L 392.49665321799614 63.61013453873046 L 385.79590134186196 72.83292827460487 L 395.01869507773637 79.53368015073906 L 388.28855393898755 88.79692473633222 L 379.06576020311314 82.09617286019802 L 379.06576020311314 82.09617286019802 L 369.84296646723874 75.39542098406383 L 369.84296646723874 75.39542098406383 L 360.5797218816456 68.66527984531501 L 367.3098630203944 59.402035259721856 L 376.57310760598756 66.13217639847068 L 383.2738594821218 56.90938266259627 L 374.01061489652864 50.17924152384746 L 380.7113667726628 40.956447787973055 L 399.1974050941304 54.38734080285606 L 399.1974050941304 54.38734080285606 L 408.4201988300048 61.08809267899026 L 401.71944695387054 70.31088641486465 L 392.49665321799614 63.61013453873046 Z" fill-opacity="1"/></g></g><g><g><path fill="rgb(245,158,11)" stroke="none" paint-order="stroke fill markers" d=" M 428.18557633260417 97.36565626629869 L 428.18557633260417 97.36565626629869 L 435.81366524509514 105.83750727674098 L 418.8328059829367 121.12714163204089 L 411.2047170704457 112.6552906215986 L 428.18557633260417 97.36565626629869 L 420.55748742011315 88.89380525585639 L 403.5766281579547 104.1834396111563 L 395.9150827151458 95.67443135944013 L 421.36779298774655 72.75670809164924 L 436.65742734304644 89.73756735380769 L 428.18557633260417 97.36565626629869 Z" fill-opacity="1"/></g></g><g><g><path fill="rgb(245,158,11)" stroke="none" paint-order="stroke fill markers" d=" M 465.86144806078266 131.98299543666587 L 465.86144806078266 131.98299543666587 L 471.56144806078265 141.85568503980846 L 461.68875845764006 147.55568503980848 L 455.9887584576401 137.6829954366659 L 436.20007798116563 149.10799543666587 L 430.50007798116565 139.23530583352328 L 450.2887584576401 127.81030583352327 L 444.56375845764006 117.89431496019145 L 454.43644806078265 112.19431496019146 L 465.86144806078266 131.98299543666587 L 465.86144806078266 131.98299543666587 Z" fill-opacity="1"/></g></g><g><g><path fill="rgb(245,158,11)" stroke="none" paint-order="stroke fill markers" d=" M 485.6814724755896 179.44206878927145 L 485.6814724755896 179.44206878927145 L 489.20426621146396 190.2841130750362 L 456.630580528355 200.86794513237814 L 453.10778679248057 190.02590084661338 L 453.10778679248057 190.02590084661338 L 449.58499305660615 179.18385656084865 L 449.58499305660615 179.18385656084865 L 446.046748471013 168.29425944926913 L 478.62043415412205 157.7104273919272 L 485.6814724755896 179.44206878927145 Z M 460.47459016818567 175.6456119752555 L 463.9973839040601 186.48765626102025 L 474.83942818982484 182.96486252514583 L 471.3166344539504 172.1228182393811 L 460.47459016818567 175.6456119752555 Z" fill-opacity="1"/></g></g><g><g><path fill="rgb(245,158,11)" stroke="none" paint-order="stroke fill markers" d=" M 495.20108561803414 229.98486231030392 L 495.20108561803414 229.98486231030392 L 496.3927100992854 241.32241191750225 L 462.33033518292206 244.9025117844194 L 461.1387107016708 233.56496217722108 L 461.1387107016708 233.56496217722108 L 459.9470862204195 222.22741257002275 L 459.9470862204195 222.22741257002275 L 458.7502353160049 210.84013686805602 L 492.8126102323683 207.2600370011389 L 494.0094611367829 218.64731270310563 L 471.3343619223863 221.03056166560813 L 472.5259864036375 232.36811127280643 L 495.20108561803414 229.98486231030392 Z" fill-opacity="1"/></g></g><g><g><path fill="rgb(245,158,11)" stroke="none" paint-order="stroke fill markers" d=" M 482.68497758749305 280.03674757872204 L 482.68497758749305 280.03674757872204 L 483.8766020687443 268.6991979715237 L 472.53905246154596 267.5075734902725 L 473.7359033659606 256.1202977883057 L 485.0734529731589 257.311922269557 L 483.8766020687443 268.6991979715237 L 495.2141516759426 269.89082245277496 L 494.02252719469135 281.22837205997325 L 494.02252719469135 281.22837205997325 L 492.8309027134401 292.5659216671716 L 481.4933531062418 291.37429718592034 L 482.68497758749305 280.03674757872204 Z M 459.960152278328 277.64827219305613 L 459.960152278328 277.64827219305613 L 461.15177675957926 266.31072258585783 L 472.53905246154596 267.5075734902725 L 471.3474279802947 278.8451230974708 L 471.3474279802947 278.8451230974708 L 470.1558034990435 290.1826727046691 L 458.76852779707673 288.9858218002545 L 459.960152278328 277.64827219305613 Z" fill-opacity="1"/></g></g><g><g><path fill="rgb(245,158,11)" stroke="none" paint-order="stroke fill markers" d=" M 482.1432278899964 331.4475283223081 L 482.1432278899964 331.4475283223081 L 478.62043415412205 342.28957260807283 L 446.046748471013 331.70574055073087 L 449.56954220688743 320.8636962649661 L 460.45913931846695 324.40194085055924 L 463.9819330543413 313.5598965647945 L 453.09233594276185 310.02165197920135 L 456.630580528355 299.13205486762183 L 489.20426621146396 309.7158869249638 L 485.6660216258708 320.6054840365433 L 474.82397734010607 317.0826903006689 L 471.3011836042317 327.92473458643366 L 482.1432278899964 331.4475283223081 Z" fill-opacity="1"/></g></g><g><g><path fill="rgb(245,158,11)" stroke="none" paint-order="stroke fill markers" d=" M 460.0989480607827 377.99794734194967 L 450.2262584576401 372.2979473419497 L 444.5262584576401 382.17063694509227 L 424.73757798116566 370.74563694509226 L 430.43757798116565 360.87294734194967 L 430.43757798116565 360.87294734194967 L 436.13757798116563 351.0002577388071 L 436.13757798116563 351.0002577388071 L 441.86257798116566 341.08426686547523 L 471.5239480607827 358.20926686547523 L 460.0989480607827 377.99794734194967 Z M 446.0535688544975 356.7252577388071 L 440.3535688544975 366.5979473419497 L 450.2262584576401 372.2979473419497 L 455.9262584576401 362.4252577388071 L 446.0535688544975 356.7252577388071 Z" fill-opacity="1"/></g></g><g><g><path fill="rgb(245,158,11)" stroke="none" paint-order="stroke fill markers" d=" M 420.47384609431845 411.1990878473282 L 420.47384609431845 411.1990878473282 L 412.0019950838761 403.57099893483723 L 404.37390617138516 412.04284994527956 L 395.864897919669 404.3813045024706 L 403.49298683216 395.9094534920283 L 403.49298683216 395.9094534920283 L 411.12107574465097 387.437602481586 L 411.12107574465097 387.437602481586 L 418.7826211874599 378.9285942298699 L 444.23533146006065 401.8463174976607 L 428.9456971047607 418.82717675981917 L 428.9456971047607 418.82717675981917 L 421.31760819226974 427.2990277702615 L 412.8457571818275 419.6709388577705 L 420.47384609431845 411.1990878473282 Z" fill-opacity="1"/></g></g><g><g><path fill="rgb(245,158,11)" stroke="none" paint-order="stroke fill markers" d=" M 389.9341605085372 452.3428003358927 L 389.9341605085372 452.3428003358927 L 380.7113667726628 459.0435522120269 L 374.01061489652864 449.8207584761525 L 383.23340863240304 443.1200066000183 L 369.80251561752 424.63396827855075 L 379.0253093533944 417.9332164024166 L 392.45620236827745 436.41925472388414 L 401.7194469538706 429.6891135851353 L 408.4201988300048 438.9119073210097 L 389.9341605085372 452.3428003358927 L 389.9341605085372 452.3428003358927 Z" fill-opacity="1"/></g></g><g><g><path fill="rgb(245,158,11)" stroke="none" paint-order="stroke fill markers" d=" M 340.1700318884251 466.600654371681 L 340.1700318884251 466.600654371681 L 335.533234157361 456.18623615455533 L 325.1188159402353 460.82303388561945 L 320.4616813770174 450.36293839561165 L 330.87609959414306 445.72614066454753 L 330.87609959414306 445.72614066454753 L 341.2905178112687 441.0893429334834 L 341.2905178112687 441.0893429334834 L 351.7506133012765 436.4322083702655 L 356.4077478644944 446.8923038602733 L 345.9476523744866 451.5494384234912 L 350.58445010555073 461.9638566406169 L 361.04454559555853 457.30672207739894 L 365.68134332662265 467.7211402945246 L 344.80682961948924 477.0150725888066 L 344.80682961948924 477.0150725888066 L 334.39241140236356 481.65187031987074 L 329.75561367129944 471.2374521027451 L 340.1700318884251 466.600654371681 Z" fill-opacity="1"/></g></g><g><g><path fill="rgb(245,158,11)" stroke="none" paint-order="stroke fill markers" d=" M 293.09243099704946 480.6304075588571 L 293.09243099704946 480.6304075588571 L 281.9415483486841 483.0006008341796 L 277.1907662134983 460.6499281574121 L 288.3416488618637 458.27973488208966 L 293.09243099704946 480.6304075588571 L 304.24331364541484 478.26021428353465 L 299.49253151022907 455.9095416067672 L 310.6923215386311 453.5289527469038 L 317.8132969491394 487.0305080720367 L 295.46262427237195 491.78129020722247 L 293.09243099704946 480.6304075588571 Z" fill-opacity="1"/></g></g><g><g><path fill="rgb(245,158,11)" stroke="none" paint-order="stroke fill markers" d=" M 244.27500000000003 495.95 L 244.27500000000003 495.95 L 232.87500000000003 495.95 L 232.87500000000003 484.55 L 244.27500000000003 484.55 L 244.27500000000003 461.7 L 255.67500000000004 461.7 L 255.67500000000004 484.55 L 267.12500000000006 484.55 L 267.12500000000006 495.95 L 244.27500000000003 495.95 L 244.27500000000003 495.95 Z" fill-opacity="1"/></g></g><g><g><path fill="rgb(245,158,11)" stroke="none" paint-order="stroke fill markers" d=" M 193.26422462917114 489.38510797054784 L 193.26422462917114 489.38510797054784 L 182.11334198080573 487.01491469522534 L 189.234317391314 453.51335937009253 L 200.38520003967938 455.88355264541497 L 200.38520003967938 455.88355264541497 L 211.53608268804476 458.25374592073746 L 211.53608268804476 458.25374592073746 L 222.73587271644683 460.6343347806008 L 215.6148973059386 494.1358901057336 L 193.26422462917114 489.38510797054784 Z M 209.15549382818142 469.4535359491395 L 198.00461117981604 467.08334267381707 L 195.63441790449357 478.23422532218245 L 206.78530055285896 480.6044185975049 L 209.15549382818142 469.4535359491395 Z" fill-opacity="1"/></g></g><g><g><path fill="rgb(245,158,11)" stroke="none" paint-order="stroke fill markers" d=" M 144.73307489050313 472.3579380255888 L 144.73307489050313 472.3579380255888 L 134.3186566733775 467.7211402945247 L 148.24938669872364 436.4322083702656 L 158.66380491584928 441.0690061013297 L 158.66380491584928 441.0690061013297 L 169.07822313297493 445.7058038323938 L 169.07822313297493 445.7058038323938 L 179.53831862298273 450.3629383956117 L 165.60758859763658 481.6518703198708 L 155.1474931076288 476.9947357566529 L 164.42108856975702 456.16589932240163 L 154.00667035263137 451.5291015913375 L 144.73307489050313 472.3579380255888 Z" fill-opacity="1"/></g></g><g><g><path fill="rgb(245,158,11)" stroke="none" paint-order="stroke fill markers" d=" M 107.6449247560195 436.4927278804207 L 107.6449247560195 436.4927278804207 L 116.86771849189391 443.19347975655495 L 123.5684703680281 433.97068602068055 L 132.83171495362126 440.70082715942937 L 126.13096307748705 449.92362089530377 L 116.86771849189391 443.19347975655495 L 110.16696661575972 452.41627349242935 L 100.94417287988531 445.7155216162951 L 100.94417287988531 445.7155216162951 L 91.72137914401091 439.01476974016094 L 98.4221310201451 429.79197600428654 L 107.6449247560195 436.4927278804207 Z M 121.07581777090252 418.0066895589532 L 121.07581777090252 418.0066895589532 L 130.29861150677692 424.7074414350874 L 123.5684703680281 433.97068602068055 L 114.3456766321537 427.26993414454637 L 114.3456766321537 427.26993414454637 L 105.1228828962793 420.56918226841213 L 111.85302403502811 411.305937682819 L 121.07581777090252 418.0066895589532 Z" fill-opacity="1"/></g></g><g><g><path fill="rgb(245,158,11)" stroke="none" paint-order="stroke fill markers" d=" M 63.392757452430466 410.31816850810316 L 63.392757452430466 410.31816850810316 L 55.76466853993948 401.8463174976609 L 81.21737881254023 378.92859422987 L 88.84546772503121 387.40044524031225 L 80.33645947331505 395.0619906831212 L 87.96454838580604 403.5338416935635 L 96.4735566375222 395.8722962507546 L 104.13510208033112 404.3813045024707 L 78.68239180773038 427.29902777026166 L 71.02084636492145 418.7900195185455 L 79.49269737536375 411.16193060605445 L 71.86460846287275 402.6900795956122 L 63.392757452430466 410.31816850810316 Z" fill-opacity="1"/></g></g><g><g><path fill="rgb(245,158,11)" stroke="none" paint-order="stroke fill markers" d=" M 34.10105193921737 367.9520526580504 L 43.97374154235996 362.2520526580504 L 38.27374154235996 352.3793630549078 L 58.062422018834376 340.9543630549078 L 63.762422018834386 350.8270526580504 L 63.762422018834386 350.8270526580504 L 69.46242201883439 360.69974226119297 L 69.46242201883439 360.69974226119297 L 75.1874220188344 370.6157331345248 L 45.52605193921738 387.7407331345248 L 34.10105193921737 367.9520526580504 Z M 59.54643114550257 366.424742261193 L 53.846431145502564 356.5520526580504 L 43.97374154235996 362.2520526580504 L 49.67374154235997 372.124742261193 L 59.54643114550257 366.424742261193 Z" fill-opacity="1"/></g></g><g><g><path fill="rgb(245,158,11)" stroke="none" paint-order="stroke fill markers" d=" M 25.16057181017517 317.0351374748542 L 25.16057181017517 317.0351374748542 L 36.00261609593992 313.51234373897984 L 32.47982236006552 302.6702994532151 L 43.36941947164503 299.1320548676219 L 46.89221320751943 309.97409915338665 L 46.89221320751943 309.97409915338665 L 50.415006943393834 320.8161434391514 L 50.415006943393834 320.8161434391514 L 53.95325152898698 331.7057405507309 L 21.37956584587797 342.2895726080729 L 14.31852752441042 320.5579312107286 L 14.31852752441042 320.5579312107286 L 10.795733788536019 309.71588692496385 L 21.63777807430077 306.1930931890895 L 25.16057181017517 317.0351374748542 Z" fill-opacity="1"/></g></g><g><g><path fill="rgb(245,158,11)" stroke="none" paint-order="stroke fill markers" d=" M 4.798914381965844 270.0151376896962 L 4.798914381965844 270.0151376896962 L 3.6072899007145907 258.6775880824979 L 14.944839507912906 257.4859636012466 L 16.136463989164167 268.8235132084449 L 38.86128929832921 266.43503782277907 L 40.05291377958047 277.77258742997736 L 17.328088470415423 280.1610628156433 L 18.524939374830065 291.54833851761 L 7.187389767631743 292.73996299886124 L 4.798914381965844 270.0151376896962 L 4.798914381965844 270.0151376896962 Z" fill-opacity="1"/></g></g><g><g><path fill="rgb(245,158,11)" stroke="none" paint-order="stroke fill markers" d=" M 17.333314893578795 219.78921108958863 L 17.333314893578795 219.78921108958863 L 28.67086450077711 220.98083557083987 L 29.862488982028356 209.64328596364155 L 41.24976468399509 210.84013686805616 L 40.05814020274384 222.1776864752545 L 40.05814020274384 222.1776864752545 L 38.8665157214926 233.51523608245282 L 38.8665157214926 233.51523608245282 L 37.66966481707797 244.90251178441954 L 26.28238911511124 243.7056608800049 L 27.479240019525868 232.31838517803817 L 16.141690412327552 231.12676069678693 L 14.944839507912924 242.51403639875366 L 3.607289900714612 241.32241191750242 L 5.9957652863804825 218.59758660833737 L 5.9957652863804825 218.59758660833737 L 7.187389767631721 207.26003700113907 L 18.52493937483004 208.4516614823903 L 17.333314893578795 219.78921108958863 Z" fill-opacity="1"/></g></g><g><g><path fill="rgb(245,158,11)" stroke="none" paint-order="stroke fill markers" d=" M 28.721992670346406 172.00393617484423 L 28.721992670346406 172.00393617484423 L 32.244786406220804 161.16189188907947 L 53.976427803565066 168.22293021054702 L 50.453634067690665 179.06497449631178 L 28.721992670346406 172.00393617484423 L 25.199198934472008 182.84598046060898 L 46.93084033181627 189.90701878207653 L 43.39259574622312 200.79661589365605 L 10.81891006311411 190.2127838363141 L 17.879948384581652 168.48114243896984 L 28.721992670346406 172.00393617484423 Z" fill-opacity="1"/></g></g><g><g><path fill="rgb(245,158,11)" stroke="none" paint-order="stroke fill markers" d=" M 39.863551939217224 122.06700456333425 L 39.863551939217224 122.06700456333425 L 45.56355193921722 112.19431496019165 L 55.436241542359824 117.89431496019165 L 49.73624154235983 127.76700456333424 L 69.52492201883426 139.19200456333422 L 63.82492201883427 149.06469416647684 L 44.03624154235983 137.63969416647686 L 38.31124154235984 147.55568503980868 L 28.438551939217234 141.8556850398087 L 39.863551939217224 122.06700456333425 L 39.863551939217224 122.06700456333425 Z" fill-opacity="1"/></g></g><g><g><path fill="rgb(245,158,11)" stroke="none" paint-order="stroke fill markers" d=" M 71.05430289523926 81.17282324018083 L 71.05430289523926 81.17282324018083 L 78.68239180773023 72.70097222973854 L 104.135102080331 95.61869549752942 L 96.50701316784001 104.09054650797171 L 96.50701316784001 104.09054650797171 L 88.87892425534903 112.56239751841402 L 88.87892425534903 112.56239751841402 L 81.21737881254012 121.07140577013018 L 55.76466853993936 98.1536825023393 L 71.05430289523926 81.17282324018083 Z M 80.36991600363288 104.90085207560509 L 87.99800491612385 96.4290010651628 L 79.52615390568155 88.80091215267181 L 71.89806499319057 97.2727631631141 L 80.36991600363288 104.90085207560509 Z" fill-opacity="1"/></g></g><g><g><path fill="rgb(245,158,11)" stroke="none" paint-order="stroke fill markers" d=" M 110.06583949146275 47.65719966410728 L 110.06583949146275 47.65719966410728 L 119.28863322733714 40.95644778797308 L 139.42027811835436 68.66527984531504 L 130.19748438247996 75.36603172144923 L 130.19748438247996 75.36603172144923 L 120.97469064660555 82.06678359758342 L 120.97469064660555 82.06678359758342 L 111.71144606101241 88.79692473633224 L 91.57980116999519 61.0880926789903 L 100.84304575558835 54.35795154024148 L 114.24454950785673 72.80353901199028 L 123.46734324373114 66.10278713585608 L 110.06583949146275 47.65719966410728 Z" fill-opacity="1"/></g></g><g><g><path fill="rgb(245,158,11)" stroke="none" paint-order="stroke fill markers" d=" M 159.67009765648731 33.47052454085734 L 159.67009765648731 33.47052454085734 L 149.25567943936167 38.107322271921475 L 153.8924771704258 48.52174048904712 L 143.43238168041802 53.17887505226504 L 138.7955839493539 42.7644568351394 L 149.25567943936167 38.107322271921475 L 144.61888170829755 27.692904054795832 L 155.0332999254232 23.056106323731697 L 155.0332999254232 23.056106323731697 L 165.44771814254884 18.41930859266757 L 170.08451587361296 28.833726809793212 L 159.67009765648731 33.47052454085734 Z M 168.96402995076937 54.34503824799077 L 168.96402995076937 54.34503824799077 L 158.54961173364373 58.9818359790549 L 153.8924771704258 48.52174048904712 L 164.30689538755146 43.88494275798299 L 164.30689538755146 43.88494275798299 L 174.7213136046771 39.24814502691886 L 179.37844816789502 49.70824051692664 L 168.96402995076937 54.34503824799077 Z" fill-opacity="1"/></g></g><g><g><path fill="rgb(245,158,11)" stroke="none" paint-order="stroke fill markers" d=" M 204.464014657573 8.234303169588834 L 204.464014657573 8.234303169588834 L 215.61489730593837 5.86410989426637 L 222.73587271644666 39.36566521939921 L 211.58499006808128 41.735858494721676 L 209.20440120821792 30.5360684663196 L 198.05351855985253 32.90626174164206 L 200.4341074197159 44.10605177004414 L 189.23431739131382 46.48664062990749 L 182.11334198080553 12.98508530477465 L 193.3131320092076 10.604496444911298 L 195.68332528453007 21.75537909327668 L 206.83420793289545 19.385185817954216 L 204.464014657573 8.234303169588834 Z" fill-opacity="1"/></g></g></g></g></svg>