<svg version="1.1" xmlns="http://www.w3.org/2000/svg" xmlns:xlink="http://www.w3.org/1999/xlink" width="500" height="500" viewBox="0 0 500 500"><defs/><g><g><g><g><path fill="rgb(245,158,11)" stroke="none" paint-order="stroke fill markers" d=" M 246.9482421875 5.62744140625 L 246.9482421875 5.62744140625 Q 242.37060546875 5.62744140625 238.3270263671875 7.3822021484375 Q 234.283447265625 9.136962890625 231.26220703125 12.158203125 Q 228.240966796875 15.179443359375 226.50146484375 19.207763671875 Q 224.761962890625 23.236083984375 224.761962890625 27.813720703125 L 224.761962890625 27.813720703125 Q 224.761962890625 32.391357421875 226.50146484375 36.4349365234375 Q 228.240966796875 40.478515625 231.26220703125 43.499755859375 Q 234.283447265625 46.52099609375 238.3270263671875 48.260498046875 Q 242.37060546875 50 246.9482421875 50 L 246.9482421875 50 Q 251.52587890625 50 255.55419921875 48.260498046875 Q 259.58251953125 46.52099609375 262.603759765625 43.499755859375 Q 265.625 40.478515625 267.3797607421875 36.4349365234375 Q 269.134521484375 32.391357421875 269.134521484375 27.813720703125 L 269.134521484375 27.813720703125 Q 269.134521484375 26.50146484375 268.951416015625 25.2197265625 L 268.951416015625 25.2197265625 L 266.54052734375 25.2197265625 L 263.73291015625 25.2197265625 L 246.9482421875 25.2197265625 L 246.9482421875 30.40771484375 L 263.73291015625 30.40771484375 Q 263.275146484375 33.489990234375 261.77978515625 36.1297607421875 Q 260.284423828125 38.76953125 258.056640625 40.692138671875 Q 255.828857421875 42.61474609375 252.99072265625 43.71337890625 Q 250.152587890625 44.81201171875 246.9482421875 44.81201171875 L 246.9482421875 44.81201171875 Q 243.377685546875 44.81201171875 240.2801513671875 43.4844970703125 Q 237.1826171875 42.156982421875 234.893798828125 39.8681640625 Q 232.60498046875 37.579345703125 231.2774658203125 34.4818115234375 Q 229.949951171875 31.38427734375 229.949951171875 27.813720703125 L 229.949951171875 27.813720703125 Q 229.949951171875 24.30419921875 231.2774658203125 21.2066650390625 Q 232.60498046875 18.109130859375 234.893798828125 15.8050537109375 Q 237.1826171875 13.5009765625 240.2801513671875 12.158203125 Q 243.377685546875 10.8154296875 246.9482421875 10.8154296875 L 246.9482421875 10.8154296875 Q 249.69482421875 10.8154296875 252.1820068359375 11.6546630859375 Q 254.669189453125 12.493896484375 256.7596435546875 13.9739990234375 Q 258.85009765625 15.4541015625 260.4217529296875 17.498779296875 Q 261.993408203125 19.54345703125 262.908935546875 21.954345703125 L 262.908935546875 21.954345703125 L 268.310546875 21.954345703125 Q 267.333984375 18.475341796875 265.3045654296875 15.484619140625 Q 263.275146484375 12.493896484375 260.467529296875 10.296630859375 Q 257.659912109375 8.099365234375 254.21142578125 6.8634033203125 Q 250.762939453125 5.62744140625 246.9482421875 5.62744140625 Z" fill-opacity="1"/></g></g><g><g><path fill="rgb(245,158,11)" stroke="none" paint-order="stroke fill markers" d=" M 298.2258266579839 10.418728976691938 L 298.2258266579839 10.418728976691938 Q 293.74822228450756 9.466984786547165 289.428169815048 10.34269242841853 Q 285.1081173455885 11.218400070289889 281.5247472935986 13.54546779128868 Q 277.9413772416087 15.872535512287477 275.4023526923603 19.451164568691595 Q 272.8633281431119 23.02979362509571 271.91158395296713 27.507397998571992 L 271.91158395296713 27.507397998571992 Q 270.95983976282236 31.985002372048278 271.82062205678216 36.301882360874 Q 272.6814043507419 40.618762349699736 275.0084720717407 44.20213240168964 Q 277.3355397927395 47.785502453679534 280.92909419705524 50.32769948356174 Q 284.5226486013709 52.86989651344394 289.0002529748472 53.82164070358871 L 289.0002529748472 53.82164070358871 Q 292.7315899527441 54.61476086204269 296.3585170314682 54.13771365235807 Q 299.98544411019225 53.66066644267346 303.18537285656004 52.11007812793856 Q 306.3853016029278 50.559489813203655 308.9921790793969 48.05606154683 Q 311.599056555866 45.55263328045635 313.2902943292529 42.292991325532235 L 313.2902943292529 42.292991325532235 L 307.9768704727277 41.163588219893775 Q 306.56740773535427 43.39114574354201 304.6049844955294 45.06437685841171 Q 302.64256125570455 46.73760797328141 300.3081557988823 47.73898400659486 Q 297.97375034206004 48.74036003990831 295.36960467824525 49.029214483822045 Q 292.7654590144304 49.31806892773579 290.0788963903446 48.74702241364892 L 290.0788963903446 48.74702241364892 Q 286.94457332891125 48.08080148054758 284.36702652716747 46.40975007175588 Q 281.78947972542375 44.73869866296418 280.0101114901928 42.39492265356702 Q 278.2307432549618 40.05114664416986 277.3467490050995 37.16450331461888 Q 276.46275475523726 34.27785998506789 276.65583540592047 31.167765287912722 L 276.65583540592047 31.167765287912722 L 304.5662360005893 37.100304073148465 L 305.6448794160867 32.02568578320868 L 277.7344788214179 26.09314699797293 Q 278.81673538552866 23.20325183466989 280.7984079346912 20.925724786811557 Q 282.7800804838538 18.648197738953222 285.3589138388064 17.23078607463031 Q 287.937747193759 15.813374410307397 290.97530368740604 15.320250371918888 Q 294.01286018105304 14.827126333530387 297.14718324248645 15.49334726663173 L 297.14718324248645 15.49334726663173 Q 299.83374586657226 16.06439378071859 302.0920911413011 17.4024022591679 Q 304.35043641603005 18.74041073761721 306.0725531105258 20.619626851240177 Q 307.7946698050216 22.498842964863137 308.9068682349838 24.825605090298914 Q 310.01906666494597 27.152367215734692 310.41333559949834 29.70092102379449 L 310.41333559949834 29.70092102379449 L 315.7267594560235 30.830324129432952 Q 315.4948627741919 27.224306045026758 314.1315977061787 23.876997930058067 Q 312.7683326381655 20.529689815089377 310.4789058337028 17.79670327919864 Q 308.1894790292402 15.0637167433079 305.0733213325605 13.137782939226902 Q 301.95716363588076 11.211849135145911 298.2258266579839 10.418728976691938 Z" fill-opacity="1"/></g></g><g><g><path fill="rgb(245,158,11)" stroke="none" paint-order="stroke fill markers" d=" M 346.6073546548314 25.513297396042773 L 346.6073546548314 25.513297396042773 Q 343.0945761006637 23.949307618590666 339.4415160799672 23.67578925820736 Q 335.78845605927063 23.402270897824053 332.3159220891352 24.261405830250688 Q 328.84338811899977 25.120540762677315 325.786924763719 27.03346911979316 Q 322.73046140843826 28.946397476909006 320.45116799725776 31.739834556862213 L 320.45116799725776 31.739834556862213 L 325.4136646848915 33.94928043294536 Q 328.57327004287447 30.679236631886447 333.0252201220284 29.421024642353927 Q 337.4771702011823 28.162812652821408 342.0405898317102 29.39284241988608 L 342.0405898317102 29.39284241988608 L 328.39912343948896 60.03207758679338 Q 326.93718946477645 59.11393746004211 325.71089844237497 57.96665585367283 L 325.71089844237497 57.96665585367283 L 323.50145256629185 62.929152541306586 Q 325.7714896402906 64.80838501520664 328.5594091277253 66.04964674334325 L 328.5594091277253 66.04964674334325 Q 331.34732861516 67.29090847147984 334.23494259291544 67.7080101946325 L 334.23494259291544 67.7080101946325 L 336.44438846899857 62.74551350699873 Q 334.79912241934227 62.61429553338731 333.13858656812795 62.142222524625595 L 333.13858656812795 62.142222524625595 L 346.7800529603491 31.50298735771829 Q 350.6919085716227 34.046393244188884 352.76369009306603 38.20915767756104 Q 354.8354716145093 42.3719221109332 354.51954413370976 46.908052874691435 L 354.51954413370976 46.908052874691435 L 359.4820408213435 49.11749875077457 Q 360.0049449554401 45.54206678209531 359.3674149898699 41.98446663519847 Q 358.7298850242997 38.426866488301634 357.0587075401181 35.27760366746299 Q 355.38753005593657 32.12834084662433 352.73989203503066 29.596607701418925 Q 350.0922540141248 27.064874556213525 346.6073546548314 25.513297396042773 Z" fill-opacity="1"/></g></g><g><g><path fill="rgb(245,158,11)" stroke="none" paint-order="stroke fill markers" d=" M 391.9673076179625 85.75052749784032 L 391.9673076179625 85.75052749784032 L 387.59731225650114 82.57554002055248 Q 383.7842444989103 85.12395808353035 379.15563860858316 85.42009376273417 Q 374.52703271825607 85.71622944193798 370.36169934582813 83.55753902818579 L 370.36169934582813 83.55753902818579 L 390.11119772149993 56.37468652553633 Q 393.4334553231226 59.693771187812175 394.5731625449046 64.1996925583498 Q 395.7128697666866 68.70561392888742 394.4607314424732 73.07693433536352 L 394.4607314424732 73.07693433536352 L 398.8554160432649 76.26985959500891 Q 400.11026757345724 72.88127727591396 400.2263358290337 69.2688692947679 Q 400.3424040846101 65.65646131362183 399.36251439596765 62.22856010494557 Q 398.38262470732514 58.8006588962693 396.31922084848344 55.773775296988454 Q 394.2558169896418 52.7468916977076 391.16966207335554 50.504668903012806 L 391.16966207335554 50.504668903012806 Q 388.05881791773896 48.24450832596045 384.54245368793505 47.217453112433105 Q 381.02608945813114 46.19039789890576 377.4508144903351 46.308778262612506 Q 373.8755395225391 46.42715862631924 370.4881470556992 47.662810445088816 Q 367.10075458885933 48.8984622638584 364.29048098085866 51.15696429442717 L 364.29048098085866 51.15696429442717 L 368.6851655816503 54.34988955407256 Q 372.4556063175533 51.80822294806742 377.09318109905917 51.49974264919846 Q 381.7307558805651 51.1912623503295 385.91402703535056 53.325263524751406 L 385.91402703535056 53.325263524751406 L 366.1645286596788 80.50811602740086 Q 362.82433327569856 77.21372060445532 361.67565716273776 72.72014385358284 Q 360.52698104977696 68.22656710271036 361.79705715634793 63.830557456903975 L 361.79705715634793 63.830557456903975 L 357.40237255555627 60.63763219725858 Q 356.0869562213185 64.05765521265656 355.9585433460769 67.66109430262384 Q 355.83013047083534 71.26453339259112 356.8313336703218 74.68905887278102 Q 357.83253686980817 78.11358435297092 359.90490961982863 81.12812333258663 Q 361.9772823698491 84.14266231220232 365.0881265254656 86.40282288925468 L 365.0881265254656 86.40282288925468 Q 368.1742814417519 88.64504568394948 371.681676780377 89.68444551714197 Q 375.18907211900216 90.72384535033446 378.74303357595426 90.60884071511408 Q 382.29699503290635 90.49383607989371 385.6967321194114 89.26715315230291 Q 389.0964692059164 88.04047022471211 391.9673076179625 85.75052749784032 Z" fill-opacity="1"/></g></g><g><g><path fill="rgb(245,158,11)" stroke="none" paint-order="stroke fill markers" d=" M 421.3754920469005 83.33211282948929 L 425.57110339679423 79.55436740174306 Q 422.372267581248 77.50675787270727 418.70300328307724 76.6013694611627 Q 415.0337389849064 75.69598104961814 411.33524858513937 75.96674059284277 Q 407.6367581853724 76.23750013606738 404.1245378131347 77.69570130763276 Q 400.6123174408969 79.15390247919812 397.66405000583643 81.80853440139818 L 397.66405000583643 81.80853440139818 Q 394.69310359050627 84.48358656915363 392.86442410923064 87.83435322588144 Q 391.035744627955 91.18511988260926 390.3798708159404 94.83504748601857 Q 389.7239970039258 98.48497508942788 390.25222253474374 102.21856751039329 Q 390.7804480655617 105.95215993135868 392.48247118330795 109.34750566704989 L 392.48247118330795 109.34750566704989 L 396.7007615134714 105.54933999374826 Q 395.66583029490994 103.03169828443225 395.4486091831045 100.37323614125299 Q 395.23138807129914 97.71477399807372 395.80016314712293 95.10830856988689 Q 396.36893822294667 92.50184314170005 397.7464342832326 90.13224018929799 Q 399.1239303435185 87.76263723689593 401.2784334691396 85.82271390913435 L 401.2784334691396 85.82271390913435 Q 403.45561557503044 83.86237033581739 406.04242359251265 82.74462876767723 Q 408.6292316099949 81.62688719953705 411.34439120384843 81.3586154738432 L 411.34439120384843 81.3586154738432 L 409.51255735054235 116.31208761798385 Q 407.09665033649696 115.81812568711211 404.8892799811808 114.64361108189631 L 404.8892799811808 114.64361108189631 L 400.67098965101735 118.44177675519794 Q 403.86982546656355 120.48938628423373 407.50733002904417 121.38230583828629 Q 411.1448345915247 122.27522539233885 414.8535351140694 122.01580533924907 Q 418.5622356366141 121.7563852861593 422.1062157445421 120.31065297208593 Q 425.65019585247006 118.86492065801257 428.6211422678002 116.18986849025711 L 428.6211422678002 116.18986849025711 Q 431.5694097028607 113.53523656805706 433.3663294484461 110.17200105383723 Q 435.1632491940315 106.80876553961741 435.8089128832684 103.14749844607326 Q 436.45457657250535 99.4862313525291 435.9581107773776 95.7651077890557 Q 435.4616449822499 92.04398422558232 433.75962186450363 88.6486384898911 L 433.75962186450363 88.6486384898911 L 429.5640105146099 92.42638391763734 Q 430.5558425073463 94.94176689223903 430.76172412901684 97.610439158196 Q 430.96760575068737 100.27911142415297 430.3886205520859 102.87423736220495 Q 429.80963535348445 105.46936330025693 428.4525595387539 107.8616452329287 Q 427.0954837240234 110.25392716560044 424.98633855894167 112.15301000225125 L 424.98633855894167 112.15301000225125 Q 422.7864774727812 114.13377382112361 420.18945933252127 115.24017589912893 Q 417.5924411922613 116.34657797713425 414.8999605786775 116.59442945727271 L 414.8999605786775 116.59442945727271 L 416.7295356972692 81.68405653895714 Q 419.16812169158436 82.1575982242735 421.3754920469005 83.33211282948929 L 421.3754920469005 83.33211282948929 Z" fill-opacity="1"/></g></g><g><g><path fill="rgb(245,158,11)" stroke="none" paint-order="stroke fill markers" d=" M 460.1069648237387 125.17082091130234 L 460.1069648237387 125.17082091130234 Q 458.1843574018637 121.84076717360583 455.38973982211303 119.4722713658775 Q 452.5951222423624 117.1037755581492 449.28079640396885 115.75772606321325 Q 445.96647056557526 114.41167656827733 442.3693486914641 114.16272403379939 Q 438.77222681735293 113.91377149932146 435.2862985937376 114.83397451698144 L 435.2862985937376 114.83397451698144 L 438.0023630468626 119.53833614642572 Q 442.4806209976018 118.74998457150527 446.821882721451 120.34886028991613 Q 451.1631444453002 121.94773600832698 454.1320351219002 125.6251617523156 L 454.1320351219002 125.6251617523156 L 425.0865664097695 142.39457093200312 Q 424.4435062056153 140.79247673608245 424.1257711368934 139.14351064120967 L 424.1257711368934 139.14351064120967 L 419.4214095074491 141.85957509433467 Q 420.1533229443877 144.7142004163547 421.6792018506377 147.35710020817734 L 421.6792018506377 147.35710020817734 Q 423.2050807568877 149.99999999999997 425.2960432965116 152.03473929285178 L 425.2960432965116 152.03473929285178 L 430.0004049259559 149.31867483972678 Q 428.7464847212403 148.24545414902224 427.6805605503945 146.88750057810157 L 427.6805605503945 146.88750057810157 L 456.7260292625252 130.11809139841407 Q 458.3958104609252 134.47508102156624 457.625105377701 139.06059081602032 Q 456.8544002944768 143.6461006104744 453.9325388281126 147.13020997305395 L 453.9325388281126 147.13020997305395 L 456.6486032812376 151.83457160249824 Q 459.17322779391543 149.24934171599 460.74856011724535 145.99645202630293 Q 462.32389244057526 142.7435623366159 462.8229716969376 139.21346171563908 Q 463.3220509532999 135.68336109466227 462.66818220492553 132.07890337287145 Q 462.0143134565512 128.47444565108063 460.1069648237387 125.17082091130234 Z" fill-opacity="1"/></g></g><g><g><path fill="rgb(245,158,11)" stroke="none" paint-order="stroke fill markers" d=" M 481.4690692275262 171.58233228191088 L 481.4690692275262 171.58233228191088 Q 480.05450168735763 167.22874105131172 477.1360903884791 163.92531968801373 Q 474.21767908960055 160.62189832471574 470.4106943008939 158.68214268903154 Q 466.60370951218727 156.74238705334733 462.23501356399595 156.33284182106794 Q 457.86631761580463 155.92329658878856 453.5127263852055 157.33786412895708 L 453.5127263852055 157.33786412895708 Q 449.15913515460636 158.7524316691256 445.8509985661745 161.65633099723547 Q 442.5428619777426 164.56023032534534 440.60310634205837 168.36721511405202 Q 438.66335070637416 172.1741999027587 438.25852069922865 176.55740782171864 Q 437.8536906920832 180.9406157406786 439.2682582322517 185.29420697127776 L 439.2682582322517 185.29420697127776 Q 440.68282577242024 189.6477982018769 443.58200987539624 192.94142281954012 Q 446.4811939783722 196.23504743720332 450.2881787670789 198.17480307288756 Q 454.0951635557855 200.11455870857176 458.4830866998794 200.5339006864859 Q 462.87100984397324 200.95324266440005 467.2246010745724 199.53867512423153 L 467.2246010745724 199.53867512423153 Q 471.5781923051715 198.124107584063 474.86710169770083 195.21041151031838 Q 478.15601109023015 192.29671543657375 480.09576672591436 188.48973064786708 Q 482.0355223615986 184.6827458591604 482.4595795646467 180.3093346858352 Q 482.88363676769467 175.93592351251004 481.4690692275262 171.58233228191088 Z M 476.53499916618046 173.1855088274352 L 476.53499916618046 173.1855088274352 Q 477.6195009469763 176.52326210422788 477.2996382215146 179.8841319820494 Q 476.97977549605287 183.24500185987094 475.5004669052028 186.14830844115733 Q 474.0211583143527 189.05161502244374 471.4901680600967 191.28585915226685 Q 468.95917780584074 193.52010328208996 465.62142452904806 194.60460506288584 L 465.62142452904806 194.60460506288584 Q 462.2256233691807 195.70796774421729 458.8647534913592 195.38810501875557 Q 455.50388361353765 195.06824229329385 452.61508900301993 193.58421847730986 Q 449.7262943925022 192.10019466132587 447.50656223344777 189.56448918193598 Q 445.28683007439327 187.02878370254612 444.2023282935974 183.6910304257534 L 444.2023282935974 183.6910304257534 Q 443.098965612266 180.2952292658861 443.40431636695905 176.93907461319844 Q 443.7096671216521 173.58291996051082 445.1791789668674 170.69884057512698 Q 446.6486908120827 167.81476118974314 449.1843962914726 165.5950290306887 Q 451.72010177086247 163.37529687163425 455.1159029307298 162.2719341903028 L 455.1159029307298 162.2719341903028 Q 458.4536562075225 161.18743240950693 461.8098108602101 161.49278316419998 Q 465.1659655128978 161.79813391889303 468.06455686905025 163.26293053897444 Q 470.96314822520276 164.7277271590559 473.1973923550259 167.25871741331187 Q 475.43163648484904 169.78970766756785 476.53499916618046 173.1855088274352 Z" fill-opacity="1"/></g></g><g><g><path fill="rgb(245,158,11)" stroke="none" paint-order="stroke fill markers" d=" M 486.38535315326413 216.0872805343912 L 491.8787754879095 215.5098985809169 Q 490.5039875011703 212.06417035611662 488.1363399711372 209.24445239144802 Q 485.7686924411041 206.42473442677942 482.7164284755121 204.53617151837415 Q 479.66416450992006 202.6476086099689 476.0446753519094 201.78526231215898 Q 472.4251861938988 200.92291601434908 468.60103583939434 201.32485041290025 L 468.60103583939434 201.32485041290025 Q 463.9574246946389 201.81291361114094 460.05871838698687 203.98711061105473 Q 456.1600120793348 206.16130761096852 453.44396766984806 209.51534312926663 Q 450.7279232603613 212.86937864756476 449.4118243017988 217.13492984278335 Q 448.09572534323627 221.40048103800194 448.58378854147696 226.04409218275737 L 448.58378854147696 226.04409218275737 Q 449.0686617841736 230.65735292787386 451.2412638063154 234.54088403570645 Q 453.4138658284571 238.42441514353905 456.76949632452727 241.1556347528453 Q 460.1251268205974 243.8868543621515 464.39386797136007 245.23330372035292 Q 468.6626091221227 246.57975307855435 473.30622026687814 246.09168988031368 L 473.30622026687814 246.09168988031368 Q 477.1303706213826 245.68975548176252 480.48828342478055 244.0633690091806 Q 483.84619622817854 242.43698253659872 486.43751161765437 239.9399126971794 Q 489.0288270071302 237.44284285776013 490.761673383896 234.22283129428277 Q 492.4945197606618 231.00281973080544 493.1228581500916 227.3465544400974 L 493.1228581500916 227.3465544400974 L 487.6597862150852 227.92074643802763 Q 487.0076606249861 230.47482747510222 485.6295866431664 232.69095211679257 Q 484.25151266134674 234.90707675848296 482.3136429079197 236.61435327333018 Q 480.3757731544927 238.3216297881774 477.94600873969557 239.43620728822398 Q 475.5162443248985 240.5507847882706 472.7543579577563 240.84107074277975 L 472.7543579577563 240.84107074277975 Q 469.1730108003633 241.21748549697847 465.90496661584353 240.1954581340842 Q 462.6369224313238 239.17343077118989 460.0694902820537 237.08048159811307 Q 457.5020581327836 234.98753242503625 455.85484530522456 232.01537952821297 Q 454.2076324776655 229.0432266313897 453.8344076790109 225.49222987363555 L 453.8344076790109 225.49222987363555 Q 453.4579929248122 221.91088271624247 454.44966988806755 218.6460284872668 Q 455.4413468513229 215.3811742582911 457.5191208245803 212.81533708679305 Q 459.59689479783765 210.249499915295 462.58262791670836 208.58551691014446 Q 465.5683610355791 206.92153390499394 469.1497081929721 206.54511915079524 L 469.1497081929721 206.54511915079524 Q 471.9115945601143 206.25483319628606 474.5168065298345 206.8095276763803 Q 477.12201849955477 207.36422215647454 479.3709089185273 208.61610960642247 Q 481.61979933749984 209.86799705637037 483.4165320734918 211.78112174334575 Q 485.21326480948375 213.6942464303211 486.38535315326413 216.0872805343912 L 486.38535315326413 216.0872805343912 Z" fill-opacity="1"/></g></g><g><g><path fill="rgb(245,158,11)" stroke="none" paint-order="stroke fill markers" d=" M 493.3097913032116 272.9185784458223 L 493.3097913032116 272.9185784458223 Q 493.7882846348201 268.3660184999836 492.46580576516953 264.1611681040429 Q 491.1433268955189 259.9563177081021 488.454442930127 256.63582254498704 Q 485.76555896473513 253.31532738187187 481.94113367840833 251.1642804706377 Q 478.1167083920816 249.0132335594035 473.56414844624294 248.53474022779497 L 473.56414844624294 248.53474022779497 Q 469.0115885004043 248.05624689618645 464.80833308223555 249.36355056601764 Q 460.6050776640668 250.6708542358488 457.2845825009517 253.35973820124067 Q 453.96408733783653 256.0486221666326 451.81144544883034 259.8882226527788 Q 449.65880355982415 263.72782313892503 449.1803102282156 268.2803830847637 L 449.1803102282156 268.2803830847637 Q 448.7815657852085 272.07418303962925 449.63511679428706 275.63137642058996 Q 450.4886678033656 279.18856980155067 452.36524546749547 282.2088883897318 Q 454.2418231316253 285.2292069779129 457.00403025256014 287.56012419721895 Q 459.76623737349496 289.89104141652496 463.1848051542004 291.23228904808116 L 463.1848051542004 291.23228904808116 L 463.7526172410425 285.8299179123526 Q 461.3899335366113 284.6610195241163 459.5207394713223 282.88424692125983 Q 457.6515454060333 281.10747431840343 456.4116432003608 278.89052927684185 Q 455.1717409946883 276.67358423528026 454.61226158127795 274.11389786501843 Q 454.05278216786763 271.55421149475654 454.33987816683276 268.82267552725335 L 454.33987816683276 268.82267552725335 Q 454.7131029654874 265.2716787694992 456.3571258375024 262.32987627231483 Q 458.00114870951734 259.3880737751305 460.51667534824094 257.3510404680154 Q 463.03220198696454 255.31400716090036 466.25153061648183 254.3175452643289 Q 469.4708592459991 253.32108336775747 473.02185600375327 253.69430816641213 L 473.02185600375327 253.69430816641213 Q 476.51215196222955 254.06115305397864 479.4539544594139 255.70517592599361 Q 482.39575695659823 257.3491987980086 484.4479654635328 259.86632041450423 Q 486.5001739704673 262.38344203099984 487.51181106685823 265.60436563828915 Q 488.52344816324916 268.82528924557846 488.15022336459447 272.3762860033326 L 488.15022336459447 272.3762860033326 Q 487.8631273656294 275.1078219708358 486.76850999871834 277.4936557639466 Q 485.6738926318073 279.87948955705735 483.9849812723236 281.78860388861744 Q 482.29606991283987 283.6977182201776 480.098310426513 285.0470367801304 Q 477.9005509401862 286.3963553400832 475.40717070238946 287.0548608412704 L 475.40717070238946 287.0548608412704 L 474.8393586155473 292.45723197699897 Q 478.40138275179453 291.84967412057586 481.58785396008886 290.14398818790494 Q 484.77432516838326 288.438302255234 487.25302985243906 285.8757422876251 Q 489.7317345364948 283.31318232001615 491.32139069834966 280.012780360352 Q 492.9110468602045 276.71237840068784 493.3097913032116 272.9185784458223 Z" fill-opacity="1"/></g></g><g><g><path fill="rgb(245,158,11)" stroke="none" paint-order="stroke fill markers" d=" M 481.61418893521284 328.46481996942805 L 481.61418893521284 328.46481996942805 L 476.2447597508072 326.72018666988686 Q 473.30062116869414 330.44843781987606 468.8170215697281 332.2485681783783 Q 464.3334219707621 334.0486985368806 459.4922844599 333.2458315411978 L 459.4922844599 333.2458315411978 L 470.30901091705533 299.9553705978829 Q 474.6974868150635 302.1513867873574 477.271420234802 306.228604590164 Q 479.8453536545405 310.30582239297064 480.026370308191 315.08158611341844 L 480.026370308191 315.08158611341844 L 485.39579949259667 316.82621941295963 Q 485.5696634539997 313.0321415696432 484.51912066960386 309.4017712684557 Q 483.4685778852081 305.7714009672682 481.384848042575 302.70379409702946 Q 479.3011181999419 299.6361872267907 476.2821687554192 297.3236157465263 Q 473.2632193108965 295.0110442662618 469.4901069110439 293.7850857314491 L 469.4901069110439 293.7850857314491 Q 465.68797056965394 292.54969674636857 461.871781782136 292.6413971885685 Q 458.05559299461805 292.7330976307683 454.56672606208423 293.99005804959137 Q 451.0778591295504 295.2470184684144 448.1085860110263 297.571271407513 Q 445.1393128925022 299.8955243466116 443.0498687896356 303.0671924722538 L 443.0498687896356 303.0671924722538 L 448.4483219155785 304.8212562220628 Q 451.37286700642204 301.0545506802685 455.85175138025414 299.2689322925349 Q 460.33063575408625 297.4833139048013 465.17177326494834 298.28618090048406 L 465.17177326494834 298.28618090048406 L 454.35504680779303 331.57664184379894 Q 449.9665709097849 329.38062565432443 447.39735271518026 325.2888958807492 Q 444.82813452057565 321.1971661071739 444.63768741665734 316.4504263282634 L 444.63768741665734 316.4504263282634 L 439.2682582322517 314.7057930287222 Q 439.09439427084874 318.4998708720386 440.1398555347436 322.0965020065549 Q 441.18531679863855 325.6931331410712 443.26433141613774 328.7752519820786 Q 445.3433460336369 331.85737082308606 448.3673769986605 334.2036814700217 Q 451.3914079636841 336.54999211695736 455.19354430507406 337.7853811020379 L 455.19354430507406 337.7853811020379 Q 458.9666567049266 339.0113396368506 462.7777639719437 338.8859000279795 Q 466.5888712389608 338.7604604191084 470.0824533966285 337.4889880295167 Q 473.57603555429625 336.21751563992495 476.5503901933212 333.9270018674976 Q 479.5247448323462 331.63648809507026 481.61418893521284 328.46481996942805 Z" fill-opacity="1"/></g></g><g><g><path fill="rgb(245,158,11)" stroke="none" paint-order="stroke fill markers" d=" M 463.15872263623874 369.5433795050523 L 463.15872263623874 369.5433795050523 Q 465.44754099561374 365.57902981731837 465.949663166097 361.19980722205963 Q 466.45178533658026 356.8205846268009 465.34593465986336 352.693493715709 Q 464.2400839831464 348.5664028046171 461.62120723450306 345.0457897670282 Q 459.0023304858597 341.5251767294393 455.0379807981258 339.2363583700643 L 455.0379807981258 339.2363583700643 Q 451.07363111039183 336.9475400106893 446.70203790966434 336.432203341247 Q 442.33044470893685 335.9168666718046 438.20335379784495 337.0227173485215 Q 434.07626288675306 338.1285680252384 430.5480204546329 340.7606592728409 Q 427.01977802251275 343.39275052044337 424.73095966313775 347.3571002081773 L 424.73095966313775 347.3571002081773 Q 422.44214130376275 351.32144989591126 421.9344340288516 355.6798285976796 Q 421.42672675394056 360.038207299448 422.53257743065745 364.1652982105399 Q 423.63842810737435 368.2923891216318 426.2628899604456 371.83384605271107 Q 428.88735181351683 375.37530298379033 432.8517015012508 377.66412134316533 L 432.8517015012508 377.66412134316533 Q 433.98814841173447 378.32024927285283 435.189719058675 378.80254442596845 L 435.189719058675 378.80254442596845 L 436.3951633946125 376.7146535904286 L 437.7989719883625 374.2831857819518 L 446.1913059727375 359.7472369269273 L 441.69837632663905 357.1532427863023 L 433.30604234226405 371.6891916413268 Q 430.8655953884607 369.75161897724087 429.3271677325966 367.13671282534153 Q 427.78874007673255 364.5218066734422 427.2376048094468 361.6311861144742 Q 426.68646954216103 358.7405655555062 427.15409299991734 355.7333523428611 Q 427.6217164576737 352.7261391302161 429.2238893092362 349.9510943488023 L 429.2238893092362 349.9510943488023 Q 431.0091676295487 346.8589015923698 433.7075961288353 344.8401156278886 Q 436.4060246281219 342.8213296634074 439.53260865167636 341.98356399922795 Q 442.6591926752308 341.1457983350485 446.0054932881496 341.5449040154494 Q 449.3517939010683 341.9440096958503 452.4439866575008 343.7292880161628 L 452.4439866575008 343.7292880161628 Q 455.48332141809675 345.4840487583503 457.502107382578 348.1824772576369 Q 459.5208933470592 350.8809057569235 460.3718735101978 354.0151191750092 Q 461.2228536733364 357.1493325930949 460.8369624918946 360.5032626005449 Q 460.4510713104528 363.8571926079948 458.6657929901403 366.9493853644273 L 458.6657929901403 366.9493853644273 Q 457.2925019745153 369.3279951770677 455.32211322317033 371.0623418081844 Q 453.3517244718254 372.7966884393011 451.02469102201013 373.8670235271683 Q 448.6976575721949 374.9373586150356 446.141087074955 375.2761131406367 Q 443.5845165777151 375.61486766623784 441.0388620703002 375.20229326784715 L 441.0388620703002 375.20229326784715 L 438.3380564062377 379.8802258993732 Q 441.8392434189155 380.77399991911494 445.4439946875579 380.5118328856779 Q 449.0487459562004 380.24966585224087 452.35544240006266 378.916830856264 Q 455.66213884392494 377.58399586028725 458.4567564236756 375.2155000525589 Q 461.25137400342624 372.8470042448306 463.15872263623874 369.5433795050523 Z" fill-opacity="1"/></g></g><g><g><path fill="rgb(245,158,11)" stroke="none" paint-order="stroke fill markers" d=" M 433.37055364815745 411.5554265159728 L 433.37055364815745 411.5554265159728 Q 436.4335904814652 408.15357947551837 437.8352316520462 403.97445047034904 Q 439.2368728226272 399.7953214651797 439.0132580859105 395.5284981084967 Q 438.78964334919374 391.26167475181364 436.9599719502508 387.2735004631302 Q 435.13030055130787 383.28532617444665 431.7284535108535 380.2222893411389 L 431.7284535108535 380.2222893411389 Q 428.32660647039916 377.1592525078312 424.1576875880075 375.7462718471153 Q 419.9887687056158 374.33329118639944 415.7219453489328 374.55690592311623 Q 411.4551219922498 374.780520659833 407.4567375807886 376.62153154891075 Q 403.45835316932744 378.4625424379885 400.3953163360197 381.8643894784429 L 400.3953163360197 381.8643894784429 Q 397.84278564159655 384.69926201215486 396.4424571046259 388.0787966048459 Q 395.0421285676552 391.45833119753695 394.78501306584303 395.004844939559 Q 394.52789756403087 398.55135868158106 395.3924913010279 402.0606949339435 Q 396.257085038025 405.5700311863061 398.2343988915374 408.664507039361 L 398.2343988915374 408.664507039361 L 401.86920260039597 404.62764855135515 Q 400.64481256521213 402.29323925327805 400.1769635332449 399.7571153171779 Q 399.70911450127755 397.2209913810778 400.0091001460983 394.69864893607996 Q 400.30908579091914 392.1763064910822 401.3610033364012 389.7766229691066 Q 402.41292088188334 387.37693944713095 404.250742981868 385.33583122285836 L 404.250742981868 385.33583122285836 Q 406.3948687651834 382.95453829454027 409.13081513709864 381.55784298918275 Q 411.8667615090139 380.16114768382516 414.78621519154785 379.7920575941266 Q 417.70566887408177 379.4229675044281 420.64757245406895 380.1007276920235 Q 423.58947603405613 380.7784878796189 426.1863567246262 382.50074797666736 L 426.1863567246262 382.50074797666736 L 407.0934271303412 403.705594528833 L 410.9488537761895 407.17703627324846 L 430.0417833704745 385.9721897210828 Q 432.0033777141133 388.35439898066676 432.98493772078353 391.20934127415296 Q 433.96649772745377 394.06428356763917 433.90459555890146 397.0063245973162 Q 433.8426933903492 399.9483656269933 432.7509730879869 402.8255287351163 Q 431.65925278562463 405.7026918432392 429.51512700230916 408.0839847715573 L 429.51512700230916 408.0839847715573 Q 427.6773049023245 410.12509299582996 425.389382932144 411.41187313503707 Q 423.1014609619635 412.6986532742442 420.61295372111704 413.25044202314734 Q 418.1244464802706 413.80223077205045 415.5533121560986 413.602041803729 Q 412.9821778319267 413.40185283540757 410.5779310239592 412.469022844623 L 410.5779310239592 412.469022844623 L 406.94312731510064 416.50588133262886 Q 410.18197892361826 418.1080619573125 413.7624653194816 418.60109383380546 Q 417.3429517153449 419.0941257102984 420.85450088585844 418.4779172054741 Q 424.36605005637193 417.86170870064984 427.59203650505316 416.12600387516727 Q 430.8180229537343 414.39029904968476 433.37055364815745 411.5554265159728 Z" fill-opacity="1"/></g></g><g><g><path fill="rgb(245,158,11)" stroke="none" paint-order="stroke fill markers" d=" M 396.10750993941355 445.9077746254755 L 396.10750993941355 445.9077746254755 Q 399.2183540950301 443.6476140484231 401.28175795387176 440.6207304491423 Q 403.34516181271346 437.59384684986145 404.3373961210211 434.1569767500064 Q 405.32963042932874 430.72010665015137 405.2012175540872 427.11666756018406 Q 405.07280467884556 423.51322847021675 403.79326390932295 420.1425839334794 L 403.79326390932295 420.1425839334794 L 399.3985793085313 423.3355091931248 Q 400.65071763274466 427.7068295996009 399.514386139449 432.19143745929455 Q 398.3780546461534 436.67604531898826 395.03110780520035 440.0130677636217 L 395.03110780520035 440.0130677636217 L 375.3174849942437 412.8795937396328 Q 376.8435846556004 412.0725918422518 378.4503051832116 411.584233467604 L 378.4503051832116 411.584233467604 L 375.2573799235662 407.1895488668124 Q 372.49489832455265 408.2158424034778 370.0259743915237 410.0096206392336 L 370.0259743915237 410.0096206392336 Q 367.55705045849464 411.80339887498945 365.7520227814045 414.0955950744724 L 365.7520227814045 414.0955950744724 L 368.9449480410499 418.490279675264 Q 369.8812191644586 417.1310464670833 371.1203143080944 415.92901674041775 L 371.1203143080944 415.92901674041775 L 390.83393711905103 443.06249076440656 Q 386.67535520359587 445.17855415647097 382.03440469360356 444.8913873684459 Q 377.3934541836113 444.6042205804209 373.6230134477084 442.0625539744157 L 373.6230134477084 442.0625539744157 L 369.2283288469167 445.2554792340611 Q 372.06329169424765 447.49604348227234 375.46302878075267 448.7227264098631 Q 378.8627658672577 449.9494093374539 382.4256962153886 450.07675859233944 Q 385.98862656351946 450.204107847225 389.5049907933234 449.1770526336976 Q 393.0213550231273 448.1499974201703 396.10750993941355 445.9077746254755 Z" fill-opacity="1"/></g></g><g><g><path fill="rgb(245,158,11)" stroke="none" paint-order="stroke fill markers" d=" M 321.26056193608275 455.0720311551154 L 321.26056193608275 455.0720311551154 L 326.19517942884215 452.8749978963136 Q 325.8947185256356 448.29857532039966 327.9525604496417 444.1420171956682 Q 330.01040237364776 439.9854590709367 333.9625497970771 437.45751976205906 L 333.9625497970771 437.45751976205906 L 347.62884142386105 468.1525133187151 Q 343.0933009882075 469.37013046849836 338.6212050029757 468.10418519016935 Q 334.14910901774397 466.83823991184033 330.98950365976106 463.56819611078146 L 330.98950365976106 463.56819611078146 L 326.02700697212725 465.7776419868646 Q 328.3341795781821 468.5586664495364 331.40458253090003 470.4653884980116 Q 334.47498548361796 472.37211054648674 337.93357985631627 473.23745178755405 Q 341.39217422901453 474.10279302862136 345.04523424971103 473.8292746682381 Q 348.6982942704076 473.5557563078548 352.18319362970095 472.004179147684 L 352.18319362970095 472.004179147684 Q 355.69597218386866 470.4401893702319 358.34361020477456 467.9084562250265 Q 360.9912482256804 465.3767230798211 362.6763653072992 462.22125395034175 Q 364.3614823889179 459.0657848208624 364.98507275705094 455.5143909826063 Q 365.60866312518397 451.96299714435014 365.057879796213 448.3999777929522 L 365.057879796213 448.3999777929522 L 360.09538310857926 450.6094236690354 Q 360.4113105893788 455.1455544327936 358.3596749740134 459.3160521549622 Q 356.308039358648 463.4865498771309 352.36830455250004 466.04236838088286 L 352.36830455250004 466.04236838088286 L 338.7020129257161 435.34737482422685 Q 343.2251407440882 434.1018784795692 347.69103042067934 435.35388416046106 Q 352.1569200972704 436.6058898413529 355.3289380725347 439.9038128372861 L 355.3289380725347 439.9038128372861 L 360.29143476016844 437.694366961203 Q 357.98731611442525 434.8451714915011 354.9308527591445 432.93224313438526 Q 351.87438940386374 431.0193147772694 348.40806174236894 430.17411944227996 Q 344.9417340808742 429.3289241072905 341.2948803688184 429.616382065111 Q 337.6480266567625 429.90384002293143 334.1352481025948 431.4678298003836 L 334.1352481025948 431.4678298003836 Q 330.65034874330144 433.0194069605543 327.99650441375485 435.53720050832254 Q 325.3426600842083 438.0549940560908 323.6652762913861 441.19031727949226 Q 321.9878924985638 444.32564050289375 321.3503625329936 447.8832406497906 Q 320.7128325674234 451.44084079668744 321.26056193608275 455.0720311551154 Z" fill-opacity="1"/></g></g><g><g><path fill="rgb(245,158,11)" stroke="none" paint-order="stroke fill markers" d=" M 308.6508782612906 481.7494732839292 L 309.8246960958025 487.2718520112166 Q 313.19739587275166 485.525383696936 315.81611738652674 482.80040180729304 Q 318.43483890030177 480.0754199176501 320.04959945743565 476.73705350418675 Q 321.6643600145696 473.39868709072334 322.1576309422846 469.6279144388935 Q 322.65090186999964 465.8571417870637 321.8260569052075 461.97655133005094 L 321.8260569052075 461.97655133005094 Q 320.99486697914773 458.06611017721497 319.0073576729054 454.80704396268703 Q 317.0198483666631 451.5479777481591 314.18685524614386 449.15501056357283 Q 311.35386212562463 446.76204337898656 307.8563634762826 445.35270389711974 Q 304.35886482694053 443.9433644152529 300.5673976063277 443.71968680520393 L 300.5673976063277 443.71968680520393 L 301.7475604021072 449.2719162283145 Q 304.4453676892829 449.63446035652873 306.856273996178 450.7755724270566 Q 309.2671803030732 451.91668449758447 311.24005804005697 453.7124908763807 Q 313.2129357770408 455.5082972551769 314.5763241005606 457.8860453131985 Q 315.9397124240805 460.2637933712201 316.5424837445055 463.09960947442175 L 316.5424837445055 463.09960947442175 Q 317.15160002619814 465.9652762734466 316.8261886103322 468.76438851536955 Q 316.50077719446637 471.56350075729256 315.3755275271076 474.04903380374566 L 315.3755275271076 474.04903380374566 L 286.0208496264631 454.98588307919994 Q 287.65658671412314 453.14062719729145 289.7774313770139 451.8162456966349 L 289.7774313770139 451.8162456966349 L 288.5972685812344 446.2640162735243 Q 285.22456880428524 448.0104845878049 282.63252550569956 450.71419616826864 Q 280.0404822071138 453.4179077487324 278.4107963020684 456.7594466428296 Q 276.78111039702287 460.10098553692677 276.26116125411846 463.8930284979358 Q 275.7412121112141 467.68507145894483 276.5724020372739 471.5955126117808 L 276.5724020372739 471.5955126117808 Q 277.397247002066 475.4761030687936 279.4114345234977 478.7138989741423 Q 281.42562204492936 481.951694879491 284.27354051336016 484.3414895834435 Q 287.12145898179097 486.7312842873959 290.59227941594366 488.16189407844195 Q 294.06309985009636 489.592503869488 297.85456707070927 489.81618147953697 L 297.85456707070927 489.81618147953697 L 296.68074923619736 484.2938027522496 Q 294.0064476835772 483.8950629669446 291.59236889604824 482.7390255485051 Q 289.17829010851926 481.58298813006564 287.22033771944706 479.7840092706356 Q 285.26238533037485 477.98503041120557 283.86914631103184 475.6136273144516 Q 282.4759072916888 473.24222421769764 281.88582589379905 470.46610950614235 L 281.88582589379905 470.46610950614235 Q 281.27036465083876 467.5705920112943 281.61070141461624 464.76830728873756 Q 281.95103817839373 461.96602256618075 283.08263280702016 459.51034021555085 L 283.08263280702016 459.51034021555085 L 312.4011150505738 478.54998520554096 Q 310.7717229241814 480.42509178327265 308.6508782612906 481.7494732839292 L 308.6508782612906 481.7494732839292 Z" fill-opacity="1"/></g></g><g><g><path fill="rgb(245,158,11)" stroke="none" paint-order="stroke fill markers" d=" M 253.05175781250003 494.37255859375 L 253.05175781250003 494.37255859375 Q 256.89697265625006 494.37255859375 260.34545898437506 493.1365966796875 Q 263.79394531250006 491.900634765625 266.61682128906256 489.703369140625 Q 269.43969726562506 487.506103515625 271.45385742187506 484.515380859375 Q 273.46801757812506 481.524658203125 274.41406250000006 478.045654296875 L 274.41406250000006 478.045654296875 L 268.98193359375006 478.045654296875 Q 267.42553710937506 482.318115234375 263.87023925781256 485.2783203125 Q 260.31494140625006 488.238525390625 255.64575195312503 488.970947265625 L 255.64575195312503 488.970947265625 L 255.64575195312503 455.43212890625 Q 257.35473632812506 455.67626953125 258.941650390625 456.2255859375 L 258.941650390625 456.2255859375 L 258.941650390625 450.79345703125 Q 256.103515625 450 253.05175781250003 450 L 253.05175781250003 450 Q 250.00000000000003 450 247.19238281250003 450.79345703125 L 247.19238281250003 450.79345703125 L 247.19238281250003 456.2255859375 Q 248.74877929687503 455.67626953125 250.45776367187503 455.43212890625 L 250.45776367187503 455.43212890625 L 250.45776367187503 488.970947265625 Q 245.84960937500003 488.238525390625 242.26379394531253 485.2783203125 Q 238.67797851562503 482.318115234375 237.12158203125003 478.045654296875 L 237.12158203125003 478.045654296875 L 231.68945312500003 478.045654296875 Q 232.66601562500003 481.524658203125 234.69543457031253 484.515380859375 Q 236.72485351562503 487.506103515625 239.53247070312503 489.703369140625 Q 242.34008789062503 491.900634765625 245.78857421875003 493.1365966796875 Q 249.23706054687503 494.37255859375 253.05175781250003 494.37255859375 Z" fill-opacity="1"/></g></g><g><g><path fill="rgb(245,158,11)" stroke="none" paint-order="stroke fill markers" d=" M 202.17715773562907 489.6669280004211 L 202.17715773562907 489.6669280004211 Q 206.65476210910535 490.61867219056586 210.9748145785649 489.7429645486945 Q 215.29486704802443 488.8672569068231 218.87823710001433 486.5401891858244 Q 222.46160715200423 484.2131214648256 225.00063170125262 480.6344924084214 Q 227.539656250501 477.0558633520173 228.49140044064578 472.57825897854104 L 228.49140044064578 472.57825897854104 Q 229.44314463079056 468.10065460506473 228.58236233683078 463.78377461623904 Q 227.721580042871 459.4668946274133 225.3945123218722 455.8835245754234 Q 223.06744460087342 452.3001545234335 219.4738901965577 449.7579574935513 Q 215.880335792242 447.2157604636691 211.4027314187657 446.2640162735243 L 211.4027314187657 446.2640162735243 Q 206.92512704528943 445.3122720833795 202.62317240437528 446.1762268579731 Q 198.32121776346114 447.0401816325667 194.73784771147126 449.3672493535655 Q 191.15447765948136 451.6943170745643 188.59735528168756 455.2846989982462 Q 186.04023290389378 458.8750809219281 185.088488713749 463.3526852954044 L 185.088488713749 463.3526852954044 Q 184.13674452360422 467.83028966888065 185.01562464610942 472.1354167904286 Q 185.89450476861458 476.4405439119766 188.22157248961338 480.0239139639665 Q 190.54864021061218 483.6072840159564 194.1240967863825 486.16123391311635 Q 197.69955336215278 488.7151838102763 202.17715773562907 489.6669280004211 Z M 203.25580115112646 484.5923097104813 L 203.25580115112646 484.5923097104813 Q 199.82297113146132 483.86263916470364 197.07230380118483 481.9051949798193 Q 194.32163647090835 479.94775079493496 192.54695351196483 477.214978684579 Q 190.7722705530213 474.4822065742231 190.10285350546621 471.17318265239504 Q 189.43343645791114 467.86415873056694 190.1631070036888 464.43132871090177 L 190.1631070036888 464.43132871090177 Q 190.9054674720017 460.9387972995903 192.86291165688604 458.1881299693138 Q 194.82035584177038 455.43746263903734 197.5499554714925 453.6777050280054 Q 200.2795551012146 451.91794741697345 203.5854065424089 451.2634557173299 Q 206.89125798360317 450.60896401768645 210.32408800326832 451.3386345634641 L 210.32408800326832 451.3386345634641 Q 213.8166194145798 452.08099503177704 216.5704592254901 454.0235138687498 Q 219.32429903640042 455.9660327057225 221.08722912806616 458.6807069875331 Q 222.85015921973192 461.3953812693436 223.50465091937542 464.70123271053785 Q 224.1591426190189 468.0070841517321 223.41678215070598 471.4996155630436 L 223.41678215070598 471.4996155630436 Q 222.68711160492833 474.9324455827088 220.74459276795557 477.6862853936191 Q 218.80207393098283 480.4401252045294 216.0842271685385 482.2179806441067 Q 213.36638040609415 483.9958360836841 210.05735648426605 484.6652531312391 Q 206.74833256243798 485.3346701787942 203.25580115112646 484.5923097104813 Z" fill-opacity="1"/></g></g><g><g><path fill="rgb(245,158,11)" stroke="none" paint-order="stroke fill markers" d=" M 161.17659999200026 471.6720806460871 L 158.92991626407303 476.7182149183439 Q 162.6013984346567 477.2504777094103 166.2271695885836 476.60989378352843 Q 169.85294074251047 475.96930985764664 173.0146161806305 474.2702531785907 Q 176.1762916187505 472.5711964995348 178.73284999851865 469.86780008888024 Q 181.2894083782868 467.16440367822565 182.8533981557389 463.65162512405794 L 182.8533981557389 463.65162512405794 Q 184.7525285997879 459.3861083082828 184.81897191885668 454.9226311040046 Q 184.88541523792543 450.4591538997264 183.33875747862734 446.42997268415513 Q 181.79209971932923 442.40079146858386 178.7560735024081 439.12824073896513 Q 175.720047285487 435.8556900093465 171.4545304697119 433.9565595652975 L 171.4545304697119 433.9565595652975 Q 167.21689284881117 432.0698417385299 162.76735524197014 432.0096047281018 Q 158.3178176351291 431.9493677176737 154.27469682212063 433.4898191683311 Q 150.23157600911216 435.03027061898854 146.93114608461914 438.0538842186283 Q 143.63071616012613 441.07749781826806 141.73158571607712 445.34301463404313 L 141.73158571607712 445.34301463404313 Q 140.16759593862503 448.85579318821084 139.89713153855334 452.57702421593746 Q 139.62666713848165 456.298255243664 140.49353535970477 459.7909351198773 Q 141.36040358092788 463.2836149960906 143.28259220699604 466.3943097609643 Q 145.20478083306418 469.50500452583793 148.0570302630777 471.8772941786112 L 148.0570302630777 471.8772941786112 L 150.29130137372357 466.85903910122875 Q 148.40546510734245 465.0172412552077 147.17528186059573 462.7157318578123 Q 145.94509861384904 460.41422246041685 145.43548865742028 457.8823397673 Q 144.92587870099155 455.3504570741831 145.1755084788632 452.6889306157341 Q 145.42513825673484 450.027404157285 146.55468642933914 447.49039742371946 L 146.55468642933914 447.49039742371946 Q 148.01937526854033 444.2006524285465 150.53849902042947 441.88145682550953 Q 153.0576227723186 439.5622612224726 156.1538859996678 438.38527434525025 Q 159.25014922701703 437.2082874680279 162.64771555337703 437.2678357623338 Q 166.045281879737 437.3273840566397 169.3071476800356 438.7796602785595 L 169.3071476800356 438.7796602785595 Q 172.59689267520852 440.2443491177607 174.92850089552684 442.7355936747755 Q 177.26010911584518 445.2268382317903 178.4433023017082 448.3091618617023 Q 179.62649548757125 451.39148549161433 179.57468048206184 454.8091977240522 Q 179.5228654765524 458.22690995649003 178.0581766373512 461.516654951663 L 178.0581766373512 461.516654951663 Q 176.9286284647469 464.0536616852286 175.14564296878618 466.03249419320247 Q 173.36265747282542 468.01132670117636 171.15404592900535 469.3329792093601 Q 168.94543438518528 470.6546317175438 166.39025343766147 471.25408556723625 Q 163.8350724901377 471.8535394169287 161.17659999200026 471.6720806460871 L 161.17659999200026 471.6720806460871 Z" fill-opacity="1"/></g></g><g><g><path fill="rgb(245,158,11)" stroke="none" paint-order="stroke fill markers" d=" M 108.49703319568562 449.25317103516016 L 108.49703319568562 449.25317103516016 Q 112.20041909522915 451.94383838879395 116.5031657920522 452.90096328967877 Q 120.80591248887525 453.85808819056354 125.02598763597226 453.1896939502631 Q 129.24606278306925 452.52129970996265 133.0211366960935 450.28477371274516 Q 136.79621060911774 448.04824771552774 139.48687796275152 444.3448618159842 L 139.48687796275152 444.3448618159842 Q 142.17754531638525 440.64147591644064 143.1470148369352 436.3476981107964 Q 144.11648435748515 432.05392030515213 143.4480901171847 427.8338451580551 Q 142.77969587688426 423.6137700109581 140.53082526000165 419.8297272067551 Q 138.28195464311904 416.04568440255207 134.57856874357552 413.3550170489183 L 134.57856874357552 413.3550170489183 Q 131.49241382728925 411.1127942542235 127.98501848866412 410.073394421031 Q 124.477623150039 409.03399458783855 120.92366169308688 409.1489992230589 Q 117.36970023613476 409.2640038582793 113.96996314962975 410.4906867858701 Q 110.57022606312474 411.71736971346087 107.69938765107867 414.00731244033267 L 107.69938765107867 414.00731244033267 L 112.09407225187032 417.20023769997806 Q 114.28770980274126 415.73854278495133 116.7610370462076 415.0081595412361 Q 119.23436428967396 414.277776297521 121.7742461172965 414.312462009981 Q 124.31412794491902 414.34714772244104 126.81062107399175 415.1424675226642 Q 129.3071142030645 415.9377873228874 131.52914574279058 417.55218773506766 L 131.52914574279058 417.55218773506766 Q 134.41778674443452 419.650908270902 136.1434510039052 422.5455750910618 Q 137.86911526337585 425.44024191122156 138.37547453633073 428.6372685378102 Q 138.8818338092856 431.83429516439884 138.13513081086106 435.1205464889771 Q 137.3884278124365 438.40679781355533 135.28970727660217 441.29543881519925 L 135.28970727660217 441.29543881519925 Q 133.22686230548297 444.13470133818265 130.33219548532315 445.8603655976533 Q 127.43752866516337 447.58602985712395 124.23153314739595 448.104733749744 Q 121.02553762962853 448.623437642364 117.73031741387152 447.8890792636046 Q 114.4350971981145 447.1547208848452 111.54645619647056 445.05600034901084 L 111.54645619647056 445.05600034901084 Q 109.32442465674444 443.4415999368306 107.80554066615865 441.30071659310664 Q 106.28665667557286 439.15983324938264 105.4777708454547 436.74263594154957 Q 104.66888501533656 434.32543863371654 104.59922060778302 431.74746380717284 Q 104.5295562002295 429.1694889806291 105.20596382656791 426.6809056028095 L 105.20596382656791 426.6809056028095 L 100.81127922577625 423.4879803431641 Q 99.55642769558389 426.87656266225906 99.44035944000746 430.4889706434051 Q 99.32429118443103 434.10137862455116 100.30418087307352 437.5292798332274 Q 101.284070561716 440.9571810419037 103.34747442055769 443.98406464118455 Q 105.41087827939936 447.0109482404654 108.49703319568562 449.25317103516016 Z" fill-opacity="1"/></g></g><g><g><path fill="rgb(245,158,11)" stroke="none" paint-order="stroke fill markers" d=" M 66.24037813549643 411.3513615101089 L 66.24037813549643 411.3513615101089 L 70.43598948539017 407.5736160823627 Q 68.67929856886752 403.1597917029963 69.36213974776398 398.3768153706429 Q 70.04498092666043 393.59383903828945 73.16085289621284 389.8027244685105 L 73.16085289621284 389.8027244685105 L 96.58287454823953 415.8155148378517 Q 92.48683079202864 418.51803835468525 87.6688898881667 418.7085211824252 Q 82.85094898430476 418.89900401016524 78.62450795309958 416.66788717051077 L 78.62450795309958 416.66788717051077 L 74.42889660320584 420.44563259825696 Q 77.62773241875202 422.4932421272928 81.29699671692285 423.3986305388373 Q 84.96626101509369 424.3040189503819 88.66475141486067 424.0332594071573 Q 92.36324181462767 423.76249986393265 95.8754621868654 422.3042986923673 Q 99.38768255910315 420.8460975208019 102.33594999416363 418.19146559860184 L 102.33594999416363 418.19146559860184 Q 105.30689640949377 415.5164134308464 107.1355758907694 412.16564677411856 Q 108.96425537204505 408.81488011739077 109.62012918405965 405.16495251398146 Q 110.27600299607427 401.51502491057215 109.7477774652563 397.78143248960674 Q 109.21955193443836 394.04784006864134 107.5175288166921 390.65249433295014 L 107.5175288166921 390.65249433295014 L 103.29923848652868 394.4506600062518 Q 105.0990286288764 398.86674312033244 104.40597732720225 403.638379962551 Q 103.71292602552809 408.4100168047696 100.59705405597569 412.20113137454854 L 100.59705405597569 412.20113137454854 L 77.175032403949 386.1883410052074 Q 81.27107616015988 383.48581748837387 86.09922718679952 383.3066741507687 Q 90.92737821343916 383.12753081316356 95.13339899908895 385.33596867254835 L 95.13339899908895 385.33596867254835 L 99.32901034898269 381.5582232448021 Q 96.13017453343652 379.5106137157663 92.49266997095592 378.61769416171376 Q 88.85516540847532 377.7247746076612 85.14646488593063 377.984194660751 Q 81.43776436338595 378.2436147138407 77.89378425545797 379.6893470279141 Q 74.34980414753 381.1350793419875 71.37885773219983 383.8101315097429 L 71.37885773219983 383.8101315097429 Q 68.43059029713936 386.46476343194297 66.63367055155396 389.8279989461628 Q 64.83675080596858 393.19123446038265 64.19108711673165 396.8525015539268 Q 63.545423427494725 400.51376864747095 64.04188922262244 404.23489221094434 Q 64.53835501775018 407.9560157744177 66.24037813549643 411.3513615101089 Z" fill-opacity="1"/></g></g><g><g><path fill="rgb(245,158,11)" stroke="none" paint-order="stroke fill markers" d=" M 39.893035176261336 374.82917908869774 L 39.893035176261336 374.82917908869774 Q 42.181853535636336 378.7935287764317 45.7233104667156 381.4179906295029 Q 49.26476739779486 384.04245248257416 53.39185830888677 385.14830315929106 Q 57.518949219978666 386.25415383600796 61.87732792174704 385.74644656109683 Q 66.2357066235154 385.23873928618576 70.20005631124934 382.94992092681076 L 70.20005631124934 382.94992092681076 Q 74.16440599898328 380.66110256743576 76.79649724658577 377.1328601353156 Q 79.42858849418825 373.60461770319546 80.53443917090515 369.47752679210356 Q 81.64028984762204 365.35043588101166 81.1249531781797 360.9788426802842 Q 80.60961650873733 356.6072494795567 78.32079814936233 352.64289979182274 L 78.32079814936233 352.64289979182274 Q 76.03197978998733 348.6785501040888 72.51136675239843 346.05967335544545 Q 68.99075371480953 343.44079660680205 64.86366280371763 342.33494593008515 Q 60.73657189262573 341.22909525336826 56.357349297366994 341.7312174238515 Q 51.97812670210827 342.2333395943348 48.01377701437433 344.5221579537098 L 48.01377701437433 344.5221579537098 Q 46.8773301038906 345.1782858833973 45.85886492570009 345.9777290115316 L 45.85886492570009 345.9777290115316 L 47.06430926163759 348.0656198470715 L 48.46811785538759 350.4970876555483 L 56.860451839762604 365.03303651057274 L 61.35338148586107 362.43904236994774 L 52.961047501486064 347.9030935149233 Q 55.85925812716441 346.7583907883842 58.893047111153486 346.733526432471 Q 61.92683609514256 346.70866207655786 64.70575456555332 347.67667521365087 Q 67.48467303596408 348.6446883507439 69.85518434383272 350.55326875088895 Q 72.22569565170137 352.46184915103396 73.82786850326387 355.23689393244774 L 73.82786850326387 355.23689393244774 Q 75.61314682357637 358.32908668888024 76.01225250397728 361.67538730179893 Q 76.41135818437819 365.02168791471763 75.57359252019872 368.1482719382721 Q 74.73582685601924 371.2748559618266 72.71704089153803 373.97328446111317 Q 70.69825492705682 376.67171296039976 67.60606217062434 378.45699128071226 L 67.60606217062434 378.45699128071226 Q 64.56672741002832 380.21175202289976 61.2204267971096 380.61085770330067 Q 57.874126184190885 381.0099633837016 54.734327661677305 380.1798271140534 Q 51.59452913916372 379.3496908444052 48.88288614091802 377.3385342744552 Q 46.17124314267231 375.32737770450524 44.3859648223598 372.23518494807274 L 44.3859648223598 372.23518494807274 Q 43.0126738067348 369.8565751354324 42.49587994089227 367.28299510587823 Q 41.97908607504975 364.70941507632403 42.21566542330247 362.1589774493943 Q 42.45224477155519 359.60853982246454 43.437159995357604 357.22510756248835 Q 44.422075219160014 354.8416753025122 46.05220238282489 352.8433610290279 L 46.05220238282489 352.8433610290279 L 43.35139671876238 348.16542839750184 Q 40.82677220608459 350.7506582840101 39.25143988275467 354.00354797369715 Q 37.67610755942474 357.2564376633842 37.17702830306245 360.78653828436103 Q 36.677949046700164 364.3166389053378 37.3318177950745 367.92109662712863 Q 37.985686543448836 371.52555434891946 39.893035176261336 374.82917908869774 Z" fill-opacity="1"/></g></g><g><g><path fill="rgb(245,158,11)" stroke="none" paint-order="stroke fill markers" d=" M 18.403619693858694 328.02584450733525 L 18.403619693858694 328.02584450733525 Q 19.81818723402722 332.3794357379344 22.736598532905752 335.68285710123234 Q 25.65500983178429 338.98627846453036 29.461994620490955 340.92603410021457 Q 33.26897940919763 342.8657897358988 37.637675357388915 343.2753349681782 Q 42.0063713055802 343.68488020045754 46.35996253617936 342.270312660289 L 46.35996253617936 342.270312660289 Q 50.71355376677852 340.8557451201205 54.02169035521039 337.9518457920106 Q 57.329826943642274 335.04794646390076 59.26958257932649 331.24096167519406 Q 61.2093382150107 327.4339768864874 61.61416822215619 323.05076896752746 Q 62.01899822930167 318.6675610485675 60.604430689133146 314.31396981796837 L 60.604430689133146 314.31396981796837 Q 59.42562440565938 310.6859771258024 57.19902586390599 307.78348974279595 Q 54.97242732215259 304.88100235978953 52.02961407759697 302.8850769325024 Q 49.086800833041345 300.88915150521524 45.61532961957519 299.88324351922637 Q 42.14385840610903 298.87733553323756 38.47530677920973 299.0425016351067 L 38.47530677920973 299.0425016351067 L 40.15392692687638 304.208763228751 Q 42.78777969943363 304.31561500317986 45.218051971225776 305.1785078244103 Q 47.648324243017925 306.04140064564075 49.682744055019384 307.5623670573251 Q 51.71716386702084 309.08333346900946 53.269391985353586 311.1941625470713 Q 54.82162010368633 313.3049916251332 55.67036062778744 315.9171463634927 L 55.67036062778744 315.9171463634927 Q 56.66055790590541 318.9646602249121 56.50215833573388 322.03240693906133 Q 56.34375876556236 325.10015365321055 55.2036733182594 327.8130197523063 Q 54.06358787095643 330.525885851402 52.00567854083152 332.73476899335753 Q 49.947769210706596 334.94365213531313 47.15780786945336 336.33148673541984 L 47.15780786945336 336.33148673541984 L 38.34033686906957 309.19410139801846 L 33.40626680772386 310.7972779435428 L 42.22373780810765 337.93466328094416 Q 39.17988690035803 338.44234918466327 36.21665434452525 337.8649339390354 Q 33.253421788692485 337.2875186934075 30.73649060229216 335.76288932805335 Q 28.219559415891833 334.23825996269926 26.273723224607103 331.8542208929648 Q 24.32788703332237 329.4701818232303 23.3376897552044 326.42266796181093 L 23.3376897552044 326.42266796181093 Q 22.48894923110329 323.81051322345144 22.518525926554908 321.185724605795 Q 22.548102622006517 318.56093598813857 23.31449316835718 316.1299311256124 Q 24.080883714707845 313.6989262630863 25.539819608917604 311.572353105972 Q 26.99875550312737 309.4457799488577 29.00873337654255 307.83005613158247 L 29.00873337654255 307.83005613158247 L 27.330113228875902 302.66379453793814 Q 24.32315830218983 304.6676319976607 22.105936974339762 307.5219082361364 Q 19.8887156464897 310.37618447461216 18.66659328043879 313.7253795153272 Q 17.444470914387892 317.0745745560422 17.334642162386416 320.7362131856057 Q 17.224813410384925 324.39785181516925 18.403619693858694 328.02584450733525 Z" fill-opacity="1"/></g></g><g><g><path fill="rgb(245,158,11)" stroke="none" paint-order="stroke fill markers" d=" M 7.285135405755 278.5789279784819 L 7.285135405755 278.5789279784819 Q 7.687069804306162 282.40307833298635 9.276725966161017 285.7034802926505 Q 10.866382128015879 289.00388225231467 13.346681789843686 291.58161741974305 Q 15.8269814516715 294.1593525871715 19.011857682193842 295.8498633200229 Q 22.196733912716176 297.54037405287437 25.755568093419317 298.1175815096585 L 25.755568093419317 298.1175815096585 L 25.1877560065772 292.71521037393 Q 20.77601232438089 291.6139337685128 17.460393738522605 288.38753789835164 Q 14.144775152664323 285.16114202819045 12.928302363089443 280.5940898164924 L 12.928302363089443 280.5940898164924 L 46.28339156626731 277.0883286735739 Q 46.219225879623096 278.8134706977062 45.83879637441342 280.44911067872323 L 45.83879637441342 280.44911067872323 L 51.24116751014195 279.88129859188115 Q 51.733612035156696 276.9757725813157 51.414616480751015 273.94073261742324 L 51.414616480751015 273.94073261742324 Q 51.09562092634533 270.9056926535308 50.01303462568007 268.19639473089524 L 50.01303462568007 268.19639473089524 L 44.610663489951534 268.7642068177374 Q 45.319658416199076 270.2546579995295 45.74109912377765 271.9287607349568 L 45.74109912377765 271.9287607349568 L 12.386009920599783 275.4345218778753 Q 12.632736224781382 270.7750525993403 15.20190521333037 266.8994549539932 Q 17.771074201879358 263.0238573086461 21.85744241858187 261.029393150893 L 21.85744241858187 261.029393150893 L 21.28963033173975 255.62702201516444 Q 17.931763350312195 256.9618897356325 15.169556229377385 259.29280695493856 Q 12.407349108442574 261.62372417424456 10.515596244493253 264.6456377401977 Q 8.623843380543924 267.6675513061508 7.755117171645914 271.2263396648836 Q 6.886390962747896 274.7851280236163 7.285135405755 278.5789279784819 Z" fill-opacity="1"/></g></g><g><g><path fill="rgb(245,158,11)" stroke="none" paint-order="stroke fill markers" d=" M 36.77213044595487 209.1774413470444 L 36.77213044595487 209.1774413470444 L 36.20750831465682 214.54946208313402 Q 40.321036975454206 216.57746659607008 42.89180094177522 220.43788904159774 Q 45.46256490809624 224.2983114871254 45.67575085709487 228.98494120975522 L 45.67575085709487 228.98494120975522 L 12.259960854639147 225.4728001557487 Q 13.473243688669967 220.93609834368954 16.805632452119738 217.69612225148094 Q 20.138021215569502 214.45614615927232 24.549764897765815 213.35486955385514 L 24.549764897765815 213.35486955385514 L 25.117576984607922 207.9524984181266 Q 21.55555284836073 208.5600562745497 18.369081640066362 210.2657422072206 Q 15.182610431772005 211.97142813989151 12.70390574771622 214.53398810750048 Q 10.225201063660442 217.0965480751094 8.635544901805595 220.39695003477357 Q 7.04588873995074 223.69735199443772 6.647144296943637 227.49115194930326 L 6.647144296943637 227.49115194930326 Q 6.245209898392481 231.31530230380773 7.113936107290499 234.87409066254048 Q 7.982662316188524 238.43287902127324 9.872820202365823 241.46996778704585 Q 11.762978088543122 244.50705655281843 14.526780187249955 246.822798572305 Q 17.290582285956795 249.13854059179158 20.651639222928413 250.4430579126207 L 20.651639222928413 250.4430579126207 L 21.219451309770523 245.04068677689216 Q 17.133083093068002 243.0462226191391 14.547143926927525 239.18420519583938 Q 11.961204760787048 235.3221877725397 11.717668412149493 230.63236809436583 L 11.717668412149493 230.63236809436583 L 45.133458414605215 234.14450914837235 Q 43.95052598021332 238.68440091597557 40.63331241658301 241.9259719859562 Q 37.316098852952706 245.16754305593685 32.87400477111748 246.26562970580997 L 32.87400477111748 246.26562970580997 L 32.306192684275366 251.66800084153851 Q 35.92572766425636 251.09717329584245 39.11060389477869 249.406662562991 Q 42.295480125301026 247.71615183013955 44.760604587309366 245.13682168493912 Q 47.225729049317714 242.55749153973866 48.80021001135311 239.2554946023025 Q 50.374690973388496 235.95349766486632 50.77662537193965 232.12934731036185 L 50.77662537193965 232.12934731036185 Q 51.175369814946755 228.3355473554963 50.3218188058682 224.77835397453558 Q 49.46826779678964 221.22116059357484 47.59169013265977 218.20084200539375 Q 45.71511246852991 215.18052341721264 42.95290534759509 212.8496061979066 Q 40.19069822666029 210.51868897860058 36.77213044595487 209.1774413470444 Z" fill-opacity="1"/></g></g><g><g><path fill="rgb(245,158,11)" stroke="none" paint-order="stroke fill markers" d=" M 19.973629691808966 184.91841388658153 L 14.604200507403341 183.17378058704037 Q 14.43033654600034 186.96785843035676 15.480879330396121 190.59822873154428 Q 16.53142211479191 194.22859903273178 18.615151957425006 197.29620590297054 Q 20.698881800058096 200.3638127732093 23.717831244580807 202.67638425347374 Q 26.736780689103526 204.98895573373818 30.509893088956122 206.2149142685509 L 30.509893088956122 206.2149142685509 Q 34.31202943034605 207.4503032536314 38.128218217864 207.35860281143155 Q 41.94440700538196 207.26690236923167 45.433273937915786 206.00994195040863 Q 48.92214087044961 204.75298153158556 51.89141398897371 202.428728592487 Q 54.86068710749781 200.10447565338842 56.95013121036444 196.93280752774618 L 56.95013121036444 196.93280752774618 L 51.55167808442149 195.1787437779372 Q 49.888802015807286 197.33384135903904 47.6951168207175 198.85119143169044 Q 45.501431625627724 200.36854150434183 42.95977881282016 201.17920055373244 Q 40.4181260000126 201.98985960312305 37.67724161620686 201.9817144975035 Q 34.93635723240111 201.97356939188396 32.179082786354975 201.0776766164439 L 32.179082786354975 201.0776766164439 Q 29.392784398771518 200.17235339073605 27.131387797155156 198.49098271695325 Q 24.869991195538788 196.80961204317043 23.280081269044075 194.59235072241117 L 23.280081269044075 194.59235072241117 L 54.46659302299463 178.70202930281624 Q 55.24676294938 181.04124711559646 55.33328864180534 183.5401432214688 L 55.33328864180534 183.5401432214688 L 60.73174176774828 185.2942069712778 Q 60.90560572915129 181.50012912796137 59.860144465256376 177.9034979934451 Q 58.81468320136147 174.30686685892883 56.735668583862264 171.2247480179214 Q 54.656653966363066 168.14262917691397 51.63262300133948 165.7963185299783 Q 48.6085920363159 163.45000788304264 44.80645569492597 162.2146188979621 L 44.80645569492597 162.2146188979621 Q 41.03334329507337 160.9886603631494 37.22223602805629 161.11409997202048 Q 33.41112876103921 161.23953958089157 29.917546603371484 162.5110119704833 Q 26.423964445703767 163.78248436007502 23.449609806678794 166.07299813250236 Q 20.47525516765382 168.3635119049297 18.385811064787184 171.53518003057195 L 18.385811064787184 171.53518003057195 L 23.75524024919281 173.27981333011314 Q 25.43770980907655 171.16317014081645 27.645906974934995 169.65053529329893 Q 29.854104140793446 168.13790044578144 32.391041728467115 167.34175336715947 Q 34.92797931614078 166.54560628853753 37.67829415021431 166.52472745261974 Q 40.42860898428785 166.503848616702 43.12783554725932 167.38088049160646 L 43.12783554725932 167.38088049160646 Q 45.94315787638011 168.2956341675821 48.19983925286258 169.99151681213357 Q 50.45652062934505 171.68739945668503 52.01740661430244 173.8952303271765 L 52.01740661430244 173.8952303271765 L 20.869349252157 189.7659582555019 Q 20.060155384234307 187.4173099924539 19.973629691808966 184.91841388658153 L 19.973629691808966 184.91841388658153 Z" fill-opacity="1"/></g></g><g><g><path fill="rgb(245,158,11)" stroke="none" paint-order="stroke fill markers" d=" M 36.841277363761165 130.45662049494777 L 36.841277363761165 130.45662049494777 Q 34.91866994188617 133.7866742326443 34.264801193511836 137.3911319544351 Q 33.6109324451375 140.99558967622593 34.10238230696855 144.53890479616186 Q 34.593832168799594 148.08221991609778 36.176793886660775 151.3218951068257 Q 37.75975560452195 154.56157029755366 40.299638906262246 157.12037118614367 L 40.299638906262246 157.12037118614367 L 43.015703359387246 152.41600955669938 Q 40.09384189302306 148.93190019411983 39.30787802073636 144.37281939758398 Q 38.52191414844966 139.81373860104813 40.22221292497473 135.4038909820595 L 40.22221292497473 135.4038909820595 L 69.26768163710541 152.173300161747 Q 68.20175746625961 153.53125373266766 66.93257847248154 154.6309034212904 L 66.93257847248154 154.6309034212904 L 71.63694010192582 157.3469678744154 Q 73.74316143061219 155.28579958364537 75.26904033686219 152.64289979182274 L 75.26904033686219 152.64289979182274 Q 76.79491924311219 150.0000000000001 77.5115738909883 147.1718036758983 L 77.5115738909883 147.1718036758983 L 72.80721226154402 144.4557392227733 Q 72.5047359818846 146.07827631972785 71.86167577773041 147.68037051564852 L 71.86167577773041 147.68037051564852 L 42.81620706559972 130.91096133596102 Q 45.75458016407465 127.28639358780886 50.11110067698635 125.66108887147978 Q 54.46762118989804 124.03578415515068 58.945879140637224 124.82413573007113 L 58.945879140637224 124.82413573007113 L 61.66194359376222 120.11977410062686 Q 58.16075658108442 119.2260000808851 54.556005312442 119.48816711432215 Q 50.95125404379957 119.7503341477592 47.64455759993728 121.08316914373603 Q 44.337861156074986 122.41600413971284 41.54324357632433 124.78449994744116 Q 38.748625996573665 127.15299575516948 36.841277363761165 130.45662049494777 Z" fill-opacity="1"/></g></g><g><g><path fill="rgb(245,158,11)" stroke="none" paint-order="stroke fill markers" d=" M 66.35377303684477 88.75073971766813 L 66.35377303684477 88.75073971766813 Q 63.29073620353701 92.15258675812251 61.889095032956 96.33171576329187 Q 60.48745386237499 100.51084476846121 60.71106859909176 104.77766812514422 Q 60.93468333580853 109.04449148182724 62.76435473475144 113.03266577051073 Q 64.59402613369434 117.02084005919423 67.99587317414873 120.08387689250198 L 67.99587317414873 120.08387689250198 Q 71.39772021460311 123.14691372580974 75.56663909699476 124.5598943865256 Q 79.73555797938641 125.97287504724144 84.00238133606943 125.74926031052468 Q 88.26920469275244 125.5256455738079 92.26758910421363 123.68463468473016 Q 96.26597351567482 121.8436237956524 99.32901034898258 118.44177675519802 L 99.32901034898258 118.44177675519802 Q 102.39204718229034 115.03992971474364 103.7948177202285 110.88235032248683 Q 105.19758825816666 106.72477093023002 104.97397352144989 102.45794757354702 Q 104.75035878473312 98.191124216864 102.91955801843307 94.18140031526796 Q 101.088757252133 90.17167641367193 97.68691021167861 87.10863958036417 L 97.68691021167861 87.10863958036417 Q 94.28506317122424 84.0456027470564 90.11727365618974 82.6541716992531 Q 85.94948414115524 81.26274065144977 81.68266078447223 81.48635538816654 Q 77.41583742778921 81.70997012488331 73.41632364897087 83.52943140104854 Q 69.41680987015252 85.34889267721375 66.35377303684477 88.75073971766813 Z M 70.20919968269307 92.2221814620836 L 70.20919968269307 92.2221814620836 Q 72.55752792156235 89.61409873106857 75.62805797730056 88.21067303813138 Q 78.69858803303876 86.80724734519418 81.95257958283236 86.63671287426372 Q 85.20657113262598 86.46617840333326 88.40697843443705 87.54095819533822 Q 91.60738573624812 88.6157379873432 94.21546846726315 90.96406622621248 L 94.21546846726315 90.96406622621248 Q 96.86890915881757 93.35323495619252 98.27233485175476 96.42376501193073 Q 99.67576054469194 99.49429506766893 99.83495552548757 102.73807649468485 Q 99.99415050628319 105.98185792170077 98.90803122414337 109.17205510073416 Q 97.82191194200355 112.36225227976753 95.47358370313428 114.97033501078256 L 95.47358370313428 114.97033501078256 Q 93.08441497315422 117.62377570233697 90.02522440755087 119.03741151805185 Q 86.9660338419475 120.45104733376674 83.73359190506645 120.62045243734005 Q 80.50114996818537 120.78985754091336 77.310952789152 119.70373825877354 Q 74.12075561011861 118.61761897663374 71.4673149185642 116.22845024665368 L 71.4673149185642 116.22845024665368 Q 68.85923218754917 113.8801220077844 67.44559637183428 110.82093144218105 Q 66.0319605561194 107.76174087657769 65.85121596241123 104.51908881691892 Q 65.67047136870309 101.27643675726016 66.74525116070805 98.07602945544909 Q 67.82003095271301 94.875622153638 70.20919968269307 92.2221814620836 Z" fill-opacity="1"/></g></g><g><g><path fill="rgb(245,158,11)" stroke="none" paint-order="stroke fill markers" d=" M 102.43804685473567 62.240638819521735 L 99.1913082480176 57.771886500739214 Q 96.89461406417308 60.685351934473125 95.63649044027926 64.14565382502354 Q 94.37836681638544 67.60595571557397 94.26895534385747 71.19357530303516 Q 94.15954387132952 74.78119489049635 95.22247464957198 78.34693759896082 Q 96.28540542781444 81.9126803074253 98.5455660048668 85.02352446304187 L 98.5455660048668 85.02352446304187 Q 101.29004670557323 88.80097808057626 105.12230969415651 91.09025828494067 Q 108.95457268273981 93.37953848930509 113.21727485152466 94.05468418657826 Q 117.47997702030952 94.72982988385144 121.83210219579314 93.73682941825152 Q 126.18422737127678 92.7438289526516 129.96168098881117 89.99934825194516 L 129.96168098881117 89.99934825194516 Q 133.71444536701526 87.27280533359628 135.99138095171455 83.44951123619178 Q 138.2683165364138 79.62621713878727 138.95580685335213 75.35454607882365 Q 139.64329717029045 71.08287501886001 138.67498594402082 66.71281206101882 Q 137.70667471775118 62.34274910317763 134.96219401704477 58.56529548564324 L 134.96219401704477 58.56529548564324 Q 132.7020334399924 55.45445133002668 129.61458503666614 53.35960677488198 Q 126.5271366333399 51.26476221973729 123.06895302264093 50.269152182943294 Q 119.61076941194196 49.273542146149296 115.95573440910805 49.38285894475299 Q 112.30069940627413 49.49217574335669 108.82011158683076 50.77615138129144 L 108.82011158683076 50.77615138129144 L 112.04891241119127 55.22021446074367 Q 114.58687426767152 54.50793126969015 117.19513149623792 54.59331602539518 Q 119.80338872480432 54.678700781100225 122.25086843466006 55.50330695936989 Q 124.6983481445158 56.32791313763954 126.87848278144128 57.874862096041994 Q 129.05861741836674 59.42181105444443 130.69095561290456 61.668531833500836 L 130.69095561290456 61.668531833500836 Q 132.80761393109645 64.58186207447508 133.55653436372705 67.9230850404063 Q 134.30545479635765 71.26430800633754 133.77662371827853 74.53424405663674 Q 133.2477926401994 77.80418010693592 131.49743914139847 80.71678470945328 Q 129.7470856425975 83.62938931197064 126.85844464095356 85.72810984780497 L 126.85844464095356 85.72810984780497 Q 123.94511439997933 87.84476816599685 120.62182921640566 88.61837783795775 Q 117.29854403283198 89.39198750991865 114.03757687371157 88.87550105150467 Q 110.77660971459116 88.35901459309069 107.84269160122987 86.60528536580337 Q 104.9087734878686 84.85155613851606 102.7921151696767 81.93822589754183 L 102.7921151696767 81.93822589754183 Q 101.1597769751389 79.69150511848542 100.33755050137938 77.15797813041726 Q 99.51532402761987 74.6244511423491 99.4750451524674 72.0509111842175 Q 99.43476627731495 69.47737122608589 100.19321448884679 66.96479268941806 Q 100.95166270037863 64.45221415275023 102.43804685473567 62.240638819521735 L 102.43804685473567 62.240638819521735 Z" fill-opacity="1"/></g></g><g><g><path fill="rgb(245,158,11)" stroke="none" paint-order="stroke fill markers" d=" M 148.19317550110267 27.8282505190176 L 148.19317550110267 27.8282505190176 Q 144.01129626995063 29.690143111222504 141.0310284427782 32.93786860627845 Q 138.05076061560578 36.18559410133439 136.51956943390067 40.17448350474997 Q 134.98837825219556 44.16337290816555 135.0377296254981 48.55094581661721 Q 135.08708099880062 52.93851872506887 136.9489735910055 57.120397956220906 L 136.9489735910055 57.120397956220906 Q 138.8108661832104 61.30227718737295 142.0446520808292 64.28875132318606 Q 145.27843797844795 67.27522545899916 149.26732738186354 68.80641664070427 Q 153.25621678527912 70.3376078224094 157.65772929116795 70.28205014046617 Q 162.05924179705679 70.22649245852296 166.24112102820882 68.36459986631806 L 166.24112102820882 68.36459986631806 Q 169.7260203875022 66.81302270614731 172.37986471704875 64.29522915837907 Q 175.03370904659533 61.77743561061084 176.71109283941757 58.64211238720935 Q 178.38847663223981 55.50678916380788 179.02600659781 51.94918901691104 Q 179.66353656338023 48.3915888700142 179.11580719472087 44.760398511586246 L 179.11580719472087 44.760398511586246 L 174.15331050708713 46.96984438766939 Q 174.32235666064736 49.60043769093247 173.71822348247002 52.107593537504066 Q 173.11409030429266 54.61474938407566 171.81411068234263 56.7970087131772 Q 170.51413106039263 58.97926804227874 168.57711734473023 60.743634612317436 Q 166.64010362906782 62.50800118235613 164.1309760903766 63.62513673767907 L 164.1309760903766 63.62513673767907 Q 160.86911029007803 65.07741295959889 157.49942315859238 65.12454863662344 Q 154.12973602710673 65.17168431364802 151.10785011542828 64.01169099417444 Q 148.0859642037498 62.851697674700866 145.61333857265706 60.561908246694074 Q 143.14071294156432 58.272118818687275 141.6884367196445 55.01025301838869 L 141.6884367196445 55.01025301838869 Q 140.2609857322874 51.80414560783879 140.21385005526287 48.43445847635316 Q 140.16671437823828 45.06477134486752 141.32050138907118 42.02894583575188 Q 142.47428839990408 38.99312032663623 144.75787151927017 36.50655509810632 Q 147.0414546386363 34.019989869576406 150.3033204389349 32.56771364765658 L 150.3033204389349 32.56771364765658 Q 152.8124479776261 31.450578092333643 155.42594933512297 31.205627642946858 Q 158.0394506926198 30.960677193560073 160.53724788222164 31.468760169833004 Q 163.03504507182348 31.97684314610595 165.30246896570387 33.20549941269684 Q 167.56989285958426 34.434155679287734 169.38686547104257 36.264233555920164 L 169.38686547104257 36.264233555920164 L 174.34936215867634 34.05478767983702 Q 172.0421895526215 31.273763217165182 168.97178659990357 29.367041168690015 Q 165.90138364718564 27.460319120214862 162.44278927448735 26.59497787914755 Q 158.9841949017891 25.729636638080237 155.33113488109257 26.003154998463543 Q 151.67807486039604 26.27667335884685 148.19317550110267 27.8282505190176 Z" fill-opacity="1"/></g></g><g><g><path fill="rgb(245,158,11)" stroke="none" paint-order="stroke fill markers" d=" M 202.1454329292907 10.183818520463063 L 202.1454329292907 10.183818520463063 L 203.3192507638026 15.706197247750481 Q 208.02008026243828 16.391770477127693 211.82083868250783 19.37461645097885 Q 215.6215971025774 22.35746242483001 217.34686264388705 26.951443990291704 L 217.34686264388705 26.951443990291704 L 183.10811453470507 34.229114564265416 Q 182.81568239290783 29.330574857957394 185.05968987703125 25.062874227410788 Q 187.3036973611547 20.79517359686418 191.34912173870933 18.250526716070844 L 191.34912173870933 18.250526716070844 L 190.17530390419745 12.728147988783427 Q 186.80260412724826 14.474616303064032 184.1838826134732 17.199598192706972 Q 181.56516109969817 19.924580082349912 179.95040054256427 23.2629464958133 Q 178.33563998543036 26.601312909276693 177.84236905771533 30.372085561106505 Q 177.3490981300003 34.14285821293632 178.17394309479243 38.02344866994909 L 178.17394309479243 38.02344866994909 Q 179.0051330208522 41.93388982278505 180.99264232709453 45.192956037312996 Q 182.98015163333687 48.45202225184096 185.81314475385608 50.844989436427205 Q 188.64613787437528 53.23795662101345 192.14363652371733 54.64729610288028 Q 195.6411351730594 56.05663558474711 199.43260239367228 56.28031319479607 L 199.43260239367228 56.28031319479607 L 198.25243959789276 50.72808377168548 Q 193.5281043647015 50.07870619939907 189.74227129254353 47.0926877449141 Q 185.9564382203856 44.106669290429124 184.2311726790759 39.51268772496743 L 184.2311726790759 39.51268772496743 L 218.4699207882579 32.23501715099371 Q 218.76235293005516 37.13355685730174 216.50342009802014 41.40442996848216 Q 214.24448726598513 45.675303079662584 210.22891358425366 48.21360499918829 L 210.22891358425366 48.21360499918829 L 211.40273141876554 53.73598372647571 Q 214.77543119571473 51.989515412195104 217.3674744943004 49.285803831731386 Q 219.9595177928861 46.58209225126766 221.58920369793157 43.240553357170455 Q 223.21888960297707 39.89901446307324 223.73883874588145 36.10697150206421 Q 224.25878788878583 32.31492854105519 223.42759796272608 28.404487388219238 L 223.42759796272608 28.404487388219238 Q 222.60275299793395 24.52389693120646 220.58856547650225 21.286101025857718 Q 218.57437795507056 18.048305120508985 215.72645948663975 15.658510416556553 Q 212.87854101820898 13.26871571260412 209.40772058405628 11.838105921558075 Q 205.93690014990358 10.40749613051203 202.1454329292907 10.183818520463063 Z" fill-opacity="1"/></g></g></g></g></svg>