<svg version="1.1" xmlns="http://www.w3.org/2000/svg" xmlns:xlink="http://www.w3.org/1999/xlink" width="500" height="500" viewBox="0 0 500 500"><defs/><g><g><g><g><path fill="rgb(244,244,245)" stroke="none" paint-order="stroke fill markers" d=" M 247.55859375 15.501953125 L 247.55859375 15.501953125 Q 243.896484375 15.501953125 240.66162109375 16.90576171875 Q 237.4267578125 18.3095703125 235.009765625 20.7265625 Q 232.5927734375 23.1435546875 231.201171875 26.3662109375 Q 229.8095703125 29.5888671875 229.8095703125 33.2509765625 L 229.8095703125 33.2509765625 Q 229.8095703125 36.9130859375 231.201171875 40.14794921875 Q 232.5927734375 43.3828125 235.009765625 45.7998046875 Q 237.4267578125 48.216796875 240.66162109375 49.6083984375 Q 243.896484375 51 247.55859375 51 L 247.55859375 51 Q 251.220703125 51 254.443359375 49.6083984375 Q 257.666015625 48.216796875 260.0830078125 45.7998046875 Q 262.5 43.3828125 263.90380859375 40.14794921875 Q 265.3076171875 36.9130859375 265.3076171875 33.2509765625 L 265.3076171875 33.2509765625 Q 265.3076171875 32.201171875 265.1611328125 31.17578125 L 265.1611328125 31.17578125 L 263.232421875 31.17578125 L 260.986328125 31.17578125 L 247.55859375 31.17578125 L 247.55859375 35.326171875 L 260.986328125 35.326171875 Q 260.6201171875 37.7919921875 259.423828125 39.90380859375 Q 258.2275390625 42.015625 256.4453125 43.5537109375 Q 254.6630859375 45.091796875 252.392578125 45.970703125 Q 250.1220703125 46.849609375 247.55859375 46.849609375 L 247.55859375 46.849609375 Q 244.7021484375 46.849609375 242.22412109375 45.78759765625 Q 239.74609375 44.7255859375 237.9150390625 42.89453125 Q 236.083984375 41.0634765625 235.02197265625 38.58544921875 Q 233.9599609375 36.107421875 233.9599609375 33.2509765625 L 233.9599609375 33.2509765625 Q 233.9599609375 30.443359375 235.02197265625 27.96533203125 Q 236.083984375 25.4873046875 237.9150390625 23.64404296875 Q 239.74609375 21.80078125 242.22412109375 20.7265625 Q 244.7021484375 19.65234375 247.55859375 19.65234375 L 247.55859375 19.65234375 Q 249.755859375 19.65234375 251.74560546875 20.32373046875 Q 253.7353515625 20.9951171875 255.40771484375 22.17919921875 Q 257.080078125 23.36328125 258.33740234375 24.9990234375 Q 259.5947265625 26.634765625 260.3271484375 28.5634765625 L 260.3271484375 28.5634765625 L 264.6484375 28.5634765625 Q 263.8671875 25.7802734375 262.24365234375 23.3876953125 Q 260.6201171875 20.9951171875 258.3740234375 19.2373046875 Q 256.1279296875 17.4794921875 253.369140625 16.49072265625 Q 250.6103515625 15.501953125 247.55859375 15.501953125 Z" fill-opacity="1"/></g></g><g><g><path fill="rgb(244,244,245)" stroke="none" paint-order="stroke fill markers" d=" M 296.6892172682797 20.187226752735114 L 296.6892172682797 20.187226752735114 Q 293.1071337694987 19.425831400619295 289.6510917939311 20.126397514116384 Q 286.19504981836343 20.826963627613473 283.3283537767715 22.68861780441251 Q 280.4616577351796 24.550271981211548 278.43043809578086 27.41317522633484 Q 276.3992184563822 30.27607847145813 275.6378231042663 33.85816197023916 L 275.6378231042663 33.85816197023916 Q 274.8764277521505 37.440245469020184 275.56505358731835 40.89374946008077 Q 276.2536794224862 44.347253451141356 278.1153335992852 47.21394949273327 Q 279.97698777608423 50.080645534325186 282.8518312995368 52.11440315823095 Q 285.72667482298937 54.14816078213671 289.30875832177037 54.90955613425253 L 289.30875832177037 54.90955613425253 Q 292.2938279040879 55.544052261015715 295.1953695670672 55.162414493268024 Q 298.09691123004643 54.78077672552033 300.6568542271407 53.54030607373241 Q 303.2167972242349 52.299835421944486 305.3022992054102 50.29709280884556 Q 307.3878011865854 48.29435019574664 308.74079140529494 45.68663663180735 L 308.74079140529494 45.68663663180735 L 304.49005232007477 44.78311414729659 Q 303.36248213017603 46.56516016621517 301.7925435383161 47.903745058110935 Q 300.2226049464563 49.2423299500067 298.35508058099845 50.04343077665745 Q 296.4875562155407 50.84453160330821 294.4042396844888 51.075615158439206 Q 292.3209231534369 51.30669871357019 290.1716730541683 50.849861502300705 L 290.1716730541683 50.849861502300705 Q 287.6642146050216 50.31688475581963 285.6021771636266 48.98004362878627 Q 283.54013972223163 47.64320250175291 282.11664513404685 45.76818169423518 Q 280.69315054586207 43.89316088671745 279.98595514597224 41.58384622307666 Q 279.27875974608247 39.27453155943588 279.433224266629 36.78645580171174 L 279.433224266629 36.78645580171174 L 301.76154474236404 41.532486829900336 L 302.624459474762 37.47279219794851 L 280.29613899902694 32.72676116975991 Q 281.16194425031557 30.414845039117473 282.7472822896456 28.59282340083081 Q 284.3326203289757 26.770801762544146 286.39568701293774 25.636872431085813 Q 288.4587536968998 24.50294309962748 290.88879889181743 24.108443868916673 Q 293.31884408673506 23.713944638205874 295.8263025358818 24.246921384686946 L 295.8263025358818 24.246921384686946 Q 297.9755526351504 24.703758595956437 299.7822288549335 25.77416537871588 Q 301.58890507471665 26.844572161475334 302.9665984303133 28.347945052373703 Q 304.3442917859099 29.85131794327207 305.23405052987965 31.712727643620696 Q 306.1238092738494 33.57413734396932 306.43922442149125 35.61298039041715 L 306.43922442149125 35.61298039041715 L 310.6899635067114 36.51650287492792 Q 310.50444616124616 33.63168840740297 309.41383410683557 30.953841915428022 Q 308.32322205242497 28.27599542345307 306.4916806088549 26.089606194740476 Q 304.66013916528476 23.90321696602788 302.16721300794103 22.36246992276309 Q 299.67428685059724 20.821722879498296 296.6892172682797 20.187226752735114 Z" fill-opacity="1"/></g></g><g><g><path fill="rgb(244,244,245)" stroke="none" paint-order="stroke fill markers" d=" M 343.1486128038214 34.78236506877277 L 343.1486128038214 34.78236506877277 Q 340.3383899604872 33.53117324681108 337.41594194392997 33.31235855850444 Q 334.49349392737275 33.0935438701978 331.7154667512644 33.7808518161391 Q 328.9374395751561 34.468159762080404 326.4922688909314 35.99850244777308 Q 324.04709820670683 37.52884513346576 322.22366347776244 39.763594797428325 L 322.22366347776244 39.763594797428325 L 326.19366082786945 41.53115149829483 Q 328.7213451142558 38.91511645744771 332.2829051775789 37.90854686582169 Q 335.8444652409021 36.90197727419568 339.49520094532437 37.88600108784742 L 339.49520094532437 37.88600108784742 L 328.5820278315474 62.39738922137325 Q 327.4124806517774 61.66287711997224 326.4314478338562 60.74505183487682 L 326.4314478338562 60.74505183487682 L 324.6638911329897 64.71504918498383 Q 326.47992079218875 66.21843516410387 328.7102563821365 67.21144454661315 L 328.7102563821365 67.21144454661315 Q 330.94059197208423 68.20445392912242 333.2506831542886 68.53813530764454 L 333.2506831542886 68.53813530764454 L 335.0182398551551 64.56813795753753 Q 333.7020270154301 64.4631635786484 332.37359833445856 64.08550517163903 L 332.37359833445856 64.08550517163903 L 343.2867714482355 39.57411703811319 Q 346.41625593725445 41.60884174728966 348.07368115440903 44.939053293987385 Q 349.73110637156367 48.2692648406851 349.478364386924 51.8981694516917 L 349.478364386924 51.8981694516917 L 353.44836173703106 53.66572615255821 Q 353.8666850443083 50.8053805776148 353.35666107185216 47.959300460097325 Q 352.846637099396 45.11322034257986 351.50969511205074 42.59381008590894 Q 350.1727531247055 40.07439982923802 348.0546427079808 38.049013313073694 Q 345.93653229125607 36.02362679690937 343.1486128038214 34.78236506877277 Z" fill-opacity="1"/></g></g><g><g><path fill="rgb(244,244,245)" stroke="none" paint-order="stroke fill markers" d=" M 386.4974709337764 87.04875921764929 L 386.4974709337764 87.04875921764929 L 383.00147464460736 84.50876923581902 Q 379.95102043853467 86.54750368620132 376.248135726273 86.78441222956437 Q 372.54525101401134 87.02132077292742 369.21298431606897 85.29436844192566 L 369.21298431606897 85.29436844192566 L 385.0125830166064 63.5480864398061 Q 387.67038909790455 66.20335416962678 388.58215487533016 69.80809126605686 Q 389.4939206527558 73.41282836248696 388.4922099933851 76.90988468766784 L 388.4922099933851 76.90988468766784 L 392.00795767401837 79.46422489538415 Q 393.0118388981723 76.7533590401082 393.10469350263344 73.86343265519135 Q 393.1975481070946 70.9735062702745 392.4136363561806 68.23118530333349 Q 391.6297246052666 65.48886433639248 389.97900151819323 63.0673574569678 Q 388.3282784311199 60.645850577543115 385.8593544980909 58.85207234178728 L 385.8593544980909 58.85207234178728 Q 383.37067917359764 57.04394388014539 380.5575877897545 56.222299709323515 Q 377.7444964059114 55.40065553850164 374.88427643167455 55.49535982946703 Q 372.0240564574377 55.59006412043242 369.31414248396584 56.57858557544809 Q 366.60422851049395 57.56710703046375 364.3560096240934 59.373908654918765 L 364.3560096240934 59.373908654918765 L 367.8717573047267 61.92824886263508 Q 370.8881098934491 59.894915577830965 374.5981697186538 59.648131338735794 Q 378.30822954385854 59.40134709964063 381.6548464676869 61.10854803917816 L 381.6548464676869 61.10854803917816 L 365.8552477671495 82.85483004129772 Q 363.1830914599653 80.21931370294128 362.26415056959667 76.6244523022433 Q 361.34520967922805 73.02959090154532 362.3612705644848 69.51278318490021 L 362.3612705644848 69.51278318490021 L 358.84552288385146 66.95844297718389 Q 357.7931898164613 69.69446138950227 357.690459516268 72.5772126614761 Q 357.58772921607476 75.45996393344993 358.38869177566386 78.19958431760185 Q 359.189654335253 80.93920470175377 360.84755253526936 83.35083588544633 Q 362.5054507352857 85.76246706913889 364.994126059779 87.57059553078078 L 364.994126059779 87.57059553078078 Q 367.463049992808 89.36437376653662 370.2689662637081 90.1958936330906 Q 373.07488253460815 91.0274134996446 375.9180517001699 90.9354097914683 Q 378.76122086573156 90.843406083292 381.4810105349356 89.86205974121935 Q 384.20080020413957 88.88071339914671 386.4974709337764 87.04875921764929 Z" fill-opacity="1"/></g></g><g><g><path fill="rgb(244,244,245)" stroke="none" paint-order="stroke fill markers" d=" M 416.08304183113876 90.56959661559597 L 419.43953091105374 87.54740027339898 Q 416.8804622586168 85.90931265017034 413.9450508200801 85.1850019209347 Q 411.0096393815435 84.46069119169904 408.0508470617299 84.67729882627874 Q 405.0920547419163 84.89390646085843 402.28227844412606 86.06046739811075 Q 399.4725021463359 87.22702833536303 397.1138881982875 89.35073387312308 L 397.1138881982875 89.35073387312308 Q 394.7371310660234 91.49077560732744 393.27418748100285 94.17138893270969 Q 391.8112438959824 96.85200225809194 391.28654484637065 99.77194434081939 Q 390.76184579675896 102.69188642354683 391.18442622141333 105.67876036031916 Q 391.6070066460677 108.66563429709147 392.9686251402647 111.38191088564444 L 392.9686251402647 111.38191088564444 L 396.34325740439544 108.34337834700314 Q 395.51531242954627 106.32926497955035 395.341535540102 104.20249526500692 Q 395.1677586506577 102.0757255504635 395.6227787113167 99.99055320791405 Q 396.07779877197567 97.90538086536458 397.1797956202044 96.00969850344293 Q 398.28179246843314 94.11401614152128 400.00539496893003 92.56207747931201 L 400.00539496893003 92.56207747931201 Q 401.74714065364265 90.99380262065844 403.81658706762846 90.09960936614631 Q 405.8860334816143 89.20541611163418 408.05816115669705 88.9907987310791 L 408.05816115669705 88.9907987310791 L 406.59269407405225 116.95357644639162 Q 404.65996846281587 116.55840690169421 402.89407217856296 115.61879521752158 L 402.89407217856296 115.61879521752158 L 399.5194399144322 118.65732775616287 Q 402.0785085668692 120.29541537939151 404.9885122168537 121.00975102263357 Q 407.8985158668381 121.7240866658756 410.86547628487386 121.51655062340379 Q 413.8324367029096 121.30901458093197 416.667620789252 120.15242872967328 Q 419.5028048755944 118.99584287841458 421.8795620078585 116.85580114421023 L 421.8795620078585 116.85580114421023 Q 424.2381759559069 114.73209560645017 425.6757117523752 112.04150719507433 Q 427.11324754884356 109.35091878369846 427.6297785002331 106.42190510886314 Q 428.1463094516226 103.49289143402781 427.74913681552044 100.5159925832491 Q 427.35196417941825 97.53909373247038 425.99034568522126 94.82281714391742 L 425.99034568522126 94.82281714391742 L 422.6338566053063 97.84501348611441 Q 423.4273221994954 99.85731986579576 423.5920274968318 101.99225767856133 Q 423.7567327941682 104.1271954913269 423.29354463528705 106.20329624176848 Q 422.8303564764059 108.27939699221008 421.7446958246215 110.19322253834748 Q 420.65903517283704 112.10704808448489 418.9717190407717 113.62631435380554 L 418.9717190407717 113.62631435380554 Q 417.2118301718433 115.21092540890342 415.13421565963534 116.09604707130768 Q 413.0566011474274 116.98116873371193 410.9026166565603 117.1794499178227 L 410.9026166565603 117.1794499178227 L 412.3662767514337 89.25115158317024 Q 414.31714554688585 89.62998493142334 416.08304183113876 90.56959661559597 L 416.08304183113876 90.56959661559597 Z" fill-opacity="1"/></g></g><g><g><path fill="rgb(244,244,245)" stroke="none" paint-order="stroke fill markers" d=" M 451.8605626065841 130.63665672904187 L 451.8605626065841 130.63665672904187 Q 450.3224766690841 127.97261373888466 448.08678260528353 126.077817092702 Q 445.851088541483 124.18302044651935 443.19962787076815 123.10618085057061 Q 440.54816720005334 122.02934125462185 437.6704697007644 121.83017922703951 Q 434.7927722014755 121.63101719945716 432.00402962258323 122.36717961358515 L 432.00402962258323 122.36717961358515 L 434.17688118508323 126.13066891714058 Q 437.7594875456746 125.4999876572042 441.23249692475395 126.77908823193289 Q 444.7055063038333 128.05818880666158 447.08061884511324 131.0001294018525 L 447.08061884511324 131.0001294018525 L 423.8442438754087 144.4156567456025 Q 423.32979571208534 143.13398138886595 423.0756076571078 141.81480851296774 L 423.0756076571078 141.81480851296774 L 419.31211835355236 143.98766007546774 Q 419.8976491031033 146.27136033308378 421.1183522281033 148.38568016654187 L 421.1183522281033 148.38568016654187 Q 422.3390553531033 150.49999999999997 424.01182538480236 152.12779143428142 L 424.01182538480236 152.12779143428142 L 427.7753146883578 149.95493987178142 Q 426.77217852458534 149.0963633192178 425.9194391879087 148.01000046248126 L 425.9194391879087 148.01000046248126 L 449.15581415761324 134.59447311873126 Q 450.4916391163333 138.08006481725297 449.87507504975395 141.74847265281625 Q 449.2585109831746 145.41688048837952 446.92102181008323 148.20416797844317 L 446.92102181008323 148.20416797844317 L 449.09387337258323 151.96765728199858 Q 451.1135729827255 149.899473372792 452.37383884138944 147.29716162104233 Q 453.63410470005334 144.6948498692927 454.03336810514315 141.87076937251126 Q 454.432631510233 139.0466888757298 453.90953651153353 136.16312269829714 Q 453.3864415128341 133.2795565208645 451.8605626065841 130.63665672904187 Z" fill-opacity="1"/></g></g><g><g><path fill="rgb(244,244,245)" stroke="none" paint-order="stroke fill markers" d=" M 472.26645951753187 175.21420304490576 L 472.26645951753187 175.21420304490576 Q 471.13480548539707 171.73133006042644 468.80007644629427 169.08859296978807 Q 466.4653474071914 166.44585587914966 463.4197595762261 164.89405137060228 Q 460.37417174526075 163.34224686205494 456.8792149867077 163.01461067623143 Q 453.3842582281547 162.68697449040792 449.90138524367535 163.81862852254272 L 449.90138524367535 163.81862852254272 Q 446.41851225919606 164.95028255467756 443.77200298845054 167.27340201716544 Q 441.125493717705 169.59652147965335 439.5736892091577 172.64210931061868 Q 438.0218847006103 175.687697141584 437.6980206948939 179.19426347675198 Q 437.37415668917754 182.70082981191993 438.50581072131234 186.18370279639925 L 438.50581072131234 186.18370279639925 Q 439.63746475344715 189.6665757808786 441.9568120358279 192.30147547500914 Q 444.2761593182087 194.93637516913972 447.32174714917403 196.4881796776871 Q 450.3673349801394 198.03998418623448 453.87767349541446 198.37545776856578 Q 457.3880120106895 198.7109313508971 460.87088499516886 197.57927731876228 L 460.87088499516886 197.57927731876228 Q 464.3537579796482 196.44762328662748 466.98488549367164 194.11666642763177 Q 469.6160130076951 191.78570956863604 471.16781751624245 188.7401217376707 Q 472.7196220247898 185.69453390670537 473.0588677872283 182.19580496804522 Q 473.39811354966673 178.69707602938507 472.26645951753187 175.21420304490576 Z M 468.3192034684553 176.49674428132522 L 468.3192034684553 176.49674428132522 Q 469.186804893092 179.16694690275938 468.93091471272265 181.8556428050166 Q 468.6750245323533 184.54433870727382 467.4915776596732 186.86698397230293 Q 466.30813078699316 189.18962923733204 464.2833385835884 190.97702454119053 Q 462.25854638018353 192.76441984504902 459.5883437587494 193.63202126968574 L 459.5883437587494 193.63202126968574 Q 456.87170283085555 194.51471141475088 454.18300692859833 194.25882123438151 Q 451.4943110263411 194.00293105401212 449.1832753379269 192.81571200122494 Q 446.8722396495127 191.62849294843778 445.0964539222692 189.59992856492585 Q 443.3206681950256 187.57136418141394 442.4530667703889 184.9011615599798 L 442.4530667703889 184.9011615599798 Q 441.5703766253237 182.18452063208593 441.8146572290782 179.49959690993583 Q 442.0589378328326 176.81467318778573 443.2345473090049 174.50740967947866 Q 444.41015678517715 172.20014617117158 446.438721168689 170.424360443928 Q 448.46728555220096 168.64857471668446 451.18392648009484 167.7658845716193 L 451.18392648009484 167.7658845716193 Q 453.854129101529 166.8982831469826 456.53905282367907 167.14256375073705 Q 459.2239765458292 167.3868443544915 461.54284963075116 168.55868165055662 Q 463.8617227156732 169.73051894662177 465.64911801953167 171.75531115002656 Q 467.43651332339016 173.78010335343134 468.3192034684553 176.49674428132522 Z" fill-opacity="1"/></g></g><g><g><path fill="rgb(244,244,245)" stroke="none" paint-order="stroke fill markers" d=" M 477.89463644197394 218.79321436007447 L 482.28937430969023 218.33130879729504 Q 481.1895439202989 215.5747262174548 479.29542589627243 213.31895184571994 Q 477.401307872246 211.06317747398506 474.95949669977233 209.55232714726083 Q 472.5176855272987 208.04147682053662 469.6220942008902 207.3515997822887 Q 466.72650287448175 206.6617227440408 463.66718259087816 206.98327026288172 L 463.66718259087816 206.98327026288172 Q 459.9522936750738 207.37372082147425 456.8333286289522 209.1130784214053 Q 453.7143635828305 210.85243602133633 451.5415280552411 213.5356644359748 Q 449.3686925276517 216.21889285061332 448.3158133608017 219.63133380678818 Q 447.2629341939517 223.04377476296307 447.65338475254424 226.7586636787674 L 447.65338475254424 226.7586636787674 Q 448.04128334670156 230.4492722748606 449.779364964415 233.55609716112667 Q 451.5174465821284 236.66292204739275 454.2019509789845 238.84789773483774 Q 456.8864553758406 241.0328734222827 460.30144829645076 242.11003290884386 Q 463.71644121706083 243.187192395405 467.4313301328652 242.79674183681243 L 467.4313301328652 242.79674183681243 Q 470.4906504164688 242.47519431797153 473.1769806591871 241.174085139906 Q 475.8633109019055 239.8729759618405 477.9363632134862 237.87532009030505 Q 480.00941552506686 235.8776642187696 481.39569262647944 233.30165496798773 Q 482.78196972789203 230.72564571720585 483.284640439436 227.80063348463943 L 483.284640439436 227.80063348463943 L 478.9141828914308 228.25998708298363 Q 478.39248241935155 230.30325191264328 477.2900232338958 232.07615162599558 Q 476.18756404844004 233.84905133934788 474.6372682456984 235.21487255122565 Q 473.08697244295684 236.58069376310343 471.14316091111914 237.4723557631407 Q 469.19934937928144 238.36401776317797 466.9898402855677 238.5962465267853 L 466.9898402855677 238.5962465267853 Q 464.1247625596533 238.89737833014428 461.51032721203745 238.07975643982886 Q 458.8958918644217 237.26213454951343 456.84194614500564 235.58777521105196 Q 454.78800042558953 233.9134158725905 453.47023016354234 231.53569355513187 Q 452.1524599014951 229.15797123767325 451.85388006257136 226.31717383146994 L 451.85388006257136 226.31717383146994 Q 451.5527482592124 223.45209610555548 452.3460898298167 220.84021272237493 Q 453.13943140042096 218.2283293391944 454.8016505790269 216.17565960199593 Q 456.4638697576328 214.1229898647975 458.8524562527293 212.79180346067707 Q 461.24104274782593 211.46061705655666 464.10612047374036 211.1594852531977 L 464.10612047374036 211.1594852531977 Q 466.31562956745404 210.92725648959035 468.39979914323027 211.37101207366575 Q 470.4839687190065 211.81476765774116 472.2830810541845 212.81627761769948 Q 474.08219338936254 213.8177875776578 475.5195795781561 215.3482873272381 Q 476.9569657669497 216.87878707681838 477.89463644197394 218.79321436007447 L 477.89463644197394 218.79321436007447 Z" fill-opacity="1"/></g></g><g><g><path fill="rgb(244,244,245)" stroke="none" paint-order="stroke fill markers" d=" M 483.43418696193197 272.41147282409634 L 483.43418696193197 272.41147282409634 Q 483.81698162721875 268.7694248674254 482.75899853149826 265.4055445506728 Q 481.7010154357778 262.04166423392024 479.54990826346426 259.38526810342813 Q 477.39880109115074 256.728871972936 474.3392608620893 255.00803444394865 Q 471.2797206330279 253.2871969149613 467.637672676357 252.9044022496745 L 467.637672676357 252.9044022496745 Q 463.9956247196861 252.52160758438768 460.6330203851511 253.5674505202526 Q 457.2704160506161 254.61329345611753 454.614019920124 256.764400628431 Q 451.9576237896319 258.91550780074454 450.23551027842694 261.98718818966154 Q 448.513396767222 265.05886857857854 448.13060210193515 268.70091653524946 L 448.13060210193515 268.70091653524946 Q 447.8116065475295 271.7359564991419 448.4944473547923 274.58171120391046 Q 449.17728816205516 277.42746590867904 450.678550293359 279.84372077922393 Q 452.17981242466294 282.2599756497688 454.3895781214108 284.12470942521367 Q 456.5993438181586 285.98944320065846 459.33419804272296 287.0624413059034 L 459.33419804272296 287.0624413059034 L 459.78844771219667 282.7405443973206 Q 457.8983007486517 281.8054256867315 456.4029454964205 280.38400760444637 Q 454.9075902441893 278.96258952216124 453.9156684796513 277.189033488912 Q 452.9237467151133 275.4154774556627 452.47616318438503 273.3677283594532 Q 452.0285796536568 271.31997926324374 452.25825645282885 269.1347504892412 L 452.25825645282885 269.1347504892412 Q 452.5568362917526 266.2939530830379 453.87205458936455 263.9405110852904 Q 455.18727288697653 261.5870690875429 457.1996941979554 259.95744244185084 Q 459.2121155089343 258.3278157961588 461.7875784125481 257.53064627890166 Q 464.36304131616197 256.7334767616445 467.2038387223653 257.0320566005682 L 467.2038387223653 257.0320566005682 Q 469.9960754891463 257.32553251062143 472.3495174868938 258.6407508082334 Q 474.70295948464127 259.9559691058454 476.3447262901889 261.9696663990419 Q 477.98649309573653 263.98336369223836 478.79580277284924 266.5601025780698 Q 479.60511244996195 269.1368414639013 479.3065326110382 271.9776388701046 L 479.3065326110382 271.9776388701046 Q 479.07685581186615 274.16286764410717 478.20116191833733 276.07153467859575 Q 477.32546802480846 277.9802017130844 475.97433893722155 279.5074931783325 Q 474.6232098496346 281.03478464358056 472.8650022605731 282.1142394915428 Q 471.1067946715116 283.19369433950504 469.1120904812742 283.72049874045484 L 469.1120904812742 283.72049874045484 L 468.6578408118005 288.04239564903764 Q 471.50746012079827 287.5563493638992 474.0566370874338 286.19180061776245 Q 476.60581405406924 284.8272518716257 478.5887778013139 282.7772038975386 Q 480.5717415485585 280.7271559234514 481.8434664780424 278.0868343557201 Q 483.11519140752625 275.44651278798875 483.43418696193197 272.41147282409634 Z" fill-opacity="1"/></g></g><g><g><path fill="rgb(244,244,245)" stroke="none" paint-order="stroke fill markers" d=" M 472.38255528368126 324.8235187561654 L 472.38255528368126 324.8235187561654 L 468.0870119361568 323.42781211653244 Q 465.73170107046633 326.4104130365238 462.14482139129353 327.8505173233256 Q 458.5579417121207 329.2906216101274 454.68503170343104 328.6483280135812 L 454.68503170343104 328.6483280135812 L 463.33841286915526 302.0159592589293 Q 466.8491935875618 303.7727722105089 468.9083403233526 307.03454645275417 Q 470.9674870591434 310.29632069499945 471.11230038206384 314.11693167135775 L 471.11230038206384 314.11693167135775 L 475.40784372958836 315.51263831099067 Q 475.54693489871073 312.47737603633755 474.70650067119414 309.57307979538757 Q 473.8660664436775 306.66878355443754 472.19908256957103 304.21469805824654 Q 470.5320986954645 301.76061256205554 468.11693913984635 299.910555377844 Q 465.70177958422823 298.06049819363244 462.68328966434615 297.07973136578227 L 462.68328966434615 297.07973136578227 Q 459.6415805912342 296.09142017771785 456.5886295612198 296.16478053147773 Q 453.53567853120546 296.2381408852376 450.7445849851784 297.24370922029607 Q 447.9534914391513 298.2492775553545 445.57807294433206 300.10867990663337 Q 443.20265444951275 301.9680822579122 441.53109916721945 304.505416758426 L 441.53109916721945 304.505416758426 L 445.8498616679738 305.90866775827317 Q 448.1894977406486 302.89530332483776 451.7726052397143 301.46680861465086 Q 455.35571273878 300.038313904464 459.2286227474697 300.68060750101023 L 459.2286227474697 300.68060750101023 L 450.57524158174544 327.3129762556621 Q 447.0644608633389 325.55616330408253 445.00908630765525 322.2827794852223 Q 442.9537117519716 319.0093956663621 442.8013540688369 315.2120038432337 L 442.8013540688369 315.2120038432337 L 438.5058107213124 313.81629720360075 Q 438.36671955219 316.8515594782539 439.2030885633059 319.72886438586687 Q 440.0394575744219 322.6061692934799 441.70266926842123 325.07186436628587 Q 443.3658809624206 327.5375594390918 445.7851057344394 329.41460795664034 Q 448.2043305064583 331.29165647418887 451.24603957957027 332.2799676622533 L 451.24603957957027 332.2799676622533 Q 454.2645294994523 333.26073449010346 457.313415313066 333.16038280300654 Q 460.36230112667965 333.0600311159097 463.1571668528138 332.04285320423634 Q 465.952032578948 331.02567529256294 468.331516290168 329.1932642746211 Q 470.71100000138796 327.3608532566792 472.38255528368126 324.8235187561654 Z" fill-opacity="1"/></g></g><g><g><path fill="rgb(244,244,245)" stroke="none" paint-order="stroke fill markers" d=" M 454.3019688565841 365.1347036040418 L 454.3019688565841 365.1347036040418 Q 456.1330235440841 361.9632238538547 456.53472128047065 358.4598457776477 Q 456.93641901685726 354.9564677014407 456.0517384754837 351.6547949725672 Q 455.16705793411023 348.3531222436937 453.0719565351955 345.53663181362253 Q 450.97685513628085 342.72014138355144 447.80537538609366 340.88908669605144 L 447.80537538609366 340.88908669605144 Q 444.6338956359065 339.05803200855144 441.1366210753245 338.64576267299753 Q 437.63934651474256 338.2334933374437 434.337673785869 339.1181738788172 Q 431.03600105699553 340.0028544201907 428.2134071112994 342.10852741827273 Q 425.3908131656033 344.2142004163547 423.5597584781033 347.3856801665418 L 423.5597584781033 347.3856801665418 Q 421.7287037906033 350.557159916729 421.3225379706744 354.04386287814367 Q 420.91637215074553 357.5305658395584 421.801052692119 360.8322385684319 Q 422.68573323349256 364.1339112973054 424.78530271594957 366.9670768421688 Q 426.8848721984065 369.80024238703226 430.05635194859366 371.63129707453226 L 430.05635194859366 371.63129707453226 Q 430.9655094769807 372.15619941828226 431.92676599453307 372.54203554077475 L 431.92676599453307 372.54203554077475 L 432.89112146328307 370.87172287234284 L 434.01416833828307 368.9265486255614 L 440.72803552578307 357.2977895415418 L 437.1336918089043 355.2225942290418 L 430.4198246214043 366.8513533130614 Q 428.4674670583616 365.3012951817927 427.23672493367036 363.2093702602732 Q 426.00598280897907 361.1174453387537 425.56507459515046 358.80494889157933 Q 425.12416638132186 356.49245244440493 425.498265147527 354.0866818742889 Q 425.87236391373204 351.68091130417287 427.15410219498204 349.4608754790418 L 427.15410219498204 349.4608754790418 Q 428.58232485123204 346.98712127389587 430.7410676506613 345.37209250231086 Q 432.89981045009057 343.7570637307259 435.4010776689342 343.08685119938235 Q 437.90234488777776 342.4166386680388 440.5793853781127 342.73592321235947 Q 443.2564258684477 343.0552077566802 445.73018007359366 344.4834304129302 L 445.73018007359366 344.4834304129302 Q 448.1616478820705 345.8872390066802 449.77667665365544 348.04598180610947 Q 451.39170542524045 350.20472460553873 452.0724895557513 352.71209534000735 Q 452.75327368626216 355.2194660744759 452.4445607411087 357.90261008043586 Q 452.1358477959553 360.58575408639587 450.7076251397053 363.0595082915418 L 450.7076251397053 363.0595082915418 Q 449.6089923272053 364.96239614165415 448.0326813261293 366.34987344654746 Q 446.45637032505334 367.73735075144083 444.59474356520116 368.59361882173465 Q 442.733116805349 369.4498868920284 440.6878604075571 369.72089051250936 Q 438.64260400976514 369.9918941329903 436.60608040383323 369.6618346142777 L 436.60608040383323 369.6618346142777 L 434.44543587258323 373.4041807194985 Q 437.2463854827255 374.11919993529193 440.13018649763944 373.90946630854233 Q 443.01398751255334 373.6997326817927 445.6593446676432 372.63346468501123 Q 448.304701822733 371.5671966882298 450.54039588653353 369.6724000420471 Q 452.7760899503341 367.77760339586445 454.3019688565841 365.1347036040418 Z" fill-opacity="1"/></g></g><g><g><path fill="rgb(244,244,245)" stroke="none" paint-order="stroke fill markers" d=" M 425.67909111214436 405.3404348607737 L 425.67909111214436 405.3404348607737 Q 428.12952057879056 402.61895722841024 429.2508335152554 399.27565402427473 Q 430.3721464517202 395.9323508201393 430.19325466234676 392.51889213479285 Q 430.0143628729734 389.1054334494464 428.550625753819 385.91489401849964 Q 427.0868886346647 382.72435458755285 424.3654110023012 380.27392512090665 L 424.3654110023012 380.27392512090665 Q 421.6439333699377 377.82349565426046 418.3087982640244 376.6931111256877 Q 414.97366315811104 375.56272659711505 411.56020447276467 375.7416183864885 Q 408.14674578741824 375.9205101758619 404.9480382582493 377.3933188871241 Q 401.7493307290803 378.8661275983863 399.29890126243413 381.58760523074983 L 399.29890126243413 381.58760523074983 Q 397.25687670689564 383.8555032577194 396.13661387731906 386.55913093187223 Q 395.01635104774255 389.26275860602505 394.81065864629284 392.0999695996427 Q 394.60496624484307 394.93718059326034 395.29664123444076 397.74464959515035 Q 395.9883162240384 400.55211859704036 397.5701673068483 403.0276992794843 L 397.5701673068483 403.0276992794843 L 400.4780102739352 399.7982124890796 Q 399.49849824578814 397.93068505061797 399.1242190202143 395.90178590173787 Q 398.74993979464045 393.87288675285777 398.9899283104971 391.8550127968595 Q 399.2299168263537 389.83713884086126 400.07145086273937 387.9173920232808 Q 400.91298489912504 385.9976452057003 402.3832425791128 384.3647586262822 L 402.3832425791128 384.3647586262822 Q 404.0985432057651 382.45972428362774 406.28730030329734 381.3423680393417 Q 408.4760574008295 380.22501179505565 410.81162034685667 379.9297397232968 Q 413.1471832928838 379.634467651538 415.50070615687355 380.1766758016143 Q 417.85422902086333 380.71888395169066 419.9317335733194 382.0966920293294 L 419.9317335733194 382.0966920293294 L 404.65738989789133 399.0605692710619 L 407.74173121457 401.8377226665943 L 423.016074889998 384.87384542486177 Q 424.58535036490906 386.7796128325289 425.3705983702452 389.0635666673179 Q 426.1558463755814 391.3475205021069 426.10632464073956 393.7011533258485 Q 426.05680290589777 396.05478614959014 425.1834266640079 398.35651663608854 Q 424.3100504221181 400.6582471225869 422.59474979546576 402.56328146524135 L 422.59474979546576 402.56328146524135 Q 421.124492115478 404.19616804465943 419.2941545393336 405.22559215602513 Q 417.4638169631892 406.25501626739083 415.47301117051205 406.69644726651336 Q 413.4822053778349 407.1378782656359 411.42529791849734 406.9777270909787 Q 409.36839045915974 406.8175759163215 407.44499301278574 406.0713119236939 L 407.44499301278574 406.0713119236939 L 404.5371500456989 409.3007987140986 Q 407.128231332513 410.5825432138455 409.9926204492037 410.9769687150399 Q 412.8570095658943 411.37139421623425 415.66624890230514 410.87842741237483 Q 418.47548823871597 410.38546060851536 421.0562773976609 408.99689674812936 Q 423.6370665566059 407.6083328877433 425.67909111214436 405.3404348607737 Z" fill-opacity="1"/></g></g><g><g><path fill="rgb(244,244,245)" stroke="none" paint-order="stroke fill markers" d=" M 389.8096327909373 438.27788248100336 L 389.8096327909373 438.27788248100336 Q 392.29830811543053 436.46975401936146 393.9490312025039 434.0482471399368 Q 395.5997542895772 431.6267402605121 396.3935417362233 428.87724418062805 Q 397.18732918286946 426.12774810074404 397.0845988826762 423.2449968287702 Q 396.98186858248295 420.3622455567964 395.9582359668648 417.66572992740646 L 395.9582359668648 417.66572992740646 L 392.4424882862315 420.2200701351228 Q 393.4441989456022 423.7171264603037 392.53513375096566 427.3048127480586 Q 391.6260685563292 430.89249903581356 388.94851108356676 433.56211699152027 L 388.94851108356676 433.56211699152027 L 373.17761283480144 411.8553377723292 Q 374.3984925638868 411.20973625442446 375.6838689859757 410.81904955470617 L 375.6838689859757 410.81904955470617 L 373.1295287782594 407.3033018740729 Q 370.9195434990486 408.12433670340516 368.9444043526254 409.55935929200984 L 368.9444043526254 409.55935929200984 Q 366.9692652062022 410.9943818806145 365.52524306453006 412.82813884020084 L 365.52524306453006 412.82813884020084 L 368.07958327224634 416.3438865208342 Q 368.82860017097335 415.2564999542896 369.819876285882 414.2948761729571 L 369.819876285882 414.2948761729571 L 385.5907745346473 436.0016553921482 Q 382.2639090022831 437.69450610579975 378.5511485942893 437.46477267537966 Q 374.83838818629556 437.23503924495964 371.8220355975732 435.20170596015555 L 371.8220355975732 435.20170596015555 L 368.3062879169398 437.7560461678719 Q 370.5742581948046 439.5484975664408 373.29404786400863 440.5298439085135 Q 376.0138375332126 441.5111902505861 378.86418181171734 441.61306965449455 Q 381.7145260902221 441.71494905840296 384.52761747406515 440.89330488758105 Q 387.3407088579083 440.0716607167592 389.8096327909373 438.27788248100336 Z" fill-opacity="1"/></g></g><g><g><path fill="rgb(244,244,245)" stroke="none" paint-order="stroke fill markers" d=" M 322.8711786288224 449.68589777215374 L 322.8711786288224 449.68589777215374 L 326.8188726230299 447.9282711651123 Q 326.5785039004647 444.2671331043811 328.22477743966954 440.94188660459594 Q 329.87105097887445 437.61664010481076 333.0327689176179 435.59428865770866 L 333.0327689176179 435.59428865770866 L 343.96580221904503 460.1502835030335 Q 340.3373698705222 461.1243772228601 336.7596930823368 460.1116210001969 Q 333.18201629415137 459.0988647775337 330.65433200776505 456.4828297366866 L 330.65433200776505 456.4828297366866 L 326.68433465765804 458.2503864375531 Q 328.5300727425019 460.4752060076906 330.98639510467626 462.0005836464707 Q 333.4427174668506 463.52596128525084 336.2095929650092 464.21823427810466 Q 338.9764684631678 464.91050727095853 341.898916479725 464.69169258265185 Q 344.8213644962823 464.47287789434523 347.609283983717 463.23161616620865 L 347.609283983717 463.23161616620865 Q 350.4195068270511 461.98042434424696 352.53761724377586 459.9550378280826 Q 354.65572766050053 457.9296513119183 356.0038213257955 455.40527600833485 Q 357.35191499109055 452.88090070475135 357.85078728559694 450.0397856341464 Q 358.3496595801034 447.1986705635415 357.9090329169266 444.3482550824232 L 357.9090329169266 444.3482550824232 L 353.9390355668196 446.1158117832897 Q 354.1917775514592 449.7447163942963 352.5504690591669 453.0811145720312 Q 350.90916056687456 456.41751274976616 347.75737272195624 458.4621675527677 L 347.75737272195624 458.4621675527677 L 336.82433942052904 433.9061727074429 Q 340.44284167522676 432.9097756317168 344.01555341649964 433.91138017643027 Q 347.5882651577725 434.91298472114374 350.12587953798396 437.5513231178903 L 350.12587953798396 437.5513231178903 L 354.09587688809097 435.7837664170238 Q 352.2525819714964 433.5044100412623 349.8074112872718 431.9740673555696 Q 347.3622406030472 430.44372466987693 344.5891784738514 429.7675684018854 Q 341.8161163446556 429.0914121338938 338.8986333750109 429.3213785001502 Q 335.98115040536624 429.55134486640657 333.17092756203203 430.80253668836826 L 333.17092756203203 430.80253668836826 Q 330.38300807459734 432.04379841650484 328.2599326109601 434.0580332547195 Q 326.13685714732287 436.07226809293405 324.79495011306506 438.5805266716552 Q 323.45304307880724 441.0887852503764 322.9430191063511 443.93486536789385 Q 322.4329951338949 446.78094548541134 322.8711786288224 449.68589777215374 Z" fill-opacity="1"/></g></g><g><g><path fill="rgb(244,244,245)" stroke="none" paint-order="stroke fill markers" d=" M 305.02925855092514 473.5473350557618 L 305.9683128185346 477.9652380375917 Q 308.66647264009396 476.56806338616724 310.76144985111404 474.3880778744529 Q 312.85642706213406 472.2080923627385 314.14823550784115 469.5373992319678 Q 315.4400439535483 466.8667061011971 315.8346606957203 463.85008797973325 Q 316.22927743789234 460.8334698582694 315.56940146605865 457.7289974926592 L 315.56940146605865 457.7289974926592 Q 314.9044495252108 454.60064457039044 313.31444208021696 451.9933915987681 Q 311.7244346352231 449.38613862714567 309.45804013880775 447.4717648794767 Q 307.19164564239236 445.5573911318077 304.39364672291873 444.42991954631424 Q 301.59564780344505 443.30244796082076 298.56247402695476 443.1235058727816 L 298.56247402695476 443.1235058727816 L 299.50660426357837 447.5652894112701 Q 301.66485009331893 447.8553247138414 303.59357513883504 448.7682143702637 Q 305.5223001843512 449.681104026686 307.1006023739382 451.117749129723 Q 308.67890456352524 452.55439423276 309.76961522234114 454.4565926791773 Q 310.860325881157 456.35879112559456 311.342542937497 458.62744400815586 L 311.342542937497 458.62744400815586 Q 311.8298359628511 460.9199774473757 311.56950683015845 463.1592672409141 Q 311.3091776974657 465.39855703445244 310.4089779635787 467.38698347161494 L 310.4089779635787 467.38698347161494 L 286.9252356430631 452.1364628919784 Q 288.2338253131911 450.6602581864516 289.9305010435038 449.60075298592636 L 289.9305010435038 449.60075298592636 L 288.98637080688013 445.15896944743787 Q 286.2882109853208 446.5561440988624 284.21457634645225 448.71911336323336 Q 282.1409417075837 450.88208262760435 280.8371929835473 453.5553137428821 Q 279.53344425951093 456.22854485815986 279.1174849451874 459.2621792269671 Q 278.7015256308639 462.2958135957743 279.3664775717117 465.4241665180431 L 279.3664775717117 465.4241665180431 Q 280.02635354354544 468.5286388836533 281.6377035606908 471.1188756079323 Q 283.24905357783615 473.70911233221125 285.5273883525808 475.6209480953732 Q 287.8057231273254 477.53278385853514 290.58237947464755 478.67727169137197 Q 293.3590358219697 479.82175952420886 296.39220959846 480.000701612248 L 296.39220959846 480.000701612248 L 295.4531553308505 475.5827986304181 Q 293.3137140887544 475.2638068021741 291.38245105873125 474.3389768674225 Q 289.45118802870803 473.414146932671 287.8848261174503 471.9749638451269 Q 286.3184642061925 470.53578075758287 285.2038729907181 468.6386582801797 Q 284.0892817752437 466.7415358027765 283.6172166569319 464.5206440335323 L 283.6172166569319 464.5206440335323 Q 283.12484766256364 462.20423003765393 283.3971170735856 459.9624022596085 Q 283.66938648460757 457.72057448156306 284.57466218750875 455.7560286010591 L 284.57466218750875 455.7560286010591 L 308.0294479823517 470.9877445930512 Q 306.72593428123776 472.48782985523655 305.02925855092514 473.5473350557618 L 305.02925855092514 473.5473350557618 Z" fill-opacity="1"/></g></g><g><g><path fill="rgb(244,244,245)" stroke="none" paint-order="stroke fill markers" d=" M 252.44140625000003 484.498046875 L 252.44140625000003 484.498046875 Q 255.51757812500003 484.498046875 258.27636718750006 483.50927734375 Q 261.03515625000006 482.5205078125 263.29345703125006 480.7626953125 Q 265.55175781250006 479.0048828125 267.16308593750006 476.6123046875 Q 268.77441406250006 474.2197265625 269.53125000000006 471.4365234375 L 269.53125000000006 471.4365234375 L 265.18554687500006 471.4365234375 Q 263.94042968750006 474.8544921875 261.09619140625006 477.22265625 Q 258.25195312500006 479.5908203125 254.51660156250003 480.1767578125 L 254.51660156250003 480.1767578125 L 254.51660156250003 453.345703125 Q 255.88378906250003 453.541015625 257.15332031250006 453.98046875 L 257.15332031250006 453.98046875 L 257.1533203125 449.634765625 Q 254.88281250000003 449 252.44140625000003 449 L 252.44140625000003 449 Q 250.00000000000003 449 247.75390625000003 449.634765625 L 247.75390625000003 449.634765625 L 247.75390625000003 453.98046875 Q 248.99902343750003 453.541015625 250.36621093750003 453.345703125 L 250.36621093750003 453.345703125 L 250.36621093750003 480.1767578125 Q 246.67968750000003 479.5908203125 243.81103515625003 477.22265625 Q 240.94238281250003 474.8544921875 239.69726562500003 471.4365234375 L 239.69726562500003 471.4365234375 L 235.35156250000003 471.4365234375 Q 236.13281250000003 474.2197265625 237.75634765625003 476.6123046875 Q 239.37988281250003 479.0048828125 241.62597656250003 480.7626953125 Q 243.87207031250003 482.5205078125 246.63085937500003 483.50927734375 Q 249.38964843750003 484.498046875 252.44140625000003 484.498046875 Z" fill-opacity="1"/></g></g><g><g><path fill="rgb(244,244,245)" stroke="none" paint-order="stroke fill markers" d=" M 203.63317024661063 479.8812988289553 L 203.63317024661063 479.8812988289553 Q 207.21525374539166 480.64269418107114 210.6712957209593 479.94212806757406 Q 214.12733769652695 479.24156195407693 216.99403373811884 477.37990777727794 Q 219.86072977971077 475.5182536004789 221.8919494191095 472.6553503553556 Q 223.9231690585082 469.7924471102323 224.684564410624 466.21036361145127 L 224.684564410624 466.21036361145127 Q 225.44595976273982 462.6282801126702 224.757333927572 459.1747761216096 Q 224.0687080924042 455.72127213054904 222.20705391560514 452.8545760889572 Q 220.34539973880612 449.98788004736525 217.47055621535355 447.95412242345947 Q 214.59571269190099 445.9203647995537 211.01362919311995 445.15896944743787 L 211.01362919311995 445.15896944743787 Q 207.43154569433892 444.39757409532206 203.98998198160763 445.08873791499695 Q 200.5484182688763 445.7799017346718 197.68172222728438 447.64155591147085 Q 194.81502618569246 449.5032100882699 192.76932828345744 452.3755156272154 Q 190.72363038122242 455.2478211661609 189.96223502910658 458.8299046649419 L 189.96223502910658 458.8299046649419 Q 189.20083967699077 462.411988163723 189.9039437749949 465.85608986096133 Q 190.60704787299906 469.3001915581997 192.46870204979808 472.1668875997916 Q 194.33035622659713 475.03358364138353 197.19072148721338 477.0767435591115 Q 200.05108674782963 479.1199034768395 203.63317024661063 479.8812988289553 Z M 204.49608497900857 475.82160419700347 L 204.49608497900857 475.82160419700347 Q 201.74982096327645 475.23786776038133 199.54928709905525 473.6719124124739 Q 197.34875323483408 472.1059570645664 195.92900686767925 469.91973937628165 Q 194.50926050052442 467.7335216879969 193.97372686248036 465.08630255053447 Q 193.4381932244363 462.439083413072 194.02192966105844 459.69281939733986 L 194.02192966105844 459.69281939733986 Q 194.61581803570877 456.89879426829066 196.18177338361622 454.69826040406946 Q 197.7477287315237 452.4977265398483 199.9314084353014 451.08992045102275 Q 202.1150881390791 449.6821143621972 204.7597692920345 449.1585210024824 Q 207.40445044498992 448.6349276427676 210.15071446072204 449.2186640793897 L 210.15071446072204 449.2186640793897 Q 212.94473958977125 449.81255245404003 215.14781143849947 451.36656752361824 Q 217.3508832872277 452.92058259319646 218.76122736056033 455.0923220186449 Q 220.17157143389292 457.26406144409333 220.69516479360772 459.90874259704873 Q 221.2187581533225 462.55342375000413 220.62486977867218 465.34744887905333 L 220.62486977867218 465.34744887905333 Q 220.04113334205005 468.0937128947854 218.48711827247186 470.2967847435137 Q 216.93310320289365 472.49985659224194 214.75882579293818 473.9221409439038 Q 212.5845483829827 475.3444252955657 209.93732924552023 475.87995893360977 Q 207.29011010805777 476.41549257165383 204.49608497900857 475.82160419700347 Z" fill-opacity="1"/></g></g><g><g><path fill="rgb(244,244,245)" stroke="none" paint-order="stroke fill markers" d=" M 163.078550913644 462.9659373649311 L 161.2812039313022 467.0028447827366 Q 164.21838966776915 467.42865501558964 167.11900659091066 466.9161878748842 Q 170.01962351405217 466.4037207341787 172.5489638645482 465.044475390934 Q 175.0783042150442 463.6852300476893 177.1235509188587 461.5225129191656 Q 179.16879762267322 459.35979579064195 180.41998944463492 456.54957294730775 L 180.41998944463492 456.54957294730775 Q 181.9392937998741 453.1371594946877 181.99244845512914 449.5663777312651 Q 182.04560311038415 445.9955959678426 180.80827690294566 442.77225099538555 Q 179.57095069550718 439.5489060229285 177.1421297219703 436.93086543923357 Q 174.71330874843338 434.3128248555386 171.30089529581332 432.79352050029945 L 171.30089529581332 432.79352050029945 Q 167.91078519909271 431.28414623888534 164.3511551136199 431.23595663054283 Q 160.79152502814708 431.1877670222004 157.5570283777403 432.42012818272633 Q 154.3225317273335 433.6524893432522 151.6821877877391 436.0713802229641 Q 149.0418438481447 438.4902711026759 147.5225394929055 441.90268455529593 L 147.5225394929055 441.90268455529593 Q 146.2713476709438 444.7129073986301 146.05497615088646 447.6898922208114 Q 145.8386046308291 450.66687704299267 146.53209920780762 453.46102094396326 Q 147.2255937847861 456.2551648449339 148.76334468564062 458.74372065683286 Q 150.30109558649514 461.23227646873175 152.58289513050596 463.1301081909504 L 152.58289513050596 463.1301081909504 L 154.37031201902266 459.11550412904444 Q 152.86164300591776 457.6420658522276 151.8774964085204 455.8008583343112 Q 150.89334981112302 453.9596508163949 150.48566184598002 451.9341446619014 Q 150.07797388083702 449.9086385074079 150.27767770313434 447.77941734064865 Q 150.47738152543167 445.6501961738894 151.3810200635151 443.620590787037 L 151.3810200635151 443.620590787037 Q 152.55277113487608 440.9887947908986 154.56807013638738 439.13343830846907 Q 156.58336913789867 437.2780818260395 159.06037971977804 436.3364923242616 Q 161.5373903016574 435.39490282248374 164.2554433627454 435.4425414579285 Q 166.97349642383338 435.49018009337317 169.58298906407228 436.652001070909 L 169.58298906407228 436.652001070909 Q 172.21478506021063 437.82375214227 174.08007163646528 439.8167477878818 Q 175.94535821271992 441.8097434334937 176.89191276141037 444.27560233742327 Q 177.8384673101008 446.7414612413529 177.79701530569326 449.47563102730317 Q 177.75556330128572 452.2098008132535 176.58381222992477 454.84159680939183 L 176.58381222992477 454.84159680939183 Q 175.68017369184133 456.87120219624427 174.25378529507273 458.4542682026234 Q 172.82739689830413 460.03733420900255 171.06050766324807 461.0946562155495 Q 169.29361842819202 462.15197822209643 167.249473670173 462.6315413018504 Q 165.20532891215393 463.1111043816044 163.078550913644 462.9659373649311 L 163.078550913644 462.9659373649311 Z" fill-opacity="1"/></g></g><g><g><path fill="rgb(244,244,245)" stroke="none" paint-order="stroke fill markers" d=" M 113.87400171714205 440.95419960875114 L 113.87400171714205 440.95419960875114 Q 116.83671043677685 443.10673349165813 120.27890779423531 443.872433412366 Q 123.72110515169375 444.6381333330738 127.09716526937135 444.1034179408335 Q 130.47322538704896 443.5687025485931 133.49328451746834 441.7794817508191 Q 136.51334364788775 439.99026095304515 138.66587753079475 437.02755223341035 L 138.66587753079475 437.02755223341035 Q 140.81841141370177 434.0648435137755 141.5939870301417 430.6298212692601 Q 142.36956264658167 427.19479902474467 141.83484725434133 423.8187389070671 Q 141.30013186210095 420.44267878938945 139.50103536859487 417.41544454602706 Q 137.70193887508879 414.3882103026646 134.73923015545395 412.2356764197576 L 134.73923015545395 412.2356764197576 Q 132.27030622242495 410.4418981840018 129.46438995152485 409.6103783174478 Q 126.65847368062474 408.7788584508938 123.81530451506305 408.8708621590701 Q 120.97213534950136 408.9628658672464 118.25234568029734 409.94421220931906 Q 115.53255601109333 410.9255585513917 113.23588528145649 412.7575127328891 L 113.23588528145649 412.7575127328891 L 116.7516329620898 415.31185294060543 Q 118.50654300278654 414.14249700858403 120.48520479755963 413.5581904136119 Q 122.46386659233272 412.9738838186397 124.49577205443074 413.0016323886078 Q 126.52767751652877 413.0293809585758 128.52487201978695 413.66563679875435 Q 130.5220665230451 414.3018926389329 132.29969175482603 415.59341296867706 L 132.29969175482603 415.59341296867706 Q 134.61060455614117 417.27238939734457 135.9911359637177 419.5881228534724 Q 137.37166737129422 421.9038563096002 137.77675478965813 424.46147761087116 Q 138.18184220802203 427.01909891214206 137.58447980928239 429.64809997180464 Q 136.98711741054277 432.2771010314672 135.30814098187528 434.5880138327824 L 135.30814098187528 434.5880138327824 Q 133.65786500497993 436.8594238511691 131.34213154885208 438.2399552587456 Q 129.02639809272424 439.62048666632217 126.4616016785103 440.03544978041816 Q 123.89680526429638 440.45041289451416 121.26062909169076 439.86292619150663 Q 118.62445291908514 439.2754394884991 116.31354011776999 437.59646305983165 L 116.31354011776999 437.59646305983165 Q 114.5359148859891 436.3049427300875 113.32080769352046 434.5922360551083 Q 112.10570050105183 432.8795293801291 111.45859183695731 430.9457715338626 Q 110.8114831728628 429.0120136875962 110.75575164681996 426.94963382636126 Q 110.70002012077714 424.8872539651263 111.24114622184787 422.8963872628706 L 111.24114622184787 422.8963872628706 L 107.72539854121456 420.34204705515424 Q 106.72151731706066 423.0529129104302 106.62866271259952 425.9428392953471 Q 106.53580810813837 428.8327656802639 107.31971985905236 431.5750866472049 Q 108.10363160996636 434.3174076141459 109.7543546970397 436.73891449357063 Q 111.40507778411303 439.1604213729953 113.87400171714205 440.95419960875114 Z" fill-opacity="1"/></g></g><g><g><path fill="rgb(244,244,245)" stroke="none" paint-order="stroke fill markers" d=" M 74.00965431477877 405.1771828560826 L 74.00965431477877 405.1771828560826 L 77.36614339469376 402.1549865138856 Q 75.96079066147564 398.6239270103925 76.50706360459282 394.7975459445098 Q 77.05333654770999 390.97116487862706 79.54603412335192 387.9382732228039 L 79.54603412335192 387.9382732228039 L 98.28365144497326 408.74850551827683 Q 95.00681644000456 410.91052433174366 91.15246371691501 411.06291059393567 Q 87.29811099382545 411.2152968561277 83.9169581688613 409.4304033844041 L 83.9169581688613 409.4304033844041 L 80.56046908894632 412.4525997266011 Q 83.11953774138325 414.0906873498297 86.05494917991992 414.81499807906533 Q 88.99036061845659 415.539308808301 91.94915293827017 415.32270117372127 Q 94.90794525808377 415.10609353914157 97.71772155587396 413.9395326018893 Q 100.52749785366416 412.772971664637 102.88611180171253 410.64926612687697 L 102.88611180171253 410.64926612687697 Q 105.26286893397666 408.5092243926726 106.72581251899717 405.82861106729035 Q 108.18875610401767 403.14799774190806 108.71345515362937 400.22805565918065 Q 109.23815420324105 397.3081135764532 108.8155737785867 394.32123963968087 Q 108.39299335393233 391.33436570290854 107.03137485973532 388.6180891143556 L 107.03137485973532 388.6180891143556 L 103.65674259560458 391.6566216529969 Q 105.09657470948277 395.1894881442614 104.54213366814344 399.00679761803633 Q 103.98769262680412 402.82410709181113 101.49499505116219 405.8569987476343 L 101.49499505116219 405.8569987476343 L 82.75737772954085 385.04676645216136 Q 86.03421273450955 382.88474763869453 89.89673355582126 382.7414329686104 Q 93.75925437713296 382.5981182985263 97.12407100565281 384.36486858603416 L 97.12407100565281 384.36486858603416 L 100.48056008556779 381.34267224383717 Q 97.92149143313085 379.7045846206085 95.01148778314636 378.9902489773665 Q 92.10148413316189 378.2759133341244 89.13452371512614 378.48344937659624 Q 86.1675632970904 378.69098541906806 83.33237921074802 379.84757127032674 Q 80.49719512440564 381.0041571215854 78.1204379921415 383.1441988557898 L 78.1204379921415 383.1441988557898 Q 75.76182404409313 385.2679043935499 74.32428824762482 387.9584928049257 Q 72.8867524511565 390.64908121630157 72.37022149976696 393.5780948911369 Q 71.85369054837743 396.5071085659722 72.2508631844796 399.48400741675096 Q 72.64803582058178 402.46090626752965 74.00965431477877 405.1771828560826 Z" fill-opacity="1"/></g></g><g><g><path fill="rgb(244,244,245)" stroke="none" paint-order="stroke fill markers" d=" M 48.13943739341596 369.36334327095824 L 48.13943739341596 369.36334327095824 Q 49.97049208091596 372.53482302114537 52.803657625779366 374.6343925036024 Q 55.63682317064278 376.73396198605934 58.9384958995163 377.6186425274329 Q 62.240168628389824 378.50332306880637 65.72687158980452 378.0971572488775 Q 69.21357455121921 377.6909914289486 72.38505430140637 375.8599367414486 L 72.38505430140637 375.8599367414486 Q 75.55653405159352 374.0288820539486 77.6622070496755 371.2062881082525 Q 79.76788004775749 368.38369416255637 80.652560589131 365.0820214336829 Q 81.53724113050453 361.78034870480934 81.12497179495064 358.2830741442273 Q 80.71270245939675 354.78579958364537 78.88164777189675 351.61431983345824 L 78.88164777189675 351.61431983345824 Q 77.05059308439675 348.44284008327105 74.23410265432564 346.3477386843564 Q 71.41761222425451 344.25263728544166 68.11593949538099 343.3679567440682 Q 64.81426676650747 342.48327620269464 61.31088869030049 342.88497393908125 Q 57.8075106140935 343.2866716754678 54.63603086390635 345.1177263629678 L 54.63603086390635 345.1177263629678 Q 53.726873335519365 345.6426287067178 52.91210119296696 346.2821832092253 L 52.91210119296696 346.2821832092253 L 53.87645666171696 347.9524958776572 L 54.999503536716965 349.89767012443866 L 61.71337072421697 361.52642920845824 L 65.30771444109574 359.45123389595824 L 58.59384725359574 347.82247481193866 Q 60.91241575413842 346.9067126307074 63.339446941329676 346.88682114597685 Q 65.76647812852093 346.86692966124633 67.98961290484954 347.6413401709207 Q 70.21274768117814 348.4157506805951 72.10915672747306 349.94261500071116 Q 74.00556577376798 351.4694793208272 75.28730405501798 353.68951514595824 L 75.28730405501798 353.68951514595824 Q 76.71552671126798 356.1632693511042 77.0348112555887 358.8403098414392 Q 77.35409579990943 361.51735033177414 76.68388326856586 364.0186175506177 Q 76.01367073722228 366.51988476946127 74.39864196563731 368.6786275688906 Q 72.78361319405234 370.83737036831985 70.30985898890636 372.26559302456985 L 70.30985898890636 372.26559302456985 Q 67.87839118042955 373.66940161831985 65.20135069009457 373.9886861626406 Q 62.5243101997596 374.3079707069613 60.01247138174873 373.6438616912427 Q 57.50063256373787 372.97975267552414 55.3313181651413 371.3708274195642 Q 53.16200376654473 369.7619021636042 51.73378111029473 367.28814795845824 L 51.73378111029473 367.28814795845824 Q 50.63514829779473 365.38526010834596 50.22171320512071 363.3263960847026 Q 49.808278112446686 361.2675320610592 49.99754159104886 359.2271819595154 Q 50.186805069651044 357.18683185797164 50.97473724869297 355.2800860499907 Q 51.76266942773489 353.37334024200976 53.066771158666796 351.77468882322233 L 53.066771158666796 351.77468882322233 L 50.906126627416796 348.03234271800153 Q 48.886427017274556 350.1005266272081 47.62616115861062 352.7028383789577 Q 46.365895299946686 355.3051501307074 45.966631894856846 358.1292306274888 Q 45.56736848976702 360.9533111242703 46.09046348846648 363.83687730170294 Q 46.61355848716596 366.7204434791356 48.13943739341596 369.36334327095824 Z" fill-opacity="1"/></g></g><g><g><path fill="rgb(244,244,245)" stroke="none" paint-order="stroke fill markers" d=" M 27.631691619575967 324.4723383864912 L 27.631691619575967 324.4723383864912 Q 28.763345651710786 327.95521137097046 31.098074690813615 330.5979484616089 Q 33.432803729916444 333.24068555224727 36.478391560881775 334.79249006079465 Q 39.52397939184711 336.344294569342 43.018936150400144 336.6719307551655 Q 46.51389290895318 336.999566940989 49.996765893432496 335.8679129088542 L 49.996765893432496 335.8679129088542 Q 53.479638877911825 334.7362588767194 56.12614814865733 332.41313941423147 Q 58.77265741940283 330.09001995174356 60.3244619279502 327.04443212077825 Q 61.87626643649757 323.9988442898129 62.20013044221396 320.4922779546449 Q 62.52399444793035 316.985711619477 61.39234041579553 313.50283863499766 L 61.39234041579553 313.50283863499766 Q 60.44929538901652 310.6004444812649 58.668016555613804 308.2784545748598 Q 56.88673772221109 305.9564646684546 54.532487126566586 304.35972432662487 Q 52.17823653092209 302.7629839847952 49.401059560149164 301.9582575960041 Q 46.62388258937624 301.153531207213 43.689041287856796 301.28566408870836 L 43.689041287856796 301.28566408870836 L 45.03193740599012 305.4186733636238 Q 47.13901962403591 305.5041547831669 49.083237441469635 306.1944690401512 Q 51.02745525890335 306.8847832971356 52.65499110850452 308.10155642648306 Q 54.282526958105684 309.31832955583053 55.52430945277188 311.00699281828 Q 56.76609194743808 312.6956560807295 57.445084366718966 314.7853798714171 L 57.445084366718966 314.7853798714171 Q 58.23724218921334 317.22339096055265 58.11052253307612 319.677588331872 Q 57.9838028769389 322.13178570319144 57.07173451909653 324.302078582468 Q 56.159666161254165 326.47237146174456 54.513338697154225 328.239477975309 Q 52.86701123305429 330.0065844888735 50.6350421600517 331.11685216895887 L 50.6350421600517 331.11685216895887 L 43.58106535974467 309.40694389903774 L 39.6338093106681 310.68948513545723 L 46.68778611097513 332.3993934053783 Q 44.25270538477544 332.8055421283536 41.88211934010922 332.3436099318513 Q 39.511533295443 331.881677735349 37.49798834632274 330.6619742430657 Q 35.48444339720248 329.44227075078237 33.9277744441747 327.5350394949948 Q 32.371105491146906 325.62780823920724 31.578947668652535 323.1897971500717 L 31.578947668652535 323.1897971500717 Q 30.899955249371647 321.1000733593841 30.923616605732935 319.00024246525896 Q 30.94727796209423 316.9004115711338 31.560390399174757 314.95560768111295 Q 32.17350283625529 313.01080379109203 33.3406515516231 311.3095452654006 Q 34.507800266990905 309.6082867397091 36.11578256572305 308.3157076858889 L 36.11578256572305 308.3157076858889 L 34.77288644758974 304.18269841097344 Q 32.36732250624088 305.7857683787515 30.593545443960824 308.0691893695321 Q 28.81976838168077 310.35261036031267 27.84207048884005 313.0319663928847 Q 26.864372595999328 315.71132242545673 26.776509594398142 318.6406333291076 Q 26.688646592796957 321.5699442327584 27.631691619575967 324.4723383864912 Z" fill-opacity="1"/></g></g><g><g><path fill="rgb(244,244,245)" stroke="none" paint-order="stroke fill markers" d=" M 17.04175440524135 276.93975245022403 L 17.04175440524135 276.93975245022403 Q 17.36330192408228 279.99907273382763 18.63502685356616 282.6393943015589 Q 19.906751783050055 285.27971586929027 21.8909915125123 287.34190400323297 Q 23.875231241974546 289.4040921371757 26.42313222639242 290.7565007234569 Q 28.971033210810287 292.108909309738 31.818100555372798 292.57067527516534 L 31.818100555372798 292.57067527516534 L 31.363850885899105 288.24877836658254 Q 27.83445594014206 287.3677570822488 25.181961071455433 284.78664038611987 Q 22.529466202768806 282.2055236899909 21.5562879711089 278.55188192063247 L 21.5562879711089 278.55188192063247 L 48.2403593336512 275.7472730062977 Q 48.18902678433582 277.1273866256035 47.88468318016808 278.43589861041715 L 47.88468318016808 278.43589861041715 L 52.206580088750904 277.98164894094344 Q 52.600535708762706 275.65722813249107 52.34533926523816 273.22919616137716 L 52.34533926523816 273.22919616137716 Q 52.09014282171361 270.8011641902632 51.2240737811814 268.6337258521547 L 51.2240737811814 268.6337258521547 L 46.902176872598574 269.08797552162844 Q 47.46937281359661 270.2803364670621 47.80652537965947 271.619618655404 L 47.80652537965947 271.619618655404 L 21.12245401711717 274.4242275697387 Q 21.319835060462456 270.69665214691076 23.375170251301643 267.5961740306331 Q 25.43050544214083 264.4956959143554 28.69960001550284 262.9001245881529 L 28.69960001550284 262.9001245881529 L 28.245350346029145 258.5782276795701 Q 25.559056760887103 259.64612185594456 23.34929106413926 261.51085563138935 Q 21.139525367391407 263.3755894068342 19.62612307623195 265.7931202595967 Q 18.11272078507249 268.2106511123592 17.41773981795407 271.0576817993454 Q 16.722758850835667 273.9047124863316 17.04175440524135 276.93975245022403 Z" fill-opacity="1"/></g></g><g><g><path fill="rgb(244,244,245)" stroke="none" paint-order="stroke fill markers" d=" M 40.63135043740122 213.26534301019706 L 40.63135043740122 213.26534301019706 L 40.179652732362776 217.56295959906876 Q 43.470475661000684 219.1853632094176 45.5270868340575 222.27370116583973 Q 47.583698007114315 225.36203912226188 47.754246766313216 229.1113429003657 L 47.754246766313216 229.1113429003657 L 21.021614764348637 226.30163005716048 Q 21.992241031573293 222.6722686075132 24.658152042333107 220.08028773374627 Q 27.324063053092924 217.4883068599794 30.85345799884997 216.60728557564565 L 30.85345799884997 216.60728557564565 L 31.30770766832366 212.28538866706282 Q 28.4580883593259 212.7714349522013 25.90891139269041 214.135983698338 Q 23.359734426054917 215.50053244447474 21.376770678810296 217.5505804185619 Q 19.39380693156567 219.60062839264907 18.12208200208179 222.2409499603804 Q 16.8503570725979 224.8812715281117 16.53136151819222 227.91631149200416 L 16.53136151819222 227.91631149200416 Q 16.209813999351297 230.97563177560772 16.904794966469716 233.82266246259394 Q 17.599775933588127 236.66969314958013 19.111902242529972 239.0993641621982 Q 20.624028551471813 241.52903517481627 22.835070230437285 243.38162879040553 Q 25.046111909402754 245.23422240599479 27.73495745898005 246.2778362626581 L 27.73495745898005 246.2778362626581 L 28.189207128453738 241.95593935407527 Q 24.920112555091723 240.3603680278728 22.851361222179342 237.27075408923304 Q 20.782609889266958 234.1811401505933 20.587780810356914 230.4292844080542 L 20.587780810356914 230.4292844080542 L 47.32041281232149 233.23899725125943 Q 46.37406686480797 236.870910665342 43.72029601390373 239.4641675213265 Q 41.06652516299948 242.057424377311 37.5128498975313 242.9358936972095 L 37.5128498975313 242.9358936972095 L 37.058600228057614 247.25779060579234 Q 39.9542282120424 246.8011285692355 42.50212919646027 245.44871998295434 Q 45.05003018087814 244.09631139667317 47.022129750484815 242.03284728051284 Q 48.99422932009149 239.96938316435248 50.2538140897198 237.32778561440352 Q 51.513398859348115 234.6861880644546 51.83494637818904 231.626867780851 L 51.83494637818904 231.626867780851 Q 52.15394193259472 228.59182781695858 51.47110112533188 225.74607311219 Q 50.78826031806903 222.90031840742142 49.28699818676514 220.48406353687653 Q 47.78573605546124 218.06780866633164 45.57597035871339 216.20307489088682 Q 43.36620466196555 214.338341115442 40.63135043740122 213.26534301019706 Z" fill-opacity="1"/></g></g><g><g><path fill="rgb(244,244,245)" stroke="none" paint-order="stroke fill markers" d=" M 28.887699617936182 185.8830683286423 L 24.592156270411685 184.48736168900936 Q 24.453065101289283 187.52262396366248 25.293499328805908 190.4269202046125 Q 26.13393355632254 193.3312164455625 27.80091743042901 195.7853019417535 Q 29.467901304535484 198.23938743794452 31.883060860153655 200.08944462215607 Q 34.29822041577182 201.93950180636762 37.31671033565391 202.9202686342178 L 37.31671033565391 202.9202686342178 Q 40.35841940876585 203.9085798222822 43.41137043878021 203.8352194685223 Q 46.46432146879458 203.76185911476242 49.25541501482164 202.75629077970396 Q 52.04650856084869 201.7507224446455 54.42192705566798 199.89132009336666 Q 56.79734555048726 198.0319177420878 58.46890083278056 195.49458324157402 L 58.46890083278056 195.49458324157402 L 54.1501383320262 194.09133224172683 Q 52.81983747713484 195.8154103066083 51.06488932106301 197.0292903647294 Q 49.30994116499119 198.24317042285054 47.276618914745136 198.89169766236301 Q 45.243296664499084 199.54022490187552 43.05058915745449 199.53370881737987 Q 40.857881650409894 199.52719273288423 38.652062093572994 198.8104785125322 L 38.652062093572994 198.8104785125322 Q 36.42302338350622 198.0862199319659 34.61390610221313 196.74112339293967 Q 32.80478882092004 195.3960268539134 31.532860879724268 193.622217797306 L 31.532860879724268 193.622217797306 L 56.48207028288471 180.90996066163004 Q 57.106206223993006 182.78133491185423 57.175426777933275 184.78045179655211 L 57.175426777933275 184.78045179655211 L 61.494189278687635 186.18370279639927 Q 61.63328044781004 183.14844052174618 60.79691143669411 180.27113561413316 Q 59.96054242557818 177.39383070652013 58.297330731578825 174.9281356337142 Q 56.63411903757947 172.46244056090825 54.214894265560595 170.58539204335972 Q 51.79566949354172 168.7083435258112 48.753960420429785 167.72003233774677 L 48.753960420429785 167.72003233774677 Q 45.735470500547706 166.7392655098966 42.68658468693404 166.83961719699346 Q 39.63769887332037 166.93996888409032 36.8428331471862 167.95714679576372 Q 34.04796742105202 168.9743247074371 31.668483709832042 170.80673572537896 Q 29.288999998612063 172.63914674332085 27.617444716318758 175.17648124383464 L 27.617444716318758 175.17648124383464 L 31.912988063843258 176.5721878834676 Q 33.25896371175025 174.87887333203022 35.025521444437004 173.6687654540162 Q 36.79207917712377 172.45865757600222 38.82162924726269 171.82173991310466 Q 40.85117931740163 171.1848222502071 43.05143118466046 171.16811918147286 Q 45.25168305191929 171.15141611273864 47.41106430229647 171.85304161266222 L 47.41106430229647 171.85304161266222 Q 49.6633221655931 172.58484455344274 51.46866726677907 173.9415506690839 Q 53.27401236796505 175.29825678472508 54.52272115593096 177.06452148111828 L 54.52272115593096 177.06452148111828 L 29.604275266214607 189.7611038237786 Q 28.956920171876448 187.8821852133402 28.887699617936182 185.8830683286423 L 28.887699617936182 185.8830683286423 Z" fill-opacity="1"/></g></g><g><g><path fill="rgb(244,244,245)" stroke="none" paint-order="stroke fill markers" d=" M 45.69803114341582 134.86529639595824 L 45.69803114341582 134.86529639595824 Q 44.15994520591582 137.52933938611545 43.636850207216355 140.4129055635481 Q 43.11375520851689 143.29647174098076 43.506915097981725 146.1311238369295 Q 43.90007498744656 148.96577593287824 45.1664443617355 151.5575160854606 Q 46.43281373602444 154.14925623804294 48.46472037741668 156.19629694891495 L 48.46472037741668 156.19629694891495 L 50.63757193991668 152.43280764535953 Q 48.300082766825334 149.6455201552959 47.67131166899597 145.99825551806723 Q 47.04254057116661 142.3509908808385 48.402779592386665 138.82311278564762 L 48.402779592386665 138.82311278564762 L 71.63915456209122 152.2386401293976 Q 70.78641522541457 153.32500298613414 69.7710720303921 154.20472273703237 L 69.7710720303921 154.20472273703237 L 73.53456133394754 156.37757429953234 Q 75.21953839689664 154.7286396669163 76.44024152189664 152.6143198334582 L 76.44024152189664 152.6143198334582 Q 77.66094464689664 150.5000000000001 78.23426836519754 148.23744294071867 L 78.23426836519754 148.23744294071867 L 74.4707790616421 146.06459137821867 Q 74.22879803791457 147.36262105578228 73.71434987459122 148.64429641251883 L 73.71434987459122 148.64429641251883 L 50.477974904886665 135.22876906876886 Q 52.8286733836666 132.3291148702471 56.31388979399596 131.02887109718384 Q 59.79910620432532 129.72862732412057 63.38171256491667 130.35930858405692 L 63.38171256491667 130.35930858405692 L 65.55456412741665 126.5958192805015 Q 62.75361451727442 125.8808000647081 59.869813502360486 126.09053369145775 Q 56.986012487446544 126.30026731820737 54.34065533235671 127.36653531498884 Q 51.69529817726688 128.4328033117703 49.45960411346635 130.32759995795294 Q 47.22391004966582 132.2223966041356 45.69803114341582 134.86529639595824 Z" fill-opacity="1"/></g></g><g><g><path fill="rgb(244,244,245)" stroke="none" paint-order="stroke fill markers" d=" M 74.10037023585743 94.90449812613906 L 74.10037023585743 94.90449812613906 Q 71.64994076921121 97.62597575850256 70.52862783274642 100.96927896263804 Q 69.4073148962816 104.31258216677351 69.58620668565503 107.72604085211992 Q 69.76509847502845 111.13949953746634 71.22883559418277 114.33003896841313 Q 72.6925727133371 117.52057839935992 75.4140503457006 119.97100786600613 L 75.4140503457006 119.97100786600613 Q 78.1355279780641 122.42143733265235 81.47066308397743 123.55182186122502 Q 84.80579818989075 124.68220638979771 88.21925687523716 124.50331460042429 Q 91.63271556058358 124.32442281105088 94.83142308975252 122.85161409978868 Q 98.03013061892148 121.37880538852647 100.48056008556767 118.65732775616296 L 100.48056008556767 118.65732775616296 Q 102.93098955221389 115.93585012379945 104.05320598256442 112.60978660999402 Q 105.17542241291494 109.28372309618857 104.99653062354153 105.87026441084215 Q 104.81763883416812 102.45680572549574 103.35299822112806 99.24902660421893 Q 101.88835760808801 96.0412474829421 99.16687997572451 93.59081801629588 L 99.16687997572451 93.59081801629588 Q 96.445402343361 91.14038854964969 93.1111707313334 90.02724371140702 Q 89.77693911930581 88.91409887316438 86.3634804339594 89.09299066253779 Q 82.95002174861298 89.27188245191121 79.75041072555831 90.72745147284338 Q 76.55079970250364 92.18302049377556 74.10037023585743 94.90449812613906 Z M 77.18471155253607 97.68165152167143 L 77.18471155253607 97.68165152167143 Q 79.0633741436315 95.5951853368594 81.51979818822205 94.47244478250965 Q 83.97622223281262 93.34970422815991 86.57941547264751 93.21327665141553 Q 89.1826087124824 93.07684907467116 91.74293455393126 93.93667290827513 Q 94.30326039538012 94.79649674187911 96.38972658019213 96.67515933297453 L 96.38972658019213 96.67515933297453 Q 98.51247913343568 98.58649431695858 99.63521968778542 101.04291836154913 Q 100.75796024213517 103.49934240613969 100.88531622677166 106.09436754775243 Q 101.01267221140816 108.68939268936516 100.14377678569632 111.24155043259186 Q 99.27488135998446 113.79370817581858 97.39621876888904 115.88017436063059 L 97.39621876888904 115.88017436063059 Q 95.484883784905 118.00292691387413 93.0375313324223 119.13383556644604 Q 90.59017887993963 120.26474421901794 88.00422533043476 120.4002683018766 Q 85.41827178092991 120.53579238473523 82.86611403770321 119.66689695902339 Q 80.3139562944765 118.79800153331153 78.19120374123297 116.88666654932749 L 78.19120374123297 116.88666654932749 Q 76.10473755642096 115.00800395823207 74.97382890384904 112.56065150574939 Q 73.84292025127714 110.1132990532667 73.69832457631061 107.5191774055397 Q 73.55372890134409 104.92505575781269 74.41355273494806 102.36472991636381 Q 75.27337656855204 99.80440407491496 77.18471155253607 97.68165152167143 Z" fill-opacity="1"/></g></g><g><g><path fill="rgb(244,244,245)" stroke="none" paint-order="stroke fill markers" d=" M 109.02681264438209 68.24084827499442 L 106.42942175900764 64.6658464199684 Q 104.59206641193202 66.99661876695554 103.58556751281697 69.76486027939588 Q 102.5790686137019 72.53310179183622 102.49153943567953 75.40319746180516 Q 102.40401025765718 78.27329313177411 103.25435488025114 81.1258872985457 Q 104.10469950284511 83.97848146531729 105.912827964487 86.46715678981053 L 105.912827964487 86.46715678981053 Q 108.10841252505215 89.48911968383804 111.17422291591878 91.32054384732957 Q 114.2400333067854 93.15196801082111 117.65019504181329 93.69208456863964 Q 121.06035677684116 94.2322011264582 124.54205691722808 93.43780075397825 Q 128.02375705761497 92.64340038149831 131.0457199516425 90.44781582093317 L 131.0457199516425 90.44781582093317 Q 134.04793145420578 88.26658148625407 135.8694799219652 85.20794620833047 Q 137.6910283897246 82.14931093040686 138.24102064327525 78.73197408243595 Q 138.79101289682592 75.31463723446504 138.01636391581022 71.81858686819209 Q 137.24171493479452 68.32253650191915 135.04613037422936 65.30057360789164 L 135.04613037422936 65.30057360789164 Q 133.2380019125875 62.811898283398385 130.76804318992646 61.13602263928263 Q 128.29808446726548 59.460146995166866 125.53153757870629 58.66365896573167 Q 122.76499069014713 57.867170936296475 119.84096268788 57.95462437517943 Q 116.91693468561286 58.04207781406239 114.13246443005816 59.06925832441019 L 114.13246443005816 59.06925832441019 L 116.71550508954657 62.624508787971976 Q 118.74587457473078 62.05468223512915 120.83248035758389 62.122990039693185 Q 122.91908614043702 62.19129784425722 124.8770699083216 62.85098278687295 Q 126.8350536762062 63.510667729488674 128.57916138574657 64.74822689621062 Q 130.32326909528695 65.98578606293259 131.6291396509172 67.78316268617772 L 131.6291396509172 67.78316268617772 Q 133.32246630547073 70.1138268789571 133.9216026515752 72.78680525170208 Q 134.52073899767967 75.45978362444707 134.09767413521638 78.07573246468642 Q 133.6746092727531 80.69168130492578 132.27432647371234 83.02176498693966 Q 130.87404367467155 85.35184866895355 128.5631308733564 87.03082509762102 L 128.5631308733564 87.03082509762102 Q 126.23246668057702 88.72415175217452 123.57383853371809 89.34303948974323 Q 120.91521038685914 89.96192722731196 118.30643665956282 89.54873806058077 Q 115.69766293226648 89.13554889384959 113.35052844157747 87.73256551201973 Q 111.00339395088844 86.32958213018989 109.31006729633492 83.9989179374105 L 109.31006729633492 83.9989179374105 Q 108.00419674070467 82.20154131416537 107.34641556169706 80.17471972371085 Q 106.68863438268946 78.14789813325632 106.65641128256749 76.08906616675104 Q 106.62418818244552 74.03023420024576 107.23094675167098 72.02017137091148 Q 107.83770532089646 70.01010854157721 109.02681264438209 68.24084827499442 L 109.02681264438209 68.24084827499442 Z" fill-opacity="1"/></g></g><g><g><path fill="rgb(244,244,245)" stroke="none" paint-order="stroke fill markers" d=" M 152.69181132092586 36.634327567152674 L 152.69181132092586 36.634327567152674 Q 149.34630793600422 38.123841640916595 146.9620936742663 40.72202203696135 Q 144.57787941252835 43.3202024330061 143.35292646716425 46.511313955738565 Q 142.12797352180016 49.70242547847103 142.1674546204422 53.21248380523236 Q 142.2069357190842 56.722542131993684 143.69644979284814 60.06804551691532 L 143.69644979284814 60.06804551691532 Q 145.18596386661207 63.41354890183695 147.77299258470708 65.80272821048743 Q 150.3600213028021 68.19190751913793 153.55113282553455 69.41686046450201 Q 156.74224434826704 70.6418134098661 160.2634543529781 70.59736726431153 Q 163.78466435768917 70.55292111875696 167.13016774261078 69.06340704499303 L 167.13016774261078 69.06340704499303 Q 169.91808723004547 67.82214531685644 172.04116269368274 65.80791047864184 Q 174.16423815731997 63.79367564042726 175.5061451915778 61.28541706170608 Q 176.84805222583557 58.777158482984895 177.35807619829174 55.93107836546743 Q 177.8681001707479 53.084998247949954 177.42991667582044 50.18004596120758 L 177.42991667582044 50.18004596120758 L 173.45991932571343 51.947602662074104 Q 173.5951562485616 54.05207730468457 173.11184970601974 56.05780198194185 Q 172.62854316347787 58.06352665919912 171.58855946591785 59.80933412248035 Q 170.5485757683578 61.55514158576159 168.9989647958279 62.96663484179254 Q 167.449353823298 64.3781280978235 165.442051792345 65.27183654208186 L 165.442051792345 65.27183654208186 Q 162.83255915210614 66.43365751961771 160.13680944691762 66.47136606123735 Q 157.44105974172913 66.509074602857 155.02355101238635 65.58107994727814 Q 152.60604228304356 64.65308529169928 150.62794177816937 62.82125374929385 Q 148.64984127329518 60.98942220688841 147.48802029575933 58.379929566649544 L 147.48802029575933 58.379929566649544 Q 146.34605950587365 55.81504363820962 146.308350964254 53.11929393302111 Q 146.27064242263435 50.42354422783261 147.19367203130068 47.994883820540096 Q 148.11670163996698 45.56622341324758 149.94356813545988 43.576971230423645 Q 151.77043463095276 41.58771904759972 154.37992727119163 40.42589807006386 L 154.37992727119163 40.42589807006386 Q 156.38722930214462 39.53218962580551 158.4780303881421 39.33622926629607 Q 160.56883147413956 39.140268906786645 162.56706922582103 39.546735287805 Q 164.5653069775025 39.95320166882335 166.37924609260682 40.93612668209606 Q 168.19318520771114 41.91905169536878 169.6467632968778 43.38311399667472 L 169.6467632968778 43.38311399667472 L 173.6167606469848 41.6155572958082 Q 171.77102256214093 39.39073772567073 169.31470019996658 37.865360086890604 Q 166.85837783779223 36.339982448110476 164.09150233963362 35.64770945525663 Q 161.324626841475 34.95543646240279 158.40217882491777 35.17425115070943 Q 155.47973080836056 35.393065839016074 152.69181132092586 36.634327567152674 Z" fill-opacity="1"/></g></g><g><g><path fill="rgb(244,244,245)" stroke="none" paint-order="stroke fill markers" d=" M 203.60779040153992 19.99929838775202 L 203.60779040153992 19.99929838775202 L 204.54684466914944 24.417201369581953 Q 208.30750826805797 24.965659953083726 211.34811500411362 27.351936732164653 Q 214.38872174016927 29.738213511245576 215.768934173217 33.413398763614936 L 215.768934173217 33.413398763614936 L 188.37793568587142 39.2355352227939 Q 188.14398997243362 35.31670345774748 189.93919595973236 31.902542953310203 Q 191.7344019470311 28.48838244887292 194.9707414490748 26.452664944238247 L 194.9707414490748 26.452664944238247 L 194.03168718146532 22.03476196240831 Q 191.33352735990596 23.431936613832793 189.23855014888593 25.611922125547142 Q 187.14357293786588 27.791907637261495 185.85176449215876 30.462600768032214 Q 184.55995604645165 33.133293898802926 184.16533930427963 36.14991202026677 Q 183.7707225621076 39.16653014173062 184.43059853394132 42.27100250734084 L 184.43059853394132 42.27100250734084 Q 185.09555047478912 45.39935542960961 186.68555791978298 48.00660840123197 Q 188.27556536477687 50.61386137285434 190.54195986119223 52.528235120523334 Q 192.80835435760758 54.44260886819234 195.60635327708124 55.5700804536858 Q 198.40435219655487 56.69755203917926 201.43752597304518 56.87649412721843 L 201.43752597304518 56.87649412721843 L 200.49339573642158 52.434710588729956 Q 196.71392754986857 51.91520853090083 193.68526109214218 49.52639376731285 Q 190.65659463441582 47.13757900372487 189.27638220136808 43.46239375135551 L 189.27638220136808 43.46239375135551 L 216.66738068871368 37.64025729217654 Q 216.90132640215148 41.55908905722296 215.09418013652345 44.9757875461673 Q 213.28703387089544 48.39248603511164 210.0745749255103 50.423127570732206 L 210.0745749255103 50.423127570732206 L 211.01362919311978 54.84103055256214 Q 213.71178901467914 53.44385590113765 215.78542365354767 51.28088663676668 Q 217.85905829241622 49.1179173723957 219.16280701645263 46.44468625711794 Q 220.466555740489 43.771455141840164 220.88251505481253 40.737820773032944 Q 221.29847436913604 37.70418640422572 220.63352242828822 34.575833481956955 L 220.63352242828822 34.575833481956955 Q 219.9736464564545 31.471361116346735 218.36229643930915 28.881124392067747 Q 216.7509464221638 26.29088766778876 214.47261164741917 24.379051904626813 Q 212.19427687267452 22.46721614146486 209.41762052535236 21.322728308628022 Q 206.6409641780302 20.178240475791192 203.60779040153992 19.99929838775202 Z" fill-opacity="1"/></g></g></g></g></svg>