<svg version="1.1" xmlns="http://www.w3.org/2000/svg" xmlns:xlink="http://www.w3.org/1999/xlink" width="200" height="200" viewBox="0 0 200 200"><defs/><g><rect fill="rgb(9,9,11)" stroke="none" x="0" y="0" width="200" height="200" transform="matrix(1 0 0 1 0 0)" fill-opacity="1"/><g><path fill="rgb(245,158,11)" stroke="none" paint-order="stroke fill markers" d=" M 92.34619140625 26.220703125 L 104.87060546875 26.220703125 Q 124.86572265625 26.220703125 148.66943359375 44.091796875 L 148.66943359375 44.091796875 Q 175.03662109375 69.140625 175.03662109375 101.2939453125 L 175.03662109375 101.2939453125 Q 175.03662109375 138.7939453125 141.93115234375 163.916015625 L 141.93115234375 163.916015625 Q 122.15576171875 176.8798828125 99.52392578125 176.8798828125 L 99.52392578125 176.8798828125 Q 58.43505859375 176.8798828125 34.19189453125 139.306640625 L 34.19189453125 139.306640625 Q 23.93798828125 121.142578125 23.93798828125 101.2939453125 L 23.93798828125 101.2939453125 Q 23.93798828125 64.8193359375 55.65185546875 40.0634765625 L 55.65185546875 40.0634765625 Q 73.01025390625 28.125 92.34619140625 26.220703125 L 92.34619140625 26.220703125 Z M 57.92236328125 79.833984375 L 57.92236328125 79.833984375 L 57.92236328125 128.173828125 Q 58.50830078125 132.6416015625 62.39013671875 132.6416015625 L 62.39013671875 132.6416015625 L 136.58447265625 132.6416015625 Q 141.05224609375 131.982421875 141.05224609375 128.173828125 L 141.05224609375 128.173828125 L 141.05224609375 80.3466796875 Q 141.05224609375 77.63671875 138.41552734375 75.8056640625 L 138.41552734375 75.8056640625 L 60.55908203125 75.8056640625 Q 57.92236328125 77.4169921875 57.92236328125 79.833984375 Z M 62.82958984375 80.3466796875 L 62.82958984375 80.3466796875 L 63.26904296875 80.3466796875 Q 67.51708984375 83.203125 90.07568359375 102.24609375 L 90.07568359375 102.24609375 Q 94.76318359375 106.34765625 99.52392578125 109.7900390625 L 99.52392578125 109.7900390625 Q 118.56689453125 94.3359375 133.87451171875 81.2255859375 L 133.87451171875 81.2255859375 L 134.38720703125 82.1044921875 Q 125.96435546875 89.4287109375 114.68505859375 101.2939453125 L 114.68505859375 101.2939453125 L 136.58447265625 127.2216796875 L 136.58447265625 128.173828125 L 111.53564453125 103.564453125 L 111.09619140625 103.564453125 Q 111.09619140625 104.8095703125 99.52392578125 115.6494140625 L 99.52392578125 115.6494140625 L 86.99951171875 104.00390625 Q 74.69482421875 116.89453125 61.95068359375 128.61328125 L 61.95068359375 128.61328125 L 61.95068359375 127.734375 L 84.28955078125 101.2939453125 Q 80.77392578125 97.1923828125 62.82958984375 80.3466796875 Z" fill-opacity="1"/></g></g></svg>