<svg version="1.1" xmlns="http://www.w3.org/2000/svg" xmlns:xlink="http://www.w3.org/1999/xlink" width="200" height="200" viewBox="0 0 200 200"><defs/><g><g><path fill="rgb(245,158,11)" stroke="none" paint-order="stroke fill markers" d=" M 91.30517578125 4.212890625 L 107.16943359375 4.212890625 Q 132.49658203125 4.212890625 162.64794921875 26.849609375 L 162.64794921875 26.849609375 Q 196.04638671875 58.578125 196.04638671875 99.3056640625 L 196.04638671875 99.3056640625 Q 196.04638671875 146.8056640625 154.11279296875 178.626953125 L 154.11279296875 178.626953125 Q 129.06396484375 195.0478515625 100.39697265625 195.0478515625 L 100.39697265625 195.0478515625 Q 48.35107421875 195.0478515625 17.64306640625 147.455078125 L 17.64306640625 147.455078125 Q 4.65478515625 124.447265625 4.65478515625 99.3056640625 L 4.65478515625 99.3056640625 Q 4.65478515625 53.1044921875 44.82568359375 21.7470703125 L 44.82568359375 21.7470703125 Q 66.81298828125 6.625 91.30517578125 4.212890625 L 91.30517578125 4.212890625 Z M 47.70166015625 72.123046875 L 47.70166015625 72.123046875 L 47.70166015625 133.353515625 Q 48.44384765625 139.0126953125 53.36083984375 139.0126953125 L 53.36083984375 139.0126953125 L 147.34033203125 139.0126953125 Q 152.99951171875 138.177734375 152.99951171875 133.353515625 L 152.99951171875 133.353515625 L 152.99951171875 72.7724609375 Q 152.99951171875 69.33984375 149.65966796875 67.0205078125 L 149.65966796875 67.0205078125 L 51.04150390625 67.0205078125 Q 47.70166015625 69.0615234375 47.70166015625 72.123046875 Z M 53.91748046875 72.7724609375 L 53.91748046875 72.7724609375 L 54.47412109375 72.7724609375 Q 59.85498046875 76.390625 88.42919921875 100.51171875 L 88.42919921875 100.51171875 Q 94.36669921875 105.70703125 100.39697265625 110.0673828125 L 100.39697265625 110.0673828125 Q 124.51806640625 90.4921875 143.90771484375 73.8857421875 L 143.90771484375 73.8857421875 L 144.55712890625 74.9990234375 Q 133.88818359375 84.2763671875 119.60107421875 99.3056640625 L 119.60107421875 99.3056640625 L 147.34033203125 132.1474609375 L 147.34033203125 133.353515625 L 115.61181640625 102.181640625 L 115.05517578125 102.181640625 Q 115.05517578125 103.7587890625 100.39697265625 117.4892578125 L 100.39697265625 117.4892578125 L 84.53271484375 102.73828125 Q 68.94677734375 119.06640625 52.80419921875 133.91015625 L 52.80419921875 133.91015625 L 52.80419921875 132.796875 L 81.10009765625 99.3056640625 Q 76.64697265625 94.1103515625 53.91748046875 72.7724609375 Z" fill-opacity="1"/></g></g></svg>