<svg version="1.1" xmlns="http://www.w3.org/2000/svg" xmlns:xlink="http://www.w3.org/1999/xlink" width="840" height="40" viewBox="0 0 840 40"><defs/><g><g><path fill="rgb(245,158,11)" stroke="none" paint-order="stroke fill markers" d=" M 18 6 L 13.4 6 L 13.4 21.84 L 7.92 6 L 2 6 L 2 35 L 6.6000000000000005 35 L 6.6000000000000005 18.04 L 13.08 35 L 18 35 Z M 37.400000000000006 30.12 L 27.8 30.12 L 27.8 22.68 L 36.6 22.68 L 36.6 18 L 27.8 18 L 27.8 10.879999999999999 L 37.400000000000006 10.879999999999999 L 37.400000000000006 6 L 22.68 6 L 22.68 35 L 37.400000000000006 35 Z M 53.32 20.240000000000002 L 58.84 6 L 53.28 6 L 50.2 15 L 46.96 6 L 41.16 6 L 46.72 20.4 L 41.16 35 L 46.96 35 L 49.96 25.72 L 52.96 35 L 58.84 35 Z M 78.92 6 L 61.08 6 L 61.08 10.879999999999999 L 67.44 10.879999999999999 L 67.44 35 L 72.56 35 L 72.56 10.879999999999999 L 78.92 10.879999999999999 Z M 98.2 6 L 90.08 6 L 90.08 10.599999999999998 L 92.96000000000001 10.599999999999998 L 92.96000000000001 25.2 C 92.96000000000001 28.96 90.96000000000001 30.12 88.96000000000001 30.12 L 82.52 30.12 L 82.52 35 L 89.64 35 C 95.36 35 98.2 31.24 98.2 24.96 Z M 110.08 5.599999999999998 C 104.96 5.599999999999998 101.76 8.399999999999999 101.76 13.48 C 101.76 16.4 102.8 18.4 104.44 19.88 C 106.16 21.439999999999998 108.64 22.48 110.4 23.6 C 112.6 25 113.16 26.16 113.16 27.6 C 113.16 29.32 112.36 31 110.16 31 C 108.12 31 106.68 29.6 106.44 27.439999999999998 L 101.68 27.439999999999998 C 102.04 32.68 104.8 35.4 109.8 35.4 C 115.44 35.4 118.36 31.96 118.36 27 C 118.36 24.32 117.52 22.36 115.32 20.48 C 113.24 18.68 110.56 17.56 108.76 16.32 C 107.6 15.52 106.88 14.84 106.88 13.2 C 106.88 11.719999999999999 107.44 10 109.92 10 C 111.92 10 113.08 11.120000000000001 113.08 13.239999999999998 L 117.76 13.239999999999998 C 117.72 8.599999999999998 115.32 5.599999999999998 110.08 5.599999999999998 Z M 136.16 18.16 L 123.8 18.16 L 123.8 22.439999999999998 L 136.16 22.439999999999998 Z M 142 6 L 142 35 L 147.2 35 L 147.2 23.36 L 153.24 35 L 159.2 35 L 153.12 23.4 C 156.56 22.48 158.6 19.36 158.6 14.84 C 158.6 9.120000000000001 155.36 6 150.04 6 Z M 147.2 10.879999999999999 L 149 10.879999999999999 C 151.84 10.879999999999999 153.32 11.879999999999999 153.32 15.32 C 153.32 18.64 151.92 20.240000000000002 149.6 20.240000000000002 L 147.2 20.240000000000002 Z M 177.4 30.12 L 167.8 30.12 L 167.8 22.68 L 176.6 22.68 L 176.6 18 L 167.8 18 L 167.8 10.879999999999999 L 177.4 10.879999999999999 L 177.4 6 L 162.68 6 L 162.68 35 L 177.4 35 Z M 193.84 35 L 199.28 35 L 192.56 6 L 187.4 6 L 180.72 35 L 185.84 35 L 186.72 30.64 L 192.92 30.64 Z M 189.88 15.559999999999999 L 191.96 25.799999999999997 L 187.72 25.799999999999997 Z M 210.08 5.599999999999998 C 204.2 5.599999999999998 201.6 9.32 201.6 14.879999999999999 L 201.6 26.119999999999997 C 201.6 31.68 204.2 35.4 210.08 35.4 C 214.96 35.4 217.72 32.84 218.16 27.72 L 213.28 27.72 C 213.28 29.52 212.24 31 210.08 31 C 208.04 31 206.72 29.72 206.72 26.119999999999997 L 206.72 14.879999999999999 C 206.72 11.280000000000001 208.04 10 210.08 10 C 212.24 10 213.28 11.48 213.28 13.280000000000001 L 218.16 13.280000000000001 C 217.72 8.16 214.96 5.599999999999998 210.08 5.599999999999998 Z M 238.92000000000002 6 L 221.08 6 L 221.08 10.879999999999999 L 227.44 10.879999999999999 L 227.44 35 L 232.56 35 L 232.56 10.879999999999999 L 238.92000000000002 10.879999999999999 Z M 256.16 18.16 L 243.8 18.16 L 243.8 22.439999999999998 L 256.16 22.439999999999998 Z M 278.92 6 L 261.08 6 L 261.08 10.879999999999999 L 267.44 10.879999999999999 L 267.44 35 L 272.56 35 L 272.56 10.879999999999999 L 278.92 10.879999999999999 Z M 293.84 35 L 299.28 35 L 292.56 6 L 287.4 6 L 280.72 35 L 285.84 35 L 286.72 30.64 L 292.92 30.64 Z M 289.88 15.559999999999999 L 291.96 25.799999999999997 L 287.72 25.799999999999997 Z M 303.2 10.879999999999999 L 307.44 10.879999999999999 L 307.44 30.12 L 303.2 30.12 L 303.2 35 L 316.8 35 L 316.8 30.12 L 312.56 30.12 L 312.56 10.879999999999999 L 316.8 10.879999999999999 L 316.8 6 L 303.2 6 Z M 338.04 30.12 L 327.12 30.12 L 327.12 6 L 322 6 L 322 35 L 338.04 35 Z M 354.6 6 L 353.04 21.92 L 350.04 10.64 L 347 21.92 L 345.48 6 L 340.28 6 L 343.4 35 L 347.36 35 L 350.04 23.08 L 352.64 35 L 356.48 35 L 359.76 6 Z M 363.2 10.879999999999999 L 367.44 10.879999999999999 L 367.44 30.12 L 363.2 30.12 L 363.2 35 L 376.8 35 L 376.8 30.12 L 372.56 30.12 L 372.56 10.879999999999999 L 376.8 10.879999999999999 L 376.8 6 L 363.2 6 Z M 398 6 L 393.4 6 L 393.4 21.84 L 387.92 6 L 382 6 L 382 35 L 386.6 35 L 386.6 18.04 L 393.08 35 L 398 35 Z M 418.24 14.879999999999999 C 418.24 8.96 415.6 6 410.32 6 L 402 6 L 402 35 L 410.32 35 C 415.6 35 418.24 32.08 418.24 26.28 Z M 413.12 26 C 413.12 28.64 412.08 30.12 410 30.12 L 407.12 30.12 L 407.12 10.879999999999999 L 410 10.879999999999999 C 412.08 10.879999999999999 413.12 12.48 413.12 15.36 Z M 430.08 5.599999999999998 C 424.2 5.599999999999998 421.6 9.32 421.6 14.879999999999999 L 421.6 26.119999999999997 C 421.6 31.68 424.2 35.4 430.08 35.4 C 434.96 35.4 437.72 32.84 438.16 27.72 L 433.28 27.72 C 433.28 29.52 432.24 31 430.08 31 C 428.04 31 426.72 29.72 426.72 26.119999999999997 L 426.72 14.879999999999999 C 426.72 11.280000000000001 428.04 10 430.08 10 C 432.24 10 433.28 11.48 433.28 13.280000000000001 L 438.16 13.280000000000001 C 437.72 8.16 434.96 5.599999999999998 430.08 5.599999999999998 Z M 450.08 5.599999999999998 C 444.96 5.599999999999998 441.76 8.399999999999999 441.76 13.48 C 441.76 16.4 442.8 18.4 444.44 19.88 C 446.16 21.439999999999998 448.64 22.48 450.4 23.6 C 452.6 25 453.16 26.16 453.16 27.6 C 453.16 29.32 452.36 31 450.16 31 C 448.12 31 446.68 29.6 446.44 27.439999999999998 L 441.68 27.439999999999998 C 442.04 32.68 444.8 35.4 449.8 35.4 C 455.44 35.4 458.36 31.96 458.36 27 C 458.36 24.32 457.52 22.36 455.32 20.48 C 453.24 18.68 450.56 17.56 448.76 16.32 C 447.6 15.52 446.88 14.84 446.88 13.2 C 446.88 11.719999999999999 447.44 10 449.92 10 C 451.92 10 453.08 11.120000000000001 453.08 13.239999999999998 L 457.76 13.239999999999998 C 457.72 8.599999999999998 455.32 5.599999999999998 450.08 5.599999999999998 Z M 470.08 5.599999999999998 C 464.96 5.599999999999998 461.76 8.399999999999999 461.76 13.48 C 461.76 16.4 462.8 18.4 464.44 19.88 C 466.16 21.439999999999998 468.64 22.48 470.4 23.6 C 472.6 25 473.16 26.16 473.16 27.6 C 473.16 29.32 472.36 31 470.16 31 C 468.12 31 466.68 29.6 466.44 27.439999999999998 L 461.68 27.439999999999998 C 462.04 32.68 464.8 35.4 469.8 35.4 C 475.44 35.4 478.36 31.96 478.36 27 C 478.36 24.32 477.52 22.36 475.32 20.48 C 473.24 18.68 470.56 17.56 468.76 16.32 C 467.6 15.52 466.88 14.84 466.88 13.2 C 466.88 11.719999999999999 467.44 10 469.92 10 C 471.92 10 473.08 11.120000000000001 473.08 13.239999999999998 L 477.76 13.239999999999998 C 477.72 8.599999999999998 475.32 5.599999999999998 470.08 5.599999999999998 Z M 496.16 18.16 L 483.8 18.16 L 483.8 22.439999999999998 L 496.16 22.439999999999998 Z M 518.16 6 L 502 6 L 502 35 L 507.12 35 L 507.12 22.759999999999998 L 517.24 22.759999999999998 L 517.24 18.08 L 507.12 18.08 L 507.12 10.879999999999999 L 518.16 10.879999999999999 Z M 522 6 L 522 35 L 527.2 35 L 527.2 23.36 L 533.24 35 L 539.2 35 L 533.12 23.4 C 536.56 22.48 538.6 19.36 538.6 14.84 C 538.6 9.120000000000001 535.36 6 530.04 6 Z M 527.2 10.879999999999999 L 529 10.879999999999999 C 531.84 10.879999999999999 533.32 11.879999999999999 533.32 15.32 C 533.32 18.64 531.92 20.240000000000002 529.6 20.240000000000002 L 527.2 20.240000000000002 Z M 553.84 35 L 559.28 35 L 552.56 6 L 547.4 6 L 540.72 35 L 545.84 35 L 546.72 30.64 L 552.92 30.64 Z M 549.88 15.559999999999999 L 551.96 25.799999999999997 L 547.72 25.799999999999997 Z M 578.56 6 L 573.68 6 L 570.04 17.16 L 566.68 6 L 561.44 6 L 561.44 35 L 565.76 35 L 565.76 17.2 L 570.04 29.92 L 574.32 17.2 L 574.32 35 L 578.56 35 Z M 597.4 30.12 L 587.8 30.12 L 587.8 22.68 L 596.6 22.68 L 596.6 18 L 587.8 18 L 587.8 10.879999999999999 L 597.4 10.879999999999999 L 597.4 6 L 582.68 6 L 582.68 35 L 597.4 35 Z M 602 6 L 602 35 L 607.2 35 L 607.2 23.36 L 613.24 35 L 619.2 35 L 613.12 23.4 C 616.56 22.48 618.6 19.36 618.6 14.84 C 618.6 9.120000000000001 615.36 6 610.04 6 Z M 607.2 10.879999999999999 L 609 10.879999999999999 C 611.84 10.879999999999999 613.32 11.879999999999999 613.32 15.32 C 613.32 18.64 611.92 20.240000000000002 609.6 20.240000000000002 L 607.2 20.240000000000002 Z M 638.56 6 L 633.68 6 L 630.04 17.16 L 626.68 6 L 621.44 6 L 621.44 35 L 625.76 35 L 625.76 17.2 L 630.04 29.92 L 634.32 17.2 L 634.32 35 L 638.56 35 Z M 650 31 C 648.04 31 646.72 29.68 646.72 26.119999999999997 L 646.72 14.879999999999999 C 646.72 11.32 648.04 10 650 10 C 651.96 10 653.28 11.32 653.28 14.879999999999999 L 653.28 26.119999999999997 C 653.28 29.68 651.96 31 650 31 Z M 650 35.4 C 655.56 35.4 658.4 31.759999999999998 658.4 26.119999999999997 L 658.4 14.879999999999999 C 658.4 9.239999999999998 655.56 5.599999999999998 650 5.599999999999998 C 644.44 5.599999999999998 641.6 9.239999999999998 641.6 14.879999999999999 L 641.6 26.119999999999997 C 641.6 31.759999999999998 644.44 35.4 650 35.4 Z M 678.92 6 L 661.08 6 L 661.08 10.879999999999999 L 667.44 10.879999999999999 L 667.44 35 L 672.56 35 L 672.56 10.879999999999999 L 678.92 10.879999999999999 Z M 683.2 10.879999999999999 L 687.44 10.879999999999999 L 687.44 30.12 L 683.2 30.12 L 683.2 35 L 696.8 35 L 696.8 30.12 L 692.56 30.12 L 692.56 10.879999999999999 L 696.8 10.879999999999999 L 696.8 6 L 683.2 6 Z M 710 31 C 708.04 31 706.72 29.68 706.72 26.119999999999997 L 706.72 14.879999999999999 C 706.72 11.32 708.04 10 710 10 C 711.96 10 713.28 11.32 713.28 14.879999999999999 L 713.28 26.119999999999997 C 713.28 29.68 711.96 31 710 31 Z M 710 35.4 C 715.56 35.4 718.4 31.759999999999998 718.4 26.119999999999997 L 718.4 14.879999999999999 C 718.4 9.239999999999998 715.56 5.599999999999998 710 5.599999999999998 C 704.44 5.599999999999998 701.6 9.239999999999998 701.6 14.879999999999999 L 701.6 26.119999999999997 C 701.6 31.759999999999998 704.44 35.4 710 35.4 Z M 738 6 L 733.4 6 L 733.4 21.84 L 727.92 6 L 722 6 L 722 35 L 726.6 35 L 726.6 18.04 L 733.08 35 L 738 35 Z M 756.16 18.16 L 743.8 18.16 L 743.8 22.439999999999998 L 756.16 22.439999999999998 Z M 762 6 L 762 35 L 767.2 35 L 767.2 23.36 L 773.24 35 L 779.2 35 L 773.12 23.4 C 776.56 22.48 778.6 19.36 778.6 14.84 C 778.6 9.120000000000001 775.36 6 770.04 6 Z M 767.2 10.879999999999999 L 769 10.879999999999999 C 771.84 10.879999999999999 773.32 11.879999999999999 773.32 15.32 C 773.32 18.64 771.92 20.240000000000002 769.6 20.240000000000002 L 767.2 20.240000000000002 Z M 798.16 6 L 782 6 L 782 35 L 787.12 35 L 787.12 22.759999999999998 L 797.24 22.759999999999998 L 797.24 18.08 L 787.12 18.08 L 787.12 10.879999999999999 L 798.16 10.879999999999999 Z M 818.52 26.32 C 818.52 22.96 817.32 20.92 815 19.84 C 817.04 18.52 818.08 16.4 818.08 13.8 C 818.08 9.52 815.32 5.599999999999998 809.76 5.599999999999998 C 805.12 5.599999999999998 801.96 8.32 801.64 13.280000000000001 L 806.56 13.280000000000001 C 806.56 11.399999999999999 807.32 10 809.76 10 C 811.96 10 813.28 11.16 813.28 14.120000000000001 C 813.28 16.919999999999998 812.12 18.16 809.64 18.16 L 809 18.16 L 809 21.88 L 809.76 21.88 C 812.08 21.88 813.44 23.240000000000002 813.44 26.36 C 813.44 29.36 812.16 31 809.8 31 C 807.6 31 806.52 29.56 806.52 27.72 L 801.64 27.72 C 802.04 32.96 805.2 35.4 809.76 35.4 C 815.28 35.4 818.52 31.88 818.52 26.32 Z M 836.16 18.16 L 823.8 18.16 L 823.8 22.439999999999998 L 836.16 22.439999999999998 Z" fill-opacity="1"/></g></g></svg>