<svg version="1.1" xmlns="http://www.w3.org/2000/svg" xmlns:xlink="http://www.w3.org/1999/xlink" width="317" height="40" viewBox="0 0 317 40"><defs/><g><g><path fill="rgb(245,158,11)" stroke="none" paint-order="stroke fill markers" d=" M 19.32 14.879999999999999 C 19.32 9 15.96 5.599999999999998 10.040000000000001 5.599999999999998 C 3.88 5.599999999999998 0.68 9.239999999999998 0.68 14.879999999999999 L 0.68 26.16 C 0.68 31.759999999999998 3.88 35.4 10.040000000000001 35.4 C 15.96 35.4 19.32 32 19.32 26.16 Z M 16.92 26.16 C 16.92 30.48 14.44 32.96 10.040000000000001 32.96 C 5.44 32.96 3.12 30.32 3.12 26.16 L 3.12 14.879999999999999 C 3.12 10.68 5.44 8.04 10.040000000000001 8.04 C 14.44 8.04 16.92 10.52 16.92 14.879999999999999 Z M 8.48 17.36 C 8.48 16.04 9.08 15.399999999999999 10.08 15.399999999999999 C 10.8 15.399999999999999 11.48 15.84 11.52 16.88 L 14.040000000000001 16.88 C 13.76 14.280000000000001 12.44 13.04 10.08 13.04 C 7.44 13.04 6.04 14.399999999999999 6.04 17.28 L 6.04 23.68 C 6.04 26.560000000000002 7.44 27.92 10.08 27.92 C 12.44 27.92 13.76 26.68 14.040000000000001 24.08 L 11.52 24.08 C 11.48 25.119999999999997 10.8 25.560000000000002 10.08 25.560000000000002 C 9.08 25.560000000000002 8.48 24.92 8.48 23.6 Z M 57.400000000000006 30.12 L 47.8 30.12 L 47.8 22.68 L 56.6 22.68 L 56.6 18 L 47.8 18 L 47.8 10.879999999999999 L 57.400000000000006 10.879999999999999 L 57.400000000000006 6 L 42.68 6 L 42.68 35 L 57.400000000000006 35 Z M 62 6 L 62 35 L 67.2 35 L 67.2 23.36 L 73.24 35 L 79.2 35 L 73.12 23.4 C 76.56 22.48 78.6 19.36 78.6 14.84 C 78.6 9.120000000000001 75.36 6 70.04 6 Z M 67.2 10.879999999999999 L 69 10.879999999999999 C 71.84 10.879999999999999 73.32 11.879999999999999 73.32 15.32 C 73.32 18.64 71.92 20.240000000000002 69.6 20.240000000000002 L 67.2 20.240000000000002 Z M 83.2 10.879999999999999 L 87.44 10.879999999999999 L 87.44 30.12 L 83.2 30.12 L 83.2 35 L 96.8 35 L 96.8 30.12 L 92.56 30.12 L 92.56 10.879999999999999 L 96.8 10.879999999999999 L 96.8 6 L 83.2 6 Z M 110.08 5.599999999999998 C 104.2 5.599999999999998 101.6 9.32 101.6 14.879999999999999 L 101.6 26.119999999999997 C 101.6 31.68 104.2 35.4 110.08 35.4 C 114.96000000000001 35.4 117.72 32.84 118.16 27.72 L 113.28 27.72 C 113.28 29.52 112.24 31 110.08 31 C 108.04 31 106.72 29.72 106.72 26.119999999999997 L 106.72 14.879999999999999 C 106.72 11.280000000000001 108.04 10 110.08 10 C 112.24 10 113.28 11.48 113.28 13.280000000000001 L 118.16 13.280000000000001 C 117.72 8.16 114.96000000000001 5.599999999999998 110.08 5.599999999999998 Z M 158.04 30.12 L 147.12 30.12 L 147.12 6 L 142 6 L 142 35 L 158.04 35 Z M 172.96 32.28 C 172.96 30.56 172 29.08 170.04 29.08 C 168.08 29.08 167.04 30.56 167.04 32.28 C 167.04 34 168.08 35.4 170.04 35.4 C 172 35.4 172.96 34 172.96 32.28 Z M 193.84 35 L 199.28 35 L 192.56 6 L 187.4 6 L 180.72 35 L 185.84 35 L 186.72 30.64 L 192.92 30.64 Z M 189.88 15.559999999999999 L 191.96 25.799999999999997 L 187.72 25.799999999999997 Z M 229.64 5.599999999999998 C 225.28 5.599999999999998 221.96 7.960000000000001 221.76 13.96 L 226.44 13.96 C 226.52 10.919999999999998 227.56 9.96 229.56 9.96 C 232 9.96 232.88 11.36 232.88 13.599999999999998 C 232.88 15.16 232.44 16.599999999999998 231.68 18 L 222.4 35 L 237.64 35 L 237.64 30.12 L 230.4 30.12 L 236.08 19.96 C 237.16 18 237.76 15.879999999999999 237.76 13.719999999999999 C 237.76 8.96 234.88 5.599999999999998 229.64 5.599999999999998 Z M 250 9.64 C 252.16 9.64 252.76 10.280000000000001 252.76 12.8 L 252.76 28.2 C 252.76 30.72 252.16 31.36 250 31.36 C 247.84 31.36 247.24 30.72 247.24 28.2 L 247.24 12.8 C 247.24 10.280000000000001 247.84 9.64 250 9.64 Z M 250 5.599999999999998 C 244.24 5.599999999999998 242.4 7.68 242.4 12.8 L 242.4 28.2 C 242.4 33.32 244.24 35.4 250 35.4 C 255.76 35.4 257.6 33.32 257.6 28.2 L 257.6 12.8 C 257.6 7.68 255.76 5.599999999999998 250 5.599999999999998 Z M 269.64 5.599999999999998 C 265.28 5.599999999999998 261.96 7.960000000000001 261.76 13.96 L 266.44 13.96 C 266.52 10.919999999999998 267.56 9.96 269.56 9.96 C 272 9.96 272.88 11.36 272.88 13.599999999999998 C 272.88 15.16 272.44 16.599999999999998 271.68 18 L 262.4 35 L 277.64 35 L 277.64 30.12 L 270.4 30.12 L 276.08 19.96 C 277.16 18 277.76 15.879999999999999 277.76 13.719999999999999 C 277.76 8.96 274.88 5.599999999999998 269.64 5.599999999999998 Z M 299.32 24.08 L 295.92 24.08 L 295.92 6 L 290.08 6 L 280.68 23.88 L 280.68 28.96 L 290.8 28.96 L 290.8 35 L 295.92 35 L 295.92 28.96 L 299.32 28.96 Z M 284.92 24.08 L 290.8 13.32 L 290.8 24.08 Z" fill-opacity="1"/></g></g></svg>