<svg version="1.1" xmlns="http://www.w3.org/2000/svg" xmlns:xlink="http://www.w3.org/1999/xlink" width="1233" height="75" viewBox="0 0 1233 75"><defs/><g><g><path fill="rgb(168,162,158)" stroke="none" paint-order="stroke fill markers" d=" M 327.291015625 2.236328125 L 333.1357421875 2.236328125 Q 342.466796875 2.236328125 353.5751953125 10.576171875 L 353.5751953125 10.576171875 Q 365.8798828125 22.265625 365.8798828125 37.2705078125 L 365.8798828125 37.2705078125 Q 365.8798828125 54.7705078125 350.4306640625 66.494140625 L 350.4306640625 66.494140625 Q 341.2021484375 72.5439453125 330.640625 72.5439453125 L 330.640625 72.5439453125 Q 311.4658203125 72.5439453125 300.15234375 55.009765625 L 300.15234375 55.009765625 Q 295.3671875 46.533203125 295.3671875 37.2705078125 L 295.3671875 37.2705078125 Q 295.3671875 20.2490234375 310.1669921875 8.6962890625 L 310.1669921875 8.6962890625 Q 318.267578125 3.125 327.291015625 2.236328125 L 327.291015625 2.236328125 Z M 311.2265625 27.255859375 L 311.2265625 27.255859375 L 311.2265625 49.814453125 Q 311.5 51.8994140625 313.3115234375 51.8994140625 L 313.3115234375 51.8994140625 L 347.935546875 51.8994140625 Q 350.0205078125 51.591796875 350.0205078125 49.814453125 L 350.0205078125 49.814453125 L 350.0205078125 27.4951171875 Q 350.0205078125 26.23046875 348.7900390625 25.3759765625 L 348.7900390625 25.3759765625 L 312.45703125 25.3759765625 Q 311.2265625 26.1279296875 311.2265625 27.255859375 Z M 313.5166015625 27.4951171875 L 313.5166015625 27.4951171875 L 313.7216796875 27.4951171875 Q 315.7041015625 28.828125 326.2314453125 37.71484375 L 326.2314453125 37.71484375 Q 328.4189453125 39.62890625 330.640625 41.2353515625 L 330.640625 41.2353515625 Q 339.52734375 34.0234375 346.6708984375 27.9052734375 L 346.6708984375 27.9052734375 L 346.91015625 28.3154296875 Q 342.9794921875 31.7333984375 337.7158203125 37.2705078125 L 337.7158203125 37.2705078125 L 347.935546875 49.3701171875 L 347.935546875 49.814453125 L 336.24609375 38.330078125 L 336.041015625 38.330078125 Q 336.041015625 38.9111328125 330.640625 43.9697265625 L 330.640625 43.9697265625 L 324.7958984375 38.53515625 Q 319.0537109375 44.55078125 313.1064453125 50.01953125 L 313.1064453125 50.01953125 L 313.1064453125 49.609375 L 323.53125 37.2705078125 Q 321.890625 35.3564453125 313.5166015625 27.4951171875 Z" fill-opacity="1"/></g><g><path fill="rgb(168,162,158)" stroke="none" paint-order="stroke fill markers" d=" M 910.3671875 2.236328125 L 910.3671875 2.236328125 L 911.8369140625 2.236328125 Q 922.2275390625 2.236328125 932.65234375 9.9267578125 L 932.65234375 9.9267578125 Q 945.982421875 21.376953125 945.982421875 37.44140625 L 945.982421875 37.44140625 Q 945.982421875 54.12109375 932.037109375 65.5712890625 L 932.037109375 65.5712890625 Q 921.6806640625 72.646484375 913.4775390625 72.646484375 L 913.4775390625 72.646484375 L 907.8720703125 72.646484375 Q 899.9423828125 72.646484375 889.517578125 65.7763671875 L 889.517578125 65.7763671875 Q 881.51953125 58.8037109375 879.947265625 54.736328125 L 879.947265625 54.736328125 Q 875.3671875 46.1572265625 875.3671875 38.26171875 L 875.3671875 38.26171875 L 875.3671875 36.1767578125 Q 875.3671875 30.0244140625 879.33203125 21.2060546875 L 879.33203125 21.2060546875 Q 886.2705078125 8.8330078125 899.7373046875 3.9111328125 L 899.7373046875 3.9111328125 Q 905.7529296875 2.236328125 910.3671875 2.236328125 Z M 893.072265625 37.44140625 L 893.072265625 37.44140625 Q 893.072265625 48.10546875 903.9072265625 53.6767578125 L 903.9072265625 53.6767578125 Q 905.513671875 54.3603515625 908.8974609375 54.94140625 L 908.8974609375 54.94140625 L 912.0419921875 54.94140625 Q 918.43359375 54.94140625 924.517578125 48.2763671875 L 924.517578125 48.2763671875 Q 928.27734375 42.63671875 928.27734375 38.466796875 L 928.27734375 38.466796875 L 928.072265625 38.056640625 L 928.27734375 37.646484375 L 928.072265625 37.236328125 Q 928.072265625 37.03125 928.27734375 37.03125 L 928.27734375 37.03125 Q 928.27734375 29.3408203125 920.9970703125 23.291015625 L 920.9970703125 23.291015625 Q 915.7333984375 19.94140625 911.59765625 19.94140625 L 911.59765625 19.94140625 L 909.751953125 19.94140625 Q 902.1640625 19.94140625 895.9775390625 27.87109375 L 895.9775390625 27.87109375 Q 893.072265625 32.9296875 893.072265625 37.44140625 Z M 907.8720703125 21.6162109375 L 907.8720703125 21.6162109375 L 908.0771484375 22.0263671875 Q 906.9150390625 22.470703125 902.84765625 28.28125 L 902.84765625 28.28125 L 902.642578125 28.28125 Q 899.498046875 27.392578125 899.1220703125 26.6064453125 L 899.1220703125 26.6064453125 L 899.1220703125 26.1962890625 Q 904.3857421875 21.6162109375 907.8720703125 21.6162109375 Z M 913.4775390625 21.6162109375 L 913.4775390625 21.6162109375 Q 916.8955078125 21.8212890625 921.4072265625 25.341796875 L 921.4072265625 25.341796875 L 922.4326171875 26.6064453125 Q 919.9033203125 28.28125 918.2626953125 28.28125 L 918.2626953125 28.28125 Q 916.6220703125 25.1708984375 913.2724609375 21.8212890625 L 913.2724609375 21.8212890625 Q 913.4775390625 21.8212890625 913.4775390625 21.6162109375 Z M 909.751953125 22.2314453125 L 909.751953125 22.2314453125 L 909.95703125 22.6416015625 L 909.95703125 28.896484375 Q 909.95703125 29.2041015625 909.3076171875 29.51171875 L 909.3076171875 29.51171875 L 908.6923828125 29.51171875 Q 904.7275390625 29.169921875 904.7275390625 28.69140625 L 904.7275390625 28.69140625 Q 904.7275390625 26.845703125 909.751953125 22.2314453125 Z M 911.59765625 22.2314453125 L 911.59765625 22.2314453125 Q 915.494140625 25.7177734375 916.8271484375 28.486328125 L 916.8271484375 28.486328125 Q 916.8271484375 29.2041015625 912.6572265625 29.51171875 L 912.6572265625 29.51171875 L 911.59765625 29.51171875 Q 911.1875 29.51171875 911.1875 29.1015625 L 911.1875 29.1015625 L 911.1875 22.6416015625 Q 911.255859375 22.2314453125 911.59765625 22.2314453125 Z M 897.857421875 27.87109375 L 897.857421875 27.87109375 L 898.267578125 27.87109375 Q 899.6005859375 28.7255859375 902.232421875 29.716796875 L 902.232421875 29.716796875 L 902.232421875 30.7763671875 Q 901.275390625 32.998046875 900.796875 37.03125 L 900.796875 37.03125 L 900.3525390625 37.236328125 L 895.1572265625 37.236328125 Q 894.64453125 37.236328125 894.5419921875 36.3818359375 L 894.5419921875 36.3818359375 Q 894.5419921875 32.109375 897.857421875 27.87109375 Z M 923.08203125 27.87109375 L 923.08203125 27.87109375 L 923.4921875 27.87109375 Q 926.8076171875 31.9384765625 926.8076171875 36.3818359375 L 926.8076171875 36.3818359375 L 926.8076171875 36.62109375 Q 926.8076171875 36.89453125 926.1923828125 37.236328125 L 926.1923828125 37.236328125 L 920.9970703125 37.236328125 Q 920.279296875 37.236328125 919.9375 32.65625 L 919.9375 32.65625 Q 919.1171875 31.083984375 919.1171875 29.716796875 L 919.1171875 29.716796875 Q 922.056640625 28.486328125 923.08203125 27.87109375 Z M 904.1123046875 30.1611328125 L 904.1123046875 30.1611328125 Q 909.5810546875 30.8447265625 909.95703125 31.1865234375 L 909.95703125 31.1865234375 L 909.95703125 36.62109375 Q 909.95703125 36.89453125 909.3076171875 37.236328125 L 909.3076171875 37.236328125 L 902.84765625 37.236328125 Q 902.7109375 37.236328125 902.232421875 36.62109375 L 902.232421875 36.62109375 Q 903.1552734375 30.1611328125 904.1123046875 30.1611328125 Z M 917.4423828125 30.1611328125 L 917.4423828125 30.1611328125 Q 919.1171875 33.6474609375 919.1171875 36.62109375 L 919.1171875 36.62109375 Q 919.1171875 36.89453125 918.501953125 37.236328125 L 918.501953125 37.236328125 L 911.8369140625 37.236328125 Q 911.529296875 37.236328125 911.1875 36.62109375 L 911.1875 36.62109375 L 911.1875 31.3916015625 Q 911.1875 30.7080078125 917.4423828125 30.1611328125 Z M 894.5419921875 38.9111328125 L 895.1572265625 38.466796875 L 900.5576171875 38.466796875 Q 900.865234375 38.466796875 902.02734375 44.1064453125 L 902.02734375 44.1064453125 Q 902.4375 44.1064453125 902.4375 45.576171875 L 902.4375 45.576171875 Q 899.6689453125 46.6015625 898.267578125 47.421875 L 898.267578125 47.421875 Q 896.8662109375 47.421875 894.9521484375 40.99609375 L 894.9521484375 40.99609375 Q 894.7470703125 40.6201171875 894.5419921875 38.9111328125 L 894.5419921875 38.9111328125 Z M 902.84765625 38.466796875 L 902.84765625 38.466796875 L 909.5126953125 38.466796875 Q 909.95703125 38.53515625 909.95703125 38.9111328125 L 909.95703125 38.9111328125 L 909.95703125 43.9013671875 Q 909.95703125 44.5849609375 903.9072265625 45.1318359375 L 903.9072265625 45.1318359375 Q 902.4375 41.953125 902.4375 38.9111328125 L 902.4375 38.9111328125 Q 902.505859375 38.466796875 902.84765625 38.466796875 Z M 911.59765625 38.466796875 L 911.59765625 38.466796875 L 918.70703125 38.466796875 Q 919.1171875 38.53515625 919.1171875 38.9111328125 L 919.1171875 38.9111328125 Q 918.365234375 44.3798828125 917.0322265625 45.1318359375 L 917.0322265625 45.1318359375 Q 911.666015625 44.482421875 911.1875 44.1064453125 L 911.1875 44.1064453125 L 911.1875 38.9111328125 Q 911.255859375 38.466796875 911.59765625 38.466796875 Z M 920.552734375 38.466796875 L 926.3974609375 38.466796875 Q 926.8076171875 38.53515625 926.8076171875 38.9111328125 L 926.8076171875 38.9111328125 Q 926.8076171875 43.45703125 923.08203125 47.421875 L 923.08203125 47.421875 Q 918.912109375 45.576171875 918.912109375 45.1318359375 L 918.912109375 45.1318359375 L 918.912109375 44.9267578125 Q 919.869140625 42.91015625 920.552734375 38.466796875 L 920.552734375 38.466796875 Z M 908.8974609375 45.78125 L 908.8974609375 45.78125 L 909.3076171875 45.78125 Q 909.615234375 45.78125 909.95703125 46.396484375 L 909.95703125 46.396484375 L 909.95703125 52.2412109375 L 909.751953125 52.6513671875 Q 905.2744140625 48.857421875 904.7275390625 46.6015625 L 904.7275390625 46.6015625 Q 905.0009765625 46.19140625 908.8974609375 45.78125 Z M 911.59765625 45.78125 L 911.59765625 45.78125 L 912.2470703125 45.78125 Q 916.6220703125 46.0546875 916.6220703125 46.806640625 L 916.6220703125 46.806640625 Q 915.220703125 49.7119140625 911.59765625 52.8564453125 L 911.59765625 52.8564453125 Q 911.1875 52.8564453125 911.1875 52.4462890625 L 911.1875 52.4462890625 L 911.1875 46.19140625 Q 911.255859375 45.78125 911.59765625 45.78125 Z M 918.501953125 46.806640625 L 918.501953125 46.806640625 Q 922.0224609375 48.1396484375 922.0224609375 48.6865234375 L 922.0224609375 48.6865234375 L 922.0224609375 48.8916015625 Q 919.3564453125 52.0703125 913.4775390625 53.4716796875 L 913.4775390625 53.4716796875 L 913.4775390625 53.0615234375 Q 915.357421875 51.2841796875 918.501953125 46.806640625 Z M 903.0869140625 47.01171875 L 903.0869140625 47.01171875 Q 905.03515625 50.0537109375 907.8720703125 53.0615234375 L 907.8720703125 53.0615234375 L 907.8720703125 53.4716796875 Q 901.958984375 52.0703125 899.1220703125 48.6865234375 L 899.1220703125 48.6865234375 Q 901.34375 47.01171875 903.0869140625 47.01171875 Z" fill-opacity="1"/></g><g><path fill="rgb(168,162,158)" stroke="none" paint-order="stroke fill markers" d=" M 19.32 32.879999999999995 C 19.32 27 15.96 23.599999999999998 10.040000000000001 23.599999999999998 C 3.88 23.599999999999998 0.68 27.24 0.68 32.879999999999995 L 0.68 44.16 C 0.68 49.76 3.88 53.4 10.040000000000001 53.4 C 15.96 53.4 19.32 50 19.32 44.16 Z M 16.92 44.16 C 16.92 48.48 14.44 50.96 10.040000000000001 50.96 C 5.44 50.96 3.12 48.32 3.12 44.16 L 3.12 32.879999999999995 C 3.12 28.68 5.44 26.04 10.040000000000001 26.04 C 14.44 26.04 16.92 28.52 16.92 32.879999999999995 Z M 8.48 35.36 C 8.48 34.04 9.08 33.4 10.08 33.4 C 10.8 33.4 11.48 33.84 11.52 34.879999999999995 L 14.040000000000001 34.879999999999995 C 13.76 32.28 12.44 31.04 10.08 31.04 C 7.44 31.04 6.04 32.4 6.04 35.28 L 6.04 41.68 C 6.04 44.56 7.44 45.92 10.08 45.92 C 12.44 45.92 13.76 44.68 14.040000000000001 42.08 L 11.52 42.08 C 11.48 43.12 10.8 43.56 10.08 43.56 C 9.08 43.56 8.48 42.92 8.48 41.6 Z M 37.400000000000006 48.12 L 27.8 48.12 L 27.8 40.68 L 36.6 40.68 L 36.6 36 L 27.8 36 L 27.8 28.88 L 37.400000000000006 28.88 L 37.400000000000006 24 L 22.68 24 L 22.68 53 L 37.400000000000006 53 Z M 42 24 L 42 53 L 47.2 53 L 47.2 41.36 L 53.24 53 L 59.2 53 L 53.120000000000005 41.4 C 56.56 40.480000000000004 58.6 37.36 58.6 32.84 C 58.6 27.12 55.36 24 50.04 24 Z M 47.2 28.88 L 49 28.88 C 51.84 28.88 53.32 29.88 53.32 33.32 C 53.32 36.64 51.92 38.24 49.6 38.24 L 47.2 38.24 Z M 63.2 28.88 L 67.44 28.88 L 67.44 48.12 L 63.2 48.12 L 63.2 53 L 76.8 53 L 76.8 48.12 L 72.56 48.12 L 72.56 28.88 L 76.8 28.88 L 76.8 24 L 63.2 24 Z M 90.08 23.599999999999998 C 84.2 23.599999999999998 81.6 27.32 81.6 32.879999999999995 L 81.6 44.12 C 81.6 49.68 84.2 53.4 90.08 53.4 C 94.96000000000001 53.4 97.72 50.84 98.16 45.72 L 93.28 45.72 C 93.28 47.519999999999996 92.24 49 90.08 49 C 88.04 49 86.72 47.72 86.72 44.12 L 86.72 32.879999999999995 C 86.72 29.28 88.04 28 90.08 28 C 92.24 28 93.28 29.48 93.28 31.28 L 98.16 31.28 C 97.72 26.16 94.96000000000001 23.599999999999998 90.08 23.599999999999998 Z M 112.96000000000001 50.28 C 112.96000000000001 48.56 112 47.08 110.04 47.08 C 108.08 47.08 107.04 48.56 107.04 50.28 C 107.04 52 108.08 53.4 110.04 53.4 C 112 53.4 112.96000000000001 52 112.96000000000001 50.28 Z M 138.04 48.12 L 127.12 48.12 L 127.12 24 L 122 24 L 122 53 L 138.04 53 Z M 152.96 50.28 C 152.96 48.56 152 47.08 150.04 47.08 C 148.08 47.08 147.04 48.56 147.04 50.28 C 147.04 52 148.08 53.4 150.04 53.4 C 152 53.4 152.96 52 152.96 50.28 Z M 173.84 53 L 179.28 53 L 172.56 24 L 167.4 24 L 160.72 53 L 165.84 53 L 166.72 48.64 L 172.92 48.64 Z M 169.88 33.56 L 171.96 43.8 L 167.72 43.8 Z M 192.96 50.28 C 192.96 48.56 192 47.08 190.04 47.08 C 188.08 47.08 187.04 48.56 187.04 50.28 C 187.04 52 188.08 53.4 190.04 53.4 C 192 53.4 192.96 52 192.96 50.28 Z M 209.64 23.599999999999998 C 205.28 23.599999999999998 201.96 25.96 201.76 31.96 L 206.44 31.96 C 206.52 28.919999999999998 207.56 27.96 209.56 27.96 C 212 27.96 212.88 29.36 212.88 31.599999999999998 C 212.88 33.16 212.44 34.599999999999994 211.68 36 L 202.4 53 L 217.64 53 L 217.64 48.12 L 210.4 48.12 L 216.08 37.96 C 217.16 36 217.76 33.879999999999995 217.76 31.72 C 217.76 26.96 214.88 23.599999999999998 209.64 23.599999999999998 Z M 230 27.64 C 232.16 27.64 232.76 28.28 232.76 30.8 L 232.76 46.2 C 232.76 48.72 232.16 49.36 230 49.36 C 227.84 49.36 227.24 48.72 227.24 46.2 L 227.24 30.8 C 227.24 28.28 227.84 27.64 230 27.64 Z M 230 23.599999999999998 C 224.24 23.599999999999998 222.4 25.68 222.4 30.8 L 222.4 46.2 C 222.4 51.32 224.24 53.4 230 53.4 C 235.76 53.4 237.6 51.32 237.6 46.2 L 237.6 30.8 C 237.6 25.68 235.76 23.599999999999998 230 23.599999999999998 Z M 249.64 23.599999999999998 C 245.28 23.599999999999998 241.96 25.96 241.76 31.96 L 246.44 31.96 C 246.52 28.919999999999998 247.56 27.96 249.56 27.96 C 252 27.96 252.88 29.36 252.88 31.599999999999998 C 252.88 33.16 252.44 34.599999999999994 251.68 36 L 242.4 53 L 257.64 53 L 257.64 48.12 L 250.4 48.12 L 256.08 37.96 C 257.16 36 257.76 33.879999999999995 257.76 31.72 C 257.76 26.96 254.88 23.599999999999998 249.64 23.599999999999998 Z M 279.32 42.08 L 275.92 42.08 L 275.92 24 L 270.08 24 L 260.68 41.879999999999995 L 260.68 46.96 L 270.8 46.96 L 270.8 53 L 275.92 53 L 275.92 46.96 L 279.32 46.96 Z M 264.92 42.08 L 270.8 31.32 L 270.8 42.08 Z M 397.4 48.12 L 387.8 48.12 L 387.8 40.68 L 396.6 40.68 L 396.6 36 L 387.8 36 L 387.8 28.88 L 397.4 28.88 L 397.4 24 L 382.68 24 L 382.68 53 L 397.4 53 Z M 418.04 48.12 L 407.12 48.12 L 407.12 24 L 402 24 L 402 53 L 418.04 53 Z M 433.84 53 L 439.28 53 L 432.56 24 L 427.4 24 L 420.72 53 L 425.84 53 L 426.72 48.64 L 432.92 48.64 Z M 429.88 33.56 L 431.96 43.8 L 427.72 43.8 Z M 452.96 50.28 C 452.96 48.56 452 47.08 450.04 47.08 C 448.08 47.08 447.04 48.56 447.04 50.28 C 447.04 52 448.08 53.4 450.04 53.4 C 452 53.4 452.96 52 452.96 50.28 Z M 478.24 32.879999999999995 C 478.24 26.96 475.6 24 470.32 24 L 462 24 L 462 53 L 470.32 53 C 475.6 53 478.24 50.08 478.24 44.28 Z M 473.12 44 C 473.12 46.64 472.08 48.12 470 48.12 L 467.12 48.12 L 467.12 28.88 L 470 28.88 C 472.08 28.88 473.12 30.48 473.12 33.36 Z M 497.4 48.12 L 487.8 48.12 L 487.8 40.68 L 496.6 40.68 L 496.6 36 L 487.8 36 L 487.8 28.88 L 497.4 28.88 L 497.4 24 L 482.68 24 L 482.68 53 L 497.4 53 Z M 510.12 43.44 L 506.16 24 L 500.72 24 L 507.44 53 L 512.6 53 L 519.28 24 L 514.16 24 Z M 532.96 50.28 C 532.96 48.56 532 47.08 530.04 47.08 C 528.08 47.08 527.04 48.56 527.04 50.28 C 527.04 52 528.08 53.4 530.04 53.4 C 532 53.4 532.96 52 532.96 50.28 Z M 558.2 24 L 550.08 24 L 550.08 28.599999999999998 L 552.96 28.599999999999998 L 552.96 43.2 C 552.96 46.96 550.96 48.12 548.96 48.12 L 542.52 48.12 L 542.52 53 L 549.64 53 C 555.36 53 558.2 49.24 558.2 42.96 Z M 570 49 C 568.04 49 566.72 47.68 566.72 44.12 L 566.72 32.879999999999995 C 566.72 29.32 568.04 28 570 28 C 571.96 28 573.28 29.32 573.28 32.879999999999995 L 573.28 44.12 C 573.28 47.68 571.96 49 570 49 Z M 570 53.4 C 575.56 53.4 578.4 49.76 578.4 44.12 L 578.4 32.879999999999995 C 578.4 27.24 575.56 23.599999999999998 570 23.599999999999998 C 564.44 23.599999999999998 561.6 27.24 561.6 32.879999999999995 L 561.6 44.12 C 561.6 49.76 564.44 53.4 570 53.4 Z M 598.52 44.8 C 598.52 41.24 597.44 39.2 595.04 38.12 C 597.04 36.6 598 34.84 598 31.8 C 598 26.919999999999998 595.56 24 590.76 24 L 582 24 L 582 53 L 590.12 53 C 595.88 53 598.52 50.36 598.52 44.8 Z M 592.92 32.16 C 592.92 35.4 591.6 36.480000000000004 589.52 36.480000000000004 L 587.12 36.480000000000004 L 587.12 28.12 L 589.16 28.12 C 591.48 28.12 592.92 28.8 592.92 32.16 Z M 593.44 44.12 C 593.44 46.88 592.2 48.519999999999996 589.76 48.519999999999996 L 587.12 48.519999999999996 L 587.12 39.8 L 589.6 39.8 C 592.32 39.8 593.44 41.480000000000004 593.44 44.12 Z M 613.92 20.28 C 610.44 27 608.68 33.8 608.68 40.6 C 608.68 47.44 610.44 54.24 613.92 61 L 617 59 C 614.12 53.4 612.64 46.44 612.64 40.72 C 612.64 34.92 614.12 27.919999999999998 617 22.28 Z M 633.84 53 L 639.28 53 L 632.56 24 L 627.4 24 L 620.72 53 L 625.84 53 L 626.72 48.64 L 632.92 48.64 Z M 629.88 33.56 L 631.96 43.8 L 627.72 43.8 Z M 658.92 24 L 641.08 24 L 641.08 28.88 L 647.44 28.88 L 647.44 53 L 652.56 53 L 652.56 28.88 L 658.92 28.88 Z M 663.04 22.28 C 665.92 27.919999999999998 667.36 34.92 667.36 40.72 C 667.36 46.44 665.92 53.4 663.04 59 L 666.12 61 C 669.6 54.24 671.32 47.44 671.32 40.6 C 671.32 33.8 669.6 27 666.12 20.28 Z M 697.68 36.6 L 690.2 36.6 L 690.2 40.76 L 692.56 40.76 L 692.56 44.8 C 692.56 47.76 691.6 49 689.84 49 C 688.08 49 686.72 47.76 686.72 44.12 L 686.72 32.879999999999995 C 686.72 29.28 688.04 28 690.08 28 C 692.24 28 693.28 29.48 693.28 31.28 L 698.16 31.28 C 697.72 26.16 694.96 23.599999999999998 690.08 23.599999999999998 C 684.2 23.599999999999998 681.6 27.32 681.6 32.879999999999995 L 681.6 44.12 C 681.6 49.72 684.24 53.4 688.64 53.4 C 690.68 53.4 692.6 52.6 693.36 51.36 L 693.36 53 L 697.68 53 Z M 718.56 24 L 713.68 24 L 710.04 35.16 L 706.68 24 L 701.44 24 L 701.44 53 L 705.76 53 L 705.76 35.2 L 710.04 47.92 L 714.32 35.2 L 714.32 53 L 718.56 53 Z M 733.84 53 L 739.28 53 L 732.56 24 L 727.4 24 L 720.72 53 L 725.84 53 L 726.72 48.64 L 732.92 48.64 Z M 729.88 33.56 L 731.96 43.8 L 727.72 43.8 Z M 743.2 28.88 L 747.44 28.88 L 747.44 48.12 L 743.2 48.12 L 743.2 53 L 756.8 53 L 756.8 48.12 L 752.56 48.12 L 752.56 28.88 L 756.8 28.88 L 756.8 24 L 743.2 24 Z M 778.04 48.12 L 767.12 48.12 L 767.12 24 L 762 24 L 762 53 L 778.04 53 Z M 792.96 50.28 C 792.96 48.56 792 47.08 790.04 47.08 C 788.08 47.08 787.04 48.56 787.04 50.28 C 787.04 52 788.08 53.4 790.04 53.4 C 792 53.4 792.96 52 792.96 50.28 Z M 810.08 23.599999999999998 C 804.2 23.599999999999998 801.6 27.32 801.6 32.879999999999995 L 801.6 44.12 C 801.6 49.68 804.2 53.4 810.08 53.4 C 814.96 53.4 817.72 50.84 818.16 45.72 L 813.28 45.72 C 813.28 47.519999999999996 812.24 49 810.08 49 C 808.04 49 806.72 47.72 806.72 44.12 L 806.72 32.879999999999995 C 806.72 29.28 808.04 28 810.08 28 C 812.24 28 813.28 29.48 813.28 31.28 L 818.16 31.28 C 817.72 26.16 814.96 23.599999999999998 810.08 23.599999999999998 Z M 830 49 C 828.04 49 826.72 47.68 826.72 44.12 L 826.72 32.879999999999995 C 826.72 29.32 828.04 28 830 28 C 831.96 28 833.28 29.32 833.28 32.879999999999995 L 833.28 44.12 C 833.28 47.68 831.96 49 830 49 Z M 830 53.4 C 835.56 53.4 838.4 49.76 838.4 44.12 L 838.4 32.879999999999995 C 838.4 27.24 835.56 23.599999999999998 830 23.599999999999998 C 824.44 23.599999999999998 821.6 27.24 821.6 32.879999999999995 L 821.6 44.12 C 821.6 49.76 824.44 53.4 830 53.4 Z M 858.56 24 L 853.68 24 L 850.04 35.16 L 846.68 24 L 841.44 24 L 841.44 53 L 845.76 53 L 845.76 35.2 L 850.04 47.92 L 854.32 35.2 L 854.32 53 L 858.56 53 Z M 962 24 L 962 53 L 967.12 53 L 967.12 43.12 L 969.56 43.12 C 975.8 43.12 978.76 39.72 978.76 33.8 C 978.76 27.599999999999998 975.56 24 969.64 24 Z M 967.12 28.88 L 969.56 28.88 C 972.32 28.88 973.52 30.28 973.52 33.4 C 973.52 36.64 972.2 38.24 969.56 38.24 L 967.12 38.24 Z M 993.84 53 L 999.28 53 L 992.56 24 L 987.4 24 L 980.72 53 L 985.84 53 L 986.72 48.64 L 992.92 48.64 Z M 989.88 33.56 L 991.96 43.8 L 987.72 43.8 Z M 1002 24 L 1002 53 L 1007.2 53 L 1007.2 41.36 L 1013.24 53 L 1019.2 53 L 1013.12 41.4 C 1016.56 40.480000000000004 1018.6 37.36 1018.6 32.84 C 1018.6 27.12 1015.36 24 1010.04 24 Z M 1007.2 28.88 L 1009 28.88 C 1011.84 28.88 1013.32 29.88 1013.32 33.32 C 1013.32 36.64 1011.92 38.24 1009.6 38.24 L 1007.2 38.24 Z M 1023.2 28.88 L 1027.44 28.88 L 1027.44 48.12 L 1023.2 48.12 L 1023.2 53 L 1036.8 53 L 1036.8 48.12 L 1032.56 48.12 L 1032.56 28.88 L 1036.8 28.88 L 1036.8 24 L 1023.2 24 Z M 1050.08 23.599999999999998 C 1044.96 23.599999999999998 1041.76 26.4 1041.76 31.48 C 1041.76 34.4 1042.8 36.4 1044.44 37.879999999999995 C 1046.16 39.44 1048.64 40.480000000000004 1050.4 41.6 C 1052.6 43 1053.16 44.16 1053.16 45.6 C 1053.16 47.32 1052.36 49 1050.16 49 C 1048.12 49 1046.68 47.6 1046.44 45.44 L 1041.68 45.44 C 1042.04 50.68 1044.8 53.4 1049.8 53.4 C 1055.44 53.4 1058.36 49.96 1058.36 45 C 1058.36 42.32 1057.52 40.36 1055.32 38.480000000000004 C 1053.24 36.68 1050.56 35.56 1048.76 34.32 C 1047.6 33.519999999999996 1046.88 32.84 1046.88 31.2 C 1046.88 29.72 1047.44 28 1049.92 28 C 1051.92 28 1053.08 29.12 1053.08 31.24 L 1057.76 31.24 C 1057.72 26.599999999999998 1055.32 23.599999999999998 1050.08 23.599999999999998 Z M 1076.16 36.16 L 1063.8 36.16 L 1063.8 40.44 L 1076.16 40.44 Z M 1090 49 C 1088.04 49 1086.72 47.68 1086.72 44.12 L 1086.72 32.879999999999995 C 1086.72 29.32 1088.04 28 1090 28 C 1091.96 28 1093.28 29.32 1093.28 32.879999999999995 L 1093.28 44.12 C 1093.28 47.68 1091.96 49 1090 49 Z M 1090 53.4 C 1095.56 53.4 1098.4 49.76 1098.4 44.12 L 1098.4 32.879999999999995 C 1098.4 27.24 1095.56 23.599999999999998 1090 23.599999999999998 C 1084.44 23.599999999999998 1081.6 27.24 1081.6 32.879999999999995 L 1081.6 44.12 C 1081.6 49.76 1084.44 53.4 1090 53.4 Z M 1102 24 L 1102 53 L 1107.2 53 L 1107.2 41.36 L 1113.24 53 L 1119.2 53 L 1113.12 41.4 C 1116.56 40.480000000000004 1118.6 37.36 1118.6 32.84 C 1118.6 27.12 1115.36 24 1110.04 24 Z M 1107.2 28.88 L 1109 28.88 C 1111.84 28.88 1113.32 29.88 1113.32 33.32 C 1113.32 36.64 1111.92 38.24 1109.6 38.24 L 1107.2 38.24 Z M 1138.04 48.12 L 1127.12 48.12 L 1127.12 24 L 1122 24 L 1122 53 L 1138.04 53 Z M 1157.4 48.12 L 1147.8 48.12 L 1147.8 40.68 L 1156.6 40.68 L 1156.6 36 L 1147.8 36 L 1147.8 28.88 L 1157.4 28.88 L 1157.4 24 L 1142.68 24 L 1142.68 53 L 1157.4 53 Z M 1173.84 53 L 1179.28 53 L 1172.56 24 L 1167.4 24 L 1160.72 53 L 1165.84 53 L 1166.72 48.64 L 1172.92 48.64 Z M 1169.88 33.56 L 1171.96 43.8 L 1167.72 43.8 Z M 1198 24 L 1193.4 24 L 1193.4 39.84 L 1187.92 24 L 1182 24 L 1182 53 L 1186.6 53 L 1186.6 36.04 L 1193.08 53 L 1198 53 Z M 1210.08 23.599999999999998 C 1204.96 23.599999999999998 1201.76 26.4 1201.76 31.48 C 1201.76 34.4 1202.8 36.4 1204.44 37.879999999999995 C 1206.16 39.44 1208.64 40.480000000000004 1210.4 41.6 C 1212.6 43 1213.16 44.16 1213.16 45.6 C 1213.16 47.32 1212.36 49 1210.16 49 C 1208.12 49 1206.68 47.6 1206.44 45.44 L 1201.68 45.44 C 1202.04 50.68 1204.8 53.4 1209.8 53.4 C 1215.44 53.4 1218.36 49.96 1218.36 45 C 1218.36 42.32 1217.52 40.36 1215.32 38.480000000000004 C 1213.24 36.68 1210.56 35.56 1208.76 34.32 C 1207.6 33.519999999999996 1206.88 32.84 1206.88 31.2 C 1206.88 29.72 1207.44 28 1209.92 28 C 1211.92 28 1213.08 29.12 1213.08 31.24 L 1217.76 31.24 C 1217.72 26.599999999999998 1215.32 23.599999999999998 1210.08 23.599999999999998 Z" fill-opacity="1"/></g></g></svg>