<svg version="1.1" xmlns="http://www.w3.org/2000/svg" xmlns:xlink="http://www.w3.org/1999/xlink" width="690" height="100" viewBox="0 0 690 100"><defs/><g><g><path fill="rgb(245,158,11)" stroke="none" paint-order="stroke fill markers" d=" M 33.291015625 15.236328125 L 39.1357421875 15.236328125 Q 48.466796875 15.236328125 59.5751953125 23.576171875 L 59.5751953125 23.576171875 Q 71.8798828125 35.265625 71.8798828125 50.2705078125 L 71.8798828125 50.2705078125 Q 71.8798828125 67.7705078125 56.4306640625 79.494140625 L 56.4306640625 79.494140625 Q 47.2021484375 85.5439453125 36.640625 85.5439453125 L 36.640625 85.5439453125 Q 17.4658203125 85.5439453125 6.15234375 68.009765625 L 6.15234375 68.009765625 Q 1.3671875 59.533203125 1.3671875 50.2705078125 L 1.3671875 50.2705078125 Q 1.3671875 33.2490234375 16.1669921875 21.6962890625 L 16.1669921875 21.6962890625 Q 24.267578125 16.125 33.291015625 15.236328125 L 33.291015625 15.236328125 Z M 17.2265625 40.255859375 L 17.2265625 40.255859375 L 17.2265625 62.814453125 Q 17.5 64.8994140625 19.3115234375 64.8994140625 L 19.3115234375 64.8994140625 L 53.935546875 64.8994140625 Q 56.0205078125 64.591796875 56.0205078125 62.814453125 L 56.0205078125 62.814453125 L 56.0205078125 40.4951171875 Q 56.0205078125 39.23046875 54.7900390625 38.3759765625 L 54.7900390625 38.3759765625 L 18.45703125 38.3759765625 Q 17.2265625 39.1279296875 17.2265625 40.255859375 Z M 19.5166015625 40.4951171875 L 19.5166015625 40.4951171875 L 19.7216796875 40.4951171875 Q 21.7041015625 41.828125 32.2314453125 50.71484375 L 32.2314453125 50.71484375 Q 34.4189453125 52.62890625 36.640625 54.2353515625 L 36.640625 54.2353515625 Q 45.52734375 47.0234375 52.6708984375 40.9052734375 L 52.6708984375 40.9052734375 L 52.91015625 41.3154296875 Q 48.9794921875 44.7333984375 43.7158203125 50.2705078125 L 43.7158203125 50.2705078125 L 53.935546875 62.3701171875 L 53.935546875 62.814453125 L 42.24609375 51.330078125 L 42.041015625 51.330078125 Q 42.041015625 51.9111328125 36.640625 56.9697265625 L 36.640625 56.9697265625 L 30.7958984375 51.53515625 Q 25.0537109375 57.55078125 19.1064453125 63.01953125 L 19.1064453125 63.01953125 L 19.1064453125 62.609375 L 29.53125 50.2705078125 Q 27.890625 48.3564453125 19.5166015625 40.4951171875 Z" fill-opacity="1"/></g><g><path fill="rgb(245,158,11)" stroke="none" paint-order="stroke fill markers" d=" M 101.75 61.9 L 89.75 61.9 L 89.75 52.6 L 100.75 52.6 L 100.75 46.75 L 89.75 46.75 L 89.75 37.849999999999994 L 101.75 37.849999999999994 L 101.75 31.75 L 83.35 31.75 L 83.35 68 L 101.75 68 Z M 127.55 61.9 L 113.9 61.9 L 113.9 31.75 L 107.5 31.75 L 107.5 68 L 127.55 68 Z M 147.3 68 L 154.1 68 L 145.7 31.75 L 139.25 31.75 L 130.9 68 L 137.3 68 L 138.4 62.55 L 146.15 62.55 Z M 142.35 43.7 L 144.95 56.5 L 139.65 56.5 Z M 171.2 64.6 C 171.2 62.45 170 60.6 167.55 60.6 C 165.1 60.6 163.8 62.45 163.8 64.6 C 163.8 66.75 165.1 68.5 167.55 68.5 C 170 68.5 171.2 66.75 171.2 64.6 Z M 202.8 42.849999999999994 C 202.8 35.449999999999996 199.5 31.75 192.9 31.75 L 182.5 31.75 L 182.5 68 L 192.9 68 C 199.5 68 202.8 64.35 202.8 57.1 Z M 196.4 56.75 C 196.4 60.05 195.1 61.9 192.5 61.9 L 188.9 61.9 L 188.9 37.849999999999994 L 192.5 37.849999999999994 C 195.1 37.849999999999994 196.4 39.849999999999994 196.4 43.45 Z M 226.75 61.9 L 214.75 61.9 L 214.75 52.6 L 225.75 52.6 L 225.75 46.75 L 214.75 46.75 L 214.75 37.849999999999994 L 226.75 37.849999999999994 L 226.75 31.75 L 208.35 31.75 L 208.35 68 L 226.75 68 Z M 242.65 56.05 L 237.7 31.75 L 230.9 31.75 L 239.3 68 L 245.75 68 L 254.1 31.75 L 247.7 31.75 Z M 271.2 64.6 C 271.2 62.45 270 60.6 267.55 60.6 C 265.1 60.6 263.8 62.45 263.8 64.6 C 263.8 66.75 265.1 68.5 267.55 68.5 C 270 68.5 271.2 66.75 271.2 64.6 Z M 302.75 31.75 L 292.6 31.75 L 292.6 37.5 L 296.2 37.5 L 296.2 55.75 C 296.2 60.45 293.7 61.9 291.2 61.9 L 283.15 61.9 L 283.15 68 L 292.05 68 C 299.2 68 302.75 63.3 302.75 55.45 Z M 317.5 63 C 315.05 63 313.4 61.35 313.4 56.9 L 313.4 42.849999999999994 C 313.4 38.4 315.05 36.75 317.5 36.75 C 319.95 36.75 321.6 38.4 321.6 42.849999999999994 L 321.6 56.9 C 321.6 61.35 319.95 63 317.5 63 Z M 317.5 68.5 C 324.45 68.5 328 63.95 328 56.9 L 328 42.849999999999994 C 328 35.8 324.45 31.25 317.5 31.25 C 310.55 31.25 307 35.8 307 42.849999999999994 L 307 56.9 C 307 63.95 310.55 68.5 317.5 68.5 Z M 353.15 57.75 C 353.15 53.3 351.8 50.75 348.8 49.4 C 351.3 47.5 352.5 45.3 352.5 41.5 C 352.5 35.4 349.45 31.75 343.45 31.75 L 332.5 31.75 L 332.5 68 L 342.65 68 C 349.85 68 353.15 64.7 353.15 57.75 Z M 346.15 41.95 C 346.15 46 344.5 47.349999999999994 341.9 47.349999999999994 L 338.9 47.349999999999994 L 338.9 36.9 L 341.45 36.9 C 344.35 36.9 346.15 37.75 346.15 41.95 Z M 346.8 56.9 C 346.8 60.35 345.25 62.4 342.2 62.4 L 338.9 62.4 L 338.9 51.5 L 342 51.5 C 345.4 51.5 346.8 53.6 346.8 56.9 Z M 372.4 27.099999999999994 C 368.05 35.5 365.85 44 365.85 52.5 C 365.85 61.05 368.05 69.55 372.4 78 L 376.25 75.5 C 372.65 68.5 370.8 59.8 370.8 52.65 C 370.8 45.4 372.65 36.65 376.25 29.599999999999994 Z M 397.3 68 L 404.1 68 L 395.7 31.75 L 389.25 31.75 L 380.9 68 L 387.3 68 L 388.4 62.55 L 396.15 62.55 Z M 392.35 43.7 L 394.95 56.5 L 389.65 56.5 Z M 428.65 31.75 L 406.35 31.75 L 406.35 37.849999999999994 L 414.3 37.849999999999994 L 414.3 68 L 420.7 68 L 420.7 37.849999999999994 L 428.65 37.849999999999994 Z M 433.8 29.599999999999994 C 437.4 36.65 439.2 45.4 439.2 52.65 C 439.2 59.8 437.4 68.5 433.8 75.5 L 437.65 78 C 442 69.55 444.15 61.05 444.15 52.5 C 444.15 44 442 35.5 437.65 27.099999999999994 Z M 477.1 47.5 L 467.75 47.5 L 467.75 52.7 L 470.7 52.7 L 470.7 57.75 C 470.7 61.45 469.5 63 467.3 63 C 465.1 63 463.4 61.45 463.4 56.9 L 463.4 42.849999999999994 C 463.4 38.349999999999994 465.05 36.75 467.6 36.75 C 470.3 36.75 471.6 38.599999999999994 471.6 40.849999999999994 L 477.7 40.849999999999994 C 477.15 34.449999999999996 473.7 31.25 467.6 31.25 C 460.25 31.25 457 35.9 457 42.849999999999994 L 457 56.9 C 457 63.9 460.3 68.5 465.8 68.5 C 468.35 68.5 470.75 67.5 471.7 65.95 L 471.7 68 L 477.1 68 Z M 503.2 31.75 L 497.1 31.75 L 492.55 45.7 L 488.35 31.75 L 481.8 31.75 L 481.8 68 L 487.2 68 L 487.2 45.75 L 492.55 61.65 L 497.9 45.75 L 497.9 68 L 503.2 68 Z M 522.3 68 L 529.1 68 L 520.7 31.75 L 514.25 31.75 L 505.9 68 L 512.3 68 L 513.4 62.55 L 521.15 62.55 Z M 517.35 43.7 L 519.95 56.5 L 514.65 56.5 Z M 534 37.849999999999994 L 539.3 37.849999999999994 L 539.3 61.9 L 534 61.9 L 534 68 L 551 68 L 551 61.9 L 545.7 61.9 L 545.7 37.849999999999994 L 551 37.849999999999994 L 551 31.75 L 534 31.75 Z M 577.55 61.9 L 563.9 61.9 L 563.9 31.75 L 557.5 31.75 L 557.5 68 L 577.55 68 Z M 596.2 64.6 C 596.2 62.45 595 60.6 592.55 60.6 C 590.1 60.6 588.8 62.45 588.8 64.6 C 588.8 66.75 590.1 68.5 592.55 68.5 C 595 68.5 596.2 66.75 596.2 64.6 Z M 617.6 31.25 C 610.25 31.25 607 35.9 607 42.849999999999994 L 607 56.9 C 607 63.85 610.25 68.5 617.6 68.5 C 623.7 68.5 627.15 65.3 627.7 58.9 L 621.6 58.9 C 621.6 61.15 620.3 63 617.6 63 C 615.05 63 613.4 61.4 613.4 56.9 L 613.4 42.849999999999994 C 613.4 38.349999999999994 615.05 36.75 617.6 36.75 C 620.3 36.75 621.6 38.599999999999994 621.6 40.849999999999994 L 627.7 40.849999999999994 C 627.15 34.449999999999996 623.7 31.25 617.6 31.25 Z M 642.5 63 C 640.05 63 638.4 61.35 638.4 56.9 L 638.4 42.849999999999994 C 638.4 38.4 640.05 36.75 642.5 36.75 C 644.95 36.75 646.6 38.4 646.6 42.849999999999994 L 646.6 56.9 C 646.6 61.35 644.95 63 642.5 63 Z M 642.5 68.5 C 649.45 68.5 653 63.95 653 56.9 L 653 42.849999999999994 C 653 35.8 649.45 31.25 642.5 31.25 C 635.55 31.25 632 35.8 632 42.849999999999994 L 632 56.9 C 632 63.95 635.55 68.5 642.5 68.5 Z M 678.2 31.75 L 672.1 31.75 L 667.55 45.7 L 663.35 31.75 L 656.8 31.75 L 656.8 68 L 662.2 68 L 662.2 45.75 L 667.55 61.65 L 672.9 45.75 L 672.9 68 L 678.2 68 Z" fill-opacity="1"/></g></g></svg>