<svg version="1.1" xmlns="http://www.w3.org/2000/svg" xmlns:xlink="http://www.w3.org/1999/xlink" width="878" height="50" viewBox="0 0 878 50"><defs/><g><g><path fill="rgb(245,158,11)" stroke="none" paint-order="stroke fill markers" d=" M 19.32 17.88 C 19.32 12 15.96 8.599999999999998 10.040000000000001 8.599999999999998 C 3.88 8.599999999999998 0.68 12.239999999999998 0.68 17.88 L 0.68 29.16 C 0.68 34.76 3.88 38.4 10.040000000000001 38.4 C 15.96 38.4 19.32 35 19.32 29.16 Z M 16.92 29.16 C 16.92 33.48 14.44 35.96 10.040000000000001 35.96 C 5.44 35.96 3.12 33.32 3.12 29.16 L 3.12 17.88 C 3.12 13.68 5.44 11.04 10.040000000000001 11.04 C 14.44 11.04 16.92 13.52 16.92 17.88 Z M 8.48 20.36 C 8.48 19.04 9.08 18.4 10.08 18.4 C 10.8 18.4 11.48 18.84 11.52 19.88 L 14.040000000000001 19.88 C 13.76 17.28 12.44 16.04 10.08 16.04 C 7.44 16.04 6.04 17.4 6.04 20.28 L 6.04 26.68 C 6.04 29.560000000000002 7.44 30.92 10.08 30.92 C 12.44 30.92 13.76 29.68 14.040000000000001 27.08 L 11.52 27.08 C 11.48 28.119999999999997 10.8 28.560000000000002 10.08 28.560000000000002 C 9.08 28.560000000000002 8.48 27.92 8.48 26.6 Z M 37.400000000000006 33.12 L 27.8 33.12 L 27.8 25.68 L 36.6 25.68 L 36.6 21 L 27.8 21 L 27.8 13.879999999999999 L 37.400000000000006 13.879999999999999 L 37.400000000000006 9 L 22.68 9 L 22.68 38 L 37.400000000000006 38 Z M 42 9 L 42 38 L 47.2 38 L 47.2 26.36 L 53.24 38 L 59.2 38 L 53.120000000000005 26.4 C 56.56 25.48 58.6 22.36 58.6 17.84 C 58.6 12.120000000000001 55.36 9 50.04 9 Z M 47.2 13.879999999999999 L 49 13.879999999999999 C 51.84 13.879999999999999 53.32 14.879999999999999 53.32 18.32 C 53.32 21.64 51.92 23.240000000000002 49.6 23.240000000000002 L 47.2 23.240000000000002 Z M 63.2 13.879999999999999 L 67.44 13.879999999999999 L 67.44 33.12 L 63.2 33.12 L 63.2 38 L 76.8 38 L 76.8 33.12 L 72.56 33.12 L 72.56 13.879999999999999 L 76.8 13.879999999999999 L 76.8 9 L 63.2 9 Z M 90.08 8.599999999999998 C 84.2 8.599999999999998 81.6 12.32 81.6 17.88 L 81.6 29.119999999999997 C 81.6 34.68 84.2 38.4 90.08 38.4 C 94.96000000000001 38.4 97.72 35.84 98.16 30.72 L 93.28 30.72 C 93.28 32.519999999999996 92.24 34 90.08 34 C 88.04 34 86.72 32.72 86.72 29.119999999999997 L 86.72 17.88 C 86.72 14.280000000000001 88.04 13 90.08 13 C 92.24 13 93.28 14.48 93.28 16.28 L 98.16 16.28 C 97.72 11.16 94.96000000000001 8.599999999999998 90.08 8.599999999999998 Z M 112.96000000000001 35.28 C 112.96000000000001 33.56 112 32.08 110.04 32.08 C 108.08 32.08 107.04 33.56 107.04 35.28 C 107.04 37 108.08 38.4 110.04 38.4 C 112 38.4 112.96000000000001 37 112.96000000000001 35.28 Z M 138.04 33.12 L 127.12 33.12 L 127.12 9 L 122 9 L 122 38 L 138.04 38 Z M 152.96 35.28 C 152.96 33.56 152 32.08 150.04 32.08 C 148.08 32.08 147.04 33.56 147.04 35.28 C 147.04 37 148.08 38.4 150.04 38.4 C 152 38.4 152.96 37 152.96 35.28 Z M 173.84 38 L 179.28 38 L 172.56 9 L 167.4 9 L 160.72 38 L 165.84 38 L 166.72 33.64 L 172.92 33.64 Z M 169.88 18.56 L 171.96 28.799999999999997 L 167.72 28.799999999999997 Z M 192.96 35.28 C 192.96 33.56 192 32.08 190.04 32.08 C 188.08 32.08 187.04 33.56 187.04 35.28 C 187.04 37 188.08 38.4 190.04 38.4 C 192 38.4 192.96 37 192.96 35.28 Z M 209.64 8.599999999999998 C 205.28 8.599999999999998 201.96 10.96 201.76 16.96 L 206.44 16.96 C 206.52 13.919999999999998 207.56 12.96 209.56 12.96 C 212 12.96 212.88 14.36 212.88 16.599999999999998 C 212.88 18.16 212.44 19.599999999999998 211.68 21 L 202.4 38 L 217.64 38 L 217.64 33.12 L 210.4 33.12 L 216.08 22.96 C 217.16 21 217.76 18.88 217.76 16.72 C 217.76 11.96 214.88 8.599999999999998 209.64 8.599999999999998 Z M 230 12.64 C 232.16 12.64 232.76 13.280000000000001 232.76 15.8 L 232.76 31.2 C 232.76 33.72 232.16 34.36 230 34.36 C 227.84 34.36 227.24 33.72 227.24 31.2 L 227.24 15.8 C 227.24 13.280000000000001 227.84 12.64 230 12.64 Z M 230 8.599999999999998 C 224.24 8.599999999999998 222.4 10.68 222.4 15.8 L 222.4 31.2 C 222.4 36.32 224.24 38.4 230 38.4 C 235.76 38.4 237.6 36.32 237.6 31.2 L 237.6 15.8 C 237.6 10.68 235.76 8.599999999999998 230 8.599999999999998 Z M 249.64 8.599999999999998 C 245.28 8.599999999999998 241.96 10.96 241.76 16.96 L 246.44 16.96 C 246.52 13.919999999999998 247.56 12.96 249.56 12.96 C 252 12.96 252.88 14.36 252.88 16.599999999999998 C 252.88 18.16 252.44 19.599999999999998 251.68 21 L 242.4 38 L 257.64 38 L 257.64 33.12 L 250.4 33.12 L 256.08 22.96 C 257.16 21 257.76 18.88 257.76 16.72 C 257.76 11.96 254.88 8.599999999999998 249.64 8.599999999999998 Z M 279.32 27.08 L 275.92 27.08 L 275.92 9 L 270.08 9 L 260.68 26.88 L 260.68 31.96 L 270.8 31.96 L 270.8 38 L 275.92 38 L 275.92 31.96 L 279.32 31.96 Z M 264.92 27.08 L 270.8 16.32 L 270.8 27.08 Z M 316.16 21.16 L 303.8 21.16 L 303.8 25.439999999999998 L 316.16 25.439999999999998 Z M 357.4 33.12 L 347.8 33.12 L 347.8 25.68 L 356.6 25.68 L 356.6 21 L 347.8 21 L 347.8 13.879999999999999 L 357.4 13.879999999999999 L 357.4 9 L 342.68 9 L 342.68 38 L 357.4 38 Z M 378.04 33.12 L 367.12 33.12 L 367.12 9 L 362 9 L 362 38 L 378.04 38 Z M 393.84 38 L 399.28 38 L 392.56 9 L 387.4 9 L 380.72 38 L 385.84 38 L 386.72 33.64 L 392.92 33.64 Z M 389.88 18.56 L 391.96 28.799999999999997 L 387.72 28.799999999999997 Z M 412.96 35.28 C 412.96 33.56 412 32.08 410.04 32.08 C 408.08 32.08 407.04 33.56 407.04 35.28 C 407.04 37 408.08 38.4 410.04 38.4 C 412 38.4 412.96 37 412.96 35.28 Z M 438.24 17.88 C 438.24 11.96 435.6 9 430.32 9 L 422 9 L 422 38 L 430.32 38 C 435.6 38 438.24 35.08 438.24 29.28 Z M 433.12 29 C 433.12 31.64 432.08 33.12 430 33.12 L 427.12 33.12 L 427.12 13.879999999999999 L 430 13.879999999999999 C 432.08 13.879999999999999 433.12 15.48 433.12 18.36 Z M 457.4 33.12 L 447.8 33.12 L 447.8 25.68 L 456.6 25.68 L 456.6 21 L 447.8 21 L 447.8 13.879999999999999 L 457.4 13.879999999999999 L 457.4 9 L 442.68 9 L 442.68 38 L 457.4 38 Z M 470.12 28.439999999999998 L 466.16 9 L 460.72 9 L 467.44 38 L 472.6 38 L 479.28 9 L 474.16 9 Z M 492.96 35.28 C 492.96 33.56 492 32.08 490.04 32.08 C 488.08 32.08 487.04 33.56 487.04 35.28 C 487.04 37 488.08 38.4 490.04 38.4 C 492 38.4 492.96 37 492.96 35.28 Z M 518.2 9 L 510.08 9 L 510.08 13.599999999999998 L 512.96 13.599999999999998 L 512.96 28.2 C 512.96 31.96 510.96 33.12 508.96 33.12 L 502.52 33.12 L 502.52 38 L 509.64 38 C 515.36 38 518.2 34.24 518.2 27.96 Z M 530 34 C 528.04 34 526.72 32.68 526.72 29.119999999999997 L 526.72 17.88 C 526.72 14.32 528.04 13 530 13 C 531.96 13 533.28 14.32 533.28 17.88 L 533.28 29.119999999999997 C 533.28 32.68 531.96 34 530 34 Z M 530 38.4 C 535.56 38.4 538.4 34.76 538.4 29.119999999999997 L 538.4 17.88 C 538.4 12.239999999999998 535.56 8.599999999999998 530 8.599999999999998 C 524.44 8.599999999999998 521.6 12.239999999999998 521.6 17.88 L 521.6 29.119999999999997 C 521.6 34.76 524.44 38.4 530 38.4 Z M 558.52 29.8 C 558.52 26.240000000000002 557.44 24.2 555.04 23.119999999999997 C 557.04 21.6 558 19.84 558 16.8 C 558 11.919999999999998 555.56 9 550.76 9 L 542 9 L 542 38 L 550.12 38 C 555.88 38 558.52 35.36 558.52 29.8 Z M 552.92 17.16 C 552.92 20.4 551.6 21.48 549.52 21.48 L 547.12 21.48 L 547.12 13.120000000000001 L 549.16 13.120000000000001 C 551.48 13.120000000000001 552.92 13.8 552.92 17.16 Z M 553.44 29.119999999999997 C 553.44 31.88 552.2 33.519999999999996 549.76 33.519999999999996 L 547.12 33.519999999999996 L 547.12 24.799999999999997 L 549.6 24.799999999999997 C 552.32 24.799999999999997 553.44 26.48 553.44 29.119999999999997 Z M 573.92 5.280000000000001 C 570.44 12 568.68 18.8 568.68 25.6 C 568.68 32.44 570.44 39.24 573.92 46 L 577 44 C 574.12 38.4 572.64 31.439999999999998 572.64 25.72 C 572.64 19.919999999999998 574.12 12.919999999999998 577 7.280000000000001 Z M 593.84 38 L 599.28 38 L 592.56 9 L 587.4 9 L 580.72 38 L 585.84 38 L 586.72 33.64 L 592.92 33.64 Z M 589.88 18.56 L 591.96 28.799999999999997 L 587.72 28.799999999999997 Z M 618.92 9 L 601.08 9 L 601.08 13.879999999999999 L 607.44 13.879999999999999 L 607.44 38 L 612.56 38 L 612.56 13.879999999999999 L 618.92 13.879999999999999 Z M 623.04 7.280000000000001 C 625.92 12.919999999999998 627.36 19.919999999999998 627.36 25.72 C 627.36 31.439999999999998 625.92 38.4 623.04 44 L 626.12 46 C 629.6 39.24 631.32 32.44 631.32 25.6 C 631.32 18.8 629.6 12 626.12 5.280000000000001 Z M 657.68 21.6 L 650.2 21.6 L 650.2 25.759999999999998 L 652.56 25.759999999999998 L 652.56 29.8 C 652.56 32.76 651.6 34 649.84 34 C 648.08 34 646.72 32.76 646.72 29.119999999999997 L 646.72 17.88 C 646.72 14.280000000000001 648.04 13 650.08 13 C 652.24 13 653.28 14.48 653.28 16.28 L 658.16 16.28 C 657.72 11.16 654.96 8.599999999999998 650.08 8.599999999999998 C 644.2 8.599999999999998 641.6 12.32 641.6 17.88 L 641.6 29.119999999999997 C 641.6 34.72 644.24 38.4 648.64 38.4 C 650.68 38.4 652.6 37.6 653.36 36.36 L 653.36 38 L 657.68 38 Z M 678.56 9 L 673.68 9 L 670.04 20.16 L 666.68 9 L 661.44 9 L 661.44 38 L 665.76 38 L 665.76 20.2 L 670.04 32.92 L 674.32 20.2 L 674.32 38 L 678.56 38 Z M 693.84 38 L 699.28 38 L 692.56 9 L 687.4 9 L 680.72 38 L 685.84 38 L 686.72 33.64 L 692.92 33.64 Z M 689.88 18.56 L 691.96 28.799999999999997 L 687.72 28.799999999999997 Z M 703.2 13.879999999999999 L 707.44 13.879999999999999 L 707.44 33.12 L 703.2 33.12 L 703.2 38 L 716.8 38 L 716.8 33.12 L 712.56 33.12 L 712.56 13.879999999999999 L 716.8 13.879999999999999 L 716.8 9 L 703.2 9 Z M 738.04 33.12 L 727.12 33.12 L 727.12 9 L 722 9 L 722 38 L 738.04 38 Z M 752.96 35.28 C 752.96 33.56 752 32.08 750.04 32.08 C 748.08 32.08 747.04 33.56 747.04 35.28 C 747.04 37 748.08 38.4 750.04 38.4 C 752 38.4 752.96 37 752.96 35.28 Z M 770.08 8.599999999999998 C 764.2 8.599999999999998 761.6 12.32 761.6 17.88 L 761.6 29.119999999999997 C 761.6 34.68 764.2 38.4 770.08 38.4 C 774.96 38.4 777.72 35.84 778.16 30.72 L 773.28 30.72 C 773.28 32.519999999999996 772.24 34 770.08 34 C 768.04 34 766.72 32.72 766.72 29.119999999999997 L 766.72 17.88 C 766.72 14.280000000000001 768.04 13 770.08 13 C 772.24 13 773.28 14.48 773.28 16.28 L 778.16 16.28 C 777.72 11.16 774.96 8.599999999999998 770.08 8.599999999999998 Z M 790 34 C 788.04 34 786.72 32.68 786.72 29.119999999999997 L 786.72 17.88 C 786.72 14.32 788.04 13 790 13 C 791.96 13 793.28 14.32 793.28 17.88 L 793.28 29.119999999999997 C 793.28 32.68 791.96 34 790 34 Z M 790 38.4 C 795.56 38.4 798.4 34.76 798.4 29.119999999999997 L 798.4 17.88 C 798.4 12.239999999999998 795.56 8.599999999999998 790 8.599999999999998 C 784.44 8.599999999999998 781.6 12.239999999999998 781.6 17.88 L 781.6 29.119999999999997 C 781.6 34.76 784.44 38.4 790 38.4 Z M 818.56 9 L 813.68 9 L 810.04 20.16 L 806.68 9 L 801.44 9 L 801.44 38 L 805.76 38 L 805.76 20.2 L 810.04 32.92 L 814.32 20.2 L 814.32 38 L 818.56 38 Z M 856.16 21.16 L 843.8 21.16 L 843.8 25.439999999999998 L 856.16 25.439999999999998 Z" fill-opacity="1"/></g></g></svg>