<svg version="1.1" xmlns="http://www.w3.org/2000/svg" xmlns:xlink="http://www.w3.org/1999/xlink" width="656" height="63" viewBox="0 0 656 63"><defs/><g><g><path fill="rgb(245,158,11)" stroke="none" paint-order="stroke fill markers" d=" M 19.0234375 8.9921875 L 22.36328125 8.9921875 Q 27.6953125 8.9921875 34.04296875 13.7578125 L 34.04296875 13.7578125 Q 41.07421875 20.4375 41.07421875 29.01171875 L 41.07421875 29.01171875 Q 41.07421875 39.01171875 32.24609375 45.7109375 L 32.24609375 45.7109375 Q 26.97265625 49.16796875 20.9375 49.16796875 L 20.9375 49.16796875 Q 9.98046875 49.16796875 3.515625 39.1484375 L 3.515625 39.1484375 Q 0.78125 34.3046875 0.78125 29.01171875 L 0.78125 29.01171875 Q 0.78125 19.28515625 9.23828125 12.68359375 L 9.23828125 12.68359375 Q 13.8671875 9.5 19.0234375 8.9921875 L 19.0234375 8.9921875 Z M 9.84375 23.2890625 L 9.84375 23.2890625 L 9.84375 36.1796875 Q 10 37.37109375 11.03515625 37.37109375 L 11.03515625 37.37109375 L 30.8203125 37.37109375 Q 32.01171875 37.1953125 32.01171875 36.1796875 L 32.01171875 36.1796875 L 32.01171875 23.42578125 Q 32.01171875 22.703125 31.30859375 22.21484375 L 31.30859375 22.21484375 L 10.546875 22.21484375 Q 9.84375 22.64453125 9.84375 23.2890625 Z M 11.15234375 23.42578125 L 11.15234375 23.42578125 L 11.26953125 23.42578125 Q 12.40234375 24.1875 18.41796875 29.265625 L 18.41796875 29.265625 Q 19.66796875 30.359375 20.9375 31.27734375 L 20.9375 31.27734375 Q 26.015625 27.15625 30.09765625 23.66015625 L 30.09765625 23.66015625 L 30.234375 23.89453125 Q 27.98828125 25.84765625 24.98046875 29.01171875 L 24.98046875 29.01171875 L 30.8203125 35.92578125 L 30.8203125 36.1796875 L 24.140625 29.6171875 L 24.0234375 29.6171875 Q 24.0234375 29.94921875 20.9375 32.83984375 L 20.9375 32.83984375 L 17.59765625 29.734375 Q 14.31640625 33.171875 10.91796875 36.296875 L 10.91796875 36.296875 L 10.91796875 36.0625 L 16.875 29.01171875 Q 15.9375 27.91796875 11.15234375 23.42578125 Z" fill-opacity="1"/></g><g><path fill="rgb(245,158,11)" stroke="none" paint-order="stroke fill markers" d=" M 69.75 40.9 L 57.75 40.9 L 57.75 31.6 L 68.75 31.6 L 68.75 25.75 L 57.75 25.75 L 57.75 16.849999999999998 L 69.75 16.849999999999998 L 69.75 10.75 L 51.35 10.75 L 51.35 47 L 69.75 47 Z M 95.55 40.9 L 81.9 40.9 L 81.9 10.75 L 75.5 10.75 L 75.5 47 L 95.55 47 Z M 115.3 47 L 122.1 47 L 113.7 10.75 L 107.25 10.75 L 98.9 47 L 105.3 47 L 106.4 41.55 L 114.15 41.55 Z M 110.35 22.7 L 112.95 35.5 L 107.65 35.5 Z M 139.2 43.6 C 139.2 41.45 138 39.6 135.55 39.6 C 133.1 39.6 131.8 41.45 131.8 43.6 C 131.8 45.75 133.1 47.5 135.55 47.5 C 138 47.5 139.2 45.75 139.2 43.6 Z M 170.8 21.849999999999998 C 170.8 14.449999999999996 167.5 10.75 160.9 10.75 L 150.5 10.75 L 150.5 47 L 160.9 47 C 167.5 47 170.8 43.35 170.8 36.1 Z M 164.4 35.75 C 164.4 39.05 163.1 40.9 160.5 40.9 L 156.9 40.9 L 156.9 16.849999999999998 L 160.5 16.849999999999998 C 163.1 16.849999999999998 164.4 18.849999999999998 164.4 22.45 Z M 194.75 40.9 L 182.75 40.9 L 182.75 31.6 L 193.75 31.6 L 193.75 25.75 L 182.75 25.75 L 182.75 16.849999999999998 L 194.75 16.849999999999998 L 194.75 10.75 L 176.35 10.75 L 176.35 47 L 194.75 47 Z M 210.65 35.05 L 205.7 10.75 L 198.9 10.75 L 207.3 47 L 213.75 47 L 222.1 10.75 L 215.7 10.75 Z M 239.2 43.6 C 239.2 41.45 238 39.6 235.55 39.6 C 233.1 39.6 231.8 41.45 231.8 43.6 C 231.8 45.75 233.1 47.5 235.55 47.5 C 238 47.5 239.2 45.75 239.2 43.6 Z M 270.75 10.75 L 260.6 10.75 L 260.6 16.5 L 264.2 16.5 L 264.2 34.75 C 264.2 39.45 261.7 40.9 259.2 40.9 L 251.15 40.9 L 251.15 47 L 260.05 47 C 267.2 47 270.75 42.3 270.75 34.45 Z M 285.5 42 C 283.05 42 281.4 40.35 281.4 35.9 L 281.4 21.849999999999998 C 281.4 17.4 283.05 15.75 285.5 15.75 C 287.95 15.75 289.6 17.4 289.6 21.849999999999998 L 289.6 35.9 C 289.6 40.35 287.95 42 285.5 42 Z M 285.5 47.5 C 292.45 47.5 296 42.95 296 35.9 L 296 21.849999999999998 C 296 14.799999999999997 292.45 10.25 285.5 10.25 C 278.55 10.25 275 14.799999999999997 275 21.849999999999998 L 275 35.9 C 275 42.95 278.55 47.5 285.5 47.5 Z M 321.15 36.75 C 321.15 32.3 319.8 29.75 316.8 28.4 C 319.3 26.5 320.5 24.299999999999997 320.5 20.5 C 320.5 14.399999999999999 317.45 10.75 311.45 10.75 L 300.5 10.75 L 300.5 47 L 310.65 47 C 317.85 47 321.15 43.7 321.15 36.75 Z M 314.15 20.95 C 314.15 25 312.5 26.349999999999998 309.9 26.349999999999998 L 306.9 26.349999999999998 L 306.9 15.899999999999999 L 309.45 15.899999999999999 C 312.35 15.899999999999999 314.15 16.75 314.15 20.95 Z M 314.8 35.9 C 314.8 39.35 313.25 41.4 310.2 41.4 L 306.9 41.4 L 306.9 30.5 L 310 30.5 C 313.4 30.5 314.8 32.6 314.8 35.9 Z M 340.4 6.099999999999994 C 336.05 14.5 333.85 23 333.85 31.5 C 333.85 40.05 336.05 48.55 340.4 57 L 344.25 54.5 C 340.65 47.5 338.8 38.8 338.8 31.65 C 338.8 24.4 340.65 15.649999999999999 344.25 8.599999999999994 Z M 365.3 47 L 372.1 47 L 363.7 10.75 L 357.25 10.75 L 348.9 47 L 355.3 47 L 356.4 41.55 L 364.15 41.55 Z M 360.35 22.7 L 362.95 35.5 L 357.65 35.5 Z M 396.65 10.75 L 374.35 10.75 L 374.35 16.849999999999998 L 382.3 16.849999999999998 L 382.3 47 L 388.7 47 L 388.7 16.849999999999998 L 396.65 16.849999999999998 Z M 401.8 8.599999999999994 C 405.4 15.649999999999999 407.2 24.4 407.2 31.65 C 407.2 38.8 405.4 47.5 401.8 54.5 L 405.65 57 C 410 48.55 412.15 40.05 412.15 31.5 C 412.15 23 410 14.5 405.65 6.099999999999994 Z M 445.1 26.5 L 435.75 26.5 L 435.75 31.7 L 438.7 31.7 L 438.7 36.75 C 438.7 40.45 437.5 42 435.3 42 C 433.1 42 431.4 40.45 431.4 35.9 L 431.4 21.849999999999998 C 431.4 17.349999999999998 433.05 15.75 435.6 15.75 C 438.3 15.75 439.6 17.599999999999998 439.6 19.849999999999998 L 445.7 19.849999999999998 C 445.15 13.449999999999996 441.7 10.25 435.6 10.25 C 428.25 10.25 425 14.899999999999999 425 21.849999999999998 L 425 35.9 C 425 42.9 428.3 47.5 433.8 47.5 C 436.35 47.5 438.75 46.5 439.7 44.95 L 439.7 47 L 445.1 47 Z M 471.2 10.75 L 465.1 10.75 L 460.55 24.7 L 456.35 10.75 L 449.8 10.75 L 449.8 47 L 455.2 47 L 455.2 24.75 L 460.55 40.65 L 465.9 24.75 L 465.9 47 L 471.2 47 Z M 490.3 47 L 497.1 47 L 488.7 10.75 L 482.25 10.75 L 473.9 47 L 480.3 47 L 481.4 41.55 L 489.15 41.55 Z M 485.35 22.7 L 487.95 35.5 L 482.65 35.5 Z M 502 16.849999999999998 L 507.3 16.849999999999998 L 507.3 40.9 L 502 40.9 L 502 47 L 519 47 L 519 40.9 L 513.7 40.9 L 513.7 16.849999999999998 L 519 16.849999999999998 L 519 10.75 L 502 10.75 Z M 545.55 40.9 L 531.9 40.9 L 531.9 10.75 L 525.5 10.75 L 525.5 47 L 545.55 47 Z M 564.2 43.6 C 564.2 41.45 563 39.6 560.55 39.6 C 558.1 39.6 556.8 41.45 556.8 43.6 C 556.8 45.75 558.1 47.5 560.55 47.5 C 563 47.5 564.2 45.75 564.2 43.6 Z M 585.6 10.25 C 578.25 10.25 575 14.899999999999999 575 21.849999999999998 L 575 35.9 C 575 42.85 578.25 47.5 585.6 47.5 C 591.7 47.5 595.15 44.3 595.7 37.9 L 589.6 37.9 C 589.6 40.15 588.3 42 585.6 42 C 583.05 42 581.4 40.4 581.4 35.9 L 581.4 21.849999999999998 C 581.4 17.349999999999998 583.05 15.75 585.6 15.75 C 588.3 15.75 589.6 17.599999999999998 589.6 19.849999999999998 L 595.7 19.849999999999998 C 595.15 13.449999999999996 591.7 10.25 585.6 10.25 Z M 610.5 42 C 608.05 42 606.4 40.35 606.4 35.9 L 606.4 21.849999999999998 C 606.4 17.4 608.05 15.75 610.5 15.75 C 612.95 15.75 614.6 17.4 614.6 21.849999999999998 L 614.6 35.9 C 614.6 40.35 612.95 42 610.5 42 Z M 610.5 47.5 C 617.45 47.5 621 42.95 621 35.9 L 621 21.849999999999998 C 621 14.799999999999997 617.45 10.25 610.5 10.25 C 603.55 10.25 600 14.799999999999997 600 21.849999999999998 L 600 35.9 C 600 42.95 603.55 47.5 610.5 47.5 Z M 646.2 10.75 L 640.1 10.75 L 635.55 24.7 L 631.35 10.75 L 624.8 10.75 L 624.8 47 L 630.2 47 L 630.2 24.75 L 635.55 40.65 L 640.9 24.75 L 640.9 47 L 646.2 47 Z" fill-opacity="1"/></g></g></svg>