<svg version="1.1" xmlns="http://www.w3.org/2000/svg" xmlns:xlink="http://www.w3.org/1999/xlink" width="500" height="500" viewBox="0 0 500 500"><defs/><g><g><g><g><path fill="rgb(125,211,252)" stroke="none" paint-order="stroke fill markers" d=" M 252 5.549999999999997 L 248 5.549999999999997 L 248 53.45 L 252 53.45 Z" fill-opacity="1"/></g></g><g><g><path fill="rgb(125,211,252)" stroke="none" paint-order="stroke fill markers" d=" M 306.3450981299847 12.123913735065841 L 302.4453864812574 11.233829999240584 L 291.78663374474996 57.93287699274994 L 295.6863453934772 58.8229607285752 Z" fill-opacity="1"/></g></g><g><g><path fill="rgb(125,211,252)" stroke="none" paint-order="stroke fill markers" d=" M 357.8648177630919 30.625927719488764 L 354.26094229148225 28.890392763018532 L 333.4779111877512 72.04680153554442 L 337.0817866593609 73.78233649201465 Z" fill-opacity="1"/></g></g><g><g><path fill="rgb(125,211,252)" stroke="none" paint-order="stroke fill markers" d=" M 403.9757450293034 60.128273714407584 L 400.84841909943134 57.63431450697264 L 370.983257590398 95.08404251719128 L 374.1105835202701 97.5780017246262 Z" fill-opacity="1"/></g></g><g><g><path fill="rgb(125,211,252)" stroke="none" paint-order="stroke fill markers" d=" M 442.36568549302734 99.15158090056863 L 439.87172628559244 96.02425497069652 L 402.42199827537377 125.88941647972986 L 404.9159574828087 129.016742409602 Z" fill-opacity="1"/></g></g><g><g><path fill="rgb(125,211,252)" stroke="none" paint-order="stroke fill markers" d=" M 471.10960723698145 145.73905770851775 L 469.37407228051126 142.13518223690807 L 426.2176635079854 162.9182133406391 L 427.95319846445557 166.5220888122488 Z" fill-opacity="1"/></g></g><g><g><path fill="rgb(125,211,252)" stroke="none" paint-order="stroke fill markers" d=" M 488.7661700007594 197.55461351874257 L 487.87608626493414 193.65490187001527 L 441.17703927142475 204.31365460652273 L 442.06712300725 208.21336625525004 Z" fill-opacity="1"/></g></g><g><g><path fill="rgb(125,211,252)" stroke="none" paint-order="stroke fill markers" d=" M 494.45 252 L 494.45 248 L 446.55 248 L 446.55 252 Z" fill-opacity="1"/></g></g><g><g><path fill="rgb(125,211,252)" stroke="none" paint-order="stroke fill markers" d=" M 487.87608626493414 306.3450981299847 L 488.7661700007594 302.4453864812574 L 442.06712300725 291.78663374474996 L 441.17703927142475 295.6863453934772 Z" fill-opacity="1"/></g></g><g><g><path fill="rgb(125,211,252)" stroke="none" paint-order="stroke fill markers" d=" M 469.37407228051126 357.8648177630919 L 471.10960723698145 354.2609422914822 L 427.95319846445557 333.4779111877512 L 426.2176635079854 337.0817866593609 Z" fill-opacity="1"/></g></g><g><g><path fill="rgb(125,211,252)" stroke="none" paint-order="stroke fill markers" d=" M 439.8717262855925 403.9757450293034 L 442.3656854930274 400.84841909943134 L 404.9159574828088 370.983257590398 L 402.4219982753738 374.1105835202701 Z" fill-opacity="1"/></g></g><g><g><path fill="rgb(125,211,252)" stroke="none" paint-order="stroke fill markers" d=" M 400.84841909943134 442.36568549302734 L 403.9757450293035 439.87172628559244 L 374.1105835202701 402.42199827537377 L 370.983257590398 404.9159574828087 Z" fill-opacity="1"/></g></g><g><g><path fill="rgb(125,211,252)" stroke="none" paint-order="stroke fill markers" d=" M 354.2609422914823 471.10960723698145 L 357.86481776309193 469.3740722805112 L 337.08178665936094 426.2176635079854 L 333.47791118775126 427.95319846445557 Z" fill-opacity="1"/></g></g><g><g><path fill="rgb(125,211,252)" stroke="none" paint-order="stroke fill markers" d=" M 302.44538648125746 488.7661700007594 L 306.34509812998476 487.87608626493414 L 295.68634539347727 441.17703927142475 L 291.78663374475 442.06712300725 Z" fill-opacity="1"/></g></g><g><g><path fill="rgb(125,211,252)" stroke="none" paint-order="stroke fill markers" d=" M 248.00000000000003 494.45 L 252.00000000000003 494.45 L 252.00000000000003 446.55 L 248.00000000000003 446.55 Z" fill-opacity="1"/></g></g><g><g><path fill="rgb(125,211,252)" stroke="none" paint-order="stroke fill markers" d=" M 193.65490187001532 487.87608626493414 L 197.5546135187426 488.7661700007594 L 208.21336625525007 442.06712300725 L 204.31365460652276 441.17703927142475 Z" fill-opacity="1"/></g></g><g><g><path fill="rgb(125,211,252)" stroke="none" paint-order="stroke fill markers" d=" M 142.1351822369081 469.37407228051126 L 145.73905770851778 471.10960723698145 L 166.52208881224882 427.95319846445557 L 162.91821334063914 426.2176635079854 Z" fill-opacity="1"/></g></g><g><g><path fill="rgb(125,211,252)" stroke="none" paint-order="stroke fill markers" d=" M 96.02425497069657 439.8717262855925 L 99.15158090056869 442.3656854930274 L 129.01674240960202 404.9159574828088 L 125.8894164797299 402.4219982753738 Z" fill-opacity="1"/></g></g><g><g><path fill="rgb(125,211,252)" stroke="none" paint-order="stroke fill markers" d=" M 57.63431450697268 400.8484190994314 L 60.12827371440761 403.97574502930354 L 97.57800172462623 374.11058352027015 L 95.0840425171913 370.98325759039807 Z" fill-opacity="1"/></g></g><g><g><path fill="rgb(125,211,252)" stroke="none" paint-order="stroke fill markers" d=" M 28.89039276301854 354.2609422914823 L 30.62592771948877 357.864817763092 L 73.78233649201465 337.08178665936094 L 72.04680153554442 333.47791118775126 Z" fill-opacity="1"/></g></g><g><g><path fill="rgb(125,211,252)" stroke="none" paint-order="stroke fill markers" d=" M 11.233829999240584 302.44538648125746 L 12.123913735065841 306.34509812998476 L 58.8229607285752 295.68634539347727 L 57.93287699274994 291.78663374475 Z" fill-opacity="1"/></g></g><g><g><path fill="rgb(125,211,252)" stroke="none" paint-order="stroke fill markers" d=" M 5.549999999999997 248.00000000000003 L 5.549999999999997 252.00000000000003 L 53.45 252.00000000000003 L 53.45 248.00000000000003 Z" fill-opacity="1"/></g></g><g><g><path fill="rgb(125,211,252)" stroke="none" paint-order="stroke fill markers" d=" M 12.123913735065841 193.65490187001535 L 11.233829999240584 197.55461351874263 L 57.93287699274994 208.2133662552501 L 58.8229607285752 204.3136546065228 Z" fill-opacity="1"/></g></g><g><g><path fill="rgb(125,211,252)" stroke="none" paint-order="stroke fill markers" d=" M 30.625927719488736 142.13518223690812 L 28.890392763018504 145.73905770851778 L 72.04680153554439 166.5220888122488 L 73.78233649201462 162.91821334063914 Z" fill-opacity="1"/></g></g><g><g><path fill="rgb(125,211,252)" stroke="none" paint-order="stroke fill markers" d=" M 60.12827371440755 96.02425497069657 L 57.634314506972615 99.15158090056869 L 95.08404251719125 129.01674240960202 L 97.57800172462618 125.8894164797299 Z" fill-opacity="1"/></g></g><g><g><path fill="rgb(125,211,252)" stroke="none" paint-order="stroke fill markers" d=" M 99.1515809005686 57.63431450697268 L 96.02425497069649 60.12827371440761 L 125.88941647972983 97.57800172462623 L 129.01674240960196 95.0840425171913 Z" fill-opacity="1"/></g></g><g><g><path fill="rgb(125,211,252)" stroke="none" paint-order="stroke fill markers" d=" M 145.73905770851772 28.89039276301854 L 142.13518223690804 30.62592771948877 L 162.91821334063908 73.78233649201465 L 166.52208881224877 72.04680153554442 Z" fill-opacity="1"/></g></g><g><g><path fill="rgb(125,211,252)" stroke="none" paint-order="stroke fill markers" d=" M 197.55461351874254 11.23382999924062 L 193.65490187001524 12.123913735065877 L 204.3136546065227 58.822960728575225 L 208.21336625525 57.93287699274997 Z" fill-opacity="1"/></g></g></g></g></svg>