<svg version="1.1" xmlns="http://www.w3.org/2000/svg" xmlns:xlink="http://www.w3.org/1999/xlink" width="400" height="400" viewBox="0 0 400 400"><defs/><g><g><path fill="rgb(0,0,0)" stroke="none" paint-order="stroke fill markers" d=" M 340.4375 67.75 L 340.4375 67.75 Q 349.8125 65.5 350.1875 65.5 L 350.1875 65.5 Q 350.5625 65.125 356.9375 67 L 356.9375 67 Q 362.9375 68.875 364.4375 72.25 L 364.4375 72.25 Q 365.9375 76.375 364.625 79.5625 Q 363.3125 82.75 356.5625 89.875 L 356.5625 89.875 Q 334.4375 115 326.5625 128.5 L 326.5625 128.5 Q 303.6875 166 299.5625 198.625 L 299.5625 198.625 Q 298.4375 205 297.3125 204.625 L 297.3125 204.625 Q 295.8125 204.25 292.8125 205.75 L 292.8125 205.75 Q 289.4375 207.25 286.0625 206.125 L 286.0625 206.125 Q 281.9375 204.25 281 200.875 Q 280.0625 197.5 281.1875 188.125 L 281.1875 188.125 Q 285.3125 151.375 309.6875 118.375 L 309.6875 118.375 L 314.1875 112.375 L 301.0625 118.375 Q 287.5625 124.75 287.9375 125.875 L 287.9375 125.875 Q 288.3125 127.375 273.3125 135.25 L 273.3125 135.25 Q 195.3125 176.5 144.3125 217.375 L 144.3125 217.375 Q 128.1875 229.75 107.75 250.375 Q 87.3125 271 76.0625 285.625 L 76.0625 285.625 Q 61.8125 303.625 55.8125 313.9375 Q 49.8125 324.25 48.6875 332.875 L 48.6875 332.875 Q 47.9375 338.5 46.8125 338.5 L 46.8125 338.5 Q 45.6875 338.125 45.875 334.9375 Q 46.0625 331.75 47.9375 326.125 Q 49.8125 320.5 52.0625 315.625 L 52.0625 315.625 L 55.0625 309.25 Q 54.6875 309.25 53.5625 310.75 L 53.5625 310.75 Q 50.5625 314.125 50.5625 315.25 L 50.5625 315.25 Q 50.5625 316 49.25 316 Q 47.9375 316 47.9375 315.25 L 47.9375 315.25 Q 47.9375 313.75 58.625 299.6875 Q 69.3125 285.625 79.4375 274.375 L 79.4375 274.375 Q 92.5625 258.625 112.8125 239.125 L 112.8125 239.125 Q 129.6875 222.625 127.0625 224.125 L 127.0625 224.125 Q 126.6875 224.5 125.5625 225.25 L 125.5625 225.25 Q 100.0625 245.125 79.0625 267.25 Q 58.0625 289.375 46.8125 308.5 L 46.8125 308.5 Q 41.5625 316.75 39.6875 318.8125 Q 37.8125 320.875 33.875 321.0625 Q 29.9375 321.25 27.125 318.0625 Q 24.3125 314.875 25.0625 311.5 L 25.0625 311.5 Q 26.9375 302.875 44.9375 278.5 L 44.9375 278.5 Q 52.0625 269.125 70.25 250.5625 Q 88.4375 232 101.1875 221.125 L 101.1875 221.125 Q 168.3125 166 278.1875 109.375 L 278.1875 109.375 L 310.0625 92.875 Q 289.4375 97.75 252.6875 102.0625 Q 215.9375 106.375 209.1875 104.5 L 209.1875 104.5 Q 206.5625 104.125 204.6875 100.5625 Q 202.8125 97 203.5625 94 L 203.5625 94 Q 204.3125 89.875 208.0625 88.5625 Q 211.8125 87.25 226.8125 86.125 L 226.8125 86.125 Q 273.3125 83.5 340.4375 67.75 Z M 182.9375 185.5 L 182.9375 185.5 Q 182.9375 184.75 182.5625 184.75 L 182.5625 184.75 Q 181.8125 184.75 172.8125 191.125 Q 163.8125 197.5 162.3125 199 L 162.3125 199 L 168.6875 195.625 Q 169.8125 194.5 171.3125 193.75 L 171.3125 193.75 Q 182.9375 185.875 182.9375 185.5 Z M 356.5625 93.625 L 356.5625 93.625 Q 359.9375 89.5 361.625 87.4375 Q 363.3125 85.375 364.625 84.0625 Q 365.9375 82.75 366.3125 83.125 Q 366.6875 83.5 367.0625 83.875 L 367.0625 83.875 Q 367.8125 84.625 357.3125 101.5 Q 346.8125 118.375 345.6875 118.9375 Q 344.5625 119.5 344.5625 118.375 L 344.5625 118.375 Q 344.9375 116.875 349.8125 109 L 349.8125 109 Q 352.4375 104.875 353.5625 102.625 Q 354.6875 100.375 354.3125 100.375 L 354.3125 100.375 Q 353.1875 100.375 337.625 122.125 Q 322.0625 143.875 319.8125 149.125 L 319.8125 149.125 Q 309.3125 172.375 303.6875 200.5 L 303.6875 200.5 Q 299.5625 218.875 298.4375 218.875 L 298.4375 218.875 Q 297.6875 218.125 299.9375 206.125 Q 302.1875 194.125 304.4375 185.5 L 304.4375 185.5 Q 310.8125 160.75 320.5625 143.6875 Q 330.3125 126.625 356.5625 93.625 Z" fill-opacity="1"/></g></g></svg>