<svg version="1.1" xmlns="http://www.w3.org/2000/svg" xmlns:xlink="http://www.w3.org/1999/xlink" width="400" height="400" viewBox="0 0 400 400"><defs/><g><g><path fill="rgb(0,0,0)" stroke="none" paint-order="stroke fill markers" d=" M 317.5 78.5 L 317.5 78.5 Q 330.25 76.25 340.375 76.25 Q 350.5 76.25 353.5 78.875 L 353.5 78.875 Q 356.125 81.125 356.125 84.6875 Q 356.125 88.25 353.875 90.875 L 353.875 90.875 L 351.625 93.125 L 358 92.75 Q 364.75 92.375 364 93.125 L 364 93.125 Q 363.625 94.625 353.5 95.375 L 353.5 95.375 Q 316 98.75 269.875 116.75 L 269.875 116.75 Q 223.75 135.125 181.9375 164.1875 Q 140.125 193.25 118.375 222.5 L 118.375 222.5 Q 115.375 226.625 112.1875 231.6875 Q 109 236.75 107.125 240.3125 Q 105.25 243.875 106 243.875 Q 106.75 243.875 150.25 222.875 L 150.25 222.875 Q 179.125 208.625 187.1875 205.25 Q 195.25 201.875 197.125 202.625 L 197.125 202.625 Q 202.375 204.5 203.3125 209.375 Q 204.25 214.25 200.125 218 L 200.125 218 Q 197.5 220.25 158.875 238.625 L 158.875 238.625 Q 95.125 269.375 66.625 289.25 L 66.625 289.25 Q 50.5 301.25 47.875 301.25 L 47.875 301.25 Q 46.375 301.25 45.8125 303.875 Q 45.25 306.5 43.75 319.625 L 43.75 319.625 Q 43 326.375 41.875 326.375 L 41.875 326.375 Q 41.125 325.25 42.25 313.625 L 42.25 313.625 L 43.375 302.375 L 39.625 298.625 Q 35.875 295.625 36.625 291.125 L 36.625 291.125 Q 37 286.25 39.625 280.625 L 39.625 280.625 Q 41.5 275.75 46.75 259.25 L 46.75 259.25 Q 52 243.125 65.125 216.875 L 65.125 216.875 Q 87.625 171.125 86.5 150.5 L 86.5 150.5 Q 86.125 145.25 87.25 145.25 L 87.25 145.25 Q 88.75 144.875 88.75 150.125 Q 88.75 155.375 87.625 163.0625 Q 86.5 170.75 84.625 176.75 L 84.625 176.75 Q 84.25 178.25 84.625 177.875 L 84.625 177.875 Q 87.625 173.75 94 158 L 94 158 Q 100.75 140.75 107.125 140.75 L 107.125 140.75 Q 110.125 140.75 113.125 143.5625 Q 116.125 146.375 116.125 149 L 116.125 149 Q 116.125 158.75 81.625 224.375 L 81.625 224.375 L 74.875 237.5 L 81.625 229.625 Q 91 219.125 111.25 199.25 Q 131.5 179.375 142.75 170.375 L 142.75 170.375 Q 188.125 132.5 233.125 108.875 Q 278.125 85.25 317.5 78.5 Z M 329.125 96.875 L 329.125 96.875 L 337 95.375 L 331 95.375 Q 314.125 95 280 107.375 L 280 107.375 Q 271.375 110.75 250.5625 120.6875 Q 229.75 130.625 226.75 133.25 L 226.75 133.25 L 235.375 129.5 Q 235.75 129.5 236.125 129.125 L 236.125 129.125 Q 283.375 105.875 329.125 96.875 Z M 112.75 226.625 L 112.75 226.625 Q 113.875 225.125 113.125 225.125 L 113.125 225.125 Q 111.625 225.125 96.625 244.625 L 96.625 244.625 L 91 252.125 L 97 249.125 Q 103 246.125 103 244.625 L 103 244.625 Q 103 243.5 106.9375 236.1875 Q 110.875 228.875 112.75 226.625 Z M 87.625 254.375 L 87.625 254.375 Q 89.125 253.25 88.75 252.125 L 88.75 252.125 Q 88.375 250.625 86.875 252.5 L 86.875 252.5 Q 85 254.75 85.75 255.125 L 85.75 255.125 Q 86.5 255.125 87.625 254.375 Z" fill-opacity="1"/></g></g></svg>