<svg version="1.1" xmlns="http://www.w3.org/2000/svg" xmlns:xlink="http://www.w3.org/1999/xlink" width="500" height="500" viewBox="0 0 500 500"><defs/><g><g><g><g><path fill="rgb(0,0,0)" stroke="none" paint-order="stroke fill markers" d=" M 255.20833333333334 48.12499491373698 L 260.4166666666667 48.12499491373698 L 260.4166666666667 11.666661580403648 L 255.20833333333334 11.666661580403648 L 255.20833333333334 27.291661580403648 L 239.58333333333334 27.291661580403648 L 239.58333333333334 11.666661580403648 L 234.375 11.666661580403648 L 234.375 48.12499491373698 L 239.58333333333334 48.12499491373698 L 239.58333333333334 32.499994913736984 L 255.20833333333334 32.499994913736984 L 255.20833333333334 48.12499491373698 Z M 265.625 53.33332824707031 L 229.16666666666666 53.33332824707031 L 229.16666666666666 6.4583282470703125 L 265.625 6.4583282470703125 L 265.625 53.33332824707031 Z" fill-opacity="1"/></g></g><g><g><path fill="rgb(0,0,0)" stroke="none" paint-order="stroke fill markers" d=" M 279.68816604639 49.70953317648715 L 305.0769137594583 55.50434916493284 L 306.23587695714747 50.42659962231917 L 285.92487878669283 45.79074683156263 L 288.2428051820711 35.635247746335295 L 303.47605380991206 39.11213733940271 L 304.6350170076012 34.03438779678905 L 289.4017683797602 30.557498203721632 L 291.71969477513846 20.40199911849431 L 312.03069294559316 25.037851909250854 L 313.18965614328226 19.960102366637187 L 287.80090843021395 14.165286378191503 L 279.68816604639 49.70953317648715 Z M 308.9957001043828 61.74106190523564 L 273.4514533060872 53.628319521411676 L 283.88212208528944 7.928573637888697 L 319.4263688835851 16.04131602171266 L 308.9957001043828 61.74106190523564 Z" fill-opacity="1"/></g></g><g><g><path fill="rgb(0,0,0)" stroke="none" paint-order="stroke fill markers" d=" M 323.5126434802286 61.337471785922645 L 346.9753744151874 72.63652749210905 L 349.2351855564247 67.94398130511729 L 330.4650008084576 58.90473674016816 L 344.0238676558813 30.749459618217564 L 339.33132146888954 28.489648476980285 L 323.5126434802286 61.337471785922645 Z M 349.4081094609419 79.58888482033811 L 316.56028615199955 63.77020683167713 L 336.89858642313504 21.53729114875123 L 369.74640973207744 37.3559691374122 L 349.4081094609419 79.58888482033811 Z" fill-opacity="1"/></g></g><g><g><path fill="rgb(0,0,0)" stroke="none" paint-order="stroke fill markers" d=" M 363.650890007902 82.42573734612321 L 384.01108486384027 98.6624509361944 L 387.2584275818545 94.59041196500675 L 370.9702716971039 81.6010410929498 L 390.4543280051893 57.168807265823865 L 386.38228903400164 53.921464547809634 L 363.650890007902 82.42573734612321 Z M 384.8357811170137 105.9818326253963 L 356.3315083187001 83.25043359929663 L 385.55759278082826 46.60208285860774 L 414.0618655791418 69.3334818847074 L 384.8357811170137 105.9818326253963 Z" fill-opacity="1"/></g></g><g><g><path fill="rgb(0,0,0)" stroke="none" paint-order="stroke fill markers" d=" M 415.15161618903596 124.95768933170845 L 405.40958803499325 112.7415724181455 L 425.76978289093154 96.5048588280743 L 435.51181104497425 108.72097574163726 L 415.15161618903596 124.95768933170845 Z M 401.3375490638056 115.98891513615973 L 411.07957721784834 128.2050320497227 L 418.3989589070502 129.0297283028961 L 438.7591537629885 112.79301471282493 L 439.5838500161619 105.47363302362302 L 429.84182186211916 93.25751611006007 L 422.5224401729173 92.43281985688665 L 402.162245316979 108.66953344695784 L 401.3375490638056 115.98891513615973 Z M 413.50222368268913 139.59645271011223 L 390.77082465658947 111.09217991179865 L 427.41917539727837 81.86609544967052 L 450.15057442337803 110.3703682479841 L 413.50222368268913 139.59645271011223 Z" fill-opacity="1"/></g></g><g><g><path fill="rgb(0,0,0)" stroke="none" paint-order="stroke fill markers" d=" M 433.96998202708556 178.7471676610087 L 418.1513040384246 145.89934435206635 L 460.38421972135046 125.5610440809308 L 476.2028977100115 158.40886738987317 L 433.96998202708556 178.7471676610087 Z" fill-opacity="1"/></g></g><g><g><path fill="rgb(0,0,0)" stroke="none" paint-order="stroke fill markers" d=" M 444.4956508350672 194.9230862405417 L 447.97254042813455 210.15633486838266 L 454.2092531684374 214.0751212133072 L 484.67575042411937 207.12134202717237 L 483.5167872264302 202.0435924845587 L 453.0502899707482 208.99737167069352 L 451.8913267730591 203.91962212807988 L 462.0468258582864 201.6016957327016 L 460.8878626605973 196.52394619008794 L 450.73236357536996 198.8418725854662 L 449.5734003776808 193.76412304285253 L 480.0398976333628 186.8103438567177 L 478.8809344356737 181.73259431410406 L 448.4144371799917 188.6863735002389 L 444.4956508350672 194.9230862405417 Z M 445.2127172808992 221.47079715129914 L 437.09997489707524 185.92655035300348 L 482.7997207805982 175.49588157380126 L 490.91246316442215 211.0401283720969 L 445.2127172808992 221.47079715129914 Z" fill-opacity="1"/></g></g><g><g><path fill="rgb(0,0,0)" stroke="none" paint-order="stroke fill markers" d=" M 457.0833384195964 255.20833333333334 L 457.0833384195964 239.58333333333334 L 483.125005086263 239.58333333333334 L 483.125005086263 255.20833333333334 L 457.0833384195964 255.20833333333334 Z M 451.875005086263 239.58333333333334 L 451.875005086263 255.20833333333334 L 457.0833384195964 260.4166666666667 L 483.125005086263 260.4166666666667 L 488.3333384195964 255.20833333333334 L 488.3333384195964 239.58333333333334 L 483.125005086263 234.375 L 457.0833384195964 234.375 L 451.875005086263 239.58333333333334 Z M 446.6666717529297 265.625 L 446.6666717529297 229.16666666666666 L 493.5416717529297 229.16666666666666 L 493.5416717529297 265.625 L 446.6666717529297 265.625 Z" fill-opacity="1"/></g></g><g><g><path fill="rgb(0,0,0)" stroke="none" paint-order="stroke fill markers" d=" M 465.965612203211 304.63501700760116 L 469.44250179627835 289.40176837976014 L 479.5980008815057 291.7196947751384 L 476.12111128843827 306.95294340297943 L 465.965612203211 304.63501700760116 Z M 445.6546140327563 299.9991642168446 L 444.4956508350672 305.07691375945825 L 459.72889946290815 308.5538033525257 L 463.42673743190414 304.05553540875655 L 464.8066490055218 309.71276655021484 L 474.96214809074917 312.0306929455931 L 481.19886083105195 308.11190660066853 L 485.8347136218085 287.8009084302139 L 450.2904668235129 279.68816604638994 L 449.1315036258237 284.7659155890036 L 464.36475225366473 288.24280518207104 L 460.8878626605973 303.476053809912 L 445.6546140327563 299.9991642168446 Z M 438.25893809476435 308.99570010438276 L 446.3716804785883 273.45145330608716 L 492.0714263621113 283.8821220852894 L 483.95868397828735 319.42636888358504 L 438.25893809476435 308.99570010438276 Z" fill-opacity="1"/></g></g><g><g><path fill="rgb(0,0,0)" stroke="none" paint-order="stroke fill markers" d=" M 438.6625282140773 323.5126434802286 L 427.3634725078909 346.9753744151874 L 432.0560186948827 349.2351855564247 L 441.0952632598318 330.4650008084576 L 469.2505403817824 344.0238676558813 L 471.51035152301966 339.33132146888954 L 438.6625282140773 323.5126434802286 Z M 420.41111517966186 349.4081094609419 L 436.22979316832283 316.56028615199955 L 478.46270885124875 336.89858642313504 L 462.6440308625878 369.74640973207744 L 420.41111517966186 349.4081094609419 Z" fill-opacity="1"/></g></g><g><g><path fill="rgb(0,0,0)" stroke="none" paint-order="stroke fill markers" d=" M 408.65693075300754 383.1863886106669 L 418.39895890705026 370.9702716971039 L 438.75915376298855 387.2069852871751 L 429.01712560894583 399.423102200738 L 408.65693075300754 383.1863886106669 Z M 417.5742626538769 363.650890007902 L 404.5848917818199 379.93904589265264 L 405.4095880349933 387.2584275818545 L 425.7697828909316 403.4951411719257 L 433.08916458013346 402.67044491875225 L 446.0785354521904 386.38228903400164 L 417.5742626538769 363.650890007902 Z M 394.01816737460376 384.8357811170137 L 416.74956640070343 356.3315083187001 L 453.3979171413923 385.55759278082826 L 430.66651811529266 414.0618655791418 L 394.01816737460376 384.8357811170137 Z" fill-opacity="1"/></g></g><g><g><path fill="rgb(0,0,0)" stroke="none" paint-order="stroke fill markers" d=" M 360.40354728988774 413.50222368268913 L 388.90782008820133 390.77082465658947 L 418.1339045503295 427.41917539727837 L 389.6296317520159 450.15057442337803 L 360.40354728988774 413.50222368268913 Z" fill-opacity="1"/></g></g><g><g><path fill="rgb(0,0,0)" stroke="none" paint-order="stroke fill markers" d=" M 321.2528323389913 433.96998202708556 L 354.10065564793365 418.1513040384246 L 374.4389559190692 460.38421972135046 L 341.59113261012686 476.2028977100114 L 321.2528323389913 433.96998202708556 Z" fill-opacity="1"/></g></g><g><g><path fill="rgb(0,0,0)" stroke="none" paint-order="stroke fill markers" d=" M 278.5292028487009 445.2127172808992 L 314.0734496469965 437.09997489707524 L 324.5041184261988 482.7997207805982 L 288.9598716279031 490.91246316442215 L 278.5292028487009 445.2127172808992 Z" fill-opacity="1"/></g></g><g><g><path fill="rgb(0,0,0)" stroke="none" paint-order="stroke fill markers" d=" M 244.79166666666669 451.875005086263 L 239.58333333333337 451.875005086263 L 239.58333333333337 488.3333384195964 L 244.7916666666667 488.3333384195964 L 244.79166666666669 472.7083384195964 L 260.4166666666667 472.7083384195964 L 260.4166666666667 488.3333384195964 L 265.62500000000006 488.3333384195964 L 265.625 451.875005086263 L 260.4166666666667 451.875005086263 L 260.4166666666667 467.500005086263 L 244.79166666666669 467.500005086263 L 244.79166666666669 451.875005086263 Z M 234.37500000000003 446.6666717529297 L 270.83333333333337 446.6666717529297 L 270.83333333333337 493.5416717529297 L 234.37500000000003 493.5416717529297 L 234.37500000000003 446.6666717529297 Z" fill-opacity="1"/></g></g><g><g><path fill="rgb(0,0,0)" stroke="none" paint-order="stroke fill markers" d=" M 220.31183395361006 450.2904668235129 L 194.92308624054175 444.4956508350672 L 193.7641230428526 449.57340037768085 L 214.07512121330726 454.2092531684374 L 211.757194817929 464.3647522536647 L 196.523946190088 460.8878626605973 L 195.36498299239886 465.965612203211 L 210.59823162023986 469.44250179627835 L 208.28030522486156 479.5980008815057 L 187.96930705440693 474.96214809074917 L 186.8103438567178 480.0398976333628 L 212.1990915697861 485.8347136218085 L 220.31183395361006 450.2904668235129 Z M 191.0042998956172 438.25893809476435 L 226.54854669391287 446.3716804785883 L 216.11787791471062 492.0714263621113 L 180.573631116415 483.95868397828735 L 191.0042998956172 438.25893809476435 Z" fill-opacity="1"/></g></g><g><g><path fill="rgb(0,0,0)" stroke="none" paint-order="stroke fill markers" d=" M 176.48735651977148 438.6625282140773 L 153.02462558481264 427.3634725078909 L 150.76481444357535 432.0560186948827 L 169.53499919154243 441.0952632598318 L 155.97613234411875 469.2505403817824 L 160.66867853111052 471.51035152301966 L 176.48735651977148 438.6625282140773 Z M 150.59189053905817 420.41111517966186 L 183.4397138480005 436.22979316832283 L 163.10141357686499 478.46270885124875 L 130.25359026792262 462.6440308625878 L 150.59189053905817 420.41111517966186 Z" fill-opacity="1"/></g></g><g><g><path fill="rgb(0,0,0)" stroke="none" paint-order="stroke fill markers" d=" M 136.34910999209805 417.5742626538768 L 115.98891513615976 401.3375490638057 L 112.74157241814554 405.4095880349933 L 129.02972830289616 418.39895890705026 L 109.54567199481073 442.83119273417617 L 113.6177109659984 446.0785354521904 L 136.34910999209805 417.5742626538768 Z M 115.16421888298635 394.01816737460376 L 143.66849168129994 416.74956640070343 L 114.44240721917181 453.3979171413923 L 85.93813442085823 430.66651811529266 L 115.16421888298635 394.01816737460376 Z" fill-opacity="1"/></g></g><g><g><path fill="rgb(0,0,0)" stroke="none" paint-order="stroke fill markers" d=" M 84.84838381096407 375.0423106682915 L 94.59041196500678 387.2584275818545 L 74.2302171090685 403.4951411719257 L 64.48818895502579 391.2790242583627 L 84.84838381096407 375.0423106682915 Z M 98.66245093619443 384.01108486384027 L 88.92042278215172 371.7949679502773 L 81.60104109294983 370.9702716971039 L 61.24084623701155 387.2069852871751 L 60.41614998383813 394.52636697637695 L 70.15817813788084 406.74248388993993 L 77.47755982708274 407.5671801431133 L 97.83775468302102 391.3304665530422 L 98.66245093619443 384.01108486384027 Z M 86.4977763173109 360.40354728988774 L 109.22917534341056 388.90782008820133 L 72.58082460272166 418.1339045503295 L 49.849425576622004 389.6296317520159 L 86.4977763173109 360.40354728988774 Z" fill-opacity="1"/></g></g><g><g><path fill="rgb(0,0,0)" stroke="none" paint-order="stroke fill markers" d=" M 66.03001797291444 321.2528323389913 L 81.84869596157542 354.10065564793365 L 39.615780278649524 374.4389559190692 L 23.797102289988544 341.59113261012686 L 66.03001797291444 321.2528323389913 Z" fill-opacity="1"/></g></g><g><g><path fill="rgb(0,0,0)" stroke="none" paint-order="stroke fill markers" d=" M 55.50434916493284 305.0769137594583 L 52.02745957186543 289.84366513161734 L 45.79074683156262 285.92487878669283 L 15.324249575880636 292.8786579728276 L 16.483212773569775 297.9564075154413 L 46.94971002925176 291.00262832930645 L 48.1086732269409 296.0803778719201 L 37.953174141713575 298.3983042672984 L 39.11213733940271 303.47605380991206 L 49.26763642463004 301.1581274145338 L 50.42659962231917 306.23587695714747 L 19.960102366637194 313.18965614328226 L 21.119065564326334 318.26740568589594 L 51.58556282000831 311.31362649976114 L 55.50434916493284 305.0769137594583 Z M 54.787282719100816 278.5292028487009 L 62.90002510292478 314.0734496469965 L 17.2002792194018 324.5041184261988 L 9.087536835577836 288.9598716279031 L 54.787282719100816 278.5292028487009 Z" fill-opacity="1"/></g></g><g><g><path fill="rgb(0,0,0)" stroke="none" paint-order="stroke fill markers" d=" M 42.91666158040364 244.79166666666669 L 42.91666158040365 260.4166666666667 L 16.874994913736984 260.4166666666667 L 16.874994913736984 244.7916666666667 L 42.91666158040364 244.79166666666669 Z M 48.124994913736984 260.4166666666667 L 48.12499491373698 244.79166666666669 L 42.91666158040364 239.58333333333337 L 16.874994913736984 239.58333333333337 L 11.666661580403648 244.7916666666667 L 11.666661580403648 260.4166666666667 L 16.874994913736984 265.62500000000006 L 42.91666158040365 265.62500000000006 L 48.124994913736984 260.4166666666667 Z M 53.33332824707031 234.37500000000003 L 53.33332824707032 270.83333333333337 L 6.45832824707032 270.83333333333337 L 6.4583282470703125 234.37500000000003 L 53.33332824707031 234.37500000000003 Z" fill-opacity="1"/></g></g><g><g><path fill="rgb(0,0,0)" stroke="none" paint-order="stroke fill markers" d=" M 34.03438779678905 195.36498299239886 L 30.557498203721636 210.59823162023986 L 20.40199911849431 208.28030522486156 L 23.87888871156172 193.04705659702057 L 34.03438779678905 195.36498299239886 Z M 54.3453859672437 200.0008357831554 L 55.50434916493284 194.92308624054175 L 40.27110053709184 191.44619664747432 L 36.57326256809587 195.94446459124342 L 35.19335099447818 190.2872334497852 L 25.037851909250854 187.96930705440693 L 18.801139168948055 191.88809339933144 L 14.165286378191503 212.1990915697861 L 49.709533176487156 220.31183395361006 L 50.86849637417629 215.2340844109964 L 35.635247746335295 211.757194817929 L 39.11213733940271 196.523946190088 L 54.3453859672437 200.0008357831554 Z M 61.74106190523564 191.0042998956172 L 53.62831952141168 226.54854669391287 L 7.928573637888704 216.11787791471062 L 16.04131602171266 180.573631116415 L 61.74106190523564 191.0042998956172 Z" fill-opacity="1"/></g></g><g><g><path fill="rgb(0,0,0)" stroke="none" paint-order="stroke fill markers" d=" M 61.33747178592262 176.48735651977148 L 72.63652749210902 153.02462558481264 L 67.94398130511726 150.76481444357535 L 58.90473674016813 169.53499919154243 L 30.74945961821753 155.97613234411875 L 28.48964847698025 160.66867853111052 L 61.33747178592262 176.48735651977148 Z M 79.58888482033807 150.59189053905817 L 63.77020683167711 183.43971384800054 L 21.53729114875121 163.10141357686499 L 37.355969137412174 130.25359026792262 L 79.58888482033807 150.59189053905817 Z" fill-opacity="1"/></g></g><g><g><path fill="rgb(0,0,0)" stroke="none" paint-order="stroke fill markers" d=" M 91.34306924699247 116.81361138933319 L 81.60104109294977 129.02972830289616 L 61.240846237011496 112.79301471282497 L 70.9828743910542 100.57689779926201 L 91.34306924699247 116.81361138933319 Z M 82.42573734612319 136.34910999209805 L 95.41510821818014 120.06095410734743 L 94.59041196500671 112.74157241814554 L 74.23021710906843 96.50485882807436 L 66.91083541986654 97.32955508124778 L 53.9214645478096 113.6177109659984 L 82.42573734612319 136.34910999209805 Z M 105.98183262539627 115.16421888298635 L 83.2504335992966 143.66849168129994 L 46.6020828586077 114.44240721917181 L 69.33348188470735 85.93813442085823 L 105.98183262539627 115.16421888298635 Z" fill-opacity="1"/></g></g><g><g><path fill="rgb(0,0,0)" stroke="none" paint-order="stroke fill markers" d=" M 139.5964527101122 86.4977763173109 L 111.09217991179862 109.22917534341056 L 81.86609544967048 72.58082460272166 L 110.37036824798406 49.849425576622004 L 139.5964527101122 86.4977763173109 Z" fill-opacity="1"/></g></g><g><g><path fill="rgb(0,0,0)" stroke="none" paint-order="stroke fill markers" d=" M 178.74716766100866 66.03001797291444 L 145.89934435206632 81.84869596157542 L 125.56104408093077 39.615780278649524 L 158.4088673898731 23.797102289988544 L 178.74716766100866 66.03001797291444 Z" fill-opacity="1"/></g></g><g><g><path fill="rgb(0,0,0)" stroke="none" paint-order="stroke fill markers" d=" M 221.4707971512991 54.787282719100844 L 185.92655035300345 62.900025102924815 L 175.49588157380123 17.200279219401835 L 211.04012837209686 9.087536835577865 L 221.4707971512991 54.787282719100844 Z" fill-opacity="1"/></g></g></g></g></svg>