<svg version="1.1" xmlns="http://www.w3.org/2000/svg" xmlns:xlink="http://www.w3.org/1999/xlink" width="500" height="500" viewBox="0 0 500 500"><defs/><g><g><g><g><path fill="rgb(0,0,0)" stroke="none" paint-order="stroke fill markers" d=" M 231.207275390625 19.34814453125 L 231.207275390625 19.34814453125 Q 231.207275390625 17.08984375 231.646728515625 15.716552734375 Q 232.086181640625 14.34326171875 233.3251953125 13.470458984375 Q 234.564208984375 12.59765625 236.87744140625 12.200927734375 Q 239.190673828125 11.80419921875 243.096923828125 11.80419921875 L 243.096923828125 11.80419921875 Q 248.358154296875 11.80419921875 250.653076171875 13.80615234375 Q 252.947998046875 15.80810546875 252.947998046875 19.6044921875 L 252.947998046875 19.6044921875 Q 252.947998046875 22.65625 250.787353515625 24.8779296875 Q 248.626708984375 27.099609375 245.941162109375 27.099609375 L 245.941162109375 27.099609375 Q 243.316650390625 27.099609375 242.48046875 25.677490234375 Q 241.644287109375 24.25537109375 241.644287109375 21.9970703125 L 241.644287109375 21.9970703125 L 241.644287109375 20.44677734375 Q 241.400146484375 20.69091796875 241.12548828125 21.563720703125 Q 240.850830078125 22.4365234375 240.850830078125 23.40087890625 L 240.850830078125 23.40087890625 Q 240.850830078125 25.3173828125 242.083740234375 26.72119140625 Q 243.316650390625 28.125 246.246337890625 28.30810546875 L 246.246337890625 28.30810546875 Q 248.675537109375 28.30810546875 250.531005859375 27.056884765625 Q 252.386474609375 25.8056640625 253.3935546875 23.736572265625 Q 254.400634765625 21.66748046875 254.400634765625 19.34814453125 L 254.400634765625 19.34814453125 Q 254.400634765625 17.87109375 253.90625 16.754150390625 Q 253.411865234375 15.63720703125 252.55126953125 14.349365234375 Q 251.690673828125 13.0615234375 251.446533203125 12.353515625 L 251.446533203125 12.353515625 Q 252.044677734375 12.353515625 253.521728515625 12.3779296875 Q 254.998779296875 12.40234375 256.256103515625 12.40234375 L 256.256103515625 12.40234375 Q 258.795166015625 12.40234375 260.748291015625 12.353515625 L 260.748291015625 12.353515625 Q 262.884521484375 12.353515625 264.031982421875 13.4033203125 Q 265.179443359375 14.453125 265.56396484375 16.24755859375 Q 265.948486328125 18.0419921875 265.948486328125 20.751953125 L 265.948486328125 20.751953125 L 265.948486328125 43.65234375 Q 265.814208984375 45.32470703125 264.07470703125 47.83935546875 Q 262.335205078125 50.35400390625 257.244873046875 50.35400390625 L 257.244873046875 50.35400390625 Q 254.583740234375 50.35400390625 251.776123046875 49.371337890625 Q 248.968505859375 48.388671875 247.03369140625 46.087646484375 Q 245.098876953125 43.78662109375 245.098876953125 40.14892578125 L 245.098876953125 40.14892578125 Q 245.098876953125 38.96484375 245.648193359375 37.213134765625 Q 246.197509765625 35.46142578125 247.57080078125 34.08203125 Q 248.944091796875 32.70263671875 251.202392578125 32.70263671875 L 251.202392578125 32.70263671875 Q 252.862548828125 32.70263671875 253.64990234375 33.392333984375 Q 254.437255859375 34.08203125 255.1025390625 35.357666015625 Q 255.767822265625 36.63330078125 256.304931640625 37.04833984375 L 256.304931640625 37.04833984375 Q 255.535888671875 34.21630859375 254.26025390625 32.861328125 Q 252.984619140625 31.50634765625 250.897216796875 31.50634765625 L 250.897216796875 31.50634765625 Q 249.615478515625 31.50634765625 247.979736328125 32.40966796875 Q 246.343994140625 33.31298828125 245.1416015625 35.272216796875 Q 243.939208984375 37.2314453125 243.939208984375 40.14892578125 L 243.939208984375 40.14892578125 Q 243.939208984375 42.49267578125 244.580078125 43.9697265625 Q 245.220947265625 45.44677734375 246.185302734375 46.844482421875 Q 247.149658203125 48.2421875 247.149658203125 48.8525390625 L 247.149658203125 48.8525390625 Q 247.149658203125 49.2431640625 246.3623046875 49.798583984375 Q 245.574951171875 50.35400390625 245.098876953125 50.35400390625 L 245.098876953125 50.35400390625 L 236.700439453125 50.35400390625 Q 235.748291015625 50.35400390625 234.423828125 49.554443359375 Q 233.099365234375 48.7548828125 232.1533203125 47.2900390625 Q 231.207275390625 45.8251953125 231.207275390625 43.9453125 L 231.207275390625 43.9453125 L 231.207275390625 19.34814453125 Z" fill-opacity="1"/></g></g><g><g><path fill="rgb(0,0,0)" stroke="none" paint-order="stroke fill markers" d=" M 270.6409938950549 23.225946333364192 L 270.6409938950549 23.225946333364192 Q 271.23039569605817 19.599211359560336 272.10939962826325 17.61490792285231 Q 272.9884035604683 15.630604486144279 274.7214387437269 14.669348222890548 Q 276.4544739269854 13.70809195963681 279.4185240873381 13.695109675211967 Q 282.38257424769074 13.68212739078713 287.4069878160502 14.498674071911232 L 287.4069878160502 14.498674071911232 Q 298.5161228520873 16.304084239768343 297.11996509755136 24.89498801492498 L 297.11996509755136 24.89498801492498 Q 296.5814750800235 28.20845020029395 294.4499165700231 29.377018145587847 Q 292.3183580600228 30.54558609088174 289.24587494268064 30.046258983719525 L 289.24587494268064 30.046258983719525 Q 287.1252591440445 29.70162537250168 285.35505731405163 28.41838134076836 Q 283.5848554840588 27.13513730903504 283.95886127805085 24.833787209378773 L 283.95886127805085 24.833787209378773 Q 284.11355477399525 23.88191989067278 284.3589078771187 23.51367661120275 Q 284.60426098024215 23.145433331732722 285.23217216566957 22.592018131506933 Q 285.86008335109693 22.03860293128114 286.2908448706288 21.366577510676 L 286.2908448706288 21.366577510676 Q 283.43101129593737 21.84171522756425 282.94734935292144 24.81780671769565 L 282.94734935292144 24.81780671769565 Q 282.56942726789276 27.143254724154602 283.6357443966663 28.305922766367683 Q 284.70206152543983 29.468590808580768 287.06056151005697 30.32802090922563 Q 289.41906149467405 31.18745100987049 290.33839054029835 31.732606378453507 Q 291.25771958592264 32.27776174703652 291.0384072878749 33.62724452798679 L 291.0384072878749 33.62724452798679 Q 290.8895882284854 34.54296498648877 289.4999558407877 35.06534231509106 Q 288.11032345309 35.587719643693354 286.08766326776185 36.39060261561879 Q 284.06500308243363 37.19348558754423 282.5837803521915 38.888227606821594 Q 281.10255762194936 40.58296962609896 280.5895234961592 43.739795417250484 L 280.5895234961592 43.739795417250484 Q 281.1450061682779 42.14813324710681 282.3811834993108 40.4012002913033 Q 283.6173608303437 38.65426733549978 285.8342410869126 37.493381932133204 Q 288.0511213434815 36.33249652876661 291.1236044608236 36.831823635928835 L 291.1236044608236 36.831823635928835 Q 291.99112910572023 36.972810113245224 293.1864549666704 37.53190137248626 Q 294.38178082762056 38.09099263172729 295.5289032513428 39.13693739081771 Q 296.676025675065 40.18288214990811 297.31572644737327 41.801823564407144 Q 297.9554272196815 43.42076497890618 297.61079360846367 45.54138077754232 L 297.61079360846367 45.54138077754232 Q 297.20545748617906 48.035514131620054 295.51766565100326 50.01204857089395 Q 293.82987381582745 51.98858301016785 291.6553937681933 52.96466778133192 Q 289.48091372055916 53.940752552495994 287.78201129096993 53.66465403441806 L 287.78201129096993 53.66465403441806 L 273.1786797685438 51.291381666258815 Q 270.082098744399 50.78813826806003 268.85652333066747 48.70296746629259 Q 267.6309479169359 46.61779666452516 267.653654748655 44.042929223760346 Q 267.67636158037413 41.468061782995534 268.2187678889386 38.130501690823884 L 268.2187678889386 38.130501690823884 L 270.6409938950549 23.225946333364192 Z" fill-opacity="1"/></g></g><g><g><path fill="rgb(0,0,0)" stroke="none" paint-order="stroke fill markers" d=" M 309.31425415507675 24.744170338068088 L 309.31425415507675 24.744170338068088 Q 310.26132029864806 21.907360910858003 312.5989976368503 21.20781899389778 Q 314.93667497505254 20.50827707693756 317.7387479602968 21.443746492220235 L 317.7387479602968 21.443746492220235 L 323.8060464903298 23.469308366633946 Q 325.05655840109995 23.886790585024563 325.91304130740696 24.92558256835398 Q 326.769524213714 25.96437455168339 327.0816416338561 27.168902621049398 Q 327.3937590539982 28.373430690415393 327.13089987945597 29.160790041641054 L 327.13089987945597 29.160790041641054 L 323.7253273386955 39.36172516560877 Q 323.32717300078593 40.554343006435865 321.92187681746725 40.947431510148185 Q 320.51658063414857 41.3405200138605 318.98199366605706 41.6775755784778 Q 317.44740669796556 42.01463114309509 315.6248432678565 43.195007340833 Q 313.80227983774734 44.375383538570915 311.98674890213005 47.038080812751446 L 311.98674890213005 47.038080812751446 L 311.52674534668114 48.415959677396344 Q 311.87815448543586 48.13432796567354 313.1739535362632 46.62365998330991 Q 314.46975258709045 45.112992000946285 315.7633501353694 44.187143696507675 Q 317.0569476836484 43.26129539206906 319.05280816613634 42.968846224108304 Q 321.0486686486243 42.67639705614755 323.8275840058913 43.6041353192378 L 323.8275840058913 43.6041353192378 Q 325.3559874523882 44.114391363937436 327.03650789708485 45.40254883407239 Q 328.7170283417815 46.69070630420734 329.5999791088615 48.922313185664024 Q 330.4829298759414 51.15392006712071 329.4856112431194 54.14125407618276 L 329.4856112431194 54.14125407618276 Q 328.5656041322216 56.897011805472566 326.30649036059106 58.82606472202402 Q 324.0473765889605 60.75511763857547 321.25035852440993 61.40426375188485 Q 318.45334045985936 62.05340986519422 316.09126240618235 61.264832341567505 L 316.09126240618235 61.264832341567505 L 303.9566653461163 57.21370859274007 Q 302.2314220618131 56.637737754404874 301.5623389818221 55.21108237390696 Q 300.8932559018312 53.78442699340904 301.0041413925738 51.910350072251696 Q 301.1150268833163 50.03627315109435 301.59259571704837 48.23957045191124 Q 302.07016455078036 46.442867752728134 302.8858011070805 43.99973800113087 L 302.8858011070805 43.99973800113087 L 309.31425415507675 24.744170338068088 Z" fill-opacity="1"/></g></g><g><g><path fill="rgb(0,0,0)" stroke="none" paint-order="stroke fill markers" d=" M 344.67972629868837 37.17584965360772 L 344.67972629868837 37.17584965360772 Q 346.06958441820404 34.527696256573584 348.48920386375255 34.21220303976496 Q 350.90882330930106 33.89670982295633 353.52455033820826 35.26954927162078 L 353.52455033820826 35.26954927162078 L 359.1883559710486 38.24214378029919 Q 360.35570522361877 38.85481593094283 361.03446294864335 40.01754535094777 Q 361.71322067366793 41.180274770952714 361.82807636475695 42.41927167331818 Q 361.9429320558459 43.658268575683636 361.5571755165518 44.39326625322781 L 361.5571755165518 44.39326625322781 L 356.5593591765791 53.91580969317504 Q 355.97505147735416 55.029114998866945 354.5248976801545 55.19168774894546 Q 353.07474388295475 55.35426049902398 351.5059618982188 55.44078622146387 Q 349.93717991348285 55.527311943903754 347.9488725433463 56.400042845624185 Q 345.96056517320966 57.272773747344615 343.7414182060936 59.609758148330506 L 343.7414182060936 59.609758148330506 L 343.06634426232887 60.896004084032796 Q 343.45837964863773 60.67438941906241 344.9797266280845 59.39114497578918 Q 346.5010736075313 58.107900532515956 347.9264359197028 57.40154936009084 Q 349.3517982318743 56.695198187665724 351.368724990921 56.7266946960311 Q 353.38565174996774 56.75819120439648 355.9797612001236 58.11968487249346 L 355.9797612001236 58.11968487249346 Q 357.40652139770935 58.868506389946795 358.85864455428475 60.40955699620393 Q 360.3107677108601 61.95060760246106 360.8243095791773 64.29495102438909 Q 361.3378514474945 66.63929444631714 359.8742457542902 69.42796210523471 L 359.8742457542902 69.42796210523471 Q 358.5240978667607 72.0004539766393 355.98479717595745 73.54213883085319 Q 353.4454964851542 75.08382368506707 350.58056871043675 75.27589027638261 Q 347.7156409357193 75.46795686769816 345.5106479030868 74.31068724981573 L 345.5106479030868 74.31068724981573 L 334.1830366374061 68.36549823245892 Q 332.57252702043434 67.52023758018206 332.14096000753096 66.00472853830618 Q 331.7093929946276 64.48921949643032 332.1194656267366 62.65719866279687 Q 332.52953825884566 60.82517782916342 333.28913408290504 59.12834938636919 Q 334.04872990696447 57.43152094357495 335.2457097568331 55.1508663853129 L 335.2457097568331 55.1508663853129 L 344.67972629868837 37.17584965360772 Z" fill-opacity="1"/></g></g><g><g><path fill="rgb(0,0,0)" stroke="none" paint-order="stroke fill markers" d=" M 368.6072190009905 64.56801362800867 L 368.6072190009905 64.56801362800867 Q 371.10786734211786 61.24025505475924 375.5377474317718 58.66746125773112 Q 379.96762752142575 56.09466746070299 384.7446435389895 55.66086865538742 Q 389.52165955655335 55.22706985007185 393.1081685588439 57.769462275506875 L 393.1081685588439 57.769462275506875 Q 396.34809772693427 60.20411110029947 397.85435774616286 64.244817521676 Q 399.36061776539145 68.28552394305254 398.83525816864983 72.72351480287915 Q 398.30989857190815 77.16150566270576 395.86035658799153 80.66509299622726 L 395.86035658799153 80.66509299622726 Q 395.41539542605193 81.33850841909815 394.52073531573654 82.52908480014341 L 394.52073531573654 82.52908480014341 Q 391.36742509085457 86.72537860218814 388.2510980419202 89.21638373013997 Q 385.1347709929858 91.70738885809178 382.27993669427906 92.60073561262384 Q 379.42510239557225 93.49408236715588 377.0011858494506 93.06214491484732 Q 374.57726930332893 92.63020746253875 372.596228275852 91.14155170521076 L 372.596228275852 91.14155170521076 Q 370.8396401726705 89.82156137851598 369.8085421023777 86.76396241937654 Q 368.77744403208493 83.7063634602371 369.36087504072987 79.83117088262748 Q 369.9443060493748 75.95597830501785 372.7089524558411 72.2769021111321 L 372.7089524558411 72.2769021111321 Q 374.2416078907256 70.23730814688244 376.441331640551 68.90512073840219 Q 378.6410553903765 67.57293332992192 381.0483613589793 67.4884977207727 Q 383.4556673275822 67.40406211162347 385.47574364624097 68.92205098732246 L 385.47574364624097 68.92205098732246 Q 389.95978109579 72.44428078509067 386.5498060851618 76.98213338497627 L 386.5498060851618 76.98213338497627 Q 385.464480705435 78.42643915870329 383.87649097676535 79.58463372834385 Q 382.28850124809577 80.7428282979844 380.92321870033453 81.32017463634928 L 380.92321870033453 81.32017463634928 Q 382.74970476265406 80.98251428131168 384.5146510482201 79.87331210059462 Q 386.27959733378617 78.76410991987755 387.4749219074042 77.17342180421873 L 387.4749219074042 77.17342180421873 Q 388.58224712590925 75.69983956210535 388.92556207327385 74.06441531908976 Q 389.26887702063846 72.42899107607417 388.5843819064698 70.76941949793249 Q 387.8998867923012 69.10984791979081 386.0261928155742 67.70185823798303 L 386.0261928155742 67.70185823798303 Q 383.62546575790816 65.9589065881269 381.0522598017826 65.91867644419939 Q 378.479053845657 65.87844630027189 376.12056511295543 67.28983208774017 Q 373.7620763802538 68.70121787520846 371.93608976165933 71.13116475127623 L 371.93608976165933 71.13116475127623 Q 370.3081016920691 73.29762341186677 369.2875012040227 76.02739020453602 Q 368.26690071597636 78.75715699720527 368.0687784608662 81.78431816327331 Q 367.87065620575606 84.81147932934135 368.641932700368 87.66620032807884 L 368.641932700368 87.66620032807884 Q 367.3342504457773 86.6835408626505 366.0434955466892 84.5607598985643 Q 364.7527406476012 82.43797893447808 364.195313707788 79.33931569084659 Q 363.63788676797475 76.24065244721508 364.60089736898726 72.42928876766835 Q 365.5639079699998 68.61792508812162 368.6072190009905 64.56801362800867 L 368.6072190009905 64.56801362800867 Z" fill-opacity="1"/></g></g><g><g><path fill="rgb(0,0,0)" stroke="none" paint-order="stroke fill markers" d="" fill-opacity="1"/></g></g><g><g><path fill="rgb(0,0,0)" stroke="none" paint-order="stroke fill markers" d=" M 425.12663733488125 100.06906611388234 L 425.12663733488125 100.06906611388234 Q 428.48970987472035 97.80703534665616 432.58505331457724 98.32498634253956 Q 436.6803967544341 98.84293733842296 440.28627649442683 104.06695601841199 L 440.28627649442683 104.06695601841199 Q 442.1932321261537 106.82965820494465 442.5790915215761 109.44085270318922 Q 442.9649509169985 112.05204720143378 441.90999692228917 114.24124534566005 Q 440.8550429275799 116.4304434898863 438.5544654704309 118.01841745230615 L 438.5544654704309 118.01841745230615 Q 435.8419942327443 119.89070116345621 433.5715250566336 120.09328912343663 Q 431.30105588052294 120.29587708341705 429.6669248651802 119.54008979138023 Q 428.0327938498374 118.78430249934338 426.4136931323984 117.49158148349997 Q 424.7945924149594 116.19886046765656 424.43657881776784 116.0454978738492 L 424.43657881776784 116.0454978738492 L 426.3364267214178 118.36812668499815 Q 428.43489275806735 119.9900186156101 429.8267623877568 120.63120652730103 Q 431.2186320174462 121.27239443899195 432.4264327669053 121.31383609820337 Q 433.6342335163643 121.35527775741478 436.12211731812835 121.09161521403063 L 436.12211731812835 121.09161521403063 Q 434.107617843248 124.0395520032938 433.9632091845561 126.83877231744185 Q 433.8188005258642 129.63799263158987 435.71188738936036 132.38060243858413 L 435.71188738936036 132.38060243858413 Q 436.84219200016577 134.0181313709653 437.60080498647187 134.2361311106956 L 437.60080498647187 134.2361311106956 Q 434.11974416055585 129.19294384655234 435.3636341833801 125.49389617221382 Q 436.6075242062043 121.79484849787531 440.1437830049661 119.35394528926487 L 440.1437830049661 119.35394528926487 Q 442.5950533086533 117.66195556511445 444.9802952090714 117.64713340509518 Q 447.36553710948954 117.6323112450759 449.4150203989468 118.94686258572693 Q 451.4645036884042 120.26141392637798 453.0108713461318 122.50171424491174 L 453.0108713461318 122.50171424491174 Q 455.1119897330891 125.54570974498228 455.12631345101227 128.84350364111003 Q 455.14063716893537 132.1412975372378 453.3813360459391 135.06141011805872 Q 451.6220349229429 137.98152269887964 448.60817799218 140.0618379334908 L 448.60817799218 140.0618379334908 Q 445.5943210614171 142.14215316810197 441.1761472783494 143.64920278656052 Q 436.7579734952817 145.1562524050191 432.15711339084896 145.62503829844135 Q 427.5562532864162 146.0938241918636 423.8166177813663 145.16718659155796 Q 420.0769822763163 144.24054899125233 418.29484555866605 141.65867822056543 L 418.29484555866605 141.65867822056543 Q 417.34483493486033 140.2823502221837 417.1631757859568 138.78356535582145 Q 416.9815166370533 137.2847804894592 417.26668891276415 135.96807524059653 Q 417.5518611884751 134.65136999173387 418.09752362537773 133.1103634183332 Q 418.6431860622804 131.56935684493254 418.695375985588 131.2366797513563 L 418.695375985588 131.2366797513563 Q 417.9599671844741 130.98783066951069 416.3573875855736 131.13730560266427 Q 414.7548079866731 131.28678053581788 413.8469236994442 131.26081123289487 Q 412.9390394122153 131.23484192997188 411.683148730814 130.52204350149265 Q 410.4272580494128 129.8092450730134 409.1652001404153 127.98083853501723 L 409.1652001404153 127.98083853501723 Q 406.97393475995824 124.80624256794698 407.7517041309757 120.96912261364723 Q 408.5294735019932 117.13200265934748 411.31615572871806 113.25058506329775 Q 414.1028379554429 109.36916746724802 417.7913542020505 105.97770750750493 Q 421.4798704486581 102.58624754776186 425.12663733488125 100.06906611388234 L 425.12663733488125 100.06906611388234 Z" fill-opacity="1"/></g></g><g><g><path fill="rgb(0,0,0)" stroke="none" paint-order="stroke fill markers" d=" M 441.1960176555656 140.92765335950662 L 441.1960176555656 140.92765335950662 Q 444.95671831721285 139.14317870815847 450.0748192298875 138.92375086485424 Q 455.19292014256223 138.70432302154998 459.6243541167911 140.5402032920483 Q 464.0557880910199 142.37608356254663 466.0499754256293 146.29399409533113 L 466.0499754256293 146.29399409533113 Q 467.7873525055343 149.95543872778532 467.243269610321 154.2333005105474 Q 466.69918671510777 158.5111622933095 464.1715667046583 162.19666126367542 Q 461.64394669420875 165.88216023404135 457.8467867652928 167.8460738290901 L 457.8467867652928 167.8460738290901 Q 457.1398414718519 168.23556981042609 455.7943708539019 168.87400355665622 L 455.7943708539019 168.87400355665622 Q 451.0521383480125 171.12422085894275 447.13513997998837 171.88166696811413 Q 443.21814161196426 172.63911307728554 440.27515244243176 172.1034246931293 Q 437.3321632728992 171.5677363089731 435.3866231044166 170.05882450303815 Q 433.44108293593405 168.54991269710322 432.37877104671503 166.31113781641588 L 432.37877104671503 166.31113781641588 Q 431.4368196178509 164.32601723255516 431.94476470559977 161.1394726442395 Q 432.4527097933486 157.95292805592382 434.77020408245346 154.79274934651897 Q 437.08769837155825 151.6325706371141 441.2454231499776 149.6597056999931 L 441.2454231499776 149.6597056999931 Q 443.5503687167937 148.56599542981198 446.1172257240748 148.4086646603127 Q 448.68408273135594 148.25133389081338 450.8548854909635 149.29530073772153 Q 453.02568825057114 150.33926758462968 454.1089323937649 152.62215625606947 L 454.1089323937649 152.62215625606947 Q 456.44248856843683 157.8247719613561 451.3142603934633 160.25814648592177 L 451.3142603934633 160.25814648592177 Q 449.6820501356223 161.03263988298784 447.7377152074492 161.32019461967462 Q 445.79338027927605 161.60774935636144 444.3161763989089 161.48448571422384 L 444.3161763989089 161.48448571422384 Q 446.09036807982784 162.03431271480645 448.16862235919723 161.87237439653796 Q 450.2468766385667 161.71043607826948 452.04451361172937 160.85744672879807 L 452.04451361172937 160.85744672879807 Q 453.70980921263475 160.06725414125094 454.773819043327 158.77870430212275 Q 455.8378288740193 157.49015446299455 456.0029799186762 155.70257606842128 Q 456.16813096333306 153.914997673848 455.16338277254465 151.79753571772994 L 455.16338277254465 151.79753571772994 Q 453.84763455282564 149.13855518349274 451.5878697138253 147.90710472588665 Q 449.32810487482493 146.67565426828054 446.5838631348893 146.82932995322506 Q 443.8396213949537 146.98300563816957 441.0935379206131 148.28603844809828 L 441.0935379206131 148.28603844809828 Q 438.64522253385155 149.44777854369738 436.4729397990973 151.39057030270007 Q 434.300657064343 153.33336206170276 432.71843658035687 155.92170815397384 Q 431.13621609637073 158.51005424624492 430.4924925181363 161.39621421523466 L 430.4924925181363 161.39621421523466 Q 429.7912620099819 159.91840222502725 429.63486081012724 157.43892931819994 Q 429.4784596102726 154.95945641137263 430.42490317922943 151.95667715517635 Q 431.3713467481863 148.9538978989801 433.99527930659207 146.02663630418397 Q 436.61921186499785 143.0993747093878 441.1960176555656 140.92765335950662 L 441.1960176555656 140.92765335950662 Z" fill-opacity="1"/></g></g><g><g><path fill="rgb(0,0,0)" stroke="none" paint-order="stroke fill markers" d=" M 467.5818296959682 170.7411642192898 L 467.5818296959682 170.7411642192898 Q 469.2819655136751 170.24871387422283 470.82316479859827 170.54576477646896 Q 472.3643640835214 170.84281567871506 473.50897231816487 171.5915237429578 Q 474.65358055280825 172.34023180720055 475.3709917877617 173.19361579348364 Q 476.0884030227151 174.04699977976674 476.24462864942603 174.586353211591 L 476.24462864942603 174.586353211591 L 479.956685388448 187.4018597547195 Q 480.4763054077256 189.19579616926544 479.67244691741257 191.7734099655764 Q 478.86858842709955 194.35102376188738 476.648503697715 196.64622296624668 Q 474.42841896833045 198.94142217060596 470.9460718106825 199.95009632567417 L 470.9460718106825 199.95009632567417 Q 466.0449906258447 201.36971180317755 462.75635456556176 199.1641403979796 Q 459.4677185052788 196.95856899278166 458.16697035244675 192.46786541911447 L 458.16697035244675 192.46786541911447 Q 457.5216905899452 190.2401012441882 457.80252866919767 188.6209908696952 Q 458.0833667484501 187.0018804952022 458.84784272802307 186.04333700746088 Q 459.61231870759605 185.08479351971954 460.83039313768165 184.13466042332237 Q 462.04846756776726 183.18452732692518 462.3406244857156 182.83301827265677 L 462.3406244857156 182.83301827265677 Q 458.0434247089522 184.31918454094188 457.18126416133936 187.00264732442125 Q 456.31910361372644 189.68611010790062 457.30060809458405 193.07465666870954 L 457.30060809458405 193.07465666870954 Q 457.48400339550557 193.7078106973728 457.9316563885313 195.07778466364277 Q 458.379309381557 196.44775862991273 458.6340250772813 197.3271392252784 L 458.6340250772813 197.3271392252784 Q 458.6761529833419 198.30622302070879 457.75613668026153 200.06599283036806 Q 456.83612037718115 201.82576264002734 455.050389841856 203.44867127719894 Q 453.2646593065308 205.07157991437057 450.8258437887168 205.77799144384593 L 450.8258437887168 205.77799144384593 Q 449.45401005994637 206.17534792917584 448.10287829672734 205.81053449926551 Q 446.7517465335083 205.4457210693552 445.75475320461493 204.48268704488729 Q 444.7577598757216 203.51965302041938 444.38417685532596 202.2298948138831 L 444.38417685532596 202.2298948138831 L 442.6894684264404 196.3790825860504 Q 442.3566399173606 195.23002527477266 442.7498361525329 193.8452547345149 Q 443.14303238770526 192.46048419425713 443.99265678306415 191.40102437539966 Q 444.84228117842304 190.34156455654215 445.7099366991838 190.0902450700942 L 445.7099366991838 190.0902450700942 Q 448.5474047535636 189.2683624252238 451.74276525651766 191.87586098432493 L 451.74276525651766 191.87586098432493 Q 450.5751131085735 189.8629478091339 448.7734157224703 189.17112555318514 Q 446.9717183363671 188.47930329723638 445.0839813249822 189.02609299072452 L 445.0839813249822 189.02609299072452 Q 444.07562490896294 189.31816698848837 443.1278337603151 190.12646758459127 Q 442.1800426116674 190.93476818069414 441.53581013984825 191.2992955724655 L 441.53581013984825 191.2992955724655 Q 441.21567665254696 190.41344587427173 440.8660688208712 189.49165272887538 Q 440.5164609891954 188.56985958347903 440.2546696251173 187.8196164666293 Q 439.9928782610392 187.06937334977954 439.8536336807099 186.58864529097966 L 439.8536336807099 186.58864529097966 Q 439.16759940689246 184.22018022079487 439.50487978094435 182.44492435143766 Q 439.84216015499624 180.66966848208045 441.8638070372559 179.1372858244104 Q 443.88545391951556 177.60490316674037 448.09475570266574 176.3856640365401 L 448.09475570266574 176.3856640365401 L 467.5818296959682 170.7411642192898 Z" fill-opacity="1"/></g></g><g><g><path fill="rgb(0,0,0)" stroke="none" paint-order="stroke fill markers" d=" M 478.93505674804624 207.02199010625108 L 478.93505674804624 207.02199010625108 Q 481.9039736688717 206.66149832570233 483.5381200036254 208.4735855166895 Q 485.1722663383791 210.28567270767667 485.5283439338599 213.21823554375734 L 485.5283439338599 213.21823554375734 L 486.2993549257274 219.5680823458494 Q 486.4582655881734 220.87682939666226 485.8869363702674 222.09594164670017 Q 485.31560715236134 223.31505389673805 484.3611781608914 224.1134087389533 Q 483.4067491694215 224.91176358116851 482.58272324853937 225.0118184427086 L 482.58272324853937 225.0118184427086 L 471.90674036181593 226.30811745766147 Q 470.6585834522444 226.45967114499422 469.70100745236834 225.35856981493316 Q 468.74343145249225 224.25746848487213 467.78105243810404 223.01553843493335 Q 466.8186734237158 221.7736083849946 464.9709426496927 220.633031157585 Q 463.12321187566965 219.4924539301754 459.9392922589791 218.99369023205276 L 459.9392922589791 218.99369023205276 L 458.4972468974353 219.16878623974787 Q 458.9023336735845 219.3655335590111 460.8226467329657 219.8886116478597 Q 462.74295979234694 220.4116897367083 464.1339734917717 221.18348672281138 Q 465.5249871911965 221.95528370891446 466.64481106153295 223.6330739463466 Q 467.76463493186947 225.31086418377876 468.11776973730497 228.2191909633629 L 468.11776973730497 228.2191909633629 Q 468.3119938802945 229.81877069213417 467.8686340679817 231.88926114362962 Q 467.42527425566885 233.95975159512506 465.7876424746696 235.71412711943938 Q 464.15001069367037 237.4685026437537 461.0235594056174 237.8481225595969 L 461.0235594056174 237.8481225595969 Q 458.1394686825298 238.19831457498714 455.42819971742375 236.9842878920517 Q 452.7169307523177 235.77026120911626 450.9313985757399 233.52157813312436 Q 449.1458663991621 231.27289505713247 448.84570181454194 228.80081729448597 L 448.84570181454194 228.80081729448597 L 447.3036798308068 216.10112369030188 Q 447.0844419724323 214.29553748131005 448.0865234566296 213.07945753259668 Q 449.0886049408269 211.8633775838833 450.8292763347887 211.1601542930894 Q 452.56994772875044 210.45693100229548 454.3979097697719 210.11815769049446 Q 456.22587181079336 209.7793843786934 458.7827757711778 209.46892002891468 L 458.7827757711778 209.46892002891468 L 478.93505674804624 207.02199010625108 Z" fill-opacity="1"/></g></g><g><g><path fill="rgb(0,0,0)" stroke="none" paint-order="stroke fill markers" d=" M 480.1862029486818 243.76678253931263 L 480.1862029486818 243.76678253931263 Q 483.5648083258 243.9029356815283 485.3300334396145 245.42177911817 Q 487.095258553429 246.9406225548117 487.57448725078837 248.99405518958466 Q 488.05371594814767 251.0474878243576 487.9593426510162 253.38933703882222 L 487.9593426510162 253.38933703882222 Q 487.7022737218509 259.7684367219732 484.8722019626741 264.05859531410033 Q 482.0421302034973 268.34875390622744 477.6873626753096 270.3051186662695 Q 473.3325951471218 272.26148342631154 468.5879110615659 272.0702791941025 L 468.5879110615659 272.0702791941025 Q 465.4410511796291 271.94346507608213 462.0897255837129 271.1303711453103 Q 458.73839998779675 270.3172772145384 455.8451859901832 268.74686891023066 Q 452.95197199256967 267.17646060592284 451.2326136499425 264.8226052010848 Q 449.5132553073154 262.46874979624675 449.6371202598004 259.395072702262 L 449.6371202598004 259.395072702262 Q 449.7423071638948 256.78488659863996 451.1883046347844 254.70519394290477 Q 452.634302105674 252.6255012871696 454.96382689484534 251.5099009451466 Q 457.29335168401667 250.39430060312358 459.9035377876387 250.49948750721802 L 459.9035377876387 250.49948750721802 Q 462.98941201294883 250.62384398729225 464.68371174216554 251.93214126207326 Q 466.3780114713822 253.24043853685427 466.9932200182878 254.9511682047474 Q 467.60842856519344 256.6618978726405 467.717010163711 258.21171637154475 Q 467.8255917622286 259.761534870449 467.8965352646078 260.72953199345363 L 467.8965352646078 260.72953199345363 Q 468.5166776746857 258.983066692795 468.5741864026252 257.5560023277306 L 468.5741864026252 257.5560023277306 Q 468.66511900663204 255.29953303254337 467.6235479201315 253.40669286234066 Q 466.581976833631 251.513852692138 464.5087832127424 250.36132366444028 Q 462.43558959185384 249.20879463674257 459.6546436496771 249.09672634639898 L 459.6546436496771 249.09672634639898 Q 457.7762854255753 249.02103109765815 456.29149398019814 249.48652443394047 Q 454.80670253482106 249.9520177702228 453.36638504262885 250.98128254921133 Q 451.9260675504367 252.01054732819986 449.8583076749522 253.90636360586052 L 449.8583076749522 253.90636360586052 Q 449.59663381967067 252.82072785950024 449.6443119958256 251.6376061209426 L 449.6443119958256 251.6376061209426 Q 449.65758324073477 251.3082835751585 449.7060623552575 250.7116071953955 Q 449.75454146978024 250.11493081563245 449.76732118710015 249.7978054011737 L 449.76732118710015 249.7978054011737 Q 449.90052516378046 246.4923828120075 451.25097534140826 244.96471046603978 Q 452.60142551903607 243.43703812007206 454.4955126259931 243.12242516640214 Q 456.3895997329502 242.80781221273222 459.353502645007 242.9272534169142 L 459.353502645007 242.9272534169142 L 480.1862029486818 243.76678253931263 Z" fill-opacity="1"/></g></g><g><g><path fill="rgb(0,0,0)" stroke="none" paint-order="stroke fill markers" d="" fill-opacity="1"/></g></g><g><g><path fill="rgb(0,0,0)" stroke="none" paint-order="stroke fill markers" d="" fill-opacity="1"/></g></g><g><g><path fill="rgb(0,0,0)" stroke="none" paint-order="stroke fill markers" d=" M 459.1467285706417 349.0509508163312 L 459.1467285706417 349.0509508163312 Q 461.10247441659044 350.1801012069562 462.07205276041066 351.24732428479115 Q 463.0416311042308 352.3145473626261 463.1779936087546 353.8239660452936 Q 463.3143561132784 355.33338472796106 462.50131687527784 357.5350670279751 Q 461.6882776372773 359.7367493279892 459.7351526372773 363.11966106152215 L 459.7351526372773 363.11966106152215 Q 457.1045374029023 367.67602030262435 454.2233342019666 368.66250438357497 Q 451.34213100103096 369.6489884645256 448.0543636600036 367.7507951051506 L 448.0543636600036 367.7507951051506 Q 445.411463868181 366.2249161989006 444.5677550853591 363.2429033025402 Q 443.72404630253726 360.2608904061798 445.06681974003726 357.93513858937587 L 445.06681974003726 357.93513858937587 Q 446.37907559941226 355.66224476840836 448.0287577227141 355.6491497957615 Q 449.6784398460159 355.6360548231146 451.63418569196466 356.7652052137396 L 451.63418569196466 356.7652052137396 L 452.97677878621056 357.5403516981146 Q 452.88741711536477 357.20684940226874 452.268876876466 356.5325870538172 Q 451.65033663756725 355.8583247053657 450.81518030335127 355.3761469709907 L 450.81518030335127 355.3761469709907 Q 449.15543923408666 354.4178950178657 447.32325025172327 354.78372223688706 Q 445.4910612693599 355.14954945590836 443.8676435318505 357.5951805216831 L 443.8676435318505 357.5951805216831 Q 442.6530439224755 359.6989287559739 442.8088984621228 361.93142218096455 Q 442.96475300177 364.16391560595525 444.2530990215633 366.0706184356942 Q 445.54144504135655 367.97732126543315 447.5500488831417 369.13698923418315 L 447.5500488831417 369.13698923418315 Q 448.8292123823839 369.87551462480815 450.0437060890035 370.0058365382204 Q 451.25819979562306 370.13615845163264 452.80380135933467 370.03478160877614 Q 454.34940292304634 369.93340476591965 455.0846259872492 370.07597668882386 L 455.0846259872492 370.07597668882386 Q 454.7855537216242 370.59398504802107 454.0258851326646 371.86094151601327 Q 453.266216543705 373.1278979840054 452.63755443433 374.2167726982363 L 452.63755443433 374.2167726982363 Q 451.36802318433 376.41566532503276 450.4337470809992 378.13153525429925 L 450.4337470809992 378.13153525429925 Q 449.3656318466242 379.98156510857507 447.8827438494872 380.4503930865504 Q 446.39985585235024 380.9192210645257 444.653570032571 380.35500964142034 Q 442.9072842127918 379.790798218315 440.5603891976533 378.435817749565 L 440.5603891976533 378.435817749565 L 420.7280691598163 366.985622437065 Q 419.34689874577253 366.0331532055998 418.03890029387316 363.2693761055109 Q 416.73090184197383 360.505599005422 419.27606785759883 356.09724215266186 L 419.27606785759883 356.09724215266186 Q 420.60663426384883 353.79263353419253 422.8614565905657 351.8524987335282 Q 425.1162789172826 349.9123639328639 428.0764325868794 349.38727816016086 Q 431.03658625647614 348.8621923874578 434.1869228083287 350.6810400437078 L 434.1869228083287 350.6810400437078 Q 435.2123679275559 351.2730810593328 436.45473420493704 352.62465751404835 Q 437.69710048231826 353.97623396876395 438.20504568040957 355.8552361407091 Q 438.71299087850093 357.7342383126543 437.58384048787593 359.68998415860307 L 437.58384048787593 359.68998415860307 Q 436.75376236287593 361.12772164535454 435.7627902521115 361.4647411588323 Q 434.77181814134707 361.80176067231 433.33444442680275 361.7400954441149 Q 431.89707071225837 361.6784302159197 431.2690816530705 361.93606104803047 L 431.2690816530705 361.93606104803047 Q 434.1062141442569 362.68606592549116 435.91747903463863 362.25882404688434 Q 437.72874392502035 361.83158216827746 438.77244509689535 360.0238387106708 L 438.77244509689535 360.0238387106708 Q 439.41331423752035 358.9138207981053 439.4488869928909 357.04556635343835 Q 439.4844597482614 355.17731190877146 438.38891437097374 353.15639513298083 Q 437.2933689936861 351.1354783571902 434.7667567927037 349.6767381228152 L 434.7667567927037 349.6767381228152 Q 432.7370097525839 348.5048631228152 431.13741168302926 348.32134668847294 Q 429.5378136134746 348.13783025413073 427.84518777444487 348.27413404928416 Q 426.15256193541506 348.4104378444376 425.62398197705056 348.1052620631876 L 425.62398197705056 348.1052620631876 Q 425.28569080369726 347.9099495631876 425.198359799398 346.9503714559599 Q 425.11102879509883 345.99079334873215 425.34906590447383 345.5785009812078 L 425.34906590447383 345.5785009812078 L 429.54828465447383 338.30524075411194 Q 430.02435887322383 337.48065601906325 431.37903006399387 336.73341778284976 Q 432.7337012547639 335.9861795466362 434.47531561577625 335.8993024861712 Q 436.2169299767886 335.8124254257062 437.84495624855134 336.7523668319562 L 437.84495624855134 336.7523668319562 L 459.1467285706417 349.0509508163312 Z" fill-opacity="1"/></g></g><g><g><path fill="rgb(0,0,0)" stroke="none" paint-order="stroke fill markers" d=" M 436.07159444695475 381.26265190579494 L 436.07159444695475 381.26265190579494 Q 438.91773816656075 383.586456325402 440.19669338546413 385.33984777907204 Q 441.4756486043675 387.09323923274206 441.4416033562629 389.07471985872303 Q 441.40755810815824 391.05620048470405 439.93677601609295 393.6296343638732 Q 438.4659939240277 396.20306824304237 435.2466369706186 400.14606469179887 L 435.2466369706186 400.14606469179887 Q 428.1285383829851 408.8641527631502 421.3866763494998 403.3595927924531 L 421.3866763494998 403.3595927924531 Q 418.7863789312551 401.23651566490514 418.84014865958255 398.80624787294494 Q 418.89391838791005 396.3759800809848 420.86258990618177 393.9647952022488 L 420.86258990618177 393.9647952022488 Q 422.2213592678125 392.3006048545722 424.21778211354473 391.40918711583936 Q 426.21420495927697 390.5177693771065 428.0202297115851 391.99234294569436 L 428.0202297115851 391.99234294569436 Q 428.7672242426445 392.60224510233536 428.9634557258767 392.9988487622727 Q 429.1596872091089 393.3954524222099 429.3250032386312 394.21594706022336 Q 429.4903192681535 395.0364416982368 429.85692959462057 395.7455048274267 L 429.85692959462057 395.7455048274267 Q 430.87536504884486 393.03124744270417 428.5398251859124 391.1243381681429 L 428.5398251859124 391.1243381681429 Q 426.71488917965337 389.6343240386274 425.17483055454176 389.97644773952925 Q 423.63477192943014 390.31857144043107 421.7112336371861 391.9313772916123 Q 419.7876953449421 393.5441831427935 418.8559124239276 394.0677677664495 Q 417.9241295029131 394.59135239010556 416.86509928166436 393.72668097815875 L 416.86509928166436 393.72668097815875 Q 416.14647163153126 393.1399396629091 416.3888957884495 391.67529404894015 Q 416.6313199453677 390.2106484349712 416.9473329880784 388.0575318452909 Q 417.26334603078914 385.9044152556106 416.53626775435504 383.7742677329193 Q 415.809189477921 381.644120210228 413.331815210357 379.6214067287096 L 413.331815210357 379.6214067287096 Q 414.4324937478847 380.8982999191983 415.3272934008023 382.842327369357 Q 416.2220930537199 384.7863548195157 416.1190091756335 387.2866721405358 Q 416.0159252975471 389.7869894615559 414.0472537792753 392.19817434029187 L 414.0472537792753 392.19817434029187 Q 413.4913935858809 392.8789794825232 412.4095434218693 393.6346164142861 Q 411.3276932578576 394.3902533460489 409.84831731366904 394.8607181266979 Q 408.36894136948047 395.33118290734694 406.64704659113147 395.07570931973686 Q 404.9251518127824 394.82023573212683 403.2609614651058 393.46146637049617 L 403.2609614651058 393.46146637049617 Q 401.30364668119074 391.86336831448733 400.43581356291264 389.41343048928815 Q 399.5679804446345 386.963492664089 399.80990626037635 384.59229531723344 Q 400.0518320761182 382.2210979703778 401.14039162151556 380.88785456684144 L 401.14039162151556 380.88785456684144 L 410.4973715436542 369.4276346726139 Q 412.48148362285355 366.99753853992706 414.9000822152795 366.97874449826566 Q 417.3186808077054 366.95995045660425 419.5372280069256 368.26704887009487 Q 421.7557752061458 369.5741472835855 424.37498387834137 371.7126649720611 L 424.37498387834137 371.7126649720611 L 436.07159444695475 381.26265190579494 Z" fill-opacity="1"/></g></g><g><g><path fill="rgb(0,0,0)" stroke="none" paint-order="stroke fill markers" d=" M 415.42014376023496 413.99556573578906 L 415.42014376023496 413.99556573578906 Q 417.40335971810845 416.23415378879105 416.8403421201069 418.60841270800546 Q 416.27732452210546 420.9826716272199 414.06614775138513 422.9416033080582 L 414.06614775138513 422.9416033080582 L 409.27831044618915 427.1832570302039 Q 408.2915042840495 428.05749100347055 406.9636425840851 428.2798309665749 Q 405.63578088412066 428.5021709296792 404.4365702664072 428.17020850980293 Q 403.2373596486938 427.83824608992666 402.6869160358963 427.21692369154243 L 402.6869160358963 427.21692369154243 L 395.5554333465635 419.16714379482926 Q 394.7216731683555 418.2260231031591 395.08389662986434 416.81245665670764 Q 395.4461200913732 415.3988902102562 395.92151489397344 413.90137112926374 Q 396.39690969657374 412.4038520482713 396.2859556383648 410.23527771891935 Q 396.1750015801558 408.0667033895674 394.7768035659365 405.16305884087603 L 394.7768035659365 405.16305884087603 L 393.8135272435409 404.0757446437037 Q 393.8817228910267 404.5208897408487 394.54210021502377 406.3984186282467 Q 395.2024775390208 408.2759475156447 395.3574869165759 409.85916000694687 Q 395.51249629413104 411.44237249824903 394.76783446165666 413.3170629624734 Q 394.02317262918234 415.19175342669786 391.8302700466498 417.13449558951265 L 391.8302700466498 417.13449558951265 Q 390.62417362625695 418.20300377906085 388.66833631069704 419.0142984406798 Q 386.71249899513714 419.8255931022987 384.3383953609955 419.4744474561526 Q 381.96429172685384 419.12330181000647 379.8758439018279 416.765931533784 L 379.8758439018279 416.765931533784 Q 377.9492912570365 414.5913031394393 377.4082393118738 411.6703267648922 Q 376.86718736671105 408.74935039034517 377.7035193740925 406.0024886349457 Q 378.5398513814739 403.2556268795462 380.4038185766266 401.6042960411536 L 380.4038185766266 401.6042960411536 L 389.9794931870186 393.12098859686216 Q 391.3409202070075 391.9148695041146 392.91098154895997 392.0487542498491 Q 394.48104289091236 392.18263899558355 396.04859836790945 393.2157071080564 Q 397.61615384490653 394.2487752205293 398.9333596085812 395.56071331218845 Q 400.25056537225583 396.8726514038476 401.9585595237305 398.8005782576575 L 401.9585595237305 398.8005782576575 L 415.42014376023496 413.99556573578906 Z" fill-opacity="1"/></g></g><g><g><path fill="rgb(0,0,0)" stroke="none" paint-order="stroke fill markers" d=" M 386.9712575894703 438.40712337121784 L 386.9712575894703 438.40712337121784 Q 388.5696966446621 440.9348525088916 387.6331120623658 443.1880510246317 Q 386.6965274800695 445.4412495403718 384.19975012775507 447.02011587243885 L 384.19975012775507 447.02011587243885 L 378.79350495166926 450.4388181782368 Q 377.67924067873554 451.1434362107295 376.3329086007714 451.1498929336132 Q 374.9865765228073 451.156349656497 373.8561458846041 450.63631915156657 Q 372.72571524640085 450.1162886466361 372.2820668555721 449.4147148451593 L 372.2820668555721 449.4147148451593 L 366.53421049792325 440.32520721132045 Q 365.86221367063854 439.26252924731887 366.4464984377073 437.92537284451015 Q 367.03078320477607 436.5882164417015 367.7402407234303 435.1863485287009 Q 368.44969824208454 433.7844806157002 368.68804479559526 431.62619047176986 Q 368.9263913491059 429.4679003278395 368.01207697316227 426.37757047909287 L 368.01207697316227 426.37757047909287 L 367.23569228921195 425.1498163265085 Q 367.23159852577305 425.6001362627196 367.5822473231895 427.55928361652786 Q 367.93289612060596 429.5184309703361 367.83193302383324 431.10600652848615 Q 367.7309699270606 432.6935820866361 366.6952297711623 434.42454364336055 Q 365.659489615264 436.1555052000849 363.1833467865224 437.72132305006875 L 363.1833467865224 437.72132305006875 Q 361.8214682307145 438.5825228675598 359.76081767889076 439.0695731074492 Q 357.700167127067 439.5566233473385 355.41313523432376 438.8291919402441 Q 353.1261033415806 438.1017605331497 351.442849152848 435.4399069922525 L 351.442849152848 435.4399069922525 Q 349.8900797849474 432.98439868708374 349.8245918819701 430.01445735389376 Q 349.7591039789928 427.04451602070384 351.025233319054 424.46738249213314 Q 352.2913626591151 421.89024896356244 354.3960840635455 420.5593037910762 L 354.3960840635455 420.5593037910762 L 365.20857441571707 413.7218991794803 Q 366.74584642189416 412.7497872642821 368.2740992582753 413.1337937886103 Q 369.80235209465656 413.51780031293856 371.18389236079094 414.78894404655847 Q 372.5654326269253 416.0600877801784 373.65513125221946 417.5663312818195 Q 374.7448298775135 419.07257478346065 376.1214447372909 421.24951702039596 L 376.1214447372909 421.24951702039596 L 386.9712575894703 438.40712337121784 Z" fill-opacity="1"/></g></g><g><g><path fill="rgb(0,0,0)" stroke="none" paint-order="stroke fill markers" d=" M 351.28520137185905 445.4328579130778 L 351.28520137185905 445.4328579130778 Q 352.91680066339086 449.2623621890502 352.92996540548927 454.3851477809235 Q 352.9431301475877 459.50793337279674 350.93030292434037 463.86185000094997 Q 348.9174757010931 468.2157666291032 344.922444773132 470.0505783232708 L 344.922444773132 470.0505783232708 Q 341.1940124575225 471.63911487690297 336.9415280377612 470.9232211075715 Q 332.6890436179999 470.20732733824 329.10831058999776 467.5333571514265 Q 325.5275775619956 464.859386964613 323.7181529187469 460.9862277121439 L 323.7181529187469 460.9862277121439 Q 323.3574386362103 460.2641723307713 322.773699300237 458.894085756963 L 322.773699300237 458.894085756963 Q 320.71625737836405 454.06509209517964 320.1171471810677 450.1207711403259 Q 319.5180369837713 446.1764501854723 320.17179314931155 443.25741778193105 Q 320.8255493148518 440.33838537838983 322.41157639445777 438.4551807989493 Q 323.99760347406374 436.5719762195088 326.2773376911382 435.6006722424386 L 326.2773376911382 435.6006722424386 Q 328.2987768983964 434.73941748444526 331.4622843067424 435.3752598413483 Q 334.6257917150884 436.0111021982513 337.69009142753276 438.45396456189826 Q 340.7543911399771 440.89682692554516 342.5582413831076 445.1306190429692 L 342.5582413831076 445.1306190429692 Q 343.55825385211097 447.4777345669523 343.6121001155439 450.0488449198492 Q 343.66594637897686 452.61995527274615 342.53541677718266 454.74696120081273 Q 341.40488717538847 456.87396712887937 339.08023208704157 457.86441010057166 L 339.08023208704157 457.86441010057166 Q 333.7878728794333 459.9865855445178 331.5629647546172 454.7645342591009 L 331.5629647546172 454.7645342591009 Q 330.85482195360044 453.10246202202194 330.6457908981013 451.148125291225 Q 330.4367598426022 449.1937885604282 330.61940452067694 447.72274602154096 L 330.61940452067694 447.72274602154096 Q 329.9985839348306 449.4733595286866 330.0767080584817 451.55644893866037 Q 330.15483218213274 453.63953834863406 330.93474621298225 455.47006385298454 L 330.93474621298225 455.47006385298454 Q 331.6572432599655 457.16582674351775 332.9019047266997 458.2808583309422 Q 334.14656619343384 459.3958899183666 335.9260448965875 459.6328855498011 Q 337.7055235997411 459.8698811812356 339.86172542081647 458.95120943937604 L 339.86172542081647 458.95120943937604 Q 342.57152935599294 457.7435946448126 343.89297266069485 455.5352479896022 Q 345.2144159653967 453.3269013343918 345.1713643852597 450.5786972835987 Q 345.1283128051227 447.83049323280557 343.93691038989857 445.03416899609846 L 343.93691038989857 445.03416899609846 Q 342.8746961883735 442.54106064048005 341.02094904353794 440.29231129438244 Q 339.1672018987024 438.0435619482849 336.6446645550928 436.3584024592704 Q 334.12212721148325 434.67324297025596 331.2642280585537 433.9138275085629 L 331.2642280585537 433.9138275085629 Q 332.7690772461792 433.27267118872345 335.25283693729193 433.2162351380971 Q 337.73659662840464 433.1597990874707 340.6988311850692 434.2263848186544 Q 343.6610657417338 435.2929705498381 346.4802982107763 438.032644034202 Q 349.2995306798189 440.77231751856596 351.28520137185905 445.4328579130778 L 351.28520137185905 445.4328579130778 Z" fill-opacity="1"/></g></g><g><g><path fill="rgb(0,0,0)" stroke="none" paint-order="stroke fill markers" d="" fill-opacity="1"/></g></g><g><g><path fill="rgb(0,0,0)" stroke="none" paint-order="stroke fill markers" d=" M 292.2806788910624 476.6295837544103 L 292.2806788910624 476.6295837544103 Q 292.55811872970276 480.6731053922939 290.06188828942385 483.96080135049027 Q 287.5656578491449 487.2484973086866 281.2385850924336 487.75927142651733 L 281.2385850924336 487.75927142651733 Q 277.8925369999421 488.0293923542163 275.4382465325289 487.0579591438187 Q 272.9839560651158 486.0865259334211 271.61553185565276 484.0783099020659 Q 270.2471076461897 482.07009387071065 270.02217058276034 479.2837483682359 L 270.02217058276034 479.2837483682359 Q 269.75696094465593 475.9985375137896 270.71674921286734 473.93095954877805 Q 271.67653748107875 471.86338158376645 273.1481339835115 470.826076257386 Q 274.6197304859442 469.7887709310055 276.54881008439014 469.0329490863394 Q 278.47788968283606 468.2771272416733 278.7897123836593 468.04375966850887 L 278.7897123836593 468.04375966850887 L 275.8283328778177 468.5277618108219 Q 273.37450024539 469.53414074223326 272.1232804104214 470.4189412444549 Q 270.87206057545285 471.3037417466765 270.23227067107126 472.32900704881223 Q 269.5924807666897 473.35427235094795 268.57687732640477 475.6406741966315 L 268.57687732640477 475.6406741966315 Q 267.0311389155923 472.4220980808431 264.6791473420966 470.89742635681546 Q 262.3271557686009 469.3727546327878 259.0054425713275 469.640911044649 L 259.0054425713275 469.640911044649 Q 257.0221486110506 469.80101908543054 256.45404880527275 470.34899733334726 L 256.45404880527275 470.34899733334726 Q 262.56210750502095 469.8559038580568 265.14363174939575 472.78266805450585 Q 267.72515599377056 475.7094322509549 268.0709107812252 479.99237380934403 L 268.0709107812252 479.99237380934403 Q 268.3105817134381 482.9612310259547 267.1307971303447 485.0343221858975 Q 265.9510125472513 487.1074133458403 263.78783604693996 488.22504226881654 Q 261.6246595466286 489.34267119179276 258.91131872980816 489.5617147077087 L 258.91131872980816 489.5617147077087 Q 255.22458210426294 489.859338857137 252.36144695480945 488.2228466126712 Q 249.49831180535597 486.58635436820543 247.84907068995264 483.60269861237373 Q 246.1998295745493 480.619042856542 245.90515219887772 476.96880857382394 L 245.90515219887772 476.96880857382394 Q 245.61047482320612 473.3185742911059 246.5144184603912 468.7387987474056 Q 247.41836209757628 464.1590232037053 249.3128116571532 459.9401685272971 Q 251.2072612167301 455.7213138508889 253.87957067122161 452.9460133027742 Q 256.5518801257131 450.1707127546595 259.6789141612416 449.91827246950083 L 259.6789141612416 449.91827246950083 Q 261.34585448368284 449.7837031346108 262.734669827212 450.3757741300116 Q 264.12348517074116 450.96784512541245 265.12119922769705 451.87316418506447 Q 266.118913284653 452.7784832447164 267.18063290616544 454.0215440636654 Q 268.2423525276779 455.2646048826144 268.5043643803183 455.4761412288084 L 268.5043643803183 455.4761412288084 Q 269.087578407462 454.96368306579996 269.75941911757224 453.5010709549886 Q 270.4312598276825 452.0384588441773 270.9076920473468 451.26519263920187 Q 271.38412426701115 450.4919264342264 272.6293711545524 449.76069241399637 Q 273.87461804209374 449.0294583937664 276.0890935069427 448.8506874525256 L 276.0890935069427 448.8506874525256 Q 279.9340069514057 448.5402939501515 282.8681656236887 451.132421960888 Q 285.80232429597174 453.7245499716244 287.7703894234843 458.0785963702676 Q 289.7384545509969 462.4326427689108 290.8312869087483 467.32272152061614 Q 291.92411926649976 472.2128002723215 292.2806788910624 476.6295837544103 L 292.2806788910624 476.6295837544103 Z" fill-opacity="1"/></g></g><g><g><path fill="rgb(0,0,0)" stroke="none" paint-order="stroke fill markers" d=" M 248.8614142132668 470.1167817123846 L 248.8614142132668 470.1167817123846 Q 248.52646426292011 474.2658813470741 246.15744389318183 478.80800067823486 Q 243.78842352344358 483.3501200093956 239.982787583771 486.269914271022 Q 236.1771516440984 489.18970853264847 231.78704792564767 488.95777015793317 L 231.78704792564767 488.95777015793317 Q 227.7474553194397 488.63166052885657 224.31475978929575 486.0215400284563 Q 220.88206425915183 483.411419528056 218.95413853041828 479.37968690270986 Q 217.02621280168475 475.3479542773637 217.2239937019929 471.0775605191658 L 217.2239937019929 471.0775605191658 Q 217.24015293420442 470.2705799452922 217.35998840031087 468.78615133698685 L 217.35998840031087 468.78615133698685 Q 217.78235930544017 463.554148865091 219.08489091691212 459.78320571721423 Q 220.38742252838404 456.01226256933745 222.32283686234183 453.73140337753796 Q 224.2582511962996 451.4505441857384 226.5377772365508 450.52011287871693 Q 228.81730327680202 449.5896815716954 231.28729514144123 449.7890799292332 L 231.28729514144123 449.7890799292332 Q 233.47743571107208 449.96588635463615 235.98309173097084 451.999051998512 Q 238.4887477508696 454.0322176423879 240.06679564916053 457.61931592458046 Q 241.64484354745144 461.206414206773 241.27453231202415 465.7935419553887 L 241.27453231202415 465.7935419553887 Q 241.06924040697294 468.33653850568226 239.9220643465157 470.63816726661946 Q 238.77488828605848 472.93979602755667 236.7853850961235 474.2977829405281 Q 234.7958819061885 475.65576985349963 232.27722025111302 475.45244246428626 L 232.27722025111302 475.45244246428626 Q 226.604844796871 474.8720535400669 227.06159472916195 469.21419040185384 L 227.06159472916195 469.21419040185384 Q 227.20696890115994 467.41340815571294 227.9301066582972 465.58578734610626 Q 228.65324441543444 463.7581665364995 229.49859580107218 462.54050227060145 L 229.49859580107218 462.54050227060145 Q 228.1353358104216 463.80208383716894 227.23645136820352 465.6828739977608 Q 226.33756692598544 467.56366415835265 226.17745888520386 469.5469581186295 L 226.17745888520386 469.5469581186295 Q 226.02913793944916 471.38424270759754 226.6130499188304 472.9499771704175 Q 227.1969618982116 474.5157116332375 228.66247467683985 475.55252583065857 Q 230.12798745546806 476.58934002807956 232.4641373964076 476.7779335485094 L 232.4641373964076 476.7779335485094 Q 235.42475619708486 476.96795243236716 237.62110599637387 475.62666390401705 Q 239.8174557956629 474.28537537566694 241.05648961852478 471.83195447228485 Q 242.29552344138665 469.37853356890275 242.54010566319408 466.3488391142468 L 242.54010566319408 466.3488391142468 Q 242.75816692119108 463.64766574503545 242.16180127100884 460.79501783303454 Q 241.56543562082658 457.9423699210336 240.11497239312672 455.277953741378 Q 238.66450916542684 452.61353756172235 236.48688310201325 450.6129766054615 L 236.48688310201325 450.6129766054615 Q 238.1173210816273 450.7445991665948 240.34280820686232 451.84888820775194 Q 242.56829533209734 452.95317724890907 244.69555666544184 455.27421105097227 Q 246.82281799878632 457.5952448530354 248.04593462419942 461.33126790383 Q 249.26905124961255 465.0672909546246 248.8614142132668 470.1167817123846 L 248.8614142132668 470.1167817123846 Z" fill-opacity="1"/></g></g><g><g><path fill="rgb(0,0,0)" stroke="none" paint-order="stroke fill markers" d=" M 209.84925041249002 478.0608098089629 L 209.84925041249002 478.0608098089629 Q 209.42565701256697 479.7793957895144 208.39780374254318 480.9655880714292 Q 207.36995047251938 482.151780353344 206.14924615154519 482.7686861298047 Q 204.928541830571 483.3855919062654 203.83078400179028 483.58019626755384 Q 202.7330261730096 483.77480062884234 202.18781958607602 483.640419274384 L 202.18781958607602 483.640419274384 L 189.23323698785 480.447401439102 Q 187.4198324704405 480.0004373688384 185.58948268684645 478.01546859702404 Q 183.7591329032524 476.0304998252097 182.8814744502237 472.9602504488291 Q 182.003815997195 469.8900010724485 182.8714521335891 466.3698628915948 L 182.8714521335891 466.3698628915948 Q 184.09256965888449 461.4155943407636 187.64696855578794 459.670337671356 Q 191.20136745269136 457.92508100194834 195.74080490476874 459.0439518445037 L 195.74080490476874 459.0439518445037 Q 197.99274515514654 459.5990052650925 199.2545168313622 460.65177336332164 Q 200.51628850757785 461.7045414615508 200.9641735288075 462.84586882431466 Q 201.4120585500371 463.9871961870785 201.62586073345065 465.51714613543146 Q 201.83966291686417 467.0470960837845 201.99800022854672 467.4758659237533 L 201.99800022854672 467.4758659237533 Q 202.85954237434598 463.0112986177968 200.96667570754917 460.92291428968366 Q 199.07380904075237 458.8345299615705 195.64848939675664 457.990264495517 L 195.64848939675664 457.990264495517 Q 195.00846427296506 457.8325124707181 193.5982055191391 457.5352043516235 Q 192.18794676531311 457.23789623252895 191.29902298226924 457.01879619808597 L 191.29902298226924 457.01879619808597 Q 190.4300475899625 456.5657381372275 189.36605038152487 454.88909574203444 Q 188.30205317308722 453.21245334684136 187.789438332938 450.85451102035034 Q 187.27682349278876 448.4965686938594 187.8844609216439 446.031286735551 L 187.8844609216439 446.031286735551 Q 188.2262569753749 444.64456563400256 189.2177605549285 443.65685791815 Q 190.20926413448208 442.66915020229743 191.54177272882674 442.2872456643061 Q 192.87428132317137 441.9053411263148 194.17803620496906 442.2266878434978 L 194.17803620496906 442.2266878434978 L 200.0923424414876 443.6844334059916 Q 201.25386951799825 443.97072411766374 202.25651786668763 445.0036273161242 Q 203.259166215377 446.03653051458474 203.751873135117 447.30205673406925 Q 204.24458005485698 448.5675829535538 204.02840135420658 449.44465441949046 L 204.02840135420658 449.44465441949046 Q 203.32143857640398 452.31291515944537 199.4655983324141 453.77642924970246 L 199.4655983324141 453.77642924970246 Q 201.79265835171398 453.7716694143948 203.29264269332066 452.5572648360718 Q 204.79262703492736 451.3428602577488 205.26296177553155 449.4346372034813 L 205.26296177553155 449.4346372034813 Q 205.5141964816928 448.41533793225767 205.28808320589752 447.1903764219952 Q 205.0619699301022 445.96541491173275 205.06839618436248 445.2252295293089 L 205.06839618436248 445.2252295293089 Q 205.99563127058371 445.3909106458007 206.9687314673692 445.5490379549057 Q 207.94183166415468 445.70716526401065 208.72245694440002 445.8555688506525 Q 209.5030822246454 446.00397243729435 209.9890272260427 446.12374712278984 L 209.9890272260427 446.12374712278984 Q 212.38319528170754 446.7138565488895 213.75197177576237 447.89357785569496 Q 215.12074826981723 449.07329916250046 215.43700713854835 451.5902880488539 Q 215.75326600727948 454.1072769352074 214.70450717574587 458.36225877671075 L 214.70450717574587 458.36225877671075 L 209.84925041249002 478.0608098089629 Z" fill-opacity="1"/></g></g><g><g><path fill="rgb(0,0,0)" stroke="none" paint-order="stroke fill markers" d=" M 172.7525199980624 469.75257990751453 L 172.7525199980624 469.75257990751453 Q 171.58025657746037 472.50398327294926 169.19386986881625 473.0131519168536 Q 166.80748316017213 473.5223205607579 164.08977044819173 472.3644113861224 L 164.08977044819173 472.3644113861224 L 158.20513631150686 469.8572030906307 Q 156.99227278715196 469.34045023583474 156.22215521750738 468.23610849418486 Q 155.45203764786277 467.131766752535 155.237856569005 465.90602957870607 Q 155.02367549014724 464.68029240487715 155.34903839872248 463.9166375932463 L 155.34903839872248 463.9166375932463 L 159.5644019642343 454.02281569549945 Q 160.0572310757527 452.86610326023504 161.4896007996644 452.5873687833186 Q 162.92197052357614 452.3086343064022 164.47870300374052 452.0961546568423 Q 166.03543548390488 451.8836750072825 167.94706972483115 450.853781831329 Q 169.8587039657574 449.8238886553755 171.88260580716238 447.31591523277524 L 171.88260580716238 447.31591523277524 L 172.45199089716908 445.97951931242125 Q 172.07905933248597 446.23196109167196 170.66590388968947 447.6334619398908 Q 169.25274844689298 449.0349627881097 167.88884580065107 449.8537174957722 Q 166.52494315440916 450.6724722034346 164.51202225140315 450.80337300419416 Q 162.49910134839715 450.9342738049537 159.8038490720529 449.7859341276293 L 159.8038490720529 449.7859341276293 Q 158.3214603200636 449.1543473051008 156.75004289693186 447.7351412188731 Q 155.1786254738001 446.31593513264534 154.47810759246588 444.0205166460981 Q 153.77758971113167 441.72509815955084 155.01205486425542 438.8277019624808 L 155.01205486425542 438.8277019624808 Q 156.15082504426883 436.1549101217728 158.5578374751161 434.4138956629663 Q 160.96484990596335 432.67288120415986 163.80503266312135 432.2509065179649 Q 166.64521542027936 431.82893183177 168.93617985517193 432.8050205574957 L 168.93617985517193 432.8050205574957 L 180.70544812854166 437.8194371484791 Q 182.3787505834387 438.53236469815135 182.9308659699587 440.00823269448495 Q 183.4829813564787 441.48410069081854 183.22165489385824 443.34317798302726 Q 182.96032843123777 445.202255275236 182.33973370487092 446.9547034958147 Q 181.71913897850408 448.70715171639347 180.70955701218966 451.07672767601275 L 180.70955701218966 451.07672767601275 L 172.7525199980624 469.75257990751453 Z" fill-opacity="1"/></g></g><g><g><path fill="rgb(0,0,0)" stroke="none" paint-order="stroke fill markers" d=" M 140.30502319392713 452.46370808458266 L 140.30502319392713 452.46370808458266 Q 138.49780842540417 455.32158959942194 136.29983886799394 456.0908976730627 Q 134.1018693105837 456.8602057467035 132.08393013523067 456.2485136554527 Q 130.06599095987764 455.6368215642019 128.08507669688436 454.38416728421487 L 128.08507669688436 454.38416728421487 Q 122.689148782585 450.9719892194585 120.3887983351272 446.375995885415 Q 118.08844788766942 441.78000255137147 118.57157007049825 437.0304808643642 Q 119.05469225332709 432.28095917735703 121.59262201850916 428.2675443424384 L 121.59262201850916 428.2675443424384 Q 123.27587620724174 425.6056908015412 125.65569900491118 423.1099046645107 Q 128.03552180258063 420.6141185274802 130.84214228723198 418.89372585911605 Q 133.64876277188336 417.1733331907519 136.54694052062197 416.8612528902471 Q 139.4451182693606 416.5491725897423 142.04506823953926 418.19328133222524 L 142.04506823953926 418.19328133222524 Q 144.25296226183386 419.5894689151275 145.3310301983196 421.8815857865935 Q 146.4090981348054 424.17370265805954 146.21047397688224 426.74893047523904 Q 146.01184981895912 429.3241582924185 144.61566223605692 431.5320523147131 L 144.61566223605692 431.5320523147131 Q 142.96502925253233 434.14231954667815 140.98486071226168 434.95547751641436 Q 139.00469217199105 435.76863548615063 137.21555254713508 435.4460568824496 Q 135.42641292227913 435.1234782787487 134.02993993171418 434.4426034519963 Q 132.63346694114927 433.7617286252439 131.75968509064742 433.3391689390354 L 131.75968509064742 433.3391689390354 Q 132.96209720280683 434.7494606704563 134.16921683181837 435.5127968723234 L 134.16921683181837 435.5127968723234 Q 136.07791026230666 436.71978146501925 138.2379434782561 436.7641745293638 Q 140.39797669420557 436.80856759370835 142.43269292123506 435.58939376490383 Q 144.46740914826455 434.3702199360993 145.95493610574914 432.0178842487948 L 145.95493610574914 432.0178842487948 Q 146.9596692261554 430.42902593368564 147.2989358943311 428.91041215452606 Q 147.6382025625068 427.39179837536653 147.46699186277823 425.62981444811874 Q 147.29578116304964 423.86783052087094 146.68783604342974 421.12918980094486 L 146.68783604342974 421.12918980094486 Q 147.75886110667497 421.445391467945 148.75963549995802 422.07824284898015 L 148.75963549995802 422.07824284898015 Q 149.03820156819145 422.2543973571033 149.530698913643 422.5947196917145 Q 150.02319625909453 422.93504202632573 150.29144506554155 423.1046722934073 L 150.29144506554155 423.1046722934073 Q 153.08742300966225 424.87274161568064 153.73520098111536 426.8061019490354 Q 154.38297895256846 428.73946228239015 153.70839820932775 430.5370963108305 Q 153.03381746608702 432.33473033927083 151.44842689297843 434.8418249533717 L 151.44842689297843 434.8418249533717 L 140.30502319392713 452.46370808458266 Z" fill-opacity="1"/></g></g><g><g><path fill="rgb(0,0,0)" stroke="none" paint-order="stroke fill markers" d="" fill-opacity="1"/></g></g><g><g><path fill="rgb(0,0,0)" stroke="none" paint-order="stroke fill markers" d="" fill-opacity="1"/></g></g><g><g><path fill="rgb(0,0,0)" stroke="none" paint-order="stroke fill markers" d=" M 59.64599603873338 381.6009046524189 L 59.64599603873338 381.6009046524189 Q 57.69025019278463 382.7300550430439 56.28121872396445 383.0361229808339 Q 54.87218725514427 383.34219091862394 53.496811078745495 382.70557497033144 Q 52.12143490234673 382.068959022039 50.621241718472284 380.26400523764994 Q 49.12104853459783 378.4590514532609 47.16792353459783 375.0761397197279 L 47.16792353459783 375.0761397197279 Q 44.53730830022283 370.5197804786257 45.12358962615848 367.5313432726751 Q 45.70987095209412 364.54290606672447 48.99763829312147 362.64471270734947 L 48.99763829312147 362.64471270734947 Q 51.6405380849441 361.11883380109947 54.64489139901597 361.8791670099599 Q 57.64924471308784 362.63950021882033 58.99201815058784 364.9652520356242 L 58.99201815058784 364.9652520356242 Q 60.30427400996284 367.2381458565917 59.490773527285995 368.67335996986355 Q 58.67727304460915 370.10857408313547 56.72152719866041 371.23772447376047 L 56.72152719866041 371.23772447376047 L 55.37893410441451 372.01287095813547 Q 55.71243640026033 372.1022326289813 56.6056348422841 371.90369224305783 Q 57.49883328430787 371.70515185713435 58.333989618523816 371.22297412275935 L 58.333989618523816 371.22297412275935 Q 59.99373068778843 370.26472216963435 60.59300951390183 368.495086356863 Q 61.192288340015246 366.7254505440917 59.8860185775246 364.09671400956694 L 59.8860185775246 364.09671400956694 Q 58.671418968149595 361.99296577527616 56.66009567850232 361.0116930534105 Q 54.64877238885505 360.0304203315448 52.353346290936805 360.19280929868086 Q 50.05792019301856 360.3551982658169 48.049316351233365 361.5148662345669 L 48.049316351233365 361.5148662345669 Q 46.77015285199121 362.2533916251919 46.050043910996635 363.2400130711547 Q 45.32993497000206 364.2266345171174 44.6449291094154 365.6158531568489 Q 43.95992324882875 367.0050717965804 43.46884080962591 367.5705076861762 L 43.46884080962591 367.5705076861762 Q 43.16976854400091 367.052499326979 42.45238635171049 365.76112879648684 Q 41.73500415942007 364.46975826599464 41.10634205004507 363.38088355176376 L 41.10634205004507 363.38088355176376 Q 39.83681080004507 361.1819909249673 38.8179619033759 359.51494912070086 L 38.8179619033759 359.51494912070086 Q 37.7498466690009 357.664919266425 38.08527372863789 356.1462866009497 Q 38.42070078827487 354.62765393547437 39.782465123679074 353.3974317648297 Q 41.14422945908328 352.16720959418507 43.49112447422177 350.81222912543507 L 43.49112447422177 350.81222912543507 L 63.32344451205876 339.36203381293507 Q 64.83889226985256 338.6421397631503 67.8863926748769 338.89126842573916 Q 70.93389307990125 339.14039708832803 73.47905909552625 343.5487539410882 L 73.47905909552625 343.5487539410882 Q 74.80962550177625 345.8533625595575 75.36242036255938 348.77616337584686 Q 75.91521522334249 351.69896419213615 74.88987600687072 354.5250753554642 Q 73.86453679039897 357.35118651879225 70.7142002385464 359.17003417504225 L 70.7142002385464 359.17003417504225 Q 69.68875511931921 359.76207519066725 67.89707243568803 360.1622077203267 Q 66.10538975205684 360.5623402499861 64.22415353834052 360.06273260929095 Q 62.34291732462418 359.56312496859573 61.21376693399918 357.607379122647 L 61.21376693399918 357.607379122647 Q 60.38368880899918 356.1696416358955 60.5873074041386 355.1429248567928 Q 60.79092599927801 354.11620807769003 61.563016510697366 352.9022385402602 Q 62.33510702211672 351.68826900283034 62.4259867063046 351.0155991082196 L 62.4259867063046 351.0155991082196 Q 60.357897183868204 353.0976254807589 59.822267059111454 354.8798478281157 Q 59.28663693435472 356.6620701754726 60.33033810622972 358.4698136330793 L 60.33033810622972 358.4698136330793 Q 60.97120724685472 359.57983154564477 62.57137667898421 360.5447656778117 Q 64.17154611111371 361.50969980997866 66.46948406652633 361.5713880701442 Q 68.76742202193896 361.63307633030985 71.2940342229214 360.17433609593485 L 71.2940342229214 360.17433609593485 Q 73.32378126304117 359.00246109593485 74.28251019197083 357.7089267490271 Q 75.24123912090047 356.4153924021193 75.96950949118023 354.8813835288409 Q 76.69777986146 353.3473746555625 77.22635981982452 353.0421988743125 L 77.22635981982452 353.0421988743125 Q 77.56465099317782 352.8468863743125 78.43933551310204 353.25104455966516 Q 79.31402003302625 353.6552027450179 79.55205714240125 354.06749511254225 L 79.55205714240125 354.06749511254225 L 83.75127589240127 361.3407553396381 Q 84.22735011115127 362.1653400746868 84.19714181100623 363.7121388577753 Q 84.16693351086121 365.25893764086385 83.37136407172385 366.81065845132883 Q 82.5757946325865 368.3623792617939 80.94776836082374 369.3023206680439 L 80.94776836082374 369.3023206680439 L 59.64599603873338 381.6009046524189 Z" fill-opacity="1"/></g></g><g><g><path fill="rgb(0,0,0)" stroke="none" paint-order="stroke fill markers" d=" M 43.28741165799032 345.5114017608409 L 43.28741165799032 345.5114017608409 Q 39.851866137381066 346.8143323150377 37.6939069862726 347.0452442980757 Q 35.53594783516414 347.2761562811137 33.83695790001023 346.25593191838647 Q 32.13796796485633 345.2357075556592 30.644699896568937 342.67525596091485 Q 29.15143182828153 340.1148043661706 27.34637521333112 335.35526123628995 L 27.34637521333112 335.35526123628995 Q 23.35533876492758 324.83176299708157 31.49335855294883 321.74541919262197 L 31.49335855294883 321.74541919262197 Q 34.632145988721405 320.55503413480096 36.70993477039427 321.8167339814672 Q 38.78772355206714 323.0784338281335 39.89153515113753 325.9889458140317 L 39.89153515113753 325.9889458140317 Q 40.653381588142985 327.9977697729261 40.4271605724036 330.1724315433923 Q 40.200939556664224 332.3470933138585 38.020909010363994 333.1738698449269 L 38.020909010363994 333.1738698449269 Q 37.119220983360236 333.5158350069919 36.67763639700456 333.4874746265246 Q 36.236051810648895 333.45911424605737 35.44282459569922 333.19203480826974 Q 34.64959738074955 332.9249553704821 33.85222553475063 332.8879176618973 L 33.85222553475063 332.8879176618973 Q 35.693623655217706 335.1270373297316 38.51282546116616 334.05785511416144 L 38.51282546116616 334.05785511416144 Q 40.71568355245381 333.222421237218 41.1894250487919 331.7176294941031 Q 41.66316654512998 330.2128377509882 41.22820485275689 327.7406017991621 Q 40.793243160383795 325.26836584733604 40.80569703577402 324.199625855097 Q 40.81815091116423 323.13088586285795 42.0964934304607 322.6460744938545 L 42.0964934304607 322.6460744938545 Q 42.96394013998329 322.31709535060213 44.11114837076278 323.25936363596884 Q 45.25835660154226 324.2016319213355 46.96500374415973 325.55186553909033 Q 48.67165088677721 326.90209915684517 50.87995189345341 327.3375046602591 Q 53.08825290012962 327.7729101636731 56.07866129348385 326.63879785404 L 56.07866129348385 326.63879785404 Q 54.4225000838374 326.95356683369494 52.29152309988686 326.7564723393397 Q 50.16054611593632 326.55937784498457 48.04674973745388 325.219945927331 Q 45.93295335897143 323.88051400967754 44.829141759901034 320.97000202377933 L 44.829141759901034 320.97000202377933 Q 44.51747730839881 320.1482104042316 44.40400161146029 318.8334822132277 Q 44.29052591452176 317.51875402222385 44.622779434988146 316.00234448248443 Q 44.95503295545453 314.485934942745 46.03722696149528 313.122467115856 Q 47.11942096753603 311.758999288967 49.12824492643047 310.9971528519616 L 49.12824492643047 310.9971528519616 Q 51.49089583263019 310.10111755389266 54.046520786084116 310.5745209398179 Q 56.602145739538045 311.04792432574317 58.53469997143032 312.4430369014347 Q 60.4672542033226 313.83814947712625 61.07759708751446 315.4474913987405 L 61.07759708751446 315.4474913987405 L 66.32394868780199 329.28098366112727 Q 67.43641763274744 332.2143231920129 66.24339445405305 334.31828803544175 Q 65.05037127535864 336.4222528788706 62.80911724441934 337.6900219061448 Q 60.56786321348004 338.957790933419 57.40624823272003 340.1568333371151 L 57.40624823272003 340.1568333371151 L 43.28741165799032 345.5114017608409 Z" fill-opacity="1"/></g></g><g><g><path fill="rgb(0,0,0)" stroke="none" paint-order="stroke fill markers" d=" M 25.265602084688297 311.26026392614284 L 25.265602084688297 311.26026392614284 Q 22.335319983243526 311.858485300351 20.560660243042797 310.18376829809677 Q 18.786000502842057 308.50905129584254 18.1951042883181 305.61465019972155 L 18.1951042883181 305.61465019972155 L 16.9156430634811 299.3474346031621 Q 16.65193731485057 298.05571841150487 17.12331610850795 296.7945864650711 Q 17.59469490216533 295.5334545186374 18.48178809973666 294.6608888691477 Q 19.368881297307986 293.78832321965797 20.18218408464776 293.62228626681656 L 20.18218408464776 293.62228626681656 L 30.719239314741 291.47113103956195 Q 31.951153830858598 291.2196338904051 32.99422655266841 292.24011183314417 Q 34.03729927447823 293.2605897758833 35.09649143996947 294.4210532922585 Q 36.15568360546072 295.5815168086336 38.08920109377878 296.56971494024765 Q 40.02271858209686 297.55791307186166 43.236447531933415 297.7988603463725 L 43.236447531933415 297.7988603463725 L 44.65972740977802 297.50829567889997 Q 44.2401226235374 297.34478229347775 42.28394624871307 296.9779213884434 Q 40.32776987388874 296.611060483409 38.87916294805468 295.95369629654544 Q 37.430556022220614 295.29633210968194 36.179357372206994 293.7140908134183 Q 34.92815872219337 292.1318495171546 34.342145947458874 289.26136909124955 L 34.342145947458874 289.26136909124955 Q 34.01983892135489 287.6826048570017 34.29515579221814 285.5831527252478 Q 34.570472663081375 283.48370059349395 36.06162553014305 281.6032393581834 Q 37.55277839720471 279.7227781228728 40.63854485505267 279.09281439003325 L 40.63854485505267 279.09281439003325 Q 43.48510461074188 278.5116850550882 46.28527032753517 279.5036085130838 Q 49.08543604432846 280.4955319710794 51.0461221014976 282.59324761316947 Q 53.006808158666736 284.6909632552596 53.50491901719107 287.1308716172789 L 53.50491901719107 287.1308716172789 L 56.06384146686508 299.66530281039775 Q 56.427657731179416 301.4473927414805 55.52667946921794 302.7401633762439 Q 54.62570120725646 304.0329340110074 52.94726023951678 304.8739428196919 Q 51.26881927177709 305.71495162837635 49.47404467437045 306.1997162359003 Q 47.6792700769638 306.68448084342424 45.15563936918892 307.19968374121163 L 45.15563936918892 307.19968374121163 L 25.265602084688297 311.26026392614284 Z" fill-opacity="1"/></g></g><g><g><path fill="rgb(0,0,0)" stroke="none" paint-order="stroke fill markers" d=" M 18.349016111841372 274.4170269751744 L 18.349016111841372 274.4170269751744 Q 15.360718937133925 274.53745123453484 13.877684073881731 272.5997459356033 Q 12.394649210629531 270.6620406366718 12.275699534036775 267.7103348559404 L 12.275699534036775 267.7103348559404 L 12.018139077282214 261.319038041464 Q 11.965054097645776 260.0017478583277 12.632628450585315 258.832561715439 Q 13.30020280352484 257.6633755725503 14.315777750639064 256.94440917511525 Q 15.331352697753275 256.22544277768026 16.16075762787616 256.19201890161287 L 16.16075762787616 256.19201890161287 L 26.90643032549766 255.7589830955045 Q 28.162734852007322 255.7083557538142 29.02860388213827 256.8829394065444 Q 29.89447291226922 258.0575230592745 30.753797378350935 259.3728652498353 Q 31.613121844432644 260.688207440396 33.36308266105854 261.97376668260597 Q 35.113043477684435 263.25932592481587 38.24650482074421 264.0126713725766 L 38.24650482074421 264.0126713725766 L 39.697963448459255 263.9541795894587 Q 39.310021825589295 263.72547431821795 37.438026048726066 263.04957140768295 Q 35.56603027186283 262.3736684971479 34.241631056464016 261.492444111423 Q 32.9172318410652 260.61121972569816 31.93604523791676 258.8487616606084 Q 30.954858634768314 257.0863035955186 30.83689201335401 254.15899207743783 L 30.83689201335401 254.15899207743783 Q 30.772010371576144 252.5489707424934 31.380537766824553 250.5208698963469 Q 31.98906516207296 248.49276905020045 33.762555186498986 246.8758570353668 Q 35.53604521092502 245.2589450205332 38.682905092861844 245.1321309025128 L 38.682905092861844 245.1321309025128 Q 41.58582234829194 245.01514733627698 44.1906109420725 246.44340381525302 Q 46.79539953585307 247.8716602942291 48.39419797050933 250.25672723148423 Q 49.99299640516559 252.64179416873938 50.09326803336775 255.13000895910804 L 50.09326803336775 255.13000895910804 L 50.608388946876865 267.91260258806074 Q 50.68162655767158 269.7299751555359 49.58494073419375 270.86147767308347 Q 48.488254910715916 271.9929801906311 46.696642012472495 272.55385729064466 Q 44.905029114229066 273.1147343906582 43.05573466487556 273.3053193318113 Q 41.20644021552206 273.49590427296437 38.63284550587605 273.59961659429115 L 38.63284550587605 273.59961659429115 L 18.349016111841372 274.4170269751744 Z" fill-opacity="1"/></g></g><g><g><path fill="rgb(0,0,0)" stroke="none" paint-order="stroke fill markers" d=" M 30.107579627150407 239.99912845891365 L 30.107579627150407 239.99912845891365 Q 25.97533199449127 239.4973827561907 21.532287162738918 236.94739096134555 Q 17.089242330986565 234.3973991665004 14.325053536670033 230.47728134366275 Q 11.560864742353495 226.55716352082513 11.969386668024086 222.17995940122242 L 11.969386668024086 222.17995940122242 Q 12.457889815543219 218.1567740227977 15.204114216075908 214.83196137075262 Q 17.95033861660859 211.50714871870755 22.056431241352406 209.74312804569445 Q 26.162523866096226 207.97910737268137 30.42149049326154 208.34867929162897 L 30.42149049326154 208.34867929162897 Q 31.227165937737773 208.39731925013064 32.70556538402638 208.5768294428937 L 32.70556538402638 208.5768294428937 Q 37.9163175307813 209.20952930263235 41.63175477701208 210.6628451295342 Q 45.347192023242854 212.11616095643606 47.54827015640938 214.14184660544524 Q 49.749348289575906 216.1675322544544 50.58723775609159 218.48267428620346 Q 51.42512722260727 220.79781631795254 51.12643403300974 223.2577760523508 L 51.12643403300974 223.2577760523508 Q 50.8615829289331 225.4390211370389 48.72917359087989 227.8607777392753 Q 46.596764252826674 230.28253434151168 42.949033531737356 231.71486455547438 Q 39.30130281064803 233.1471947694371 34.73280616105128 232.5924788458988 L 34.73280616105128 232.5924788458988 Q 32.20013825716342 232.2849572861654 29.946568243905038 231.0460343417487 Q 27.69299823064665 229.80711139733205 26.416221863837976 227.76454107841468 Q 25.1394454970293 225.7219707594973 25.44402426671743 223.213538912106 L 25.44402426671743 223.213538912106 Q 26.25234602477671 217.56913367039166 31.887229160220986 218.25333235592296 L 31.887229160220986 218.25333235592296 Q 33.68069734096454 218.47109881927486 35.477718125133244 219.2672409804312 Q 37.274738909301945 220.06338314158756 38.45737677898848 220.95707934210992 L 38.45737677898848 220.95707934210992 Q 37.25171130251529 219.5441261900018 35.40864089329819 218.57023896074514 Q 33.56557048408109 217.59635173148848 31.590331879613526 217.35651434279688 L 31.590331879613526 217.35651434279688 Q 29.76050961412517 217.13433369437703 28.172533200026443 217.65472634996817 Q 26.584556785927724 218.17511900555934 25.48957319694271 219.59769495226655 Q 24.394589607957695 221.02027089897376 24.112081763609282 223.34693232264107 L 24.112081763609282 223.34693232264107 Q 23.803004886098897 226.2974987670606 25.054767537522554 228.54607556619854 Q 26.306530188946216 230.79465236533645 28.70807050178486 232.13147062866128 Q 31.109610814623508 233.46828889198608 34.126999848442054 233.83466625262542 L 34.126999848442054 233.83466625262542 Q 36.817202119557386 234.1613159476533 39.69154975243933 233.68029850108164 Q 42.56589738532127 233.19928105450998 45.286556984040985 231.8572793774564 Q 48.0072165827607 230.51527770040283 50.093839241078285 228.41997216335835 L 50.093839241078285 228.41997216335835 Q 49.896672308043456 230.04378794862615 48.70366751601881 232.22300496333875 Q 47.510662723994166 234.40222197805133 45.105855107142794 236.43429949049911 Q 42.70104749029142 238.46637700294693 38.91880442023637 239.53806719812974 Q 35.136561350181324 240.60975739331258 30.107579627150407 239.99912845891365 L 30.107579627150407 239.99912845891365 Z" fill-opacity="1"/></g></g><g><g><path fill="rgb(0,0,0)" stroke="none" paint-order="stroke fill markers" d="" fill-opacity="1"/></g></g><g><g><path fill="rgb(0,0,0)" stroke="none" paint-order="stroke fill markers" d=" M 32.59268377405634 173.3013501317074 L 32.59268377405634 173.3013501317074 Q 28.95217139557691 171.51985926105 27.353058395998936 167.71421230697027 Q 25.75394539642096 163.90856535289055 28.47513841313956 158.17377255507074 L 28.47513841313956 158.17377255507074 Q 29.91423087390421 155.1409494408391 31.982661945894982 153.50118815299214 Q 34.051093017885755 151.8614268651452 36.47447122205808 151.68044475227418 Q 38.89784942623041 151.49946263940316 41.42336394680875 152.69783417945808 L 41.42336394680875 152.69783417945808 Q 44.4010448225998 154.11076132275429 45.71172573049904 155.97575132778542 Q 47.02240663839829 157.84074133281658 47.18494115130834 159.6338339512339 Q 47.34747566421838 161.42692656965122 47.03749678321145 163.4754694301607 Q 46.727517902204525 165.52401229067019 46.773708798572855 165.91074245764202 L 46.773708798572855 165.91074245764202 L 47.83524040076452 163.10411150418005 Q 48.19060699654268 160.47584064215673 48.0499572018218 158.94985222824417 Q 47.90930740710091 157.4238638143316 47.34129656202346 156.3571568529845 Q 46.773285716946 155.2904498916374 45.301005355466884 153.26771058933798 L 45.301005355466884 153.26771058933798 Q 48.861243241159684 153.53834991586317 51.3576434733473 152.26380132574278 Q 53.85404370553492 150.9892527356224 55.28267003931218 147.978486516767 L 55.28267003931218 147.978486516767 Q 56.135659388783594 146.18084954360424 55.94514620825536 145.41487155595723 L 55.94514620825536 145.41487155595723 Q 53.31814833442317 150.95115229539095 49.49273406722416 151.72343577328044 Q 45.667319800025155 152.49571925116993 41.78530621380867 150.65368090139117 L 41.78530621380867 150.65368090139117 Q 39.0943649779086 149.3768134089309 37.88890766058388 147.3185444090074 Q 36.68345034325917 145.26027540908387 36.7971435541132 142.8280951454566 Q 36.91083676496723 140.39591488182933 38.07780992406002 137.9365710473797 L 38.07780992406002 137.9365710473797 Q 39.663428162647975 134.59495139788083 42.512239594178304 132.93364974621886 Q 45.361051025708626 131.27234809455686 48.76959326410821 131.33589126956764 Q 52.178135502507786 131.39943444457845 55.48666980894229 132.96935349268531 L 55.48666980894229 132.96935349268531 Q 58.7952041153768 134.5392725407922 62.309434261259405 137.61199846603395 Q 65.823664407142 140.6847243912757 68.53007495199785 144.43479317426164 Q 71.23648549685367 148.1848619572476 72.30381154741211 151.8868001056679 Q 73.37113759797056 155.58873825408824 72.02624028009232 158.42304930993382 L 72.02624028009232 158.42304930993382 Q 71.30931058145684 159.93394664320556 70.10215438683122 160.840660514167 Q 68.89499819220559 161.74737438512844 67.61211185953877 162.1587605743391 Q 66.32922552687194 162.5701467635498 64.72184346845683 162.8680925180015 Q 63.11446141004171 163.1660382724532 62.800259634093734 163.2871790198354 L 62.800259634093734 163.2871790198354 Q 62.952454408063936 164.04848626468947 63.88319329685418 165.3616234423472 Q 64.81393218564443 166.67476062000492 65.24538425320898 167.47399612790335 Q 65.67683632077355 168.27323163580178 65.68748011463353 169.71726408451104 Q 65.6981239084935 171.1612965332203 64.74570635264199 173.16847401245727 L 64.74570635264199 173.16847401245727 Q 63.09205828863607 176.6534634819016 59.380130245335565 177.8984554254649 Q 55.66820220203505 179.14344736902817 50.91345484779764 178.67081856643475 Q 46.15870749356022 178.1981897638413 41.377358889201155 176.699570971879 Q 36.596010284842095 175.20095217991675 32.59268377405634 173.3013501317074 L 32.59268377405634 173.3013501317074 Z" fill-opacity="1"/></g></g><g><g><path fill="rgb(0,0,0)" stroke="none" paint-order="stroke fill markers" d=" M 59.94256813116761 138.95556492810886 L 59.94256813116761 138.95556492810886 Q 56.51681741986712 136.59093994476748 53.76773687693066 132.26824845691098 Q 51.01865633399421 127.9455569690545 50.392858299437975 123.18988243692974 Q 49.76706026488174 118.43420790480496 52.162976648723046 114.74823574673579 L 52.162976648723046 114.74823574673579 Q 54.46519217502606 111.41290074335816 58.44197060038324 109.74515946099638 Q 62.418749025740425 108.07741817863459 66.87429476492348 108.4236518336148 Q 71.32984050410651 108.769885488595 74.92921953271436 111.07636565174417 L 74.92921953271436 111.07636565174417 Q 75.62000559394367 111.49385024428179 76.84564074578725 112.33984510635699 L 76.84564074578725 112.33984510635699 Q 81.16550234654741 115.32163027596633 83.77996910309957 118.3351273146717 Q 86.39443585965174 121.34862435337706 87.40201069522647 124.16517192933279 Q 88.40958553080121 126.98171950528851 88.07559965903259 129.42106261824497 Q 87.74161378726397 131.86040573120144 86.33393381184375 133.899782254351 L 86.33393381184375 133.899782254351 Q 85.08574467107705 135.70809641280874 82.07214356342942 136.86147535724857 Q 79.05854245578179 138.01485430168836 75.16300026838606 137.58793472890065 Q 71.26745808099031 137.16101515611297 67.48004453799827 134.54675234461826 L 67.48004453799827 134.54675234461826 Q 65.38039087623343 133.09746606450582 63.96070992940954 130.9531680730679 Q 62.54102898258563 128.80887008163 62.35972941291301 126.40691632175037 Q 62.178429843240394 124.00496256187074 63.613847355122104 121.92540127964433 L 63.613847355122104 121.92540127964433 Q 66.95266663469224 117.30317449857712 71.62414487737475 120.52766311222443 L 71.62414487737475 120.52766311222443 Q 73.11098096321777 121.55395196129928 74.33217813425365 123.09401803421919 Q 75.55337530528952 124.63408410713912 76.18522780001894 125.97501201517481 L 76.18522780001894 125.97501201517481 Q 75.77429610975062 124.16360344802472 74.59492627259928 122.44475160570131 Q 73.41555643544794 120.72589976337792 71.77802750306677 119.59559515257253 L 71.77802750306677 119.59559515257253 Q 70.2610528479161 118.54850315115158 68.6131310378426 118.27131852745978 Q 66.96520922776912 117.994133903768 65.33454540448402 118.74489810092022 Q 63.703881581198914 119.49566229807246 62.37247983104777 121.42453073376072 L 62.37247983104777 121.42453073376072 Q 60.727609250089564 123.89349238414016 60.79102428980089 126.46623137009635 Q 60.8544393295122 129.03897035605254 62.35964724658592 131.33871557449012 Q 63.86485516365965 133.6384607929277 66.36635641619286 135.36512243765497 L 66.36635641619286 135.36512243765497 Q 68.5966105449574 136.90455571126725 71.36525892989394 137.81441186426545 Q 74.13390731483045 138.72426801726365 77.16659102651647 138.8003381046482 Q 80.19927473820248 138.87640819203276 83.02062437985049 137.99080917930394 L 83.02062437985049 137.99080917930394 Q 82.09141690839084 139.33699860837802 80.02233098301048 140.71218247404818 Q 77.95324505763011 142.08736633971833 74.87954015532878 142.76911179385144 Q 71.80583525302744 143.45085724798452 67.95878606920854 142.64209579198607 Q 64.11173688538963 141.83333433598762 59.94256813116761 138.95556492810886 L 59.94256813116761 138.95556492810886 Z" fill-opacity="1"/></g></g><g><g><path fill="rgb(0,0,0)" stroke="none" paint-order="stroke fill markers" d=" M 72.56891989154181 101.1980259717473 L 72.56891989154181 101.1980259717473 Q 71.29237747375797 99.97189033626277 70.77903145885861 98.48864715210186 Q 70.26568544395926 97.00540396794094 70.34178153029004 95.63979012723752 Q 70.41787761662081 94.27417628653409 70.7982242104481 93.22618793896251 Q 71.17857080427537 92.17819959139092 71.56755176449803 91.77322751402501 L 71.56755176449803 91.77322751402501 L 80.81007762370204 82.15073880617847 Q 82.10386212183398 80.80376646189619 84.73807039574105 80.21112143739958 Q 87.37227866964811 79.61847641290296 90.47002185206136 80.39352658492425 Q 93.56776503447462 81.16857675694551 96.18247605572844 83.68004078273106 L 96.18247605572844 83.68004078273106 Q 99.86243971527085 87.21469385605884 99.59667687865037 91.16552193066443 Q 99.33091404202989 95.11635000527001 96.09222474278457 98.48818273638184 L 96.09222474278457 98.48818273638184 Q 94.4855642549083 100.1608934907193 92.9429544994402 100.72723576698316 Q 91.4003447439721 101.29357804324701 90.1879837431695 101.11079416822449 Q 88.97562274236688 100.92801029320195 87.54374612886775 100.34819344124615 Q 86.11186951536861 99.76837658929036 85.66137528573776 99.69111580358995 L 85.66137528573776 99.69111580358995 Q 89.09703291670189 102.66951684126133 91.85206013111156 102.07443838589508 Q 94.60708734552122 101.47935993052884 97.05090250865933 98.93507883577344 L 97.05090250865933 98.93507883577344 Q 97.50753233152943 98.4596768319091 98.4701380923297 97.38701098473372 Q 99.43274385312996 96.31434513755832 100.06695194044954 95.65406457663563 L 100.06695194044954 95.65406457663563 Q 100.89379942669565 95.12803884206367 102.87781293821368 95.04491142759751 Q 104.86182644973171 94.96178401313134 107.1601718252061 95.6968177024507 Q 109.45851720068049 96.43185139177007 111.2896952896394 98.19072182060303 L 111.2896952896394 98.19072182060303 Q 112.31973296467878 99.18008643682157 112.67936114834423 100.53260758258449 Q 113.03898933200966 101.8851287283474 112.70347406655837 103.2300672908066 Q 112.36795880110708 104.57500585326581 111.43778693970502 105.54341734261908 L 111.43778693970502 105.54341734261908 L 107.21818913207208 109.93648400795799 Q 106.38949056464116 110.79925060756362 104.99364598077949 111.15111794936088 Q 103.59780139691782 111.50298529115814 102.25547008181893 111.29691889053107 Q 100.91313876672004 111.09085248990401 100.26166194660965 110.46510051041535 L 100.26166194660965 110.46510051041535 Q 98.13115667003247 108.41872241533085 98.79163641106831 104.34770976597265 L 98.79163641106831 104.34770976597265 Q 97.63222853971259 106.36538277647126 97.9339415842091 108.27160961074304 Q 98.2356546287056 110.17783644501482 99.6530568994863 111.53926980579419 L 99.6530568994863 111.53926980579419 Q 100.4101786093443 112.26649507925397 101.5840830337874 112.68315599341355 Q 102.75798745823049 113.09981690757313 103.39579367578932 113.47547489822563 L 103.39579367578932 113.47547489822563 Q 102.7886920768694 114.19564347992755 102.16519971175968 114.95930931621892 Q 101.54170734664996 115.7229751525103 101.02287343048272 116.3248146827182 Q 100.50403951431548 116.92665421292611 100.15733909324743 117.28760758623051 L 100.15733909324743 117.28760758623051 Q 98.44920531140004 119.0659632303156 96.74314844329331 119.66149779286737 Q 95.0370915751866 120.25703235541913 92.69918582419581 119.27242612673568 Q 90.36128007320502 118.28781989805222 87.20073712158845 115.25207718674918 L 87.20073712158845 115.25207718674918 L 72.56891989154181 101.1980259717473 Z" fill-opacity="1"/></g></g><g><g><path fill="rgb(0,0,0)" stroke="none" paint-order="stroke fill markers" d=" M 98.31242325389124 73.22542998623447 L 98.31242325389124 73.22542998623447 Q 96.51576975366778 70.8345184013485 97.26801012755823 68.513262566457 Q 98.02025050144866 66.1920067315655 100.38188561794826 64.4173530701203 L 100.38188561794826 64.4173530701203 L 105.49550876276558 60.57471456351993 Q 106.54946162467448 59.782720367503074 107.89090841222513 59.667949859115055 Q 109.23235519977578 59.553179350727035 110.40096527010344 59.980561682340706 Q 111.56957534043109 60.40794401395436 112.068238352738 61.07154396404516 L 112.068238352738 61.07154396404516 L 118.52885767394969 69.66906684683916 Q 119.2841854720028 70.6742255947708 118.80939174796714 72.05406140174827 Q 118.33459802393146 73.43389720872575 117.74024455815534 74.88830690822438 Q 117.14589109237922 76.342716607723 117.08198762547602 78.51318701108607 Q 117.01808415857283 80.68365741444914 118.17810193385841 83.69039453517209 L 118.17810193385841 83.69039453517209 L 119.05076220539551 84.85169444783098 Q 119.01860699392937 84.40250534931697 118.51144937734465 82.47792641224953 Q 118.00429176075994 80.5533474751821 117.97718070757709 78.96279578141653 Q 117.95006965439424 77.37224408765097 118.84316668706376 75.56355304945929 Q 119.73626371973327 73.7548620112676 122.07838119064196 71.9948749090079 L 122.07838119064196 71.9948749090079 Q 123.36654579964176 71.02688200276506 125.38132303508633 70.37559763749735 Q 127.39610027053091 69.72431327222964 129.7342499328644 70.26535623446257 Q 132.07239959519788 70.80639919669551 133.96438573012705 73.32417547792235 L 133.96438573012705 73.32417547792235 Q 135.70970627320128 75.64677530324015 136.01396280746005 78.60181644498205 Q 136.31821934171882 81.55685758672395 135.26356876113863 84.22751534891079 Q 134.2089181805584 86.89817311109762 132.21811833028602 88.39416214801837 L 132.21811833028602 88.39416214801837 L 121.9908720406514 96.07943916121909 Q 120.53680744412893 97.17209782053865 118.9826105734116 96.91230977291845 Q 117.42841370269429 96.65252172529824 115.94906877135298 95.49666772388343 Q 114.46972384001167 94.34081372246864 113.26235652535705 92.9271388136909 Q 112.05498921070243 91.51346390491318 110.50766721663244 89.45435229507262 L 110.50766721663244 89.45435229507262 L 98.31242325389124 73.22542998623447 Z" fill-opacity="1"/></g></g><g><g><path fill="rgb(0,0,0)" stroke="none" paint-order="stroke fill markers" d=" M 129.50877385739102 53.76950937610482 L 129.50877385739102 53.76950937610482 Q 127.93738324879575 50.775474719049896 128.3701276923915 48.48732320876741 Q 128.8028721359872 46.199171698484925 130.34158261398093 44.75743115496276 Q 131.88029309197466 43.3156906114406 133.95558065209937 42.22649567696302 L 133.95558065209937 42.22649567696302 Q 139.60857749556408 39.259574058568354 144.7389997021986 39.56540880048478 Q 149.86942190883317 39.87124354240122 153.7410672541921 42.66440046936638 Q 157.61271259955103 45.45755739633154 159.8194669199249 49.662176463459204 L 159.8194669199249 49.662176463459204 Q 161.28307261312915 52.45084412237678 162.25457541137587 55.75972419017913 Q 163.22607820962259 59.06860425798148 163.31267172258475 62.35940523065341 Q 163.3992652355469 65.65020620332535 162.22044582943545 68.3161419086682 Q 161.04162642332398 70.98207761401106 158.3178115006603 72.41164596551289 L 158.3178115006603 72.41164596551289 Q 156.00473057427132 73.62564448623269 153.48066516689593 73.41322027050182 Q 150.95659975952054 73.20079605477095 148.82569912827233 71.74116857961448 Q 146.69479849702412 70.28154110445803 145.48079997630433 67.96846017806902 L 145.48079997630433 67.96846017806902 Q 144.04555873451875 65.2338364660297 144.33142754557272 63.112381221512464 Q 144.6172963566267 60.990925976995236 145.79122743457705 59.6027749128031 Q 146.96515851252738 58.21462384861096 148.25304990457474 57.345680176459084 Q 149.54094129662207 56.47673650430721 150.34377964474476 55.931299067511105 L 150.34377964474476 55.931299067511105 Q 148.5212251225074 56.267472636748806 147.2565967655564 56.93120079994608 L 147.2565967655564 56.93120079994608 Q 145.25697073106122 57.9806855024375 144.1385086016123 59.82913260829565 Q 143.02004647216336 61.67757971415381 143.05852386602248 64.04928257065602 Q 143.09700125988158 66.42098542715824 144.3904202445737 68.88538940480633 L 144.3904202445737 68.88538940480633 Q 145.26404534826926 70.54994296865635 146.40957012547068 71.6030634115336 Q 147.55509490267212 72.65618385441083 149.16662309459286 73.38890300267008 Q 150.7781512865136 74.12162215092931 153.45385628161802 74.96444659319472 L 153.45385628161802 74.96444659319472 Q 152.6445050736543 75.73388067255486 151.5960525042163 76.28415103007738 L 151.5960525042163 76.28415103007738 Q 151.30421519107375 76.43731906773829 150.76323873109945 76.69367311289012 Q 150.22226227112515 76.95002715804196 149.94123374735827 77.09752230541913 L 149.94123374735827 77.09752230541913 Q 147.01205182655724 78.63487557231197 145.01382367747632 78.22918758492494 Q 143.0155955283954 77.82349959753792 141.79608916467907 76.34047852276748 Q 140.5765828009627 74.85745744799705 139.19807046201453 72.23092162971422 L 139.19807046201453 72.23092162971422 L 129.50877385739102 53.76950937610482 Z" fill-opacity="1"/></g></g><g><g><path fill="rgb(0,0,0)" stroke="none" paint-order="stroke fill markers" d="" fill-opacity="1"/></g></g><g><g><path fill="rgb(0,0,0)" stroke="none" paint-order="stroke fill markers" d="" fill-opacity="1"/></g></g></g></g></svg>