<svg version="1.1" xmlns="http://www.w3.org/2000/svg" xmlns:xlink="http://www.w3.org/1999/xlink" width="500" height="500" viewBox="0 0 500 500"><defs/><g><g><g><g><path fill="rgb(0,0,0)" stroke="none" paint-order="stroke fill markers" d=" M 254.4 50 L 261.95 50 L 261.95 15.100000000000001 L 254.4 15.100000000000001 L 254.4 29.25 L 245.6 29.25 L 245.6 15.100000000000001 L 238.05 15.100000000000001 L 238.05 50 L 245.6 50 L 245.6 35.4 L 254.4 35.4 Z" fill-opacity="1"/></g></g><g><g><path fill="rgb(0,0,0)" stroke="none" paint-order="stroke fill markers" d=" M 293.23592413936046 54.40259494611013 L 294.2224535166357 48.33223583088696 L 279.61410962959457 45.95814887419211 L 280.96958495284264 37.617574154901746 L 295.0844037085648 39.91145547116772 L 296.07093308584 33.84109635594456 L 281.9561143301179 31.547215039678584 L 283.23940457697995 23.65081293857528 L 297.8477484640211 26.024899895270135 L 298.8342778412963 19.95454078004697 L 276.82305698447084 16.377369216918915 L 271.224703282535 50.82542338298207 Z" fill-opacity="1"/></g></g><g><g><path fill="rgb(0,0,0)" stroke="none" paint-order="stroke fill markers" d=" M 324.8583165299523 64.14022773525879 L 326.80582469183133 58.30672861728385 L 312.5777780626242 53.55670871026176 L 321.6819828844165 26.286286004281337 L 314.52053274771555 23.895442651080216 L 303.46881976404416 56.99936447503559 Z" fill-opacity="1"/></g></g><g><g><path fill="rgb(0,0,0)" stroke="none" paint-order="stroke fill markers" d=" M 353.7029251204402 78.55518140968981 L 356.5609726285094 73.10962685192257 L 343.2791322437112 66.13877927126603 L 356.63992343996955 40.68191853373625 L 349.95473044628784 37.1732585848058 L 333.7358917419603 68.07567388010283 Z" fill-opacity="1"/></g></g><g><g><path fill="rgb(0,0,0)" stroke="none" paint-order="stroke fill markers" d=" M 369.788007489053 90.59111297734187 C 377.2627973268757 96.20805314796698 384.69533726669334 93.474950507557 391.5437990790063 84.36130300475709 C 398.39226089131927 75.24765550195717 398.94959306586674 67.34816938910058 391.47480322804404 61.73122921847548 C 384.0000133902213 56.11428904785038 376.56747345040367 58.84739168826035 369.7190116380907 67.96103919106027 C 362.87054982577774 77.07468669386017 362.3132176512302 84.97417280671677 369.788007489053 90.59111297734187 Z M 373.4224981876927 85.7544842587507 C 370.0248664432279 83.20132963573928 370.9181331596602 79.68215720840438 374.2822898393929 75.20527773334477 L 377.94681765124454 70.32867687658342 C 381.3109743309772 65.85179740152381 384.44268078493934 64.01470331405525 387.84031252940423 66.56785793706666 C 391.2379442738691 69.12101256007807 390.3446775574368 72.64018498741297 386.9805208777041 77.11706446247257 L 383.3460301790643 81.95369318106376 C 379.95183638611974 86.47054479429355 376.8201299321576 88.3076388817621 373.4224981876927 85.7544842587507 Z" fill-opacity="1"/></g></g><g><g><path fill="rgb(0,0,0)" stroke="none" paint-order="stroke fill markers" d="" fill-opacity="1"/></g></g><g><g><path fill="rgb(0,0,0)" stroke="none" paint-order="stroke fill markers" d=" M 413.00619188788403 134.08269582926658 L 430.2971964105014 125.24605831272066 L 430.58122878386695 125.6575502456675 L 416.1873544695785 138.69140547827107 L 421.5839695635245 146.5097522042608 L 451.5274456886851 128.4537078550148 L 448.0054442589519 123.35120788647414 L 430.0724199418646 134.5143901766079 L 424.63490377612584 137.9031093959192 L 424.3792746400968 137.53276665626703 L 439.05245933118715 123.75932659863606 L 435.21802229075183 118.20418550385389 L 417.1364491192746 127.03972236612292 L 416.8808199832456 126.66937962647077 L 422.1420940741244 122.67325713827705 L 438.7743921245706 109.97772006570223 L 435.1103745081547 104.66947413068814 L 407.60957679393806 126.26434910327686 Z" fill-opacity="1"/></g></g><g><g><path fill="rgb(0,0,0)" stroke="none" paint-order="stroke fill markers" d=" M 430.1480166613102 164.518703256231 C 434.15629211042875 172.96596481983806 442.00761551462097 173.99999615533238 452.3069504691793 169.11290095533758 C 462.60628542373763 164.22580575534275 466.7708527998636 157.4901633531878 462.762577350745 149.04290178958072 C 458.75430190162643 140.59564022597365 450.9029784974343 139.5616088904793 440.6036435428759 144.44870409047414 C 430.30430858831755 149.33579929046897 426.13974121219167 156.07144169262392 430.1480166613102 164.518703256231 Z M 435.613891790703 161.92511325974252 C 433.79194840474 158.0854489126484 436.21833777472057 155.3844982234936 441.2776602085387 152.9838198796365 L 446.788707859662 150.36879525507788 C 451.8480302934802 147.96811691122076 455.4747588353892 147.79682743897507 457.2967022213522 151.6364917860692 C 459.11864560731516 155.47615613316333 456.6922562373347 158.1771068223181 451.6329338035165 160.5777851661752 L 446.1670586741237 163.17137516266368 C 441.06256371857506 165.59348813459093 437.435835176666 165.76477760683662 435.613891790703 161.92511325974252 Z" fill-opacity="1"/></g></g><g><g><path fill="rgb(0,0,0)" stroke="none" paint-order="stroke fill markers" d=" M 453.48510550901824 187.10362223479217 L 454.44495575953 190.4174097199204 L 443.633818377815 199.639356830682 L 445.9152015819299 207.51560534605926 L 457.40863961135983 197.05492265974982 C 459.5502576434285 200.4949040848041 463.8742416670213 201.58493259989632 468.580780414015 200.22166702670572 C 475.06427766752677 198.34369914526965 478.1713942170449 193.4354584474523 476.2656045892172 186.8559093827774 L 472.5096688263451 173.88891487575387 L 438.9875867304102 183.59870436643808 L 441.04639596339194 190.70653839251023 Z M 459.0561105564802 185.48996094407676 L 468.7573434839571 182.67996455852057 L 469.9536785787978 186.81019243853547 C 470.9274397025054 190.17200582924528 470.0606530196659 191.6723993930985 467.1310727791902 192.52096265804366 L 465.6902956117432 192.93828885391835 C 462.7607153712675 193.78685211886352 461.2262067750285 192.98200221480144 460.25244565132095 189.62018882409166 Z" fill-opacity="1"/></g></g><g><g><path fill="rgb(0,0,0)" stroke="none" paint-order="stroke fill markers" d=" M 450.00629548471295 237.95407676922673 L 456.111455060416 237.21277618565648 L 454.30340485658616 222.32214307418568 L 482.84378498690523 218.85671351684513 L 481.93373305097754 211.36176151740483 L 447.28819334495546 215.5684916583156 Z" fill-opacity="1"/></g></g><g><g><path fill="rgb(0,0,0)" stroke="none" paint-order="stroke fill markers" d=" M 450.312937727605 246.26275784345847 L 449.8599459013741 257.50363407288864 C 449.48345936135104 266.8460512057928 455.547193869431 271.5940638232487 466.73811064895256 272.0450423524742 C 477.92902742847417 272.4960208816996 484.35515539753885 268.2513325156114 484.73164193756185 258.9089153827072 L 485.18463376379276 247.66803915327705 Z M 455.9101848600076 253.89432547657364 L 478.9914507177709 254.82446869310112 L 478.8565598184043 258.1717518369759 C 478.6773763849174 262.61814287883936 475.6492369600925 264.4977363518597 470.253616369966 264.28030027526887 L 463.9087662315765 264.0246115555741 C 458.46318619154147 263.8051621819778 455.59611052715417 261.6879996623119 455.7752939606411 257.2416086204484 Z" fill-opacity="1"/></g></g><g><g><path fill="rgb(0,0,0)" stroke="none" paint-order="stroke fill markers" d="" fill-opacity="1"/></g></g><g><g><path fill="rgb(0,0,0)" stroke="none" paint-order="stroke fill markers" d="" fill-opacity="1"/></g></g><g><g><path fill="rgb(0,0,0)" stroke="none" paint-order="stroke fill markers" d=" M 421.00508075688776 353.8105117766515 L 417.23008075688773 360.349003575224 L 447.45436734896464 377.799003575224 L 451.2293673489647 371.26051177665147 L 438.97510788541484 364.1855117766515 L 443.3751078854149 356.5644882233484 L 455.62936734896465 363.6394882233484 L 459.4043673489647 357.1009964247759 L 429.1800807568878 339.6509964247759 L 425.40508075688774 346.1894882233484 L 438.0490516521406 353.4894882233484 L 433.64905165214054 361.1105117766515 Z" fill-opacity="1"/></g></g><g><g><path fill="rgb(0,0,0)" stroke="none" paint-order="stroke fill markers" d=" M 397.7743596213031 385.2421111877279 L 402.5381801365432 389.1316502476395 L 411.8983716953548 377.66749681259023 L 418.44378362279843 383.01166023637114 L 409.39981475178456 394.0885111905066 L 414.16363526702463 397.97805025041816 L 423.2076041380385 386.9011992962827 L 429.40444383265975 391.96076230104575 L 420.0442522738482 403.42491573609504 L 424.80807278908827 407.3144547960066 L 438.9116046648652 390.0407641472499 L 411.87789149708004 367.96842053897126 Z" fill-opacity="1"/></g></g><g><g><path fill="rgb(0,0,0)" stroke="none" paint-order="stroke fill markers" d=" M 373.5301260578802 407.75908993184584 L 377.6083304060611 412.3624310330981 L 388.8359916286276 402.41559115948615 L 407.90076805305046 423.9352751694053 L 413.55202420174226 418.9286990996873 L 390.40904342913853 392.8056739885159 Z" fill-opacity="1"/></g></g><g><g><path fill="rgb(0,0,0)" stroke="none" paint-order="stroke fill markers" d=" M 346.62410568620317 425.53177689621174 L 349.91107051688914 430.72969592230606 L 362.5889218000461 422.712708530389 L 377.9548143012203 447.01192348977315 L 384.335999447076 442.97670650250825 L 365.68314211521573 413.4795725170298 Z" fill-opacity="1"/></g></g><g><g><path fill="rgb(0,0,0)" stroke="none" paint-order="stroke fill markers" d=" M 328.158142006099 433.4439010655695 C 319.556334207889 437.10878886776123 318.20700055572553 444.91210859049073 322.6754199081304 455.3998742482013 C 327.14383926053523 465.8876399059119 333.7063288238377 470.32004678384476 342.3081366220477 466.6551589816531 C 350.9099444202577 462.9902711794614 352.2592780724211 455.1869514567319 347.7908587200163 444.6991857990213 C 343.3224393676114 434.21142014131067 336.759949804309 429.7790132633778 328.158142006099 433.4439010655695 Z M 330.52953999575243 439.0097766997054 C 334.43945263130246 437.3439186078001 337.04051199545603 439.87709649025305 339.23552501067246 445.02898137474244 L 341.62652133081895 450.6408559810613 C 343.8215343460354 455.7927408655507 343.84665126794425 459.42342525561185 339.9367386323942 461.0892833475172 C 336.02682599684425 462.7551414394225 333.4257666326906 460.22196355696957 331.2307536174742 455.0700786724801 L 328.8593556278208 449.50420303834426 C 326.64474428211133 444.3063191816719 326.61962736020246 440.6756347916107 330.52953999575243 439.0097766997054 Z" fill-opacity="1"/></g></g><g><g><path fill="rgb(0,0,0)" stroke="none" paint-order="stroke fill markers" d="" fill-opacity="1"/></g></g><g><g><path fill="rgb(0,0,0)" stroke="none" paint-order="stroke fill markers" d=" M 268.884234206121 449.1261552344352 L 267.89148451817573 468.5189231662464 L 267.39310586410863 468.55915645060475 L 263.30239328056945 449.57676801924885 L 253.83319885329445 450.34120042205774 L 254.49845388901963 485.30103359868264 L 260.6783491994517 484.8021408726389 L 259.97726190766303 463.6900951022904 L 259.7613030603162 457.2867083596164 L 260.2098438489766 457.2504984036939 L 264.8014004908421 476.8445691294145 L 271.52951232074804 476.3014197905766 L 272.9184995276878 456.22454965255565 L 273.3670403163482 456.18833969663314 L 274.19714686231885 462.74279795970386 L 276.8756554566326 483.4945591309921 L 283.3047400940983 482.9755497627693 L 278.353428633396 448.3617228316263 Z" fill-opacity="1"/></g></g><g><g><path fill="rgb(0,0,0)" stroke="none" paint-order="stroke fill markers" d=" M 233.95496619788497 448.7534072419615 C 224.6352853668301 448.0010448244601 219.81412625988676 454.2834746780707 218.8968073765161 465.64650799080067 C 217.97948849314542 477.0095413035307 221.7304422361563 483.9839836481051 231.05012306721116 484.7363460656065 C 240.36980389826604 485.48870848310787 245.19096300520937 479.20627862949726 246.10828188858002 467.8432453167673 C 247.0256007719507 456.4802120040373 243.27464702893982 449.5057696594629 233.95496619788497 448.7534072419615 Z M 233.46814345714876 454.78378895617345 C 237.70436201671916 455.12577187321955 238.83025924290604 458.57756205167254 238.37964645809237 464.15940297722415 L 237.88880038892034 470.23962255684285 C 237.43818760410667 475.8214634823944 235.77316436751775 479.04794726844057 231.53694580794735 478.7059643513945 C 227.30072724837697 478.36398143434843 226.1748300221901 474.91219125589544 226.62544280700376 469.33035033034383 L 227.11226554773995 463.2999686161319 C 227.56690166098946 457.6682898251736 229.23192489757838 454.4418060391274 233.46814345714876 454.78378895617345 Z" fill-opacity="1"/></g></g><g><g><path fill="rgb(0,0,0)" stroke="none" paint-order="stroke fill markers" d=" M 202.72730819618363 457.6714595451705 L 199.37755892606376 456.84582050337843 L 196.7966871466452 442.87212733162886 L 188.83496424375159 440.90973888447087 L 192.14746217630864 456.09368953793404 C 188.09754185763072 456.22839444638123 184.991557460915 459.42806019882454 183.81891070590598 464.1856751042122 C 182.20352997196494 470.73953237183804 184.90063282940437 475.88449458514845 191.55158427877285 477.52380688551824 L 204.65929881402454 480.75456835340026 L 213.0114154976603 446.86869892523106 L 205.8264460487075 445.0977630095031 Z M 201.3392773433158 463.3029220862416 L 198.9221891340115 473.1094344422447 L 194.74713931907945 472.0803770858082 C 191.34884295808828 471.24277226080176 190.48285735753646 469.74191619187417 191.2127701336135 466.7805436487247 L 191.57174363004484 465.3241309225856 C 192.30165640612188 462.3627583794362 193.7659311673926 461.43625990479865 197.16422752838378 462.2738647298051 Z" fill-opacity="1"/></g></g><g><g><path fill="rgb(0,0,0)" stroke="none" paint-order="stroke fill markers" d=" M 160.4289277875303 429.2334944219649 L 158.01833313689085 434.8913680004667 L 171.8180247917732 440.7708671483678 L 160.54898475829606 467.220276153559 L 167.49482955792018 470.17962405800256 L 181.1744642420368 438.0723414743096 Z" fill-opacity="1"/></g></g><g><g><path fill="rgb(0,0,0)" stroke="none" paint-order="stroke fill markers" d=" M 153.08007778385664 425.3447138570671 L 143.57168932148895 419.33197331312937 C 135.66916202165444 414.3347178388344 128.52539522340862 417.21205965590804 122.53937797077725 426.67818861399854 C 116.55336071814588 436.14431757208905 117.01630468979421 443.8318518243128 124.91883198962869 448.82910729860777 L 134.4272204519964 454.8418478425456 Z M 143.67232277667853 426.3762882484298 L 131.32616219312632 445.9001792244914 L 128.4947754065546 444.1097187069633 C 124.73367952588472 441.7313457806946 124.61997354187415 438.16910337608476 127.50608900296427 433.6050769141483 L 130.8999469988758 428.2381198709452 C 133.81278575127232 423.63183390473154 137.07984010943693 422.2074548046329 140.8409359901068 424.58582773090166 Z" fill-opacity="1"/></g></g><g><g><path fill="rgb(0,0,0)" stroke="none" paint-order="stroke fill markers" d="" fill-opacity="1"/></g></g><g><g><path fill="rgb(0,0,0)" stroke="none" paint-order="stroke fill markers" d="" fill-opacity="1"/></g></g><g><g><path fill="rgb(0,0,0)" stroke="none" paint-order="stroke fill markers" d=" M 74.59491924311233 346.1894882233486 L 70.81991924311232 339.65099642477605 L 40.59563265103543 357.1009964247761 L 44.370632651035436 363.6394882233486 L 56.624892114585236 356.5644882233486 L 61.024892114585235 364.18551177665165 L 48.770632651035434 371.26051177665164 L 52.54563265103544 377.79900357522416 L 82.76991924311234 360.3490035752242 L 78.99491924311234 353.81051177665165 L 66.35094834785953 361.11051177665166 L 61.95094834785953 353.4894882233486 Z" fill-opacity="1"/></g></g><g><g><path fill="rgb(0,0,0)" stroke="none" paint-order="stroke fill markers" d=" M 58.98971623933639 310.35529386616196 L 53.239366346821086 312.53611392147354 L 58.48751867505062 326.3743543132177 L 50.58663142435886 329.37076560872714 L 45.515781539650604 316.0000333383257 L 39.7654316471353 318.1808533936373 L 44.83628153184357 331.5515856640387 L 37.35615159036025 334.388424760379 L 32.10799926213072 320.55018436863486 L 26.357649369615416 322.73100442394644 L 34.26533835066397 343.5818666358312 L 66.89740522038494 331.2061560780467 Z" fill-opacity="1"/></g></g><g><g><path fill="rgb(0,0,0)" stroke="none" paint-order="stroke fill markers" d=" M 51.611557412167514 278.10068233289536 L 45.58584490210757 279.33084034961803 L 48.58623030874824 294.0277001302521 L 20.417249062533045 299.77843882631333 L 21.92744305054218 307.1758582492325 L 56.12213680681732 300.1949615364485 Z" fill-opacity="1"/></g></g><g><g><path fill="rgb(0,0,0)" stroke="none" paint-order="stroke fill markers" d=" M 49.67296919335669 245.91304169409847 L 43.52795685460154 246.16067722577137 L 44.13194595624277 261.1485121983449 L 15.405262258810147 262.3061579764906 L 15.709270106636232 269.85003491268594 L 50.58096614282401 268.44475360286737 Z" fill-opacity="1"/></g></g><g><g><path fill="rgb(0,0,0)" stroke="none" paint-order="stroke fill markers" d=" M 52.05385050484801 225.96498595708871 C 53.18086846523527 216.68315798427193 47.0976621775811 211.61294090195238 35.78078101286329 210.23882274704172 C 24.463899848145466 208.86470459213103 17.34407811029552 212.33178382705478 16.217060149908257 221.6136117998716 C 15.090042189520993 230.8954397726884 21.173248477175164 235.96565685500792 32.490129641892985 237.3397750099186 C 43.8070108066108 238.71389316482927 50.926832544460744 235.24681392990553 52.05385050484801 225.96498595708871 Z M 46.04796181655478 225.23573904154404 C 45.53568092546966 229.45475175646075 42.04135484488373 230.4407463013427 36.48218514993463 229.7657408919129 L 30.426661017936496 229.03046714235543 C 24.86749132298739 228.35546173292562 21.710667947116363 226.561871430333 22.222948838201482 222.3428587154163 C 22.7352297292866 218.12384600049955 26.229555809872537 217.1378514556176 31.78872550482164 217.81285686504742 L 37.79461419311487 218.54210378059213 C 43.40341933176887 219.2231360240347 46.5602427076399 221.0167263266273 46.04796181655478 225.23573904154404 Z" fill-opacity="1"/></g></g><g><g><path fill="rgb(0,0,0)" stroke="none" paint-order="stroke fill markers" d="" fill-opacity="1"/></g></g><g><g><path fill="rgb(0,0,0)" stroke="none" paint-order="stroke fill markers" d=" M 68.10957390599496 166.7911489362983 L 51.811319071322885 156.23501852103306 L 52.02566535202441 155.78329330372785 L 70.51025224985206 161.73182650248017 L 74.58283158318108 153.14904737368153 L 43.974100422295294 136.24525854630264 L 41.31620654159636 141.846651240887 L 59.95031815047237 151.79551472110182 L 65.60379316355791 154.81018224446447 L 65.41088151092653 155.21673494003915 L 46.14614017797076 149.39610427194953 L 43.25246538850014 155.49439470556962 L 59.9450513530376 166.73572798132153 L 59.75213970040622 167.1422806768962 L 53.66075906355678 164.58394490201917 L 34.34995241879673 156.52772080330573 L 31.584885397747037 162.3549761065427 L 64.03699457266595 175.37392806509695 Z" fill-opacity="1"/></g></g><g><g><path fill="rgb(0,0,0)" stroke="none" paint-order="stroke fill markers" d=" M 85.89701714080486 136.72788950180757 C 91.20842252274117 129.03299035570188 88.17825822549233 121.71652916659697 78.79624215430465 115.2405910538618 C 69.41422608311696 108.76465294112663 61.498704963980174 108.52585299870717 56.18729958204386 116.22075214481285 C 50.87589420010756 123.91565129091855 53.90605849735641 131.23211248002346 63.28807456854409 137.70805059275864 C 72.67009063973178 144.1839887054938 80.58561175886857 144.42278864791325 85.89701714080486 136.72788950180757 Z M 80.91796475214825 133.2910977840841 C 78.50368957854083 136.78877921413212 74.95140298237347 136.03793972483388 70.34269333336898 132.8567771431394 L 65.32249175141769 129.39158218807935 C 60.713782102413205 126.21041960638487 58.752076797093075 123.15522529258439 61.16635197070049 119.65754386253634 C 63.5806271443079 116.15986243248831 67.13291374047526 116.91070192178655 71.74162338947974 120.09186450348103 L 76.72067577813637 123.52865622120453 C 81.37053462043552 126.73822204023556 83.33223992575566 129.79341635403605 80.91796475214825 133.2910977840841 Z" fill-opacity="1"/></g></g><g><g><path fill="rgb(0,0,0)" stroke="none" paint-order="stroke fill markers" d=" M 93.78758629479817 105.22491822003734 L 96.1774853144063 102.73676977670118 L 109.56949447553986 107.48851583768918 L 115.24983417431856 101.57465576946989 L 100.44389821233159 96.85138780231611 C 102.35220049894083 93.27670146881468 101.13420087206374 88.98700720127914 97.60030888007906 85.5926578690821 C 92.73219236050831 80.91676848289231 86.92797295355075 80.68004696739924 82.18281113201 85.62028373170436 L 72.83103235963041 95.35651677084587 L 98.00099777192955 119.53259670833087 L 103.12715798790057 114.19569859798665 Z M 89.60461210020405 101.20711696968166 L 82.32046738203152 94.21060099923471 L 85.2991821021228 91.10943047565631 C 87.72371733940639 88.58522190995296 89.45648962279769 88.58568441502737 91.65615708719632 90.69849369323165 L 92.73796075821204 91.73758022349605 C 94.93762822261068 93.85038950170033 95.00786205757893 95.58173788039991 92.58332682029533 98.10594644610326 Z" fill-opacity="1"/></g></g><g><g><path fill="rgb(0,0,0)" stroke="none" paint-order="stroke fill markers" d=" M 139.5647767277566 82.81242880880843 L 135.87021180269303 77.8958558138769 L 123.87857035164052 86.9069897774466 L 106.6072302547986 63.923010329595954 L 100.57143739110217 68.4586144245927 L 121.53734241300766 96.35916686737487 Z" fill-opacity="1"/></g></g><g><g><path fill="rgb(0,0,0)" stroke="none" paint-order="stroke fill markers" d=" M 146.6069844885383 78.39252829947455 L 156.56836477713694 73.16439261398214 C 164.84737861699443 68.8192309553729 165.92741090716032 61.19387652084339 160.7225113802701 51.276769033527444 C 155.5176118533799 41.35966154621149 148.6285399126669 37.9168156600759 140.34952607280937 42.26197731868514 L 130.38814578421076 47.490113004177545 Z M 150.41749236331384 69.72938627499673 L 139.68238708910275 49.27535208240758 L 142.648664775041 47.718529456060956 C 146.5889440891978 45.65051134046618 149.73078949803335 47.33316027205561 152.2402946270697 52.114622810582944 L 155.19128676954762 57.737268573480826 C 157.72402805718616 62.563003913290814 157.32404936340888 66.10454553305533 153.3837700492521 68.1725636486501 Z" fill-opacity="1"/></g></g><g><g><path fill="rgb(0,0,0)" stroke="none" paint-order="stroke fill markers" d="" fill-opacity="1"/></g></g><g><g><path fill="rgb(0,0,0)" stroke="none" paint-order="stroke fill markers" d="" fill-opacity="1"/></g></g></g></g></svg>