<svg version="1.1" xmlns="http://www.w3.org/2000/svg" xmlns:xlink="http://www.w3.org/1999/xlink" width="200" height="200" viewBox="0 0 200 200"><defs/><g><g/><g><g><g><path fill="rgb(0,0,0)" stroke="none" paint-order="stroke fill markers" d=" M 103.55902777777777 16.168405320909287 L 103.55902777777777 16.168405320909287 Q 103.27690972222223 16.168405320909287 102.89713541666667 15.962242126464844 L 102.89713541666667 15.962242126464844 Q 102.65842013888889 15.853735182020397 101.82291666666667 15.799481709798176 Q 100.98741319444444 15.745228237575954 100 15.745228237575954 L 100 15.745228237575954 Q 99.01258680555556 15.745228237575954 98.17708333333333 15.799481709798176 Q 97.34157986111111 15.853735182020397 97.10286458333333 15.962242126464844 L 97.10286458333333 15.962242126464844 Q 96.72309027777777 16.168405320909287 96.44097222222223 16.168405320909287 L 96.44097222222223 16.168405320909287 Q 95.95269097222223 16.168405320909287 95.70855034722223 15.73437754313151 Q 95.46440972222223 15.300349765353733 95.46440972222223 14.779516432020397 L 95.46440972222223 14.779516432020397 Q 95.46440972222223 14.26953379313151 95.70855034722223 13.835506015353733 Q 95.95269097222223 13.401478237575954 96.44097222222223 13.401478237575954 L 96.44097222222223 13.401478237575954 Q 96.72309027777777 13.401478237575954 97.10286458333333 13.607641432020397 L 97.10286458333333 13.607641432020397 Q 97.35243055555556 13.726999070909287 98.18793402777777 13.786677890353731 Q 99.0234375 13.846356709798176 100 13.846356709798176 L 100 13.846356709798176 Q 100.9765625 13.846356709798176 101.81206597222223 13.786677890353731 Q 102.64756944444444 13.726999070909287 102.89713541666667 13.607641432020397 L 102.89713541666667 13.607641432020397 Q 103.27690972222223 13.401478237575954 103.55902777777777 13.401478237575954 L 103.55902777777777 13.401478237575954 Q 104.04730902777777 13.401478237575954 104.29144965277777 13.835506015353733 Q 104.53559027777777 14.26953379313151 104.53559027777777 14.779516432020397 L 104.53559027777777 14.779516432020397 Q 104.53559027777777 15.300349765353733 104.29144965277777 15.73437754313151 Q 104.04730902777777 16.168405320909287 103.55902777777777 16.168405320909287 Z" fill-opacity="1"/></g></g><g><g><path fill="rgb(0,0,0)" stroke="none" paint-order="stroke fill markers" d=" M 108.88917848551732 21.85934199643211 L 108.88917848551732 21.85934199643211 Q 108.40544511342927 21.792854374803085 107.9981576299045 21.528772536010894 Q 107.59087014637973 21.264690697218704 107.36994466616639 20.84002768062515 Q 107.14901918595305 20.41536466403159 107.22584932650214 19.856383878507618 L 107.22584932650214 19.856383878507618 Q 107.29233694813117 19.372650506419568 107.63159072856917 18.816880894291874 L 107.63159072856917 18.816880894291874 Q 108.17641404745586 17.960784907981818 108.82348694000086 16.998263007895403 L 108.82348694000086 16.998263007895403 Q 109.62131082740824 15.815501766741923 110.40186440615715 14.559174170640777 Q 111.18241798490605 13.302846574539632 111.76356820400827 12.06292245175026 Q 112.34471842311048 10.822998328960887 112.49542369880294 9.726536018894636 L 112.49542369880294 9.726536018894636 Q 112.54418128799756 9.37179821269673 112.5410753390116 9.075648178632429 Q 112.53796939002562 8.779498144568128 112.57047444948871 8.543006273769526 L 112.57047444948871 8.543006273769526 Q 112.65912461166074 7.89802844431879 113.02922525265852 7.51626561831354 Q 113.3993258936563 7.134502792308288 113.90649575320484 6.990633868014392 Q 114.41366561275338 6.846764943720496 114.90814861533228 6.914730068052389 L 114.90814861533228 6.914730068052389 Q 115.55312644478302 7.003380230224426 116.00792043016989 7.399947835878544 Q 116.46271441555676 7.796515441532662 116.37554175608759 8.430743640492553 L 116.37554175608759 8.430743640492553 Q 116.31348664256716 8.882228121108069 115.88528081279667 9.447676972594516 L 115.88528081279667 9.447676972594516 Q 114.31098135538336 11.498505165261218 113.1597850470354 14.335842666658218 Q 112.00858873868744 17.173180168055215 111.57644895071896 19.600048765151364 L 111.57644895071896 19.600048765151364 Q 111.4108177044176 20.486358085080077 110.98314707021315 21.00806966325171 Q 110.5554764360087 21.52978124142334 109.99644303827957 21.73223793785084 Q 109.43740964055044 21.93469463427834 108.88917848551732 21.85934199643211 Z" fill-opacity="1"/></g></g><g><g><path fill="rgb(0,0,0)" stroke="none" paint-order="stroke fill markers" d=" M 126.04454293873629 20.237322460472377 L 126.04454293873629 20.237322460472377 Q 125.77288658596889 20.16120791999839 125.46281750605148 19.8602279346457 L 125.46281750605148 19.8602279346457 Q 125.26222926158445 19.69134011087256 124.47234593617218 19.4136823654751 Q 123.6824626107599 19.13602462007764 122.73166537607402 18.869623728418688 L 122.73166537607402 18.869623728418688 Q 121.78086814138815 18.603222836759734 120.96170999271665 18.430048303965116 Q 120.14255184404514 18.256873771170497 119.88341395305967 18.296952372603045 L 119.88341395305967 18.296952372603045 Q 119.46210054475719 18.393008595141154 119.1904441919898 18.31689405466717 L 119.1904441919898 18.31689405466717 Q 118.720269735277 18.18515735000065 118.60228179995751 17.701356147256025 Q 118.48429386463802 17.217554944511395 118.6248130162823 16.716035524017748 L 118.6248130162823 16.716035524017748 Q 118.76240468560067 16.22496442478439 119.11459120699396 15.872899926706275 Q 119.46677772838726 15.52083542862816 119.93695218510005 15.652572133294676 L 119.93695218510005 15.652572133294676 Q 120.20860853786745 15.728686673768664 120.51867761778487 16.029666659121354 L 120.51867761778487 16.029666659121354 Q 120.72678670118626 16.2119302864807 121.51520628543557 16.494812192508302 Q 122.3036258696849 16.777694098535903 123.24397478311047 17.041167507868934 L 123.24397478311047 17.041167507868934 Q 124.18432369653605 17.30464091720197 125.00494558637052 17.47259128936644 Q 125.82556747620498 17.640541661530918 126.09808117077668 17.59294222116401 L 126.09808117077668 17.59294222116401 Q 126.51939457907915 17.4968859986259 126.79105093184654 17.573000539099883 L 126.79105093184654 17.573000539099883 Q 127.26122538855934 17.7047372437664 127.37921332387883 18.188538446511032 Q 127.49720125919832 18.672339649255658 127.35960958987997 19.16341074848902 L 127.35960958987997 19.16341074848902 Q 127.21909043823568 19.664930168982664 126.86690391684238 20.01699466706078 Q 126.51471739544908 20.369059165138893 126.04454293873629 20.237322460472377 Z" fill-opacity="1"/></g></g><g><g><path fill="rgb(0,0,0)" stroke="none" paint-order="stroke fill markers" d=" M 129.6416408594727 27.15528121726336 L 129.6416408594727 27.15528121726336 Q 129.19378377865948 26.96074943511188 128.87284804728043 26.59657561927663 Q 128.55191231590138 26.232401803441384 128.45375206249508 25.763881462238306 Q 128.3555918090888 25.29536112103523 128.58038409068607 24.777837383206634 L 128.58038409068607 24.777837383206634 Q 128.77491587283754 24.329980302393423 129.25153404967864 23.88634970965807 L 129.25153404967864 23.88634970965807 Q 130.00712577489176 23.20899165709774 130.88988875010875 22.456740857165556 L 130.88988875010875 22.456740857165556 Q 131.9772323274652 21.533089920028388 133.06779399108729 20.533941194432003 Q 134.15835565470934 19.534792468835622 135.0524827720371 18.497640548673154 Q 135.94660988936488 17.46048862851069 136.3875485955749 16.445345912000747 L 136.3875485955749 16.445345912000747 Q 136.53020523581932 16.11691738607106 136.6071147868157 15.830911423614111 Q 136.6840243378121 15.544905461157166 136.7791287646417 15.325953110537375 L 136.7791287646417 15.325953110537375 Q 137.03850447417702 14.72881033611976 137.49787915725628 14.4610562692369 Q 137.95725384033554 14.19330220235404 138.4844318369609 14.191601118573676 Q 139.0116098335863 14.189900034793308 139.46941929397312 14.388754745437048 L 139.46941929397312 14.388754745437048 Q 140.06656206839074 14.64813045497236 140.3974983995506 15.15269420685785 Q 140.72843473071046 15.657257958743337 140.4733819496674 16.244448353587323 L 140.4733819496674 16.244448353587323 Q 140.29181895299268 16.662448295679653 139.7269358825781 17.09140021962422 L 139.7269358825781 17.09140021962422 Q 137.65770889499328 18.641437229278864 135.78369757199442 21.062969512454078 Q 133.90968624899554 23.484501795629292 132.83881006509097 25.704785602412294 L 132.83881006509097 25.704785602412294 Q 132.44019748193926 26.513541393054304 131.88762993570688 26.900522334458234 Q 131.33506238947447 27.287503275862164 130.74213730360106 27.331626923115273 Q 130.14921221772764 27.37575057036838 129.6416408594727 27.15528121726336 Z" fill-opacity="1"/></g></g><g><g><path fill="rgb(0,0,0)" stroke="none" paint-order="stroke fill markers" d=" M 146.5984534957847 30.221872503172342 L 146.5984534957847 30.221872503172342 Q 146.3574063547451 30.07528848949047 146.14003890565164 29.701814021851327 L 146.14003890565164 29.701814021851327 Q 145.9924544069573 29.485070956028363 145.30677326112504 29.00460154223213 Q 144.62109211529275 28.524132128435895 143.7774271216542 28.011088080549346 L 143.7774271216542 28.011088080549346 Q 142.93376212801562 27.498044032662797 142.19170251538264 27.110285057727943 Q 141.44964290274964 26.72252608279309 141.18930147045387 26.69120389469289 L 141.18930147045387 26.69120389469289 Q 140.75769584751768 26.670029094726996 140.5166487064781 26.523445081045125 L 140.5166487064781 26.523445081045125 Q 140.09945173160187 26.269741980441886 140.11636711136666 25.77204867469474 Q 140.1332824911314 25.274355368947596 140.40389913177486 24.829345262412964 L 140.40389913177486 24.829345262412964 Q 140.66887792573826 24.393606199764477 141.10299028037923 24.14961599462057 Q 141.53710263502023 23.905625789476666 141.95429960989645 24.159328890079905 L 141.95429960989645 24.159328890079905 Q 142.19534675093604 24.305912903761776 142.4127142000295 24.67938737140092 L 142.4127142000295 24.67938737140092 Q 142.5639318959299 24.911039327790093 143.24679411842212 25.396144263529393 Q 143.92965634091436 25.881249199268698 144.7640502906668 26.388655400475177 L 144.7640502906668 26.388655400475177 Q 145.5984442404192 26.896061601681655 146.34332277639226 27.279185054673437 Q 147.0882013123653 27.66230850766522 147.36345163522725 27.689997498559357 L 147.36345163522725 27.689997498559357 Q 147.79505725816347 27.711172298525252 148.03610439920305 27.857756312207123 L 148.03610439920305 27.857756312207123 Q 148.45330137407927 28.111459412810362 148.4363859943145 28.609152718557507 Q 148.4194706145497 29.10684602430465 148.15449182058634 29.542585086953142 L 148.15449182058634 29.542585086953142 Q 147.8838751799429 29.98759519348777 147.4497628253019 30.231585398631676 Q 147.01565047066092 30.47557560377558 146.5984534957847 30.221872503172342 Z" fill-opacity="1"/></g></g><g><g><path fill="rgb(0,0,0)" stroke="none" paint-order="stroke fill markers" d=" M 148.19571833236492 37.85377998779579 L 148.19571833236492 37.85377998779579 Q 147.81695305370064 37.545631577480336 147.60617140948042 37.10837489053818 Q 147.39538976526023 36.67111820359602 147.42727483560284 36.193488548152516 Q 147.45915990594546 35.715858892709015 147.81524251342108 35.27817457069697 L 147.81524251342108 35.27817457069697 Q 148.12339092373654 34.8994092920327 148.70202490718748 34.60081977027795 L 148.70202490718748 34.60081977027795 Q 149.61234625707016 34.152436199518846 150.66532882345913 33.666247500253434 L 150.66532882345913 33.666247500253434 Q 151.96154879189805 33.07020983171817 153.2812365707901 32.402342266802755 Q 154.60092434968212 31.734474701887343 155.74171504730262 30.977015797615906 Q 156.8825057449231 30.219556893344468 157.58097547497147 29.361022261705465 L 157.58097547497147 29.361022261705465 Q 157.80695097586948 29.083261057351663 157.9581719972886 28.828610920347288 Q 158.10939301870772 28.573960783342905 158.2600433526397 28.388786647107043 L 158.2600433526397 28.388786647107043 Q 158.67090789972698 27.883766275554684 159.18548690614307 27.749879062041565 Q 159.70006591255918 27.61599184852845 160.20815366593052 27.75658476686366 Q 160.7162414193019 27.897177685198873 161.1034237041587 28.212173837965782 L 161.1034237041587 28.212173837965782 Q 161.60844407571105 28.623038385053057 161.79097871889476 29.198177097918144 Q 161.97351336207848 29.773315810783227 161.56949655744268 30.269919176143045 L 161.56949655744268 30.269919176143045 Q 161.28189137448157 30.623433436229696 160.6222258565874 30.884075030757884 L 160.6222258565874 30.884075030757884 Q 158.2115364384167 31.81836170334188 155.75369694756236 33.64449479662528 Q 153.29585745670806 35.470627889908684 151.66566686449502 37.31965861355201 L 151.66566686449502 37.31965861355201 Q 151.06363621625414 37.99087915772695 150.4271531650695 38.214428856259254 Q 149.79067011388491 38.43797855479156 149.20782788103466 38.32049670380577 Q 148.6249856481844 38.203014852819976 148.19571833236492 37.85377998779579 Z" fill-opacity="1"/></g></g><g><g><path fill="rgb(0,0,0)" stroke="none" paint-order="stroke fill markers" d=" M 163.69636993079084 45.38154704861929 L 163.69636993079084 45.38154704861929 Q 163.50380936521265 45.17536502744707 163.3952646962525 44.75709497025427 L 163.3952646962525 44.75709497025427 Q 163.3116296104449 44.50857150404002 162.78100447799648 43.86092464026497 Q 162.25037934554805 43.21327777648992 161.57641736602443 42.491640702387166 L 161.57641736602443 42.491640702387166 Q 160.9024553865008 41.77000362828442 160.29252947667845 41.19641852050097 Q 159.68260356685613 40.622833412717526 159.44036692630067 40.52243345848649 L 159.44036692630067 40.52243345848649 Q 159.03047930331957 40.3855980740618 158.8379187377414 40.179416052889586 L 158.8379187377414 40.179416052889586 Q 158.50464083577916 39.822562554706906 158.65520499429374 39.34788878164914 Q 158.80576915280835 38.87321500859137 159.1864128842032 38.51771857983165 L 159.1864128842032 38.51771857983165 Q 159.55912653786066 38.1696283266711 160.0429685983375 38.05180805179601 Q 160.52681065881433 37.933987776920915 160.86008856077657 38.290841275103595 L 160.86008856077657 38.290841275103595 Q 161.05264912635474 38.497023296275806 161.16119379531492 38.91529335346861 L 161.16119379531492 38.91529335346861 Q 161.24430497898427 39.179153073019414 161.770965072564 39.83050302459405 Q 162.29762516614372 40.48185297616868 162.96418097006818 41.195559972534035 L 162.96418097006818 41.195559972534035 Q 163.63073677399265 41.909266968899395 164.24462772268367 42.47914898888325 Q 164.85851867137472 43.04903100886712 165.11609156526674 43.14995486523639 L 165.11609156526674 43.14995486523639 Q 165.52597918824785 43.28679024966108 165.718539753826 43.4929722708333 L 165.718539753826 43.4929722708333 Q 166.05181765578826 43.84982576901597 165.90125349727364 44.324499542073745 Q 165.75068933875906 44.79917331513151 165.3779756851016 45.14726356829207 L 165.3779756851016 45.14726356829207 Q 164.99733195370672 45.50275999705178 164.51348989322992 45.620580271926876 Q 164.02964783275308 45.73840054680196 163.69636993079084 45.38154704861929 Z" fill-opacity="1"/></g></g><g><g><path fill="rgb(0,0,0)" stroke="none" paint-order="stroke fill markers" d=" M 163.17533985728616 53.16137959659426 L 163.17533985728616 53.16137959659426 Q 162.8937576687535 52.76246851602276 162.8087628219821 52.28455828612795 Q 162.72376797521068 51.80664805623314 162.88333359949937 51.35533269308317 Q 163.04289922378808 50.9040173299332 163.50386313911514 50.578633467628805 L 163.50386313911514 50.578633467628805 Q 163.90277421968665 50.29705127909615 164.54050937426925 50.165647847194386 L 164.54050937426925 50.165647847194386 Q 165.53804597874372 49.979493316461344 166.68315323643037 49.795425109521936 L 166.68315323643037 49.795425109521936 Q 168.09211489070438 49.571206096772926 169.5430535794758 49.28415237453745 Q 170.99399226824724 48.99709865230197 172.29683931888815 48.575510025707466 Q 173.59968636952905 48.15392139911295 174.50388481882447 47.51566843843895 L 174.50388481882447 47.51566843843895 Q 174.79641961124358 47.309174833515 175.01073673171692 47.10476675767795 Q 175.22505385219026 46.90035868184089 175.42007704713632 46.76269627855826 L 175.42007704713632 46.76269627855826 Q 175.9519584878983 46.38725336051473 176.48357784678768 46.39716280250437 Q 177.01519720567705 46.40707224449402 177.46651217147365 46.67953203136169 Q 177.91782713727025 46.95199181822936 178.2056667077703 47.359767589480235 L 178.2056667077703 47.359767589480235 Q 178.58110962581384 47.89164903024224 178.60170482157687 48.49470729683826 Q 178.62230001733994 49.09776556343428 178.0992832672573 49.46695109951042 L 178.0992832672573 49.46695109951042 Q 177.7269662587239 49.72976114214089 177.02144266704343 49.802761812542514 L 177.02144266704343 49.802761812542514 Q 174.44808062426222 50.05200637962742 171.58869967672166 51.147304345493204 Q 168.72931872918107 52.242602311358986 166.66071750725828 53.58324580184272 L 166.66071750725828 53.58324580184272 Q 165.8999186530013 54.067149742418806 165.2267251330546 54.110688539611175 Q 164.5535316131079 54.154227336803544 164.02399897536554 53.88385307902276 Q 163.49446633762315 53.61347882124197 163.17533985728616 53.16137959659426 Z" fill-opacity="1"/></g></g><g><g><path fill="rgb(0,0,0)" stroke="none" paint-order="stroke fill markers" d=" M 176.07021799953338 64.59202238667382 L 176.07021799953338 64.59202238667382 Q 175.9404253456596 64.34153393530161 175.94875371837068 63.909489465238956 L 175.94875371837068 63.909489465238956 Q 175.9352708771591 63.647617447203324 175.59905579671977 62.88082613854839 Q 175.26284071628046 62.114034829893455 174.80856642772216 61.23732525009076 L 174.80856642772216 61.23732525009076 Q 174.35429213916382 60.36061567028807 173.9217353466583 59.64374461312306 Q 173.48917855415274 58.92687355595805 173.28301228880866 58.76484204090228 L 173.28301228880866 58.76484204090228 Q 172.9252421556681 58.52249452650133 172.79544950179428 58.272006075129134 L 172.79544950179428 58.272006075129134 Q 172.57080837008962 57.838468370831094 172.84385465250222 57.422018512722374 Q 173.1169009349148 57.00556865461366 173.5793411528327 56.765951447462015 L 173.5793411528327 56.765951447462015 Q 174.032147199544 56.53132626545937 174.52983461366125 56.54841411164868 Q 175.0275220277785 56.565501957838 175.25216315948316 56.999039662136035 L 175.25216315948316 56.999039662136035 Q 175.38195581335697 57.249528113508234 175.37362744064586 57.6815725835709 L 175.37362744064586 57.6815725835709 Q 175.38246813579985 57.958070797962144 175.71386613063584 58.72735811919157 Q 176.04526412547185 59.496645440421005 176.49454638888116 60.36372084901707 L 176.49454638888116 60.36372084901707 Q 176.9438286522905 61.23079625761314 177.38120253039935 61.945171302203654 Q 177.8185764085082 62.659546346794166 178.03936887020788 62.82622000790757 L 178.03936887020788 62.82622000790757 Q 178.39713900334846 63.06856752230852 178.52693165722226 63.31905597368072 L 178.52693165722226 63.31905597368072 Q 178.75157278892692 63.75259367797875 178.47852650651433 64.16904353608747 Q 178.20548022410176 64.58549339419619 177.75267417739047 64.82011857619884 L 177.75267417739047 64.82011857619884 Q 177.29023395947257 65.05973578335049 176.79254654535532 65.04264793716116 Q 176.29485913123807 65.02556009097185 176.07021799953338 64.59202238667382 Z" fill-opacity="1"/></g></g><g><g><path fill="rgb(0,0,0)" stroke="none" paint-order="stroke fill markers" d=" M 173.46953543294163 71.94278540828273 L 173.46953543294163 71.94278540828273 Q 173.30601999731127 71.4826970674044 173.35311562694812 70.99957771001442 Q 173.40021125658498 70.51645835262443 173.67562318243043 70.12492927762241 Q 173.9510351082759 69.7334002026204 174.4826927466242 69.54444903255865 L 174.4826927466242 69.54444903255865 Q 174.9427810875025 69.38093359692829 175.59231951424556 69.42646184629295 L 175.59231951424556 69.42646184629295 Q 176.60308864678427 69.51634258553015 177.7553932289831 69.64804636776941 L 177.7553932289831 69.64804636776941 Q 179.1726003287654 69.81227530924852 180.64718044247292 69.92732489108779 Q 182.1217605561804 70.04237447292705 183.49003775422435 69.98792342380435 Q 184.8583149522683 69.93347237468166 185.90118185825918 69.56283738725283 L 185.90118185825918 69.56283738725283 Q 186.23857997490327 69.44292606779055 186.5000982740409 69.30392006500094 Q 186.76161657317854 69.16491406221131 186.9865486509413 69.0849731825698 L 186.9865486509413 69.0849731825698 Q 187.5999997721124 68.86695260172931 188.10923170762294 69.01992376124203 Q 188.61846364313348 69.17289492075474 188.97953385497078 69.55701448018348 Q 189.34060406680808 69.94113403961224 189.5077531787858 70.41144656584342 L 189.5077531787858 70.41144656584342 Q 189.7257737596263 71.02489768701452 189.58290205651568 71.61114943451605 Q 189.4400303534051 72.19740118201756 188.83680341758682 72.41178808651071 L 188.83680341758682 72.41178808651071 Q 188.40738763276704 72.56440249309905 187.70833142453958 72.44434811360625 L 187.70833142453958 72.44434811360625 Q 185.16315124751296 71.99006524586942 182.11429604736776 72.2732948448441 Q 179.0654408472226 72.55652444381879 176.71184768499916 73.28935130648962 L 176.71184768499916 73.28935130648962 Q 175.84870559532308 73.55004970190755 175.18872929033336 73.41034852434896 Q 174.5287529853436 73.27064734679038 174.09180295599984 72.86743310403428 Q 173.65485292665605 72.46421886127817 173.46953543294163 71.94278540828273 Z" fill-opacity="1"/></g></g><g><g><path fill="rgb(0,0,0)" stroke="none" paint-order="stroke fill markers" d=" M 182.80228599734204 86.42854544358941 L 182.80228599734204 86.42854544358941 Q 182.74488738254854 86.15232814454708 182.8694711196267 85.73855202348717 L 182.8694711196267 85.73855202348717 Q 182.92714048366386 85.48275330322309 182.8102709896682 84.65368695321439 Q 182.69340149567253 83.82462060320569 182.4925063438953 82.85786005655757 L 182.4925063438953 82.85786005655757 Q 182.29161119211807 81.89109950990944 182.0685042754138 81.08410955020592 Q 181.84539735870953 80.27711959050241 181.69059187732952 80.06547365084872 L 181.69059187732952 80.06547365084872 Q 181.41147340811506 79.73558781294852 181.35407479332156 79.45937051390621 L 181.35407479332156 79.45937051390621 Q 181.25473103694821 78.98130211171757 181.63000884959587 78.65396234940249 Q 182.00528666224352 78.32662258708741 182.51522629124474 78.22065591362251 L 182.51522629124474 78.22065591362251 Q 183.0145421779751 78.1168968791881 183.4891637469961 78.26762551906167 Q 183.96378531601712 78.41835415893522 184.0631290723905 78.89642256112386 L 184.0631290723905 78.89642256112386 Q 184.120527687184 79.17263986016617 183.99594395010584 79.58641598122608 L 183.99594395010584 79.58641598122608 Q 183.92985848282834 79.85504608279155 184.04141610568857 80.6852162523155 Q 184.15297372854883 81.51538642183947 184.35166124129552 82.47152322621673 L 184.35166124129552 82.47152322621673 Q 184.55034875404223 83.427660030594 184.77876754188193 84.23354617078226 Q 185.0071863297216 85.03943231097051 185.174823192403 85.25949435386454 L 185.174823192403 85.25949435386454 Q 185.45394166161748 85.58938019176473 185.51134027641098 85.86559749080706 L 185.51134027641098 85.86559749080706 Q 185.61068403278432 86.34366589299569 185.23540622013667 86.67100565531076 Q 184.86012840748901 86.99834541762584 184.36081252075866 87.10210445206025 L 184.36081252075866 87.10210445206025 Q 183.85087289175743 87.20807112552515 183.37625132273644 87.0573424856516 Q 182.9016297537154 86.90661384577804 182.80228599734204 86.42854544358941 Z" fill-opacity="1"/></g></g><g><g><path fill="rgb(0,0,0)" stroke="none" paint-order="stroke fill markers" d=" M 178.31483166629627 92.80506647302276 L 178.31483166629627 92.80506647302276 Q 178.28151017539557 92.31792351931645 178.4572034140387 91.8654257870449 Q 178.63289665268184 91.41292805477336 179.00372883746982 91.11022318828587 Q 179.37456102225778 90.80751832179838 179.93748176876286 90.76901348786866 L 179.93748176876286 90.76901348786866 Q 180.4246247224692 90.73569199696794 181.03779312770175 90.95477530562155 L 181.03779312770175 90.95477530562155 Q 181.9868306657054 91.31402527157678 183.06087141299741 91.75173317597073 L 183.06087141299741 91.75173317597073 Q 184.38121619098823 92.29222996238587 185.77007486835328 92.80085014713168 Q 187.1589335457183 93.30947033187749 188.49116203083804 93.62619524544306 Q 189.82339051595778 93.94292015900862 190.92758121102543 93.86739144630033 L 190.92758121102543 93.86739144630033 Q 191.28481937707673 93.84295568630647 191.57414323899823 93.77966119588103 Q 191.86346710091973 93.71636670545558 192.10162587828728 93.70007619879301 L 192.10162587828728 93.70007619879301 Q 192.75114981656236 93.65564754425873 193.20022692561838 93.94033525018995 Q 193.6493040346744 94.22502295612117 193.89335056672672 94.6923138976182 Q 194.13739709877905 95.15960483911526 194.17145906725534 95.65757319179284 L 194.17145906725534 95.65757319179284 Q 194.21588772178964 96.30709713006792 193.92014526043056 96.83306274828604 Q 193.62440279907145 97.35902836650418 192.9857042597676 97.40271654346289 L 192.9857042597676 97.40271654346289 Q 192.53103750297504 97.43381660163689 191.89029447919543 97.12961105636442 L 191.89029447919543 97.12961105636442 Q 189.56206053822893 96.00549283590004 186.5498507280894 95.45564822431687 Q 183.53764091794991 94.9058036127337 181.07361105329568 94.97646343164718 L 181.07361105329568 94.97646343164718 Q 180.1721410283795 94.99462147453461 179.5743293616971 94.68204131947422 Q 178.9765176950147 94.36946116441385 178.66455685883255 93.86331149248522 Q 178.35259602265043 93.3571618205566 178.31483166629627 92.80506647302276 Z" fill-opacity="1"/></g></g><g><g><path fill="rgb(0,0,0)" stroke="none" paint-order="stroke fill markers" d=" M 183.39328723798113 109.27160119968055 L 183.39328723798113 109.27160119968055 Q 183.412539654946 108.99014082642802 183.64413895054477 108.62532093637007 L 183.64413895054477 108.62532093637007 Q 183.76868344691988 108.39456693475825 183.87982721509513 107.56471360184975 Q 183.9909709832704 106.73486026894123 184.0583544426474 105.74974896255735 L 184.0583544426474 105.74974896255735 Q 184.1257379020244 104.76463765617346 184.12862768048717 103.92737954750923 Q 184.1315174589499 103.090121438845 184.03955397589996 102.84455788572176 L 184.03955397589996 102.84455788572176 Q 183.85978811059118 102.4515998477921 183.87904052755604 102.17013947453955 L 183.87904052755604 102.17013947453955 Q 183.91236201845678 101.68299652083324 184.3620387227572 101.46904414700295 Q 184.8117154270576 101.25509177317264 185.3313345776777 101.29063469680008 L 185.3313345776777 101.29063469680008 Q 185.84012832932652 101.32543714285194 186.25648354272622 101.59862772272795 Q 186.6728387561259 101.87181830260398 186.63951726522518 102.3589612563103 L 186.63951726522518 102.3589612563103 Q 186.62026484826032 102.64042162956284 186.38866555266154 103.00524151962078 L 186.38866555266154 103.00524151962078 Q 186.25255517973963 103.24608044262828 186.13599871207876 104.075563536749 Q 186.01944224441786 104.90504663086972 185.95279926261642 105.87933253828236 L 185.95279926261642 105.87933253828236 Q 185.886156280815 106.85361844569499 185.88867920183787 107.691246793147 Q 185.89120212286073 108.52887514059901 185.99325052730637 108.78600457026909 L 185.99325052730637 108.78600457026909 Q 186.17301639261512 109.17896260819874 186.15376397565026 109.46042298145129 L 186.15376397565026 109.46042298145129 Q 186.12044248474956 109.9475659351576 185.67076578044913 110.16151830898791 Q 185.22108907614873 110.3754706828182 184.7122953244999 110.34066823676633 L 184.7122953244999 110.34066823676633 Q 184.19267617387982 110.3051253131389 183.77632096048012 110.03193473326289 Q 183.35996574708042 109.75874415338687 183.39328723798113 109.27160119968055 Z" fill-opacity="1"/></g></g><g><g><path fill="rgb(0,0,0)" stroke="none" paint-order="stroke fill markers" d=" M 177.35187510147742 114.20096284282795 L 177.35187510147742 114.20096284282795 Q 177.4512188578508 113.72289444063931 177.74247934173312 113.33457802024941 Q 178.03373982561544 112.9462615998595 178.4724893426446 112.75483117705129 Q 178.91123885967372 112.56340075424308 179.46367345775838 112.67819798383007 L 179.46367345775838 112.67819798383007 Q 179.941741859947 112.77754174020343 180.47306434811176 113.15393170138258 L 180.47306434811176 113.15393170138258 Q 181.2899845189445 113.75590696754018 182.20610474251254 114.46715620120035 L 182.20610474251254 114.46715620120035 Q 183.33166326670374 115.3438346585114 184.53179521323182 116.20830341384367 Q 185.7319271597599 117.07277216917593 186.92930163975387 117.73718300751067 Q 188.12667611974788 118.40159384584541 189.21029783137544 118.62677302695835 L 189.21029783137544 118.62677302695835 Q 189.5608813263138 118.69962511496547 189.85655292374904 118.71673639970606 Q 190.1522245211843 118.73384768444664 190.3859468511432 118.78241574311805 L 190.3859468511432 118.78241574311805 Q 191.0233713873947 118.9148740849492 191.37898767520855 119.3101643525096 Q 191.7346039630224 119.70545462007 191.84352700044607 120.22126011221832 Q 191.9524500378697 120.73706560436665 191.85089864246584 121.22575774882614 L 191.85089864246584 121.22575774882614 Q 191.71844030063468 121.86318228507766 191.29176094645436 122.28985331024174 Q 190.86508159227404 122.71652433540584 190.2382807982934 122.58627363260521 L 190.2382807982934 122.58627363260521 Q 189.79208362291735 122.49355279332342 189.257174762455 122.02775761591636 L 189.257174762455 122.02775761591636 Q 187.31856151798854 120.31717474863761 184.5663989195298 118.97503538596598 Q 181.81423632107106 117.63289602329436 179.42251557686083 117.03614828292882 L 179.42251557686083 117.03614828292882 Q 178.54957552450165 116.81041927431231 178.058265452638 116.3481427818919 Q 177.5669553807744 115.88586628947148 177.40312044584766 115.3143199940566 Q 177.23928551092095 114.74277369864173 177.35187510147742 114.20096284282795 Z" fill-opacity="1"/></g></g><g><g><path fill="rgb(0,0,0)" stroke="none" paint-order="stroke fill markers" d=" M 177.79938986308323 131.42702470954458 L 177.79938986308323 131.42702470954458 Q 177.8938654481141 131.16119589037044 178.21530364197525 130.87238925362013 L 178.21530364197525 130.87238925362013 Q 178.39748637514526 130.6837939393308 178.72840038065482 129.9147000488979 Q 179.05931438616437 129.14560615846503 179.38997893377245 128.21520529135552 L 179.38997893377245 128.21520529135552 Q 179.7206434813805 127.284804424246 179.94931563336155 126.47937377033972 Q 180.17798778534257 125.67394311643342 180.15568681145555 125.41267427519726 L 180.15568681145555 125.41267427519726 Q 180.08860596190834 124.98578793724796 180.1830815469392 124.71995911807382 L 180.1830815469392 124.71995911807382 Q 180.34659698256957 124.25987077719549 180.83732211449882 124.17517366064997 Q 181.32804724642807 124.09047654410448 181.81880814336498 124.26489300877687 L 181.81880814336498 124.26489300877687 Q 182.299344854949 124.43567579710191 182.6265545512479 124.81106702143472 Q 182.9537642475468 125.18645824576755 182.79024881191643 125.64654658664588 L 182.79024881191643 125.64654658664588 Q 182.69577322688554 125.91237540582003 182.3743350330244 126.20118204257035 L 182.3743350330244 126.20118204257035 Q 182.17829443815418 126.39636786586519 181.8422683399682 127.1636449181244 Q 181.50624224178225 127.93092197038361 181.1792113705215 128.85109865214028 L 181.1792113705215 128.85109865214028 Q 180.85218049926078 129.77127533389694 180.62862043995617 130.5785228259769 Q 180.40506038065158 131.38577031805687 180.43395186354408 131.66089702099322 L 180.43395186354408 131.66089702099322 Q 180.50103271309132 132.08778335894252 180.40655712806043 132.35361217811666 L 180.40655712806043 132.35361217811666 Q 180.24304169243007 132.81370051899498 179.75231656050082 132.8983976355405 Q 179.26159142857156 132.983094752086 178.78105471698754 132.81231196376095 L 178.78105471698754 132.81231196376095 Q 178.29029382005064 132.63789549908856 177.96308412375177 132.26250427475574 Q 177.63587442745288 131.88711305042293 177.79938986308323 131.42702470954458 Z" fill-opacity="1"/></g></g><g><g><path fill="rgb(0,0,0)" stroke="none" paint-order="stroke fill markers" d=" M 170.65208382166455 134.5436387636628 L 170.65208382166455 134.5436387636628 Q 170.8767249533692 134.11010105936475 171.26195122482923 133.8147656033274 Q 171.6471774962893 133.51943014729002 172.121304301027 133.45347168688485 Q 172.59543110576476 133.3875132264797 173.09640800850914 133.64709853422733 L 173.09640800850914 133.64709853422733 Q 173.52994571280718 133.87173966593198 173.94001652559564 134.37752115808553 L 173.94001652559564 134.37752115808553 Q 174.56423209734788 135.1775759728082 175.25448735118104 136.10961643382277 L 175.25448735118104 136.10961643382277 Q 176.101782094921 137.257457331388 177.02417901437644 138.41366096440515 Q 177.94657593383192 139.5698645974223 178.92029262114278 140.53268504812425 Q 179.89400930845363 141.49550549882622 180.87669477152917 142.00469206402346 L 180.87669477152917 142.00469206402346 Q 181.19462242134773 142.16942889394022 181.47471314452252 142.2656768881365 Q 181.75480386769732 142.36192488233283 181.96675563424304 142.47174943561066 L 181.96675563424304 142.47174943561066 Q 182.54480590664042 142.77127094455022 182.78058693998125 143.24784690292748 Q 183.01636797332205 143.72442286130476 182.98208919272105 144.25048797040483 Q 182.94781041212002 144.7765530795049 182.71817725526637 145.21972495500958 L 182.71817725526637 145.21972495500958 Q 182.4186557463268 145.79777522740696 181.89268435509666 146.09350742147066 Q 181.3667129638665 146.38923961553434 180.79829686267576 146.0947101317438 L 180.79829686267576 146.0947101317438 Q 180.39366167199756 145.8850450754861 180.00425871798782 145.2922061633816 L 180.00425871798782 145.2922061633816 Q 178.59904424579798 143.12202475515863 176.3110441686416 141.08713097804886 Q 174.02304409148516 139.05223720093912 171.88101545392269 137.8323399512582 L 171.88101545392269 137.8323399512582 Q 171.10134734436895 137.37946517906533 170.75297708776017 136.80177728195346 Q 170.40460683115143 136.22408938484162 170.40104868510866 135.6295354400211 Q 170.39749053906593 135.03498149520058 170.65208382166455 134.5436387636628 Z" fill-opacity="1"/></g></g><g><g><path fill="rgb(0,0,0)" stroke="none" paint-order="stroke fill markers" d=" M 166.43546765056684 151.2516495657733 L 166.43546765056684 151.2516495657733 Q 166.59815958171905 151.02116760810975 166.98559707348574 150.82979369171238 L 166.98559707348574 150.82979369171238 Q 167.21190638356205 150.69734431644022 167.73804824844808 150.04605004396595 Q 168.2641901133341 149.39475577149167 168.8336118723668 148.5880689196693 L 168.8336118723668 148.5880689196693 Q 169.4030336313995 147.78138206784692 169.84052858949187 147.06751397569872 Q 170.27802354758424 146.3536458835505 170.3270390440732 146.09604886893052 L 170.3270390440732 146.09604886893052 Q 170.37761829002395 145.66689443777224 170.54031022117616 145.4364124801087 L 170.54031022117616 145.4364124801087 Q 170.8218924097088 145.03750139953718 171.3172711311498 145.08834113794714 Q 171.8126498525908 145.13918087635707 172.23815500520038 145.4395352107919 L 172.23815500520038 145.4395352107919 Q 172.65479546713064 145.73363216325933 172.86859200003897 146.18338298224077 Q 173.08238853294733 146.63313380122221 172.80080634441467 147.03204488179372 L 172.80080634441467 147.03204488179372 Q 172.63811441326249 147.26252683945725 172.25067692149577 147.45390075585462 L 172.25067692149577 147.45390075585462 Q 172.00924553877272 147.58895743983877 171.478671328547 148.23712302132932 Q 170.9480971183213 148.8852886028199 170.384932741256 149.68311076396293 L 170.384932741256 149.68311076396293 Q 169.8217683641907 150.48093292510595 169.388705751438 151.19792970823784 Q 168.95564313868533 151.91492649136973 168.90923495090834 152.18764557863648 L 168.90923495090834 152.18764557863648 Q 168.85865570495758 152.6168000097948 168.69596377380537 152.84728196745831 L 168.69596377380537 152.84728196745831 Q 168.41438158527274 153.24619304802982 167.91900286383174 153.1953533096199 Q 167.42362414239074 153.14451357120996 167.0069836804605 152.8504166187425 L 167.0069836804605 152.8504166187425 Q 166.5814785278509 152.5500622843077 166.36768199494256 152.10031146532626 Q 166.1538854620342 151.65056064634481 166.43546765056684 151.2516495657733 Z" fill-opacity="1"/></g></g><g><g><path fill="rgb(0,0,0)" stroke="none" paint-order="stroke fill markers" d=" M 158.71235069657575 152.324371024029 L 158.71235069657575 152.324371024029 Q 159.04562859853797 151.96751752584632 159.49625018731444 151.78706671386595 Q 159.94687177609092 151.60661590188562 160.42121205241568 151.67102124115186 Q 160.89555232874042 151.73542658041814 161.30791637108484 152.1205477115745 L 161.30791637108484 152.1205477115745 Q 161.6647698692675 152.45382561353674 161.92317593044427 153.051487137188 L 161.92317593044427 153.051487137188 Q 162.30839168975538 153.990285094875 162.72158889938456 155.0739916060519 L 162.72158889938456 155.0739916060519 Q 163.22777988764557 156.40786483552162 163.80403182019757 157.77005301204244 Q 164.38028375274956 159.13224118856326 165.05812653513686 160.32206326341438 Q 165.73596931752417 161.51188533826547 166.54483724673824 162.26731524937986 L 166.54483724673824 162.26731524937986 Q 166.8065298120722 162.51171904415216 167.05026661337845 162.67996547437994 Q 167.2940034146847 162.8482119046077 167.46846512490734 163.01114776778925 L 167.46846512490734 163.01114776778925 Q 167.94426978915092 163.4555183037389 168.04272876740228 163.9780344942901 Q 168.14118774565364 164.50055068484136 167.96624944737013 164.99785956833898 Q 167.79131114908665 165.4951684518366 167.45062707152525 165.85995202775666 L 167.45062707152525 165.85995202775666 Q 167.0062565355756 166.33575669200025 166.42000199922416 166.4786169510146 Q 165.83374746287268 166.62147721002896 165.36587287636652 166.1845128496785 L 165.36587287636652 166.1845128496785 Q 165.032809611396 165.87345347451372 164.81779279953776 165.197538977765 L 164.81779279953776 165.197538977765 Q 164.0501954285984 162.72871145572637 162.39604837156315 160.1519820266071 Q 160.74190131452787 157.57525259748783 159.00842924853214 155.82268003684183 L 159.00842924853214 155.82268003684183 Q 158.3798574987252 155.1762471511619 158.20026408561608 154.52599231794113 Q 158.02067067250698 153.87573748472033 158.17765320676276 153.3022712366782 Q 158.33463574101856 152.72880498863603 158.71235069657575 152.324371024029 Z" fill-opacity="1"/></g></g><g><g><path fill="rgb(0,0,0)" stroke="none" paint-order="stroke fill markers" d=" M 150.14433072444936 167.27517403440433 L 150.14433072444936 167.27517403440433 Q 150.36317288545538 167.09713273066652 150.78787520877188 167.01738486252384 L 150.78787520877188 167.01738486252384 Q 151.0415267695223 166.95090459051724 151.7238749586051 166.46571345271792 Q 152.40622314768788 165.98052231491863 153.17217071120896 165.35737775183625 L 153.17217071120896 165.35737775183625 Q 153.93811827473004 164.73423318875388 154.5519890392983 164.1648719890292 Q 155.16585980386654 163.59551078930448 155.28255651558786 163.3606903934471 L 155.28255651558786 163.3606903934471 Q 155.4470446257491 162.96109628998795 155.66588678675512 162.78305498625014 L 155.66588678675512 162.78305498625014 Q 156.0446520654194 162.47490657593468 156.5079444028097 162.6575126184785 Q 156.97123674020003 162.84011866102236 157.29992837786983 163.24413495826425 L 157.29992837786983 163.24413495826425 Q 157.6217722730882 163.6397342493136 157.70629933181425 164.1304887021729 Q 157.7908263905403 164.62124315503218 157.41206111187603 164.92939156534763 L 157.41206111187603 164.92939156534763 Q 157.19321895087 165.10743286908547 156.7685166275535 165.18718073722812 L 156.7685166275535 165.18718073722812 Q 156.4996003181591 165.25209174549366 155.8138282578506 165.73307438019668 Q 155.12805619754204 166.2140570148997 154.37052564021351 166.83035383553062 L 154.37052564021351 166.83035383553062 Q 153.612995082885 167.44665065616155 153.00254818954247 168.0202203589825 Q 152.39210129619994 168.59379006180347 152.27383532073753 168.84387520630486 L 152.27383532073753 168.84387520630486 Q 152.1093472105763 169.243469309764 151.89050504957027 169.42151061350185 L 151.89050504957027 169.42151061350185 Q 151.511739770906 169.7296590238173 151.0484474335157 169.54705298127345 Q 150.58515509612536 169.3644469387296 150.263311200907 168.96884764768026 L 150.263311200907 168.96884764768026 Q 149.9346195632372 168.56483135043837 149.85009250451114 168.0740768975791 Q 149.76556544578509 167.58332244471978 150.14433072444936 167.27517403440433 Z" fill-opacity="1"/></g></g><g><g><path fill="rgb(0,0,0)" stroke="none" paint-order="stroke fill markers" d=" M 142.4181911114542 166.22444405361279 L 142.4181911114542 166.22444405361279 Q 142.83538808633043 165.97074095300954 143.31798445064038 165.91855799630324 Q 143.80058081495034 165.86637503959696 144.23995491452945 166.0563675291561 Q 144.67932901410856 166.24636001871522 144.9724970414723 166.72845430079443 L 144.9724970414723 166.72845430079443 Q 145.22620014207556 167.14565127567062 145.3137766562122 167.79086700972994 L 145.3137766562122 167.79086700972994 Q 145.43142291245894 168.79878176057449 145.53691713109734 169.95378076760713 L 145.53691713109734 169.95378076760713 Q 145.66446249394983 171.3747590536156 145.85183146993813 172.8419045081838 Q 146.03920044592644 174.309049962752 146.3708968251449 175.63763000153432 Q 146.7025932043634 176.96621004031667 147.27765356573076 177.91185651670276 L 147.27765356573076 177.91185651670276 Q 147.46370250617315 178.21780096494533 147.65300854207962 178.44556776315076 Q 147.84231457798612 178.6733345613562 147.9663472049477 178.87729752685124 L 147.9663472049477 178.87729752685124 Q 148.30461800575202 179.43356016001954 148.25845267691687 179.96326394724406 Q 148.2122873480817 180.4929677344686 147.90966390540996 180.9246372675115 Q 147.6070404627382 181.35630680055442 147.18057244397588 181.61564774783773 L 147.18057244397588 181.61564774783773 Q 146.62430981080757 181.95391854864204 146.02125194635997 181.93331158073818 Q 145.41819408191233 181.91270461283432 145.0855611277881 181.36571302355216 L 145.0855611277881 181.36571302355216 Q 144.84877156722507 180.97632918033435 144.8240877108174 180.26746858506218 L 144.8240877108174 180.26746858506218 Q 144.75103662660678 177.6830965923831 143.8534231096937 174.75563574525933 Q 142.9558095927806 171.82817489813556 141.7594577913795 169.67290731586155 L 141.7594577913795 169.67290731586155 Q 141.3286006924781 168.8808592865918 141.33110374473375 168.20626394352414 Q 141.33360679698944 167.53166860045647 141.6394873351253 167.02182141737646 Q 141.94536787326118 166.51197423429645 142.4181911114542 166.22444405361279 Z" fill-opacity="1"/></g></g><g><g><path fill="rgb(0,0,0)" stroke="none" paint-order="stroke fill markers" d=" M 130.13421818354854 178.3092066083461 L 130.13421818354854 178.3092066083461 Q 130.39298005246283 178.19681046754746 130.82344897889263 178.23460318221746 L 130.82344897889263 178.23460318221746 Q 131.08563061443496 178.2390225511241 131.87357848406552 177.95591895508858 Q 132.66152635369608 177.67281535905306 133.56719289489612 177.27942886625783 L 133.56719289489612 177.27942886625783 Q 134.47285943609614 176.8860423734626 135.21757802080415 176.50341498169084 Q 135.96229660551214 176.12078758991905 136.13801967120938 175.92615936735316 L 136.13801967120938 175.92615936735316 Q 136.40421731493348 175.58576165822532 136.66297918384777 175.47336551742669 L 136.66297918384777 175.47336551742669 Q 137.11083626466097 175.27883373527519 137.5076819447578 175.57966302714453 Q 137.9045276248546 175.88049231901385 138.11202819248285 176.35820653854796 L 138.11202819248285 176.35820653854796 Q 138.31520583161887 176.8259683785084 138.26419443090245 177.32132945252923 Q 138.21318303018606 177.81669052655005 137.76532594937285 178.01122230870152 L 137.76532594937285 178.01122230870152 Q 137.50656408045856 178.12361844950016 137.07609515402876 178.0858257348302 L 137.07609515402876 178.0858257348302 Q 136.79963821042054 178.07577691484215 136.00952887654387 178.35390432109088 Q 135.2194195426672 178.63203172733958 134.32370538104078 179.02109529164255 L 134.32370538104078 179.02109529164255 Q 133.42799121941437 179.41015885594553 132.6854340989525 179.7977624375041 Q 131.94287697849063 180.1853660190627 131.761524461712 180.39426954969449 L 131.761524461712 180.39426954969449 Q 131.49532681798792 180.73466725882233 131.23656494907362 180.84706339962096 L 131.23656494907362 180.84706339962096 Q 130.78870786826042 181.04159518177244 130.3918621881636 180.74076588990312 Q 129.99501650806678 180.43993659803377 129.7918388689308 179.97217475807332 L 129.7918388689308 179.97217475807332 Q 129.58433830130255 179.49446053853922 129.63534970201894 178.9990994645184 Q 129.68636110273533 178.5037383904976 130.13421818354854 178.3092066083461 Z" fill-opacity="1"/></g></g><g><g><path fill="rgb(0,0,0)" stroke="none" paint-order="stroke fill markers" d=" M 122.97806834190825 175.21295302441285 L 122.97806834190825 175.21295302441285 Q 123.44824279862104 175.08121631974635 123.92702197385509 175.16117138949187 Q 124.40580114908913 175.24112645923742 124.7776227049596 175.54261522529663 Q 125.14944426083005 175.84410399135584 125.30167334177803 176.38741669689063 L 125.30167334177803 176.38741669689063 Q 125.43341004644455 176.8575911536034 125.34366186412346 177.50250839874118 L 125.34366186412346 177.50250839874118 Q 125.1850133326758 178.50478751657633 124.974980536731 179.64541802688197 L 124.974980536731 179.64541802688197 Q 124.71442081809337 181.04811391049904 124.49901053772496 182.51140517649313 Q 124.28360025735654 183.97469644248724 124.24454983036955 185.34349974157357 Q 124.20549940338256 186.71230304065995 124.50410260062667 187.77803180920893 L 124.50410260062667 187.77803180920893 Q 124.6007095173821 188.12282641079833 124.72154482522315 188.3932211555223 Q 124.8423801330642 188.66361590024627 124.9067847442345 188.89347896797253 L 124.9067847442345 188.89347896797253 Q 125.08243368378984 189.5203782435896 124.89506791911555 190.0179839208226 Q 124.70770215444125 190.51558959805556 124.29983776371408 190.84960482613465 Q 123.89197337298693 191.18362005421375 123.41135059501384 191.3182842412062 L 123.41135059501384 191.3182842412062 Q 122.7844513193968 191.49393318076156 122.20931616985294 191.31138731047827 Q 121.63418102030907 191.128841440195 121.46145956307964 190.51239048583824 L 121.46145956307964 190.51239048583824 Q 121.3385053053909 190.0735609929063 121.50598509314241 189.38432724664057 L 121.50598509314241 189.38432724664057 Q 122.13289816038998 186.87608183130286 122.05839007183991 183.8150059449635 Q 121.98388198328985 180.75393005862412 121.41337838664798 178.3558137916063 L 121.41337838664798 178.3558137916063 Q 121.21219063863755 177.47689319769898 121.39660451632288 176.82798899531144 Q 121.58101839400823 176.1790847929239 122.013111175821 175.7706697079794 Q 122.44520395763375 175.36225462303491 122.97806834190825 175.21295302441285 Z" fill-opacity="1"/></g></g><g><g><path fill="rgb(0,0,0)" stroke="none" paint-order="stroke fill markers" d=" M 107.88918853484917 183.53540356892967 L 107.88918853484917 183.53540356892967 Q 108.16867892761115 183.49698849865513 108.57298854614523 183.64951888338084 L 108.57298854614523 183.64951888338084 Q 108.8242554439725 183.7245101288262 109.65936450528196 183.66449057315967 Q 110.4944735665914 183.6044710174931 111.47268994125835 183.47001827153218 L 111.47268994125835 183.47001827153218 Q 112.4509063159253 183.33556552557127 113.27124035020607 183.16804966499626 Q 114.09157438448685 183.00053380442125 114.31329122825679 182.86053244004972 L 114.31329122825679 182.86053244004972 Q 114.6614557440819 182.6045768661233 114.94094613684388 182.56616179584876 L 114.94094613684388 182.56616179584876 Q 115.42467950893193 182.49967417421973 115.72564630309066 182.89641558303904 Q 116.02661309724937 183.29315699185835 116.097533226987 183.80913925541893 L 116.097533226987 183.80913925541893 Q 116.16697585402176 184.31437188848867 115.98420927609243 184.77760091893703 Q 115.80144269816309 185.24082994938536 115.31770932607503 185.30731757101438 L 115.31770932607503 185.30731757101438 Q 115.03821893331305 185.34573264128892 114.63390931477898 185.1932022565632 L 114.63390931477898 185.1932022565632 Q 114.37041528375799 185.10893888332987 113.5345674710971 185.16358362375098 Q 112.69871965843622 185.21822836417212 111.73125291426012 185.35120360743016 L 111.73125291426012 185.35120360743016 Q 110.76378617008402 185.48417885068824 109.94419088715468 185.65706952650865 Q 109.12459560422533 185.8299602023291 108.89360663266743 185.98218869989432 L 108.89360663266743 185.98218869989432 Q 108.54544211684231 186.23814427382075 108.26595172408032 186.2765593440953 L 108.26595172408032 186.2765593440953 Q 107.78221835199227 186.34304696572434 107.48125155783355 185.94630555690503 Q 107.18028476367483 185.5495641480857 107.11084213664007 185.04433151501595 L 107.11084213664007 185.04433151501595 Q 107.03992200690244 184.52834925145538 107.22268858483179 184.06512022100705 Q 107.40545516276111 183.6018911905587 107.88918853484917 183.53540356892967 Z" fill-opacity="1"/></g></g><g><g><path fill="rgb(0,0,0)" stroke="none" paint-order="stroke fill markers" d=" M 101.83376736111113 178.62326134575738 L 101.83376736111113 178.62326134575738 Q 102.32204861111113 178.62326134575738 102.76150173611113 178.8294245402018 Q 103.20095486111113 179.03558773464627 103.47764756944446 179.42621273464627 Q 103.7543402777778 179.81683773464627 103.7543402777778 180.38107384575738 L 103.7543402777778 180.38107384575738 Q 103.7543402777778 180.86935509575738 103.49392361111113 181.4661432902018 L 103.49392361111113 181.4661432902018 Q 103.0707465277778 182.3884523179796 102.5607638888889 183.43011898464627 L 102.5607638888889 183.43011898464627 Q 101.93142361111113 184.7105009290907 101.32921006944446 186.06141238742404 Q 100.7269965277778 187.41232384575738 100.32009548611113 188.71983252631293 Q 99.91319444444446 190.0273412068685 99.91319444444446 191.1341120402018 L 99.91319444444446 191.1341120402018 Q 99.91319444444446 191.4921849568685 99.95659722222224 191.7851537068685 Q 100.00000000000001 192.0781224568685 100.00000000000001 192.31683773464627 L 100.00000000000001 192.31683773464627 Q 100.00000000000001 192.96787940131293 99.68532986111113 193.3964818318685 Q 99.37065972222224 193.82508426242404 98.88780381944446 194.0366728040907 Q 98.40494791666669 194.24826134575738 97.90581597222224 194.24826134575738 L 97.90581597222224 194.24826134575738 Q 97.25477430555557 194.24826134575738 96.7502170138889 193.9173151652018 Q 96.24565972222224 193.58636898464627 96.24565972222224 192.94617801242404 L 96.24565972222224 192.94617801242404 Q 96.24565972222224 192.49044884575738 96.59288194444446 191.87195926242404 L 96.59288194444446 191.87195926242404 Q 97.8732638888889 189.62586551242404 98.6273871527778 186.6582005818685 Q 99.38151041666669 183.69053565131293 99.47916666666669 181.22742801242404 L 99.47916666666669 181.22742801242404 Q 99.52256944444446 180.32682037353516 99.8752170138889 179.7517335679796 Q 100.22786458333334 179.17664676242404 100.7541232638889 178.8999540540907 Q 101.28038194444446 178.62326134575738 101.83376736111113 178.62326134575738 Z" fill-opacity="1"/></g></g><g><g><path fill="rgb(0,0,0)" stroke="none" paint-order="stroke fill markers" d=" M 85.05905386315615 182.56616179584876 L 85.05905386315615 182.56616179584876 Q 85.33854425591814 182.6045768661233 85.68670877174326 182.86053244004972 L 85.68670877174326 182.86053244004972 Q 85.90842561551318 183.00053380442125 86.72875964979396 183.16804966499626 Q 87.54909368407473 183.33556552557127 88.52731005874168 183.47001827153218 L 88.52731005874168 183.47001827153218 Q 89.50552643340863 183.6044710174931 90.34063549471809 183.66449057315967 Q 91.17574455602752 183.7245101288262 91.4270114538548 183.64951888338084 L 91.4270114538548 183.64951888338084 Q 91.83132107238887 183.49698849865513 92.11081146515086 183.53540356892967 L 92.11081146515086 183.53540356892967 Q 92.59454483723891 183.6018911905587 92.77731141516826 184.06512022100702 Q 92.96007799309758 184.52834925145538 92.88915786335996 185.04433151501595 L 92.88915786335996 185.04433151501595 Q 92.8197152363252 185.5495641480857 92.51874844216648 185.94630555690503 Q 92.21778164800776 186.34304696572434 91.73404827591972 186.2765593440953 L 91.73404827591972 186.2765593440953 Q 91.45455788315773 186.23814427382075 91.10639336733261 185.98218869989432 L 91.10639336733261 185.98218869989432 Q 90.8754043957747 185.8299602023291 90.05580911284535 185.65706952650865 Q 89.23621382991601 185.48417885068824 88.26874708573992 185.35120360743016 L 88.26874708573992 185.35120360743016 Q 87.30128034156381 185.21822836417212 86.46543252890292 185.16358362375098 Q 85.62958471624205 185.10893888332987 85.36609068522105 185.1932022565632 L 85.36609068522105 185.1932022565632 Q 84.96178106668698 185.34573264128892 84.682290673925 185.30731757101438 L 84.682290673925 185.30731757101438 Q 84.19855730183694 185.24082994938536 84.01579072390761 184.77760091893703 Q 83.83302414597827 184.31437188848867 83.90246677301303 183.80913925541893 L 83.90246677301303 183.80913925541893 Q 83.97338690275066 183.29315699185835 84.27435369690937 182.89641558303904 Q 84.5753204910681 182.49967417421973 85.05905386315615 182.56616179584876 Z" fill-opacity="1"/></g></g><g><g><path fill="rgb(0,0,0)" stroke="none" paint-order="stroke fill markers" d=" M 80.55346424406785 176.20244205057472 L 80.55346424406785 176.20244205057472 Q 81.02363870078064 176.33417875524123 81.39117354762962 176.6512598933865 Q 81.75870839447862 176.96834103153176 81.91975122288265 177.41913139621303 Q 82.08079405128669 177.86992176089427 81.92856497033871 178.41323446642906 L 81.92856497033871 178.41323446642906 Q 81.79682826567219 178.88340892314184 81.38505702749963 179.38780701663535 L 81.38505702749963 179.38780701663535 Q 80.72873650064513 180.16174251304852 79.95662709812319 181.02718968471746 L 79.95662709812319 181.02718968471746 Q 79.00518155056784 182.0902976185275 78.0608281710447 183.22863834634418 Q 77.11647479152157 184.3669790741609 76.37190112398724 185.51622119880304 Q 75.6273274564529 186.6654633234452 75.32872425920881 187.7311920919942 L 75.32872425920881 187.7311920919942 Q 75.23211734245336 188.0759866935836 75.19486860469459 188.36980129691494 Q 75.15761986693582 188.6636159002463 75.09321525576553 188.89347896797256 L 75.09321525576553 188.89347896797256 Q 74.91756631621017 189.52037824358962 74.49892944778799 189.8481899459191 Q 74.08029257936579 190.17600164824856 73.55825637792765 190.24947094932057 Q 73.03622017648951 190.32294025039255 72.55559739851644 190.1882760634001 L 72.55559739851644 190.1882760634001 Q 71.92869812289938 190.01262712384477 71.5321393952368 189.5578253972507 Q 71.13558066757422 189.10302367065663 71.30830212480365 188.48657271629983 L 71.30830212480365 188.48657271629983 Q 71.43125638249239 188.04774322336792 71.93246915539908 187.54586834596122 L 71.93246915539908 187.54586834596122 Q 73.7713599055786 185.72850875954123 75.29818464930818 183.07435291650512 Q 76.82500939303776 180.42019707346898 77.58358277236475 178.07477548831775 L 77.58358277236475 178.07477548831775 Q 77.86835709045745 177.21927475301783 78.36308409469059 176.76065690181525 Q 78.85781109892372 176.30203905061268 79.43920547935853 176.17758975128268 Q 80.02059985979335 176.05314045195266 80.55346424406785 176.20244205057472 Z" fill-opacity="1"/></g></g><g><g><path fill="rgb(0,0,0)" stroke="none" paint-order="stroke fill markers" d=" M 63.33702081615229 175.4733655174267 L 63.33702081615229 175.4733655174267 Q 63.59578268506659 175.58576165822535 63.86198032879068 175.9261593673532 L 63.86198032879068 175.9261593673532 Q 64.03770339448792 176.12078758991908 64.7824219791959 176.50341498169087 Q 65.5271405639039 176.88604237346266 66.43280710510395 177.27942886625786 L 66.43280710510395 177.27942886625786 Q 67.338473646304 177.6728153590531 68.12642151593454 177.9559189550886 Q 68.91436938556508 178.23902255112412 69.17655102110743 178.23460318221748 L 69.17655102110743 178.23460318221748 Q 69.60701994753722 178.1968104675475 69.86578181645152 178.30920660834613 L 69.86578181645152 178.30920660834613 Q 70.31363889726472 178.50373839049763 70.36465029798113 178.99909946451842 Q 70.41566169869752 179.49446053853924 70.20816113106928 179.97217475807335 L 70.20816113106928 179.97217475807335 Q 70.00498349193327 180.4399365980338 69.60813781183646 180.74076588990314 Q 69.21129213173965 181.04159518177246 68.76343505092643 180.847063399621 L 68.76343505092643 180.847063399621 Q 68.50467318201214 180.73466725882236 68.23847553828804 180.3942695496945 L 68.23847553828804 180.3942695496945 Q 68.05712302150944 180.18536601906274 67.31456590104757 179.79776243750413 Q 66.5720087805857 179.41015885594555 65.67629461895929 179.02109529164258 L 65.67629461895929 179.02109529164258 Q 64.78058045733286 178.6320317273396 63.99047112345619 178.3539043210909 Q 63.20036178957952 178.0757769148422 62.92390484597129 178.08582573483022 L 62.92390484597129 178.08582573483022 Q 62.493435919541504 178.1236184495002 62.234674050627206 178.01122230870158 L 62.234674050627206 178.01122230870158 Q 61.786816969814 177.81669052655008 61.7358055690976 177.32132945252926 Q 61.6847941683812 176.82596837850843 61.8879718075172 176.358206538548 L 61.8879718075172 176.358206538548 Q 62.09547237514545 175.88049231901388 62.492318055242265 175.57966302714456 Q 62.889163735339075 175.2788337352752 63.33702081615229 175.4733655174267 Z" fill-opacity="1"/></g></g><g><g><path fill="rgb(0,0,0)" stroke="none" paint-order="stroke fill markers" d=" M 60.71542172206053 168.13003623147716 L 60.71542172206053 168.13003623147716 Q 61.132618696936746 168.3837393320804 61.40097688740397 168.78822195645995 Q 61.669335077871196 169.1927045808395 61.70278421648513 169.67022725108228 Q 61.73623335509906 170.1477499213251 61.44306532773532 170.62984420340428 L 61.44306532773532 170.62984420340428 Q 61.18936222713208 171.0470411782805 60.656775606460805 171.42164027169636 L 60.656775606460805 171.42164027169636 Q 59.8159879270953 171.9898029814953 58.8390155831599 172.61484440060119 L 58.8390155831599 172.61484440060119 Q 57.63602912951539 173.38183247172128 56.41957428216577 174.2231769448015 Q 55.203119434816145 175.0645214178817 54.17609476413729 175.97026295565865 Q 53.149070093458434 176.87600449343557 52.5740097320911 177.82165096982166 L 52.5740097320911 177.82165096982166 Q 52.38796079164872 178.12759541806423 52.27282310683133 178.40046498971026 Q 52.15768542201394 178.67333456135626 52.033652795052355 178.8772975268513 L 52.033652795052355 178.8772975268513 Q 51.69538199424804 179.4335601600196 51.20382677768719 179.63626883979995 Q 50.71227156112634 179.83897751958034 50.189772097931794 179.7688786980968 Q 49.667272634737245 179.69877987661332 49.24080461597489 179.43943892933 L 49.24080461597489 179.43943892933 Q 48.6845419828066 179.10116812852567 48.42539276584337 178.5562414193751 Q 48.166243548880146 178.01131471022455 48.4988765030044 177.46432312094242 L 48.4988765030044 177.46432312094242 Q 48.735666063567415 177.0749392777246 49.353696728687936 176.72690086997704 L 49.353696728687936 176.72690086997704 Q 51.614714170027135 175.47306069379493 53.80100278711342 173.32926053520117 Q 55.9872914041997 171.1854603766074 57.35052199555128 169.1316740345747 L 57.35052199555128 169.1316740345747 Q 57.85554744554181 168.3847287787455 58.455662245885115 168.07659346988254 Q 59.05577704622842 167.76845816101957 59.649187765047955 167.80548210590652 Q 60.24259848386749 167.8425060507935 60.71542172206053 168.13003623147716 Z" fill-opacity="1"/></g></g><g><g><path fill="rgb(0,0,0)" stroke="none" paint-order="stroke fill markers" d=" M 44.3341132132449 162.78305498625014 L 44.3341132132449 162.78305498625014 Q 44.552955374250914 162.96109628998795 44.71744348441216 163.3606903934471 L 44.71744348441216 163.3606903934471 Q 44.834140196133475 163.59551078930448 45.44801096070172 164.1648719890292 Q 46.06188172526998 164.7342331887539 46.82782928879105 165.35737775183625 L 46.82782928879105 165.35737775183625 Q 47.593776852312125 165.98052231491863 48.27612504139492 166.46571345271792 Q 48.95847323047772 166.95090459051724 49.21212479122813 167.01738486252384 L 49.21212479122813 167.01738486252384 Q 49.63682711454464 167.09713273066652 49.85566927555066 167.27517403440433 L 49.85566927555066 167.27517403440433 Q 50.23443455421493 167.58332244471978 50.14990749548888 168.0740768975791 Q 50.06538043676283 168.56483135043837 49.73668879909301 168.96884764768026 L 49.73668879909301 168.96884764768026 Q 49.414844903874645 169.3644469387296 48.95155256648433 169.54705298127345 Q 48.48826022909402 169.7296590238173 48.10949495042975 169.42151061350185 L 48.10949495042975 169.42151061350185 Q 47.890652789423726 169.243469309764 47.72616467926249 168.84387520630486 L 47.72616467926249 168.84387520630486 Q 47.60789870380008 168.59379006180347 46.99745181045756 168.0202203589825 Q 46.387004917115036 167.44665065616155 45.6294743597865 166.83035383553064 L 45.6294743597865 166.83035383553064 Q 44.87194380245796 166.2140570148997 44.18617174214944 165.73307438019668 Q 43.50039968184092 165.25209174549366 43.23148337244651 165.18718073722812 L 43.23148337244651 165.18718073722812 Q 42.80678104913 165.10743286908547 42.58793888812398 164.92939156534766 L 42.58793888812398 164.92939156534766 Q 42.20917360945971 164.62124315503218 42.293700668185764 164.1304887021729 Q 42.37822772691181 163.6397342493136 42.700071622130174 163.24413495826425 L 42.700071622130174 163.24413495826425 Q 43.028763259799995 162.84011866102236 43.49205559719031 162.6575126184785 Q 43.95534793458063 162.47490657593468 44.3341132132449 162.78305498625014 Z" fill-opacity="1"/></g></g><g><g><path fill="rgb(0,0,0)" stroke="none" paint-order="stroke fill markers" d=" M 43.79093665594061 155.00473729926782 L 43.79093665594061 155.00473729926782 Q 44.124214557902846 155.36159079745048 44.27349319265839 155.82347628219895 Q 44.42277182741394 156.2853617669474 44.326146506646396 156.75420107082073 Q 44.22952118587885 157.22304037469402 43.81715714353442 157.60816150585038 L 43.81715714353442 157.60816150585038 Q 43.46030364535175 157.94143940781262 42.846401155415286 158.15845720006902 L 42.846401155415286 158.15845720006902 Q 41.883503699369626 158.47870909423938 40.77412598341935 158.81698829810134 L 40.77412598341935 158.81698829810134 Q 39.40881862565568 159.23097251003352 38.010481201596846 159.71292205770374 Q 36.612143777538016 160.19487160537395 35.37883782521365 160.78993784992056 Q 34.145531872889286 161.3850040944672 33.33666394367522 162.1404340055816 L 33.33666394367522 162.1404340055816 Q 33.07497137834125 162.38483780035392 32.89048398182829 162.61652485248084 Q 32.705996585315326 162.84821190460775 32.53153487509269 163.01114776778928 L 32.53153487509269 163.01114776778928 Q 32.05573021084911 163.45551830373893 31.527713047846433 163.51808998552139 Q 30.999695884843756 163.58066166730384 30.515484554801944 163.3721936321735 Q 30.031273224760128 163.16372559704314 29.690589147198736 162.79894202112308 L 29.690589147198736 162.79894202112308 Q 29.24621861124909 162.3231373568795 29.143698816878597 161.72850038631634 Q 29.041179022508103 161.13386341575315 29.50905360901428 160.69689905540267 L 29.50905360901428 160.69689905540267 Q 29.842116873984782 160.38583968023792 30.531128924189318 160.21745015868234 L 30.531128924189318 160.21745015868234 Q 33.0465837365306 159.62012098266842 35.730189201849214 158.14567235904676 Q 38.41379466716783 156.6712237354251 40.280577893948454 155.06139257405215 L 40.280577893948454 155.06139257405215 Q 40.9683990485487 154.47840031027135 41.62939387560324 154.3436005299811 Q 42.290388702657786 154.20880074969085 42.851805201520605 154.40455204217582 Q 43.41322170038342 154.60030333466077 43.79093665594061 155.00473729926782 Z" fill-opacity="1"/></g></g><g><g><path fill="rgb(0,0,0)" stroke="none" paint-order="stroke fill markers" d=" M 29.459689778823872 145.43641248010871 L 29.459689778823872 145.43641248010871 Q 29.622381709976068 145.66689443777227 29.672960955926825 146.09604886893055 L 29.672960955926825 146.09604886893055 Q 29.721976452415788 146.35364588355054 30.159471410508154 147.06751397569874 Q 30.596966368600523 147.78138206784695 31.166388127633216 148.58806891966933 L 31.166388127633216 148.58806891966933 Q 31.73580988666591 149.3947557714917 32.26195175155194 150.04605004396598 Q 32.788093616437976 150.69734431644025 33.01440292651427 150.8297936917124 L 33.01440292651427 150.8297936917124 Q 33.40184041828097 151.0211676081098 33.564532349433165 151.25164956577333 L 33.564532349433165 151.25164956577333 Q 33.84611453796582 151.65056064634484 33.63231800505747 152.10031146532629 Q 33.41852147214912 152.55006228430773 32.99301631953952 152.85041661874254 L 32.99301631953952 152.85041661874254 Q 32.576375857609285 153.14451357120998 32.080997136168286 153.19535330961992 Q 31.58561841472729 153.24619304802985 31.30403622619464 152.84728196745834 L 31.30403622619464 152.84728196745834 Q 31.141344295042444 152.61680000979482 31.090765049091683 152.18764557863653 L 31.090765049091683 152.18764557863653 Q 31.044356861314697 151.91492649136978 30.61129424856201 151.19792970823787 Q 30.17823163580933 150.48093292510598 29.615067258744027 149.68311076396296 L 29.615067258744027 149.68311076396296 Q 29.05190288167873 148.88528860281994 28.52132867145301 148.23712302132938 Q 27.99075446122729 147.5889574398388 27.749323078504236 147.45390075585468 L 27.749323078504236 147.45390075585468 Q 27.36188558673754 147.26252683945728 27.19919365558534 147.03204488179375 L 27.19919365558534 147.03204488179375 Q 26.917611467052694 146.63313380122224 27.131407999961038 146.1833829822408 Q 27.345204532869385 145.73363216325936 27.761844994799624 145.43953521079192 L 27.761844994799624 145.43953521079192 Q 28.187350147409227 145.1391808763571 28.682728868850223 145.08834113794717 Q 29.17810759029122 145.0375013995372 29.459689778823872 145.43641248010871 Z" fill-opacity="1"/></g></g><g><g><path fill="rgb(0,0,0)" stroke="none" paint-order="stroke fill markers" d=" M 31.035220678694948 137.79998863150144 L 31.035220678694948 137.79998863150144 Q 31.25986181039961 138.23352633579947 31.278989576007973 138.71855874749855 Q 31.298117341616333 139.20359115919763 31.078583819477217 139.62897543033026 Q 30.859050297338097 140.0543597014629 30.358073394593703 140.3139450092105 L 30.358073394593703 140.3139450092105 Q 29.924535690295667 140.53858614091516 29.27484767035558 140.5819274151508 L 29.27484767035558 140.5819274151508 Q 28.26125413698192 140.63051687575685 27.10174851914346 140.65694524334887 L 27.10174851914346 140.65694524334887 Q 25.67537885812038 140.68722228094586 24.19886714712673 140.77403291002784 Q 22.722355436133082 140.86084353910985 21.37423686264779 141.10110114931507 Q 20.0261182891625 141.34135875952032 19.043432826086956 141.85054532471756 L 19.043432826086956 141.85054532471756 Q 18.725505176268396 142.01528215463432 18.485350654285547 142.1886035184836 Q 18.245196132302695 142.3619248823329 18.03324436575699 142.47174943561072 L 18.03324436575699 142.47174943561072 Q 17.45519409335961 142.77127094455028 16.929875601377216 142.6890649729434 Q 16.404557109394826 142.60685900133657 15.994545651735509 142.2754828730472 Q 15.584534194076191 141.94410674475782 15.354901037222534 141.50093486925317 L 15.354901037222534 141.50093486925317 Q 15.05537952828298 140.9228845968558 15.11709258065683 140.32263886870354 Q 15.178805633030679 139.7223931405513 15.747221734221435 139.42786365676074 L 15.747221734221435 139.42786365676074 Q 16.1518569248996 139.21819860050306 16.860749488444874 139.24194664562242 L 16.860749488444874 139.24194664562242 Q 19.444081895796952 139.3454296421625 22.425973468663322 138.64968566277332 Q 25.407865041529693 137.95394168338416 27.639750131774047 136.90745951542246 L 27.639750131774047 136.90745951542246 Q 28.459354442519725 136.53165811288255 29.132206333813002 136.5801913442012 Q 29.80505822510628 136.62872457551984 30.292842810601304 136.96868523774174 Q 30.780627396096328 137.30864589996366 31.035220678694948 137.79998863150144 Z" fill-opacity="1"/></g></g><g><g><path fill="rgb(0,0,0)" stroke="none" paint-order="stroke fill markers" d=" M 19.816918453060804 124.71995911807383 L 19.816918453060804 124.71995911807383 Q 19.911394038091682 124.98578793724798 19.844313188544447 125.41267427519728 L 19.844313188544447 125.41267427519728 Q 19.82201221465744 125.67394311643343 20.05068436663847 126.47937377033973 Q 20.279356518619505 127.28480442424602 20.610021066227574 128.21520529135555 L 20.610021066227574 128.21520529135555 Q 20.940685613835644 129.14560615846506 21.271599619345196 129.91470004889794 Q 21.602513624854744 130.6837939393308 21.784696358024775 130.87238925362013 L 21.784696358024775 130.87238925362013 Q 22.10613455188591 131.16119589037046 22.200610136916783 131.4270247095446 L 22.200610136916783 131.4270247095446 Q 22.36412557254715 131.88711305042293 22.03691587624826 132.26250427475577 Q 21.70970617994937 132.6378954990886 21.218945283012484 132.81231196376098 L 21.218945283012484 132.81231196376098 Q 20.73840857142845 132.983094752086 20.2476834394992 132.8983976355405 Q 19.756958307569942 132.813700518995 19.59344287193958 132.35361217811666 L 19.59344287193958 132.35361217811666 Q 19.4989672869087 132.08778335894252 19.566048136455933 131.66089702099322 L 19.566048136455933 131.66089702099322 Q 19.59493961934845 131.38577031805687 19.371379560043845 130.5785228259769 Q 19.14781950073924 129.77127533389694 18.82078862947851 128.85109865214028 L 18.82078862947851 128.85109865214028 Q 18.493757758217782 127.93092197038362 18.157731660031807 127.16364491812442 Q 17.82170556184583 126.3963678658652 17.62566496697561 126.20118204257037 L 17.62566496697561 126.20118204257037 Q 17.304226773114475 125.91237540582004 17.2097511880836 125.6465465866459 L 17.2097511880836 125.6465465866459 Q 17.046235752453235 125.18645824576757 17.373445448752122 124.81106702143475 Q 17.700655145051012 124.43567579710192 18.181191856635046 124.26489300877688 L 18.181191856635046 124.26489300877688 Q 18.671952753571933 124.09047654410449 19.162677885501186 124.17517366065 Q 19.65340301743044 124.2598707771955 19.816918453060804 124.71995911807383 Z" fill-opacity="1"/></g></g><g><g><path fill="rgb(0,0,0)" stroke="none" paint-order="stroke fill markers" d=" M 23.39430689083801 117.79178773037813 L 23.39430689083801 117.79178773037813 Q 23.493650647211368 118.26985613256677 23.381208924801076 118.7420628361164 Q 23.268767202390784 119.21426953966603 22.94260727591811 119.56464997267162 Q 22.61644734944544 119.91503040567719 22.064012751360796 120.02982763526418 L 22.064012751360796 120.02982763526418 Q 21.585944349172163 120.12917139163754 20.948655187542485 119.99562172381547 L 20.948655187542485 119.99562172381547 Q 19.959539172329265 119.76894509284611 18.835900879892453 119.48156255304559 L 18.835900879892453 119.48156255304559 Q 17.454256228161043 119.12588690693704 16.009076349245348 118.81112027020401 Q 14.563896470329652 118.49635363347097 13.200949063046735 118.36398380149133 Q 11.838001655763819 118.23161396951167 10.754379944136247 118.45679315062462 L 10.754379944136247 118.45679315062462 Q 10.403796449197914 118.52964523863174 10.125785964006809 118.6317464615392 Q 9.847775478815704 118.73384768444664 9.614053148856817 118.78241574311805 L 9.614053148856817 118.78241574311805 Q 8.976628612605305 118.9148740849492 8.49296926102134 118.6939873007998 Q 8.009309909437377 118.4731005166504 7.703906998297539 118.04339294669232 Q 7.398504087157701 117.61368537673424 7.296952691753825 117.12499323227475 L 7.296952691753825 117.12499323227475 Q 7.164494349922682 116.48756869602323 7.385863274264736 115.92623168999748 Q 7.607232198606784 115.36489468397173 8.234032992587437 115.2346439811711 L 8.234032992587437 115.2346439811711 Q 8.680230167963497 115.14192314188931 9.356427926379041 115.3560474698172 L 9.356427926379041 115.3560474698172 Q 11.816043982048006 116.15266777846107 14.87506840574889 116.28722859143878 Q 17.93409282944977 116.42178940441649 20.365551076209332 116.0162690249264 L 20.365551076209332 116.0162690249264 Q 21.256152240812668 115.87552995447676 21.890958849660038 116.10379670966215 Q 22.525765458507408 116.33206346484754 22.903741379394475 116.79102016970594 Q 23.28171730028154 117.24997687456435 23.39430689083801 117.79178773037813 Z" fill-opacity="1"/></g></g><g><g><path fill="rgb(0,0,0)" stroke="none" paint-order="stroke fill markers" d=" M 16.120959472443957 102.1701394745396 L 16.120959472443957 102.1701394745396 Q 16.140211889408818 102.45159984779212 15.960446024100042 102.8445578857218 L 15.960446024100042 102.8445578857218 Q 15.8684825410501 103.09012143884505 15.87137231951285 103.92737954750926 Q 15.8742620979756 104.76463765617349 15.941645557352608 105.74974896255738 L 15.941645557352608 105.74974896255738 Q 16.009029016729617 106.73486026894126 16.12017278490488 107.56471360184977 Q 16.231316553080145 108.39456693475827 16.355861049455235 108.6253209363701 L 16.355861049455235 108.6253209363701 Q 16.587460345054016 108.99014082642805 16.606712762018876 109.27160119968059 L 16.606712762018876 109.27160119968059 Q 16.640034252919595 109.7587441533869 16.223679039519894 110.03193473326291 Q 15.807323826120193 110.30512531313894 15.28770467550012 110.34066823676638 L 15.28770467550012 110.34066823676638 Q 14.7789109238513 110.37547068281823 14.329234219550878 110.16151830898794 Q 13.879557515250458 109.94756593515764 13.84623602434974 109.46042298145132 L 13.84623602434974 109.46042298145132 Q 13.82698360738488 109.17896260819879 14.006749472693656 108.78600457026911 L 14.006749472693656 108.78600457026911 Q 14.108797877139278 108.52887514059904 14.111320798162154 107.69124679314704 Q 14.11384371918503 106.85361844569503 14.047200737383594 105.8793325382824 L 14.047200737383594 105.8793325382824 Q 13.980557755582158 104.90504663086976 13.864001287921266 104.07556353674903 Q 13.747444820260377 103.24608044262831 13.611334447338464 103.00524151962081 L 13.611334447338464 103.00524151962081 Q 13.379735151739682 102.64042162956287 13.360482734774823 102.35896125631032 L 13.360482734774823 102.35896125631032 Q 13.327161243874103 101.87181830260401 13.743516457273806 101.598627722728 Q 14.159871670673507 101.32543714285197 14.668665422322327 101.29063469680011 L 14.668665422322327 101.29063469680011 Q 15.1882845729424 101.25509177317268 15.63796127724282 101.46904414700298 Q 16.08763798154324 101.68299652083327 16.120959472443957 102.1701394745396 Z" fill-opacity="1"/></g></g><g><g><path fill="rgb(0,0,0)" stroke="none" paint-order="stroke fill markers" d=" M 21.434886913160557 96.46405132530577 L 21.434886913160557 96.46405132530577 Q 21.40156542225984 96.9511942790121 21.165893499995413 97.37555386341192 Q 20.930221577730986 97.79991344781175 20.52162503658886 98.0493039288581 Q 20.11302849544673 98.29869440990443 19.550107748941652 98.2601895759747 L 19.550107748941652 98.2601895759747 Q 19.062964795235334 98.22686808507399 18.485339313630217 97.92633224310752 L 18.485339313630217 97.92633224310752 Q 17.59405902652113 97.44120108930514 16.589623171332846 96.86132149040145 L 16.589623171332846 96.86132149040145 Q 15.355173792108314 96.14607199615142 14.04850812563172 95.45307289508831 Q 12.741842459155126 94.76007379402519 11.46514979220325 94.2648937847469 Q 10.188457125251377 93.7697137754686 9.084266430183723 93.6941850627603 L 9.084266430183723 93.6941850627603 Q 8.727028264132421 93.66974930276645 8.431780581606345 93.69305800411102 Q 8.136532899080267 93.71636670545558 7.898374121712736 93.70007619879301 L 7.898374121712736 93.70007619879301 Q 7.248850183437645 93.65564754425873 6.842720773764784 93.31246210985736 Q 6.436591364091923 92.96927667545599 6.258447336265451 92.47310710851166 Q 6.080303308438978 91.97693754156731 6.114365276915269 91.47896918888975 L 6.114365276915269 91.47896918888975 Q 6.158793931449559 90.82944525061465 6.523400807336808 90.3486487645064 Q 6.888007683224053 89.86785227839813 7.526706222527892 89.91154045535684 L 7.526706222527892 89.91154045535684 Q 7.981372979320456 89.94264051353085 8.574725438263505 90.33126050241847 L 8.574725438263505 90.33126050241847 Q 10.728206671395126 91.76193643916946 13.637490098530195 92.71682228459025 Q 16.546773525665262 93.67170813001104 18.997474793959213 93.93722513040703 L 18.997474793959213 93.93722513040703 Q 19.893020998270803 94.04198636506447 20.44270162254106 94.43305714313544 Q 20.992382246811314 94.82412792120641 21.23251675816301 95.36804194948918 Q 21.472651269514703 95.91195597777195 21.434886913160557 96.46405132530577 Z" fill-opacity="1"/></g></g><g><g><path fill="rgb(0,0,0)" stroke="none" paint-order="stroke fill markers" d=" M 18.64592520667842 79.45937051390625 L 18.64592520667842 79.45937051390625 Q 18.588526591884925 79.73558781294858 18.309408122670447 80.06547365084876 L 18.309408122670447 80.06547365084876 Q 18.154602641290445 80.27711959050247 17.93149572458619 81.08410955020597 Q 17.70838880788193 81.89109950990948 17.5074936561047 82.85786005655761 L 17.5074936561047 82.85786005655761 Q 17.306598504327468 83.82462060320574 17.189729010331796 84.65368695321445 Q 17.072859516336123 85.48275330322315 17.13052888037329 85.73855202348723 L 17.13052888037329 85.73855202348723 Q 17.255112617451434 86.15232814454714 17.19771400265794 86.42854544358946 L 17.19771400265794 86.42854544358946 Q 17.098370246284585 86.9066138457781 16.623748677263563 87.05734248565165 Q 16.149127108242546 87.20807112552521 15.639187479241334 87.10210445206029 L 15.639187479241334 87.10210445206029 Q 15.139871592510984 86.9983454176259 14.76459377986332 86.67100565531082 Q 14.389315967215657 86.34366589299574 14.488659723589013 85.8655974908071 L 14.488659723589013 85.8655974908071 Q 14.546058338382506 85.58938019176479 14.825176807596986 85.2594943538646 L 14.825176807596986 85.2594943538646 Q 14.992813670278366 85.03943231097055 15.221232458118052 84.2335461707823 Q 15.44965124595774 83.42766003059405 15.648338758704453 82.47152322621679 L 15.648338758704453 82.47152322621679 Q 15.847026271451165 81.51538642183951 15.958583894311406 80.68521625231556 Q 16.070141517171653 79.85504608279159 16.004056049894146 79.58641598122614 L 16.004056049894146 79.58641598122614 Q 15.879472312815999 79.17263986016623 15.936870927609492 78.8964225611239 L 15.936870927609492 78.8964225611239 Q 16.03621468398285 78.41835415893527 16.51083625300387 78.26762551906171 Q 16.985457822024888 78.11689687918816 17.484773708755238 78.22065591362255 L 17.484773708755238 78.22065591362255 Q 17.99471333775645 78.32662258708746 18.36999115040411 78.65396234940255 Q 18.745268963051778 78.98130211171762 18.64592520667842 79.45937051390625 Z" fill-opacity="1"/></g></g><g><g><path fill="rgb(0,0,0)" stroke="none" paint-order="stroke fill markers" d=" M 25.302281961656934 75.39856005754663 L 25.302281961656934 75.39856005754663 Q 25.138766526026572 75.85864839842496 24.79734311225506 76.20368805461598 Q 24.455919698483548 76.54872771080699 23.995190278923676 76.67863208880041 Q 23.534460859363804 76.80853646679384 23.002803221015512 76.61958529673208 L 23.002803221015512 76.61958529673208 Q 22.542714880137183 76.45606986110172 22.067592918066527 76.0108372135295 L 22.067592918066527 76.0108372135295 Q 21.340250540620442 75.30323149524426 20.52951153507172 74.47386185431544 L 20.52951153507172 74.47386185431544 Q 19.53381089158101 73.45208529486376 18.46256885242841 72.43225030253647 Q 17.391326813275814 71.4124153102092 16.29557534128248 70.59115035962262 Q 15.199823869289142 69.76988540903602 14.156956963298258 69.3992504216072 L 14.156956963298258 69.3992504216072 Q 13.819558846654148 69.27933910214493 13.528971136737784 69.22212658217812 Q 13.238383426821422 69.16491406221131 13.013451349058682 69.0849731825698 L 13.013451349058682 69.0849731825698 Q 12.400000227887574 68.86695260172931 12.10152152052283 68.42692101077662 Q 11.803042813158086 67.98688941982394 11.765369796234172 67.46105648284887 Q 11.727696779310254 66.93522354587381 11.894845891287959 66.46491101964263 L 11.894845891287959 66.46491101964263 Q 12.112866472128445 65.85145989847152 12.593670075541802 65.48686240815783 Q 13.074473678955158 65.12226491784413 13.677700614773412 65.33665182233727 L 13.677700614773412 65.33665182233727 Q 14.107116399593188 65.48926622892562 14.573617321590813 66.02355971201534 L 14.573617321590813 66.02355971201534 Q 16.261249880644844 67.98218458755153 18.80502406850958 69.6865759505726 Q 21.348798256374316 71.39096731359368 23.636985244345595 72.30782951261585 L 23.636985244345595 72.30782951261585 Q 24.471057923242928 72.6503213908566 24.894845265655476 73.17519226123338 Q 25.318632608068025 73.70006313161015 25.403116031719687 74.28859486808068 Q 25.48759945537135 74.8771266045512 25.302281961656934 75.39856005754663 Z" fill-opacity="1"/></g></g><g><g><path fill="rgb(0,0,0)" stroke="none" paint-order="stroke fill markers" d=" M 27.204550498205673 58.27200607512918 L 27.204550498205673 58.27200607512918 Q 27.074757844331867 58.522494526501376 26.716987711191294 58.76484204090232 L 26.716987711191294 58.76484204090232 Q 26.510821445847228 58.9268735559581 26.078264653341687 59.64374461312311 Q 25.645707860836147 60.36061567028812 25.191433572277827 61.23732525009081 L 25.191433572277827 61.23732525009081 Q 24.737159283719507 62.114034829893505 24.400944203280197 62.880826138548436 Q 24.064729122840887 63.64761744720337 24.051246281629282 63.909489465239005 L 24.051246281629282 63.909489465239005 Q 24.05957465434038 64.34153393530167 23.929782000466574 64.59202238667386 L 23.929782000466574 64.59202238667386 Q 23.70514086876191 65.0255600909719 23.207453454644657 65.04264793716122 Q 22.709766040527406 65.05973578335053 22.2473258226095 64.8201185761989 L 22.2473258226095 64.8201185761989 Q 21.794519775898223 64.58549339419625 21.521473493485633 64.16904353608753 Q 21.248427211073043 63.7525936779788 21.473068342777708 63.31905597368077 L 21.473068342777708 63.31905597368077 Q 21.602860996651515 63.06856752230857 21.96063112979209 62.82622000790762 L 21.96063112979209 62.82622000790762 Q 22.18142359149177 62.659546346794215 22.618797469600622 61.945171302203704 Q 23.056171347709473 61.23079625761319 23.505453611118803 60.36372084901712 L 23.505453611118803 60.36372084901712 Q 23.95473587452813 59.49664544042105 24.28613386936413 58.72735811919162 Q 24.617531864200124 57.95807079796219 24.626372559354103 57.68157258357094 L 24.626372559354103 57.68157258357094 Q 24.618044186643004 57.249528113508276 24.747836840516808 56.999039662136084 L 24.747836840516808 56.999039662136084 Q 24.972477972221473 56.565501957838045 25.470165386338724 56.54841411164873 Q 25.96785280045598 56.53132626545941 26.420658847167257 56.765951447462065 L 26.420658847167257 56.765951447462065 Q 26.883099065085162 57.005568654613704 27.15614534749775 57.422018512722424 Q 27.42919162991034 57.838468370831144 27.204550498205673 58.27200607512918 Z" fill-opacity="1"/></g></g><g><g><path fill="rgb(0,0,0)" stroke="none" paint-order="stroke fill markers" d=" M 34.70966503773527 56.15764504622025 L 34.70966503773527 56.15764504622025 Q 34.428082849202625 56.55655612679176 34.00622975661527 56.796685841925665 Q 33.584376664027914 57.03681555705956 33.105684559402206 57.0375994185573 Q 32.626992454776506 57.03838328005503 32.16602853944943 56.71299941775064 L 32.16602853944943 56.71299941775064 Q 31.767117458877927 56.431417229217985 31.429736638730166 55.87450864470661 L 31.429736638730166 55.87450864470661 Q 30.920275827712288 54.99690824098297 30.36336247496051 53.979559110183075 L 30.36336247496051 53.979559110183075 Q 29.68025712890398 52.72703597862752 28.92388783851308 51.45600159098233 Q 28.16751854812219 50.184967203337145 27.3339751450357 49.09852677579013 Q 26.50043174194921 48.01208634824311 25.5962332926538 47.37383338756911 L 25.5962332926538 47.37383338756911 Q 25.303698500234695 47.16733978264516 25.039322324022223 47.033849232243035 Q 24.77494614780975 46.90035868184091 24.579922952863683 46.76269627855829 L 24.579922952863683 46.76269627855829 Q 24.048041512101676 46.387253360514755 23.87935030732106 45.883010743101124 Q 23.710659102540447 45.37876812568749 23.816251131841753 44.86227044209153 Q 23.92184316114305 44.345772758495556 24.209682731643092 43.93799698724468 L 24.209682731643092 43.93799698724468 Q 24.585125649686624 43.406115546482674 25.146466976891055 43.184757579897585 Q 25.70780830409548 42.96339961331249 26.230825054178116 43.332585149388635 L 26.230825054178116 43.332585149388635 Q 26.603142062711523 43.595395192019105 26.908193208478878 44.2357360659002 L 26.908193208478878 44.2357360659002 Q 28.004813106955517 46.57704763331567 29.994417961028574 48.904537603613434 Q 31.98402281510163 51.232027573911196 33.93999116161136 52.73223549662353 L 33.93999116161136 52.73223549662353 Q 34.65073096012923 53.28705696263455 34.91719465219542 53.90680065398576 Q 35.183658344261616 54.526544345336966 35.10622493116694 55.11604508345476 Q 35.028791518072275 55.70554582157255 34.70966503773527 56.15764504622025 Z" fill-opacity="1"/></g></g><g><g><path fill="rgb(0,0,0)" stroke="none" paint-order="stroke fill markers" d=" M 41.16208126225856 40.17941605288963 L 41.16208126225856 40.17941605288963 Q 40.969520696680384 40.385598074061846 40.559633073699295 40.52243345848654 L 40.559633073699295 40.52243345848654 Q 40.31739643314383 40.62283341271757 39.70747052332149 41.19641852050102 Q 39.097544613499146 41.770003628284464 38.42358263397552 42.491640702387215 L 38.42358263397552 42.491640702387215 Q 37.74962065445189 43.21327777648996 37.21899552200348 43.86092464026501 Q 36.68837038955507 44.50857150404007 36.60473530374746 44.757094970254315 L 36.60473530374746 44.757094970254315 Q 36.4961906347873 45.17536502744712 36.30363006920912 45.38154704861933 L 36.30363006920912 45.38154704861933 Q 35.97035216724689 45.73840054680201 35.486510106770055 45.620580271926926 Q 35.00266804629322 45.50275999705183 34.62202431489837 45.14726356829212 L 34.62202431489837 45.14726356829212 Q 34.2493106612409 44.79917331513156 34.09874650272631 44.324499542073795 Q 33.94818234421171 43.84982576901602 34.28146024617394 43.49297227083335 L 34.28146024617394 43.49297227083335 Q 34.47402081175212 43.28679024966113 34.88390843473321 43.14995486523644 L 34.88390843473321 43.14995486523644 Q 35.14148132862523 43.04903100886717 35.75537227731627 42.4791489888833 Q 36.369263226007305 41.90926696889944 37.03581902993177 41.195559972534085 L 37.03581902993177 41.195559972534085 Q 37.70237483385624 40.481852976168724 38.229034927435954 39.830503024594094 Q 38.75569502101567 39.179153073019464 38.83880620468504 38.915293353468655 L 38.83880620468504 38.915293353468655 Q 38.947350873645206 38.497023296275856 39.13991143922338 38.29084127510364 L 39.13991143922338 38.29084127510364 Q 39.473189341185616 37.93398777692096 39.95703140166245 38.05180805179605 Q 40.44087346213928 38.169628326671145 40.81358711579674 38.517718579831694 L 40.81358711579674 38.517718579831694 Q 41.1942308471916 38.873215008591416 41.344795005706196 39.34788878164918 Q 41.495359164220794 39.82256255470695 41.16208126225856 40.17941605288963 Z" fill-opacity="1"/></g></g><g><g><path fill="rgb(0,0,0)" stroke="none" paint-order="stroke fill markers" d=" M 48.95933357455681 40.16831693638746 L 48.95933357455681 40.16831693638746 Q 48.58056829589254 40.47646534670292 48.10957243851706 40.59387579832858 Q 47.638576581141585 40.71128624995425 47.17742419497947 40.58289145953493 Q 46.71627180881735 40.454496669115606 46.36018920134172 40.01681234710356 L 46.36018920134172 40.01681234710356 Q 46.052040791026265 39.63804706843929 45.877423104817204 39.01076590901472 L 45.877423104817204 39.01076590901472 Q 45.623628237952595 38.02825842704216 45.361844253662305 36.89838193734002 L 45.361844253662305 36.89838193734002 Q 45.041997003557945 35.508006144436024 44.65659691203778 34.080039167409154 Q 44.271196820517616 32.652072190382285 43.76168158733756 31.381032602251757 Q 43.25216635415751 30.10999301412123 42.55369662410914 29.25145838248222 L 42.55369662410914 29.25145838248222 Q 42.32772112321114 28.973697178128425 42.109164052251714 28.773828980735683 Q 41.89060698129228 28.57396078334294 41.73995664736028 28.388786647107075 L 41.73995664736028 28.388786647107075 Q 41.32909210027301 27.88376627555472 41.30269945302419 27.352709999857236 Q 41.27630680577538 26.821653724159752 41.517332603540005 26.35279756431551 Q 41.75835840130464 25.883941404471265 42.145540686161446 25.568945251704353 L 42.145540686161446 25.568945251704353 Q 42.6505610577138 25.158080704617078 43.25080799043624 25.09637936949689 Q 43.851054923158685 25.0346780343767 44.2550717277945 25.531281399736518 L 44.2550717277945 25.531281399736518 Q 44.542676910755596 25.88479565982317 44.66365403232725 26.58369277124445 L 44.66365403232725 26.58369277124445 Q 45.08792998905871 29.134046662371723 46.37580561915006 31.912015956407306 Q 47.6636812492414 34.68998525044289 49.14236572998874 36.662275338212396 L 49.14236572998874 36.662275338212396 Q 49.67706032868931 37.388277821998976 49.766437977358876 38.05693077987583 Q 49.85581562602844 38.725583737752686 49.62220825820238 39.272332904557985 Q 49.38860089037631 39.81908207136328 48.95933357455681 40.16831693638746 Z" fill-opacity="1"/></g></g><g><g><path fill="rgb(0,0,0)" stroke="none" paint-order="stroke fill markers" d=" M 59.48335129352191 26.523445081045125 L 59.48335129352191 26.523445081045125 Q 59.24230415248232 26.670029094726996 58.810698529546116 26.69120389469289 L 58.810698529546116 26.69120389469289 Q 58.55035709725036 26.72252608279309 57.80829748461737 27.110285057727943 Q 57.06623787198437 27.498044032662797 56.2225728783458 28.011088080549346 L 56.2225728783458 28.011088080549346 Q 55.37890788470723 28.524132128435895 54.69322673887496 29.00460154223213 Q 54.007545593042686 29.485070956028363 53.859961094348364 29.701814021851327 L 53.859961094348364 29.701814021851327 Q 53.6425936452549 30.07528848949047 53.401546504215304 30.221872503172342 L 53.401546504215304 30.221872503172342 Q 52.98434952933909 30.47557560377558 52.550237174698104 30.231585398631676 Q 52.11612482005712 29.98759519348777 51.84550817941366 29.542585086953142 L 51.84550817941366 29.542585086953142 Q 51.58052938545028 29.10684602430465 51.56361400568551 28.609152718557507 Q 51.54669862592074 28.111459412810362 51.96389560079695 27.857756312207123 L 51.96389560079695 27.857756312207123 Q 52.20494274183655 27.711172298525252 52.63654836477274 27.689997498559357 L 52.63654836477274 27.689997498559357 Q 52.911798687634715 27.662308507665223 53.656677223607744 27.279185054673437 Q 54.40155575958077 26.896061601681655 55.235949709333205 26.388655400475177 L 55.235949709333205 26.388655400475177 Q 56.07034365908564 25.881249199268698 56.75320588157788 25.396144263529397 Q 57.43606810407012 24.911039327790096 57.5872857999705 24.67938737140092 L 57.5872857999705 24.67938737140092 Q 57.80465324906397 24.305912903761776 58.045700390103555 24.159328890079905 L 58.045700390103555 24.159328890079905 Q 58.462897364979774 23.905625789476666 58.89700971962076 24.14961599462057 Q 59.33112207426174 24.393606199764477 59.59610086822513 24.829345262412968 L 59.59610086822513 24.829345262412968 Q 59.86671750886858 25.274355368947596 59.88363288863336 25.77204867469474 Q 59.900548268398126 26.269741980441886 59.48335129352191 26.523445081045125 Z" fill-opacity="1"/></g></g><g><g><path fill="rgb(0,0,0)" stroke="none" paint-order="stroke fill markers" d=" M 66.99445484464141 28.616431047645644 L 66.99445484464141 28.616431047645644 Q 66.5465977638282 28.81096282979713 66.06139074974347 28.796946221834556 Q 65.57618373565873 28.782929613871982 65.16677263081006 28.53487862577392 Q 64.75736152596137 28.286827637675863 64.53256924436411 27.769303899847266 L 64.53256924436411 27.769303899847266 Q 64.33803746221263 27.321446819034055 64.33913350490563 26.670315658670454 L 64.33913350490563 26.670315658670454 Q 64.35982738643538 25.655769183714213 64.41258809113934 24.497163105510037 L 64.41258809113934 24.497163105510037 Q 64.47972054432358 23.072052463271262 64.4938730133741 21.593058675034552 Q 64.50802548242461 20.11406488679784 64.36032683311888 18.75269332971623 Q 64.21262818381312 17.39132177263462 63.77168947760309 16.376179056124677 L 63.77168947760309 16.376179056124677 Q 63.629032837358665 16.04775053019499 63.472504249773266 15.796327995676087 Q 63.31597566218787 15.544905461157182 63.22087123535825 15.325953110537393 L 63.22087123535825 15.325953110537393 Q 62.96149552582294 14.728810336119778 63.07935885801404 14.210326416686117 Q 63.19722219020513 13.691842497252452 63.55580597563255 13.305400777661372 Q 63.91438976105997 12.918959058070289 64.3721992214468 12.720104347426549 L 64.3721992214468 12.720104347426549 Q 64.96934199586443 12.460728637891235 65.56397696505185 12.563260039996987 Q 66.15861193423929 12.665791442102739 66.41366471528235 13.252981836946724 L 66.41366471528235 13.252981836946724 Q 66.59522771195707 13.670981779039053 66.52315848965955 14.376601126487952 L 66.52315848965955 14.376601126487952 Q 66.24362389786842 16.94684926031483 66.73425446013316 19.96926860391352 Q 67.2248850223979 22.99168794751221 68.11661837397719 25.28978446715581 L 68.11661837397719 25.28978446715581 Q 68.43561192053987 26.13312368573586 68.34127479448652 26.80109497913638 Q 68.24693766843318 27.4690662725369 67.87448193566478 27.93251398353876 Q 67.50202620289637 28.395961694540627 66.99445484464141 28.616431047645644 Z" fill-opacity="1"/></g></g><g><g><path fill="rgb(0,0,0)" stroke="none" paint-order="stroke fill markers" d=" M 80.80955580801019 18.31689405466717 L 80.80955580801019 18.31689405466717 Q 80.5378994552428 18.393008595141154 80.11658604694031 18.296952372603045 L 80.11658604694031 18.296952372603045 Q 79.85744815595484 18.256873771170497 79.03829000728334 18.430048303965116 Q 78.21913185861183 18.60322283675973 77.26833462392597 18.869623728418688 L 77.26833462392597 18.869623728418688 Q 76.31753738924009 19.13602462007764 75.52765406382781 19.4136823654751 Q 74.73777073841553 19.69134011087256 74.5371824939485 19.8602279346457 L 74.5371824939485 19.8602279346457 Q 74.2271134140311 20.16120791999839 73.9554570612637 20.237322460472377 L 73.9554570612637 20.237322460472377 Q 73.4852826045509 20.369059165138893 73.13309608315761 20.01699466706078 Q 72.7809095617643 19.664930168982664 72.64039041012002 19.16341074848902 L 72.64039041012002 19.16341074848902 Q 72.50279874080167 18.67233964925566 72.62078667612116 18.188538446511032 Q 72.73877461144065 17.704737243766402 73.20894906815344 17.573000539099887 L 73.20894906815344 17.573000539099887 Q 73.48060542092082 17.4968859986259 73.9019188292233 17.59294222116401 L 73.9019188292233 17.59294222116401 Q 74.17443252379499 17.640541661530918 74.99505441362946 17.47259128936644 Q 75.81567630346393 17.30464091720197 76.75602521688951 17.041167507868934 L 76.75602521688951 17.041167507868934 Q 77.69637413031509 16.777694098535903 78.48479371456442 16.494812192508302 Q 79.27321329881373 16.2119302864807 79.48132238221511 16.029666659121354 L 79.48132238221511 16.029666659121354 Q 79.79139146213254 15.728686673768664 80.06304781489993 15.652572133294676 L 80.06304781489993 15.652572133294676 Q 80.53322227161271 15.52083542862816 80.88540879300602 15.872899926706275 Q 81.23759531439931 16.22496442478439 81.37518698371768 16.716035524017748 L 81.37518698371768 16.716035524017748 Q 81.51570613536197 17.217554944511395 81.39771820004248 17.701356147256025 Q 81.27973026472297 18.18515735000065 80.80955580801019 18.31689405466717 Z" fill-opacity="1"/></g></g><g><g><path fill="rgb(0,0,0)" stroke="none" paint-order="stroke fill markers" d=" M 87.47744640857681 22.358737910001246 L 87.47744640857681 22.358737910001246 Q 86.99371303648876 22.425225531630275 86.53028045025503 22.280821411770333 Q 86.06684786402131 22.13641729191039 85.73954218920153 21.78710691316306 Q 85.41223651438173 21.437796534415735 85.33540637383264 20.878815748891764 L 85.33540637383264 20.878815748891764 Q 85.26891875220362 20.395082376803714 85.4456472353262 19.76839263493839 L 85.4456472353262 19.76839263493839 Q 85.73929509472546 18.79705143780469 86.10268746831996 17.69564428364875 L 86.10268746831996 17.69564428364875 Q 86.55182071785066 16.34149272896267 86.96447612358561 14.92116233284326 Q 87.37713152932058 13.500831936723847 87.60220359703177 12.15009511121943 Q 87.82727566474298 10.799358285715012 87.67657038905053 9.702895975648762 L 87.67657038905053 9.702895975648762 Q 87.6278127998559 9.348158169450855 87.54492170491511 9.063828157009493 Q 87.4620306099743 8.77949814456813 87.42952555051123 8.543006273769528 L 87.42952555051123 8.543006273769528 Q 87.34087538833919 7.898028444318792 87.59425331581046 7.430570461547239 Q 87.84763124328173 6.963112478775688 88.29717849741844 6.687745813926606 Q 88.74672575155516 6.412379149077523 89.24120875413405 6.344414024745628 L 89.24120875413405 6.344414024745628 Q 89.88618658358479 6.255763862573593 90.43110823384656 6.514923716861057 Q 90.97602988410833 6.77408357114852 91.0632025435775 7.40831177010841 L 91.0632025435775 7.40831177010841 Q 91.12525765709793 7.859796250723926 90.8654871354543 8.519805275193875 L 90.8654871354543 8.519805275193875 Q 89.90287379702805 10.919324105737253 89.55987146714847 13.9620344828328 Q 89.2168691372689 17.004744859928348 89.45551557640216 19.458208505676104 L 89.45551557640216 19.458208505676104 Q 89.53514977877676 20.35633784722776 89.26409443107624 20.97408710108576 Q 88.99303908337573 21.591836354943766 88.50935832349283 21.93761081354939 Q 88.02567756360993 22.283385272155016 87.47744640857681 22.358737910001246 Z" fill-opacity="1"/></g></g></g></g></svg>