<svg version="1.1" xmlns="http://www.w3.org/2000/svg" xmlns:xlink="http://www.w3.org/1999/xlink" width="200" height="200" viewBox="0 0 200 200"><defs/><g><g/><g><g><g><path fill="rgb(0,0,0)" stroke="none" paint-order="stroke fill markers" d=" M 102.04264322916667 22.98535410563151 L 102.04264322916667 22.98535410563151 Q 100.88704427083333 22.98535410563151 100.01627604166667 22.35058848063151 Q 99.1455078125 21.71582285563151 98.56770833333333 20.649742126464844 Q 97.98990885416667 19.583661397298176 97.70100911458333 18.24902598063151 Q 97.412109375 16.914390563964844 97.412109375 15.506512959798176 L 97.412109375 15.506512959798176 Q 97.412109375 14.106773376464844 97.70100911458333 12.772137959798176 Q 97.98990885416667 11.43750254313151 98.56770833333333 10.371421813964844 Q 99.1455078125 9.305341084798176 100.01627604166667 8.670575459798176 Q 100.88704427083333 8.035809834798176 102.04264322916667 8.035809834798176 L 102.04264322916667 8.035809834798176 Q 102.31119791666667 8.035809834798176 102.44954427083333 8.235191345214842 Q 102.587890625 8.43457285563151 102.587890625 8.662437438964842 L 102.587890625 8.662437438964842 Q 102.587890625 8.890302022298176 102.45361328125 9.077476501464844 Q 102.3193359375 9.26465098063151 102.05078125 9.26465098063151 L 102.05078125 9.26465098063151 Q 101.65201822916667 9.26465098063151 101.35091145833333 9.793622334798176 Q 101.0498046875 10.322593688964844 100.85042317708333 11.213706970214844 Q 100.65104166666667 12.104820251464844 100.55338541666667 13.223798116048176 Q 100.45572916666667 14.34277598063151 100.45572916666667 15.506512959798176 L 100.45572916666667 15.506512959798176 Q 100.45572916666667 16.678387959798176 100.55338541666667 17.79736582438151 Q 100.65104166666667 18.916343688964844 100.85042317708333 19.807456970214844 Q 101.0498046875 20.698570251464844 101.35091145833333 21.22754160563151 Q 101.65201822916667 21.756512959798176 102.05078125 21.756512959798176 L 102.05078125 21.756512959798176 Q 102.3193359375 21.756512959798176 102.45361328125 21.943687438964844 Q 102.587890625 22.13086191813151 102.587890625 22.358726501464844 L 102.587890625 22.358726501464844 Q 102.587890625 22.586591084798176 102.44954427083333 22.785972595214844 Q 102.31119791666667 22.98535410563151 102.04264322916667 22.98535410563151 Z" fill-opacity="1"/></g></g><g><g><path fill="rgb(0,0,0)" stroke="none" paint-order="stroke fill markers" d=" M 110.02221220101222 23.612719327310764 L 110.02221220101222 23.612719327310764 Q 109.7569638673563 23.570708118437654 109.65552984044928 23.35277572083231 Q 109.55409581354226 23.134843323226967 109.58974168773763 22.909784131034062 L 109.58974168773763 22.909784131034062 Q 109.625387561933 22.68472493884116 109.78327335413228 22.520223959080056 Q 109.94115914633156 22.35572297931895 110.20640747998748 22.39773418819206 L 110.20640747998748 22.39773418819206 Q 110.60026106632506 22.46011446803395 110.98041006396207 21.984759105630015 Q 111.36055906159906 21.50940374322608 111.69688668421044 20.660451685106924 Q 112.03321430682182 19.811499626987768 112.30873386411733 18.722211573449126 Q 112.58425342141282 17.63292351991048 112.76757506013185 16.475476245775553 L 112.76757506013185 16.475476245775553 Q 112.94962363191532 15.32606679993323 113.02419748189573 14.204952073005867 Q 113.09877133187614 13.083837346078505 113.04124536814993 12.17250500811746 Q 112.98371940442372 11.261172670156416 112.76906910840806 10.691610354521872 Q 112.5544188123924 10.122048038887332 112.16056522605481 10.059667759045443 L 112.16056522605481 10.059667759045443 Q 111.8953168923989 10.017656550172333 111.79599217923486 9.812417428473669 Q 111.69666746607082 9.607178306775005 111.73231334026619 9.382119114582101 L 111.73231334026619 9.382119114582101 Q 111.76795921446156 9.1570599223892 111.93177352121046 8.981138733656964 Q 112.09558782795936 8.80521754492473 112.36083616161528 8.847228753797838 L 112.36083616161528 8.847228753797838 Q 113.5102456074576 9.02927732558131 114.2669750996471 9.791809561040338 Q 115.02370459183658 10.554341796499365 115.42761863205455 11.697685055254407 Q 115.83153267227253 12.841028314009447 115.91211151337626 14.205062563676202 Q 115.99269035448 15.56909681334296 115.77372284156561 16.95160327967079 L 115.77372284156561 16.95160327967079 Q 115.55348226171567 18.34214757429122 115.05533746575195 19.614521004598465 Q 114.55719266978822 20.886894434905713 113.81973509245647 21.84946218881283 Q 113.08227751512473 22.81202994271995 112.12694958098963 23.303398920907092 Q 111.17162164685455 23.794767899094236 110.02221220101222 23.612719327310764 Z" fill-opacity="1"/></g></g><g><g><path fill="rgb(0,0,0)" stroke="none" paint-order="stroke fill markers" d=" M 125.74150355069376 27.38593064325448 L 125.74150355069376 27.38593064325448 Q 124.64246363114695 27.028830926447494 124.01046719818524 26.1560507614968 Q 123.37847076522353 25.283270596546103 123.15838786813825 24.090817713771962 Q 122.93830497105299 22.898364830997824 123.07597001621097 21.539776191896944 Q 123.21363506136896 20.181187552796068 123.64869316705635 18.84221638320735 L 123.64869316705635 18.84221638320735 Q 124.08123648600565 17.51098493136192 124.76842149093704 16.330946150664538 Q 125.45560649586844 15.150907369967152 126.33456351832997 14.315554204 Q 127.2135205407915 13.480201038032845 128.2378237048933 13.145585235030707 Q 129.2621268689951 12.810969432028571 130.36116678854188 13.168069148835558 L 130.36116678854188 13.168069148835558 Q 130.61657747407037 13.251057111192111 130.68654040062336 13.483431570449966 Q 130.75650332717635 13.715806029707824 130.68608929851018 13.932518126519868 L 130.68608929851018 13.932518126519868 Q 130.61567526984402 14.149230223331916 130.430129832104 14.285749750249252 Q 130.24458439436398 14.422269277166583 129.9891737088355 14.33928131481003 L 129.9891737088355 14.33928131481003 Q 129.6099275394144 14.21605676464424 129.16009684493775 14.626091308649055 Q 128.71026615046108 15.036125852653873 128.2452739179311 15.822012670460946 Q 127.78028168540106 16.607899488268018 127.34162189599597 17.641933237113104 Q 126.90296210659089 18.67596698595819 126.54334760304583 19.782746623248286 L 126.54334760304583 19.782746623248286 Q 126.18121831276268 20.89726597828167 125.9283117491965 21.991654608840616 Q 125.6754051856303 23.086043239399558 125.58965912252137 23.995154607372424 Q 125.50391305941244 24.904265975345286 125.62682147793905 25.500394737967827 Q 125.74972989646565 26.096523500590372 126.12897606588673 26.219748050756163 L 126.12897606588673 26.219748050756163 Q 126.38438675141522 26.302736013112717 126.45425199920368 26.5222435023866 Q 126.52411724699213 26.74175099166049 126.45370321832597 26.958463088472534 L 126.45370321832597 26.958463088472534 Q 126.3832891896598 27.175175185284584 126.19010171294103 27.32204689544781 Q 125.99691423622224 27.468918605611034 125.74150355069376 27.38593064325448 Z" fill-opacity="1"/></g></g><g><g><path fill="rgb(0,0,0)" stroke="none" paint-order="stroke fill markers" d=" M 133.13665810341539 30.44841284551678 L 133.13665810341539 30.44841284551678 Q 132.89737412475154 30.326491568731257 132.86824944697247 30.087880703754713 Q 132.83912476919343 29.849269838778174 132.9425731252539 29.646241008396707 L 132.9425731252539 29.646241008396707 Q 133.0460214813143 29.443212178015244 133.2470133911534 29.335551842236438 Q 133.44800530099243 29.22789150645763 133.6872892796563 29.349812783243156 L 133.6872892796563 29.349812783243156 Q 134.04258973282387 29.530847406348933 134.5510257995397 29.196230092043262 Q 135.0594618662555 28.86161277773759 135.64166905671854 28.158142341905826 Q 136.22387624718155 27.45467190607406 136.82251943782722 26.50383763012064 Q 137.42116262847293 25.55300335416722 137.9531827453552 24.508855083633975 L 137.9531827453552 24.508855083633975 Q 138.48150827809246 23.471957842757213 138.89887572732613 22.428758963178396 Q 139.3162431765598 21.38556008359958 139.54314991385525 20.501055024662037 Q 139.7700566511507 19.616549965724495 139.74191652328696 19.008533424687656 Q 139.7137763954232 18.400516883650813 139.35847594225564 18.219482260545036 L 139.35847594225564 18.219482260545036 Q 139.11919196359176 18.097560983759514 139.08815092442342 17.8716739553402 Q 139.0571098852551 17.645786926920884 139.16055824131556 17.44275809653942 L 139.16055824131556 17.44275809653942 Q 139.26400659737598 17.23972926615796 139.47416589826082 17.123039677966936 Q 139.68432519914563 17.00635008977592 139.9236091778095 17.128271366561442 L 139.9236091778095 17.128271366561442 Q 140.96050641868626 17.656596899298705 141.44456351379023 18.615650423948402 Q 141.92862060889422 19.574703948598096 141.95945319150727 20.786904307893217 Q 141.99028577412034 21.99910466718833 141.64541104197104 23.32127856007176 Q 141.30053630982178 24.643452452955195 140.66506783687905 25.8906295538699 L 140.66506783687905 25.8906295538699 Q 140.0259047797913 27.145057684441092 139.1589559123754 28.20122151888338 Q 138.2920070449595 29.25738535332567 137.29319341635227 29.944954764028537 Q 136.29437978774504 30.632524174731408 135.2339675660186 30.804631276492724 Q 134.17355534429217 30.976738378254044 133.13665810341539 30.44841284551678 Z" fill-opacity="1"/></g></g><g><g><path fill="rgb(0,0,0)" stroke="none" paint-order="stroke fill markers" d=" M 146.9206061530776 38.89447822148636 L 146.9206061530776 38.89447822148636 Q 145.98570695710396 38.21523419621349 145.65434653458357 37.18987329487445 Q 145.32298611206318 36.16451239353542 145.48216304443372 34.962412953627506 Q 145.64133997680426 33.7603135137196 146.19209419291474 32.510759774023356 Q 146.7428484090252 31.261206034327117 147.57037810178724 30.1222091265564 L 147.57037810178724 30.1222091265564 Q 148.39312438592057 28.98979601594042 149.4113282000179 28.07986428888062 Q 150.42953201411518 27.16993256182082 151.52360814245938 26.64707714718579 Q 152.61768427080358 26.124221732550758 153.6952564393984 26.12251027774972 Q 154.77282860799323 26.120798822948686 155.7077278039669 26.800042848221562 L 155.7077278039669 26.800042848221562 Q 155.92499311007344 26.95789533296808 155.91972415030136 27.200516309946906 Q 155.9144551905293 27.443137286925733 155.7805197489262 27.62748360725856 L 155.7805197489262 27.62748360725856 Q 155.6465843073231 27.811829927591397 155.42793325581013 27.884331019777253 Q 155.20928220429718 27.95683211196311 154.99201689819063 27.798979627216596 L 154.99201689819063 27.798979627216596 Q 154.66941083760815 27.564592604411168 154.11488878201828 27.815553300208286 Q 153.5603667264284 28.066513996005405 152.87528045129648 28.670246273047162 Q 152.19019417616454 29.27397855008892 151.4534699238638 30.12184975532204 Q 150.71674567156307 30.969720960555158 150.0327182376615 31.911203953683554 L 150.0327182376615 31.911203953683554 Q 149.34390739513125 32.8592707439667 148.7651942745444 33.821943756288185 Q 148.18648115395752 34.78461676860968 147.82400093940802 35.62273606845687 Q 147.46152072485856 36.46085536830405 147.39419965871974 37.06578830262366 Q 147.32687859258093 37.670721236943265 147.64948465316337 37.905108259748694 L 147.64948465316337 37.905108259748694 Q 147.86674995926992 38.06296074449521 147.86536421386353 38.29331432142758 Q 147.8639784684571 38.523667898359946 147.730043026854 38.70801421869278 L 147.730043026854 38.70801421869278 Q 147.5961075852509 38.89236053902562 147.36698952221755 38.97234562262925 Q 147.13787145918417 39.05233070623288 146.9206061530776 38.89447822148636 Z" fill-opacity="1"/></g></g><g><g><path fill="rgb(0,0,0)" stroke="none" paint-order="stroke fill markers" d=" M 153.00745703398343 44.09230030880611 L 153.00745703398343 44.09230030880611 Q 152.81756019333275 43.90240346815543 152.86359579106625 43.666471029771245 Q 152.90963138879977 43.430538591387055 153.070755980867 43.26941399931981 L 153.070755980867 43.26941399931981 Q 153.23188057293424 43.10828940725256 153.45630411188506 43.068008259235754 Q 153.68072765083588 43.027727111218944 153.87062449148655 43.217623951869626 L 153.87062449148655 43.217623951869626 Q 154.15259252760424 43.49959198798731 154.73954639870635 43.33846739592006 Q 155.32650026980846 43.17734280385281 156.09759653184457 42.68821457793438 Q 156.86869279388068 42.199086352015954 157.7318602513838 41.479780137430026 Q 158.5950277088869 40.760473922844106 159.4236684680899 39.931833163641116 L 159.4236684680899 39.931833163641116 Q 160.2465547775762 39.10894685415482 160.9658609921621 38.24577939665171 Q 161.68516720674805 37.3826119391486 162.17429543266647 36.61151567711249 Q 162.6634236585849 35.84041941507638 162.82454825065216 35.253465543974265 Q 162.9856728427194 34.66651167287215 162.7037048066017 34.384543636754465 L 162.7037048066017 34.384543636754465 Q 162.51380796595103 34.19464679610378 162.55408911396785 33.97022325715297 Q 162.59437026198464 33.745799718202164 162.7554948540519 33.58467512613492 L 162.7554948540519 33.58467512613492 Q 162.91661944611914 33.42355053406767 163.15255188450334 33.37751493633417 Q 163.3884843228875 33.33147933860067 163.57838116353818 33.521376179251355 L 163.57838116353818 33.521376179251355 Q 164.4012674730245 34.344262488737655 164.5652692899501 35.40595846146648 Q 164.72927110687567 36.4676544341953 164.38400412387443 37.63005327696616 Q 164.0387371408732 38.792452119737014 163.3021675771372 39.943342063074496 Q 162.5655980134012 41.09423200641197 161.57583266213098 42.08399735768221 L 161.57583266213098 42.08399735768221 Q 160.58031286114405 43.07951715866913 159.4294229178066 43.81608672240511 Q 158.2785329744691 44.5526562861411 157.11613413169823 44.897923269142346 Q 155.9537352889274 45.24319025214359 154.89203931619858 45.079188435218 Q 153.83034334346974 44.91518661829241 153.00745703398343 44.09230030880611 Z" fill-opacity="1"/></g></g><g><g><path fill="rgb(0,0,0)" stroke="none" paint-order="stroke fill markers" d=" M 163.50679291011213 56.38446001860389 L 163.50679291011213 56.38446001860389 Q 162.82754888483925 55.44956082263024 162.82926033964029 54.37198865403541 Q 162.8309717944413 53.294416485440586 163.35382720907634 52.20034035709639 Q 163.87668262371136 51.10626422875219 164.78661435077117 50.08806041465488 Q 165.696546077831 49.069856600557586 166.8355429856017 48.24232690779556 L 166.8355429856017 48.24232690779556 Q 167.96795609621768 47.41958062366221 169.21750983591392 46.86882640755174 Q 170.46706357561015 46.31807219144127 171.66916301551805 46.158895259070725 Q 172.87126245542598 45.999718326700176 173.896623356765 46.33107874922057 Q 174.92198425810403 46.66243917174097 175.6012282833769 47.59733836771463 L 175.6012282833769 47.59733836771463 Q 175.75908076812343 47.814603673821175 175.6790956845198 48.043721736854536 Q 175.59911060091616 48.272839799887905 175.41476428058334 48.406775241491005 L 175.41476428058334 48.406775241491005 Q 175.2304179602505 48.54071068309411 175.00006438331812 48.54209642850053 Q 174.76971080638577 48.54348217390694 174.61185832163923 48.32621686780038 L 174.61185832163923 48.32621686780038 Q 174.37747129883383 48.003610807217925 173.77253836451422 48.07093187335674 Q 173.1676054301946 48.13825293949556 172.32948613034742 48.50073315404504 Q 171.49136683050023 48.863213368594515 170.52869381817874 49.44192648918139 Q 169.56602080585725 50.02063960976827 168.62453781272885 50.70466704366983 L 168.62453781272885 50.70466704366983 Q 167.6764710224457 51.393477886200074 166.8285998172126 52.130202138500806 Q 165.98072861197946 52.866926390801545 165.3769963349377 53.552012665933475 Q 164.77326405789594 54.23709894106541 164.52230336209882 54.79162099665528 Q 164.2713426663017 55.34614305224516 164.50572968910714 55.66874911282762 L 164.50572968910714 55.66874911282762 Q 164.66358217385365 55.886014418934174 164.5910810816678 56.10466547044714 Q 164.51857998948194 56.32331652196011 164.3342336691491 56.45725196356321 L 164.3342336691491 56.45725196356321 Q 164.1498873488163 56.591187405166316 163.90726637183747 56.596456364938376 Q 163.66464539485864 56.60172532471044 163.50679291011213 56.38446001860389 Z" fill-opacity="1"/></g></g><g><g><path fill="rgb(0,0,0)" stroke="none" paint-order="stroke fill markers" d=" M 167.68951674539522 63.20882294971824 L 167.68951674539522 63.20882294971824 Q 167.5675954686097 62.96953897105437 167.68428505680072 62.75937967016955 Q 167.80097464499175 62.549220369284726 168.00400347537322 62.44577201322428 L 168.00400347537322 62.44577201322428 Q 168.20703230575467 62.34232365716384 168.432919334174 62.37336469633217 Q 168.6588063625933 62.4044057355005 168.78072763937882 62.64368971416437 L 168.78072763937882 62.64368971416437 Q 168.9617622624846 62.998990167331925 169.56977880352144 63.02713029519569 Q 170.1777953445583 63.055270423059454 171.06230040349584 62.828363685763996 Q 171.94680546243336 62.601456948468545 172.99000434201218 62.18408949923487 Q 174.033203221591 61.766722050001206 175.07735149212425 61.23470193311893 L 175.07735149212425 61.23470193311893 Q 176.114248733001 60.70637640038166 177.06508300895445 60.10773320973597 Q 178.01591728490786 59.50909001909028 178.7193877207396 58.926882828627264 Q 179.42285815657138 58.34467563816425 179.75747547087707 57.83623957144843 Q 180.09209278518273 57.32780350473261 179.91105816207696 56.97250305156504 L 179.91105816207696 56.97250305156504 Q 179.7891368852914 56.73321907290118 179.89679722107022 56.53222716306212 Q 180.00445755684905 56.33123525322306 180.2074863872305 56.227786897162616 L 180.2074863872305 56.227786897162616 Q 180.41051521761196 56.124338541102176 180.6491260825885 56.15346321888122 Q 180.88773694756506 56.182587896660266 181.00965822435057 56.421871875324136 L 181.00965822435057 56.421871875324136 Q 181.53798375708783 57.4587691162009 181.36587665532653 58.51918133792734 Q 181.1937695535652 59.57959355965379 180.50620014286233 60.57840718826101 Q 179.81863073215948 61.57722081686822 178.76246689771716 62.444169684284134 Q 177.70630306327487 63.31111855170004 176.45912596236016 63.94658702464277 L 176.45912596236016 63.94658702464277 Q 175.204697831789 64.58575008173051 173.88252393890556 64.93062481387979 Q 172.56035004602214 65.27549954602908 171.348149686727 65.24466696341602 Q 170.1359493274319 65.21383438080295 169.17689580278218 64.72977728569897 Q 168.2178422781325 64.245720190595 167.68951674539522 63.20882294971824 Z" fill-opacity="1"/></g></g><g><g><path fill="rgb(0,0,0)" stroke="none" paint-order="stroke fill markers" d=" M 173.87649229926035 78.14383475643649 L 173.87649229926035 78.14383475643649 Q 173.51939258245338 77.04479483688968 173.8540083854555 76.0204916727879 Q 174.18862418845765 74.99618850868612 175.0239773544248 74.11723148622457 Q 175.85933052039195 73.23827446376303 177.03936930108935 72.55108945883164 Q 178.21940808178672 71.86390445390025 179.55837925137544 71.42884634821287 L 179.55837925137544 71.42884634821287 Q 180.88961070322088 70.99630302926356 182.24819934232175 70.85863798410557 Q 183.60678798142263 70.72097293894758 184.79924086419678 70.94105583603286 Q 185.9916937469709 71.16113873311812 186.8644739119216 71.79313516607984 Q 187.7372540768723 72.42513159904155 188.0943537936793 73.52417151858836 L 188.0943537936793 73.52417151858836 Q 188.17734175603584 73.77958220411685 188.03047004587262 73.97276968083563 Q 187.8835983357094 74.1659571575544 187.66688623889735 74.23637118622057 L 187.66688623889735 74.23637118622057 Q 187.4501741420853 74.30678521488673 187.2306666528114 74.23691996709827 Q 187.0111591635375 74.16705471930982 186.92817120118096 73.91164403378133 L 186.92817120118096 73.91164403378133 Q 186.80494665101517 73.53239786436025 186.20881788839262 73.40948944583364 Q 185.6126891257701 73.28658102730704 184.70357775779723 73.37232709041598 Q 183.79446638982435 73.45807315352491 182.7000777592654 73.71097971709109 Q 181.60568912870647 73.96388628065728 180.49890949141638 74.32350078420235 L 180.49890949141638 74.32350078420235 Q 179.384390136383 74.68563007448549 178.35035638753791 75.12428986389058 Q 177.3163226386928 75.56294965329566 176.53043582088574 76.02794188582568 Q 175.74454900307867 76.49293411835569 175.33451445907386 76.94276481283235 Q 174.92447991506904 77.39259550730901 175.04770446523483 77.77184167673009 L 175.04770446523483 77.77184167673009 Q 175.13069242759138 78.02725236225858 174.99417290067404 78.2127977999986 Q 174.85765337375673 78.39834323773862 174.64094127694466 78.4687572664048 L 174.64094127694466 78.4687572664048 Q 174.4242291801326 78.53917129507096 174.19185472087477 78.46920836851797 Q 173.9594802616169 78.39924544196498 173.87649229926035 78.14383475643649 Z" fill-opacity="1"/></g></g><g><g><path fill="rgb(0,0,0)" stroke="none" paint-order="stroke fill markers" d=" M 175.74565493717267 85.92672233951552 L 175.74565493717267 85.92672233951552 Q 175.70364372829957 85.6614740058596 175.87956491703181 85.4976596991107 Q 176.05548610576403 85.3338453923618 176.28054529795693 85.29819951816643 L 176.28054529795693 85.29819951816643 Q 176.50560449014984 85.26255364397106 176.7108436118485 85.3618783571351 Q 176.91608273354717 85.46120307029913 176.95809394242028 85.72645140395505 L 176.95809394242028 85.72645140395505 Q 177.02047422226218 86.12030499029264 177.5900365378967 86.3349552863083 Q 178.15959885353126 86.54960558232396 179.0709311914923 86.60713154605017 Q 179.98226352945335 86.66465750977638 181.10337825638072 86.59008365979597 Q 182.22449298330807 86.51550980981555 183.381940257443 86.33218817109653 L 183.381940257443 86.33218817109653 Q 184.53134970328531 86.15013959931306 185.62063775682395 85.87462004201757 Q 186.70992581036262 85.59910048472206 187.55887786848177 85.26277286211068 Q 188.40782992660093 84.9264452394993 188.88318528900487 84.54629624186231 Q 189.3585406514088 84.1661472442253 189.2961603715669 83.77229365788772 L 189.2961603715669 83.77229365788772 Q 189.2541491626938 83.5070453242318 189.4186501424549 83.34915953203252 Q 189.583151122216 83.19127373983324 189.8082103144089 83.15562786563787 L 189.8082103144089 83.15562786563787 Q 190.0332695066018 83.1199819914425 190.25120190420716 83.22141601834952 Q 190.4691343018125 83.32285004525654 190.5111455106856 83.58809837891246 L 190.5111455106856 83.58809837891246 Q 190.69319408246906 84.73750782475479 190.20182510428194 85.69283575888987 Q 189.71045612609478 86.64816369302497 188.74788837218767 87.38562127035671 Q 187.78532061828056 88.12307884768846 186.5129471879733 88.62122364365219 Q 185.24057375766606 89.11936843961591 183.85806729133824 89.3383359525303 L 183.85806729133824 89.3383359525303 Q 182.4675229967178 89.55857653238024 181.10348874705105 89.4779976912765 Q 179.7394544973843 89.39741885017277 178.59611123862925 88.99350480995479 Q 177.4527679798742 88.58959076973682 176.6902357444152 87.83286127754734 Q 175.92770350895614 87.07613178535784 175.74565493717267 85.92672233951552 Z" fill-opacity="1"/></g></g><g><g><path fill="rgb(0,0,0)" stroke="none" paint-order="stroke fill markers" d=" M 177.0146458943685 102.04264322916667 L 177.0146458943685 102.04264322916667 Q 177.0146458943685 100.88704427083333 177.6494115193685 100.01627604166667 Q 178.2841771443685 99.1455078125 179.35025787353516 98.56770833333333 Q 180.4163386027018 97.98990885416667 181.7509740193685 97.70100911458333 Q 183.08560943603516 97.412109375 184.4934870402018 97.412109375 L 184.4934870402018 97.412109375 Q 185.89322662353516 97.412109375 187.2278620402018 97.70100911458333 Q 188.5624974568685 97.98990885416667 189.62857818603516 98.56770833333333 Q 190.6946589152018 99.1455078125 191.3294245402018 100.01627604166667 Q 191.9641901652018 100.88704427083333 191.9641901652018 102.04264322916667 L 191.9641901652018 102.04264322916667 Q 191.9641901652018 102.31119791666667 191.76480865478516 102.44954427083333 Q 191.5654271443685 102.587890625 191.33756256103516 102.587890625 L 191.33756256103516 102.587890625 Q 191.1096979777018 102.587890625 190.92252349853516 102.45361328125 Q 190.7353490193685 102.3193359375 190.7353490193685 102.05078125 L 190.7353490193685 102.05078125 Q 190.7353490193685 101.65201822916667 190.2063776652018 101.35091145833333 Q 189.67740631103516 101.0498046875 188.78629302978516 100.85042317708333 Q 187.89517974853516 100.65104166666667 186.7762018839518 100.55338541666667 Q 185.6572240193685 100.45572916666667 184.4934870402018 100.45572916666667 L 184.4934870402018 100.45572916666667 Q 183.3216120402018 100.45572916666667 182.2026341756185 100.55338541666667 Q 181.08365631103516 100.65104166666667 180.19254302978516 100.85042317708333 Q 179.30142974853516 101.0498046875 178.7724583943685 101.35091145833333 Q 178.2434870402018 101.65201822916667 178.2434870402018 102.05078125 L 178.2434870402018 102.05078125 Q 178.2434870402018 102.3193359375 178.05631256103516 102.45361328125 Q 177.8691380818685 102.587890625 177.64127349853516 102.587890625 L 177.64127349853516 102.587890625 Q 177.4134089152018 102.587890625 177.21402740478516 102.44954427083333 Q 177.0146458943685 102.31119791666667 177.0146458943685 102.04264322916667 Z" fill-opacity="1"/></g></g><g><g><path fill="rgb(0,0,0)" stroke="none" paint-order="stroke fill markers" d=" M 176.38728067268926 110.02221220101222 L 176.38728067268926 110.02221220101222 Q 176.42929188156236 109.7569638673563 176.64722427916772 109.65552984044928 Q 176.86515667677304 109.55409581354226 177.09021586896594 109.58974168773763 L 177.09021586896594 109.58974168773763 Q 177.31527506115884 109.625387561933 177.47977604091994 109.78327335413228 Q 177.64427702068107 109.94115914633156 177.60226581180794 110.20640747998748 L 177.60226581180794 110.20640747998748 Q 177.53988553196606 110.60026106632506 178.01524089437 110.98041006396207 Q 178.49059625677393 111.36055906159906 179.33954831489308 111.69688668421044 Q 180.18850037301223 112.03321430682182 181.2777884265509 112.30873386411733 Q 182.36707648008954 112.58425342141282 183.52452375422445 112.76757506013185 L 183.52452375422445 112.76757506013185 Q 184.67393320006678 112.94962363191532 185.79504792699416 113.02419748189573 Q 186.9161626539215 113.09877133187612 187.82749499188256 113.04124536814993 Q 188.7388273298436 112.98371940442372 189.30838964547814 112.76906910840806 Q 189.87795196111267 112.5544188123924 189.94033224095458 112.16056522605481 L 189.94033224095458 112.16056522605481 Q 189.98234344982768 111.8953168923989 190.18758257152635 111.79599217923486 Q 190.39282169322502 111.69666746607082 190.61788088541792 111.73231334026619 L 190.61788088541792 111.73231334026619 Q 190.84294007761082 111.76795921446156 191.01886126634304 111.93177352121046 Q 191.19478245507528 112.09558782795936 191.15277124620218 112.36083616161528 L 191.15277124620218 112.36083616161528 Q 190.9707226744187 113.5102456074576 190.20819043895966 114.26697509964708 Q 189.44565820350064 115.02370459183658 188.3023149447456 115.42761863205455 Q 187.15897168599056 115.83153267227253 185.7949374363238 115.91211151337626 Q 184.43090318665705 115.99269035447999 183.04839672032924 115.77372284156561 L 183.04839672032924 115.77372284156561 Q 181.6578524257088 115.55348226171567 180.38547899540154 115.05533746575195 Q 179.11310556509432 114.55719266978822 178.15053781118718 113.81973509245647 Q 177.18797005728007 113.08227751512473 176.69660107909291 112.12694958098963 Q 176.2052321009058 111.17162164685455 176.38728067268926 110.02221220101222 Z" fill-opacity="1"/></g></g><g><g><path fill="rgb(0,0,0)" stroke="none" paint-order="stroke fill markers" d=" M 172.61406935674555 125.74150355069376 L 172.61406935674555 125.74150355069376 Q 172.97116907355255 124.64246363114695 173.84394923850323 124.01046719818524 Q 174.7167294034539 123.37847076522353 175.90918228622806 123.15838786813825 Q 177.1016351690022 122.93830497105299 178.46022380810308 123.07597001621097 Q 179.81881244720395 123.21363506136896 181.15778361679267 123.64869316705634 L 181.15778361679267 123.64869316705634 Q 182.4890150686381 124.08123648600565 183.66905384933548 124.76842149093704 Q 184.84909263003289 125.45560649586844 185.68444579600003 126.33456351832997 Q 186.51979896196718 127.2135205407915 186.85441476496933 128.2378237048933 Q 187.18903056797146 129.2621268689951 186.8319308511645 130.36116678854188 L 186.8319308511645 130.36116678854188 Q 186.74894288880793 130.61657747407037 186.51656842955006 130.68654040062336 Q 186.2841939702922 130.75650332717635 186.06748187348015 130.68608929851018 L 186.06748187348015 130.68608929851018 Q 185.8507697766681 130.61567526984402 185.7142502497508 130.430129832104 Q 185.57773072283345 130.24458439436398 185.66071868519 129.9891737088355 L 185.66071868519 129.9891737088355 Q 185.7839432353558 129.6099275394144 185.37390869135098 129.16009684493775 Q 184.96387414734616 128.71026615046108 184.1779873295391 128.2452739179311 Q 183.392100511732 127.78028168540106 182.35806676288692 127.34162189599597 Q 181.32403301404185 126.90296210659089 180.21725337675173 126.54334760304583 L 180.21725337675173 126.54334760304583 Q 179.10273402171836 126.18121831276268 178.00834539115942 125.9283117491965 Q 176.91395676060046 125.6754051856303 176.0048453926276 125.58965912252137 Q 175.09573402465475 125.50391305941244 174.4996052620322 125.62682147793905 Q 173.90347649940966 125.74972989646565 173.78025194924388 126.12897606588673 L 173.78025194924388 126.12897606588673 Q 173.69726398688732 126.38438675141522 173.47775649761343 126.45425199920368 Q 173.25824900833953 126.52411724699213 173.0415369115275 126.45370321832597 L 173.0415369115275 126.45370321832597 Q 172.82482481471544 126.3832891896598 172.67795310455222 126.19010171294103 Q 172.531081394389 125.99691423622224 172.61406935674555 125.74150355069376 Z" fill-opacity="1"/></g></g><g><g><path fill="rgb(0,0,0)" stroke="none" paint-order="stroke fill markers" d=" M 169.55158715448323 133.13665810341539 L 169.55158715448323 133.13665810341539 Q 169.67350843126874 132.89737412475154 169.9121192962453 132.86824944697247 Q 170.15073016122182 132.83912476919343 170.35375899160329 132.9425731252539 L 170.35375899160329 132.9425731252539 Q 170.55678782198476 133.0460214813143 170.66444815776356 133.2470133911534 Q 170.77210849354236 133.44800530099243 170.65018721675685 133.6872892796563 L 170.65018721675685 133.6872892796563 Q 170.46915259365107 134.04258973282387 170.80376990795673 134.5510257995397 Q 171.1383872222624 135.0594618662555 171.84185765809417 135.64166905671854 Q 172.54532809392595 136.22387624718155 173.49616236987936 136.82251943782722 Q 174.44699664583277 137.42116262847293 175.491144916366 137.9531827453552 L 175.491144916366 137.9531827453552 Q 176.5280421572428 138.48150827809246 177.57124103682162 138.89887572732613 Q 178.6144399164004 139.3162431765598 179.49894497533796 139.54314991385525 Q 180.3834500342755 139.7700566511507 180.99146657531236 139.74191652328696 Q 181.59948311634918 139.7137763954232 181.78051773945498 139.35847594225564 L 181.78051773945498 139.35847594225564 Q 181.9024390162405 139.11919196359176 182.1283260446598 139.08815092442342 Q 182.3542130730791 139.0571098852551 182.55724190346058 139.16055824131553 L 182.55724190346058 139.16055824131553 Q 182.76027073384205 139.26400659737598 182.87696032203306 139.47416589826082 Q 182.9936499102241 139.68432519914563 182.87172863343855 139.9236091778095 L 182.87172863343855 139.9236091778095 Q 182.3434031007013 140.96050641868626 181.3843495760516 141.44456351379023 Q 180.42529605140192 141.92862060889422 179.21309569210678 141.95945319150727 Q 178.00089533281167 141.99028577412034 176.67872143992824 141.64541104197104 Q 175.3565475470448 141.30053630982178 174.1093704461301 140.66506783687905 L 174.1093704461301 140.66506783687905 Q 172.8549423155589 140.0259047797913 171.7987784811166 139.1589559123754 Q 170.74261464667433 138.2920070449595 170.05504523597145 137.29319341635227 Q 169.3674758252686 136.29437978774504 169.19536872350727 135.2339675660186 Q 169.02326162174595 134.17355534429217 169.55158715448323 133.13665810341539 Z" fill-opacity="1"/></g></g><g><g><path fill="rgb(0,0,0)" stroke="none" paint-order="stroke fill markers" d=" M 161.10552177851363 146.92060615307759 L 161.10552177851363 146.92060615307759 Q 161.7847658037865 145.98570695710393 162.81012670512555 145.65434653458354 Q 163.83548760646457 145.32298611206315 165.0375870463725 145.4821630444337 Q 166.2396864862804 145.64133997680423 167.48924022597663 146.1920941929147 Q 168.73879396567287 146.74284840902519 169.8777908734436 147.5703781017872 L 169.8777908734436 147.5703781017872 Q 171.01020398405956 148.39312438592054 171.92013571111937 149.41132820001786 Q 172.83006743817919 150.42953201411515 173.3529228528142 151.52360814245935 Q 173.87577826744922 152.61768427080355 173.87748972225026 153.69525643939838 Q 173.8792011770513 154.7728286079932 173.19995715177842 155.70772780396686 L 173.19995715177842 155.70772780396686 Q 173.0421046670319 155.92499311007342 172.79948369005308 155.91972415030133 Q 172.55686271307425 155.91445519052928 172.37251639274143 155.78051974892617 L 172.37251639274143 155.78051974892617 Q 172.18817007240858 155.64658430732308 172.11566898022275 155.4279332558101 Q 172.0431678880369 155.20928220429715 172.2010203727834 154.9920168981906 L 172.2010203727834 154.9920168981906 Q 172.43540739558884 154.66941083760813 172.18444669979172 154.11488878201826 Q 171.93348600399457 153.56036672642838 171.32975372695282 152.87528045129645 Q 170.72602144991106 152.1901941761645 169.87815024467795 151.45346992386376 Q 169.03027903944485 150.71674567156305 168.08879604631645 150.03271823766147 L 168.08879604631645 150.03271823766147 Q 167.1407292560333 149.34390739513123 166.1780562437118 148.76519427454437 Q 165.21538323139032 148.1864811539575 164.37726393154313 147.824000939408 Q 163.53914463169593 147.46152072485853 162.93421169737633 147.3941996587197 Q 162.32927876305672 147.3268785925809 162.09489174025128 147.64948465316334 L 162.09489174025128 147.64948465316334 Q 161.93703925550477 147.8667499592699 161.70668567857243 147.8653642138635 Q 161.47633210164005 147.86397846845708 161.2919857813072 147.73004302685396 L 161.2919857813072 147.73004302685396 Q 161.10763946097438 147.59610758525088 161.02765437737074 147.36698952221752 Q 160.94766929376712 147.13787145918414 161.10552177851363 146.92060615307759 Z" fill-opacity="1"/></g></g><g><g><path fill="rgb(0,0,0)" stroke="none" paint-order="stroke fill markers" d=" M 155.9076996911939 153.00745703398343 L 155.9076996911939 153.00745703398343 Q 156.09759653184457 152.81756019333275 156.33352897022877 152.86359579106625 Q 156.56946140861294 152.90963138879977 156.73058600068018 153.070755980867 L 156.73058600068018 153.070755980867 Q 156.89171059274744 153.23188057293424 156.93199174076426 153.45630411188506 Q 156.97227288878105 153.68072765083588 156.78237604813037 153.87062449148655 L 156.78237604813037 153.87062449148655 Q 156.50040801201268 154.15259252760424 156.66153260407995 154.73954639870635 Q 156.8226571961472 155.32650026980846 157.3117854220656 156.09759653184457 Q 157.80091364798403 156.86869279388068 158.52021986256997 157.7318602513838 Q 159.2395260771559 158.5950277088869 160.06816683635887 159.4236684680899 L 160.06816683635887 159.4236684680899 Q 160.89105314584518 160.2465547775762 161.7542206033483 160.9658609921621 Q 162.6173880608514 161.68516720674805 163.3884843228875 162.17429543266647 Q 164.15958058492362 162.6634236585849 164.74653445602573 162.82454825065216 Q 165.33348832712784 162.9856728427194 165.61545636324553 162.7037048066017 L 165.61545636324553 162.7037048066017 Q 165.80535320389623 162.51380796595103 166.02977674284702 162.55408911396785 Q 166.25420028179784 162.59437026198464 166.41532487386507 162.7554948540519 L 166.41532487386507 162.7554948540519 Q 166.57644946593234 162.91661944611914 166.62248506366583 163.15255188450334 Q 166.66852066139933 163.3884843228875 166.47862382074865 163.57838116353818 L 166.47862382074865 163.57838116353818 Q 165.65573751126234 164.4012674730245 164.59404153853353 164.5652692899501 Q 163.5323455658047 164.72927110687567 162.36994672303385 164.38400412387443 Q 161.20754788026298 164.0387371408732 160.05665793692552 163.3021675771372 Q 158.90576799358803 162.5655980134012 157.9160026423178 161.57583266213098 L 157.9160026423178 161.57583266213098 Q 156.92048284133088 160.58031286114405 156.18391327759488 159.4294229178066 Q 155.4473437138589 158.2785329744691 155.10207673085765 157.11613413169823 Q 154.7568097478564 155.9537352889274 154.920811564782 154.89203931619858 Q 155.0848133817076 153.83034334346974 155.9076996911939 153.00745703398343 Z" fill-opacity="1"/></g></g><g><g><path fill="rgb(0,0,0)" stroke="none" paint-order="stroke fill markers" d=" M 143.61553998139613 163.50679291011213 L 143.61553998139613 163.50679291011213 Q 144.55043917736978 162.82754888483925 145.6280113459646 162.82926033964029 Q 146.7055835145594 162.8309717944413 147.79965964290363 163.35382720907634 Q 148.89373577124783 163.87668262371136 149.91193958534512 164.78661435077117 Q 150.93014339944241 165.69654607783096 151.75767309220444 166.8355429856017 L 151.75767309220444 166.8355429856017 Q 152.5804193763378 167.96795609621768 153.13117359244828 169.21750983591392 Q 153.68192780855873 170.46706357561015 153.8411047409293 171.66916301551805 Q 154.00028167329984 172.87126245542598 153.66892125077945 173.896623356765 Q 153.33756082825903 174.92198425810403 152.40266163228537 175.6012282833769 L 152.40266163228537 175.6012282833769 Q 152.18539632617882 175.75908076812343 151.95627826314546 175.6790956845198 Q 151.7271602001121 175.59911060091616 151.593224758509 175.41476428058334 L 151.593224758509 175.41476428058334 Q 151.4592893169059 175.2304179602505 151.4579035714995 175.00006438331812 Q 151.45651782609306 174.76971080638575 151.67378313219962 174.61185832163923 L 151.67378313219962 174.61185832163923 Q 151.9963891927821 174.37747129883383 151.92906812664327 173.77253836451422 Q 151.86174706050446 173.1676054301946 151.49926684595496 172.32948613034742 Q 151.1367866314055 171.49136683050023 150.55807351081862 170.52869381817874 Q 149.97936039023173 169.56602080585725 149.29533295633018 168.62453781272885 L 149.29533295633018 168.62453781272885 Q 148.60652211379994 167.6764710224457 147.8697978614992 166.8285998172126 Q 147.13307360919848 165.98072861197946 146.44798733406654 165.3769963349377 Q 145.7629010589346 164.77326405789594 145.20837900334473 164.52230336209882 Q 144.65385694775483 164.2713426663017 144.3312508871724 164.50572968910714 L 144.3312508871724 164.50572968910714 Q 144.11398558106583 164.66358217385365 143.89533452955285 164.5910810816678 Q 143.6766834780399 164.51857998948194 143.5427480364368 164.3342336691491 L 143.5427480364368 164.3342336691491 Q 143.4088125948337 164.1498873488163 143.40354363506162 163.90726637183747 Q 143.39827467528957 163.66464539485864 143.61553998139613 163.50679291011213 Z" fill-opacity="1"/></g></g><g><g><path fill="rgb(0,0,0)" stroke="none" paint-order="stroke fill markers" d=" M 136.7911770502818 167.68951674539522 L 136.7911770502818 167.68951674539522 Q 137.03046102894564 167.5675954686097 137.24062032983048 167.68428505680072 Q 137.4507796307153 167.80097464499175 137.55422798677574 168.00400347537322 L 137.55422798677574 168.00400347537322 Q 137.65767634283617 168.20703230575467 137.62663530366785 168.432919334174 Q 137.5955942644995 168.6588063625933 137.35631028583566 168.78072763937882 L 137.35631028583566 168.78072763937882 Q 137.00100983266807 168.9617622624846 136.97286970480434 169.56977880352144 Q 136.94472957694057 170.1777953445583 137.17163631423603 171.06230040349584 Q 137.39854305153148 171.94680546243336 137.81591050076514 172.99000434201218 Q 138.2332779499988 174.033203221591 138.7652980668811 175.07735149212425 L 138.7652980668811 175.07735149212425 Q 139.29362359961834 176.114248733001 139.89226679026405 177.06508300895445 Q 140.49090998090972 178.01591728490786 141.07311717137276 178.7193877207396 Q 141.65532436183577 179.42285815657138 142.1637604285516 179.75747547087707 Q 142.6721964952674 180.09209278518273 143.02749694843496 179.91105816207696 L 143.02749694843496 179.91105816207696 Q 143.26678092709884 179.7891368852914 143.46777283693788 179.89679722107022 Q 143.66876474677696 180.00445755684905 143.77221310283738 180.2074863872305 L 143.77221310283738 180.2074863872305 Q 143.87566145889784 180.41051521761196 143.8465367811188 180.6491260825885 Q 143.81741210333973 180.88773694756506 143.57812812467589 181.00965822435057 L 143.57812812467589 181.00965822435057 Q 142.54123088379913 181.53798375708783 141.48081866207266 181.36587665532653 Q 140.42040644034623 181.1937695535652 139.421592811739 180.50620014286233 Q 138.42277918313178 179.81863073215948 137.5558303157159 178.76246689771716 Q 136.68888144829998 177.70630306327487 136.05341297535725 176.45912596236016 L 136.05341297535725 176.45912596236016 Q 135.41424991826952 175.204697831789 135.06937518612023 173.88252393890556 Q 134.72450045397093 172.56035004602214 134.755333036584 171.348149686727 Q 134.78616561919705 170.1359493274319 135.27022271430104 169.17689580278218 Q 135.754279809405 168.2178422781325 136.7911770502818 167.68951674539522 Z" fill-opacity="1"/></g></g><g><g><path fill="rgb(0,0,0)" stroke="none" paint-order="stroke fill markers" d=" M 121.85616524356351 173.87649229926035 L 121.85616524356351 173.87649229926035 Q 122.95520516311032 173.51939258245338 123.9795083272121 173.8540083854555 Q 125.00381149131388 174.18862418845765 125.88276851377543 175.0239773544248 Q 126.76172553623697 175.85933052039195 127.44891054116836 177.03936930108935 Q 128.13609554609974 178.21940808178672 128.57115365178714 179.55837925137544 L 128.57115365178714 179.55837925137544 Q 129.00369697073643 180.88961070322088 129.14136201589443 182.24819934232175 Q 129.2790270610524 183.60678798142263 129.05894416396714 184.79924086419678 Q 128.83886126688188 185.9916937469709 128.20686483392018 186.8644739119216 Q 127.57486840095845 187.7372540768723 126.47582848141164 188.0943537936793 L 126.47582848141164 188.0943537936793 Q 126.22041779588315 188.17734175603584 126.02723031916437 188.03047004587262 Q 125.8340428424456 187.8835983357094 125.76362881377943 187.66688623889735 L 125.76362881377943 187.66688623889735 Q 125.69321478511327 187.4501741420853 125.76308003290173 187.2306666528114 Q 125.83294528069018 187.0111591635375 126.08835596621867 186.92817120118096 L 126.08835596621867 186.92817120118096 Q 126.46760213563975 186.80494665101517 126.59051055416636 186.20881788839262 Q 126.71341897269296 185.6126891257701 126.62767290958404 184.70357775779723 Q 126.54192684647509 183.79446638982435 126.28902028290891 182.7000777592654 Q 126.03611371934272 181.60568912870647 125.67649921579765 180.49890949141638 L 125.67649921579765 180.49890949141638 Q 125.31436992551451 179.384390136383 124.87571013610942 178.35035638753791 Q 124.43705034670434 177.3163226386928 123.97205811417432 176.53043582088574 Q 123.50706588164431 175.74454900307867 123.05723518716765 175.33451445907386 Q 122.60740449269099 174.92447991506904 122.22815832326991 175.04770446523483 L 122.22815832326991 175.04770446523483 Q 121.97274763774142 175.13069242759138 121.7872022000014 174.99417290067404 Q 121.60165676226137 174.85765337375673 121.5312427335952 174.64094127694466 L 121.5312427335952 174.64094127694466 Q 121.46082870492904 174.4242291801326 121.53079163148203 174.19185472087477 Q 121.60075455803502 173.9594802616169 121.85616524356351 173.87649229926035 Z" fill-opacity="1"/></g></g><g><g><path fill="rgb(0,0,0)" stroke="none" paint-order="stroke fill markers" d=" M 114.07327766048448 175.74565493717267 L 114.07327766048448 175.74565493717267 Q 114.3385259941404 175.70364372829957 114.5023403008893 175.87956491703181 Q 114.6661546076382 176.05548610576403 114.70180048183357 176.28054529795693 L 114.70180048183357 176.28054529795693 Q 114.73744635602894 176.50560449014984 114.6381216428649 176.7108436118485 Q 114.53879692970087 176.91608273354717 114.27354859604495 176.95809394242028 L 114.27354859604495 176.95809394242028 Q 113.87969500970736 177.02047422226218 113.6650447136917 177.5900365378967 Q 113.45039441767604 178.15959885353126 113.39286845394983 179.0709311914923 Q 113.33534249022362 179.98226352945335 113.40991634020403 181.10337825638072 Q 113.48449019018445 182.22449298330807 113.66781182890347 183.381940257443 L 113.66781182890347 183.381940257443 Q 113.84986040068694 184.53134970328531 114.12537995798243 185.62063775682395 Q 114.40089951527794 186.70992581036262 114.73722713788932 187.55887786848177 Q 115.0735547605007 188.40782992660093 115.45370375813769 188.88318528900487 Q 115.8338527557747 189.3585406514088 116.22770634211228 189.2961603715669 L 116.22770634211228 189.2961603715669 Q 116.4929546757682 189.2541491626938 116.65084046796748 189.4186501424549 Q 116.80872626016676 189.583151122216 116.84437213436213 189.8082103144089 L 116.84437213436213 189.8082103144089 Q 116.8800180085575 190.0332695066018 116.77858398165048 190.25120190420716 Q 116.67714995474346 190.4691343018125 116.41190162108754 190.5111455106856 L 116.41190162108754 190.5111455106856 Q 115.26249217524521 190.69319408246906 114.30716424111013 190.20182510428194 Q 113.35183630697503 189.71045612609478 112.61437872964329 188.74788837218767 Q 111.87692115231154 187.78532061828056 111.37877635634781 186.5129471879733 Q 110.88063156038409 185.24057375766606 110.6616640474697 183.85806729133824 L 110.6616640474697 183.85806729133824 Q 110.44142346761977 182.4675229967178 110.5220023087235 181.10348874705105 Q 110.60258114982723 179.7394544973843 111.00649519004521 178.59611123862925 Q 111.41040923026318 177.4527679798742 112.16713872245266 176.6902357444152 Q 112.92386821464216 175.92770350895614 114.07327766048448 175.74565493717267 Z" fill-opacity="1"/></g></g><g><g><path fill="rgb(0,0,0)" stroke="none" paint-order="stroke fill markers" d=" M 97.95735677083334 177.0146458943685 L 97.95735677083334 177.0146458943685 Q 99.11295572916669 177.0146458943685 99.98372395833334 177.6494115193685 Q 100.85449218750001 178.2841771443685 101.43229166666669 179.35025787353516 Q 102.01009114583334 180.4163386027018 102.29899088541669 181.7509740193685 Q 102.58789062500001 183.08560943603516 102.58789062500001 184.4934870402018 L 102.58789062500001 184.4934870402018 Q 102.58789062500001 185.89322662353516 102.29899088541669 187.2278620402018 Q 102.01009114583334 188.5624974568685 101.43229166666669 189.62857818603516 Q 100.85449218750001 190.6946589152018 99.98372395833334 191.3294245402018 Q 99.11295572916669 191.9641901652018 97.95735677083334 191.9641901652018 L 97.95735677083334 191.9641901652018 Q 97.68880208333334 191.9641901652018 97.55045572916669 191.76480865478516 Q 97.41210937500001 191.5654271443685 97.41210937500001 191.33756256103516 L 97.41210937500001 191.33756256103516 Q 97.41210937500001 191.1096979777018 97.54638671875001 190.92252349853516 Q 97.68066406250001 190.7353490193685 97.94921875000001 190.7353490193685 L 97.94921875000001 190.7353490193685 Q 98.34798177083334 190.7353490193685 98.64908854166669 190.2063776652018 Q 98.95019531250001 189.67740631103516 99.14957682291669 188.78629302978516 Q 99.34895833333334 187.89517974853516 99.44661458333334 186.7762018839518 Q 99.54427083333334 185.6572240193685 99.54427083333334 184.4934870402018 L 99.54427083333334 184.4934870402018 Q 99.54427083333334 183.3216120402018 99.44661458333334 182.2026341756185 Q 99.34895833333334 181.08365631103516 99.14957682291669 180.19254302978516 Q 98.95019531250001 179.30142974853516 98.64908854166669 178.7724583943685 Q 98.34798177083334 178.2434870402018 97.94921875000001 178.2434870402018 L 97.94921875000001 178.2434870402018 Q 97.68066406250001 178.2434870402018 97.54638671875001 178.05631256103516 Q 97.41210937500001 177.8691380818685 97.41210937500001 177.64127349853516 L 97.41210937500001 177.64127349853516 Q 97.41210937500001 177.4134089152018 97.55045572916669 177.21402740478516 Q 97.68880208333334 177.0146458943685 97.95735677083334 177.0146458943685 Z" fill-opacity="1"/></g></g><g><g><path fill="rgb(0,0,0)" stroke="none" paint-order="stroke fill markers" d=" M 89.97778779898778 176.38728067268926 L 89.97778779898778 176.38728067268926 Q 90.2430361326437 176.42929188156236 90.34447015955071 176.64722427916772 Q 90.44590418645774 176.86515667677304 90.41025831226237 177.09021586896594 L 90.41025831226237 177.09021586896594 Q 90.374612438067 177.31527506115884 90.21672664586772 177.47977604091994 Q 90.05884085366844 177.64427702068107 89.79359252001252 177.60226581180794 L 89.79359252001252 177.60226581180794 Q 89.39973893367494 177.53988553196606 89.01958993603793 178.01524089437 Q 88.63944093840094 178.49059625677393 88.30311331578956 179.33954831489308 Q 87.96678569317818 180.18850037301223 87.69126613588269 181.2777884265509 Q 87.41574657858718 182.36707648008954 87.23242493986815 183.52452375422445 L 87.23242493986815 183.52452375422445 Q 87.05037636808468 184.67393320006678 86.97580251810427 185.79504792699416 Q 86.90122866812388 186.9161626539215 86.95875463185007 187.82749499188256 Q 87.01628059557628 188.7388273298436 87.23093089159194 189.30838964547814 Q 87.4455811876076 189.87795196111267 87.83943477394519 189.94033224095458 L 87.83943477394519 189.94033224095458 Q 88.1046831076011 189.98234344982768 88.20400782076514 190.18758257152635 Q 88.30333253392918 190.39282169322502 88.26768665973381 190.61788088541792 L 88.26768665973381 190.61788088541792 Q 88.23204078553846 190.84294007761082 88.06822647878954 191.01886126634304 Q 87.90441217204064 191.19478245507528 87.63916383838472 191.15277124620218 L 87.63916383838472 191.15277124620218 Q 86.4897543925424 190.9707226744187 85.73302490035292 190.20819043895966 Q 84.97629540816342 189.44565820350064 84.57238136794545 188.3023149447456 Q 84.16846732772748 187.15897168599056 84.08788848662374 185.7949374363238 Q 84.00730964552001 184.43090318665705 84.22627715843439 183.04839672032924 L 84.22627715843439 183.04839672032924 Q 84.44651773828433 181.6578524257088 84.94466253424805 180.38547899540154 Q 85.44280733021178 179.11310556509432 86.18026490754353 178.15053781118718 Q 86.91772248487527 177.18797005728007 87.87305041901037 176.69660107909291 Q 88.82837835314545 176.2052321009058 89.97778779898778 176.38728067268926 Z" fill-opacity="1"/></g></g><g><g><path fill="rgb(0,0,0)" stroke="none" paint-order="stroke fill markers" d=" M 74.25849644930624 172.61406935674555 L 74.25849644930624 172.61406935674555 Q 75.35753636885305 172.97116907355255 75.98953280181476 173.84394923850323 Q 76.62152923477647 174.7167294034539 76.84161213186175 175.90918228622806 Q 77.06169502894701 177.1016351690022 76.92402998378903 178.46022380810308 Q 76.78636493863104 179.81881244720395 76.35130683294366 181.15778361679267 L 76.35130683294366 181.15778361679267 Q 75.91876351399435 182.4890150686381 75.23157850906296 183.66905384933548 Q 74.54439350413156 184.84909263003289 73.66543648167003 185.68444579600003 Q 72.7864794592085 186.51979896196718 71.7621762951067 186.85441476496933 Q 70.73787313100492 187.18903056797146 69.6388332114581 186.8319308511645 L 69.6388332114581 186.8319308511645 Q 69.38342252592963 186.74894288880793 69.31345959937664 186.51656842955006 Q 69.24349667282365 186.2841939702922 69.31391070148982 186.06748187348015 L 69.31391070148982 186.06748187348015 Q 69.38432473015598 185.8507697766681 69.569870167896 185.7142502497508 Q 69.75541560563602 185.57773072283345 70.0108262911645 185.66071868519 L 70.0108262911645 185.66071868519 Q 70.39007246058559 185.7839432353558 70.83990315506225 185.37390869135098 Q 71.28973384953892 184.96387414734616 71.75472608206893 184.1779873295391 Q 72.21971831459894 183.392100511732 72.65837810400403 182.35806676288692 Q 73.09703789340911 181.32403301404185 73.45665239695417 180.21725337675173 L 73.45665239695417 180.21725337675173 Q 73.81878168723732 179.10273402171836 74.0716882508035 178.00834539115942 Q 74.3245948143697 176.91395676060046 74.41034087747863 176.0048453926276 Q 74.49608694058756 175.09573402465475 74.37317852206095 174.4996052620322 Q 74.25027010353435 173.90347649940966 73.87102393411327 173.78025194924388 L 73.87102393411327 173.78025194924388 Q 73.61561324858478 173.69726398688732 73.54574800079632 173.47775649761343 Q 73.47588275300787 173.25824900833953 73.54629678167403 173.0415369115275 L 73.54629678167403 173.0415369115275 Q 73.6167108103402 172.82482481471544 73.80989828705897 172.67795310455222 Q 74.00308576377776 172.531081394389 74.25849644930624 172.61406935674555 Z" fill-opacity="1"/></g></g><g><g><path fill="rgb(0,0,0)" stroke="none" paint-order="stroke fill markers" d=" M 66.8633418965846 169.55158715448323 L 66.8633418965846 169.55158715448323 Q 67.10262587524848 169.67350843126874 67.13175055302752 169.9121192962453 Q 67.16087523080657 170.15073016122182 67.05742687474613 170.35375899160329 L 67.05742687474613 170.35375899160329 Q 66.95397851868567 170.55678782198476 66.75298660884663 170.66444815776356 Q 66.55199469900757 170.77210849354236 66.31271072034369 170.65018721675685 L 66.31271072034369 170.65018721675685 Q 65.95741026717613 170.46915259365107 65.44897420046031 170.80376990795673 Q 64.94053813374448 171.1383872222624 64.35833094328147 171.84185765809417 Q 63.77612375281846 172.54532809392595 63.17748056217277 173.49616236987936 Q 62.57883737152708 174.44699664583277 62.0468172546448 175.491144916366 L 62.0468172546448 175.491144916366 Q 61.51849172190753 176.5280421572428 61.101124272673864 177.57124103682162 Q 60.6837568234402 178.6144399164004 60.45685008614474 179.49894497533796 Q 60.22994334884929 180.3834500342755 60.258083476713054 180.99146657531236 Q 60.28622360457681 181.59948311634918 60.64152405774438 181.78051773945498 L 60.64152405774438 181.78051773945498 Q 60.88080803640825 181.9024390162405 60.911849075576576 182.1283260446598 Q 60.942890114744905 182.3542130730791 60.83944175868446 182.55724190346058 L 60.83944175868446 182.55724190346058 Q 60.73599340262402 182.76027073384205 60.52583410173919 182.87696032203306 Q 60.31567480085437 182.9936499102241 60.076390822190504 182.87172863343855 L 60.076390822190504 182.87172863343855 Q 59.039493581313735 182.3434031007013 58.555436486209764 181.3843495760516 Q 58.071379391105786 180.42529605140192 58.04054680849272 179.21309569210678 Q 58.009714225879655 178.00089533281167 58.35458895802894 176.67872143992824 Q 58.699463690178234 175.3565475470448 59.33493216312095 174.1093704461301 L 59.33493216312095 174.1093704461301 Q 59.974095220208696 172.8549423155589 60.8410440876246 171.7987784811166 Q 61.70799295504052 170.74261464667433 62.70680658364773 170.05504523597145 Q 63.70562021225495 169.3674758252686 64.7660324339814 169.19536872350727 Q 65.82644465570785 169.02326162174595 66.8633418965846 169.55158715448323 Z" fill-opacity="1"/></g></g><g><g><path fill="rgb(0,0,0)" stroke="none" paint-order="stroke fill markers" d=" M 53.07939384692239 161.10552177851366 L 53.07939384692239 161.10552177851366 Q 54.01429304289604 161.78476580378654 54.34565346541644 162.81012670512558 Q 54.67701388793684 163.8354876064646 54.517836955566295 165.03758704637252 Q 54.358660023195746 166.23968648628042 53.80790580708528 167.48924022597666 Q 53.2571515909748 168.7387939656729 52.42962189821278 169.87779087344362 L 52.42962189821278 169.87779087344362 Q 51.606875614079435 171.0102039840596 50.58867179998213 171.9201357111194 Q 49.57046798588483 172.8300674381792 48.476391857540634 173.35292285281423 Q 47.382315729196435 173.87577826744928 46.30474356060161 173.8774897222503 Q 45.22717139200678 173.87920117705133 44.292272196033124 173.19995715177845 L 44.292272196033124 173.19995715177845 Q 44.07500688992657 173.04210466703194 44.08027584969864 172.7994836900531 Q 44.085544809470704 172.55686271307428 44.219480251073804 172.37251639274146 L 44.219480251073804 172.37251639274146 Q 44.35341569267691 172.18817007240864 44.57206674418988 172.11566898022278 Q 44.79071779570285 172.04316788803692 45.0079831018094 172.20102037278343 L 45.0079831018094 172.20102037278343 Q 45.33058916239186 172.43540739558887 45.88511121798173 172.18444669979175 Q 46.43963327357161 171.93348600399463 47.12471954870354 171.32975372695287 Q 47.809805823835475 170.72602144991112 48.54653007613621 169.87815024467798 Q 49.283254328436946 169.03027903944488 49.96728176233851 168.08879604631647 L 49.96728176233851 168.08879604631647 Q 50.656092604868746 167.14072925603332 51.23480572545563 166.17805624371184 Q 51.813518846042506 165.21538323139035 52.175999060591984 164.37726393154315 Q 52.538479275141455 163.53914463169596 52.60580034128027 162.93421169737636 Q 52.67312140741909 162.32927876305675 52.35051534683663 162.0948917402513 L 52.35051534683663 162.0948917402513 Q 52.133250040730076 161.9370392555048 52.13463578613649 161.70668567857246 Q 52.13602153154291 161.47633210164008 52.26995697314601 161.29198578130723 L 52.26995697314601 161.29198578130723 Q 52.40389241474911 161.1076394609744 52.63301047778248 161.02765437737077 Q 52.86212854081584 160.94766929376715 53.07939384692239 161.10552177851366 Z" fill-opacity="1"/></g></g><g><g><path fill="rgb(0,0,0)" stroke="none" paint-order="stroke fill markers" d=" M 46.99254296601657 155.9076996911939 L 46.99254296601657 155.9076996911939 Q 47.182439806667254 156.09759653184457 47.136404208933754 156.33352897022877 Q 47.09036861120026 156.56946140861294 46.92924401913301 156.73058600068018 L 46.92924401913301 156.73058600068018 Q 46.76811942706576 156.89171059274744 46.543695888114954 156.93199174076426 Q 46.319272349164144 156.97227288878105 46.12937550851346 156.78237604813037 L 46.12937550851346 156.78237604813037 Q 45.84740747239578 156.50040801201268 45.26045360129366 156.66153260407995 Q 44.67349973019155 156.8226571961472 43.90240346815544 157.3117854220656 Q 43.13130720611933 157.80091364798403 42.26813974861622 158.52021986256997 Q 41.40497229111311 159.2395260771559 40.57633153191012 160.06816683635887 L 40.57633153191012 160.06816683635887 Q 39.75344522242383 160.89105314584518 39.0341390078379 161.7542206033483 Q 38.31483279325197 162.6173880608514 37.825704567333545 163.3884843228875 Q 37.33657634141512 164.15958058492362 37.17545174934787 164.74653445602573 Q 37.014327157280626 165.33348832712784 37.29629519339831 165.61545636324553 L 37.29629519339831 165.61545636324553 Q 37.48619203404899 165.80535320389623 37.44591088603218 166.02977674284702 Q 37.405629738015364 166.25420028179784 37.24450514594812 166.41532487386507 L 37.24450514594812 166.41532487386507 Q 37.08338055388087 166.57644946593234 36.84744811549669 166.62248506366583 Q 36.61151567711251 166.66852066139933 36.421618836461825 166.47862382074865 L 36.421618836461825 166.47862382074865 Q 35.598732526975525 165.65573751126234 35.434730710049934 164.59404153853353 Q 35.27072889312434 163.5323455658047 35.61599587612559 162.36994672303385 Q 35.96126285912683 161.20754788026298 36.69783242286282 160.05665793692552 Q 37.4344019865988 158.90576799358803 38.42416733786904 157.9160026423178 L 38.42416733786904 157.9160026423178 Q 39.419687138855956 156.92048284133088 40.57057708219344 156.18391327759488 Q 41.72146702553091 155.4473437138589 42.88386586830177 155.10207673085765 Q 44.046264711072624 154.7568097478564 45.10796068380145 154.920811564782 Q 46.16965665653027 155.0848133817076 46.99254296601657 155.9076996911939 Z" fill-opacity="1"/></g></g><g><g><path fill="rgb(0,0,0)" stroke="none" paint-order="stroke fill markers" d=" M 36.49320708988789 143.61553998139613 L 36.49320708988789 143.61553998139613 Q 37.17245111516076 144.55043917736978 37.17073966035973 145.6280113459646 Q 37.169028205558696 146.7055835145594 36.646172790923664 147.79965964290363 Q 36.12331737628863 148.89373577124783 35.21338564922883 149.91193958534512 Q 34.30345392216903 150.93014339944241 33.16445701439831 151.75767309220444 L 33.16445701439831 151.75767309220444 Q 32.03204390378233 152.5804193763378 30.78249016408609 153.13117359244828 Q 29.53293642438985 153.68192780855873 28.33083698448194 153.8411047409293 Q 27.128737544574037 154.00028167329984 26.103376643235002 153.66892125077945 Q 25.078015741895967 153.33756082825903 24.398771716623088 152.40266163228537 L 24.398771716623088 152.40266163228537 Q 24.240919231876575 152.18539632617882 24.320904315480206 151.95627826314546 Q 24.400889399083837 151.7271602001121 24.58523571941667 151.593224758509 L 24.58523571941667 151.593224758509 Q 24.7695820397495 151.4592893169059 24.999935616681874 151.4579035714995 Q 25.23028919361424 151.45651782609306 25.388141678360757 151.67378313219962 L 25.388141678360757 151.67378313219962 Q 25.622528701166186 151.9963891927821 26.227461635485792 151.92906812664327 Q 26.832394569805395 151.86174706050446 27.67051386965258 151.49926684595496 Q 28.50863316949977 151.1367866314055 29.471306181821262 150.55807351081862 Q 30.433979194142754 149.97936039023173 31.375462187271154 149.29533295633018 L 31.375462187271154 149.29533295633018 Q 32.32352897755429 148.60652211379994 33.17140018278741 147.8697978614992 Q 34.01927138802053 147.13307360919848 34.623003665062285 146.44798733406654 Q 35.22673594210404 145.7629010589346 35.47769663790116 145.20837900334473 Q 35.72865733369829 144.65385694775483 35.49427031089285 144.3312508871724 L 35.49427031089285 144.3312508871724 Q 35.33641782614634 144.11398558106583 35.4089189183322 143.89533452955285 Q 35.48142001051805 143.6766834780399 35.665766330850886 143.5427480364368 L 35.665766330850886 143.5427480364368 Q 35.85011265118372 143.4088125948337 36.09273362816255 143.40354363506162 Q 36.335354605141376 143.39827467528957 36.49320708988789 143.61553998139613 Z" fill-opacity="1"/></g></g><g><g><path fill="rgb(0,0,0)" stroke="none" paint-order="stroke fill markers" d=" M 32.310483254604776 136.7911770502818 L 32.310483254604776 136.7911770502818 Q 32.432404531390304 137.03046102894564 32.31571494319928 137.24062032983048 Q 32.19902535500826 137.4507796307153 31.9959965246268 137.55422798677574 L 31.9959965246268 137.55422798677574 Q 31.792967694245334 137.65767634283617 31.567080665826023 137.62663530366785 Q 31.341193637406707 137.5955942644995 31.219272360621186 137.35631028583566 L 31.219272360621186 137.35631028583566 Q 31.03823773751541 137.00100983266807 30.430221196478566 136.97286970480434 Q 29.822204655441727 136.94472957694057 28.937699596504185 137.17163631423603 Q 28.05319453756664 137.39854305153148 27.009995657987826 137.81591050076514 Q 25.96679677840901 138.2332779499988 24.922648507875763 138.7652980668811 L 24.922648507875763 138.7652980668811 Q 23.885751266999 139.29362359961834 22.934916991045583 139.89226679026405 Q 21.984082715092164 140.49090998090972 21.280612279260396 141.07311717137276 Q 20.57714184342863 141.65532436183577 20.24252452912296 142.1637604285516 Q 19.907907214817293 142.6721964952674 20.088941837923066 143.02749694843496 L 20.088941837923066 143.02749694843496 Q 20.21086311470859 143.26678092709884 20.103202778929784 143.4677728369379 Q 19.995542443150978 143.66876474677696 19.792513612769515 143.77221310283738 L 19.792513612769515 143.77221310283738 Q 19.589484782388052 143.87566145889784 19.35087391741151 143.8465367811188 Q 19.112263052434965 143.81741210333976 18.99034177564944 143.57812812467589 L 18.99034177564944 143.57812812467589 Q 18.462016242912178 142.54123088379913 18.634123344673498 141.48081866207266 Q 18.806230446434817 140.42040644034623 19.493799857137684 139.421592811739 Q 20.18136926784055 138.42277918313178 21.23753310228284 137.5558303157159 Q 22.293696936725134 136.68888144829998 23.54087403763984 136.05341297535725 L 23.54087403763984 136.05341297535725 Q 24.79530216821103 135.41424991826952 26.117476061094457 135.06937518612023 Q 27.43964995397789 134.72450045397093 28.65185031327301 134.755333036584 Q 29.864050672568126 134.78616561919705 30.82310419721782 135.27022271430104 Q 31.782157721867513 135.754279809405 32.310483254604776 136.7911770502818 Z" fill-opacity="1"/></g></g><g><g><path fill="rgb(0,0,0)" stroke="none" paint-order="stroke fill markers" d=" M 26.12350770073964 121.85616524356351 L 26.12350770073964 121.85616524356351 Q 26.480607417546626 122.95520516311032 26.14599161454449 123.9795083272121 Q 25.81137581154235 125.00381149131388 24.9760226455752 125.88276851377543 Q 24.140669479608047 126.76172553623697 22.960630698910663 127.44891054116836 Q 21.780591918213275 128.13609554609974 20.44162074862456 128.57115365178714 L 20.44162074862456 128.57115365178714 Q 19.11038929677913 129.00369697073646 17.751800657678253 129.14136201589443 Q 16.393212018577373 129.2790270610524 15.200759135803235 129.05894416396714 Q 14.008306253029094 128.83886126688188 13.135526088078398 128.20686483392018 Q 12.262745923127703 127.57486840095845 11.905646206320716 126.47582848141164 L 11.905646206320716 126.47582848141164 Q 11.822658243964163 126.22041779588317 11.969529954127388 126.02723031916437 Q 12.116401664290617 125.8340428424456 12.33311376110266 125.76362881377943 L 12.33311376110266 125.76362881377943 Q 12.549825857914708 125.69321478511327 12.769333347188596 125.76308003290173 Q 12.988840836462481 125.83294528069018 13.071828798819034 126.08835596621867 L 13.071828798819034 126.08835596621867 Q 13.195053348984825 126.46760213563975 13.79118211160737 126.59051055416636 Q 14.387310874229911 126.71341897269296 15.296422242202777 126.62767290958404 Q 16.205533610175642 126.54192684647509 17.29992224073458 126.28902028290891 Q 18.394310871293527 126.03611371934272 19.501090508583623 125.67649921579765 L 19.501090508583623 125.67649921579765 Q 20.615609863617006 125.31436992551451 21.649643612462093 124.87571013610942 Q 22.68367736130718 124.43705034670434 23.46956417911425 123.97205811417432 Q 24.255450996921326 123.50706588164431 24.66548554092614 123.05723518716765 Q 25.075520084930957 122.60740449269099 24.952295534765167 122.22815832326991 L 24.952295534765167 122.22815832326991 Q 24.869307572408616 121.97274763774142 25.00582709932595 121.7872022000014 Q 25.14234662624328 121.60165676226137 25.359058723055327 121.5312427335952 L 25.359058723055327 121.5312427335952 Q 25.575770819867373 121.46082870492904 25.80814527912523 121.53079163148203 Q 26.040519738383086 121.60075455803502 26.12350770073964 121.85616524356351 Z" fill-opacity="1"/></g></g><g><g><path fill="rgb(0,0,0)" stroke="none" paint-order="stroke fill markers" d=" M 24.254345062827333 114.07327766048448 L 24.254345062827333 114.07327766048448 Q 24.296356271700443 114.3385259941404 24.120435082968207 114.5023403008893 Q 23.944513894235975 114.6661546076382 23.71945470204307 114.70180048183357 L 23.71945470204307 114.70180048183357 Q 23.49439550985017 114.73744635602894 23.289156388151504 114.6381216428649 Q 23.08391726645284 114.53879692970087 23.04190605757973 114.27354859604495 L 23.04190605757973 114.27354859604495 Q 22.97952577773784 113.87969500970736 22.4099634621033 113.6650447136917 Q 21.840401146468757 113.45039441767604 20.92906880850771 113.39286845394983 Q 20.017736470546666 113.33534249022362 18.896621743619306 113.40991634020403 Q 17.775507016691943 113.48449019018445 16.618059742557016 113.66781182890347 L 16.618059742557016 113.66781182890347 Q 15.468650296714692 113.84986040068694 14.379362243176049 114.12537995798245 Q 13.290074189637405 114.40089951527794 12.441122131518249 114.73722713788932 Q 11.592170073399092 115.0735547605007 11.116814710995158 115.4537037581377 Q 10.641459348591223 115.8338527557747 10.703839628433112 116.22770634211228 L 10.703839628433112 116.22770634211228 Q 10.745850837306222 116.4929546757682 10.581349857545119 116.65084046796748 Q 10.416848877784012 116.80872626016676 10.191789685591111 116.84437213436213 L 10.191789685591111 116.84437213436213 Q 9.96673049339821 116.8800180085575 9.748798095792862 116.77858398165048 Q 9.530865698187519 116.67714995474347 9.488854489314411 116.41190162108754 L 9.488854489314411 116.41190162108754 Q 9.306805917530939 115.26249217524521 9.798174895718082 114.30716424111013 Q 10.289543873905226 113.35183630697503 11.252111627812345 112.61437872964329 Q 12.21467938171946 111.87692115231154 13.487052812026706 111.37877635634781 Q 14.759426242333952 110.88063156038409 16.14193270866178 110.6616640474697 L 16.14193270866178 110.6616640474697 Q 17.532477003282214 110.44142346761977 18.89651125294897 110.5220023087235 Q 20.260545502615724 110.60258114982723 21.403888761370766 111.00649519004521 Q 22.547232020125808 111.41040923026318 23.309764255584835 112.16713872245266 Q 24.07229649104386 112.92386821464216 24.254345062827333 114.07327766048448 Z" fill-opacity="1"/></g></g><g><g><path fill="rgb(0,0,0)" stroke="none" paint-order="stroke fill markers" d=" M 22.98535410563151 97.95735677083334 L 22.98535410563151 97.95735677083334 Q 22.98535410563151 99.11295572916669 22.35058848063151 99.98372395833334 Q 21.71582285563151 100.85449218750001 20.649742126464844 101.43229166666669 Q 19.583661397298176 102.01009114583334 18.24902598063151 102.29899088541669 Q 16.914390563964844 102.58789062500001 15.506512959798178 102.58789062500001 L 15.506512959798178 102.58789062500001 Q 14.106773376464844 102.58789062500001 12.772137959798176 102.29899088541669 Q 11.43750254313151 102.01009114583334 10.371421813964844 101.43229166666669 Q 9.305341084798176 100.85449218750001 8.670575459798176 99.98372395833336 Q 8.035809834798176 99.11295572916669 8.035809834798176 97.95735677083334 L 8.035809834798176 97.95735677083334 Q 8.035809834798176 97.68880208333334 8.235191345214842 97.55045572916669 Q 8.43457285563151 97.41210937500001 8.662437438964842 97.41210937500001 L 8.662437438964842 97.41210937500001 Q 8.890302022298176 97.41210937500001 9.077476501464844 97.54638671875001 Q 9.26465098063151 97.68066406250001 9.26465098063151 97.94921875000001 L 9.26465098063151 97.94921875000001 Q 9.26465098063151 98.34798177083334 9.793622334798176 98.64908854166669 Q 10.322593688964844 98.95019531250001 11.213706970214844 99.14957682291669 Q 12.104820251464844 99.34895833333334 13.223798116048176 99.44661458333334 Q 14.34277598063151 99.54427083333334 15.506512959798176 99.54427083333334 L 15.506512959798176 99.54427083333334 Q 16.678387959798176 99.54427083333334 17.79736582438151 99.44661458333334 Q 18.916343688964844 99.34895833333334 19.807456970214844 99.14957682291669 Q 20.698570251464844 98.95019531250001 21.22754160563151 98.64908854166669 Q 21.756512959798176 98.34798177083334 21.756512959798176 97.94921875000001 L 21.756512959798176 97.94921875000001 Q 21.756512959798176 97.68066406250001 21.943687438964844 97.54638671875001 Q 22.13086191813151 97.41210937500001 22.358726501464844 97.41210937500001 L 22.358726501464844 97.41210937500001 Q 22.586591084798176 97.41210937500001 22.785972595214844 97.55045572916669 Q 22.98535410563151 97.68880208333334 22.98535410563151 97.95735677083334 Z" fill-opacity="1"/></g></g><g><g><path fill="rgb(0,0,0)" stroke="none" paint-order="stroke fill markers" d=" M 23.612719327310764 89.97778779898779 L 23.612719327310764 89.97778779898779 Q 23.570708118437654 90.24303613264371 23.35277572083231 90.34447015955072 Q 23.134843323226967 90.44590418645775 22.909784131034062 90.41025831226239 L 22.909784131034062 90.41025831226239 Q 22.68472493884116 90.37461243806702 22.520223959080056 90.21672664586774 Q 22.35572297931895 90.05884085366846 22.39773418819206 89.79359252001254 L 22.39773418819206 89.79359252001254 Q 22.46011446803395 89.39973893367495 21.984759105630015 89.01958993603795 Q 21.50940374322608 88.63944093840095 20.660451685106928 88.30311331578957 Q 19.811499626987768 87.9667856931782 18.722211573449126 87.6912661358827 Q 17.63292351991048 87.41574657858719 16.475476245775553 87.23242493986817 L 16.475476245775553 87.23242493986817 Q 15.32606679993323 87.0503763680847 14.204952073005867 86.97580251810429 Q 13.083837346078505 86.90122866812389 12.17250500811746 86.95875463185008 Q 11.261172670156416 87.01628059557629 10.691610354521872 87.23093089159195 Q 10.122048038887332 87.44558118760762 10.059667759045443 87.8394347739452 L 10.059667759045443 87.8394347739452 Q 10.017656550172335 88.10468310760112 9.812417428473669 88.20400782076516 Q 9.607178306775005 88.3033325339292 9.382119114582101 88.26768665973383 L 9.382119114582101 88.26768665973383 Q 9.1570599223892 88.23204078553847 8.981138733656964 88.06822647878955 Q 8.80521754492473 87.90441217204065 8.84722875379784 87.63916383838473 L 8.84722875379784 87.63916383838473 Q 9.02927732558131 86.48975439254241 9.791809561040338 85.73302490035293 Q 10.554341796499365 84.97629540816344 11.697685055254407 84.57238136794547 Q 12.841028314009447 84.1684673277275 14.205062563676202 84.08788848662375 Q 15.569096813342957 84.00730964552002 16.95160327967079 84.2262771584344 L 16.95160327967079 84.2262771584344 Q 18.34214757429122 84.44651773828434 19.614521004598465 84.94466253424807 Q 20.886894434905713 85.44280733021179 21.84946218881283 86.18026490754355 Q 22.81202994271995 86.91772248487528 23.303398920907092 87.87305041901038 Q 23.794767899094236 88.82837835314547 23.612719327310764 89.97778779898779 Z" fill-opacity="1"/></g></g><g><g><path fill="rgb(0,0,0)" stroke="none" paint-order="stroke fill markers" d=" M 27.385930643254465 74.25849644930624 L 27.385930643254465 74.25849644930624 Q 27.02883092644748 75.35753636885305 26.156050761496786 75.98953280181476 Q 25.28327059654609 76.62152923477647 24.090817713771948 76.84161213186175 Q 22.89836483099781 77.06169502894701 21.53977619189693 76.92402998378903 Q 20.181187552796054 76.78636493863104 18.842216383207337 76.35130683294366 L 18.842216383207337 76.35130683294366 Q 17.510984931361907 75.91876351399435 16.330946150664523 75.23157850906296 Q 15.150907369967138 74.54439350413156 14.315554203999985 73.66543648167003 Q 13.48020103803283 72.7864794592085 13.145585235030692 71.7621762951067 Q 12.810969432028555 70.73787313100492 13.16806914883554 69.6388332114581 L 13.16806914883554 69.6388332114581 Q 13.251057111192095 69.38342252592963 13.483431570449952 69.31345959937664 Q 13.715806029707808 69.24349667282365 13.932518126519854 69.31391070148982 L 13.932518126519854 69.31391070148982 Q 14.149230223331902 69.38432473015598 14.285749750249234 69.569870167896 Q 14.422269277166569 69.75541560563602 14.339281314810016 70.0108262911645 L 14.339281314810016 70.0108262911645 Q 14.216056764644224 70.39007246058559 14.62609130864904 70.83990315506225 Q 15.036125852653857 71.28973384953892 15.82201267046093 71.75472608206893 Q 16.607899488268004 72.21971831459894 17.64193323711309 72.65837810400403 Q 18.675966985958176 73.09703789340911 19.782746623248272 73.45665239695417 L 19.782746623248272 73.45665239695417 Q 20.897265978281656 73.81878168723732 21.991654608840598 74.0716882508035 Q 23.086043239399544 74.3245948143697 23.995154607372406 74.41034087747863 Q 24.90426597534527 74.49608694058756 25.500394737967813 74.37317852206095 Q 26.096523500590358 74.25027010353435 26.21974805075615 73.87102393411327 L 26.21974805075615 73.87102393411327 Q 26.3027360131127 73.61561324858478 26.522243502386587 73.54574800079632 Q 26.741750991660474 73.47588275300787 26.95846308847252 73.54629678167403 L 26.95846308847252 73.54629678167403 Q 27.17517518528457 73.6167108103402 27.322046895447794 73.80989828705897 Q 27.46891860561102 74.00308576377776 27.385930643254465 74.25849644930624 Z" fill-opacity="1"/></g></g><g><g><path fill="rgb(0,0,0)" stroke="none" paint-order="stroke fill markers" d=" M 30.44841284551678 66.8633418965846 L 30.44841284551678 66.8633418965846 Q 30.326491568731257 67.10262587524848 30.087880703754713 67.13175055302752 Q 29.849269838778174 67.16087523080657 29.646241008396707 67.05742687474613 L 29.646241008396707 67.05742687474613 Q 29.443212178015244 66.95397851868567 29.335551842236438 66.75298660884663 Q 29.22789150645763 66.55199469900757 29.349812783243156 66.31271072034369 L 29.349812783243156 66.31271072034369 Q 29.530847406348933 65.95741026717613 29.196230092043262 65.44897420046031 Q 28.86161277773759 64.94053813374448 28.158142341905826 64.35833094328147 Q 27.45467190607406 63.77612375281846 26.50383763012064 63.17748056217277 Q 25.55300335416722 62.57883737152708 24.508855083633975 62.0468172546448 L 24.508855083633975 62.0468172546448 Q 23.471957842757213 61.51849172190753 22.428758963178396 61.101124272673864 Q 21.38556008359958 60.6837568234402 20.50105502466204 60.45685008614474 Q 19.616549965724495 60.22994334884929 19.008533424687656 60.258083476713054 Q 18.400516883650813 60.28622360457681 18.219482260545036 60.64152405774438 L 18.219482260545036 60.64152405774438 Q 18.097560983759514 60.88080803640825 17.8716739553402 60.911849075576576 Q 17.645786926920884 60.942890114744905 17.44275809653942 60.83944175868446 L 17.44275809653942 60.83944175868446 Q 17.23972926615796 60.73599340262402 17.12303967796694 60.52583410173919 Q 17.00635008977592 60.31567480085437 17.128271366561442 60.076390822190504 L 17.128271366561442 60.076390822190504 Q 17.656596899298705 59.03949358131374 18.615650423948402 58.555436486209764 Q 19.574703948598096 58.071379391105786 20.786904307893213 58.04054680849272 Q 21.99910466718833 58.009714225879655 23.32127856007176 58.35458895802894 Q 24.643452452955195 58.699463690178234 25.8906295538699 59.33493216312095 L 25.8906295538699 59.33493216312095 Q 27.145057684441092 59.974095220208696 28.20122151888338 60.84104408762461 Q 29.25738535332567 61.70799295504052 29.944954764028537 62.70680658364773 Q 30.632524174731405 63.70562021225495 30.804631276492724 64.7660324339814 Q 30.976738378254044 65.82644465570785 30.44841284551678 66.8633418965846 Z" fill-opacity="1"/></g></g><g><g><path fill="rgb(0,0,0)" stroke="none" paint-order="stroke fill markers" d=" M 38.894478221486345 53.0793938469224 L 38.894478221486345 53.0793938469224 Q 38.21523419621347 54.01429304289605 37.18987329487444 54.34565346541645 Q 36.164512393535404 54.677013887936845 34.96241295362749 54.5178369555663 Q 33.76031351371959 54.35866002319575 32.51075977402334 53.807905807085284 Q 31.261206034327103 53.257151590974814 30.122209126556385 52.42962189821279 L 30.122209126556385 52.42962189821279 Q 28.98979601594041 51.60687561407944 28.079864288880607 50.58867179998214 Q 27.1699325618208 49.57046798588484 26.647077147185772 48.47639185754064 Q 26.124221732550744 47.38231572919644 26.122510277749704 46.304743560601615 Q 26.120798822948668 45.22717139200679 26.800042848221544 44.29227219603313 L 26.800042848221544 44.29227219603313 Q 26.95789533296806 44.075006889926584 27.200516309946885 44.08027584969865 Q 27.443137286925715 44.08554480947071 27.627483607258547 44.21948025107382 L 27.627483607258547 44.21948025107382 Q 27.81182992759138 44.35341569267692 27.884331019777235 44.57206674418988 Q 27.95683211196309 44.790717795702854 27.79897962721658 45.00798310180941 L 27.79897962721658 45.00798310180941 Q 27.56459260441115 45.33058916239187 27.81555330020827 45.88511121798174 Q 28.06651399600539 46.439633273571616 28.670246273047148 47.12471954870355 Q 29.273978550088906 47.80980582383548 30.121849755322025 48.546530076136214 Q 30.969720960555144 49.28325432843695 31.91120395368354 49.967281762338516 L 31.91120395368354 49.967281762338516 Q 32.85927074396668 50.65609260486875 33.82194375628817 51.23480572545564 Q 34.784616768609666 51.81351884604251 35.62273606845685 52.17599906059199 Q 36.46085536830404 52.53847927514146 37.065788302623645 52.60580034128028 Q 37.67072123694325 52.673121407419096 37.90510825974868 52.35051534683664 L 37.90510825974868 52.35051534683664 Q 38.06296074449519 52.13325004073008 38.293314321427566 52.1346357861365 Q 38.52366789835993 52.136021531542916 38.70801421869277 52.269956973146016 L 38.70801421869277 52.269956973146016 Q 38.8923605390256 52.403892414749116 38.97234562262923 52.633010477782484 Q 39.05233070623286 52.862128540815846 38.894478221486345 53.0793938469224 Z" fill-opacity="1"/></g></g><g><g><path fill="rgb(0,0,0)" stroke="none" paint-order="stroke fill markers" d=" M 44.0923003088061 46.99254296601658 L 44.0923003088061 46.99254296601658 Q 43.90240346815542 47.18243980666726 43.66647102977124 47.13640420893376 Q 43.43053859138705 47.09036861120027 43.2694139993198 46.929244019133016 L 43.2694139993198 46.929244019133016 Q 43.108289407252556 46.76811942706577 43.06800825923575 46.54369588811496 Q 43.02772711121894 46.31927234916415 43.21762395186962 46.12937550851347 L 43.21762395186962 46.12937550851347 Q 43.4995919879873 45.84740747239579 43.338467395920055 45.26045360129367 Q 43.1773428038528 44.67349973019156 42.688214577934374 43.90240346815545 Q 42.19908635201595 43.13130720611934 41.47978013743002 42.26813974861623 Q 40.7604739228441 41.40497229111312 39.93183316364111 40.57633153191013 L 39.93183316364111 40.57633153191013 Q 39.108946854154816 39.753445222423835 38.245779396651706 39.03413900783791 Q 37.382611939148596 38.31483279325198 36.61151567711248 37.82570456733355 Q 35.84041941507637 37.336576341415125 35.25346554397426 37.17545174934788 Q 34.66651167287214 37.01432715728063 34.38454363675446 37.296295193398315 L 34.38454363675446 37.296295193398315 Q 34.194646796103775 37.486192034049 33.970223257152966 37.44591088603219 Q 33.74579971820216 37.40562973801538 33.58467512613491 37.244505145948125 L 33.58467512613491 37.244505145948125 Q 33.423550534067665 37.08338055388088 33.377514936334165 36.8474481154967 Q 33.331479338600666 36.611515677112514 33.52137617925135 36.42161883646183 L 33.52137617925135 36.42161883646183 Q 34.34426248873765 35.59873252697553 35.40595846146647 35.43473071004994 Q 36.467654434195296 35.27072889312435 37.63005327696615 35.615995876125595 Q 38.79245211973701 35.96126285912683 39.94334206307448 36.697832422862824 Q 41.094232006411964 37.434401986598814 42.0839973576822 38.424167337869044 L 42.0839973576822 38.424167337869044 Q 43.07951715866912 39.41968713885596 43.8160867224051 40.570577082193445 Q 44.552656286141094 41.72146702553092 44.89792326914234 42.883865868301775 Q 45.243190252143584 44.04626471107263 45.07918843521799 45.10796068380146 Q 44.9151866182924 46.16965665653028 44.0923003088061 46.99254296601658 Z" fill-opacity="1"/></g></g><g><g><path fill="rgb(0,0,0)" stroke="none" paint-order="stroke fill markers" d=" M 56.384460018603875 36.49320708988789 L 56.384460018603875 36.49320708988789 Q 55.44956082263022 37.17245111516076 54.37198865403539 37.17073966035973 Q 53.294416485440564 37.169028205558696 52.200340357096366 36.646172790923664 Q 51.10626422875217 36.12331737628863 50.08806041465486 35.21338564922883 Q 49.069856600557564 34.30345392216903 48.24232690779554 33.16445701439831 L 48.24232690779554 33.16445701439831 Q 47.41958062366219 32.03204390378234 46.868826407551715 30.78249016408609 Q 46.318072191441246 29.53293642438985 46.1588952590707 28.33083698448194 Q 45.99971832670015 27.128737544574037 46.33107874922055 26.103376643235002 Q 46.66243917174095 25.078015741895967 47.5973383677146 24.398771716623088 L 47.5973383677146 24.398771716623088 Q 47.81460367382115 24.240919231876575 48.043721736854515 24.320904315480206 Q 48.272839799887876 24.400889399083837 48.40677524149098 24.58523571941667 L 48.40677524149098 24.58523571941667 Q 48.54071068309408 24.7695820397495 48.5420964285005 24.999935616681874 Q 48.543482173906916 25.23028919361424 48.32621686780036 25.388141678360757 L 48.32621686780036 25.388141678360757 Q 48.0036108072179 25.622528701166186 48.07093187335672 26.227461635485792 Q 48.13825293949554 26.832394569805395 48.500733154045015 27.67051386965258 Q 48.86321336859449 28.50863316949977 49.44192648918137 29.471306181821262 Q 50.020639609768246 30.433979194142754 50.70466704366981 31.375462187271154 L 50.70466704366981 31.375462187271154 Q 51.393477886200046 32.32352897755429 52.130202138500785 33.17140018278741 Q 52.866926390801524 34.01927138802053 53.552012665933454 34.623003665062285 Q 54.23709894106539 35.22673594210404 54.79162099665526 35.47769663790116 Q 55.34614305224514 35.72865733369829 55.6687491128276 35.49427031089285 L 55.6687491128276 35.49427031089285 Q 55.88601441893415 35.33641782614634 56.10466547044712 35.4089189183322 Q 56.32331652196009 35.48142001051805 56.45725196356319 35.665766330850886 L 56.45725196356319 35.665766330850886 Q 56.591187405166295 35.85011265118372 56.596456364938355 36.09273362816255 Q 56.60172532471042 36.335354605141376 56.384460018603875 36.49320708988789 Z" fill-opacity="1"/></g></g><g><g><path fill="rgb(0,0,0)" stroke="none" paint-order="stroke fill markers" d=" M 63.208822949718225 32.310483254604776 L 63.208822949718225 32.310483254604776 Q 62.969538971054355 32.432404531390304 62.75937967016954 32.31571494319928 Q 62.54922036928471 32.19902535500826 62.445772013224264 31.9959965246268 L 62.445772013224264 31.9959965246268 Q 62.342323657163824 31.792967694245334 62.37336469633215 31.567080665826023 Q 62.40440573550048 31.341193637406707 62.64368971416435 31.219272360621186 L 62.64368971416435 31.219272360621186 Q 62.99899016733191 31.03823773751541 63.027130295195676 30.430221196478566 Q 63.05527042305943 29.822204655441727 62.82836368576398 28.937699596504185 Q 62.60145694846853 28.05319453756664 62.18408949923486 27.009995657987826 Q 61.76672205000119 25.96679677840901 61.23470193311891 24.922648507875763 L 61.23470193311891 24.922648507875763 Q 60.70637640038164 23.885751266999 60.107733209735954 22.934916991045583 Q 59.509090019090266 21.984082715092164 58.92688282862725 21.280612279260396 Q 58.34467563816423 20.57714184342863 57.83623957144841 20.24252452912296 Q 57.32780350473259 19.907907214817293 56.97250305156503 20.088941837923066 L 56.97250305156503 20.088941837923066 Q 56.733219072901164 20.21086311470859 56.5322271630621 20.103202778929784 Q 56.33123525322304 19.995542443150978 56.2277868971626 19.792513612769515 L 56.2277868971626 19.792513612769515 Q 56.124338541102155 19.589484782388052 56.1534632188812 19.35087391741151 Q 56.18258789666025 19.112263052434965 56.421871875324115 18.99034177564944 L 56.421871875324115 18.99034177564944 Q 57.458769116200884 18.462016242912178 58.51918133792733 18.634123344673498 Q 59.57959355965377 18.806230446434817 60.57840718826099 19.493799857137684 Q 61.577220816868206 20.18136926784055 62.44416968428412 21.23753310228284 Q 63.31111855170003 22.293696936725134 63.94658702464275 23.54087403763984 L 63.94658702464275 23.54087403763984 Q 64.5857500817305 24.79530216821103 64.93062481387977 26.117476061094457 Q 65.27549954602907 27.43964995397789 65.24466696341601 28.65185031327301 Q 65.21383438080294 29.864050672568126 64.72977728569896 30.82310419721782 Q 64.24572019059498 31.782157721867513 63.208822949718225 32.310483254604776 Z" fill-opacity="1"/></g></g><g><g><path fill="rgb(0,0,0)" stroke="none" paint-order="stroke fill markers" d=" M 78.14383475643648 26.12350770073964 L 78.14383475643648 26.12350770073964 Q 77.04479483688966 26.480607417546626 76.02049167278788 26.14599161454449 Q 74.9961885086861 25.81137581154235 74.11723148622455 24.9760226455752 Q 73.23827446376302 24.140669479608047 72.55108945883163 22.960630698910663 Q 71.86390445390023 21.78059191821328 71.42884634821286 20.44162074862456 L 71.42884634821286 20.44162074862456 Q 70.99630302926354 19.11038929677913 70.85863798410556 17.751800657678253 Q 70.72097293894757 16.393212018577373 70.94105583603283 15.200759135803235 Q 71.16113873311811 14.008306253029094 71.79313516607982 13.135526088078398 Q 72.42513159904153 12.262745923127703 73.52417151858835 11.905646206320716 L 73.52417151858835 11.905646206320716 Q 73.77958220411682 11.822658243964163 73.97276968083561 11.969529954127388 Q 74.16595715755439 12.116401664290615 74.23637118622055 12.333113761102659 L 74.23637118622055 12.333113761102659 Q 74.30678521488672 12.549825857914707 74.23691996709826 12.769333347188596 Q 74.1670547193098 12.988840836462481 73.91164403378131 13.071828798819034 L 73.91164403378131 13.071828798819034 Q 73.53239786436023 13.195053348984825 73.40948944583363 13.791182111607368 Q 73.28658102730702 14.387310874229911 73.37232709041595 15.296422242202777 Q 73.4580731535249 16.205533610175642 73.71097971709108 17.29992224073458 Q 73.96388628065726 18.394310871293527 74.32350078420234 19.501090508583623 L 74.32350078420234 19.501090508583623 Q 74.68563007448547 20.615609863617006 75.12428986389057 21.649643612462093 Q 75.56294965329565 22.68367736130718 76.02794188582567 23.46956417911425 Q 76.49293411835568 24.255450996921326 76.94276481283234 24.66548554092614 Q 77.392595507309 25.075520084930957 77.77184167673008 24.952295534765167 L 77.77184167673008 24.952295534765167 Q 78.02725236225857 24.869307572408612 78.21279779999858 25.00582709932595 Q 78.3983432377386 25.14234662624328 78.46875726640478 25.359058723055327 L 78.46875726640478 25.359058723055327 Q 78.53917129507094 25.575770819867373 78.46920836851795 25.80814527912523 Q 78.39924544196496 26.040519738383086 78.14383475643648 26.12350770073964 Z" fill-opacity="1"/></g></g><g><g><path fill="rgb(0,0,0)" stroke="none" paint-order="stroke fill markers" d=" M 85.9267223395155 24.254345062827333 L 85.9267223395155 24.254345062827333 Q 85.66147400585959 24.296356271700443 85.49765969911068 24.120435082968207 Q 85.33384539236178 23.944513894235975 85.29819951816641 23.71945470204307 L 85.29819951816641 23.71945470204307 Q 85.26255364397105 23.49439550985017 85.36187835713508 23.289156388151504 Q 85.46120307029912 23.08391726645284 85.72645140395504 23.04190605757973 L 85.72645140395504 23.04190605757973 Q 86.12030499029262 22.97952577773784 86.33495528630829 22.4099634621033 Q 86.54960558232395 21.840401146468757 86.60713154605016 20.929068808507715 Q 86.66465750977636 20.01773647054667 86.59008365979595 18.896621743619306 Q 86.51550980981554 17.775507016691943 86.33218817109652 16.618059742557016 L 86.33218817109652 16.618059742557016 Q 86.15013959931305 15.468650296714692 85.87462004201754 14.379362243176049 Q 85.59910048472204 13.290074189637405 85.26277286211067 12.441122131518249 Q 84.92644523949929 11.592170073399092 84.54629624186228 11.116814710995158 Q 84.16614724422529 10.641459348591223 83.7722936578877 10.703839628433112 L 83.7722936578877 10.703839628433112 Q 83.50704532423178 10.745850837306222 83.3491595320325 10.581349857545119 Q 83.19127373983322 10.416848877784012 83.15562786563785 10.191789685591111 L 83.15562786563785 10.191789685591111 Q 83.11998199144249 9.96673049339821 83.2214160183495 9.748798095792862 Q 83.32285004525652 9.53086569818752 83.58809837891245 9.488854489314411 L 83.58809837891245 9.488854489314411 Q 84.73750782475477 9.306805917530939 85.69283575888986 9.798174895718082 Q 86.64816369302496 10.289543873905226 87.3856212703567 11.252111627812345 Q 88.12307884768845 12.21467938171946 88.62122364365217 13.487052812026706 Q 89.1193684396159 14.759426242333952 89.33833595253029 16.14193270866178 L 89.33833595253029 16.14193270866178 Q 89.55857653238021 17.532477003282214 89.47799769127649 18.89651125294897 Q 89.39741885017276 20.260545502615724 88.99350480995477 21.403888761370766 Q 88.5895907697368 22.547232020125808 87.83286127754732 23.309764255584835 Q 87.07613178535783 24.07229649104386 85.9267223395155 24.254345062827333 Z" fill-opacity="1"/></g></g></g></g></svg>