<svg version="1.1" xmlns="http://www.w3.org/2000/svg" xmlns:xlink="http://www.w3.org/1999/xlink" width="200" height="200" viewBox="0 0 200 200"><defs/><g><g/><g><g><g><path fill="rgb(0,0,0)" stroke="none" paint-order="stroke fill markers" d=" M 102.52278645833333 22.993492126464844 L 102.52278645833333 22.993492126464844 Q 102.21354166666667 22.993492126464844 101.18815104166667 22.903973897298176 L 101.18815104166667 22.903973897298176 Q 100.50455729166667 22.83886973063151 100.27669270833333 22.83886973063151 L 100.27669270833333 22.83886973063151 Q 99.853515625 22.83886973063151 99.54020182291667 22.916180928548176 Q 99.22688802083333 22.993492126464844 98.71419270833333 22.993492126464844 L 98.71419270833333 22.993492126464844 Q 98.2421875 22.993492126464844 97.81087239583333 22.818524678548176 Q 97.37955729166667 22.64355723063151 97.10286458333333 22.285484313964844 Q 96.826171875 21.927411397298176 96.826171875 21.382164001464844 L 96.826171875 21.382164001464844 Q 96.826171875 20.999677022298176 96.86686197916667 20.120770772298176 L 96.86686197916667 20.120770772298176 Q 96.98079427083333 17.54101816813151 96.98079427083333 15.506512959798176 L 96.98079427083333 15.506512959798176 Q 96.98079427083333 13.740562438964844 96.875 11.07129160563151 L 96.875 11.07129160563151 Q 96.826171875 10.054039001464844 96.826171875 9.638999938964844 L 96.826171875 9.638999938964844 Q 96.826171875 9.09375254313151 97.10286458333333 8.735679626464842 Q 97.37955729166667 8.377606709798176 97.81087239583333 8.20263926188151 Q 98.2421875 8.027671813964842 98.71419270833333 8.027671813964842 L 98.71419270833333 8.027671813964842 Q 99.22688802083333 8.027671813964842 99.54020182291667 8.10498301188151 Q 99.853515625 8.182294209798176 100.27669270833333 8.182294209798176 L 100.27669270833333 8.182294209798176 Q 100.50455729166667 8.182294209798176 101.18815104166667 8.11719004313151 L 101.18815104166667 8.11719004313151 Q 102.21354166666667 8.027671813964842 102.52278645833333 8.027671813964842 L 102.52278645833333 8.027671813964842 Q 102.86458333333333 8.027671813964842 103.01920572916667 8.328778584798176 Q 103.173828125 8.62988535563151 103.173828125 9.028648376464844 L 103.173828125 9.028648376464844 Q 103.173828125 9.36230723063151 103.07210286458333 9.70410410563151 Q 102.97037760416667 10.04590098063151 102.783203125 10.273765563964844 Q 102.59602864583333 10.501630147298176 102.34375 10.501630147298176 L 102.34375 10.501630147298176 Q 101.8798828125 10.46094004313151 101.52587890625 10.237144470214844 Q 101.171875 10.013348897298176 100.69173177083333 9.97265879313151 L 100.69173177083333 9.97265879313151 Q 100.40690104166667 9.97265879313151 100.21565755208333 10.786460876464844 Q 100.0244140625 11.600262959798176 99.9267578125 12.869794209798176 Q 99.8291015625 14.139325459798176 99.8291015625 15.506512959798176 L 99.8291015625 15.506512959798176 Q 99.8291015625 16.881838480631508 99.9267578125 18.15136973063151 Q 100.0244140625 19.42090098063151 100.21565755208333 20.234703063964844 Q 100.40690104166667 21.048505147298176 100.69173177083333 21.048505147298176 L 100.69173177083333 21.048505147298176 Q 101.1962890625 21.00781504313151 101.5380859375 20.77588144938151 Q 101.8798828125 20.54394785563151 102.32747395833333 20.511395772298176 L 102.32747395833333 20.511395772298176 Q 102.587890625 20.511395772298176 102.77913411458333 20.73926035563151 Q 102.97037760416667 20.967124938964844 103.07210286458333 21.308921813964844 Q 103.173828125 21.650718688964844 103.173828125 21.992515563964844 L 103.173828125 21.992515563964844 Q 103.173828125 22.391278584798176 103.01920572916667 22.69238535563151 Q 102.86458333333333 22.993492126464844 102.52278645833333 22.993492126464844 Z" fill-opacity="1"/></g></g><g><g><path fill="rgb(0,0,0)" stroke="none" paint-order="stroke fill markers" d=" M 112.33832883183516 22.3069453194127 L 112.33832883183516 22.3069453194127 Q 111.83998347769372 22.22801516940868 111.5236374006294 21.988403240450197 Q 111.20729132356506 21.748791311491715 111.072907130129 21.426766572761835 Q 110.93852293669295 21.104741834031955 110.98817254717935 20.791266530620412 L 110.98817254717935 20.791266530620412 Q 111.03400295685911 20.50190471208668 111.24015311226282 20.26677316475581 Q 111.44630326766652 20.031641617424942 111.80597101398833 19.91969841525184 Q 112.16563876031013 19.80775521307874 112.68809759932937 19.890504563889408 L 112.68809759932937 19.890504563889408 Q 113.2105564383486 19.973253914700077 113.51739190684513 20.194880586670028 Q 113.82422737534166 20.416507258639978 113.94699164646693 20.707853464474645 Q 114.06975591759219 20.999199670309316 114.02265244097688 21.29659931713565 L 114.02265244097688 21.29659931713565 Q 113.97427589742604 21.60203679225459 113.75626871292307 21.860008757527723 Q 113.53826152842012 22.117980722800855 113.17943002890574 22.25065502917324 Q 112.82059852939138 22.383329335545625 112.33832883183516 22.3069453194127 Z" fill-opacity="1"/></g></g><g><g><path fill="rgb(0,0,0)" stroke="none" paint-order="stroke fill markers" d=" M 124.34029497593149 25.19361561706203 L 124.34029497593149 25.19361561706203 Q 123.86043247584766 25.037698839301235 123.58546470786209 24.751549501468297 Q 123.31049693987651 24.46540016363536 123.22814300659236 24.126317764398628 Q 123.14578907330822 23.787235365161898 123.24386575609324 23.485386373173693 L 123.24386575609324 23.485386373173693 Q 123.33439807866402 23.206756534415344 123.57479286138893 23.00676883588909 Q 123.81518764411383 22.806781137362837 124.18793905859086 22.752480573255657 Q 124.56069047306787 22.698180009148476 125.06377212638155 22.861641147123507 L 125.06377212638155 22.861641147123507 Q 125.56685377969522 23.025102285098534 125.83524154454203 23.292000007337784 Q 126.10362930938882 23.558897729577026 126.17930556076966 23.865861543236097 Q 126.2549818121505 24.172825356895167 126.16193470284165 24.4591949133968 L 126.16193470284165 24.4591949133968 Q 126.0663728067947 24.75330418764172 125.81069394611228 24.97399625265976 Q 125.55501508542984 25.194688317677798 125.1798465629793 25.269595569512237 Q 124.80467804052873 25.344502821346673 124.34029497593149 25.19361561706203 Z" fill-opacity="1"/></g></g><g><g><path fill="rgb(0,0,0)" stroke="none" paint-order="stroke fill markers" d=" M 135.7429222769127 29.922267366375223 L 135.7429222769127 29.922267366375223 Q 135.2933584382109 29.69320314938424 135.06653959831758 29.3675623490495 Q 134.83972075842428 29.041921548714758 134.81142491244654 28.69413082299035 Q 134.7831290664688 28.34634009726594 134.9272178481244 28.063549940663187 L 134.9272178481244 28.063549940663187 Q 135.06022287734498 27.802512873029876 135.32894297001585 27.642593384167075 Q 135.59766306268673 27.48267389530427 135.97431976840352 27.48735302936457 Q 136.35097647412027 27.49203216342487 136.82229340179154 27.7321801328509 L 136.82229340179154 27.7321801328509 Q 137.2936103294628 27.97232810227693 137.5169417931614 28.277924967081187 Q 137.74027325686004 28.58352183188544 137.76699808803238 28.898544785522134 Q 137.79372291920473 29.21356773915883 137.65702330583912 29.48185583644862 L 137.65702330583912 29.48185583644862 Q 137.51662910832852 29.75739496339489 137.22957423356613 29.935372957082123 Q 136.94251935880374 30.11335095076935 136.56025170755265 30.128646682922763 Q 136.17798405630157 30.14394241507617 135.7429222769127 29.922267366375223 Z" fill-opacity="1"/></g></g><g><g><path fill="rgb(0,0,0)" stroke="none" paint-order="stroke fill markers" d=" M 146.30352960905773 38.456205016173655 L 146.30352960905773 38.456205016173655 Q 145.88875038830886 38.15485027256668 145.6807165798237 37.908142967392344 Q 145.47268277133855 37.66143566221801 145.13032531929184 37.412698413526535 L 145.13032531929184 37.412698413526535 Q 144.94597899895902 37.27876297192343 144.35467276893107 36.92962702435207 L 144.35467276893107 36.92962702435207 Q 143.4724968325178 36.3993393058403 143.22231254063755 36.217569777950374 L 143.22231254063755 36.217569777950374 Q 142.94579306013827 36.01666661554572 142.99768703345939 35.682181356875226 Q 143.0495810067805 35.347696098204736 143.28396802958594 35.02509003762228 L 143.28396802958594 35.02509003762228 Q 143.48487119199058 34.748570557123024 143.76807181882953 34.531843684482304 Q 144.0512724456685 34.315116811841584 144.33992712040808 34.243180594282784 Q 144.62858179514765 34.17124437672398 144.83926330409946 34.324313452841814 L 144.83926330409946 34.324313452841814 Q 145.18223851309565 34.61373611603831 145.32243084767748 35.00227749735317 Q 145.46262318225928 35.39081887866803 145.84690156271 35.72030919942005 L 145.84690156271 35.72030919942005 Q 146.07733446312605 35.88772850142393 146.71039455913075 35.341758888723554 Q 147.34345465513545 34.795789276023186 148.1686719670668 33.8261178234273 Q 148.99388927899818 32.85644637083142 149.80228533724548 31.743784651679675 L 149.80228533724548 31.743784651679675 Q 150.60589798686408 30.637706729682677 151.27310416708158 29.55323346999842 Q 151.9403103472991 28.468760210314162 152.26393197703084 27.697970392065727 Q 152.58755360676255 26.927180573817292 152.3571207063465 26.759761271813414 L 152.3571207063465 26.759761271813414 Q 151.94475963107323 26.51045914849488 151.52682071755308 26.483435294902666 Q 151.10888180403296 26.45641144131045 150.70968832306914 26.21667613524928 L 150.70968832306914 26.21667613524928 Q 150.50559061127208 26.068390467760132 150.48809871831605 25.77402574896761 Q 150.47060682536005 25.47966103017508 150.5892125233304 25.143348941817305 Q 150.70781822130076 24.80703685345953 150.90393797507673 24.537101170115022 L 150.90393797507673 24.537101170115022 Q 151.13832499788217 24.214495109532564 151.44040326308354 24.061779378751996 Q 151.7424815282849 23.90906364797143 152.01900100878416 24.109966810376083 L 152.01900100878416 24.109966810376083 Q 152.26918530066445 24.291736338266006 153.0461262472467 24.966867594182155 L 153.0461262472467 24.966867594182155 Q 153.56089793921572 25.421344296229414 153.74524425954857 25.555279737832517 L 153.74524425954857 25.555279737832517 Q 154.08760171159525 25.804016986523994 154.38652028402538 25.925632145758193 Q 154.6854388564555 26.04724730499239 155.10021807720437 26.348602048599368 L 155.10021807720437 26.348602048599368 Q 155.48207831217954 26.62603974906294 155.72817627586429 27.021112045210096 Q 155.97427423954906 27.41618434135725 155.98765336314835 27.868507309541187 Q 156.00103248674762 28.32083027772512 155.6805441086259 28.76194468709297 L 155.6805441086259 28.76194468709297 Q 155.43659026856312 29.097718341984915 154.79916140704938 29.891992534555826 L 154.79916140704938 29.891992534555826 Q 153.14461401382994 31.989293689139004 152.10661434140587 33.41797767171846 L 152.10661434140587 33.41797767171846 Q 150.91076218423532 35.063926960404466 149.48659480910948 37.21795837925988 L 149.48659480910948 37.21795837925988 Q 149.0029056629855 37.952925515115645 148.77808545743744 38.26236398138862 L 148.77808545743744 38.26236398138862 Q 148.45759707931575 38.703478390756466 148.0232779963924 38.83052957219001 Q 147.5889589134691 38.95758075362355 147.137174378751 38.84561173513039 Q 146.6853898440329 38.73364271663723 146.30352960905773 38.456205016173655 Z" fill-opacity="1"/></g></g><g><g><path fill="rgb(0,0,0)" stroke="none" paint-order="stroke fill markers" d=" M 156.23570332504508 47.33205549930111 L 156.23570332504508 47.33205549930111 Q 156.01703423581094 47.113386410066994 155.3552725183919 46.32502679888082 L 155.3552725183919 46.32502679888082 Q 154.91793433992365 45.795617424945576 154.7568097478564 45.63449283287833 L 154.7568097478564 45.63449283287833 Q 154.45757836258866 45.335261447610584 154.18136477618768 45.168382405826655 Q 153.90515118978666 45.00150336404272 153.54262085763537 44.63897303189141 L 153.54262085763537 44.63897303189141 Q 153.2088627740675 44.305214948323545 153.02759760799185 43.87650844443033 Q 152.8463324419162 43.44780194053712 152.90387693908306 42.9989548626355 Q 152.96142143624994 42.55010778473389 153.346969567268 42.16455965371583 L 153.346969567268 42.16455965371583 Q 153.6174287039523 41.894100517031525 154.267681521938 41.301392196212724 L 154.267681521938 41.301392196212724 Q 156.1724043781615 39.55779393205644 157.61101680733336 38.11918150288459 L 157.61101680733336 38.11918150288459 Q 158.85973239585454 36.87046591436342 160.67238405661107 34.90819856097302 L 160.67238405661107 34.90819856097302 Q 161.35716357289687 34.15436564808697 161.6506405084479 33.86088871253591 L 161.6506405084479 33.86088871253591 Q 162.03618863946596 33.475340581517855 162.4850357173676 33.41779608435098 Q 162.9338827952692 33.36025158718411 163.3625892991624 33.541516753259764 Q 163.79129580305562 33.72278191933542 164.1250538866235 34.05654000290328 L 164.1250538866235 34.05654000290328 Q 164.4875842187748 34.41907033505459 164.65446326055874 34.695283921455584 Q 164.82134230234266 34.97149750785658 165.1205736876104 35.27072889312433 L 165.1205736876104 35.27072889312433 Q 165.28169827967767 35.431853485191574 165.8111076536129 35.86919166365982 L 165.8111076536129 35.86919166365982 Q 166.59946726479907 36.53095338107887 166.8181363540332 36.749622470312985 L 166.8181363540332 36.749622470312985 Q 167.05982324213406 36.99130935841386 166.9562431472337 37.31355854254835 Q 166.85266305233333 37.63580772668285 166.57069501621564 37.91777576280053 L 166.57069501621564 37.91777576280053 Q 166.33476257783147 38.15370820118471 166.021145068272 38.323464467826994 Q 165.70752755871254 38.49322073446927 165.41405062316147 38.521992983052705 Q 165.12057368761043 38.55076523163614 164.9421857463931 38.37237729041883 L 164.9421857463931 38.37237729041883 Q 164.64295436112536 38.015601407984214 164.55088316565838 37.60703547809941 Q 164.45881197019136 37.198469548214604 164.14807168549024 36.83018476634661 L 164.14807168549024 36.83018476634661 Q 163.94666594540618 36.62877902626255 163.23599140539528 37.06899442958914 Q 162.5253168653844 37.50920983291572 161.55856931298092 38.33785059211871 Q 160.59182176057743 39.166491351321696 159.62507420817394 40.13323890372518 L 159.62507420817394 40.13323890372518 Q 158.65257220605378 41.10574090584535 157.8239314468508 42.072488458248834 Q 156.9952906876478 43.03923601065232 156.55507528432122 43.74991055066321 Q 156.11485988099463 44.4605850906741 156.31626562107868 44.661990830758164 L 156.31626562107868 44.661990830758164 Q 156.70181375209674 44.989994464609346 157.10750245712322 45.06767953578462 Q 157.51319116214967 45.1453646069599 157.85270369543423 45.43884154251096 L 157.85270369543423 45.43884154251096 Q 158.03684608636823 45.62298393344496 158.01095106264313 45.91933809385436 Q 157.98505603891803 46.21569225426376 157.81529977227575 46.52930976382322 Q 157.6455435056335 46.842927273382685 157.40385661753263 47.08461416148356 L 157.40385661753263 47.08461416148356 Q 157.12188858141494 47.36658219760124 156.79963939728043 47.47016229250161 Q 156.47739021314595 47.573742387401985 156.23570332504508 47.33205549930111 Z" fill-opacity="1"/></g></g><g><g><path fill="rgb(0,0,0)" stroke="none" paint-order="stroke fill markers" d=" M 163.66180180124064 53.787230169759624 L 163.66180180124064 53.787230169759624 Q 163.36523046626235 53.37903474616549 163.31097122978812 52.98591307005181 Q 163.2567119933139 52.59279139393812 163.38939389531672 52.270061543009476 Q 163.5220757973195 51.94733169208084 163.77884388635454 51.76077875556223 L 163.77884388635454 51.76077875556223 Q 164.0158605839253 51.58857604492967 164.32789386834247 51.568083106169745 Q 164.63992715275964 51.54759016740983 164.97340645252223 51.72275787244372 Q 165.30688575228478 51.89792557747761 165.61780731314911 52.32587239253597 L 165.61780731314911 52.32587239253597 Q 165.92872887401347 52.75381920759433 165.98898059185416 53.12749837071854 Q 166.04923230969484 53.50117753384274 165.93002688047628 53.79399786026151 Q 165.8108214512577 54.086818186680276 165.56722095653217 54.26380430594152 L 165.56722095653217 54.26380430594152 Q 165.3170366646519 54.445573833831446 164.98046858014183 54.47383320132267 Q 164.64390049563175 54.50209256881389 164.29635340729666 54.34217528392908 Q 163.94880631896157 54.18225799904426 163.66180180124064 53.787230169759624 Z" fill-opacity="1"/></g></g><g><g><path fill="rgb(0,0,0)" stroke="none" paint-order="stroke fill markers" d=" M 170.1072893067849 64.31508596033912 L 170.1072893067849 64.31508596033912 Q 169.87822508979392 63.865522121637305 169.8861316536573 63.46875241107327 Q 169.8940382175207 63.071982700509224 170.07557265671937 62.77398221194533 Q 170.25710709591806 62.47598172338143 170.53989725252083 62.33189294172581 L 170.53989725252083 62.33189294172581 Q 170.80093432015414 62.19888791250524 171.1123317589626 62.227460035750084 Q 171.42372919777105 62.25603215899493 171.72570054774707 62.48121091476606 Q 172.02767189772308 62.70638967053719 172.2678198671491 63.177706598208445 L 172.2678198671491 63.177706598208445 Q 172.50796783657512 63.6490235258797 172.5090214558072 64.027527523669 Q 172.51007507503925 64.40603152145827 172.3465300713482 64.67659890620166 Q 172.18298506765717 64.94716629094503 171.91469697036737 65.08386590431063 L 171.91469697036737 65.08386590431063 Q 171.6391578434211 65.22426010182123 171.30231273149818 65.19952070135496 Q 170.96546761957526 65.17478130088867 170.64721598753056 64.96246452030833 Q 170.32896435548585 64.75014773972798 170.1072893067849 64.31508596033912 Z" fill-opacity="1"/></g></g><g><g><path fill="rgb(0,0,0)" stroke="none" paint-order="stroke fill markers" d=" M 174.82650267684258 75.7216227660148 L 174.82650267684258 75.7216227660148 Q 174.6705858990818 75.24176026593098 174.74046357744007 74.85111230799384 Q 174.81034125579836 74.46046435005671 175.0362582518216 74.19453098489292 Q 175.26217524784485 73.92859761972913 175.56402423983306 73.83052093694411 L 175.56402423983306 73.83052093694411 Q 175.8426540785914 73.73998861437333 176.14574803337882 73.8169222591232 Q 176.44884198816627 73.89385590387307 176.71186985153386 74.16350106208893 Q 176.97489771490146 74.43314622030476 177.1383588528765 74.93622787361844 L 177.1383588528765 74.93622787361844 Q 177.30181999085153 75.43930952693212 177.2436495678727 75.81331833477817 Q 177.18547914489386 76.18732714262423 176.98162158749597 76.42897931871816 Q 176.77776403009807 76.67063149481211 176.49139447359644 76.76367860412097 L 176.49139447359644 76.76367860412097 Q 176.1972851993515 76.85924050016791 175.86845730459615 76.78211149788898 Q 175.53962940984079 76.70498249561005 175.25850964548403 76.44549416311105 Q 174.97738988112724 76.18600583061205 174.82650267684258 75.7216227660148 Z" fill-opacity="1"/></g></g><g><g><path fill="rgb(0,0,0)" stroke="none" paint-order="stroke fill markers" d=" M 176.25957455245506 89.22350500641858 L 176.25957455245506 89.22350500641858 Q 176.1793713355155 88.71712182398454 176.2067176272766 88.39557129883158 Q 176.2340639190377 88.07402077367863 176.1678644383892 87.65605370246324 L 176.1678644383892 87.65605370246324 Q 176.1322185641938 87.43099451027034 175.96097831526689 86.76600146917602 L 175.96097831526689 86.76600146917602 Q 175.7121557701691 85.76723884059899 175.66377922661826 85.46180136548006 L 175.66377922661826 85.46180136548006 Q 175.6103104153252 85.1242125771907 175.8835217903761 84.92439036301593 Q 176.15673316542703 84.72456814884116 176.5505867517646 84.66218786899927 L 176.5505867517646 84.66218786899927 Q 176.88817554005396 84.60871905770622 177.24167766503766 84.65572310007072 Q 177.59517979002138 84.70272714243522 177.85015605519968 84.85597023311604 Q 178.10513232037798 85.00921332379686 178.14587046231554 85.26642382916017 L 178.14587046231554 85.26642382916017 Q 178.1837378306003 85.71359665299558 178.00812853555414 86.08746784894807 Q 177.832519240508 86.46133904490055 177.871260249049 86.96604973371973 L 177.871260249049 86.96604973371973 Q 177.9158175917932 87.24737372396086 178.74951749403897 87.30895599528216 Q 179.5832173962847 87.37053826660348 180.85239541315747 87.26839376416912 Q 182.12157343003022 87.16624926173475 183.47996641148026 86.95110094962702 L 183.47996641148026 86.95110094962702 Q 184.83032156463767 86.73722570445483 186.06894597505726 86.44217332299797 Q 187.30757038547685 86.14712094154112 188.08143614175182 85.83092528311006 Q 188.85530189802677 85.514729624679 188.81074455528258 85.23340563443787 L 188.81074455528258 85.23340563443787 Q 188.69544446462217 84.765539099852 188.4190257748792 84.45090290985134 Q 188.14260708513623 84.13626671985067 188.02985312834693 83.68447584185 L 188.02985312834693 83.68447584185 Q 187.99038805334493 83.43530316477928 188.1861667060202 83.21478723985403 Q 188.3819453586955 82.99427131492878 188.7036208102905 82.8403296499782 Q 189.02529626188547 82.68638798502761 189.35484722188224 82.6341922406701 L 189.35484722188224 82.6341922406701 Q 189.7487008082198 82.57181196082821 190.07028872682156 82.67742722177238 Q 190.39187664542334 82.78304248271654 190.44534545671638 83.12063127100589 L 190.44534545671638 83.12063127100589 Q 190.49372200026724 83.42606874612484 190.56571232292774 84.45283884728393 L 190.56571232292774 84.45283884728393 Q 190.608347319173 85.13820095934703 190.64399319336837 85.36326015153993 L 190.64399319336837 85.36326015153993 Q 190.7101926740169 85.78122722275532 190.83556511981527 86.07858947613285 Q 190.96093756561362 86.37595172951038 191.0411407825532 86.88233491194441 L 191.0411407825532 86.88233491194441 Q 191.11497866481503 87.34852895291543 191.00963790410813 87.80190479153772 Q 190.90429714340124 88.25528063016 190.59391697433534 88.58458173727267 Q 190.28353680526942 88.91388284438534 189.74500230966498 88.99917832906712 L 189.74500230966498 88.99917832906712 Q 189.3350730667422 89.0641047427801 188.32270612855345 89.17501113996808 L 188.32270612855345 89.17501113996808 Q 185.6697485784173 89.48808532702422 183.9255398389223 89.7643408520383 L 183.9255398389223 89.7643408520383 Q 181.9160827657714 90.08260758592549 179.38591413411373 90.59869940059089 L 179.38591413411373 90.59869940059089 Q 178.52419401319028 90.77637977109318 178.1464160834379 90.83621391706397 L 178.1464160834379 90.83621391706397 Q 177.60788158783345 90.92150940174574 177.21093286715023 90.70423818496135 Q 176.81398414646702 90.48696696817697 176.57369829059195 90.08833300778328 Q 176.3334124347169 89.68969904738958 176.25957455245506 89.22350500641858 Z" fill-opacity="1"/></g></g><g><g><path fill="rgb(0,0,0)" stroke="none" paint-order="stroke fill markers" d=" M 177.00650787353516 102.52278645833333 L 177.00650787353516 102.52278645833333 Q 177.00650787353516 102.21354166666667 177.0960261027018 101.18815104166667 L 177.0960261027018 101.18815104166667 Q 177.1611302693685 100.50455729166667 177.1611302693685 100.27669270833333 L 177.1611302693685 100.27669270833333 Q 177.1611302693685 99.853515625 177.0838190714518 99.54020182291667 Q 177.00650787353516 99.22688802083333 177.00650787353516 98.71419270833333 L 177.00650787353516 98.71419270833333 Q 177.00650787353516 98.2421875 177.1814753214518 97.81087239583333 Q 177.3564427693685 97.37955729166667 177.71451568603516 97.10286458333333 Q 178.0725886027018 96.826171875 178.61783599853516 96.826171875 L 178.61783599853516 96.826171875 Q 179.0003229777018 96.826171875 179.8792292277018 96.86686197916667 L 179.8792292277018 96.86686197916667 Q 182.4589818318685 96.98079427083333 184.4934870402018 96.98079427083333 L 184.4934870402018 96.98079427083333 Q 186.25943756103516 96.98079427083333 188.9287083943685 96.875 L 188.9287083943685 96.875 Q 189.94596099853516 96.826171875 190.36100006103516 96.826171875 L 190.36100006103516 96.826171875 Q 190.9062474568685 96.826171875 191.26432037353516 97.10286458333333 Q 191.6223932902018 97.37955729166667 191.7973607381185 97.81087239583333 Q 191.97232818603516 98.2421875 191.97232818603516 98.71419270833333 L 191.97232818603516 98.71419270833333 Q 191.97232818603516 99.22688802083333 191.8950169881185 99.54020182291667 Q 191.8177057902018 99.853515625 191.8177057902018 100.27669270833333 L 191.8177057902018 100.27669270833333 Q 191.8177057902018 100.50455729166667 191.8828099568685 101.18815104166667 L 191.8828099568685 101.18815104166667 Q 191.97232818603516 102.21354166666667 191.97232818603516 102.52278645833333 L 191.97232818603516 102.52278645833333 Q 191.97232818603516 102.86458333333333 191.6712214152018 103.01920572916667 Q 191.3701146443685 103.173828125 190.97135162353516 103.173828125 L 190.97135162353516 103.173828125 Q 190.6376927693685 103.173828125 190.2958958943685 103.07210286458333 Q 189.9540990193685 102.97037760416667 189.72623443603516 102.783203125 Q 189.4983698527018 102.59602864583333 189.4983698527018 102.34375 L 189.4983698527018 102.34375 Q 189.5390599568685 101.8798828125 189.76285552978516 101.52587890625 Q 189.9866511027018 101.171875 190.0273412068685 100.69173177083333 L 190.0273412068685 100.69173177083333 Q 190.0273412068685 100.40690104166667 189.21353912353516 100.21565755208333 Q 188.3997370402018 100.0244140625 187.1302057902018 99.9267578125 Q 185.8606745402018 99.8291015625 184.4934870402018 99.8291015625 L 184.4934870402018 99.8291015625 Q 183.1181615193685 99.8291015625 181.8486302693685 99.9267578125 Q 180.5790990193685 100.0244140625 179.76529693603516 100.21565755208333 Q 178.9514948527018 100.40690104166667 178.9514948527018 100.69173177083333 L 178.9514948527018 100.69173177083333 Q 178.9921849568685 101.1962890625 179.2241185506185 101.5380859375 Q 179.4560521443685 101.8798828125 179.4886042277018 102.32747395833333 L 179.4886042277018 102.32747395833333 Q 179.4886042277018 102.587890625 179.2607396443685 102.77913411458333 Q 179.03287506103516 102.97037760416667 178.69107818603516 103.07210286458333 Q 178.34928131103516 103.173828125 178.00748443603516 103.173828125 L 178.00748443603516 103.173828125 Q 177.6087214152018 103.173828125 177.3076146443685 103.01920572916667 Q 177.00650787353516 102.86458333333333 177.00650787353516 102.52278645833333 Z" fill-opacity="1"/></g></g><g><g><path fill="rgb(0,0,0)" stroke="none" paint-order="stroke fill markers" d=" M 177.69305468058732 112.33832883183516 L 177.69305468058732 112.33832883183516 Q 177.77198483059135 111.83998347769372 178.0115967595498 111.5236374006294 Q 178.25120868850829 111.20729132356506 178.57323342723816 111.072907130129 Q 178.89525816596804 110.93852293669295 179.2087334693796 110.98817254717935 L 179.2087334693796 110.98817254717935 Q 179.49809528791334 111.03400295685911 179.7332268352442 111.24015311226282 Q 179.96835838257508 111.44630326766652 180.08030158474818 111.80597101398833 Q 180.19224478692126 112.16563876031013 180.10949543611062 112.68809759932937 L 180.10949543611062 112.68809759932937 Q 180.02674608529995 113.2105564383486 179.80511941332998 113.51739190684513 Q 179.58349274136003 113.82422737534166 179.29214653552538 113.94699164646693 Q 179.0008003296907 114.06975591759219 178.70340068286436 114.02265244097688 L 178.70340068286436 114.02265244097688 Q 178.39796320774542 113.97427589742604 178.1399912424723 113.75626871292307 Q 177.88201927719916 113.53826152842012 177.74934497082677 113.17943002890574 Q 177.61667066445438 112.82059852939138 177.69305468058732 112.33832883183516 Z" fill-opacity="1"/></g></g><g><g><path fill="rgb(0,0,0)" stroke="none" paint-order="stroke fill markers" d=" M 174.806384382938 124.34029497593149 L 174.806384382938 124.34029497593149 Q 174.9623011606988 123.86043247584766 175.24845049853172 123.58546470786209 Q 175.53459983636466 123.31049693987651 175.8736822356014 123.22814300659236 Q 176.21276463483812 123.14578907330822 176.51461362682633 123.24386575609324 L 176.51461362682633 123.24386575609324 Q 176.79324346558468 123.33439807866402 176.99323116411094 123.57479286138893 Q 177.1932188626372 123.81518764411383 177.24751942674436 124.18793905859086 Q 177.30181999085156 124.56069047306787 177.13835885287654 125.06377212638155 L 177.13835885287654 125.06377212638155 Q 176.9748977149015 125.56685377969522 176.70799999266225 125.83524154454203 Q 176.441102270423 126.10362930938882 176.13413845676394 126.17930556076966 Q 175.82717464310485 126.2549818121505 175.54080508660323 126.16193470284165 L 175.54080508660323 126.16193470284165 Q 175.2466958123583 126.0663728067947 175.02600374734027 125.81069394611228 Q 174.80531168232224 125.55501508542986 174.7304044304878 125.1798465629793 Q 174.65549717865335 124.80467804052873 174.806384382938 124.34029497593149 Z" fill-opacity="1"/></g></g><g><g><path fill="rgb(0,0,0)" stroke="none" paint-order="stroke fill markers" d=" M 170.07773263362478 135.7429222769127 L 170.07773263362478 135.7429222769127 Q 170.30679685061577 135.2933584382109 170.6324376509505 135.06653959831758 Q 170.95807845128525 134.83972075842428 171.30586917700964 134.81142491244654 Q 171.65365990273406 134.7831290664688 171.9364500593368 134.9272178481244 L 171.9364500593368 134.9272178481244 Q 172.19748712697012 135.06022287734498 172.35740661583293 135.32894297001585 Q 172.51732610469574 135.59766306268673 172.51264697063542 135.97431976840352 Q 172.50796783657512 136.35097647412027 172.2678198671491 136.82229340179154 L 172.2678198671491 136.82229340179154 Q 172.02767189772308 137.2936103294628 171.7220750329188 137.5169417931614 Q 171.41647816811457 137.74027325686004 171.10145521447785 137.76699808803238 Q 170.78643226084117 137.79372291920473 170.51814416355137 137.65702330583912 L 170.51814416355137 137.65702330583912 Q 170.2426050366051 137.51662910832852 170.0646270429179 137.22957423356613 Q 169.88664904923064 136.94251935880374 169.87135331707725 136.56025170755265 Q 169.85605758492383 136.17798405630157 170.07773263362478 135.7429222769127 Z" fill-opacity="1"/></g></g><g><g><path fill="rgb(0,0,0)" stroke="none" paint-order="stroke fill markers" d=" M 161.54379498382633 146.3035296090577 L 161.54379498382633 146.3035296090577 Q 161.84514972743332 145.88875038830884 162.09185703260766 145.68071657982367 Q 162.33856433778197 145.47268277133853 162.58730158647347 145.1303253192918 L 162.58730158647347 145.1303253192918 Q 162.72123702807656 144.945978998959 163.07037297564793 144.35467276893104 L 163.07037297564793 144.35467276893104 Q 163.6006606941597 143.47249683251778 163.7824302220496 143.22231254063752 L 163.7824302220496 143.22231254063752 Q 163.98333338445428 142.94579306013824 164.31781864312475 142.99768703345936 Q 164.65230390179525 143.04958100678047 164.97490996237772 143.2839680295859 L 164.97490996237772 143.2839680295859 Q 165.25142944287697 143.48487119199055 165.4681563155177 143.7680718188295 Q 165.6848831881584 144.05127244566847 165.7568194057172 144.33992712040805 Q 165.828755623276 144.62858179514762 165.6756865471582 144.83926330409943 L 165.6756865471582 144.83926330409943 Q 165.38626388396167 145.18223851309563 164.9977225026468 145.32243084767745 Q 164.60918112133197 145.46262318225925 164.27969080057994 145.84690156270997 L 164.27969080057994 145.84690156270997 Q 164.11227149857606 146.07733446312602 164.65824111127642 146.71039455913072 Q 165.20421072397681 147.34345465513542 166.1738821765727 148.16867196706679 Q 167.14355362916857 148.99388927899815 168.25621534832032 149.80228533724545 L 168.25621534832032 149.80228533724545 Q 169.3622932703173 150.60589798686405 170.44676653000158 151.27310416708156 Q 171.53123978968583 151.94031034729906 172.30202960793426 152.26393197703078 Q 173.0728194261827 152.58755360676253 173.24023872818657 152.35712070634648 L 173.24023872818657 152.35712070634648 Q 173.48954085150513 151.94475963107317 173.51656470509732 151.52682071755305 Q 173.54358855868955 151.10888180403293 173.7833238647507 150.70968832306912 L 173.7833238647507 150.70968832306912 Q 173.93160953223986 150.50559061127205 174.2259742510324 150.48809871831602 Q 174.5203389698249 150.47060682536002 174.85665105818268 150.58921252333036 Q 175.19296314654048 150.70781822130073 175.46289882988498 150.9039379750767 L 175.46289882988498 150.9039379750767 Q 175.78550489046742 151.13832499788214 175.938220621248 151.4404032630835 Q 176.09093635202856 151.74248152828488 175.89003318962392 152.01900100878413 L 175.89003318962392 152.01900100878413 Q 175.70826366173398 152.26918530066442 175.03313240581784 153.04612624724666 L 175.03313240581784 153.04612624724666 Q 174.57865570377058 153.5608979392157 174.44472026216746 153.74524425954854 L 174.44472026216746 153.74524425954854 Q 174.195983013476 154.08760171159523 174.0743678542418 154.38652028402535 Q 173.9527526950076 154.68543885645548 173.6513979514006 155.10021807720435 L 173.6513979514006 155.10021807720435 Q 173.37396025093705 155.4820783121795 172.9788879547899 155.72817627586426 Q 172.58381565864275 155.97427423954903 172.1314926904588 155.98765336314833 Q 171.67916972227488 156.0010324867476 171.23805531290702 155.6805441086259 L 171.23805531290702 155.6805441086259 Q 170.90228165801508 155.4365902685631 170.10800746544416 154.79916140704935 L 170.10800746544416 154.79916140704935 Q 168.010706310861 153.1446140138299 166.58202232828154 152.10661434140584 L 166.58202232828154 152.10661434140584 Q 164.93607303959553 150.9107621842353 162.7820416207401 149.48659480910945 L 162.7820416207401 149.48659480910945 Q 162.04707448488435 149.00290566298548 161.73763601861137 148.7780854574374 L 161.73763601861137 148.7780854574374 Q 161.2965216092435 148.45759707931572 161.16947042780998 148.02327799639238 Q 161.04241924637645 147.58895891346907 161.1543882648696 147.13717437875098 Q 161.26635728336277 146.68538984403287 161.54379498382633 146.3035296090577 Z" fill-opacity="1"/></g></g><g><g><path fill="rgb(0,0,0)" stroke="none" paint-order="stroke fill markers" d=" M 152.6679445006989 156.23570332504508 L 152.6679445006989 156.23570332504508 Q 152.886613589933 156.01703423581094 153.67497320111917 155.3552725183919 L 153.67497320111917 155.3552725183919 Q 154.2043825750544 154.91793433992365 154.36550716712168 154.7568097478564 L 154.36550716712168 154.7568097478564 Q 154.66473855238942 154.45757836258866 154.83161759417334 154.18136477618768 Q 154.99849663595728 153.90515118978666 155.36102696810858 153.54262085763537 L 155.36102696810858 153.54262085763537 Q 155.69478505167646 153.2088627740675 156.12349155556967 153.02759760799185 Q 156.55219805946288 152.8463324419162 157.00104513736449 152.90387693908306 Q 157.44989221526612 152.96142143624994 157.83544034628417 153.346969567268 L 157.83544034628417 153.346969567268 Q 158.10589948296848 153.6174287039523 158.69860780378727 154.267681521938 L 158.69860780378727 154.267681521938 Q 160.44220606794357 156.1724043781615 161.8808184971154 157.61101680733336 L 161.8808184971154 157.61101680733336 Q 163.12953408563658 158.85973239585454 165.091801439027 160.67238405661107 L 165.091801439027 160.67238405661107 Q 165.84563435191302 161.35716357289687 166.1391112874641 161.6506405084479 L 166.1391112874641 161.6506405084479 Q 166.52465941848214 162.03618863946596 166.58220391564902 162.4850357173676 Q 166.6397484128159 162.9338827952692 166.45848324674023 163.3625892991624 Q 166.2772180806646 163.79129580305562 165.9434599970967 164.1250538866235 L 165.9434599970967 164.1250538866235 Q 165.58092966494542 164.4875842187748 165.3047160785444 164.65446326055874 Q 165.02850249214342 164.82134230234266 164.72927110687567 165.1205736876104 L 164.72927110687567 165.1205736876104 Q 164.56814651480843 165.28169827967767 164.13080833634018 165.8111076536129 L 164.13080833634018 165.8111076536129 Q 163.46904661892114 166.59946726479907 163.250377529687 166.8181363540332 L 163.250377529687 166.8181363540332 Q 163.00869064158616 167.05982324213406 162.68644145745165 166.9562431472337 Q 162.36419227331714 166.85266305233333 162.08222423719948 166.57069501621564 L 162.08222423719948 166.57069501621564 Q 161.8462917988153 166.33476257783147 161.676535532173 166.021145068272 Q 161.50677926553072 165.70752755871254 161.4780070169473 165.41405062316147 Q 161.44923476836385 165.12057368761043 161.62762270958117 164.9421857463931 L 161.62762270958117 164.9421857463931 Q 161.9843985920158 164.64295436112536 162.39296452190058 164.55088316565838 Q 162.8015304517854 164.45881197019136 163.1698152336534 164.14807168549024 L 163.1698152336534 164.14807168549024 Q 163.37122097373745 163.94666594540618 162.93100557041086 163.23599140539528 Q 162.49079016708427 162.5253168653844 161.6621494078813 161.55856931298092 Q 160.8335086486783 160.59182176057743 159.86676109627481 159.62507420817394 L 159.86676109627481 159.62507420817394 Q 158.89425909415465 158.65257220605378 157.92751154175116 157.8239314468508 Q 156.9607639893477 156.9952906876478 156.2500894493368 156.55507528432122 Q 155.5394149093259 156.11485988099463 155.33800916924184 156.31626562107868 L 155.33800916924184 156.31626562107868 Q 155.01000553539066 156.70181375209674 154.93232046421537 157.10750245712322 Q 154.8546353930401 157.51319116214967 154.56115845748903 157.85270369543423 L 154.56115845748903 157.85270369543423 Q 154.37701606655503 158.03684608636823 154.08066190614565 158.01095106264313 Q 153.78430774573624 157.98505603891803 153.47069023617678 157.81529977227575 Q 153.15707272661732 157.6455435056335 152.91538583851644 157.40385661753263 L 152.91538583851644 157.40385661753263 Q 152.63341780239875 157.12188858141494 152.5298377074984 156.79963939728043 Q 152.42625761259802 156.47739021314595 152.6679445006989 156.23570332504508 Z" fill-opacity="1"/></g></g><g><g><path fill="rgb(0,0,0)" stroke="none" paint-order="stroke fill markers" d=" M 146.21276983024038 163.66180180124064 L 146.21276983024038 163.66180180124064 Q 146.62096525383453 163.36523046626235 147.0140869299482 163.31097122978812 Q 147.4072086060619 163.2567119933139 147.72993845699054 163.38939389531672 Q 148.05266830791916 163.5220757973195 148.23922124443777 163.77884388635454 L 148.23922124443777 163.77884388635454 Q 148.41142395507035 164.0158605839253 148.43191689383025 164.32789386834247 Q 148.45240983259018 164.63992715275964 148.2772421275563 164.97340645252223 Q 148.1020744225224 165.30688575228478 147.67412760746404 165.61780731314911 L 147.67412760746404 165.61780731314911 Q 147.24618079240568 165.92872887401347 146.87250162928146 165.98898059185416 Q 146.49882246615726 166.04923230969484 146.2060021397385 165.93002688047628 Q 145.91318181331974 165.8108214512577 145.7361956940585 165.56722095653217 L 145.7361956940585 165.56722095653217 Q 145.55442616616855 165.3170366646519 145.52616679867734 164.98046858014183 Q 145.49790743118612 164.64390049563175 145.65782471607093 164.29635340729666 Q 145.81774200095575 163.94880631896157 146.21276983024038 163.66180180124064 Z" fill-opacity="1"/></g></g><g><g><path fill="rgb(0,0,0)" stroke="none" paint-order="stroke fill markers" d=" M 135.6849140396609 170.1072893067849 L 135.6849140396609 170.1072893067849 Q 136.1344778783627 169.87822508979392 136.53124758892676 169.8861316536573 Q 136.9280172994908 169.8940382175207 137.2260177880547 170.07557265671937 Q 137.5240182766186 170.25710709591806 137.6681070582742 170.53989725252083 L 137.6681070582742 170.53989725252083 Q 137.80111208749477 170.80093432015414 137.77253996424992 171.1123317589626 Q 137.7439678410051 171.42372919777105 137.51878908523395 171.72570054774707 Q 137.29361032946284 172.02767189772308 136.82229340179157 172.2678198671491 L 136.82229340179157 172.2678198671491 Q 136.3509764741203 172.50796783657512 135.97247247633103 172.5090214558072 Q 135.59396847854174 172.51007507503925 135.32340109379837 172.3465300713482 Q 135.05283370905497 172.18298506765717 134.9161340956894 171.91469697036737 L 134.9161340956894 171.91469697036737 Q 134.77573989817878 171.6391578434211 134.80047929864506 171.30231273149818 Q 134.82521869911133 170.96546761957526 135.03753547969168 170.64721598753056 Q 135.24985226027204 170.32896435548585 135.6849140396609 170.1072893067849 Z" fill-opacity="1"/></g></g><g><g><path fill="rgb(0,0,0)" stroke="none" paint-order="stroke fill markers" d=" M 124.2783772339852 174.82650267684258 L 124.2783772339852 174.82650267684258 Q 124.75823973406902 174.6705858990818 125.14888769200616 174.74046357744007 Q 125.53953564994329 174.81034125579836 125.80546901510708 175.0362582518216 Q 126.07140238027087 175.26217524784485 126.16947906305589 175.56402423983306 L 126.16947906305589 175.56402423983306 Q 126.26001138562667 175.8426540785914 126.1830777408768 176.14574803337882 Q 126.10614409612693 176.44884198816627 125.83649893791107 176.71186985153386 Q 125.56685377969524 176.97489771490146 125.06377212638156 177.1383588528765 L 125.06377212638156 177.1383588528765 Q 124.56069047306788 177.30181999085153 124.18668166522183 177.2436495678727 Q 123.81267285737577 177.18547914489386 123.57102068128184 176.98162158749597 Q 123.32936850518789 176.77776403009807 123.23632139587903 176.49139447359644 L 123.23632139587903 176.49139447359644 Q 123.14075949983209 176.1972851993515 123.21788850211102 175.86845730459615 Q 123.29501750438995 175.53962940984079 123.55450583688895 175.25850964548403 Q 123.81399416938795 174.97738988112724 124.2783772339852 174.82650267684258 Z" fill-opacity="1"/></g></g><g><g><path fill="rgb(0,0,0)" stroke="none" paint-order="stroke fill markers" d=" M 110.77649499358142 176.25957455245506 L 110.77649499358142 176.25957455245506 Q 111.28287817601546 176.1793713355155 111.60442870116842 176.2067176272766 Q 111.92597922632137 176.2340639190377 112.34394629753676 176.1678644383892 L 112.34394629753676 176.1678644383892 Q 112.56900548972966 176.1322185641938 113.23399853082398 175.96097831526689 L 113.23399853082398 175.96097831526689 Q 114.23276115940101 175.7121557701691 114.53819863451994 175.66377922661826 L 114.53819863451994 175.66377922661826 Q 114.8757874228093 175.6103104153252 115.07560963698407 175.8835217903761 Q 115.27543185115884 176.15673316542703 115.33781213100073 176.5505867517646 L 115.33781213100073 176.5505867517646 Q 115.39128094229378 176.88817554005396 115.34427689992928 177.24167766503766 Q 115.29727285756478 177.59517979002138 115.14402976688396 177.85015605519968 Q 114.99078667620314 178.10513232037798 114.73357617083983 178.14587046231554 L 114.73357617083983 178.14587046231554 Q 114.28640334700442 178.1837378306003 113.91253215105193 178.00812853555414 Q 113.53866095509945 177.832519240508 113.03395026628027 177.871260249049 L 113.03395026628027 177.871260249049 Q 112.75262627603914 177.9158175917932 112.69104400471784 178.74951749403897 Q 112.62946173339652 179.5832173962847 112.73160623583088 180.85239541315747 Q 112.83375073826525 182.12157343003022 113.04889905037298 183.47996641148026 L 113.04889905037298 183.47996641148026 Q 113.26277429554517 184.83032156463767 113.55782667700203 186.06894597505726 Q 113.85287905845888 187.30757038547685 114.16907471688994 188.0814361417518 Q 114.485270375321 188.85530189802677 114.76659436556213 188.81074455528258 L 114.76659436556213 188.81074455528258 Q 115.234460900148 188.69544446462217 115.54909709014866 188.4190257748792 Q 115.86373328014933 188.14260708513623 116.31552415815 188.02985312834693 L 116.31552415815 188.02985312834693 Q 116.56469683522072 187.99038805334493 116.78521276014597 188.1861667060202 Q 117.00572868507122 188.38194535869548 117.1596703500218 188.7036208102905 Q 117.31361201497239 189.02529626188547 117.3658077593299 189.35484722188224 L 117.3658077593299 189.35484722188224 Q 117.42818803917179 189.7487008082198 117.32257277822762 190.07028872682156 Q 117.21695751728346 190.39187664542334 116.87936872899411 190.44534545671638 L 116.87936872899411 190.44534545671638 Q 116.57393125387516 190.49372200026724 115.54716115271607 190.56571232292774 L 115.54716115271607 190.56571232292774 Q 114.86179904065297 190.608347319173 114.63673984846007 190.64399319336837 L 114.63673984846007 190.64399319336837 Q 114.21877277724468 190.7101926740169 113.92141052386715 190.83556511981527 Q 113.62404827048962 190.96093756561362 113.11766508805559 191.04114078255319 L 113.11766508805559 191.04114078255319 Q 112.65147104708458 191.11497866481503 112.19809520846229 191.00963790410813 Q 111.74471936984 190.90429714340124 111.41541826272733 190.59391697433534 Q 111.08611715561466 190.28353680526942 111.0008216709329 189.74500230966498 L 111.0008216709329 189.74500230966498 Q 110.9358952572199 189.33507306674218 110.82498886003192 188.32270612855345 L 110.82498886003192 188.32270612855345 Q 110.51191467297578 185.6697485784173 110.2356591479617 183.9255398389223 L 110.2356591479617 183.9255398389223 Q 109.91739241407451 181.9160827657714 109.40130059940911 179.38591413411373 L 109.40130059940911 179.38591413411373 Q 109.22362022890682 178.52419401319028 109.16378608293603 178.1464160834379 L 109.16378608293603 178.1464160834379 Q 109.07849059825426 177.60788158783345 109.29576181503865 177.21093286715023 Q 109.51303303182303 176.81398414646702 109.91166699221672 176.57369829059195 Q 110.31030095261042 176.3334124347169 110.77649499358142 176.25957455245506 Z" fill-opacity="1"/></g></g><g><g><path fill="rgb(0,0,0)" stroke="none" paint-order="stroke fill markers" d=" M 97.47721354166669 177.00650787353516 L 97.47721354166669 177.00650787353516 Q 97.78645833333334 177.00650787353516 98.81184895833334 177.0960261027018 L 98.81184895833334 177.0960261027018 Q 99.49544270833334 177.1611302693685 99.72330729166669 177.1611302693685 L 99.72330729166669 177.1611302693685 Q 100.14648437500001 177.1611302693685 100.45979817708334 177.0838190714518 Q 100.77311197916669 177.00650787353516 101.28580729166669 177.00650787353516 L 101.28580729166669 177.00650787353516 Q 101.75781250000001 177.00650787353516 102.18912760416669 177.1814753214518 Q 102.62044270833334 177.3564427693685 102.89713541666669 177.71451568603516 Q 103.17382812500001 178.0725886027018 103.17382812500001 178.61783599853516 L 103.17382812500001 178.61783599853516 Q 103.17382812500001 179.0003229777018 103.13313802083334 179.8792292277018 L 103.13313802083334 179.8792292277018 Q 103.01920572916669 182.4589818318685 103.01920572916669 184.4934870402018 L 103.01920572916669 184.4934870402018 Q 103.01920572916669 186.25943756103516 103.12500000000001 188.9287083943685 L 103.12500000000001 188.9287083943685 Q 103.17382812500001 189.94596099853516 103.17382812500001 190.36100006103516 L 103.17382812500001 190.36100006103516 Q 103.17382812500001 190.9062474568685 102.89713541666669 191.26432037353516 Q 102.62044270833334 191.6223932902018 102.18912760416669 191.7973607381185 Q 101.75781250000001 191.97232818603516 101.28580729166669 191.97232818603516 L 101.28580729166669 191.97232818603516 Q 100.77311197916669 191.97232818603516 100.45979817708334 191.8950169881185 Q 100.14648437500001 191.8177057902018 99.72330729166669 191.8177057902018 L 99.72330729166669 191.8177057902018 Q 99.49544270833334 191.8177057902018 98.81184895833334 191.8828099568685 L 98.81184895833334 191.8828099568685 Q 97.78645833333334 191.97232818603516 97.47721354166669 191.97232818603516 L 97.47721354166669 191.97232818603516 Q 97.13541666666669 191.97232818603516 96.98079427083334 191.6712214152018 Q 96.82617187500001 191.3701146443685 96.82617187500001 190.97135162353516 L 96.82617187500001 190.97135162353516 Q 96.82617187500001 190.6376927693685 96.92789713541669 190.2958958943685 Q 97.02962239583334 189.9540990193685 97.21679687500001 189.72623443603516 Q 97.40397135416669 189.4983698527018 97.65625000000001 189.4983698527018 L 97.65625000000001 189.4983698527018 Q 98.12011718750001 189.5390599568685 98.47412109375001 189.76285552978516 Q 98.82812500000001 189.9866511027018 99.30826822916669 190.0273412068685 L 99.30826822916669 190.0273412068685 Q 99.59309895833334 190.0273412068685 99.78434244791669 189.21353912353516 Q 99.97558593750001 188.3997370402018 100.07324218750001 187.1302057902018 Q 100.17089843750001 185.8606745402018 100.17089843750001 184.4934870402018 L 100.17089843750001 184.4934870402018 Q 100.17089843750001 183.1181615193685 100.07324218750001 181.8486302693685 Q 99.97558593750001 180.5790990193685 99.78434244791669 179.76529693603516 Q 99.59309895833334 178.9514948527018 99.30826822916669 178.9514948527018 L 99.30826822916669 178.9514948527018 Q 98.80371093750001 178.9921849568685 98.46191406250001 179.2241185506185 Q 98.12011718750001 179.4560521443685 97.67252604166669 179.4886042277018 L 97.67252604166669 179.4886042277018 Q 97.41210937500001 179.4886042277018 97.22086588541669 179.2607396443685 Q 97.02962239583334 179.03287506103516 96.92789713541669 178.69107818603516 Q 96.82617187500001 178.34928131103516 96.82617187500001 178.00748443603516 L 96.82617187500001 178.00748443603516 Q 96.82617187500001 177.6087214152018 96.98079427083334 177.3076146443685 Q 97.13541666666669 177.00650787353516 97.47721354166669 177.00650787353516 Z" fill-opacity="1"/></g></g><g><g><path fill="rgb(0,0,0)" stroke="none" paint-order="stroke fill markers" d=" M 87.66167116816484 177.69305468058732 L 87.66167116816484 177.69305468058732 Q 88.16001652230628 177.77198483059135 88.4763625993706 178.0115967595498 Q 88.79270867643494 178.25120868850829 88.927092869871 178.57323342723816 Q 89.06147706330705 178.89525816596804 89.01182745282065 179.2087334693796 L 89.01182745282065 179.2087334693796 Q 88.96599704314089 179.49809528791334 88.75984688773718 179.7332268352442 Q 88.55369673233348 179.96835838257508 88.19402898601167 180.08030158474818 Q 87.83436123968987 180.19224478692126 87.31190240067063 180.10949543611062 L 87.31190240067063 180.10949543611062 Q 86.7894435616514 180.02674608529995 86.48260809315487 179.80511941332998 Q 86.17577262465834 179.58349274136003 86.05300835353307 179.29214653552538 Q 85.93024408240781 179.0008003296907 85.97734755902312 178.70340068286436 L 85.97734755902312 178.70340068286436 Q 86.02572410257396 178.39796320774542 86.24373128707693 178.1399912424723 Q 86.46173847157988 177.88201927719916 86.82056997109426 177.74934497082677 Q 87.17940147060862 177.61667066445438 87.66167116816484 177.69305468058732 Z" fill-opacity="1"/></g></g><g><g><path fill="rgb(0,0,0)" stroke="none" paint-order="stroke fill markers" d=" M 75.65970502406851 174.806384382938 L 75.65970502406851 174.806384382938 Q 76.13956752415234 174.9623011606988 76.41453529213791 175.24845049853172 Q 76.68950306012349 175.53459983636466 76.77185699340764 175.8736822356014 Q 76.85421092669178 176.21276463483812 76.75613424390676 176.51461362682633 L 76.75613424390676 176.51461362682633 Q 76.66560192133598 176.79324346558468 76.42520713861107 176.99323116411094 Q 76.18481235588617 177.1932188626372 75.81206094140914 177.24751942674436 Q 75.43930952693213 177.30181999085156 74.93622787361845 177.13835885287654 L 74.93622787361845 177.13835885287654 Q 74.43314622030478 176.9748977149015 74.16475845545797 176.70799999266225 Q 73.89637069061118 176.441102270423 73.82069443923034 176.13413845676394 Q 73.7450181878495 175.82717464310485 73.83806529715835 175.54080508660323 L 73.83806529715835 175.54080508660323 Q 73.9336271932053 175.2466958123583 74.18930605388772 175.02600374734027 Q 74.44498491457014 174.80531168232224 74.8201534370207 174.7304044304878 Q 75.19532195947127 174.65549717865335 75.65970502406851 174.806384382938 Z" fill-opacity="1"/></g></g><g><g><path fill="rgb(0,0,0)" stroke="none" paint-order="stroke fill markers" d=" M 64.25707772308729 170.07773263362478 L 64.25707772308729 170.07773263362478 Q 64.7066415617891 170.30679685061577 64.93346040168241 170.6324376509505 Q 65.16027924157572 170.95807845128525 65.18857508755347 171.30586917700964 Q 65.21687093353121 171.65365990273406 65.07278215187559 171.9364500593368 L 65.07278215187559 171.9364500593368 Q 64.93977712265502 172.19748712697012 64.67105702998415 172.35740661583293 Q 64.40233693731328 172.51732610469574 64.0256802315965 172.51264697063542 Q 63.64902352587971 172.50796783657512 63.17770659820846 172.2678198671491 L 63.17770659820846 172.2678198671491 Q 62.706389670537206 172.02767189772308 62.48305820683858 171.7220750329188 Q 62.25972674313996 171.41647816811457 62.23300191196762 171.10145521447785 Q 62.20627708079529 170.78643226084117 62.342976694160875 170.51814416355137 L 62.342976694160875 170.51814416355137 Q 62.48337089167148 170.2426050366051 62.770425766433874 170.0646270429179 Q 63.05748064119628 169.88664904923064 63.439748292447355 169.87135331707725 Q 63.82201594369844 169.85605758492383 64.25707772308729 170.07773263362478 Z" fill-opacity="1"/></g></g><g><g><path fill="rgb(0,0,0)" stroke="none" paint-order="stroke fill markers" d=" M 53.69647039094227 161.54379498382636 L 53.69647039094227 161.54379498382636 Q 54.11124961169114 161.84514972743335 54.31928342017631 162.0918570326077 Q 54.527317228661474 162.338564337782 54.869674680708165 162.5873015864735 L 54.869674680708165 162.5873015864735 Q 55.054021001040994 162.7212370280766 55.645327231068954 163.07037297564796 L 55.645327231068954 163.07037297564796 Q 56.52750316748221 163.60066069415973 56.77768745936248 163.78243022204964 L 56.77768745936248 163.78243022204964 Q 57.05420693986173 163.9833333844543 57.00231296654062 164.31781864312478 Q 56.950418993219515 164.65230390179528 56.716031970414086 164.97490996237775 L 56.716031970414086 164.97490996237775 Q 56.515128808009436 165.251429442877 56.23192818117048 165.46815631551772 Q 55.948727554331526 165.68488318815844 55.66007287959194 165.75681940571724 Q 55.371418204852354 165.82875562327604 55.16073669590054 165.6756865471582 L 55.16073669590054 165.6756865471582 Q 54.817761486904345 165.3862638839617 54.67756915232254 164.99772250264684 Q 54.537376817740736 164.609181121332 54.15309843729002 164.27969080057997 L 54.15309843729002 164.27969080057997 Q 53.92266553687398 164.1122714985761 53.289605440869266 164.65824111127645 Q 52.65654534486456 165.20421072397684 51.8313280329332 166.17388217657273 Q 51.006110721001846 167.1435536291686 50.19771466275455 168.25621534832035 L 50.19771466275455 168.25621534832035 Q 49.39410201313593 169.36229327031734 48.72689583291843 170.4467665300016 Q 48.05968965270093 171.53123978968586 47.73606802296919 172.3020296079343 Q 47.41244639323745 173.07281942618272 47.64287929365349 173.2402387281866 L 47.64287929365349 173.2402387281866 Q 48.0552403689268 173.48954085150515 48.473179282446935 173.51656470509735 Q 48.89111819596706 173.54358855868958 49.290311676930884 173.78332386475074 L 49.290311676930884 173.78332386475074 Q 49.494409388727945 173.9316095322399 49.511901281683954 174.22597425103243 Q 49.529393174639964 174.52033896982493 49.41078747666961 174.8566510581827 Q 49.29218177869926 175.1929631465405 49.096062024923285 175.462898829885 L 49.096062024923285 175.462898829885 Q 48.861675002117856 175.78550489046745 48.559596736916475 175.93822062124804 Q 48.2575184717151 176.0909363520286 47.98099899121585 175.89003318962395 L 47.98099899121585 175.89003318962395 Q 47.730814699335575 175.708263661734 46.95387375275333 175.03313240581787 L 46.95387375275333 175.03313240581787 Q 46.43910206078429 174.5786557037706 46.25475574045146 174.4447202621675 L 46.25475574045146 174.4447202621675 Q 45.912398288404766 174.19598301347602 45.61347971597464 174.07436785424184 Q 45.31456114354451 173.95275269500763 44.89978192279564 173.65139795140067 L 44.89978192279564 173.65139795140067 Q 44.51792168782048 173.37396025093707 44.271823724135714 172.97888795478994 Q 44.02572576045095 172.58381565864278 44.012346636851674 172.13149269045883 Q 43.998967513252396 171.6791697222749 44.319455891374105 171.23805531290705 L 44.319455891374105 171.23805531290705 Q 44.5634097314369 170.9022816580151 45.200838592950646 170.1080074654442 L 45.200838592950646 170.1080074654442 Q 46.85538598617009 168.01070631086102 47.893385658594134 166.58202232828157 L 47.893385658594134 166.58202232828157 Q 49.08923781576469 164.93607303959556 50.513405190890545 162.78204162074013 L 50.513405190890545 162.78204162074013 Q 50.9970943370145 162.04707448488438 51.22191454256257 161.7376360186114 L 51.22191454256257 161.7376360186114 Q 51.54240292068428 161.29652160924354 51.9767220036076 161.16947042781 Q 52.41104108653091 161.04241924637648 52.862825621249016 161.15438826486962 Q 53.31461015596712 161.2663572833628 53.69647039094227 161.54379498382636 Z" fill-opacity="1"/></g></g><g><g><path fill="rgb(0,0,0)" stroke="none" paint-order="stroke fill markers" d=" M 43.76429667495494 152.6679445006989 L 43.76429667495494 152.6679445006989 Q 43.98296576418906 152.886613589933 44.644727481608115 153.67497320111917 L 44.644727481608115 153.67497320111917 Q 45.08206566007635 154.2043825750544 45.243190252143606 154.36550716712168 L 45.243190252143606 154.36550716712168 Q 45.542421637411344 154.66473855238942 45.81863522381234 154.83161759417334 Q 46.094848810213335 154.99849663595728 46.457379142364644 155.36102696810858 L 46.457379142364644 155.36102696810858 Q 46.791137225932516 155.69478505167646 46.97240239200816 156.12349155556967 Q 47.15366755808382 156.55219805946288 47.096123060916945 157.00104513736449 Q 47.03857856375007 157.44989221526612 46.65303043273202 157.83544034628417 L 46.65303043273202 157.83544034628417 Q 46.38257129604771 158.10589948296848 45.732318478062034 158.69860780378727 L 45.732318478062034 158.69860780378727 Q 43.827595621838505 160.44220606794357 42.38898319266666 161.8808184971154 L 42.38898319266666 161.8808184971154 Q 41.14026760414549 163.12953408563658 39.327615943388956 165.091801439027 L 39.327615943388956 165.091801439027 Q 38.64283642710316 165.84563435191302 38.3493594915521 166.1391112874641 L 38.3493594915521 166.1391112874641 Q 37.963811360534045 166.52465941848214 37.51496428263243 166.58220391564902 Q 37.06611720473081 166.6397484128159 36.6374107008376 166.45848324674023 Q 36.20870419694439 166.2772180806646 35.87494611337652 165.9434599970967 L 35.87494611337652 165.9434599970967 Q 35.512415781225215 165.58092966494542 35.34553673944128 165.3047160785444 Q 35.17865769765734 165.02850249214342 34.8794263123896 164.72927110687567 L 34.8794263123896 164.72927110687567 Q 34.71830172032235 164.56814651480843 34.188892346387114 164.13080833634018 L 34.188892346387114 164.13080833634018 Q 33.40053273520094 163.46904661892114 33.181863645966814 163.25037752968703 L 33.181863645966814 163.25037752968703 Q 32.94017675786594 163.00869064158616 33.04375685276632 162.68644145745165 Q 33.14733694766669 162.36419227331714 33.42930498378438 162.08222423719948 L 33.42930498378438 162.08222423719948 Q 33.66523742216856 161.8462917988153 33.97885493172802 161.676535532173 Q 34.29247244128749 161.50677926553072 34.58594937683854 161.4780070169473 Q 34.8794263123896 161.44923476836385 35.05781425360691 161.62762270958117 L 35.05781425360691 161.62762270958117 Q 35.35704563887465 161.9843985920158 35.44911683434165 162.39296452190058 Q 35.54118802980865 162.8015304517854 35.85192831450977 163.1698152336534 L 35.85192831450977 163.1698152336534 Q 36.053334054593826 163.37122097373745 36.764008594604725 162.93100557041086 Q 37.47468313461562 162.49079016708427 38.4414306870191 161.6621494078813 Q 39.40817823942258 160.8335086486783 40.374925791826065 159.86676109627481 L 40.374925791826065 159.86676109627481 Q 41.34742779394623 158.89425909415465 42.17606855314922 157.92751154175116 Q 43.004709312352205 156.9607639893477 43.44492471567879 156.2500894493368 Q 43.88514011900538 155.5394149093259 43.683734378921315 155.33800916924184 L 43.683734378921315 155.33800916924184 Q 43.29818624790326 155.01000553539066 42.892497542876804 154.93232046421537 Q 42.48680883785034 154.8546353930401 42.147296304565785 154.56115845748903 L 42.147296304565785 154.56115845748903 Q 41.963153913631785 154.37701606655503 41.98904893735688 154.08066190614565 Q 42.01494396108197 153.78430774573624 42.18470022772425 153.47069023617678 Q 42.35445649436653 153.15707272661732 42.596143382467396 152.91538583851644 L 42.596143382467396 152.91538583851644 Q 42.87811141858508 152.63341780239875 43.20036060271958 152.5298377074984 Q 43.52260978685407 152.42625761259802 43.76429667495494 152.6679445006989 Z" fill-opacity="1"/></g></g><g><g><path fill="rgb(0,0,0)" stroke="none" paint-order="stroke fill markers" d=" M 36.33819819875936 146.21276983024038 L 36.33819819875936 146.21276983024038 Q 36.63476953373766 146.62096525383453 36.689028770211884 147.0140869299482 Q 36.74328800668611 147.4072086060619 36.6106061046833 147.72993845699054 Q 36.47792420268049 148.05266830791916 36.22115611364547 148.23922124443777 L 36.22115611364547 148.23922124443777 Q 35.98413941607469 148.41142395507035 35.67210613165752 148.43191689383025 Q 35.36007284724035 148.45240983259018 35.02659354747779 148.2772421275563 Q 34.69311424771522 148.1020744225224 34.38219268685088 147.67412760746404 L 34.38219268685088 147.67412760746404 Q 34.071271125986534 147.24618079240568 34.01101940814584 146.87250162928146 Q 33.950767690305156 146.49882246615726 34.06997311952372 146.2060021397385 Q 34.18917854874229 145.91318181331974 34.43277904346782 145.7361956940585 L 34.43277904346782 145.7361956940585 Q 34.68296333534809 145.55442616616855 35.019531419858176 145.52616679867734 Q 35.35609950436826 145.49790743118612 35.70364659270334 145.65782471607093 Q 36.05119368103843 145.81774200095575 36.33819819875936 146.21276983024038 Z" fill-opacity="1"/></g></g><g><g><path fill="rgb(0,0,0)" stroke="none" paint-order="stroke fill markers" d=" M 29.892710693215108 135.6849140396609 L 29.892710693215108 135.6849140396609 Q 30.121774910206092 136.1344778783627 30.113868346342713 136.53124758892676 Q 30.105961782479334 136.9280172994908 29.92442734328064 137.2260177880547 Q 29.742892904081945 137.5240182766186 29.46010274747919 137.6681070582742 L 29.46010274747919 137.6681070582742 Q 29.19906567984588 137.80111208749477 28.887668241037428 137.77253996424992 Q 28.576270802228976 137.7439678410051 28.27429945225296 137.51878908523395 Q 27.972328102276947 137.29361032946284 27.732180132850914 136.82229340179157 L 27.732180132850914 136.82229340179157 Q 27.492032163424884 136.3509764741203 27.490978544192824 135.97247247633103 Q 27.489924924960768 135.59396847854174 27.65346992865181 135.32340109379837 Q 27.817014932342854 135.05283370905497 28.085303029632644 134.9161340956894 L 28.085303029632644 134.9161340956894 Q 28.36084215657892 134.77573989817878 28.697687268501827 134.80047929864506 Q 29.03453238042474 134.82521869911133 29.35278401246945 135.03753547969168 Q 29.67103564451416 135.24985226027204 29.892710693215108 135.6849140396609 Z" fill-opacity="1"/></g></g><g><g><path fill="rgb(0,0,0)" stroke="none" paint-order="stroke fill markers" d=" M 25.173497323157413 124.2783772339852 L 25.173497323157413 124.2783772339852 Q 25.32941410091821 124.75823973406902 25.259536422559925 125.14888769200616 Q 25.189658744201644 125.53953564994329 24.963741748178396 125.80546901510708 Q 24.737824752155145 126.07140238027087 24.435975760166937 126.16947906305589 L 24.435975760166937 126.16947906305589 Q 24.15734592140859 126.26001138562667 23.854251966621167 126.1830777408768 Q 23.55115801183374 126.10614409612693 23.288130148466138 125.83649893791107 Q 23.025102285098534 125.56685377969524 22.861641147123507 125.06377212638156 L 22.861641147123507 125.06377212638156 Q 22.698180009148476 124.56069047306788 22.756350432127302 124.18668166522183 Q 22.814520855106124 123.81267285737577 23.018378412504024 123.57102068128184 Q 23.22223596990192 123.32936850518789 23.508605526403553 123.23632139587903 L 23.508605526403553 123.23632139587903 Q 23.802714800648474 123.14075949983209 24.13154269540384 123.21788850211102 Q 24.460370590159204 123.29501750438995 24.74149035451599 123.55450583688895 Q 25.02261011887277 123.81399416938795 25.173497323157413 124.2783772339852 Z" fill-opacity="1"/></g></g><g><g><path fill="rgb(0,0,0)" stroke="none" paint-order="stroke fill markers" d=" M 23.74042544754495 110.77649499358142 L 23.74042544754495 110.77649499358142 Q 23.82062866448452 111.28287817601546 23.793282372723414 111.60442870116842 Q 23.765936080962305 111.92597922632137 23.83213556161084 112.34394629753676 L 23.83213556161084 112.34394629753676 Q 23.867781435806204 112.56900548972966 24.03902168473313 113.23399853082398 L 24.03902168473313 113.23399853082398 Q 24.287844229830913 114.23276115940101 24.33622077338177 114.53819863451994 L 24.33622077338177 114.53819863451994 Q 24.389689584674812 114.8757874228093 24.116478209623907 115.07560963698407 Q 23.843266834572997 115.27543185115884 23.449413248235416 115.33781213100073 L 23.449413248235416 115.33781213100073 Q 23.111824459946064 115.39128094229378 22.75832233496235 115.34427689992928 Q 22.404820209978638 115.29727285756478 22.149843944800338 115.14402976688396 Q 21.894867679622042 114.99078667620314 21.85412953768448 114.73357617083983 L 21.85412953768448 114.73357617083983 Q 21.816262169399714 114.28640334700442 21.991871464445868 113.91253215105193 Q 22.167480759492026 113.53866095509945 22.12873975095102 113.03395026628027 L 22.12873975095102 113.03395026628027 Q 22.084182408206814 112.75262627603914 21.250482505961052 112.69104400471784 Q 20.41678260371529 112.62946173339652 19.147604586842537 112.73160623583088 Q 17.87842656996978 112.83375073826525 16.520033588519762 113.04889905037298 L 16.520033588519762 113.04889905037298 Q 15.169678435362346 113.26277429554517 13.93105402494276 113.55782667700203 Q 12.692429614523174 113.85287905845888 11.918563858248206 114.16907471688994 Q 11.144698101973233 114.485270375321 11.18925544471744 114.76659436556213 L 11.18925544471744 114.76659436556213 Q 11.304555535377835 115.234460900148 11.580974225120809 115.54909709014866 Q 11.857392914863778 115.86373328014933 11.970146871653077 116.31552415815 L 11.970146871653077 116.31552415815 Q 12.009611946655088 116.56469683522072 11.813833293979807 116.78521276014597 Q 11.618054641304525 117.00572868507122 11.296379189709532 117.15967035002181 Q 10.974703738114536 117.3136120149724 10.645152778117788 117.3658077593299 L 10.645152778117788 117.3658077593299 Q 10.251299191780207 117.42818803917179 9.929711273178446 117.32257277822762 Q 9.608123354576682 117.21695751728346 9.554654543283634 116.87936872899411 L 9.554654543283634 116.87936872899411 Q 9.50627799973278 116.57393125387516 9.43428767707228 115.54716115271607 L 9.43428767707228 115.54716115271607 Q 9.391652680827015 114.86179904065297 9.35600680663165 114.63673984846007 L 9.35600680663165 114.63673984846007 Q 9.289807325983114 114.21877277724468 9.164434880184752 113.92141052386715 Q 9.039062434386388 113.62404827048962 8.958859217446816 113.11766508805559 L 8.958859217446816 113.11766508805559 Q 8.88502133518499 112.65147104708458 8.990362095891886 112.19809520846229 Q 9.095702856598779 111.74471936984 9.406083025664682 111.41541826272733 Q 9.716463194730586 111.08611715561466 10.254997690335033 111.0008216709329 L 10.254997690335033 111.0008216709329 Q 10.664926933257819 110.9358952572199 11.677293871446569 110.82498886003192 L 11.677293871446569 110.82498886003192 Q 14.330251421582702 110.51191467297579 16.074460161077695 110.2356591479617 L 16.074460161077695 110.2356591479617 Q 18.08391723422861 109.91739241407451 20.614085865886288 109.40130059940911 L 20.614085865886288 109.40130059940911 Q 21.475805986809743 109.22362022890682 21.853583916562112 109.16378608293603 L 21.853583916562112 109.16378608293603 Q 22.392118412166557 109.07849059825426 22.789067132849777 109.29576181503865 Q 23.186015853532997 109.51303303182303 23.426301709408058 109.91166699221672 Q 23.66658756528312 110.31030095261042 23.74042544754495 110.77649499358142 Z" fill-opacity="1"/></g></g><g><g><path fill="rgb(0,0,0)" stroke="none" paint-order="stroke fill markers" d=" M 22.993492126464844 97.47721354166669 L 22.993492126464844 97.47721354166669 Q 22.993492126464844 97.78645833333334 22.903973897298176 98.81184895833334 L 22.903973897298176 98.81184895833334 Q 22.83886973063151 99.49544270833334 22.83886973063151 99.72330729166669 L 22.83886973063151 99.72330729166669 Q 22.83886973063151 100.14648437500001 22.916180928548176 100.45979817708334 Q 22.993492126464844 100.77311197916669 22.993492126464844 101.28580729166669 L 22.993492126464844 101.28580729166669 Q 22.993492126464844 101.75781250000001 22.81852467854818 102.18912760416669 Q 22.64355723063151 102.62044270833334 22.285484313964844 102.89713541666669 Q 21.92741139729818 103.17382812500001 21.382164001464844 103.17382812500001 L 21.382164001464844 103.17382812500001 Q 20.99967702229818 103.17382812500001 20.12077077229818 103.13313802083334 L 20.12077077229818 103.13313802083334 Q 17.54101816813151 103.01920572916669 15.506512959798178 103.01920572916669 L 15.506512959798178 103.01920572916669 Q 13.740562438964844 103.01920572916669 11.07129160563151 103.12500000000001 L 11.07129160563151 103.12500000000001 Q 10.054039001464844 103.17382812500001 9.638999938964844 103.17382812500001 L 9.638999938964844 103.17382812500001 Q 9.09375254313151 103.17382812500001 8.735679626464842 102.89713541666669 Q 8.377606709798176 102.62044270833334 8.20263926188151 102.18912760416669 Q 8.027671813964842 101.75781250000001 8.027671813964842 101.28580729166669 L 8.027671813964842 101.28580729166669 Q 8.027671813964842 100.77311197916669 8.10498301188151 100.45979817708336 Q 8.182294209798176 100.14648437500001 8.182294209798176 99.72330729166669 L 8.182294209798176 99.72330729166669 Q 8.182294209798176 99.49544270833334 8.11719004313151 98.81184895833334 L 8.11719004313151 98.81184895833334 Q 8.027671813964842 97.78645833333334 8.027671813964842 97.47721354166669 L 8.027671813964842 97.47721354166669 Q 8.027671813964842 97.13541666666669 8.328778584798176 96.98079427083334 Q 8.62988535563151 96.82617187500001 9.028648376464844 96.82617187500001 L 9.028648376464844 96.82617187500001 Q 9.36230723063151 96.82617187500001 9.70410410563151 96.92789713541669 Q 10.04590098063151 97.02962239583334 10.273765563964844 97.21679687500001 Q 10.501630147298176 97.40397135416669 10.501630147298176 97.65625000000001 L 10.501630147298176 97.65625000000001 Q 10.46094004313151 98.12011718750001 10.237144470214844 98.47412109375001 Q 10.013348897298176 98.82812500000001 9.97265879313151 99.30826822916669 L 9.97265879313151 99.30826822916669 Q 9.97265879313151 99.59309895833334 10.786460876464844 99.78434244791669 Q 11.600262959798176 99.97558593750001 12.869794209798176 100.07324218750001 Q 14.139325459798176 100.17089843750001 15.506512959798176 100.17089843750001 L 15.506512959798176 100.17089843750001 Q 16.881838480631508 100.17089843750001 18.15136973063151 100.07324218750001 Q 19.42090098063151 99.97558593750001 20.234703063964844 99.78434244791669 Q 21.048505147298176 99.59309895833334 21.048505147298176 99.30826822916669 L 21.048505147298176 99.30826822916669 Q 21.00781504313151 98.80371093750001 20.77588144938151 98.46191406250001 Q 20.54394785563151 98.12011718750001 20.511395772298176 97.67252604166669 L 20.511395772298176 97.67252604166669 Q 20.511395772298176 97.41210937500001 20.739260355631508 97.22086588541669 Q 20.967124938964844 97.02962239583334 21.308921813964844 96.92789713541669 Q 21.650718688964844 96.82617187500001 21.992515563964844 96.82617187500001 L 21.992515563964844 96.82617187500001 Q 22.391278584798176 96.82617187500001 22.69238535563151 96.98079427083334 Q 22.993492126464844 97.13541666666669 22.993492126464844 97.47721354166669 Z" fill-opacity="1"/></g></g><g><g><path fill="rgb(0,0,0)" stroke="none" paint-order="stroke fill markers" d=" M 22.3069453194127 87.66167116816486 L 22.3069453194127 87.66167116816486 Q 22.22801516940868 88.1600165223063 21.988403240450197 88.47636259937062 Q 21.74879131149172 88.79270867643496 21.426766572761835 88.92709286987102 Q 21.104741834031955 89.06147706330707 20.791266530620412 89.01182745282067 L 20.791266530620412 89.01182745282067 Q 20.50190471208668 88.9659970431409 20.26677316475581 88.7598468877372 Q 20.031641617424942 88.55369673233349 19.91969841525184 88.19402898601169 Q 19.80775521307874 87.83436123968988 19.890504563889408 87.31190240067065 L 19.890504563889408 87.31190240067065 Q 19.973253914700077 86.78944356165141 20.194880586670028 86.48260809315488 Q 20.416507258639978 86.17577262465835 20.707853464474645 86.05300835353309 Q 20.999199670309316 85.93024408240782 21.29659931713565 85.97734755902313 L 21.29659931713565 85.97734755902313 Q 21.60203679225459 86.02572410257397 21.860008757527723 86.24373128707694 Q 22.117980722800855 86.46173847157989 22.25065502917324 86.82056997109427 Q 22.383329335545625 87.17940147060864 22.3069453194127 87.66167116816486 Z" fill-opacity="1"/></g></g><g><g><path fill="rgb(0,0,0)" stroke="none" paint-order="stroke fill markers" d=" M 25.193615617062015 75.65970502406851 L 25.193615617062015 75.65970502406851 Q 25.03769883930122 76.13956752415234 24.751549501468283 76.41453529213791 Q 24.465400163635344 76.68950306012349 24.126317764398614 76.77185699340764 Q 23.787235365161884 76.85421092669178 23.48538637317368 76.75613424390676 L 23.48538637317368 76.75613424390676 Q 23.20675653441533 76.66560192133598 23.006768835889076 76.42520713861107 Q 22.806781137362822 76.18481235588617 22.752480573255642 75.81206094140914 Q 22.698180009148462 75.43930952693213 22.861641147123493 74.93622787361845 L 22.861641147123493 74.93622787361845 Q 23.02510228509852 74.43314622030478 23.292000007337766 74.16475845545797 Q 23.558897729577012 73.89637069061118 23.865861543236083 73.82069443923034 Q 24.172825356895153 73.7450181878495 24.459194913396786 73.83806529715835 L 24.459194913396786 73.83806529715835 Q 24.753304187641707 73.9336271932053 24.973996252659745 74.18930605388772 Q 25.194688317677784 74.44498491457016 25.26959556951222 74.8201534370207 Q 25.34450282134666 75.19532195947127 25.193615617062015 75.65970502406851 Z" fill-opacity="1"/></g></g><g><g><path fill="rgb(0,0,0)" stroke="none" paint-order="stroke fill markers" d=" M 29.922267366375223 64.25707772308729 L 29.922267366375223 64.25707772308729 Q 29.69320314938424 64.7066415617891 29.3675623490495 64.93346040168241 Q 29.041921548714758 65.16027924157572 28.69413082299035 65.18857508755347 Q 28.34634009726594 65.21687093353121 28.063549940663187 65.07278215187559 L 28.063549940663187 65.07278215187559 Q 27.802512873029876 64.93977712265502 27.642593384167075 64.67105702998415 Q 27.48267389530427 64.40233693731328 27.48735302936457 64.0256802315965 Q 27.49203216342487 63.64902352587971 27.7321801328509 63.17770659820846 L 27.7321801328509 63.17770659820846 Q 27.97232810227693 62.706389670537206 28.277924967081187 62.48305820683858 Q 28.58352183188544 62.25972674313996 28.898544785522134 62.23300191196762 Q 29.213567739158826 62.20627708079529 29.48185583644862 62.342976694160875 L 29.48185583644862 62.342976694160875 Q 29.75739496339489 62.48337089167148 29.935372957082123 62.770425766433874 Q 30.11335095076935 63.05748064119628 30.128646682922763 63.439748292447355 Q 30.14394241507617 63.82201594369844 29.922267366375223 64.25707772308729 Z" fill-opacity="1"/></g></g><g><g><path fill="rgb(0,0,0)" stroke="none" paint-order="stroke fill markers" d=" M 38.45620501617364 53.696470390942274 L 38.45620501617364 53.696470390942274 Q 38.15485027256666 54.11124961169115 37.90814296739233 54.31928342017632 Q 37.661435662218 54.52731722866148 37.41269841352652 54.86967468070817 L 37.41269841352652 54.86967468070817 Q 37.27876297192341 55.054021001041 36.92962702435206 55.64532723106896 L 36.92962702435206 55.64532723106896 Q 36.399339305840286 56.527503167482216 36.21756977795036 56.77768745936249 L 36.21756977795036 56.77768745936249 Q 36.0166666155457 57.054206939861736 35.68218135687521 57.00231296654063 Q 35.34769609820472 56.95041899321952 35.02509003762226 56.71603197041409 L 35.02509003762226 56.71603197041409 Q 34.74857055712301 56.51512880800944 34.53184368448229 56.23192818117049 Q 34.31511681184157 55.94872755433153 34.24318059428277 55.660072879591944 Q 34.17124437672397 55.37141820485236 34.3243134528418 55.160736695900546 L 34.3243134528418 55.160736695900546 Q 34.6137361160383 54.81776148690435 35.002277497353155 54.67756915232255 Q 35.390818878668014 54.53737681774074 35.720309199420036 54.153098437290026 L 35.720309199420036 54.153098437290026 Q 35.887728501423915 53.922665536873986 35.34175888872354 53.28960544086927 Q 34.79578927602317 52.65654534486457 33.82611782342729 51.83132803293321 Q 32.85644637083141 51.00611072100185 31.74378465167966 50.19771466275456 L 31.74378465167966 50.19771466275456 Q 30.637706729682662 49.394102013135935 29.553233469998403 48.72689583291844 Q 28.468760210314148 48.05968965270094 27.697970392065713 47.7360680229692 Q 26.927180573817274 47.41244639323746 26.759761271813396 47.6428792936535 L 26.759761271813396 47.6428792936535 Q 26.510459148494867 48.05524036892681 26.483435294902648 48.47317928244694 Q 26.456411441310433 48.89111819596707 26.216676135249266 49.290311676930884 L 26.216676135249266 49.290311676930884 Q 26.068390467760118 49.49440938872795 25.774025748967595 49.51190128168396 Q 25.47966103017507 49.52939317463998 25.14334894181729 49.410787476669626 Q 24.807036853459515 49.292181778699266 24.537101170115008 49.0960620249233 L 24.537101170115008 49.0960620249233 Q 24.21449510953255 48.86167500211786 24.061779378751982 48.55959673691649 Q 23.909063647971415 48.25751847171511 24.10996681037607 47.980998991215856 L 24.10996681037607 47.980998991215856 Q 24.29173633826599 47.73081469933558 24.96686759418214 46.95387375275334 L 24.96686759418214 46.95387375275334 Q 25.4213442962294 46.4391020607843 25.555279737832503 46.254755740451465 L 25.555279737832503 46.254755740451465 Q 25.80401698652398 45.91239828840477 25.92563214575818 45.61347971597465 Q 26.047247304992375 45.31456114354452 26.348602048599354 44.89978192279565 L 26.348602048599354 44.89978192279565 Q 26.626039749062922 44.51792168782049 27.02111204521008 44.27182372413573 Q 27.416184341357233 44.02572576045096 27.86850730954117 44.01234663685168 Q 28.3208302777251 43.9989675132524 28.761944687092953 44.31945589137411 L 28.761944687092953 44.31945589137411 Q 29.097718341984898 44.563409731436906 29.89199253455581 45.200838592950646 L 29.89199253455581 45.200838592950646 Q 31.989293689138986 46.85538598617009 33.41797767171845 47.89338565859414 L 33.41797767171845 47.89338565859414 Q 35.06392696040445 49.0892378157647 37.21795837925986 50.51340519089055 L 37.21795837925986 50.51340519089055 Q 37.95292551511563 50.99709433701451 38.2623639813886 51.22191454256258 L 38.2623639813886 51.22191454256258 Q 38.70347839075645 51.54240292068429 38.830529572189995 51.976722003607605 Q 38.95758075362354 52.411041086530915 38.845611735130376 52.86282562124902 Q 38.73364271663721 53.314610155967124 38.45620501617364 53.696470390942274 Z" fill-opacity="1"/></g></g><g><g><path fill="rgb(0,0,0)" stroke="none" paint-order="stroke fill markers" d=" M 47.332055499301106 43.76429667495495 L 47.332055499301106 43.76429667495495 Q 47.11338641006699 43.98296576418907 46.32502679888081 44.64472748160812 L 46.32502679888081 44.64472748160812 Q 45.795617424945576 45.08206566007636 45.63449283287832 45.24319025214361 L 45.63449283287832 45.24319025214361 Q 45.33526144761058 45.54242163741135 45.16838240582665 45.81863522381235 Q 45.00150336404271 46.09484881021334 44.6389730318914 46.45737914236465 L 44.6389730318914 46.45737914236465 Q 44.30521494832354 46.79113722593252 43.87650844443033 46.97240239200817 Q 43.44780194053711 47.153667558083825 42.9989548626355 47.09612306091695 Q 42.55010778473388 47.03857856375008 42.16455965371583 46.653030432732024 L 42.16455965371583 46.653030432732024 Q 41.89410051703152 46.382571296047715 41.30139219621272 45.73231847806204 L 41.30139219621272 45.73231847806204 Q 39.557793932056434 43.82759562183851 38.11918150288458 42.388983192666664 L 38.11918150288458 42.388983192666664 Q 36.870465914363415 41.14026760414549 34.90819856097301 39.32761594338896 L 34.90819856097301 39.32761594338896 Q 34.154365648086966 38.64283642710316 33.86088871253591 38.34935949155211 L 33.86088871253591 38.34935949155211 Q 33.47534058151785 37.96381136053405 33.417796084350975 37.514964282632434 Q 33.3602515871841 37.066117204730816 33.54151675325976 36.637410700837606 Q 33.722781919335404 36.208704196944396 34.056540002903276 35.874946113376524 L 34.056540002903276 35.874946113376524 Q 34.419070335054585 35.51241578122522 34.69528392145558 35.345536739441286 Q 34.97149750785657 35.17865769765735 35.270728893124314 34.87942631238961 L 35.270728893124314 34.87942631238961 Q 35.43185348519157 34.71830172032236 35.869191663659805 34.18889234638712 L 35.869191663659805 34.18889234638712 Q 36.53095338107886 33.40053273520094 36.74962247031298 33.18186364596683 L 36.74962247031298 33.18186364596683 Q 36.99130935841385 32.940176757865956 37.31355854254834 33.04375685276632 Q 37.635807726682835 33.1473369476667 37.91777576280052 33.429304983784384 L 37.91777576280052 33.429304983784384 Q 38.1537082011847 33.665237422168566 38.32346446782698 33.97885493172803 Q 38.49322073446926 34.292472441287494 38.5219929830527 34.58594937683855 Q 38.550765231636134 34.879426312389604 38.372377290418825 35.057814253606914 L 38.372377290418825 35.057814253606914 Q 38.01560140798421 35.35704563887466 37.607035478099405 35.44911683434166 Q 37.1984695482146 35.54118802980866 36.830184766346605 35.85192831450978 L 36.830184766346605 35.85192831450978 Q 36.62877902626254 36.05333405459383 37.06899442958913 36.76400859460473 Q 37.509209832915715 37.474683134615624 38.3378505921187 38.44143068701911 Q 39.16649135132169 39.40817823942259 40.13323890372517 40.37492579182607 L 40.13323890372517 40.37492579182607 Q 41.10574090584534 41.34742779394624 42.07248845824883 42.17606855314923 Q 43.03923601065231 43.00470931235221 43.7499105506632 43.444924715678795 Q 44.460585090674094 43.885140119005385 44.66199083075816 43.68373437892132 L 44.66199083075816 43.68373437892132 Q 44.98999446460934 43.29818624790327 45.06767953578461 42.89249754287681 Q 45.145364606959895 42.48680883785035 45.43884154251095 42.14729630456579 L 45.43884154251095 42.14729630456579 Q 45.62298393344495 41.96315391363179 45.91933809385435 41.989048937356884 Q 46.21569225426375 42.01494396108198 46.529309763823214 42.18470022772426 Q 46.84292727338268 42.35445649436654 47.08461416148355 42.5961433824674 L 47.08461416148355 42.5961433824674 Q 47.36658219760123 42.878111418585085 47.470162292501605 43.200360602719584 Q 47.57374238740198 43.522609786854076 47.332055499301106 43.76429667495495 Z" fill-opacity="1"/></g></g><g><g><path fill="rgb(0,0,0)" stroke="none" paint-order="stroke fill markers" d=" M 53.7872301697596 36.33819819875936 L 53.7872301697596 36.33819819875936 Q 53.379034746165466 36.63476953373766 52.98591307005179 36.689028770211884 Q 52.5927913939381 36.74328800668611 52.270061543009454 36.6106061046833 Q 51.947331692080816 36.47792420268049 51.76077875556221 36.22115611364547 L 51.76077875556221 36.22115611364547 Q 51.588576044929646 35.98413941607469 51.56808310616972 35.67210613165752 Q 51.54759016740981 35.36007284724035 51.7227578724437 35.02659354747779 Q 51.89792557747759 34.69311424771522 52.32587239253595 34.38219268685088 L 52.32587239253595 34.38219268685088 Q 52.75381920759431 34.071271125986534 53.12749837071852 34.01101940814584 Q 53.50117753384272 33.950767690305156 53.79399786026149 34.06997311952372 Q 54.086818186680254 34.18917854874229 54.2638043059415 34.43277904346782 L 54.2638043059415 34.43277904346782 Q 54.445573833831425 34.68296333534809 54.47383320132265 35.019531419858176 Q 54.50209256881387 35.35609950436825 54.34217528392906 35.70364659270334 Q 54.18225799904424 36.05119368103843 53.7872301697596 36.33819819875936 Z" fill-opacity="1"/></g></g><g><g><path fill="rgb(0,0,0)" stroke="none" paint-order="stroke fill markers" d=" M 64.3150859603391 29.892710693215108 L 64.3150859603391 29.892710693215108 Q 63.86552212163729 30.121774910206092 63.468752411073254 30.113868346342713 Q 63.07198270050921 30.105961782479334 62.77398221194532 29.92442734328064 Q 62.475981723381416 29.742892904081945 62.3318929417258 29.46010274747919 L 62.3318929417258 29.46010274747919 Q 62.19888791250523 29.19906567984588 62.22746003575007 28.887668241037428 Q 62.25603215899491 28.576270802228976 62.481210914766045 28.27429945225296 Q 62.70638967053718 27.972328102276947 63.17770659820843 27.732180132850914 L 63.17770659820843 27.732180132850914 Q 63.649023525879684 27.492032163424884 64.02752752366898 27.490978544192824 Q 64.40603152145826 27.489924924960768 64.67659890620165 27.65346992865181 Q 64.94716629094502 27.817014932342854 65.08386590431061 28.085303029632644 L 65.08386590431061 28.085303029632644 Q 65.22426010182122 28.36084215657892 65.19952070135494 28.697687268501827 Q 65.17478130088865 29.03453238042474 64.96246452030832 29.35278401246945 Q 64.75014773972796 29.67103564451416 64.3150859603391 29.892710693215108 Z" fill-opacity="1"/></g></g><g><g><path fill="rgb(0,0,0)" stroke="none" paint-order="stroke fill markers" d=" M 75.72162276601479 25.173497323157413 L 75.72162276601479 25.173497323157413 Q 75.24176026593096 25.32941410091821 74.85111230799383 25.259536422559925 Q 74.4604643500567 25.189658744201644 74.1945309848929 24.963741748178396 Q 73.92859761972912 24.737824752155145 73.8305209369441 24.43597576016694 L 73.8305209369441 24.43597576016694 Q 73.73998861437332 24.15734592140859 73.81692225912319 23.854251966621167 Q 73.89385590387306 23.551158011833742 74.16350106208891 23.288130148466138 Q 74.43314622030475 23.025102285098537 74.93622787361842 22.861641147123507 L 74.93622787361842 22.861641147123507 Q 75.4393095269321 22.698180009148476 75.81331833477816 22.756350432127302 Q 76.18732714262421 22.814520855106124 76.42897931871815 23.01837841250402 Q 76.6706314948121 23.22223596990192 76.76367860412095 23.508605526403553 L 76.76367860412095 23.508605526403553 Q 76.8592405001679 23.802714800648474 76.78211149788896 24.13154269540384 Q 76.70498249561004 24.460370590159204 76.44549416311104 24.74149035451599 Q 76.18600583061203 25.02261011887277 75.72162276601479 25.173497323157413 Z" fill-opacity="1"/></g></g><g><g><path fill="rgb(0,0,0)" stroke="none" paint-order="stroke fill markers" d=" M 89.22350500641856 23.74042544754495 L 89.22350500641856 23.74042544754495 Q 88.71712182398453 23.82062866448452 88.39557129883157 23.79328237272341 Q 88.07402077367861 23.765936080962305 87.65605370246323 23.83213556161084 L 87.65605370246323 23.83213556161084 Q 87.43099451027032 23.867781435806204 86.766001469176 24.03902168473313 L 86.766001469176 24.03902168473313 Q 85.76723884059898 24.287844229830913 85.46180136548004 24.33622077338177 L 85.46180136548004 24.33622077338177 Q 85.12421257719069 24.389689584674816 84.92439036301592 24.116478209623907 Q 84.72456814884114 23.843266834572997 84.66218786899925 23.449413248235416 L 84.66218786899925 23.449413248235416 Q 84.60871905770621 23.111824459946064 84.6557231000707 22.75832233496235 Q 84.70272714243521 22.404820209978638 84.85597023311603 22.149843944800338 Q 85.00921332379684 21.894867679622042 85.26642382916016 21.85412953768448 L 85.26642382916016 21.85412953768448 Q 85.71359665299556 21.816262169399714 86.08746784894805 21.991871464445868 Q 86.46133904490054 22.167480759492026 86.96604973371971 22.12873975095102 L 86.96604973371971 22.12873975095102 Q 87.24737372396085 22.084182408206814 87.30895599528215 21.250482505961052 Q 87.37053826660346 20.41678260371529 87.2683937641691 19.147604586842537 Q 87.16624926173473 17.87842656996978 86.951100949627 16.520033588519762 L 86.951100949627 16.520033588519762 Q 86.73722570445481 15.169678435362346 86.44217332299796 13.93105402494276 Q 86.1471209415411 12.692429614523174 85.83092528311005 11.918563858248206 Q 85.51472962467899 11.144698101973233 85.23340563443786 11.18925544471744 L 85.23340563443786 11.18925544471744 Q 84.76553909985199 11.304555535377835 84.45090290985132 11.580974225120809 Q 84.13626671985065 11.857392914863778 83.68447584184999 11.970146871653077 L 83.68447584184999 11.970146871653077 Q 83.43530316477927 12.009611946655088 83.21478723985402 11.813833293979808 Q 82.99427131492877 11.618054641304525 82.84032964997817 11.296379189709532 Q 82.68638798502758 10.974703738114536 82.63419224067009 10.645152778117788 L 82.63419224067009 10.645152778117788 Q 82.5718119608282 10.251299191780207 82.67742722177236 9.929711273178446 Q 82.78304248271652 9.608123354576682 83.12063127100588 9.554654543283634 L 83.12063127100588 9.554654543283634 Q 83.42606874612483 9.506277999732783 84.45283884728391 9.43428767707228 L 84.45283884728391 9.43428767707228 Q 85.13820095934702 9.391652680827015 85.36326015153992 9.35600680663165 L 85.36326015153992 9.35600680663165 Q 85.7812272227553 9.289807325983114 86.07858947613283 9.164434880184752 Q 86.37595172951036 9.039062434386388 86.8823349119444 8.958859217446816 L 86.8823349119444 8.958859217446816 Q 87.3485289529154 8.88502133518499 87.8019047915377 8.990362095891886 Q 88.25528063015999 9.095702856598779 88.58458173727266 9.406083025664682 Q 88.91388284438533 9.716463194730586 88.99917832906709 10.254997690335033 L 88.99917832906709 10.254997690335033 Q 89.06410474278009 10.664926933257819 89.17501113996805 11.677293871446567 L 89.17501113996805 11.677293871446567 Q 89.4880853270242 14.330251421582702 89.76434085203829 16.074460161077695 L 89.76434085203829 16.074460161077695 Q 90.08260758592547 18.08391723422861 90.59869940059087 20.614085865886288 L 90.59869940059087 20.614085865886288 Q 90.77637977109316 21.47580598680974 90.83621391706396 21.853583916562112 L 90.83621391706396 21.853583916562112 Q 90.92150940174572 22.392118412166557 90.70423818496134 22.789067132849777 Q 90.48696696817696 23.186015853532997 90.08833300778326 23.426301709408058 Q 89.68969904738957 23.66658756528312 89.22350500641856 23.74042544754495 Z" fill-opacity="1"/></g></g></g></g></svg>