<svg version="1.1" xmlns="http://www.w3.org/2000/svg" xmlns:xlink="http://www.w3.org/1999/xlink" width="200" height="200" viewBox="0 0 200 200"><defs/><g><g/><g><g><g><path fill="rgb(0,0,0)" stroke="none" paint-order="stroke fill markers" d=" M 100 21.333335876464844 L 100 21.333335876464844 Q 99.12923177083333 21.333335876464844 98.29915364583333 21.003746032714844 Q 97.46907552083333 20.674156188964844 96.80989583333333 20.010907491048176 Q 96.15071614583333 19.34765879313151 95.75602213541667 18.354820251464844 Q 95.361328125 17.361981709798176 95.361328125 16.043622334798176 L 95.361328125 16.043622334798176 Q 95.361328125 14.44043223063151 95.751953125 13.24414316813151 Q 96.142578125 12.04785410563151 96.8017578125 11.25439707438151 Q 97.4609375 10.46094004313151 98.28287760416667 10.07031504313151 Q 99.10481770833333 9.67969004313151 99.96744791666667 9.67969004313151 L 99.96744791666667 9.67969004313151 Q 100.83821614583333 9.67969004313151 101.67236328125 10.07031504313151 Q 102.50651041666667 10.46094004313151 103.173828125 11.22998301188151 Q 103.84114583333333 11.99902598063151 104.23990885416667 13.14648691813151 Q 104.638671875 14.29394785563151 104.638671875 15.80761973063151 L 104.638671875 15.80761973063151 Q 104.638671875 17.248049418131508 104.23583984375 18.293785095214844 Q 103.8330078125 19.339520772298176 103.16569010416667 20.014976501464844 Q 102.49837239583333 20.69043223063151 101.67236328125 21.011884053548176 Q 100.84635416666667 21.333335876464844 100 21.333335876464844 Z M 100.048828125 15.506512959798176 L 100.048828125 15.506512959798176 Q 100.30924479166667 15.506512959798176 100.54931640625 15.29492441813151 Q 100.78938802083333 15.083335876464844 100.94401041666667 14.664227803548176 Q 101.0986328125 14.24511973063151 101.0986328125 13.626630147298176 L 101.0986328125 13.626630147298176 Q 101.09049479166667 12.739585876464844 100.927734375 12.149579366048176 Q 100.76497395833333 11.55957285563151 100.51676432291667 11.262535095214844 Q 100.2685546875 10.965497334798176 100.00813802083333 10.965497334798176 L 100.00813802083333 10.965497334798176 Q 99.755859375 10.965497334798176 99.52799479166667 11.238121032714844 Q 99.30013020833333 11.51074473063151 99.15364583333333 12.06006113688151 Q 99.00716145833333 12.60937754313151 99.00716145833333 13.43945566813151 L 99.00716145833333 13.43945566813151 Q 99.01529947916667 14.481122334798176 99.31233723958333 14.993817647298176 Q 99.609375 15.506512959798176 100.048828125 15.506512959798176 Z" fill-opacity="1"/></g></g><g><g><path fill="rgb(0,0,0)" stroke="none" paint-order="stroke fill markers" d=" M 115.81802224744702 22.93856506640381 L 115.81802224744702 22.93856506640381 Q 114.86022412205324 22.748047173809937 114.33147855705998 22.29852879712589 Q 113.80273299206672 21.849010420441843 113.63772934657007 21.260259730862053 Q 113.47272570107341 20.67150904128226 113.59338703304954 20.0649035618662 L 113.59338703304954 20.0649035618662 Q 113.75215194354443 19.266738457371382 114.7702623797837 17.610623499013755 L 114.7702623797837 17.610623499013755 Q 115.20520977864187 16.883989415282052 115.57711949645305 16.161411265353124 Q 115.94902921426423 15.438833115424195 116.09350528281459 14.712502870333912 L 116.09350528281459 14.712502870333912 L 116.12208296670367 14.568833151524844 Q 116.2078160183709 14.137823995097644 116.2226382517467 13.813022884192499 Q 116.2374604851225 13.488221773287353 116.01397425586396 13.443767598348781 L 116.01397425586396 13.443767598348781 Q 115.82241463078519 13.405664019830008 115.36463246717487 13.663098557575331 L 115.36463246717487 13.663098557575331 Q 115.14131985999714 13.784627999955518 114.95774188596333 13.748112070541692 L 114.95774188596333 13.748112070541692 Q 114.6544391462553 13.68778140455363 114.50881283141956 13.314470184907137 Q 114.36318651658381 12.941158965260641 114.44098132272632 12.55005806405818 L 114.44098132272632 12.55005806405818 Q 114.544178514548 12.03125074613655 114.95894223300398 11.844085121450911 Q 115.37370595145997 11.656919496765273 115.82204903148099 11.530366673949018 L 115.82204903148099 11.530366673949018 Q 116.79052664540738 11.25005396593136 118.01171925528445 11.49296427898855 L 118.01171925528445 11.49296427898855 Q 118.4347467606667 11.577109681550844 118.78842939410235 11.7387335264254 Q 119.142112027538 11.900357371299958 119.33150720656036 12.157912948034603 Q 119.5209023855827 12.41546852476925 119.44469522854516 12.79858777492676 L 119.44469522854516 12.79858777492676 Q 119.39071515897689 13.069963910454998 119.09097836716059 13.36713308134425 L 119.09097836716059 13.36713308134425 Q 118.5951360305517 13.85762314849802 118.38556634869843 14.911201086431177 L 118.38556634869843 14.911201086431177 Q 118.16012017579568 16.044595534813816 118.2533198422192 17.41147039023565 Q 118.34651950864271 18.77834524565748 118.59812431621067 19.766004865403865 L 118.59812431621067 19.766004865403865 Q 118.768064531103 20.496794219167572 118.65057849733677 21.087436396493736 L 118.65057849733677 21.087436396493736 Q 118.51562832341611 21.76587673531433 118.0803987886766 22.222787440903055 Q 117.6451692539371 22.679698146491777 117.04687096696752 22.871843746093276 Q 116.44857267999792 23.06398934569478 115.81802224744702 22.93856506640381 Z" fill-opacity="1"/></g></g><g><g><path fill="rgb(0,0,0)" stroke="none" paint-order="stroke fill markers" d=" M 130.1044290395061 27.321479125325922 L 130.1044290395061 27.321479125325922 Q 129.2999440950179 26.98825055059395 128.659180477624 26.366092093823553 Q 128.01841686023008 25.74393363705316 127.66322852693207 24.87891459472534 Q 127.30804019363406 24.013895552397525 127.32333333671465 22.945589486023145 Q 127.33862647979525 21.877283419648762 127.84314077051094 20.65927817659189 L 127.84314077051094 20.65927817659189 Q 128.4566550623072 19.17812365262767 129.27534550923272 18.222382388584418 Q 130.09403595615825 17.266641124541167 131.00668143783966 16.78583955879997 Q 131.91932691952107 16.305037993058775 132.82818627447844 16.258690410932573 Q 133.73704562943584 16.21234282880637 134.53401202304096 16.542457117793184 L 134.53401202304096 16.542457117793184 Q 135.33849696752915 16.875685692525153 135.9596627172759 17.55579042379113 Q 136.58082846702268 18.23589515505711 136.9030496365167 19.20176964460996 Q 137.2252708060107 20.167644134162806 137.15456550921363 21.380359810188043 Q 137.08386021241654 22.593075486213277 136.50460306381706 23.99152595046376 L 136.50460306381706 23.99152595046376 Q 135.95337448692396 25.32230945676664 135.1810204999593 26.134286100855412 Q 134.40866651299456 26.946262744944185 133.5336596237349 27.31493103713575 Q 132.65865273447523 27.683599329327315 131.77250553291015 27.664482086074866 Q 130.8863583313451 27.645364842822417 130.1044290395061 27.321479125325922 Z M 132.37936893833808 21.956882407520823 L 132.37936893833808 21.956882407520823 Q 132.61996256659623 22.056539551365898 132.9227312470208 21.95292865788833 Q 133.2254999274454 21.849317764410763 133.52873811009937 21.521283823090823 Q 133.8319762927533 21.19324988177088 134.06866200938538 20.621840014657778 L 134.06866200938538 20.621840014657778 Q 134.4006006047246 19.799203682658305 134.47601530358725 19.191823028732767 Q 134.5514300024499 18.584442374807228 134.43578563021464 18.215029552347943 Q 134.32014125797937 17.845616729888654 134.07954762972125 17.74595958604358 L 134.07954762972125 17.74595958604358 Q 133.84647255234614 17.64941672794366 133.53162455515746 17.814088181661972 Q 133.21677655796876 17.97875963538028 132.87122835427536 18.430204676574455 Q 132.52568015058193 18.881649717768624 132.20802300457575 19.648541907841473 L 132.20802300457575 19.648541907841473 Q 131.81691298007854 20.61403070661922 131.89514008536548 21.20137084195074 Q 131.97336719065245 21.788710977282257 132.37936893833808 21.956882407520823 Z" fill-opacity="1"/></g></g><g><g><path fill="rgb(0,0,0)" stroke="none" paint-order="stroke fill markers" d=" M 144.1040814225921 34.8578125657806 L 144.1040814225921 34.8578125657806 Q 143.2920993793279 34.31526351009739 142.97562540922513 33.69762051473186 Q 142.65915143912238 33.07997751936634 142.73201308295398 32.47289864610025 Q 142.80487472678558 31.865819772834158 143.1484891287183 31.35156447876683 L 143.1484891287183 31.35156447876683 Q 143.60061334178764 30.674912776046657 145.17499249232068 29.534476058801026 L 145.17499249232068 29.534476058801026 Q 145.8549023170807 29.02960086470953 146.4750207798753 28.504349388692233 Q 147.09513924266992 27.979097912674938 147.50657227656302 27.363344863199583 L 147.50657227656302 27.363344863199583 L 147.5879546349155 27.24154755670995 Q 147.83210170997293 26.87615563724106 147.9700916719721 26.581750761882432 Q 148.1080816339713 26.287345886523802 147.91861915720963 26.16075110686439 L 147.91861915720963 26.16075110686439 Q 147.7562227485568 26.052241295727747 147.2347712447348 26.114894146466245 L 147.2347712447348 26.114894146466245 Q 146.98194999346808 26.141714675873637 146.82632010184244 26.037726106867687 L 146.82632010184244 26.037726106867687 Q 146.56919245480879 25.865918905901342 146.57751130201171 25.465295532809094 Q 146.58583014921464 25.06467215971685 146.80737101361862 24.733112825383966 L 146.80737101361862 24.733112825383966 Q 147.10125175211368 24.293289218615858 147.5560686460989 24.27909393217835 Q 148.0108855400841 24.264898645740843 148.47353020386942 24.319552551698962 L 148.47353020386942 24.319552551698962 Q 149.47555787831115 24.43119771552474 150.510834983473 25.122947761520823 L 150.510834983473 25.122947761520823 Q 150.8694603859147 25.362573594447575 151.13436976424194 25.64724304082403 Q 151.39927914256918 25.931912487200496 151.47569521989467 26.242341210211443 Q 151.55211129722014 26.5527699332224 151.33509167494685 26.87756275052808 L 151.33509167494685 26.87756275052808 Q 151.1813694425033 27.10762432945294 150.79072703709463 27.267468539832503 L 150.79072703709463 27.267468539832503 Q 150.1449260285097 27.530871626490544 149.5481220672582 28.42405187408117 L 149.5481220672582 28.42405187408117 Q 148.90610568469972 29.38489729194381 148.46913058765892 30.683390962614595 Q 148.03215549061812 31.981884633285382 147.88664704931867 32.99064813241662 L 147.88664704931867 32.99064813241662 Q 147.7639903573741 33.73084276366791 147.42941843970277 34.23156502368083 L 147.42941843970277 34.23156502368083 Q 147.04511285859385 34.806718970992975 146.46816104240455 35.06229428785091 Q 145.89120922621527 35.317869604708854 145.26492274697816 35.266430149407114 Q 144.63863626774105 35.214990694105374 144.1040814225921 34.8578125657806 Z" fill-opacity="1"/></g></g><g><g><path fill="rgb(0,0,0)" stroke="none" paint-order="stroke fill markers" d=" M 155.6257316550762 44.37426834492379 L 155.6257316550762 44.37426834492379 Q 155.01000553539066 43.75854222523824 154.65610687781438 42.93853314061029 Q 154.3022082202381 42.118524055982334 154.30508544509644 41.183425977020626 Q 154.3079626699548 40.248327898058925 154.7309147241313 39.267194221363724 Q 155.15386677830784 38.28606054466852 156.0860876324112 37.35383969056517 L 156.0860876324112 37.35383969056517 Q 157.21971422659863 36.22021309637775 158.34183192135265 35.65052257442569 Q 159.4639496161067 35.08083205247364 160.4911188905354 34.9858836321483 Q 161.5182881649641 34.890935211822956 162.37570117275052 35.19592104680739 Q 163.23311418053694 35.50090688179182 163.84308585050582 36.110878551760685 L 163.84308585050582 36.110878551760685 Q 164.45881197019136 36.72660467144624 164.77242947975083 37.592649353807694 Q 165.0860469893103 38.45869403616915 165.0141163678517 39.47435441116447 Q 164.9421857463931 40.4900147861598 164.41277637245787 41.583360232330406 Q 163.88336699852263 42.67670567850101 162.81303935121878 43.747033325804864 L 162.81303935121878 43.747033325804864 Q 161.7945017513651 44.76557092565854 160.77020970179476 45.22017245327684 Q 159.7459176522244 45.67477398089515 158.79643344897096 45.68052843061183 Q 157.84694924571755 45.68628288032852 157.03557183566463 45.3295069978939 Q 156.2241944256117 44.97273111545928 155.6257316550762 44.37426834492379 Z M 159.7804443505245 40.288609046075734 L 159.7804443505245 40.288609046075734 Q 159.9645867414585 40.472751437009734 160.28395870073464 40.49289201101814 Q 160.6033306600108 40.513032585026544 161.00901936503726 40.326012969234206 Q 161.41470807006374 40.13899335344186 161.85204624853196 39.701655174973624 L 161.85204624853196 39.701655174973624 Q 162.47352681793421 39.06866570613801 162.7756354280603 38.53637910734442 Q 163.07774403818638 38.00409250855084 163.11227073648652 37.618544377532785 Q 163.14679743478663 37.23299624651473 162.96265504385264 37.04885385558073 L 162.96265504385264 37.04885385558073 Q 162.78426710263534 36.87046591436342 162.43036844505906 36.9021153878052 Q 162.07646978748278 36.933764861246985 161.58446433670602 37.21861012222301 Q 161.09245888592923 37.50345538319904 160.50550501482712 38.09040925430115 L 160.50550501482712 38.09040925430115 Q 159.77468990080783 38.832733267753824 159.6221969833156 39.40530101456422 Q 159.46970406582338 39.97786876137462 159.7804443505245 40.288609046075734 Z" fill-opacity="1"/></g></g><g><g><path fill="rgb(0,0,0)" stroke="none" paint-order="stroke fill markers" d=" M 165.67569400564122 56.69436758661769 L 165.67569400564122 56.69436758661769 Q 165.13314494995802 55.88238554335348 165.07712286785022 55.19064847640318 Q 165.02110078574245 54.49891140945288 165.3207351941214 53.965926607771564 Q 165.62036960250032 53.43294180609025 166.13462489656766 53.08932740415755 L 166.13462489656766 53.08932740415755 Q 166.81127659928782 52.63720319108821 168.70223951022857 52.18606586707064 L 168.70223951022857 52.18606586707064 Q 169.5236016534686 51.97981223421475 170.297521446674 51.73185220791623 Q 171.07144123987945 51.48389218161771 171.6871942893548 51.072459147724615 L 171.6871942893548 51.072459147724615 L 171.80899159584445 50.99107678937213 Q 172.17438351531334 50.74692971431469 172.41453348510365 50.527741547989095 Q 172.65468345489396 50.308553381663494 172.52808867523453 50.119090904901846 L 172.52808867523453 50.119090904901846 Q 172.4195788640979 49.95669449624901 171.91384428455143 49.81502733140525 L 171.91384428455143 49.81502733140525 Q 171.67000413287076 49.74305576536627 171.56601556386482 49.58742587374063 L 171.56601556386482 49.58742587374063 Q 171.39420836289847 49.330298226706965 171.55520590306398 48.96335397706235 Q 171.71620344322946 48.59640972741773 172.04776277756235 48.37486886301375 L 172.04776277756235 48.37486886301375 Q 172.48758638433046 48.08098812451868 172.91321470466107 48.241924280008824 Q 173.33884302499166 48.402860435498965 173.74535581636428 48.63040050848823 L 173.74535581636428 48.63040050848823 Q 174.62838392129103 49.11700658003089 175.32013396728712 50.15228368519275 L 175.32013396728712 50.15228368519275 Q 175.55975980021387 50.510909087634445 175.6955658719919 50.87528579283695 Q 175.8313719437699 51.23966249803945 175.78317526433918 51.555704408291675 Q 175.73497858490845 51.8717463185439 175.41018576760277 52.08876594081718 L 175.41018576760277 52.08876594081718 Q 175.18012418867792 52.24248817326076 174.75804793471812 52.24067259109172 L 174.75804793471812 52.24067259109172 Q 174.06060560351352 52.23688796506527 173.1674253559229 52.8336919263168 L 173.1674253559229 52.8336919263168 Q 172.20657993806026 53.475708308875255 171.3059555748905 54.50813690430981 Q 170.40533121172072 55.54056549974435 169.88486186270438 56.4168577799816 L 169.88486186270438 56.4168577799816 Q 169.48828163338578 57.05376976599351 168.98755937337285 57.38834168366482 L 168.98755937337285 57.38834168366482 Q 168.4124054260607 57.77264726477375 167.78156701235523 57.787978167705305 Q 167.15072859864972 57.80330907063685 166.59180036630787 57.51611575120173 Q 166.032872133966 57.22892243176662 165.67569400564122 56.69436758661769 Z" fill-opacity="1"/></g></g><g><g><path fill="rgb(0,0,0)" stroke="none" paint-order="stroke fill markers" d=" M 172.67852087467406 69.8955709604939 L 172.67852087467406 69.8955709604939 Q 172.3452922999421 69.09108601600572 172.33213646470014 68.19806525325394 Q 172.31898062945817 67.30504449050218 172.6794853810703 66.44222758074332 Q 173.03999013268242 65.57941067098446 173.80621048177642 64.83481809224635 Q 174.57243083087042 64.09022551350824 175.79043607392728 63.58571122279255 L 175.79043607392728 63.58571122279255 Q 177.2715905978915 62.972196930996304 178.52630329347 62.87528736884521 Q 179.78101598904846 62.77837780669412 180.76633184550536 63.08373756806959 Q 181.75164770196224 63.38909732944506 182.42708100461047 63.99898525286722 Q 183.10251430725873 64.60887317628939 183.43262859624554 65.4058395698945 L 183.43262859624554 65.4058395698945 Q 183.7658571709775 66.21032451438268 183.72418101746905 67.13046169566468 Q 183.6825048639606 68.05059887694667 183.22737323661374 68.96142005227566 Q 182.7722416092669 69.87224122760465 181.8647259362672 70.6797645109423 Q 180.9572102632675 71.48728779427995 179.55875979901705 72.06654494287946 L 179.55875979901705 72.06654494287946 Q 178.22797629271417 72.61777351977253 177.10768535985468 72.6457909693136 Q 175.98739442699522 72.67380841885465 175.10798327259764 72.31577296329131 Q 174.22857211820005 71.95773750772797 173.6154893551853 71.31761888003042 Q 173.00240659217056 70.67750025233288 172.67852087467406 69.8955709604939 Z M 178.08048902142107 67.71085367225874 L 178.08048902142107 67.71085367225874 Q 178.18014616526614 67.95144730051689 178.46749991770807 68.09227312219325 Q 178.75485367015 68.23309894386959 179.20123046978597 68.21556569477221 Q 179.64760726942194 68.19803244567481 180.21901713653503 67.96134672904276 L 180.21901713653503 67.96134672904276 Q 181.03542489704418 67.6143710319374 181.51823412116337 67.23821429775207 Q 182.00104334528257 66.86205756356672 182.1804847372872 66.51907033193488 Q 182.3599261292918 66.17608310030305 182.26026898544671 65.93548947204489 L 182.26026898544671 65.93548947204489 Q 182.16372612734682 65.70241439466982 181.82465467189962 65.59622354240675 Q 181.48558321645243 65.49003269014369 180.92202388843253 65.56491306204668 Q 180.35846456041267 65.63979343394968 179.5915723703398 65.95745057995586 L 179.5915723703398 65.95745057995586 Q 178.6323121430524 66.36359770621922 178.27231486711744 66.83422481539617 Q 177.9123175911825 67.30485192457311 178.08048902142107 67.71085367225874 Z" fill-opacity="1"/></g></g><g><g><path fill="rgb(0,0,0)" stroke="none" paint-order="stroke fill markers" d=" M 177.1551062307882 84.65289516420492 L 177.1551062307882 84.65289516420492 Q 176.98522777655865 83.79885850239546 177.14654443517426 82.92043030706031 Q 177.30786109378985 82.04200211172518 177.82976607645227 81.26609497503104 Q 178.3516710591147 80.4901878383369 179.24843150500834 79.90938457185314 Q 180.145191950902 79.32858130536937 181.4382194201836 79.07138215036764 L 181.4382194201836 79.07138215036764 Q 183.01060467603838 78.7586152766927 184.26011453668332 78.90835010842271 Q 185.50962439732825 79.05808494015272 186.41643495171155 79.549802887061 Q 187.32324550609488 80.04152083396929 187.8667173158522 80.7714604324715 Q 188.41018912560958 81.50140003097371 188.57847993073418 82.34745504173821 L 188.57847993073418 82.34745504173821 Q 188.7483583849637 83.20149170354767 188.52797316806345 84.09581809269241 Q 188.3075879511632 84.99014448183715 187.68350915402144 85.79467270794058 Q 187.05943035687966 86.59920093404399 186.01181236568445 87.21416035904426 Q 184.96419437448927 87.82911978404452 183.4796072801289 88.12442251756504 L 183.4796072801289 88.12442251756504 Q 182.06685504517307 88.405436409141 180.96262425520226 88.21435759240201 Q 179.85839346523144 88.02327877566302 179.06572920189495 87.50055826568803 Q 178.27306493855843 86.97783775571304 177.79664333813065 86.23041231429629 Q 177.3202217377029 85.48298687287954 177.1551062307882 84.65289516420492 Z M 182.87949427360078 83.56402831133116 L 182.87949427360078 83.56402831133116 Q 182.93029904495913 83.8194411447695 183.18465762072378 84.0136209738668 Q 183.43901619648844 84.20780080296409 183.8802365582973 84.27768824391323 Q 184.32145692010616 84.34757568486238 184.92806239952222 84.22691435288625 L 184.92806239952222 84.22691435288625 Q 185.79647471431662 84.04587894940187 186.34339143297638 83.77114136839411 Q 186.89030815163613 83.49640378738634 187.1332151170758 83.1950142381848 Q 187.37612208251548 82.89362468898324 187.3253173111571 82.6382118555449 L 187.3253173111571 82.6382118555449 Q 187.27610018890368 82.3907806731515 186.96426070395935 82.22048068890874 Q 186.65242121901503 82.05018070466598 186.08508208959194 82.01367730044097 Q 185.51774296016885 81.97717389621596 184.70361455358415 82.13911410492075 L 184.70361455358415 82.13911410492075 Q 183.68355086893573 82.35031484139917 183.23865604543462 82.74166699815156 Q 182.79376122193352 83.13301915490395 182.87949427360078 83.56402831133116 Z" fill-opacity="1"/></g></g><g><g><path fill="rgb(0,0,0)" stroke="none" paint-order="stroke fill markers" d=" M 178.66666412353516 100 L 178.66666412353516 100 Q 178.66666412353516 99.12923177083333 178.99625396728516 98.29915364583333 Q 179.32584381103516 97.46907552083333 179.9890925089518 96.80989583333333 Q 180.6523412068685 96.15071614583333 181.64517974853516 95.75602213541667 Q 182.6380182902018 95.361328125 183.9563776652018 95.361328125 L 183.9563776652018 95.361328125 Q 185.5595677693685 95.361328125 186.7558568318685 95.751953125 Q 187.9521458943685 96.142578125 188.7456029256185 96.8017578125 Q 189.5390599568685 97.4609375 189.9296849568685 98.28287760416667 Q 190.3203099568685 99.10481770833333 190.3203099568685 99.96744791666667 L 190.3203099568685 99.96744791666667 Q 190.3203099568685 100.83821614583333 189.9296849568685 101.67236328125 Q 189.5390599568685 102.50651041666667 188.7700169881185 103.173828125 Q 188.0009740193685 103.84114583333333 186.8535130818685 104.23990885416667 Q 185.7060521443685 104.638671875 184.1923802693685 104.638671875 L 184.1923802693685 104.638671875 Q 182.7519505818685 104.638671875 181.70621490478516 104.23583984375 Q 180.6604792277018 103.8330078125 179.98502349853516 103.16569010416667 Q 179.3095677693685 102.49837239583333 178.9881159464518 101.67236328125 Q 178.66666412353516 100.84635416666667 178.66666412353516 100 Z M 184.4934870402018 100.048828125 L 184.4934870402018 100.048828125 Q 184.4934870402018 100.30924479166667 184.7050755818685 100.54931640625 Q 184.91666412353516 100.78938802083333 185.3357721964518 100.94401041666667 Q 185.7548802693685 101.0986328125 186.3733698527018 101.0986328125 L 186.3733698527018 101.0986328125 Q 187.26041412353516 101.09049479166667 187.8504206339518 100.927734375 Q 188.4404271443685 100.76497395833333 188.73746490478516 100.51676432291667 Q 189.0345026652018 100.2685546875 189.0345026652018 100.00813802083333 L 189.0345026652018 100.00813802083333 Q 189.0345026652018 99.755859375 188.76187896728516 99.52799479166667 Q 188.4892552693685 99.30013020833333 187.9399388631185 99.15364583333333 Q 187.3906224568685 99.00716145833333 186.5605443318685 99.00716145833333 L 186.5605443318685 99.00716145833333 Q 185.5188776652018 99.01529947916667 185.0061823527018 99.31233723958333 Q 184.4934870402018 99.609375 184.4934870402018 100.048828125 Z" fill-opacity="1"/></g></g><g><g><path fill="rgb(0,0,0)" stroke="none" paint-order="stroke fill markers" d=" M 177.1551062307882 115.34710483579508 L 177.1551062307882 115.34710483579508 Q 177.32498468501774 114.49306817398562 177.8101817610429 113.74323955615135 Q 178.2953788370681 112.99341093831707 179.07448297473226 112.4762906057296 Q 179.8535871123964 111.95917027314215 180.9043495214701 111.76575338826594 Q 181.9551119305438 111.57233650338972 183.24813939982542 111.82953565839145 L 183.24813939982542 111.82953565839145 Q 184.8205246556802 112.1423025320664 185.91762020225002 112.7588062006514 Q 187.01471574881987 113.37530986923642 187.66432714820144 114.17661939160973 Q 188.313938547583 114.97792891398306 188.53670523814068 115.86028282656038 Q 188.75947192869836 116.7426367391377 188.59118112357376 117.5886917499022 L 188.59118112357376 117.5886917499022 Q 188.42130266934421 118.44272841171166 187.87544938592944 119.18464048678129 Q 187.32959610251467 119.92655256185093 186.44514285216124 120.431015107119 Q 185.56068960180784 120.93547765238706 184.35748199832764 121.10272002979173 Q 183.15427439484745 121.26996240719639 181.66968730048708 120.97465967367587 L 181.66968730048708 120.97465967367587 Q 180.25693506553125 120.6936457820999 179.3098815369504 120.09454114538903 Q 178.36282800836952 119.49543650867815 177.83053819824465 118.70916624728164 Q 177.29824838811976 117.92289598588513 177.14411955599664 117.05004626517741 Q 176.9899907238735 116.1771965444697 177.1551062307882 115.34710483579508 Z M 182.86044248434138 116.53175150120822 L 182.86044248434138 116.53175150120822 Q 182.809637712983 116.78716433464656 182.97032499155569 117.0639019172012 Q 183.13101227012834 117.34063949975585 183.51190196594914 117.57405479851474 Q 183.89279166176993 117.80747009727362 184.499397141186 117.92813142924975 L 184.499397141186 117.92813142924975 Q 185.3709847541903 118.09320353064423 185.981407437048 118.04867506985407 Q 186.59183011990572 118.00414660906391 186.93158368074728 117.81865544452363 Q 187.27133724158884 117.63316427998335 187.3221420129472 117.377751446545 L 187.3221420129472 117.377751446545 Q 187.37135913520063 117.1303202641516 187.14842800013344 116.85364778987727 Q 186.92549686506624 116.57697531560294 186.4153131034213 116.32613928220981 Q 185.9051293417764 116.07530324881668 185.0910009351917 115.91336304011189 L 185.0910009351917 115.91336304011189 Q 184.06776195233337 115.71812560572337 183.506968744171 115.9094339752522 Q 182.94617553600864 116.10074234478103 182.86044248434138 116.53175150120822 Z" fill-opacity="1"/></g></g><g><g><path fill="rgb(0,0,0)" stroke="none" paint-order="stroke fill markers" d=" M 172.4947780157097 130.54802354160705 L 172.4947780157097 130.54802354160705 Q 172.86849230512874 129.645797435639 173.41252645479034 129.2149082532746 Q 173.95656060445194 128.78401907091018 174.56618922895282 128.7370454858115 Q 175.1758178534537 128.69007190071287 175.74722772056683 128.92675761734492 L 175.74722772056683 128.92675761734492 Q 176.49908280887354 129.23818619186076 177.9247524898324 130.55982592207087 L 177.9247524898324 130.55982592207087 Q 178.5525704752924 131.12817520600376 179.188708502075 131.63390678682333 Q 179.8248465288576 132.1396383676429 180.5090346592167 132.42303837045233 L 180.5090346592167 132.42303837045233 L 180.6443685751119 132.4790955138652 Q 181.05037032279753 132.64726694410376 181.36603879714963 132.72516992573912 Q 181.68170727150172 132.80307290737449 181.76890727236616 132.5925534826486 L 181.76890727236616 132.5925534826486 Q 181.84365013024998 132.412108261455 181.68047099467393 131.91289926688805 L 181.68047099467393 131.91289926688805 Q 181.6048428348964 131.67016833079126 181.67647140703505 131.4972416604807 L 181.67647140703505 131.4972416604807 Q 181.79481426535108 131.21153672692418 182.18936269924507 131.141537986947 Q 182.58391113313905 131.0715392469698 182.95232012640935 131.22413924848254 L 182.95232012640935 131.22413924848254 Q 183.4410259338087 131.42656782191787 183.54367883610365 131.86987617381507 Q 183.64633173839863 132.31318452571227 183.68298548835529 132.77760205012282 L 183.68298548835529 132.77760205012282 Q 183.76897145672265 133.78215693473425 183.2924857377134 134.9324952198435 L 183.2924857377134 134.9324952198435 Q 183.12742859322 135.33097841664608 182.89991024635637 135.64633388951194 Q 182.67239189949277 135.96168936237783 182.38283601448188 136.09719876574007 Q 182.093280129471 136.23270816910232 181.73238968708378 136.0832224533347 L 181.73238968708378 136.0832224533347 Q 181.4767589570595 135.9773367379993 181.24377555569723 135.62538447534854 L 181.24377555569723 135.62538447534854 Q 180.85944415876708 135.04337974505506 179.8669954422022 134.63229402669413 L 179.8669954422022 134.63229402669413 Q 178.7993612168067 134.1900654508816 177.44056812552128 134.01481025614828 Q 176.0817750342359 133.83955506141496 175.06400735421076 133.89364251989767 L 175.06400735421076 133.89364251989767 Q 174.31410622171708 133.91774745086087 173.75773345637012 133.68729030571916 L 173.75773345637012 133.68729030571916 Q 173.11865663130942 133.42257601738066 172.75543440689262 132.90657043942548 Q 172.3922121824758 132.39056486147032 172.320480812159 131.76627696141983 Q 172.24874944184216 131.14198906136937 172.4947780157097 130.54802354160705 Z" fill-opacity="1"/></g></g><g><g><path fill="rgb(0,0,0)" stroke="none" paint-order="stroke fill markers" d=" M 165.14218743421944 144.10408142259206 L 165.14218743421944 144.10408142259206 Q 165.68473648990263 143.29209937932788 166.30237948526818 142.9756254092251 Q 166.9200224806337 142.65915143912235 167.52710135389978 142.73201308295396 Q 168.13418022716587 142.80487472678556 168.6484355212332 143.14848912871827 L 168.6484355212332 143.14848912871827 Q 169.32508722395337 143.6006133417876 170.465523941199 145.17499249232065 L 170.465523941199 145.17499249232065 Q 170.9703991352905 145.85490231708067 171.4956506113078 146.47502077987528 Q 172.02090208732508 147.0951392426699 172.63665513680044 147.506572276563 L 172.63665513680044 147.506572276563 L 172.75845244329008 147.58795463491546 Q 173.12384436275897 147.8321017099729 173.4182492381176 147.97009167197209 Q 173.71265411347622 148.10808163397127 173.83924889313565 147.9186191572096 L 173.83924889313565 147.9186191572096 Q 173.94775870427227 147.75622274855678 173.8851058535338 147.23477124473476 L 173.8851058535338 147.23477124473476 Q 173.8582853241264 146.98194999346805 173.96227389313233 146.8263201018424 L 173.96227389313233 146.8263201018424 Q 174.1340810940987 146.56919245480876 174.53470446719092 146.5775113020117 Q 174.93532784028318 146.58583014921462 175.26688717461607 146.8073710136186 L 175.26688717461607 146.8073710136186 Q 175.70671078138417 147.10125175211365 175.7209060678217 147.55606864609888 Q 175.7351013542592 148.01088554008408 175.68044744830107 148.4735302038694 L 175.68044744830107 148.4735302038694 Q 175.56880228447528 149.47555787831112 174.87705223847922 150.51083498347296 L 174.87705223847922 150.51083498347296 Q 174.63742640555245 150.86946038591466 174.352756959176 151.1343697642419 Q 174.06808751279954 151.39927914256916 173.7576587897886 151.47569521989465 Q 173.44723006677762 151.5521112972201 173.12243724947194 151.33509167494682 L 173.12243724947194 151.33509167494682 Q 172.8923756705471 151.18136944250327 172.73253146016754 150.7907270370946 L 172.73253146016754 150.7907270370946 Q 172.46912837350948 150.14492602850967 171.57594812591887 149.54812206725816 L 171.57594812591887 149.54812206725816 Q 170.6151027080562 148.9061056846997 169.31660903738543 148.4691305876589 Q 168.01811536671465 148.0321554906181 167.0093518675834 147.88664704931864 L 167.0093518675834 147.88664704931864 Q 166.26915723633212 147.76399035737407 165.76843497631918 147.42941843970274 L 165.76843497631918 147.42941843970274 Q 165.19328102900704 147.04511285859382 164.93770571214912 146.46816104240452 Q 164.68213039529118 145.89120922621524 164.73356985059291 145.26492274697813 Q 164.78500930589465 144.63863626774102 165.14218743421944 144.10408142259206 Z" fill-opacity="1"/></g></g><g><g><path fill="rgb(0,0,0)" stroke="none" paint-order="stroke fill markers" d=" M 155.28621912179165 155.96524418836077 L 155.28621912179165 155.96524418836077 Q 155.97675308779415 155.27471022235827 156.64426925492987 155.0848133817076 Q 157.3117854220656 154.89491654105692 157.89298484345105 155.0848133817076 Q 158.47418426483648 155.27471022235827 158.9115224433047 155.71204840082652 L 158.9115224433047 155.71204840082652 Q 159.48696741497346 156.28749337249525 160.2983448250264 158.05410943551828 L 160.2983448250264 158.05410943551828 Q 160.66087515717768 158.81945124783772 161.05505496277078 159.53012578784862 Q 161.44923476836385 160.2408003278595 161.9728896925824 160.76445525207805 L 161.9728896925824 160.76445525207805 L 162.07646978748278 160.86803534697842 Q 162.3872100721839 161.17877563167954 162.64903753429317 161.37154969718858 Q 162.91086499640247 161.5643237626976 163.0719895884697 161.40319917063036 L 163.0719895884697 161.40319917063036 Q 163.2100963816702 161.26509237742985 163.250377529687 160.7414374532113 L 163.250377529687 160.7414374532113 Q 163.27339532855376 160.48824166567707 163.40574767203756 160.35588932219326 L 163.40574767203756 160.35588932219326 Q 163.6244167612717 160.13722023295912 164.01571934200643 160.22353697870943 Q 164.4070219227412 160.30985372445974 164.68898995885885 160.59182176057743 L 164.68898995885885 160.59182176057743 Q 165.06302919044353 160.9658609921621 164.9882213441266 161.41470807006374 Q 164.91341349780967 161.86355514796534 164.7695522548925 162.30664777615027 L 164.7695522548925 162.30664777615027 Q 164.46456641990807 163.26764087883708 163.5841356132549 164.14807168549024 L 163.5841356132549 164.14807168549024 Q 163.27914977827044 164.4530575204747 162.94826891956092 164.65734048541708 Q 162.6173880608514 164.86162345035947 162.29801610157526 164.8760095746512 Q 161.9786441422991 164.8903956989429 161.7024305558981 164.61418211254193 L 161.7024305558981 164.61418211254193 Q 161.50677926553072 164.41853082217455 161.42621696949712 164.00421044257305 L 161.42621696949712 164.00421044257305 Q 161.2938646260133 163.31943092628725 160.53427726341056 162.55984356368452 L 160.53427726341056 162.55984356368452 Q 159.71714540364096 161.74271170391492 158.528851537145 161.06080941248746 Q 157.34055767064905 160.37890712106 156.37956456796226 160.03939458777543 L 156.37956456796226 160.03939458777543 Q 155.6775217025264 159.77468990080783 155.25169242349153 159.34886062177296 L 155.25169242349153 159.34886062177296 Q 154.7625641975731 158.85973239585454 154.6244574043726 158.244006276169 Q 154.4863506111721 157.6282801564834 154.65898410267272 157.02406293623125 Q 154.83161759417334 156.41984571597908 155.28621912179165 155.96524418836077 Z" fill-opacity="1"/></g></g><g><g><path fill="rgb(0,0,0)" stroke="none" paint-order="stroke fill markers" d=" M 143.7048569179872 165.40894071993034 L 143.7048569179872 165.40894071993034 Q 144.4288742398978 164.92516781194615 145.30216928296545 164.73804505421708 Q 146.17546432603308 164.55092229648804 147.09203343888794 164.73617282161882 Q 148.0086025517428 164.92142334674958 148.88837016750668 165.52765818072956 Q 149.76813778327053 166.13389301470954 150.50057900844286 167.23006877311622 L 150.50057900844286 167.23006877311622 Q 151.39126370818946 168.56307262747495 151.7310934840957 169.7747702527469 Q 152.07092326000196 170.98646787801883 151.96365648854123 172.01242390075714 Q 151.85638971708048 173.03837992349548 151.3899911196064 173.8198181960012 Q 150.9235925221323 174.6012564685069 150.20634171724893 175.0805081343604 L 150.20634171724893 175.0805081343604 Q 149.48232439533834 175.5642810423446 148.5717367777769 175.70291554343498 Q 147.66114916021542 175.84155004452538 146.67903738263436 175.57285604017167 Q 145.6969256050533 175.30416203581797 144.72787113029264 174.5716239993865 Q 143.758816655532 173.83908596295504 142.91786561922302 172.5805137958955 L 142.91786561922302 172.5805137958955 Q 142.1176057620903 171.38284028208082 141.87156874114268 170.28954135861608 Q 141.62553172019508 169.19624243515133 141.80512301957808 168.26387966717675 Q 141.98471431896107 167.33151689920214 142.49292673305965 166.6053334003623 Q 143.00113914715823 165.87914990152245 143.7048569179872 165.40894071993034 Z M 146.90146718140045 170.2808943641909 L 146.90146718140045 170.2808943641909 Q 146.68493863653 170.4255741123731 146.60287867962558 170.7348801979358 Q 146.52081872272115 171.0441862834985 146.62509886893503 171.47856551088256 Q 146.7293790151489 171.91294473826665 147.0729934170816 172.42720003233396 L 147.0729934170816 172.42720003233396 Q 147.57257532635438 173.16022914616826 148.03569572137368 173.5603767880265 Q 148.498816116393 173.96052442988477 148.87022022349294 174.06960441639148 Q 149.2416243305929 174.1786844028982 149.45815287546336 174.034004654716 L 149.45815287546336 174.034004654716 Q 149.6679149033066 173.89384614866452 149.70591576869003 173.54057304859384 Q 149.74391663407346 173.18729994852316 149.56053009674127 172.64917769083456 Q 149.37714355940912 172.11105543314596 148.9159768620784 171.4208706963714 L 148.9159768620784 171.4208706963714 Q 148.33049135232244 170.5592777590203 147.7986752265959 170.29801252407688 Q 147.26685910086934 170.03674728913347 146.90146718140045 170.2808943641909 Z" fill-opacity="1"/></g></g><g><g><path fill="rgb(0,0,0)" stroke="none" paint-order="stroke fill markers" d=" M 129.66083453740515 172.86226373363843 L 129.66083453740515 172.86226373363843 Q 130.5630606433732 172.4885494442194 131.25243554258577 172.56855501785236 Q 131.94181044179837 172.64856059148534 132.40609831674826 173.04641778531544 Q 132.87038619169817 173.44427497914555 133.10707190833023 174.01568484625864 L 133.10707190833023 174.01568484625864 Q 133.4185004828461 174.76753993456535 133.49206076646706 176.71018104922055 L 133.49206076646706 176.71018104922055 Q 133.53411148858524 177.55599903684168 133.6263227708361 178.363422779608 Q 133.718534053087 179.1708465223743 134.00193405589644 179.8550346527334 L 134.00193405589644 179.8550346527334 L 134.0579911993093 179.99036856862858 Q 134.22616262954787 180.39637031631423 134.39428822178002 180.67466736172443 Q 134.5624138140122 180.95296440713463 134.77293323873806 180.8657644062702 L 134.77293323873806 180.8657644062702 Q 134.95337845993168 180.79102154838637 135.1909874519053 180.32264240978478 L 135.1909874519053 180.32264240978478 Q 135.30914695819575 180.09752853423964 135.4820736285063 180.025899962101 L 135.4820736285063 180.025899962101 Q 135.76777856206286 179.90755710378497 136.0962630188882 180.13704839318555 Q 136.42474747571356 180.3665396825861 136.57734747722634 180.7349486758564 L 136.57734747722634 180.7349486758564 Q 136.77977605066164 181.22365448325576 136.53889627219974 181.60970738836016 Q 136.29801649373786 181.99576029346457 135.99554182807555 182.3500711894274 L 135.99554182807555 182.3500711894274 Q 135.3460155184122 183.12120002172966 134.19567723330294 183.59768574073894 L 134.19567723330294 183.59768574073894 Q 133.79719403650037 183.76274288523234 133.41332427724103 183.82485311266848 Q 133.02945451798166 183.88696334010461 132.728887970126 183.77803602831295 Q 132.42832142227036 183.66910871652127 132.27883570650275 183.30821827413405 L 132.27883570650275 183.30821827413405 Q 132.17294999116734 183.05258754410977 132.25707367973448 182.63897556952827 L 132.25707367973448 182.63897556952827 Q 132.39684983421543 181.9556727410629 131.9857641158545 180.96322402449803 L 131.9857641158545 180.96322402449803 Q 131.54353554004197 179.8955897991025 130.70664786759875 178.81085385339108 Q 129.86976019515552 177.72611790767965 129.11184415826696 177.04469308813162 L 129.11184415826696 177.04469308813162 Q 128.5645392221171 176.53147767227003 128.33408207697536 175.97510490692306 L 128.33408207697536 175.97510490692306 Q 128.0693677886369 175.33602808186237 128.17740193397628 174.71432014059738 Q 128.28543607931567 174.0926121993324 128.67615254847925 173.60045225341918 Q 129.06686901764283 173.10829230750596 129.66083453740515 172.86226373363843 Z" fill-opacity="1"/></g></g><g><g><path fill="rgb(0,0,0)" stroke="none" paint-order="stroke fill markers" d=" M 115.34710483579511 177.1551062307882 L 115.34710483579511 177.1551062307882 Q 116.20114149760457 176.98522777655865 117.07956969293971 177.14654443517426 Q 117.95799788827485 177.30786109378985 118.73390502496899 177.82976607645227 Q 119.50981216166313 178.3516710591147 120.09061542814689 179.24843150500834 Q 120.67141869463066 180.145191950902 120.92861784963239 181.4382194201836 L 120.92861784963239 181.4382194201836 Q 121.24138472330733 183.01060467603838 121.09164989157732 184.26011453668332 Q 120.9419150598473 185.50962439732825 120.45019711293902 186.41643495171155 Q 119.95847916603076 187.32324550609485 119.22853956752854 187.8667173158522 Q 118.49859996902632 188.41018912560958 117.65254495826181 188.57847993073418 L 117.65254495826181 188.57847993073418 Q 116.79850829645237 188.7483583849637 115.90418190730763 188.52797316806345 Q 115.0098555181629 188.3075879511632 114.20532729205947 187.68350915402144 Q 113.40079906595604 187.05943035687966 112.78583964095577 186.01181236568445 Q 112.1708802159555 184.96419437448927 111.875577482435 183.4796072801289 L 111.875577482435 183.4796072801289 Q 111.59456359085904 182.06685504517307 111.78564240759803 180.96262425520226 Q 111.97672122433701 179.85839346523144 112.499441734312 179.06572920189495 Q 113.02216224428699 178.27306493855843 113.76958768570374 177.79664333813065 Q 114.51701312712049 177.3202217377029 115.34710483579511 177.1551062307882 Z M 116.43597168866887 182.87949427360078 L 116.43597168866887 182.87949427360078 Q 116.18055885523053 182.93029904495913 115.98637902613324 183.18465762072378 Q 115.79219919703594 183.43901619648844 115.7223117560868 183.8802365582973 Q 115.65242431513765 184.32145692010616 115.77308564711377 184.92806239952222 L 115.77308564711377 184.92806239952222 Q 115.95412105059816 185.79647471431662 116.22885863160592 186.34339143297638 Q 116.50359621261369 186.89030815163613 116.80498576181525 187.1332151170758 Q 117.10637531101679 187.37612208251548 117.36178814445513 187.3253173111571 L 117.36178814445513 187.3253173111571 Q 117.60921932684853 187.27610018890368 117.77951931109129 186.96426070395935 Q 117.94981929533405 186.65242121901503 117.98632269955905 186.08508208959194 Q 118.02282610378407 185.51774296016885 117.86088589507928 184.70361455358415 L 117.86088589507928 184.70361455358415 Q 117.64968515860086 183.68355086893573 117.25833300184847 183.23865604543462 Q 116.86698084509608 182.79376122193352 116.43597168866887 182.87949427360078 Z" fill-opacity="1"/></g></g><g><g><path fill="rgb(0,0,0)" stroke="none" paint-order="stroke fill markers" d=" M 99.51985677083334 178.66666412353516 L 99.51985677083334 178.66666412353516 Q 100.49641927083334 178.66666412353516 101.10270182291669 179.0043919881185 Q 101.70898437500001 179.3421198527018 101.98567708333334 179.88736724853516 Q 102.26236979166669 180.4326146443685 102.26236979166669 181.0511042277018 L 102.26236979166669 181.0511042277018 Q 102.26236979166669 181.86490631103516 101.58691406250001 183.6878229777018 L 101.58691406250001 183.6878229777018 Q 101.30208333333334 184.4853490193685 101.07828776041669 185.2665990193685 Q 100.85449218750001 186.0478490193685 100.85449218750001 186.7884089152018 L 100.85449218750001 186.7884089152018 L 100.85449218750001 186.9348932902018 Q 100.85449218750001 187.3743464152018 100.90332031250001 187.6957982381185 Q 100.95214843750001 188.01725006103516 101.18001302083334 188.01725006103516 L 101.18001302083334 188.01725006103516 Q 101.37532552083334 188.01725006103516 101.77408854166669 187.67545318603516 L 101.77408854166669 187.67545318603516 Q 101.96940104166669 187.5126927693685 102.15657552083334 187.5126927693685 L 102.15657552083334 187.5126927693685 Q 102.46582031250001 187.5126927693685 102.68147786458334 187.8504206339518 Q 102.89713541666669 188.18814849853516 102.89713541666669 188.5869115193685 L 102.89713541666669 188.5869115193685 Q 102.89713541666669 189.11588287353516 102.52685546875001 189.3803685506185 Q 102.15657552083334 189.6448542277018 101.74153645833334 189.8564427693685 L 101.74153645833334 189.8564427693685 Q 100.84635416666669 190.3203099568685 99.60123697916669 190.3203099568685 L 99.60123697916669 190.3203099568685 Q 99.16992187500001 190.3203099568685 98.79150390625001 190.2307917277018 Q 98.41308593750001 190.14127349853516 98.17708333333334 189.9256159464518 Q 97.94108072916669 189.7099583943685 97.94108072916669 189.3193333943685 L 97.94108072916669 189.3193333943685 Q 97.94108072916669 189.04264068603516 98.17708333333334 188.6927057902018 L 98.17708333333334 188.6927057902018 Q 98.56770833333334 188.11490631103516 98.56770833333334 187.04068756103516 L 98.56770833333334 187.04068756103516 Q 98.56770833333334 185.8850886027018 98.20963541666669 184.56266021728516 Q 97.85156250000001 183.2402318318685 97.41210937500001 182.3206354777018 L 97.41210937500001 182.3206354777018 Q 97.10286458333334 181.6370417277018 97.10286458333334 181.03482818603516 L 97.10286458333334 181.03482818603516 Q 97.10286458333334 180.3430964152018 97.44059244791669 179.8100560506185 Q 97.77832031250001 179.27701568603516 98.32763671875001 178.97183990478516 Q 98.87695312500001 178.66666412353516 99.51985677083334 178.66666412353516 Z" fill-opacity="1"/></g></g><g><g><path fill="rgb(0,0,0)" stroke="none" paint-order="stroke fill markers" d=" M 84.65289516420492 177.1551062307882 L 84.65289516420492 177.1551062307882 Q 85.50693182601438 177.32498468501774 86.25676044384865 177.8101817610429 Q 87.00658906168293 178.2953788370681 87.5237093942704 179.07448297473226 Q 88.04082972685785 179.8535871123964 88.23424661173406 180.9043495214701 Q 88.42766349661028 181.9551119305438 88.17046434160855 183.24813939982542 L 88.17046434160855 183.24813939982542 Q 87.8576974679336 184.8205246556802 87.2411937993486 185.91762020225002 Q 86.62469013076358 187.01471574881987 85.82338060839027 187.66432714820144 Q 85.02207108601694 188.313938547583 84.13971717343962 188.53670523814068 Q 83.2573632608623 188.75947192869836 82.4113082500978 188.59118112357376 L 82.4113082500978 188.59118112357376 Q 81.55727158828834 188.42130266934421 80.81535951321871 187.87544938592944 Q 80.07344743814907 187.32959610251467 79.568984892881 186.44514285216124 Q 79.06452234761292 185.56068960180784 78.89727997020827 184.35748199832764 Q 78.73003759280361 183.15427439484745 79.02534032632413 181.66968730048708 L 79.02534032632413 181.66968730048708 Q 79.3063542179001 180.25693506553125 79.90545885461097 179.3098815369504 Q 80.50456349132185 178.36282800836952 81.29083375271836 177.83053819824465 Q 82.07710401411487 177.29824838811976 82.94995373482259 177.14411955599664 Q 83.8228034555303 176.9899907238735 84.65289516420492 177.1551062307882 Z M 83.46824849879178 182.86044248434138 L 83.46824849879178 182.86044248434138 Q 83.21283566535344 182.809637712983 82.9360980827988 182.97032499155569 Q 82.65936050024415 183.13101227012834 82.42594520148526 183.51190196594914 Q 82.19252990272638 183.89279166176993 82.07186857075025 184.499397141186 L 82.07186857075025 184.499397141186 Q 81.90679646935577 185.3709847541903 81.95132493014593 185.981407437048 Q 81.99585339093609 186.59183011990572 82.18134455547637 186.93158368074728 Q 82.36683572001665 187.27133724158884 82.622248553455 187.3221420129472 L 82.622248553455 187.3221420129472 Q 82.8696797358484 187.37135913520063 83.14635221012273 187.14842800013344 Q 83.42302468439706 186.92549686506624 83.67386071779019 186.4153131034213 Q 83.9246967511833 185.9051293417764 84.08663695988811 185.0910009351917 L 84.08663695988811 185.0910009351917 Q 84.28187439427663 184.06776195233337 84.0905660247478 183.506968744171 Q 83.89925765521897 182.94617553600864 83.46824849879178 182.86044248434138 Z" fill-opacity="1"/></g></g><g><g><path fill="rgb(0,0,0)" stroke="none" paint-order="stroke fill markers" d=" M 69.45197645839295 172.4947780157097 L 69.45197645839295 172.4947780157097 Q 70.354202564361 172.86849230512874 70.78509174672543 173.41252645479034 Q 71.21598092908984 173.95656060445194 71.2629545141885 174.56618922895282 Q 71.30992809928715 175.1758178534537 71.0732423826551 175.74722772056683 L 71.0732423826551 175.74722772056683 Q 70.76181380813924 176.49908280887354 69.44017407792914 177.9247524898324 L 69.44017407792914 177.9247524898324 Q 68.87182479399625 178.55257047529244 68.36609321317667 179.188708502075 Q 67.8603616323571 179.8248465288576 67.57696162954767 180.5090346592167 L 67.57696162954767 180.5090346592167 L 67.52090448613481 180.6443685751119 Q 67.35273305589625 181.05037032279753 67.27483007426089 181.36603879714963 Q 67.19692709262553 181.68170727150172 67.4074465173514 181.76890727236616 L 67.4074465173514 181.76890727236616 Q 67.58789173854501 181.84365013024998 68.08710073311197 181.68047099467393 L 68.08710073311197 181.68047099467393 Q 68.32983166920874 181.6048428348964 68.50275833951929 181.67647140703505 L 68.50275833951929 181.67647140703505 Q 68.78846327307585 181.79481426535108 68.85846201305304 182.18936269924507 Q 68.92846075303024 182.58391113313905 68.77586075151746 182.95232012640935 L 68.77586075151746 182.95232012640935 Q 68.57343217808216 183.4410259338087 68.13012382618494 183.54367883610365 Q 67.68681547428774 183.64633173839863 67.22239794987719 183.68298548835529 L 67.22239794987719 183.68298548835529 Q 66.21784306526577 183.76897145672265 65.0675047801565 183.2924857377134 L 65.0675047801565 183.2924857377134 Q 64.66902158335394 183.12742859322 64.35366611048806 182.89991024635637 Q 64.03831063762219 182.67239189949277 63.90280123425995 182.38283601448188 Q 63.767291830897705 182.093280129471 63.916777546665315 181.73238968708378 L 63.916777546665315 181.73238968708378 Q 64.0226632620007 181.4767589570595 64.37461552465147 181.24377555569723 L 64.37461552465147 181.24377555569723 Q 64.95662025494497 180.85944415876708 65.36770597330589 179.8669954422022 L 65.36770597330589 179.8669954422022 Q 65.80993454911842 178.7993612168067 65.98518974385173 177.44056812552128 Q 66.16044493858506 176.0817750342359 66.10635748010236 175.06400735421076 L 66.10635748010236 175.06400735421076 Q 66.08225254913913 174.31410622171708 66.31270969428087 173.75773345637012 L 66.31270969428087 173.75773345637012 Q 66.57742398261935 173.11865663130942 67.09342956057452 172.75543440689262 Q 67.60943513852969 172.3922121824758 68.23372303858017 172.320480812159 Q 68.85801093863066 172.24874944184216 69.45197645839295 172.4947780157097 Z" fill-opacity="1"/></g></g><g><g><path fill="rgb(0,0,0)" stroke="none" paint-order="stroke fill markers" d=" M 55.89591857740791 165.14218743421944 L 55.89591857740791 165.14218743421944 Q 56.70790062067212 165.68473648990263 57.02437459077487 166.30237948526818 Q 57.340848560877625 166.9200224806337 57.267986917046024 167.52710135389978 Q 57.19512527321442 168.13418022716587 56.85151087128173 168.6484355212332 L 56.85151087128173 168.6484355212332 Q 56.39938665821239 169.32508722395337 54.82500750767933 170.465523941199 L 54.82500750767933 170.465523941199 Q 54.14509768291932 170.9703991352905 53.52497922012471 171.4956506113078 Q 52.9048607573301 172.02090208732508 52.493427723437 172.63665513680044 L 52.493427723437 172.63665513680044 L 52.41204536508452 172.75845244329008 Q 52.16789829002708 173.12384436275897 52.0299083280279 173.4182492381176 Q 51.891918366028726 173.71265411347622 52.081380842790374 173.83924889313565 L 52.081380842790374 173.83924889313565 Q 52.24377725144321 173.94775870427227 52.76522875526522 173.8851058535338 L 52.76522875526522 173.8851058535338 Q 53.01805000653193 173.8582853241264 53.173679898157566 173.96227389313233 L 53.173679898157566 173.96227389313233 Q 53.43080754519123 174.1340810940987 53.4224886979883 174.53470446719092 Q 53.41416985078537 174.93532784028318 53.19262898638139 175.26688717461607 L 53.19262898638139 175.26688717461607 Q 52.898748247886324 175.70671078138417 52.443931353901114 175.7209060678217 Q 51.9891144599159 175.7351013542592 51.526469796130584 175.68044744830107 L 51.526469796130584 175.68044744830107 Q 50.52444212168888 175.56880228447528 49.48916501652702 174.87705223847922 L 49.48916501652702 174.87705223847922 Q 49.13053961408533 174.63742640555245 48.865630235758076 174.352756959176 Q 48.60072085743082 174.06808751279954 48.524304780105346 173.7576587897886 Q 48.44788870277987 173.44723006677762 48.664908325053155 173.12243724947194 L 48.664908325053155 173.12243724947194 Q 48.81863055749673 172.8923756705471 49.209272962905395 172.73253146016754 L 49.209272962905395 172.73253146016754 Q 49.855073971490306 172.46912837350948 50.45187793274183 171.57594812591887 L 50.45187793274183 171.57594812591887 Q 51.09389431530029 170.6151027080562 51.53086941234109 169.31660903738543 Q 51.967844509381884 168.01811536671465 52.113352950681346 167.0093518675834 L 52.113352950681346 167.0093518675834 Q 52.23600964262592 166.26915723633212 52.570581560297235 165.76843497631918 L 52.570581560297235 165.76843497631918 Q 52.954887141406175 165.19328102900704 53.53183895759546 164.93770571214912 Q 54.10879077378475 164.68213039529118 54.73507725302186 164.73356985059291 Q 55.36136373225898 164.78500930589465 55.89591857740791 165.14218743421944 Z" fill-opacity="1"/></g></g><g><g><path fill="rgb(0,0,0)" stroke="none" paint-order="stroke fill markers" d=" M 44.374268344923806 155.6257316550762 L 44.374268344923806 155.6257316550762 Q 44.98999446460936 156.24145777476176 45.343893122185634 157.06146685938972 Q 45.69779177976191 157.88147594401767 45.69491455490356 158.81657402297938 Q 45.692037330045224 159.75167210194107 45.2690852758687 160.73280577863628 Q 44.84613322169217 161.71393945533148 43.913912367588814 162.64616030943483 L 43.913912367588814 162.64616030943483 Q 42.780285773401395 163.77978690362227 41.65816807864736 164.3494774255743 Q 40.53605038389331 164.91916794752635 39.50888110946461 165.0141163678517 Q 38.48171183503591 165.10906478817705 37.62429882724949 164.8040789531926 Q 36.76688581946306 164.49909311820818 36.1569141494942 163.8891214482393 L 36.1569141494942 163.8891214482393 Q 35.54118802980865 163.27339532855376 35.22757052024919 162.4073506461923 Q 34.913953010689724 161.54130596383087 34.985883632148315 160.52564558883552 Q 35.05781425360691 159.5099852138402 35.587223627542144 158.4166397676696 Q 36.11663300147739 157.323294321499 37.186960648781245 156.25296667419514 L 37.186960648781245 156.25296667419514 Q 38.20549824863491 155.23442907434148 39.22979029820527 154.77982754672317 Q 40.25408234777563 154.32522601910486 41.20356655102905 154.31947156938816 Q 42.15305075428247 154.31371711967148 42.964428164335395 154.6704930021061 Q 43.775805574388315 155.02726888454072 44.374268344923806 155.6257316550762 Z M 40.2195556494755 159.71139095392425 L 40.2195556494755 159.71139095392425 Q 40.03541325854151 159.52724856299025 39.716041299265356 159.50710798898186 Q 39.39666933998921 159.48696741497346 38.990980634962746 159.6739870307658 Q 38.58529192993628 159.86100664655814 38.14795375146804 160.2983448250264 L 38.14795375146804 160.2983448250264 Q 37.5264731820658 160.931334293862 37.22436457193972 161.46362089265557 Q 36.922255961813626 161.99590749144917 36.8877292635135 162.38145562246723 Q 36.85320256521338 162.76700375348528 37.03734495614737 162.95114614441928 L 37.03734495614737 162.95114614441928 Q 37.21573289736468 163.12953408563658 37.569631554940955 163.0978846121948 Q 37.923530212517235 163.06623513875303 38.41553566329401 162.781389877777 Q 38.90754111407078 162.49654461680097 39.49449498517289 161.90959074569884 L 39.49449498517289 161.90959074569884 Q 40.22531009919219 161.16726673224616 40.37780301668441 160.59469898543577 Q 40.53029593417662 160.02213123862538 40.2195556494755 159.71139095392425 Z" fill-opacity="1"/></g></g><g><g><path fill="rgb(0,0,0)" stroke="none" paint-order="stroke fill markers" d=" M 34.324305994358774 143.3056324133823 L 34.324305994358774 143.3056324133823 Q 34.866855050041984 144.1176144566465 34.922877132149765 144.8093515235968 Q 34.97889921425755 145.5010885905471 34.67926480587862 146.03407339222844 Q 34.379630397499675 146.56705819390973 33.86537510343235 146.91067259584244 L 33.86537510343235 146.91067259584244 Q 33.18872340071218 147.36279680891178 31.297760489771445 147.81393413292935 L 31.297760489771445 147.81393413292935 Q 30.476398346531408 148.02018776578524 29.702478553325978 148.26814779208377 Q 28.928558760120545 148.51610781838227 28.31280571064519 148.92754085227537 L 28.31280571064519 148.92754085227537 L 28.19100840415556 149.00892321062784 Q 27.82561648468667 149.25307028568528 27.58546651489636 149.4722584520109 Q 27.345316545106055 149.6914466183365 27.47191132476547 149.88090909509813 L 27.47191132476547 149.88090909509813 Q 27.58042113590211 150.043305503751 28.086155715448555 150.18497266859475 L 28.086155715448555 150.18497266859475 Q 28.32999586712923 150.25694423463372 28.43398443613518 150.41257412625936 L 28.43398443613518 150.41257412625936 Q 28.60579163710153 150.669701773293 28.44479409693603 151.03664602293765 Q 28.283796556770536 151.40359027258225 27.952237222437653 151.62513113698623 L 27.952237222437653 151.62513113698623 Q 27.51241361566954 151.91901187548132 27.086785295338935 151.75807571999115 Q 26.661156975008332 151.59713956450102 26.254644183635726 151.36959949151176 L 26.254644183635726 151.36959949151176 Q 25.37161607870896 150.8829934199691 24.679866032712873 149.84771631480723 L 24.679866032712873 149.84771631480723 Q 24.440240199786125 149.48909091236555 24.304434128008097 149.12471420716304 Q 24.168628056230077 148.76033750196052 24.216824735660815 148.4442955917083 Q 24.26502141509155 148.12825368145607 24.58981423239723 147.9112340591828 L 24.58981423239723 147.9112340591828 Q 24.819875811322092 147.75751182673923 25.241952065281872 147.75932740890826 L 25.241952065281872 147.75932740890826 Q 25.939394396486474 147.76311203493472 26.8325746440771 147.16630807368318 L 26.8325746440771 147.16630807368318 Q 27.79342006193974 146.52429169112472 28.69404442510951 145.49186309569018 Q 29.59466878827928 144.45943450025564 30.115138137295627 143.58314222001837 L 30.115138137295627 143.58314222001837 Q 30.51171836661422 142.94623023400646 31.012440626627146 142.61165831633517 L 31.012440626627146 142.61165831633517 Q 31.587594573939292 142.22735273522622 32.21843298764478 142.21202183229468 Q 32.849271401350265 142.19669092936314 33.408199633692135 142.48388424879826 Q 33.967127866034 142.77107756823335 34.324305994358774 143.3056324133823 Z" fill-opacity="1"/></g></g><g><g><path fill="rgb(0,0,0)" stroke="none" paint-order="stroke fill markers" d=" M 27.32147912532595 130.10442903950616 L 27.32147912532595 130.10442903950616 Q 27.654707700057923 130.90891398399435 27.667863535299883 131.8019347467461 Q 27.681019370541843 132.69495550949787 27.32051461892972 133.55777241925674 Q 26.9600098673176 134.4205893290156 26.193789518223603 135.16518190775372 Q 25.427569169129608 135.9097744864918 24.20956392607274 136.4142887772075 L 24.20956392607274 136.4142887772075 Q 22.728409402108518 137.02780306900377 21.47369670653004 137.12471263115486 Q 20.21898401095156 137.22162219330593 19.23366815449467 136.91626243193048 Q 18.248352298037776 136.610902670555 17.572918995389536 136.00101474713284 Q 16.8974856927413 135.39112682371066 16.567371403754485 134.59416043010555 L 16.567371403754485 134.59416043010555 Q 16.23414282902251 133.78967548561738 16.27581898253097 132.86953830433538 Q 16.317495136039437 131.9494011230534 16.772626763386274 131.0385799477244 Q 17.227758390733108 130.12775877239542 18.1352740637328 129.32023548905775 Q 19.04278973673249 128.5127122057201 20.44124020098297 127.9334550571206 L 20.44124020098297 127.9334550571206 Q 21.77202370728585 127.38222648022753 22.892314640145326 127.35420903068646 Q 24.0126055730048 127.32619158114541 24.89201672740238 127.68422703670875 Q 25.771427881799955 128.04226249227207 26.384510644814704 128.68238111996962 Q 26.997593407829456 129.32249974766717 27.32147912532595 130.10442903950616 Z M 21.91951097857895 132.28914632774132 L 21.91951097857895 132.28914632774132 Q 21.819853834733873 132.04855269948317 21.532500082291946 131.90772687780682 Q 21.245146329850023 131.76690105613045 20.798769530214052 131.78443430522785 Q 20.352392730578085 131.80196755432524 19.780982863464985 132.0386532709573 L 19.780982863464985 132.0386532709573 Q 18.964575102955827 132.38562896806266 18.481765878836633 132.761785702248 Q 17.998956654717443 133.13794243643335 17.819515262712827 133.4809296680652 Q 17.640073870708214 133.82391689969702 17.739731014553293 134.06451052795518 L 17.739731014553293 134.06451052795518 Q 17.83627387265321 134.29758560533026 18.1753453281004 134.4037764575933 Q 18.51441678354759 134.50996730985636 19.077976111567473 134.43508693795337 Q 19.641535439587358 134.36020656605038 20.408427629660203 134.0425494200442 L 20.408427629660203 134.0425494200442 Q 21.367687856947637 133.63640229378083 21.727685132882574 133.1657751846039 Q 22.087682408817514 132.69514807542694 21.91951097857895 132.28914632774132 Z" fill-opacity="1"/></g></g><g><g><path fill="rgb(0,0,0)" stroke="none" paint-order="stroke fill markers" d=" M 22.751222472019847 114.87618742414317 L 22.751222472019847 114.87618742414317 Q 22.94174036461372 115.83398554953695 22.728781704567073 116.49450599024097 Q 22.51582304452042 117.15502643094499 22.035032494077157 117.5327750565048 Q 21.554241943633897 117.91052368206462 20.947636464217837 118.03118501404074 L 20.947636464217837 118.03118501404074 Q 20.14947135972302 118.18994992453564 18.229806649943868 117.88310628731351 L 18.229806649943868 117.88310628731351 Q 17.392037128865734 117.75933811302532 16.582138278164614 117.69225702336435 Q 15.772239427463493 117.62517593370337 15.045909182373208 117.76965200225374 L 15.045909182373208 117.76965200225374 L 14.902239463564143 117.79822968614282 Q 14.471230307136942 117.88396273781005 14.165480985491183 117.99456478372522 Q 13.859731663845427 118.1051668296404 13.904185838783997 118.32865305889895 L 13.904185838783997 118.32865305889895 Q 13.942289417302772 118.5202126839777 14.355313567333095 118.84463232277231 L 14.355313567333095 118.84463232277231 Q 14.55305016675083 119.00443896575209 14.589566096164658 119.1880169397859 L 14.589566096164658 119.1880169397859 Q 14.649896762152718 119.49131967949393 14.360730945068516 119.76872087004044 Q 14.071565127984316 120.04612206058694 13.680464226781856 120.12391686672945 L 13.680464226781856 120.12391686672945 Q 13.161656908860225 120.22711405855112 12.83001521562423 119.91554753191683 Q 12.498373522388238 119.60398100528252 12.209880490867189 119.23819567871884 L 12.209880490867189 119.23819567871884 Q 11.580284979760757 118.45071006275663 11.337374666703566 117.22951745287956 L 11.337374666703566 117.22951745287956 Q 11.25322926414127 116.80648994749731 11.267201742255574 116.41787903375278 Q 11.281174220369879 116.02926812000825 11.446646149017484 115.75572753842361 Q 11.61211807766509 115.48218695683897 11.995237327822602 115.40597979980141 L 11.995237327822602 115.40597979980141 Q 12.26661346335084 115.35199973023315 12.65586628232713 115.51519869902384 L 12.65586628232713 115.51519869902384 Q 13.298770663556 115.78559486272998 14.352348601489158 115.57602518087671 L 14.352348601489158 115.57602518087671 Q 15.485743049871797 115.35057900797396 16.712904784058118 114.74139338244204 Q 17.940066518244443 114.1322077569101 18.75626003465634 113.52179425162367 L 18.75626003465634 113.52179425162367 Q 19.366388056443924 113.08512898709994 19.95703023377009 112.96764295333371 L 19.95703023377009 112.96764295333371 Q 20.635470572590684 112.83269277941305 21.22415615389017 113.05994028140424 Q 21.812841735189657 113.28718778339542 22.21931996395927 113.76641238749384 Q 22.62579819272888 114.24563699159226 22.751222472019847 114.87618742414317 Z" fill-opacity="1"/></g></g><g><g><path fill="rgb(0,0,0)" stroke="none" paint-order="stroke fill markers" d=" M 21.333335876464844 100.00000000000001 L 21.333335876464844 100.00000000000001 Q 21.333335876464844 100.87076822916669 21.003746032714844 101.70084635416669 Q 20.674156188964844 102.53092447916669 20.01090749104818 103.19010416666669 Q 19.34765879313151 103.84928385416669 18.354820251464844 104.24397786458334 Q 17.36198170979818 104.63867187500001 16.04362233479818 104.63867187500001 L 16.04362233479818 104.63867187500001 Q 14.440432230631512 104.63867187500001 13.24414316813151 104.24804687500001 Q 12.04785410563151 103.85742187500001 11.25439707438151 103.19824218750001 Q 10.46094004313151 102.53906250000001 10.07031504313151 101.71712239583334 Q 9.67969004313151 100.89518229166669 9.67969004313151 100.03255208333334 L 9.67969004313151 100.03255208333334 Q 9.67969004313151 99.16178385416669 10.07031504313151 98.32763671875001 Q 10.46094004313151 97.49348958333334 11.22998301188151 96.82617187500001 Q 11.99902598063151 96.15885416666669 13.14648691813151 95.76009114583334 Q 14.293947855631508 95.36132812500001 15.807619730631508 95.36132812500001 L 15.807619730631508 95.36132812500001 Q 17.248049418131508 95.36132812500001 18.293785095214844 95.76416015625001 Q 19.339520772298176 96.16699218750001 20.014976501464844 96.83430989583334 Q 20.69043223063151 97.50162760416669 21.011884053548176 98.32763671875001 Q 21.333335876464844 99.15364583333334 21.333335876464844 100.00000000000001 Z M 15.506512959798176 99.95117187500001 L 15.506512959798176 99.95117187500001 Q 15.506512959798176 99.69075520833334 15.29492441813151 99.45068359375001 Q 15.083335876464844 99.21061197916669 14.664227803548176 99.05598958333334 Q 14.24511973063151 98.90136718750001 13.626630147298176 98.90136718750001 L 13.626630147298176 98.90136718750001 Q 12.739585876464844 98.90950520833334 12.149579366048176 99.07226562500001 Q 11.55957285563151 99.23502604166669 11.262535095214844 99.48323567708334 Q 10.965497334798176 99.73144531250001 10.965497334798176 99.99186197916669 L 10.965497334798176 99.99186197916669 Q 10.965497334798176 100.24414062500001 11.238121032714844 100.47200520833334 Q 11.51074473063151 100.69986979166669 12.06006113688151 100.84635416666669 Q 12.60937754313151 100.99283854166669 13.43945566813151 100.99283854166669 L 13.43945566813151 100.99283854166669 Q 14.481122334798176 100.98470052083334 14.993817647298176 100.68766276041669 Q 15.506512959798176 100.39062500000001 15.506512959798176 99.95117187500001 Z" fill-opacity="1"/></g></g><g><g><path fill="rgb(0,0,0)" stroke="none" paint-order="stroke fill markers" d=" M 22.844893769211822 84.65289516420492 L 22.844893769211822 84.65289516420492 Q 22.675015314982282 85.50693182601438 22.189818238957088 86.25676044384865 Q 21.704621162931893 87.00658906168293 20.92551702526775 87.5237093942704 Q 20.14641288760361 88.04082972685785 19.09565047852991 88.23424661173406 Q 18.04488806945621 88.42766349661028 16.75186060017461 88.17046434160855 L 16.75186060017461 88.17046434160855 Q 15.179475344319819 87.8576974679336 14.082379797749988 87.2411937993486 Q 12.98528425118016 86.62469013076358 12.335672851798579 85.82338060839027 Q 11.686061452416999 85.02207108601694 11.46329476185933 84.13971717343962 Q 11.240528071301664 83.2573632608623 11.408818876426254 82.4113082500978 L 11.408818876426254 82.4113082500978 Q 11.578697330655794 81.55727158828834 12.124550614070573 80.81535951321871 Q 12.670403897485354 80.07344743814907 13.55485714783877 79.568984892881 Q 14.439310398192186 79.06452234761292 15.642518001672377 78.89727997020827 Q 16.845725605152566 78.73003759280361 18.330312699512927 79.02534032632413 L 18.330312699512927 79.02534032632413 Q 19.74306493446875 79.3063542179001 20.690118463049618 79.90545885461097 Q 21.63717199163048 80.50456349132185 22.169461801755364 81.29083375271836 Q 22.701751611880248 82.07710401411487 22.855880444003382 82.94995373482259 Q 23.010009276126514 83.8228034555303 22.844893769211822 84.65289516420492 Z M 17.13955751565863 83.46824849879178 L 17.13955751565863 83.46824849879178 Q 17.190362287016995 83.21283566535344 17.02967500844434 82.9360980827988 Q 16.86898772987168 82.65936050024415 16.48809803405088 82.42594520148526 Q 16.10720833823008 82.19252990272638 15.50060285881402 82.07186857075025 L 15.50060285881402 82.07186857075025 Q 14.62901524580972 81.90679646935577 14.018592562952 81.95132493014593 Q 13.40816988009428 81.99585339093609 13.068416319252728 82.18134455547637 Q 12.728662758411176 82.36683572001665 12.677857987052809 82.622248553455 L 12.677857987052809 82.622248553455 Q 12.628640864799392 82.8696797358484 12.851571999866586 83.14635221012273 Q 13.074503134933776 83.42302468439706 13.584686896578697 83.67386071779019 Q 14.094870658223616 83.9246967511833 14.908999064808329 84.08663695988811 L 14.908999064808329 84.08663695988811 Q 15.932238047666644 84.28187439427663 16.493031255829013 84.0905660247478 Q 17.053824463991386 83.89925765521897 17.13955751565863 83.46824849879178 Z" fill-opacity="1"/></g></g><g><g><path fill="rgb(0,0,0)" stroke="none" paint-order="stroke fill markers" d=" M 27.505221984290294 69.45197645839292 L 27.505221984290294 69.45197645839292 Q 27.13150769487126 70.35420256436097 26.587473545209658 70.7850917467254 Q 26.04343939554806 71.21598092908981 25.43381077104717 71.26295451418846 Q 24.824182146546278 71.30992809928712 24.25277227943318 71.07324238265507 L 24.25277227943318 71.07324238265507 Q 23.50091719112647 70.76181380813921 22.0752475101676 69.44017407792911 L 22.0752475101676 69.44017407792911 Q 21.447429524707573 68.87182479399621 20.811291497924994 68.36609321317664 Q 20.175153471142412 67.86036163235707 19.490965340783305 67.57696162954764 L 19.490965340783305 67.57696162954764 L 19.355631424888095 67.52090448613478 Q 18.949629677202473 67.35273305589622 18.633961202850372 67.27483007426086 Q 18.31829272849827 67.19692709262549 18.23109272763383 67.40744651735137 L 18.23109272763383 67.40744651735137 Q 18.15634986975002 67.58789173854498 18.319529005326068 68.08710073311194 L 18.319529005326068 68.08710073311194 Q 18.395157165103605 68.32983166920872 18.323528592964955 68.50275833951926 L 18.323528592964955 68.50275833951926 Q 18.20518573464893 68.7884632730758 17.810637300754937 68.858462013053 Q 17.41608886686095 68.92846075303021 17.04767987359066 68.77586075151743 L 17.04767987359066 68.77586075151743 Q 16.5589740661913 68.57343217808211 16.456321163896334 68.13012382618491 Q 16.35366826160137 67.6868154742877 16.317014511644715 67.22239794987716 L 16.317014511644715 67.22239794987716 Q 16.23102854327734 66.21784306526574 16.707514262286605 65.06750478015647 L 16.707514262286605 65.06750478015647 Q 16.87257140678001 64.66902158335391 17.100089753643623 64.35366611048804 Q 17.32760810050724 64.03831063762216 17.61716398551812 63.90280123425991 Q 17.906719870528995 63.76729183089767 18.267610312916215 63.91677754666529 L 18.267610312916215 63.91677754666529 Q 18.523241042940498 64.02266326200068 18.75622444430278 64.37461552465145 L 18.75622444430278 64.37461552465145 Q 19.140555841232935 64.95662025494492 20.133004557797793 65.36770597330586 L 20.133004557797793 65.36770597330586 Q 21.200638783193323 65.80993454911838 22.559431874478708 65.9851897438517 Q 23.918224965764093 66.16044493858503 24.93599264578924 66.10635748010233 L 24.93599264578924 66.10635748010233 Q 25.685893778282907 66.0822525491391 26.24226654362987 66.31270969428084 L 26.24226654362987 66.31270969428084 Q 26.881343368690576 66.57742398261932 27.24456559310739 67.09342956057449 Q 27.607787817524205 67.60943513852966 27.679519187841013 68.23372303858015 Q 27.751250558157825 68.85801093863063 27.505221984290294 69.45197645839292 Z" fill-opacity="1"/></g></g><g><g><path fill="rgb(0,0,0)" stroke="none" paint-order="stroke fill markers" d=" M 34.59105928006966 56.29514308201282 L 34.59105928006966 56.29514308201282 Q 34.10728637208547 57.0191604039234 33.372075735153075 57.526234834404896 Q 32.63686509822068 58.03330926488639 31.71917334791758 58.21291591043821 Q 30.801481597614476 58.39252255599004 29.75668627695724 58.16910709186474 Q 28.711890956300003 57.94569162773943 27.615715197893326 57.2132504025671 L 27.615715197893326 57.2132504025671 Q 26.28271134353459 56.322565702820505 25.505052962809224 55.333150292302896 Q 24.727394582083853 54.34373488178529 24.43387978451785 53.354825894839344 Q 24.140364986951848 52.36591690789341 24.272217624846196 51.46547906587275 Q 24.404070262740547 50.5650412238521 24.883321928594043 49.847790418968714 L 24.883321928594043 49.847790418968714 Q 25.367094836578232 49.123773097058134 26.155314972279985 48.64722472404324 Q 26.943535107981738 48.17067635102835 27.95371282176916 48.04307933614833 Q 28.963890535556573 47.915482321268314 30.13951030079599 48.221418127363194 Q 31.315130066035408 48.52735393345808 32.57370223309493 49.368304969767046 L 32.57370223309493 49.368304969767046 Q 33.77137574690963 50.168564826899775 34.41707169943572 51.084487033540356 Q 35.06276765196182 52.00040924018094 35.25364671050271 52.93052673325903 Q 35.44452576904359 53.86064422633712 35.25289711535268 54.726034768760485 Q 35.06126846166177 55.59142531118384 34.59105928006966 56.29514308201282 Z M 29.773360541377397 53.01733461427315 L 29.773360541377397 53.01733461427315 Q 29.918040289559585 52.8008060694027 29.875487489707794 52.483641521702225 Q 29.832934689856007 52.166476974001746 29.570362663438292 51.8050691807542 Q 29.307790637020577 51.44366138750666 28.79353534295325 51.10004698557397 L 28.79353534295325 51.10004698557397 Q 28.05146374485757 50.61399811035559 27.470466417771576 50.42153839642435 Q 26.889469090685587 50.22907868249312 26.50459333420658 50.27043211405246 Q 26.119717577727567 50.311785545611805 25.97503782954538 50.52831409048226 L 25.97503782954538 50.52831409048226 Q 25.834879323493887 50.73807611832551 25.934962864245726 51.07900020646539 Q 26.03504640499757 51.419924294605266 26.4104039459812 51.8469054449167 Q 26.785761486964837 52.273886595228134 27.475946223739413 52.73505329255885 L 27.475946223739413 52.73505329255885 Q 28.346581645351925 53.3070057682604 28.93789755583594 53.34486615100123 Q 29.529213466319955 53.382726533742044 29.773360541377397 53.01733461427315 Z" fill-opacity="1"/></g></g><g><g><path fill="rgb(0,0,0)" stroke="none" paint-order="stroke fill markers" d=" M 44.71378087820834 44.03475581163926 L 44.71378087820834 44.03475581163926 Q 44.023246912205856 44.72528977764174 43.35573074507012 44.91518661829243 Q 42.688214577934374 45.10508345894311 42.10701515654895 44.91518661829243 Q 41.52581573516352 44.72528977764175 41.08847755669528 44.2879515991735 L 41.08847755669528 44.2879515991735 Q 40.51303258502654 43.712506627504766 39.70165517497362 41.94589056448173 L 39.70165517497362 41.94589056448173 Q 39.33912484282231 41.18054875216231 38.944945037229225 40.46987421215141 Q 38.550765231636134 39.75919967214052 38.02711030741758 39.23554474792196 L 38.02711030741758 39.23554474792196 L 37.92353021251721 39.13196465302159 Q 37.61278992781609 38.82122436832047 37.350962465706814 38.628450302811444 Q 37.089135003597534 38.43567623730242 36.92801041153029 38.59680082936967 L 36.92801041153029 38.59680082936967 Q 36.78990361832979 38.73490762257016 36.74962247031298 39.25856254678872 L 36.74962247031298 39.25856254678872 Q 36.72660467144623 39.51175833432296 36.59425232796242 39.64411067780677 L 36.59425232796242 39.64411067780677 Q 36.3755832387283 39.86277976704089 35.98428065799355 39.77646302129058 Q 35.59297807725881 39.69014627554027 35.31101004114113 39.40817823942259 L 35.31101004114113 39.40817823942259 Q 34.93697080955645 39.03413900783791 35.011778655873385 38.58529192993629 Q 35.08658650219032 38.13644485203467 35.230447745107504 37.69335222384974 L 35.230447745107504 37.69335222384974 Q 35.53543358009194 36.73235912116295 36.41586438674511 35.85192831450978 L 36.41586438674511 35.85192831450978 Q 36.72085022172954 35.54694247952534 37.05173108043907 35.34265951458294 Q 37.382611939148596 35.13837654964054 37.70198389842474 35.12399042534882 Q 38.0213558577009 35.109604301057104 38.29756944410189 35.385817887458096 L 38.29756944410189 35.385817887458096 Q 38.49322073446926 35.58146917782547 38.57378303050288 35.99578955742696 L 38.57378303050288 35.99578955742696 Q 38.7061353739867 36.68056907371276 39.465722736589434 37.4401564363155 L 39.465722736589434 37.4401564363155 Q 40.282854596359044 38.25728829608511 41.47114846285499 38.93919058751256 Q 42.65944232935094 39.62109287894002 43.62043543203774 39.96060541222458 L 43.62043543203774 39.96060541222458 Q 44.322478297473594 40.2253100991922 44.748307576508466 40.651139378227064 L 44.748307576508466 40.651139378227064 Q 45.237435802426894 41.14026760414549 45.375542595627394 41.75599372383105 Q 45.513649388827886 42.3717198435166 45.34101589732727 42.975937063768775 Q 45.16838240582665 43.58015428402095 44.71378087820834 44.03475581163926 Z" fill-opacity="1"/></g></g><g><g><path fill="rgb(0,0,0)" stroke="none" paint-order="stroke fill markers" d=" M 56.29514308201279 34.591059280069686 L 56.29514308201279 34.591059280069686 Q 55.57112576010221 35.074832188053875 54.697830717034556 35.26195494578293 Q 53.8245356739669 35.44907770351199 52.90796656111205 35.26382717838121 Q 51.9913974482572 35.07857665325044 51.11162983249333 34.47234181927046 Q 50.23186221672945 33.86610698529048 49.49942099155713 32.769931226883806 L 49.49942099155713 32.769931226883806 Q 48.60873629181053 31.43692737252507 48.268906515904284 30.225229747253138 Q 47.92907673999804 29.013532121981203 48.036343511458774 27.987576099242872 Q 48.14361028291951 26.961620076504545 48.6100088803936 26.18018180399883 Q 49.07640747786769 25.398743531493118 49.79365828275107 24.91949186563962 L 49.79365828275107 24.91949186563962 Q 50.517675604661655 24.435718957655432 51.42826322222311 24.297084456565038 Q 52.33885083978456 24.15844995547465 53.32096261736563 24.427143959828356 Q 54.30307439494669 24.69583796418206 55.272128869707345 25.428376000613525 Q 56.24118334446799 26.16091403704499 57.082134380776964 27.419486204104505 L 57.082134380776964 27.419486204104505 Q 57.882394237909686 28.617159717919208 58.128431258857304 29.710458641383948 Q 58.374468279804915 30.803757564848688 58.19487698042193 31.736120332823287 Q 58.01528568103894 32.668483100797886 57.50707326694035 33.39466659963773 Q 56.99886085284177 34.120850098477575 56.29514308201279 34.591059280069686 Z M 53.098532818599544 29.719105635809107 L 53.098532818599544 29.719105635809107 Q 53.31506136347 29.57442588762692 53.397121320374424 29.26511980206422 Q 53.47918127727884 28.95581371650152 53.374901131064966 28.52143448911746 Q 53.27062098485109 28.087055261733397 52.927006582918395 27.572799967666068 L 52.927006582918395 27.572799967666068 Q 52.42742467364562 26.839770853831777 51.96430427862631 26.43962321197352 Q 51.501183883607005 26.039475570115265 51.12977977650705 25.93039558360855 Q 50.75837566940709 25.821315597101837 50.54184712453663 25.96599534528402 L 50.54184712453663 25.96599534528402 Q 50.332085096693376 26.106153851335517 50.29408423130996 26.45942695140619 Q 50.25608336592654 26.81270005147686 50.43946990325871 27.35082230916546 Q 50.62285644059089 27.888944566854054 51.084023137921605 28.579129303628626 L 51.084023137921605 28.579129303628626 Q 51.66950864767756 29.440722240979753 52.20132477340411 29.70198747592315 Q 52.73314089913065 29.96325271086655 53.098532818599544 29.719105635809107 Z" fill-opacity="1"/></g></g><g><g><path fill="rgb(0,0,0)" stroke="none" paint-order="stroke fill markers" d=" M 70.33916546259482 27.137736266361593 L 70.33916546259482 27.137736266361593 Q 69.43693935662677 27.511450555780627 68.74756445741419 27.431444982147656 Q 68.0581895582016 27.35143940851469 67.59390168325169 26.953582214684587 Q 67.12961380830178 26.55572502085448 66.89292809166973 25.98431515374138 L 66.89292809166973 25.98431515374138 Q 66.58149951715386 25.232460065434672 66.50793923353291 23.289818950779473 L 66.50793923353291 23.289818950779473 Q 66.4658885114147 22.444000963158345 66.37367722916383 21.63657722039204 Q 66.28146594691295 20.829153477625734 65.99806594410352 20.144965347266627 L 65.99806594410352 20.144965347266627 L 65.94200880069066 20.009631431371417 Q 65.7738373704521 19.603629683685796 65.60571177821993 19.325332638275597 Q 65.43758618598775 19.0470355928654 65.22706676126188 19.13423559372984 L 65.22706676126188 19.13423559372984 Q 65.04662154006827 19.208978451613646 64.80901254809464 19.677357590215237 L 64.80901254809464 19.677357590215237 Q 64.6908530418042 19.902471465760385 64.51792637149366 19.974100037899035 L 64.51792637149366 19.974100037899035 Q 64.23222143793711 20.09244289621506 63.90373698111175 19.862951606814477 Q 63.575252524286384 19.6334603174139 63.42265252277362 19.265051324143606 L 63.42265252277362 19.265051324143606 Q 63.220223949338305 18.776345516744247 63.46110372780021 18.39029261163985 Q 63.7019835062621 18.00423970653545 64.0044581719244 17.649928810572618 L 64.0044581719244 17.649928810572618 Q 64.65398448158774 16.878799978270344 65.80432276669701 16.402314259261075 L 65.80432276669701 16.402314259261075 Q 66.20280596349957 16.237257114767672 66.58667572275893 16.175146887331532 Q 66.9705454820183 16.113036659895396 67.27111202987395 16.221963971687074 Q 67.5716785777296 16.330891283478753 67.72116429349721 16.691781725865972 L 67.72116429349721 16.691781725865972 Q 67.8270500088326 16.94741245589026 67.74292632026548 17.36102443047174 L 67.74292632026548 17.36102443047174 Q 67.60315016578451 18.04432725893712 68.01423588414545 19.03677597550198 L 68.01423588414545 19.03677597550198 Q 68.45646445995797 20.104410200897508 69.29335213240121 21.189146146608934 Q 70.13023980484444 22.27388209232036 70.88815584173298 22.955306911868377 L 70.88815584173298 22.955306911868377 Q 71.43546077788285 23.46852232772999 71.6659179230246 24.024895093076957 L 71.6659179230246 24.024895093076957 Q 71.93063221136308 24.66397191813766 71.82259806602367 25.285679859402638 Q 71.71456392068428 25.907387800667614 71.3238474515207 26.39954774658084 Q 70.93313098235711 26.891707692494062 70.33916546259482 27.137736266361593 Z" fill-opacity="1"/></g></g><g><g><path fill="rgb(0,0,0)" stroke="none" paint-order="stroke fill markers" d=" M 84.65289516420489 22.844893769211836 L 84.65289516420489 22.844893769211836 Q 83.79885850239543 23.014772223441376 82.92043030706029 22.85345556482577 Q 82.04200211172515 22.692138906210165 81.26609497503101 22.170233923547755 Q 80.49018783833687 21.648328940885346 79.90938457185311 20.751568494991695 Q 79.32858130536934 19.854808049098043 79.07138215036761 18.56178057981644 L 79.07138215036761 18.56178057981644 Q 78.75861527669267 16.989395323961652 78.90835010842268 15.739885463316721 Q 79.0580849401527 14.49037560267179 79.54980288706098 13.583565048288479 Q 80.04152083396924 12.676754493905166 80.77146043247146 12.13328268414781 Q 81.50140003097368 11.589810874390452 82.34745504173819 11.421520069265862 L 82.34745504173819 11.421520069265862 Q 83.20149170354763 11.251641615036322 84.09581809269237 11.472026831936565 Q 84.9901444818371 11.69241204883681 85.79467270794053 12.316490845978594 Q 86.59920093404396 12.940569643120382 87.21416035904423 13.988187634315572 Q 87.8291197840445 15.035805625510765 88.124422517565 16.520392719871122 L 88.124422517565 16.520392719871122 Q 88.40543640914096 17.93314495482695 88.21435759240197 19.03737574479776 Q 88.02327877566299 20.141606534768574 87.500558265688 20.934270798105086 Q 86.97783775571301 21.726935061441598 86.23041231429626 22.20335666186937 Q 85.48298687287951 22.679778262297145 84.65289516420489 22.844893769211836 Z M 83.56402831133113 17.12050572639926 L 83.56402831133113 17.12050572639926 Q 83.81944114476947 17.06970095504089 84.01362097386676 16.815342379276245 Q 84.20780080296406 16.560983803511597 84.2776882439132 16.119763441702737 Q 84.34757568486235 15.678543079893874 84.22691435288623 15.071937600477815 L 84.22691435288623 15.071937600477815 Q 84.04587894940184 14.203525285683414 83.77114136839408 13.656608567023651 Q 83.49640378738631 13.10969184836389 83.19501423818475 12.866784882924225 Q 82.8936246889832 12.62387791748456 82.63821185554485 12.674682688842926 L 82.63821185554485 12.674682688842926 Q 82.39078067315147 12.723899811096343 82.22048068890871 13.03573929604068 Q 82.05018070466595 13.347578780985014 82.01367730044093 13.914917910408095 Q 81.97717389621593 14.482257039831179 82.13911410492072 15.29638544641589 L 82.13911410492072 15.29638544641589 Q 82.35031484139914 16.316449131064306 82.74166699815153 16.761343954565405 Q 83.13301915490392 17.2062387780665 83.56402831133113 17.12050572639926 Z" fill-opacity="1"/></g></g></g></g></svg>