<svg version="1.1" xmlns="http://www.w3.org/2000/svg" xmlns:xlink="http://www.w3.org/1999/xlink" width="200" height="200" viewBox="0 0 200 200"><defs/><g><g/><g><g><g><path fill="rgb(0,0,0)" stroke="none" paint-order="stroke fill markers" d=" M 99.98914930555556 23.536026848687065 L 99.98914930555556 23.536026848687065 Q 99.55512152777777 23.536026848687065 99.16449652777777 23.394967820909287 Q 98.77387152777777 23.25390879313151 98.52430555555556 22.966365390353733 Q 98.27473958333333 22.678821987575954 98.27473958333333 22.244794209798176 L 98.27473958333333 22.244794209798176 Q 98.27473958333333 21.832467820909287 98.56770833333333 21.279082404242622 L 98.56770833333333 21.279082404242622 Q 98.73046875 20.866756015353733 98.81184895833333 18.41992441813151 Q 98.89322916666667 15.973092820909287 98.89322916666667 13.09765879313151 L 98.89322916666667 13.09765879313151 Q 98.89322916666667 10.450089348687065 98.82269965277777 8.301651848687065 Q 98.75217013888889 6.153214348687063 98.60026041666667 5.795141432020397 L 98.60026041666667 5.795141432020397 Q 98.30729166666667 5.252606709798176 98.30729166666667 4.8511310153537295 L 98.30729166666667 4.8511310153537295 Q 98.30729166666667 4.4171032375759545 98.56770833333333 4.140410529242619 Q 98.828125 3.8637178209092866 99.22960069444444 3.7280841403537295 Q 99.63107638888889 3.592450459798176 100.06510416666667 3.592450459798176 L 100.06510416666667 3.592450459798176 Q 100.48828125 3.592450459798176 100.86805555555556 3.7280841403537295 Q 101.24782986111111 3.8637178209092866 101.48654513888889 4.140410529242619 Q 101.72526041666667 4.4171032375759545 101.72526041666667 4.82942962646484 L 101.72526041666667 4.82942962646484 Q 101.72526041666667 5.2417560153537295 101.43229166666667 5.795141432020397 L 101.43229166666667 5.795141432020397 Q 101.25868055555556 6.218318515353731 101.171875 8.627172682020397 Q 101.08506944444444 11.036026848687065 101.08506944444444 13.87890879313151 L 101.08506944444444 13.87890879313151 Q 101.08506944444444 16.548179626464844 101.16102430555556 18.723743862575954 Q 101.23697916666667 20.899308098687065 101.39973958333333 21.279082404242622 L 101.39973958333333 21.279082404242622 Q 101.69270833333333 21.832467820909287 101.69270833333333 22.244794209798176 L 101.69270833333333 22.244794209798176 Q 101.69270833333333 22.678821987575954 101.44314236111111 22.966365390353733 Q 101.19357638888889 23.25390879313151 100.80295138888889 23.394967820909287 Q 100.41232638888889 23.536026848687065 99.98914930555556 23.536026848687065 Z" fill-opacity="1"/></g></g><g><g><path fill="rgb(0,0,0)" stroke="none" paint-order="stroke fill markers" d=" M 111.95088363038607 24.47572782028783 L 111.95088363038607 24.47572782028783 Q 111.52219945478055 24.407830917058565 111.15845019028508 24.207401347080427 Q 110.79470092578961 24.00697177710229 110.59318922320583 23.6839277914068 Q 110.39167752062204 23.36088380571131 110.45957442385131 22.932199630105778 L 110.45957442385131 22.932199630105778 Q 110.52407648191911 22.524949663280527 110.90000685207015 22.024207749063233 L 110.90000685207015 22.024207749063233 Q 111.12526547599003 21.642419120948958 111.58841255087106 19.238442750328275 Q 112.05155962575209 16.834466379707596 112.50137660964597 13.994433716320971 L 112.50137660964597 13.994433716320971 Q 112.9155477193445 11.379460245127246 113.18197621179348 9.246440329105123 Q 113.44840470424245 7.1134204130829986 113.35438018794467 6.7359920520781955 L 113.35438018794467 6.7359920520781955 Q 113.14988949844752 6.15430642289153 113.21269413393459 5.757773560456414 L 113.21269413393459 5.757773560456414 Q 113.28059103716386 5.329089384850889 113.58108581833584 5.096541364839922 Q 113.8815805995078 4.863993344828959 114.29933124420207 4.792834175439303 Q 114.71708188889632 4.721675006049647 115.14576606450186 4.789571909278916 L 115.14576606450186 4.789571909278916 Q 115.56373313571724 4.8557713899274475 115.91761400711293 5.049144985129786 Q 116.27149487850862 5.242518580332124 116.46398689928301 5.553148039056744 Q 116.6564789200574 5.863777497781367 116.5919768619896 6.271027464606615 L 116.5919768619896 6.271027464606615 Q 116.52747480392179 6.678277431431868 116.15154443377074 7.179019345649161 L 116.15154443377074 7.179019345649161 Q 115.91387128288 7.569827655572848 115.45130663483646 9.935445449537676 Q 114.98874198679292 12.301063243502508 114.54401727064122 15.10894459371872 L 114.54401727064122 15.10894459371872 Q 114.12645131578122 17.74535227369272 113.8611378190755 19.906013661980552 Q 113.59582432236977 22.066675050268387 113.69717109789623 22.4672350426342 L 113.69717109789623 22.4672350426342 Q 113.89996436481265 23.059637776211005 113.83546230674484 23.466887743036256 L 113.83546230674484 23.466887743036256 Q 113.76756540351558 23.895571918641785 113.476090304153 24.14053446562362 Q 113.18461520479043 24.385497012605455 112.77673295319595 24.46371215677091 Q 112.36885070160146 24.541927300936365 111.95088363038607 24.47572782028783 Z" fill-opacity="1"/></g></g><g><g><path fill="rgb(0,0,0)" stroke="none" paint-order="stroke fill markers" d=" M 123.61834753752767 27.27508702364207 L 123.61834753752767 27.27508702364207 Q 123.20556259121902 27.140965064277943 122.87764577633456 26.886100193299914 Q 122.54972896145011 26.631235322321885 122.40123341540136 26.280645168758028 Q 122.25273786935261 25.930055015194167 122.38685982871674 25.517270068885505 L 122.38685982871674 25.517270068885505 Q 122.51427569011267 25.125124369892276 122.96391102706026 24.68935588591952 L 122.96391102706026 24.68935588591952 Q 123.24612124332194 24.34750592168784 124.07963096667008 22.045578654253543 Q 124.91314069001821 19.74365138681924 125.80169867080555 17.00895111752437 L 125.80169867080555 17.00895111752437 Q 126.61984262292673 14.490962945041538 127.21666876800398 12.425882642417 Q 127.81349491308126 10.360802339792459 127.77967079834863 9.97331207331037 L 127.77967079834863 9.97331207331037 Q 127.66869340879545 9.36679856785376 127.79275622120726 8.984972492518246 L 127.79275622120726 8.984972492518246 Q 127.92687818057139 8.572187546209587 128.2600518974512 8.38951031855629 Q 128.59322561433103 8.206833090902997 129.01696480196784 8.201900607593355 Q 129.44070398960463 8.196968124283721 129.8534889359133 8.331090083647847 L 129.8534889359133 8.331090083647847 Q 130.25595425856426 8.461858994027871 130.57522797428302 8.708211004192933 Q 130.89450169000182 8.954563014358001 131.03603066137697 9.291480495280043 Q 131.1775596327521 9.628397976202084 131.05014377135618 10.02054367519531 L 131.05014377135618 10.02054367519531 Q 130.92272790996026 10.412689374188536 130.47309257301265 10.848457858161295 L 130.47309257301265 10.848457858161295 Q 130.17720968410916 11.197274397066588 129.3502758203765 13.461406457206827 Q 128.5233419566439 15.725538517347069 127.64484312280885 18.429279915668793 L 127.64484312280885 18.429279915668793 Q 126.81999307271948 20.967907335467057 126.21994411701081 23.06046322172794 Q 125.61989516130214 25.153019107988822 125.65733280172428 25.564501670770447 L 125.65733280172428 25.564501670770447 Q 125.76495714229337 26.181334799884773 125.63754128089744 26.573480498878002 L 125.63754128089744 26.573480498878002 Q 125.50341932153331 26.98626544518666 125.1772121793271 27.182615345481775 Q 124.85100503712088 27.37896524577689 124.43590894864975 27.39241058989949 Q 124.02081286017862 27.405855934022092 123.61834753752767 27.27508702364207 Z" fill-opacity="1"/></g></g><g><g><path fill="rgb(0,0,0)" stroke="none" paint-order="stroke fill markers" d=" M 134.70424934349387 31.865174944622623 L 134.70424934349387 31.865174944622623 Q 134.3175277618149 31.668130456888445 134.0335177968174 31.365105903882018 Q 133.74950783181993 31.062081350875587 133.6576848954784 30.69257772256611 Q 133.5658619591369 30.323074094256636 133.76290644687106 29.936352512577656 L 133.76290644687106 29.936352512577656 Q 133.95009871021853 29.568967009982625 134.46236749971294 29.208902022562498 L 134.46236749971294 29.208902022562498 Q 134.79458035619 28.915408202867784 135.97792895235625 26.7722111276027 Q 137.1612775485225 24.62901405233761 138.46669727976143 22.066983573714374 L 138.46669727976143 22.066983573714374 Q 139.66866865493992 19.707981925472602 140.58119661220127 17.76169036690485 Q 141.49372456946261 15.815398808337099 141.52093371825566 15.42738793274498 L 141.52093371825566 15.42738793274498 Q 141.50620226029008 14.810980926425685 141.68846841144418 14.453263463372627 L 141.68846841144418 14.453263463372627 Q 141.88551289917837 14.06654188169365 142.2431617091163 13.938233566013807 Q 142.60081051905422 13.809925250333965 143.02010438452422 13.871340907213398 Q 143.43939824999418 13.932756564092834 143.82611983167317 14.129801051827013 L 143.82611983167317 14.129801051827013 Q 144.2031733738102 14.321919427367837 144.47997835536236 14.615183848409922 Q 144.75678333691454 14.908448269452009 144.84386434590743 15.263357746026157 Q 144.93094535490033 15.618267222600306 144.74375309155286 15.985652725195333 L 144.74375309155286 15.985652725195333 Q 144.5565608282054 16.353038227790364 144.044292038711 16.71310321521049 L 144.044292038711 16.71310321521049 Q 143.6974850304986 17.011338962253827 142.5265438072381 19.118234843025323 Q 141.35560258397763 21.225130723796823 140.06496118931875 23.75815708379414 L 140.06496118931875 23.75815708379414 Q 138.85313758975354 26.13649481111986 137.93312837177982 28.109419524639222 Q 137.01311915380606 30.082344238158587 136.98572582016826 30.49461730502801 L 136.98572582016826 30.49461730502801 Q 136.9955311659405 31.12069235088928 136.80833890259302 31.48807785348431 L 136.80833890259302 31.48807785348431 Q 136.61129441485886 31.87479943516329 136.25838753226955 32.01770190257846 Q 135.90548064968024 32.160604369993635 135.49339176765554 32.10894884507854 Q 135.08130288563086 32.057293320163446 134.70424934349387 31.865174944622623 Z" fill-opacity="1"/></g></g><g><g><path fill="rgb(0,0,0)" stroke="none" paint-order="stroke fill markers" d=" M 144.93561735382303 38.132968384986555 L 144.93561735382303 38.132968384986555 Q 144.58448150557004 37.87785325812351 144.3513716583728 37.53413049326453 Q 144.11826181117559 37.19040772840555 144.08537246997687 36.811089030991674 Q 144.05248312877816 36.431770333577795 144.3075982556412 36.08063448532478 L 144.3075982556412 36.08063448532478 Q 144.5499576261611 35.74705542948441 145.1122461104823 35.47155993359438 L 145.1122461104823 35.47155993359438 Q 145.4862814240971 35.233649050327664 146.99033092333497 33.30195479208811 Q 148.49438042257287 31.370260533848555 150.1845181380406 29.04398553917233 L 150.1845181380406 29.04398553917233 Q 151.74072041190522 26.902056864828936 152.94648071453622 25.122478207861263 Q 154.1522410171672 23.34289955089359 154.23981344994067 22.963922181682783 L 154.23981344994067 22.963922181682783 Q 154.3216906609487 22.352799660733954 154.55767215329703 22.027999001099914 L 154.55767215329703 22.027999001099914 Q 154.81278728016008 21.6768631528469 155.1861046824871 21.606083125703435 Q 155.5594220848141 21.535303098559968 155.96394622159283 21.66155463832922 Q 156.36847035837158 21.787806178098478 156.71960620662458 22.04292130496153 L 156.71960620662458 22.04292130496153 Q 157.0619636586713 22.291658553653008 157.28948404874797 22.624614242237246 Q 157.51700443882464 22.957569930821485 157.54749326198862 23.321732353857463 Q 157.57798208515257 23.68589477689344 157.33562271463268 24.0194738327338 L 157.33562271463268 24.0194738327338 Q 157.09326334411278 24.35305288857417 156.5309748597916 24.628548384464203 L 156.5309748597916 24.628548384464203 Q 156.14178327179891 24.86885978576567 154.65566714805837 26.766640718197294 Q 153.16955102431783 28.664421650628924 151.49854694336483 30.964361456686174 L 151.49854694336483 30.964361456686174 Q 149.92958891315706 33.123846923442215 148.71227311320027 34.92856051001149 Q 147.4949573132435 36.733274096580764 147.40340752033322 37.1361861363758 L 147.40340752033322 37.1361861363758 Q 147.31515243115362 37.756087053530955 147.0727930606337 38.08966610937132 L 147.0727930606337 38.08966610937132 Q 146.81767793377065 38.44080195762434 146.4467610494784 38.5267382591457 Q 146.07584416518614 38.61267456066707 145.67690948552794 38.49719009717255 Q 145.27797480586975 38.38170563367803 144.93561735382303 38.132968384986555 Z" fill-opacity="1"/></g></g><g><g><path fill="rgb(0,0,0)" stroke="none" paint-order="stroke fill markers" d=" M 154.06052133213723 45.924133468618265 L 154.06052133213723 45.924133468618265 Q 153.75361734724723 45.617229483728266 153.57714755593548 45.24127210223803 Q 153.40067776462374 44.86531472074778 153.42753186330162 44.48552103944642 Q 153.45438596197948 44.105727358145046 153.76128994686948 43.798823373255054 L 153.76128994686948 43.798823373255054 Q 154.05284873251497 43.507264587609555 154.65131150305047 43.32312219667556 L 154.65131150305047 43.32312219667556 Q 155.05795928302973 43.14665240536381 156.84567499501395 41.47402568771334 Q 158.63339070699814 39.80139897006287 160.66662960689436 37.76816007016666 L 160.66662960689436 37.76816007016666 Q 162.53874391472334 35.89604576233769 164.00804674238418 34.32699913958759 Q 165.47734957004502 32.75795251683749 165.62312896286778 32.39734033459175 L 165.62312896286778 32.39734033459175 Q 165.79959875417953 31.806550163678512 166.08348494020277 31.522663977655263 L 166.08348494020277 31.522663977655263 Q 166.39038892509276 31.21575999276527 166.77018260639414 31.204251093331898 Q 167.1499762876955 31.19274219389852 167.52976996899687 31.380720884643644 Q 167.90956365029825 31.568699575388763 168.21646763518822 31.87560356027876 L 168.21646763518822 31.87560356027876 Q 168.51569902045597 32.17483494554651 168.68833251195662 32.53928342760337 Q 168.86096600345724 32.903731909660245 168.83411190477935 33.26818039171711 Q 168.80725780610146 33.63262887377398 168.515699020456 33.924187659419474 L 168.515699020456 33.924187659419474 Q 168.22414023481048 34.215746445064966 167.625677464275 34.399888835998965 L 167.625677464275 34.399888835998965 Q 167.20368448505127 34.57635862731071 165.43898657193378 36.218294946472184 Q 163.67428865881632 37.86023126563366 161.66406755778686 39.870452366663116 L 161.66406755778686 39.870452366663116 Q 159.77660805071338 41.75791187373659 158.29196002380803 43.349976295353436 Q 156.80731199690268 44.94204071697028 156.6538600044577 45.325670698082774 L 156.6538600044577 45.325670698082774 Q 156.4697176135237 45.924133468618265 156.1781588278782 46.21569225426376 L 156.1781588278782 46.21569225426376 Q 155.8712548429882 46.522596239153756 155.49146116168683 46.54945033783163 Q 155.11166748038548 46.5763044365095 154.73571009889523 46.39983464519776 Q 154.35975271740497 46.22336485388601 154.06052133213723 45.924133468618265 Z" fill-opacity="1"/></g></g><g><g><path fill="rgb(0,0,0)" stroke="none" paint-order="stroke fill markers" d=" M 161.8542758586703 55.04682585376431 L 161.8542758586703 55.04682585376431 Q 161.59916073180722 54.695690005511295 161.4836762683127 54.29675532585309 Q 161.3681918048182 53.89782064619489 161.45412810633957 53.52690376190263 Q 161.54006440786094 53.155986877610374 161.89120025611393 52.90087175074732 L 161.89120025611393 52.90087175074732 Q 162.2247793119543 52.65851238022742 162.84468022910946 52.57025729104781 L 162.84468022910946 52.57025729104781 Q 163.27392745752348 52.45957386362279 165.30128988833667 51.087200307479776 Q 167.32865231914988 49.71482675133676 169.6549273138261 48.02468903586903 L 169.6549273138261 48.02468903586903 Q 171.79685598816948 46.46848676200441 173.49352222890667 45.14860730869118 Q 175.19018846964386 43.82872785537796 175.39058525005052 43.49536032882739 L 175.39058525005052 43.49536032882739 Q 175.65730234973424 42.939449722677786 175.98210300936827 42.70346823032946 L 175.98210300936827 42.70346823032946 Q 176.33323885762127 42.44835310346641 176.7101570370004 42.49639871904302 Q 177.08707521637953 42.544444334619634 177.43278666130692 42.789521517108966 Q 177.7784981062343 43.034598699598305 178.03361323309738 43.38573454785132 L 178.03361323309738 43.38573454785132 Q 178.28235048178885 43.72809199989801 178.39584626521497 44.115059344264104 Q 178.50934204864106 44.502026688630195 178.42580626515445 44.85778729854455 Q 178.3422704816678 45.21354790845891 178.00869142582746 45.455907278978806 L 178.00869142582746 45.455907278978806 Q 177.6751123699871 45.698266649498706 177.05521145283194 45.78652173867831 L 177.05521145283194 45.78652173867831 Q 176.61080795004003 45.894804648068586 174.61098096686317 47.24046643250792 Q 172.61115398368634 48.58612821694726 170.3112141776291 50.257132297900256 L 170.3112141776291 50.257132297900256 Q 168.15172871087304 51.82609032810803 166.43630541870584 53.166303674953355 Q 164.72088212653864 54.506517021798686 164.50930643189088 54.86141870089874 L 164.50930643189088 54.86141870089874 Q 164.23381093600085 55.42370718521992 163.90023188016048 55.66606655573982 L 163.90023188016048 55.66606655573982 Q 163.54909603190748 55.92118168260287 163.1697773344936 55.88829234140415 Q 162.79045863707972 55.85540300020544 162.44673587222073 55.62229315300822 Q 162.10301310736176 55.389183305811 161.8542758586703 55.04682585376431 Z" fill-opacity="1"/></g></g><g><g><path fill="rgb(0,0,0)" stroke="none" paint-order="stroke fill markers" d=" M 168.12497283099066 65.27641457742217 L 168.12497283099066 65.27641457742217 Q 167.9279283432565 64.8896929957432 167.8762728183414 64.47760411371851 Q 167.82461729342631 64.06551523169382 167.96751976084147 63.712608349104514 Q 168.11042222825665 63.35970146651521 168.49714380993564 63.16265697878103 L 168.49714380993564 63.16265697878103 Q 168.86452931253066 62.97546471543356 169.49060435839192 62.985270061205796 L 169.49060435839192 62.985270061205796 Q 169.93188154388727 62.94309839098794 172.14897030205267 61.904770387951324 Q 174.36605906021808 60.8664423849147 176.9280895388413 59.561022653675764 L 176.9280895388413 59.561022653675764 Q 179.2870911870831 58.359051278497276 181.16934328713722 57.32083880719026 Q 183.05159538719138 56.28262633588324 183.30167512136956 55.98471207991491 L 183.30167512136956 55.98471207991491 Q 183.6520720692477 55.477369402613874 184.00978953230077 55.29510325145976 L 184.00978953230077 55.29510325145976 Q 184.39651111397976 55.098058763725575 184.7612728149406 55.20447585180243 Q 185.12603451590147 55.31089293987928 185.42915116133025 55.6070340005154 Q 185.73226780675907 55.90317506115153 185.92931229449323 56.289896642830506 L 185.92931229449323 56.289896642830506 Q 186.12143067003407 56.66695018496751 186.1729941025268 57.066907971353544 Q 186.22455753501953 57.46686575773958 186.08639699495296 57.80517848859356 Q 185.9482364548864 58.14349121944754 185.58085095229137 58.33068348279501 L 185.58085095229137 58.33068348279501 Q 185.21346544969634 58.51787574614248 184.5873904038351 58.508070400370244 L 184.5873904038351 58.508070400370244 Q 184.1315190666044 58.54550014323948 181.94580539073922 59.56175273382837 Q 179.76009171487408 60.57800532441726 177.22706535487674 61.86864671907613 L 177.22706535487674 61.86864671907613 Q 174.84872762755103 63.08047031864133 172.94476848473863 64.13583209020273 Q 171.04080934192623 65.1911938617641 170.77631964085745 65.50862838166114 L 170.77631964085745 65.50862838166114 Q 170.4162546534373 66.02089717115553 170.04886915084228 66.208089434503 L 170.04886915084228 66.208089434503 Q 169.6621475691633 66.40513392223717 169.29264394085382 66.31331098589565 Q 168.92314031254435 66.22148804955413 168.62011575953792 65.93747808455666 Q 168.3170912065315 65.65346811955918 168.12497283099066 65.27641457742217 Z" fill-opacity="1"/></g></g><g><g><path fill="rgb(0,0,0)" stroke="none" paint-order="stroke fill markers" d=" M 172.71820687838974 76.36101321515687 L 172.71820687838974 76.36101321515687 Q 172.5840849190256 75.94822826884821 172.5975302631482 75.53313218037708 Q 172.6109756072708 75.11803609190595 172.8073255075659 74.79182894969973 Q 173.00367540786104 74.46562180749352 173.4164603541697 74.3314998481294 L 173.4164603541697 74.3314998481294 Q 173.80860605316292 74.20408398673347 174.42543918227724 74.31170832730255 L 174.42543918227724 74.31170832730255 Q 174.867880616032 74.33908682077238 177.22010361822785 73.66037145229 Q 179.57232662042372 72.98165608380761 182.3070268897186 72.09309810302027 L 182.3070268897186 72.09309810302027 Q 184.82501506220143 71.27495415089909 186.8465057280326 70.5439728982715 Q 188.86799639386382 69.81299164564393 189.16160128879102 69.55786629796049 L 189.16160128879102 69.55786629796049 Q 189.58705014910606 69.11158400999699 189.96887622444157 68.98752119758517 L 189.96887622444157 68.98752119758517 Q 190.38166117075022 68.85339923822104 190.72528474964048 69.01556745691161 Q 191.0689083285307 69.17773567560218 191.32196643666398 69.5176486386364 Q 191.57502454479726 69.85756160167062 191.7091465041614 70.27034654797927 L 191.7091465041614 70.27034654797927 Q 191.83991541454142 70.67281187063023 191.82827683326357 71.0759118109516 Q 191.81663825198572 71.47901175127296 191.62725492636423 71.79154622083735 Q 191.4378716007427 72.10408069040174 191.0457259017495 72.23149655179766 L 191.0457259017495 72.23149655179766 Q 190.65358020275627 72.35891241319358 190.03674707364195 72.2512880726245 L 190.03674707364195 72.2512880726245 Q 189.58063296724535 72.21694300448107 187.26285212335947 72.87876288969024 Q 184.94507127947355 73.5405827748994 182.24132988115184 74.41908160873443 L 182.24132988115184 74.41908160873443 Q 179.70270246135357 75.24393165882381 177.65708926087015 75.9884553457405 Q 175.6114760603867 76.73297903265721 175.30058496712817 77.00513010196657 L 175.30058496712817 77.00513010196657 Q 174.8648164831554 77.45476543891418 174.47267078416218 77.5821813003101 L 174.47267078416218 77.5821813003101 Q 174.05988583785353 77.71630325967422 173.70929568428966 77.56780771362547 Q 173.3587055307258 77.41931216757673 173.1038406597478 77.09139535269227 Q 172.84897578876974 76.76347853780783 172.71820687838974 76.36101321515687 Z" fill-opacity="1"/></g></g><g><g><path fill="rgb(0,0,0)" stroke="none" paint-order="stroke fill markers" d=" M 175.52087733455073 88.02768216083363 L 175.52087733455073 88.02768216083363 Q 175.45298043132146 87.59899798522811 175.53119557548692 87.19111573363362 Q 175.60941071965237 86.78323348203914 175.8543732666342 86.49175838267657 Q 176.09933581361602 86.200283283314 176.52801998922158 86.13238638008472 L 176.52801998922158 86.13238638008472 Q 176.93526995604682 86.06788432201692 177.5276726896236 86.27067758893334 L 177.5276726896236 86.27067758893334 Q 177.96038399515984 86.36693209671762 180.3898217044915 86.06454158768865 Q 182.81925941382315 85.7621510786597 185.65929207720978 85.3123340947658 L 185.65929207720978 85.3123340947658 Q 188.27426554840352 84.89816298506727 190.3852189708761 84.49241213554652 Q 192.49617239334873 84.08666128602574 192.82607292209303 83.88060687939966 L 192.82607292209303 83.88060687939966 Q 193.3160977319202 83.50637393182934 193.71263059435532 83.44356929634228 L 193.71263059435532 83.44356929634228 Q 194.14131476996084 83.375672393113 194.45533907384691 83.58959862266767 Q 194.76936337773301 83.80352485222232 194.9661318180968 84.17883993239829 Q 195.1629002584606 84.55415501257426 195.23079716168988 84.9828391881798 L 195.23079716168988 84.9828391881798 Q 195.29699664233843 85.40080625939518 195.2224426277873 85.79712269530917 Q 195.14788861323618 86.19343913122314 194.91194574806374 86.47249970361484 Q 194.6760028828913 86.75156027600654 194.26875291606606 86.81606233407435 L 194.26875291606606 86.81606233407435 Q 193.86150294924082 86.88056439214215 193.26910021566403 86.67777112522573 L 193.26910021566403 86.67777112522573 Q 192.82397438315692 86.57249693563206 190.43119782790038 86.86358791343338 Q 188.03842127264383 87.15467889123471 185.23053992242762 87.5994036073864 L 185.23053992242762 87.5994036073864 Q 182.59413224245364 88.0169695622464 180.45723477029603 88.43232252041406 Q 178.32033729813844 88.84767547858173 177.97069998319458 89.06784183475942 L 177.97069998319458 89.06784183475942 Q 177.4699580689773 89.44377220491046 177.06270810215204 89.50827426297826 L 177.06270810215204 89.50827426297826 Q 176.63402392654652 89.57617116620753 176.310979940851 89.37465946362374 Q 175.98793595515554 89.17314776103996 175.78750638517738 88.80939849654449 Q 175.58707681519925 88.44564923204902 175.52087733455073 88.02768216083363 Z" fill-opacity="1"/></g></g><g><g><path fill="rgb(0,0,0)" stroke="none" paint-order="stroke fill markers" d=" M 176.46397315131293 99.98914930555556 L 176.46397315131293 99.98914930555556 Q 176.46397315131293 99.55512152777777 176.6050321790907 99.16449652777777 Q 176.7460912068685 98.77387152777777 177.03363460964627 98.52430555555556 Q 177.32117801242404 98.27473958333333 177.7552057902018 98.27473958333333 L 177.7552057902018 98.27473958333333 Q 178.1675321790907 98.27473958333333 178.72091759575738 98.56770833333333 L 178.72091759575738 98.56770833333333 Q 179.13324398464627 98.73046875 181.5800755818685 98.81184895833333 Q 184.0269071790907 98.89322916666667 186.9023412068685 98.89322916666667 L 186.9023412068685 98.89322916666667 Q 189.54991065131293 98.89322916666667 191.69834815131293 98.82269965277777 Q 193.84678565131293 98.75217013888889 194.2048585679796 98.60026041666667 L 194.2048585679796 98.60026041666667 Q 194.7473932902018 98.30729166666667 195.14886898464627 98.30729166666667 L 195.14886898464627 98.30729166666667 Q 195.58289676242404 98.30729166666667 195.85958947075738 98.56770833333333 Q 196.1362821790907 98.828125 196.27191585964627 99.22960069444444 Q 196.4075495402018 99.63107638888889 196.4075495402018 100.06510416666667 L 196.4075495402018 100.06510416666667 Q 196.4075495402018 100.48828125 196.27191585964627 100.86805555555556 Q 196.1362821790907 101.24782986111111 195.85958947075738 101.48654513888889 Q 195.58289676242404 101.72526041666667 195.17057037353516 101.72526041666667 L 195.17057037353516 101.72526041666667 Q 194.75824398464627 101.72526041666667 194.2048585679796 101.43229166666667 L 194.2048585679796 101.43229166666667 Q 193.78168148464627 101.25868055555556 191.3728273179796 101.171875 Q 188.96397315131293 101.08506944444444 186.1210912068685 101.08506944444444 L 186.1210912068685 101.08506944444444 Q 183.45182037353516 101.08506944444444 181.27625613742404 101.16102430555556 Q 179.10069190131293 101.23697916666667 178.72091759575738 101.39973958333333 L 178.72091759575738 101.39973958333333 Q 178.1675321790907 101.69270833333333 177.7552057902018 101.69270833333333 L 177.7552057902018 101.69270833333333 Q 177.32117801242404 101.69270833333333 177.03363460964627 101.44314236111111 Q 176.7460912068685 101.19357638888889 176.6050321790907 100.80295138888889 Q 176.46397315131293 100.41232638888889 176.46397315131293 99.98914930555556 Z" fill-opacity="1"/></g></g><g><g><path fill="rgb(0,0,0)" stroke="none" paint-order="stroke fill markers" d=" M 175.52427217971217 111.95088363038607 L 175.52427217971217 111.95088363038607 Q 175.59216908294144 111.52219945478055 175.7925986529196 111.15845019028508 Q 175.99302822289772 110.79470092578961 176.31607220859323 110.59318922320583 Q 176.6391161942887 110.39167752062204 177.06780036989423 110.45957442385131 L 177.06780036989423 110.45957442385131 Q 177.47505033671948 110.52407648191911 177.9757922509368 110.90000685207015 L 177.9757922509368 110.90000685207015 Q 178.35758087905106 111.12526547599003 180.76155724967174 111.58841255087106 Q 183.16553362029242 112.05155962575209 186.00556628367903 112.50137660964597 L 186.00556628367903 112.50137660964597 Q 188.62053975487277 112.9155477193445 190.7535596708949 113.18197621179348 Q 192.886579586917 113.44840470424245 193.2640079479218 113.35438018794466 L 193.2640079479218 113.35438018794466 Q 193.84569357710848 113.14988949844752 194.2422264395436 113.21269413393459 L 194.2422264395436 113.21269413393459 Q 194.67091061514913 113.28059103716386 194.9034586351601 113.58108581833582 Q 195.13600665517106 113.8815805995078 195.20716582456072 114.29933124420207 Q 195.27832499395038 114.71708188889632 195.2104280907211 115.14576606450186 L 195.2104280907211 115.14576606450186 Q 195.14422861007256 115.56373313571724 194.95085501487023 115.91761400711293 Q 194.7574814196679 116.27149487850862 194.44685196094326 116.46398689928301 Q 194.13622250221866 116.6564789200574 193.7289725353934 116.5919768619896 L 193.7289725353934 116.5919768619896 Q 193.32172256856813 116.52747480392179 192.82098065435085 116.15154443377074 L 192.82098065435085 116.15154443377074 Q 192.43017234442718 115.91387128288 190.06455455046233 115.45130663483646 Q 187.69893675649752 114.98874198679292 184.89105540628128 114.54401727064122 L 184.89105540628128 114.54401727064122 Q 182.2546477263073 114.12645131578122 180.09398633801945 113.8611378190755 Q 177.93332494973163 113.59582432236977 177.53276495736583 113.69717109789623 L 177.53276495736583 113.69717109789623 Q 176.940362223789 113.89996436481265 176.53311225696376 113.83546230674484 L 176.53311225696376 113.83546230674484 Q 176.10442808135824 113.76756540351558 175.8594655343764 113.476090304153 Q 175.61450298739456 113.18461520479043 175.5362878432291 112.77673295319595 Q 175.45807269906365 112.36885070160146 175.52427217971217 111.95088363038607 Z" fill-opacity="1"/></g></g><g><g><path fill="rgb(0,0,0)" stroke="none" paint-order="stroke fill markers" d=" M 172.72491297635796 123.61834753752767 L 172.72491297635796 123.61834753752767 Q 172.8590349357221 123.20556259121902 173.11389980670012 122.87764577633456 Q 173.36876467767814 122.54972896145011 173.71935483124201 122.40123341540136 Q 174.06994498480586 122.25273786935261 174.48272993111453 122.38685982871674 L 174.48272993111453 122.38685982871674 Q 174.87487563010774 122.51427569011267 175.3106441140805 122.96391102706026 L 175.3106441140805 122.96391102706026 Q 175.65249407831217 123.24612124332194 177.95442134574648 124.07963096667008 Q 180.2563486131808 124.91314069001821 182.99104888247567 125.80169867080555 L 182.99104888247567 125.80169867080555 Q 185.5090370549585 126.61984262292673 187.57411735758302 127.21666876800398 Q 189.63919766020757 127.81349491308126 190.02668792668965 127.77967079834863 L 190.02668792668965 127.77967079834863 Q 190.63320143214628 127.66869340879545 191.0150275074818 127.79275622120726 L 191.0150275074818 127.79275622120726 Q 191.42781245379044 127.92687818057138 191.61048968144374 128.2600518974512 Q 191.79316690909704 128.59322561433103 191.79809939240667 129.01696480196784 Q 191.8030318757163 129.44070398960463 191.6689099163522 129.8534889359133 L 191.6689099163522 129.8534889359133 Q 191.53814100597216 130.25595425856426 191.2917889958071 130.57522797428302 Q 191.04543698564203 130.89450169000182 190.70851950472 131.03603066137697 Q 190.37160202379795 131.1775596327521 189.97945632480472 131.05014377135618 L 189.97945632480472 131.05014377135618 Q 189.58731062581148 130.92272790996026 189.15154214183875 130.47309257301265 L 189.15154214183875 130.47309257301265 Q 188.80272560293344 130.17720968410916 186.5385935427932 129.3502758203765 Q 184.27446148265295 128.5233419566439 181.57072008433124 127.64484312280885 L 181.57072008433124 127.64484312280885 Q 179.03209266453297 126.81999307271948 176.9395367782721 126.21994411701081 Q 174.8469808920112 125.61989516130214 174.43549832922957 125.65733280172428 L 174.43549832922957 125.65733280172428 Q 173.81866520011525 125.76495714229337 173.42651950112202 125.63754128089744 L 173.42651950112202 125.63754128089744 Q 173.01373455481337 125.50341932153331 172.81738465451826 125.1772121793271 Q 172.62103475422313 124.85100503712088 172.60758941010053 124.43590894864975 Q 172.59414406597793 124.02081286017862 172.72491297635796 123.61834753752767 Z" fill-opacity="1"/></g></g><g><g><path fill="rgb(0,0,0)" stroke="none" paint-order="stroke fill markers" d=" M 168.13482505537738 134.70424934349387 L 168.13482505537738 134.70424934349387 Q 168.33186954311157 134.3175277618149 168.634894096118 134.0335177968174 Q 168.9379186491244 133.74950783181993 169.3074222774339 133.6576848954784 Q 169.67692590574336 133.5658619591369 170.06364748742234 133.76290644687106 L 170.06364748742234 133.76290644687106 Q 170.43103299001737 133.95009871021853 170.79109797743752 134.46236749971294 L 170.79109797743752 134.46236749971294 Q 171.08459179713222 134.79458035619 173.2277888723973 135.97792895235625 Q 175.37098594766238 137.1612775485225 177.93301642628563 138.46669727976143 L 177.93301642628563 138.46669727976143 Q 180.2920180745274 139.66866865493992 182.23830963309516 140.58119661220127 Q 184.1846011916629 141.49372456946261 184.57261206725502 141.52093371825566 L 184.57261206725502 141.52093371825566 Q 185.18901907357431 141.50620226029008 185.54673653662738 141.68846841144418 L 185.54673653662738 141.68846841144418 Q 185.93345811830636 141.88551289917837 186.06176643398618 142.2431617091163 Q 186.19007474966602 142.60081051905422 186.1286590927866 143.02010438452422 Q 186.06724343590716 143.43939824999418 185.870198948173 143.82611983167317 L 185.870198948173 143.82611983167317 Q 185.67808057263215 144.2031733738102 185.3848161515901 144.47997835536236 Q 185.091551730548 144.75678333691454 184.73664225397386 144.84386434590743 Q 184.3817327773997 144.93094535490033 184.01434727480466 144.74375309155286 L 184.01434727480466 144.74375309155286 Q 183.64696177220964 144.5565608282054 183.28689678478952 144.044292038711 L 183.28689678478952 144.044292038711 Q 182.98866103774617 143.6974850304986 180.88176515697467 142.5265438072381 Q 178.77486927620316 141.35560258397763 176.24184291620585 140.06496118931875 L 176.24184291620585 140.06496118931875 Q 173.86350518888014 138.85313758975354 171.89058047536076 137.93312837177982 Q 169.91765576184142 137.01311915380606 169.50538269497198 136.98572582016826 L 169.50538269497198 136.98572582016826 Q 168.87930764911073 136.9955311659405 168.5119221465157 136.80833890259302 L 168.5119221465157 136.80833890259302 Q 168.12520056483672 136.61129441485886 167.98229809742153 136.25838753226955 Q 167.83939563000638 135.90548064968024 167.89105115492146 135.49339176765554 Q 167.94270667983656 135.08130288563086 168.13482505537738 134.70424934349387 Z" fill-opacity="1"/></g></g><g><g><path fill="rgb(0,0,0)" stroke="none" paint-order="stroke fill markers" d=" M 161.86703161501345 144.935617353823 L 161.86703161501345 144.935617353823 Q 162.1221467418765 144.58448150557 162.46586950673546 144.35137165837278 Q 162.80959227159445 144.11826181117556 163.18891096900833 144.08537246997685 Q 163.56822966642218 144.05248312877814 163.9193655146752 144.30759825564118 L 163.9193655146752 144.30759825564118 Q 164.25294457051558 144.54995762616107 164.5284400664056 145.11224611048226 L 164.5284400664056 145.11224611048226 Q 164.76635094967233 145.48628142409706 166.6980452079119 146.99033092333494 Q 168.62973946615145 148.49438042257285 170.95601446082767 150.18451813804057 L 170.95601446082767 150.18451813804057 Q 173.09794313517105 151.7407204119052 174.87752179213874 152.9464807145362 Q 176.6571004491064 154.15224101716717 177.0360778183172 154.23981344994064 L 177.0360778183172 154.23981344994064 Q 177.64720033926605 154.32169066094866 177.97200099890009 154.557672153297 L 177.97200099890009 154.557672153297 Q 178.32313684715308 154.81278728016005 178.39391687429656 155.18610468248704 Q 178.46469690144002 155.55942208481406 178.33844536167078 155.9639462215928 Q 178.2121938219015 156.36847035837155 177.95707869503846 156.71960620662455 L 177.95707869503846 156.71960620662455 Q 177.708341446347 157.06196365867126 177.37538575776276 157.28948404874794 Q 177.0424300691785 157.5170044388246 176.67826764614253 157.5474932619886 Q 176.31410522310657 157.57798208515254 175.9805261672662 157.33562271463265 L 175.9805261672662 157.33562271463265 Q 175.64694711142582 157.09326334411276 175.3714516155358 156.53097485979157 L 175.3714516155358 156.53097485979157 Q 175.13114021423434 156.1417832717989 173.2333592818027 154.65566714805834 Q 171.33557834937108 153.1695510243178 169.0356385433138 151.4985469433648 L 169.0356385433138 151.4985469433648 Q 166.87615307655778 149.92958891315703 165.0714394899885 148.71227311320024 Q 163.26672590341923 147.49495731324348 162.8638138636242 147.4034075203332 L 162.8638138636242 147.4034075203332 Q 162.24391294646904 147.3151524311536 161.91033389062866 147.07279306063367 L 161.91033389062866 147.07279306063367 Q 161.55919804237567 146.81767793377063 161.4732617408543 146.44676104947837 Q 161.38732543933293 146.0758441651861 161.50280990282744 145.67690948552791 Q 161.61829436632195 145.27797480586972 161.86703161501345 144.935617353823 Z" fill-opacity="1"/></g></g><g><g><path fill="rgb(0,0,0)" stroke="none" paint-order="stroke fill markers" d=" M 154.07586653138173 154.06052133213723 L 154.07586653138173 154.06052133213723 Q 154.38277051627173 153.75361734724723 154.758727897762 153.57714755593548 Q 155.1346852792522 153.40067776462374 155.5144789605536 153.42753186330162 Q 155.89427264185494 153.45438596197948 156.20117662674494 153.76128994686948 L 156.20117662674494 153.76128994686948 Q 156.49273541239043 154.05284873251497 156.67687780332443 154.65131150305047 L 156.67687780332443 154.65131150305047 Q 156.85334759463618 155.05795928302973 158.52597431228665 156.84567499501395 Q 160.19860102993712 158.63339070699814 162.23183992983334 160.66662960689436 L 162.23183992983334 160.66662960689436 Q 164.10395423766232 162.53874391472334 165.6730008604124 164.00804674238418 Q 167.2420474831625 165.47734957004502 167.60265966540825 165.62312896286778 L 167.60265966540825 165.62312896286778 Q 168.1934498363215 165.79959875417953 168.47733602234473 166.08348494020277 L 168.47733602234473 166.08348494020277 Q 168.78424000723473 166.39038892509276 168.7957489066681 166.77018260639414 Q 168.8072578061015 167.1499762876955 168.61927911535636 167.52976996899687 Q 168.43130042461124 167.90956365029825 168.12439643972124 168.21646763518822 L 168.12439643972124 168.21646763518822 Q 167.8251650544535 168.51569902045597 167.46071657239662 168.68833251195662 Q 167.09626809033975 168.86096600345724 166.73181960828288 168.83411190477935 Q 166.36737112622603 168.80725780610146 166.07581234058054 168.515699020456 L 166.07581234058054 168.515699020456 Q 165.78425355493502 168.22414023481048 165.60011116400102 167.625677464275 L 165.60011116400102 167.625677464275 Q 165.42364137268927 167.20368448505127 163.78170505352782 165.43898657193378 Q 162.13976873436636 163.67428865881632 160.12954763333687 161.66406755778686 L 160.12954763333687 161.66406755778686 Q 158.2420881262634 159.77660805071338 156.65002370464657 158.29196002380803 Q 155.05795928302973 156.80731199690268 154.67432930191723 156.6538600044577 L 154.67432930191723 156.6538600044577 Q 154.07586653138173 156.4697176135237 153.78430774573624 156.1781588278782 L 153.78430774573624 156.1781588278782 Q 153.47740376084624 155.8712548429882 153.45054966216838 155.49146116168683 Q 153.4236955634905 155.11166748038548 153.60016535480224 154.73571009889523 Q 153.776635146114 154.35975271740497 154.07586653138173 154.06052133213723 Z" fill-opacity="1"/></g></g><g><g><path fill="rgb(0,0,0)" stroke="none" paint-order="stroke fill markers" d=" M 144.95317414623568 161.8542758586703 L 144.95317414623568 161.8542758586703 Q 145.3043099944887 161.59916073180722 145.70324467414693 161.4836762683127 Q 146.10217935380513 161.3681918048182 146.47309623809738 161.45412810633957 Q 146.84401312238964 161.54006440786094 147.0991282492527 161.89120025611393 L 147.0991282492527 161.89120025611393 Q 147.34148761977258 162.2247793119543 147.4297427089522 162.84468022910946 L 147.4297427089522 162.84468022910946 Q 147.54042613637722 163.27392745752348 148.91279969252022 165.30128988833667 Q 150.28517324866326 167.32865231914985 151.97531096413098 169.6549273138261 L 151.97531096413098 169.6549273138261 Q 153.5315132379956 171.79685598816948 154.85139269130883 173.49352222890667 Q 156.17127214462204 175.19018846964386 156.5046396711726 175.39058525005052 L 156.5046396711726 175.39058525005052 Q 157.06055027732222 175.65730234973424 157.29653176967054 175.98210300936827 L 157.29653176967054 175.98210300936827 Q 157.5516468965336 176.33323885762127 157.50360128095699 176.7101570370004 Q 157.45555566538036 177.08707521637953 157.21047848289103 177.43278666130692 Q 156.9654013004017 177.7784981062343 156.6142654521487 178.03361323309738 L 156.6142654521487 178.03361323309738 Q 156.271908000102 178.28235048178885 155.8849406557359 178.39584626521494 Q 155.4979733113698 178.50934204864106 155.14221270145546 178.42580626515445 Q 154.7864520915411 178.3422704816678 154.5440927210212 178.00869142582746 L 154.5440927210212 178.00869142582746 Q 154.3017333505013 177.6751123699871 154.2134782613217 177.05521145283194 L 154.2134782613217 177.05521145283194 Q 154.10519535193143 176.61080795004003 152.7595335674921 174.61098096686317 Q 151.41387178305274 172.61115398368634 149.74286770209974 170.3112141776291 L 149.74286770209974 170.3112141776291 Q 148.17390967189198 168.15172871087304 146.83369632504665 166.43630541870584 Q 145.4934829782013 164.72088212653864 145.13858129910128 164.50930643189088 L 145.13858129910128 164.50930643189088 Q 144.5762928147801 164.23381093600085 144.3339334442602 163.90023188016048 L 144.3339334442602 163.90023188016048 Q 144.07881831739715 163.54909603190748 144.11170765859586 163.1697773344936 Q 144.14459699979457 162.79045863707972 144.37770684699177 162.44673587222073 Q 144.610816694189 162.10301310736176 144.95317414623568 161.8542758586703 Z" fill-opacity="1"/></g></g><g><g><path fill="rgb(0,0,0)" stroke="none" paint-order="stroke fill markers" d=" M 134.72358542257783 168.12497283099066 L 134.72358542257783 168.12497283099066 Q 135.1103070042568 167.9279283432565 135.52239588628152 167.8762728183414 Q 135.9344847683062 167.82461729342631 136.2873916508955 167.96751976084147 Q 136.6402985334848 168.11042222825665 136.83734302121897 168.49714380993564 L 136.83734302121897 168.49714380993564 Q 137.02453528456644 168.86452931253066 137.01472993879423 169.49060435839192 L 137.01472993879423 169.49060435839192 Q 137.05690160901207 169.93188154388727 138.09522961204868 172.14897030205267 Q 139.13355761508532 174.36605906021808 140.43897734632424 176.9280895388413 L 140.43897734632424 176.9280895388413 Q 141.64094872150272 179.2870911870831 142.67916119280974 181.16934328713722 Q 143.71737366411676 183.05159538719138 144.01528792008511 183.30167512136956 L 144.01528792008511 183.30167512136956 Q 144.52263059738615 183.6520720692477 144.70489674854025 184.00978953230077 L 144.70489674854025 184.00978953230077 Q 144.90194123627444 184.39651111397976 144.7955241481976 184.7612728149406 Q 144.68910706012073 185.12603451590147 144.3929659994846 185.42915116133025 Q 144.0968249388485 185.73226780675907 143.71010335716952 185.92931229449323 L 143.71010335716952 185.92931229449323 Q 143.3330498150325 186.12143067003407 142.93309202864646 186.1729941025268 Q 142.53313424226042 186.22455753501953 142.19482151140645 186.08639699495296 Q 141.85650878055247 185.9482364548864 141.669316517205 185.58085095229137 L 141.669316517205 185.58085095229137 Q 141.48212425385753 185.21346544969634 141.49192959962977 184.5873904038351 L 141.49192959962977 184.5873904038351 Q 141.45449985676055 184.1315190666044 140.43824726617163 181.94580539073922 Q 139.42199467558274 179.76009171487408 138.1313532809239 177.22706535487674 L 138.1313532809239 177.22706535487674 Q 136.91952968135868 174.84872762755103 135.8641679097973 172.94476848473863 Q 134.8088061382359 171.04080934192623 134.4913716183389 170.77631964085745 L 134.4913716183389 170.77631964085745 Q 133.9791028288445 170.4162546534373 133.79191056549703 170.04886915084228 L 133.79191056549703 170.04886915084228 Q 133.59486607776284 169.6621475691633 133.68668901410436 169.29264394085382 Q 133.77851195044587 168.92314031254435 134.06252191544337 168.62011575953792 Q 134.34653188044084 168.3170912065315 134.72358542257783 168.12497283099066 Z" fill-opacity="1"/></g></g><g><g><path fill="rgb(0,0,0)" stroke="none" paint-order="stroke fill markers" d=" M 123.63898678484313 172.71820687838974 L 123.63898678484313 172.71820687838974 Q 124.05177173115179 172.5840849190256 124.46686781962292 172.5975302631482 Q 124.88196390809405 172.6109756072708 125.20817105030027 172.8073255075659 Q 125.53437819250648 173.00367540786104 125.6685001518706 173.4164603541697 L 125.6685001518706 173.4164603541697 Q 125.79591601326653 173.80860605316292 125.68829167269745 174.42543918227724 L 125.68829167269745 174.42543918227724 Q 125.66091317922762 174.867880616032 126.33962854771 177.22010361822785 Q 127.01834391619239 179.57232662042372 127.90690189697973 182.3070268897186 L 127.90690189697973 182.3070268897186 Q 128.7250458491009 184.82501506220143 129.4560271017285 186.8465057280326 Q 130.18700835435607 188.86799639386382 130.4421337020395 189.16160128879102 L 130.4421337020395 189.16160128879102 Q 130.888415990003 189.58705014910606 131.01247880241482 189.96887622444157 L 131.01247880241482 189.96887622444157 Q 131.14660076177896 190.38166117075022 130.9844325430884 190.72528474964048 Q 130.82226432439782 191.0689083285307 130.4823513613636 191.32196643666398 Q 130.14243839832938 191.57502454479726 129.72965345202073 191.7091465041614 L 129.72965345202073 191.7091465041614 Q 129.32718812936977 191.83991541454142 128.9240881890484 191.82827683326357 Q 128.52098824872704 191.81663825198572 128.20845377916265 191.62725492636423 Q 127.89591930959826 191.4378716007427 127.76850344820234 191.0457259017495 L 127.76850344820234 191.0457259017495 Q 127.64108758680642 190.65358020275627 127.7487119273755 190.03674707364195 L 127.7487119273755 190.03674707364195 Q 127.78305699551893 189.58063296724535 127.12123711030976 187.26285212335947 Q 126.4594172251006 184.94507127947355 125.58091839126557 182.24132988115184 L 125.58091839126557 182.24132988115184 Q 124.75606834117619 179.70270246135357 124.0115446542595 177.65708926087015 Q 123.26702096734279 175.6114760603867 122.99486989803343 175.30058496712817 L 122.99486989803343 175.30058496712817 Q 122.54523456108582 174.8648164831554 122.4178186996899 174.47267078416218 L 122.4178186996899 174.47267078416218 Q 122.28369674032578 174.05988583785353 122.43219228637453 173.70929568428966 Q 122.58068783242327 173.3587055307258 122.90860464730773 173.1038406597478 Q 123.23652146219217 172.84897578876974 123.63898678484313 172.71820687838974 Z" fill-opacity="1"/></g></g><g><g><path fill="rgb(0,0,0)" stroke="none" paint-order="stroke fill markers" d=" M 111.97231783916637 175.52087733455073 L 111.97231783916637 175.52087733455073 Q 112.40100201477189 175.45298043132146 112.80888426636638 175.53119557548692 Q 113.21676651796086 175.60941071965237 113.50824161732343 175.8543732666342 Q 113.799716716686 176.09933581361602 113.86761361991528 176.52801998922158 L 113.86761361991528 176.52801998922158 Q 113.93211567798308 176.93526995604682 113.72932241106666 177.5276726896236 L 113.72932241106666 177.5276726896236 Q 113.63306790328238 177.96038399515984 113.93545841231135 180.3898217044915 Q 114.2378489213403 182.81925941382315 114.6876659052342 185.65929207720978 L 114.6876659052342 185.65929207720978 Q 115.10183701493273 188.2742655484035 115.50758786445348 190.3852189708761 Q 115.91333871397426 192.49617239334873 116.11939312060034 192.82607292209303 L 116.11939312060034 192.82607292209303 Q 116.49362606817066 193.3160977319202 116.55643070365772 193.71263059435532 L 116.55643070365772 193.71263059435532 Q 116.624327606887 194.14131476996084 116.41040137733233 194.45533907384691 Q 116.19647514777768 194.76936337773301 115.82116006760171 194.9661318180968 Q 115.44584498742574 195.1629002584606 115.0171608118202 195.23079716168988 L 115.0171608118202 195.23079716168988 Q 114.59919374060482 195.2969966423384 114.20287730469084 195.2224426277873 Q 113.80656086877686 195.14788861323618 113.52750029638516 194.91194574806374 Q 113.24843972399346 194.6760028828913 113.18393766592565 194.26875291606606 L 113.18393766592565 194.26875291606606 Q 113.11943560785785 193.86150294924082 113.32222887477427 193.26910021566403 L 113.32222887477427 193.26910021566403 Q 113.42750306436794 192.82397438315692 113.13641208656662 190.43119782790038 Q 112.84532110876529 188.03842127264383 112.4005963926136 185.23053992242762 L 112.4005963926136 185.23053992242762 Q 111.9830304377536 182.59413224245364 111.56767747958594 180.45723477029603 Q 111.15232452141827 178.32033729813844 110.93215816524058 177.97069998319458 L 110.93215816524058 177.97069998319458 Q 110.55622779508954 177.4699580689773 110.49172573702174 177.06270810215204 L 110.49172573702174 177.06270810215204 Q 110.42382883379247 176.63402392654652 110.62534053637626 176.310979940851 Q 110.82685223896004 175.98793595515554 111.19060150345551 175.78750638517738 Q 111.55435076795098 175.58707681519925 111.97231783916637 175.52087733455073 Z" fill-opacity="1"/></g></g><g><g><path fill="rgb(0,0,0)" stroke="none" paint-order="stroke fill markers" d=" M 100.01085069444446 176.46397315131293 L 100.01085069444446 176.46397315131293 Q 100.44487847222224 176.46397315131293 100.83550347222224 176.6050321790907 Q 101.22612847222224 176.7460912068685 101.47569444444446 177.03363460964627 Q 101.72526041666669 177.32117801242404 101.72526041666669 177.7552057902018 L 101.72526041666669 177.7552057902018 Q 101.72526041666669 178.1675321790907 101.43229166666669 178.72091759575738 L 101.43229166666669 178.72091759575738 Q 101.26953125000001 179.13324398464627 101.18815104166669 181.5800755818685 Q 101.10677083333334 184.0269071790907 101.10677083333334 186.9023412068685 L 101.10677083333334 186.9023412068685 Q 101.10677083333334 189.54991065131293 101.17730034722224 191.69834815131293 Q 101.24782986111113 193.84678565131293 101.39973958333336 194.2048585679796 L 101.39973958333336 194.2048585679796 Q 101.69270833333336 194.7473932902018 101.69270833333336 195.14886898464627 L 101.69270833333336 195.14886898464627 Q 101.69270833333336 195.58289676242404 101.43229166666669 195.85958947075738 Q 101.17187500000001 196.1362821790907 100.77039930555557 196.27191585964627 Q 100.36892361111113 196.4075495402018 99.93489583333336 196.4075495402018 L 99.93489583333336 196.4075495402018 Q 99.51171875000001 196.4075495402018 99.13194444444446 196.27191585964627 Q 98.7521701388889 196.1362821790907 98.51345486111113 195.85958947075738 Q 98.27473958333336 195.58289676242404 98.27473958333336 195.17057037353516 L 98.27473958333336 195.17057037353516 Q 98.27473958333336 194.75824398464627 98.56770833333336 194.2048585679796 L 98.56770833333336 194.2048585679796 Q 98.74131944444446 193.78168148464627 98.82812500000001 191.3728273179796 Q 98.91493055555557 188.96397315131293 98.91493055555557 186.1210912068685 L 98.91493055555557 186.1210912068685 Q 98.91493055555557 183.45182037353516 98.83897569444446 181.27625613742404 Q 98.76302083333334 179.10069190131293 98.60026041666669 178.72091759575738 L 98.60026041666669 178.72091759575738 Q 98.30729166666669 178.1675321790907 98.30729166666669 177.7552057902018 L 98.30729166666669 177.7552057902018 Q 98.30729166666669 177.32117801242404 98.5568576388889 177.03363460964627 Q 98.80642361111113 176.7460912068685 99.19704861111113 176.6050321790907 Q 99.58767361111113 176.46397315131293 100.01085069444446 176.46397315131293 Z" fill-opacity="1"/></g></g><g><g><path fill="rgb(0,0,0)" stroke="none" paint-order="stroke fill markers" d=" M 88.04911636961393 175.52427217971217 L 88.04911636961393 175.52427217971217 Q 88.47780054521945 175.59216908294144 88.84154980971492 175.7925986529196 Q 89.20529907421039 175.99302822289772 89.40681077679417 176.31607220859323 Q 89.60832247937796 176.6391161942887 89.54042557614869 177.06780036989423 L 89.54042557614869 177.06780036989423 Q 89.47592351808089 177.47505033671948 89.09999314792985 177.9757922509368 L 89.09999314792985 177.9757922509368 Q 88.87473452400997 178.35758087905106 88.41158744912894 180.76155724967174 Q 87.94844037424791 183.16553362029242 87.49862339035403 186.00556628367903 L 87.49862339035403 186.00556628367903 Q 87.0844522806555 188.62053975487277 86.81802378820652 190.7535596708949 Q 86.55159529575755 192.886579586917 86.64561981205534 193.2640079479218 L 86.64561981205534 193.2640079479218 Q 86.85011050155249 193.84569357710848 86.78730586606541 194.2422264395436 L 86.78730586606541 194.2422264395436 Q 86.71940896283616 194.67091061514913 86.41891418166418 194.9034586351601 Q 86.1184194004922 195.13600665517106 85.70066875579793 195.20716582456072 Q 85.28291811110368 195.27832499395038 84.85423393549814 195.2104280907211 L 84.85423393549814 195.2104280907211 Q 84.43626686428276 195.14422861007256 84.08238599288707 194.95085501487023 Q 83.72850512149138 194.7574814196679 83.53601310071699 194.44685196094326 Q 83.3435210799426 194.13622250221866 83.4080231380104 193.7289725353934 L 83.4080231380104 193.7289725353934 Q 83.47252519607822 193.32172256856813 83.84845556622926 192.82098065435085 L 83.84845556622926 192.82098065435085 Q 84.08612871712 192.43017234442718 84.54869336516354 190.06455455046233 Q 85.01125801320708 187.69893675649752 85.45598272935878 184.89105540628128 L 85.45598272935878 184.89105540628128 Q 85.87354868421878 182.2546477263073 86.1388621809245 180.09398633801945 Q 86.40417567763023 177.93332494973163 86.30282890210377 177.53276495736583 L 86.30282890210377 177.53276495736583 Q 86.10003563518735 176.940362223789 86.16453769325516 176.53311225696376 L 86.16453769325516 176.53311225696376 Q 86.23243459648442 176.10442808135824 86.523909695847 175.8594655343764 Q 86.81538479520957 175.61450298739456 87.22326704680405 175.5362878432291 Q 87.63114929839854 175.45807269906365 88.04911636961393 175.52427217971217 Z" fill-opacity="1"/></g></g><g><g><path fill="rgb(0,0,0)" stroke="none" paint-order="stroke fill markers" d=" M 76.38165246247233 172.72491297635796 L 76.38165246247233 172.72491297635796 Q 76.79443740878098 172.8590349357221 77.12235422366544 173.11389980670012 Q 77.45027103854989 173.36876467767814 77.59876658459864 173.71935483124201 Q 77.74726213064739 174.06994498480586 77.61314017128326 174.48272993111453 L 77.61314017128326 174.48272993111453 Q 77.48572430988733 174.87487563010774 77.03608897293974 175.3106441140805 L 77.03608897293974 175.3106441140805 Q 76.75387875667806 175.65249407831217 75.92036903332992 177.95442134574648 Q 75.08685930998179 180.2563486131808 74.19830132919445 182.99104888247567 L 74.19830132919445 182.99104888247567 Q 73.38015737707327 185.5090370549585 72.78333123199602 187.57411735758302 Q 72.18650508691874 189.63919766020757 72.22032920165137 190.02668792668965 L 72.22032920165137 190.02668792668965 Q 72.33130659120455 190.63320143214628 72.20724377879274 191.0150275074818 L 72.20724377879274 191.0150275074818 Q 72.07312181942862 191.42781245379044 71.7399481025488 191.61048968144374 Q 71.40677438566897 191.79316690909704 70.98303519803216 191.79809939240667 Q 70.55929601039536 191.8030318757163 70.1465110640867 191.6689099163522 L 70.1465110640867 191.6689099163522 Q 69.74404574143576 191.53814100597216 69.42477202571696 191.2917889958071 Q 69.10549830999818 191.04543698564203 68.96396933862304 190.70851950472 Q 68.8224403672479 190.37160202379795 68.94985622864384 189.97945632480472 L 68.94985622864384 189.97945632480472 Q 69.07727209003976 189.58731062581148 69.52690742698736 189.15154214183875 L 69.52690742698736 189.15154214183875 Q 69.82279031589084 188.80272560293344 70.64972417962348 186.5385935427932 Q 71.47665804335611 184.27446148265295 72.35515687719115 181.57072008433124 L 72.35515687719115 181.57072008433124 Q 73.18000692728052 179.03209266453297 73.78005588298919 176.9395367782721 Q 74.38010483869786 174.8469808920112 74.34266719827572 174.43549832922957 L 74.34266719827572 174.43549832922957 Q 74.23504285770663 173.81866520011525 74.36245871910256 173.42651950112202 L 74.36245871910256 173.42651950112202 Q 74.49658067846669 173.01373455481337 74.8227878206729 172.81738465451826 Q 75.14899496287912 172.62103475422313 75.56409105135025 172.60758941010053 Q 75.97918713982138 172.59414406597793 76.38165246247233 172.72491297635796 Z" fill-opacity="1"/></g></g><g><g><path fill="rgb(0,0,0)" stroke="none" paint-order="stroke fill markers" d=" M 65.29575065650614 168.13482505537738 L 65.29575065650614 168.13482505537738 Q 65.68247223818513 168.33186954311157 65.9664822031826 168.634894096118 Q 66.25049216818007 168.9379186491244 66.34231510452159 169.3074222774339 Q 66.4341380408631 169.67692590574336 66.23709355312893 170.06364748742234 L 66.23709355312893 170.06364748742234 Q 66.04990128978146 170.43103299001737 65.53763250028707 170.79109797743752 L 65.53763250028707 170.79109797743752 Q 65.20541964380999 171.08459179713222 64.02207104764375 173.2277888723973 Q 62.83872245147751 175.37098594766238 61.53330272023858 177.93301642628563 L 61.53330272023858 177.93301642628563 Q 60.33133134506009 180.2920180745274 59.41880338779874 182.23830963309516 Q 58.50627543053739 184.1846011916629 58.47906628174434 184.57261206725502 L 58.47906628174434 184.57261206725502 Q 58.493797739709926 185.18901907357431 58.31153158855581 185.54673653662738 L 58.31153158855581 185.54673653662738 Q 58.114487100821634 185.93345811830636 57.75683829088371 186.06176643398618 Q 57.39918948094578 186.19007474966602 56.9798956154758 186.1286590927866 Q 56.56060175000581 186.06724343590716 56.17388016832683 185.870198948173 L 56.17388016832683 185.870198948173 Q 55.79682662618983 185.67808057263215 55.52002164463765 185.3848161515901 Q 55.24321666308548 185.091551730548 55.15613565409257 184.73664225397386 Q 55.06905464509967 184.3817327773997 55.25624690844714 184.01434727480466 L 55.25624690844714 184.01434727480466 Q 55.44343917179461 183.64696177220964 55.955707961289 183.28689678478952 L 55.955707961289 183.28689678478952 Q 56.302514969501416 182.98866103774617 57.4734561927619 180.88176515697467 Q 58.644397416022386 178.77486927620316 59.93503881068125 176.24184291620585 L 59.93503881068125 176.24184291620585 Q 61.14686241024645 173.86350518888014 62.0668716282202 171.89058047536076 Q 62.98688084619394 169.91765576184142 63.01427417983173 169.50538269497198 L 63.01427417983173 169.50538269497198 Q 63.0044688340595 168.87930764911073 63.191661097406964 168.5119221465157 L 63.191661097406964 168.5119221465157 Q 63.388705585141146 168.12520056483672 63.741612467730455 167.98229809742153 Q 64.09451935031976 167.83939563000638 64.50660823234445 167.89105115492146 Q 64.91869711436914 167.94270667983656 65.29575065650614 168.13482505537738 Z" fill-opacity="1"/></g></g><g><g><path fill="rgb(0,0,0)" stroke="none" paint-order="stroke fill markers" d=" M 55.064382646176966 161.86703161501347 L 55.064382646176966 161.86703161501347 Q 55.41551849442998 162.12214674187652 55.64862834162721 162.4658695067355 Q 55.88173818882443 162.80959227159448 55.91462753002314 163.18891096900836 Q 55.94751687122185 163.5682296664222 55.6924017443588 163.91936551467523 L 55.6924017443588 163.91936551467523 Q 55.4500423738389 164.2529445705156 54.88775388951772 164.52844006640564 L 54.88775388951772 164.52844006640564 Q 54.51371857590294 164.76635094967236 53.00966907666504 166.69804520791192 Q 51.50561957742714 168.62973946615148 49.81548186195942 170.9560144608277 L 49.81548186195942 170.9560144608277 Q 48.2592795880948 173.09794313517108 47.05351928546381 174.87752179213877 Q 45.84775898283281 176.65710044910642 45.760186550059345 177.03607781831724 L 45.760186550059345 177.03607781831724 Q 45.67830933905132 177.64720033926608 45.442327846702995 177.9720009989001 L 45.442327846702995 177.9720009989001 Q 45.18721271983994 178.32313684715314 44.81389531751293 178.3939168742966 Q 44.440577915185926 178.46469690144005 44.03605377840719 178.3384453616708 Q 43.63152964162845 178.21219382190154 43.280393793375424 177.9570786950385 L 43.280393793375424 177.9570786950385 Q 42.93803634132874 177.70834144634702 42.71051595125205 177.37538575776279 Q 42.48299556117537 177.04243006917852 42.4525067380114 176.67826764614256 Q 42.422017914847444 176.3141052231066 42.66437728536734 175.98052616726622 L 42.66437728536734 175.98052616726622 Q 42.906736655887244 175.64694711142585 43.469025140208416 175.37145161553582 L 43.469025140208416 175.37145161553582 Q 43.8582167282011 175.13114021423436 45.344332851941644 173.23335928180273 Q 46.83044897568219 171.3355783493711 48.501453056635185 169.03563854331384 L 48.501453056635185 169.03563854331384 Q 50.07041108684296 166.8761530765578 51.28772688679973 165.07143948998853 Q 52.505042686756504 163.26672590341926 52.596592479666796 162.86381386362422 L 52.596592479666796 162.86381386362422 Q 52.6848475688464 162.24391294646907 52.9272069393663 161.9103338906287 L 52.9272069393663 161.9103338906287 Q 53.182322066229354 161.5591980423757 53.55323895052161 161.47326174085433 Q 53.92415583481387 161.38732543933295 54.32309051447207 161.50280990282747 Q 54.72202519413028 161.61829436632198 55.064382646176966 161.86703161501347 Z" fill-opacity="1"/></g></g><g><g><path fill="rgb(0,0,0)" stroke="none" paint-order="stroke fill markers" d=" M 45.93947866786278 154.07586653138173 L 45.93947866786278 154.07586653138173 Q 46.24638265275277 154.38277051627173 46.42285244406452 154.758727897762 Q 46.59932223537626 155.1346852792522 46.57246813669839 155.5144789605536 Q 46.54561403802052 155.89427264185494 46.238710053130525 156.20117662674494 L 46.238710053130525 156.20117662674494 Q 45.947151267485026 156.49273541239043 45.34868849694954 156.67687780332443 L 45.34868849694954 156.67687780332443 Q 44.9420407169703 156.85334759463618 43.15432500498608 158.52597431228665 Q 41.36660929300186 160.19860102993712 39.333370393105646 162.23183992983334 L 39.333370393105646 162.23183992983334 Q 37.46125608527668 164.10395423766232 35.991953257615826 165.6730008604124 Q 34.52265042995498 167.2420474831625 34.37687103713223 167.60265966540825 L 34.37687103713223 167.60265966540825 Q 34.20040124582049 168.1934498363215 33.91651505979724 168.47733602234473 L 33.91651505979724 168.47733602234473 Q 33.60961107490725 168.78424000723473 33.22981739360588 168.7957489066681 Q 32.85002371230451 168.8072578061015 32.47023003100314 168.61927911535636 Q 32.090436349701775 168.43130042461124 31.78353236481178 168.12439643972124 L 31.78353236481178 168.12439643972124 Q 31.484300979544035 167.8251650544535 31.311667488043412 167.46071657239662 Q 31.13903399654279 167.09626809033975 31.165888095220662 166.73181960828288 Q 31.19274219389854 166.36737112622603 31.48430097954403 166.07581234058054 L 31.48430097954403 166.07581234058054 Q 31.775859765189526 165.78425355493505 32.374322535725014 165.60011116400102 L 32.374322535725014 165.60011116400102 Q 32.79631551494876 165.4236413726893 34.56101342806623 163.78170505352782 Q 36.3257113411837 162.13976873436636 38.33593244221316 160.12954763333687 L 38.33593244221316 160.12954763333687 Q 40.22339194928663 158.2420881262634 41.70803997619198 156.65002370464657 Q 43.192688003097324 155.05795928302973 43.34613999554232 154.67432930191723 L 43.34613999554232 154.67432930191723 Q 43.53028238647632 154.07586653138173 43.821841172121815 153.78430774573624 L 43.821841172121815 153.78430774573624 Q 44.12874515701181 153.47740376084624 44.50853883831318 153.45054966216838 Q 44.88833251961455 153.4236955634905 45.26428990110479 153.60016535480224 Q 45.640247282595034 153.776635146114 45.93947866786278 154.07586653138173 Z" fill-opacity="1"/></g></g><g><g><path fill="rgb(0,0,0)" stroke="none" paint-order="stroke fill markers" d=" M 38.145724141329715 144.95317414623568 L 38.145724141329715 144.95317414623568 Q 38.40083926819277 145.3043099944887 38.51632373168729 145.70324467414693 Q 38.631808195181804 146.10217935380513 38.54587189366044 146.47309623809738 Q 38.45993559213907 146.84401312238964 38.10879974388605 147.0991282492527 L 38.10879974388605 147.0991282492527 Q 37.77522068804569 147.34148761977258 37.155319770890536 147.4297427089522 L 37.155319770890536 147.4297427089522 Q 36.72607254247652 147.54042613637722 34.69871011166333 148.91279969252022 Q 32.67134768085013 150.28517324866326 30.345072686173907 151.97531096413098 L 30.345072686173907 151.97531096413098 Q 28.203144011830513 153.5315132379956 26.50647777109333 154.85139269130883 Q 24.80981153035615 156.17127214462204 24.609414749949483 156.5046396711726 L 24.609414749949483 156.5046396711726 Q 24.342697650265777 157.06055027732222 24.017896990631733 157.29653176967054 L 24.017896990631733 157.29653176967054 Q 23.66676114237872 157.5516468965336 23.28984296299959 157.50360128095699 Q 22.91292478362046 157.45555566538036 22.56721333869307 157.21047848289103 Q 22.221501893765684 156.9654013004017 21.96638676690263 156.6142654521487 L 21.96638676690263 156.6142654521487 Q 21.717649518211154 156.271908000102 21.604153734785044 155.8849406557359 Q 21.490657951358944 155.4979733113698 21.574193734845558 155.14221270145546 Q 21.657729518332182 154.7864520915411 21.991308574172542 154.5440927210212 L 21.991308574172542 154.5440927210212 Q 22.32488763001291 154.3017333505013 22.944788547168066 154.2134782613217 L 22.944788547168066 154.2134782613217 Q 23.389192049959973 154.10519535193143 25.38901903313682 152.7595335674921 Q 27.388846016313668 151.41387178305274 29.688785822370917 149.74286770209974 L 29.688785822370917 149.74286770209974 Q 31.848271289126963 148.17390967189198 33.563694581294165 146.83369632504665 Q 35.279117873461374 145.4934829782013 35.490693568109116 145.13858129910128 L 35.490693568109116 145.13858129910128 Q 35.76618906399915 144.5762928147801 36.09976811983952 144.3339334442602 L 36.09976811983952 144.3339334442602 Q 36.45090396809253 144.07881831739715 36.83022266550641 144.11170765859586 Q 37.209541362920284 144.14459699979457 37.553264127779265 144.37770684699177 Q 37.89698689263824 144.610816694189 38.145724141329715 144.95317414623568 Z" fill-opacity="1"/></g></g><g><g><path fill="rgb(0,0,0)" stroke="none" paint-order="stroke fill markers" d=" M 31.875027169009346 134.72358542257783 L 31.875027169009346 134.72358542257783 Q 32.072071656743525 135.1103070042568 32.123727181658616 135.52239588628152 Q 32.17538270657371 135.9344847683062 32.03248023915854 136.2873916508955 Q 31.88957777174337 136.6402985334848 31.50285619006439 136.83734302121897 L 31.50285619006439 136.83734302121897 Q 31.135470687469358 137.02453528456644 30.509395641608087 137.01472993879423 L 30.509395641608087 137.01472993879423 Q 30.068118456112742 137.05690160901207 27.85102969794734 138.09522961204868 Q 25.633940939781937 139.13355761508532 23.071910461158698 140.43897734632424 L 23.071910461158698 140.43897734632424 Q 20.712908812916925 141.64094872150272 18.830656712862783 142.67916119280974 Q 16.94840461280864 143.71737366411676 16.698324878630444 144.01528792008511 L 16.698324878630444 144.01528792008511 Q 16.34792793075229 144.52263059738615 15.990210467699235 144.70489674854025 L 15.990210467699235 144.70489674854025 Q 15.603488886020259 144.90194123627444 15.238727185059401 144.7955241481976 Q 14.873965484098546 144.68910706012073 14.570848838669749 144.3929659994846 Q 14.267732193240954 144.0968249388485 14.070687705506776 143.71010335716952 L 14.070687705506776 143.71010335716952 Q 13.878569329965952 143.3330498150325 13.827005897473224 142.93309202864646 Q 13.7754424649805 142.53313424226042 13.913603005047051 142.19482151140645 Q 14.051763545113603 141.85650878055247 14.41914904770863 141.669316517205 L 14.41914904770863 141.669316517205 Q 14.786534550303662 141.48212425385753 15.412609596164932 141.49192959962977 L 15.412609596164932 141.49192959962977 Q 15.868480933395608 141.45449985676055 18.054194609260776 140.43824726617166 Q 20.23990828512595 139.42199467558274 22.77293464512326 138.1313532809239 L 22.77293464512326 138.1313532809239 Q 25.151272372448982 136.91952968135868 27.055231515261383 135.8641679097973 Q 28.959190658073787 134.8088061382359 29.223680359142573 134.4913716183389 L 29.223680359142573 134.4913716183389 Q 29.583745346562704 133.9791028288445 29.95113084915773 133.79191056549703 L 29.95113084915773 133.79191056549703 Q 30.337852430836712 133.59486607776284 30.70735605914619 133.68668901410436 Q 31.076859687455666 133.77851195044587 31.379884240462093 134.06252191544337 Q 31.68290879346852 134.34653188044084 31.875027169009346 134.72358542257783 Z" fill-opacity="1"/></g></g><g><g><path fill="rgb(0,0,0)" stroke="none" paint-order="stroke fill markers" d=" M 27.281793121610278 123.63898678484313 L 27.281793121610278 123.63898678484313 Q 27.415915080974404 124.05177173115179 27.402469736851803 124.46686781962292 Q 27.3890243927292 124.88196390809405 27.192674492434087 125.20817105030027 Q 26.996324592138972 125.53437819250648 26.58353964583031 125.6685001518706 L 26.58353964583031 125.6685001518706 Q 26.191393946837085 125.79591601326653 25.574560817722755 125.68829167269745 L 25.574560817722755 125.68829167269745 Q 25.132119383967982 125.66091317922762 22.779896381772133 126.33962854771 Q 20.427673379576287 127.01834391619239 17.692973110281415 127.90690189697973 L 17.692973110281415 127.90690189697973 Q 15.174984937798584 128.7250458491009 13.153494271967386 129.4560271017285 Q 11.132003606136186 130.18700835435607 10.838398711208987 130.4421337020395 L 10.838398711208987 130.4421337020395 Q 10.412949850893947 130.888415990003 10.031123775558434 131.01247880241482 L 10.031123775558434 131.01247880241482 Q 9.618338829249776 131.14660076177896 9.274715250359527 130.9844325430884 Q 8.931091671469282 130.82226432439782 8.678033563336005 130.4823513613636 Q 8.424975455202734 130.14243839832938 8.290853495838608 129.72965345202073 L 8.290853495838608 129.72965345202073 Q 8.160084585458584 129.32718812936977 8.171723166736427 128.9240881890484 Q 8.183361748014274 128.52098824872704 8.372745073635777 128.20845377916265 Q 8.56212839925728 127.89591930959826 8.954274098250504 127.76850344820234 L 8.954274098250504 127.76850344820234 Q 9.346419797243732 127.64108758680642 9.963252926358061 127.7487119273755 L 9.963252926358061 127.7487119273755 Q 10.419367032754655 127.78305699551893 12.737147876640545 127.12123711030976 Q 15.054928720526437 126.4594172251006 17.758670118848162 125.58091839126557 L 17.758670118848162 125.58091839126557 Q 20.297297538646422 124.75606834117619 22.342910739129863 124.0115446542595 Q 24.3885239396133 123.26702096734279 24.69941503287183 122.99486989803343 L 24.69941503287183 122.99486989803343 Q 25.135183516844588 122.54523456108582 25.527329215837813 122.4178186996899 L 25.527329215837813 122.4178186996899 Q 25.940114162146475 122.28369674032578 26.290704315710336 122.43219228637453 Q 26.641294469274197 122.58068783242327 26.896159340252225 122.90860464730773 Q 27.151024211230254 123.23652146219217 27.281793121610278 123.63898678484313 Z" fill-opacity="1"/></g></g><g><g><path fill="rgb(0,0,0)" stroke="none" paint-order="stroke fill markers" d=" M 24.479122665449296 111.97231783916637 L 24.479122665449296 111.97231783916637 Q 24.54701956867856 112.40100201477189 24.468804424513106 112.80888426636638 Q 24.390589280347648 113.21676651796086 24.145626733365816 113.50824161732343 Q 23.90066418638398 113.799716716686 23.471980010778452 113.86761361991528 L 23.471980010778452 113.86761361991528 Q 23.0647300439532 113.93211567798308 22.472327310376397 113.72932241106666 L 22.472327310376397 113.72932241106666 Q 22.03961600484017 113.63306790328238 19.610178295508515 113.93545841231135 Q 17.18074058617686 114.2378489213403 14.340707922790234 114.6876659052342 L 14.340707922790234 114.6876659052342 Q 11.725734451596509 115.10183701493273 9.614781029123899 115.50758786445348 Q 7.503827606651287 115.91333871397426 7.173927077906969 116.11939312060034 L 7.173927077906969 116.11939312060034 Q 6.683902268079814 116.49362606817066 6.2873694056447 116.55643070365772 L 6.2873694056447 116.55643070365772 Q 5.858685230039175 116.624327606887 5.544660926153085 116.41040137733233 Q 5.230636622267003 116.19647514777768 5.033868181903202 115.82116006760171 Q 4.837099741539404 115.44584498742574 4.769202838310136 115.01716081182022 L 4.769202838310136 115.01716081182022 Q 4.703003357661601 114.59919374060482 4.777557372212719 114.20287730469084 Q 4.852111386763838 113.80656086877686 5.0880542519362635 113.52750029638516 Q 5.323997117108696 113.24843972399346 5.731247083933944 113.18393766592565 L 5.731247083933944 113.18393766592565 Q 6.138497050759199 113.11943560785785 6.7308997843360014 113.32222887477427 L 6.7308997843360014 113.32222887477427 Q 7.1760256168431 113.42750306436794 9.568802172099637 113.13641208656662 Q 11.961578727356173 112.84532110876529 14.769460077572386 112.4005963926136 L 14.769460077572386 112.4005963926136 Q 17.405867757546385 111.9830304377536 19.542765229703974 111.56767747958594 Q 21.679662701861567 111.15232452141827 22.02930001680543 110.93215816524058 L 22.02930001680543 110.93215816524058 Q 22.530041931022723 110.55622779508954 22.937291897847974 110.49172573702174 L 22.937291897847974 110.49172573702174 Q 23.365976073453503 110.42382883379247 23.689020059148994 110.62534053637626 Q 24.012064044844486 110.82685223896004 24.212493614822623 111.19060150345551 Q 24.41292318480076 111.55435076795098 24.479122665449296 111.97231783916637 Z" fill-opacity="1"/></g></g><g><g><path fill="rgb(0,0,0)" stroke="none" paint-order="stroke fill markers" d=" M 23.536026848687065 100.01085069444446 L 23.536026848687065 100.01085069444446 Q 23.536026848687065 100.44487847222224 23.394967820909287 100.83550347222224 Q 23.25390879313151 101.22612847222224 22.966365390353733 101.47569444444446 Q 22.678821987575954 101.72526041666669 22.244794209798176 101.72526041666669 L 22.244794209798176 101.72526041666669 Q 21.83246782090929 101.72526041666669 21.279082404242622 101.43229166666669 L 21.279082404242622 101.43229166666669 Q 20.866756015353733 101.26953125000001 18.41992441813151 101.18815104166669 Q 15.973092820909287 101.10677083333334 13.09765879313151 101.10677083333334 L 13.09765879313151 101.10677083333334 Q 10.450089348687065 101.10677083333336 8.301651848687065 101.17730034722224 Q 6.153214348687063 101.24782986111113 5.795141432020397 101.39973958333336 L 5.795141432020397 101.39973958333336 Q 5.252606709798176 101.69270833333336 4.8511310153537295 101.69270833333336 L 4.8511310153537295 101.69270833333336 Q 4.4171032375759545 101.69270833333336 4.140410529242619 101.43229166666669 Q 3.8637178209092866 101.17187500000001 3.7280841403537295 100.77039930555557 Q 3.592450459798176 100.36892361111113 3.592450459798176 99.93489583333336 L 3.592450459798176 99.93489583333336 Q 3.592450459798176 99.51171875000001 3.7280841403537295 99.13194444444446 Q 3.8637178209092866 98.7521701388889 4.140410529242619 98.51345486111113 Q 4.4171032375759545 98.27473958333336 4.82942962646484 98.27473958333336 L 4.82942962646484 98.27473958333336 Q 5.2417560153537295 98.27473958333336 5.795141432020397 98.56770833333336 L 5.795141432020397 98.56770833333336 Q 6.218318515353731 98.74131944444446 8.627172682020397 98.82812500000001 Q 11.036026848687065 98.91493055555557 13.87890879313151 98.91493055555557 L 13.87890879313151 98.91493055555557 Q 16.548179626464844 98.91493055555557 18.723743862575954 98.83897569444446 Q 20.899308098687065 98.76302083333334 21.279082404242622 98.60026041666669 L 21.279082404242622 98.60026041666669 Q 21.832467820909287 98.30729166666669 22.244794209798176 98.30729166666669 L 22.244794209798176 98.30729166666669 Q 22.678821987575954 98.30729166666669 22.966365390353733 98.5568576388889 Q 23.25390879313151 98.80642361111113 23.394967820909287 99.19704861111113 Q 23.536026848687065 99.58767361111113 23.536026848687065 100.01085069444446 Z" fill-opacity="1"/></g></g><g><g><path fill="rgb(0,0,0)" stroke="none" paint-order="stroke fill markers" d=" M 24.47572782028783 88.04911636961394 L 24.47572782028783 88.04911636961394 Q 24.407830917058565 88.47780054521947 24.207401347080427 88.84154980971493 Q 24.00697177710229 89.2052990742104 23.6839277914068 89.40681077679419 Q 23.36088380571131 89.60832247937797 22.93219963010578 89.5404255761487 L 22.93219963010578 89.5404255761487 Q 22.524949663280527 89.4759235180809 22.024207749063233 89.09999314792987 L 22.024207749063233 89.09999314792987 Q 21.642419120948958 88.87473452400998 19.238442750328275 88.41158744912896 Q 16.834466379707596 87.94844037424792 13.994433716320971 87.49862339035404 L 13.994433716320971 87.49862339035404 Q 11.379460245127246 87.08445228065551 9.246440329105123 86.81802378820653 Q 7.113420413083 86.55159529575756 6.7359920520781955 86.64561981205536 L 6.7359920520781955 86.64561981205536 Q 6.15430642289153 86.8501105015525 5.757773560456414 86.78730586606542 L 5.757773560456414 86.78730586606542 Q 5.329089384850889 86.71940896283617 5.096541364839922 86.41891418166419 Q 4.863993344828959 86.11841940049221 4.792834175439303 85.70066875579795 Q 4.721675006049647 85.2829181111037 4.789571909278916 84.85423393549817 L 4.789571909278916 84.85423393549817 Q 4.8557713899274475 84.43626686428277 5.049144985129786 84.08238599288708 Q 5.242518580332124 83.7285051214914 5.553148039056744 83.53601310071701 Q 5.863777497781367 83.34352107994263 6.271027464606615 83.40802313801044 L 6.271027464606615 83.40802313801044 Q 6.678277431431868 83.47252519607824 7.179019345649161 83.84845556622928 L 7.179019345649161 83.84845556622928 Q 7.569827655572846 84.08612871712003 9.935445449537676 84.54869336516356 Q 12.301063243502508 85.0112580132071 15.108944593718718 85.4559827293588 L 15.108944593718718 85.4559827293588 Q 17.745352273692717 85.87354868421879 19.906013661980552 86.13886218092452 Q 22.066675050268387 86.40417567763025 22.4672350426342 86.30282890210378 L 22.4672350426342 86.30282890210378 Q 23.059637776211005 86.10003563518737 23.466887743036256 86.16453769325517 L 23.466887743036256 86.16453769325517 Q 23.895571918641785 86.23243459648444 24.14053446562362 86.52390969584701 Q 24.385497012605455 86.81538479520958 24.46371215677091 87.22326704680407 Q 24.541927300936365 87.63114929839855 24.47572782028783 88.04911636961394 Z" fill-opacity="1"/></g></g><g><g><path fill="rgb(0,0,0)" stroke="none" paint-order="stroke fill markers" d=" M 27.275087023642055 76.38165246247233 L 27.275087023642055 76.38165246247233 Q 27.14096506427793 76.79443740878098 26.8861001932999 77.12235422366544 Q 26.63123532232187 77.45027103854989 26.280645168758014 77.59876658459864 Q 25.930055015194153 77.74726213064739 25.51727006888549 77.61314017128326 L 25.51727006888549 77.61314017128326 Q 25.125124369892266 77.48572430988733 24.689355885919507 77.03608897293974 L 24.689355885919507 77.03608897293974 Q 24.347505921687826 76.75387875667806 22.04557865425353 75.92036903332992 Q 19.743651386819227 75.08685930998179 17.008951117524354 74.19830132919445 L 17.008951117524354 74.19830132919445 Q 14.490962945041522 73.38015737707329 12.425882642416985 72.78333123199602 Q 10.360802339792443 72.18650508691874 9.973312073310353 72.22032920165137 L 9.973312073310353 72.22032920165137 Q 9.366798567853744 72.33130659120457 8.984972492518231 72.20724377879274 L 8.984972492518231 72.20724377879274 Q 8.572187546209573 72.07312181942862 8.389510318556276 71.7399481025488 Q 8.206833090902979 71.40677438566897 8.201900607593341 70.98303519803216 Q 8.196968124283703 70.55929601039536 8.33109008364783 70.1465110640867 L 8.33109008364783 70.1465110640867 Q 8.461858994027853 69.74404574143576 8.708211004192918 69.42477202571696 Q 8.954563014357984 69.10549830999818 9.291480495280029 68.96396933862304 Q 9.62839797620207 68.82244036724792 10.020543675195293 68.94985622864384 L 10.020543675195293 68.94985622864384 Q 10.41268937418852 69.07727209003976 10.848457858161279 69.52690742698736 L 10.848457858161279 69.52690742698736 Q 11.197274397066572 69.82279031589084 13.461406457206811 70.64972417962348 Q 15.725538517347053 71.47665804335611 18.42927991566878 72.35515687719115 L 18.42927991566878 72.35515687719115 Q 20.96790733546704 73.18000692728052 23.06046322172792 73.78005588298919 Q 25.153019107988808 74.38010483869786 25.564501670770433 74.34266719827572 L 25.564501670770433 74.34266719827572 Q 26.18133479988476 74.23504285770663 26.573480498877988 74.36245871910256 L 26.573480498877988 74.36245871910256 Q 26.986265445186646 74.49658067846669 27.18261534548176 74.8227878206729 Q 27.378965245776875 75.14899496287912 27.392410589899477 75.56409105135025 Q 27.405855934022078 75.97918713982138 27.275087023642055 76.38165246247233 Z" fill-opacity="1"/></g></g><g><g><path fill="rgb(0,0,0)" stroke="none" paint-order="stroke fill markers" d=" M 31.865174944622623 65.29575065650614 L 31.865174944622623 65.29575065650614 Q 31.668130456888445 65.68247223818513 31.365105903882018 65.9664822031826 Q 31.062081350875587 66.25049216818007 30.69257772256611 66.34231510452159 Q 30.323074094256636 66.4341380408631 29.936352512577656 66.23709355312893 L 29.936352512577656 66.23709355312893 Q 29.568967009982625 66.04990128978146 29.208902022562498 65.53763250028707 L 29.208902022562498 65.53763250028707 Q 28.915408202867784 65.20541964380999 26.7722111276027 64.02207104764375 Q 24.62901405233761 62.83872245147751 22.066983573714374 61.53330272023858 L 22.066983573714374 61.53330272023858 Q 19.707981925472602 60.33133134506009 17.76169036690485 59.41880338779874 Q 15.815398808337099 58.50627543053739 15.42738793274498 58.47906628174434 L 15.42738793274498 58.47906628174434 Q 14.810980926425685 58.493797739709926 14.453263463372627 58.31153158855581 L 14.453263463372627 58.31153158855581 Q 14.06654188169365 58.114487100821634 13.938233566013809 57.75683829088371 Q 13.809925250333965 57.39918948094578 13.871340907213398 56.9798956154758 Q 13.932756564092834 56.56060175000581 14.129801051827013 56.17388016832683 L 14.129801051827013 56.17388016832683 Q 14.321919427367837 55.79682662618983 14.615183848409922 55.52002164463765 Q 14.908448269452009 55.24321666308548 15.263357746026157 55.15613565409257 Q 15.618267222600306 55.069054645099676 15.985652725195333 55.25624690844714 L 15.985652725195333 55.25624690844714 Q 16.353038227790364 55.44343917179461 16.71310321521049 55.955707961289 L 16.71310321521049 55.955707961289 Q 17.011338962253827 56.302514969501416 19.118234843025323 57.4734561927619 Q 21.225130723796823 58.644397416022386 23.75815708379414 59.935038810681256 L 23.75815708379414 59.935038810681256 Q 26.136494811119857 61.14686241024645 28.109419524639222 62.0668716282202 Q 30.082344238158587 62.98688084619394 30.49461730502801 63.01427417983173 L 30.49461730502801 63.01427417983173 Q 31.12069235088928 63.0044688340595 31.48807785348431 63.191661097406964 L 31.48807785348431 63.191661097406964 Q 31.87479943516329 63.388705585141146 32.01770190257846 63.741612467730455 Q 32.16060436999363 64.09451935031976 32.10894884507854 64.50660823234445 Q 32.057293320163446 64.91869711436914 31.865174944622623 65.29575065650614 Z" fill-opacity="1"/></g></g><g><g><path fill="rgb(0,0,0)" stroke="none" paint-order="stroke fill markers" d=" M 38.13296838498654 55.06438264617697 L 38.13296838498654 55.06438264617697 Q 37.877853258123494 55.41551849442999 37.53413049326451 55.648628341627216 Q 37.19040772840554 55.881738188824436 36.81108903099166 55.91462753002315 Q 36.43177033357778 55.94751687122186 36.080634485324765 55.692401744358804 L 36.080634485324765 55.692401744358804 Q 35.7470554294844 55.450042373838905 35.471559933594364 54.887753889517725 L 35.471559933594364 54.887753889517725 Q 35.23364905032765 54.51371857590295 33.3019547920881 53.00966907666505 Q 31.37026053384854 51.50561957742715 29.043985539172315 49.81548186195943 L 29.043985539172315 49.81548186195943 Q 26.90205686482892 48.259279588094806 25.12247820786125 47.053519285463814 Q 23.342899550893573 45.847758982832815 22.96392218168277 45.76018655005935 L 22.96392218168277 45.76018655005935 Q 22.35279966073394 45.678309339051324 22.0279990010999 45.442327846703 L 22.0279990010999 45.442327846703 Q 21.676863152846884 45.18721271983995 21.606083125703417 44.813895317512944 Q 21.53530309855995 44.44057791518594 21.661554638329207 44.036053778407194 Q 21.787806178098464 43.631529641628454 22.042921304961517 43.28039379337544 L 22.042921304961517 43.28039379337544 Q 22.291658553652994 42.93803634132875 22.62461424223723 42.71051595125206 Q 22.95756993082147 42.48299556117538 23.321732353857445 42.45250673801141 Q 23.685894776893424 42.42201791484745 24.019473832733787 42.66437728536735 L 24.019473832733787 42.66437728536735 Q 24.35305288857415 42.90673665588725 24.62854838446419 43.46902514020843 L 24.62854838446419 43.46902514020843 Q 24.868859785765657 43.858216728201114 26.76664071819728 45.34433285194166 Q 28.664421650628906 46.8304489756822 30.964361456686156 48.50145305663519 L 30.964361456686156 48.50145305663519 Q 33.1238469234422 50.07041108684297 34.92856051001148 51.28772688679974 Q 36.73327409658075 52.50504268675651 37.136186136375784 52.5965924796668 L 37.136186136375784 52.5965924796668 Q 37.75608705353094 52.68484756884641 38.08966610937131 52.92720693936631 L 38.08966610937131 52.92720693936631 Q 38.440801957624316 53.18232206622936 38.52673825914569 53.55323895052162 Q 38.61267456066705 53.924155834813874 38.497190097172535 54.32309051447208 Q 38.38170563367802 54.72202519413029 38.13296838498654 55.06438264617697 Z" fill-opacity="1"/></g></g><g><g><path fill="rgb(0,0,0)" stroke="none" paint-order="stroke fill markers" d=" M 45.92413346861826 45.93947866786279 L 45.92413346861826 45.93947866786279 Q 45.617229483728266 46.24638265275278 45.24127210223802 46.422852444064524 Q 44.865314720747776 46.59932223537628 44.48552103944641 46.5724681366984 Q 44.10572735814504 46.545614038020524 43.79882337325505 46.23871005313053 L 43.79882337325505 46.23871005313053 Q 43.50726458760955 45.94715126748503 43.323122196675556 45.34868849694955 L 43.323122196675556 45.34868849694955 Q 43.1466524053638 44.942040716970304 41.474025687713336 43.154325004986084 Q 39.80139897006286 41.366609293001865 37.76816007016665 39.33337039310565 L 37.76816007016665 39.33337039310565 Q 35.89604576233768 37.46125608527669 34.326999139587585 35.99195325761583 Q 32.757952516837484 34.522650429954986 32.397340334591746 34.37687103713224 L 32.397340334591746 34.37687103713224 Q 31.8065501636785 34.200401245820494 31.522663977655256 33.91651505979725 L 31.522663977655256 33.91651505979725 Q 31.215759992765264 33.60961107490726 31.204251093331887 33.229817393605884 Q 31.192742193898514 32.85002371230452 31.380720884643633 32.47023003100315 Q 31.568699575388756 32.09043634970178 31.875603560278748 31.78353236481179 L 31.875603560278748 31.78353236481179 Q 32.17483494554649 31.484300979544045 32.539283427603365 31.31166748804342 Q 32.90373190966024 31.1390339965428 33.2681803917171 31.165888095220673 Q 33.63262887377397 31.192742193898546 33.92418765941946 31.48430097954404 L 33.92418765941946 31.48430097954404 Q 34.21574644506496 31.775859765189537 34.39988883599896 32.37432253572503 L 34.39988883599896 32.37432253572503 Q 34.576358627310704 32.796315514948766 36.21829494647217 34.56101342806624 Q 37.860231265633644 36.325711341183705 39.87045236666311 38.33593244221317 L 39.87045236666311 38.33593244221317 Q 41.75791187373658 40.223391949286636 43.34997629535343 41.708039976191984 Q 44.942040716970276 43.19268800309733 45.32567069808277 43.34613999554233 L 45.32567069808277 43.34613999554233 Q 45.92413346861826 43.53028238647633 46.21569225426375 43.82184117212182 L 46.21569225426375 43.82184117212182 Q 46.52259623915375 44.128745157011814 46.54945033783162 44.508538838313186 Q 46.576304436509496 44.88833251961455 46.39983464519775 45.264289901104796 Q 46.223364853886004 45.64024728259504 45.92413346861826 45.93947866786279 Z" fill-opacity="1"/></g></g><g><g><path fill="rgb(0,0,0)" stroke="none" paint-order="stroke fill markers" d=" M 55.04682585376429 38.145724141329715 L 55.04682585376429 38.145724141329715 Q 54.695690005511274 38.40083926819277 54.29675532585307 38.51632373168729 Q 53.897820646194866 38.631808195181804 53.52690376190261 38.54587189366044 Q 53.15598687761035 38.45993559213907 52.9008717507473 38.10879974388605 L 52.9008717507473 38.10879974388605 Q 52.6585123802274 37.77522068804569 52.57025729104779 37.155319770890536 L 52.57025729104779 37.155319770890536 Q 52.45957386362277 36.72607254247653 51.087200307479755 34.69871011166333 Q 49.71482675133673 32.67134768085013 48.02468903586901 30.345072686173907 L 48.02468903586901 30.345072686173907 Q 46.46848676200439 28.203144011830513 45.14860730869116 26.50647777109333 Q 43.828727855377934 24.80981153035615 43.49536032882736 24.609414749949483 L 43.49536032882736 24.609414749949483 Q 42.939449722677764 24.342697650265777 42.703468230329435 24.017896990631733 L 42.703468230329435 24.017896990631733 Q 42.44835310346639 23.66676114237872 42.496398719043 23.28984296299959 Q 42.54444433461961 22.91292478362046 42.789521517108945 22.56721333869307 Q 43.03459869959828 22.221501893765684 43.3857345478513 21.96638676690263 L 43.3857345478513 21.96638676690263 Q 43.728091999897984 21.717649518211154 44.11505934426408 21.604153734785044 Q 44.50202668863017 21.490657951358944 44.85778729854452 21.574193734845558 Q 45.21354790845888 21.657729518332182 45.45590727897878 21.991308574172542 L 45.45590727897878 21.991308574172542 Q 45.69826664949868 22.32488763001291 45.78652173867829 22.944788547168066 L 45.78652173867829 22.944788547168066 Q 45.89480464806856 23.389192049959973 47.240466432507894 25.38901903313682 Q 48.58612821694724 27.388846016313668 50.257132297900235 29.688785822370917 L 50.257132297900235 29.688785822370917 Q 51.82609032810801 31.848271289126963 53.16630367495333 33.563694581294165 Q 54.506517021798665 35.279117873461374 54.86141870089872 35.490693568109116 L 54.86141870089872 35.490693568109116 Q 55.4237071852199 35.76618906399915 55.666066555739796 36.09976811983952 L 55.666066555739796 36.09976811983952 Q 55.92118168260285 36.45090396809253 55.88829234140414 36.83022266550641 Q 55.85540300020542 37.209541362920284 55.6222931530082 37.553264127779265 Q 55.38918330581098 37.89698689263824 55.04682585376429 38.145724141329715 Z" fill-opacity="1"/></g></g><g><g><path fill="rgb(0,0,0)" stroke="none" paint-order="stroke fill markers" d=" M 65.27641457742216 31.875027169009346 L 65.27641457742216 31.875027169009346 Q 64.88969299574319 32.072071656743525 64.4776041137185 32.123727181658616 Q 64.06551523169381 32.17538270657371 63.7126083491045 32.03248023915854 Q 63.3597014665152 31.88957777174337 63.162656978781015 31.50285619006439 L 63.162656978781015 31.50285619006439 Q 62.975464715433546 31.135470687469358 62.98527006120578 30.509395641608087 L 62.98527006120578 30.509395641608087 Q 62.94309839098793 30.068118456112742 61.9047703879513 27.85102969794734 Q 60.866442384914684 25.633940939781937 59.56102265367575 23.0719104611587 L 59.56102265367575 23.0719104611587 Q 58.35905127849726 20.712908812916925 57.32083880719025 18.830656712862783 Q 56.28262633588323 16.94840461280864 55.984712079914885 16.698324878630444 L 55.984712079914885 16.698324878630444 Q 55.47736940261386 16.34792793075229 55.295103251459736 15.990210467699235 L 55.295103251459736 15.990210467699235 Q 55.09805876372556 15.603488886020259 55.204475851802414 15.238727185059401 Q 55.31089293987926 14.873965484098546 55.607034000515384 14.570848838669749 Q 55.90317506115151 14.267732193240954 56.28989664283049 14.070687705506776 L 56.28989664283049 14.070687705506776 Q 56.66695018496749 13.878569329965952 57.06690797135353 13.827005897473224 Q 57.46686575773957 13.7754424649805 57.80517848859355 13.913603005047051 Q 58.143491219447526 14.051763545113603 58.33068348279499 14.41914904770863 L 58.33068348279499 14.41914904770863 Q 58.51787574614246 14.786534550303662 58.50807040037023 15.412609596164932 L 58.50807040037023 15.412609596164932 Q 58.54550014323946 15.868480933395608 59.56175273382836 18.054194609260776 Q 60.57800532441725 20.23990828512595 61.86864671907612 22.77293464512326 L 61.86864671907612 22.77293464512326 Q 63.08047031864132 25.151272372448982 64.13583209020271 27.055231515261383 Q 65.19119386176409 28.959190658073787 65.50862838166113 29.223680359142573 L 65.50862838166113 29.223680359142573 Q 66.02089717115551 29.583745346562704 66.20808943450298 29.95113084915773 L 66.20808943450298 29.95113084915773 Q 66.40513392223716 30.337852430836712 66.31331098589564 30.70735605914619 Q 66.22148804955411 31.076859687455666 65.93747808455664 31.379884240462093 Q 65.65346811955916 31.68290879346852 65.27641457742216 31.875027169009346 Z" fill-opacity="1"/></g></g><g><g><path fill="rgb(0,0,0)" stroke="none" paint-order="stroke fill markers" d=" M 76.36101321515686 27.281793121610278 L 76.36101321515686 27.281793121610278 Q 75.9482282688482 27.415915080974404 75.53313218037707 27.402469736851803 Q 75.11803609190594 27.3890243927292 74.79182894969972 27.192674492434087 Q 74.4656218074935 26.996324592138972 74.33149984812938 26.58353964583031 L 74.33149984812938 26.58353964583031 Q 74.20408398673345 26.191393946837085 74.31170832730254 25.574560817722755 L 74.31170832730254 25.574560817722755 Q 74.33908682077237 25.132119383967982 73.66037145228998 22.779896381772133 Q 72.9816560838076 20.427673379576287 72.09309810302025 17.692973110281415 L 72.09309810302025 17.692973110281415 Q 71.27495415089908 15.174984937798584 70.54397289827149 13.153494271967386 Q 69.8129916456439 11.132003606136186 69.55786629796047 10.838398711208987 L 69.55786629796047 10.838398711208987 Q 69.11158400999697 10.412949850893947 68.98752119758515 10.031123775558434 L 68.98752119758515 10.031123775558434 Q 68.85339923822103 9.618338829249776 69.0155674569116 9.274715250359527 Q 69.17773567560216 8.931091671469282 69.51764863863637 8.678033563336005 Q 69.8575616016706 8.424975455202734 70.27034654797926 8.290853495838608 L 70.27034654797926 8.290853495838608 Q 70.6728118706302 8.160084585458584 71.07591181095157 8.171723166736427 Q 71.47901175127294 8.183361748014274 71.79154622083733 8.372745073635777 Q 72.10408069040173 8.56212839925728 72.23149655179765 8.954274098250504 L 72.23149655179765 8.954274098250504 Q 72.35891241319356 9.346419797243732 72.25128807262449 9.963252926358061 L 72.25128807262449 9.963252926358061 Q 72.21694300448104 10.419367032754655 72.87876288969021 12.737147876640545 Q 73.54058277489939 15.054928720526437 74.41908160873442 17.758670118848162 L 74.41908160873442 17.758670118848162 Q 75.2439316588238 20.297297538646422 75.98845534574049 22.342910739129863 Q 76.7329790326572 24.3885239396133 77.00513010196656 24.69941503287183 L 77.00513010196656 24.69941503287183 Q 77.45476543891417 25.135183516844588 77.58218130031008 25.527329215837813 L 77.58218130031008 25.527329215837813 Q 77.7163032596742 25.940114162146475 77.56780771362546 26.290704315710336 Q 77.41931216757672 26.641294469274197 77.09139535269226 26.896159340252225 Q 76.76347853780781 27.151024211230254 76.36101321515686 27.281793121610278 Z" fill-opacity="1"/></g></g><g><g><path fill="rgb(0,0,0)" stroke="none" paint-order="stroke fill markers" d=" M 88.02768216083362 24.479122665449296 L 88.02768216083362 24.479122665449296 Q 87.5989979852281 24.54701956867856 87.19111573363361 24.468804424513106 Q 86.78323348203912 24.390589280347648 86.49175838267655 24.145626733365816 Q 86.20028328331398 23.90066418638398 86.13238638008471 23.471980010778452 L 86.13238638008471 23.471980010778452 Q 86.06788432201691 23.0647300439532 86.27067758893332 22.472327310376397 L 86.27067758893332 22.472327310376397 Q 86.3669320967176 22.03961600484017 86.06454158768864 19.610178295508515 Q 85.76215107865968 17.18074058617686 85.31233409476579 14.340707922790234 L 85.31233409476579 14.340707922790234 Q 84.89816298506726 11.725734451596509 84.49241213554649 9.614781029123899 Q 84.08666128602573 7.503827606651287 83.88060687939965 7.173927077906969 L 83.88060687939965 7.173927077906969 Q 83.50637393182933 6.683902268079814 83.44356929634226 6.2873694056447 L 83.44356929634226 6.2873694056447 Q 83.37567239311299 5.858685230039175 83.58959862266765 5.544660926153085 Q 83.80352485222231 5.230636622267003 84.17883993239828 5.033868181903202 Q 84.55415501257424 4.837099741539404 84.98283918817977 4.769202838310136 L 84.98283918817977 4.769202838310136 Q 85.40080625939517 4.703003357661601 85.79712269530914 4.777557372212719 Q 86.19343913122313 4.852111386763838 86.47249970361483 5.0880542519362635 Q 86.75156027600653 5.323997117108696 86.81606233407433 5.731247083933944 L 86.81606233407433 5.731247083933944 Q 86.88056439214213 6.138497050759199 86.67777112522572 6.7308997843360014 L 86.67777112522572 6.7308997843360014 Q 86.57249693563205 7.1760256168431 86.86358791343336 9.568802172099637 Q 87.1546788912347 11.961578727356173 87.59940360738639 14.769460077572386 L 87.59940360738639 14.769460077572386 Q 88.01696956224639 17.405867757546385 88.43232252041405 19.542765229703974 Q 88.84767547858172 21.679662701861567 89.0678418347594 22.02930001680543 L 89.0678418347594 22.02930001680543 Q 89.44377220491045 22.530041931022723 89.50827426297826 22.937291897847974 L 89.50827426297826 22.937291897847974 Q 89.57617116620752 23.365976073453503 89.37465946362373 23.689020059148994 Q 89.17314776103994 24.012064044844486 88.80939849654447 24.212493614822623 Q 88.445649232049 24.41292318480076 88.02768216083362 24.479122665449296 Z" fill-opacity="1"/></g></g></g></g></svg>