<svg version="1.1" xmlns="http://www.w3.org/2000/svg" xmlns:xlink="http://www.w3.org/1999/xlink" width="200" height="200" viewBox="0 0 200 200"><defs/><g><g/><g><g><g><path fill="rgb(0,0,0)" stroke="none" paint-order="stroke fill markers" d=" M 98.69791666666667 9.321617126464844 L 98.69791666666667 9.321617126464844 Q 99.61751302083333 9.321617126464844 100.65104166666667 10.55859629313151 L 100.65104166666667 10.55859629313151 Q 101.49739583333333 11.616539001464844 102.11588541666667 13.423179626464844 L 102.11588541666667 13.423179626464844 Q 102.86458333333333 15.73437754313151 102.86458333333333 18.045575459798176 L 102.86458333333333 18.045575459798176 Q 102.86458333333333 20.747398376464844 101.43229166666667 22.212242126464844 L 101.43229166666667 22.212242126464844 Q 100.99283854166667 22.537762959798176 100.71614583333333 22.537762959798176 L 100.71614583333333 22.537762959798176 L 100.45572916666667 22.537762959798176 Q 99.3896484375 22.537762959798176 98.40494791666667 19.93359629313151 L 98.40494791666667 19.93359629313151 Q 97.13541666666667 16.002932230631508 97.13541666666667 12.381512959798176 L 97.13541666666667 12.381512959798176 Q 97.13541666666667 10.208661397298176 97.94921875 9.48437754313151 L 97.94921875 9.48437754313151 Q 98.28287760416667 9.321617126464844 98.69791666666667 9.321617126464844 Z" fill-opacity="1"/></g></g><g><g><path fill="rgb(0,0,0)" stroke="none" paint-order="stroke fill markers" d=" M 111.91467092419411 10.098358422470715 L 111.91467092419411 10.098358422470715 Q 112.82446747849495 10.232252725482235 113.66687657883527 11.60653283819189 L 113.66687657883527 11.60653283819189 Q 114.35017376693962 12.776431595468948 114.69902334975649 14.653872321873038 L 114.69902334975649 14.653872321873038 Q 115.10322955276892 17.049451943983648 114.76671643723554 19.33602027514683 L 114.76671643723554 19.33602027514683 Q 114.37332786555568 22.009050859464345 112.74301664344046 23.24974096958934 L 112.74301664344046 23.24974096958934 Q 112.26085039518641 23.507807959053157 111.98710629920208 23.467521177616064 L 111.98710629920208 23.467521177616064 L 111.7294647970992 23.42960420685174 Q 110.67474489786548 23.274381607785287 110.07970767568216 20.554593041053753 L 110.07970767568216 20.554593041053753 Q 109.39601463040457 16.480971386212126 109.92329750509595 12.898144247593766 L 109.92329750509595 12.898144247593766 Q 110.23966722991078 10.74844796442275 111.15025349892059 10.150373070337592 L 111.15025349892059 10.150373070337592 Q 111.50405478021763 10.037928250315074 111.91467092419411 10.098358422470715 Z" fill-opacity="1"/></g></g><g><g><path fill="rgb(0,0,0)" stroke="none" paint-order="stroke fill markers" d=" M 124.87748465663093 12.791197125946793 L 124.87748465663093 12.791197125946793 Q 125.75809067705451 13.056132007361766 126.3914257444768 14.538422671468721 L 126.3914257444768 14.538422671468721 Q 126.89710266076092 15.79534311679813 126.96887711985887 17.70356955504214 L 126.96887711985887 17.70356955504214 Q 127.01997665576258 20.132473262037493 126.35412261751608 22.345677773544555 L 126.35412261751608 22.345677773544555 Q 125.57572986858007 24.932945019390832 123.78214634425045 25.92303833396791 L 123.78214634425045 25.92303833396791 Q 123.26754350921088 26.108151229724854 123.00258240572059 26.028436309653095 L 123.00258240572059 26.028436309653095 L 122.75320724949445 25.95341050252673 Q 121.73232770369366 25.646273604603177 121.53963596547717 22.86883070914514 L 121.53963596547717 22.86883070914514 Q 121.45635285518826 18.7390736351157 122.49968048553926 15.271200368845841 L 122.49968048553926 15.271200368845841 Q 123.12567706374986 13.190476409083923 124.11363995302678 12.731357403099837 L 124.11363995302678 12.731357403099837 Q 124.4800430013955 12.671624745839152 124.87748465663093 12.791197125946793 Z" fill-opacity="1"/></g></g><g><g><path fill="rgb(0,0,0)" stroke="none" paint-order="stroke fill markers" d=" M 137.3100779946621 17.342740055100972 L 137.3100779946621 17.342740055100972 Q 138.14272489274742 17.73306888788879 138.5534874898544 19.29177765136687 L 138.5534874898544 19.29177765136687 Q 138.87076650877881 20.60893070765914 138.66393609617342 22.507272324179652 L 138.66393609617342 22.507272324179652 Q 138.36083986707703 24.91773225048685 137.37983642892004 27.010402330630516 L 137.37983642892004 27.010402330630516 Q 136.2330295927647 29.456763128544942 134.31440088511135 30.17515752752462 L 134.31440088511135 30.17515752752462 Q 133.7783293292873 30.283370969585427 133.52779840419967 30.165926896003253 L 133.52779840419967 30.165926896003253 L 133.2920045923525 30.055391297337675 Q 132.32672367510312 29.60288619030047 132.54048431071178 26.826985339374524 L 132.54048431071178 26.826985339374524 Q 133.05938617031535 22.729111448311556 134.59652183925851 19.450103752311797 L 134.59652183925851 19.450103752311797 Q 135.51880324062444 17.482699134711943 136.5630860364355 17.17232134134192 L 136.5630860364355 17.17232134134192 Q 136.93428160703067 17.16657394472771 137.3100779946621 17.342740055100972 Z" fill-opacity="1"/></g></g><g><g><path fill="rgb(0,0,0)" stroke="none" paint-order="stroke fill markers" d=" M 148.9474717961372 23.655978974560618 L 148.9474717961372 23.655978974560618 Q 149.7144131488517 24.1633825773199 149.8938485840316 25.765288269028133 L 149.8938485840316 25.765288269028133 Q 150.01596745415196 27.114601105663965 149.5349404009992 28.962598044711054 L 149.5349404009992 28.962598044711054 Q 148.8841083768054 31.303239421921393 147.60886392385285 33.230773441133024 L 147.60886392385285 33.230773441133024 Q 146.11808519716186 35.48408785795789 144.1153035460608 35.915472011966514 L 144.1153035460608 35.915472011966514 Q 143.56918870396387 35.94447961868845 143.33842758898783 35.791809508123706 L 143.33842758898783 35.791809508123706 L 143.12124065724566 35.64811999229807 Q 142.23213165542623 35.05989103688687 142.84778872803258 32.344695737749625 L 142.84778872803258 32.344695737749625 Q 143.95781606528277 28.36604409711648 145.95599839473303 25.345788327577125 L 145.95599839473303 25.345788327577125 Q 147.15490779240318 23.533634865853514 148.23325341998748 23.378613448900758 L 148.23325341998748 23.378613448900758 Q 148.60133012367314 23.42697380871351 148.9474717961372 23.655978974560618 Z" fill-opacity="1"/></g></g><g><g><path fill="rgb(0,0,0)" stroke="none" paint-order="stroke fill markers" d=" M 159.54163521644162 31.596358157488567 L 159.54163521644162 31.596358157488567 Q 160.22652500037753 32.21002210335537 160.17080891885638 33.820982884623916 L 160.17080891885638 33.820982884623916 Q 160.09516488847277 35.17369724110019 159.35019345127543 36.93196265631837 L 159.35019345127543 36.93196265631837 Q 158.36549698663768 39.152898777181655 156.82319114038836 40.87421469433037 L 156.82319114038836 40.87421469433037 Q 155.02021388350533 42.886457245363374 152.97596510271995 43.021636950105936 L 152.97596510271995 43.021636950105936 Q 152.43144646407205 42.970820474713285 152.22537343173735 42.78617822551442 L 152.22537343173735 42.78617822551442 L 152.03142234248116 42.61239728509196 Q 151.23743507083861 41.900981560237526 152.24186691881323 39.30436148670317 L 152.24186691881323 39.30436148670317 Q 153.91936142819077 35.52973014868302 156.33600263094056 32.83259781371409 L 156.33600263094056 32.83259781371409 Q 157.78598735259044 31.214318412732723 158.875412747066 31.21795738455912 L 158.875412747066 31.21795738455912 Q 159.23252566793954 31.31939478369027 159.54163521644162 31.596358157488567 Z" fill-opacity="1"/></g></g><g><g><path fill="rgb(0,0,0)" stroke="none" paint-order="stroke fill markers" d=" M 168.8667720553306 40.99464220729178 L 168.8667720553306 40.99464220729178 Q 169.45501303381494 41.70148731467276 169.16533292713885 43.2871683533188 L 169.16533292713885 43.2871683533188 Q 168.8935382174295 44.61445347164255 167.90050016898908 46.24551298831933 L 167.90050016898908 46.24551298831933 Q 166.60292635947016 48.299408455298085 164.82643069136225 49.77781941007287 L 164.82643069136225 49.77781941007287 Q 162.7496822342783 51.50610263889409 160.70753593744806 51.34219677365629 L 160.70753593744806 51.34219677365629 Q 160.17621897166583 51.212639281097005 159.99922611088292 50.99996022223901 L 159.99922611088292 50.99996022223901 L 159.83264459485196 50.79979169625502 Q 159.1507015136002 49.98035179300805 160.5225004159481 47.557649393821464 L 160.5225004159481 47.557649393821464 Q 162.73170921436804 44.067488072057174 165.51530277883293 41.75096386475162 L 165.51530277883293 41.75096386475162 Q 167.18545891751188 40.36104934036829 168.2627448680016 40.52327114260716 L 168.2627448680016 40.52327114260716 Q 168.60128276415625 40.675623619004796 168.8667720553306 40.99464220729178 Z" fill-opacity="1"/></g></g><g><g><path fill="rgb(0,0,0)" stroke="none" paint-order="stroke fill markers" d=" M 176.72413321092176 51.650523016281646 L 176.72413321092176 51.650523016281646 Q 177.20318804877283 52.43548410890225 176.68571794548743 53.96208936656752 L 176.68571794548743 53.96208936656752 Q 176.22356538881334 55.23565646880804 175.00362561106914 56.70474688510979 L 175.00362561106914 56.70474688510979 Q 173.4208299896359 58.54782648219644 171.4480074205717 59.75182271183977 L 171.4480074205717 59.75182271183977 Q 169.14175005110232 61.1593112619862 167.1452310410714 60.69981319572037 L 167.1452310410714 60.69981319572037 Q 166.63843984683442 60.49427597901708 166.49429945314472 60.25809299539672 L 166.49429945314472 60.25809299539672 L 166.35863790614266 60.03580312845991 Q 165.80327344810297 59.12580398568735 167.5132018928695 56.92865495631189 L 167.5132018928695 56.92865495631189 Q 170.20703953031187 53.797350379932524 173.2982579924019 51.910806991935054 L 173.2982579924019 51.910806991935054 Q 175.1529890696559 50.77888095913657 176.19517509645533 51.09622811571461 L 176.19517509645533 51.09622811571461 Q 176.50792262038723 51.2962485408511 176.72413321092176 51.650523016281646 Z" fill-opacity="1"/></g></g><g><g><path fill="rgb(0,0,0)" stroke="none" paint-order="stroke fill markers" d=" M 182.94625267174285 63.336888985224334 L 182.94625267174285 63.336888985224334 Q 183.305911146803 64.18323598020574 182.57168002375397 65.61822851623916 L 182.57168002375397 65.61822851623916 Q 181.9290195994944 66.81093373071599 180.50817899081034 68.08674393498089 L 180.50817899081034 68.08674393498089 Q 178.67389609816266 69.67972562042658 176.54679391608548 70.58364603562194 L 176.54679391608548 70.58364603562194 Q 174.06018150605163 71.64034173225875 172.15184211926194 70.89504486848968 L 172.15184211926194 70.89504486848968 Q 171.6803780710097 70.61790859657293 171.57216224665532 70.36325551843694 L 171.57216224665532 70.36325551843694 L 171.4703120590277 70.12358203313246 Q 171.05336285342702 69.1424187026673 173.06497668450467 67.21765146008333 L 173.06497668450467 67.21765146008333 Q 176.18602868863422 64.51194194971929 179.51898809364948 63.09558777802235 L 179.51898809364948 63.09558777802235 Q 181.51876373665866 62.245775275004185 182.5036374539981 62.71148408224126 L 182.5036374539981 62.71148408224126 Q 182.78392893521132 62.95490936802034 182.94625267174285 63.336888985224334 Z" fill-opacity="1"/></g></g><g><g><path fill="rgb(0,0,0)" stroke="none" paint-order="stroke fill markers" d=" M 187.40051676402067 75.80466551277871 L 187.40051676402067 75.80466551277871 Q 187.63311338031508 76.69435999330841 186.69777009915472 78.00715543316704 L 186.69777009915472 78.00715543316704 Q 185.88829899849773 79.09357831894903 184.29684030965512 80.14891663167134 L 184.29684030965512 80.14891663167134 Q 182.25016470105913 81.4578487665063 180.01411839601107 82.04242787294541 L 180.01411839601107 82.04242787294541 Q 177.4001487717999 82.72580908188127 175.62066194911702 81.71059812931287 L 175.62066194911702 81.71059812931287 Q 175.19457348450564 81.36776948066839 175.12458866190377 81.10007379626123 L 175.12458866190377 81.10007379626123 L 175.05872059357262 80.84812491681919 Q 174.7890731888419 79.81670919160334 177.05949834988505 78.20534680790146 L 177.05949834988505 78.20534680790146 Q 180.54124491584886 75.98289986424798 184.0449090205897 75.0669220390177 L 184.0449090205897 75.0669220390177 Q 186.1471074834342 74.51733534387952 187.05367801791726 75.12148002708983 L 187.05367801791726 75.12148002708983 Q 187.29553953011785 75.40312198616796 187.40051676402067 75.80466551277871 Z" fill-opacity="1"/></g></g><g><g><path fill="rgb(0,0,0)" stroke="none" paint-order="stroke fill markers" d=" M 189.9919905818998 88.78812358819292 L 189.9919905818998 88.78812358819292 Q 190.0925679463749 89.70220326106168 188.97604772524468 90.86482164915502 L 188.97604772524468 90.86482164915502 Q 188.01701841933735 91.82180698862506 186.28886082927752 92.63418070589495 L 186.28886082927752 92.63418070589495 Q 184.07341384199418 93.63116567416799 181.77608085885498 93.88394418311425 L 181.77608085885498 93.88394418311425 Q 179.09046624476267 94.17944582033311 177.47775865835564 92.91595823786068 L 177.47775865835564 92.91595823786068 Q 177.1061271132547 92.51474400993227 177.07586489739495 92.23971118800716 L 177.07586489739495 92.23971118800716 L 177.04738281187986 91.98085676737176 Q 176.93078427430254 90.92117148289557 179.41163059480272 89.65755734971725 L 179.41163059480272 89.65755734971725 Q 183.17986433938233 87.96574057087655 186.7795586263434 87.56966156918259 L 186.7795586263434 87.56966156918259 Q 188.93937519852005 87.33201416816621 189.74832057314686 88.06171843231304 L 189.74832057314686 88.06171843231304 Q 189.94659725811016 88.37557435530523 189.9919905818998 88.78812358819292 Z" fill-opacity="1"/></g></g><g><g><path fill="rgb(0,0,0)" stroke="none" paint-order="stroke fill markers" d=" M 190.66544136014002 102.01054334382306 L 190.66544136014002 102.01054334382306 Q 190.63185584088941 102.92952618778332 189.3579553698559 103.91718833164934 L 189.3579553698559 103.91718833164934 Q 188.26980790333465 104.72433964376692 186.4417840907486 105.2764344302036 L 186.4417840907486 105.2764344302036 Q 184.10478413096303 105.94022322823164 181.79512813375317 105.85581360462834 L 181.79512813375317 105.85581360462834 Q 179.09510774264868 105.75713756576812 177.6835514548191 104.2723023976078 L 177.6835514548191 104.2723023976078 Q 177.37429751040426 103.8212537750956 177.3844028878779 103.54474566275357 L 177.3844028878779 103.54474566275357 L 177.39391383138252 103.28450273349048 Q 177.43284925635444 102.21913324181975 180.07124180411205 101.3301991005897 L 180.07124180411205 101.3301991005897 Q 184.04564936726163 100.2050706239547 187.66465260232638 100.33733218206552 L 187.66465260232638 100.33733218206552 Q 189.83605454336524 100.41668911693202 190.5301334919263 101.25640058250133 L 190.5301334919263 101.25640058250133 Q 190.68059942635048 101.59578117531002 190.66544136014002 102.01054334382306 Z" fill-opacity="1"/></g></g><g><g><path fill="rgb(0,0,0)" stroke="none" paint-order="stroke fill markers" d=" M 189.40651566461486 115.19011185868487 L 189.40651566461486 115.19011185868487 Q 189.23948307867187 116.09441134990989 187.83535333459253 116.88606694568192 L 187.83535333459253 116.88606694568192 Q 186.64127968151888 117.52618120156521 184.75235080024788 117.80623011531524 L 184.75235080024788 117.80623011531524 Q 182.34360696471992 118.1226752373054 180.07085426111016 117.70287652573184 L 180.07085426111016 117.70287652573184 Q 177.41397433998887 117.21212591924443 176.23365422233815 115.53758984910864 L 176.23365422233815 115.53758984910864 Q 175.99336908952327 115.04632015031333 176.04362668175392 114.77423003790935 L 176.04362668175392 114.77423003790935 L 176.09092794502982 114.518145226235 Q 176.2845674915655 113.46979802844318 179.02427351007088 112.97448996705853 L 179.02427351007088 112.97448996705853 Q 183.12014729475044 112.44002995271666 186.68132670709673 113.09781314514707 L 186.68132670709673 113.09781314514707 Q 188.8180343545045 113.49248306060531 189.3824537892366 114.42430473557371 L 189.3824537892366 114.42430473557371 Q 189.48190205296083 114.78197669007889 189.40651566461486 115.19011185868487 Z" fill-opacity="1"/></g></g><g><g><path fill="rgb(0,0,0)" stroke="none" paint-order="stroke fill markers" d=" M 186.2420453108403 128.04592951159492 L 186.2420453108403 128.04592951159492 Q 185.94512566778062 128.91627207642898 184.44069323837036 129.49504835951618 L 184.44069323837036 129.49504835951618 Q 183.16614300556827 129.95448263513552 181.25656829525238 129.95651691980933 L 181.25656829525238 129.95651691980933 Q 178.82741877689517 129.91887388738263 176.64000914492283 129.1726333685424 L 176.64000914492283 129.1726333685424 Q 174.0828964765608 128.3002676915883 173.15896900318356 126.47172054856583 L 173.15896900318356 126.47172054856583 Q 172.99277394240355 125.95070033419921 173.08211259606753 125.68882735008985 L 173.08211259606753 125.68882735008985 L 173.1661960348101 125.44235865916339 Q 173.51041261216247 124.43337745568319 176.2930400241724 124.34225210554315 L 176.2930400241724 124.34225210554315 Q 180.42308359171366 124.40985164079723 183.85053882490976 125.57913696081101 L 183.85053882490976 125.57913696081101 Q 185.9070119648274 126.28070815281929 186.32974226539613 127.28477987596723 L 186.32974226539613 127.28477987596723 Q 186.37605329133623 127.65312003543086 186.2420453108403 128.04592951159492 Z" fill-opacity="1"/></g></g><g><g><path fill="rgb(0,0,0)" stroke="none" paint-order="stroke fill markers" d=" M 181.23947549041114 140.30399686891195 L 181.23947549041114 140.30399686891195 Q 180.8189971169295 141.12183266663106 179.24632636750053 141.47539402540204 L 179.24632636750053 141.47539402540204 Q 177.91846438037155 141.7443562768195 176.02894311065253 141.46833257517108 L 176.02894311065253 141.46833257517108 Q 173.63116101408139 141.07740368420977 171.57571529238027 140.02062617917625 L 171.57571529238027 140.02062617917625 Q 169.1728702937719 138.7852383916019 168.52502737468632 136.84165248341375 L 168.52502737468632 136.84165248341375 Q 168.4364645451221 136.3019863947757 168.56298016192187 136.05591190696643 L 168.56298016192187 136.05591190696643 L 168.6820536836158 135.82431238902825 Q 169.16951091305026 134.87620186246895 171.93575284633695 135.19120140220446 L 171.93575284633695 135.19120140220446 Q 176.01194148847384 135.85941972032347 179.23262228480132 137.5152858813795 L 179.23262228480132 137.5152858813795 Q 181.1650307625978 138.50880557801312 181.4370621665698 139.56372730378106 L 181.4370621665698 139.56372730378106 Q 181.42924891561083 139.93488513719802 181.23947549041114 140.30399686891195 Z" fill-opacity="1"/></g></g><g><g><path fill="rgb(0,0,0)" stroke="none" paint-order="stroke fill markers" d=" M 174.50542729383713 151.70305450676128 L 174.50542729383713 151.70305450676128 Q 173.97035195645068 152.45095278722286 172.36296163363437 152.57176367515098 L 172.36296163363437 152.57176367515098 Q 171.01008896506627 152.6445214389365 169.18089300131544 152.09632271694787 L 169.18089300131544 152.09632271694787 Q 166.86558288900886 151.36043993805148 164.98590933457447 150.01564882462003 L 164.98590933457447 150.01564882462003 Q 162.78854447516522 148.44356907229874 162.43059375743897 146.42636855822084 L 162.43059375743897 146.42636855822084 Q 162.42155072204432 145.8795586410493 162.58254684125797 145.65452730002548 L 162.58254684125797 145.65452730002548 L 162.73407260051783 145.4427330967089 Q 163.354381177488 144.57570057688176 166.04527998785494 145.2901113381899 L 166.04527998785494 145.2901113381899 Q 169.9807368205561 146.54470652585056 172.92599996042694 148.65186161555832 L 172.92599996042694 148.65186161555832 Q 174.69315784434943 149.91615466938296 174.80869247463644 150.99944257268874 L 174.80869247463644 150.99944257268874 Q 174.7469214726576 151.3655074952255 174.50542729383713 151.70305450676128 Z" fill-opacity="1"/></g></g><g><g><path fill="rgb(0,0,0)" stroke="none" paint-order="stroke fill markers" d=" M 166.18342526710904 162.0001513020684 L 166.18342526710904 162.0001513020684 Q 165.54515716766298 162.66217191188815 163.93730600551913 162.54765745464312 L 163.93730600551913 162.54765745464312 Q 162.58825678765223 162.42266002538 160.858372266078 161.61397018705503 L 160.858372266078 161.61397018705503 Q 158.6748809533536 160.54881758405273 157.01104154460305 158.9446747500467 L 157.01104154460305 158.9446747500467 Q 155.06598984141576 157.0694091835326 155.00556042314093 155.0215871903594 L 155.00556042314093 155.0215871903594 Q 155.07622991851525 154.47928774869473 155.26827518737514 154.28009570680206 L 155.26827518737514 154.28009570680206 L 155.44902367571385 154.09262084384423 Q 156.18896279985043 153.3251456236107 158.74716665095926 154.42374118143854 L 158.74716665095926 154.42374118143854 Q 162.45801424437994 156.23797372038158 165.065086557387 158.7515073863417 L 165.065086557387 158.7515073863417 Q 166.62932994519122 160.2596275859178 166.5859053817342 161.34819326585298 L 166.5859053817342 161.34819326585298 Q 166.47149317039884 161.70136323922938 166.18342526710904 162.0001513020684 Z" fill-opacity="1"/></g></g><g><g><path fill="rgb(0,0,0)" stroke="none" paint-order="stroke fill markers" d=" M 156.45083843518088 170.97582251394826 L 156.45083843518088 170.97582251394826 Q 155.72298115008562 171.53785563319514 154.14893770466418 171.19045650761882 L 154.14893770466418 171.19045650761882 Q 152.83246457942522 170.8703679884975 151.23876098526551 169.81842285373304 L 151.23876098526551 169.81842285373304 Q 149.23362579858517 168.44670230509286 147.82108238384077 166.61739726998616 L 147.82108238384077 166.61739726998616 Q 146.16979923702692 164.4789139190868 146.40817906633956 162.44411621727622 L 146.40817906633956 162.44411621727622 Q 146.55705489488176 161.91788542220417 146.77605620190158 161.7487781119883 L 146.77605620190158 161.7487781119883 L 146.9821750790967 161.58961829060863 Q 147.82597423261421 160.9380577718357 150.19695945080474 162.39742346919508 L 150.19695945080474 162.39742346919508 Q 153.60410753108 164.7326261426331 155.81742379714072 167.59896677862773 L 155.81742379714072 167.59896677862773 Q 157.14541355677716 169.3187711602245 156.94395531875458 170.38941372923483 L 156.94395531875458 170.38941372923483 Q 156.77934039571062 170.72216154862446 156.45083843518088 170.97582251394826 Z" fill-opacity="1"/></g></g><g><g><path fill="rgb(0,0,0)" stroke="none" paint-order="stroke fill markers" d=" M 145.5150999891424 178.43876729363325 L 145.5150999891424 178.43876729363325 Q 144.71316653276017 178.88883416214443 143.2064788073244 178.31595457746138 L 143.2064788073244 178.31595457746138 Q 141.95064011378275 177.8075970995452 140.52708447223824 176.53481705255396 L 140.52708447223824 176.53481705255396 Q 138.7430413868901 174.88576440025724 137.61189987664963 172.87028562492486 L 137.61189987664963 172.87028562492486 Q 136.28957951960797 170.51416254953634 136.82168794430942 168.53575731938793 L 136.82168794430942 168.53575731938793 Q 137.04559707620496 168.03681086668976 137.28688678874474 167.90139251687222 L 137.28688678874474 167.90139251687222 L 137.5139829887822 167.77393995233808 Q 138.4436580576855 167.25218101627647 140.57689120941848 169.04121300700626 L 140.57689120941848 169.04121300700626 Q 143.60772233053817 171.84761502421762 145.380109556091 175.00567155598839 L 145.380109556091 175.00567155598839 Q 146.4435418914227 176.90050547505086 146.08834371141626 177.93040604557422 L 146.08834371141626 177.93040604557422 Q 145.8770345579521 178.23563976890696 145.5150999891424 178.43876729363325 Z" fill-opacity="1"/></g></g><g><g><path fill="rgb(0,0,0)" stroke="none" paint-order="stroke fill markers" d=" M 133.6092862078863 184.22992592993754 L 133.6092862078863 184.22992592993754 Q 132.75036839956292 184.5584341537944 131.34314882714423 183.77228404374716 L 131.34314882714423 183.77228404374716 Q 130.1747105867281 183.08649236409292 128.95164351479187 181.62000450183916 L 128.95164351479187 181.62000450183916 Q 127.42671631177336 179.72876644016648 126.601085023496 177.57007035553073 L 126.601085023496 177.57007035553073 Q 125.63591041889008 175.0465242284213 126.450406471728 173.16667774260702 L 126.450406471728 173.16667774260702 Q 126.74457667257039 172.705649809676 127.00301211932256 172.6068066272766 L 127.00301211932256 172.6068066272766 L 127.24624548097165 172.51377774972423 Q 128.24198205522268 172.13294078224416 130.0919969794821 174.21350895549025 L 130.0919969794821 174.21350895549025 Q 132.6819142380777 177.43129672981354 133.97559706654044 180.81376066524635 L 133.97559706654044 180.81376066524635 Q 134.7518067636181 182.84323902650604 134.2504390741572 183.81044705594377 L 134.2504390741572 183.81044705594377 Q 133.99693937801453 184.08166115633844 133.6092862078863 184.22992592993754 Z" fill-opacity="1"/></g></g><g><g><path fill="rgb(0,0,0)" stroke="none" paint-order="stroke fill markers" d=" M 120.98714884187866 188.22586993084968 L 120.98714884187866 188.22586993084968 Q 120.0895530234882 188.42581792760032 118.81179404612818 187.44315271690985 L 118.81179404612818 187.44315271690985 Q 117.75565949134776 186.59454329453203 116.75914854022994 184.96560325975648 L 116.75914854022994 184.96560325975648 Q 115.52583839537067 182.87248824451902 115.0233142265461 180.61658370980317 L 115.0233142265461 180.61658370980317 Q 114.435856395385 177.97939953541703 115.51538050708066 176.23817745808614 L 115.51538050708066 176.23817745808614 Q 115.87354204976262 175.82489405489895 116.1436151278624 175.7647327107439 L 116.1436151278624 175.7647327107439 L 116.39780155430925 175.7081102691862 Q 117.43837723757608 175.4763121490594 118.96574407815521 177.8040728063879 L 118.96574407815521 177.8040728063879 Q 121.05954788434514 181.36466477797637 121.84695371225686 184.89944477075295 L 121.84695371225686 184.89944477075295 Q 122.3193972090039 187.0203127664189 121.68254579193982 187.90421389484203 L 121.68254579193982 187.90421389484203 Q 121.39225845902834 188.13562791461712 120.98714884187866 188.22586993084968 Z" fill-opacity="1"/></g></g><g><g><path fill="rgb(0,0,0)" stroke="none" paint-order="stroke fill markers" d=" M 107.91770683514953 190.34143268754934 L 107.91770683514953 190.34143268754934 Q 107.00056370319982 190.40855891278275 105.87949853511934 189.2503224043605 L 105.87949853511934 189.2503224043605 Q 104.9581773404015 188.25698187578362 104.20946141093249 186.50030769724293 L 104.20946141093249 186.50030769724293 Q 103.29405418875847 184.24992684102838 103.12534756958775 181.94489454480077 L 103.12534756958775 181.94489454480077 Q 102.92812715562762 179.2502793252671 104.24967114395625 177.68479278197478 L 104.24967114395625 177.68479278197478 Q 104.66419043701774 177.3280623267483 104.94014500769286 177.30786505543912 L 104.94014500769286 177.30786505543912 L 105.19986695656358 177.28885585891285 Q 106.26310368475308 177.21103696063338 107.43526926918325 179.73637792497556 L 107.43526926918325 179.73637792497556 Q 108.9883338299965 183.56388625767735 109.25268046919007 187.17564460916074 L 109.25268046919007 187.17564460916074 Q 109.4112884527062 189.34269962005078 108.65252669032392 190.12445502949208 L 108.65252669032392 190.12445502949208 Q 108.33163869116224 190.31113678058557 107.91770683514953 190.34143268754934 Z" fill-opacity="1"/></g></g><g><g><path fill="rgb(0,0,0)" stroke="none" paint-order="stroke fill markers" d=" M 94.67951265355762 190.5315246528121 L 94.67951265355762 190.5315246528121 Q 93.76236952160791 190.4643984275787 92.82189172052706 189.15527642172913 L 92.82189172052706 189.15527642172913 Q 92.05502024758525 188.03837611573144 91.57005691991834 186.19140825369092 L 91.57005691991834 186.19140825369092 Q 90.99206293608574 183.83172451745025 91.16076955525646 181.52669222122265 L 91.16076955525646 181.52669222122265 Q 91.3579899692166 178.83207700168896 92.89338741846586 177.47569162018573 L 92.89338741846586 177.47569162018573 Q 93.35542970284304 177.1831172032354 93.63138427351818 177.20331447454458 L 93.63138427351818 177.20331447454458 L 93.8911062223889 177.22232367107085 Q 94.9543429505784 177.30014256935033 95.74632460448301 179.9692405824225 L 95.74632460448301 179.9692405824225 Q 96.72554904515924 183.98208858125545 96.4612024059657 187.59384693273887 L 96.4612024059657 187.59384693273887 Q 96.30259442244956 189.7609019436289 95.43809400438985 190.42384987478096 L 95.43809400438985 190.42384987478096 Q 95.09344450957032 190.56182055977587 94.67951265355762 190.5315246528121 Z" fill-opacity="1"/></g></g><g><g><path fill="rgb(0,0,0)" stroke="none" paint-order="stroke fill markers" d=" M 81.55471542258988 188.79209434642667 L 81.55471542258988 188.79209434642667 Q 80.65711960419942 188.59214634967606 79.91727382163752 187.16004050912136 L 79.91727382163752 187.16004050912136 Q 79.32119660451339 185.9433852166185 79.11032203000863 184.04548858444392 L 79.11032203000863 184.04548858444392 Q 78.88206022279849 181.6267945302497 79.38458439162304 179.37088999553384 L 79.38458439162304 179.37088999553384 Q 79.97204222278415 176.7337058211477 81.6885688020039 175.61533060095147 L 81.6885688020039 175.61533060095147 Q 82.1882864485801 175.3931479380215 82.45835952667989 175.45330928217658 L 82.45835952667989 175.45330928217658 L 82.71254595312674 175.50993172373427 Q 83.75312163639356 175.7417298438611 84.14803964581876 178.49769771546968 L 84.14803964581876 178.49769771546968 Q 84.5325534974857 182.6103584922457 83.74514766957397 186.1451384850223 L 83.74514766957397 186.1451384850223 Q 83.27270417282692 188.26600648068825 82.32089042459816 188.79601734937577 L 82.32089042459816 188.79601734937577 Q 81.95982503973956 188.88233636265926 81.55471542258988 188.79209434642667 Z" fill-opacity="1"/></g></g><g><g><path fill="rgb(0,0,0)" stroke="none" paint-order="stroke fill markers" d=" M 68.82304740860475 185.16021470546133 L 68.82304740860475 185.16021470546133 Q 67.96412960028137 184.8317064816045 67.44068436461029 183.30713965598525 L 67.44068436461029 183.30713965598525 Q 67.02810575430725 182.01666027224056 67.09581435841025 180.10828524161303 L 67.09581435841025 180.10828524161303 Q 67.22214973194644 177.68213113401416 68.04778102022381 175.5234350493784 L 68.04778102022381 175.5234350493784 Q 69.01295562482973 172.99988892226898 70.87402655013192 172.14336008953086 L 70.87402655013192 172.14336008953086 Q 71.40076894485524 171.9963046183391 71.65920439160742 172.09514780073852 L 71.65920439160742 172.09514780073852 L 71.90243775325652 172.18817667829092 Q 72.89817432750752 172.56901364577095 72.8876117007194 175.3531127055069 L 72.8876117007194 175.3531127055069 Q 72.66921971820257 179.47793203596586 71.3755368897398 182.86039597139867 L 71.3755368897398 182.86039597139867 Q 70.59932719266214 184.88987433265837 69.58048637181615 185.27565187739373 L 69.58048637181615 185.27565187739373 Q 69.21070057873301 185.30847947906042 68.82304740860475 185.16021470546133 Z" fill-opacity="1"/></g></g><g><g><path fill="rgb(0,0,0)" stroke="none" paint-order="stroke fill markers" d=" M 56.75586201123207 179.7132929389746 L 56.75586201123207 179.7132929389746 Q 55.953928554849824 179.26322607046342 55.65804019248834 177.6786917547907 L 55.65804019248834 177.6786917547907 Q 55.43775358578656 176.3418926074026 55.782602277153195 174.46371287887422 L 55.782602277153195 174.46371287887422 Q 56.260842212285986 172.0818079805062 57.391983722526454 170.06632920517384 L 57.391983722526454 170.06632920517384 Q 58.71430407956812 167.7102061297853 60.68025385527862 167.13377910951237 L 60.68025385527862 167.13377910951237 Q 61.222794398509485 167.06498506211693 61.464084111049274 167.20040341193445 L 61.464084111049274 167.20040341193445 L 61.691180311086725 167.32785597646858 Q 62.62085537999004 167.8496149125302 62.20503724104028 170.60250692254942 L 62.20503724104028 170.60250692254942 Q 61.38839407028571 174.65157144396858 59.61600684473287 177.80962797573937 L 59.61600684473287 177.80962797573937 Q 58.55257450940117 179.70446189480185 57.48842143917357 179.93778393698682 L 57.48842143917357 179.93778393698682 Q 57.117796580041755 179.9164204637009 56.75586201123207 179.7132929389746 Z" fill-opacity="1"/></g></g><g><g><path fill="rgb(0,0,0)" stroke="none" paint-order="stroke fill markers" d=" M 45.6103503367703 172.56742072774475 L 45.6103503367703 172.56742072774475 Q 44.88249305167504 172.00538760849787 44.82046790936025 170.39465740072058 L 44.82046790936025 170.39465740072058 Q 44.797168332830935 169.04003004263154 45.411807260313836 167.23207575631375 L 45.411807260313836 167.23207575631375 Q 46.23175890312225 164.9451862347406 47.64430231786663 163.11588119963392 L 47.64430231786663 163.11588119963392 Q 49.29558546468048 160.97739784873457 51.324513284514154 160.69335818210007 L 51.324513284514154 160.69335818210007 Q 51.87128866650547 160.70429178418433 52.09028997352529 160.8733990944002 L 52.09028997352529 160.8733990944002 L 52.296408850720404 161.03255891577987 Q 53.14020800423792 161.6841194345528 52.32799679483548 164.34713128109578 L 52.32799679483548 164.34713128109578 Q 50.93050776721262 168.23414221298538 48.71719150115188 171.10048284898 L 48.71719150115188 171.10048284898 Q 47.38920174151544 172.82028723057675 46.30241699706855 172.8961809159643 L 46.30241699706855 172.8961809159643 Q 45.93885229730002 172.82108169306855 45.6103503367703 172.56742072774475 Z" fill-opacity="1"/></g></g><g><g><path fill="rgb(0,0,0)" stroke="none" paint-order="stroke fill markers" d=" M 35.62405961627801 163.87489993164647 L 35.62405961627801 163.87489993164647 Q 34.98579151683195 163.2128793218267 35.158951552787315 161.61028313985403 L 35.158951552787315 161.61028313985403 Q 35.33313559645263 160.26669910136513 36.204464798418016 158.56750366399058 L 36.204464798418016 158.56750366399058 Q 37.34865230319481 156.42437059898083 39.01249171194539 154.82022776497482 L 39.01249171194539 154.82022776497482 Q 40.95754341513268 152.94496219846073 43.00620620513325 152.95936369782348 L 43.00620620513325 152.95936369782348 Q 43.54556285790209 153.0497919186414 43.73760812676196 153.24898396053408 L 43.73760812676196 153.24898396053408 L 43.91835661510067 153.43645882349188 Q 44.65829573923725 154.2039340437254 43.467002331189875 156.7203082526717 L 43.467002331189875 156.7203082526717 Q 41.5184524990716 160.3624207054534 38.911380186064534 162.87595437141354 L 38.911380186064534 162.87595437141354 Q 37.347136798260294 164.3840745709896 36.26088330960042 164.30092235743848 L 36.26088330960042 164.30092235743848 Q 35.912127519567825 164.17368799448548 35.62405961627801 163.87489993164647 Z" fill-opacity="1"/></g></g><g><g><path fill="rgb(0,0,0)" stroke="none" paint-order="stroke fill markers" d=" M 27.009830298761685 153.82099653992677 L 27.009830298761685 153.82099653992677 Q 26.47475496137522 153.07309825946518 26.879409570066183 151.51279265856817 L 26.879409570066183 151.51279265856817 Q 27.24736480344506 150.2088881007961 28.35681341071143 148.65466691305383 L 28.35681341071143 148.65466691305383 Q 29.800850407273675 146.70096746508727 31.680523961708086 145.35617635165582 L 31.680523961708086 145.35617635165582 Q 33.87788882111733 143.78409659933453 35.902622890702304 144.09663232173872 L 35.902622890702304 144.09663232173872 Q 36.42306536359905 144.26462784076057 36.58406148281267 144.4896591817844 L 36.58406148281267 144.4896591817844 L 36.735587242072555 144.70145338510093 Q 37.35589581904271 145.56848590492808 35.81091056307861 147.88459032881764 L 35.81091056307861 147.88459032881764 Q 33.352829883161306 151.2041789988147 30.407566743290488 153.31133408852247 L 30.407566743290488 153.31133408852247 Q 28.640408859367994 154.57562714234712 27.577838233706693 154.33520127492443 L 27.577838233706693 154.33520127492443 Q 27.251324477582124 154.15854355146254 27.009830298761685 153.82099653992677 Z" fill-opacity="1"/></g></g><g><g><path fill="rgb(0,0,0)" stroke="none" paint-order="stroke fill markers" d=" M 19.95125972652803 142.61999204829354 L 19.95125972652803 142.61999204829354 Q 19.53078135304639 141.80215625057443 20.158306024029898 140.3173964357113 L 20.158306024029898 140.3173964357113 Q 20.712190120148428 139.08096182053075 22.036112161821336 137.70484040867606 L 22.036112161821336 137.70484040867606 Q 23.74922150865246 135.98221428957038 25.804667230353594 134.92543678453686 L 25.804667230353594 134.92543678453686 Q 28.207512228961964 133.69004899696247 30.16516388668063 134.29405778609404 L 30.16516388668063 134.29405778609404 Q 30.655599851961806 134.5360400704973 30.782115468761596 134.7821145583066 L 30.782115468761596 134.7821145583066 L 30.90118899045551 135.01371407624475 Q 31.38864621988998 135.96182460280409 29.52289779441354 138.0282954969469 L 29.52289779441354 138.0282954969469 Q 26.60767598879234 140.95460911496295 23.38699519246486 142.61047527601897 L 23.38699519246486 142.61047527601897 Q 21.454586714668373 143.60399497265257 20.43834580010939 143.21141971130706 L 20.43834580010939 143.21141971130706 Q 20.14103315172771 142.9891037800075 19.95125972652803 142.61999204829354 Z" fill-opacity="1"/></g></g><g><g><path fill="rgb(0,0,0)" stroke="none" paint-order="stroke fill markers" d=" M 14.59878907658534 130.51061642085946 L 14.59878907658534 130.51061642085946 Q 14.301869433525662 129.6402738560254 15.138889567916799 128.26270490488383 L 15.138889567916799 128.26270490488383 Q 15.866897448892214 127.12009268948117 17.377075825180945 125.95140069225428 L 17.377075825180945 125.95140069225428 Q 19.32274557076841 124.49656268700046 21.51015520274075 123.7503221681602 L 21.51015520274075 123.7503221681602 Q 24.067267871102786 122.8779564912061 25.916113170648227 123.76056494837471 L 25.916113170648227 123.76056494837471 Q 26.36608983718438 124.0713765658849 26.455428490848355 124.33324954999428 L 26.455428490848355 124.33324954999428 L 26.53951192959092 124.57971824092074 Q 26.883728506943292 125.58869944440093 24.736982100424 127.36149356939225 L 24.736982100424 127.36149356939225 Q 21.426752060622732 129.83216284117933 17.999296827426637 131.0014481611931 L 17.999296827426637 131.0014481611931 Q 15.94282368750898 131.70301935320137 14.994571894799249 131.16666175805895 L 14.994571894799249 131.16666175805895 Q 14.732797057081301 130.9034258970235 14.59878907658534 130.51061642085946 Z" fill-opacity="1"/></g></g><g><g><path fill="rgb(0,0,0)" stroke="none" paint-order="stroke fill markers" d=" M 11.066496968144095 117.75095997542826 L 11.066496968144095 117.75095997542826 Q 10.899464382201092 116.84666048420324 11.928140349027998 115.60564288731021 L 11.928140349027998 115.60564288731021 Q 12.814755790808348 114.58120586731027 14.479003671518832 113.6448519256072 L 14.479003671518832 113.6448519256072 Q 16.615765243210404 112.4888093804699 18.888517946820173 112.06901066889634 L 18.888517946820173 112.06901066889634 Q 21.545397867941453 111.57826006240893 23.246031881627037 112.7206569206909 L 23.246031881627037 112.7206569206909 Q 23.645958777998036 113.09367346129648 23.696216370228672 113.36576357370046 L 23.696216370228672 113.36576357370046 L 23.743517633504567 113.6218483853748 Q 23.937157180040263 114.67019558316663 21.555166965058838 116.11152891006918 L 21.555166965058838 116.11152891006918 Q 17.920480497319254 118.07389580955213 14.359301084972959 118.73167900198254 L 14.359301084972959 118.73167900198254 Q 12.222593437565184 119.12634891744078 11.362541107358755 118.45764051944455 L 11.362541107358755 118.45764051944455 Q 11.141883356490053 118.15909514403424 11.066496968144095 117.75095997542826 Z" fill-opacity="1"/></g></g><g><g><path fill="rgb(0,0,0)" stroke="none" paint-order="stroke fill markers" d=" M 9.429668074905969 104.61297263645388 L 9.429668074905969 104.61297263645388 Q 9.396082555655354 103.69398979249361 10.594489912621123 102.61597368533391 L 10.594489912621123 102.61597368533391 Q 11.620816246362452 101.73154595724145 13.403663077301669 101.04748682967848 L 13.403663077301669 101.04748682967848 Q 15.68597511193581 100.2148787844438 17.995631109145677 100.13046916084049 L 17.995631109145677 100.13046916084049 Q 20.695651500250165 100.03179312198029 22.211828166630298 101.40963017571387 L 22.211828166630298 101.40963017571387 Q 22.553181545373164 101.83690143946457 22.5632869228468 102.1134095518066 L 22.5632869228468 102.1134095518066 L 22.572797866351397 102.37365248106968 Q 22.61173329132335 103.43902197274043 20.04526725381928 104.51817498406245 L 20.04526725381928 104.51817498406245 Q 16.16359138983954 105.93041506774252 12.544588154774786 106.06267662585334 L 12.544588154774786 106.06267662585334 Q 10.373186213735936 106.14203356071984 9.619663868271115 105.35522671839486 L 9.619663868271115 105.35522671839486 Q 9.444826141116422 105.02773480496691 9.429668074905969 104.61297263645388 Z" fill-opacity="1"/></g></g><g><g><path fill="rgb(0,0,0)" stroke="none" paint-order="stroke fill markers" d=" M 9.723188562949487 91.37666779454693 L 9.723188562949487 91.37666779454693 Q 9.823765927424581 90.46258812167818 11.166362702330682 89.57054954597801 L 11.166362702330682 89.57054954597801 Q 12.310525564085989 88.84498115131792 14.173973060342387 88.42779637056965 L 14.173973060342387 88.42779637056965 Q 16.553192039337418 87.93636842018913 18.850525022476614 88.18914692913539 L 18.850525022476614 88.18914692913539 Q 21.536139636568915 88.48464856635425 22.835544282310163 90.06855961087125 L 22.835544282310163 90.06855961087125 Q 23.111048788797735 90.54097905258733 23.08078657293797 90.81601187451244 L 23.08078657293797 90.81601187451244 L 23.052304487422898 91.07486629514784 Q 22.935705949845577 92.13455157962403 20.239463857637684 92.82852400250093 L 20.239463857637684 92.82852400250093 Q 16.193529779286102 93.66053782485541 12.593835492325036 93.26445882316145 L 12.593835492325036 93.26445882316145 Q 10.434018920148397 93.02681142214507 9.803086579990781 92.13867555732064 L 9.803086579990781 92.13867555732064 Q 9.67779523915984 91.78921702743462 9.723188562949487 91.37666779454693 Z" fill-opacity="1"/></g></g><g><g><path fill="rgb(0,0,0)" stroke="none" paint-order="stroke fill markers" d=" M 11.94080255266766 78.32415430719911 L 11.94080255266766 78.32415430719911 Q 12.173399168962094 77.43445982666941 13.631570242501091 76.74741103595687 L 13.631570242501091 76.74741103595687 Q 14.869183787310662 76.19616620536561 16.773515800726322 76.05474734073823 L 16.773515800726322 76.05474734073823 Q 19.198932802226512 75.91497341878149 21.434979107274597 76.4995525252206 L 21.434979107274597 76.4995525252206 Q 24.04894873148574 77.18293373415645 25.103886802525786 78.93916045545046 L 25.103886802525786 78.93916045545046 Q 25.30767053651949 79.44665927492287 25.237685713917624 79.71435495933002 L 25.237685713917624 79.71435495933002 L 25.171817645586458 79.96630383877206 Q 24.902170240855742 80.99771956398791 22.13361781305814 81.29172058106644 L 22.13361781305814 81.29172058106644 Q 18.009657580865444 81.52577521197283 14.505993476124603 80.60979738674254 L 14.505993476124603 80.60979738674254 Q 12.4037950132801 80.06021069160437 11.90889990586683 79.08967487830195 L 11.90889990586683 79.08967487830195 Q 11.835825318764863 78.72569783380986 11.94080255266766 78.32415430719911 Z" fill-opacity="1"/></g></g><g><g><path fill="rgb(0,0,0)" stroke="none" paint-order="stroke fill markers" d=" M 16.03524545198067 65.73362383826898 L 16.03524545198067 65.73362383826898 Q 16.394903927040794 64.88727684328758 17.93757091438423 64.41986108971679 L 17.93757091438423 64.41986108971679 Q 19.242257558223486 64.05468864971458 21.14688655813889 64.19204979878324 L 21.14688655813889 64.19204979878324 Q 23.56680802964553 64.40690894372824 25.693910211722685 65.3108293589236 L 25.693910211722685 65.3108293589236 Q 28.18052262175655 66.3675250555604 28.968509944642136 68.25863653014049 L 28.968509944642136 68.25863653014049 Q 29.096229609651072 68.79039827112634 28.988013785296697 69.04505134926234 L 28.988013785296697 69.04505134926234 L 28.886163597669054 69.2847248345668 Q 28.469214392068384 70.26588816503197 25.687358517056666 70.15365165506304 L 25.687358517056666 70.15365165506304 Q 21.573267183557572 69.78475862641757 18.240307778542306 68.36840445472063 L 18.240307778542306 68.36840445472063 Q 16.240532135533147 67.51859195170246 15.892222090866484 66.48634147578662 L 15.892222090866484 66.48634147578662 Q 15.872921715449113 66.11560345547298 16.03524545198067 65.73362383826898 Z" fill-opacity="1"/></g></g><g><g><path fill="rgb(0,0,0)" stroke="none" paint-order="stroke fill markers" d=" M 21.9192513190576 53.87342168564972 L 21.9192513190576 53.87342168564972 Q 22.398306156908642 53.08846059302911 23.99258978952293 52.85064003188346 L 23.99258978952293 52.85064003188346 Q 25.336542401710428 52.679322999034724 27.200874527714447 53.09253654738663 L 27.200874527714447 53.09253654738663 Q 29.56372404440956 53.65744940958663 31.536546613473742 54.861445639229956 L 31.536546613473742 54.861445639229956 Q 33.84280398294314 56.26893418937639 34.347045975951325 58.254624659415455 L 34.347045975951325 58.254624659415455 Q 34.395979449056355 58.7993157436239 34.25183905536666 59.03549872724426 L 34.25183905536666 59.03549872724426 L 34.11617750836459 59.257788594181065 Q 33.56081305032489 60.16778773695363 30.82494415635524 59.65170582628779 L 30.82494415635524 59.65170582628779 Q 26.80840643564271 58.687727452542305 23.71718797355271 56.801184064544834 L 23.71718797355271 56.801184064544834 Q 21.862456896298713 55.66925803174635 21.668155538262166 54.597293519969334 L 21.668155538262166 54.597293519969334 Q 21.703040728523057 54.22769616108026 21.9192513190576 53.87342168564972 Z" fill-opacity="1"/></g></g><g><g><path fill="rgb(0,0,0)" stroke="none" paint-order="stroke fill markers" d=" M 29.467412784359773 42.996327467131714 L 29.467412784359773 42.996327467131714 Q 30.055653762844102 42.289482359750735 31.667574653015947 42.28632572339883 L 31.667574653015947 42.28632572339883 Q 33.02214921692654 42.312515422826635 34.806449466514024 42.99277444107945 L 34.806449466514024 42.99277444107945 Q 37.06186699321097 43.89570088365025 38.83836266131891 45.37411183842503 L 38.83836266131891 45.37411183842503 Q 40.915111118402834 47.10239506724625 41.1248607388925 49.14034298783237 L 41.1248607388925 49.14034298783237 Q 41.09396508807025 49.68635427046906 40.91697222728735 49.899033329327054 L 40.91697222728735 49.899033329327054 L 40.75039071125639 50.099201855311044 Q 40.06844763000464 50.91864175855802 37.43687601267264 50.009713837125375 L 37.43687601267264 50.009713837125375 Q 33.60349743295082 48.471195643705016 30.819903868485916 46.15467143639946 L 30.819903868485916 46.15467143639946 Q 29.149747729806975 44.764756912016125 29.113596254510753 43.67592542685504 L 29.113596254510753 43.67592542685504 Q 29.201923493185426 43.3153460554187 29.467412784359773 42.996327467131714 Z" fill-opacity="1"/></g></g><g><g><path fill="rgb(0,0,0)" stroke="none" paint-order="stroke fill markers" d=" M 38.51885389099647 33.33416756171316 L 38.51885389099647 33.33416756171316 Q 39.2037436749324 32.720503615846354 40.79894652742459 32.952078182511634 L 40.79894652742459 32.952078182511634 Q 42.13527263797346 33.17521642624193 43.80151174913772 34.108022374453434 L 43.80151174913772 34.108022374453434 Q 45.90142697699859 35.32971808788758 47.443732823247906 37.05103400503629 L 47.443732823247906 37.05103400503629 Q 49.24671008013091 39.0632765560693 49.157496879098176 41.110046605458905 L 49.157496879098176 41.110046605458905 Q 49.047430591506426 41.64574080399205 48.84135755917172 41.83038305319091 L 48.84135755917172 41.83038305319091 L 48.64740646991552 42.00416399361337 Q 47.85341919827298 42.71557971846781 45.38223223779842 41.43317800687829 L 45.38223223779842 41.43317800687829 Q 41.813714608173 39.35291083797711 39.397073405423185 36.65577850300817 L 39.397073405423185 36.65577850300817 Q 37.9470886837733 35.037499102026814 38.069857597148946 33.95500719621284 L 38.069857597148946 33.95500719621284 Q 38.2097443424944 33.61113093551145 38.51885389099647 33.33416756171316 Z" fill-opacity="1"/></g></g><g><g><path fill="rgb(0,0,0)" stroke="none" paint-order="stroke fill markers" d=" M 48.880658886441275 25.092874132816956 L 48.880658886441275 25.092874132816956 Q 49.647600239155764 24.585470530057677 51.19208607467922 25.046840689899916 L 51.19208607467922 25.046840689899916 Q 52.48168226088288 25.462171673669104 53.99434723981085 26.627643412544426 L 53.99434723981085 26.627643412544426 Q 55.89400412152207 28.142070073757353 57.1692485744746 30.069604092968984 L 57.1692485744746 30.069604092968984 Q 58.660027301165584 32.32291850979385 58.273752703102936 34.33488733788448 L 58.273752703102936 34.33488733788448 Q 58.08686165057009 34.84884706051794 57.85610053559405 35.001517171082675 L 57.85610053559405 35.001517171082675 L 57.6389136038519 35.14520668690831 Q 56.74980460203245 35.73343564231951 54.49167135812605 34.10489230661364 L 54.49167135812605 34.10489230661364 Q 51.264071436389834 31.52721344528046 49.26588910693957 28.506957675741106 L 49.26588910693957 28.506957675741106 Q 48.06697970926942 26.694804214017495 48.3460524050736 25.64172332315451 L 48.3460524050736 25.64172332315451 Q 48.53451721397721 25.321879298664065 48.880658886441275 25.092874132816956 Z" fill-opacity="1"/></g></g><g><g><path fill="rgb(0,0,0)" stroke="none" paint-order="stroke fill markers" d=" M 60.33198388686617 18.448096041756738 L 60.33198388686617 18.448096041756738 Q 61.164630784951505 18.05776720896892 62.62548156938146 18.739099658038988 L 62.62548156938146 18.739099658038988 Q 63.84086232746368 19.337771323005008 65.16771334634316 20.711068845864027 L 65.16771334634316 20.711068845864027 Q 66.82662399356077 22.48594907984416 67.80762743171778 24.578619159987827 L 67.80762743171778 24.578619159987827 Q 68.95443426787313 27.024979957902254 68.27933104520754 28.959265942203277 L 68.27933104520754 28.959265942203277 Q 68.01959848604741 29.440537029760407 67.76906756095978 29.55798110334258 L 67.76906756095978 29.55798110334258 L 67.53327374911261 29.66851670200816 Q 66.56799283186325 30.121021809045363 64.57104149416035 28.181046423027837 L 64.57104149416035 28.181046423027837 Q 61.75314996904683 25.160894618954245 60.21601430010366 21.881886922954486 L 60.21601430010366 21.881886922954486 Q 59.29373289873775 19.914482305354632 59.72316142697154 18.913257020324757 L 59.72316142697154 18.913257020324757 Q 59.956187499234744 18.62426215213 60.33198388686617 18.448096041756738 Z" fill-opacity="1"/></g></g><g><g><path fill="rgb(0,0,0)" stroke="none" paint-order="stroke fill markers" d=" M 72.62876378110762 13.541455197210434 L 72.62876378110762 13.541455197210434 Q 73.50936980153121 13.27652031579546 74.85545003665395 14.163293635836903 L 74.85545003665395 14.163293635836903 Q 75.97071163583979 14.932546334844943 77.08346916881604 16.484400189238727 L 77.08346916881604 16.484400189238727 Q 78.46627678121268 18.481905505257487 79.13213081945916 20.69511001676455 L 79.13213081945916 20.69511001676455 Q 79.91052356839519 23.282377262610826 78.96098037423718 25.097754455577906 L 78.96098037423718 25.097754455577906 Q 78.63394205701351 25.53607945038633 78.36898095352323 25.615794370458094 L 78.36898095352323 25.615794370458094 L 78.11960579729708 25.690820177584456 Q 77.09872625149629 25.99795707550801 75.40551837075253 23.787896846443097 L 75.40551837075253 23.787896846443097 Q 73.05739370783651 20.389641391895708 72.01406607748551 16.921768125625846 L 72.01406607748551 16.921768125625846 Q 71.3880694992749 14.841044165863929 71.95870133641142 13.91301386534007 L 71.95870133641142 13.91301386534007 Q 72.2313221258722 13.661027577318075 72.62876378110762 13.541455197210434 Z" fill-opacity="1"/></g></g><g><g><path fill="rgb(0,0,0)" stroke="none" paint-order="stroke fill markers" d=" M 85.50891405477695 10.47752813011396 L 85.50891405477695 10.47752813011396 Q 86.41871060907779 10.34363382710244 87.62133093167918 11.41694798437027 L 87.62133093167918 11.41694798437027 Q 88.61270350724367 12.340386431679221 89.48765105941553 14.037721546952772 L 89.48765105941553 14.037721546952772 Q 90.56488349349472 16.21527858716852 90.9013966090281 18.501846918331697 L 90.9013966090281 18.501846918331697 Q 91.29478518070796 21.174877502649213 90.09103987969138 22.832654291181772 L 90.09103987969138 22.832654291181772 Q 89.70366605834815 23.218691056975185 89.42992196236382 23.25897783841228 L 89.42992196236382 23.25897783841228 L 89.17228046026094 23.296894809176603 Q 88.11756056102722 23.452117408243055 86.76418392355741 21.019075932916724 L 86.76418392355741 21.019075932916724 Q 84.93587232333178 17.31514474302726 84.4085894486404 13.732317604408898 L 84.4085894486404 13.732317604408898 Q 84.09221972382556 11.582621321237884 84.79189284295883 10.747565359875699 L 84.79189284295883 10.747565359875699 Q 85.09829791080047 10.537958302269601 85.50891405477695 10.47752813011396 Z" fill-opacity="1"/></g></g></g></g></svg>