<svg version="1.1" xmlns="http://www.w3.org/2000/svg" xmlns:xlink="http://www.w3.org/1999/xlink" width="200" height="200" viewBox="0 0 200 200"><defs/><g><g/><g><g><g><path fill="rgb(0,0,0)" stroke="none" paint-order="stroke fill markers" d=" M 96.84895833333333 11.072919209798176 L 96.84895833333333 11.072919209798176 Q 98.35286458333333 11.072919209798176 98.64583333333333 15.942710876464844 L 98.64583333333333 15.942710876464844 Q 98.84765625 21.98437754313151 99.08854166666667 21.98437754313151 L 99.08854166666667 21.98437754313151 L 99.19270833333333 22.088544209798176 L 99.27083333333333 22.088544209798176 Q 99.34895833333333 21.736981709798176 99.6875 18.00000254313151 L 99.6875 18.00000254313151 Q 99.94791666666667 16.046877543131508 100.33854166666667 14.536460876464844 L 100.33854166666667 14.536460876464844 Q 101.0546875 12.427085876464844 102.421875 12.427085876464844 L 102.421875 12.427085876464844 Q 103.58072916666667 12.427085876464844 104.34895833333333 13.885419209798176 L 104.34895833333333 13.885419209798176 Q 104.55729166666667 14.412762959798176 104.55729166666667 14.848960876464844 L 104.55729166666667 14.848960876464844 L 104.55729166666667 15.10937754313151 Q 104.55729166666667 16.144533793131508 103.30729166666667 19.041669209798176 L 103.30729166666667 19.041669209798176 Q 101.56901041666667 22.348960876464844 99.08854166666667 22.348960876464844 L 99.08854166666667 22.348960876464844 Q 96.49088541666667 22.348960876464844 95.65104166666667 18.052085876464844 L 95.65104166666667 18.052085876464844 Q 95.49479166666667 17.147137959798176 95.44270833333333 15.73437754313151 L 95.44270833333333 15.73437754313151 Q 95.44270833333333 12.915367126464844 96.22395833333333 11.43750254313151 L 96.22395833333333 11.43750254313151 Q 96.47786458333333 11.072919209798176 96.84895833333333 11.072919209798176 Z" fill-opacity="1"/></g></g><g><g><path fill="rgb(0,0,0)" stroke="none" paint-order="stroke fill markers" d=" M 116.71609859816306 12.60133405418226 L 116.71609859816306 12.60133405418226 Q 118.18229877859275 12.935984677514998 117.38429160052543 17.74887217972879 L 117.38429160052543 17.74887217972879 Q 116.23665708598232 23.683971473071097 116.47150300232819 23.73757352096422 L 116.47150300232819 23.73757352096422 L 116.54987872922669 23.862307775770272 L 116.62604497236589 23.87969222373561 Q 116.78044123134912 23.554328577574527 117.94205104596095 19.986375888599014 L 117.94205104596095 19.986375888599014 Q 118.63054972222507 18.140167970003347 119.34748026525094 16.75454284247207 L 119.34748026525094 16.75454284247207 Q 120.51505092242442 14.857411717395792 121.8479601773605 15.16163955678919 L 121.8479601773605 15.16163955678919 Q 122.97775945059205 15.419508868275024 123.40221781277461 17.012225811865996 L 123.40221781277461 17.012225811865996 Q 123.48798277071313 17.5727064809632 123.39091960290666 17.99796800515709 L 123.39091960290666 17.99796800515709 L 123.3329714430222 18.251855482287773 Q 123.10262750748149 19.26105820388224 121.23929433853962 21.807405219515697 L 121.23929433853962 21.807405219515697 Q 118.80865379815971 24.644972211846625 116.39037557848995 24.093015988947172 L 116.39037557848995 24.093015988947172 Q 113.8578479941114 23.514983094099716 113.99520551845848 19.13895690581607 L 113.99520551845848 19.13895690581607 Q 114.04424288777855 18.221929026856273 114.30783415972559 16.832999831445424 L 114.30783415972559 16.832999831445424 Q 114.93512299047484 14.084667891505777 116.02564122921119 12.81770093844252 L 116.02564122921119 12.81770093844252 Q 116.35430894325184 12.518757926346908 116.71609859816306 12.60133405418226 Z" fill-opacity="1"/></g></g><g><g><path fill="rgb(0,0,0)" stroke="none" paint-order="stroke fill markers" d=" M 135.7450238789319 18.512282954136335 L 135.7450238789319 18.512282954136335 Q 137.09999659042577 19.1648034211686 135.2510288963872 23.6794484827005 L 135.2510288963872 23.6794484827005 Q 132.8114841372979 29.210369741333892 133.02851439844628 29.314886006616117 L 133.02851439844628 29.314886006616117 L 133.07716909936136 29.4539331531807 L 133.14755729216623 29.48783032029926 Q 133.37048273700464 29.204980619795872 135.29691273299684 25.984966454809705 L 135.29691273299684 25.984966454809705 Q 136.3789692203104 24.338252191749653 137.3862554152936 23.146899633114842 L 137.3862554152936 23.146899633114842 Q 138.94670402820606 21.5571424593033 140.1784974022914 22.15034288387809 L 140.1784974022914 22.15034288387809 Q 141.22258892889707 22.653150862803383 141.28199237193192 24.300385938493577 L 141.28199237193192 24.300385938493577 Q 141.2408883413613 24.865898685575985 141.0516291582827 25.258899428736544 L 141.0516291582827 25.258899428736544 L 140.93863860122082 25.493526738086132 Q 140.48950113689992 26.426170292750747 138.10627010470867 28.494044435367968 L 138.10627010470867 28.494044435367968 Q 135.10515274011448 30.719599295719796 132.87032761855966 29.64336423970554 L 132.87032761855966 29.64336423970554 Q 130.52992020779752 28.51628343301345 131.63759132666584 24.28053828222073 L 131.63759132666584 24.28053828222073 Q 131.88945712684608 23.39741404799379 132.45550543703678 22.1019627833599 L 132.45550543703678 22.1019627833599 Q 133.67862821723145 19.562122159650606 135.0237315566063 18.569583850277283 L 135.0237315566063 18.569583850277283 Q 135.41067996310875 18.35127141032318 135.7450238789319 18.512282954136335 Z" fill-opacity="1"/></g></g><g><g><path fill="rgb(0,0,0)" stroke="none" paint-order="stroke fill markers" d=" M 152.98154440419 28.509366249843637 L 152.98154440419 28.509366249843637 Q 154.15734565712043 29.447036459670247 151.35013240790641 33.437055925619006 L 151.35013240790641 33.437055925619006 Q 147.74100636514342 38.286455662519735 147.92933816756087 38.436645263227895 L 147.92933816756087 38.436645263227895 L 147.94583209262433 38.58303289701193 L 148.00691267719213 38.63174303778215 Q 148.2871888952259 38.40559054799719 150.88183982852834 35.69497986284098 L 150.88183982852834 35.69497986284098 Q 152.30319529634306 34.33033238454632 153.55032760740625 33.392991786752965 L 153.55032760740625 33.392991786752965 Q 155.4254067667403 32.19032562714892 156.49431699667707 33.04275309062766 L 156.49431699667707 33.04275309062766 Q 157.40034566776635 33.76528684538583 157.09171545497253 35.38444080822547 L 157.09171545497253 35.38444080822547 Q 156.9258035636211 35.926628462778794 156.6538386109874 36.267661726615756 L 156.6538386109874 36.267661726615756 L 156.49147147508668 36.47126367517514 Q 155.84606210988136 37.28058142069869 153.06243836990092 38.7662908460984 L 153.06243836990092 38.7662908460984 Q 149.64133273732799 40.26823496066531 147.70202417729988 38.721687991211034 L 147.70202417729988 38.721687991211034 Q 145.67109474042002 37.102075810601434 147.69353619867775 33.21900964609182 L 147.69353619867775 33.21900964609182 Q 148.1356008267971 32.41407259330754 148.97572214934658 31.27705859519274 L 148.97572214934658 31.27705859519274 Q 150.73334639547178 29.073067502037425 152.2655857373865 28.404727851665065 L 152.2655857373865 28.404727851665065 Q 152.69141162749287 28.277993081185123 152.98154440419 28.509366249843637 Z" fill-opacity="1"/></g></g><g><g><path fill="rgb(0,0,0)" stroke="none" paint-order="stroke fill markers" d=" M 167.56134906135912 42.09128844067294 L 167.56134906135912 42.09128844067294 Q 168.49901927118574 43.267089693603374 164.8743258610136 46.532407327075994 L 164.8743258610136 46.532407327075994 Q 160.27659518475897 50.45711639010603 160.42678478546713 50.64544819252346 L 160.42678478546713 50.64544819252346 L 160.41029086040365 50.7918358263075 L 160.45900100117387 50.852916410875316 Q 160.78257377249923 50.69480136197717 163.91533901099731 48.62951549492915 L 163.91533901099731 48.62951549492915 Q 165.6047207610934 47.61536392423319 167.02916276658888 46.97903745884814 L 167.02916276658888 46.97903745884814 Q 169.12484817364685 46.22376901659067 169.9772756371256 47.292679246527435 L 169.9772756371256 47.292679246527435 Q 170.69980939188375 48.19870791761669 170.0386215308583 49.70858962691086 L 170.0386215308583 49.70858962691086 Q 169.75622129374614 50.2002646359573 169.41518802990916 50.47222958859099 L 169.41518802990916 50.47222958859099 L 169.21158608134976 50.63459672449171 Q 168.40226833582622 51.28000608969704 165.35783440577967 52.10905112350742 L 165.35783440577967 52.10905112350742 Q 161.68828902693826 52.81207074281258 160.14174205748398 50.872762182784456 L 160.14174205748398 50.872762182784456 Q 158.52212987687437 48.84183274590462 161.3579280148244 45.50615871943886 L 161.3579280148244 45.50615871943886 Q 161.96802450452782 44.81977175304826 163.04009164828233 43.89820965107502 L 163.04009164828233 43.89820965107502 Q 165.24408274143767 42.14058540494981 166.88662520721428 41.82995775439142 L 166.88662520721428 41.82995775439142 Q 167.32997589270062 41.80115566397582 167.56134906135912 42.09128844067294 Z" fill-opacity="1"/></g></g><g><g><path fill="rgb(0,0,0)" stroke="none" paint-order="stroke fill markers" d=" M 178.75334556496657 58.576995234808024 L 178.75334556496657 58.576995234808024 Q 179.4058660319988 59.931967946301896 175.1454497238561 62.30884708637704 L 175.1454497238561 62.30884708637704 Q 169.7896638286686 65.11206417495822 169.89418009395084 65.32909443610659 L 169.89418009395084 65.32909443610659 L 169.84552539303576 65.46814158267117 L 169.8794225601543 65.53852977547605 Q 170.2300665948948 65.45638071624741 173.74385620824182 64.13998172456412 L 173.74385620824182 64.13998172456412 Q 175.6165515854256 63.52717985594973 177.146875815246 63.223775589015304 L 177.146875815246 63.223775589015304 Q 179.3580810528978 62.95377717752557 179.95128147747258 64.18557055161091 L 179.95128147747258 64.18557055161091 Q 180.45408945639787 65.22966207821658 179.4734986673727 66.5545597603443 L 179.4734986673727 66.5545597603443 Q 179.08877081158926 66.97106748587424 178.69577006842871 67.16032666895288 L 178.69577006842871 67.16032666895288 L 178.4611427590791 67.27331722601474 Q 177.5284992044145 67.72245469033564 174.37591571400338 67.85326355277085 L 174.37591571400338 67.85326355277085 Q 170.64193691687566 67.72210633754803 169.56570186086142 65.4872812159932 L 169.56570186086142 65.4872812159932 Q 168.43862105416932 63.14687380523106 171.94557711191302 60.52585654105788 L 171.94557711191302 60.52585654105788 Q 172.6931126776657 59.99243796965815 173.94336771947485 59.33253873572762 L 173.94336771947485 59.33253873572762 Q 176.48320834318415 58.10941595553294 178.15368999492867 58.172076472255625 L 178.15368999492867 58.172076472255625 Q 178.5923340211534 58.24265131898486 178.75334556496657 58.576995234808024 Z" fill-opacity="1"/></g></g><g><g><path fill="rgb(0,0,0)" stroke="none" paint-order="stroke fill markers" d=" M 185.99632047661387 77.1398244552744 L 185.99632047661387 77.1398244552744 Q 186.33097109994662 78.60602463570409 181.64846695747283 79.97527863731545 L 181.64846695747283 79.97527863731545 Q 175.80318731195146 81.51643874141112 175.85678935984458 81.75128465775701 L 175.85678935984458 81.75128465775701 L 175.77841363294607 81.87601891256307 L 175.79579808091142 81.95218515570227 Q 176.15593062300317 81.95012138299745 179.8745485276783 81.44861900892539 L 179.8745485276783 81.44861900892539 Q 181.83665276604285 81.26789528692265 183.3961223732275 81.31262717528882 L 183.3961223732275 81.31262717528882 Q 185.6119683776683 81.5414376423341 185.9161962170617 82.87434689727019 L 185.9161962170617 82.87434689727019 Q 186.17406552854752 84.00414617050173 184.92324272827486 85.0776239233902 L 184.92324272827486 85.0776239233902 Q 184.45547911499278 85.39807892886077 184.03021759079888 85.49514209666724 L 184.03021759079888 85.49514209666724 L 183.7763301136682 85.5530902565517 Q 182.76712739207375 85.78343419209241 179.6644780415495 85.20944758057972 L 179.6644780415495 85.20944758057972 Q 176.05330311476106 84.25069030126501 175.5013468918616 81.83241208159525 L 175.5013468918616 81.83241208159525 Q 174.92331399701416 79.29988449721668 178.92557455404307 77.5249527453767 L 178.92557455404307 77.5249527453767 Q 179.7730646411415 77.1712504034998 181.13881457259856 76.80610414070048 L 181.13881457259856 76.80610414070048 Q 183.8871465125382 76.17881530995123 185.50180242490822 76.61162193399899 L 185.50180242490822 76.61162193399899 Q 185.91374434877852 76.77803480036317 185.99632047661387 77.1398244552744 Z" fill-opacity="1"/></g></g><g><g><path fill="rgb(0,0,0)" stroke="none" paint-order="stroke fill markers" d=" M 188.9270807902018 96.84895833333333 L 188.9270807902018 96.84895833333333 Q 188.9270807902018 98.35286458333333 184.05728912353516 98.64583333333333 L 184.05728912353516 98.64583333333333 Q 178.0156224568685 98.84765625 178.0156224568685 99.08854166666667 L 178.0156224568685 99.08854166666667 L 177.9114557902018 99.19270833333333 L 177.9114557902018 99.27083333333333 Q 178.2630182902018 99.34895833333333 181.9999974568685 99.6875 L 181.9999974568685 99.6875 Q 183.9531224568685 99.94791666666667 185.46353912353516 100.33854166666667 L 185.46353912353516 100.33854166666667 Q 187.57291412353516 101.0546875 187.57291412353516 102.421875 L 187.57291412353516 102.421875 Q 187.57291412353516 103.58072916666667 186.1145807902018 104.34895833333333 L 186.1145807902018 104.34895833333333 Q 185.5872370402018 104.55729166666667 185.15103912353516 104.55729166666667 L 185.15103912353516 104.55729166666667 L 184.8906224568685 104.55729166666667 Q 183.8554662068685 104.55729166666667 180.9583307902018 103.30729166666667 L 180.9583307902018 103.30729166666667 Q 177.65103912353516 101.56901041666667 177.65103912353516 99.08854166666667 L 177.65103912353516 99.08854166666667 Q 177.65103912353516 96.49088541666667 181.94791412353516 95.65104166666667 L 181.94791412353516 95.65104166666667 Q 182.8528620402018 95.49479166666667 184.2656224568685 95.44270833333333 L 184.2656224568685 95.44270833333333 Q 187.08463287353516 95.44270833333333 188.5624974568685 96.22395833333333 L 188.5624974568685 96.22395833333333 Q 188.9270807902018 96.47786458333333 188.9270807902018 96.84895833333333 Z" fill-opacity="1"/></g></g><g><g><path fill="rgb(0,0,0)" stroke="none" paint-order="stroke fill markers" d=" M 187.39866594581773 116.71609859816306 L 187.39866594581773 116.71609859816306 Q 187.06401532248498 118.18229877859275 182.2511278202712 117.38429160052543 L 182.2511278202712 117.38429160052543 Q 176.3160285269289 116.23665708598232 176.26242647903578 116.47150300232819 L 176.26242647903578 116.47150300232819 L 176.1376922242297 116.54987872922669 L 176.12030777626438 116.62604497236589 Q 176.44567142242545 116.78044123134912 180.01362411140096 117.94205104596095 L 180.01362411140096 117.94205104596095 Q 181.85983202999665 118.63054972222507 183.2454571575279 119.34748026525094 L 183.2454571575279 119.34748026525094 Q 185.1425882826042 120.51505092242442 184.8383604432108 121.8479601773605 L 184.8383604432108 121.8479601773605 Q 184.58049113172495 122.97775945059205 182.98777418813398 123.40221781277461 L 182.98777418813398 123.40221781277461 Q 182.4272935190368 123.48798277071313 182.0020319948429 123.39091960290666 L 182.0020319948429 123.39091960290666 L 181.7481445177122 123.3329714430222 Q 180.73894179611776 123.10262750748149 178.19259478048428 121.23929433853962 L 178.19259478048428 121.23929433853962 Q 175.35502778815336 118.80865379815971 175.9069840110528 116.39037557848995 L 175.9069840110528 116.39037557848995 Q 176.48501690590027 113.8578479941114 180.8610430941839 113.99520551845848 L 180.8610430941839 113.99520551845848 Q 181.7780709731437 114.04424288777855 183.16700016855455 114.30783415972559 L 183.16700016855455 114.30783415972559 Q 185.9153321084942 114.93512299047484 187.18229906155747 116.02564122921117 L 187.18229906155747 116.02564122921117 Q 187.48124207365308 116.35430894325184 187.39866594581773 116.71609859816306 Z" fill-opacity="1"/></g></g><g><g><path fill="rgb(0,0,0)" stroke="none" paint-order="stroke fill markers" d=" M 181.48771704586366 135.7450238789319 L 181.48771704586366 135.7450238789319 Q 180.83519657883141 137.09999659042577 176.3205515172995 135.2510288963872 L 176.3205515172995 135.2510288963872 Q 170.7896302586661 132.8114841372979 170.68511399338388 133.02851439844628 L 170.68511399338388 133.02851439844628 L 170.54606684681931 133.07716909936136 L 170.51216967970075 133.14755729216623 Q 170.79501938020414 133.37048273700464 174.0150335451903 135.29691273299684 L 174.0150335451903 135.29691273299684 Q 175.66174780825034 136.3789692203104 176.85310036688517 137.3862554152936 L 176.85310036688517 137.3862554152936 Q 178.4428575406967 138.94670402820606 177.8496571161219 140.1784974022914 L 177.8496571161219 140.1784974022914 Q 177.3468491371966 141.22258892889707 175.69961406150642 141.28199237193192 L 175.69961406150642 141.28199237193192 Q 175.13410131442402 141.2408883413613 174.74110057126344 141.0516291582827 L 174.74110057126344 141.0516291582827 L 174.50647326191387 140.93863860122082 Q 173.57382970724925 140.48950113689992 171.50595556463202 138.10627010470867 L 171.50595556463202 138.10627010470867 Q 169.2804007042802 135.10515274011448 170.35663576029447 132.87032761855966 L 170.35663576029447 132.87032761855966 Q 171.48371656698654 130.52992020779752 175.71946171777927 131.63759132666584 L 175.71946171777927 131.63759132666584 Q 176.60258595200622 131.88945712684608 177.8980372166401 132.45550543703678 L 177.8980372166401 132.45550543703678 Q 180.4378778403494 133.67862821723145 181.4304161497227 135.0237315566063 L 181.4304161497227 135.0237315566063 Q 181.6487285896768 135.41067996310875 181.48771704586366 135.7450238789319 Z" fill-opacity="1"/></g></g><g><g><path fill="rgb(0,0,0)" stroke="none" paint-order="stroke fill markers" d=" M 171.49063375015638 152.98154440419 L 171.49063375015638 152.98154440419 Q 170.55296354032976 154.15734565712043 166.562944074381 151.35013240790641 L 166.562944074381 151.35013240790641 Q 161.71354433748027 147.74100636514342 161.5633547367721 147.92933816756087 L 161.5633547367721 147.92933816756087 L 161.41696710298805 147.94583209262433 L 161.36825696221786 148.00691267719213 Q 161.5944094520028 148.2871888952259 164.30502013715903 150.88183982852834 L 164.30502013715903 150.88183982852834 Q 165.66966761545368 152.30319529634306 166.60700821324704 153.55032760740625 L 166.60700821324704 153.55032760740625 Q 167.80967437285108 155.4254067667403 166.95724690937234 156.49431699667707 L 166.95724690937234 156.49431699667707 Q 166.23471315461418 157.40034566776635 164.61555919177454 157.09171545497253 L 164.61555919177454 157.09171545497253 Q 164.07337153722122 156.9258035636211 163.73233827338424 156.6538386109874 L 163.73233827338424 156.6538386109874 L 163.52873632482485 156.49147147508668 Q 162.7194185793013 155.84606210988136 161.2337091539016 153.06243836990092 L 161.2337091539016 153.06243836990092 Q 159.73176503933468 149.64133273732799 161.27831200878896 147.70202417729988 L 161.27831200878896 147.70202417729988 Q 162.89792418939857 145.67109474042002 166.78099035390818 147.69353619867775 L 166.78099035390818 147.69353619867775 Q 167.58592740669246 148.1356008267971 168.72294140480724 148.97572214934658 L 168.72294140480724 148.97572214934658 Q 170.92693249796258 150.73334639547178 171.59527214833494 152.2655857373865 L 171.59527214833494 152.2655857373865 Q 171.72200691881488 152.69141162749287 171.49063375015638 152.98154440419 Z" fill-opacity="1"/></g></g><g><g><path fill="rgb(0,0,0)" stroke="none" paint-order="stroke fill markers" d=" M 157.90871155932706 167.56134906135912 L 157.90871155932706 167.56134906135912 Q 156.73291030639663 168.49901927118574 153.467592672924 164.8743258610136 L 153.467592672924 164.8743258610136 Q 149.54288360989398 160.27659518475897 149.35455180747653 160.42678478546713 L 149.35455180747653 160.42678478546713 L 149.2081641736925 160.41029086040365 L 149.1470835891247 160.45900100117387 Q 149.30519863802283 160.78257377249923 151.37048450507086 163.91533901099731 L 151.37048450507086 163.91533901099731 Q 152.3846360757668 165.6047207610934 153.02096254115185 167.02916276658888 L 153.02096254115185 167.02916276658888 Q 153.77623098340933 169.12484817364685 152.70732075347257 169.9772756371256 L 152.70732075347257 169.9772756371256 Q 151.8012920823833 170.69980939188375 150.29141037308915 170.0386215308583 L 150.29141037308915 170.0386215308583 Q 149.7997353640427 169.75622129374614 149.527770411409 169.41518802990916 L 149.527770411409 169.41518802990916 L 149.3654032755083 169.21158608134976 Q 148.71999391030297 168.40226833582622 147.8909488764926 165.35783440577967 L 147.8909488764926 165.35783440577967 Q 147.18792925718742 161.68828902693826 149.12723781721553 160.14174205748398 L 149.12723781721553 160.14174205748398 Q 151.1581672540954 158.52212987687437 154.49384128056113 161.3579280148244 L 154.49384128056113 161.3579280148244 Q 155.18022824695174 161.96802450452782 156.101790348925 163.04009164828233 L 156.101790348925 163.04009164828233 Q 157.8594145950502 165.24408274143767 158.17004224560858 166.88662520721428 L 158.17004224560858 166.88662520721428 Q 158.19884433602417 167.32997589270062 157.90871155932706 167.56134906135912 Z" fill-opacity="1"/></g></g><g><g><path fill="rgb(0,0,0)" stroke="none" paint-order="stroke fill markers" d=" M 141.42300476519196 178.75334556496657 L 141.42300476519196 178.75334556496657 Q 140.0680320536981 179.4058660319988 137.69115291362294 175.1454497238561 L 137.69115291362294 175.1454497238561 Q 134.88793582504178 169.7896638286686 134.6709055638934 169.89418009395084 L 134.6709055638934 169.89418009395084 L 134.53185841732883 169.84552539303576 L 134.46147022452396 169.8794225601543 Q 134.54361928375258 170.2300665948948 135.86001827543586 173.74385620824182 L 135.86001827543586 173.74385620824182 Q 136.47282014405027 175.6165515854256 136.7762244109847 177.146875815246 L 136.7762244109847 177.146875815246 Q 137.04622282247442 179.3580810528978 135.8144294483891 179.95128147747258 L 135.8144294483891 179.95128147747258 Q 134.77033792178344 180.45408945639787 133.4454402396557 179.4734986673727 L 133.4454402396557 179.4734986673727 Q 133.02893251412576 179.08877081158926 132.83967333104712 178.6957700684287 L 132.83967333104712 178.6957700684287 L 132.72668277398526 178.4611427590791 Q 132.27754530966436 177.5284992044145 132.14673644722913 174.37591571400338 L 132.14673644722913 174.37591571400338 Q 132.27789366245196 170.64193691687566 134.5127187840068 169.56570186086142 L 134.5127187840068 169.56570186086142 Q 136.85312619476895 168.43862105416932 139.4741434589421 171.945577111913 L 139.4741434589421 171.945577111913 Q 140.00756203034186 172.6931126776657 140.6674612642724 173.94336771947485 L 140.6674612642724 173.94336771947485 Q 141.89058404446706 176.48320834318415 141.8279235277444 178.15368999492864 L 141.8279235277444 178.15368999492864 Q 141.75734868101515 178.5923340211534 141.42300476519196 178.75334556496657 Z" fill-opacity="1"/></g></g><g><g><path fill="rgb(0,0,0)" stroke="none" paint-order="stroke fill markers" d=" M 122.8601755447256 185.99632047661387 L 122.8601755447256 185.99632047661387 Q 121.39397536429591 186.33097109994662 120.02472136268456 181.64846695747283 L 120.02472136268456 181.64846695747283 Q 118.48356125858888 175.80318731195146 118.24871534224299 175.85678935984458 L 118.24871534224299 175.85678935984458 L 118.12398108743693 175.77841363294607 L 118.04781484429773 175.79579808091142 Q 118.04987861700255 176.15593062300317 118.55138099107461 179.8745485276783 L 118.55138099107461 179.8745485276783 Q 118.73210471307735 181.83665276604285 118.68737282471118 183.3961223732275 L 118.68737282471118 183.3961223732275 Q 118.4585623576659 185.6119683776683 117.12565310272981 185.9161962170617 L 117.12565310272981 185.9161962170617 Q 115.99585382949827 186.17406552854752 114.9223760766098 184.92324272827486 L 114.9223760766098 184.92324272827486 Q 114.60192107113923 184.45547911499278 114.50485790333276 184.03021759079888 L 114.50485790333276 184.03021759079888 L 114.4469097434483 183.7763301136682 Q 114.21656580790759 182.76712739207375 114.79055241942028 179.6644780415495 L 114.79055241942028 179.6644780415495 Q 115.74930969873499 176.05330311476106 118.16758791840475 175.5013468918616 L 118.16758791840475 175.5013468918616 Q 120.70011550278332 174.92331399701416 122.4750472546233 178.92557455404307 L 122.4750472546233 178.92557455404307 Q 122.8287495965002 179.7730646411415 123.19389585929952 181.13881457259856 L 123.19389585929952 181.13881457259856 Q 123.82118469004877 183.8871465125382 123.38837806600101 185.50180242490822 L 123.38837806600101 185.50180242490822 Q 123.22196519963683 185.91374434877852 122.8601755447256 185.99632047661387 Z" fill-opacity="1"/></g></g><g><g><path fill="rgb(0,0,0)" stroke="none" paint-order="stroke fill markers" d=" M 103.15104166666669 188.9270807902018 L 103.15104166666669 188.9270807902018 Q 101.64713541666669 188.9270807902018 101.35416666666669 184.05728912353516 L 101.35416666666669 184.05728912353516 Q 101.15234375000001 178.0156224568685 100.91145833333334 178.0156224568685 L 100.91145833333334 178.0156224568685 L 100.80729166666669 177.9114557902018 L 100.72916666666669 177.9114557902018 Q 100.65104166666669 178.2630182902018 100.31250000000001 181.9999974568685 L 100.31250000000001 181.9999974568685 Q 100.05208333333334 183.9531224568685 99.66145833333334 185.46353912353516 L 99.66145833333334 185.46353912353516 Q 98.94531250000001 187.57291412353516 97.57812500000001 187.57291412353516 L 97.57812500000001 187.57291412353516 Q 96.41927083333334 187.57291412353516 95.65104166666669 186.1145807902018 L 95.65104166666669 186.1145807902018 Q 95.44270833333334 185.5872370402018 95.44270833333334 185.15103912353516 L 95.44270833333334 185.15103912353516 L 95.44270833333334 184.8906224568685 Q 95.44270833333334 183.8554662068685 96.69270833333334 180.9583307902018 L 96.69270833333334 180.9583307902018 Q 98.43098958333334 177.65103912353516 100.91145833333334 177.65103912353516 L 100.91145833333334 177.65103912353516 Q 103.50911458333334 177.65103912353516 104.34895833333334 181.94791412353516 L 104.34895833333334 181.94791412353516 Q 104.50520833333334 182.8528620402018 104.55729166666669 184.2656224568685 L 104.55729166666669 184.2656224568685 Q 104.55729166666669 187.08463287353516 103.77604166666669 188.5624974568685 L 103.77604166666669 188.5624974568685 Q 103.52213541666669 188.9270807902018 103.15104166666669 188.9270807902018 Z" fill-opacity="1"/></g></g><g><g><path fill="rgb(0,0,0)" stroke="none" paint-order="stroke fill markers" d=" M 83.28390140183694 187.39866594581773 L 83.28390140183694 187.39866594581773 Q 81.81770122140725 187.06401532248498 82.61570839947457 182.2511278202712 L 82.61570839947457 182.2511278202712 Q 83.76334291401768 176.3160285269289 83.52849699767181 176.26242647903578 L 83.52849699767181 176.26242647903578 L 83.45012127077331 176.1376922242297 L 83.37395502763411 176.12030777626438 Q 83.21955876865088 176.44567142242545 82.05794895403905 180.01362411140096 L 82.05794895403905 180.01362411140096 Q 81.36945027777493 181.85983202999665 80.65251973474906 183.2454571575279 L 80.65251973474906 183.2454571575279 Q 79.48494907757558 185.1425882826042 78.1520398226395 184.8383604432108 L 78.1520398226395 184.8383604432108 Q 77.02224054940795 184.58049113172495 76.59778218722539 182.98777418813398 L 76.59778218722539 182.98777418813398 Q 76.51201722928687 182.4272935190368 76.60908039709334 182.0020319948429 L 76.60908039709334 182.0020319948429 L 76.6670285569778 181.7481445177122 Q 76.89737249251851 180.73894179611776 78.76070566146038 178.19259478048428 L 78.76070566146038 178.19259478048428 Q 81.19134620184029 175.35502778815336 83.60962442151005 175.9069840110528 L 83.60962442151005 175.9069840110528 Q 86.1421520058886 176.48501690590027 86.00479448154152 180.8610430941839 L 86.00479448154152 180.8610430941839 Q 85.95575711222145 181.7780709731437 85.69216584027441 183.16700016855455 L 85.69216584027441 183.16700016855455 Q 85.06487700952516 185.9153321084942 83.97435877078883 187.18229906155747 L 83.97435877078883 187.18229906155747 Q 83.64569105674816 187.48124207365308 83.28390140183694 187.39866594581773 Z" fill-opacity="1"/></g></g><g><g><path fill="rgb(0,0,0)" stroke="none" paint-order="stroke fill markers" d=" M 64.2549761210681 181.48771704586366 L 64.2549761210681 181.48771704586366 Q 62.90000340957422 180.83519657883141 64.74897110361279 176.3205515172995 L 64.74897110361279 176.3205515172995 Q 67.1885158627021 170.7896302586661 66.97148560155374 170.68511399338388 L 66.97148560155374 170.68511399338388 L 66.92283090063864 170.54606684681931 L 66.85244270783377 170.51216967970075 Q 66.62951726299538 170.79501938020414 64.70308726700317 174.0150335451903 L 64.70308726700317 174.0150335451903 Q 63.6210307796896 175.66174780825034 62.6137445847064 176.85310036688517 L 62.6137445847064 176.85310036688517 Q 61.053295971793936 178.4428575406967 59.821502597708594 177.8496571161219 L 59.821502597708594 177.8496571161219 Q 58.777411071102925 177.3468491371966 58.71800762806808 175.69961406150642 L 58.71800762806808 175.69961406150642 Q 58.75911165863869 175.13410131442402 58.948370841717306 174.74110057126344 L 58.948370841717306 174.74110057126344 L 59.06136139877917 174.50647326191387 Q 59.51049886310008 173.57382970724925 61.893729895291344 171.50595556463202 L 61.893729895291344 171.50595556463202 Q 64.89484725988552 169.2804007042802 67.12967238144034 170.35663576029447 L 67.12967238144034 170.35663576029447 Q 69.4700797922025 171.48371656698654 68.36240867333416 175.71946171777927 L 68.36240867333416 175.71946171777927 Q 68.11054287315393 176.60258595200622 67.54449456296324 177.8980372166401 L 67.54449456296324 177.8980372166401 Q 66.32137178276855 180.4378778403494 64.97626844339372 181.4304161497227 L 64.97626844339372 181.4304161497227 Q 64.58932003689125 181.6487285896768 64.2549761210681 181.48771704586366 Z" fill-opacity="1"/></g></g><g><g><path fill="rgb(0,0,0)" stroke="none" paint-order="stroke fill markers" d=" M 47.018455595810025 171.49063375015638 L 47.018455595810025 171.49063375015638 Q 45.842654342879584 170.55296354032976 48.64986759209359 166.562944074381 L 48.64986759209359 166.562944074381 Q 52.25899363485659 161.71354433748027 52.07066183243916 161.5633547367721 L 52.07066183243916 161.5633547367721 L 52.054167907375685 161.41696710298805 L 51.993087322807874 161.36825696221786 Q 51.7128111047741 161.5944094520028 49.118160171471686 164.30502013715903 L 49.118160171471686 164.30502013715903 Q 47.696804703656966 165.66966761545368 46.44967239259376 166.60700821324704 L 46.44967239259376 166.60700821324704 Q 44.57459323325969 167.80967437285108 43.50568300332293 166.95724690937234 L 43.50568300332293 166.95724690937234 Q 42.599654332233676 166.23471315461418 42.908284545027485 164.61555919177454 L 42.908284545027485 164.61555919177454 Q 43.07419643637892 164.07337153722122 43.346161389012615 163.73233827338424 L 43.346161389012615 163.73233827338424 L 43.508528524913324 163.52873632482485 Q 44.153937890118655 162.7194185793013 46.93756163009911 161.2337091539016 L 46.93756163009911 161.2337091539016 Q 50.35866726267203 159.73176503933468 52.29797582270015 161.27831200878896 L 52.29797582270015 161.27831200878896 Q 54.32890525958 162.89792418939857 52.30646380132226 166.78099035390818 L 52.30646380132226 166.78099035390818 Q 51.86439917320291 167.58592740669246 51.024277850653434 168.72294140480724 L 51.024277850653434 168.72294140480724 Q 49.26665360452822 170.92693249796258 47.73441426261354 171.59527214833494 L 47.73441426261354 171.59527214833494 Q 47.308588372507145 171.72200691881488 47.018455595810025 171.49063375015638 Z" fill-opacity="1"/></g></g><g><g><path fill="rgb(0,0,0)" stroke="none" paint-order="stroke fill markers" d=" M 32.438650938640876 157.90871155932706 L 32.438650938640876 157.90871155932706 Q 31.500980728814266 156.73291030639663 35.125674138986426 153.467592672924 L 35.125674138986426 153.467592672924 Q 39.723404815241054 149.54288360989398 39.573215214532894 149.35455180747653 L 39.573215214532894 149.35455180747653 L 39.58970913959636 149.2081641736925 L 39.54099899882615 149.1470835891247 Q 39.217426227500766 149.30519863802283 36.0846609890027 151.37048450507086 L 36.0846609890027 151.37048450507086 Q 34.39527923890662 152.38463607576682 32.97083723341113 153.02096254115187 L 32.97083723341113 153.02096254115187 Q 30.87515182635317 153.77623098340933 30.022724362874435 152.70732075347257 L 30.022724362874435 152.70732075347257 Q 29.300190608116267 151.8012920823833 29.96137846914171 150.29141037308915 L 29.96137846914171 150.29141037308915 Q 30.24377870625389 149.7997353640427 30.584811970090854 149.527770411409 L 30.584811970090854 149.527770411409 L 30.78841391865024 149.3654032755083 Q 31.597731664173786 148.71999391030297 34.64216559422034 147.8909488764926 L 34.64216559422034 147.8909488764926 Q 38.31171097306175 147.18792925718742 39.858257942516026 149.12723781721553 L 39.858257942516026 149.12723781721553 Q 41.47787012312563 151.1581672540954 38.64207198517561 154.49384128056113 L 38.64207198517561 154.49384128056113 Q 38.03197549547218 155.18022824695174 36.95990835171767 156.101790348925 L 36.95990835171767 156.101790348925 Q 34.755917258562356 157.8594145950502 33.11337479278572 158.17004224560858 L 33.11337479278572 158.17004224560858 Q 32.67002410729939 158.1988443360242 32.438650938640876 157.90871155932706 Z" fill-opacity="1"/></g></g><g><g><path fill="rgb(0,0,0)" stroke="none" paint-order="stroke fill markers" d=" M 21.246654435033463 141.423004765192 L 21.246654435033463 141.423004765192 Q 20.594133968001195 140.0680320536981 24.854550276143904 137.69115291362294 L 24.854550276143904 137.69115291362294 Q 30.210336171331406 134.88793582504178 30.10581990604918 134.6709055638934 L 30.10581990604918 134.6709055638934 L 30.15447460696427 134.53185841732883 L 30.12057743984571 134.46147022452396 Q 29.769933405105206 134.54361928375258 26.25614379175819 135.8600182754359 L 26.25614379175819 135.8600182754359 Q 24.383448414574417 136.47282014405027 22.85312418475401 136.7762244109847 L 22.85312418475401 136.7762244109847 Q 20.64191894710222 137.04622282247442 20.04871852252743 135.8144294483891 L 20.04871852252743 135.8144294483891 Q 19.545910543602133 134.77033792178344 20.52650133262733 133.4454402396557 L 20.52650133262733 133.4454402396557 Q 20.911229188410754 133.02893251412576 21.304229931571314 132.83967333104712 L 21.304229931571314 132.83967333104712 L 21.538857240920905 132.72668277398526 Q 22.471500795585516 132.27754530966436 25.624084285996634 132.14673644722913 L 25.624084285996634 132.14673644722913 Q 29.35806308312435 132.27789366245196 30.434298139138605 134.5127187840068 L 30.434298139138605 134.5127187840068 Q 31.5613789458307 136.85312619476895 28.054422888087004 139.4741434589421 L 28.054422888087004 139.4741434589421 Q 27.306887322334305 140.00756203034186 26.056632280525157 140.6674612642724 L 26.056632280525157 140.6674612642724 Q 23.51679165681587 141.89058404446706 21.84631000507136 141.8279235277444 L 21.84631000507136 141.8279235277444 Q 21.40766597884662 141.75734868101515 21.246654435033463 141.423004765192 Z" fill-opacity="1"/></g></g><g><g><path fill="rgb(0,0,0)" stroke="none" paint-order="stroke fill markers" d=" M 14.003679523386117 122.86017554472562 L 14.003679523386117 122.86017554472562 Q 13.669028900053377 121.39397536429593 18.35153304252714 120.02472136268457 L 18.35153304252714 120.02472136268457 Q 24.19681268804854 118.48356125858889 24.143210640155417 118.248715342243 L 24.143210640155417 118.248715342243 L 24.221586367053906 118.12398108743695 L 24.204201919088568 118.04781484429775 Q 23.84406937699681 118.04987861700256 20.12545147232171 118.55138099107462 L 20.12545147232171 118.55138099107462 Q 18.16334723395713 118.73210471307736 16.60387762677248 118.68737282471119 L 16.60387762677248 118.68737282471119 Q 14.388031622331692 118.45856235766591 14.083803782938292 117.12565310272983 L 14.083803782938292 117.12565310272983 Q 13.82593447145246 115.99585382949829 15.076757271725137 114.92237607660981 L 15.076757271725137 114.92237607660981 Q 15.544520885007206 114.60192107113924 15.969782409201098 114.50485790333278 L 15.969782409201098 114.50485790333278 L 16.223669886331784 114.44690974344832 Q 17.232872607926247 114.2165658079076 20.335521958450492 114.7905524194203 L 20.335521958450492 114.7905524194203 Q 23.94669688523892 115.749309698735 24.498653108138374 118.16758791840476 L 24.498653108138374 118.16758791840476 Q 25.07668600298583 120.70011550278333 21.07442544595693 122.47504725462332 L 21.07442544595693 122.47504725462332 Q 20.22693535885848 122.82874959650022 18.861185427401416 123.19389585929953 L 18.861185427401416 123.19389585929953 Q 16.11285348746177 123.82118469004878 14.49819757509177 123.38837806600102 L 14.49819757509177 123.38837806600102 Q 14.086255651221467 123.22196519963686 14.003679523386117 122.86017554472562 Z" fill-opacity="1"/></g></g><g><g><path fill="rgb(0,0,0)" stroke="none" paint-order="stroke fill markers" d=" M 11.072919209798176 103.15104166666669 L 11.072919209798176 103.15104166666669 Q 11.072919209798176 101.64713541666669 15.942710876464844 101.35416666666669 L 15.942710876464844 101.35416666666669 Q 21.98437754313151 101.15234375000001 21.98437754313151 100.91145833333334 L 21.98437754313151 100.91145833333334 L 22.088544209798176 100.80729166666669 L 22.088544209798176 100.72916666666669 Q 21.736981709798176 100.65104166666669 18.00000254313151 100.31250000000001 L 18.00000254313151 100.31250000000001 Q 16.046877543131508 100.05208333333334 14.536460876464844 99.66145833333334 L 14.536460876464844 99.66145833333334 Q 12.427085876464844 98.94531250000001 12.427085876464844 97.57812500000001 L 12.427085876464844 97.57812500000001 Q 12.427085876464844 96.41927083333334 13.885419209798176 95.65104166666669 L 13.885419209798176 95.65104166666669 Q 14.412762959798176 95.44270833333334 14.848960876464844 95.44270833333334 L 14.848960876464844 95.44270833333334 L 15.109377543131508 95.44270833333334 Q 16.144533793131508 95.44270833333334 19.041669209798176 96.69270833333334 L 19.041669209798176 96.69270833333334 Q 22.348960876464844 98.43098958333334 22.348960876464844 100.91145833333334 L 22.348960876464844 100.91145833333334 Q 22.348960876464844 103.50911458333334 18.052085876464844 104.34895833333334 L 18.052085876464844 104.34895833333334 Q 17.14713795979818 104.50520833333334 15.734377543131512 104.55729166666669 L 15.734377543131512 104.55729166666669 Q 12.915367126464844 104.55729166666669 11.43750254313151 103.77604166666669 L 11.43750254313151 103.77604166666669 Q 11.072919209798176 103.52213541666669 11.072919209798176 103.15104166666669 Z" fill-opacity="1"/></g></g><g><g><path fill="rgb(0,0,0)" stroke="none" paint-order="stroke fill markers" d=" M 12.60133405418226 83.28390140183694 L 12.60133405418226 83.28390140183694 Q 12.935984677514998 81.81770122140725 17.748872179728792 82.61570839947457 L 17.748872179728792 82.61570839947457 Q 23.683971473071097 83.76334291401768 23.73757352096422 83.52849699767181 L 23.73757352096422 83.52849699767181 L 23.862307775770272 83.45012127077331 L 23.87969222373561 83.37395502763411 Q 23.554328577574527 83.21955876865088 19.986375888599014 82.05794895403905 L 19.986375888599014 82.05794895403905 Q 18.140167970003347 81.36945027777493 16.75454284247207 80.65251973474906 L 16.75454284247207 80.65251973474906 Q 14.857411717395792 79.48494907757558 15.16163955678919 78.1520398226395 L 15.16163955678919 78.1520398226395 Q 15.419508868275024 77.02224054940795 17.012225811865996 76.59778218722539 L 17.012225811865996 76.59778218722539 Q 17.572706480963195 76.51201722928687 17.99796800515709 76.60908039709334 L 17.99796800515709 76.60908039709334 L 18.251855482287773 76.6670285569778 Q 19.26105820388224 76.89737249251851 21.807405219515697 78.76070566146038 L 21.807405219515697 78.76070566146038 Q 24.644972211846625 81.19134620184029 24.093015988947172 83.60962442151005 L 24.093015988947172 83.60962442151005 Q 23.51498309409972 86.1421520058886 19.13895690581607 86.00479448154152 L 19.13895690581607 86.00479448154152 Q 18.221929026856273 85.95575711222145 16.832999831445424 85.69216584027441 L 16.832999831445424 85.69216584027441 Q 14.084667891505779 85.06487700952516 12.81770093844252 83.97435877078883 L 12.81770093844252 83.97435877078883 Q 12.51875792634691 83.64569105674816 12.60133405418226 83.28390140183694 Z" fill-opacity="1"/></g></g><g><g><path fill="rgb(0,0,0)" stroke="none" paint-order="stroke fill markers" d=" M 18.512282954136335 64.2549761210681 L 18.512282954136335 64.2549761210681 Q 19.1648034211686 62.90000340957422 23.6794484827005 64.74897110361279 L 23.6794484827005 64.74897110361279 Q 29.210369741333896 67.1885158627021 29.314886006616117 66.97148560155374 L 29.314886006616117 66.97148560155374 L 29.4539331531807 66.92283090063864 L 29.48783032029926 66.85244270783377 Q 29.204980619795872 66.62951726299538 25.984966454809705 64.70308726700317 L 25.984966454809705 64.70308726700317 Q 24.338252191749653 63.6210307796896 23.14689963311484 62.6137445847064 L 23.14689963311484 62.6137445847064 Q 21.5571424593033 61.053295971793936 22.150342883878086 59.821502597708594 L 22.150342883878086 59.821502597708594 Q 22.653150862803383 58.777411071102925 24.300385938493573 58.71800762806808 L 24.300385938493573 58.71800762806808 Q 24.86589868557598 58.75911165863869 25.258899428736544 58.948370841717306 L 25.258899428736544 58.948370841717306 L 25.493526738086132 59.06136139877917 Q 26.426170292750744 59.51049886310008 28.494044435367968 61.893729895291344 L 28.494044435367968 61.893729895291344 Q 30.719599295719796 64.89484725988552 29.64336423970554 67.12967238144034 L 29.64336423970554 67.12967238144034 Q 28.51628343301345 69.4700797922025 24.28053828222073 68.36240867333416 L 24.28053828222073 68.36240867333416 Q 23.39741404799379 68.11054287315393 22.1019627833599 67.54449456296324 L 22.1019627833599 67.54449456296324 Q 19.562122159650606 66.32137178276857 18.569583850277283 64.97626844339372 L 18.569583850277283 64.97626844339372 Q 18.35127141032318 64.58932003689125 18.512282954136335 64.2549761210681 Z" fill-opacity="1"/></g></g><g><g><path fill="rgb(0,0,0)" stroke="none" paint-order="stroke fill markers" d=" M 28.50936624984363 47.018455595810025 L 28.50936624984363 47.018455595810025 Q 29.447036459670237 45.842654342879584 33.437055925619 48.64986759209359 L 33.437055925619 48.64986759209359 Q 38.28645566251973 52.25899363485659 38.43664526322789 52.07066183243916 L 38.43664526322789 52.07066183243916 L 38.583032897011925 52.054167907375685 L 38.631743037782144 51.993087322807874 Q 38.405590547997186 51.7128111047741 35.69497986284097 49.118160171471686 L 35.69497986284097 49.118160171471686 Q 34.33033238454631 47.696804703656966 33.39299178675296 46.44967239259376 L 33.39299178675296 46.44967239259376 Q 32.190325627148916 44.57459323325969 33.042753090627656 43.50568300332293 L 33.042753090627656 43.50568300332293 Q 33.765286845385816 42.599654332233676 35.38444080822546 42.908284545027485 L 35.38444080822546 42.908284545027485 Q 35.92662846277878 43.07419643637892 36.26766172661575 43.346161389012615 L 36.26766172661575 43.346161389012615 L 36.47126367517513 43.508528524913324 Q 37.28058142069868 44.153937890118655 38.76629084609839 46.93756163009911 L 38.76629084609839 46.93756163009911 Q 40.2682349606653 50.35866726267203 38.72168799121103 52.29797582270015 L 38.72168799121103 52.29797582270015 Q 37.10207581060143 54.32890525958 33.21900964609181 52.30646380132226 L 33.21900964609181 52.30646380132226 Q 32.41407259330753 51.86439917320291 31.277058595192734 51.024277850653434 L 31.277058595192734 51.024277850653434 Q 29.073067502037418 49.26665360452822 28.404727851665058 47.73441426261354 L 28.404727851665058 47.73441426261354 Q 28.277993081185116 47.308588372507145 28.50936624984363 47.018455595810025 Z" fill-opacity="1"/></g></g><g><g><path fill="rgb(0,0,0)" stroke="none" paint-order="stroke fill markers" d=" M 42.091288440672926 32.438650938640876 L 42.091288440672926 32.438650938640876 Q 43.26708969360336 31.500980728814266 46.53240732707598 35.125674138986426 L 46.53240732707598 35.125674138986426 Q 50.457116390106016 39.723404815241054 50.645448192523446 39.573215214532894 L 50.645448192523446 39.573215214532894 L 50.791835826307484 39.58970913959636 L 50.8529164108753 39.54099899882615 Q 50.694801361977156 39.217426227500766 48.62951549492914 36.0846609890027 L 48.62951549492914 36.0846609890027 Q 47.61536392423318 34.39527923890662 46.979037458848126 32.97083723341113 L 46.979037458848126 32.97083723341113 Q 46.22376901659066 30.87515182635317 47.29267924652742 30.022724362874435 L 47.29267924652742 30.022724362874435 Q 48.19870791761667 29.300190608116267 49.708589626910836 29.96137846914171 L 49.708589626910836 29.96137846914171 Q 50.20026463595729 30.24377870625389 50.47222958859098 30.584811970090854 L 50.47222958859098 30.584811970090854 L 50.63459672449169 30.78841391865024 Q 51.28000608969702 31.597731664173786 52.109051123507406 34.64216559422034 L 52.109051123507406 34.64216559422034 Q 52.812070742812566 38.31171097306175 50.87276218278444 39.858257942516026 L 50.87276218278444 39.858257942516026 Q 48.841832745904604 41.47787012312563 45.506158719438844 38.64207198517561 L 45.506158719438844 38.64207198517561 Q 44.819771753048244 38.03197549547218 43.89820965107501 36.95990835171767 L 43.89820965107501 36.95990835171767 Q 42.140585404949796 34.755917258562356 41.8299577543914 33.11337479278572 L 41.8299577543914 33.11337479278572 Q 41.801155663975806 32.67002410729939 42.091288440672926 32.438650938640876 Z" fill-opacity="1"/></g></g><g><g><path fill="rgb(0,0,0)" stroke="none" paint-order="stroke fill markers" d=" M 58.576995234808024 21.246654435033463 L 58.576995234808024 21.246654435033463 Q 59.931967946301896 20.594133968001195 62.30884708637704 24.854550276143904 L 62.30884708637704 24.854550276143904 Q 65.11206417495822 30.210336171331406 65.32909443610659 30.10581990604918 L 65.32909443610659 30.10581990604918 L 65.46814158267118 30.15447460696427 L 65.53852977547605 30.12057743984571 Q 65.45638071624741 29.769933405105206 64.13998172456412 26.25614379175819 L 64.13998172456412 26.25614379175819 Q 63.52717985594973 24.383448414574417 63.223775589015304 22.85312418475401 L 63.223775589015304 22.85312418475401 Q 62.953777177525566 20.64191894710222 64.18557055161091 20.04871852252743 L 64.18557055161091 20.04871852252743 Q 65.22966207821658 19.545910543602133 66.5545597603443 20.526501332627326 L 66.5545597603443 20.526501332627326 Q 66.97106748587424 20.911229188410754 67.16032666895286 21.304229931571314 L 67.16032666895286 21.304229931571314 L 67.27331722601473 21.5388572409209 Q 67.72245469033564 22.471500795585516 67.85326355277085 25.624084285996634 L 67.85326355277085 25.624084285996634 Q 67.72210633754803 29.35806308312435 65.4872812159932 30.434298139138605 L 65.4872812159932 30.434298139138605 Q 63.14687380523106 31.5613789458307 60.52585654105788 28.054422888087004 L 60.52585654105788 28.054422888087004 Q 59.99243796965815 27.306887322334305 59.33253873572762 26.056632280525157 L 59.33253873572762 26.056632280525157 Q 58.10941595553294 23.51679165681587 58.172076472255625 21.84631000507136 L 58.172076472255625 21.84631000507136 Q 58.24265131898486 21.40766597884662 58.576995234808024 21.246654435033463 Z" fill-opacity="1"/></g></g><g><g><path fill="rgb(0,0,0)" stroke="none" paint-order="stroke fill markers" d=" M 77.13982445527438 14.003679523386118 L 77.13982445527438 14.003679523386118 Q 78.60602463570407 13.66902890005338 79.97527863731543 18.35153304252714 L 79.97527863731543 18.35153304252714 Q 81.51643874141111 24.19681268804854 81.751284657757 24.143210640155417 L 81.751284657757 24.143210640155417 L 81.87601891256305 24.221586367053906 L 81.95218515570225 24.204201919088568 Q 81.95012138299744 23.84406937699681 81.44861900892538 20.12545147232171 L 81.44861900892538 20.12545147232171 Q 81.26789528692264 18.16334723395713 81.31262717528881 16.603877626772483 L 81.31262717528881 16.603877626772483 Q 81.54143764233409 14.388031622331694 82.87434689727017 14.083803782938293 L 82.87434689727017 14.083803782938293 Q 84.00414617050171 13.82593447145246 85.07762392339019 15.076757271725137 L 85.07762392339019 15.076757271725137 Q 85.39807892886076 15.544520885007206 85.49514209666722 15.9697824092011 L 85.49514209666722 15.9697824092011 L 85.55309025655168 16.223669886331784 Q 85.7834341920924 17.232872607926247 85.2094475805797 20.335521958450492 L 85.2094475805797 20.335521958450492 Q 84.250690301265 23.94669688523892 81.83241208159524 24.49865310813837 L 81.83241208159524 24.49865310813837 Q 79.29988449721667 25.07668600298583 77.52495274537668 21.07442544595693 L 77.52495274537668 21.07442544595693 Q 77.17125040349978 20.22693535885848 76.80610414070046 18.861185427401416 L 76.80610414070046 18.861185427401416 Q 76.17881530995122 16.11285348746177 76.61162193399898 14.498197575091773 L 76.61162193399898 14.498197575091773 Q 76.77803480036314 14.08625565122147 77.13982445527438 14.003679523386118 Z" fill-opacity="1"/></g></g></g></g></svg>