<svg version="1.1" xmlns="http://www.w3.org/2000/svg" xmlns:xlink="http://www.w3.org/1999/xlink" width="200" height="200" viewBox="0 0 200 200"><defs/><g><g/><g><g><g><path fill="rgb(0,0,0)" stroke="none" paint-order="stroke fill markers" d=" M 104.53559027777777 23.54687754313151 L 104.53559027777777 23.54687754313151 Q 104.11241319444444 23.54687754313151 102.74522569444444 23.427519904242622 L 102.74522569444444 23.427519904242622 Q 101.84461805555556 23.340714348687065 101.54079861111111 23.340714348687065 L 101.54079861111111 23.340714348687065 Q 100.9765625 23.340714348687065 100.55881076388889 23.443795945909287 Q 100.14105902777777 23.54687754313151 99.45746527777777 23.54687754313151 L 99.45746527777777 23.54687754313151 Q 98.828125 23.54687754313151 98.24761284722223 23.308162265353733 Q 97.66710069444444 23.069446987575954 97.29817708333333 22.5920164320204 Q 96.92925347222223 22.114585876464844 96.92925347222223 21.387589348687065 L 96.92925347222223 21.387589348687065 Q 96.92925347222223 21.062068515353733 97.01605902777777 20.693144904242622 L 97.01605902777777 20.693144904242622 Q 97.37413194444444 19.184898376464844 97.37413194444444 17.893665737575954 L 97.37413194444444 17.893665737575954 Q 97.37413194444444 14.508249070909287 94.96527777777777 14.280384487575954 L 94.96527777777777 14.280384487575954 Q 94.80251736111111 14.24783240424262 94.69943576388889 13.998266432020397 Q 94.59635416666667 13.748700459798176 94.59635416666667 13.46658240424262 L 94.59635416666667 13.46658240424262 Q 94.59635416666667 12.90234629313151 94.96527777777777 12.858943515353731 L 94.96527777777777 12.858943515353731 Q 95.8984375 12.772137959798176 96.41927083333333 12.251304626464842 L 96.41927083333333 12.251304626464842 Q 97.37413194444444 11.31814490424262 97.37413194444444 9.245662265353731 L 97.37413194444444 9.245662265353731 Q 97.37413194444444 7.954429626464842 97.01605902777777 6.446183098687063 L 97.01605902777777 6.446183098687063 Q 96.92925347222223 6.077259487575953 96.92925347222223 5.751738654242619 L 96.92925347222223 5.751738654242619 Q 96.92925347222223 5.02474212646484 97.29817708333333 4.547311570909287 Q 97.66710069444444 4.0698810153537295 98.24761284722223 3.831165737575951 Q 98.828125 3.592450459798176 99.45746527777777 3.592450459798176 L 99.45746527777777 3.592450459798176 Q 100.14105902777777 3.592450459798176 100.55881076388889 3.6955320570203973 Q 100.9765625 3.7986136542426188 101.54079861111111 3.7986136542426188 L 101.54079861111111 3.7986136542426188 Q 101.84461805555556 3.7986136542426188 102.74522569444444 3.711808098687065 L 102.74522569444444 3.711808098687065 Q 104.11241319444444 3.592450459798176 104.53559027777777 3.592450459798176 L 104.53559027777777 3.592450459798176 Q 104.99131944444444 3.592450459798176 105.19748263888889 3.9939261542426188 Q 105.40364583333333 4.395401848687065 105.40364583333333 4.92708587646484 L 105.40364583333333 4.92708587646484 Q 105.40364583333333 5.371964348687063 105.26801215277777 5.827693515353731 Q 105.13237847222223 6.283422682020397 104.8828125 6.587242126464842 Q 104.63324652777777 6.891061570909287 104.296875 6.891061570909287 L 104.296875 6.891061570909287 Q 103.76519097222223 6.836808098687063 103.29861111111111 6.554690043131508 L 103.29861111111111 6.554690043131508 Q 103.03819444444444 6.413631015353731 102.76150173611111 6.299698723687063 Q 102.48480902777777 6.185766432020397 102.15928819444444 6.185766432020397 L 102.15928819444444 6.185766432020397 Q 101.69270833333333 6.185766432020397 101.43771701388889 6.375653584798176 Q 101.18272569444444 6.565540737575953 101.09049479166667 6.891061570909287 Q 100.99826388888889 7.2165824042426205 100.99826388888889 7.6072074042426205 L 100.99826388888889 7.6072074042426205 Q 100.99826388888889 8.030384487575953 101.05251736111111 8.496964348687065 L 101.05251736111111 8.496964348687065 Q 101.11762152777777 9.006946987575953 101.11762152777777 9.571183098687065 L 101.11762152777777 9.571183098687065 Q 101.11762152777777 10.395835876464842 100.89518229166667 11.19336191813151 Q 100.67274305555556 11.990887959798176 100.05425347222223 12.641929626464842 L 100.05425347222223 12.641929626464842 Q 99.65277777777777 13.043405320909287 99.43576388888889 13.238717820909287 L 99.43576388888889 13.238717820909287 Q 99.15364583333333 13.444881015353731 99.15364583333333 13.56423865424262 L 99.15364583333333 13.56423865424262 Q 99.15364583333333 13.68359629313151 99.43576388888889 13.889759487575954 L 99.43576388888889 13.889759487575954 Q 99.66362847222223 14.085071987575954 100.08680555555556 14.519099765353733 L 100.08680555555556 14.519099765353733 Q 100.68359375 15.170141432020397 100.90060763888889 15.962242126464844 Q 101.11762152777777 16.754342820909287 101.11762152777777 17.568144904242622 L 101.11762152777777 17.568144904242622 Q 101.11762152777777 18.121530320909287 101.05794270833333 18.609811570909287 Q 100.99826388888889 19.098092820909287 100.99826388888889 19.532120598687065 L 100.99826388888889 19.532120598687065 Q 100.99826388888889 19.922745598687065 101.09049479166667 20.242841084798176 Q 101.18272569444444 20.562936570909287 101.43771701388889 20.758249070909287 Q 101.69270833333333 20.953561570909287 102.15928819444444 20.953561570909287 L 102.15928819444444 20.953561570909287 Q 102.50651041666667 20.953561570909287 102.78862847222223 20.8342039320204 Q 103.07074652777777 20.71484629313151 103.3203125 20.573787265353733 L 103.3203125 20.573787265353733 Q 103.76519097222223 20.280818515353733 104.27517361111111 20.237415737575954 L 104.27517361111111 20.237415737575954 Q 104.62239583333333 20.237415737575954 104.87738715277777 20.5412351820204 Q 105.13237847222223 20.845054626464844 105.26801215277777 21.30078379313151 Q 105.40364583333333 21.756512959798176 105.40364583333333 22.212242126464844 L 105.40364583333333 22.212242126464844 Q 105.40364583333333 22.743926154242622 105.19748263888889 23.145401848687065 Q 104.99131944444444 23.54687754313151 104.53559027777777 23.54687754313151 Z" fill-opacity="1"/></g></g><g><g><path fill="rgb(0,0,0)" stroke="none" paint-order="stroke fill markers" d=" M 116.39817347186548 23.061415174745907 L 116.39817347186548 23.061415174745907 Q 115.74013146616348 22.921544028579444 115.33563517772224 22.580424263800353 Q 114.93113888928099 22.23930449902126 114.77467682003552 21.801149111974997 Q 114.61821475079005 21.362993724928735 114.70619821370121 20.949064076180704 L 114.70619821370121 20.949064076180704 Q 114.7874137179269 20.566975169644063 115.07831167546401 20.26828151337144 Q 115.36920963300112 19.969587857098823 115.85592095127605 19.84563288047007 Q 116.34263226955098 19.721677903841314 117.03251501746435 19.86831700869325 L 117.03251501746435 19.86831700869325 Q 117.72239776537774 20.014956113545185 118.11548565517027 20.331464737507282 Q 118.5085735449628 20.64797336146938 118.65170440453373 21.04446924347871 Q 118.79483526410466 21.440965125488034 118.71136377365049 21.833667612761808 L 118.71136377365049 21.833667612761808 Q 118.62563629696783 22.23698368077271 118.3173568000081 22.565262093028224 Q 118.00907730304839 22.893540505283738 117.5220328095708 23.04515742686956 Q 117.03498831609322 23.196774348455385 116.39817347186548 23.061415174745907 Z" fill-opacity="1"/></g></g><g><g><path fill="rgb(0,0,0)" stroke="none" paint-order="stroke fill markers" d=" M 132.03626529806613 28.152079822181797 L 132.03626529806613 28.152079822181797 Q 131.42168393550276 27.878450570112573 131.0969496485248 27.460685583371696 Q 130.77221536154684 27.042920596630818 130.71026999127022 26.581809662677255 Q 130.64832462099363 26.120698728723692 130.82044624729525 25.73410722646608 L 130.82044624729525 25.73410722646608 Q 130.97932774849673 25.37725353207444 131.3259707908322 25.14556813504394 Q 131.67261383316767 24.913882738013445 132.17446103016442 24.893829448147695 Q 132.6763082271612 24.87377615828194 133.32062739759056 25.16064553545129 L 133.32062739759056 25.16064553545129 Q 133.9649465680199 25.447514912620637 134.28363870113162 25.838834631567472 Q 134.60233083424333 26.230154350514308 134.65989781189276 26.647744425224158 Q 134.71746478954222 27.065334499934007 134.55416991330736 27.432100796947637 L 134.55416991330736 27.432100796947637 Q 134.38646166203912 27.808779696583258 134.01666589198152 28.065789526446352 Q 133.64687012192394 28.322799356309446 133.13894578865475 28.36984084024686 Q 132.63102145538554 28.41688232418427 132.03626529806613 28.152079822181797 Z" fill-opacity="1"/></g></g><g><g><path fill="rgb(0,0,0)" stroke="none" paint-order="stroke fill markers" d=" M 146.27421860368466 36.38284334596039 L 146.27421860368466 36.38284334596039 Q 145.72995803889248 35.98741489932265 145.49917819996676 35.51126302519939 Q 145.26839836104102 35.03511115107612 145.30367699966123 34.57119743068478 Q 145.33895563828145 34.10728371029344 145.58769288697292 33.764926258246746 L 145.58769288697292 33.764926258246746 Q 145.81729650114966 33.448903994819034 146.20453466395557 33.294352620630775 Q 146.59177282676148 33.13980124644251 147.0868227718413 33.224526068333255 Q 147.5818727169211 33.30925089022401 148.15246847033225 33.72381297137647 L 148.15246847033225 33.72381297137647 Q 148.72306422374342 34.13837505252893 148.9534322247028 34.587403316982176 Q 149.1838002256622 35.03643158143542 149.15328736822985 35.45686515876148 Q 149.1227745107975 35.87729873608753 148.8867930184492 36.20209939572157 L 148.8867930184492 36.20209939572157 Q 148.64443364792928 36.535678451561935 148.22928345440232 36.7101871361976 Q 147.81413326087537 36.88469582083326 147.3075278184698 36.82510592854411 Q 146.8009223760642 36.765516036254965 146.27421860368466 36.38284334596039 Z" fill-opacity="1"/></g></g><g><g><path fill="rgb(0,0,0)" stroke="none" paint-order="stroke fill markers" d=" M 157.17876893306266 49.246057683868806 L 157.17876893306266 49.246057683868806 Q 156.72135543262203 48.738048525827615 156.5184295157082 48.3586234331487 Q 156.31550359879432 47.979198340469786 155.937955947637 47.559889194150074 L 155.937955947637 47.559889194150074 Q 155.73466105855226 47.33410734613177 155.06752782361733 46.72290969353028 L 155.06752782361733 46.72290969353028 Q 154.0640008110146 45.7867572267312 153.78084007264658 45.47227536699141 L 153.78084007264658 45.47227536699141 Q 153.4758977390195 45.13360259496395 153.63630222059334 44.71175380894672 Q 153.7967067021672 44.28990502292949 154.19182493619923 43.934138967031224 L 154.19182493619923 43.934138967031224 Q 154.53049770822668 43.629196633404135 154.95992712716696 43.42504976764237 Q 155.38935654610725 43.2209029018806 155.78576089032165 43.20710349238267 Q 156.18216523453606 43.19330408288474 156.4145022506329 43.45134048061995 L 156.4145022506329 43.45134048061995 Q 156.7234926933082 43.85937356680564 156.80345628459318 44.38601705873556 L 156.80345628459318 44.38601705873556 Q 156.86562122833286 44.66586763239708 156.96569504219005 44.95538805484022 Q 157.06576885604724 45.24490847728336 157.29810587214408 45.502944875018564 L 157.29810587214408 45.502944875018564 Q 157.6175692692772 45.85774492190447 157.92970697332285 45.91251901122219 Q 158.2418446773685 45.967293100539905 158.54143650143135 45.82164833197405 Q 158.84102832549422 45.67600356340821 159.1313192729463 45.414624420299276 L 159.1313192729463 45.414624420299276 Q 159.45386477011533 45.124203150178246 159.7767955297888 44.75312921543134 Q 160.09972628946232 44.38205528068445 160.5109717983528 44.01176816128013 L 160.5109717983528 44.01176816128013 Q 161.1157446055447 43.467228279803194 161.84960077293866 43.09848221041681 Q 162.5834569403326 42.729736141030436 163.46660443250255 42.737604294456276 L 163.46660443250255 42.737604294456276 Q 164.07231066803956 42.761664884075024 164.36992730857915 42.80031169853429 L 164.36992730857915 42.80031169853429 Q 164.7119102453131 42.87201616838665 164.80061025703458 42.79215031910337 L 164.80061025703458 42.79215031910337 Q 164.88931026875605 42.712284469820084 164.85374555433265 42.36467979335274 L 164.85374555433265 42.36467979335274 Q 164.8536803929982 42.07271747321377 164.88339530301758 41.50572321347048 L 164.88339530301758 41.50572321347048 Q 164.95336323884862 40.6104639748231 165.39719968895963 39.91151032367659 Q 165.84103613907067 39.21255667253007 166.45387258369178 38.660756259300115 L 166.45387258369178 38.660756259300115 Q 166.87318173001148 38.28320860814277 167.29573587970322 37.99034544032591 L 167.29573587970322 37.99034544032591 Q 167.67877494792504 37.71846076209192 167.9932568076648 37.43530002372392 L 167.9932568076648 37.43530002372392 Q 168.28354775511693 37.173920880614986 168.46374235809296 36.8875640098758 Q 168.643936961069 36.60120713913661 168.61805838576086 36.28868417258648 Q 168.5921798104527 35.97616120603635 168.27271641331956 35.62136115915044 L 168.27271641331956 35.62136115915044 Q 168.0549004607288 35.37945203627368 167.78508870801977 35.25006486523522 Q 167.51527695531075 35.12067769419674 167.2361969066582 35.02153730868467 L 167.2361969066582 35.02153730868467 Q 166.71433946811823 34.86357472480666 166.31825522507384 34.50475914953975 L 166.31825522507384 34.50475914953975 Q 166.09317874073002 34.25478638923377 166.15196835842875 33.86602783927687 Q 166.21075797612747 33.47726928931997 166.4586741012421 33.07153148782757 Q 166.70659022635672 32.66579368633517 167.03719936095496 32.368111884461115 L 167.03719936095496 32.368111884461115 Q 167.432317594987 32.01234582856285 167.86862228317582 31.89691526485617 Q 168.30492697136464 31.781484701149495 168.60986930499172 32.12015747317695 L 168.60986930499172 32.12015747317695 Q 168.89303004335974 32.43463933291674 169.71915703251952 33.53052349828239 L 169.71915703251952 33.53052349828239 Q 170.25727206858684 34.25788965893229 170.46056695767157 34.4836715069506 L 170.46056695767157 34.4836715069506 Q 170.8381146088289 34.902980653270305 171.19424963689804 35.14445564264173 Q 171.55038466496717 35.38593063201316 172.00779816540782 35.89393979005435 L 172.00779816540782 35.89393979005435 Q 172.4289090070833 36.36163076094941 172.63994743242722 36.95276706197952 Q 172.85098585777115 37.54390336300964 172.74304389048814 38.13753043273643 Q 172.6351019232051 38.73115750246322 172.094838215447 39.217613129915954 L 172.094838215447 39.217613129915954 Q 171.85292909257026 39.43542908250673 171.5206811659524 39.617778062675804 L 171.5206811659524 39.617778062675804 Q 170.16023801544023 40.36089194118196 169.20066516136242 41.22489521979203 L 169.20066516136242 41.22489521979203 Q 166.67674664601495 43.49744165848911 168.12731194660216 45.432779802837615 L 168.12731194660216 45.432779802837615 Q 168.34191547648814 45.73598560244338 167.92260633016843 46.11353325360072 L 167.92260633016843 46.11353325360072 Q 167.7129517570086 46.30230707917939 167.45851304448266 46.39269475392135 Q 167.20407433195675 46.4830824286633 167.07097544337367 46.383909462484 L 167.07097544337367 46.383909462484 Q 166.38206061317965 45.74852089759484 165.6428702265551 45.70594000642266 Q 164.90367983993053 45.66335911525047 164.16942211969848 46.03976726922798 Q 163.43516439946643 46.41617542320548 162.77394613026996 47.0115390269536 L 162.77394613026996 47.0115390269536 Q 161.81437327619216 47.87554230556367 160.9331252213797 49.15085625439869 L 160.9331252213797 49.15085625439869 Q 160.71704580281025 49.46222343343537 160.47513667993348 49.68003938602614 L 160.47513667993348 49.68003938602614 Q 159.9348729721754 50.16649501347887 159.33321484568663 50.21179473801835 Q 158.73155671919784 50.25709446255783 158.165718246968 49.985421558660846 Q 157.59987977473816 49.71374865476387 157.17876893306266 49.246057683868806 Z" fill-opacity="1"/></g></g><g><g><path fill="rgb(0,0,0)" stroke="none" paint-order="stroke fill markers" d=" M 168.47814138517955 65.70137517327902 L 168.47814138517955 65.70137517327902 Q 168.2665528435129 65.33489306881296 167.6863258409264 64.09119514263197 L 167.6863258409264 64.09119514263197 Q 167.3111978377827 63.26784327073409 167.15928811556049 63.00472791368153 L 167.15928811556049 63.00472791368153 Q 166.87717006000491 62.51608510772677 166.57902291009225 62.205842290390606 Q 166.28087576017955 61.89559947305444 165.93907888517955 61.30358991968617 L 165.93907888517955 61.30358991968617 Q 165.62440874629067 60.75856525150586 165.5408861647288 60.13646934110582 Q 165.45736358316694 59.51437343070578 165.6863687672654 58.95616093364989 Q 165.91537395136388 58.397948436594 166.54497141288252 58.034450172705114 L 166.54497141288252 58.034450172705114 Q 166.82688072401027 57.87168975603845 167.18978072106614 57.76240376678362 L 167.18978072106614 57.76240376678362 Q 168.6749969876247 57.31838074513526 169.7932372550981 56.67276442569081 L 169.7932372550981 56.67276442569081 Q 172.72509409082667 54.98005609235748 171.71800352528277 52.77999489834548 L 171.71800352528277 52.77999489834548 Q 171.6648142480622 52.62276420111495 171.8294039213157 52.40870993314671 Q 171.9939935945692 52.19465566517848 172.23831499754658 52.0535966374007 L 172.23831499754658 52.0535966374007 Q 172.72695780350134 51.771478581845145 172.94900751720726 52.06927441223437 L 172.94900751720726 52.06927441223437 Q 173.4907631946191 52.834011659689466 174.20223475909017 53.0246498908272 L 174.20223475909017 53.0246498908272 Q 175.4878053398786 53.385004009024144 177.28262795405857 52.3487626895797 L 177.28262795405857 52.3487626895797 Q 178.400868221532 51.70314637013526 179.52801157142386 50.63892286400584 L 179.52801157142386 50.63892286400584 Q 179.80410601292422 50.37928524214956 180.08601532405197 50.216524825482885 L 180.08601532405197 50.216524825482885 Q 180.71561278557058 49.853026561594 181.31354158078017 49.93380850309433 Q 181.91147037598975 50.01459044459467 182.40845994720567 50.39797107721693 Q 182.90544951842156 50.781351709839186 183.22011965731045 51.3263763780195 L 183.22011965731045 51.3263763780195 Q 183.56191653231045 51.91838593138777 183.6815211185089 52.331710345946156 Q 183.80112570470732 52.74503476050454 184.0832437602629 53.233677566459306 L 184.0832437602629 53.233677566459306 Q 184.23515348248512 53.49679292351187 184.7606331182303 54.23333923985419 L 184.7606331182303 54.23333923985419 Q 185.5475936156438 55.35767952714628 185.75918215731045 55.724161631612354 L 185.75918215731045 55.724161631612354 Q 185.9870467406438 56.1188346671912 185.74244018747513 56.49811507812766 Q 185.49783363430646 56.87739548906413 185.03738175946447 57.14323750295301 L 185.03738175946447 57.14323750295301 Q 184.65210570092322 57.36567673906412 184.1896158250666 57.47607910942756 Q 183.72712594920998 57.586481479791 183.3392276060463 57.522260730148616 Q 182.9513292628826 57.45803998050623 182.78314349899372 57.1667336923409 L 182.78314349899372 57.1667336923409 Q 182.5642863702928 56.6791550813878 182.57531784271464 56.13402604099358 L 182.57531784271464 56.13402604099358 Q 182.56727021087 55.8379690782025 182.52759211559803 55.541380017910576 Q 182.48791402032606 55.24479095761866 182.3251536036594 54.962881646490914 L 182.3251536036594 54.962881646490914 Q 182.09186367310386 54.55881163387448 181.79992091522377 54.43292624987996 Q 181.5079781573437 54.30704086588545 181.17995339482707 54.389926977732586 Q 180.85192863231043 54.472813089579724 180.51363745895713 54.668125589579724 L 180.51363745895713 54.668125589579724 Q 180.14715535449108 54.87971413124639 179.77021207798575 55.159988946989905 L 179.77021207798575 55.159988946989905 Q 179.36110624055226 55.4713621286599 178.8724634345975 55.753480184215455 L 178.8724634345975 55.753480184215455 Q 178.15829317974055 56.16580657310435 177.356395749422 56.37193156466705 Q 176.55449831910346 56.578056556229754 175.6814349051813 56.36794969842037 L 175.6814349051813 56.36794969842037 Q 175.1330089075682 56.2209993952517 174.8553563764471 56.130716104499875 L 174.8553563764471 56.130716104499875 Q 174.5357547849551 55.98947629874471 174.43238803754159 56.04915511818916 L 174.43238803754159 56.04915511818916 Q 174.32902129012808 56.108833937633605 174.2915377541916 56.45623693783321 L 174.2915377541916 56.45623693783321 Q 174.23632445918165 56.75122970562263 174.07203391934465 57.33472569897759 L 174.07203391934465 57.33472569897759 Q 173.80660939431138 58.17708026937846 173.22913701501162 58.76107015735251 Q 172.65166463571188 59.34506004532657 171.94689135789253 59.751961086993234 L 171.94689135789253 59.751961086993234 Q 171.46764552897534 60.02865379532657 171.0149421525615 60.22111104661982 Q 170.56223877614767 60.41356829791306 170.186359694644 60.63058218680195 L 170.186359694644 60.63058218680195 Q 169.8480685212907 60.82589468680195 169.61697315007063 61.065816734677036 Q 169.38587777885058 61.30573878255212 169.34422785189616 61.62422399293552 Q 169.30257792494172 61.94270920331892 169.5358678554973 62.346779215935356 L 169.5358678554973 62.346779215935356 Q 169.7094789666084 62.64748248113829 169.95390474179968 62.832125064671224 Q 170.19833051699098 63.01676764820416 170.44527420459076 63.16236860617988 L 170.44527420459076 63.16236860617988 Q 170.92143182071686 63.40116028972113 171.21401104831165 63.82111682159905 L 171.21401104831165 63.82111682159905 Q 171.38762215942276 64.12182008680197 171.25200246209243 64.4945587694076 Q 171.11638276476208 64.86729745201322 170.78952656946103 65.21262424831646 Q 170.46267037415996 65.55795104461968 170.0679973385811 65.78581562795301 L 170.0679973385811 65.78581562795301 Q 169.60754546373911 66.0516576418419 169.15677571612602 66.07385292534988 Q 168.7060059685129 66.09604820885787 168.47814138517955 65.70137517327902 Z" fill-opacity="1"/></g></g><g><g><path fill="rgb(0,0,0)" stroke="none" paint-order="stroke fill markers" d=" M 174.8298557258267 75.73194238967251 L 174.8298557258267 75.73194238967251 Q 174.6219666888123 75.0921257228941 174.71513692662333 74.57126177897791 Q 174.80830716443438 74.05039783506173 175.10952982579872 73.69582001484335 Q 175.41075248716305 73.34124219462495 175.81321780981398 73.21047328424493 L 175.81321780981398 73.21047328424493 Q 176.1847242614918 73.08976352081721 176.58884953454168 73.19234171381706 Q 176.9929748075916 73.29491990681689 177.34367862541507 73.65444678443801 Q 177.69438244323854 74.01397366205913 177.91233062720522 74.68474919981071 L 177.91233062720522 74.68474919981071 Q 178.13027881117193 75.35552473756228 178.05271824720018 75.85420314802367 Q 177.97515768322842 76.35288155848508 177.7033476066979 76.67508445994368 Q 177.43153753016736 76.99728736140227 177.04971145483182 77.12135017381408 L 177.04971145483182 77.12135017381408 Q 176.65756575583862 77.24876603521 176.21912856283146 77.14592736550476 Q 175.7806913698243 77.04308869579951 175.4058650173486 76.69710425246751 Q 175.03103866487288 76.35111980913551 174.8298557258267 75.73194238967251 Z" fill-opacity="1"/></g></g><g><g><path fill="rgb(0,0,0)" stroke="none" paint-order="stroke fill markers" d=" M 178.24025673210016 91.82025950159401 L 178.24025673210016 91.82025950159401 Q 178.16993593432895 91.15120180288706 178.36936388216924 90.66109116751389 Q 178.56879183000953 90.1709805321407 178.93715292763778 89.88677880085756 Q 179.30551402526604 89.6025770695744 179.72637290025912 89.55834301936348 L 179.72637290025912 89.55834301936348 Q 180.11485801563737 89.51751158839956 180.4888249763194 89.70187057059195 Q 180.86279193700142 89.88622955278434 181.131082193953 90.31081532926868 Q 181.39937245090456 90.73540110575301 181.47309586792278 91.43683256407482 L 181.47309586792278 91.43683256407482 Q 181.54681928494097 92.13826402239663 181.3672725338871 92.60991936513105 Q 181.1877257828332 93.08157470786546 180.85486565859094 93.34022421028389 Q 180.5220055343487 93.59887371270231 180.12272916576552 93.6408393500819 L 180.12272916576552 93.6408393500819 Q 179.7126615439774 93.68393919387717 179.30518661726484 93.49219157772681 Q 178.89771169055228 93.30044396157646 178.60301040379616 92.88408932773376 Q 178.30830911704004 92.46773469389106 178.24025673210016 91.82025950159401 Z" fill-opacity="1"/></g></g><g><g><path fill="rgb(0,0,0)" stroke="none" paint-order="stroke fill markers" d=" M 178.23118308077488 108.26607052404556 L 178.23118308077488 108.26607052404556 Q 178.3015038785461 107.59701282533861 178.59847357813354 107.15907568508601 Q 178.895443277721 106.72113854483341 179.31484366405414 106.51973388189377 Q 179.7342440503873 106.31832921895413 180.1551029253804 106.36256326916505 L 180.1551029253804 106.36256326916505 Q 180.54358804075864 106.40339470012898 180.8710525383984 106.66147709933958 Q 181.1985170360382 106.91955949855017 181.37266816048958 107.39064773807677 Q 181.546819284941 107.86173597760335 181.4730958679228 108.56316743592515 L 181.4730958679228 108.56316743592515 Q 181.3993724509046 109.26459889424696 181.12568656735056 109.68861756752347 Q 180.8520006837965 110.11263624079997 180.472638096512 110.29642811978452 Q 180.09327550922748 110.48021999876909 179.6939991406443 110.4382543613895 L 179.6939991406443 110.4382543613895 Q 179.28393151885618 110.39515451759424 178.9252274680172 110.1228782459317 Q 178.56652341717825 109.85060197426917 178.3648270565066 109.3820738453059 Q 178.163130695835 108.91354571634261 178.23118308077488 108.26607052404556 Z" fill-opacity="1"/></g></g><g><g><path fill="rgb(0,0,0)" stroke="none" paint-order="stroke fill markers" d=" M 172.54358785451097 124.14129529508712 L 172.54358785451097 124.14129529508712 Q 172.75482994050947 123.49115900465097 172.98195875114575 123.12570745917787 Q 173.20908756178204 122.76025591370477 173.3834461089554 122.2236354835035 L 173.3834461089554 122.2236354835035 Q 173.4773314805103 121.93468602108744 173.67307755692912 121.05133286562415 L 173.67307755692912 121.05133286562415 Q 173.98204586869124 119.71417674592674 174.11281477907127 119.31171142327578 L 174.11281477907127 119.31171142327578 Q 174.2536428364036 118.87828722965169 174.69917684243705 118.8062771925669 Q 175.14471084847054 118.7342671554821 175.65037240769865 118.89856655570316 L 175.65037240769865 118.89856655570316 Q 176.08379660132275 119.03939461303548 176.47530768264554 119.30921796608928 Q 176.86681876396835 119.57904131914307 177.07697157525797 119.9154378466543 Q 177.28712438654762 120.25183437416553 177.17982681905633 120.58206233121244 L 177.17982681905633 120.58206233121244 Q 176.9809550221726 121.05367244718872 176.56485017506603 121.3862446945843 L 176.56485017506603 121.3862446945843 Q 176.35357494088134 121.58000640191844 176.15287980705978 121.81143307819393 Q 175.9521846732382 122.04285975446943 175.84488710574692 122.37308771151636 L 175.84488710574692 122.37308771151636 Q 175.69735295044637 122.82715115245588 175.8059860496509 123.12485737829722 Q 175.91461914885542 123.42256360413856 176.19054713039318 123.6091953502602 Q 176.46647511193095 123.79582709638183 176.83798156360874 123.91653685980954 L 176.83798156360874 123.91653685980954 Q 177.2507665099174 124.05065881917366 177.7335913439272 124.14478809334086 Q 178.21641617793702 124.23891736750807 178.74271698448055 124.40992286569733 L 178.74271698448055 124.40992286569733 Q 179.5166887588093 124.66140153950506 180.20296030614054 125.11256658849892 Q 180.88923185347178 125.5637316374928 181.3239915788091 126.33249387771339 L 181.3239915788091 126.33249387771339 Q 181.60600761473773 126.86908115972845 181.72134681191048 127.14614813825436 L 181.72134681191048 127.14614813825436 Q 181.8302403878204 127.47816628405295 181.94375624805528 127.51504982287808 L 181.94375624805528 127.51504982287808 Q 182.05727210829016 127.55193336170322 182.34052423137345 127.34733107730055 L 182.34052423137345 127.34733107730055 Q 182.5933384368944 127.20129348586008 183.09922732464176 126.94353022293639 L 183.09922732464176 126.94353022293639 Q 183.90952853619862 126.55649461349273 184.7367583792149 126.59139142884112 Q 185.5639882222312 126.62628824418952 186.34827962021762 126.88111996698136 L 186.34827962021762 126.88111996698136 Q 186.88490005041888 127.05547851415473 187.34980406842695 127.27498955835387 L 187.34980406842695 127.27498955835387 Q 187.77678264078824 127.47076878295888 188.1792479634392 127.60153769333891 L 188.1792479634392 127.60153769333891 Q 188.55075441511698 127.72224745676662 188.88884404121336 127.73512212519913 Q 189.22693366730974 127.74799679363164 189.48464720795414 127.56932380672596 Q 189.74236074859854 127.3906508198203 189.8898949038991 126.93658737888076 L 189.8898949038991 126.93658737888076 Q 189.9904863734222 126.62699866914926 189.96763307411078 126.32864125154441 Q 189.9447797747994 126.03028383393956 189.89109784286757 125.73902322936102 L 189.89109784286757 125.73902322936102 Q 189.76696873408338 125.20810013849253 189.87967001601584 124.6856733343439 L 189.87967001601584 124.6856733343439 Q 189.98361453452304 124.3657650009547 190.34968412357347 124.2222990283821 Q 190.7157537126239 124.07883305580951 191.1910910185493 124.09066581742039 Q 191.66642832447468 124.10249857903126 192.08953289444105 124.2399735873795 L 192.08953289444105 124.2399735873795 Q 192.59519445366917 124.40427298760055 192.9133125983067 124.72440864950897 Q 193.23143074294427 125.04454431141741 193.09060268561194 125.4779685050415 L 193.09060268561194 125.4779685050415 Q 192.9598337752319 125.88043382769244 192.42383374300002 127.1438228697396 L 192.42383374300002 127.1438228697396 Q 192.06297368805772 127.97352724145723 191.96908831650285 128.2624767038733 L 191.96908831650285 128.2624767038733 Q 191.79472976932948 128.79909713407454 191.76367380818982 129.2282566102456 Q 191.73261784705014 129.65741608641667 191.52137576105164 130.30755237685284 L 191.52137576105164 130.30755237685284 Q 191.32689891997367 130.9060905490004 190.92047907885438 131.38442333703796 Q 190.5140592377351 131.86275612507552 189.94599213133606 132.06608917413735 Q 189.37792502493704 132.26942222319917 188.68651023987002 132.04476794126424 L 188.68651023987002 132.04476794126424 Q 188.37692153013853 131.94417647174114 188.05287871764898 131.74761581701992 L 188.05287871764898 131.74761581701992 Q 186.7291016457018 130.9409944275249 185.50106643043353 130.54198159841664 L 185.50106643043353 130.54198159841664 Q 182.27102422556828 129.49247726639237 181.32025487794303 131.71637273872335 L 181.32025487794303 131.71637273872335 Q 181.16497271785266 132.0538277471493 180.6283522876514 131.87946919997594 L 180.6283522876514 131.87946919997594 Q 180.36004207255078 131.79228992638926 180.15454469377227 131.61713337500657 Q 179.94904731499378 131.44197682362392 179.96838417878217 131.27712332180585 L 179.96838417878217 131.27712332180585 Q 180.1741894021533 130.3628112953694 179.84147034231194 129.7013631967332 Q 179.50875128247054 129.039915098097 178.8156433988184 128.59223333643993 Q 178.12253551516622 128.1445515747829 177.27632637523348 127.86960155808643 L 177.27632637523348 127.86960155808643 Q 176.0482911599652 127.47058872897816 174.5032128550672 127.34506250089247 L 174.5032128550672 127.34506250089247 Q 174.12552125883204 127.31361582469468 173.81593254910052 127.21302435517158 L 173.81593254910052 127.21302435517158 Q 173.12451776403353 126.98837007323668 172.7844579885535 126.48996871357377 Q 172.4443982130735 125.99156735391088 172.39675461325325 125.36570041057277 Q 172.349111013433 124.73983346723467 172.54358785451097 124.14129529508712 Z" fill-opacity="1"/></g></g><g><g><path fill="rgb(0,0,0)" stroke="none" paint-order="stroke fill markers" d=" M 163.94255110740178 142.15449763014752 L 163.94255110740178 142.15449763014752 Q 164.15413964906847 141.78801552568146 164.94110014648197 140.66367523838935 L 164.94110014648197 140.66367523838935 Q 165.46657978222714 139.92712892204705 165.61848950444937 139.66401356499446 L 165.61848950444937 139.66401356499446 Q 165.90060756000491 139.1753707590397 166.02021214620336 138.76204634448132 Q 166.13981673240178 138.34872192992293 166.48161360740178 137.75671237655467 L 166.48161360740178 137.75671237655467 Q 166.79628374629067 137.21168770837437 167.2932733175066 136.8283070757521 Q 167.79026288872248 136.44492644312984 168.38819168393206 136.3641445016295 Q 168.98612047914165 136.28336256012918 169.6157179406603 136.64686082401806 L 169.6157179406603 136.64686082401806 Q 169.89762725178804 136.80962124068472 170.17372169328837 137.069258862541 L 170.17372169328837 137.069258862541 Q 171.30086504318027 138.13348236867043 172.41910531065366 138.77909868811486 L 172.41910531065366 138.77909868811486 Q 175.35096214638224 140.4718070214482 176.752725747505 138.49961041076952 L 176.752725747505 138.49961041076952 Q 176.8622968869511 138.37493179687232 177.12996815742682 138.4104435011263 Q 177.39763942790253 138.4459552053803 177.6419608308799 138.5870142331581 L 177.6419608308799 138.5870142331581 Q 178.13060363683468 138.86913228871364 177.9837297394295 139.21033089688063 L 177.9837297394295 139.21033089688063 Q 177.5923256946191 140.0618736998913 177.78296392575683 140.77334526436235 L 177.78296392575683 140.77334526436235 Q 178.11367339543415 142.0668591047815 179.90849600961414 143.10310042422597 L 179.90849600961414 143.10310042422597 Q 181.02673627708754 143.74871674367043 182.5119525436461 144.19273976531878 L 182.5119525436461 144.19273976531878 Q 182.874852540702 144.3020257545736 183.15676185182974 144.46478617124026 L 183.15676185182974 144.46478617124026 Q 183.78635931334838 144.82828443512915 184.01536449744685 145.38649693218505 Q 184.24436968154532 145.94470942924096 184.16084709998344 146.56680533964098 Q 184.07732451842156 147.18890125004103 183.76265437953268 147.73392591822133 L 183.76265437953268 147.73392591822133 Q 183.42085750453268 148.3259354715896 183.12271035462 148.63617828892578 Q 182.82456320470732 148.94642110626194 182.54244514915177 149.4350639122167 L 182.54244514915177 149.4350639122167 Q 182.39053542692955 149.69817926926925 182.01540742378583 150.52153114116715 L 182.01540742378583 150.52153114116715 Q 181.43518042119933 151.76522906734812 181.22359187953268 152.13171117181417 L 181.22359187953268 152.13171117181417 Q 180.99572729619933 152.52638420739302 180.54495754858624 152.50418892388504 Q 180.09418780097312 152.48199364037706 179.63373592613115 152.21615162648817 L 179.63373592613115 152.21615162648817 Q 179.24845986758987 151.99371239037706 178.92160367228882 151.64838559407383 Q 178.59474747698775 151.3030587977706 178.4564151060463 150.93501860368377 Q 178.31808273510484 150.56697840959694 178.48626849899372 150.27567212143163 L 178.48626849899372 150.27567212143163 Q 178.7990953980706 149.84234698270075 179.27670673160353 149.57933599786207 L 179.27670673160353 149.57933599786207 Q 179.52907576642554 149.42433806284876 179.7660903794869 149.24168129422353 Q 180.0031049925483 149.05902452559826 180.16586540921497 148.7771152144705 L 180.16586540921497 148.7771152144705 Q 180.39915533977052 148.3730452018541 180.36220390133488 148.0572726650818 Q 180.32525246289927 147.7415001283095 180.0894586031604 147.4988654068233 Q 179.85366474342155 147.2562306853371 179.51537357006825 147.0609181853371 L 179.51537357006825 147.0609181853371 Q 179.14889146560216 146.84932964367044 178.71769471687463 146.66302459830285 L 178.71769471687463 146.66302459830285 Q 178.2434847127745 146.46441514108395 177.75484190681973 146.1822970855284 L 177.75484190681973 146.1822970855284 Q 177.04067165196278 145.76997069663952 176.46121345775535 145.17856964653555 Q 175.88175526354792 144.58716859643158 175.6271814329591 143.72602007195553 L 175.6271814329591 143.72602007195553 Q 175.4802311297904 143.17759407434244 175.41959248755822 142.8919982835906 L 175.41959248755822 142.8919982835906 Q 175.38210895162177 142.544595283391 175.27874220420824 142.48491646394655 L 175.27874220420824 142.48491646394655 Q 175.17537545679474 142.4252376445021 174.85577386530272 142.56647745025725 L 174.85577386530272 142.56647745025725 Q 174.57269598695942 142.6661577180467 173.98522836378908 142.81562593362386 L 173.98522836378908 142.81562593362386 Q 173.12301564431138 143.00693883735806 172.32852937612273 142.79882803088768 Q 171.5340431079341 142.5907172244173 170.82926983011475 142.18381618275063 L 170.82926983011475 142.18381618275063 Q 170.35002400119757 141.9071234744173 169.95699944422816 141.61129947571052 Q 169.56397488725878 141.3154754770038 169.18809580575513 141.0984615881149 L 169.18809580575513 141.0984615881149 Q 168.84980463240183 140.9031490881149 168.52647835840398 140.82297564987886 Q 168.20315208440613 140.74280221164284 167.90651083800728 140.86597492202623 Q 167.6098695916084 140.98914763240964 167.37657966105283 141.39321764502608 L 167.37657966105283 141.39321764502608 Q 167.20296854994172 141.693920910229 167.16527626957745 141.99792113265084 Q 167.12758398921318 142.30192135507266 167.12496170459076 142.58858134082615 L 167.12496170459076 142.58858134082615 Q 167.15624084849463 143.1203417743674 166.93883743720056 143.5837010840231 L 166.93883743720056 143.5837010840231 Q 166.76522632608945 143.88440434922603 166.37461530931466 143.95332358738722 Q 165.98400429253988 144.0222428255484 165.52151441668323 143.91184045518494 Q 165.0590245408266 143.8014380848215 164.66435150524777 143.57357350148817 L 164.66435150524777 143.57357350148817 Q 164.2038996304058 143.30773148759928 163.95929307723713 142.92845107666284 Q 163.71468652406844 142.54917066572636 163.94255110740178 142.15449763014752 Z" fill-opacity="1"/></g></g><g><g><path fill="rgb(0,0,0)" stroke="none" paint-order="stroke fill markers" d=" M 158.43168225396124 152.67052721492658 L 158.43168225396124 152.67052721492658 Q 158.88183522264885 152.17058169431462 159.37950174890113 151.99083751517753 Q 159.87716827515342 151.81109333604044 160.33485300576322 151.8946709028683 Q 160.79253773637302 151.97824846969618 161.1070195961128 152.2614092080642 L 161.1070195961128 152.2614092080642 Q 161.3973105435649 152.52278835117312 161.51053785907771 152.92406020044558 Q 161.6237651745905 153.32533204971804 161.48775767413903 153.80881390396792 Q 161.35175017368758 154.2922957582178 160.87981560974092 154.81643219111743 L 160.87981560974092 154.81643219111743 Q 160.40788104579423 155.34056862401707 159.93723259202994 155.52273841051635 Q 159.46658413826563 155.70490819701567 159.05164320216417 155.63061521646495 Q 158.6367022660627 155.5563222359142 158.33834768118138 155.28768256105224 L 158.33834768118138 155.28768256105224 Q 158.03192945887082 155.01178235443726 157.9017717628234 154.5806652724765 Q 157.77161406677592 154.14954819051576 157.88383220777783 153.65194682559792 Q 157.9960503487797 153.1543454606801 158.43168225396124 152.67052721492658 Z" fill-opacity="1"/></g></g><g><g><path fill="rgb(0,0,0)" stroke="none" paint-order="stroke fill markers" d=" M 146.20399143403407 163.66817967941222 L 146.20399143403407 163.66817967941222 Q 146.74825199882625 163.27275123277448 147.27241423364447 163.20040558414217 Q 147.79657646846272 163.1280599355099 148.2268829363676 163.3049691381803 Q 148.65718940427243 163.4818783408507 148.90592665296393 163.8242357928974 L 148.90592665296393 163.8242357928974 Q 149.13553026714067 164.1402580563251 149.16285418548722 164.556302435548 Q 149.19017810383377 164.9723468147709 148.95662116378858 165.41698588112098 Q 148.72306422374342 165.86162494747106 148.15246847033225 166.27618702862353 L 148.15246847033225 166.27618702862353 Q 147.5818727169211 166.690749109776 147.0836338327555 166.77108473356358 Q 146.5853949485899 166.85142035735115 146.1949678466982 166.69247978505973 Q 145.80454074480653 166.53353921276832 145.5685592524582 166.20873855313428 L 145.5685592524582 166.20873855313428 Q 145.3261998819383 165.8751594972939 145.28852072528332 165.42640205128046 Q 145.25084156862837 164.97764460526702 145.46406461514144 164.5142484874869 Q 145.67728766165453 164.0508523697068 146.20399143403407 163.66817967941222 Z" fill-opacity="1"/></g></g><g><g><path fill="rgb(0,0,0)" stroke="none" paint-order="stroke fill markers" d=" M 131.95696447709025 171.88322717808518 L 131.95696447709025 171.88322717808518 Q 132.57154583965362 171.60959792601597 133.0992953781668 171.64781265988663 Q 133.62704491668 171.68602739375729 134.01116666439296 171.948536451209 Q 134.39528841210588 172.2110455086607 134.5674100384075 172.5976370109183 L 134.5674100384075 172.5976370109183 Q 134.72629153960898 172.95449070530995 134.66651787444286 173.3671244787088 Q 134.60674420927674 173.77975825210765 134.28584538864834 174.16612166974352 Q 133.96494656801994 174.55248508737935 133.32062739759058 174.8393544645487 L 133.32062739759058 174.8393544645487 Q 132.67630822716123 175.12622384171803 132.17225434264776 175.1012142505413 Q 131.66820045813432 175.07620465936455 131.31935072828216 174.83956296102306 Q 130.97050099843 174.60292126268158 130.80720612219514 174.23615496566794 L 130.80720612219514 174.23615496566794 Q 130.6394978709269 173.8594760660323 130.6959440136149 173.4126911097341 Q 130.75239015630288 172.96590615343592 131.05729923803688 172.55696791676178 Q 131.36220831977084 172.14802968008766 131.95696447709025 171.88322717808518 Z" fill-opacity="1"/></g></g><g><g><path fill="rgb(0,0,0)" stroke="none" paint-order="stroke fill markers" d=" M 115.36481892144832 174.89523761121833 L 115.36481892144832 174.89523761121833 Q 116.03347450788743 174.75311047882337 116.46352923543758 174.76708402602918 Q 116.8935839629877 174.781057573235 117.4454901613184 174.66374628935344 L 117.4454901613184 174.66374628935344 Q 117.74267042195802 174.6005786749557 118.60554973331179 174.3284231720939 L 118.60554973331179 174.3284231720939 Q 119.91804505767664 173.92741951919555 120.33197470642467 173.8394360562844 L 120.33197470642467 173.8394360562844 Q 120.77774509738408 173.74468463468776 121.06287462184372 174.09452338362019 Q 121.34800414630334 174.44436213255264 121.45854747149941 174.96442758867195 L 121.45854747149941 174.96442758867195 Q 121.55329889309606 175.41019797963136 121.51538055547857 175.88416819844693 Q 121.4774622178611 176.3581384172625 121.29121068493633 176.70833435427164 Q 121.10495915201156 177.0585302912808 120.76532456842342 177.13072185059252 L 120.76532456842342 177.13072185059252 Q 120.25746232886439 177.1942988803831 119.76139389047285 177.00022763584874 L 119.76139389047285 177.00022763584874 Q 119.48795371254849 176.91413876952137 119.18718476486974 176.85604502335374 Q 118.88641581719098 176.7979512771861 118.54678123360284 176.87014283649782 L 118.54678123360284 176.87014283649782 Q 118.07978368116918 176.96940623055144 117.87627907632805 177.21233836707506 Q 117.67277447148693 177.45527050359868 117.64911062896182 177.78754701828615 Q 117.62544678643673 178.11982353297364 117.70666229066241 178.50191243951028 L 117.70666229066241 178.50191243951028 Q 117.79690173980207 178.92645566899543 117.95679581413839 179.39165887790955 Q 118.1166898884747 179.85686208682364 118.23174518612775 180.3981547044172 L 118.23174518612775 180.3981547044172 Q 118.4009441532646 181.1941732597019 118.3533595332019 182.01408437808215 Q 118.30577491313919 182.83399549646236 117.85738714630656 183.59488958325713 L 117.85738714630656 183.59488958325713 Q 117.53369694669819 184.10741627565346 117.35141950333133 184.3458364397201 L 117.35141950333133 184.3458364397201 Q 117.1183301425073 184.6061501156663 117.14314599102072 184.72289950377473 L 117.14314599102072 184.72289950377473 Q 117.16796183953412 184.83964889188314 117.4867786770408 184.98265128394783 L 117.4867786770408 184.98265128394783 Q 117.73965804389623 185.12857601264633 118.21583202162418 185.43780700946593 L 118.21583202162418 185.43780700946593 Q 118.95616529735001 185.94603063866964 119.33955869025526 186.67988110516455 Q 119.72295208316052 187.41373157165947 119.89440703652586 188.22036370768126 L 119.89440703652586 188.22036370768126 Q 120.01171832040741 188.77226990601199 120.05406818872373 189.28464411802798 L 120.05406818872373 189.28464411802798 Q 120.0980076928632 189.752308020867 120.18599115577437 190.16623766961501 L 120.18599115577437 190.16623766961501 Q 120.26720666000006 190.54832657615165 120.42510168312039 190.84755811532335 Q 120.58299670624073 191.14678965449505 120.8665888221933 191.2806396341395 Q 121.15018093814587 191.41448961378396 121.61717849057953 191.31522621973033 L 121.61717849057953 191.31522621973033 Q 121.9355859126934 191.2475466328756 122.18254436609104 191.0785763863092 Q 122.42950281948866 190.90960613974283 122.65490093620937 190.71748592067638 L 122.65490093620937 190.71748592067638 Q 123.05262926596514 190.3445254136859 123.561414790942 190.18091418480418 L 123.561414790942 190.18091418480418 Q 123.890435793793 190.11097861172095 124.19771576514472 190.35627118910526 Q 124.50499573649645 190.60156376648956 124.73241691730719 191.01913432959284 Q 124.95983809811794 191.4367048926961 125.05233353348609 191.8718617029184 L 125.05233353348609 191.8718617029184 Q 125.16287685868215 192.39192715903772 125.0446903151309 192.82749338465283 Q 124.92650377157962 193.26305961026793 124.4807333806202 193.35781103186457 L 124.4807333806202 193.35781103186457 Q 124.06680373187217 193.44579449477573 122.70467671048051 193.6132993714572 L 122.70467671048051 193.6132993714572 Q 121.80570161947088 193.71563758252495 121.50852135883127 193.77880519692272 L 121.50852135883127 193.77880519692272 Q 120.95661516050056 193.89611648080427 120.56942417129177 194.0838009676039 Q 120.18223318208297 194.27148545440355 119.51357759564384 194.4136125867985 L 119.51357759564384 194.4136125867985 Q 118.89798991289037 194.544459788051 118.28053164642715 194.43165627505846 Q 117.66307337996395 194.3188527620659 117.20294824084795 193.92855874140093 Q 116.74282310173194 193.53826472073595 116.59167202442302 192.82715481134832 L 116.59167202442302 192.82715481134832 Q 116.52399243756828 192.50874738923446 116.53219755169661 192.12983775434412 L 116.53219755169661 192.12983775434412 Q 116.56886363026157 190.58010248634298 116.3004012690711 189.31708637862465 L 116.3004012690711 189.31708637862465 Q 115.59427757955332 185.99503560790328 113.19294293134087 186.28359293588576 L 113.19294293134087 186.28359293588576 Q 112.82305724136452 186.31784214470596 112.70574595748297 185.76593594637524 L 112.70574595748297 185.76593594637524 Q 112.64709031554219 185.4899828472099 112.69603164928962 185.22443862108526 Q 112.74497298303704 184.95889439496062 112.8974087354085 184.89321385932186 L 112.8974087354085 184.89321385932186 Q 113.79212878897367 184.6142903977746 114.19860011575683 183.99542319031056 Q 114.60507144254001 183.37655598284655 114.64622127911991 182.55246606721198 Q 114.68737111569982 181.72837615157744 114.50238024496353 180.85806253113284 L 114.50238024496353 180.85806253113284 Q 114.23391788377306 179.59504642341452 113.5700876336875 178.1942062464938 L 113.5700876336875 178.1942062464938 Q 113.40847545602178 177.85139239125934 113.34079586916704 177.53298496914547 L 113.34079586916704 177.53298496914547 Q 113.18964479185811 176.82187505975784 113.45124314286689 176.27817397555546 Q 113.71284149387564 175.73447289135308 114.23103636628524 175.38027885191195 Q 114.74923123869483 175.02608481247083 115.36481892144832 174.89523761121833 Z" fill-opacity="1"/></g></g><g><g><path fill="rgb(0,0,0)" stroke="none" paint-order="stroke fill markers" d=" M 95.46440972222224 176.4531224568685 L 95.46440972222224 176.4531224568685 Q 95.88758680555557 176.4531224568685 97.25477430555557 176.57248009575738 L 97.25477430555557 176.57248009575738 Q 98.15538194444446 176.65928565131293 98.4592013888889 176.65928565131293 L 98.4592013888889 176.65928565131293 Q 99.02343750000001 176.65928565131293 99.44118923611113 176.5562040540907 Q 99.85894097222224 176.4531224568685 100.54253472222224 176.4531224568685 L 100.54253472222224 176.4531224568685 Q 101.17187500000001 176.4531224568685 101.75238715277779 176.69183773464627 Q 102.33289930555557 176.93055301242404 102.70182291666669 177.4079835679796 Q 103.07074652777779 177.88541412353516 103.07074652777779 178.61241065131293 L 103.07074652777779 178.61241065131293 Q 103.07074652777779 178.93793148464627 102.98394097222224 179.30685509575738 L 102.98394097222224 179.30685509575738 Q 102.62586805555557 180.81510162353516 102.62586805555557 182.10633426242404 L 102.62586805555557 182.10633426242404 Q 102.62586805555557 185.4917509290907 105.03472222222224 185.71961551242404 L 105.03472222222224 185.71961551242404 Q 105.1974826388889 185.75216759575738 105.30056423611113 186.0017335679796 Q 105.40364583333334 186.2512995402018 105.40364583333334 186.53341759575738 L 105.40364583333334 186.53341759575738 Q 105.40364583333334 187.0976537068685 105.03472222222224 187.14105648464627 L 105.03472222222224 187.14105648464627 Q 104.10156250000001 187.2278620402018 103.58072916666669 187.74869537353516 L 103.58072916666669 187.74869537353516 Q 102.62586805555557 188.68185509575738 102.62586805555557 190.75433773464627 L 102.62586805555557 190.75433773464627 Q 102.62586805555557 192.04557037353516 102.98394097222224 193.55381690131293 L 102.98394097222224 193.55381690131293 Q 103.0707465277778 193.92274051242404 103.0707465277778 194.24826134575738 L 103.0707465277778 194.24826134575738 Q 103.0707465277778 194.97525787353516 102.70182291666669 195.4526884290907 Q 102.33289930555557 195.93011898464627 101.7523871527778 196.16883426242404 Q 101.17187500000001 196.4075495402018 100.54253472222224 196.4075495402018 L 100.54253472222224 196.4075495402018 Q 99.85894097222224 196.4075495402018 99.44118923611113 196.3044679429796 Q 99.02343750000001 196.20138634575738 98.4592013888889 196.20138634575738 L 98.4592013888889 196.20138634575738 Q 98.15538194444446 196.20138634575738 97.25477430555557 196.28819190131293 L 97.25477430555557 196.28819190131293 Q 95.88758680555557 196.4075495402018 95.46440972222224 196.4075495402018 L 95.46440972222224 196.4075495402018 Q 95.00868055555557 196.4075495402018 94.80251736111113 196.00607384575738 Q 94.59635416666669 195.60459815131293 94.59635416666669 195.07291412353516 L 94.59635416666669 195.07291412353516 Q 94.59635416666669 194.62803565131293 94.73198784722224 194.17230648464627 Q 94.8676215277778 193.7165773179796 95.11718750000001 193.41275787353516 Q 95.36675347222224 193.1089384290907 95.70312500000001 193.1089384290907 L 95.70312500000001 193.1089384290907 Q 96.2348090277778 193.16319190131293 96.7013888888889 193.4453099568685 L 96.7013888888889 193.4453099568685 Q 96.96180555555557 193.58636898464627 97.2384982638889 193.70030127631293 Q 97.51519097222224 193.8142335679796 97.84071180555557 193.8142335679796 L 97.84071180555557 193.8142335679796 Q 98.30729166666669 193.8142335679796 98.56228298611113 193.6243464152018 Q 98.81727430555557 193.43445926242404 98.90950520833334 193.1089384290907 Q 99.00173611111113 192.78341759575738 99.00173611111113 192.39279259575738 L 99.00173611111113 192.39279259575738 Q 99.00173611111113 191.96961551242404 98.9474826388889 191.50303565131293 L 98.9474826388889 191.50303565131293 Q 98.88237847222224 190.99305301242404 98.88237847222224 190.42881690131293 L 98.88237847222224 190.42881690131293 Q 98.88237847222224 189.60416412353516 99.10481770833334 188.8066380818685 Q 99.32725694444446 188.0091120402018 99.9457465277778 187.35807037353516 L 99.9457465277778 187.35807037353516 Q 100.34722222222224 186.9565946790907 100.56423611111113 186.7612821790907 L 100.56423611111113 186.7612821790907 Q 100.84635416666669 186.55511898464627 100.84635416666669 186.43576134575738 L 100.84635416666669 186.43576134575738 Q 100.84635416666669 186.3164037068685 100.56423611111113 186.11024051242404 L 100.56423611111113 186.11024051242404 Q 100.3363715277778 185.91492801242404 99.91319444444446 185.48090023464627 L 99.91319444444446 185.48090023464627 Q 99.31640625000001 184.8298585679796 99.09939236111113 184.03775787353516 Q 98.88237847222224 183.2456571790907 98.88237847222224 182.43185509575738 L 98.88237847222224 182.43185509575738 Q 98.88237847222224 181.8784696790907 98.94205729166669 181.3901884290907 Q 99.00173611111113 180.9019071790907 99.00173611111113 180.46787940131293 L 99.00173611111113 180.46787940131293 Q 99.00173611111113 180.07725440131293 98.90950520833334 179.7571589152018 Q 98.81727430555557 179.4370634290907 98.56228298611113 179.2417509290907 Q 98.30729166666669 179.0464384290907 97.84071180555557 179.0464384290907 L 97.84071180555557 179.0464384290907 Q 97.49348958333334 179.0464384290907 97.21137152777779 179.1657960679796 Q 96.92925347222224 179.2851537068685 96.67968750000001 179.42621273464627 L 96.67968750000001 179.42621273464627 Q 96.23480902777779 179.71918148464627 95.7248263888889 179.76258426242404 L 95.7248263888889 179.76258426242404 Q 95.37760416666669 179.76258426242404 95.12261284722224 179.4587648179796 Q 94.86762152777779 179.15494537353516 94.73198784722224 178.6992162068685 Q 94.59635416666669 178.2434870402018 94.59635416666669 177.78775787353516 L 94.59635416666669 177.78775787353516 Q 94.59635416666669 177.25607384575738 94.80251736111113 176.85459815131293 Q 95.00868055555557 176.4531224568685 95.46440972222224 176.4531224568685 Z" fill-opacity="1"/></g></g><g><g><path fill="rgb(0,0,0)" stroke="none" paint-order="stroke fill markers" d=" M 83.60182652813455 176.9385848252541 L 83.60182652813455 176.9385848252541 Q 84.25986853383655 177.07845597142057 84.66436482227779 177.41957573619968 Q 85.06886111071904 177.76069550097876 85.2253231799645 178.19885088802502 Q 85.38178524920998 178.6370062750713 85.29380178629881 179.0509359238193 L 85.29380178629881 179.0509359238193 Q 85.21258628207313 179.43302483035595 84.92168832453602 179.73171848662858 Q 84.63079036699891 180.03041214290118 84.14407904872398 180.15436711952995 Q 83.65736773044905 180.2783220961587 82.96748498253568 180.13168299130677 L 82.96748498253568 180.13168299130677 Q 82.2776022346223 179.98504388645483 81.88451434482975 179.66853526249272 Q 81.49142645503723 179.35202663853065 81.3482955954663 178.9555307565213 Q 81.20516473589537 178.55903487451198 81.28863622634954 178.1663323872382 L 81.28863622634954 178.1663323872382 Q 81.3743637030322 177.76301631922732 81.68264319999193 177.4347379069718 Q 81.99092269695164 177.10645949471626 82.47796719042923 176.95484257313046 Q 82.96501168390681 176.80322565154464 83.60182652813455 176.9385848252541 Z" fill-opacity="1"/></g></g><g><g><path fill="rgb(0,0,0)" stroke="none" paint-order="stroke fill markers" d=" M 67.96373470193389 171.84792017781822 L 67.96373470193389 171.84792017781822 Q 68.57831606449727 172.12154942988744 68.90305035147523 172.53931441662832 Q 69.22778463845319 172.9570794033692 69.28973000872979 173.41819033732276 Q 69.3516753790064 173.87930127127632 69.17955375270479 174.26589277353392 L 69.17955375270479 174.26589277353392 Q 69.0206722515033 174.62274646792557 68.67402920916784 174.85443186495607 Q 68.32738616683237 175.08611726198657 67.8255389698356 175.10617055185233 Q 67.32369177283884 175.12622384171806 66.67937260240949 174.83935446454873 L 66.67937260240949 174.83935446454873 Q 66.03505343198013 174.55248508737938 65.7163612988684 174.16116536843253 Q 65.3976691657567 173.76984564948572 65.34010218810725 173.35225557477585 Q 65.28253521045782 172.93466550006602 65.44583008669268 172.56789920305238 L 65.44583008669268 172.56789920305238 Q 65.61353833796092 172.19122030341677 65.9833341080185 171.93421047355366 Q 66.35312987807607 171.67720064369058 66.86105421134529 171.63015915975316 Q 67.36897854461449 171.58311767581574 67.96373470193389 171.84792017781822 Z" fill-opacity="1"/></g></g><g><g><path fill="rgb(0,0,0)" stroke="none" paint-order="stroke fill markers" d=" M 53.72578139631535 163.61715665403963 L 53.72578139631535 163.61715665403963 Q 54.27004196110752 164.01258510067737 54.50082180003326 164.48873697480064 Q 54.731601638959 164.9648888489239 54.696323000338786 165.42880256931525 Q 54.66104436171857 165.89271628970658 54.41230711302709 166.23507374175327 L 54.41230711302709 166.23507374175327 Q 54.182703498850344 166.551096005181 53.795465336044444 166.70564737936925 Q 53.408227173238544 166.8601987535575 52.91317722815872 166.77547393166677 Q 52.41812728307891 166.69074910977602 51.847531529667755 166.27618702862355 L 51.847531529667755 166.27618702862355 Q 51.27693577625661 165.86162494747109 51.046567775297206 165.41259668301785 Q 50.816199774337804 164.9635684185646 50.84671263177015 164.54313484123855 Q 50.8772254892025 164.1227012639125 51.113206981550825 163.79790060427845 L 51.113206981550825 163.79790060427845 Q 51.355566352070724 163.46432154843808 51.77071654559768 163.28981286380244 Q 52.185866739124634 163.11530417916677 52.692472181530235 163.17489407145592 Q 53.19907762393583 163.23448396374505 53.72578139631535 163.61715665403963 Z" fill-opacity="1"/></g></g><g><g><path fill="rgb(0,0,0)" stroke="none" paint-order="stroke fill markers" d=" M 42.82123106693734 150.7539423161312 L 42.82123106693734 150.7539423161312 Q 43.27864456737797 151.2619514741724 43.48157048429182 151.6413765668513 Q 43.68449640120567 152.02080165953024 44.062044052363014 152.44011080584994 L 44.062044052363014 152.44011080584994 Q 44.26533894144774 152.66589265386824 44.93247217638268 153.27709030646974 L 44.93247217638268 153.27709030646974 Q 45.93599918898541 154.21324277326883 46.21915992735342 154.5277246330086 L 46.21915992735342 154.5277246330086 Q 46.5241022609805 154.86639740503605 46.36369777940666 155.2882461910533 Q 46.203293297832815 155.71009497707053 45.80817506380078 156.0658610329688 L 45.80817506380078 156.0658610329688 Q 45.469502291773324 156.37080336659588 45.04007287283304 156.57495023235765 Q 44.61064345389276 156.77909709811942 44.21423910967835 156.79289650761734 Q 43.81783476546394 156.8066959171153 43.585497749367114 156.54865951938007 L 43.585497749367114 156.54865951938007 Q 43.2765073066918 156.1406264331944 43.196543715406825 155.61398294126445 L 43.196543715406825 155.61398294126445 Q 43.13437877166716 155.33413236760293 43.034304957809965 155.0446119451598 Q 42.93423114395277 154.75509152271667 42.701894127855944 154.49705512498144 L 42.701894127855944 154.49705512498144 Q 42.38243073072281 154.14225507809556 42.07029302667716 154.08748098877783 Q 41.75815532263152 154.03270689946012 41.45856349856865 154.17835166802595 Q 41.158971674505786 154.3239964365918 40.86868072705368 154.58537557970075 L 40.86868072705368 154.58537557970075 Q 40.546135229884676 154.87579684982177 40.22320447021118 155.24687078456867 Q 39.90027371053769 155.61794471931557 39.4890282016472 155.98823183871988 L 39.4890282016472 155.98823183871988 Q 38.884255394455316 156.53277172019682 38.15039922706136 156.9015177895832 Q 37.416543059667404 157.2702638589696 36.53339556749747 157.26239570554375 L 36.53339556749747 157.26239570554375 Q 35.92768933196046 157.238335115925 35.630072691420864 157.19968830146573 L 35.630072691420864 157.19968830146573 Q 35.288089754686915 157.12798383161336 35.19938974296544 157.20784968089666 L 35.19938974296544 157.20784968089666 Q 35.11068973124396 157.28771553017995 35.14625444566735 157.6353202066473 L 35.14625444566735 157.6353202066473 Q 35.146319607001814 157.92728252678626 35.116604696982435 158.49427678652955 L 35.116604696982435 158.49427678652955 Q 35.0466367611514 159.38953602517694 34.602800311040376 160.08848967632343 Q 34.15896386092935 160.78744332746996 33.54612741630824 161.3392437406999 L 33.54612741630824 161.3392437406999 Q 33.126818269988526 161.71679139185724 32.704264120296784 162.00965455967412 L 32.704264120296784 162.00965455967412 Q 32.32122505207497 162.2815392379081 32.00674319233519 162.5646999762761 L 32.00674319233519 162.5646999762761 Q 31.716452244883083 162.82607911938504 31.53625764190705 163.11243599012423 Q 31.356063038931012 163.3987928608634 31.38194161423916 163.71131582741356 Q 31.407820189547316 164.02383879396368 31.72728358668045 164.3786388408496 L 31.72728358668045 164.3786388408496 Q 31.945099539271226 164.62054796372635 32.21491129198024 164.74993513476483 Q 32.484723044689275 164.87932230580327 32.76380309334182 164.97846269131534 L 32.76380309334182 164.97846269131534 Q 33.28566053188178 165.13642527519337 33.68174477492617 165.49524085046028 L 33.68174477492617 165.49524085046028 Q 33.906821259269975 165.74521361076626 33.84803164157126 166.13397216072315 Q 33.789242023872546 166.52273071068007 33.54132589875791 166.92846851217246 Q 33.293409773643276 167.33420631366485 32.96280063904504 167.6318881155389 L 32.96280063904504 167.6318881155389 Q 32.56768240501301 167.98765417143719 32.13137771682419 168.10308473514385 Q 31.695073028635363 168.21851529885052 31.39013069500828 167.87984252682307 L 31.39013069500828 167.87984252682307 Q 31.106969956640278 167.5653606670833 30.280842967480503 166.46947650171762 L 30.280842967480503 166.46947650171762 Q 29.742727931413157 165.74211034106773 29.539433042328437 165.51632849304943 L 29.539433042328437 165.51632849304943 Q 29.161885391171094 165.09701934672972 28.805750363101964 164.8555443573583 Q 28.44961533503283 164.61406936798687 27.9922018345922 164.10606020994567 L 27.9922018345922 164.10606020994567 Q 27.57109099291671 163.6383692390506 27.36005256757278 163.0472329380205 Q 27.14901414222885 162.4560966369904 27.256956109511883 161.8624695672636 Q 27.364898076794915 161.2688424975368 27.905161784553002 160.78238687008408 L 27.905161784553002 160.78238687008408 Q 28.147070907429757 160.56457091749328 28.47931883404762 160.38222193732423 L 28.47931883404762 160.38222193732423 Q 29.83976198455978 159.63910805881807 30.799334838637577 158.77510478020798 L 30.799334838637577 158.77510478020798 Q 33.32325335398506 156.5025583415109 31.872688053397837 154.5672201971624 L 31.872688053397837 154.5672201971624 Q 31.65808452351186 154.26401439755665 32.077393669831565 153.8864667463993 L 32.077393669831565 153.8864667463993 Q 32.287048242991425 153.69769292082063 32.54148695551735 153.60730524607868 Q 32.795925668043274 153.51691757133673 32.92902455662634 153.61609053751602 L 32.92902455662634 153.61609053751602 Q 33.61793938682036 154.2514791024052 34.35712977344492 154.29405999357738 Q 35.09632016006948 154.33664088474956 35.83057788030153 153.96023273077205 Q 36.56483560053359 153.58382457679454 37.22605386973006 152.98846097304641 L 37.22605386973006 152.98846097304641 Q 38.18562672380786 152.12445769443636 39.0668747786203 150.84914374560134 L 39.0668747786203 150.84914374560134 Q 39.28295419718975 150.53777656656465 39.524863320066515 150.31996061397388 L 39.524863320066515 150.31996061397388 Q 40.0651270278246 149.83350498652115 40.66678515431339 149.78820526198166 Q 41.268443280802174 149.7429055374422 41.83428175303201 150.01457844133918 Q 42.400120225261844 150.28625134523617 42.82123106693734 150.7539423161312 Z" fill-opacity="1"/></g></g><g><g><path fill="rgb(0,0,0)" stroke="none" paint-order="stroke fill markers" d=" M 31.52185861482046 134.298624826721 L 31.52185861482046 134.298624826721 Q 31.733447156487127 134.66510693118707 32.31367415907362 135.90880485736804 L 32.31367415907362 135.90880485736804 Q 32.68880216221733 136.73215672926594 32.84071188443956 136.9952720863185 L 32.84071188443956 136.9952720863185 Q 33.12282993999511 137.48391489227325 33.42097708990779 137.7941577096094 Q 33.71912423982046 138.10440052694557 34.06092111482046 138.69641008031385 L 34.06092111482046 138.69641008031385 Q 34.37559125370935 139.24143474849416 34.459113835271225 139.8635306588942 Q 34.5426364168331 140.48562656929423 34.31363123273463 141.04383906635013 Q 34.08462604863615 141.602051563406 33.45502858711752 141.96554982729492 L 33.45502858711752 141.96554982729492 Q 33.17311927598977 142.12831024396158 32.81021927893388 142.2375962332164 L 32.81021927893388 142.2375962332164 Q 31.32500301237532 142.68161925486476 30.206762744901926 143.3272355743092 L 30.206762744901926 143.3272355743092 Q 27.274905909173356 145.01994390764256 28.281996474717268 147.22000510165455 L 28.281996474717268 147.22000510165455 Q 28.33518575193783 147.37723579888507 28.170596078684333 147.5912900668533 Q 28.00600640543084 147.80534433482154 27.761685002453458 147.9464033625993 L 27.761685002453458 147.9464033625993 Q 27.273042196498697 148.22852141815488 27.050992482792772 147.93072558776566 L 27.050992482792772 147.93072558776566 Q 26.50923680538093 147.16598834031055 25.797765240909868 146.97535010917284 L 25.797765240909868 146.97535010917284 Q 24.512194660121438 146.61499599097587 22.71737204594145 147.65123731042033 L 22.71737204594145 147.65123731042033 Q 21.599131778468053 148.29685362986478 20.47198842857616 149.36107713599418 L 20.47198842857616 149.36107713599418 Q 20.195893987075824 149.62071475785046 19.91398467594808 149.78347517451715 L 19.91398467594808 149.78347517451715 Q 19.284387214429444 150.14697343840604 18.686458419219857 150.0661914969057 Q 18.08852962401027 149.98540955540537 17.591540052794368 149.6020289227831 Q 17.094550481578466 149.21864829016084 16.779880342689577 148.67362362198054 L 16.779880342689577 148.67362362198054 Q 16.438083467689577 148.08161406861225 16.31847888149114 147.66828965405386 Q 16.198874295292704 147.25496523949548 15.916756239737147 146.76632243354072 L 15.916756239737147 146.76632243354072 Q 15.764846517514925 146.50320707648817 15.239366881769751 145.76666076014584 L 15.239366881769751 145.76666076014584 Q 14.452406384356241 144.64232047285375 14.240817842689573 144.27583836838767 L 14.240817842689573 144.27583836838767 Q 14.012953259356241 143.88116533280882 14.257559812524907 143.50188492187237 Q 14.502166365693572 143.1226045109359 14.962618240535555 142.85676249704701 L 14.962618240535555 142.85676249704701 Q 15.347894299076813 142.6343232609359 15.81038417493344 142.52392089057247 Q 16.272874050790058 142.41351852020904 16.660772393953735 142.4777392698514 Q 17.048670737117412 142.54196001949379 17.216856501006298 142.83326630765913 L 17.216856501006298 142.83326630765913 Q 17.43571362970723 143.32084491861224 17.424682157285403 143.86597395900645 L 17.424682157285403 143.86597395900645 Q 17.432729789130047 144.16203092179754 17.472407884402003 144.45861998208946 Q 17.512085979673962 144.75520904238138 17.674846396340627 145.03711835350913 L 17.674846396340627 145.03711835350913 Q 17.908136326896184 145.44118836612554 18.200079084776256 145.56707375012007 Q 18.492021842656328 145.69295913411457 18.82004660517297 145.61007302226744 Q 19.148071367689603 145.5271869104203 19.4863625410429 145.3318744104203 L 19.4863625410429 145.3318744104203 Q 19.85284464550897 145.12028586875363 20.229787922014296 144.84001105301013 L 20.229787922014296 144.84001105301013 Q 20.638893759447768 144.52863787134012 21.12753656540253 144.24651981578458 L 21.12753656540253 144.24651981578458 Q 21.841706820259486 143.8341934268957 22.643604250578022 143.62806843533298 Q 23.445501680896555 143.42194344377026 24.318565094818716 143.63205030157965 L 24.318565094818716 143.63205030157965 Q 24.866991092431828 143.77900060474832 25.14464362355292 143.86928389550016 L 25.14464362355292 143.86928389550016 Q 25.46424521504494 144.0105237012553 25.567611962458447 143.95084488181087 L 25.567611962458447 143.95084488181087 Q 25.670978709871953 143.8911660623664 25.708462245808413 143.54376306216682 L 25.708462245808413 143.54376306216682 Q 25.763675540818397 143.24877029437738 25.92796608065539 142.66527430102244 L 25.92796608065539 142.66527430102244 Q 26.193390605688663 141.82291973062155 26.770862984988405 141.2389298426475 Q 27.348335364288143 140.65493995467347 28.05310864210751 140.24803891300678 L 28.05310864210751 140.24803891300678 Q 28.53235447102468 139.97134620467347 28.985057847438522 139.7788889533802 Q 29.437761223852362 139.58643170208697 29.813640305356028 139.36941781319808 L 29.813640305356028 139.36941781319808 Q 30.151931478709322 139.17410531319808 30.383026849929387 138.934183265323 Q 30.614122221149447 138.69426121744792 30.655772148103875 138.3757760070645 Q 30.6974220750583 138.0572907966811 30.46413214450274 137.65322078406467 L 30.46413214450274 137.65322078406467 Q 30.29052103339163 137.35251751886173 30.046095258200346 137.1678749353288 Q 29.801669483009064 136.98323235179586 29.55472579540926 136.83763139382015 L 29.55472579540926 136.83763139382015 Q 29.078568179283177 136.5988397102789 28.785988951688367 136.17888317840098 L 28.785988951688367 136.17888317840098 Q 28.612377840577253 135.87817991319804 28.747997537907597 135.50544123059242 Q 28.88361723523794 135.1327025479868 29.210473430539004 134.78737575168358 Q 29.537329625840073 134.44204895538033 29.93200266141892 134.21418437204701 L 29.93200266141892 134.21418437204701 Q 30.392454536260907 133.94834235815813 30.843224283874015 133.92614707465015 Q 31.293994031487124 133.90395179114216 31.52185861482046 134.298624826721 Z" fill-opacity="1"/></g></g><g><g><path fill="rgb(0,0,0)" stroke="none" paint-order="stroke fill markers" d=" M 25.17014427417331 124.26805761032749 L 25.17014427417331 124.26805761032749 Q 25.378033311187703 124.9078742771059 25.284863073376663 125.42873822102209 Q 25.19169283556562 125.94960216493827 24.890470174201287 126.30417998515665 Q 24.589247512836955 126.65875780537505 24.186782190186012 126.78952671575507 L 24.186782190186012 126.78952671575507 Q 23.815275738508216 126.91023647918279 23.411150465458313 126.80765828618294 Q 23.007025192408413 126.70508009318311 22.656321374584945 126.34555321556199 Q 22.305617556761472 125.98602633794087 22.087669372794767 125.3152508001893 L 22.087669372794767 125.3152508001893 Q 21.869721188828063 124.64447526243772 21.947281752799828 124.14579685197633 Q 22.024842316771593 123.64711844151492 22.29665239330212 123.32491554005632 Q 22.568462469832653 123.00271263859773 22.950288545168164 122.87864982618592 L 22.950288545168164 122.87864982618592 Q 23.342434244161392 122.75123396479 23.780871437168546 122.85407263449524 Q 24.2193086301757 122.95691130420049 24.594134982651408 123.30289574753249 Q 24.96896133512712 123.64888019086449 25.17014427417331 124.26805761032749 Z" fill-opacity="1"/></g></g><g><g><path fill="rgb(0,0,0)" stroke="none" paint-order="stroke fill markers" d=" M 21.759743267899818 108.17974049840603 L 21.759743267899818 108.17974049840603 Q 21.830064065671024 108.84879819711298 21.630636117830736 109.33890883248615 Q 21.431208169990445 109.82901946785934 21.062847072362192 110.11322119914249 Q 20.69448597473394 110.39742293042565 20.273627099740857 110.44165698063657 L 20.273627099740857 110.44165698063657 Q 19.885141984362626 110.48248841160049 19.511175023680593 110.2981294294081 Q 19.137208062998567 110.11377044721571 18.86891780604699 109.68918467073136 Q 18.600627549095414 109.26459889424703 18.52690413207721 108.56316743592522 L 18.52690413207721 108.56316743592522 Q 18.45318071505901 107.86173597760342 18.632727466112893 107.39008063486901 Q 18.81227421716678 106.91842529213459 19.145134341409033 106.65977578971615 Q 19.47799446565129 106.40112628729773 19.87727083423447 106.35916064991814 L 19.87727083423447 106.35916064991814 Q 20.287338456022603 106.31606080612288 20.694813382735152 106.50780842227323 Q 21.102288309447697 106.69955603842358 21.396989596203817 107.11591067226628 Q 21.69169088295994 107.53226530610898 21.759743267899818 108.17974049840603 Z" fill-opacity="1"/></g></g><g><g><path fill="rgb(0,0,0)" stroke="none" paint-order="stroke fill markers" d=" M 21.76881691922512 91.73392947595445 L 21.76881691922512 91.73392947595445 Q 21.698496121453914 92.4029871746614 21.401526421866464 92.840924314914 Q 21.104556722279014 93.2788614551666 20.68515633594585 93.48026611810624 Q 20.26575594961269 93.68167078104588 19.844897074619606 93.63743673083496 L 19.844897074619606 93.63743673083496 Q 19.456411959241375 93.59660529987103 19.128947461601594 93.33852290066044 Q 18.801482963961817 93.08044050144984 18.627331839510404 92.60935226192326 Q 18.453180715058995 92.13826402239667 18.526904132077195 91.43683256407486 L 18.526904132077195 91.43683256407486 Q 18.6006275490954 90.73540110575306 18.874313432649448 90.31138243247655 Q 19.1479993162035 89.88736375920004 19.527361903488003 89.70357188021549 Q 19.906724490772508 89.51978000123093 20.30600085935569 89.56174563861052 L 20.30600085935569 89.56174563861052 Q 20.716068481143825 89.60484548240578 21.07477253198279 89.87712175406831 Q 21.433476582821758 90.14939802573085 21.63517294349338 90.61792615469412 Q 21.836869304165 91.0864542836574 21.76881691922512 91.73392947595445 Z" fill-opacity="1"/></g></g><g><g><path fill="rgb(0,0,0)" stroke="none" paint-order="stroke fill markers" d=" M 27.456412145489033 75.85870470491288 L 27.456412145489033 75.85870470491288 Q 27.245170059490533 76.50884099534903 27.018041248854257 76.87429254082213 Q 26.790912438217976 77.23974408629523 26.616553891044614 77.7763645164965 L 26.616553891044614 77.7763645164965 Q 26.522668519489724 78.06531397891256 26.326922443070895 78.94866713437585 L 26.326922443070895 78.94866713437585 Q 26.017954131308777 80.28582325407326 25.887185220928753 80.68828857672422 L 25.887185220928753 80.68828857672422 Q 25.74635716359642 81.12171277034831 25.300823157562952 81.1937228074331 Q 24.85528915152948 81.2657328445179 24.34962759230137 81.10143344429684 L 24.34962759230137 81.10143344429684 Q 23.916203398677276 80.96060538696452 23.52469231735447 80.69078203391072 Q 23.133181236031668 80.42095868085693 22.923028424742032 80.0845621533457 Q 22.712875613452393 79.74816562583447 22.820173180943694 79.41793766878756 L 22.820173180943694 79.41793766878756 Q 23.01904497782741 78.94632755281128 23.435149824933983 78.6137553054157 L 23.435149824933983 78.6137553054157 Q 23.64642505911867 78.41999359808156 23.847120192940235 78.18856692180607 Q 24.0478153267618 77.95714024553057 24.1551128942531 77.62691228848364 L 24.1551128942531 77.62691228848364 Q 24.302647049553638 77.17284884754412 24.194013950349113 76.87514262170278 Q 24.085380851144592 76.57743639586144 23.80945286960683 76.3908046497398 Q 23.53352488806907 76.20417290361817 23.162018436391275 76.08346314019046 L 23.162018436391275 76.08346314019046 Q 22.749233490082617 75.94934118082634 22.266408656072805 75.85521190665914 Q 21.783583822062994 75.76108263249193 21.25728301551945 75.59007713430267 L 21.25728301551945 75.59007713430267 Q 20.483311241190712 75.33859846049494 19.79703969385947 74.88743341150108 Q 19.11076814652823 74.4362683625072 18.676008421190915 73.66750612228661 L 18.676008421190915 73.66750612228661 Q 18.393992385262273 73.13091884027155 18.278653188089542 72.85385186174564 L 18.278653188089542 72.85385186174564 Q 18.16975961217961 72.52183371594705 18.05624375194473 72.48495017712192 L 18.05624375194473 72.48495017712192 Q 17.94272789170985 72.44806663829678 17.659475768626553 72.65266892269945 L 17.659475768626553 72.65266892269945 Q 17.406661563105594 72.79870651413992 16.900772675358265 73.05646977706361 L 16.900772675358265 73.05646977706361 Q 16.090471463801393 73.44350538650727 15.263241620785116 73.40860857115888 Q 14.436011777768837 73.37371175581048 13.651720379782383 73.11888003301864 L 13.651720379782383 73.11888003301864 Q 13.115099949581124 72.94452148584527 12.650195931573068 72.72501044164613 L 12.650195931573068 72.72501044164613 Q 12.223217359211771 72.52923121704112 11.82075203656083 72.39846230666109 L 11.82075203656083 72.39846230666109 Q 11.449245584883036 72.27775254323338 11.111155958786663 72.26487787480087 Q 10.77306633269029 72.25200320636837 10.51535279204588 72.43067619327404 Q 10.257639251401466 72.60934918017972 10.110105096100927 73.06341262111924 L 10.110105096100927 73.06341262111924 Q 10.009513626577832 73.37300133085074 10.032366925889225 73.67135874845559 Q 10.05522022520062 73.96971616606045 10.108902157132455 74.26097677063898 L 10.108902157132455 74.26097677063898 Q 10.23303126591665 74.79189986150747 10.120329983984178 75.3143266656561 L 10.120329983984178 75.3143266656561 Q 10.01638546547698 75.6342349990453 9.650315876426545 75.7777009716179 Q 9.28424628737611 75.92116694419049 8.808908981450728 75.90933418257961 Q 8.333571675525342 75.89750142096874 7.910467105558965 75.7600264126205 L 7.910467105558965 75.7600264126205 Q 7.404805546330859 75.59572701239945 7.0866874016933075 75.27559135049103 Q 6.768569257055756 74.95545568858259 6.909397314388087 74.5220314949585 L 6.909397314388087 74.5220314949585 Q 7.040166224768111 74.11956617230756 7.5761662569999935 72.8561771302604 L 7.5761662569999935 72.8561771302604 Q 7.937026311942287 72.02647275854277 8.030911683497173 71.73752329612671 L 8.030911683497173 71.73752329612671 Q 8.20527023067054 71.20090286592544 8.236326191810203 70.77174338975438 Q 8.267382152949867 70.34258391358331 8.478624238948367 69.69244762314717 L 8.478624238948367 69.69244762314717 Q 8.673101080026353 69.09390945099962 9.07952092114563 68.61557666296206 Q 9.485940762264914 68.1372438749245 10.05400786866395 67.93391082586267 Q 10.622074975062981 67.73057777680084 11.313489760129988 67.95523205873576 L 11.313489760129988 67.95523205873576 Q 11.623078469861484 68.05582352825886 11.94712128235102 68.2523841829801 L 11.94712128235102 68.2523841829801 Q 13.270898354298213 69.05900557247507 14.498933569566477 69.45801840158335 L 14.498933569566477 69.45801840158335 Q 17.728975774431746 70.50752273360764 18.67974512205698 68.28362726127664 L 18.67974512205698 68.28362726127664 Q 18.83502728214735 67.94617225285069 19.37164771234861 68.12053080002406 L 19.37164771234861 68.12053080002406 Q 19.639957927449238 68.20771007361073 19.845455306227738 68.38286662499341 Q 20.050952685006237 68.5580231763761 20.03161582121784 68.72287667819415 L 20.03161582121784 68.72287667819415 Q 19.8258105978467 69.6371887046306 20.158529657688092 70.2986368032668 Q 20.49124871752948 70.960084901903 21.18435660118163 71.40776666356005 Q 21.877464484833784 71.8554484252171 22.723673624766537 72.13039844191357 L 22.723673624766537 72.13039844191357 Q 23.951708840034804 72.52941127102184 25.496787144932803 72.65493749910755 L 25.496787144932803 72.65493749910755 Q 25.874478741167987 72.68638417530532 26.184067450899484 72.78697564482842 L 26.184067450899484 72.78697564482842 Q 26.87548223596649 73.01162992676332 27.21554201144651 73.51003128642623 Q 27.55560178692653 74.00843264608912 27.60324538674677 74.63429958942723 Q 27.65088898656702 75.26016653276533 27.456412145489033 75.85870470491288 Z" fill-opacity="1"/></g></g><g><g><path fill="rgb(0,0,0)" stroke="none" paint-order="stroke fill markers" d=" M 36.057448892598195 57.845502369852525 L 36.057448892598195 57.845502369852525 Q 35.84586035093153 58.2119844743186 35.05889985351802 59.33632476161069 L 35.05889985351802 59.33632476161069 Q 34.53342021777284 60.07287107795301 34.38151049555062 60.33598643500558 L 34.38151049555062 60.33598643500558 Q 34.09939243999507 60.82462924096034 33.97978785379664 61.23795365551872 Q 33.860183267598195 61.65127807007711 33.518386392598195 62.24328762344538 L 33.518386392598195 62.24328762344538 Q 33.20371625370931 62.788312291625694 32.706726682493404 63.17169292424795 Q 32.209737111277505 63.55507355687021 31.61180831606792 63.635855498370546 Q 31.013879520858335 63.71663743987089 30.3842820593397 63.353139175981994 L 30.3842820593397 63.353139175981994 Q 30.102372748211952 63.19037875931533 29.826278306711618 62.930741137459044 L 29.826278306711618 62.930741137459044 Q 28.699134956819723 61.866517631329636 27.580894689346323 61.220901311885186 L 27.580894689346323 61.220901311885186 Q 24.649037853617756 59.52819297855186 23.247274252495 61.50038958923052 L 23.247274252495 61.50038958923052 Q 23.137703113048893 61.625068203127725 22.870031842573177 61.58955649887373 Q 22.602360572097457 61.55404479461974 22.358039169120076 61.41298576684197 L 22.358039169120076 61.41298576684197 Q 21.869396363165315 61.13086771128641 22.016270260570504 60.78966910311941 L 22.016270260570504 60.78966910311941 Q 22.407674305380883 59.938126300108756 22.217036074243154 59.226654735637695 L 22.217036074243154 59.226654735637695 Q 21.88632660456583 57.93314089521853 20.091503990385842 56.896899575774086 L 20.091503990385842 56.896899575774086 Q 18.973263722912446 56.25128325632964 17.488047456353883 55.80726023468127 L 17.488047456353883 55.80726023468127 Q 17.12514745929799 55.69797424542645 16.843238148170244 55.53521382875979 L 16.843238148170244 55.53521382875979 Q 16.21364068665161 55.171715564870894 15.984635502553138 54.613503067815 Q 15.755630318454664 54.05529057075911 15.839152900016536 53.43319466035908 Q 15.922675481578413 52.811098749959044 16.237345620467302 52.266074081778726 L 16.237345620467302 52.266074081778726 Q 16.579142495467302 51.67406452841046 16.877289645379975 51.363821711074294 Q 17.17543679529265 51.053578893738134 17.457554850848204 50.564936087783366 L 17.457554850848204 50.564936087783366 Q 17.609464573070426 50.3018207307308 17.98459257621414 49.478468858832926 L 17.98459257621414 49.478468858832926 Q 18.56481957880063 48.23477093265194 18.7764081204673 47.868288828185875 L 18.7764081204673 47.868288828185875 Q 19.00427270380063 47.47361579260703 19.45504245141374 47.495811076115004 Q 19.905812199026855 47.51800635962299 20.366264073868837 47.78384837351187 L 20.366264073868837 47.78384837351187 Q 20.751540132410092 48.00628760962299 21.07839632771116 48.35161440592622 Q 21.40525252301223 48.696941202229446 21.543584893953682 49.06498139631627 Q 21.681917264895134 49.4330215904031 21.513731501006248 49.72432787856844 L 21.513731501006248 49.72432787856844 Q 21.2009046019294 50.15765301729932 20.72329326839646 50.420664002137976 L 20.72329326839646 50.420664002137976 Q 20.470924233574443 50.57566193715128 20.23390962051306 50.75831870577654 Q 19.996895007451684 50.94097547440179 19.83413459078502 51.22288478552954 L 19.83413459078502 51.22288478552954 Q 19.600844660229463 51.626954798145974 19.637796098665092 51.94272733491826 Q 19.67474753710072 52.25849987169055 19.91054139683958 52.50113459317675 Q 20.14633525657844 52.74376931466294 20.484626429931737 52.93908181466294 L 20.484626429931737 52.93908181466294 Q 20.85110853439781 53.15067035632961 21.282305283125357 53.33697540169721 L 21.282305283125357 53.33697540169721 Q 21.75651528722549 53.5355848589161 22.245158093180255 53.81770291447166 L 22.245158093180255 53.81770291447166 Q 22.95932834803721 54.230029303360546 23.538786542244637 54.82143035346451 Q 24.118244736452063 55.41283140356847 24.37281856704089 56.27397992804452 L 24.37281856704089 56.27397992804452 Q 24.519768870209557 56.82240592565763 24.58040751244176 57.10800171640946 L 24.58040751244176 57.10800171640946 Q 24.617891048378223 57.45540471660907 24.721257795791733 57.51508353605351 L 24.721257795791733 57.51508353605351 Q 24.82462454320524 57.57476235549795 25.144226134697256 57.43352254974279 L 25.144226134697256 57.43352254974279 Q 25.42730401304057 57.333842281953366 26.014771636210902 57.184374066376186 L 26.014771636210902 57.184374066376186 Q 26.876984355688617 56.993061162641986 27.671470623877244 57.20117196911237 Q 28.465956892065876 57.40928277558277 29.170730169885243 57.81618381724943 L 29.170730169885243 57.81618381724943 Q 29.64997599880241 58.09287652558277 30.043000555771812 58.38870052428952 Q 30.43602511274121 58.68452452299627 30.81190419424487 58.901538411885156 L 30.81190419424487 58.901538411885156 Q 31.15019536759817 59.096850911885156 31.473521641596008 59.17702435012119 Q 31.796847915593847 59.25719778835721 32.09348916199272 59.13402507797381 Q 32.39013040839159 59.01085236759041 32.62342033894715 58.60678235497397 L 32.62342033894715 58.60678235497397 Q 32.797031450058256 58.30607908977104 32.834723730422525 58.00207886734922 Q 32.87241601078679 57.69807864492739 32.87503829540922 57.4114186591739 L 32.87503829540922 57.4114186591739 Q 32.84375915150535 56.87965822563264 33.06116256279943 56.41629891597695 L 33.06116256279943 56.41629891597695 Q 33.234773673910546 56.11559565077402 33.62538469068533 56.04667641261284 Q 34.015995707460114 55.97775717445166 34.47848558331674 56.0881595448151 Q 34.940975459173366 56.19856191517854 35.335648494752206 56.426426498511866 L 35.335648494752206 56.426426498511866 Q 35.7961003695942 56.69226851240076 36.040706922762865 57.07154892333722 Q 36.28531347593153 57.45082933427368 36.057448892598195 57.845502369852525 Z" fill-opacity="1"/></g></g><g><g><path fill="rgb(0,0,0)" stroke="none" paint-order="stroke fill markers" d=" M 41.56831774603875 47.32947278507341 L 41.56831774603875 47.32947278507341 Q 41.11816477735115 47.82941830568538 40.62049825109886 48.00916248482247 Q 40.12283172484657 48.18890666395956 39.66514699423677 48.10532909713169 Q 39.20746226362697 48.02175153030381 38.89298040388719 47.738590791935806 L 38.89298040388719 47.738590791935806 Q 38.60268945643508 47.477211648826874 38.48946214092229 47.07593979955442 Q 38.3762348254095 46.674667950281965 38.51224232586095 46.19118609603209 Q 38.64824982631241 45.70770424178222 39.120184390259084 45.18356780888258 L 39.120184390259084 45.18356780888258 Q 39.592118954205766 44.65943137598294 40.062767407970064 44.47726158948363 Q 40.53341586173436 44.29509180298433 40.94835679783582 44.36938478353507 Q 41.36329773393729 44.4436777640858 41.66165231881862 44.71231743894776 L 41.66165231881862 44.71231743894776 Q 41.96807054112917 44.988217645562735 42.09822823717661 45.41933472752349 Q 42.228385933224054 45.85045180948425 42.11616779222218 46.348053174402075 Q 42.003949651220296 46.8456545393199 41.56831774603875 47.32947278507341 Z" fill-opacity="1"/></g></g><g><g><path fill="rgb(0,0,0)" stroke="none" paint-order="stroke fill markers" d=" M 53.79600856596593 36.33182032058778 L 53.79600856596593 36.33182032058778 Q 53.25174800117375 36.72724876722552 52.7275857663555 36.79959441585781 Q 52.203423531537254 36.87194006449011 51.7731170636324 36.6950308618197 Q 51.34281059572754 36.518121659149294 51.094073347036066 36.1757642071026 L 51.094073347036066 36.1757642071026 Q 50.86446973285932 35.85974194367489 50.83714581451276 35.443697564451995 Q 50.8098218961662 35.027653185229106 51.04337883621139 34.58301411887902 Q 51.27693577625658 34.138375052528936 51.84753152966773 33.723812971376475 L 51.84753152966773 33.723812971376475 Q 52.418127283078874 33.309250890224014 52.91636616724448 33.22891526643643 Q 53.41460505141009 33.14857964264884 53.80503215330178 33.30752021494027 Q 54.19545925519347 33.46646078723169 54.43144074754179 33.79126144686573 L 54.43144074754179 33.79126144686573 Q 54.67380011806169 34.12484050270609 54.71147927471665 34.57359794871954 Q 54.74915843137162 35.022355394732976 54.53593538485853 35.48575151251309 Q 54.32271233834545 35.949147630293204 53.79600856596593 36.33182032058778 Z" fill-opacity="1"/></g></g><g><g><path fill="rgb(0,0,0)" stroke="none" paint-order="stroke fill markers" d=" M 68.04303552290973 28.11677282191483 L 68.04303552290973 28.11677282191483 Q 67.42845416034635 28.390402073984053 66.90070462183316 28.35218734011339 Q 66.37295508331998 28.313972606242725 65.98883333560703 28.051463548791016 Q 65.60471158789407 27.78895449133931 65.43258996159247 27.4023629890817 L 65.43258996159247 27.4023629890817 Q 65.27370846039099 27.045509294690056 65.33348212555711 26.632875521291204 Q 65.39325579072323 26.22024174789235 65.71415461135163 25.833878330256507 Q 66.03505343198005 25.44751491262067 66.6793726024094 25.16064553545132 L 66.6793726024094 25.16064553545132 Q 67.32369177283874 24.87377615828197 67.8277456573522 24.898785749458717 Q 68.33179954186565 24.923795340635465 68.68064927171781 25.160437038976955 Q 69.02949900156996 25.39707873731845 69.19279387780482 25.76384503433208 L 69.19279387780482 25.76384503433208 Q 69.36050212907305 26.1405239339677 69.30405598638507 26.5873088902659 Q 69.24760984369708 27.034093846564097 68.94270076196311 27.443032083238226 Q 68.63779168022913 27.851970319912354 68.04303552290973 28.11677282191483 Z" fill-opacity="1"/></g></g><g><g><path fill="rgb(0,0,0)" stroke="none" paint-order="stroke fill markers" d=" M 84.63518107855167 25.104762388781683 L 84.63518107855167 25.104762388781683 Q 83.96652549211255 25.246889521176637 83.53647076456241 25.232915973970826 Q 83.10641603701228 25.218942426765018 82.55450983868158 25.336253710646567 L 82.55450983868158 25.336253710646567 Q 82.25732957804196 25.399421325044322 81.3944502666882 25.671576827906136 L 81.3944502666882 25.671576827906136 Q 80.08195494232335 26.072580480804458 79.66802529357531 26.160563943715623 L 79.66802529357531 26.160563943715623 Q 79.2222549026159 26.255315365312256 78.93712537815627 25.90547661637982 Q 78.65199585369665 25.55563786744738 78.54145252850057 25.03557241132806 L 78.54145252850057 25.03557241132806 Q 78.44670110690393 24.589802020368648 78.48461944452141 24.11583180155309 Q 78.52253778213888 23.64186158273753 78.70878931506365 23.291665645728372 Q 78.89504084798844 22.941469708719215 79.23467543157656 22.869278149407492 L 79.23467543157656 22.869278149407492 Q 79.74253767113558 22.805701119616916 80.23860610952714 22.999772364151255 L 80.23860610952714 22.999772364151255 Q 80.5120462874515 23.08586123047863 80.81281523513024 23.143954976646278 Q 81.113584182809 23.20204872281392 81.45321876639713 23.129857163502198 L 81.45321876639713 23.129857163502198 Q 81.92021631883081 23.03059376944858 82.12372092367194 22.78766163292496 Q 82.32722552851305 22.544729496401338 82.35088937103816 22.212452981713856 Q 82.37455321356326 21.880176467026377 82.29333770933758 21.498087560489733 L 82.29333770933758 21.498087560489733 Q 82.20309826019792 21.073544331004573 82.0432041858616 20.608341122090472 Q 81.88331011152528 20.14313791317637 81.76825481387222 19.601845295582795 L 81.76825481387222 19.601845295582795 Q 81.59905584673538 18.805826740298123 81.64664046679809 17.98591562191788 Q 81.6942250868608 17.16600450353764 82.14261285369342 16.40511041674288 L 82.14261285369342 16.40511041674288 Q 82.4663030533018 15.892583724346558 82.64858049666866 15.654163560279919 L 82.64858049666866 15.654163560279919 Q 82.88166985749268 15.393849884333695 82.85685400897927 15.277100496225277 L 82.85685400897927 15.277100496225277 Q 82.83203816046587 15.160351108116856 82.51322132295918 15.017348716052181 L 82.51322132295918 15.017348716052181 Q 82.26034195610376 14.871423987353685 81.7841679783758 14.562192990534093 L 81.7841679783758 14.562192990534093 Q 81.04383470264997 14.05396936133036 80.66044130974473 13.320118894835455 Q 80.27704791683946 12.586268428340546 80.10559296347412 11.779636292318745 L 80.10559296347412 11.779636292318745 Q 79.98828167959257 11.227730093988038 79.94593181127625 10.71535588197203 L 79.94593181127625 10.71535588197203 Q 79.90199230713678 10.247691979133025 79.81400884422561 9.833762330384998 L 79.81400884422561 9.833762330384998 Q 79.73279333999993 9.451673423848353 79.5748983168796 9.15244188467666 Q 79.41700329375925 8.85321034550497 79.13341117780669 8.719360365860513 Q 78.84981906185412 8.585510386216056 78.38282150942045 8.684773780269673 L 78.38282150942045 8.684773780269673 Q 78.06441408730659 8.752453367124414 77.81745563390895 8.921423613690795 Q 77.57049718051132 9.09039386025718 77.34509906379061 9.282514079323645 L 77.34509906379061 9.282514079323645 Q 76.94737073403485 9.655474586314126 76.43858520905798 9.819085815195844 L 76.43858520905798 9.819085815195844 Q 76.10956420620698 9.889021388279076 75.80228423485526 9.643728810894766 Q 75.49500426350353 9.398436233510454 75.2675830826928 8.98086567040718 Q 75.04016190188204 8.563295107303905 74.9476664665139 8.128138297081616 L 74.9476664665139 8.128138297081616 Q 74.83712314131782 7.608072840962301 74.95530968486909 7.172506615347189 Q 75.07349622842037 6.736940389732084 75.51926661937978 6.64218896813545 L 75.51926661937978 6.64218896813545 Q 75.93319626812782 6.554205505224289 77.29532328951947 6.386700628542801 L 77.29532328951947 6.386700628542801 Q 78.1942983805291 6.284362417475052 78.49147864116871 6.221194803077296 L 78.49147864116871 6.221194803077296 Q 79.04338483949942 6.1038835191957475 79.43057582870821 5.916199032396104 Q 79.81776681791702 5.728514545596465 80.48642240435613 5.5863874132015106 L 80.48642240435613 5.5863874132015106 Q 81.10201008710962 5.455540211949014 81.71946835357282 5.568343724941563 Q 82.33692662003604 5.68114723793412 82.79705175915204 6.071441258599091 Q 83.25717689826804 6.461735279264058 83.40832797557697 7.172845188651699 L 83.40832797557697 7.172845188651699 Q 83.4760075624317 7.491252610765569 83.46780244830337 7.870162245655882 L 83.46780244830337 7.870162245655882 Q 83.43113636973841 9.419897513657023 83.69959873092888 10.68291362137537 L 83.69959873092888 10.68291362137537 Q 84.40572242044666 14.004964392096737 86.80705706865912 13.716407064114245 L 86.80705706865912 13.716407064114245 Q 87.17694275863546 13.682157855294056 87.29425404251701 14.234064053624762 L 87.29425404251701 14.234064053624762 Q 87.35290968445779 14.510017152790114 87.30396835071036 14.775561378914748 Q 87.25502701696294 15.041105605039382 87.10259126459148 15.106786140678139 L 87.10259126459148 15.106786140678139 Q 86.20787121102632 15.385709602225425 85.80139988424315 16.004576809689443 Q 85.39492855745998 16.623444017153464 85.35377872088007 17.447533932788023 Q 85.31262888430017 18.271623848422582 85.49761975503645 19.14193746886716 L 85.49761975503645 19.14193746886716 Q 85.76608211622693 20.404953576585505 86.42991236631248 21.80579375350622 L 86.42991236631248 21.80579375350622 Q 86.59152454397821 22.148607608740672 86.65920413083295 22.467015030854544 L 86.65920413083295 22.467015030854544 Q 86.81035520814187 23.17812494024218 86.5487568571331 23.721826024444564 Q 86.28715850612434 24.265527108646943 85.76896363371475 24.619721148088065 Q 85.25076876130515 24.973915187529187 84.63518107855167 25.104762388781683 Z" fill-opacity="1"/></g></g></g></g></svg>