<svg version="1.1" xmlns="http://www.w3.org/2000/svg" xmlns:xlink="http://www.w3.org/1999/xlink" width="200" height="200" viewBox="0 0 200 200"><defs/><g><g/><g><g><g><path fill="rgb(0,0,0)" stroke="none" paint-order="stroke fill markers" d=" M 98.62467447916667 21.365887959798176 L 98.62467447916667 21.365887959798176 Q 98.25846354166667 21.365887959798176 97.92887369791667 21.211265563964844 Q 97.59928385416667 21.05664316813151 97.39176432291667 20.76367441813151 Q 97.18424479166667 20.47070566813151 97.18424479166667 20.047528584798176 L 97.18424479166667 20.047528584798176 Q 97.18424479166667 19.681317647298176 97.37955729166667 19.233726501464844 L 97.37955729166667 19.233726501464844 Q 97.69694010416667 18.54199473063151 98.07942708333333 17.76074473063151 L 98.07942708333333 17.76074473063151 Q 98.55143229166667 16.800458272298176 99.00309244791667 15.787274678548176 Q 99.45475260416667 14.774091084798176 99.75992838541667 13.79345957438151 Q 100.06510416666667 12.812828063964844 100.06510416666667 11.982749938964844 L 100.06510416666667 11.982749938964844 Q 100.06510416666667 11.714195251464844 100.03255208333333 11.494468688964844 Q 100 11.274742126464844 100 11.09570566813151 L 100 11.09570566813151 Q 100 10.60742441813151 100.23600260416667 10.285972595214844 Q 100.47200520833333 9.964520772298176 100.83414713541667 9.805829366048176 Q 101.1962890625 9.647137959798176 101.57063802083333 9.647137959798176 L 101.57063802083333 9.647137959798176 Q 102.05891927083333 9.647137959798176 102.43733723958333 9.895347595214844 Q 102.81575520833333 10.14355723063151 102.81575520833333 10.623700459798176 L 102.81575520833333 10.623700459798176 Q 102.81575520833333 10.965497334798176 102.55533854166667 11.429364522298176 L 102.55533854166667 11.429364522298176 Q 101.59505208333333 13.113934834798176 101.02945963541667 15.339683532714844 Q 100.4638671875 17.56543223063151 100.390625 19.412762959798176 L 100.390625 19.412762959798176 Q 100.35807291666667 20.088218688964844 100.09358723958333 20.51953379313151 Q 99.8291015625 20.950848897298176 99.43440755208333 21.158368428548176 Q 99.03971354166667 21.365887959798176 98.62467447916667 21.365887959798176 Z" fill-opacity="1"/></g></g><g><g><path fill="rgb(0,0,0)" stroke="none" paint-order="stroke fill markers" d=" M 111.58618158001414 22.21198361550663 L 111.58618158001414 22.21198361550663 Q 111.2249652823813 22.15170727629249 110.92532062440218 21.94494502311035 Q 110.62567596642303 21.738182769928212 110.46920780246907 21.4150531396006 Q 110.31273963851511 21.09192350927299 110.38239229716255 20.674518009786162 L 110.38239229716255 20.674518009786162 Q 110.4426686363767 20.31330171215333 110.70898840970926 19.90396250707185 L 110.70898840970926 19.90396250707185 Q 111.13589784172886 19.273904549973196 111.64175772069109 18.56626506931347 L 111.64175772069109 18.56626506931347 Q 112.26538334935714 17.696765170507817 112.8776479882634 16.771740898754416 Q 113.48991262716967 15.846716627001012 113.95233285020377 14.929689934907092 Q 114.41475307323789 14.012663242813177 114.55137944212326 13.19390630151209 L 114.55137944212326 13.19390630151209 Q 114.59558209088028 12.929014349914679 114.59963977906364 12.706926674515945 Q 114.60369746724697 12.48483899911721 114.63316589975166 12.308244364718936 L 114.63316589975166 12.308244364718936 Q 114.71353435203717 11.826622634541826 114.9992274193774 11.548399747446561 Q 115.28492048671764 11.270176860351294 115.66824301692513 11.17325640015549 Q 116.05156554713261 11.076335939959685 116.42080887360173 11.13795175337858 L 116.42080887360173 11.13795175337858 Q 116.90243060377884 11.218320205664094 117.23483348142096 11.525430135692067 Q 117.56723635906309 11.832540065720039 117.48820738098233 12.306134767060863 L 117.48820738098233 12.306134767060863 Q 117.43194946438247 12.64326997818484 117.09873451195011 13.05794744730082 L 117.09873451195011 13.05794744730082 Q 115.87427394888343 14.561484460250341 114.95004924976014 16.663783389743614 Q 114.02582455063686 18.76608231923689 113.64952064663008 20.576162597230798 L 113.64952064663008 20.576162597230798 Q 113.50623617228999 21.237048093823432 113.1743656022585 21.61894771049189 Q 112.84249503222703 22.000847327160354 112.41902754144586 22.140572063554835 Q 111.9955600506647 22.280296799949316 111.58618158001414 22.21198361550663 Z" fill-opacity="1"/></g></g><g><g><path fill="rgb(0,0,0)" stroke="none" paint-order="stroke fill markers" d=" M 124.23164785028007 25.17993357995941 L 124.23164785028007 25.17993357995941 Q 123.88527923149321 25.061025082936208 123.62375328443929 24.807762907683102 Q 123.36222733738535 24.554500732429997 123.26107858435803 24.210024355754033 Q 123.1599298313307 23.86554797907807 123.29733520566863 23.465299797368818 L 123.29733520566863 23.465299797368818 Q 123.41624370269183 23.118931178581963 123.74630624018428 22.759009620699295 L 123.74630624018428 22.759009620699295 Q 124.27109731528782 22.207811815966455 124.8865315552258 21.593085415000953 L 124.8865315552258 21.593085415000953 Q 125.64476672274525 20.838089766345327 126.40093486101323 20.026457067363644 Q 127.1571029992812 19.214824368381965 127.76415404585458 18.386416592260943 Q 128.37120509242797 17.558008816139925 128.64073101901388 16.77290661355639 L 128.64073101901388 16.77290661355639 Q 128.72793058349757 16.518902959779364 128.76848736004155 16.300512144327413 Q 128.80904413658553 16.08212132887546 128.86717717957464 15.912785559690777 L 128.86717717957464 15.912785559690777 Q 129.02572184227225 15.450960734641638 129.35331241065523 15.223555978454796 Q 129.68090297903825 14.996151222267953 130.0749500729931 14.963645445627701 Q 130.4689971669479 14.931139668987452 130.82306286615224 15.052690577055612 L 130.82306286615224 15.052690577055612 Q 131.2848876912014 15.211235239753211 131.5622083937432 15.568868306077164 Q 131.839529096285 15.926501372401113 131.68362684463236 16.380629117032765 L 131.68362684463236 16.380629117032765 Q 131.57264558074402 16.703906494567164 131.17572157782178 17.058082924925124 L 131.17572157782178 17.058082924925124 Q 129.72048700225176 18.339574068039372 128.46284049243994 20.261077994596974 Q 127.20519398262813 22.182581921154576 126.53609295166484 23.906037476519174 L 126.53609295166484 23.906037476519174 Q 126.28598451326323 24.53432550699064 125.89578161431206 24.856392410156182 Q 125.5055787153609 25.17845931332172 125.06488883346637 25.246577928287042 Q 124.62419895157183 25.314696543252367 124.23164785028007 25.17993357995941 Z" fill-opacity="1"/></g></g><g><g><path fill="rgb(0,0,0)" stroke="none" paint-order="stroke fill markers" d=" M 136.2161379343819 30.188779914994374 L 136.2161379343819 30.188779914994374 Q 135.89406502744592 30.014482773989588 135.67779153740557 29.7216290086012 Q 135.46151804736522 29.42877524321282 135.41844777957198 29.07234853776133 Q 135.37537751177877 28.71592183230984 135.5767875413843 28.343748695406052 L 135.5767875413843 28.343748695406052 Q 135.7510846823891 28.02167578847008 136.13588673842747 27.720989599639783 L 136.13588673842747 27.720989599639783 Q 136.74424452411435 27.263687186520432 137.4524656832799 26.758641998995365 L 137.4524656832799 26.758641998995365 Q 138.32462771085437 26.138744913658325 139.2040730528553 25.462643011708046 Q 140.08351839485627 24.786541109757763 140.8186414948824 24.069349054244324 Q 141.55376459490853 23.352156998730884 141.94883811451936 22.622125076342684 L 141.94883811451936 22.622125076342684 Q 142.0766560179229 22.385938277922975 142.152605599687 22.177201454560965 Q 142.22855518145113 21.968464631198955 142.31376711705346 21.811006765585816 L 142.31376711705346 21.811006765585816 Q 142.54616330505985 21.381576223004522 142.906715557745 21.211192606674924 Q 143.26726781043016 21.040808990345322 143.66129089061337 21.073604570111137 Q 144.05531397079656 21.10640014987695 144.38454405344223 21.284570560681843 L 144.38454405344223 21.284570560681843 Q 144.8139745960235 21.516966748688226 145.02864853762077 21.915367653538667 Q 145.24332247921802 22.313768558389107 145.01479956101176 22.73604192526071 L 145.01479956101176 22.73604192526071 Q 144.85212222940729 23.036643305067614 144.4023162280912 23.32065768691644 L 144.4023162280912 23.32065768691644 Q 142.75600264572597 24.34514722240935 141.19923964357355 26.033442527901684 Q 139.6424766414211 27.72173783339402 138.69882981540977 29.31155729129229 L 138.69882981540977 29.31155729129229 Q 138.34871971916218 29.890109795995986 137.91082820919166 30.143558840106003 Q 137.47293669922118 30.397007884216023 137.0270452973986 30.391662279507912 Q 136.581153895576 30.3863166747998 136.2161379343819 30.188779914994374 Z" fill-opacity="1"/></g></g><g><g><path fill="rgb(0,0,0)" stroke="none" paint-order="stroke fill markers" d=" M 147.21274618405937 37.101894349679675 L 147.21274618405937 37.101894349679675 Q 146.92375429829409 36.87696293634117 146.7586326422927 36.55250586812451 Q 146.5935109862913 36.22804879990786 146.6096940483618 35.86939415707048 Q 146.62587711043227 35.51073951423311 146.88579785473453 35.17679333512656 L 146.88579785473453 35.17679333512656 Q 147.11072926807304 34.88780144936128 147.5397744456727 34.65455256498425 L 147.5397744456727 34.65455256498425 Q 148.21510452741975 34.303619561209864 148.99679417878565 33.92203190328637 L 148.99679417878565 33.92203190328637 Q 149.95909275985963 33.45414255780481 150.93782632920667 32.93201375030502 Q 151.9165598985537 32.40988494280522 152.75970281018675 31.823471737593614 Q 153.6028457218198 31.237058532382 154.11269025872042 30.5820102579807 L 154.11269025872042 30.5820102579807 Q 154.27763996183532 30.37008287508616 154.38691064221481 30.176693840219123 Q 154.49618132259434 29.983304805352088 154.6061477913376 29.842019883422395 L 154.6061477913376 29.842019883422395 Q 154.90605634245563 29.456697369068685 155.28973535387925 29.347982513492862 Q 155.6734143653029 29.23926765791704 156.0566655092286 29.336470016164604 Q 156.43991665315428 29.433672374412165 156.73533058082546 29.663602263602634 L 156.73533058082546 29.663602263602634 Q 157.12065309517916 29.963510814720635 157.2668245303183 30.391812219966887 Q 157.41299596545744 30.82011362521314 157.1180858901914 31.199014097660953 L 157.1180858901914 31.199014097660953 Q 156.9081499044088 31.46873985770855 156.41773143985804 31.674845019081637 L 156.41773143985804 31.674845019081637 Q 154.62524599360532 32.41438754306986 152.8118309356327 33.82342193262049 Q 150.9984158776601 35.232456322171124 149.80596348211063 36.64527355214162 L 149.80596348211063 36.64527355214162 Q 149.3654018187738 37.15830912692305 148.89176623667797 37.33622688274657 Q 148.41813065458214 37.514144638570095 147.97920048792108 37.435480628350035 Q 147.54027032126 37.356816618129976 147.21274618405937 37.101894349679675 Z" fill-opacity="1"/></g></g><g><g><path fill="rgb(0,0,0)" stroke="none" paint-order="stroke fill markers" d=" M 156.92151379227948 45.730705143381435 L 156.92151379227948 45.730705143381435 Q 156.67348587298295 45.46127500031266 156.56402013935622 45.114064972292226 Q 156.45455440572948 44.76685494427179 156.52954936591647 44.41575552776226 Q 156.60454432610345 44.064656111252724 156.9158858247607 43.77804607117673 L 156.9158858247607 43.77804607117673 Q 157.18531596782947 43.53001815188019 157.64690103298278 43.37056899348777 L 157.64690103298278 43.37056899348777 Q 158.37078216661413 43.135577936587254 159.2046178542039 42.887856524848694 L 159.2046178542039 42.887856524848694 Q 160.2308039920109 42.58473772087086 161.28212848830023 42.23082432060193 Q 162.33345298458957 41.876910920333 163.26161696710972 41.43727238899626 Q 164.1897809496299 40.997633857659515 164.8004892739191 40.43543724058737 L 164.8004892739191 40.43543724058737 Q 164.99807137883622 40.25355009976991 165.13768253851777 40.08078400214143 Q 165.27729369819934 39.908017904512946 165.40901510147742 39.78675981063464 L 165.40901510147742 39.78675981063464 Q 165.76825529223578 39.45605591823926 166.1645952991428 39.41197528127884 Q 166.56093530604983 39.367894644318426 166.92296042157287 39.52685235410238 Q 167.2849855370959 39.685810063886336 167.53852518793238 39.96122754346775 L 167.53852518793238 39.96122754346775 Q 167.86922908032776 40.32046773422611 167.94291083329867 40.7669866940315 Q 168.0165925862696 41.21350565383688 167.66333973202387 41.53869781469234 L 167.66333973202387 41.53869781469234 Q 167.411871598493 41.77019053936911 166.89421800799502 41.89276446874026 L 166.89421800799502 41.89276446874026 Q 165.00445502816777 42.327187189012875 162.98385314993624 43.418525877553385 Q 160.9632512717047 44.50986456609389 159.55452029947625 45.707141597042664 L 159.55452029947625 45.707141597042664 Q 159.03552444276747 46.14066596880571 158.53906433255008 46.23819930376086 Q 158.0426042223327 46.335732638715996 157.62260816157414 46.18589597212102 Q 157.20261210081554 46.036059305526045 156.92151379227948 45.730705143381435 Z" fill-opacity="1"/></g></g><g><g><path fill="rgb(0,0,0)" stroke="none" paint-order="stroke fill markers" d=" M 165.0776108875583 55.83984083127843 L 165.0776108875583 55.83984083127843 Q 164.8773124898084 55.53326131043033 164.82648861841378 55.17276930706153 Q 164.77566474701916 54.81227730369273 164.90742593830603 54.478310190345546 Q 165.03918712959288 54.14434307699836 165.39345679812845 53.91288715070957 L 165.39345679812845 53.91288715070957 Q 165.70003631897654 53.71258875295966 166.1815704343686 53.631288677939864 L 166.1815704343686 53.631288677939864 Q 166.93425702957606 53.51864951136949 167.79749388947968 53.41155154016658 L 167.79749388947968 53.41155154016658 Q 168.8595759012479 53.28147156849324 169.95481393281918 53.10542741043113 Q 171.05005196439046 52.92938325236902 172.0379191238975 52.64851158798989 Q 173.02578628340456 52.36763992361076 173.72069986399356 51.91363022204429 L 173.72069986399356 51.91363022204429 Q 173.94552484594882 51.766744730361026 174.11166825643548 51.619314178746805 Q 174.27781166692213 51.47188362713258 174.42769498822562 51.373959966010396 L 174.42769498822562 51.373959966010396 Q 174.83646768268977 51.10689543567718 175.23465756287302 51.12865142219881 Q 175.6328474430563 51.15040740872043 175.96377142875428 51.3667845180897 Q 176.29469541445226 51.58316162745896 176.4994448877077 51.896554026548124 L 176.4994448877077 51.896554026548124 Q 176.76650941804093 52.30532672101225 176.76569164269657 52.757883362141335 Q 176.76487386735224 53.21044000327041 176.36291405112917 53.47305345809808 L 176.36291405112917 53.47305345809808 Q 176.07677316500428 53.65999862933133 175.54600468908563 53.69569782943368 L 175.54600468908563 53.69569782943368 Q 173.61051198352908 53.81315082663717 171.4378400369608 54.557024939651804 Q 169.26516809039254 55.30089905266644 167.67858505011995 56.24997728825748 L 167.67858505011995 56.24997728825748 Q 167.095311854089 56.59216504225416 166.58956935338188 56.60665350121376 Q 166.08382685267475 56.62114196017337 165.69422129550813 56.40421979087316 Q 165.30461573834154 56.18729762157294 165.0776108875583 55.83984083127843 Z" fill-opacity="1"/></g></g><g><g><path fill="rgb(0,0,0)" stroke="none" paint-order="stroke fill markers" d=" M 171.45856040249492 67.1535505443548 L 171.45856040249492 67.1535505443548 Q 171.3114551444433 66.81818433586295 171.3206594780045 66.45424363926517 Q 171.3298638115657 66.09030294266738 171.51479713212993 65.78257788474737 Q 171.69973045269415 65.47485282682736 172.0872647380625 65.30486452863437 L 172.0872647380625 65.30486452863437 Q 172.42263094655434 65.15775927058274 172.910979116783 65.15682593304864 L 172.910979116783 65.15682593304864 Q 173.6719398453568 65.16961115964405 174.54103102632664 65.20605798244762 L 174.54103102632664 65.20605798244762 Q 175.61003808341624 65.25256508561284 176.71931441184066 65.25919219547663 Q 177.8285907402651 65.2658193053404 178.84921463582518 65.15137595474536 Q 179.86983853138523 65.03693260415032 180.63000193730008 64.70349401923332 L 180.63000193730008 64.70349401923332 Q 180.87593715686077 64.59561682999545 181.06408085901793 64.47754334552076 Q 181.25222456117513 64.35946986104607 181.41618137421557 64.28755173488749 L 181.41618137421557 64.28755173488749 Q 181.86333631887138 64.09141139081866 182.25251449040303 64.17841055422365 Q 182.6416926619347 64.26540971762863 182.93248877413222 64.53330402309263 Q 183.22328488632974 64.80119832855664 183.37365915011583 65.1440171194594 L 183.37365915011583 65.1440171194594 Q 183.56979949418468 65.5911720641152 183.49450449730466 66.0374218211251 Q 183.41920950042464 66.48367157813499 182.97950713817977 66.67654291646934 L 182.97950713817977 66.67654291646934 Q 182.66649867692072 66.81384115731753 182.13709329599436 66.76169184703316 L 182.13709329599436 66.76169184703316 Q 180.20866606026317 66.55897130958091 177.94318887232745 66.93508990040172 Q 175.67771168439177 67.31120849122253 173.95655442550037 67.98619955125125 L 173.95655442550037 67.98619955125125 Q 173.32491406245526 68.2277166975694 172.82368450830538 68.15876507314165 Q 172.32245495415546 68.08981344871391 171.97386732455445 67.81172284801306 Q 171.62527969495343 67.53363224731223 171.45856040249492 67.1535505443548 Z" fill-opacity="1"/></g></g><g><g><path fill="rgb(0,0,0)" stroke="none" paint-order="stroke fill markers" d=" M 175.8903066682158 79.36322577427788 L 175.8903066682158 79.36322577427788 Q 175.80040719782733 79.00822079407548 175.8693886661187 78.6507587577293 Q 175.9383701344101 78.29329672138314 176.17143108535186 78.020207656291 Q 176.40449203629365 77.74711859119887 176.8147200134164 77.64323475874995 L 176.8147200134164 77.64323475874995 Q 177.16972499361881 77.55333528836148 177.6515663536289 77.63279414732796 L 177.6515663536289 77.63279414732796 Q 178.4000441905701 77.77065501943623 179.25128315074096 77.94965246192999 L 179.25128315074096 77.94965246192999 Q 180.29805552732793 78.1714780473944 181.39111198603365 78.36059565490257 Q 182.4841684447394 78.54971326241073 183.50970911704954 78.60481994187246 Q 184.53524978935968 78.65992662133421 185.3399277444851 78.45615448845366 L 185.3399277444851 78.45615448845366 Q 185.60026472996685 78.39022821016879 185.80527665405376 78.30473252969549 Q 186.01028857814066 78.21923684922218 186.18384656846183 78.17528599703226 L 186.18384656846183 78.17528599703226 Q 186.657186542065 78.05542003651429 187.02673723893747 78.20528926641484 Q 187.3962879358099 78.35515849631538 187.6390240146151 78.6672625395694 Q 187.8817600934203 78.97936658282343 187.9736573298174 79.34226056258588 L 187.9736573298174 79.34226056258588 Q 188.09352329033538 79.81560053618907 187.94580492315518 80.24337087899484 Q 187.79808655597498 80.67114122180061 187.33263558193187 80.78900941630995 L 187.33263558193187 80.78900941630995 Q 187.00129760040963 80.87291558867253 186.48769611321035 80.73434026524289 L 186.48769611321035 80.73434026524289 Q 184.61893681526067 80.21697588094361 182.32245069798614 80.21507941488099 Q 180.02596458071164 80.21318294881837 178.21718178650187 80.59567483673754 L 178.21718178650187 80.59567483673754 Q 177.55440375898294 80.72993341721386 177.07135938701956 80.57942252996966 Q 176.58831501505617 80.42891164272547 176.29025387485612 80.09723819728303 Q 175.99219273465607 79.76556475184059 175.8903066682158 79.36322577427788 Z" fill-opacity="1"/></g></g><g><g><path fill="rgb(0,0,0)" stroke="none" paint-order="stroke fill markers" d=" M 178.2519631992924 92.13581840902326 L 178.2519631992924 92.13581840902326 Q 178.2217217397688 91.77085826754133 178.34859870815666 91.4296255239643 Q 178.47547567654448 91.08839278038728 178.75030696266668 90.85738886592867 Q 179.0251382487889 90.62638495147007 179.4468699678347 90.59143926490951 L 179.4468699678347 90.59143926490951 Q 179.81183010931662 90.56119780538594 180.27402128287378 90.71888143031418 L 180.27402128287378 90.71888143031418 Q 180.98959970392673 90.9780574627207 181.79976686347945 91.2947229412849 L 181.79976686347945 91.2947229412849 Q 182.79575133786244 91.68581618533317 183.84277219604152 92.05226565514572 Q 184.8897930542206 92.41871512495825 185.89227642712518 92.64186866791344 Q 186.8947598000298 92.86502221086863 187.72200278738885 92.79647490261523 L 187.72200278738885 92.79647490261523 Q 187.98964022447558 92.77429783229796 188.20592817962932 92.72371205511877 Q 188.42221613478307 92.67312627793956 188.6006410928409 92.65834156439472 L 188.6006410928409 92.65834156439472 Q 189.0872546148168 92.6180196183633 189.42709745736613 92.82667087284764 Q 189.76694029991546 93.035322127332 189.95499513786427 93.38312252367058 Q 190.14304997581306 93.73092292000918 190.17396346777048 94.10399328685737 L 190.17396346777048 94.10399328685737 Q 190.2142854138019 94.59060680883329 189.99817304830515 94.98822927759726 Q 189.7820606828084 95.38585174636123 189.30355738619875 95.42550165995878 L 189.30355738619875 95.42550165995878 Q 188.96292792081562 95.45372702218077 188.4791400370551 95.23250565919012 L 188.4791400370551 95.23250565919012 Q 186.72102355904306 94.4146097797792 184.45617066721647 94.03474998748362 Q 182.19131777538988 93.65489019518805 180.34424832534296 93.73444952937717 L 180.34424832534296 93.73444952937717 Q 179.66841149020752 93.75778731992223 179.21672849169514 93.52982271451302 Q 178.76504549318273 93.30185810910382 178.5256411733009 92.92564900590331 Q 178.28623685341907 92.54943990270279 178.2519631992924 92.13581840902326 Z" fill-opacity="1"/></g></g><g><g><path fill="rgb(0,0,0)" stroke="none" paint-order="stroke fill markers" d=" M 178.479110161936 105.12292541717909 L 178.479110161936 105.12292541717909 Q 178.50935162145956 104.75796527569716 178.6906632169898 104.44226976460669 Q 178.87197481252005 104.12657425351624 179.18107975276894 103.94395667429532 Q 179.49018469301785 103.7613390950744 179.91191641206362 103.79628478163497 L 179.91191641206362 103.79628478163497 Q 180.27687655354558 103.82652624115852 180.70681017027758 104.05813343381101 L 180.70681017027758 104.05813343381101 Q 181.3699700614897 104.43155497997319 182.1169661722599 104.87725068583792 L 182.1169661722599 104.87725068583792 Q 183.0349948843155 105.42694358427642 184.00742014233646 105.9607291301193 Q 184.97984540035742 106.49451467596221 185.93192634072275 106.87962803547691 Q 186.8840072810881 107.2647413949916 187.71125026844712 107.333288703245 L 187.71125026844712 107.333288703245 Q 187.97888770553388 107.35546577356229 188.20055192015846 107.34116974781136 Q 188.42221613478307 107.32687372206043 188.6006410928409 107.34165843560528 L 188.6006410928409 107.34165843560528 Q 189.0872546148168 107.3819803816367 189.38811957620243 107.64372219839574 Q 189.68898453758806 107.90546401515478 189.8172284889236 108.27947367641379 Q 189.94547244025915 108.6534833376728 189.91455894830173 109.02655370452099 L 189.91455894830173 109.02655370452099 Q 189.87423700227032 109.5131672264969 189.59562562042487 109.86979571679561 Q 189.31701423857945 110.2264242070943 188.8385109419698 110.18677429349675 L 188.8385109419698 110.18677429349675 Q 188.49788147658666 110.15854893127477 188.05710366859296 109.86071587082444 L 188.05710366859296 109.86071587082444 Q 186.45758684497116 108.76459856379677 184.2861464614507 108.01713703018147 Q 182.1147060779302 107.2696754965662 180.2797332116927 107.04413210578429 L 180.2797332116927 107.04413210578429 Q 179.60927263602812 106.95591251230911 179.2012717457164 106.65671246891108 Q 178.7932708554047 106.35751242551305 178.619053681607 105.94702966818583 Q 178.4448365078093 105.53654691085862 178.479110161936 105.12292541717909 Z" fill-opacity="1"/></g></g><g><g><path fill="rgb(0,0,0)" stroke="none" paint-order="stroke fill markers" d=" M 176.56555157913368 117.97029237442415 L 176.56555157913368 117.97029237442415 Q 176.65545104952218 117.61528739422175 176.8862515645128 117.33374046620362 Q 177.11705207950345 117.05219353818549 177.4519990968855 116.92294362571492 Q 177.78694611426755 116.79369371324434 178.1971740913903 116.89757754569325 L 178.1971740913903 116.89757754569325 Q 178.5521790715927 116.98747701608173 178.93812766318842 117.2866901359978 L 178.93812766318842 117.2866901359978 Q 179.53077975145627 117.76417122957366 180.19422870681564 118.32673974572491 L 180.19422870681564 118.32673974572491 Q 181.0092602264012 119.02003810922666 181.8805646581487 119.7065994528844 Q 182.7518690898962 120.39316079654213 183.62757731155887 120.92972908408439 Q 184.50328553322154 121.46629737162662 185.30796348834696 121.67006950450717 L 185.30796348834696 121.67006950450717 Q 185.5683004738287 121.73599578279206 185.78929452598467 121.75837946678493 Q 186.01028857814066 121.7807631507778 186.18384656846183 121.82471400296772 L 186.18384656846183 121.82471400296772 Q 186.657186542065 121.9445799634857 186.91086681043674 122.25227270806823 Q 187.1645470788085 122.55996545265077 187.22948198284539 122.94998237024147 Q 187.29441688688226 123.33999928783217 187.20251965048516 123.70289326759462 L 187.20251965048516 123.70289326759462 Q 187.08265368996717 124.1762332411978 186.74914308398414 124.48213985747698 Q 186.4156324780011 124.78804647375615 185.95018150395796 124.67017827924681 L 185.95018150395796 124.67017827924681 Q 185.61884352243572 124.58627210688424 185.23309905978894 124.21995145847046 L 185.23309905978894 124.21995145847046 Q 183.8358125398766 122.8755119465972 181.81701589780207 121.78083747381244 Q 179.7982192557275 120.68616300102767 178.02539624967312 120.16166912102754 L 178.02539624967312 120.16166912102754 Q 177.37860035022325 119.96429854407081 177.025410768821 119.60202445991155 Q 176.67222118741876 119.23975037575228 176.56794335005608 118.80619086386956 Q 176.4636655126934 118.37263135198685 176.56555157913368 117.97029237442415 Z" fill-opacity="1"/></g></g><g><g><path fill="rgb(0,0,0)" stroke="none" paint-order="stroke fill markers" d=" M 172.56348434074934 130.32747660075088 L 172.56348434074934 130.32747660075088 Q 172.71058959880096 129.99211039225904 172.9845833968551 129.75239191357153 Q 173.25857719490924 129.512673434884 173.61022980793197 129.44031678984658 Q 173.96188242095468 129.36796014480916 174.34941670632304 129.53794844300216 L 174.34941670632304 129.53794844300216 Q 174.6847829148149 129.6850537010538 175.01621880978848 130.04371099431253 L 175.01621880978848 130.04371099431253 Q 175.52219709107277 130.61222719576963 176.08400173300146 131.27632311959346 L 176.08400173300146 131.27632311959346 Q 176.7738041248913 132.0943155760961 177.5202208167884 132.91492511384553 Q 178.2666375086855 133.73553465159497 179.04208597415953 134.40892168300974 Q 179.81753443963353 135.08230871442453 180.57769784554839 135.41574729934155 L 180.57769784554839 135.41574729934155 Q 180.82363306510908 135.5236244885794 181.0379288131421 135.58207731376666 Q 181.25222456117513 135.6405301389539 181.41618137421557 135.71244826511247 L 181.41618137421557 135.71244826511247 Q 181.86333631887138 135.90858860918132 182.06291215780317 136.25383922561025 Q 182.26248799673496 136.5990898420392 182.2623425985637 136.99447537114796 Q 182.26219720039245 137.3898609002567 182.11182293660636 137.73267969115946 L 182.11182293660636 137.73267969115946 Q 181.9156825925375 138.17983463581527 181.5363700623508 138.42667504302185 Q 181.15705753216412 138.67351545022842 180.71735516991924 138.48064411189407 L 180.71735516991924 138.48064411189407 Q 180.4043467086602 138.3433458710459 180.08415769474055 137.91852990703075 L 180.08415769474055 137.91852990703075 Q 178.9272158123468 136.36244099550356 177.1161304215039 134.95041344956348 Q 175.30504503066098 133.53838590362344 173.64272987499024 132.729248360198 L 173.64272987499024 132.729248360198 Q 173.03724155782098 132.4281105545924 172.7484973764123 132.0126443223097 Q 172.45975319500366 131.597178090027 172.42825912164724 131.15236819686766 Q 172.39676504829083 130.7075583037083 172.56348434074934 130.32747660075088 Z" fill-opacity="1"/></g></g><g><g><path fill="rgb(0,0,0)" stroke="none" paint-order="stroke fill markers" d=" M 166.58207440843543 141.8574063232403 L 166.58207440843543 141.8574063232403 Q 166.78237280618532 141.5508268023922 167.09208605074056 141.35947566823444 Q 167.4017992952958 141.16812453407667 167.76056533736588 141.15463485712934 Q 168.11933137943598 141.14114518018204 168.47360104797156 141.37260110647082 L 168.47360104797156 141.37260110647082 Q 168.78018056881965 141.57289950422071 169.04806305994515 141.98121773481182 L 169.04806305994515 141.98121773481182 Q 169.4535657657194 142.62526140418555 169.89840152810098 143.37276993004895 L 169.89840152810098 143.37276993004895 Q 170.44415878122498 144.29314377768625 171.04532743167982 145.225417420507 Q 171.64649608213466 146.15769106332775 172.30053257872518 146.94952859578703 Q 172.9545690753157 147.7413661282463 173.6494826559047 148.19537582981278 L 173.6494826559047 148.19537582981278 Q 173.87430763785997 148.34226132149604 174.07605965239105 148.4351888471817 Q 174.27781166692213 148.5281163728674 174.42769498822562 148.62604003398957 L 174.42769498822562 148.62604003398957 Q 174.83646768268977 148.89310456432278 174.97649518355092 149.26649551578313 Q 175.11652268441208 149.6398864672435 175.05130095011577 150.02985552132935 Q 174.9860792158195 150.41982457541522 174.78132974256403 150.7332169745044 L 174.78132974256403 150.7332169745044 Q 174.5142652122308 151.1419896689685 174.09949741486997 151.32303070425883 Q 173.68472961750913 151.50407173954912 173.28276980128607 151.24145828472146 L 173.28276980128607 151.24145828472146 Q 172.99662891516118 151.0545131134882 172.75072927159798 150.58278970595745 L 172.75072927159798 150.58278970595745 Q 171.86569038535208 148.85749744386175 170.31171793405574 147.16663325533855 Q 168.75774548275942 145.47576906681536 167.2512818015868 144.4040590228851 L 167.2512818015868 144.4040590228851 Q 166.7036172096003 144.00736824295987 166.48719461675415 143.5500426983308 Q 166.270772023908 143.0927171537017 166.31292079078008 142.64879013361826 Q 166.3550695576522 142.2048631135348 166.58207440843543 141.8574063232403 Z" fill-opacity="1"/></g></g><g><g><path fill="rgb(0,0,0)" stroke="none" paint-order="stroke fill markers" d=" M 158.7844790527735 152.2455751153464 L 158.7844790527735 152.2455751153464 Q 159.03250697207002 151.97614497227764 159.36949149317707 151.83838074277426 Q 159.70647601428408 151.70061651327092 160.06256928300715 151.74636176763585 Q 160.4186625517302 151.79210702200075 160.73000405038746 152.07871706207675 L 160.73000405038746 152.07871706207675 Q 160.99943419345624 152.32674498137328 161.19645614469323 152.7735862923724 L 161.19645614469323 152.7735862923724 Q 161.4904222182106 153.4755895972588 161.8061551410476 154.28612064118548 L 161.8061551410476 154.28612064118548 Q 162.1929804202235 155.28377048062947 162.63250271558138 156.30227823380136 Q 163.07202501093929 157.32078598697328 163.5868091279652 158.20947475675797 Q 164.10159324499114 159.0981635265427 164.71230156928036 159.66036014361484 L 164.71230156928036 159.66036014361484 Q 164.90988367419746 159.8422472844323 165.09358868619842 159.96711468995966 Q 165.27729369819937 160.09198209548703 165.40901510147745 160.2132401893653 L 165.40901510147745 160.2132401893653 Q 165.7682552922358 160.5439440817607 165.8449148698273 160.9352902364542 Q 165.9215744474188 161.3266363911477 165.7930554558887 161.70055163098866 Q 165.66453646435858 162.0744668708296 165.41099681352213 162.34988435041103 L 165.41099681352213 162.34988435041103 Q 165.08029292112676 162.7091245411694 164.6413836408848 162.81942787703946 Q 164.2024743606429 162.92973121290956 163.84922150639716 162.6045390520541 L 163.84922150639716 162.6045390520541 Q 163.59775337286632 162.37304632737732 163.43285060092342 161.86728286119725 L 163.43285060092342 161.86728286119725 Q 162.84385626451797 160.01984872394175 161.58938507033574 158.09627026014437 Q 160.3349138761535 156.17269179634695 159.02539407164366 154.86764270817068 L 159.02539407164366 154.86764270817068 Q 158.55049206725428 154.38621964430652 158.4122945071319 153.8995094360298 Q 158.2740969470095 153.4127992277531 158.38873884562346 152.98186425262207 Q 158.5033807442374 152.550929277491 158.7844790527735 152.2455751153464 Z" fill-opacity="1"/></g></g><g><g><path fill="rgb(0,0,0)" stroke="none" paint-order="stroke fill markers" d=" M 149.38339634825192 161.20862081235558 L 149.38339634825192 161.20862081235558 Q 149.6723882340172 160.98368939901707 150.02745197239332 160.90326992322443 Q 150.38251571076944 160.8228504474318 150.72622291004058 160.92658282181887 Q 151.06993010931168 161.03031519620592 151.32985085361398 161.36426137531248 L 151.32985085361398 161.36426137531248 Q 151.55478226695246 161.65325326107777 151.67556943306914 162.1264289863492 L 151.67556943306914 162.1264289863492 Q 151.8499802461564 162.86724310657698 152.02799795836813 163.71868749458534 L 152.02799795836813 163.71868749458534 Q 152.2453396783583 164.76640003889503 152.51122659615098 165.84335966596313 Q 152.77711351394365 166.92031929303124 153.13860328263456 167.88161818714033 Q 153.50009305132548 168.84291708124945 154.00993758822608 169.49796535565076 L 154.00993758822608 169.49796535565076 Q 154.17488729134098 169.7098927385453 154.33553430696767 169.86329396659661 Q 154.49618132259434 170.0166951946479 154.6061477913376 170.1579801165776 L 154.6061477913376 170.1579801165776 Q 154.90605634245563 170.5433026309313 154.91725692333733 170.9419290859212 Q 154.92845750421907 171.34055554091108 154.74014691852008 171.68821753348857 Q 154.5518363328211 172.03587952606603 154.25642240514992 172.2658094152565 L 154.25642240514992 172.2658094152565 Q 153.87109989079622 172.5657179663745 153.4200214286871 172.60227481536117 Q 152.968942966578 172.6388316643478 152.67403289131198 172.2599311919 L 152.67403289131198 172.2599311919 Q 152.46409690552937 171.9902054318524 152.3846891229559 171.46419781595344 L 152.3846891229559 171.46419781595344 Q 152.10780556649442 169.54501499090108 151.18705433344124 167.4411924579271 Q 150.26630310038806 165.33736992495307 149.18944745914467 163.83458012964718 L 149.18944745914467 163.83458012964718 Q 148.80026213105504 163.28155674805 148.74405927284238 162.77873806184866 Q 148.68785641462975 162.2759193756473 148.8718643128405 161.86973122822658 Q 149.05587221105128 161.46354308080586 149.38339634825192 161.20862081235558 Z" fill-opacity="1"/></g></g><g><g><path fill="rgb(0,0,0)" stroke="none" paint-order="stroke fill markers" d=" M 138.63526332425653 168.50205489256967 L 138.63526332425653 168.50205489256967 Q 138.9573362311925 168.3277577515649 139.3207939736369 168.30687666314464 Q 139.6842517160813 168.2859955747244 140.00619740948218 168.44488552037046 Q 140.32814310288305 168.60377546601654 140.5295531324886 168.9759486029203 L 140.5295531324886 168.9759486029203 Q 140.70385027349337 169.29802150985628 140.7451078954667 169.7846246490917 L 140.7451078954667 169.7846246490917 Q 140.7952059757979 170.54404210661934 140.83065261825277 171.41317465535442 L 140.83065261825277 171.41317465535442 Q 140.8725822635034 172.4823710375038 140.95758110172898 173.58840588726588 Q 141.04257993995452 174.69444073702797 141.24091486175402 175.7021280275494 Q 141.43924978355355 176.7098153180708 141.83432330316438 177.43984724045902 L 141.83432330316438 177.43984724045902 Q 141.9621412065679 177.67603403887873 142.09534819400952 177.8537847038399 Q 142.22855518145116 178.03153536880103 142.3137671170535 178.18899323441417 L 142.3137671170535 178.18899323441417 Q 142.54616330505988 178.61842377699548 142.49159936658313 179.01345704173124 Q 142.43703542810636 179.40849030646703 142.19406987012732 179.72041573891067 Q 141.95110431214826 180.03234117135432 141.6218742295026 180.21051158215923 L 141.6218742295026 180.21051158215923 Q 141.1924436869213 180.44290777016562 140.74150028751757 180.40472095672507 Q 140.29055688811383 180.36653414328453 140.06203396990753 179.9442607764129 L 140.06203396990753 179.9442607764129 Q 139.89935663830306 179.643659396606 139.90760988240703 179.11175574755038 L 139.90760988240703 179.11175574755038 Q 139.9503897675282 177.17317453923235 139.38847418902245 174.94649473152523 Q 138.82655861051668 172.71981492381812 138.01174094727972 171.06027660951793 L 138.01174094727972 171.06027660951793 Q 137.71888825670965 170.45073794641337 137.7462131678689 169.94552636529644 Q 137.7735380790281 169.44031478417952 138.02189272104528 169.0699532182773 Q 138.27024736306242 168.6995916523751 138.63526332425653 168.50205489256967 Z" fill-opacity="1"/></g></g><g><g><path fill="rgb(0,0,0)" stroke="none" paint-order="stroke fill markers" d=" M 126.83326103139022 173.92693148684413 L 126.83326103139022 173.92693148684413 Q 127.17962965017708 173.80802298982093 127.54156721693948 173.84724987043225 Q 127.90350478370189 173.8864767510436 128.19490713196635 174.09619016442662 Q 128.48630948023077 174.3059035778096 128.6237148545687 174.70615175951886 L 128.6237148545687 174.70615175951886 Q 128.7426233515919 175.05252037830573 128.70322602904506 175.53927766634646 L 128.70322602904506 175.53927766634646 Q 128.6276448315847 176.2965835325862 128.51955351227903 177.15969657177794 L 128.51955351227903 177.15969657177794 Q 128.38492735137015 178.22121190164893 128.28671956329723 179.32615222662116 Q 128.18851177522427 180.4310925515934 128.21828179048626 181.4576811560864 Q 128.24805180574822 182.48426976057942 128.51757773233413 183.26937196316297 L 128.51757773233413 183.26937196316297 Q 128.60477729681782 183.52337561694 128.70691071670169 183.72062714403228 Q 128.80904413658553 183.91787867112453 128.86717717957467 184.08721444030922 L 128.86717717957467 184.08721444030922 Q 129.02572184227225 184.54903926535837 128.9068817464411 184.92970386215288 Q 128.78804165060993 185.3103684589474 128.49704858740853 185.57804881858908 Q 128.20605552420716 185.84572917823078 127.85198982500282 185.96728008629896 L 127.85198982500282 185.96728008629896 Q 127.39016499995367 186.12582474899654 126.95165722366932 186.01393590985387 Q 126.51314944738495 185.9020470707112 126.35724719573231 185.44791932607956 L 126.35724719573231 185.44791932607956 Q 126.246265931844 185.12464194854516 126.34195507564081 184.60135121130975 L 126.34195507564081 184.60135121130975 Q 126.7032314785974 182.69625106158495 126.51547914681609 180.4074519997779 Q 126.32772681503478 178.11865293797086 125.79717323158624 176.34763398379698 L 125.79717323158624 176.34763398379698 Q 125.60864143652451 175.69820666496582 125.7187487647099 175.2043830438779 Q 125.82885609289531 174.71055942278997 126.13478301149688 174.3861269364635 Q 126.44070993009845 174.06169445013708 126.83326103139022 173.92693148684413 Z" fill-opacity="1"/></g></g><g><g><path fill="rgb(0,0,0)" stroke="none" paint-order="stroke fill markers" d=" M 114.29931732667855 177.33527410328497 L 114.29931732667855 177.33527410328497 Q 114.66053362431138 177.27499776407083 115.01107830207134 177.37326260666754 Q 115.36162297983131 177.47152744926422 115.61453328652789 177.72634389514914 Q 115.86744359322446 177.98116034103407 115.9370962518719 178.39856584052092 L 115.9370962518719 178.39856584052092 Q 115.99737259108605 178.75978213815372 115.87839498027692 179.23341610506364 L 115.87839498027692 179.23341610506364 Q 115.67919616306628 179.96795305013345 115.43051533141771 180.80150310604049 L 115.43051533141771 180.80150310604049 Q 115.12300561507467 181.82638201259812 114.8442700531533 182.90008792107975 Q 114.5655344912319 183.97379382956134 114.42592755154462 184.99128108701214 Q 114.28632061185733 186.00876834446296 114.42294698074271 186.82752528576404 L 114.42294698074271 186.82752528576404 Q 114.46714962949974 187.09241723736145 114.53542354837337 187.30378911912211 Q 114.60369746724699 187.51516100088278 114.63316589975167 187.69175563528105 L 114.63316589975167 187.69175563528105 Q 114.71353435203719 188.17337736545818 114.53365974687289 188.52928975642945 Q 114.35378514170858 188.8852021474007 114.02270210548669 189.10133581182 Q 113.69161906926479 189.31746947623932 113.32237574279567 189.37908528965824 L 113.32237574279567 189.37908528965824 Q 112.84075401261856 189.45945374194375 112.42664320848615 189.27691491295832 Q 112.01253240435376 189.0943760839729 111.933503426273 188.62078138263206 L 111.933503426273 188.62078138263206 Q 111.87724550967314 188.2836461715081 112.05776040276304 187.78324235328756 L 112.05776040276304 187.78324235328756 Q 112.72767864505965 185.963589428015 112.91921095418 183.6751035840603 Q 113.11074326330035 181.38661774010558 112.87892587834672 179.55242692642602 L 112.87892587834672 179.55242692642602 Q 112.7998576346969 178.8808256361953 112.98974393902397 178.41186019621756 Q 113.17963024335103 177.94289475623978 113.53478454968952 177.67324102198373 Q 113.88993885602801 177.40358728772765 114.29931732667855 177.33527410328497 Z" fill-opacity="1"/></g></g><g><g><path fill="rgb(0,0,0)" stroke="none" paint-order="stroke fill markers" d=" M 101.37532552083334 178.6341120402018 L 101.37532552083334 178.6341120402018 Q 101.74153645833334 178.6341120402018 102.07112630208334 178.78873443603516 Q 102.40071614583334 178.9433568318685 102.60823567708334 179.2363255818685 Q 102.81575520833334 179.5292943318685 102.81575520833334 179.9524714152018 L 102.81575520833334 179.9524714152018 Q 102.81575520833334 180.3186823527018 102.62044270833334 180.76627349853516 L 102.62044270833334 180.76627349853516 Q 102.30305989583334 181.4580052693685 101.92057291666669 182.2392552693685 L 101.92057291666669 182.2392552693685 Q 101.44856770833334 183.1995417277018 100.99690755208334 184.2127253214518 Q 100.54524739583334 185.2259089152018 100.24007161458334 186.2065404256185 Q 99.93489583333334 187.18717193603516 99.93489583333334 188.01725006103516 L 99.93489583333334 188.01725006103516 Q 99.93489583333334 188.28580474853516 99.96744791666669 188.50553131103516 Q 100.00000000000001 188.72525787353516 100.00000000000001 188.9042943318685 L 100.00000000000001 188.9042943318685 Q 100.00000000000001 189.3925755818685 99.76399739583334 189.71402740478516 Q 99.52799479166669 190.0354792277018 99.16585286458334 190.1941706339518 Q 98.80371093750001 190.3528620402018 98.42936197916669 190.3528620402018 L 98.42936197916669 190.3528620402018 Q 97.94108072916669 190.3528620402018 97.56266276041669 190.10465240478516 Q 97.18424479166669 189.8564427693685 97.18424479166669 189.3762995402018 L 97.18424479166669 189.3762995402018 Q 97.18424479166669 189.0345026652018 97.44466145833334 188.5706354777018 L 97.44466145833334 188.5706354777018 Q 98.40494791666669 186.8860651652018 98.97054036458334 184.66031646728516 Q 99.53613281250001 182.4345677693685 99.60937500000001 180.5872370402018 L 99.60937500000001 180.5872370402018 Q 99.64192708333334 179.91178131103516 99.90641276041669 179.4804662068685 Q 100.17089843750001 179.0491511027018 100.56559244791669 178.8416315714518 Q 100.96028645833334 178.6341120402018 101.37532552083334 178.6341120402018 Z" fill-opacity="1"/></g></g><g><g><path fill="rgb(0,0,0)" stroke="none" paint-order="stroke fill markers" d=" M 88.41381841998586 177.78801638449337 L 88.41381841998586 177.78801638449337 Q 88.7750347176187 177.84829272370752 89.07467937559782 178.05505497688964 Q 89.37432403357697 178.26181723007178 89.53079219753093 178.5849468603994 Q 89.68726036148489 178.908076490727 89.61760770283745 179.32548199021383 L 89.61760770283745 179.32548199021383 Q 89.5573313636233 179.68669828784667 89.29101159029074 180.09603749292816 L 89.29101159029074 180.09603749292816 Q 88.86410215827114 180.7260954500268 88.35824227930891 181.43373493068654 L 88.35824227930891 181.43373493068654 Q 87.73461665064286 182.30323482949217 87.1223520117366 183.22825910124558 Q 86.51008737283033 184.153283372999 86.04766714979623 185.0703100650929 Q 85.58524692676212 185.98733675718682 85.44862055787674 186.8060936984879 L 85.44862055787674 186.8060936984879 Q 85.40441790911972 187.07098565008533 85.40036022093636 187.29307332548404 Q 85.39630253275303 187.51516100088278 85.36683410024834 187.69175563528105 L 85.36683410024834 187.69175563528105 Q 85.28646564796283 188.17337736545818 85.0007725806226 188.45160025255345 Q 84.71507951328236 188.72982313964872 84.33175698307487 188.82674359984452 Q 83.94843445286739 188.92366406004032 83.57919112639827 188.8620482466214 L 83.57919112639827 188.8620482466214 Q 83.09756939622116 188.7816797943359 82.76516651857904 188.47456986430794 Q 82.43276364093691 188.16745993427998 82.51179261901767 187.69386523293915 L 82.51179261901767 187.69386523293915 Q 82.56805053561753 187.35673002181517 82.9012654880499 186.94205255269918 L 82.9012654880499 186.94205255269918 Q 84.12572605111657 185.43851553974966 85.04995075023986 183.33621661025637 Q 85.97417544936314 181.2339176807631 86.35047935336992 179.4238374027692 L 86.35047935336992 179.4238374027692 Q 86.49376382771001 178.76295190617657 86.8256343977415 178.38105228950812 Q 87.15750496777297 177.99915267283964 87.58097245855414 177.85942793644517 Q 88.0044399493353 177.71970320005067 88.41381841998586 177.78801638449337 Z" fill-opacity="1"/></g></g><g><g><path fill="rgb(0,0,0)" stroke="none" paint-order="stroke fill markers" d=" M 75.76835214971993 174.82006642004063 L 75.76835214971993 174.82006642004063 Q 76.11472076850679 174.93897491706383 76.37624671556071 175.19223709231693 Q 76.63777266261465 175.44549926757003 76.73892141564197 175.789975644246 Q 76.8400701686693 176.13445202092197 76.70266479433137 176.5347002026312 L 76.70266479433137 176.5347002026312 Q 76.58375629730817 176.88106882141807 76.25369375981572 177.24099037930074 L 76.25369375981572 177.24099037930074 Q 75.72890268471218 177.79218818403356 75.1134684447742 178.40691458499907 L 75.1134684447742 178.40691458499907 Q 74.35523327725475 179.1619102336547 73.59906513898679 179.97354293263638 Q 72.8428970007188 180.78517563161807 72.23584595414542 181.61358340773907 Q 71.62879490757203 182.4419911838601 71.35926898098612 183.22709338644364 L 71.35926898098612 183.22709338644364 Q 71.27206941650243 183.48109704022067 71.23151263995845 183.6994878556726 Q 71.19095586341447 183.91787867112456 71.13282282042536 184.08721444030925 L 71.13282282042536 184.08721444030925 Q 70.97427815772775 184.5490392653584 70.64668758934475 184.77644402154525 Q 70.31909702096175 185.0038487777321 69.92504992700692 185.03635455437234 Q 69.53100283305209 185.0688603310126 69.17693713384776 184.94730942294441 L 69.17693713384776 184.94730942294441 Q 68.71511230879861 184.7887647602468 68.43779160625681 184.43113169392288 Q 68.16047090371501 184.07349862759892 68.31637315536764 183.61937088296727 L 68.31637315536764 183.61937088296727 Q 68.42735441925596 183.29609350543288 68.82427842217822 182.9419170750749 L 68.82427842217822 182.9419170750749 Q 70.27951299774826 181.66042593196065 71.53715950756006 179.73892200540305 Q 72.79480601737187 177.81741807884546 73.46390704833516 176.09396252348085 L 73.46390704833516 176.09396252348085 Q 73.71401548673677 175.46567449300937 74.10421838568794 175.14360758984384 Q 74.4944212846391 174.8215406866783 74.93511116653363 174.75342207171298 Q 75.37580104842817 174.68530345674765 75.76835214971993 174.82006642004063 Z" fill-opacity="1"/></g></g><g><g><path fill="rgb(0,0,0)" stroke="none" paint-order="stroke fill markers" d=" M 63.7838620656181 169.81122008500563 L 63.7838620656181 169.81122008500563 Q 64.10593497255407 169.98551722601042 64.32220846259442 170.2783709913988 Q 64.53848195263477 170.5712247567872 64.581552220428 170.92765146223869 Q 64.62462248822122 171.28407816769015 64.42321245861568 171.65625130459395 L 64.42321245861568 171.65625130459395 Q 64.2489153176109 171.97832421152992 63.86411326157253 172.27901040036022 L 63.86411326157253 172.27901040036022 Q 63.25575547588564 172.73631281347957 62.54753431672008 173.24135800100464 L 62.54753431672008 173.24135800100464 Q 61.675372289145606 173.86125508634169 60.795926947144665 174.53735698829195 Q 59.91648160514372 175.21345889024224 59.18135850511759 175.93065094575567 Q 58.446235405091464 176.6478430012691 58.05116188548062 177.37787492365732 L 58.05116188548062 177.37787492365732 Q 57.92334398207711 177.61406172207703 57.847394400312986 177.82279854543904 Q 57.771444818548865 178.03153536880103 57.68623288294653 178.18899323441417 L 57.68623288294653 178.18899323441417 Q 57.45383669494014 178.61842377699548 57.09328444225498 178.78880739332507 Q 56.732732189569816 178.9591910096547 56.33870910938661 178.92639542988886 Q 55.94468602920342 178.89359985012305 55.61545594655776 178.71542943931814 L 55.61545594655776 178.71542943931814 Q 55.186025403976465 178.48303325131178 54.97135146237921 178.08463234646132 Q 54.75667752078195 177.6862314416109 54.98520043898823 177.2639580747393 L 54.98520043898823 177.2639580747393 Q 55.14787777059269 176.96335669493237 55.597683771908784 176.67934231308357 L 55.597683771908784 176.67934231308357 Q 57.243997354274015 175.65485277759066 58.800760356426444 173.96655747209832 Q 60.357523358578874 172.27826216660597 61.30117018459022 170.6884427087077 L 61.30117018459022 170.6884427087077 Q 61.6512802808378 170.10989020400402 62.089171790808315 169.856441159894 Q 62.52706330077882 169.602992115784 62.97295470260141 169.6083377204921 Q 63.418846104424 169.61368332520018 63.7838620656181 169.81122008500563 Z" fill-opacity="1"/></g></g><g><g><path fill="rgb(0,0,0)" stroke="none" paint-order="stroke fill markers" d=" M 52.787253815940645 162.89810565032033 L 52.787253815940645 162.89810565032033 Q 53.07624570170593 163.12303706365884 53.24136735770731 163.44749413187552 Q 53.4064890137087 163.77195120009216 53.390305951638226 164.13060584292953 Q 53.37412288956775 164.48926048576692 53.11420214526548 164.82320666487345 L 53.11420214526548 164.82320666487345 Q 52.88927073192698 165.11219855063874 52.46022555432733 165.34544743501579 L 52.46022555432733 165.34544743501579 Q 51.784895472580246 165.69638043879016 51.00320582121437 166.07796809671365 L 51.00320582121437 166.07796809671365 Q 50.040907240140385 166.5458574421952 49.06217367079335 167.067986249695 Q 48.08344010144632 167.5901150571948 47.24029718981326 168.1765282624064 Q 46.39715427818021 168.76294146761802 45.88730974127961 169.41798974201933 L 45.88730974127961 169.41798974201933 Q 45.72236003816471 169.62991712491387 45.613089357785185 169.8233061597809 Q 45.50381867740566 170.01669519464792 45.393852208662395 170.15798011657762 L 45.393852208662395 170.15798011657762 Q 45.09394365754439 170.54330263093135 44.710264646120756 170.65201748650716 Q 44.32658563469711 170.76073234208297 43.94333449077143 170.66352998383542 Q 43.560083346845744 170.56632762558786 43.26466941917457 170.3363977363974 L 43.26466941917457 170.3363977363974 Q 42.879346904820856 170.03648918527938 42.73317546968172 169.60818778003312 Q 42.58700403454258 169.1798863747869 42.88191410980861 168.80098590233908 L 42.88191410980861 168.80098590233908 Q 43.09185009559121 168.53126014229147 43.58226856014196 168.3251549809184 L 43.58226856014196 168.3251549809184 Q 45.374754006394696 167.58561245693016 47.188169064367294 166.17657806737952 Q 49.0015841223399 164.7675436778289 50.194036517889394 163.3547264478584 L 50.194036517889394 163.3547264478584 Q 50.63459818122621 162.84169087307697 51.10823376332204 162.66377311725344 Q 51.581869345417864 162.4858553614299 52.02079951207893 162.56451937165 Q 52.45972967874 162.64318338187005 52.787253815940645 162.89810565032033 Z" fill-opacity="1"/></g></g><g><g><path fill="rgb(0,0,0)" stroke="none" paint-order="stroke fill markers" d=" M 43.07848620772055 154.2692948566186 L 43.07848620772055 154.2692948566186 Q 43.32651412701709 154.53872499968736 43.435979860643826 154.8859350277078 Q 43.54544559427056 155.23314505572822 43.470450634083576 155.58424447223777 Q 43.39545567389659 155.9353438887473 43.08411417523934 156.2219539288233 L 43.08411417523934 156.2219539288233 Q 42.81468403217057 156.46998184811983 42.35309896701725 156.62943100651225 L 42.35309896701725 156.62943100651225 Q 41.6292178333859 156.86442206341277 40.79538214579614 157.11214347515133 L 40.79538214579614 157.11214347515133 Q 39.76919600798915 157.41526227912917 38.71787151169981 157.76917567939807 Q 37.66654701541048 158.123089079667 36.73838303289032 158.56272761100377 Q 35.81021905037015 159.00236614234052 35.19951072608093 159.56456275941267 L 35.19951072608093 159.56456275941267 Q 35.001928621163835 159.74644990023012 34.86231746148226 159.9192159978586 Q 34.72270630180069 160.09198209548708 34.59098489852262 160.2132401893654 L 34.59098489852262 160.2132401893654 Q 34.23174470776426 160.54394408176077 33.83540470085723 160.5880247187212 Q 33.43906469395021 160.6321053556816 33.07703957842716 160.47314764589765 Q 32.71501446290412 160.31418993611368 32.461474812067664 160.03877245653229 L 32.461474812067664 160.03877245653229 Q 32.13077091967228 159.6795322657739 32.05708916670136 159.2330133059685 Q 31.98340741373044 158.78649434616315 32.33666026797617 158.4613021853077 L 32.33666026797617 158.4613021853077 Q 32.58812840150702 158.22980946063092 33.10578199200501 158.10723553125976 L 33.10578199200501 158.10723553125976 Q 34.99554497183228 157.67281281098715 37.01614685006381 156.58147412244665 Q 39.03674872829534 155.49013543390612 40.4454797005238 154.29285840295736 L 40.4454797005238 154.29285840295736 Q 40.96447555723256 153.8593340311943 41.46093566744995 153.76180069623916 Q 41.95739577766734 153.66426736128403 42.37739183842591 153.814104027879 Q 42.79738789918448 153.96394069447396 43.07848620772055 154.2692948566186 Z" fill-opacity="1"/></g></g><g><g><path fill="rgb(0,0,0)" stroke="none" paint-order="stroke fill markers" d=" M 34.92238911244171 144.16015916872158 L 34.92238911244171 144.16015916872158 Q 35.12268751019162 144.46673868956967 35.17351138158624 144.82723069293846 Q 35.22433525298085 145.18772269630728 35.092574061693995 145.52168980965445 Q 34.96081287040713 145.85565692300165 34.60654320187156 146.08711284929043 L 34.60654320187156 146.08711284929043 Q 34.29996368102346 146.28741124704032 33.8184295656314 146.36871132206014 L 33.8184295656314 146.36871132206014 Q 33.06574297042396 146.4813504886305 32.20250611052034 146.58844845983342 L 32.20250611052034 146.58844845983342 Q 31.14042409875212 146.71852843150677 30.045186067180836 146.89457258956887 Q 28.949948035609548 147.07061674763096 27.962080876102505 147.3514884120101 Q 26.97421371659546 147.63236007638923 26.279300136006448 148.0863697779557 L 26.279300136006448 148.0863697779557 Q 26.05447515405118 148.233255269639 25.888331743564535 148.3806858212532 Q 25.722188333077895 148.52811637286743 25.572305011774382 148.6260400339896 L 25.572305011774382 148.6260400339896 Q 25.163532317310256 148.8931045643228 24.765342437126986 148.8713485778012 Q 24.367152556943715 148.84959259127956 24.036228571245736 148.6332154819103 Q 23.705304585547765 148.41683837254104 23.500555112292297 148.10344597345187 L 23.500555112292297 148.10344597345187 Q 23.23349058195908 147.69467327898775 23.234308357303437 147.24211663785866 Q 23.23512613264779 146.7895599967296 23.637085948870848 146.5269465419019 L 23.637085948870848 146.5269465419019 Q 23.92322683499573 146.34000137066866 24.45399531091437 146.3043021705663 L 24.45399531091437 146.3043021705663 Q 26.389488016470924 146.18684917336282 28.562159963039207 145.4429750603482 Q 30.734831909607486 144.69910094733356 32.32141494988007 143.7500227117425 L 32.32141494988007 143.7500227117425 Q 32.904688145910995 143.40783495774585 33.41043064661813 143.39334649878623 Q 33.91617314732527 143.37885803982664 34.30577870449187 143.59578020912684 Q 34.695384261658475 143.81270237842708 34.92238911244171 144.16015916872158 Z" fill-opacity="1"/></g></g><g><g><path fill="rgb(0,0,0)" stroke="none" paint-order="stroke fill markers" d=" M 28.54143959750509 132.84644945564523 L 28.54143959750509 132.84644945564523 Q 28.688544855556714 133.18181566413708 28.67934052199551 133.54575636073486 Q 28.670136188434306 133.90969705733264 28.485202867870086 134.21742211525265 Q 28.300269547305867 134.52514717317266 27.912735261937517 134.69513547136566 L 27.912735261937517 134.69513547136566 Q 27.577369053445672 134.84224072941728 27.089020883217 134.8431740669514 L 27.089020883217 134.8431740669514 Q 26.32806015464322 134.83038884035597 25.45896897367337 134.7939420175524 L 25.45896897367337 134.7939420175524 Q 24.389961916583783 134.74743491438718 23.280685588159347 134.7408078045234 Q 22.171409259734915 134.73418069465964 21.150785364174848 134.84862404525467 Q 20.130161468614784 134.9630673958497 19.369998062699942 135.2965059807667 L 19.369998062699942 135.2965059807667 Q 19.124062843139257 135.40438317000456 18.935919140982072 135.52245665447927 Q 18.74777543882489 135.64053013895398 18.58381862578443 135.71244826511253 L 18.58381862578443 135.71244826511253 Q 18.136663681128645 135.90858860918138 17.74748550959698 135.8215894457764 Q 17.358307338065316 135.7345902823714 17.0675112258678 135.4666959769074 Q 16.776715113670285 135.1988016714434 16.62634084988418 134.8559828805406 L 16.62634084988418 134.8559828805406 Q 16.430200505815346 134.40882793588483 16.50549550269536 133.96257817887494 Q 16.58079049957537 133.51632842186504 17.020492861820234 133.32345708353068 L 17.020492861820234 133.32345708353068 Q 17.333501323079286 133.18615884268252 17.862906704005663 133.23830815296688 L 17.862906704005663 133.23830815296688 Q 19.791333939736845 133.4410286904191 22.05681112767255 133.0649100995983 Q 24.322288315608255 132.6887915087775 26.043445574499653 132.01380044874878 L 26.043445574499653 132.01380044874878 Q 26.67508593754475 131.77228330243062 27.17631549169465 131.84123492685836 Q 27.677545045844546 131.91018655128613 28.026132675445567 132.18827715198697 Q 28.374720305046583 132.4663677526878 28.54143959750509 132.84644945564523 Z" fill-opacity="1"/></g></g><g><g><path fill="rgb(0,0,0)" stroke="none" paint-order="stroke fill markers" d=" M 24.109693331784193 120.6367742257221 L 24.109693331784193 120.6367742257221 Q 24.19959280217267 120.9917792059245 24.130611333881287 121.34924124227068 Q 24.061629865589907 121.70670327861684 23.82856891464813 121.97979234370898 Q 23.595507963706353 122.25288140880112 23.18527998658359 122.35676524125003 L 23.18527998658359 122.35676524125003 Q 22.8302750063812 122.4466647116385 22.348433646371088 122.36720585267203 L 22.348433646371088 122.36720585267203 Q 21.599955809429893 122.22934498056375 20.748716849259047 122.05034753807 L 20.748716849259047 122.05034753807 Q 19.701944472672075 121.82852195260558 18.608888013966336 121.63940434509742 Q 17.5158315552606 121.45028673758925 16.490290882950468 121.39518005812752 Q 15.464750210640332 121.34007337866578 14.660072255514912 121.54384551154632 L 14.660072255514912 121.54384551154632 Q 14.399735270033158 121.6097717898312 14.194723345946255 121.6952674703045 Q 13.98971142185935 121.7807631507778 13.816153431538181 121.82471400296772 L 13.816153431538181 121.82471400296772 Q 13.342813457934993 121.9445799634857 12.973262761062543 121.79471073358515 Q 12.603712064190091 121.6448415036846 12.360975985384894 121.33273746043058 Q 12.118239906579698 121.02063341717655 12.026342670182588 120.65773943741411 L 12.026342670182588 120.65773943741411 Q 11.90647670966462 120.18439946381092 12.054195076844817 119.75662912100515 Q 12.201913444025013 119.32885877819938 12.667364418068148 119.21099058369003 L 12.667364418068148 119.21099058369003 Q 12.99870239959038 119.12708441132746 13.512303886789658 119.2656597347571 L 13.512303886789658 119.2656597347571 Q 15.381063184739329 119.78302411905638 17.677549302013844 119.784920585119 Q 19.974035419288363 119.78681705118161 21.78281821349812 119.40432516326244 L 21.78281821349812 119.40432516326244 Q 22.445596241017064 119.27006658278613 22.928640612980445 119.42057747003032 Q 23.41168498494383 119.57108835727452 23.709746125143873 119.90276180271695 Q 24.00780726534392 120.2344352481594 24.109693331784193 120.6367742257221 Z" fill-opacity="1"/></g></g><g><g><path fill="rgb(0,0,0)" stroke="none" paint-order="stroke fill markers" d=" M 21.74803680070761 107.86418159097677 L 21.74803680070761 107.86418159097677 Q 21.77827826023117 108.2291417324587 21.65140129184333 108.57037447603572 Q 21.5245243234555 108.91160721961275 21.249693037333298 109.14261113407136 Q 20.9748617512111 109.37361504852996 20.55313003216531 109.40856073509052 L 20.55313003216531 109.40856073509052 Q 20.188169890683376 109.43880219461408 19.725978717126225 109.28111856968584 L 19.725978717126225 109.28111856968584 Q 19.01040029607326 109.02194253727933 18.200233136520527 108.70527705871513 L 18.200233136520527 108.70527705871513 Q 17.204248662137534 108.31418381466686 16.157227803958456 107.94773434485433 Q 15.110206945779382 107.58128487504177 14.10772357287479 107.35813133208659 Q 13.105240199970199 107.1349777891314 12.277997212611146 107.2035250973848 L 12.277997212611146 107.2035250973848 Q 12.010359775524394 107.22570216770207 11.794071820370663 107.27628794488128 Q 11.577783865216928 107.32687372206047 11.399358907159092 107.34165843560531 L 11.399358907159092 107.34165843560531 Q 10.912745385183179 107.38198038163674 10.572902542633855 107.17332912715239 Q 10.233059700084528 106.96467787266803 10.045004862135725 106.61687747632945 Q 9.856950024186922 106.26907707999085 9.826036532229507 105.89600671314265 L 9.826036532229507 105.89600671314265 Q 9.785714586198093 105.40939319116674 10.00182695169484 105.01177072240277 Q 10.217939317191584 104.6141482536388 10.696442613801231 104.57449834004125 L 10.696442613801231 104.57449834004125 Q 11.03707207918437 104.54627297781926 11.520859962944908 104.7674943408099 L 11.520859962944908 104.7674943408099 Q 13.278976440956919 105.58539022022083 15.54382933278351 105.9652500125164 Q 17.8086822246101 106.34510980481198 19.655751674657015 106.26555047062286 L 19.655751674657015 106.26555047062286 Q 20.331588509792454 106.2422126800778 20.78327150830486 106.47017728548701 Q 21.234954506817264 106.69814189089621 21.47435882669909 107.07435099409672 Q 21.71376314658091 107.45056009729724 21.74803680070761 107.86418159097677 Z" fill-opacity="1"/></g></g><g><g><path fill="rgb(0,0,0)" stroke="none" paint-order="stroke fill markers" d=" M 21.520889838063987 94.87707458282091 L 21.520889838063987 94.87707458282091 Q 21.490648378540428 95.24203472430284 21.309336783010185 95.55773023539331 Q 21.128025187479942 95.87342574648376 20.818920247231045 96.05604332570468 Q 20.509815306982144 96.2386609049256 20.088083587936353 96.20371521836503 L 20.088083587936353 96.20371521836503 Q 19.72312344645442 96.17347375884148 19.293189829722397 95.94186656618899 L 19.293189829722397 95.94186656618899 Q 18.630029938510273 95.56844502002681 17.883033827740086 95.12274931416208 L 17.883033827740086 95.12274931416208 Q 16.965005115684487 94.57305641572358 15.992579857663523 94.0392708698807 Q 15.02015459964256 93.50548532403779 14.068073659277236 93.12037196452309 Q 13.11599271891191 92.7352586050084 12.288749731552857 92.666711296755 L 12.288749731552857 92.666711296755 Q 12.021112294466105 92.64453422643771 11.799448079841516 92.65883025218864 Q 11.577783865216928 92.67312627793956 11.399358907159092 92.65834156439472 L 11.399358907159092 92.65834156439472 Q 10.912745385183179 92.6180196183633 10.611880423797555 92.35627780160426 Q 10.311015462411927 92.09453598484522 10.182771511076384 91.72052632358621 Q 10.054527559740842 91.3465166623272 10.08544105169826 90.97344629547901 L 10.08544105169826 90.97344629547901 Q 10.125762997729671 90.4868327735031 10.404374379575106 90.13020428320439 Q 10.682985761420541 89.77357579290569 11.161489058030188 89.81322570650325 L 11.161489058030188 89.81322570650325 Q 11.502118523413326 89.84145106872523 11.942896331407024 90.13928412917556 L 11.942896331407024 90.13928412917556 Q 13.542413155028813 91.23540143620323 15.713853538549298 91.98286296981853 Q 17.88529392206978 92.7303245034338 19.720266788307274 92.9558678942157 L 19.720266788307274 92.9558678942157 Q 20.39072736397186 93.04408748769089 20.798728254283567 93.34328753108892 Q 21.206729144595275 93.64248757448695 21.380946318392983 94.05297033181417 Q 21.555163492190687 94.46345308914138 21.520889838063987 94.87707458282091 Z" fill-opacity="1"/></g></g><g><g><path fill="rgb(0,0,0)" stroke="none" paint-order="stroke fill markers" d=" M 23.434448420866307 82.02970762557588 L 23.434448420866307 82.02970762557588 Q 23.34454895047783 82.38471260577828 23.113748435487192 82.6662595337964 Q 22.88294792049655 82.94780646181454 22.548000903114502 83.0770563742851 Q 22.213053885732453 83.20630628675569 21.80282590860969 83.10242245430678 L 21.80282590860969 83.10242245430678 Q 21.4478209284073 83.0125229839183 21.06187233681156 82.71330986400223 L 21.06187233681156 82.71330986400223 Q 20.469220248543724 82.23582877042637 19.805771293184364 81.67326025427512 L 19.805771293184364 81.67326025427512 Q 18.990739773598797 80.97996189077337 18.1194353418513 80.29340054711562 Q 17.248130910103804 79.6068392034579 16.37242268844113 79.07027091591564 Q 15.496714466778457 78.5337026283734 14.692036511653034 78.32993049549286 L 14.692036511653034 78.32993049549286 Q 14.43169952617128 78.26400421720797 14.210705474015315 78.2416205332151 Q 13.989711421859349 78.21923684922223 13.81615343153818 78.1752859970323 L 13.81615343153818 78.1752859970323 Q 13.34281345793499 78.05542003651433 13.089133189563244 77.74772729193181 Q 12.835452921191495 77.44003454734927 12.770518017154618 77.05001762975856 Q 12.705583113117742 76.66000071216786 12.797480349514851 76.29710673240541 L 12.797480349514851 76.29710673240541 Q 12.91734631003282 75.82376675880222 13.250856916015866 75.51786014252305 Q 13.584367521998912 75.21195352624389 14.049818496042047 75.32982172075322 L 14.049818496042047 75.32982172075322 Q 14.381156477564279 75.41372789311579 14.766900940211057 75.78004854152957 L 14.766900940211057 75.78004854152957 Q 16.164187460123387 77.12448805340283 18.182984102197945 78.21916252618759 Q 20.2017807442725 79.31383699897236 21.974603750326867 79.83833087897249 L 21.974603750326867 79.83833087897249 Q 22.621399649776748 80.03570145592921 22.974589231179 80.39797554008848 Q 23.32777881258125 80.76024962424775 23.432056649943913 81.19380913613047 Q 23.53633448730658 81.62736864801317 23.434448420866307 82.02970762557588 Z" fill-opacity="1"/></g></g><g><g><path fill="rgb(0,0,0)" stroke="none" paint-order="stroke fill markers" d=" M 27.436515659250666 69.67252339924909 L 27.436515659250666 69.67252339924909 Q 27.289410401199042 70.00788960774092 27.01541660314491 70.24760808642846 Q 26.74142280509078 70.48732656511598 26.389770192068056 70.5596832101534 Q 26.038117579045327 70.6320398551908 25.650583293676977 70.46205155699782 L 25.650583293676977 70.46205155699782 Q 25.315217085185132 70.3149462989462 24.983781190211527 69.95628900568744 L 24.983781190211527 69.95628900568744 Q 24.47780290892723 69.38777280423034 23.915998266998553 68.7236768804065 L 23.915998266998553 68.7236768804065 Q 23.226195875108708 67.90568442390386 22.479779183211612 67.08507488615443 Q 21.73336249131452 66.264465348405 20.957914025840495 65.59107831699022 Q 20.18246556036647 64.91769128557544 19.42230215445163 64.58425270065844 L 19.42230215445163 64.58425270065844 Q 19.176366934890943 64.47637551142057 18.962071186857916 64.41792268623333 Q 18.74777543882489 64.35946986104607 18.58381862578443 64.28755173488749 L 18.58381862578443 64.28755173488749 Q 18.136663681128645 64.09141139081866 17.937087842196853 63.746160774389715 Q 17.73751200326506 63.400910157960766 17.73765740143631 63.005524628852015 Q 17.737802799607564 62.61013909974327 17.88817706339367 62.267320308840496 L 17.88817706339367 62.267320308840496 Q 18.0843174074625 61.82016536418471 18.46362993764921 61.57332495697813 Q 18.84294246783591 61.32648454977155 19.28264483008077 61.5193558881059 L 19.28264483008077 61.5193558881059 Q 19.595653291339822 61.65665412895408 19.915842305259446 62.08147009296923 L 19.915842305259446 62.08147009296923 Q 21.072784187653216 63.637559004496424 22.883869578496128 65.04958655043647 Q 24.694954969339037 66.46161409637652 26.357270125009784 67.27075163980199 L 26.357270125009784 67.27075163980199 Q 26.962758442179037 67.57188944540758 27.2515026235877 67.98735567769027 Q 27.540246804996364 68.40282190997296 27.57174087835277 68.84763180313232 Q 27.603234951709172 69.29244169629166 27.436515659250666 69.67252339924909 Z" fill-opacity="1"/></g></g><g><g><path fill="rgb(0,0,0)" stroke="none" paint-order="stroke fill markers" d=" M 33.417925591564575 58.1425936767597 L 33.417925591564575 58.1425936767597 Q 33.217627193814664 58.4491731976078 32.90791394925944 58.64052433176556 Q 32.59820070470421 58.83187546592333 32.23943466263412 58.845365142870655 Q 31.880668620564027 58.85885481981798 31.52639895202845 58.62739889352919 L 31.52639895202845 58.62739889352919 Q 31.219819431180355 58.42710049577928 30.95193694005486 58.01878226518818 L 30.95193694005486 58.01878226518818 Q 30.546434234280607 57.37473859581444 30.101598471899024 56.62723006995107 L 30.101598471899024 56.62723006995107 Q 29.555841218775022 55.70685622231375 28.954672568320188 54.774582579493014 Q 28.353503917865353 53.842308936672275 27.699467421274825 53.050471404212985 Q 27.0454309246843 52.2586338717537 26.350517344095287 51.80462417018723 L 26.350517344095287 51.80462417018723 Q 26.12569236214002 51.65773867850396 25.923940347608948 51.564811152818294 Q 25.722188333077877 51.47188362713262 25.572305011774365 51.37395996601044 L 25.572305011774365 51.37395996601044 Q 25.16353231731024 51.106895435677224 25.023504816449076 50.733504484216866 Q 24.883477315587918 50.3601135327565 24.948699049884212 49.97014447867065 Q 25.013920784180506 49.580175424584795 25.21867025743597 49.26678302549563 L 25.21867025743597 49.26678302549563 Q 25.485734787769186 48.8580103310315 25.900502585130027 48.67696929574119 Q 26.315270382490866 48.49592826045088 26.717230198713924 48.75854171527854 L 26.717230198713924 48.75854171527854 Q 27.00337108483881 48.94548688651179 27.249270728402013 49.41721029404255 L 27.249270728402013 49.41721029404255 Q 28.134309614647922 51.142502556138254 29.68828206594425 52.83336674466145 Q 31.242254517240582 54.52423093318463 32.74871819841321 55.59594097711492 L 32.74871819841321 55.59594097711492 Q 33.2963827903997 55.992631757040144 33.51280538324585 56.44995730166922 Q 33.729227976092005 56.907282846298294 33.68707920921991 57.351209866381744 Q 33.644930442347814 57.7951368864652 33.417925591564575 58.1425936767597 Z" fill-opacity="1"/></g></g><g><g><path fill="rgb(0,0,0)" stroke="none" paint-order="stroke fill markers" d=" M 41.2155209472265 47.7544248846536 L 41.2155209472265 47.7544248846536 Q 40.96749302792997 48.02385502772238 40.630508506822935 48.16161925722574 Q 40.2935239857159 48.29938348672909 39.93743071699285 48.253638232364175 Q 39.58133744826979 48.20789297799925 39.26999594961254 47.92128293792325 L 39.26999594961254 47.92128293792325 Q 39.00056580654377 47.67325501862671 38.80354385530675 47.2264137076276 L 38.80354385530675 47.2264137076276 Q 38.509577781789396 46.52441040274121 38.193844858952396 45.713879358814545 L 38.193844858952396 45.713879358814545 Q 37.80701957977648 44.71622951937054 37.3674972844186 43.69772176619864 Q 36.927974989060715 42.67921401302674 36.41319087203478 41.79052524324203 Q 35.89840675500884 40.90183647345733 35.28769843071962 40.33963985638518 L 35.28769843071962 40.33963985638518 Q 35.09011632580252 40.157752715567725 34.90641131380156 40.03288531004036 Q 34.722706301800606 39.908017904512995 34.59098489852254 39.78675981063469 L 34.59098489852254 39.78675981063469 Q 34.23174470776418 39.45605591823931 34.15508513017269 39.06470976354581 Q 34.078425552581194 38.673363608852306 34.2069445441113 38.29944836901135 Q 34.33546353564141 37.9255331291704 34.58900318647787 37.65011564958898 L 34.58900318647787 37.65011564958898 Q 34.919707078873245 37.29087545883062 35.358616359115175 37.18057212296054 Q 35.79752563935709 37.070268787090455 36.150778493602814 37.395460947945914 L 36.150778493602814 37.395460947945914 Q 36.40224662713367 37.62695367262268 36.567149399076584 38.132717138802754 L 36.567149399076584 38.132717138802754 Q 37.15614373548203 39.98015127605827 38.41061492966426 41.903729739855656 Q 39.66508612384649 43.82730820365304 40.97460592835633 45.13235729182932 L 40.97460592835633 45.13235729182932 Q 41.44950793274572 45.61378035569349 41.5877054928681 46.10049056397019 Q 41.725903052990496 46.587200772246895 41.611261154376535 47.01813574737794 Q 41.496619255762575 47.44907072250899 41.2155209472265 47.7544248846536 Z" fill-opacity="1"/></g></g><g><g><path fill="rgb(0,0,0)" stroke="none" paint-order="stroke fill markers" d=" M 50.61660365174807 38.79137918764444 L 50.61660365174807 38.79137918764444 Q 50.327611765982795 39.01631060098293 49.97254802760667 39.09673007677558 Q 49.61748428923055 39.177149552568224 49.273777089959424 39.07341717818115 Q 48.930069890688294 38.969684803794074 48.67014914638603 38.635738624687534 L 48.67014914638603 38.635738624687534 Q 48.44521773304753 38.34674673892225 48.32443056693084 37.87357101365082 L 48.32443056693084 37.87357101365082 Q 48.15001975384358 37.13275689342303 47.97200204163185 36.28131250541466 L 47.97200204163185 36.28131250541466 Q 47.754660321641694 35.23359996110497 47.488773403849024 34.15664033403687 Q 47.222886486056346 33.07968070696878 46.86139671736543 32.11838181285966 Q 46.49990694867451 31.15708291875055 45.990062411773906 30.502034644349248 L 45.990062411773906 30.502034644349248 Q 45.825112708659006 30.290107261454708 45.66446569303233 30.136706033403406 Q 45.50381867740564 29.983304805352105 45.39385220866237 29.84201988342241 L 45.39385220866237 29.84201988342241 Q 45.09394365754437 29.456697369068703 45.082743076662645 29.05807091407881 Q 45.07154249578092 28.659444459088917 45.2598530814799 28.311782466511445 Q 45.44816366717888 27.964120473933974 45.74357759485006 27.7341905847435 L 45.74357759485006 27.7341905847435 Q 46.12890010920377 27.4342820336255 46.57997857131288 27.39772518463885 Q 47.03105703342199 27.361168335652202 47.32596710868802 27.740068808100013 L 47.32596710868802 27.740068808100013 Q 47.53590309447062 28.00979456814761 47.61531087704408 28.535802184046567 L 47.61531087704408 28.535802184046567 Q 47.89219443350556 30.454985009098927 48.81294566655874 32.558807542072934 Q 49.73369689961192 34.662630075046934 50.810552540855305 36.16541987035283 L 50.810552540855305 36.16541987035283 Q 51.199737868944965 36.71844325194999 51.25594072715761 37.22126193815135 Q 51.31214358537025 37.72408062435271 51.128135687159485 38.13026877177342 Q 50.94412778894873 38.53645691919413 50.61660365174807 38.79137918764444 Z" fill-opacity="1"/></g></g><g><g><path fill="rgb(0,0,0)" stroke="none" paint-order="stroke fill markers" d=" M 61.36473667574342 31.497945107430365 L 61.36473667574342 31.497945107430365 Q 61.04266376880746 31.672242248435154 60.67920602636306 31.693123336855386 Q 60.315748283918666 31.71400442527562 59.99380259051779 31.555114479629555 Q 59.6718568971169 31.396224533983492 59.47044686751137 31.024051397079706 L 59.47044686751137 31.024051397079706 Q 59.296149726506584 30.701978490143738 59.25489210453325 30.21537535090833 L 59.25489210453325 30.21537535090833 Q 59.204794024202045 29.45595789338068 59.16934738174718 28.58682534464561 L 59.16934738174718 28.58682534464561 Q 59.12741773649654 27.517628962496232 59.042418898270995 26.411594112734143 Q 58.95742006004544 25.305559262972054 58.75908513824593 24.297871972450633 Q 58.560750216446415 23.29018468192921 58.16567669683556 22.560152759541012 L 58.16567669683556 22.560152759541012 Q 58.03785879343205 22.323965961121303 57.904651805990426 22.146215296160143 Q 57.7714448185488 21.96846463119899 57.68623288294646 21.811006765585848 L 57.68623288294646 21.811006765585848 Q 57.45383669494008 21.381576223004554 57.508400633416834 20.986542958268785 Q 57.56296457189359 20.591509693533013 57.805930129872635 20.279584261089358 Q 58.04889568785169 19.967658828645703 58.37812577049735 19.789488417840808 L 58.37812577049735 19.789488417840808 Q 58.80755631307864 19.557092229834424 59.25849971248239 19.59527904327497 Q 59.70944311188614 19.63346585671551 59.93796603009241 20.055739223587118 L 59.93796603009241 20.055739223587118 Q 60.10064336169688 20.35634060339402 60.09239011759292 20.888244252449656 L 60.09239011759292 20.888244252449656 Q 60.049610232471736 22.826825460767672 60.611525810977504 25.053505268474797 Q 61.17344138948327 27.28018507618192 61.98825905272023 28.939723390482104 L 61.98825905272023 28.939723390482104 Q 62.28111174329031 29.549262053586652 62.253786832131084 30.054473634703587 Q 62.22646192097186 30.55968521582052 61.97810727895469 30.93004678172273 Q 61.729752636937526 31.300408347624938 61.36473667574342 31.497945107430365 Z" fill-opacity="1"/></g></g><g><g><path fill="rgb(0,0,0)" stroke="none" paint-order="stroke fill markers" d=" M 73.16673896860976 26.073068513155885 L 73.16673896860976 26.073068513155885 Q 72.82037034982291 26.191977010179084 72.4584327830605 26.15275012956774 Q 72.0964952162981 26.11352324895639 71.80509286803365 25.903809835573387 Q 71.5136905197692 25.694096422190384 71.37628514543128 25.293848240481132 L 71.37628514543128 25.293848240481132 Q 71.25737664840808 24.947479621694278 71.29677397095494 24.46072233365353 L 71.29677397095494 24.46072233365353 Q 71.37235516841528 23.70341646741381 71.48044648772095 22.840303428222068 L 71.48044648772095 22.840303428222068 Q 71.61507264862983 21.778788098351086 71.71328043670277 20.673847773378846 Q 71.8114882247757 19.568907448406602 71.78171820951374 18.542318843913584 Q 71.75194819425177 17.515730239420567 71.48242226766585 16.730628036837032 L 71.48242226766585 16.730628036837032 Q 71.39522270318217 16.476624383060006 71.2930892832983 16.279372855967733 Q 71.19095586341444 16.08212132887546 71.13282282042533 15.912785559690777 L 71.13282282042533 15.912785559690777 Q 70.97427815772772 15.450960734641638 71.09311825355888 15.070296137847118 Q 71.21195834939004 14.689631541052593 71.50295141259144 14.421951181410904 Q 71.79394447579284 14.154270821769217 72.14801017499717 14.032719913701056 L 72.14801017499717 14.032719913701056 Q 72.60983500004632 13.874175251003457 73.04834277633067 13.98606409014613 Q 73.48685055261504 14.0979529292888 73.64275280426767 14.552080673920452 L 73.64275280426767 14.552080673920452 Q 73.75373406815599 14.87535805145485 73.65804492435917 15.39864878869025 L 73.65804492435917 15.39864878869025 Q 73.29676852140258 17.303748938415055 73.4845208531839 19.592548000222095 Q 73.6722731849652 21.881347062029135 74.20282676841374 23.652366016203015 L 74.20282676841374 23.652366016203015 Q 74.39135856347548 24.301793335034162 74.28125123529009 24.7956169561221 Q 74.17114390710468 25.28944057721004 73.86521698850311 25.613873063536484 Q 73.55929006990154 25.938305549862925 73.16673896860976 26.073068513155885 Z" fill-opacity="1"/></g></g><g><g><path fill="rgb(0,0,0)" stroke="none" paint-order="stroke fill markers" d=" M 85.70068267332141 22.66472589671504 L 85.70068267332141 22.66472589671504 Q 85.33946637568857 22.72500223592918 84.98892169792862 22.626737393332483 Q 84.63837702016865 22.52847255073579 84.38546671347207 22.273656104850865 Q 84.13255640677549 22.01883965896594 84.06290374812805 21.601434159479112 L 84.06290374812805 21.601434159479112 Q 84.00262740891391 21.24021786184628 84.12160501972303 20.76658389493639 L 84.12160501972303 20.76658389493639 Q 84.32080383693368 20.032046949866565 84.56948466858225 19.198496893959536 L 84.56948466858225 19.198496893959536 Q 84.87699438492528 18.173617987401887 85.15572994684666 17.099912078920283 Q 85.43446550876804 16.026206170438677 85.57407244845533 15.008718912987865 Q 85.71367938814262 13.991231655537055 85.57705301925724 13.172474714235967 L 85.57705301925724 13.172474714235967 Q 85.53285037050021 12.907582762638556 85.46457645162658 12.69621088087789 Q 85.39630253275297 12.484838999117226 85.36683410024827 12.308244364718952 L 85.36683410024827 12.308244364718952 Q 85.28646564796276 11.826622634541842 85.46634025312707 11.470710243570577 Q 85.64621485829137 11.114797852599313 85.97729789451327 10.898664188179996 Q 86.30838093073517 10.68253052376068 86.67762425720429 10.620914710341784 L 86.67762425720429 10.620914710341784 Q 87.1592459873814 10.540546258056269 87.57335679151379 10.723085087041694 Q 87.9874675956462 10.905623916027116 88.06649657372695 11.379218617367941 L 88.06649657372695 11.379218617367941 Q 88.12275449032681 11.716353828491918 87.94223959723692 12.216757646712448 L 87.94223959723692 12.216757646712448 Q 87.2723213549403 14.036410571984993 87.08078904581996 16.324896415939712 Q 86.88925673669961 18.613382259894426 87.12107412165324 20.447573073573988 L 87.12107412165324 20.447573073573988 Q 87.20014236530305 21.119174363804692 87.01025606097599 21.58813980378246 Q 86.82036975664893 22.05710524376023 86.46521545031044 22.32675897801629 Q 86.11006114397195 22.596412712272354 85.70068267332141 22.66472589671504 Z" fill-opacity="1"/></g></g></g></g></svg>