<svg version="1.1" xmlns="http://www.w3.org/2000/svg" xmlns:xlink="http://www.w3.org/1999/xlink" width="200" height="200" viewBox="0 0 200 200"><defs/><g><g/><g><g><g><path fill="rgb(0,0,0)" stroke="none" paint-order="stroke fill markers" d=" M 98.984375 10.42187754313151 L 98.984375 10.42187754313151 L 99.24479166666667 10.42187754313151 Q 101.25651041666667 10.42187754313151 103.07291666666667 12.583335876464844 L 103.07291666666667 12.583335876464844 Q 104.66145833333333 14.783856709798176 104.66145833333333 17.036460876464844 L 104.66145833333333 17.036460876464844 L 104.66145833333333 17.270835876464844 Q 104.66145833333333 19.93359629313151 102.5 21.43750254313151 L 102.5 21.43750254313151 Q 101.03515625 22.348960876464844 99.01041666666667 22.348960876464844 L 99.01041666666667 22.348960876464844 Q 96.63411458333333 22.348960876464844 95.65104166666667 18.677085876464844 L 95.65104166666667 18.677085876464844 Q 95.33854166666667 17.322919209798176 95.33854166666667 16.046877543131508 L 95.33854166666667 16.046877543131508 Q 95.33854166666667 12.029950459798176 97.76041666666667 10.708335876464844 L 97.76041666666667 10.708335876464844 Q 98.46354166666667 10.42187754313151 98.984375 10.42187754313151 Z M 97.44791666666667 17.088544209798176 L 97.44791666666667 17.088544209798176 L 97.44791666666667 17.348960876464844 Q 97.44791666666667 19.75781504313151 98.48958333333333 21.619794209798176 L 98.48958333333333 21.619794209798176 Q 98.82161458333333 22.088544209798176 99.24479166666667 22.088544209798176 L 99.24479166666667 22.088544209798176 Q 99.8828125 22.088544209798176 99.97395833333333 20.239585876464844 L 99.97395833333333 20.239585876464844 L 100 20.005210876464844 Q 100 17.76562754313151 99.0625 15.89062754313151 L 99.0625 15.89062754313151 Q 98.63932291666667 15.317710876464844 98.28125 15.317710876464844 L 98.28125 15.317710876464844 L 98.17708333333333 15.317710876464844 Q 97.5390625 15.317710876464844 97.44791666666667 17.088544209798176 Z" fill-opacity="1"/></g></g><g><g><path fill="rgb(0,0,0)" stroke="none" paint-order="stroke fill markers" d=" M 117.03710838630383 12.051103162849813 L 117.03710838630383 12.051103162849813 L 117.292194308505 12.103524652456235 Q 119.26273305750904 12.508480659665844 120.60685900112891 14.991333703940352 L 120.60685900112891 14.991333703940352 Q 121.71992153938177 17.466580833139417 121.26647565428622 19.67307406017954 L 121.26647565428622 19.67307406017954 L 121.21929631364046 19.902651390160592 Q 120.68328658241478 22.510904944667562 118.26333932566799 23.548927781646018 L 118.26333932566799 23.548927781646018 Q 116.64500579966392 24.146857630313992 114.66171275454982 23.739280548624063 L 114.66171275454982 23.739280548624063 Q 112.33405371446415 23.26093445596546 112.11024736160527 19.466331829664714 L 112.11024736160527 19.466331829664714 Q 112.07673600091726 18.07697924669092 112.33360129998873 16.827058227905187 L 112.33360129998873 16.827058227905187 Q 113.1422027771678 12.892357877952133 115.78054091339126 12.085316676120916 L 115.78054091339126 12.085316676120916 Q 116.52693654190149 11.94626018363697 117.03710838630383 12.051103162849813 Z M 114.19011131139253 18.272015982521886 L 114.19011131139253 18.272015982521886 L 114.1376898217861 18.527101904723057 Q 113.6527910429267 20.886646685083885 114.29832108104547 22.92019698724794 L 114.29832108104547 22.92019698724794 Q 114.5291969505604 23.446189046458237 114.9437115741373 23.53137396706867 L 114.9437115741373 23.53137396706867 Q 115.56867208353017 23.659806616604403 116.03014473250617 21.867044090338343 L 116.03014473250617 21.867044090338343 L 116.10283266537208 21.642708909317932 Q 116.5536574759873 19.448969978387865 116.01278288122933 17.423633975956317 L 116.01278288122933 17.423633975956317 Q 115.71359553478655 16.777260026503306 115.36285239175994 16.70518047829448 L 115.36285239175994 16.70518047829448 L 115.26081802287948 16.68421188245191 Q 114.6358575134866 16.555779232916176 114.19011131139253 18.272015982521886 Z" fill-opacity="1"/></g></g><g><g><path fill="rgb(0,0,0)" stroke="none" paint-order="stroke fill markers" d=" M 134.39234055349712 17.280966952637634 L 134.39234055349712 17.280966952637634 L 134.63165248360656 17.383663789906727 Q 136.48033714370195 18.176996857810472 137.29715410688178 20.87959631767071 L 137.29715410688178 20.87959631767071 Q 137.88916860562549 23.528232834436906 137.00084096324784 25.598281029883516 L 137.00084096324784 25.598281029883516 L 136.90841380970565 25.81366176698201 Q 135.85833864862917 28.26062625235098 133.27897539349186 28.790268899399496 L 133.27897539349186 28.790268899399496 Q 131.57340685618445 29.050190945143868 129.7127565995836 28.251723035376667 L 129.7127565995836 28.251723035376667 Q 127.529035237335 27.31461439529619 128.0736581066661 23.552635620062325 L 128.0736581066661 23.552635620062325 Q 128.32050734433406 22.184977378770352 128.82372184695262 21.01234892123412 L 128.82372184695262 21.01234892123412 Q 130.40782056182837 17.320962399296086 133.15460796098677 17.06153494059327 L 133.15460796098677 17.06153494059327 Q 133.91371669327825 17.075573278099444 134.39234055349712 17.280966952637634 Z M 130.35136113176267 22.80144102355152 L 130.35136113176267 22.80144102355152 L 130.24866429449358 23.040752953660952 Q 129.29871854975445 25.254388307173226 129.5216838837182 27.376255956532063 L 129.5216838837182 27.376255956532063 Q 129.64195228752334 27.93795589824714 130.03083417395118 28.104838258809416 L 130.03083417395118 28.104838258809416 Q 130.6171484027193 28.356445510118693 131.43005512286817 26.69327469938589 L 131.43005512286817 26.69327469938589 L 131.54641346942128 26.488163646014307 Q 132.4296062699355 24.430081047073163 132.307500549879 22.337326536116496 L 132.307500549879 22.337326536116496 Q 132.14455170544318 21.643957929313462 131.8154978015427 21.50274977806846 L 131.8154978015427 21.50274977806846 L 131.71977302949892 21.46167104316082 Q 131.1334588007308 21.210063791851542 130.35136113176267 22.80144102355152 Z" fill-opacity="1"/></g></g><g><g><path fill="rgb(0,0,0)" stroke="none" paint-order="stroke fill markers" d=" M 150.33954625750184 25.897357674458178 L 150.33954625750184 25.897357674458178 L 150.5532867369829 26.04612543880578 Q 152.2044319409741 27.195356418391007 152.4604993412694 30.007057554408345 L 152.4604993412694 30.007057554408345 Q 152.50722865736665 32.72064796854369 151.2203874957599 34.56950311605487 L 151.2203874957599 34.56950311605487 L 151.08649650784704 34.76186954758782 Q 149.56534611739283 36.94736595028168 146.93216629859262 36.94694477519971 L 146.93216629859262 36.94694477519971 Q 145.20918892629504 36.858217778928164 143.54735669832976 35.70154841112556 L 143.54735669832976 35.70154841112556 Q 141.5969748230651 34.34404256145369 142.88772999032528 30.768703490358522 L 142.88772999032528 30.768703490358522 Q 143.40483378955554 29.47873167983988 144.13379583485877 28.43140333038268 L 144.13379583485877 28.43140333038268 Q 146.42853859992056 25.134456434387303 149.1713214631585 25.43326370945362 L 149.1713214631585 25.43326370945362 Q 149.91206529853972 25.599822145762975 150.33954625750184 25.897357674458178 Z M 145.27002266126496 30.491384139522502 L 145.27002266126496 30.491384139522502 L 145.12125489691738 30.705124619003563 Q 143.74515307670205 32.68222405420338 143.53642547954095 34.805539539883384 L 143.53642547954095 34.805539539883384 Q 143.54116261505362 35.379951302492486 143.88849089421032 35.62169891955734 L 143.88849089421032 35.62169891955734 Q 144.41215506893894 35.98617994220896 145.54321536362528 34.52069125541509 L 145.54321536362528 34.52069125541509 L 145.69848039948624 34.343201600316895 Q 146.9778831728756 32.505033476779765 147.27954535004653 30.430538072864753 L 147.27954535004653 30.430538072864753 Q 147.25950615245452 29.718561400941564 146.96561299316807 29.51400572496361 L 146.96561299316807 29.51400572496361 L 146.88011680137564 29.45449861922457 Q 146.35645262664704 29.090017596572945 145.27002266126496 30.491384139522502 Z" fill-opacity="1"/></g></g><g><g><path fill="rgb(0,0,0)" stroke="none" paint-order="stroke fill markers" d=" M 164.2258450230789 37.54751927977716 L 164.2258450230789 37.54751927977716 L 164.4052634915882 37.736267401451414 Q 165.79127116082248 39.194346641384996 165.47610556877854 42.000038078690025 L 165.47610556877854 42.000038078690025 Q 164.97563659853782 44.66748767980648 163.34296534605554 46.219457432411865 L 163.34296534605554 46.219457432411865 L 163.17309203654872 46.38093405407023 Q 161.2431424924295 48.215487894577755 158.66394880113359 47.68502014032265 L 158.66394880113359 47.68502014032265 Q 156.99410148990893 47.25127659568752 155.59912289724917 45.78375994967023 L 155.59912289724917 45.78375994967023 Q 153.96192937210188 44.06143333939269 155.94597316908622 40.81910877409136 L 155.94597316908622 40.81910877409136 Q 156.71216123958118 39.65963499183394 157.637027035785 38.7804844961384 L 157.637027035785 38.7804844961384 Q 160.5484668126103 36.01295461938255 163.17495528724353 36.85776342326841 L 163.17495528724353 36.85776342326841 Q 163.8670080860603 37.17002303642866 164.2258450230789 37.54751927977716 Z M 158.33532414401327 41.027018155737 L 158.33532414401327 41.027018155737 L 158.14657602233902 41.206436624246294 Q 156.40065589685221 42.866057457957254 155.76878070091848 44.9038919944957 L 155.76878070091848 44.9038919944957 Q 155.6577926292542 45.4674990929471 155.94934764058178 45.774214790667756 L 155.94934764058178 45.774214790667756 Q 156.38892288842956 46.23664768876967 157.791831016295 45.02883840493968 L 157.791831016295 45.02883840493968 L 157.97964617265274 44.886236595448736 Q 159.6028800190513 43.343237766268814 160.31596000847244 41.3719315549746 L 160.31596000847244 41.3719315549746 Q 160.4396508648282 40.6704952265335 160.1929504706279 40.410966559231404 L 160.1929504706279 40.410966559231404 L 160.1211830832242 40.335467310561704 Q 159.6816078353764 39.873034412459795 158.33532414401327 41.027018155737 Z" fill-opacity="1"/></g></g><g><g><path fill="rgb(0,0,0)" stroke="none" paint-order="stroke fill markers" d=" M 175.48273014719473 51.754492783637005 L 175.48273014719473 51.754492783637005 L 175.6204811915507 51.9754938923596 Q 176.68460800920064 53.68272745724162 175.8111123411861 56.367543858736326 L 175.8111123411861 56.367543858736326 Q 174.78393434305167 58.87964694675216 172.87227475260124 60.07119348043138 L 172.87227475260124 60.07119348043138 L 172.6733737547509 60.19516942035177 Q 170.41363741806242 61.60367384889166 167.99402234703484 60.564876927649934 L 167.99402234703484 60.564876927649934 Q 166.44566884200339 59.80387434633129 165.37465447213563 58.08559072601314 L 165.37465447213563 58.08559072601314 Q 164.1176761923873 56.068955608919495 166.71378163293204 53.2923866980724 L 166.71378163293204 53.2923866980724 Q 167.69768614506233 52.310879936954194 168.78059157780302 51.63589981960989 L 168.78059157780302 51.63589981960989 Q 172.189533679849 49.5110899604189 174.59219901912675 50.8673137214324 L 174.59219901912675 50.8673137214324 Q 175.20722805848277 51.312490566191826 175.48273014719473 51.754492783637005 Z M 169.01237060219609 53.9770129776868 L 169.01237060219609 53.9770129776868 L 168.7913694934735 54.11476402204278 Q 166.74710923778954 55.38896118233559 165.71795548784692 57.257885584371216 L 165.71795548784692 57.257885584371216 Q 165.49578607370015 57.78761387783328 165.7196315207786 58.146740679507495 L 165.7196315207786 58.146740679507495 Q 166.05712157945075 58.68819339587784 167.67444231690575 57.78751136900329 L 167.67444231690575 57.78751136900329 L 167.88711841919167 57.68563553995517 Q 169.78772795420596 56.50097655849375 170.8830321773271 54.71356504772936 L 170.8830321773271 54.71356504772936 Q 171.14538916943832 54.051385948471996 170.95598148344885 53.74750942397843 L 170.95598148344885 53.74750942397843 L 170.90088106570647 53.65910898048939 Q 170.5633910070343 53.11765626411905 169.01237060219609 53.9770129776868 Z" fill-opacity="1"/></g></g><g><g><path fill="rgb(0,0,0)" stroke="none" paint-order="stroke fill markers" d=" M 183.64934343024018 67.93664302154113 L 183.64934343024018 67.93664302154113 L 183.73978750650184 68.18084930595444 Q 184.43846799562326 70.0673428530472 183.042403266918 72.52136751980186 L 183.042403266918 72.52136751980186 Q 181.53056902882182 74.77527829913413 179.41818466864675 75.5576195587976 L 179.41818466864675 75.5576195587976 L 179.19839901267477 75.6390192274331 Q 176.70138975454876 76.5638099072087 174.54041262909007 75.05921228698944 L 174.54041262909007 75.05921228698944 Q 173.1769427046716 74.00210620408046 172.4737400117371 72.10340234276704 L 172.4737400117371 72.10340234276704 Q 171.64843781584935 69.87501999749566 174.7503200381891 67.67787979854587 L 174.7503200381891 67.67787979854587 Q 175.91165982562424 66.9145230606892 177.10827061924942 66.47134708700702 L 177.10827061924942 66.47134708700702 Q 180.87515255632462 65.07624721067073 182.9556293589557 66.88836196868645 L 182.9556293589557 66.88836196868645 Q 183.46845527771683 67.44823045271453 183.64934343024018 67.93664302154113 Z M 176.86404249931576 68.81119429580146 L 176.86404249931576 68.81119429580146 L 176.61983621490248 68.90163837206313 Q 174.36092808407943 69.7382460774836 172.976629455571 71.36174636040775 L 172.976629455571 71.36174636040775 Q 172.6523743408607 71.83590871030573 172.7993459647859 72.23274392247734 L 172.7993459647859 72.23274392247734 Q 173.020933951627 72.83104931928993 174.78645399765304 72.27436857737672 L 174.78645399765304 72.27436857737672 L 175.01528406125118 72.21738953718254 Q 177.11545810720557 71.43957048133217 178.54814468043932 69.90923050836024 L 178.54814468043932 69.90923050836024 Q 178.93842688222338 69.31341832841294 178.81406627736357 68.97763468734465 L 178.81406627736357 68.97763468734465 L 178.7778886468589 68.87995217357933 Q 178.5563006600178 68.28164677676673 176.86404249931576 68.81119429580146 Z" fill-opacity="1"/></g></g><g><g><path fill="rgb(0,0,0)" stroke="none" paint-order="stroke fill markers" d=" M 188.39134276487107 85.43147086142785 L 188.39134276487107 85.43147086142785 L 188.43077708192953 85.68888448755497 Q 188.7354071812063 87.67740474938692 186.87392844583422 89.80016962320894 L 186.87392844583422 89.80016962320894 Q 184.93933263911686 91.7036127217285 182.71270477311734 92.04471956428439 L 182.71270477311734 92.04471956428439 L 182.48103250960295 92.08021044963702 Q 179.8489781824532 92.48342634156002 178.03510965998373 90.57462642571772 L 178.03510965998373 90.57462642571772 Q 176.91234393508486 89.26469488845741 176.60574211995515 87.26330394531912 L 176.60574211995515 87.26330394531912 Q 176.24590397679648 84.91440460690922 179.72657155829302 83.38664429775476 L 179.72657155829302 83.38664429775476 Q 181.0178012336838 82.8726894976981 182.27912800170665 82.67946134411153 L 182.27912800170665 82.67946134411153 Q 186.24973318471737 82.07118700348443 187.92284648595637 84.26500456739477 L 187.92284648595637 84.26500456739477 Q 188.31247413075408 84.91664360917363 188.39134276487107 85.43147086142785 Z M 181.56889146537193 84.92224898397508 L 181.56889146537193 84.92224898397508 L 181.31147783924482 84.96168330103356 Q 178.93040179756903 85.32645073382453 177.2476316389941 86.63806060530113 L 177.2476316389941 86.63806060530113 Q 176.83456586621486 87.03724474931848 176.8986466314349 87.45554189177504 L 176.8986466314349 87.45554189177504 Q 176.9952607082282 88.08620527578645 178.83669946470116 87.89631639381571 L 178.83669946470116 87.89631639381571 L 179.0723151599214 87.88656687107579 Q 181.28607234461458 87.54743174437283 182.99748691131924 86.33681560749415 L 182.99748691131924 86.33681560749415 Q 183.49971612357885 85.83176296750892 183.44549393762344 85.47781923158415 L 183.44549393762344 85.47781923158415 L 183.42972021080004 85.3748537811333 Q 183.33310613400675 84.74419039712188 181.56889146537193 84.92224898397508 Z" fill-opacity="1"/></g></g><g><g><path fill="rgb(0,0,0)" stroke="none" paint-order="stroke fill markers" d=" M 189.51459014116637 103.52273599597721 L 189.51459014116637 103.52273599597721 L 189.50140025344794 103.78281841971967 Q 189.39950837082318 105.7919551431302 187.14882478692482 107.49655398067102 L 187.14882478692482 107.49655398067102 Q 184.87066999121868 108.97160221427943 182.6209570258464 108.85750968551514 L 182.6209570258464 108.85750968551514 L 182.38688284447818 108.84563878656857 Q 179.72754006171152 108.71077218464778 178.33504013266165 106.4759164660115 L 178.33504013266165 106.4759164660115 Q 177.4989447679791 104.9667882254457 177.60149614498977 102.94464738084807 L 177.60149614498977 102.94464738084807 Q 177.72185387042032 100.5713952641981 181.43880787132605 99.77556153139996 L 181.43880787132605 99.77556153139996 Q 182.80706434004892 99.53205003904476 184.081468216387 99.59668048886499 L 184.081468216387 99.59668048886499 Q 188.09323960261446 99.80013450692154 189.29049194732622 102.28583972789738 L 189.29049194732622 102.28583972789738 Q 189.5409699166032 103.0025711484923 189.51459014116637 103.52273599597721 Z M 182.934300430898 101.65058857030527 L 182.934300430898 101.65058857030527 L 182.67421800715553 101.63739868258685 Q 180.26845558753777 101.51539222119152 178.3561067069055 102.4614142189747 L 178.3561067069055 102.4614142189747 Q 177.8711412373281 102.7692775113532 177.84970766978566 103.1919114499347 L 177.84970766978566 103.1919114499347 Q 177.81739244487554 103.82911338810372 179.6593611927456 104.01379043921433 L 179.6593611927456 104.01379043921433 L 179.89211638534195 104.05166958053515 Q 182.12882522952714 104.16510261491352 184.04890227625916 103.32377308101324 L 184.04890227625916 103.32377308101324 Q 184.64251717603497 102.93015689541225 184.66065327164782 102.57254356276637 L 184.66065327164782 102.57254356276637 L 184.66592922673516 102.46851059326939 Q 184.69824445164528 101.83130865510036 182.934300430898 101.65058857030527 Z" fill-opacity="1"/></g></g><g><g><path fill="rgb(0,0,0)" stroke="none" paint-order="stroke fill markers" d=" M 186.97309967956454 121.46977990494736 L 186.97309967956454 121.46977990494736 L 186.90782558262217 121.72188332131876 Q 186.4035831837423 123.66938221278788 183.85583800168658 124.88602853735674 L 183.85583800168658 124.88602853735674 Q 181.3273921419997 125.87229325805924 179.14669759038702 125.3076723195077 L 179.14669759038702 125.3076723195077 L 178.91980451565274 125.24892563225957 Q 176.34204708325512 124.58149799102378 175.42792485833195 122.11208172529888 L 175.42792485833195 122.11208172529888 Q 174.9127296963329 120.4655406689114 175.42023580005986 118.50543660662372 L 175.42023580005986 118.50543660662372 Q 176.01586193465903 116.20499293223462 179.81692982145333 116.17366730232004 L 179.81692982145333 116.17366730232004 Q 181.2061965029155 116.2105685067747 182.4415032431354 116.53041158179235 L 182.4415032431354 116.53041158179235 Q 186.33019844066436 117.53726452712849 187.00257417718515 120.21309234136513 L 187.00257417718515 120.21309234136513 Q 187.1036478734493 120.96557307220453 186.97309967956454 121.46977990494736 Z M 180.90436939241653 118.31135286663125 L 180.90436939241653 118.31135286663125 L 180.65226597604513 118.24607876968886 Q 178.3203093746096 117.6422933729719 176.25667355978453 118.18399724531955 L 176.25667355978453 118.18399724531955 Q 175.71966293671449 118.38793572669682 175.6135925291831 118.79760377830036 L 175.6135925291831 118.79760377830036 Q 175.4536709916743 119.4152571484103 177.22075931398146 119.96693943243116 L 177.22075931398146 119.96693943243116 L 177.44112497902148 120.05089646131644 Q 179.6092143598156 120.61225369502087 181.65934570668227 120.1746548940689 L 181.65934570668227 120.1746548940689 Q 182.32004363023074 119.90858985573858 182.4097955135265 119.56194765822791 L 182.4097955135265 119.56194765822791 L 182.43590515230346 119.46110629167934 Q 182.59582668981227 118.8434529215694 180.90436939241653 118.31135286663125 Z" fill-opacity="1"/></g></g><g><g><path fill="rgb(0,0,0)" stroke="none" paint-order="stroke fill markers" d=" M 180.87092029817603 138.5378485020169 L 180.87092029817603 138.5378485020169 L 180.7562343212079 138.77165176753013 Q 179.87028514912907 140.5777819936197 177.12978335601665 141.25666616173888 L 177.12978335601665 141.25666616173888 Q 174.4545613029244 141.71376957598875 172.43216305623508 140.7217358752144 L 172.43216305623508 140.7217358752144 L 172.22174011727319 140.61851849594308 Q 169.83110172740058 139.4458543814439 169.43278147789727 136.84297576069324 L 169.43278147789727 136.84297576069324 Q 169.2595786690468 135.12643147279294 170.15126213997402 133.3086110834277 L 170.15126213997402 133.3086110834277 Q 171.19777167980826 131.17515628561964 174.92733728659925 131.90962123355794 L 174.92733728659925 131.90962123355794 Q 176.28073743962975 132.2254243951764 177.42637344064448 132.78738568232023 L 177.42637344064448 132.78738568232023 Q 181.0327888111858 134.5564168770537 181.15276079786173 137.31281857943986 L 181.15276079786173 137.31281857943986 Q 181.1002922521123 138.0702419709905 180.87092029817603 138.5378485020169 Z M 175.56220396514976 134.22244822510473 L 175.56220396514976 134.22244822510473 L 175.32840069963655 134.1077622481366 Q 173.1657204936393 133.04691696118135 171.0352832373473 133.16212528791206 L 171.0352832373473 133.16212528791206 Q 170.46821273878913 133.25378969289878 170.28184802621593 133.63371999935774 L 170.28184802621593 133.63371999935774 Q 170.000867382644 134.2065379998651 171.62073047584897 135.1026395792685 L 171.62073047584897 135.1026395792685 L 171.81968481711405 135.22923728509113 Q 173.83039290052767 136.21553668701708 175.9266459293081 136.19958396534008 L 175.9266459293081 136.19958396534008 Q 176.6273778260104 136.071962808211 176.78507104434158 135.75048331813034 L 176.78507104434158 135.75048331813034 L 176.83094543512883 135.65696201192503 Q 177.11192607870075 135.08414401141766 175.56220396514976 134.22244822510473 Z" fill-opacity="1"/></g></g><g><g><path fill="rgb(0,0,0)" stroke="none" paint-order="stroke fill markers" d=" M 171.45787593785056 154.028173053409 L 171.45787593785056 154.028173053409 L 171.29847333822877 154.23410423490319 Q 170.06708825615047 155.82492261194582 167.2460263173867 155.93825102600698 L 167.2460263173867 155.93825102600698 Q 164.53355197606788 155.84747926631746 162.7522472561431 154.468646779589 L 162.7522472561431 154.468646779589 L 162.56690919279833 154.3251844399294 Q 160.46126286202022 152.69529285879662 160.5950518657521 150.065514039579 L 160.5950518657521 150.065514039579 Q 160.77093235339498 148.3492420449979 162.01028756545438 146.74812710888057 L 162.01028756545438 146.74812710888057 Q 163.46483628700318 144.86900507774607 166.97021075964355 146.33919152227267 L 166.97021075964355 146.33919152227267 Q 168.2323360229595 146.92096762251293 169.24139881228103 147.7020403606597 L 169.24139881228103 147.7020403606597 Q 172.41788728682894 150.16082545982576 171.98054385642934 152.88495364080234 L 171.98054385642934 152.88495364080234 Q 171.77668113709413 153.61631069042062 171.45787593785056 154.028173053409 Z M 167.12651302936777 148.7324725322755 L 167.12651302936777 148.7324725322755 L 166.9205818478736 148.5730699326537 Q 165.01571841905232 147.0985958861522 162.9057000728817 146.78259202483318 L 162.9057000728817 146.78259202483318 Q 162.33178563167436 146.75822960191906 162.07275640728895 147.09286777184712 L 162.07275640728895 147.09286777184712 Q 161.68222003821558 147.5973991665079 163.08854051695673 148.80123353734555 L 163.08854051695673 148.80123353734555 L 163.25793832033932 148.96528899515457 Q 165.02894648118937 150.33615135190195 167.08550034658597 150.7424978157997 L 167.08550034658597 150.7424978157997 Q 167.79757817025862 150.7585453650396 168.01675674473856 150.47538999048507 L 168.01675674473856 150.47538999048507 L 168.0805177845873 150.3930175178874 Q 168.47105415366067 149.88848612322664 167.12651302936777 148.7324725322755 Z" fill-opacity="1"/></g></g><g><g><path fill="rgb(0,0,0)" stroke="none" paint-order="stroke fill markers" d=" M 159.11933774068555 167.3065778519537 L 159.11933774068555 167.3065778519537 L 158.92174447956762 167.47620610266262 Q 157.39533653743175 168.78658433938898 154.60920906025032 168.32971732080495 L 154.60920906025032 168.32971732080495 Q 151.97053144894073 167.69478659368292 150.50324708030865 165.98560488501298 L 150.50324708030865 165.98560488501298 L 150.35058165467063 165.80777095000684 Q 148.616132791172 163.78737985507618 149.27655371060672 161.23836429123625 L 149.27655371060672 161.23836429123625 Q 149.7943169269138 159.59262896708591 151.33060453210558 158.27376931782413 L 151.33060453210558 158.27376931782413 Q 153.13364303980654 156.72591153010532 156.27131593552232 158.87162986544175 L 156.27131593552232 158.87162986544175 Q 157.39049475255018 159.6955609224042 158.22167318102385 160.663767901882 L 158.22167318102385 160.663767901882 Q 160.83818894820882 163.71164395462583 159.86143499215993 166.29197248639213 L 159.86143499215993 166.29197248639213 Q 159.51452426292138 166.96732135053588 159.11933774068555 167.3065778519537 Z M 155.94265476313308 161.24738368815252 L 155.94265476313308 161.24738368815252 L 155.77302651242417 161.04979042703462 Q 154.20396519336674 159.2220527616939 152.20075015632636 158.48777394753645 L 152.20075015632636 158.48777394753645 Q 151.64348789712497 158.34838209717807 151.32239884780836 158.62402800458005 L 151.32239884780836 158.62402800458005 Q 150.83829535806947 159.03961721881691 151.97349829671148 160.5018992605022 L 151.97349829671148 160.5018992605022 L 152.1064043962377 160.69669602057922 Q 153.56520735233437 162.3959980661933 155.497866497463 163.20800784369018 L 155.497866497463 163.20800784369018 Q 156.19213769833922 163.36706711074763 156.46382843237637 163.13382826602287 L 156.46382843237637 163.13382826602287 L 156.54286573682353 163.0659769657393 Q 157.02696922656241 162.65038775150245 155.94265476313308 161.24738368815252 Z" fill-opacity="1"/></g></g><g><g><path fill="rgb(0,0,0)" stroke="none" paint-order="stroke fill markers" d=" M 144.3604469101896 177.82944344505233 L 144.3604469101896 177.82944344505233 L 144.13275247890195 177.95582416446146 Q 142.37381299720485 178.93211522189705 139.73668436787764 177.92375696008824 L 139.73668436787764 177.92375696008824 Q 137.27983125801578 176.77066140410332 136.18663803512675 174.80110457346512 L 136.18663803512675 174.80110457346512 L 136.07289538765855 174.59617958530626 Q 134.78065253170013 172.26800402539 135.9406676567999 169.904108713608 L 135.9406676567999 169.904108713608 Q 136.77911631486094 168.39628665742484 138.54944051812242 167.4136765640188 L 138.54944051812242 167.4136765640188 Q 140.62715220362224 166.26045249941043 143.26866682540197 168.99385676479685 L 143.26866682540197 168.99385676479685 Q 144.19907988387465 170.02621094420167 144.8183454089794 171.14191365751114 L 144.8183454089794 171.14191365751114 Q 146.76776800586532 174.6541002601232 145.29159194589153 176.98499018941297 L 145.29159194589153 176.98499018941297 Q 144.81583577276493 177.57668200623405 144.3604469101896 177.82944344505233 Z M 142.4684976379129 171.25481975957456 L 142.4684976379129 171.25481975957456 L 142.34211691850373 171.0271253282869 Q 141.17309526396923 168.9209518388761 139.35869539504333 167.79845953280596 L 139.35869539504333 167.79845953280596 Q 138.84089970021512 167.54974497373482 138.4708962493727 167.75511364277466 L 138.4708962493727 167.75511364277466 Q 137.91304489271795 168.06474640532704 138.7306549495721 169.72561011926257 L 138.7306549495721 169.72561011926257 L 138.82162815391158 169.9431731793624 Q 139.90850234083015 171.90134528843618 141.63814347321147 173.08577460383438 L 141.63814347321147 173.08577460383438 Q 142.286184506754 173.38133368362736 142.59926434977453 173.20756019443982 L 142.59926434977453 173.20756019443982 L 142.6903421222896 173.15700790667614 Q 143.24819347894433 172.84737514412376 142.4684976379129 171.25481975957456 Z" fill-opacity="1"/></g></g><g><g><path fill="rgb(0,0,0)" stroke="none" paint-order="stroke fill markers" d=" M 127.78543417105935 185.16596247893918 L 127.78543417105935 185.16596247893918 L 127.53696040637185 185.24392162554685 Q 125.6175005741608 185.8461560330909 123.23733514862195 184.32758883377286 L 123.23733514862195 184.32758883377286 Q 121.06289039519352 182.70353631647004 120.38854377703738 180.55423825192304 L 120.38854377703738 180.55423825192304 L 120.3183805450905 180.33061186370426 Q 119.52124827102733 177.78996761977444 121.13336644627454 175.7079707118606 L 121.13336644627454 175.7079707118606 Q 122.25817435951504 174.39979233578632 124.19005787996045 173.79365997091188 L 124.19005787996045 173.79365997091188 Q 126.45738098273401 173.08228275811712 128.49459341159715 176.29146706176718 L 128.49459341159715 176.29146706176718 Q 129.19814949158194 177.48997966221307 129.58014930995938 178.7075011091819 L 129.58014930995938 178.7075011091819 Q 130.78266914638232 182.54020892948677 128.86750580382227 184.526233348727 L 128.86750580382227 184.526233348727 Q 128.28238170043437 185.0100441857239 127.78543417105935 185.16596247893918 Z M 127.25567522955996 178.34507513795376 L 127.25567522955996 178.34507513795376 L 127.17771608295232 178.09660137326625 Q 126.4565939768316 175.79821904990675 124.90529101983688 174.33346821882162 L 124.90529101983688 174.33346821882162 Q 124.44816050596654 173.98561335430884 124.04439063834933 174.11229696754626 L 124.04439063834933 174.11229696754626 Q 123.43562991486493 174.303296876735 123.90217403813858 176.09474630732902 L 123.90217403813858 176.09474630732902 L 123.9474898936167 176.32616861020853 Q 124.61793855444246 178.46304298652115 126.07374996289255 179.97140116448372 L 126.07374996289255 179.97140116448372 Q 126.64902995304658 180.39135983355882 126.9906813794919 180.28416600697332 L 126.9906813794919 180.28416600697332 L 127.09007088536691 180.25298234833025 Q 127.69883160885132 180.06198243914153 127.25567522955996 178.34507513795376 Z" fill-opacity="1"/></g></g><g><g><path fill="rgb(0,0,0)" stroke="none" paint-order="stroke fill markers" d=" M 110.072882492316 189.0157770023626 L 110.072882492316 189.0157770023626 L 109.81380193934936 189.04212291954684 Q 107.81240466768207 189.24564512979498 105.78664669811067 187.27903931253186 L 105.78664669811067 187.27903931253186 Q 103.98363232480746 185.25051873478756 103.7557401411639 183.00947195162613 L 103.7557401411639 183.00947195162613 L 103.73202881569809 182.77629945395614 Q 103.46264181248937 180.12720079987224 105.46086273037356 178.41233949386083 L 105.46086273037356 178.41233949386083 Q 106.82598013066611 177.3573617743163 108.84033142998173 177.15252226820894 L 108.84033142998173 177.15252226820894 Q 111.20444147580233 176.91211577390288 112.55394799554898 180.46569573336203 L 112.55394799554898 180.46569573336203 Q 113.00184342846694 181.78129950816748 113.13093842266964 183.050794217704 L 113.13093842266964 183.050794217704 Q 113.53732419523635 187.04711174721444 111.26158058235656 188.60696258333343 L 111.26158058235656 188.60696258333343 Q 110.59104359824929 188.96308516799417 110.072882492316 189.0157770023626 Z M 110.92700227490296 182.2278739350297 L 110.92700227490296 182.2278739350297 L 110.90065635771873 181.96879338206307 Q 110.65695662376463 179.57229826712165 109.43226110403086 177.82525598214707 L 109.43226110403086 177.82525598214707 Q 109.05451074806678 177.39250203121702 108.63350484949599 177.4353141466414 L 108.63350484949599 177.4353141466414 Q 107.99875749472773 177.49986164374275 108.09513531319742 179.34855464082037 L 108.09513531319742 179.34855464082037 L 108.09293858336655 179.58436173020877 Q 108.3195134711509 181.81245448572187 109.44189406555724 183.58298916521844 L 109.44189406555724 183.58298916521844 Q 109.92086098193333 184.11015426632068 110.27709674226246 184.07392863019237 L 110.27709674226246 184.07392863019237 L 110.38072896344912 184.0633902633187 Q 111.01547631821738 183.99884276621734 110.92700227490296 182.2278739350297 Z" fill-opacity="1"/></g></g><g><g><path fill="rgb(0,0,0)" stroke="none" paint-order="stroke fill markers" d=" M 91.9479458208238 189.22127515639957 L 91.9479458208238 189.22127515639957 L 91.68886526785717 189.19492923921536 Q 89.68746799618987 188.9914070289672 88.09905225187664 186.6572756669841 L 88.09905225187664 186.6572756669841 Q 86.74128387898686 184.3073348995922 86.96917606263042 182.0662881164308 L 86.96917606263042 182.0662881164308 L 86.99288738809624 181.83311561876081 Q 87.26227439130496 179.1840169646769 89.56479065266697 177.90649788392366 L 89.56479065266697 177.90649788392366 Q 91.11432947324911 177.14791173270171 93.12868077256473 177.35275123880908 L 93.12868077256473 177.35275123880908 Q 95.49279081838532 177.59315773311513 96.09934247353678 181.34564936731522 L 96.09934247353678 181.34564936731522 Q 96.27324036773877 182.7244833433628 96.14414537353606 183.99397805289934 L 96.14414537353606 183.99397805289934 Q 95.73775960096935 187.99029558240977 93.19460492866966 189.06011235890213 L 93.19460492866966 189.06011235890213 Q 92.46610692675708 189.27396699076803 91.9479458208238 189.22127515639957 Z M 94.15097656324319 182.74425391184056 L 94.15097656324319 182.74425391184056 L 94.17732248042742 182.4851733588739 Q 94.42102221438151 180.0886782439325 93.57307331038218 178.13086862148413 L 93.57307331038218 178.13086862148413 Q 93.29016825628132 177.63093258173427 92.86916235771054 177.5881204663099 L 92.86916235771054 177.5881204663099 Q 92.23441500294227 177.52357296920854 91.95668079739593 179.3538238242572 L 91.95668079739593 179.3538238242572 L 91.90706141663347 179.58436173020877 Q 91.68048652884912 181.81245448572187 92.42348591580257 183.7726797689449 L 92.42348591580257 183.7726797689449 Q 92.78653079656807 184.38546910089585 93.1427665568972 184.42169473702418 L 93.1427665568972 184.42169473702418 L 93.24639877808386 184.43223310389786 Q 93.88114613285212 184.49678060099922 94.15097656324319 182.74425391184056 Z" fill-opacity="1"/></g></g><g><g><path fill="rgb(0,0,0)" stroke="none" paint-order="stroke fill markers" d=" M 74.15266119350328 185.77404382247886 L 74.15266119350328 185.77404382247886 L 73.90418742881576 185.69608467587122 Q 71.98472759660473 185.09385026832715 70.89868400475278 182.48775297383247 L 70.89868400475278 182.48775297383247 Q 70.04174882899356 179.91259886791636 70.71609544714968 177.76330080336936 L 70.71609544714968 177.76330080336936 L 70.78625867909656 177.5396744151506 Q 71.58339095315974 174.9990301712208 74.09593727172525 174.21115509699385 L 74.09593727172525 174.21115509699385 Q 75.76645921121927 173.78001712025556 77.69834273166468 174.38614948513 L 77.69834273166468 174.38614948513 Q 79.96566583443823 175.09752669792476 79.8044303289658 178.89530255846256 L 79.8044303289658 178.89530255846256 Q 79.69721128423106 180.2809171107668 79.3152114658536 181.49843855773562 L 79.3152114658536 181.49843855773562 Q 78.11269162943066 185.3311463780405 75.406242948803 185.86713067037851 L 75.406242948803 185.86713067037851 Q 74.6496087228783 185.92996211569414 74.15266119350328 185.77404382247886 Z M 77.61441055831531 179.87307441146365 L 77.61441055831531 179.87307441146365 L 77.69236970492297 179.62460064677612 Q 78.41349181104368 177.32621832341664 77.97700465053829 175.23779431947034 L 77.97700465053829 175.23779431947034 Q 77.80052706445548 174.69114363110805 77.39675719683827 174.56446001787063 L 77.39675719683827 174.56446001787063 Q 76.78799647335386 174.3734601086819 76.14752071479896 176.11033813665057 L 76.14752071479896 176.11033813665057 L 76.05251010638332 176.32616861020858 Q 75.38206144555757 178.46304298652117 75.71526114285757 180.5327070200588 L 75.71526114285757 180.5327070200588 Q 75.94752088793796 181.20603291560874 76.2891723143833 181.31322674219425 L 76.2891723143833 181.31322674219425 L 76.38856182025829 181.34441040083732 Q 76.9973225437427 181.53541031002604 77.61441055831531 179.87307441146365 Z" fill-opacity="1"/></g></g><g><g><path fill="rgb(0,0,0)" stroke="none" paint-order="stroke fill markers" d=" M 57.41556965385408 178.81521305644358 L 57.41556965385408 178.81521305644358 L 57.187875222566426 178.68883233703446 Q 55.42893574086932 177.71254127959887 54.88972705373378 174.94117198203264 L 54.88972705373378 174.94117198203264 Q 54.5687081018863 172.24623164925626 55.66190132477532 170.2766748186181 L 55.66190132477532 170.2766748186181 L 55.77564397224354 170.0717498304592 Q 57.06788682820196 167.74357427054295 59.68759926247722 167.4775989009526 L 59.68759926247722 167.4775989009526 Q 61.410712956402236 167.3915599381222 63.18103715966373 168.37417003152822 L 63.18103715966373 168.37417003152822 Q 65.25874884516355 169.5273940961366 64.33632717960562 173.21497279306197 L 64.33632717960562 173.21497279306197 Q 63.9523807562233 174.55064069904873 63.33311523111853 175.6663434123582 L 63.33311523111853 175.6663434123582 Q 61.38369263423262 179.17853001497025 58.624752272256096 179.1587385632501 L 58.624752272256096 179.1587385632501 Q 57.87095851642938 179.06797449526186 57.41556965385408 178.81521305644358 Z M 61.9943132153251 173.7318818599936 L 61.9943132153251 173.7318818599936 L 62.120693934734234 173.50418742870596 Q 63.28971558926874 171.39801393929517 63.28256000789345 169.26447587795192 L 63.28256000789345 169.26447587795192 Q 63.21973490293814 168.6934904843875 62.8497314520957 168.48812181534765 L 62.8497314520957 168.48812181534765 Q 62.29188009544096 168.17848905279527 61.31488393668542 169.7508862631444 L 61.31488393668542 169.7508862631444 L 61.17837184608843 169.9431731793624 Q 60.09149765916987 171.90134528843618 60.001256432059634 173.99571578358015 L 60.001256432059634 173.99571578358015 Q 60.09322230020197 174.70201220145285 60.40630214322249 174.8757856906404 L 60.40630214322249 174.8757856906404 L 60.497379915737554 174.92633797840406 Q 61.0552312723923 175.23597074095645 61.9943132153251 173.7318818599936 Z" fill-opacity="1"/></g></g><g><g><path fill="rgb(0,0,0)" stroke="none" paint-order="stroke fill markers" d=" M 42.42188969603421 168.62967820748324 L 42.42188969603421 168.62967820748324 L 42.22429643491629 168.46004995677433 Q 40.6978884927804 167.14967172004796 40.72758997736692 164.32649060407462 L 40.72758997736692 164.32649060407462 Q 40.95562980303795 161.62209521830388 42.42291417167004 159.91291350963394 L 42.42291417167004 159.91291350963394 L 42.57557959730806 159.7350795746278 Q 44.310028460806684 157.71468847969712 46.92965567592934 157.98150187762513 L 46.92965567592934 157.98150187762513 Q 48.6348166471988 158.24408437395007 50.171104252390585 159.56294402321186 L 50.171104252390585 159.56294402321186 Q 51.97414276009155 161.1108018109307 50.32829898581602 164.53721343911943 L 50.32829898581602 164.53721343911943 Q 49.683343995471176 165.76825229778328 48.852165566997506 166.73645927726105 L 48.852165566997506 166.73645927726105 Q 46.235649799812535 169.78433533000486 43.53716909906821 169.20957839858542 L 43.53716909906821 169.20957839858542 Q 42.81707621827003 168.96893470890106 42.42188969603421 168.62967820748324 Z M 47.930173154778046 164.5720974020472 L 47.930173154778046 164.5720974020472 L 48.09980140548696 164.37450414092928 Q 49.6688627245444 162.54676647558858 50.09133167264146 160.45546165575985 L 50.09133167264146 160.45546165575985 Q 50.14473111599216 159.88351776609375 49.823642066675546 159.60787185869177 L 49.823642066675546 159.60787185869177 Q 49.33953857693666 159.19228264445493 48.066020355512116 160.53582491064398 L 48.066020355512116 160.53582491064398 L 47.8935956037623 160.69669602057922 Q 46.43479264766566 162.3959980661933 45.92480498258598 164.42933124879437 L 45.92480498258598 164.42933124879437 Q 45.87271188034299 165.13968233065575 46.14440261438012 165.3729211753805 L 46.14440261438012 165.3729211753805 L 46.22343991882729 165.44077247566406 Q 46.707543408566174 165.8563616899009 47.930173154778046 164.5720974020472 Z" fill-opacity="1"/></g></g><g><g><path fill="rgb(0,0,0)" stroke="none" paint-order="stroke fill markers" d=" M 29.78546433919938 155.63443626906368 L 29.78546433919938 155.63443626906368 L 29.62606173957759 155.4285050875695 Q 28.394676657499282 153.83768671052687 28.992072331539116 151.07827514274405 L 28.992072331539116 151.07827514274405 Q 29.75983495747214 148.47514296882537 31.541139677396906 147.0963104820969 L 31.541139677396906 147.0963104820969 L 31.72647774074168 146.9528481424373 Q 33.83212407151979 145.32295656130452 36.344418221509585 146.1116353548905 L 36.344418221509585 146.1116353548905 Q 37.96181697961181 146.71208915211906 39.20117219167121 148.31320408823643 L 39.20117219167121 148.31320408823643 Q 40.655720913220016 150.19232611937093 38.35383606772415 153.2172929841787 L 38.35383606772415 153.2172929841787 Q 37.47427704350049 154.29330392000503 36.46521425417895 155.07437665815178 L 36.46521425417895 155.07437665815178 Q 33.28872577963104 157.53316175731786 30.76118085706539 156.42696996250243 L 30.76118085706539 156.42696996250243 Q 30.104269538442953 156.04629863205207 29.78546433919938 155.63443626906368 Z M 35.997777923219246 152.76872368956168 L 35.997777923219246 152.76872368956168 L 36.20370910471344 152.6093210899399 Q 38.10857253353472 151.13484704343836 38.94337008273104 149.17139373016582 L 38.94337008273104 149.17139373016582 Q 39.11080789490281 148.6219067944415 38.851778670517405 148.28726862451344 L 38.851778670517405 148.28726862451344 Q 38.46124230144403 147.78273722985267 36.94334000296764 148.8424197736444 L 36.94334000296764 148.8424197736444 L 36.74206167966069 148.96528899515457 Q 34.971053518810635 150.33615135190195 34.06219837069088 152.22520232255792 L 34.06219837069088 152.22520232255792 Q 33.868178995789066 152.9105262116539 34.08735757026902 153.1936815862084 L 34.08735757026902 153.1936815862084 L 34.151118610117734 153.2760540588061 Q 34.541654979191115 153.78058545346687 35.997777923219246 152.76872368956168 Z" fill-opacity="1"/></g></g><g><g><path fill="rgb(0,0,0)" stroke="none" paint-order="stroke fill markers" d=" M 20.023630322175393 140.36151397301998 L 20.023630322175393 140.36151397301998 L 19.90894434520726 140.12771070750676 Q 19.02299517312842 138.32158048141721 20.163627587535366 135.738909095627 L 20.163627587535366 135.738909095627 Q 21.43968072161641 133.3436126706157 23.46207896830571 132.35157896984134 L 23.46207896830571 132.35157896984134 L 23.672501907267602 132.24836159057 Q 26.063140297140215 131.07569747607084 28.365247764314535 132.35395306283954 L 28.365247764314535 132.35395306283954 Q 29.828667814056537 133.2676955119629 30.72035128498378 135.08551590132814 L 30.72035128498378 135.08551590132814 Q 31.766860824818004 137.2189706991362 28.90317434413639 139.71865030169928 L 28.90317434413639 139.71865030169928 Q 27.825020535829438 140.59558130054944 26.67938453481469 141.15754258769329 L 26.67938453481469 141.15754258769329 Q 23.072969164273363 142.92657378242677 20.819838005990157 141.33423474626716 L 20.819838005990157 141.33423474626716 Q 20.25300227611166 140.82912050404641 20.023630322175393 140.36151397301998 Z M 26.68564118342566 138.80499222916373 L 26.68564118342566 138.80499222916373 L 26.919444448938876 138.6903062521956 Q 29.082124654936106 137.62946096524036 30.29507409548305 135.87424316786533 L 30.29507409548305 135.87424316786533 Q 30.569695352772463 135.36970924579336 30.383330640199247 134.98977893933437 L 30.383330640199247 134.98977893933437 Q 30.102349996627318 134.416960938827 28.40220671954465 135.14940023237114 L 28.40220671954465 135.14940023237114 L 28.180315182885945 135.22923728509113 Q 26.169607099472305 136.21553668701708 24.899093104862445 137.8829674770352 L 24.899093104862445 137.8829674770352 Q 24.571090633306593 138.51520693282407 24.72878385163778 138.83668642290476 L 24.72878385163778 138.83668642290476 L 24.77465824242503 138.93020772911004 Q 25.05563888599696 139.5030257296174 26.68564118342566 138.80499222916373 Z" fill-opacity="1"/></g></g><g><g><path fill="rgb(0,0,0)" stroke="none" paint-order="stroke fill markers" d=" M 13.536038276585979 123.43618655264433 L 13.536038276585979 123.43618655264433 L 13.470764179643604 123.18408313627292 Q 12.966521780763756 121.23658424480381 14.60369331047337 118.93638791099153 L 14.60369331047337 118.93638791099153 Q 16.335795187463276 116.84699095196287 18.51648973907595 116.28237001341132 L 18.51648973907595 116.28237001341132 L 18.743382813810214 116.22362332616318 Q 21.321140246207854 115.5561956849274 23.318812480374447 117.27169613096787 L 23.318812480374447 117.27169613096787 Q 24.568341232975232 118.46131850875872 25.0758473367022 120.4214225710464 L 25.0758473367022 120.4214225710464 Q 25.671473471301372 122.7218662454355 22.363225016421993 124.59392140912506 L 22.363225016421993 124.59392140912506 Q 21.130616167621525 125.2358708128711 19.895309427401628 125.55571388788873 L 19.895309427401628 125.55571388788873 Q 16.006614229872667 126.56256683322486 14.12014029022369 124.54927110295333 L 14.12014029022369 124.54927110295333 Q 13.66658647047073 123.94039338538715 13.536038276585979 123.43618655264433 Z M 20.37500290765402 123.25257982751083 L 20.37500290765402 123.25257982751083 L 20.627106324025426 123.18730573056845 Q 22.959062925460945 122.58352033385148 24.50050596474701 121.10839687522787 L 24.50050596474701 121.10839687522787 Q 24.871067640614015 120.66947164485805 24.764997233082653 120.25980359325452 L 24.764997233082653 120.25980359325452 Q 24.605075695573834 119.64215022314457 22.79229550540701 120.01736011570544 L 22.79229550540701 120.01736011570544 L 22.55887502097851 120.05089646131644 Q 20.390785640184404 120.61225369502087 18.81062779130282 121.98979949194303 L 18.81062779130282 121.98979949194303 Q 18.362070682817084 122.5430705568198 18.45182256611285 122.88971275433047 L 18.45182256611285 122.88971275433047 L 18.4779322048898 122.99055412087904 Q 18.63785374239862 123.60820749098899 20.37500290765402 123.25257982751083 Z" fill-opacity="1"/></g></g><g><g><path fill="rgb(0,0,0)" stroke="none" paint-order="stroke fill markers" d=" M 10.588290983037272 105.55137890116842 L 10.588290983037272 105.55137890116842 L 10.575101095318857 105.29129647742594 Q 10.473209212694103 103.28215975401544 12.539893862920593 101.35860878034892 L 12.539893862920593 101.35860878034892 Q 14.657132028462062 99.6606514442993 16.906844993834355 99.54655891553502 L 16.906844993834355 99.54655891553502 L 17.140919175202573 99.53468801658845 Q 19.80026195796924 99.39982141466766 21.4117140231448 101.48233393015623 L 21.4117140231448 101.48233393015623 Q 22.396195624659498 102.89913295669314 22.498747001670175 104.92127380129077 L 22.498747001670175 104.92127380129077 Q 22.61910472710071 107.29452591794073 19.001734378469017 108.46231448439818 L 19.001734378469017 108.46231448439818 Q 17.665133640270312 108.84300080902489 16.39072976393225 108.90763125884511 L 16.39072976393225 108.90763125884511 Q 12.378958377704778 109.11108527690166 10.93637412143053 106.75925741626773 L 10.93637412143053 106.75925741626773 Q 10.614670758474102 106.07154374865334 10.588290983037272 105.55137890116842 Z M 17.324221368382936 106.74820407565753 L 17.324221368382936 106.74820407565753 L 17.5843037921254 106.7350141879391 Q 19.99006621174317 106.61300772654377 21.796895990628112 105.47837033438725 L 21.796895990628112 105.47837033438725 Q 22.248227246523562 105.12302344622248 22.22679367898114 104.70038950764096 L 22.22679367898114 104.70038950764096 Q 22.194478454071024 104.06318756947194 20.3432767847981 104.06580692396282 L 20.3432767847981 104.06580692396282 L 20.107883614658043 104.05166958053515 Q 17.871174770472873 104.16510261491352 16.04606491531344 105.19636653195896 L 16.04606491531344 105.19636653195896 Q 15.495317150622451 105.64801822352098 15.513453246235272 106.00563155616686 L 15.513453246235272 106.00563155616686 L 15.518729201322637 106.10966452566385 Q 15.551044426232753 106.74686646383287 17.324221368382936 106.74820407565753 Z" fill-opacity="1"/></g></g><g><g><path fill="rgb(0,0,0)" stroke="none" paint-order="stroke fill markers" d=" M 11.301069562072756 87.43929714521934 L 11.301069562072756 87.43929714521934 L 11.34050387913124 87.18188351909222 Q 11.645133978408026 85.19336325726029 14.056721436745983 83.72520804660908 L 14.056721436745983 83.72520804660908 Q 16.47241591157683 82.48820490637789 18.699043777576353 82.82931174893378 L 18.699043777576353 82.82931174893378 L 18.930716041090754 82.8648026342864 Q 21.562770368240475 83.2680185262094 22.72202922753914 85.63228480407717 L 22.72202922753914 85.63228480407717 Q 23.40115888553006 87.21825656074687 23.094557070400352 89.21964750388517 L 23.094557070400352 89.21964750388517 Q 22.73471892724169 91.56854684229508 18.95632225195363 91.9842594104003 L 18.95632225195363 91.9842594104003 Q 17.570450215622465 92.08809731304872 16.309123447599614 91.89486915946216 L 16.309123447599614 91.89486915946216 Q 12.338518264588906 91.28659481883504 11.398883260637708 88.6925189367811 L 11.398883260637708 88.6925189367811 Q 11.22220092795579 87.95412439747356 11.301069562072756 87.43929714521934 Z M 17.65819592028178 89.96755605606648 L 17.65819592028178 89.96755605606648 L 17.915609546408895 90.00699037312496 Q 20.29668558808468 90.37175780591593 22.29493028312747 89.62405866837564 L 22.29493028312747 89.62405866837564 Q 22.808553564405837 89.36683806576885 22.872634329625875 88.94854092331228 L 22.872634329625875 88.94854092331228 Q 22.969248406419158 88.31787753930087 21.155413671887132 87.94779911904114 L 21.155413671887132 87.94779911904114 L 20.927684840078577 87.88656687107579 Q 18.71392765538541 87.54743174437283 16.718586005859663 88.19019371560935 L 16.718586005859663 88.19019371560935 Q 16.088195263159978 88.52173536053725 16.033973077204564 88.87567909646204 L 16.033973077204564 88.87567909646204 L 16.01819935038117 88.97864454691288 Q 15.921585273587887 89.6093079309243 17.65819592028178 89.96755605606648 Z" fill-opacity="1"/></g></g><g><g><path fill="rgb(0,0,0)" stroke="none" paint-order="stroke fill markers" d=" M 15.645192774918788 69.84145203996489 L 15.645192774918788 69.84145203996489 L 15.73563685118046 69.5972457555516 Q 16.434317340301874 67.71075220845883 19.092076932857445 66.75809920764793 L 19.092076932857445 66.75809920764793 Q 21.70732890134605 66.03269331713791 23.819713261521112 66.81503457680137 L 23.819713261521112 66.81503457680137 L 24.039498917493084 66.89643424543688 Q 26.536508175619097 67.82122492521248 27.196113635134044 70.37045162625404 L 27.196113635134044 70.37045162625404 Q 27.542087701608697 72.06066624299471 26.838885008674197 73.95937010430814 L 26.838885008674197 73.95937010430814 Q 26.01358281278644 76.18775244957952 22.228847814671067 75.83436969795017 L 22.228847814671067 75.83436969795017 Q 20.85044224420789 75.65710804268544 19.653831450582707 75.21393206900323 L 19.653831450582707 75.21393206900323 Q 15.88694951350752 73.81883219266695 15.488732529343562 71.08871006059525 L 15.488732529343562 71.08871006059525 Q 15.464304622395444 70.3298646087915 15.645192774918788 69.84145203996489 Z M 21.36325360595546 73.59763747030217 L 21.36325360595546 73.59763747030217 L 21.607459890368762 73.68808154656385 Q 23.866368021191807 74.52468925198431 25.974219259793607 74.19453925960207 L 25.974219259793607 74.19453925960207 Q 26.529106768971182 74.04597558424611 26.6760783928964 73.6491403720745 L 26.6760783928964 73.6491403720745 Q 26.897666379737494 73.0508349752619 25.195457187094636 72.32320983425937 L 25.195457187094636 72.32320983425937 L 24.98471593874883 72.21738953718254 Q 22.88454189279443 71.43957048133217 20.800657970476635 71.66751575613601 L 20.800657970476635 71.66751575613601 Q 20.116432520842153 71.86537400053196 19.992071915982358 72.20115764160025 L 19.992071915982358 72.20115764160025 L 19.955894285477687 72.29884015536557 Q 19.73430629863659 72.89714555217816 21.36325360595546 73.59763747030217 Z" fill-opacity="1"/></g></g><g><g><path fill="rgb(0,0,0)" stroke="none" paint-order="stroke fill markers" d=" M 23.44281170682864 53.478301431673216 L 23.44281170682864 53.478301431673216 L 23.58056275118462 53.25730032295063 Q 24.644689568834565 51.55006675806861 27.43981230561503 51.15191769288317 L 27.43981230561503 51.15191769288317 Q 30.147553044892405 50.96780725448339 32.05921263534282 52.15935378816261 L 32.05921263534282 52.15935378816261 L 32.258113633193155 52.283329728083 Q 34.51784996988165 53.69183415662289 34.65079770459998 56.32165564017618 L 34.65079770459998 56.32165564017618 Q 34.64945196062666 58.046915531986684 33.578437590758924 59.76519915230484 L 33.578437590758924 59.76519915230484 Q 32.32145931101061 61.78183426939848 28.685333485578244 60.67382372940695 L 28.685333485578244 60.67382372940695 Q 27.370826466993595 60.222719629222965 26.287921034252896 59.54773951187866 L 26.287921034252896 59.54773951187866 Q 22.878978932206923 57.42292965268768 23.038483017950384 54.668532791460976 L 23.038483017950384 54.668532791460976 Q 23.16730961811668 53.9203036491184 23.44281170682864 53.478301431673216 Z M 28.2877089284267 58.30863470864959 L 28.2877089284267 58.30863470864959 L 28.50871003714929 58.44638575300557 Q 30.55297029283326 59.72058291329839 32.684132397623706 59.821498445553274 L 32.684132397623706 59.821498445553274 Q 33.257566974878245 59.787673911772735 33.48141242195671 59.42854711009852 L 33.48141242195671 59.42854711009852 Q 33.818902480628864 58.88709439372818 32.298007474223056 57.83171159074781 L 32.298007474223056 57.83171159074781 L 32.11288158080833 57.68563553995517 Q 30.212272045794037 56.50097655849375 28.125160303309855 56.30477303053202 L 28.125160303309855 56.30477303053202 Q 27.415112417041684 56.360847534623076 27.22570473105221 56.66472405911664 L 27.22570473105221 56.66472405911664 L 27.17060431330982 56.75312450260567 Q 26.83311425463767 57.29457721897602 28.2877089284267 58.30863470864959 Z" fill-opacity="1"/></g></g><g><g><path fill="rgb(0,0,0)" stroke="none" paint-order="stroke fill markers" d=" M 34.37469092254861 39.019754628836324 L 34.37469092254861 39.019754628836324 L 34.55410939105791 38.83100650716207 Q 35.940117060292195 37.37292726722849 38.758170288040795 37.54558240717773 L 38.758170288040795 37.54558240717773 Q 41.4475445740949 37.91030492386834 43.08021582657716 39.462274676473726 L 43.08021582657716 39.462274676473726 L 43.250089136083986 39.623751298132085 Q 45.18003868020319 41.45830513863961 44.78088579424485 44.061056204177056 L 44.78088579424485 44.061056204177056 Q 44.43227533473995 45.750729028377236 43.037296742080194 47.21824567439453 L 43.037296742080194 47.21824567439453 Q 41.40010321693289 48.940572284672065 38.06144998270338 47.12329603801132 L 38.06144998270338 47.12329603801132 Q 36.864657587786134 46.41681774777209 35.93979179158231 45.53766725207656 L 35.93979179158231 45.53766725207656 Q 33.028352014757 42.77013737532071 33.73904705439661 40.10423111606552 L 33.73904705439661 40.10423111606552 Q 34.01585398553003 39.39725087218482 34.37469092254861 39.019754628836324 Z M 38.14807387320458 44.726481340552304 L 38.14807387320458 44.726481340552304 L 38.33682199487883 44.9058998090616 Q 40.082742120365644 46.56552064277256 42.1499650643737 47.09337020591701 L 42.1499650643737 47.09337020591701 Q 42.718470230736706 47.17566959409907 43.01002524206431 46.868953896378414 L 43.01002524206431 46.868953896378414 Q 43.44960048991208 46.406520998276505 42.17228529000315 45.066588029274534 L 42.17228529000315 45.066588029274534 L 42.02035382734726 44.88623659544874 Q 40.39711998094871 43.34323776626882 38.392227018260655 42.730918031029205 L 38.392227018260655 42.730918031029205 Q 37.6854261392497 42.64291309802942 37.438725745049425 42.90244176533151 L 37.438725745049425 42.90244176533151 L 37.3669583576457 42.97794101400121 Q 36.92738310979794 43.44037391210313 38.14807387320458 44.726481340552304 Z" fill-opacity="1"/></g></g><g><g><path fill="rgb(0,0,0)" stroke="none" paint-order="stroke fill markers" d=" M 47.99327800254586 27.057746236369475 L 47.99327800254586 27.057746236369475 L 48.20701848202692 26.908978472021875 Q 49.858163686018116 25.759747492436645 52.58377597448362 26.496138315804934 L 52.58377597448362 26.496138315804934 Q 55.14468050805533 27.39476200489953 56.43152166966209 29.243617152410714 L 56.43152166966209 29.243617152410714 L 56.56541265757493 29.435983583943667 Q 58.08656304802916 31.62147998663752 57.17165090744376 34.09060369972575 L 57.17165090744376 34.09060369972575 Q 56.49004788557939 35.675514052364726 54.828215657614145 36.83218342016733 L 54.828215657614145 36.83218342016733 Q 52.877833782349455 38.18968926983921 49.973337995007256 35.737546819568436 L 49.973337995007256 35.737546819568436 Q 48.94325704502245 34.804617643484036 48.2142949997192 33.75728929402683 L 48.2142949997192 33.75728929402683 Q 45.91955223465744 30.46034239803146 47.152342289767226 27.992069256232377 L 47.152342289767226 27.992069256232377 Q 47.56579704358373 27.35528176506468 47.99327800254586 27.057746236369475 Z M 50.54066394090621 33.4072323207355 L 50.54066394090621 33.4072323207355 L 50.68943170525381 33.62097280021656 Q 52.06553352546913 35.59807223541639 53.984184958478735 36.531245606315565 L 53.984184958478735 36.531245606315565 Q 54.52448604564277 36.72629956983828 54.871814324799494 36.48455195277343 L 54.871814324799494 36.48455195277343 Q 55.395478499528096 36.120070930121805 54.41403654047849 34.55044480828461 L 54.41403654047849 34.55044480828461 L 54.30151960051376 34.343201600316895 Q 53.02211682712438 32.505033476779765 51.18152319768982 31.501665976167487 L 51.18152319768982 31.501665976167487 Q 50.50690583696837 31.273184538374007 50.21301267768191 31.47774021435196 L 50.21301267768191 31.47774021435196 L 50.12751648588949 31.537247320091 Q 49.603852311160885 31.901728342742626 50.54066394090621 33.4072323207355 Z" fill-opacity="1"/></g></g><g><g><path fill="rgb(0,0,0)" stroke="none" paint-order="stroke fill markers" d=" M 63.74102639164925 18.08200228333656 L 63.74102639164925 18.08200228333656 L 63.98033832175868 17.979305446067464 Q 65.82902298185407 17.18597237816372 68.35060744370085 18.455950958120106 L 68.35060744370085 18.455950958120106 Q 70.67819849229225 19.851686060203363 71.5665261346699 21.921734255649973 L 71.5665261346699 21.921734255649973 L 71.65895328821209 22.137114992748465 Q 72.70902844928857 24.584079478117438 71.31581366460927 26.818489623832903 L 71.31581366460927 26.818489623832903 Q 70.32912298818553 28.233751088854575 68.46847273158467 29.032218998621776 L 68.46847273158467 29.032218998621776 Q 66.28475136933608 29.969327638702254 63.933323427678744 26.982709984850047 L 63.933323427678744 26.982709984850047 Q 63.11212555774813 25.8615241530039 62.608911055129575 24.688895695467664 L 62.608911055129575 24.688895695467664 Q 61.02481234025381 20.99750917352963 62.72922684113091 18.82792054162168 L 62.72922684113091 18.82792054162168 Q 63.262402531430375 18.287395957874747 63.74102639164925 18.08200228333656 Z M 64.95812503809238 24.814299034025748 L 64.95812503809238 24.814299034025748 L 65.06082187536147 25.053610964135185 Q 66.01076762010058 27.26724631764746 67.70229772701234 28.567539268853544 L 67.70229772701234 28.567539268853544 Q 68.19227474498624 28.867362275532432 68.58115663141407 28.700479914970156 L 68.58115663141407 28.700479914970156 Q 69.16747086018218 28.44887266366088 68.52208249110993 26.713814066839706 L 68.52208249110993 26.713814066839706 L 68.45358653057868 26.488163646014307 Q 67.57039373006448 24.430081047073163 65.96945355333304 23.07674376445397 L 65.96945355333304 23.07674376445397 Q 65.3546386249132 22.717139878775487 65.02558472101273 22.85834803002049 L 65.02558472101273 22.85834803002049 L 64.92985994896895 22.89942676492813 Q 64.34354572020084 23.151034016237407 64.95812503809238 24.814299034025748 Z" fill-opacity="1"/></g></g><g><g><path fill="rgb(0,0,0)" stroke="none" paint-order="stroke fill markers" d=" M 80.97322142052703 12.459990781779904 L 80.97322142052703 12.459990781779904 L 81.2283073427282 12.407569292173482 Q 83.19884609173224 12.002613284963873 85.4131687628187 13.754186549228795 L 85.4131687628187 13.754186549228795 Q 87.41215447542011 15.58989150522951 87.86560036051566 17.796384732269637 L 87.86560036051566 17.796384732269637 L 87.91277970116144 18.025962062250688 Q 88.4487894323871 20.634215616757658 86.63431038059447 22.542435181202716 L 86.63431038059447 22.542435181202716 Q 85.38292728183536 23.730106787942937 83.39963423672127 24.137683869632866 L 83.39963423672127 24.137683869632866 Q 81.07197519663559 24.616029962291467 79.36988283687562 21.217209582519207 L 79.36988283687562 21.217209582519207 Q 78.79118798428081 19.953668574600826 78.53432268520935 18.70374755581509 L 78.53432268520935 18.70374755581509 Q 77.7257212080303 14.769047205862037 79.83198122474859 12.986966297351374 L 79.83198122474859 12.986966297351374 Q 80.46304957612469 12.564833760992748 80.97322142052703 12.459990781779904 Z M 80.81020461346452 19.299477178807756 L 80.81020461346452 19.299477178807756 L 80.86262610307094 19.554563101008927 Q 81.34752488193034 21.914107881369752 82.74268222142095 23.528286266682436 L 82.74268222142095 23.528286266682436 Q 83.162275453519 23.920603527396352 83.5767900770959 23.835418606785918 L 83.5767900770959 23.835418606785918 Q 84.20175058648877 23.706985957250183 83.91883808305357 21.877528388259627 L 83.91883808305357 21.877528388259627 L 83.89716733462791 21.642708909317932 Q 83.44634252401269 19.448969978387865 82.15059847892223 17.801068701122556 L 82.15059847892223 17.801068701122556 Q 81.6207565782112 17.325064592890417 81.2700134351846 17.397144141099247 L 81.2700134351846 17.397144141099247 L 81.16797906630413 17.418112736941815 Q 80.54301855691126 17.54654538647755 80.81020461346452 19.299477178807756 Z" fill-opacity="1"/></g></g></g></g></svg>