<svg version="1.1" xmlns="http://www.w3.org/2000/svg" xmlns:xlink="http://www.w3.org/1999/xlink" width="200" height="200" viewBox="0 0 200 200"><defs/><g><g/><g><g><g><path fill="rgb(0,0,0)" stroke="none" paint-order="stroke fill markers" d=" M 98.73046875 7.694012959798176 L 98.73046875 7.694012959798176 L 99.05598958333333 7.694012959798176 Q 101.57063802083333 7.694012959798176 103.84114583333333 10.395835876464844 L 103.84114583333333 10.395835876464844 Q 105.82682291666667 13.14648691813151 105.82682291666667 15.962242126464844 L 105.82682291666667 15.962242126464844 L 105.82682291666667 16.255210876464844 Q 105.82682291666667 19.583661397298176 103.125 21.463544209798176 L 103.125 21.463544209798176 Q 101.2939453125 22.602867126464844 98.76302083333333 22.602867126464844 L 98.76302083333333 22.602867126464844 Q 95.79264322916667 22.602867126464844 94.56380208333333 18.013023376464844 L 94.56380208333333 18.013023376464844 Q 94.17317708333333 16.320315043131508 94.17317708333333 14.725262959798176 L 94.17317708333333 14.725262959798176 Q 94.17317708333333 9.70410410563151 97.20052083333333 8.052085876464842 L 97.20052083333333 8.052085876464842 Q 98.07942708333333 7.694012959798176 98.73046875 7.694012959798176 Z M 96.80989583333333 16.027346293131508 L 96.80989583333333 16.027346293131508 L 96.80989583333333 16.352867126464844 Q 96.80989583333333 19.363934834798176 98.11197916666667 21.69140879313151 L 98.11197916666667 21.69140879313151 Q 98.52701822916667 22.27734629313151 99.05598958333333 22.27734629313151 L 99.05598958333333 22.27734629313151 Q 99.853515625 22.27734629313151 99.96744791666667 19.966148376464844 L 99.96744791666667 19.966148376464844 L 100 19.673179626464844 Q 100 16.873700459798176 98.828125 14.529950459798176 L 98.828125 14.529950459798176 Q 98.29915364583333 13.813804626464844 97.8515625 13.813804626464844 L 97.8515625 13.813804626464844 L 97.72135416666667 13.813804626464844 Q 96.923828125 13.813804626464844 96.80989583333333 16.027346293131508 Z" fill-opacity="1"/></g></g><g><g><path fill="rgb(0,0,0)" stroke="none" paint-order="stroke fill markers" d=" M 117.33751471578496 9.32796717542629 L 117.33751471578496 9.32796717542629 L 117.65637211853642 9.393494037434317 Q 120.11954555479147 9.89968904644633 121.7997029843163 13.003255351789464 L 121.7997029843163 13.003255351789464 Q 123.1910311571324 16.097314263288293 122.62422380076296 18.85543079708845 L 122.62422380076296 18.85543079708845 L 122.56524962495573 19.142402459564767 Q 121.89523746092365 22.402719402698477 118.87030338999016 23.700247948921547 L 118.87030338999016 23.700247948921547 Q 116.84738648248508 24.447660259756514 114.36827017609245 23.9381889076441 L 114.36827017609245 23.9381889076441 Q 111.45869637598535 23.34025629182085 111.17893843491177 18.59700300894492 L 111.17893843491177 18.59700300894492 Q 111.13704923405174 16.860312280227678 111.45813085789109 15.29791100674551 L 111.45813085789109 15.29791100674551 Q 112.4688827043649 10.379535569304192 115.76680537464425 9.37073406701517 L 115.76680537464425 9.37073406701517 Q 116.69979991028204 9.196913451410236 117.33751471578496 9.32796717542629 Z M 113.77876837214583 17.104108200016384 L 113.77876837214583 17.104108200016384 L 113.7132415101378 17.422965602767846 Q 113.10711803656355 20.37239657821888 113.914030584212 22.91433445592395 L 113.914030584212 22.91433445592395 Q 114.20262542110567 23.57182452993682 114.7207687005768 23.678305680699864 L 114.7207687005768 23.678305680699864 Q 115.50196933731787 23.83884649261953 116.07881014853788 21.597893334786953 L 116.07881014853788 21.597893334786953 L 116.16967006462026 21.31747435851144 Q 116.73320107788929 18.575300694848856 116.05710783444182 16.043630691809422 L 116.05710783444182 16.043630691809422 Q 115.68312365138836 15.23566325499316 115.24469472260509 15.145563819732121 L 115.24469472260509 15.145563819732121 L 115.11715176150452 15.119353074928911 Q 114.33595112476343 14.958812263009243 113.77876837214583 17.104108200016384 Z" fill-opacity="1"/></g></g><g><g><path fill="rgb(0,0,0)" stroke="none" paint-order="stroke fill markers" d=" M 135.2347607920342 14.674045068403933 L 135.2347607920342 14.674045068403933 L 135.53390070467097 14.802416114990299 Q 137.8447565297902 15.794082449869983 138.86577773376501 19.17233177469528 L 138.86577773376501 19.17233177469528 Q 139.60579585719464 22.483127420653023 138.49538630422256 25.07068766496129 L 138.49538630422256 25.07068766496129 L 138.37985236229486 25.339913586334404 Q 137.06725841094925 28.398619193045622 133.84305434202759 29.060672501856263 L 133.84305434202759 29.060672501856263 Q 131.71109367039332 29.38557505903673 129.38528084964227 28.38749017182773 L 129.38528084964227 28.38749017182773 Q 126.65562914683152 27.21610437172713 127.33640773349539 22.513630902684802 L 127.33640773349539 22.513630902684802 Q 127.64496928058036 20.804058101069835 128.27398740885354 19.338272529149545 L 128.27398740885354 19.338272529149545 Q 130.25411080244825 14.724039376727001 133.68759505139624 14.399755053348482 L 133.68759505139624 14.399755053348482 Q 134.6364809667606 14.4173029752312 135.2347607920342 14.674045068403933 Z M 130.18353651486612 21.574637657046292 L 130.18353651486612 21.574637657046292 L 130.05516546827974 21.873777569683085 Q 128.86773328735586 24.640821761573427 129.14643995481052 27.29315632327197 L 129.14643995481052 27.29315632327197 Q 129.29677545956696 27.995281250415818 129.78287781760176 28.20388420111866 L 129.78287781760176 28.20388420111866 Q 130.5157706035619 28.518393265255263 131.53190400374797 26.439429751839253 L 131.53190400374797 26.439429751839253 L 131.67735193693937 26.183040935124776 Q 132.78134293758214 23.61043768644835 132.62871078751152 20.994494547752513 L 132.62871078751152 20.994494547752513 Q 132.42502473196674 20.12778378924872 132.01370735209113 19.951273600192465 L 132.01370735209113 19.951273600192465 L 131.89405138703643 19.89992518155792 Q 131.1611586010763 19.58541611742132 130.18353651486612 21.574637657046292 Z" fill-opacity="1"/></g></g><g><g><path fill="rgb(0,0,0)" stroke="none" paint-order="stroke fill markers" d=" M 151.68949162154894 23.51337758165515 L 151.68949162154894 23.51337758165515 L 151.95666722090027 23.699337287089648 Q 154.02059872588927 25.135876011571185 154.3406829762584 28.650502431592855 L 154.3406829762584 28.650502431592855 Q 154.39909462137996 32.04249044926203 152.79054316937152 34.35355938365101 L 152.79054316937152 34.35355938365101 L 152.62317943448045 34.59401742306721 Q 150.72174144641266 37.325887926434525 147.4302666729124 37.32536145758206 L 147.4302666729124 37.32536145758206 Q 145.2765449575404 37.21445271224263 143.19925467258386 35.768616002489374 L 143.19925467258386 35.768616002489374 Q 140.76127732850298 34.07173369039953 142.37472128757824 29.602559851530575 L 142.37472128757824 29.602559851530575 Q 143.02110103661605 27.990095088382272 143.9323035932451 26.68093465156077 L 143.9323035932451 26.68093465156077 Q 146.8007320495723 22.559751031566556 150.22921062861977 22.933260125399443 L 150.22921062861977 22.933260125399443 Q 151.1551404228463 23.14145817078614 151.68949162154894 23.51337758165515 Z M 145.35258712625284 29.25591066298555 L 145.35258712625284 29.25591066298555 L 145.16662742081834 29.523086262336875 Q 143.4465001455492 31.99446055633665 143.1855906490978 34.64860491343665 L 143.1855906490978 34.64860491343665 Q 143.19151206848863 35.36661961669803 143.62567241743454 35.668804138029095 L 143.62567241743454 35.668804138029095 Q 144.2802526358453 36.12440541634363 145.69407800420325 34.29254455785128 L 145.69407800420325 34.29254455785128 L 145.8881592990294 34.07068248897854 Q 147.48741276576615 31.772972334557128 147.8644904872298 29.179853079663364 L 147.8644904872298 29.179853079663364 Q 147.83944149023978 28.28988223975938 147.47207504113172 28.034187644786936 L 147.47207504113172 28.034187644786936 L 147.36520480139117 27.959803762613134 Q 146.71062458298044 27.504202484298602 145.35258712625284 29.25591066298555 Z" fill-opacity="1"/></g></g><g><g><path fill="rgb(0,0,0)" stroke="none" paint-order="stroke fill markers" d=" M 166.0280485908201 35.48408140350992 L 166.0280485908201 35.48408140350992 L 166.25232167645672 35.72001655560273 Q 167.9848312629996 37.54261560551971 167.59087427294463 41.049729902151 L 167.59087427294463 41.049729902151 Q 166.96528806014373 44.38404190354656 164.9244489945409 46.3240040943033 L 164.9244489945409 46.3240040943033 L 164.71210735765737 46.52584987137625 Q 162.29967042750837 48.81904217201066 159.07567831338847 48.15595747919178 L 159.07567831338847 48.15595747919178 Q 156.98836917435764 47.61377804839787 155.24464593353295 45.77938224087625 L 155.24464593353295 45.77938224087625 Q 153.19815402709884 43.62647397802934 155.67820877332926 39.57356827140267 L 155.67820877332926 39.57356827140267 Q 156.63594386144794 38.12422604358089 157.7920261067027 37.02528792396147 L 157.7920261067027 37.02528792396147 Q 161.43132582773436 33.56587557801666 164.7144364210259 34.621886582873984 L 164.7144364210259 34.621886582873984 Q 165.57950241954688 35.0122110993243 166.0280485908201 35.48408140350992 Z M 158.66489749198806 39.833454998459715 L 158.66489749198806 39.833454998459715 L 158.42896233989526 40.05772808409633 Q 156.24656218303673 42.13225412623504 155.4567181881196 44.6795472969081 L 155.4567181881196 44.6795472969081 Q 155.31798309853923 45.38405616997235 155.68242686269872 45.767450792123164 L 155.68242686269872 45.767450792123164 Q 156.23189592250844 46.34549191475055 157.98553108234023 44.83573030996306 L 157.98553108234023 44.83573030996306 L 158.2203000277874 44.657478048099385 Q 160.2493423357856 42.72872951162448 161.14069232256202 40.264596747506715 L 161.14069232256202 40.264596747506715 Q 161.2953058930067 39.38780133695534 160.98693040025637 39.06339050282772 L 160.98693040025637 39.06339050282772 L 160.8972211660017 38.9690164419906 Q 160.34775210619202 38.39097531936321 158.66489749198806 39.833454998459715 Z" fill-opacity="1"/></g></g><g><g><path fill="rgb(0,0,0)" stroke="none" paint-order="stroke fill markers" d=" M 177.66340949281678 50.09607451300359 L 177.66340949281678 50.09607451300359 L 177.83559829826174 50.37232589890683 Q 179.1657568203242 52.50636785500935 178.073887235306 55.86238835687774 L 178.073887235306 55.86238835687774 Q 176.789914737638 59.00251721689753 174.40034024957495 60.49195038399657 L 174.40034024957495 60.49195038399657 L 174.15171400226205 60.646920308897045 Q 171.32704358140143 62.40755084457191 168.30252474261692 61.10905469301975 L 168.30252474261692 61.10905469301975 Q 166.3670828613276 60.157801466371446 165.02831489899293 58.00994694097376 L 165.02831489899293 58.00994694097376 Q 163.45709204930753 55.4891530446067 166.70222384998843 52.018441906047826 L 166.70222384998843 52.018441906047826 Q 167.9321044901513 50.79155845465007 169.28573628107716 49.947833307969695 L 169.28573628107716 49.947833307969695 Q 173.54691390863462 47.29182098398096 176.55024558273183 48.98710068524784 L 176.55024558273183 48.98710068524784 Q 177.31903188192683 49.54357174119711 177.66340949281678 50.09607451300359 Z M 169.57546006156852 52.874224755565834 L 169.57546006156852 52.874224755565834 L 169.29920867566526 53.04641356101081 Q 166.7438833560603 54.63916001137682 165.45744116863204 56.97531551392135 L 165.45744116863204 56.97531551392135 Q 165.17972940094856 57.63747588074894 165.45953620979665 58.0863843828417 L 165.45953620979665 58.0863843828417 Q 165.88139878313683 58.76320027830464 167.90304970495558 57.63734774471145 L 167.90304970495558 57.63734774471145 L 168.16889483281298 57.510002958401294 Q 170.54465675158085 56.02917923157451 171.91378703048224 53.79491484311903 L 171.91378703048224 53.79491484311903 Q 172.2417332706213 52.96719096904732 172.00497366313445 52.58734531343037 L 172.00497366313445 52.58734531343037 L 171.93609814095646 52.476844759069074 Q 171.51423556761628 51.80002886360614 169.57546006156852 52.874224755565834 Z" fill-opacity="1"/></g></g><g><g><path fill="rgb(0,0,0)" stroke="none" paint-order="stroke fill markers" d=" M 186.11922128511438 66.75114019539716 L 186.11922128511438 66.75114019539716 L 186.23227638044148 67.05639805091378 Q 187.10562699184325 69.41451498477973 185.36054608096168 72.48204581822306 L 185.36054608096168 72.48204581822306 Q 183.47075328334142 75.2994342923884 180.8302728331226 76.27736086696773 L 180.8302728331226 76.27736086696773 L 180.55554076315764 76.3791104527621 Q 177.43427919050012 77.5350988024816 174.73305778367674 75.65435177720754 L 174.73305778367674 75.65435177720754 Q 173.02872037815365 74.33296917357131 172.14971701198553 71.95958934692953 L 172.14971701198553 71.95958934692953 Q 171.11808926712584 69.1741114153403 174.99544204505054 66.42768616665307 L 174.99544204505054 66.42768616665307 Q 176.4471167793445 65.47349024433225 177.94288027137597 64.91952027722951 L 177.94288027137597 64.91952027722951 Q 182.65148269271995 63.175645431809144 185.25207869600877 65.4407888793288 L 185.25207869600877 65.4407888793288 Q 185.8931110944602 66.1406244843639 186.11922128511438 66.75114019539716 Z M 177.63759512145887 67.84432928822255 L 177.63759512145887 67.84432928822255 L 177.33233726594224 67.95738438354964 Q 174.50870210241345 69.00314401532522 172.77832881677793 71.03251936898043 L 172.77832881677793 71.03251936898043 Q 172.37300992339001 71.6252223063529 172.55672445329654 72.1212663215674 L 172.55672445329654 72.1212663215674 Q 172.83370943684793 72.86914806758315 175.04060949438045 72.17329714019162 L 175.04060949438045 72.17329714019162 L 175.32664707387812 72.10207333994892 Q 177.95186463132114 71.12979952013593 179.74272284786332 69.21687455392103 L 179.74272284786332 69.21687455392103 Q 180.23057560009337 68.47210932898692 180.07512484401863 68.05237977765155 L 180.07512484401863 68.05237977765155 L 180.0299028058878 67.9302766354449 Q 179.75291782233643 67.18239488942916 177.63759512145887 67.84432928822255 Z" fill-opacity="1"/></g></g><g><g><path fill="rgb(0,0,0)" stroke="none" paint-order="stroke fill markers" d=" M 191.04930203942052 84.7674181047663 L 191.04930203942052 84.7674181047663 L 191.09859493574365 85.0891851374252 Q 191.47938255983962 87.57483546471514 189.15253414062448 90.22829155699266 L 189.15253414062448 90.22829155699266 Q 186.7342893822278 92.60759543014213 183.9510045497284 93.03397898333698 L 183.9510045497284 93.03397898333698 L 183.6614142203354 93.07834259002777 Q 180.37134631139824 93.58236245493151 178.10401065831138 91.19636256012865 L 178.10401065831138 91.19636256012865 Q 176.7005535021878 89.55894813855326 176.31730123327566 87.05720945963039 L 176.31730123327566 87.05720945963039 Q 175.86750355432733 84.12108528661801 180.218338031198 82.21138490017492 L 180.218338031198 82.21138490017492 Q 181.83237512543647 81.56894140010411 183.40903358546504 81.3274062081209 L 183.40903358546504 81.3274062081209 Q 188.37229006422842 80.56706328233702 190.46368169077718 83.30933523722494 L 190.46368169077718 83.30933523722494 Q 190.95071624677433 84.12388403944853 191.04930203942052 84.7674181047663 Z M 182.52123791504664 84.13089075795033 L 182.52123791504664 84.13089075795033 L 182.19947088238774 84.18018365427343 Q 179.223125830293 84.63614294526215 177.11966313207435 86.27565528460791 L 177.11966313207435 86.27565528460791 Q 176.6033309161003 86.77463546462958 176.68343187262536 87.29750689270028 L 176.68343187262536 87.29750689270028 Q 176.80419946861696 88.08583612271455 179.10599791420816 87.84847502025113 L 179.10599791420816 87.84847502025113 L 179.40051753323348 87.83628811682622 Q 182.16771401409994 87.41236920844753 184.30698222248077 85.89909903734917 L 184.30698222248077 85.89909903734917 Q 184.93476873780529 85.26778323736764 184.86699100536103 84.82535356746168 L 184.86699100536103 84.82535356746168 L 184.84727384683177 84.69664675439812 Q 184.72650625084017 83.90831752438383 182.52123791504664 84.13089075795033 Z" fill-opacity="1"/></g></g><g><g><path fill="rgb(0,0,0)" stroke="none" paint-order="stroke fill markers" d=" M 192.2518136703941 103.4073197066787 L 192.2518136703941 103.4073197066787 L 192.23532631074607 103.73242273635678 Q 192.10796145746514 106.24384364061993 189.29460697759217 108.37459218754596 L 189.29460697759217 108.37459218754596 Q 186.4469134829595 110.21840247955647 183.63477227624415 110.07578681860112 L 183.63477227624415 110.07578681860112 L 183.34217954953388 110.0609481949179 Q 180.01800107107553 109.8923649425169 178.2773761597632 107.09879529422156 L 178.2773761597632 107.09879529422156 Q 177.23225695391002 105.21238499351432 177.36044617517337 102.68470893776727 L 177.36044617517337 102.68470893776727 Q 177.51089333196154 99.71814379195482 182.1570858330937 98.72335162595714 L 182.1570858330937 98.72335162595714 Q 183.86740641899732 98.41896226051314 185.4604112644199 98.49975032278843 L 185.4604112644199 98.49975032278843 Q 190.47512549720423 98.75406784535912 191.97169092809392 101.86119937157892 L 191.97169092809392 101.86119937157892 Q 192.28478838969014 102.75711364732256 192.2518136703941 103.4073197066787 Z M 184.02645153255864 101.06713542458878 L 184.02645153255864 101.06713542458878 L 183.70134850288056 101.05064806494076 Q 180.69414547835834 100.89813998819659 178.30370937756803 102.08066748542556 L 178.30370937756803 102.08066748542556 Q 177.69750254059628 102.46549660089867 177.67071058116824 102.99378902412556 L 177.67071058116824 102.99378902412556 Q 177.63031655003059 103.79029144683685 179.93277748486813 104.0211377607251 L 179.93277748486813 104.0211377607251 L 180.2237214756136 104.06848668737612 Q 183.01960753084506 104.21027798034909 185.41970383926008 103.15861606297373 L 185.41970383926008 103.15861606297373 Q 186.16172246397988 102.66659583097251 186.1843925834959 102.21957916516516 L 186.1843925834959 102.21957916516516 L 186.1909875273551 102.08953795329393 Q 186.23138155849276 101.29303553058263 184.02645153255864 101.06713542458878 Z" fill-opacity="1"/></g></g><g><g><path fill="rgb(0,0,0)" stroke="none" paint-order="stroke fill markers" d=" M 189.67752521057386 121.90772523945661 L 189.67752521057386 121.90772523945661 L 189.5959325893959 122.22285450992086 Q 188.96562959079608 124.65722812425727 185.7809481132264 126.17803602996834 L 185.7809481132264 126.17803602996834 Q 182.62039078861778 127.41086693084648 179.89452259910195 126.70509075765705 L 179.89452259910195 126.70509075765705 L 179.6109062556841 126.63165739859687 Q 176.38870946518708 125.79737284705215 175.2460566840331 122.71060251489602 L 175.2460566840331 122.71060251489602 Q 174.6020627315343 120.65242619441167 175.23644536119298 118.20229611655206 L 175.23644536119298 118.20229611655206 Q 175.98097802944196 115.3267415235657 180.73231288793485 115.28758448617248 L 180.73231288793485 115.28758448617248 Q 182.46889623976256 115.3337109917408 184.0130296650374 115.73351483551285 L 184.0130296650374 115.73351483551285 Q 188.87389866194863 116.99208101718303 189.71436833259963 120.33686578497883 L 189.71436833259963 120.33686578497883 Q 189.84071045292978 121.27746669852809 189.67752521057386 121.90772523945661 Z M 182.09161235163884 117.95969144156147 L 182.09161235163884 117.95969144156147 L 181.77648308117458 117.87809882038351 Q 178.86153732938018 117.12336707448729 176.28199256084886 117.80049691492185 L 176.28199256084886 117.80049691492185 Q 175.61072928201128 118.05542001664344 175.47814127259707 118.56750508114786 L 175.47814127259707 118.56750508114786 Q 175.27823935071106 119.3395717937853 177.487099753595 120.02917464881136 L 177.487099753595 120.02917464881136 L 177.76255683489504 120.13412093491796 Q 180.47266856088766 120.8358174770485 183.03533274447102 120.28881897585855 L 183.03533274447102 120.28881897585855 Q 183.8612051489066 119.95623767794565 183.9733950030263 119.52293493105729 L 183.9733950030263 119.52293493105729 L 184.0060320514975 119.3968832228716 Q 184.2059339733835 118.62481651023415 182.09161235163884 117.95969144156147 Z" fill-opacity="1"/></g></g><g><g><path fill="rgb(0,0,0)" stroke="none" paint-order="stroke fill markers" d=" M 183.43182833197088 139.51122592688276 L 183.43182833197088 139.51122592688276 L 183.28847086076073 139.80348000877427 Q 182.18103439566218 142.06114279138623 178.75540715427167 142.90974800153518 L 178.75540715427167 142.90974800153518 Q 175.4113795879063 143.48112726934752 172.8833817795447 142.24108514337956 L 172.8833817795447 142.24108514337956 L 172.62035310584233 142.11206341929042 Q 169.63205511850157 140.64623327616647 169.13415480662243 137.39263500022815 L 169.13415480662243 137.39263500022815 Q 168.91765129555932 135.24695464035278 170.03225563421836 132.97467915364624 L 170.03225563421836 132.97467915364624 Q 171.34039255901115 130.30786065638614 176.00234956749992 131.225941841309 L 176.00234956749992 131.225941841309 Q 177.694099758788 131.62069579333206 179.12614476005646 132.3231474022619 L 179.12614476005646 132.3231474022619 Q 183.63416397323311 134.5344363956787 183.784128956578 137.97993852366142 L 183.784128956578 137.97993852366142 Q 183.7185432743912 138.9267177630997 183.43182833197088 139.51122592688276 Z M 176.795932915688 134.11697558074252 L 176.795932915688 134.11697558074252 L 176.5036788337965 133.97361810953234 Q 173.80032857629996 132.6475615008383 171.13728200593496 132.79157190925167 L 171.13728200593496 132.79157190925167 Q 170.42844388273727 132.90615241548505 170.19548799202073 133.38106529855875 L 170.19548799202073 133.38106529855875 Q 169.8442621875558 134.097087799193 171.86909105406204 135.2172147734472 L 171.86909105406204 135.2172147734472 L 172.1177839806434 135.3754619057255 Q 174.63116908491043 136.60833615813294 177.25148537088597 136.58839525603668 L 177.25148537088597 136.58839525603668 Q 178.12740024176384 136.42886880962533 178.3245167646778 136.02701944702451 L 178.3245167646778 136.02701944702451 L 178.38185975316188 135.9101178142679 Q 178.7330855576268 135.19409531363368 176.795932915688 134.11697558074252 Z" fill-opacity="1"/></g></g><g><g><path fill="rgb(0,0,0)" stroke="none" paint-order="stroke fill markers" d=" M 173.77042259863347 155.49713238249038 L 173.77042259863347 155.49713238249038 L 173.57116934910624 155.75454635935813 Q 172.03193799650836 157.74306933066143 168.50561057305364 157.88472984823787 L 168.50561057305364 157.88472984823787 Q 165.1150176464051 157.77126514862596 162.88838674649915 156.04772454021537 L 162.88838674649915 156.04772454021537 L 162.6567141673182 155.86839661564088 Q 160.02465625384554 153.8310321392249 160.1918925085104 150.54380861520286 L 160.1918925085104 150.54380861520286 Q 160.41174311806398 148.39846862197652 161.96093713313823 146.39707495182984 L 161.96093713313823 146.39707495182984 Q 163.77912303507424 144.0481724129117 168.1608411258747 145.88590546856997 L 168.1608411258747 145.88590546856997 Q 169.73849770501963 146.6131255938703 170.99982619167156 147.58946651655376 L 170.99982619167156 147.58946651655376 Q 174.97043678485645 150.66294789051133 174.42375749685695 154.06810811673205 L 174.42375749685695 154.06810811673205 Q 174.16892909768794 154.9823044287549 173.77042259863347 155.49713238249038 Z M 168.35621896303 148.8775067310735 L 168.35621896303 148.8775067310735 L 168.09880498616226 148.67825348154628 Q 165.71772570013565 146.83516092341938 163.08020276742238 146.4401560967706 L 163.08020276742238 146.4401560967706 Q 162.36280971591322 146.40970306812795 162.03902318543146 146.82800078053805 L 162.03902318543146 146.82800078053805 Q 161.55085272408974 147.458665023864 163.30875332251617 148.96345798741106 L 163.30875332251617 148.96345798741106 L 163.5205005767444 149.16852730967236 Q 165.73426077780698 150.88210525560658 168.30495310955274 151.39003833547878 L 168.30495310955274 151.39003833547878 Q 169.19505038914355 151.41009777202862 169.46902360724349 151.0561535538355 L 169.46902360724349 151.0561535538355 L 169.54872490705438 150.9531879630884 Q 170.0368953683961 150.32252371976242 168.35621896303 148.8775067310735 Z" fill-opacity="1"/></g></g><g><g><path fill="rgb(0,0,0)" stroke="none" paint-order="stroke fill markers" d=" M 161.08884709645136 169.21097971772267 L 161.08884709645136 169.21097971772267 L 160.84185552005397 169.4230150311088 Q 158.9338455923841 171.06098782701676 155.45118624590734 170.48990405378672 L 155.45118624590734 170.48990405378672 Q 152.15283923177034 169.6962406448842 150.31873377098023 167.55976350904675 L 150.31873377098023 167.55976350904675 L 150.1279019889327 167.33747109028909 Q 147.95984090955943 164.81198222162575 148.78536705885284 161.62571276682584 L 148.78536705885284 161.62571276682584 Q 149.43257107923668 159.56854361163795 151.3529305857264 157.9199690500607 L 151.3529305857264 157.9199690500607 Q 153.6067287203526 155.98514681541218 157.52881983999734 158.66729473458273 L 157.52881983999734 158.66729473458273 Q 158.92779336128214 159.6972085557858 159.96676639687425 160.90746728013303 L 159.96676639687425 160.90746728013303 Q 163.23741110585544 164.7173123460628 162.01646866079435 167.9427230107707 L 162.01646866079435 167.9427230107707 Q 161.58283024924614 168.7869090909504 161.08884709645136 169.21097971772267 Z M 157.1179933745108 161.6369870129712 L 157.1179933745108 161.6369870129712 L 156.90595806112466 161.3899954365738 Q 154.94463141230287 159.1053233548979 152.4406126160024 158.1874748372011 L 152.4406126160024 158.1874748372011 Q 151.74403479200066 158.01323502425313 151.3426734803549 158.35779240850562 L 151.3426734803549 158.35779240850562 Q 150.7375441181813 158.87727892630167 152.1565477914838 160.7051314784083 L 152.1565477914838 160.7051314784083 L 152.32268041589157 160.94862742850458 Q 154.1461841110124 163.07275498552215 156.5620080424232 164.08776720739326 L 156.5620080424232 164.08776720739326 Q 157.42984704351846 164.28659129121505 157.76946046106488 163.9950427353091 L 157.76946046106488 163.9950427353091 L 157.86825709162386 163.91022860995466 Q 158.47338645379745 163.3907420921586 157.1179933745108 161.6369870129712 Z" fill-opacity="1"/></g></g><g><g><path fill="rgb(0,0,0)" stroke="none" paint-order="stroke fill markers" d=" M 145.90628701650576 180.09132141136658 L 145.90628701650576 180.09132141136658 L 145.6216689773962 180.24929731062798 Q 143.4229946252748 181.46966113242246 140.12658383861583 180.20921330516148 L 140.12658383861583 180.20921330516148 Q 137.0555174512885 178.7678438601803 135.68902592267722 176.30589782188258 L 135.68902592267722 176.30589782188258 L 135.54684761334192 176.04974158668398 Q 133.9315440433939 173.13952213678868 135.3815629497686 170.18465299706116 L 135.3815629497686 170.18465299706116 Q 136.42962377234494 168.2998754268322 138.64252902642178 167.07161281007467 L 138.64252902642178 167.07161281007467 Q 141.23966863329656 165.6300827293142 144.54156191052118 169.0468380610472 L 144.54156191052118 169.0468380610472 Q 145.70457823361204 170.33728078530325 146.478660139993 171.7319091769401 L 146.478660139993 171.7319091769401 Q 148.9154383861004 176.12214243020514 147.07021831113315 179.03575484181738 L 147.07021831113315 179.03575484181738 Q 146.4755230947249 179.77536961284372 145.90628701650576 180.09132141136658 Z M 143.54135042615985 171.87304180451935 L 143.54135042615985 171.87304180451935 L 143.38337452689845 171.58842376540977 Q 141.9220974587303 168.9557069036463 139.6540976225729 167.5525915210586 L 139.6540976225729 167.5525915210586 Q 139.00685300403765 167.2416983222197 138.5443486904846 167.4984091585195 L 138.5443486904846 167.4984091585195 Q 137.84703449466616 167.88545011170999 138.8690470657339 169.96152975412937 L 138.8690470657339 169.96152975412937 L 138.98276357115822 170.23348357925414 Q 140.34135630480642 172.6811987155964 142.5034077202831 174.16173535984413 L 142.5034077202831 174.16173535984413 Q 143.31345901221124 174.53118420958538 143.7048088159869 174.31396734810093 L 143.7048088159869 174.31396734810093 L 143.81865603163072 174.25077698839635 Q 144.51597022744917 173.86373603520587 143.54135042615985 171.87304180451935 Z" fill-opacity="1"/></g></g><g><g><path fill="rgb(0,0,0)" stroke="none" paint-order="stroke fill markers" d=" M 128.84431815234475 187.69271499609843 L 128.84431815234475 187.69271499609843 L 128.53372594648536 187.790163929358 Q 126.13440115622159 188.54295693878805 123.15919437429801 186.64474793964052 L 123.15919437429801 186.64474793964052 Q 120.44113843251247 184.61468229301198 119.59820515981731 181.92805971232823 L 119.59820515981731 181.92805971232823 L 119.5105011198837 181.6485267270548 Q 118.51408577730474 178.4727214221425 120.52923349636374 175.8702252872502 L 120.52923349636374 175.8702252872502 Q 121.93524338791437 174.23500231715735 124.35009778847113 173.4773368610643 L 124.35009778847113 173.4773368610643 Q 127.18425166693808 172.58811534507083 129.73076720301702 176.59959572463342 L 129.73076720301702 176.59959572463342 Q 130.61021230299798 178.09773647519077 131.08771207596982 179.6196382839018 L 131.08771207596982 179.6196382839018 Q 132.59086187149848 184.4105230592829 130.19690769329839 186.8930535833332 L 130.19690769329839 186.8930535833332 Q 129.46550256406354 187.49781712957932 128.84431815234475 187.69271499609843 Z M 128.18211947547053 179.16660581986665 L 128.18211947547053 179.16660581986665 L 128.08467054221097 178.85601361400725 Q 127.18326790956007 175.9830357098079 125.24413921331667 174.15209717095146 L 125.24413921331667 174.15209717095146 Q 124.67272607097874 173.71727859031049 124.16801373645724 173.87563310685726 L 124.16801373645724 173.87563310685726 Q 123.40706283210173 174.11438299334318 123.99024298619379 176.35369478158572 L 123.99024298619379 176.35369478158572 L 124.04688780554146 176.6429726601851 Q 124.88494863157365 179.31406563057587 126.70471289213626 181.1995133530291 L 126.70471289213626 181.1995133530291 Q 127.42381287982879 181.72446168937296 127.85087716288545 181.5904694061411 L 127.85087716288545 181.5904694061411 L 127.97511404522922 181.55148983283726 Q 128.73606494958472 181.31273994635134 128.18211947547053 179.16660581986665 Z" fill-opacity="1"/></g></g><g><g><path fill="rgb(0,0,0)" stroke="none" paint-order="stroke fill markers" d=" M 110.60145951396325 191.70395852543353 L 110.60145951396325 191.70395852543353 L 110.27760882275496 191.7368909219138 Q 107.77586223317084 191.991293684724 105.2436647712066 189.5330364131451 L 105.2436647712066 189.5330364131451 Q 102.98989680457758 186.9973856909647 102.70503157502313 184.1960772120129 L 102.70503157502313 184.1960772120129 L 102.67539241819087 183.90461158992545 Q 102.33865866417996 180.5932382723206 104.83643481153521 178.44966163980632 L 104.83643481153521 178.44966163980632 Q 106.5428315619009 177.13093949037565 109.06077068604542 176.87489010774146 L 109.06077068604542 176.87489010774146 Q 112.01590824332115 176.57438198985886 113.70279139300449 181.0163569391828 L 113.70279139300449 181.0163569391828 Q 114.26266068415192 182.66086165768962 114.4240294269053 184.2477300446103 L 114.4240294269053 184.2477300446103 Q 114.93201164261369 189.24312695649832 112.08733212651396 191.19294050164706 L 112.08733212651396 191.19294050164706 Q 111.24916089637985 191.63809373247295 110.60145951396325 191.70395852543353 Z M 111.66910924219695 183.2190796912674 L 111.66910924219695 183.2190796912674 L 111.63617684571668 182.8952290000591 Q 111.33155217827404 179.89961010638234 109.80068277860681 177.71580725016412 L 109.80068277860681 177.71580725016412 Q 109.32849483365172 177.17486481150155 108.80223746043823 177.228379955782 L 108.80223746043823 177.228379955782 Q 108.0088032669779 177.3090643271587 108.12927554006501 179.61993057350574 L 108.12927554006501 179.61993057350574 L 108.12652962777643 179.91468943524123 Q 108.40974823750688 182.6998053796326 109.8127239805148 184.91297372900334 L 109.8127239805148 184.91297372900334 Q 110.41143262598492 185.57193010538114 110.85672732639632 185.52664806022074 L 110.85672732639632 185.52664806022074 L 110.98626760287965 185.51347510162861 Q 111.77970179633998 185.43279073025192 111.66910924219695 183.2190796912674 Z" fill-opacity="1"/></g></g><g><g><path fill="rgb(0,0,0)" stroke="none" paint-order="stroke fill markers" d=" M 91.92457587746149 191.96083121797975 L 91.92457587746149 191.96083121797975 L 91.6007251862532 191.92789882149947 Q 89.09897859666908 191.67349605868927 87.11345891627755 188.75583185621042 L 87.11345891627755 188.75583185621042 Q 85.41624845016533 185.81840589697055 85.70111367971978 183.01709741801875 L 85.70111367971978 183.01709741801875 L 85.73075283655204 182.7256317959313 Q 86.06748659056294 179.41425847832642 88.94563191726546 177.81735962738486 L 88.94563191726546 177.81735962738486 Q 90.88255544299314 176.8691269383574 93.40049456713767 177.1251763209916 L 93.40049456713767 177.1251763209916 Q 96.3556321244134 177.4256844388742 97.11382169335272 182.11629898162428 L 97.11382169335272 182.11629898162428 Q 97.33119406110521 183.83984145168378 97.16982531835181 185.42670983860447 L 97.16982531835181 185.42670983860447 Q 96.66184310264343 190.42210675049247 93.48289976226881 191.75937772110797 L 93.48289976226881 191.75937772110797 Q 92.57227725987809 192.02669601094033 91.92457587746149 191.96083121797975 Z M 94.67836430548573 183.86455466228097 L 94.67836430548573 183.86455466228097 L 94.711296701966 183.54070397107267 Q 95.01592136940863 180.5450850773959 93.95598523940947 178.09782304933543 L 93.95598523940947 178.09782304933543 Q 93.6023539217834 177.4729029996481 93.07609654856991 177.41938785536766 L 93.07609654856991 177.41938785536766 Q 92.28266235510958 177.33870348399097 91.93549459817666 179.6265170528018 L 91.93549459817666 179.6265170528018 L 91.87347037222358 179.91468943524123 Q 91.59025176249314 182.6998053796326 92.51900099618497 185.15008698366137 L 92.51900099618497 185.15008698366137 Q 92.97280709714182 185.9160736486001 93.41810179755323 185.96135569376048 L 93.41810179755323 185.96135569376048 L 93.54764207403656 185.9745286523526 Q 94.34107626749689 186.0552130237293 94.67836430548573 183.86455466228097 Z" fill-opacity="1"/></g></g><g><g><path fill="rgb(0,0,0)" stroke="none" paint-order="stroke fill markers" d=" M 73.57830105335852 188.452816675523 L 73.57830105335852 188.452816675523 L 73.26770884749912 188.35536774226344 Q 70.86838405723533 187.60257473283338 69.5108295674204 184.34495311471503 L 69.5108295674204 184.34495311471503 Q 68.43966059772137 181.12601048231988 69.28259387041653 178.43938790163614 L 69.28259387041653 178.43938790163614 L 69.37029791035013 178.1598549163627 Q 70.3667132529291 174.98404961145042 73.50739615113598 173.99920576866674 L 73.50739615113598 173.99920576866674 Q 75.5955485755035 173.4602832977439 78.01040297606026 174.21794875383694 L 78.01040297606026 174.21794875383694 Q 80.84455685452721 175.1071702698304 80.64301247268666 179.85439009550262 L 80.64301247268666 179.85439009550262 Q 80.50898866676823 181.58640828588292 80.0314888937964 183.10831009459395 L 80.0314888937964 183.10831009459395 Q 78.52833909826775 187.89919486997505 75.14527824748316 188.56917523539758 L 75.14527824748316 188.56917523539758 Q 74.1994854650773 188.6477145420421 73.57830105335852 188.452816675523 Z M 77.90548775937357 181.07660491175398 L 77.90548775937357 181.07660491175398 L 78.00293669263313 180.76601270589458 Q 78.90433932528403 177.89303480169522 78.3587303746523 175.28250479676234 L 78.3587303746523 175.28250479676234 Q 78.13813339204877 174.59919143630952 77.63342105752726 174.44083691976275 L 77.63342105752726 174.44083691976275 Q 76.87247015317175 174.20208703327683 76.07187545497811 176.37318456823766 L 76.07187545497811 176.37318456823766 L 75.95311219445857 176.64297266018514 Q 75.11505136842639 179.3140656305759 75.53155099005139 181.90114567249793 L 75.53155099005139 181.90114567249793 Q 75.82187567140187 182.74280304193536 76.24893995445854 182.87679532516725 L 76.24893995445854 182.87679532516725 L 76.37317683680229 182.91577489847108 Q 77.1341277411578 183.154524784957 77.90548775937357 181.07660491175398 Z" fill-opacity="1"/></g></g><g><g><path fill="rgb(0,0,0)" stroke="none" paint-order="stroke fill markers" d=" M 56.313733688548844 181.32353342560563 L 56.313733688548844 181.32353342560563 L 56.02911564943928 181.16555752634423 Q 53.8304412973179 179.94519370454975 53.15643043839846 176.48098208259196 L 53.15643043839846 176.48098208259196 Q 52.755156748589116 173.1123066666215 54.12164827720039 170.65036062832377 L 54.12164827720039 170.65036062832377 L 54.26382658653567 170.39420439312516 Q 55.87913015648369 167.48398494322984 59.15377069932777 167.15151573124191 L 59.15377069932777 167.15151573124191 Q 61.30766281673404 167.0439670277039 63.5205680708109 168.27222964446145 L 63.5205680708109 168.27222964446145 Q 66.11770767768569 169.7137597252219 64.96468059573827 174.32323309637863 L 64.96468059573827 174.32323309637863 Q 64.48474756651036 175.99281797886206 63.71066566012941 177.38744637049894 L 63.71066566012941 177.38744637049894 Q 61.27388741402201 181.77767962376396 57.82521196155136 181.7529403091138 L 57.82521196155136 181.7529403091138 Q 56.88296976676797 181.6394852241285 56.313733688548844 181.32353342560563 Z M 62.03716314038762 174.96936943004317 L 62.03716314038762 174.96936943004317 L 62.195139039649035 174.6847513909336 Q 63.656416107817165 172.05203452917013 63.64747163109806 169.38511195249106 L 63.64747163109806 169.38511195249106 Q 63.56894024990392 168.67138021053555 63.10643593635088 168.41466937423573 L 63.10643593635088 168.41466937423573 Q 62.40912174053244 168.02762842104525 61.18787654208802 169.99312493398168 L 61.18787654208802 169.99312493398168 L 61.017236428841784 170.23348357925414 Q 59.658643695193575 172.6811987155964 59.545842161305785 175.29916183452636 L 59.545842161305785 175.29916183452636 Q 59.660799496483705 176.1820323568672 60.05214930025936 176.39924921835166 L 60.05214930025936 176.39924921835166 L 60.16599651590318 176.46243957805623 Q 60.86331071172162 176.8494805312467 62.03716314038762 174.96936943004317 Z" fill-opacity="1"/></g></g><g><g><path fill="rgb(0,0,0)" stroke="none" paint-order="stroke fill markers" d=" M 40.83768719944832 170.86485516213457 L 40.83768719944832 170.86485516213457 L 40.59069562305093 170.65281984874844 Q 38.68268569538107 169.0148470528405 38.71981255111421 165.48587065787382 L 38.71981255111421 165.48587065787382 Q 39.00486233320299 162.10537642566038 40.838967793993106 159.96889928982293 L 40.838967793993106 159.96889928982293 L 41.02979957604064 159.7466068710653 Q 43.19786065541392 157.22111800240194 46.472394674317236 157.55463474981195 L 46.472394674317236 157.55463474981195 Q 48.60384588840406 157.88286287021813 50.52420539489379 159.53143743179535 L 50.52420539489379 159.53143743179535 Q 52.77800352952001 161.4662596664439 50.72069881167559 165.7492742016798 L 50.72069881167559 165.7492742016798 Q 49.91450507374453 167.28807277500962 48.87553203815244 168.49833149935685 L 48.87553203815244 168.49833149935685 Q 45.604887329171234 172.30817656528663 42.23178645324082 171.5897304010123 L 42.23178645324082 171.5897304010123 Q 41.33167035224311 171.28892578890685 40.83768719944832 170.86485516213457 Z M 47.72304152287812 165.79287915533953 L 47.72304152287812 165.79287915533953 L 47.93507683626426 165.54588757894214 Q 49.896403485086054 163.26121549726625 50.424489670207386 160.64708447248034 L 50.424489670207386 160.64708447248034 Q 50.49123897439576 159.9321546103977 50.08987766275 159.58759722614522 L 50.08987766275 159.58759722614522 Q 49.484748300576385 159.0681107083492 47.8928505237957 160.74753854108553 L 47.8928505237957 160.74753854108553 L 47.67731958410844 160.94862742850458 Q 45.85381588898763 163.07275498552215 45.21633130763804 165.61442146377348 L 45.21633130763804 165.61442146377348 Q 45.151214929834296 166.5023603161002 45.49082834738071 166.79390887200617 L 45.49082834738071 166.79390887200617 L 45.58962497793967 166.87872299736063 Q 46.194754340113285 167.39820951515665 47.72304152287812 165.79287915533953 Z" fill-opacity="1"/></g></g><g><g><path fill="rgb(0,0,0)" stroke="none" paint-order="stroke fill markers" d=" M 27.783752747678953 157.50496140205874 L 27.783752747678953 157.50496140205874 L 27.58449949815172 157.24754742519102 Q 26.045268145553838 155.25902445388772 26.79201273810363 151.80975999415918 L 26.79201273810363 151.80975999415918 Q 27.751716020519908 148.55584477676084 29.978346920425864 146.83230416835028 L 29.978346920425864 146.83230416835028 L 30.21001949960683 146.65297624377575 Q 32.84207741307947 144.61561176735978 35.98244510056672 145.60146025934225 L 35.98244510056672 145.60146025934225 Q 38.0041935481945 146.35202750587797 39.55338756326874 148.35342117602465 L 39.55338756326874 148.35342117602465 Q 41.371573465204754 150.7023237149428 38.49421740833492 154.4835322959525 L 38.49421740833492 154.4835322959525 Q 37.39476862805535 155.82854596573543 36.133440141403426 156.80488688841888 L 36.133440141403426 156.80488688841888 Q 32.162829548218525 159.87836826237645 29.003398395011466 158.4956285188572 L 29.003398395011466 158.4956285188572 Q 28.182259246733423 158.01978935579425 27.783752747678953 157.50496140205874 Z M 35.54914472770379 153.92282067768124 L 35.54914472770379 153.92282067768124 L 35.80655870457153 153.72356742815398 Q 38.187637990598134 151.8804748700271 39.23113492709354 149.4261582284364 L 39.23113492709354 149.4261582284364 Q 39.44043219230825 148.739299558781 39.116645661826496 148.32100184637093 L 39.116645661826496 148.32100184637093 Q 38.62847520048477 147.69033760304495 36.73109732738928 149.0149407827846 L 36.73109732738928 149.0149407827846 L 36.47949942325559 149.16852730967236 Q 34.26573922219303 150.88210525560658 33.12967028704333 153.2434189689265 L 33.12967028704333 153.2434189689265 Q 32.88714606841606 154.1000738302965 33.161119286516005 154.45401804848964 L 33.161119286516005 154.45401804848964 L 33.240820586326905 154.55698363923676 Q 33.72899104766862 155.18764788256271 35.54914472770379 153.92282067768124 Z" fill-opacity="1"/></g></g><g><g><path fill="rgb(0,0,0)" stroke="none" paint-order="stroke fill markers" d=" M 17.686359943468403 141.79080776563657 L 17.686359943468403 141.79080776563657 L 17.543002472258237 141.49855368374506 Q 16.435566007159693 139.2408909011331 17.861356525168375 136.01255166889536 L 17.861356525168375 136.01255166889536 Q 19.456422942769677 133.01843113763118 21.984420751131303 131.77838901166325 L 21.984420751131303 131.77838901166325 L 22.24744942483367 131.6493672875741 Q 25.235747412174433 130.18353714445013 28.113381746142338 131.781356627911 L 28.113381746142338 131.781356627911 Q 29.94265680831984 132.9235346893152 31.05726114697889 135.19581017602175 L 31.05726114697889 135.19581017602175 Q 32.365398071771665 137.86262867328185 28.78578997091965 140.9872281764857 L 28.78578997091965 140.9872281764857 Q 27.438097710535963 142.08339192504837 26.00605270926753 142.7858435339782 L 26.00605270926753 142.7858435339782 Q 21.49803349609087 144.99713252739505 18.68161954823686 143.00670873219553 L 18.68161954823686 143.00670873219553 Q 17.973074885888742 142.37531592941963 17.686359943468403 141.79080776563657 Z M 26.01387352003124 139.84515558581626 L 26.01387352003124 139.84515558581626 L 26.30612760192276 139.70179811460608 Q 29.009477859419295 138.37574150591203 30.525664660102976 136.18171925919327 L 30.525664660102976 136.18171925919327 Q 30.868941231714746 135.55105185660327 30.63598534099822 135.07613897352957 L 30.63598534099822 135.07613897352957 Q 30.28475953653331 134.36011647289536 28.15958044017998 135.2756655898255 L 28.15958044017998 135.2756655898255 L 27.882216019356598 135.3754619057255 Q 25.368830915089546 136.60833615813294 23.780688421827225 138.6926246456556 L 23.780688421827225 138.6926246456556 Q 23.370685332382408 139.4829239653917 23.567801855296388 139.88477332799252 L 23.567801855296388 139.88477332799252 L 23.625144843780454 140.00167496074914 Q 23.976370648245364 140.71769746138335 26.01387352003124 139.84515558581626 Z" fill-opacity="1"/></g></g><g><g><path fill="rgb(0,0,0)" stroke="none" paint-order="stroke fill markers" d=" M 10.9588972346143 124.36573354907783 L 10.9588972346143 124.36573354907783 L 10.877304613436332 124.05060427861358 Q 10.247001614836522 121.61623066427717 12.293466026973542 118.74098524701182 L 12.293466026973542 118.74098524701182 Q 14.458593373210922 116.129239048226 17.184461562726764 115.42346287503658 L 17.184461562726764 115.42346287503658 L 17.468077906144597 115.3500295159764 Q 20.690274696641648 114.51574496443166 23.187364989349888 116.66012052198225 L 23.187364989349888 116.66012052198225 Q 24.74927593010087 118.14714849422081 25.383658559759578 120.59727857208043 L 25.383658559759578 120.59727857208043 Q 26.128191228008543 123.4728331650668 21.99288065940932 125.81290211967874 L 21.99288065940932 125.81290211967874 Q 20.452119598408736 126.61533887436129 18.907986173133864 127.01514271813333 L 18.907986173133864 127.01514271813333 Q 14.047117176222667 128.2737088998035 11.68902475166144 125.75708923696409 L 11.68902475166144 125.75708923696409 Q 11.122082476970238 124.99599209000635 10.9588972346143 124.36573354907783 Z M 19.507603023449356 124.13622514266096 L 19.507603023449356 124.13622514266096 L 19.822732293913614 124.05463252148299 Q 22.737678045708012 123.29990077558678 24.66448184481559 121.45599645230726 L 24.66448184481559 121.45599645230726 Q 25.127683939649344 120.90733991434499 24.995095930235145 120.39525484984057 L 24.995095930235145 120.39525484984057 Q 24.79519400834912 119.62318813720313 22.529218770640593 120.09220050290422 L 22.529218770640593 120.09220050290422 L 22.237443165104963 120.13412093491796 Q 19.527331439112334 120.8358174770485 17.552134128010355 122.55774972320121 L 17.552134128010355 122.55774972320121 Q 16.991437742403185 123.24933855429717 17.10362759652289 123.68264130118551 L 17.10362759652289 123.68264130118551 L 17.13626464499408 123.80869300937123 Q 17.336166566880102 124.58075972200865 19.507603023449356 124.13622514266096 Z" fill-opacity="1"/></g></g><g><g><path fill="rgb(0,0,0)" stroke="none" paint-order="stroke fill markers" d=" M 7.876787734860439 105.94312333816771 L 7.876787734860439 105.94312333816771 L 7.860300375212422 105.61802030848963 Q 7.732935521931479 103.10659940422649 10.316291334714592 100.70216068714335 L 10.316291334714592 100.70216068714335 Q 12.962839041641429 98.57971401708132 15.774980248356796 98.43709835612596 L 15.774980248356796 98.43709835612596 L 16.067572975067065 98.42225973244274 Q 19.3917514535254 98.25367648004175 21.406066534994853 100.85681712440248 L 21.406066534994853 100.85681712440248 Q 22.636668536888227 102.6278159075736 22.764857758151567 105.15549196332066 L 22.764857758151567 105.15549196332066 Q 22.915304914939735 108.12205710913311 18.39359197915012 109.58179281720491 L 18.39359197915012 109.58179281720491 Q 16.72284105640174 110.0576507229883 15.129836210979164 110.13843878526359 L 15.129836210979164 110.13843878526359 Q 10.115121978194825 110.39275630783428 8.31189165785201 107.45297148204185 L 8.31189165785201 107.45297148204185 Q 7.909762454156477 106.59332939752386 7.876787734860439 105.94312333816771 Z M 16.29670071654252 107.43915480627909 L 16.29670071654252 107.43915480627909 L 16.6218037462206 107.42266744663107 Q 19.629006770742812 107.2701593698869 21.887543994348988 105.85186262969125 L 21.887543994348988 105.85186262969125 Q 22.451708064218305 105.40767901948529 22.424916104790274 104.8793865962584 L 22.424916104790274 104.8793865962584 Q 22.38452207365263 104.08288417354711 20.070519987061477 104.08615836666073 L 20.070519987061477 104.08615836666073 L 19.776278524386406 104.06848668737612 Q 16.980392469154943 104.21027798034909 14.699005150205654 105.49935787665589 L 14.699005150205654 105.49935787665589 Q 14.010570444341912 106.06392249110841 14.033240563857937 106.51093915691577 L 14.033240563857937 106.51093915691577 L 14.039835507717147 106.640980368787 Q 14.080229538854791 107.43748279149828 16.29670071654252 107.43915480627909 Z" fill-opacity="1"/></g></g><g><g><path fill="rgb(0,0,0)" stroke="none" paint-order="stroke fill markers" d=" M 8.566213369259234 87.27720095950566 L 8.566213369259234 87.27720095950566 L 8.615506265582338 86.95543392684677 Q 8.99629388967832 84.46978359955683 12.010778212600766 82.63458958624284 L 12.010778212600766 82.63458958624284 Q 15.030396306139325 81.08833566095385 17.813681138638728 81.5147192141487 L 17.813681138638728 81.5147192141487 L 18.10327146803173 81.55908282083949 Q 21.393339376968882 82.06310268574323 22.842412951092207 85.01843553307795 L 22.842412951092207 85.01843553307795 Q 23.691325023580863 87.00090022891507 23.308072754668725 89.50263890783795 L 23.308072754668725 89.50263890783795 Q 22.8582750757204 92.43876308085032 18.135279231610326 92.95840379098186 L 18.135279231610326 92.95840379098186 Q 16.40293918619637 93.08820116929239 14.826280726167806 92.84666597730917 L 14.826280726167806 92.84666597730917 Q 9.863024247404422 92.0863230515253 8.688480492465422 88.84372819895786 L 8.688480492465422 88.84372819895786 Q 8.467627576613024 87.92073502482344 8.566213369259234 87.27720095950566 Z M 16.512621317020514 90.43752459806458 L 16.512621317020514 90.43752459806458 L 16.834388349679404 90.4868174943877 Q 19.81073340177414 90.94277678537641 22.308539270577626 90.00815286345104 L 22.308539270577626 90.00815286345104 Q 22.950568372175585 89.68662711019255 23.03066932870063 89.16375568212185 L 23.03066932870063 89.16375568212185 Q 23.151436924692234 88.37542645210756 20.8841435065272 87.91282842678291 L 20.8841435065272 87.91282842678291 L 20.59948246676651 87.83628811682622 Q 17.83228598590005 87.41236920844753 15.338108923992865 88.21582167249318 L 15.338108923992865 88.21582167249318 Q 14.550120495618259 88.63024872865304 14.482342763173992 89.07267839855902 L 14.482342763173992 89.07267839855902 L 14.46262560464475 89.20138521162258 Q 14.341858008653144 89.98971444163686 16.512621317020514 90.43752459806458 Z" fill-opacity="1"/></g></g><g><g><path fill="rgb(0,0,0)" stroke="none" paint-order="stroke fill markers" d=" M 12.998948971334318 69.13215146842685 L 12.998948971334318 69.13215146842685 L 13.112004066661408 68.82689361291023 Q 13.985354678063178 66.46877667904427 17.30755416875764 65.27796042803064 L 17.30755416875764 65.27796042803064 Q 20.576619129368392 64.37120306489312 23.217099579587224 65.34912963947245 L 23.217099579587224 65.34912963947245 L 23.49183164955219 65.45087922526683 Q 26.613093222209706 66.60686757498632 27.437600046603386 69.79340095128828 L 27.437600046603386 69.79340095128828 Q 27.870067629696702 71.90616922221412 26.99106426352858 74.27954904885591 L 26.99106426352858 74.27954904885591 Q 25.95943651866888 77.06502698044514 21.228517771024666 76.62329854090844 L 21.228517771024666 76.62329854090844 Q 19.505510807945694 76.40172147182753 18.00974731591422 75.84775150472478 L 18.00974731591422 75.84775150472478 Q 13.301144894570236 74.10387665930442 12.803373664365283 70.6912239942148 L 12.803373664365283 70.6912239942148 Q 12.772838780680138 69.7426671794601 12.998948971334318 69.13215146842685 Z M 20.146525010130155 73.82738325634845 L 20.146525010130155 73.82738325634845 L 20.451782865646784 73.94043835167554 Q 23.27541802917559 74.98619798345112 25.91023207742784 74.57351049297331 L 25.91023207742784 74.57351049297331 Q 26.60384146389981 74.38780589877837 26.78755599380633 73.89176188356385 L 26.78755599380633 73.89176188356385 Q 27.0645409773577 73.14388013754811 24.936779486554126 72.23434871129496 L 24.936779486554126 72.23434871129496 L 24.67335292612187 72.10207333994892 Q 22.04813536867887 71.12979952013593 19.443280465781626 71.41473111364076 L 19.443280465781626 71.41473111364076 Q 18.587998653738524 71.66205391913567 18.432547897663774 72.08178347047104 L 18.432547897663774 72.08178347047104 L 18.38732585953294 72.20388661267769 Q 18.11034087598157 72.95176835869343 20.146525010130155 73.82738325634845 Z" fill-opacity="1"/></g></g><g><g><path fill="rgb(0,0,0)" stroke="none" paint-order="stroke fill markers" d=" M 20.993517824712413 52.25083532304886 L 20.993517824712413 52.25083532304886 L 21.165706630157388 51.97458393714562 Q 22.495865152219814 49.840541981043096 25.989768573195406 49.342855649561294 L 25.989768573195406 49.342855649561294 Q 29.37444449729212 49.11271760156157 31.76401898535514 50.6021507686606 L 31.76401898535514 50.6021507686606 L 32.012645232668056 50.75712069356108 Q 34.83731565352868 52.51775122923594 35.003500321926595 55.80502808367756 L 35.003500321926595 55.80502808367756 Q 35.00181814195995 57.96160294844069 33.66305017962527 60.109457473838376 L 33.66305017962527 60.109457473838376 Q 32.091827329939875 62.630251370205436 27.546670048149423 61.24523819521602 L 27.546670048149423 61.24523819521602 Q 25.903536274918608 60.68135806998604 24.549904483992734 59.83763292330566 L 24.549904483992734 59.83763292330566 Q 20.288726856435268 57.18162059931693 20.488106963614594 53.73862452278355 L 20.488106963614594 53.73862452278355 Q 20.649140213822463 52.803338094855334 20.993517824712413 52.25083532304886 Z M 27.04963935170999 58.28875191926932 L 27.04963935170999 58.28875191926932 L 27.32589073761323 58.4609407247143 Q 29.88121605721819 60.05368717508031 32.54516868820625 60.179831590398926 L 32.54516868820625 60.179831590398926 Q 33.26196190977442 60.13755092317325 33.54176871862251 59.68864242108049 L 33.54176871862251 59.68864242108049 Q 33.9636312919627 59.01182652561755 32.062512533955434 57.692598021892096 L 32.062512533955434 57.692598021892096 L 31.83110516718702 57.510002958401294 Q 29.45534324841916 56.02917923157451 26.84645357031393 55.78392482162236 L 26.84645357031393 55.78392482162236 Q 25.95889371247872 55.854017951736175 25.72213410499188 56.23386360735313 L 25.72213410499188 56.23386360735313 L 25.65325858281389 56.344364161714424 Q 25.231396009473702 57.02118005717736 27.04963935170999 58.28875191926932 Z" fill-opacity="1"/></g></g><g><g><path fill="rgb(0,0,0)" stroke="none" paint-order="stroke fill markers" d=" M 32.222621341214285 37.32437558983386 L 32.222621341214285 37.32437558983386 L 32.4468944268509 37.088440437741056 Q 34.179404013393764 35.26584138782408 37.70197054807951 35.48166031276063 L 37.70197054807951 35.48166031276063 Q 41.063688405647135 35.937563458623885 43.104527471249966 37.87752564938062 L 43.104527471249966 37.87752564938062 L 43.316869108133496 38.07937142645358 Q 45.7293060382825 40.37256372708798 45.230364930834575 43.626002559009784 L 45.230364930834575 43.626002559009784 Q 44.794601856453454 45.73809358926002 43.05087861562876 47.572489396781634 L 43.05087861562876 47.572489396781634 Q 41.004386709194634 49.72539765962855 36.83107016640775 47.45380235130262 L 36.83107016640775 47.45380235130262 Q 35.33507967276118 46.57070448850359 34.1789974275064 45.47176636888416 L 34.1789974275064 45.47176636888416 Q 30.539697706474765 42.01235402293935 31.42806650602428 38.67997119887036 L 31.42806650602428 38.67997119887036 Q 31.77407516994105 37.79624589401949 32.222621341214285 37.32437558983386 Z M 36.939350029534246 44.45778397947885 L 36.939350029534246 44.45778397947885 L 37.17528518162706 44.682057065115465 Q 39.357685338485574 46.75658310725417 41.94171401849565 47.41639506118473 L 41.94171401849565 47.41639506118473 Q 42.6523454764494 47.519269296412304 43.0167892406089 47.13587467426149 L 43.0167892406089 47.13587467426149 Q 43.56625830041861 46.55783355163409 41.969614300532456 44.88291734038163 L 41.969614300532456 44.88291734038163 L 41.77969997221259 44.65747804809939 Q 39.7506576642144 42.72872951162449 37.24454146085433 41.96332984257497 L 37.24454146085433 41.96332984257497 Q 36.36104036209064 41.85332367632524 36.05266486934029 42.17773451045285 L 36.05266486934029 42.17773451045285 L 35.96295563508565 42.27210857128998 Q 35.41348657527593 42.85014969391737 36.939350029534246 44.45778397947885 Z" fill-opacity="1"/></g></g><g><g><path fill="rgb(0,0,0)" stroke="none" paint-order="stroke fill markers" d=" M 46.226538703510684 24.963863284044265 L 46.226538703510684 24.963863284044265 L 46.49371430286202 24.777903578609767 Q 48.55764580785102 23.34136485412823 51.9646611684329 24.26185338333859 L 51.9646611684329 24.26185338333859 Q 55.165791835397535 25.385132994706836 56.77434328740598 27.696201929095814 L 56.77434328740598 27.696201929095814 L 56.94170702229704 27.936659968512007 Q 58.84314501036483 30.668530471879325 57.69950483463307 33.75493511323961 L 57.69950483463307 33.75493511323961 Q 56.847501057302615 35.736073054038336 54.77021077234605 37.181909763791595 L 54.77021077234605 37.181909763791595 Q 52.332233428265184 38.87879207588143 48.70161369408744 35.813614013042965 L 48.70161369408744 35.813614013042965 Q 47.41401250660643 34.64745254293747 46.50280994997737 33.33829210611597 L 46.50280994997737 33.33829210611597 Q 43.63438149365017 29.217108486121752 45.1753690625374 26.13176705887289 L 45.1753690625374 26.13176705887289 Q 45.69218750480803 25.335782694913274 46.226538703510684 24.963863284044265 Z M 49.41077112646113 32.900720889501805 L 49.41077112646113 32.900720889501805 L 49.596730831895634 33.16789648885313 Q 51.316858107164784 35.639270782852904 53.71517239842678 36.80573749647688 L 53.71517239842678 36.80573749647688 Q 54.39054875738183 37.04955495088028 54.82470910632774 36.747370429549214 L 54.82470910632774 36.747370429549214 Q 55.47928932473849 36.29176915123468 54.25248687592648 34.32973649893818 L 54.25248687592648 34.32973649893818 L 54.11184070097056 34.07068248897854 Q 52.51258723423384 31.772972334557128 50.211845197440645 30.518762958791783 L 50.211845197440645 30.518762958791783 Q 49.36857349653883 30.23316116154993 49.00120704743075 30.488855756522373 L 49.00120704743075 30.488855756522373 L 48.89433680769022 30.563239638696174 Q 48.23975658927947 31.018840917010706 49.41077112646113 32.900720889501805 Z" fill-opacity="1"/></g></g><g><g><path fill="rgb(0,0,0)" stroke="none" paint-order="stroke fill markers" d=" M 62.43194788939879 15.675339231777594 L 62.43194788939879 15.675339231777594 L 62.73108780203559 15.546968185191227 Q 65.04194362715482 14.555301850311544 68.1939242044633 16.142775075257024 L 68.1939242044633 16.142775075257024 Q 71.10341301520255 17.887443952861094 72.21382256817462 20.475004197169362 L 72.21382256817462 20.475004197169362 L 72.32935651010234 20.744230118542475 Q 73.64195046144795 23.802935725253693 71.90043198059882 26.59594840739802 L 71.90043198059882 26.59594840739802 Q 70.66706863506914 28.365025238675113 68.34125581431807 29.363110125884113 L 68.34125581431807 29.363110125884113 Q 65.61160411150733 30.53449592598471 62.67231918443566 26.801223858669452 L 62.67231918443566 26.801223858669452 Q 61.645821847022404 25.399741568861764 61.0168037187492 23.933955996941474 L 61.0168037187492 23.933955996941474 Q 59.03668032515449 19.31972284451893 61.16719845125087 16.60773705463399 L 61.16719845125087 16.60773705463399 Q 61.833668064125206 15.932081324950328 62.43194788939879 15.675339231777594 Z M 63.9533211974527 24.09071017013908 L 63.9533211974527 24.09071017013908 L 64.08169224403906 24.389850082775872 Q 65.26912442496295 27.156894274666215 67.38353705860266 28.782260463673826 L 67.38353705860266 28.782260463673826 Q 67.99600833107003 29.157039222022437 68.48211068910481 28.94843627131959 L 68.48211068910481 28.94843627131959 Q 69.21500347506496 28.633927207182992 68.40826801372464 26.465103961156526 L 68.40826801372464 26.465103961156526 L 68.32264806306058 26.183040935124776 Q 67.21865706241783 23.61043768644835 65.21748184150354 21.918766083174354 L 65.21748184150354 21.918766083174354 Q 64.44896318097874 21.469261226076252 64.03764580110315 21.645771415132508 L 64.03764580110315 21.645771415132508 L 63.91798983604843 21.697119833767054 Q 63.18509705008829 22.011628897903652 63.9533211974527 24.09071017013908 Z" fill-opacity="1"/></g></g><g><g><path fill="rgb(0,0,0)" stroke="none" paint-order="stroke fill markers" d=" M 80.17539754275361 9.839076699088904 L 80.17539754275361 9.839076699088904 L 80.49425494550508 9.773549837080877 Q 82.95742838176012 9.267354828068864 85.72533172061821 11.456821408400018 L 85.72533172061821 11.456821408400018 Q 88.22406386136997 13.751452603400912 88.79087121773941 16.50956913720107 L 88.79087121773941 16.50956913720107 L 88.84984539354663 16.796540799677388 Q 89.5198575575787 20.056857742811097 87.25175874283792 22.44213219836742 L 87.25175874283792 22.44213219836742 Q 85.68752986938904 23.926721706792698 83.20841356299641 24.43619305890511 L 83.20841356299641 24.43619305890511 Q 80.29883976288932 25.03412567472836 78.17122431318936 20.785600200013036 L 78.17122431318936 20.785600200013036 Q 77.44785574744586 19.20617394011506 77.12677412360652 17.64377266663289 L 77.12677412360652 17.64377266663289 Q 76.1160222771327 12.725397229191573 78.74884729803057 10.497796093553243 L 78.74884729803057 10.497796093553243 Q 79.53768273725069 9.970130423104958 80.17539754275361 9.839076699088904 Z M 79.97162653392549 18.38843469537372 L 79.97162653392549 18.38843469537372 L 80.03715339593352 18.707292098125183 Q 80.64327686950776 21.656723073576217 82.38722354387102 23.674446055217068 L 82.38722354387102 23.674446055217068 Q 82.91171508399357 24.164842631109465 83.4298583634647 24.058361480346424 L 83.4298583634647 24.058361480346424 Q 84.2110590002058 23.897820668426753 83.8574183709118 21.610998707188557 L 83.8574183709118 21.610998707188557 L 83.83032993537972 21.31747435851144 Q 83.2667989221107 18.575300694848856 81.64711886574763 16.51542409826722 L 81.64711886574763 16.51542409826722 Q 80.98481648985884 15.920418962977045 80.54638756107558 16.010518398238084 L 80.54638756107558 16.010518398238084 L 80.41884459997499 16.036729143041295 Q 79.63764396323391 16.197269954960962 79.97162653392549 18.38843469537372 Z" fill-opacity="1"/></g></g></g></g></svg>