<svg version="1.1" xmlns="http://www.w3.org/2000/svg" xmlns:xlink="http://www.w3.org/1999/xlink" width="200" height="200" viewBox="0 0 200 200"><defs/><g><g/><g><g><g><path fill="rgb(0,0,0)" stroke="none" paint-order="stroke fill markers" d=" M 102.08333333333333 19.25000254313151 L 104.16666666666667 19.25000254313151 L 104.16666666666667 4.666669209798176 L 102.08333333333333 4.666669209798176 L 102.08333333333333 10.916669209798176 L 95.83333333333333 10.916669209798176 L 95.83333333333333 4.666669209798176 L 93.75 4.666669209798176 L 93.75 19.25000254313151 L 95.83333333333333 19.25000254313151 L 95.83333333333333 13.00000254313151 L 102.08333333333333 13.00000254313151 L 102.08333333333333 19.25000254313151 Z M 106.25 21.333335876464844 L 91.66666666666667 21.333335876464844 L 91.66666666666667 2.5833358764648438 L 106.25 2.5833358764648438 L 106.25 21.333335876464844 Z" fill-opacity="1"/></g></g><g><g><path fill="rgb(0,0,0)" stroke="none" paint-order="stroke fill markers" d=" M 111.87526539993598 19.883817733460678 L 122.03076448516332 22.201744128838953 L 122.49434976423898 20.170644311793485 L 114.3699504960571 18.316303195490867 L 115.29712105420842 14.254103561399933 L 121.39042050534482 15.644859398626899 L 121.85400578442047 13.613759581581434 L 115.76070633328408 12.223003744354468 L 116.68787689143538 8.160804110263536 L 124.81227615961724 10.015145226566156 L 125.2758614386929 7.984045409520689 L 115.12036235346557 5.666119014142414 L 111.87526539993598 19.883817733460678 Z M 123.59827902313313 24.696429224960074 L 109.38058030381487 21.451332271430488 L 113.55284781549575 3.171433918021293 L 127.77054653481402 6.416530871550879 L 123.59827902313313 24.696429224960074 Z" fill-opacity="1"/></g></g><g><g><path fill="rgb(0,0,0)" stroke="none" paint-order="stroke fill markers" d=" M 129.40505540592926 24.534992838677226 L 138.79014777991281 29.05461512115179 L 139.69407223640772 27.177596646355084 L 132.1859983372209 23.561898820375433 L 137.60954507619036 12.299787971595194 L 135.73252660139366 11.395863515100281 L 129.40505540592926 24.534992838677226 Z M 139.7632417982146 31.83555805244341 L 126.62411247463766 25.50808685697902 L 134.75943258309186 8.614920583808662 L 147.89856190666882 14.942391779273052 L 139.7632417982146 31.83555805244341 Z" fill-opacity="1"/></g></g><g><g><path fill="rgb(0,0,0)" stroke="none" paint-order="stroke fill markers" d=" M 145.46035314905097 32.970298517389786 L 153.6044310914263 39.464983953418255 L 154.90336817863198 37.8361683649432 L 148.38810582473175 32.640420016120416 L 156.1817283479659 22.867526485270044 L 154.55291275949085 21.56858939806435 L 145.46035314905097 32.970298517389786 Z M 153.93430959269566 42.39273662909901 L 142.53260047337022 33.30017701865915 L 154.22303425822147 18.640836722383593 L 165.6247433775469 27.733396332823457 L 153.93430959269566 42.39273662909901 Z" fill-opacity="1"/></g></g><g><g><path fill="rgb(0,0,0)" stroke="none" paint-order="stroke fill markers" d=" M 166.0606428966739 49.98307858679319 L 162.1638316350568 45.09663182136801 L 170.3079095774321 38.60194638533953 L 174.2047208390492 43.48839315076472 L 166.0606428966739 49.98307858679319 Z M 160.53501604658175 46.3955689085737 L 164.43182730819882 51.28201567399889 L 167.35957998387957 51.611894175268255 L 175.5036579262549 45.11720873923978 L 175.83353642752425 42.18945606355902 L 171.93672516590718 37.30300929813384 L 169.00897249022643 36.97313079686447 L 160.86489454785112 43.46781623289294 L 160.53501604658175 46.3955689085737 Z M 165.40088589413514 55.838583938154706 L 156.3083262836953 44.436874818829274 L 170.96766657997085 32.746441033978016 L 180.0602261904107 44.148150153303455 L 165.40088589413514 55.838583938154706 Z" fill-opacity="1"/></g></g><g><g><path fill="rgb(0,0,0)" stroke="none" paint-order="stroke fill markers" d=" M 173.58798868652607 71.49886905056562 L 167.26051749106168 58.359739726988664 L 184.15368376423203 50.22441961853445 L 190.48115495969643 63.36354894211139 L 173.58798868652607 71.49886905056562 Z" fill-opacity="1"/></g></g><g><g><path fill="rgb(0,0,0)" stroke="none" paint-order="stroke fill markers" d=" M 177.79825587116105 77.96923551483667 L 179.189011708388 84.06253496597307 L 181.6836968045091 85.63004950394289 L 193.87029570678192 82.84853782948895 L 193.40671042770626 80.81743801244349 L 181.22011152543345 83.59894968689741 L 180.75652624635782 81.56784986985195 L 184.81872588044874 80.64067931170064 L 184.35514060137308 78.60957949465516 L 180.29294096728216 79.53675005280648 L 179.8293556882065 77.50565023576101 L 192.01595459047928 74.72413856130709 L 191.55236931140365 72.69303874426161 L 179.36577040913085 75.47455041871555 L 177.79825587116105 77.96923551483667 Z M 178.08508244949385 88.58831987913966 L 174.83998549596427 74.3706211598214 L 193.11988384937345 70.1983536481405 L 196.36498080290303 84.41605236745876 L 178.08508244949385 88.58831987913966 Z" fill-opacity="1"/></g></g><g><g><path fill="rgb(0,0,0)" stroke="none" paint-order="stroke fill markers" d=" M 182.8333307902018 102.08333333333333 L 182.8333307902018 95.83333333333333 L 193.2499974568685 95.83333333333333 L 193.2499974568685 102.08333333333333 L 182.8333307902018 102.08333333333333 Z M 180.7499974568685 95.83333333333333 L 180.7499974568685 102.08333333333333 L 182.8333307902018 104.16666666666667 L 193.2499974568685 104.16666666666667 L 195.3333307902018 102.08333333333333 L 195.3333307902018 95.83333333333333 L 193.2499974568685 93.75 L 182.8333307902018 93.75 L 180.7499974568685 95.83333333333333 Z M 178.66666412353516 106.25 L 178.66666412353516 91.66666666666667 L 197.41666412353516 91.66666666666666 L 197.41666412353516 106.25 L 178.66666412353516 106.25 Z" fill-opacity="1"/></g></g><g><g><path fill="rgb(0,0,0)" stroke="none" paint-order="stroke fill markers" d=" M 186.38624041841854 121.85400578442047 L 187.7769962556455 115.76070633328408 L 191.83919588973646 116.68787689143538 L 190.44844005250948 122.78117634257178 L 186.38624041841854 121.85400578442047 Z M 178.26184115023668 119.99966466811784 L 177.79825587116105 122.03076448516332 L 183.89155532229742 123.42152032239028 L 185.3706905098958 121.62221314488264 L 185.9226551393429 123.88510560146594 L 189.98485477343382 124.81227615961724 L 192.47953986955494 123.24476162164743 L 194.33388098585758 115.12036235346557 L 180.1161822665393 111.87526539993598 L 179.65259698746365 113.90636521698146 L 185.74589643860006 115.29712105420842 L 184.35514060137308 121.39042050534482 L 178.26184115023668 119.99966466811784 Z M 175.3035707750399 123.59827902313313 L 178.54866772856948 109.38058030381487 L 196.8285660819787 113.55284781549575 L 193.5834691284491 127.77054653481402 L 175.3035707750399 123.59827902313313 Z" fill-opacity="1"/></g></g><g><g><path fill="rgb(0,0,0)" stroke="none" paint-order="stroke fill markers" d=" M 175.46500716132277 129.40505540592926 L 170.94538487884822 138.79014777991281 L 172.82240335364492 139.69407223640772 L 176.43810117962457 132.1859983372209 L 187.7002120284048 137.60954507619036 L 188.60413648489973 135.73252660139366 L 175.46500716132277 129.40505540592926 Z M 168.16444194755658 139.7632417982146 L 174.49191314302098 126.62411247463766 L 191.38507941619133 134.75943258309186 L 185.05760822072693 147.89856190666882 L 168.16444194755658 139.7632417982146 Z" fill-opacity="1"/></g></g><g><g><path fill="rgb(0,0,0)" stroke="none" paint-order="stroke fill markers" d=" M 163.4627687222625 153.27455259015693 L 167.3595799838796 148.38810582473175 L 175.5036579262549 154.88279126076023 L 171.6068466646378 159.7692380261854 L 163.4627687222625 153.27455259015693 Z M 167.02970148261022 145.46035314905097 L 161.83395313378745 151.97561550295123 L 162.1638316350568 154.90336817863198 L 170.30790957743213 161.39805361466045 L 173.23566225311288 161.0681751133911 L 178.43141060193565 154.55291275949085 L 167.02970148261022 145.46035314905097 Z M 157.607263370901 153.93430959269566 L 166.69982298134084 142.53260047337022 L 181.3591632776164 154.22303425822147 L 172.26660366717655 165.6247433775469 L 157.607263370901 153.93430959269566 Z" fill-opacity="1"/></g></g><g><g><path fill="rgb(0,0,0)" stroke="none" paint-order="stroke fill markers" d=" M 144.1614160618453 165.40088589413514 L 155.56312518117073 156.3083262836953 L 167.25355896602198 170.96766657997085 L 155.85184984669655 180.0602261904107 L 144.1614160618453 165.40088589413514 Z" fill-opacity="1"/></g></g><g><g><path fill="rgb(0,0,0)" stroke="none" paint-order="stroke fill markers" d=" M 128.50113094943438 173.58798868652607 L 141.64026027301134 167.26051749106168 L 149.77558038146555 184.15368376423203 L 136.63645105788862 190.48115495969643 L 128.50113094943438 173.58798868652607 Z" fill-opacity="1"/></g></g><g><g><path fill="rgb(0,0,0)" stroke="none" paint-order="stroke fill markers" d=" M 111.41168012086034 178.08508244949385 L 125.6293788401786 174.83998549596424 L 129.80164635185952 193.11988384937345 L 115.58394763254124 196.36498080290303 L 111.41168012086034 178.08508244949385 Z" fill-opacity="1"/></g></g><g><g><path fill="rgb(0,0,0)" stroke="none" paint-order="stroke fill markers" d=" M 97.91666666666669 180.7499974568685 L 95.83333333333334 180.7499974568685 L 95.83333333333334 195.3333307902018 L 97.91666666666669 195.3333307902018 L 97.91666666666669 189.0833307902018 L 104.16666666666669 189.0833307902018 L 104.16666666666669 195.3333307902018 L 106.25000000000001 195.3333307902018 L 106.25000000000001 180.7499974568685 L 104.16666666666669 180.7499974568685 L 104.16666666666669 186.9999974568685 L 97.91666666666669 186.9999974568685 L 97.91666666666669 180.7499974568685 Z M 93.75000000000001 178.66666412353516 L 108.33333333333334 178.66666412353516 L 108.33333333333334 197.41666412353516 L 93.75000000000001 197.41666412353516 L 93.75000000000001 178.66666412353516 Z" fill-opacity="1"/></g></g><g><g><path fill="rgb(0,0,0)" stroke="none" paint-order="stroke fill markers" d=" M 88.12473460006402 180.1161822665393 L 77.96923551483668 177.79825587116105 L 77.50565023576104 179.8293556882065 L 85.6300495039429 181.6836968045091 L 84.70287894579158 185.74589643860006 L 78.60957949465518 184.35514060137308 L 78.14599421557953 186.38624041841854 L 84.23929366671592 187.7769962556455 L 83.31212310856462 191.83919588973646 L 75.18772384038276 189.98485477343382 L 74.7241385613071 192.0159545904793 L 84.87963764653443 194.33388098585758 L 88.12473460006402 180.1161822665393 Z M 76.40172097686687 175.3035707750399 L 90.61941969618513 178.54866772856948 L 86.44715218450425 196.8285660819787 L 72.22945346518598 193.5834691284491 L 76.40172097686687 175.3035707750399 Z" fill-opacity="1"/></g></g><g><g><path fill="rgb(0,0,0)" stroke="none" paint-order="stroke fill markers" d=" M 70.59494459407072 175.46500716132277 L 61.20985222008719 170.94538487884822 L 60.30592776359228 172.82240335364492 L 67.8140016627791 176.43810117962457 L 62.39045492380963 187.7002120284048 L 64.26747339860634 188.60413648489973 L 70.59494459407072 175.46500716132277 Z M 60.2367582017854 168.16444194755658 L 73.37588752536234 174.49191314302098 L 65.24056741690814 191.38507941619133 L 52.10143809333118 185.05760822072696 L 60.2367582017854 168.16444194755658 Z" fill-opacity="1"/></g></g><g><g><path fill="rgb(0,0,0)" stroke="none" paint-order="stroke fill markers" d=" M 54.539646850949026 167.02970148261022 L 46.395568908573715 160.53501604658175 L 45.09663182136802 162.1638316350568 L 51.61189417526827 167.35957998387957 L 43.818271652034106 177.13247351472995 L 45.44708724050916 178.43141060193565 L 54.539646850949026 167.02970148261022 Z M 46.06569040730435 157.607263370901 L 57.467399526629784 166.69982298134084 L 45.77696574177853 181.3591632776164 L 34.375256622453094 172.26660366717655 L 46.06569040730435 157.607263370901 Z" fill-opacity="1"/></g></g><g><g><path fill="rgb(0,0,0)" stroke="none" paint-order="stroke fill markers" d=" M 33.939357103326124 150.0169214132068 L 37.83616836494321 154.90336817863198 L 29.6920904225679 161.39805361466045 L 25.795279160950816 156.51160684923528 L 33.939357103326124 150.0169214132068 Z M 39.464983953418276 153.6044310914263 L 35.56817269180119 148.7179843260011 L 32.64042001612043 148.38810582473175 L 24.496342073745122 154.88279126076023 L 24.166463572475756 157.81054393644098 L 28.06327483409284 162.69699070186616 L 30.9910275097736 163.02686920313553 L 39.135105452148906 156.53218376710706 L 39.464983953418276 153.6044310914263 Z M 34.59911410586486 144.1614160618453 L 43.69167371630473 155.56312518117073 L 29.03233342002917 167.25355896602198 L 19.9397738095893 155.85184984669655 L 34.59911410586486 144.1614160618453 Z" fill-opacity="1"/></g></g><g><g><path fill="rgb(0,0,0)" stroke="none" paint-order="stroke fill markers" d=" M 26.412011313473947 128.50113094943438 L 32.73948250893834 141.64026027301134 L 15.84631623576798 149.77558038146555 L 9.518845040303589 136.63645105788862 L 26.412011313473947 128.50113094943438 Z" fill-opacity="1"/></g></g><g><g><path fill="rgb(0,0,0)" stroke="none" paint-order="stroke fill markers" d=" M 22.201744128838953 122.03076448516335 L 20.810988291611988 115.93746503402694 L 18.316303195490867 114.36995049605713 L 6.129704293218069 117.15146217051107 L 6.593289572293724 119.18256198755654 L 18.77988847456652 116.4010503131026 L 19.243473753642178 118.43215013014807 L 15.181274119551244 119.35932068829938 L 15.644859398626899 121.39042050534485 L 19.707059032717833 120.46324994719353 L 20.170644311793488 122.494349764239 L 7.984045409520689 125.27586143869293 L 8.447630688596345 127.3069612557384 L 20.634229590869143 124.52544958128446 L 22.201744128838953 122.03076448516335 Z M 21.914917550506143 111.41168012086035 L 25.16001450403573 125.62937884017862 L 6.8801161506265345 129.80164635185952 L 3.6350191970969483 115.58394763254125 L 21.914917550506143 111.41168012086035 Z" fill-opacity="1"/></g></g><g><g><path fill="rgb(0,0,0)" stroke="none" paint-order="stroke fill markers" d=" M 17.166669209798176 97.91666666666669 L 17.16666920979818 104.16666666666669 L 6.75000254313151 104.16666666666669 L 6.75000254313151 97.91666666666669 L 17.166669209798176 97.91666666666669 Z M 19.25000254313151 104.16666666666669 L 19.250002543131508 97.91666666666669 L 17.166669209798176 95.83333333333334 L 6.75000254313151 95.83333333333336 L 4.666669209798176 97.91666666666669 L 4.666669209798176 104.16666666666669 L 6.750002543131512 106.25000000000001 L 17.16666920979818 106.25000000000001 L 19.25000254313151 104.16666666666669 Z M 21.333335876464844 93.75000000000001 L 21.333335876464844 108.33333333333334 L 2.5833358764648438 108.33333333333336 L 2.5833358764648438 93.75000000000001 L 21.333335876464844 93.75000000000001 Z" fill-opacity="1"/></g></g><g><g><path fill="rgb(0,0,0)" stroke="none" paint-order="stroke fill markers" d=" M 13.613759581581434 78.14599421557953 L 12.22300374435447 84.23929366671594 L 8.160804110263538 83.31212310856462 L 9.551559947490501 77.21882365742822 L 13.613759581581434 78.14599421557953 Z M 21.7381588497633 80.00033533188216 L 22.20174412883895 77.96923551483668 L 16.108444677702554 76.57847967760972 L 14.629309490104166 78.37778685511736 L 14.077344860657087 76.11489439853406 L 10.015145226566155 75.18772384038276 L 7.520460130445034 76.75523837835257 L 5.666119014142414 84.87963764653443 L 19.883817733460678 88.12473460006402 L 20.347403012536333 86.09363478301854 L 14.254103561399935 84.70287894579158 L 15.644859398626899 78.6095794946552 L 21.7381588497633 80.00033533188216 Z M 24.696429224960074 76.40172097686687 L 21.45133227143049 90.61941969618513 L 3.1714339180212967 86.44715218450425 L 6.416530871550879 72.22945346518598 L 24.696429224960074 76.40172097686687 Z" fill-opacity="1"/></g></g><g><g><path fill="rgb(0,0,0)" stroke="none" paint-order="stroke fill markers" d=" M 24.534992838677226 70.59494459407072 L 29.05461512115179 61.20985222008719 L 27.17759664635508 60.30592776359228 L 23.561898820375433 67.8140016627791 L 12.29978797159519 62.390454923809635 L 11.395863515100281 64.26747339860634 L 24.534992838677226 70.59494459407072 Z M 31.83555805244341 60.2367582017854 L 25.50808685697902 73.37588752536234 L 8.614920583808662 65.24056741690814 L 14.942391779273047 52.10143809333118 L 31.83555805244341 60.2367582017854 Z" fill-opacity="1"/></g></g><g><g><path fill="rgb(0,0,0)" stroke="none" paint-order="stroke fill markers" d=" M 36.5372312777375 46.725447409843085 L 32.64042001612041 51.61189417526827 L 24.496342073745097 45.1172087392398 L 28.393153335362182 40.23076197381461 L 36.5372312777375 46.725447409843085 Z M 32.97029851738978 54.539646850949026 L 38.166046866212554 48.02438449704878 L 37.83616836494319 45.09663182136802 L 29.692090422567876 38.60194638533955 L 26.764337746887122 38.931824886608915 L 21.56858939806434 45.44708724050916 L 32.97029851738978 54.539646850949026 Z M 42.392736629099005 46.06569040730435 L 33.30017701865914 57.467399526629784 L 18.640836722383582 45.77696574177853 L 27.733396332823446 34.375256622453094 L 42.392736629099005 46.06569040730435 Z" fill-opacity="1"/></g></g><g><g><path fill="rgb(0,0,0)" stroke="none" paint-order="stroke fill markers" d=" M 55.83858393815469 34.59911410586486 L 44.43687481882926 43.69167371630473 L 32.746441033978 29.03233342002917 L 44.14815015330343 19.9397738095893 L 55.83858393815469 34.59911410586486 Z" fill-opacity="1"/></g></g><g><g><path fill="rgb(0,0,0)" stroke="none" paint-order="stroke fill markers" d=" M 71.49886905056562 26.412011313473947 L 58.359739726988664 32.73948250893834 L 50.22441961853445 15.846316235767981 L 63.36354894211139 9.518845040303589 L 71.49886905056562 26.412011313473947 Z" fill-opacity="1"/></g></g><g><g><path fill="rgb(0,0,0)" stroke="none" paint-order="stroke fill markers" d=" M 88.58831987913965 21.914917550506143 L 74.37062115982138 25.16001450403573 L 70.19835364814048 6.880116150626538 L 84.41605236745875 3.635019197096952 L 88.58831987913965 21.914917550506143 Z" fill-opacity="1"/></g></g></g></g></svg>