<svg version="1.1" xmlns="http://www.w3.org/2000/svg" xmlns:xlink="http://www.w3.org/1999/xlink" width="200" height="200" viewBox="0 0 200 200"><defs/><g><g/><g><g><g><path fill="rgb(0,0,0)" stroke="none" paint-order="stroke fill markers" d=" M 89.02698863636364 11.709282846161813 L 89.42945075757575 3.115532846161809 L 91.48910984848484 2.381631331010297 L 99.72774621212122 3.80208587646484 L 98.85179924242425 2.0501919370709025 L 109.57623106060606 3.9914798158587814 L 111.18607954545455 11.519888906767873 L 109.36316287878788 23.451707088586055 L 97.05255681818181 23.66477527040424 L 89.07433712121212 22.33901769464666 L 89.02698863636364 11.709282846161813 Z M 98.25994318181819 6.7376919370709025 L 90.35274621212122 6.335229815858781 L 90.35274621212122 7.282199512828477 L 92.50710227272727 7.6846616340406 L 91.82054924242425 20.587123755252723 L 89.54782196969697 20.84754042191939 L 89.47679924242424 21.72348739161636 L 97.45501893939394 22.12594951282848 L 97.52604166666667 21.46307072494969 L 95.04024621212122 20.84754042191939 L 95.30066287878788 14.881631331010297 L 103.53929924242425 15.355116179495145 L 103.20785984848484 21.202654058283024 L 100.86410984848484 21.534093452222418 L 100.86410984848484 22.267994967373934 L 108.77130681818181 22.81250254313151 L 108.77130681818181 22.00757830070727 L 106.61695075757576 21.32102527040424 L 107.23248106060606 8.77367678555575 L 109.50520833333333 8.300191937070903 L 109.57623106060606 7.353222240101205 L 101.81107954545455 6.950760118889082 L 101.6690340909091 7.6846616340406 L 103.94176136363636 8.489585876464842 L 103.6813446969697 14.076707088586055 L 95.44270833333333 13.721593452222418 L 95.703125 7.897729815858781 L 98.18892045454545 7.613638906767871 L 98.25994318181819 6.7376919370709025 Z" fill-opacity="1"/></g></g><g><g><path fill="rgb(0,0,0)" stroke="none" paint-order="stroke fill markers" d=" M 108.35619248567397 18.970852829924773 L 113.19207571148897 3.63497344594046 L 125.66841541318405 5.147047734740973 L 129.89248167194577 9.195113143022944 L 127.32074167405031 23.760765750837898 L 122.69463649283647 26.687310858862045 L 107.6801429327909 22.67755701019476 L 108.35619248567397 18.970852829924773 Z M 127.60502977240387 11.344154838743428 L 113.68685003131469 6.46760625986828 L 113.3323773569468 7.382306041963851 L 115.6703097256624 8.523000590682393 L 111.61485050128321 20.7587922534859 L 108.99619766168901 20.209667970514786 L 108.61663568598262 21.02150900458384 L 122.79597954033679 26.03051579709586 L 125.03272297882177 21.97582079102242 L 124.08440648791714 21.662241461597883 Q 123.70935467648259 22.135148935713946 123.32865592538154 22.473210649462242 Q 122.94795717428049 22.811272363210538 122.60250482845629 23.04810502540012 Q 122.2570524826321 23.2849376875897 121.9237658623456 23.415273283685618 Q 121.59047924205912 23.545608879781536 121.25882231824042 23.615608769262096 Q 120.92716539442173 23.685608658742655 120.61394652147537 23.674826169136182 Q 120.300727648529 23.664043679529705 119.98650446478295 23.60446582317745 Q 119.67228128103692 23.54488796682519 119.35441977922372 23.448055083596728 Q 119.03655827741053 23.35122220036827 118.70088411039313 23.226040622865703 L 118.70088411039313 23.226040622865703 L 114.68533875685367 21.775291066848173 L 116.71382621930636 15.97324811566026 L 120.41476946396824 17.206493375218614 Q 120.7735243107248 17.336942967256128 120.95227634843495 17.511298836636026 Q 121.13102838614509 17.685654706015924 121.20102827562565 18.017311629834616 Q 121.27102816510622 18.348968553653307 121.24118223895928 18.85210087904785 Q 121.21133631281236 19.355233204442392 121.15289523185476 20.143235708509195 L 121.15289523185476 20.143235708509195 L 121.93964696458531 20.419938936189077 L 123.84219499927234 14.637717271804718 L 123.00928190706348 14.350478015054934 L 122.3344461882099 15.6048692073666 Q 122.22306003271282 15.77371060167497 122.0335255053962 15.91257360524144 Q 121.84399097807957 16.051436608807908 121.61883112035456 16.13360222382617 Q 121.39367126262952 16.21576783884443 121.14706042163314 16.232329732712383 Q 120.90044958063676 16.24889162658034 120.69799147751934 16.17839881602663 L 120.69799147751934 16.17839881602663 L 117.02213753419595 15.04801230449479 L 118.94124746275094 9.512401481106814 L 124.97610583292973 11.69115982240058 Q 125.22097298151671 12.426975102191028 125.37452172194676 13.19051369058745 Q 125.5280704623768 13.954052278983875 125.51052272636255 14.775671491859732 L 125.51052272636255 14.775671491859732 L 126.40013320711962 15.027285418201112 L 127.60502977240387 11.344154838743428 Z" fill-opacity="1"/></g></g><g><g><path fill="rgb(0,0,0)" stroke="none" paint-order="stroke fill markers" d=" M 135.09656419013095 8.842440147193994 L 139.90535228138046 9.660474116768775 L 149.47292660284677 14.346804353667647 L 148.11321710557002 15.478799787018028 L 149.31077384060228 16.975187649995455 L 144.5342475613279 28.312399289635895 L 140.8514700362731 34.868494373507005 L 135.66833947518674 32.372430249322186 L 125.4822558853557 26.678778126147208 L 131.4969085477214 13.152515496359197 L 135.09656419013095 8.842440147193994 Z M 141.8032714067539 16.250171965173397 L 134.6191275653397 12.343771379238294 L 134.14426354620122 13.166145988583562 L 135.90902384358154 15.06706682442844 L 130.02335028374546 25.87014128523098 L 127.53327102671629 25.038852290148174 L 126.96360213492014 25.89440055920828 L 139.7416440141683 32.86255043428299 L 142.13173810291914 29.099867289463713 L 141.2027147165968 28.5736439262062 Q 140.72392060871928 29.131361637478268 140.14678454831898 29.484061800199285 Q 139.56964848791867 29.836761962920306 138.95223778902212 29.972993681644766 Q 138.33482709012554 30.109225400369226 137.66647687503504 30.023852740685225 Q 136.99812665994452 29.93848008100122 136.3361182249388 29.5671207678486 L 136.3361182249388 29.5671207678486 L 132.71875964104606 27.693710553176913 L 138.78854082196284 16.453769115642228 L 141.3284073876154 17.072546574518665 L 141.8032714067539 16.250171965173397 Z" fill-opacity="1"/></g></g><g><g><path fill="rgb(0,0,0)" stroke="none" paint-order="stroke fill markers" d=" M 154.50108540626474 18.937670735359898 L 159.00727745727366 20.805250902674093 L 167.29216613400277 27.503070630037595 L 165.71465471158555 28.304120747229952 L 166.5492085741592 30.029472485441804 L 159.36967285871143 40.01955947050891 L 154.3203618540102 45.59178446826438 L 149.82260971765294 42.00494682973047 L 141.15886929818066 34.187429618827586 L 150.03259865411854 22.338684761397786 L 154.50108540626474 18.937670735359898 Z M 159.39126606794704 27.65205800427992 L 153.25649961861296 22.244976639620365 L 152.61054586573053 22.941065415499743 L 153.90806525818766 25.187022306795008 L 145.76604760409555 34.4095555585133 L 143.52337903644627 33.04501395221812 L 142.77761553325655 33.75234858609532 L 153.68472600621465 43.38917420867513 L 156.8521712136455 40.25267535496705 L 156.06353609751187 39.5329183584934 Q 155.47264249155765 39.97011121027302 154.8314932675315 40.185543588360666 Q 154.19034404350538 40.400975966448314 153.5580987105864 40.39640526620421 Q 152.9258533776674 40.39183456596011 152.29325730183015 40.159880463025125 Q 151.6606612259929 39.92792636009015 151.0978859458021 39.41856706500455 L 151.0978859458021 39.41856706500455 L 147.98809508464663 36.78718914521188 L 156.4068164450528 27.179709883758292 L 158.7453123150646 28.348146780159297 L 159.39126606794704 27.65205800427992 Z" fill-opacity="1"/></g></g><g><g><path fill="rgb(0,0,0)" stroke="none" paint-order="stroke fill markers" d=" M 159.00659581854282 41.57348509250831 L 170.6172923060455 31.22416588350787 L 172.63247896054216 35.91545061502534 L 182.9211114128466 46.12107953094845 L 166.59991943993907 58.95511284854555 L 159.80674742897514 52.563094636934686 L 154.66090027453714 44.85737868939989 L 159.00659581854282 41.57348509250831 Z M 173.1383381879828 41.14421296739182 L 173.1383381879828 41.14421296739182 Q 172.54791223925295 40.40384224535771 171.87770937501466 39.848213460913854 Q 171.2075065107764 39.29258467646999 170.46678136505514 38.91431750525727 Q 169.72605621933388 38.536050334044546 168.94995301856505 38.32225843701102 Q 168.1738498177962 38.1084665399775 167.41414774679973 38.048137887737525 Q 166.65444567580326 37.98780923549755 165.8945097761946 38.07906951838483 Q 165.13457387658596 38.17032980127211 164.43543796721053 38.39478666554188 Q 163.73630205783508 38.61924352981164 163.0979661386928 38.9768969754639 Q 162.45963021955058 39.334550421116155 161.91911282674323 39.7958791507144 L 161.91911282674323 39.7958791507144 Q 161.37484681460327 40.29047779708175 160.8841173826435 40.833223923242535 Q 160.39338795068372 41.37597004940332 160.01160598875057 41.99837617676643 Q 159.62982402681743 42.620782304129534 159.3607381542435 43.28957851592586 Q 159.0916522816696 43.95837472772219 158.97403842991687 44.70319923569432 Q 158.8564245781641 45.448023743666454 158.91804664930882 46.24673557473702 Q 158.9796687204535 47.045447405807586 159.242667687573 47.92581046205287 Q 159.50566665469253 48.80617351829815 159.990426095504 49.736792192615354 Q 160.47518553631548 50.667410866932556 161.22048138228084 51.67792337106425 L 161.22048138228084 51.67792337106425 Q 161.75912814619073 52.429306122484014 162.4219506860699 52.975680272902444 Q 163.08477322594905 53.522054423320874 163.80886341328574 53.898447284867295 Q 164.53295360062245 54.27484014641371 165.3164371257504 54.497886677472664 Q 166.09992065087837 54.72093320853162 166.89289263864396 54.7850104801042 Q 167.6858646264095 54.84908775167678 168.47169011842814 54.75232145409667 Q 169.25751561044677 54.65555515651658 169.98066680256588 54.44222723593854 Q 170.703817994685 54.2288993153605 171.35878887221182 53.87312017937455 Q 172.0137597497386 53.5173410433886 172.55427714254594 53.05601231379035 L 172.55427714254594 53.05601231379035 Q 173.0985431546859 52.561413667423004 173.57826055726005 51.96688835644227 Q 174.05797795983418 51.372363045461526 174.41761894868995 50.722193016022146 Q 174.77725993754575 50.07202298658276 175.01869882234945 49.34957328030017 Q 175.26013770715318 48.62712357401759 175.34823026146944 47.84528052994375 Q 175.43632281578567 47.06343748586991 175.35994009592272 46.24621638674849 Q 175.28355737605978 45.42899528762707 175.0241901139668 44.59115678217631 Q 174.76482285187382 43.75331827672556 174.2984557648071 42.88373342125374 Q 173.8320886777404 42.014148565781916 173.1383381879828 41.14421296739182 Z M 172.5230822371355 42.11935109724482 L 172.5230822371355 42.11935109724482 Q 172.8035345627822 42.47102719021102 173.0192044502509 42.87436555369109 Q 173.2348743377196 43.27770391717116 173.3598721946003 43.73821056585791 Q 173.48487005148107 44.198717214544665 173.52294449710644 44.683122231669 Q 173.56101894273183 45.167527248793334 173.48815469435817 45.66470169066353 Q 173.41529044598454 46.16187613253372 173.24999677166272 46.65705935043151 Q 173.08470309734088 47.15224256832931 172.81409365801895 47.61029033581931 Q 172.54348421869702 48.06833810330931 172.15830438034953 48.49663074475064 Q 171.77312454200205 48.92492338619197 171.2808715432942 49.256921068046424 L 171.2808715432942 49.256921068046424 Q 170.7848699252538 49.622188666669985 170.22045416400888 49.99659398501288 Q 169.65603840276395 50.370999303355774 169.03621175167254 50.713892100289776 Q 168.41638510058115 51.056784897223785 167.76891146171957 51.34602419967154 Q 167.12143782285798 51.635263502119294 166.4778297176351 51.815438420234315 Q 165.8342216124122 51.995613338349344 165.17233806775064 52.038959970055366 Q 164.51045452308907 52.08230660176139 163.8858233431414 51.94454300090367 Q 163.26119216319373 51.80677940004595 162.67756196729255 51.45463564985538 Q 162.09393177139134 51.10249189966482 161.57730906625272 50.454667517884964 L 161.57730906625272 50.454667517884964 Q 160.95361320075375 49.71054817651824 160.78679227891504 48.79890642747625 Q 160.6199713570763 47.88726467843426 160.90803415492542 46.900529947665184 Q 161.19609695277455 45.913795216896105 161.94080086567172 44.91112701357902 Q 162.68550477856888 43.90845881026193 163.89587061192736 43.03406574516496 L 163.89587061192736 43.03406574516496 Q 164.34009304514785 42.679810175927045 164.85448701693304 42.37557639614886 Q 165.36888098871822 42.071342616370686 165.93130552599075 41.78936672397597 Q 166.49373006326329 41.50739083158125 167.0819272786397 41.295703392057334 Q 167.67012449401614 41.08401595253342 168.26558511944557 40.957377614598556 Q 168.86104574487504 40.8307392766637 169.44338620264037 40.82054564742069 Q 170.0257266604057 40.810352018177674 170.56718304843062 40.938744070703876 Q 171.10863943645555 41.067136123230085 171.60733744507377 41.35074881591006 Q 172.106035453692 41.63436150859003 172.5230822371355 42.11935109724482 Z" fill-opacity="1"/></g></g><g><g><path fill="rgb(0,0,0)" stroke="none" paint-order="stroke fill markers" d="" fill-opacity="1"/></g></g><g><g><path fill="rgb(0,0,0)" stroke="none" paint-order="stroke fill markers" d=" M 184.42112569346202 68.31063881860558 L 190.59871337715765 67.28917385720507 L 192.36959798577766 70.26032768687456 L 194.26676719400947 82.7216211952279 L 195.2470738812767 89.78279349488251 L 186.55570072761276 91.28088130710108 L 187.15879286457638 92.11455224957305 L 177.30413740352787 91.81409073454708 L 174.64674758981673 83.36303762789153 L 172.52051527660277 71.7068014385461 L 184.42112569346202 68.31063881860558 Z M 188.78277043116853 73.48302156827192 L 189.41322542025998 73.26627512207585 L 187.85662265247026 68.2550011468172 L 186.94919950650902 68.53496376743267 L 187.15540992363518 69.1192573970458 L 174.7995938859438 79.56427565785488 L 175.19420205499193 80.76121161135524 L 181.78720503668555 81.87897322956165 L 176.70915362757518 86.12195517563678 L 177.17827185037572 87.32616776527145 L 192.67712088114004 88.52385520099224 L 193.4292331256085 89.37207941573281 L 194.1183941248475 89.09336756645358 L 193.15408253576157 85.71957108133853 L 192.3851434682352 85.96792561474432 L 192.3464867367744 87.28803452414789 L 181.00238805094082 86.52618740622205 L 185.6840506612869 82.5679431742242 L 191.290610278995 83.6194572169588 L 192.17969090137214 85.06777910491735 L 192.87938792968103 84.83522861511642 L 191.586943738902 80.66213574660156 L 190.986846065684 80.79910412451028 L 190.79515198351967 82.29984122862838 L 186.79343898929244 81.68337271611888 L 190.0470939195567 79.02238470566864 L 190.7502783326844 80.29458856318452 L 191.50868137114082 80.00007267030043 L 189.60814195805315 74.1202602724245 L 188.8497389195967 74.4147761653086 L 189.18764970009664 75.57608678840054 L 182.7653859223905 80.95150080491364 L 178.65755478720115 80.18927157783492 L 187.90271013733508 72.71256680021938 L 188.78277043116853 73.48302156827192 Z" fill-opacity="1"/></g></g><g><g><path fill="rgb(0,0,0)" stroke="none" paint-order="stroke fill markers" d=" M 182.56155048717153 91.11032196969697 L 198.09185351747456 90.25804924242424 L 196.74242169929272 95.18229166666667 L 198.42329291141394 109.57623106060606 L 177.66098230535334 109.43418560606061 L 176.33522472959575 100.20123106060606 L 177.11647472959575 90.96827651515152 L 182.56155048717153 91.11032196969697 Z M 193.8778383659594 99.58570075757575 L 193.8778383659594 99.58570075757575 Q 193.8778383659594 98.63873106060606 193.7002815477776 97.78645833333333 Q 193.52272472959578 96.93418560606061 193.17944821444425 96.17660984848484 Q 192.83617169929272 95.4190340909091 192.36268685080788 94.76799242424242 Q 191.88920200232303 94.11695075757575 191.33285730535334 93.59611742424242 Q 190.77651260838365 93.0752840909091 190.12547094171697 92.67282196969697 Q 189.4744292750503 92.27035984848484 188.78787624474728 92.00994318181819 Q 188.10132321444425 91.74952651515152 187.37925882050484 91.6311553030303 Q 186.65719442656547 91.5127840909091 185.9469671538382 91.53645833333333 L 185.9469671538382 91.53645833333333 Q 185.21306563868666 91.58380681818181 184.49100124474728 91.70217803030303 Q 183.76893685080788 91.82054924242425 183.08238382050484 92.06912878787878 Q 182.3958307902018 92.31770833333333 181.7684633659594 92.67282196969697 Q 181.14109594171697 93.02793560606061 180.58475124474728 93.53693181818181 Q 180.0284065477776 94.04592803030303 179.57859594171697 94.70880681818181 Q 179.12878533565637 95.37168560606061 178.78550882050484 96.22395833333333 Q 178.44223230535334 97.07623106060606 178.24100124474728 98.10606060606061 Q 178.03977018414122 99.13589015151516 177.99242169929272 100.390625 L 177.99242169929272 100.390625 Q 177.94507321444425 101.31392045454545 178.12263003262606 102.15435606060606 Q 178.30018685080788 102.99479166666667 178.63162624474728 103.74053030303031 Q 178.9630656386867 104.48626893939394 179.43655048717153 105.14914772727273 Q 179.91003533565637 105.81202651515152 180.4900542750503 106.3565340909091 Q 181.07007321444425 106.90104166666667 181.74478912353516 107.3153409090909 Q 182.41950503262606 107.72964015151516 183.11789518414122 108.01373106060606 Q 183.81628533565637 108.29782196969697 184.55018685080788 108.42803030303031 Q 185.2840883659594 108.55823863636364 185.99431563868666 108.53456439393939 L 185.99431563868666 108.53456439393939 Q 186.7282171538382 108.4872159090909 187.4739557902018 108.32149621212122 Q 188.21969442656547 108.15577651515152 188.9062474568685 107.87168560606061 Q 189.59280048717153 107.5875946969697 190.23200503262606 107.17329545454545 Q 190.87120957808062 106.75899621212122 191.4275542750503 106.20265151515152 Q 191.98389897202 105.64630681818181 192.43370957808062 104.95975378787878 Q 192.88352018414122 104.27320075757575 193.2031224568685 103.45643939393939 Q 193.52272472959578 102.63967803030303 193.7002815477776 101.6690340909091 Q 193.8778383659594 100.69839015151516 193.8778383659594 99.58570075757575 Z M 192.78882321444425 99.96448863636364 L 192.78882321444425 99.96448863636364 Q 192.78882321444425 100.41429924242424 192.7059633659594 100.86410984848484 Q 192.62310351747456 101.31392045454545 192.43370957808062 101.75189393939394 Q 192.2443156386867 102.18986742424242 191.97206185080788 102.59232954545455 Q 191.6998080629291 102.99479166666667 191.33285730535334 103.33806818181819 Q 190.9659065477776 103.6813446969697 190.5279330629291 103.96543560606061 Q 190.08995957808062 104.24952651515152 189.59280048717153 104.43892045454545 Q 189.09564139626244 104.62831439393939 188.52745957808062 104.72301136363636 Q 187.95927775989878 104.81770833333333 187.36742169929272 104.77035984848484 L 187.36742169929272 104.77035984848484 Q 186.75189139626244 104.74668560606061 186.07717548717153 104.6875 Q 185.40245957808062 104.62831439393939 184.70406942656547 104.50994318181819 Q 184.0056792750503 104.39157196969697 183.31912624474728 104.21401515151516 Q 182.63257321444425 104.03645833333333 182.01704291141394 103.77604166666667 Q 181.40151260838365 103.515625 180.85700503262606 103.13683712121212 Q 180.3124974568685 102.75804924242425 179.91003533565637 102.26089015151516 Q 179.50757321444425 101.76373106060606 179.2708307902018 101.12452651515152 Q 179.0340883659594 100.48532196969697 179.0340883659594 99.65672348484848 L 179.0340883659594 99.65672348484848 Q 179.01041412353516 98.68607954545455 179.44838760838365 97.86931818181819 Q 179.88636109323213 97.05255681818181 180.72679669929272 96.46070075757575 Q 181.56723230535334 95.8688446969697 182.7746186689897 95.54924242424242 Q 183.98200503262606 95.22964015151516 185.47348230535334 95.30066287878788 L 185.47348230535334 95.30066287878788 Q 186.04166412353516 95.30066287878788 186.63352018414122 95.38352272727272 Q 187.22537624474728 95.46638257575758 187.8409065477776 95.5965909090909 Q 188.45643685080788 95.72679924242424 189.04829291141394 95.9280303030303 Q 189.64014897202 96.12926136363636 190.1846565477776 96.40151515151516 Q 190.72916412353516 96.67376893939394 191.19081185080788 97.02888257575758 Q 191.65245957808062 97.38399621212122 191.99573609323213 97.8219696969697 Q 192.33901260838365 98.25994318181819 192.5520807902018 98.79261363636364 Q 192.76514897202 99.3252840909091 192.78882321444425 99.96448863636364 Z" fill-opacity="1"/></g></g><g><g><path fill="rgb(0,0,0)" stroke="none" paint-order="stroke fill markers" d=" M 187.1989652965634 109.83726242025818 L 198.6808640851823 113.2592721918003 L 194.7247023493973 122.50662721811003 L 194.70541092097366 124.08062360464427 L 193.29676854392898 125.6774726790345 L 194.16712453356914 129.73713383314617 L 180.76831549257105 128.33019184316146 L 172.91258496567167 125.29873606016204 L 176.15237696735954 108.87006717934689 L 177.50132749211036 108.27948275574576 L 187.1989652965634 109.83726242025818 Z M 184.4406884191183 116.17694472050778 L 190.21085835390656 117.49394835424543 L 189.90607136114252 119.14848065933015 Q 189.8079877065778 119.68460430786561 189.4497442495478 120.13706510951 Q 189.09150079251776 120.58952591115438 188.56341163037968 120.88180519055592 Q 188.03532246824162 121.17408446995746 187.39408498954373 121.27055689670776 Q 186.7528475108458 121.36702932345804 186.0709631477411 121.16282752793123 L 186.0709631477411 121.16282752793123 Q 185.37126611943222 120.9302770381303 184.94351569399478 120.51696588901986 Q 184.51576526855737 120.10365473990943 184.30690237551033 119.58246328877412 Q 184.0980394824633 119.0612718376388 184.06917939846267 118.4961741091611 Q 184.04031931446204 117.93107638068341 184.15621563423096 117.42330142642204 L 184.15621563423096 117.42330142642204 L 184.4406884191183 116.17694472050778 Z M 191.1027793227597 120.92717176246438 L 192.51381243055658 112.19164587092148 L 191.5108071727031 112.01128260539691 L 190.96945244693944 114.17033047180739 L 178.1717269213056 111.83212680585918 L 178.19602143507427 109.3850818324358 L 177.40601030940812 109.22905001798664 L 175.98216762175198 117.06317862836632 L 176.95682418533136 117.26135455909508 L 177.93796259747518 114.98413682212639 L 183.60451593397383 116.0103768769887 L 183.3734811446991 117.34177966572528 Q 183.3313370284195 117.5264251036385 183.2225848801899 117.6837261580773 Q 183.11383273196031 117.8410272125161 182.95001289165032 117.97361789074795 Q 182.78619305134032 118.10620856897978 182.59302020595655 118.20781654567004 Q 182.39984736057278 118.3094245223603 182.22247855879385 118.3417904598331 L 182.22247855879385 118.3417904598331 L 175.4345590393071 120.31353722838818 L 174.53801072621917 125.30548283791644 L 175.12029573423294 125.41410252155106 L 176.16165585705053 123.83055594809319 L 183.2157425751473 121.11821880628587 Q 183.20395577474113 121.38264231248645 183.26768333888708 121.68858454929853 Q 183.331410903033 121.99452678611058 183.44129982665726 122.31100505199255 Q 183.55118875028148 122.62748331787452 183.712507047919 122.93141693308723 Q 183.8738253455565 123.23535054829995 184.07503267733767 123.52410550557593 Q 184.27624000911885 123.81286046285192 184.52260438957865 124.06335608245203 Q 184.76896877003844 124.31385170205213 185.0337712013706 124.48356494256521 Q 185.29857363270273 124.65327818307827 185.5791801076397 124.75374938437389 Q 185.8597865825767 124.85422058566951 186.15255878305138 124.84819472087145 L 186.15255878305138 124.84819472087145 Q 186.54292171701763 124.84016023447404 186.95172270185623 124.75134336898961 Q 187.3605236866948 124.66252650350518 187.77358837526864 124.5018335915358 Q 188.1866530638425 124.34114067956642 188.56409242200795 124.12375037904884 Q 188.9415317801734 123.90636007853126 189.29225214053255 123.64644673660254 Q 189.6429725008917 123.3865333946738 189.94652719097286 123.06728865692938 Q 190.25008188105403 122.74804391918497 190.4870285391852 122.40145479796612 Q 190.72397519731638 122.05486567674727 190.882773483628 121.67829816478653 Q 191.04157176993962 121.30173065282577 191.1027793227597 120.92717176246438 L 191.1027793227597 120.92717176246438 Z" fill-opacity="1"/></g></g><g><g><path fill="rgb(0,0,0)" stroke="none" paint-order="stroke fill markers" d=" M 191.157559852806 135.09656419013095 L 190.33952588323123 139.90535228138046 L 185.65319564633236 149.47292660284674 L 184.52120021298197 148.11321710557002 L 183.02481235000454 149.31077384060228 L 171.6876007103641 144.5342475613279 L 165.131505626493 140.8514700362731 L 167.62756975067782 135.66833947518674 L 173.32122187385278 125.4822558853557 L 186.8474845036408 131.4969085477214 L 191.157559852806 135.09656419013095 Z M 183.7498280348266 141.8032714067539 L 187.6562286207617 134.6191275653397 L 186.83385401141643 134.14426354620122 L 184.93293317557155 135.90902384358154 L 174.12985871476903 130.02335028374546 L 174.96114770985182 127.53327102671629 L 174.10559944079174 126.96360213492014 L 167.13744956571702 139.7416440141683 L 170.9001327105363 142.13173810291914 L 171.4263560737938 141.2027147165968 Q 170.86863836252172 140.72392060871928 170.5159381998007 140.14678454831898 Q 170.16323803707968 139.56964848791867 170.02700631835523 138.95223778902212 Q 169.89077459963076 138.33482709012554 169.97614725931479 137.66647687503504 Q 170.06151991899878 136.99812665994452 170.4328792321514 136.3361182249388 L 170.4328792321514 136.3361182249388 L 172.3062894468231 132.71875964104606 L 183.54623088435778 138.78854082196284 L 182.92745342548133 141.3284073876154 L 183.7498280348266 141.8032714067539 Z" fill-opacity="1"/></g></g><g><g><path fill="rgb(0,0,0)" stroke="none" paint-order="stroke fill markers" d=" M 174.43203621602768 146.6397612679692 L 182.47325727459963 153.56718945060814 L 170.54033237618984 166.8219298325285 L 161.73787831833567 162.55773179170276 L 155.7978209687604 153.94479107337528 L 166.11504676559036 140.70363483557455 L 174.43203621602768 146.6397612679692 Z M 178.18730581130347 150.6640255868949 L 178.18730581130347 150.6640255868949 L 177.31010680286036 150.05532419872637 L 176.4176721269369 151.55410725362108 Q 176.2037596348284 151.8982861079221 175.98387347080273 151.96517668437855 Q 175.76398730677707 152.03206726083502 175.5641339775503 151.9029700417034 L 175.5641339775503 151.9029700417034 L 166.62485899482485 145.2283435161721 Q 166.51380338651973 145.1397796238626 166.40825379290743 145.02532613914315 Q 166.30270419929514 144.9108726544237 166.22855021278565 144.7760355919871 Q 166.15439622627613 144.64119852955048 166.13014711492028 144.50073853811494 Q 166.10589800356442 144.36027854667944 166.1611919791048 144.25297155770693 L 166.1611919791048 144.25297155770693 L 166.99411640293093 142.5250477047611 L 166.1872058473586 141.94211899469644 Q 165.48619194754798 142.8971036946756 164.7981813010954 143.89273863578296 Q 164.11017065464281 144.88837357689033 163.42954033254935 145.87475388397226 Q 162.7489100104559 146.8611341910542 162.03126115226073 147.81799320069965 Q 161.31361229406554 148.7748522103451 160.52380067333326 149.6893035835021 L 160.52380067333326 149.6893035835021 Q 159.98492008081118 150.2890973997946 159.64952452254238 150.97546388442422 Q 159.31412896427358 151.6618303690538 159.13407096046464 152.38123294184032 Q 158.9540129566557 153.10063551462682 158.93667283166576 153.84381954154483 Q 158.9193327066758 154.58700356846285 159.03319793909594 155.29855815966587 Q 159.14706317151607 156.01011275086893 159.40138839537173 156.6974182307161 Q 159.65571361922738 157.38472371056326 160.00973167908427 157.98498886484902 Q 160.36374973894112 158.58525401913474 160.8100803104401 159.10773348188445 Q 161.25641088193905 159.6302129446342 161.75616111931208 160.02875046002683 L 161.75616111931208 160.02875046002683 Q 162.7704222427764 160.8073162227613 163.76008351196657 161.21803859136935 Q 164.74974478115675 161.62876095997743 165.67614717891698 161.77707261376528 Q 166.60254957667723 161.92538426755317 167.48420237105836 161.8260458552391 Q 168.36585516543948 161.72670744292503 169.14559007123486 161.47039099509698 Q 169.92532497703021 161.21407454726892 170.6142709379315 160.82479534667056 Q 171.30321689883283 160.4355161460722 171.87747554640248 160.0001976039589 Q 172.45173419397216 159.56487906184557 172.87252959674828 159.1131593899599 Q 173.2933249995244 158.6614397180742 173.5847893545567 158.25798444028806 L 173.5847893545567 158.25798444028806 Q 174.2415213082126 157.35852754446145 174.85209700604744 156.49796349440288 Q 175.46267270388228 155.6373994443443 176.0343555559491 154.7306791384647 Q 176.60603840801593 153.82395883258508 177.1517147533667 152.83593804444902 Q 177.69739109871745 151.84791725631294 178.18730581130347 150.6640255868949 Z M 165.92055677136824 148.84538921490355 L 174.3228291520068 154.94036799247849 Q 174.18271990348953 155.1920005065252 174.053739598664 155.4676483033156 Q 173.9247592938385 155.74329610010602 173.79577898901297 156.01894389689642 Q 173.66679868418743 156.2945916936868 173.51930911131106 156.55547884175897 Q 173.3718195384347 156.81636598983113 173.17993110509747 157.05698647449222 L 173.17993110509747 157.05698647449222 Q 172.41237737174868 158.01946841313656 171.37983712807682 158.57380745944457 Q 170.34729688440495 159.12814650575257 169.12357337400132 159.18179631946995 Q 167.89984986359767 159.23544613318734 166.5403539763087 158.75689419290524 Q 165.18085808901972 158.2783422526231 163.7779023364875 157.18980286680548 L 163.7779023364875 157.18980286680548 Q 163.3892077074196 156.8798292437223 163.0115251077373 156.51807643581918 Q 162.63384250805504 156.15632362791604 162.2930615301684 155.74829764988579 Q 161.9522805522817 155.3402716718555 161.67429078860064 154.89147853839094 Q 161.39630102491958 154.44268540492638 161.20511775818778 153.94199617233576 Q 161.01393449145598 153.44130693974515 160.95395658213428 152.90898827143954 Q 160.89397867281258 152.37666960313396 160.98184107928552 151.8108471894471 Q 161.06970348575848 151.2450247757602 161.3239154760769 150.6604592654103 Q 161.57812746639536 150.0758937550604 162.05046822537923 149.4835971774331 L 162.05046822537923 149.4835971774331 Q 162.34193258041157 149.08014189964695 162.744452543749 148.76525051417028 Q 163.14697250708645 148.45035912869358 163.6385240199577 148.3275900051663 Q 164.130075532829 148.204820881639 164.7051525805413 148.30006361247106 Q 165.2802296282536 148.39530634330313 165.92055677136824 148.84538921490355 L 165.92055677136824 148.84538921490355 Z" fill-opacity="1"/></g></g><g><g><path fill="rgb(0,0,0)" stroke="none" paint-order="stroke fill markers" d="" fill-opacity="1"/></g></g><g><g><path fill="rgb(0,0,0)" stroke="none" paint-order="stroke fill markers" d="" fill-opacity="1"/></g></g><g><g><path fill="rgb(0,0,0)" stroke="none" paint-order="stroke fill markers" d="" fill-opacity="1"/></g></g><g><g><path fill="rgb(0,0,0)" stroke="none" paint-order="stroke fill markers" d=" M 110.97301136363637 188.2907171538382 L 110.57054924242426 196.8844671538382 L 108.51089015151517 197.61836866898972 L 100.27225378787881 196.19791412353516 L 101.14820075757578 197.9498080629291 L 90.42376893939395 196.00852018414122 L 88.81392045454547 188.48011109323213 L 90.63683712121214 176.54829291141394 L 102.9474431818182 176.33522472959575 L 110.92566287878789 177.66098230535334 L 110.97301136363637 188.2907171538382 Z M 101.74005681818184 193.2623080629291 L 109.64725378787881 193.66477018414122 L 109.64725378787881 192.71780048717153 L 107.49289772727275 192.3153383659594 L 108.17945075757578 179.41287624474728 L 110.45217803030305 179.15245957808062 L 110.52320075757578 178.27651260838363 L 102.54498106060608 177.87405048717153 L 102.47395833333334 178.5369292750503 L 104.95975378787881 179.15245957808062 L 104.69933712121214 185.11836866898972 L 96.46070075757578 184.64488382050484 L 96.79214015151517 178.79734594171697 L 99.13589015151517 178.4659065477776 L 99.13589015151517 177.73200503262606 L 91.2286931818182 177.1874974568685 L 91.2286931818182 177.99242169929272 L 93.38304924242425 178.67897472959575 L 92.76751893939395 191.22632321444425 L 90.49479166666669 191.6998080629291 L 90.42376893939395 192.64677775989878 L 98.18892045454547 193.0492398811109 L 98.33096590909092 192.3153383659594 L 96.05823863636365 191.51041412353516 L 96.31865530303031 185.92329291141394 L 104.55729166666669 186.2784065477776 L 104.29687500000001 192.10227018414122 L 101.81107954545456 192.38636109323213 L 101.74005681818184 193.2623080629291 Z" fill-opacity="1"/></g></g><g><g><path fill="rgb(0,0,0)" stroke="none" paint-order="stroke fill markers" d=" M 91.64380751432603 181.02914717007522 L 86.80792428851105 196.36502655405954 L 74.33158458681596 194.85295226525903 L 70.10751832805425 190.80488685697705 L 72.6792583259497 176.2392342491621 L 77.30536350716355 173.31268914113795 L 92.31985706720911 177.32244298980524 L 91.64380751432603 181.02914717007522 Z M 72.39497022759615 188.65584516125656 L 86.31314996868532 193.5323937401317 L 86.66762264305322 192.61769395803614 L 84.32969027433761 191.4769994093176 L 88.3851494987168 179.2412077465141 L 91.003802338311 179.79033202948523 L 91.3833643140174 178.97849099541617 L 77.20402045966323 173.96948420290414 L 74.96727702117825 178.02417920897759 L 75.91559351208288 178.3377585384021 Q 76.29064532351742 177.86485106428606 76.67134407461847 177.52678935053777 Q 77.05204282571952 177.18872763678945 77.39749517154371 176.9518949745999 Q 77.74294751736791 176.7150623124103 78.07623413765441 176.58472671631438 Q 78.4095207579409 176.45439112021847 78.7411776817596 176.3843912307379 Q 79.07283460557828 176.31439134125733 79.38605347852464 176.32517383086383 Q 79.69927235147101 176.3359563204703 80.01349553521706 176.39553417682257 Q 80.3277187189631 176.4551120331748 80.6455802207763 176.55194491640327 Q 80.96344172258948 176.64877779963174 81.29911588960688 176.7739593771343 L 81.29911588960688 176.7739593771343 L 85.31466124314635 178.22470893315182 L 83.28617378069366 184.02675188433975 L 79.58523053603177 182.7935066247814 Q 79.22647568927522 182.66305703274386 79.04772365156506 182.48870116336397 Q 78.86897161385492 182.31434529398408 78.79897172437437 181.9826883701654 Q 78.7289718348938 181.65103144634668 78.75881776104073 181.14789912095216 Q 78.78866368718766 180.64476679555762 78.84710476814526 179.8567642914908 L 78.84710476814526 179.8567642914908 L 78.0603530354147 179.58006106381092 L 76.15780500072768 185.36228272819528 L 76.99071809293653 185.64952198494507 L 77.66555381179012 184.3951307926334 Q 77.77693996728719 184.22628939832504 77.96647449460382 184.08742639475855 Q 78.15600902192044 183.9485633911921 78.38116887964546 183.86639777617384 Q 78.60632873737049 183.78423216115556 78.85293957836687 183.76767026728763 Q 79.09955041936325 183.75110837341967 79.30200852248069 183.82160118397337 L 79.30200852248069 183.82160118397337 L 82.97786246580407 184.9519876955052 L 81.05875253724908 190.48759851889318 L 75.0238941670703 188.30884017759942 Q 74.7790270184833 187.57302489780898 74.62547827805327 186.80948630941256 Q 74.47192953762321 186.04594772101612 74.48947727363746 185.22432850814027 L 74.48947727363746 185.22432850814027 L 73.59986679288039 184.9727145817989 L 72.39497022759615 188.65584516125656 Z" fill-opacity="1"/></g></g><g><g><path fill="rgb(0,0,0)" stroke="none" paint-order="stroke fill markers" d=" M 64.90343580986907 191.157559852806 L 60.094647718619555 190.33952588323123 L 50.52707339715326 185.65319564633236 L 51.88678289442999 184.52120021298197 L 50.68922615939774 183.02481235000454 L 55.465752438672126 171.6876007103641 L 59.14852996372691 165.131505626493 L 64.33166052481327 167.62756975067782 L 74.51774411464432 173.32122187385278 L 68.50309145227861 186.8474845036408 L 64.90343580986907 191.157559852806 Z M 58.19672859324611 183.7498280348266 L 65.38087243466032 187.6562286207617 L 65.8557364537988 186.83385401141643 L 64.09097615641848 184.93293317557155 L 69.97664971625456 174.12985871476903 L 72.46672897328372 174.96114770985182 L 73.03639786507986 174.10559944079174 L 60.25835598583174 167.13744956571702 L 57.86826189708087 170.9001327105363 L 58.79728528340323 171.4263560737938 Q 59.27607939128073 170.86863836252172 59.85321545168104 170.5159381998007 Q 60.430351512081344 170.16323803707968 61.0477622109779 170.02700631835523 Q 61.66517290987446 169.89077459963076 62.33352312496497 169.97614725931479 Q 63.00187334005549 170.06151991899878 63.66388177506122 170.4328792321514 L 63.66388177506122 170.4328792321514 L 67.28124035895394 172.3062894468231 L 61.211459178037174 183.54623088435778 L 58.671592612384586 182.92745342548133 L 58.19672859324611 183.7498280348266 Z" fill-opacity="1"/></g></g><g><g><path fill="rgb(0,0,0)" stroke="none" paint-order="stroke fill markers" d=" M 45.498914593735286 181.06232926464008 L 40.99272254272634 179.19474909732588 L 32.707833865997245 172.4969293699624 L 34.28534528841445 171.69587925277006 L 33.450791425840805 169.9705275145582 L 40.63032714128858 159.9804405294911 L 45.67963814598979 154.4082155317356 L 50.17739028234707 157.99505317026953 L 58.84113070181934 165.8125703811724 L 49.96740134588146 177.6613152386022 L 45.498914593735286 181.06232926464008 Z M 40.60873393205297 172.34794199572008 L 46.74350038138706 177.75502336037962 L 47.38945413426948 177.05893458450026 L 46.09193474181234 174.81297769320497 L 54.23395239590447 165.59044444148668 L 56.47662096355374 166.95498604778186 L 57.22238446674346 166.24765141390466 L 46.31527399378537 156.61082579132486 L 43.1478287863545 159.74732464503293 L 43.93646390248815 160.4670816415066 Q 44.52735750844237 160.02988878972698 45.16850673246851 159.81445641163933 Q 45.809655956494645 159.59902403355167 46.44190128941362 159.60359473379577 Q 47.074146622332606 159.60816543403988 47.706742698169855 159.84011953697487 Q 48.3393387740071 160.07207363990983 48.90211405419791 160.58143293499543 L 48.90211405419791 160.58143293499543 L 52.011904915353384 163.2128108547881 L 43.59318355494718 172.8202901162417 L 41.25468768493539 171.6518532198407 L 40.60873393205297 172.34794199572008 Z" fill-opacity="1"/></g></g><g><g><path fill="rgb(0,0,0)" stroke="none" paint-order="stroke fill markers" d=" M 40.99340418145719 158.4265149074917 L 29.382707693954508 168.77583411649215 L 27.36752103945785 164.08454938497468 L 17.07888858715339 153.87892046905156 L 33.40008056006093 141.04488715145447 L 40.19325257102485 147.43690536306534 L 45.33909972546285 155.14262131060013 L 40.99340418145719 158.4265149074917 Z M 26.861661812017203 158.8557870326082 L 26.861661812017203 158.8557870326082 Q 27.452087760747062 159.59615775464232 28.122290624985336 160.15178653908617 Q 28.79249348922361 160.70741532353003 29.533218634944866 161.08568249474274 Q 30.273943780666123 161.46394966595545 31.050046981434964 161.67774156298898 Q 31.8261501822038 161.89153346002252 32.58585225320027 161.9518621122625 Q 33.34555432419674 162.01219076450246 34.10549022380539 161.9209304816152 Q 34.86542612341404 161.8296701987279 35.56456203278948 161.60521333445814 Q 36.26369794216493 161.38075647018837 36.90203386130718 161.0231030245361 Q 37.54036978044943 160.66544957888385 38.08088717325677 160.2041208492856 L 38.08088717325677 160.2041208492856 Q 38.62515318539672 159.70952220291827 39.115882617356505 159.1667760767575 Q 39.60661204931629 158.6240299505967 39.98839401124943 158.0016238232336 Q 40.37017597318258 157.3792176958705 40.63926184575649 156.71042148407415 Q 40.9083477183304 156.04162527227783 41.02596157008314 155.2968007643057 Q 41.143575421835884 154.55197625633357 41.08195335069119 153.75326442526298 Q 41.02033127954649 152.95455259419242 40.75733231242698 152.07418953794715 Q 40.494333345307474 151.19382648170188 40.009573904496 150.26320780738467 Q 39.52481446368453 149.33258913306747 38.77951861771917 148.32207662893575 L 38.77951861771917 148.32207662893575 Q 38.24087185380926 147.570693877516 37.57804931393011 147.02431972709758 Q 36.91522677405096 146.47794557667913 36.19113658671425 146.10155271513273 Q 35.467046399377544 145.7251598535863 34.68356287424958 145.50211332252735 Q 33.90007934912162 145.2790667914684 33.10710736135605 145.21498951989582 Q 32.31413537359048 145.15091224832324 31.528309881571857 145.24767854590334 Q 30.742484389553233 145.34444484348344 30.01933319743411 145.55777276406147 Q 29.29618200531499 145.77110068463952 28.641211127788193 146.12687982062548 Q 27.986240250261396 146.48265895661143 27.44572285745405 146.94398768620965 L 27.44572285745405 146.94398768620965 Q 26.9014568453141 147.43858633257702 26.42173944273996 148.03311164355776 Q 25.942022040165817 148.6276369545385 25.582381051310037 149.27780698397788 Q 25.22274006245426 149.92797701341726 24.981301177650543 150.65042671969985 Q 24.739862292846826 151.37287642598244 24.651769738530575 152.15471947005628 Q 24.563677184214324 152.93656251413012 24.64005990407727 153.75378361325153 Q 24.71644262394021 154.57100471237294 24.975809886033204 155.4088432178237 Q 25.23517714812619 156.24668172327446 25.701544235192905 157.11626657874626 Q 26.167911322259613 157.9858514342181 26.861661812017203 158.8557870326082 Z M 27.476917762864495 157.8806489027552 L 27.476917762864495 157.8806489027552 Q 27.19646543721781 157.528972809789 26.98079554974911 157.12563444630894 Q 26.76512566228041 156.72229608282885 26.640127805399676 156.26178943414212 Q 26.515129948518936 155.80128278545536 26.477055502893556 155.316877768331 Q 26.438981057268172 154.83247275120667 26.51184530564182 154.33529830933648 Q 26.58470955401547 153.8381238674663 26.750003228337288 153.3429406495685 Q 26.915296902659108 152.84775743167071 27.185906341981052 152.3897096641807 Q 27.45651578130299 151.9316618966907 27.841695619650473 151.50336925524937 Q 28.226875457997963 151.07507661380805 28.71912845670578 150.7430789319536 L 28.71912845670578 150.7430789319536 Q 29.215130074746202 150.37781133333004 29.77954583599113 150.00340601498715 Q 30.343961597236056 149.62900069664425 30.96378824832745 149.28610789971023 Q 31.583614899418848 148.94321510277624 32.23108853828043 148.65397580032848 Q 32.878562177142015 148.36473649788073 33.522170282364904 148.1845615797657 Q 34.16577838758779 148.00438666165067 34.827661932249356 147.96104002994466 Q 35.48954547691092 147.9176933982386 36.114176656858604 148.05545699909635 Q 36.73880783680628 148.19322059995406 37.32243803270747 148.54536435014464 Q 37.906068228608646 148.8975081003352 38.422690933747276 149.54533248211504 L 38.422690933747276 149.54533248211504 Q 39.04638679924624 150.28945182348178 39.21320772108496 151.20109357252377 Q 39.38002864292369 152.11273532156576 39.091965845074576 153.09947005233482 Q 38.803903047225454 154.0862047831039 38.05919913432828 155.088872986421 Q 37.31449522143111 156.09154118973808 36.10412938807263 156.96593425483505 L 36.10412938807263 156.96593425483505 Q 35.65990695485216 157.32018982407297 35.14551298306697 157.62442360385114 Q 34.63111901128178 157.92865738362934 34.06869447400925 158.21063327602405 Q 33.50626993673672 158.49260916841877 32.9180727213603 158.7042966079427 Q 32.32987550598388 158.9159840474666 31.734414880554425 159.04262238540144 Q 31.138954255124972 159.16926072333632 30.55661379735964 159.17945435257934 Q 29.974273339594312 159.18964798182233 29.43281695156938 159.06125592929612 Q 28.891360563544453 158.93286387676994 28.392662554926225 158.64925118408996 Q 27.893964546308002 158.36563849140998 27.476917762864495 157.8806489027552 Z" fill-opacity="1"/></g></g><g><g><path fill="rgb(0,0,0)" stroke="none" paint-order="stroke fill markers" d="" fill-opacity="1"/></g></g><g><g><path fill="rgb(0,0,0)" stroke="none" paint-order="stroke fill markers" d=" M 15.578874306537973 131.68936118139442 L 9.401286622842363 132.71082614279496 L 7.630402014222341 129.73967231312545 L 5.7332328059905215 117.27837880477213 L 4.7529261187233125 110.2172065051175 L 13.444299272387251 108.71911869289893 L 12.841207135423625 107.88544775042696 L 22.69586259647211 108.18590926545293 L 25.353252410183284 116.63696237210848 L 27.479484723397235 128.29319856145392 L 15.578874306537973 131.68936118139442 Z M 11.217229568831465 126.51697843172809 L 10.586774579740034 126.73372487792417 L 12.143377347529723 131.74499885318284 L 13.050800493490993 131.46503623256734 L 12.844590076364817 130.88074260295423 L 25.200406114056207 120.43572434214514 L 24.805797945008056 119.23878838864478 L 18.21279496331445 118.12102677043836 L 23.290846372424824 113.87804482436323 L 22.821728149624263 112.67383223472856 L 7.322879118859948 111.47614479900777 L 6.570766874391499 110.62792058426722 L 5.8816058751525055 110.90663243354645 L 6.8459174642384255 114.28042891866149 L 7.614856531764776 114.03207438525571 L 7.653513263225584 112.71196547585214 L 18.997611949059163 113.47381259377796 L 14.315949338713093 117.43205682577582 L 8.709389721005014 116.38054278304122 L 7.8203090986278525 114.93222089508268 L 7.120612070318959 115.16477138488361 L 8.41305626109802 119.33786425339845 L 9.013153934315998 119.20089587548973 L 9.204848016480327 117.70015877137163 L 13.206561010707546 118.31662728388113 L 9.952906080443315 120.97761529433137 L 9.249721667315626 119.7054114368155 L 8.491318628859176 119.99992732969959 L 10.391858041946861 125.87973972757551 L 11.150261080403311 125.58522383469142 L 10.812350299903368 124.42391321159947 L 17.23461407760952 119.04849919508638 L 21.342445212798854 119.8107284221651 L 12.097289862664928 127.28743319978065 L 11.217229568831465 126.51697843172809 Z" fill-opacity="1"/></g></g><g><g><path fill="rgb(0,0,0)" stroke="none" paint-order="stroke fill markers" d=" M 17.43844951282848 108.88967803030305 L 1.9081464825254493 109.74195075757578 L 3.257578300707266 104.81770833333336 L 1.5767070885860512 90.42376893939395 L 22.33901769464666 90.5658143939394 L 23.66477527040424 99.79876893939395 L 22.88352527040424 109.0317234848485 L 17.43844951282848 108.88967803030305 Z M 6.122161634040598 100.41429924242426 L 6.122161634040598 100.41429924242426 Q 6.122161634040598 101.36126893939395 6.299718452222418 102.21354166666669 Q 6.477275270404235 103.0658143939394 6.82055178555575 103.82339015151517 Q 7.163828300707266 104.58096590909092 7.637313149192115 105.23200757575759 Q 8.110797997676965 105.88304924242426 8.667142694646662 106.40388257575759 Q 9.22348739161636 106.92471590909092 9.874529058283025 107.32717803030305 Q 10.525570724949691 107.72964015151517 11.212123755252723 107.99005681818184 Q 11.898676785555754 108.2504734848485 12.620741179495147 108.36884469696972 Q 13.342805573434541 108.48721590909092 14.053032846161814 108.46354166666669 L 14.053032846161814 108.46354166666669 Q 14.78693436131333 108.4161931818182 15.508998755252723 108.29782196969698 Q 16.231063149192117 108.17945075757578 16.91761617949515 107.93087121212123 Q 17.60416920979818 107.68229166666669 18.2315366340406 107.32717803030305 Q 18.858904058283024 106.9720643939394 19.415248755252723 106.4630681818182 Q 19.97159345222242 105.95407196969698 20.421404058283027 105.2911931818182 Q 20.871214664343633 104.6283143939394 21.21449117949515 103.77604166666669 Q 21.557767694646664 102.92376893939395 21.758998755252723 101.8939393939394 Q 21.96022981585878 100.86410984848486 22.00757830070727 99.60937500000001 L 22.00757830070727 99.60937500000001 Q 22.054926785555754 98.68607954545456 21.877369967373934 97.84564393939395 Q 21.699813149192117 97.00520833333334 21.368373755252723 96.25946969696972 Q 21.036934361313328 95.51373106060608 20.563449512828477 94.85085227272728 Q 20.08996466434363 94.1879734848485 19.50994572494969 93.64346590909092 Q 18.92992678555575 93.09895833333334 18.25521087646484 92.68465909090911 Q 17.58049496737393 92.27035984848486 16.88210481585878 91.98626893939395 Q 16.18371466434363 91.70217803030305 15.449813149192114 91.57196969696972 Q 14.715911634040598 91.44176136363637 14.005684361313326 91.46543560606062 L 14.005684361313326 91.46543560606062 Q 13.27178284616181 91.51278409090911 12.526044209798174 91.6785037878788 Q 11.780305573434537 91.8442234848485 11.093752543131506 92.1283143939394 Q 10.407199512828477 92.41240530303031 9.76799496737393 92.82670454545456 Q 9.128790421919385 93.2410037878788 8.572445724949688 93.7973484848485 Q 8.01610102797999 94.3536931818182 7.566290421919385 95.04024621212123 Q 7.116479815858781 95.72679924242426 6.796877543131508 96.54356060606062 Q 6.477275270404235 97.36032196969698 6.299718452222418 98.33096590909092 Q 6.122161634040598 99.30160984848486 6.122161634040598 100.41429924242426 Z M 7.21117678555575 100.03551136363637 L 7.21117678555575 100.03551136363637 Q 7.21117678555575 99.58570075757578 7.294036634040598 99.13589015151517 Q 7.3768964825254475 98.68607954545456 7.566290421919387 98.24810606060608 Q 7.755684361313326 97.81013257575759 8.027938149192114 97.40767045454547 Q 8.300191937070903 97.00520833333334 8.66714269464666 96.66193181818183 Q 9.034093452222418 96.31865530303033 9.472066937070903 96.0345643939394 Q 9.910040421919387 95.7504734848485 10.407199512828479 95.56107954545456 Q 10.904358603737569 95.37168560606062 11.472540421919387 95.27698863636365 Q 12.040722240101205 95.18229166666669 12.632578300707266 95.22964015151517 L 12.632578300707266 95.22964015151517 Q 13.24810860373757 95.2533143939394 13.922824512828479 95.31250000000001 Q 14.597540421919389 95.37168560606062 15.29593057343454 95.49005681818183 Q 15.994320724949691 95.60842803030305 16.68087375525272 95.78598484848486 Q 17.36742678555575 95.96354166666669 17.982957088586055 96.22395833333334 Q 18.59848739161636 96.48437500000001 19.142994967373934 96.86316287878789 Q 19.687502543131508 97.24195075757576 20.089964664343633 97.73910984848486 Q 20.49242678555575 98.23626893939395 20.729169209798176 98.8754734848485 Q 20.9659116340406 99.51467803030305 20.9659116340406 100.34327651515153 L 20.9659116340406 100.34327651515153 Q 20.989585876464844 101.31392045454547 20.55161239161636 102.13068181818183 Q 20.113638906767875 102.9474431818182 19.27320330070727 103.53929924242426 Q 18.432767694646664 104.13115530303031 17.225381331010297 104.45075757575759 Q 16.017994967373934 104.77035984848486 14.52651769464666 104.69933712121214 L 14.52651769464666 104.69933712121214 Q 13.958335876464842 104.69933712121214 13.366479815858781 104.6164772727273 Q 12.77462375525272 104.53361742424244 12.159093452222418 104.40340909090911 Q 11.543563149192115 104.27320075757578 10.951707088586055 104.07196969696972 Q 10.359851027979994 103.87073863636365 9.815343452222418 103.59848484848487 Q 9.270835876464842 103.32623106060608 8.809188149192115 102.97111742424244 Q 8.347540421919387 102.61600378787881 8.004263906767871 102.17803030303033 Q 7.6609873916163576 101.74005681818184 7.447919209798174 101.20738636363637 Q 7.2348510279799925 100.67471590909092 7.21117678555575 100.03551136363637 Z" fill-opacity="1"/></g></g><g><g><path fill="rgb(0,0,0)" stroke="none" paint-order="stroke fill markers" d=" M 12.801034703436617 90.16273757974182 L 1.3191359148177106 86.7407278081997 L 5.2752976506027025 77.49337278188997 L 5.294589079026348 75.91937639535573 L 6.70323145607103 74.32252732096552 L 5.832875466430853 70.26286616685384 L 19.23168450742895 71.66980815683853 L 27.087415034328338 74.70126393983796 L 23.84762303264046 91.12993282065311 L 22.498672507889637 91.72051724425424 L 12.801034703436617 90.16273757974182 Z M 15.55931158088171 83.82305527949222 L 9.789141646093453 82.50605164575457 L 10.09392863885749 80.85151934066985 Q 10.1920122934222 80.31539569213439 10.550255750452221 79.86293489049 Q 10.90849920748224 79.41047408884562 11.43658836962031 79.11819480944408 Q 11.964677531758376 78.82591553004254 12.605915010456286 78.72944310329224 Q 13.247152489154193 78.63297067654196 13.929036852258884 78.83717247206879 L 13.929036852258884 78.83717247206879 Q 14.628733880567776 79.06972296186972 15.056484306005206 79.48303411098014 Q 15.484234731442639 79.89634526009057 15.693097624489667 80.41753671122588 Q 15.901960517536695 80.9387281623612 15.930820601537325 81.5038258908389 Q 15.959680685537958 82.06892361931659 15.843784365769043 82.57669857357796 L 15.843784365769043 82.57669857357796 L 15.55931158088171 83.82305527949222 Z M 8.897220677240323 79.07282823753563 L 7.48618756944342 87.80835412907852 L 8.4891928272969 87.98871739460309 L 9.030547553060565 85.82966952819261 L 21.82827307869439 88.16787319414082 L 21.803978564925742 90.6149181675642 L 22.593989690591897 90.77094998201336 L 24.01783237824801 82.93682137163368 L 23.043175814668633 82.73864544090492 L 22.062037402524812 85.01586317787361 L 16.395484066026167 83.9896231230113 L 16.626518855300894 82.65822033427472 Q 16.668662971580503 82.4735748963615 16.777415119810087 82.31627384192271 Q 16.886167268039678 82.1589727874839 17.049987108349676 82.02638210925207 Q 17.21380694865967 81.89379143102022 17.406979794043444 81.79218345432996 Q 17.600152639427222 81.6905754776397 17.77752144120614 81.6582095401669 L 17.77752144120614 81.6582095401669 L 24.56544096069292 79.68646277161182 L 25.461989273780823 74.69451716208356 L 24.87970426576705 74.58589747844894 L 23.838344142949467 76.16944405190681 L 16.784257424852704 78.88178119371413 Q 16.796044225258857 78.61735768751355 16.73231666111292 78.31141545070147 Q 16.66858909696699 78.00547321388942 16.55870017334275 77.68899494800745 Q 16.44881124971851 77.37251668212548 16.28749295208101 77.06858306691277 Q 16.126174654443513 76.76464945170005 15.924967322662336 76.47589449442407 Q 15.72375999088116 76.18713953714808 15.47739561042135 75.93664391754797 Q 15.231031229961545 75.68614829794787 14.966228798629409 75.51643505743479 Q 14.701426367297273 75.34672181692173 14.420819892360287 75.24625061562611 Q 14.1402134174233 75.1457794143305 13.847441216948612 75.15180527912855 L 13.847441216948612 75.15180527912855 Q 13.45707828298236 75.15983976552596 13.048277298143782 75.24865663101039 Q 12.639476313305206 75.33747349649482 12.22641162473135 75.4981664084642 Q 11.813346936157497 75.65885932043358 11.435907577992051 75.87624962095116 Q 11.0584682198266 76.09363992146874 10.707747859467457 76.35355326339747 Q 10.35702749910831 76.6134666053262 10.053472809027147 76.93271134307062 Q 9.749918118945981 77.25195608081503 9.512971460814803 77.59854520203388 Q 9.276024802683624 77.94513432325273 9.117226516372003 78.32170183521347 Q 8.958428230060381 78.69826934717423 8.897220677240323 79.07282823753563 L 8.897220677240323 79.07282823753563 Z" fill-opacity="1"/></g></g><g><g><path fill="rgb(0,0,0)" stroke="none" paint-order="stroke fill markers" d=" M 8.842440147193994 64.9034358098691 L 9.660474116768771 60.09464771861957 L 14.346804353667643 50.52707339715327 L 15.478799787018028 51.886782894430006 L 16.975187649995455 50.689226159397755 L 28.31239928963589 55.46575243867214 L 34.868494373507005 59.14852996372692 L 32.372430249322186 64.33166052481329 L 26.678778126147208 74.51774411464433 L 13.152515496359197 68.50309145227862 L 8.842440147193994 64.9034358098691 Z M 16.250171965173394 58.19672859324612 L 12.343771379238294 65.38087243466033 L 13.166145988583558 65.85573645379881 L 15.06706682442844 64.0909761564185 L 25.87014128523098 69.97664971625457 L 25.038852290148178 72.46672897328374 L 25.89440055920828 73.03639786507989 L 32.86255043428299 60.258355985831756 L 29.09986728946371 57.868261897080885 L 28.573643926206195 58.79728528340324 Q 29.131361637478264 59.276079391280746 29.484061800199285 59.85321545168105 Q 29.836761962920306 60.43035151208136 29.972993681644766 61.047762210977915 Q 30.109225400369226 61.66517290987447 30.02385274068522 62.333523124964984 Q 29.93848008100122 63.0018733400555 29.5671207678486 63.663881775061235 L 29.5671207678486 63.663881775061235 L 27.693710553176913 67.28124035895395 L 16.453769115642228 61.21145917803719 L 17.07254657451866 58.6715926123846 L 16.250171965173394 58.19672859324612 Z" fill-opacity="1"/></g></g><g><g><path fill="rgb(0,0,0)" stroke="none" paint-order="stroke fill markers" d=" M 25.56796378397231 53.360238732030815 L 17.52674272540036 46.43281054939187 L 29.45966762381014 33.17807016747152 L 38.262121681664325 37.44226820829725 L 44.20217903123958 46.05520892662471 L 33.884953234409615 59.29636516442545 L 25.56796378397231 53.360238732030815 Z M 21.812694188696504 49.33597441310511 L 21.812694188696504 49.33597441310511 L 22.689893197139625 49.94467580127365 L 23.582327873063093 48.44589274637891 Q 23.79624036517158 48.10171389207792 24.016126529197244 48.03482331562145 Q 24.236012693222907 47.96793273916498 24.435866022449684 48.097029958296595 L 24.435866022449684 48.097029958296595 L 33.37514100517514 54.77165648382792 Q 33.48619661348025 54.8602203761374 33.591746207092555 54.97467386085685 Q 33.69729580070485 55.08912734557631 33.77144978721435 55.22396440801292 Q 33.84560377372385 55.35880147044953 33.86985288507971 55.49926146188505 Q 33.89410199643556 55.639721453320576 33.83880802089518 55.747028442293086 L 33.83880802089518 55.747028442293086 L 33.00588359706906 57.47495229523891 L 33.812794152641374 58.05788100530356 Q 34.51380805245199 57.102896305324414 35.20181869890458 56.107261364217045 Q 35.88982934535717 55.11162642310968 36.570459667450635 54.125246116027746 Q 37.2510899895441 53.13886580894581 37.96873884773927 52.18200679930036 Q 38.686387705934436 51.22514778965491 39.476199326666716 50.310696416497905 L 39.476199326666716 50.310696416497905 Q 40.01507991918881 49.7109026002054 40.3504754774576 49.024536115575806 Q 40.68587103572639 48.33816963094621 40.86592903953533 47.61876705815969 Q 41.04598704334427 46.89936448537318 41.063327168334226 46.15618045845517 Q 41.08066729332418 45.41299643153716 40.966802060904044 44.70144184033413 Q 40.852936828483905 43.989887249131094 40.598611604628246 43.30258176928392 Q 40.34428638077259 42.615276289436736 39.99026832091572 42.015011135151 Q 39.636250261058855 41.41474598086526 39.1899196895599 40.89226651811555 Q 38.74358911806094 40.369787055365826 38.24383888068791 39.97124953997317 L 38.24383888068791 39.97124953997317 Q 37.2295777572236 39.19268377723871 36.239916488033415 38.78196140863065 Q 35.250255218843236 38.37123904002259 34.323852821082994 38.222927386234716 Q 33.39745042332276 38.074615732446844 32.51579762894163 38.17395414476091 Q 31.634144834560487 38.27329255707498 30.85440992876513 38.52960900490304 Q 30.074675022969778 38.78592545273109 29.38572906206847 39.17520465332945 Q 28.696783101167163 39.56448385392781 28.122524453597496 39.999802396041126 Q 27.54826580602783 40.43512093815444 27.12747040325171 40.886840610040124 Q 26.70667500047559 41.33856028192581 26.41521064544327 41.742015559711966 L 26.41521064544327 41.742015559711966 Q 25.75847869178739 42.64147245553855 25.147902993952552 43.502036505597125 Q 24.537327296117716 44.3626005556557 23.965644444050884 45.26932086153531 Q 23.393961591984052 46.17604116741493 22.848285246633292 47.164061955551 Q 22.30260890128253 48.15208274368706 21.812694188696504 49.33597441310511 Z M 34.079443228631746 51.15461078509645 L 25.677170847993207 45.05963200752153 Q 25.81728009651046 44.8079994934748 25.946260401335984 44.5323516966844 Q 26.0752407061615 44.256703899894 26.204221010987027 43.9810561031036 Q 26.33320131581255 43.705408306313196 26.480690888688923 43.444521158241045 Q 26.6281804615653 43.18363401016889 26.820068894902505 42.943013525507794 L 26.820068894902505 42.943013525507794 Q 27.587622628251324 41.98053158686344 28.620162871923178 41.42619254055544 Q 29.652703115595024 40.87185349424743 30.876426625998675 40.81820368053005 Q 32.10015013640232 40.76455386681266 33.4596460236913 41.24310580709478 Q 34.81914191098028 41.721657747376895 36.2220976635125 42.810197133194535 L 36.2220976635125 42.810197133194535 Q 36.610792292580406 43.12017075627771 36.98847489226268 43.48192356418084 Q 37.36615749194495 43.84367637208397 37.70693846983161 44.25170235011423 Q 38.047719447718265 44.65972832814449 38.32570921139933 45.108521461609065 Q 38.60369897508039 45.55731459507364 38.79488224181219 46.05800382766426 Q 38.98606550854399 46.558693060254875 39.04604341786569 47.09101172856047 Q 39.1060213271874 47.62333039686606 39.018158920714455 48.189152810552926 Q 38.93029651424151 48.7549752242398 38.67608452392307 49.339540734589704 Q 38.421872533604635 49.92410624493961 37.949531774620745 50.5164028225669 L 37.949531774620745 50.5164028225669 Q 37.65806741958842 50.91985810035306 37.25554745625098 51.234749485829745 Q 36.85302749291354 51.54964087130642 36.36147598004226 51.672409994833714 Q 35.86992446717098 51.79517911836101 35.294847419458684 51.69993638752895 Q 34.719770371746385 51.60469365669688 34.079443228631746 51.15461078509645 L 34.079443228631746 51.15461078509645 Z" fill-opacity="1"/></g></g><g><g><path fill="rgb(0,0,0)" stroke="none" paint-order="stroke fill markers" d="" fill-opacity="1"/></g></g><g><g><path fill="rgb(0,0,0)" stroke="none" paint-order="stroke fill markers" d="" fill-opacity="1"/></g></g><g><g><path fill="rgb(0,0,0)" stroke="none" paint-order="stroke fill markers" d="" fill-opacity="1"/></g></g></g></g></svg>