<svg version="1.1" xmlns="http://www.w3.org/2000/svg" xmlns:xlink="http://www.w3.org/1999/xlink" width="500" height="500" viewBox="0 0 500 500"><defs/><g><g><g><g><path fill="rgb(9,9,11)" stroke="none" paint-order="stroke fill markers" d=" M 264.6666666666667 5.1851817943431655 L 255.1851851851852 5.1851817943431655 L 255.1851851851852 26.666663275824646 L 244.8148148148148 26.666663275824646 L 244.8148148148148 5.1851817943431655 L 235.33333333333334 5.1851817943431655 L 235.33333333333334 58.888885498046875 L 244.8148148148148 58.888885498046875 L 244.8148148148148 35.703700312861685 L 255.1851851851852 35.703700312861685 L 255.1851851851852 58.888885498046875 L 264.6666666666667 58.888885498046875 Z" fill-opacity="1"/></g></g><g><g><path fill="rgb(9,9,11)" stroke="none" paint-order="stroke fill markers" d=" M 311.20408682102243 58.94730094531974 L 293.9428989556704 54.69280024687427 L 297.2401369969656 41.315379651226436 L 313.062892540205 45.215338624801454 L 315.13696163069716 36.800509540442334 L 299.31420608745776 32.900550566867324 L 302.4696274388048 20.09850290006456 L 319.73081530415686 24.353003598510035 L 321.89351982586663 15.578566433622747 L 295.42636509899353 9.054998696006358 L 282.5742275724395 61.19817037259064 L 309.04138229931266 67.72173811020703 Z" fill-opacity="1"/></g></g><g><g><path fill="rgb(9,9,11)" stroke="none" paint-order="stroke fill markers" d=" M 356.19694024384415 79.69682486910105 L 338.2910517250793 70.29908961221595 L 359.04868674303424 30.748720466372568 L 350.6532518331372 26.342456316624244 L 325.69589629745326 73.89472436096331 L 351.9972197261153 87.69872376759673 Z" fill-opacity="1"/></g></g><g><g><path fill="rgb(9,9,11)" stroke="none" paint-order="stroke fill markers" d=" M 393.86726765217526 110.06011692473938 L 378.73071696693745 96.6503031692033 L 408.35019570169294 63.21682308422744 L 401.2532049042188 56.92943788016657 L 365.6410621468428 97.12723731898497 L 387.8746036295547 116.82443627858193 Z" fill-opacity="1"/></g></g><g><g><path fill="rgb(9,9,11)" stroke="none" paint-order="stroke fill markers" d=" M 413.37754061246005 137.22862613011569 C 411.3156759761766 134.24149950576094 411.93881160079604 130.84115845267806 417.3644089389098 127.09613901126527 L 434.49466570306663 115.27197650523158 C 439.92026304118036 111.52695706381877 443.3206040942632 112.1500926884382 445.3824687305467 115.13721931279296 C 447.4443333668301 118.12434593714772 446.8211977422107 121.52468699023059 441.39560040409697 125.2697064316434 L 424.2653436399401 137.0938689376771 C 418.8397463018264 140.8388883790899 415.43940524874347 140.21575275447046 413.37754061246005 137.22862613011569 Z M 406.67174614962283 141.8573018442214 C 412.5207090974473 150.33098757453388 421.0558297503536 150.8300959097868 429.651439016354 144.89697522170584 L 446.78169578051086 133.07281271567214 C 455.3773050465113 127.13969202759118 457.9372261412084 118.98222932899972 452.08826319338385 110.50854359868725 C 446.2393002455594 102.03485786837479 437.7041795926531 101.53574953312187 429.1085703266527 107.46887022120282 L 411.9783135624958 119.29303272723652 C 403.38270429649543 125.22615341531748 400.82278320179836 133.38361611390894 406.67174614962283 141.8573018442214 Z" fill-opacity="1"/></g></g><g><g><path fill="rgb(9,9,11)" stroke="none" paint-order="stroke fill markers" d="" fill-opacity="1"/></g></g><g><g><path fill="rgb(9,9,11)" stroke="none" paint-order="stroke fill markers" d=" M 494.05663648637307 228.9472434636816 L 464.4418911218558 229.6330177341849 L 484.50882826826336 221.60009111275116 L 463.0936660315926 218.52938514242146 L 492.0209058865054 212.18149359002555 L 490.86018229886156 202.62207480241466 L 438.2444732128487 214.83099223684115 L 439.12840886805435 222.11085731356022 L 461.63975716867117 224.37689908011455 L 440.306989741662 231.81734408251899 L 441.16413946792204 238.87660718721625 L 495.2084314310351 238.43312826061856 Z" fill-opacity="1"/></g></g><g><g><path fill="rgb(9,9,11)" stroke="none" paint-order="stroke fill markers" d=" M 447.0710983722512 273.92876360014793 C 447.5086018783631 270.3255980571254 450.2298687890047 268.19362158328755 456.77439395898443 268.9882708086745 L 477.43744533835877 271.49721948658157 C 483.9819705083385 272.29186871196856 486.1139469821763 275.01313562261015 485.6764434760644 278.6163011656327 C 485.23893996995247 282.21946670865526 482.5176730593109 284.351443182493 475.97314788933113 283.5567939571061 L 455.3100965099568 281.047845279199 C 448.76557133997704 280.2531960538121 446.6335948661393 277.5319291431705 447.0710983722512 273.92876360014793 Z M 438.9823593981189 272.9466128721416 C 437.74127802363813 283.1678375758178 443.79893752325256 289.20125742501756 454.1672302082767 290.46019608546203 L 474.83028158765103 292.9691447633691 C 485.19857427267516 294.22808342381364 492.5241010757159 289.81967659731527 493.7651824501967 279.59845189363904 C 495.0062638246774 269.37722718996275 488.94860432506295 263.3438073407631 478.5803116400389 262.08486868031855 L 457.91726026066453 259.57592000241146 C 447.5489675756404 258.316981341967 440.2234407725996 262.7253881684653 438.9823593981189 272.9466128721416 Z" fill-opacity="1"/></g></g><g><g><path fill="rgb(9,9,11)" stroke="none" paint-order="stroke fill markers" d=" M 484.15923720632964 322.96043847192743 L 433.9454019510018 303.9168426863098 L 430.53068822392555 312.9207028010582 L 450.6854827884778 320.56440814397513 L 426.5643668947831 323.37903262665066 L 422.6505796229803 333.69884152740076 L 446.7287020829237 330.7886895536343 C 446.0627282530056 337.3492309812583 450.125425859694 342.93034280098226 457.95185811328304 345.89851704067166 C 467.85610423950635 349.6547021404555 475.3860496306106 346.09343292058884 478.8795644436963 336.88179141857694 Z M 472.29474706387407 328.75972108895814 L 471.11273077373227 331.8764418979095 C 469.24777173817523 336.7939347298106 466.54438011686346 338.69989612264743 460.58798034864526 336.4409316570431 C 454.8393619676905 334.2607682774483 452.9882894742884 330.7859709459156 454.5117771371378 326.76886412548936 L 456.08779885732685 322.6132363802209 Z" fill-opacity="1"/></g></g><g><g><path fill="rgb(9,9,11)" stroke="none" paint-order="stroke fill markers" d=" M 406.2608466092525 375.95042434934425 L 417.7483781542603 359.3078617279392 L 454.508324164177 384.68142041526414 L 459.8944195405909 376.8783141312354 L 415.6971378537093 346.3711332882659 L 398.8235109322876 370.81680219369974 Z" fill-opacity="1"/></g></g><g><g><path fill="rgb(9,9,11)" stroke="none" paint-order="stroke fill markers" d=" M 390.0158497472942 431.0564398869045 C 397.2856388894896 439.26233549648396 404.5799193405349 440.1233503054298 411.8986911004301 433.63948431374206 L 423.4313011463256 423.4224833571431 L 387.8191583889495 383.22468391832473 L 376.28654834305405 393.4416848749237 C 368.96777658315887 399.92555086661145 368.8941650774022 407.2149864266398 376.0165936288774 415.25454631440346 Z M 383.45742580469863 409.3552777945795 C 380.2154928088547 405.6958919146319 379.83962177904283 402.36729289266214 382.7227742905167 399.8130426535124 L 386.7148316140959 396.27638847622814 L 410.34164632623094 422.94554920736147 L 406.3495890026517 426.4822033846457 C 403.46643649117783 429.0364536237954 400.0600523591719 428.0957691191596 396.5233981818876 424.1037117955804 Z" fill-opacity="1"/></g></g><g><g><path fill="rgb(9,9,11)" stroke="none" paint-order="stroke fill markers" d="" fill-opacity="1"/></g></g><g><g><path fill="rgb(9,9,11)" stroke="none" paint-order="stroke fill markers" d="" fill-opacity="1"/></g></g><g><g><path fill="rgb(9,9,11)" stroke="none" paint-order="stroke fill markers" d=" M 235.33333333333337 494.8148182056568 L 244.81481481481484 494.8148182056568 L 244.81481481481484 473.33333672417535 L 255.18518518518522 473.33333672417535 L 255.18518518518522 494.8148182056568 L 264.6666666666667 494.8148182056568 L 264.6666666666667 441.1111145019531 L 255.18518518518522 441.1111145019531 L 255.18518518518522 464.2962996871383 L 244.81481481481484 464.2962996871383 L 244.81481481481484 441.1111145019531 L 235.33333333333337 441.1111145019531 Z" fill-opacity="1"/></g></g><g><g><path fill="rgb(9,9,11)" stroke="none" paint-order="stroke fill markers" d=" M 188.79591317897763 441.0526990546803 L 206.0571010443297 445.3071997531258 L 202.75986300303444 458.6846203487736 L 186.93710745979507 454.7846613751986 L 184.8630383693029 463.19949045955775 L 200.6857939125423 467.09944943313275 L 197.53037256119524 479.9014970999355 L 180.2691846958432 475.64699640149 L 178.10648017413342 484.42143356637735 L 204.57363490100653 490.9450013039937 L 217.42577242756056 438.8018296274094 L 190.95861770068743 432.27826188979304 Z" fill-opacity="1"/></g></g><g><g><path fill="rgb(9,9,11)" stroke="none" paint-order="stroke fill markers" d=" M 143.80305975615582 420.3031751308989 L 161.70894827492074 429.70091038778406 L 140.95131325696576 469.25127953362744 L 149.34674816686285 473.65754368337576 L 174.3041037025467 426.1052756390367 L 148.0027802738847 412.30127623240327 Z" fill-opacity="1"/></g></g><g><g><path fill="rgb(9,9,11)" stroke="none" paint-order="stroke fill markers" d=" M 106.13273234782477 389.9398830752607 L 121.26928303306259 403.34969683079674 L 91.64980429830709 436.78317691577263 L 98.74679509578124 443.0705621198335 L 134.35893785315727 402.8727626810151 L 112.12539637044529 383.17556372141814 Z" fill-opacity="1"/></g></g><g><g><path fill="rgb(9,9,11)" stroke="none" paint-order="stroke fill markers" d=" M 86.62245938753996 362.7713738698843 C 88.68432402382342 365.75850049423906 88.06118839920397 369.1588415473219 82.63559106109024 372.9038609887347 L 65.50533429693338 384.7280234947684 C 60.07973695881965 388.47304293618123 56.67939590573678 387.84990731156176 54.61753126945332 384.862780687207 C 52.55566663316987 381.8756540628523 53.178802257789314 378.4753130097694 58.60439959590305 374.7302935683566 L 75.7346563600599 362.9061310623229 C 81.16025369817363 359.1611116209101 84.5605947512565 359.78424724552957 86.62245938753996 362.7713738698843 Z M 93.32825385037717 358.1426981557786 C 87.47929090255266 349.6690124254661 78.94417024964639 349.1699040902132 70.34856098364597 355.1030247782942 L 53.21830421948913 366.9271872843279 C 44.62269495348872 372.8603079724088 42.06277385879163 381.0177706710003 47.911736806616126 389.49145640131275 C 53.76069975444062 397.9651421316252 62.2958204073469 398.4642504668781 70.89142967334732 392.53112977879715 L 88.02168643750416 380.70696727276345 C 96.61729570350457 374.77384658468253 99.17721679820166 366.61638388609106 93.32825385037717 358.1426981557786 Z" fill-opacity="1"/></g></g><g><g><path fill="rgb(9,9,11)" stroke="none" paint-order="stroke fill markers" d="" fill-opacity="1"/></g></g><g><g><path fill="rgb(9,9,11)" stroke="none" paint-order="stroke fill markers" d=" M 5.943363513626913 271.0527565363185 L 35.558108878144175 270.3669822658152 L 15.491171731736621 278.3999088872489 L 36.906333968407424 281.4706148575786 L 7.979094113494597 287.81850640997453 L 9.139817701138455 297.3779251975854 L 61.75552678715134 285.1690077631589 L 60.871591131945635 277.8891426864398 L 38.36024283132883 275.62310091988553 L 59.69301025833802 268.1826559174811 L 58.835860532077945 261.12339281278383 L 4.7915685689649266 261.56687173938155 Z" fill-opacity="1"/></g></g><g><g><path fill="rgb(9,9,11)" stroke="none" paint-order="stroke fill markers" d=" M 52.928901627748836 226.0712363998522 C 52.49139812163692 229.67440194287477 49.77013121099534 231.80637841671256 43.22560604101557 231.01172919132563 L 22.56255466164125 228.50278051341854 C 16.018029491661494 227.7081312880316 13.886053017823706 224.98686437739002 14.323556523935615 221.38369883436744 C 14.761060030047524 217.78053329134488 17.48232694068912 215.64855681750709 24.026852110668877 216.44320604289402 L 44.68990349004319 218.9521547208011 C 51.23442866002296 219.74680394618804 53.366405133860745 222.46807085682963 52.928901627748836 226.0712363998522 Z M 61.017640601881126 227.05338712785854 C 62.258721976361855 216.83216242418226 56.2010624767474 210.79874257498255 45.83276979172328 209.53980391453808 L 25.169718412348963 207.030855236631 C 14.801425727324848 205.77191657618653 7.475898924284053 210.18032340268485 6.234817549803324 220.4015481063611 C 4.993736175322596 230.62277281003736 11.051395674937048 236.6561926592371 21.419688359961164 237.91513131968156 L 42.08273973933548 240.42407999758865 C 52.451032424359596 241.68301865803312 59.7765592274004 237.2746118315348 61.017640601881126 227.05338712785854 Z" fill-opacity="1"/></g></g><g><g><path fill="rgb(9,9,11)" stroke="none" paint-order="stroke fill markers" d=" M 15.840762793670365 177.03956152807257 L 66.0545980489982 196.0831573136902 L 69.46931177607446 187.0792971989418 L 49.314517211522194 179.4355918560249 L 73.43563310521691 176.62096737334934 L 77.3494203770197 166.3011584725992 L 53.27129791707632 169.21131044636573 C 53.937271746994355 162.65076901874173 49.87457414030598 157.06965719901774 42.04814188671695 154.10148295932834 C 32.14389576049367 150.34529785954447 24.613950369389393 153.9065670794112 21.12043555630367 163.11820858142306 Z M 27.705252936125937 171.24027891104186 L 28.88726922626772 168.12355810209047 C 30.75222826182476 163.2060652701894 33.45561988313655 161.30010387735257 39.412019651354754 163.5590683429569 C 45.16063803230952 165.73923172255172 47.01171052571159 169.2140290540844 45.48822286286217 173.2311358745106 L 43.912201142673126 177.38676361977915 Z" fill-opacity="1"/></g></g><g><g><path fill="rgb(9,9,11)" stroke="none" paint-order="stroke fill markers" d=" M 93.73915339074745 124.04957565065573 L 82.25162184573963 140.6921382720608 L 45.491675835822974 115.31857958473583 L 40.105580459409055 123.12168586876459 L 84.30286214629061 153.62886671173405 L 101.17648906771234 129.18319780630026 Z" fill-opacity="1"/></g></g><g><g><path fill="rgb(9,9,11)" stroke="none" paint-order="stroke fill markers" d=" M 109.98415025270576 68.94356011309553 C 102.71436111051037 60.73766450351605 95.42008065946507 59.876649694570204 88.10130889956986 66.36051568625798 L 76.56869885367439 76.57751664285692 L 112.18084161105044 116.77531608167529 L 123.71345165694592 106.55831512507636 C 131.03222341684113 100.07444913338858 131.10583492259778 92.78501357336022 123.98340637112256 84.74545368559654 Z M 116.54257419530134 90.64472220542055 C 119.78450719114522 94.30410808536817 120.16037822095714 97.6327071073379 117.27722570948328 100.18695734648763 L 113.28516838590406 103.72361152377188 L 89.65835367376906 77.05445079263858 L 93.65041099734826 73.51779661535434 C 96.53356350882213 70.9635463762046 99.93994764082808 71.9042308808404 103.47660181811233 75.8962882044196 Z" fill-opacity="1"/></g></g><g><g><path fill="rgb(9,9,11)" stroke="none" paint-order="stroke fill markers" d="" fill-opacity="1"/></g></g><g><g><path fill="rgb(9,9,11)" stroke="none" paint-order="stroke fill markers" d="" fill-opacity="1"/></g></g></g></g></svg>