<svg version="1.1" xmlns="http://www.w3.org/2000/svg" xmlns:xlink="http://www.w3.org/1999/xlink" width="500" height="500" viewBox="0 0 500 500"><defs/><g><g><g><g><path fill="rgb(9,9,11)" stroke="none" paint-order="stroke fill markers" d=" M 262.57142857142856 12.857139466300843 L 254.44444444444446 12.857139466300843 L 254.44444444444446 31.269837878999258 L 245.55555555555554 31.269837878999258 L 245.55555555555554 12.857139466300843 L 237.42857142857144 12.857139466300843 L 237.42857142857144 58.888885498046875 L 245.55555555555554 58.888885498046875 L 245.55555555555554 39.015869625031 L 254.44444444444446 39.015869625031 L 254.44444444444446 58.888885498046875 L 262.57142857142856 58.888885498046875 Z" fill-opacity="1"/></g></g><g><g><path fill="rgb(9,9,11)" stroke="none" paint-order="stroke fill markers" d=" M 293.4928532572321 55.60219756587756 L 278.4520873503687 53.15783519090216 L 280.34646819097463 41.501241613083 L 294.13383693893275 43.74190712347711 L 295.32546359673324 36.409533743881184 L 281.53809484877513 34.168868233487075 L 283.3509969435485 23.013633519230034 L 298.39176285041196 25.457995894205425 L 299.6343137243578 17.812273224883178 L 276.57180600050054 14.064250916587575 L 269.187794659429 59.4998979269042 L 292.2503023832863 63.2479202351998 Z" fill-opacity="1"/></g></g><g><g><path fill="rgb(9,9,11)" stroke="none" paint-order="stroke fill markers" d=" M 325.07682529076084 65.41803682021111 L 308.63552696367697 59.92912492765225 L 320.7593872977905 23.613729721675824 L 313.05064669022005 21.040173962527348 L 298.47386602316817 64.70296256009436 L 322.62390495782245 72.7654302118017 Z" fill-opacity="1"/></g></g><g><g><path fill="rgb(9,9,11)" stroke="none" paint-order="stroke fill markers" d=" M 353.71362925817607 79.85149447279305 L 338.36572481352044 71.7962928240344 L 356.157983400339 37.8959764133115 L 348.96189633471295 34.11917857067008 L 327.56987730412675 74.87826546581785 L 350.1138688144085 86.71026495721792 Z" fill-opacity="1"/></g></g><g><g><path fill="rgb(9,9,11)" stroke="none" paint-order="stroke fill markers" d=" M 368.6227602452833 92.1417754362071 C 366.13560498136127 90.27279950302227 365.71928012596686 87.33907849272585 369.11395069848624 82.82159240111241 L 379.8319555398115 68.55851833658011 C 383.2266261123308 64.04103224496667 386.1603471226273 63.62470738957224 388.64750238654926 65.49368332275706 C 391.13465765047124 67.36265925594188 391.5509825058657 70.29638026623832 388.15631193334633 74.81386635785175 L 377.4383070920211 89.07694042238406 C 374.0436365195017 93.59442651399749 371.1099155092053 94.01075136939193 368.6227602452833 92.1417754362071 Z M 364.4270999871133 97.72518521235854 C 371.482499613341 103.02697408404609 378.5572921369794 101.11607943586691 383.9353657406337 93.95916326825461 L 394.6533705819589 79.69608920372232 C 400.03144418561317 72.53917303611001 399.89856227094697 65.21206241829319 392.84316264471926 59.91027354660562 C 385.78776301849155 54.60848467491807 378.71297049485315 56.519379323097255 373.33489689119887 63.67629549070955 L 362.6168920498737 77.93936955524185 C 357.2388184462194 85.09628572285415 357.37170036088554 92.42339634067098 364.4270999871133 97.72518521235854 Z" fill-opacity="1"/></g></g><g><g><path fill="rgb(9,9,11)" stroke="none" paint-order="stroke fill markers" d="" fill-opacity="1"/></g></g><g><g><path fill="rgb(9,9,11)" stroke="none" paint-order="stroke fill markers" d=" M 449.31252247231555 121.29658953644272 L 427.10921429782724 133.61363070654733 L 439.1394742455843 119.52359587986732 L 421.6630062498016 125.72343618274148 L 441.0891089958264 109.38291833493456 L 436.4003206101089 102.59003563232025 L 401.3302093384981 132.81477740500554 L 404.9009020322368 137.98781884776565 L 422.88880870317627 130.7406204026222 L 409.6618256238884 144.8852074381125 L 413.1243155087259 149.90149004927383 L 453.96524325506596 128.03721929519077 Z" fill-opacity="1"/></g></g><g><g><path fill="rgb(9,9,11)" stroke="none" paint-order="stroke fill markers" d=" M 428.3956126912856 165.35022927884754 C 427.06190250025384 162.539494593393 428.05663328221203 159.74833783984104 433.1618452619152 157.3258846357222 L 449.2805482540115 149.67746496878516 C 454.3857602337146 147.2550117646663 457.17691698726657 148.24974254662453 458.5106271782983 151.06047723207905 C 459.84433736933 153.87121191753357 458.8496065873718 156.66236867108555 453.7443946076687 159.08482187520437 L 437.62569161557235 166.7332415421414 C 432.52047963586926 169.15569474626025 429.72932288231726 168.16096396430206 428.3956126912856 165.35022927884754 Z M 422.08580013210195 168.3442725648371 C 425.86918210257966 176.31758116235096 433.0216367952249 177.913388004869 441.1096692574511 174.0755688837369 L 457.2283722495475 166.42714921679988 C 465.31640471177377 162.58933009566778 468.60382170795964 156.03974254360332 464.82043973748193 148.06643394608946 C 461.03705776700417 140.09312534857563 453.884603074359 138.49731850605758 445.7965706121327 142.33513762718968 L 429.67786762003635 149.9835572941267 C 421.58983515781006 153.8213764152588 418.3024181616242 160.37096396732326 422.08580013210195 168.3442725648371 Z" fill-opacity="1"/></g></g><g><g><path fill="rgb(9,9,11)" stroke="none" paint-order="stroke fill markers" d=" M 474.24709240997373 171.82565937062594 L 430.03276663646614 184.63249501122456 L 432.3291647513321 192.56058101199145 L 450.0758803376641 187.42018215486843 L 434.9965194847533 201.76935782826683 L 437.6285450164074 210.85616409068425 L 452.6292559915056 196.46366774124044 C 455.5510730368603 201.30211573680995 461.2088192823832 203.03452599126817 468.1001555753575 201.03842609142313 C 476.8210501762011 198.51238816507058 480.1470691050909 192.19474186490393 477.7976771875742 184.08370003335014 Z M 469.10328673950465 181.90882667919013 L 469.8981937792659 184.65316414099405 C 471.15238044200044 188.98311880295134 470.28133875146864 191.68118907141306 465.0366049355767 193.20034474740132 C 459.97482695047165 194.6665066207388 456.91715484238716 193.238605963568 455.8926079911393 189.7014599016874 L 454.83273193812425 186.04234328594885 Z" fill-opacity="1"/></g></g><g><g><path fill="rgb(9,9,11)" stroke="none" paint-order="stroke fill markers" d=" M 448.94553139192374 238.69927585375765 L 446.8562289341648 221.49232203605806 L 484.862797256776 216.87748913485424 L 483.88319756962164 208.80975987234308 L 438.18707479367947 214.3582737253659 L 441.25597693859277 239.63295680557667 Z" fill-opacity="1"/></g></g><g><g><path fill="rgb(9,9,11)" stroke="none" paint-order="stroke fill markers" d=" M 472.34007747788155 272.0499798970255 C 481.72928203212865 272.4283519056727 486.5926177725679 268.43046020337255 486.9300846991992 260.0563047901251 L 487.46185076540604 246.86066595712916 L 441.46743656385763 245.00715442828306 L 440.93567049765073 258.20279326127906 C 440.59820357101944 266.5769486745265 445.0606318135149 270.9506558178478 454.25951465382457 271.321358123617 Z M 455.03083930913925 263.21886096900147 C 450.84376160251554 263.0501275056858 448.5629312222296 261.3060796493995 448.6958727387813 258.00716994115055 L 448.87994560785296 253.4394488066519 L 479.3948604091561 254.66915783475534 L 479.2107875400845 259.23687896925395 C 479.0778460235328 262.5357886775029 476.4737524127577 264.08298082658763 471.9060312782591 263.89890795751603 Z" fill-opacity="1"/></g></g><g><g><path fill="rgb(9,9,11)" stroke="none" paint-order="stroke fill markers" d="" fill-opacity="1"/></g></g><g><g><path fill="rgb(9,9,11)" stroke="none" paint-order="stroke fill markers" d="" fill-opacity="1"/></g></g><g><g><path fill="rgb(9,9,11)" stroke="none" paint-order="stroke fill markers" d=" M 449.08602726257936 379.45860677156816 L 453.1495193260714 372.420432061447 L 437.20365474845323 363.2140828550978 L 441.64809919289763 355.5160792659028 L 457.59396377051587 364.722428472252 L 461.6574558340079 357.6842537621309 L 421.79279438996235 334.66838074625787 L 417.7293023264703 341.706555456379 L 434.9398389223134 351.6430633928869 L 430.495394477869 359.34106698208194 L 413.28485788202585 349.404559045574 L 409.2213658185338 356.44273375569514 Z" fill-opacity="1"/></g></g><g><g><path fill="rgb(9,9,11)" stroke="none" paint-order="stroke fill markers" d=" M 396.6070087192024 384.864817020893 L 406.2442715854176 373.061312840662 L 415.3919873250966 380.5301915619789 L 406.5578296977326 391.3500703938572 L 412.31203798559517 396.04823604113716 L 421.14619561295916 385.22835720925883 L 429.9004612132971 392.37599383503516 L 420.26319834708187 404.17949801526606 L 426.26331297203257 409.0784399722588 L 441.040449366896 390.9797335625714 L 405.38403048911505 361.8671686542128 L 390.60689409425163 379.9658750639002 Z" fill-opacity="1"/></g></g><g><g><path fill="rgb(9,9,11)" stroke="none" paint-order="stroke fill markers" d=" M 372.31425654872066 407.30941952717933 L 385.2884428503531 395.8152934510055 L 410.67656748014355 424.4725620952705 L 416.7597024494071 419.0833747775041 L 386.2350086573705 384.62811811565973 L 367.17768738647453 401.5114315096 Z" fill-opacity="1"/></g></g><g><g><path fill="rgb(9,9,11)" stroke="none" paint-order="stroke fill markers" d=" M 345.49611357343014 424.89289041986495 L 360.14607505618926 415.6288161003164 L 380.6084809707965 447.9875222325645 L 387.47732738029526 443.64392694720846 L 362.874932209333 404.7383515809068 L 341.3561243170751 418.3460211858114 Z" fill-opacity="1"/></g></g><g><g><path fill="rgb(9,9,11)" stroke="none" paint-order="stroke fill markers" d=" M 327.3978525459117 431.65943612134265 C 330.26001081507246 430.4399844462224 333.00885016530253 431.5462970503722 335.22377259562296 436.7449110494601 L 342.2169546509043 453.1585125521985 C 344.43187708122474 458.35712655128646 343.325564477075 461.1059659015165 340.46340620791415 462.32541757663677 C 337.6012479387534 463.544869251757 334.8524085885233 462.43855664760724 332.6374861582029 457.2399426485193 L 325.6443041029215 440.8263411457809 C 323.4293816726011 435.6277271466929 324.53569427675086 432.87888779646283 327.3978525459117 431.65943612134265 Z M 324.66030796911116 425.2341828640429 C 316.5411243076142 428.69344373836356 314.6586113550739 435.7758411144282 318.16764576715457 444.0118475624215 L 325.1608278224359 460.4254490651599 C 328.6698622345166 468.66145551315316 335.0817671232178 472.20993170825716 343.2009507847147 468.7506708339365 C 351.3201344462116 465.2914099596158 353.20264739875194 458.20901258355116 349.69361298667127 449.9730061355579 L 342.7004309313899 433.5594046328195 C 339.19139651930925 425.3233981848262 332.77949163060805 421.77492198972226 324.66030796911116 425.2341828640429 Z" fill-opacity="1"/></g></g><g><g><path fill="rgb(9,9,11)" stroke="none" paint-order="stroke fill markers" d="" fill-opacity="1"/></g></g><g><g><path fill="rgb(9,9,11)" stroke="none" paint-order="stroke fill markers" d=" M 261.80416177897877 486.9614129851607 L 262.23894531345354 461.5742634729468 L 268.42614343968734 479.0377916151749 L 271.7951582358831 460.80280621096426 L 276.2334104300645 485.7965636094519 L 284.4606136083151 485.13239510575823 L 275.82027504615036 439.64841694465366 L 269.55494339502104 440.15420680515876 L 266.8372480193126 459.3557901656677 L 261.20116786018195 440.8285932858323 L 255.12569474393533 441.31905618086756 L 253.6402447790224 487.6204725003643 Z" fill-opacity="1"/></g></g><g><g><path fill="rgb(9,9,11)" stroke="none" paint-order="stroke fill markers" d=" M 234.11104552340353 446.82001787491913 C 237.21206825982108 447.07035831092674 239.13191552336247 449.3273988148049 238.67721554775684 454.95986868299184 L 237.24158978208067 472.74328478367204 C 236.78688980647505 478.375754651859 234.5298493025969 480.2956019154004 231.42882656617937 480.0452614793928 C 228.32780382976182 479.7949210433852 226.4079565662204 477.53788053950706 226.86265654182603 471.9054106713201 L 228.2982823075022 454.1219945706399 C 228.75298228310783 448.48952470245297 231.01002278698599 446.5696774389116 234.11104552340353 446.82001787491913 Z M 234.67303425729813 439.8585382625532 C 225.8762554743994 439.1483888624501 220.91801886292313 444.544692904439 220.19765148584005 453.4680440439262 L 218.76202572016388 471.2514601446064 C 218.04165834308083 480.1748112840936 222.07005904938603 486.2965916916556 230.86683783228477 487.0067410917587 C 239.6636166151835 487.7168904918619 244.62185322665977 482.32058644987296 245.34222060374282 473.3972353103858 L 246.777846369419 455.6138192097056 C 247.49821374650207 446.69046807021834 243.46981304019687 440.56868766265643 234.67303425729813 439.8585382625532 Z" fill-opacity="1"/></g></g><g><g><path fill="rgb(9,9,11)" stroke="none" paint-order="stroke fill markers" d=" M 205.57741870414907 483.2908490665209 L 216.59353658405252 438.59670191516295 L 208.57941364656762 436.62139801945614 L 204.15777184925466 454.5607039795184 L 199.27070161918135 434.32700657136587 L 190.0852837908333 432.06300441397883 L 195.0491957657773 452.2502493679638 C 189.39806836404688 452.3613931566666 185.06888395114797 456.3949400062264 183.35188902641818 463.3610622518864 C 181.17905474114067 472.17659748311974 184.98728746476485 478.2158375190895 193.18635170080708 480.2367253508511 Z M 199.41704249955828 473.79459902948213 L 196.64292302119813 473.11083998866053 C 192.265978955341 472.03202016869756 190.36490240692356 469.92864080271085 191.67164190716036 464.626990244067 C 192.93279747134244 459.5102809839805 195.69823176857506 457.5762095905216 199.27376354068372 458.4574990209139 L 202.97258951183056 459.36917774200936 Z" fill-opacity="1"/></g></g><g><g><path fill="rgb(9,9,11)" stroke="none" paint-order="stroke fill markers" d=" M 160.31394849584422 427.9422462279216 L 176.26025885259716 434.73633413216294 L 161.2535372179543 469.95840426081503 L 168.73019555372125 473.14391067745566 L 186.7731029917247 430.79565057252563 L 163.3501342992048 420.8160562516437 Z" fill-opacity="1"/></g></g><g><g><path fill="rgb(9,9,11)" stroke="none" paint-order="stroke fill markers" d=" M 119.73411851729904 431.52716542673306 C 114.71183646860605 439.46926908771604 115.74244437415737 445.6799872372193 122.82594223395299 450.1593198752427 L 133.9878176493885 457.21766221394637 L 158.59021282035076 418.3120868476447 L 147.42833740491523 411.25374450894105 C 140.3448395451196 406.77441187091756 134.32588392904216 408.4521345198231 129.4054048948497 416.2332495930834 Z M 136.03671093718057 420.952484916459 C 138.27637725619232 417.4107359865612 140.927182195295 416.30750286365344 143.7176510491539 418.07208844832934 L 147.58137715449695 420.5153607963421 L 131.25896049624475 446.3271976945368 L 127.39523439090168 443.88392534652394 C 124.6047655370428 442.11933976184804 124.56690463678714 439.09053246654173 127.01017698479995 435.22680636119867 Z" fill-opacity="1"/></g></g><g><g><path fill="rgb(9,9,11)" stroke="none" paint-order="stroke fill markers" d="" fill-opacity="1"/></g></g><g><g><path fill="rgb(9,9,11)" stroke="none" paint-order="stroke fill markers" d="" fill-opacity="1"/></g></g><g><g><path fill="rgb(9,9,11)" stroke="none" paint-order="stroke fill markers" d=" M 38.342544165992145 357.68425376213105 L 42.406036229484215 364.7224284722522 L 58.35190080710244 355.516079265903 L 62.796345251546896 363.214082855098 L 46.85048067392866 372.42043206144723 L 50.91397273742073 379.4586067715684 L 90.7786341814663 356.4427337556953 L 86.71514211797424 349.40455904557416 L 69.50460552213111 359.3410669820821 L 65.06016107768666 351.64306339288714 L 82.27069767352978 341.7065554563792 L 78.20720561003772 334.66838074625804 Z" fill-opacity="1"/></g></g><g><g><path fill="rgb(9,9,11)" stroke="none" paint-order="stroke fill markers" d=" M 59.900138023565546 309.5329854132295 L 65.3036410642137 323.7808519684358 L 54.261544483928816 327.96856682493814 L 49.30833336333467 314.9080224826657 L 42.36249841767158 317.54223021498166 L 47.315709538265736 330.6027745572541 L 36.74854184315438 334.61037264573486 L 31.34503880250621 320.36250609052854 L 24.102373303609667 323.10928680285804 L 32.38774463260352 344.95601552084105 L 75.42817485145595 328.63293341888306 L 67.14280352246209 306.7862047009 Z" fill-opacity="1"/></g></g><g><g><path fill="rgb(9,9,11)" stroke="none" paint-order="stroke fill markers" d=" M 52.60891816051852 277.27254365260956 L 56.076030185969955 294.25558162134223 L 18.564045222065992 301.91370818305364 L 20.189650860372893 309.8764512599686 L 65.2911253194614 300.66891932424585 L 60.198407655703065 275.7231382785983 Z" fill-opacity="1"/></g></g><g><g><path fill="rgb(9,9,11)" stroke="none" paint-order="stroke fill markers" d=" M 50.790257168393794 245.25561510734198 L 51.488200130290316 262.5748910756492 L 13.233535628864509 264.11650135412395 L 13.560776284991817 272.23689448212144 L 59.55519048654026 270.3833829532754 L 58.53000686851642 244.94371385697065 Z" fill-opacity="1"/></g></g><g><g><path fill="rgb(9,9,11)" stroke="none" paint-order="stroke fill markers" d=" M 53.97938720880498 226.19878844245042 C 53.6043842035662 229.2872160507555 51.27186970873055 231.11462445690216 45.662276705890754 230.43349654942764 L 27.951089809284206 228.28296911122158 C 22.34149680644441 227.60184120374706 20.514088400297723 225.2693267089114 20.889091405536504 222.18089910060635 C 21.264094410775286 219.09247149230129 23.596608905610935 217.2650630861546 29.206201908450733 217.94619099362913 L 46.917388805057286 220.0967184318352 C 52.52698180789708 220.77784633930972 54.35439021404376 223.11036083414535 53.97938720880498 226.19878844245042 Z M 60.91259204377551 227.0406319235987 C 61.976376079044705 218.2795821775905 56.78409650794661 213.108079449705 47.89698849221165 212.02898916932403 L 30.1858015956051 209.87846173111797 C 21.29869357987014 208.79937145073697 15.019670605835167 212.57800587344985 13.955886570565973 221.33905561945807 C 12.892102535296779 230.10010536546628 18.084382106394877 235.27160809335174 26.971490122129836 236.35069837373274 L 44.682677018736385 238.5012258119388 C 53.56978503447135 239.58031609231978 59.84880800850632 235.80168166960692 60.91259204377551 227.0406319235987 Z" fill-opacity="1"/></g></g><g><g><path fill="rgb(9,9,11)" stroke="none" paint-order="stroke fill markers" d="" fill-opacity="1"/></g></g><g><g><path fill="rgb(9,9,11)" stroke="none" paint-order="stroke fill markers" d=" M 38.88331574870567 141.74199747839666 L 60.6518403887192 154.81210582050588 L 42.43438231472828 151.43861250495777 L 56.54183551431532 163.4737576062943 L 32.677480574109076 154.8205180556136 L 29.139065781575937 162.27756926192154 L 72.84951561535152 177.53680565034085 L 75.54415457274214 171.85797434707558 L 60.27394327751107 159.90358943171015 L 79.13700651592964 164.28619927605524 L 81.74998974733873 158.77945376985863 L 42.39451196591163 134.34230820444495 Z" fill-opacity="1"/></g></g><g><g><path fill="rgb(9,9,11)" stroke="none" paint-order="stroke fill markers" d=" M 87.49334178531097 137.8297528462334 C 85.72602923992515 140.3901470956803 82.81145119442554 140.92426334535412 78.16093919032807 137.714246681286 L 63.477861963907905 127.57925024754286 C 58.82734995981042 124.36923358347474 58.2932337101366 121.45465553797513 60.06054625552242 118.8942612885282 C 61.82785880090823 116.33386703908127 64.74243684640786 115.79975078940745 69.39294885050533 119.00976745347558 L 84.07602607692549 129.14476388721872 C 88.72653808102298 132.35478055128684 89.2606543306968 135.26935859678645 87.49334178531097 137.8297528462334 Z M 93.2411656106 141.7971891726097 C 98.25456242302099 134.53402997519902 96.06034434185206 127.54191909069206 88.69267925670884 122.45638707233695 L 74.00960203028869 112.32139063859378 C 66.64193694514549 107.23585862023869 59.326119242654386 107.6636657647412 54.31272243023339 114.92682496215187 C 49.2993256178124 122.18998415956256 51.493543698981334 129.1820950440695 58.86120878412454 134.26762706242462 L 73.54428601054471 144.4026234961678 C 80.91195109568791 149.4881555145229 88.22776879817901 149.0603483700204 93.2411656106 141.7971891726097 Z" fill-opacity="1"/></g></g><g><g><path fill="rgb(9,9,11)" stroke="none" paint-order="stroke fill markers" d=" M 70.17548888587723 94.88349156285318 L 103.37369677948139 126.77080307361251 L 109.09142160210031 120.81802096855246 L 95.76634781308125 108.0191138656132 L 115.73277889606535 113.90363560036732 L 122.28617119275934 107.08083149533694 L 102.3215482427171 101.28608289079574 C 105.05085859909283 96.33649110652343 103.72229676646883 90.57053400250544 98.54795539822432 85.60051165669054 C 91.99989508265826 79.31101435180975 84.86564343014427 79.58942061600658 79.01597111161877 85.67957461579878 Z M 81.47967076093713 94.2965742913278 L 83.45888319953598 92.23599587034548 C 86.58164060265861 88.98486102835113 89.35375884160786 88.39017012587614 93.29175315726297 92.17266500853174 C 97.09237557818592 95.82321239528073 97.38461338903778 99.18518444591041 94.83362846817703 101.84104107739874 L 92.19467855004523 104.58847897204186 Z" fill-opacity="1"/></g></g><g><g><path fill="rgb(9,9,11)" stroke="none" paint-order="stroke fill markers" d=" M 140.74052011223196 83.35847791832079 L 126.88351221323795 93.77134383177909 L 103.88366552526959 63.16410660433078 L 97.38660687665701 68.04632945020134 L 125.03982221459576 104.84607570210852 L 145.39388876220235 89.55098694277964 Z" fill-opacity="1"/></g></g><g><g><path fill="rgb(9,9,11)" stroke="none" paint-order="stroke fill markers" d=" M 157.92580400481938 46.42285467624158 C 153.55888149926523 38.102379006611415 147.6649378532747 35.88955255940832 140.24397306684781 39.784375334632294 L 128.5503315852054 45.92167182892461 L 149.9423506157916 86.68075872407235 L 161.635992097434 80.54346222978003 C 169.0569568838609 76.64863945455606 170.6134842574429 70.59720966232919 166.33508045132567 62.445392283299654 Z M 158.93244975368015 65.82865411453965 C 160.8798611412921 69.5391365077531 160.50988658247536 72.38641748694718 157.58647621206475 73.92074161052025 L 153.5386772376501 76.04519039700605 L 139.3461790945991 49.00364447070804 L 143.39397806901377 46.87919568422224 C 146.31738843942438 45.34487156064916 148.95934295045512 46.82648670687077 151.08379173694092 50.87428568128544 Z" fill-opacity="1"/></g></g><g><g><path fill="rgb(9,9,11)" stroke="none" paint-order="stroke fill markers" d="" fill-opacity="1"/></g></g><g><g><path fill="rgb(9,9,11)" stroke="none" paint-order="stroke fill markers" d="" fill-opacity="1"/></g></g></g></g></svg>