<svg version="1.1" xmlns="http://www.w3.org/2000/svg" xmlns:xlink="http://www.w3.org/1999/xlink" width="200" height="200" viewBox="0 0 200 200"><defs/><g><g/><g><g><g><path fill="rgb(0,0,0)" stroke="none" paint-order="stroke fill markers" d=" M 107.05555555555556 13.733335876464842 L 107.05555555555556 13.733335876464842 Q 107.05555555555556 17.60000254313151 106.08888888888889 19.522224765353734 Q 105.12222222222222 21.444446987575954 102.94444444444444 21.444446987575954 L 102.94444444444444 21.444446987575954 Q 101.67777777777778 21.444446987575954 101 20.833335876464844 Q 100.32222222222222 20.222224765353733 100.32222222222222 19.111113654242622 L 100.32222222222222 19.111113654242622 Q 100.32222222222222 18.577780320909287 100.45555555555555 18.077780320909287 Q 100.58888888888889 17.577780320909287 100.74444444444444 17.111113654242622 Q 100.9 16.644446987575954 101.03333333333333 16.22222476535373 Q 101.16666666666667 15.800002543131509 101.16666666666667 15.444446987575954 L 101.16666666666667 15.444446987575954 Q 101.16666666666667 14.866669209798175 100.83333333333333 14.577780320909287 Q 100.5 14.288891432020398 100.1 14.288891432020398 L 100.1 14.288891432020398 Q 99.7 14.288891432020398 99.36666666666666 14.588891432020398 Q 99.03333333333333 14.888891432020397 99.03333333333333 15.466669209798177 L 99.03333333333333 15.466669209798177 Q 99.03333333333333 15.822224765353731 99.16666666666667 16.244446987575955 Q 99.3 16.666669209798176 99.45555555555555 17.13333587646484 Q 99.61111111111111 17.60000254313151 99.74444444444444 18.10000254313151 Q 99.87777777777778 18.60000254313151 99.87777777777778 19.111113654242622 L 99.87777777777778 19.111113654242622 Q 99.87777777777778 20.222224765353733 99.17777777777778 20.833335876464844 Q 98.47777777777777 21.444446987575954 97.21111111111111 21.444446987575954 L 97.21111111111111 21.444446987575954 Q 94.98888888888888 21.444446987575954 93.96666666666667 19.4888914320204 Q 92.94444444444444 17.533335876464843 92.94444444444444 13.733335876464842 L 92.94444444444444 13.733335876464842 Q 92.94444444444444 9.91111365424262 93.96666666666667 7.955558098687064 Q 94.98888888888888 6.000002543131508 97.21111111111111 6.000002543131508 L 97.21111111111111 6.000002543131508 Q 98.47777777777777 6.000002543131508 99.17777777777778 6.611113654242619 Q 99.87777777777778 7.2222247653537295 99.87777777777778 8.333335876464842 L 99.87777777777778 8.333335876464842 Q 99.87777777777778 8.844446987575953 99.74444444444444 9.344446987575953 Q 99.61111111111111 9.844446987575953 99.45555555555555 10.31111365424262 Q 99.3 10.777780320909287 99.16666666666667 11.188891432020398 Q 99.03333333333333 11.600002543131508 99.03333333333333 11.977780320909286 L 99.03333333333333 11.977780320909286 Q 99.03333333333333 12.555558098687063 99.36666666666666 12.855558098687064 Q 99.7 13.155558098687065 100.1 13.155558098687065 L 100.1 13.155558098687065 Q 100.5 13.155558098687065 100.83333333333333 12.866669209798175 Q 101.16666666666667 12.577780320909287 101.16666666666667 12.000002543131508 L 101.16666666666667 12.000002543131508 Q 101.16666666666667 11.622224765353732 101.03333333333333 11.21111365424262 Q 100.9 10.800002543131509 100.74444444444444 10.333335876464842 Q 100.58888888888889 9.866669209798175 100.45555555555555 9.366669209798175 Q 100.32222222222222 8.866669209798175 100.32222222222222 8.333335876464842 L 100.32222222222222 8.333335876464842 Q 100.32222222222222 7.2222247653537295 101 6.611113654242619 Q 101.67777777777778 6.000002543131508 102.94444444444444 6.000002543131508 L 102.94444444444444 6.000002543131508 Q 105.12222222222222 6.000002543131508 106.08888888888889 7.9222247653537305 Q 107.05555555555556 9.844446987575953 107.05555555555556 13.733335876464842 Z" fill-opacity="1"/></g></g><g><g><path fill="rgb(0,0,0)" stroke="none" paint-order="stroke fill markers" d=" M 118.86217224716933 19.539318616727247 L 118.86217224716933 19.539318616727247 Q 118.5556084659745 21.425681340879702 117.13574864153338 22.19679440839228 Q 115.71588881709226 22.967907475904855 113.28116483591874 22.572226316455712 L 113.28116483591874 22.572226316455712 Q 110.07873509491574 22.051780827450536 108.87387729404742 19.976072612583373 Q 107.6690194931791 17.90036439771621 108.30353522634981 13.996032247726243 L 108.30353522634981 13.996032247726243 Q 108.94161565465068 10.069765647455434 110.75987415765856 8.440334112425298 Q 112.57813266066643 6.8109025773951615 115.71475905082691 7.320653981009823 L 115.71475905082691 7.320653981009823 Q 118.1275485817196 7.7127704453287915 119.25592282473627 8.943039396068142 Q 120.38429706775297 10.173308346807495 120.07416859142796 12.081605521240792 L 120.07416859142796 12.081605521240792 Q 119.84246340796675 13.507344789495557 119.00482944428333 14.15919795759444 Q 118.16719548059991 14.811051125693321 116.85112846374936 14.597169417882975 L 116.85112846374936 14.597169417882975 Q 116.19309495532409 14.490228563977801 115.62938235878272 14.218506193216406 Q 115.06566976224136 13.946783822455009 114.49455463568974 13.651344653847683 Q 113.92343950913812 13.35590548524036 113.31585801203506 13.077053724218619 Q 112.70827651493201 12.798201963196878 111.96250520538337 12.677002328771014 L 111.96250520538337 12.677002328771014 Q 110.95352049246462 12.513026352783081 110.43202407960409 12.74346771141617 Q 109.91052766674356 12.973909070049254 109.86062193492114 13.28099137398105 L 109.86062193492114 13.28099137398105 Q 109.82141028848925 13.52227032707032 110.02498680296179 13.724208003043449 Q 110.22856331743435 13.926145679016578 110.6672523230512 13.997439581620027 L 110.6672523230512 13.997439581620027 Q 111.01820352754469 14.054474703702788 111.40891265796986 14.005402269511505 Q 111.79962178839506 13.956329835320224 112.1938956139504 13.885322950848101 Q 112.58816943950576 13.814316066375977 113.0008130202118 13.76880832731487 Q 113.41345660091783 13.72330058825376 113.83021115625382 13.791029795727038 L 113.83021115625382 13.791029795727038 Q 114.53211356524079 13.905100039892556 114.84056156792211 14.292934263753038 Q 115.14900957060343 14.680768487613522 115.08128036313015 15.097523042949529 L 115.08128036313015 15.097523042949529 Q 115.01711585078704 15.492343148004695 114.60172699420055 15.762542432569486 Q 114.18633813761406 16.03274171713428 113.4844357286271 15.91867147296876 L 113.4844357286271 15.91867147296876 Q 113.08961562357193 15.854506960625656 112.71261899416763 15.680670196878339 Q 112.33562236476332 15.506833433131025 111.97137530806454 15.323811791808371 Q 111.60712825136574 15.14079015048572 111.2630332973827 14.972300429433663 Q 110.91893834339966 14.803810708381604 110.56798713890618 14.746775586298845 L 110.56798713890618 14.746775586298845 Q 110.12929813328932 14.675481683695395 109.8722511918642 14.802560761934902 Q 109.61520425043905 14.929639840174412 109.57599260400715 15.170918793263679 L 109.57599260400715 15.170918793263679 Q 109.52608687218473 15.478001097195474 109.9385869438251 15.848974773720471 Q 110.35108701546547 16.219948450245464 111.36007172838423 16.3839244262334 L 111.36007172838423 16.3839244262334 Q 112.10584303793287 16.505124060659263 112.7686773095536 16.443991842327943 Q 113.43151158117432 16.382859623996627 114.06857356763413 16.272511462408364 Q 114.70563555409393 16.162163300820104 115.32460092515298 16.093901692228442 Q 115.94356629621203 16.025640083636777 116.60159980463729 16.132580937541952 L 116.60159980463729 16.132580937541952 Q 117.91766682148784 16.346462645352297 118.5057721260592 17.23002099691239 Q 119.09387743063054 18.113579348472484 118.86217224716933 19.539318616727247 Z" fill-opacity="1"/></g></g><g><g><path fill="rgb(0,0,0)" stroke="none" paint-order="stroke fill markers" d=" M 130.52890645348367 19.151208049084353 L 130.52890645348367 19.151208049084353 Q 131.8990146474073 19.608617373464256 132.33423657659847 20.620748310075214 Q 132.7694585057896 21.632879246686166 132.32612331446754 22.96083026541217 L 132.32612331446754 22.96083026541217 Q 131.94612172190577 24.099073995748746 131.19037083977534 24.78388350280103 Q 130.43461995764488 25.46869300985331 129.4366120720737 25.756348519858705 Q 128.4386041865025 26.044004029864094 127.24751723322312 25.962637502944315 Q 126.05643027994375 25.881270976024535 124.81279361161306 25.46608405081816 L 124.81279361161306 25.46608405081816 Q 123.21082095410232 24.931266994620117 122.26252910206472 24.08755278087816 Q 121.31423725002712 23.2438385671362 120.93881408033785 22.08767605059793 Q 120.56339091064856 20.931513534059658 120.72921854190938 19.452347114931687 Q 120.89504617317019 17.97318069580372 121.50023389465744 16.160422162304727 L 121.50023389465744 16.160422162304727 Q 122.10542161614471 14.347663628805739 122.84739187310875 13.072555833022525 Q 123.5893621300728 11.797448037239313 124.5348529125806 11.105699299621929 Q 125.48034369508841 10.413950562004542 126.65395212400327 10.302058655282492 Q 127.82756055291811 10.190166748560443 129.30306168483588 10.682761405584957 L 129.30306168483588 10.682761405584957 Q 130.08296942599245 10.943132867155056 130.82415699524594 11.354572975181394 Q 131.56534456449944 11.766013083207733 132.081590594737 12.324921774456 Q 132.59783662497455 12.88383046570427 132.8188519808768 13.625311542849227 Q 133.03986733677905 14.366792619994186 132.75835206363425 15.280208953272602 L 132.75835206363425 15.280208953272602 Q 132.49791537808827 16.20066235307994 131.89329836638996 16.783646373384464 Q 131.28868135469162 17.36663039368899 130.53307722650692 17.73521216877698 Q 129.7774730983222 18.10379394386497 128.95517989805242 18.321258154514815 Q 128.13288669778268 18.53872236516466 127.41600274150099 18.75623549379641 Q 126.69911878521933 18.97374862242816 126.17546065059155 19.244056056020796 Q 125.65180251596377 19.51436348961343 125.49698705232748 19.97809241678759 L 125.49698705232748 19.97809241678759 Q 125.37735692133582 20.336428405967624 125.50369799897702 20.659742122442744 Q 125.6300390766182 20.983055838917863 125.96729647819942 21.09564890338061 L 125.96729647819942 21.09564890338061 Q 126.26239670458297 21.194167834785514 126.50843313719172 21.018599903429806 Q 126.75446956980045 20.8430319720741 127.00759198692002 20.540976209131472 Q 127.2607144040396 20.23892044618884 127.56304736887971 19.89472381404253 Q 127.86538033371983 19.550527181896218 128.26605286403117 19.29773088465604 Q 128.66672539434254 19.044934587415863 129.21840134713423 18.97140412072952 Q 129.77007729992596 18.897873654043174 130.52890645348367 19.151208049084353 Z" fill-opacity="1"/></g></g><g><g><path fill="rgb(0,0,0)" stroke="none" paint-order="stroke fill markers" d=" M 143.10262340560828 25.095359658280792 L 143.10262340560828 25.095359658280792 Q 144.3816154426629 25.766626462344014 144.64884414223928 26.835465076268747 Q 144.91607284181566 27.904303690193483 144.26546040095437 29.14394212610798 L 144.26546040095437 29.14394212610798 Q 143.70779259450185 30.206489356891833 142.85197731763634 30.7611997936728 Q 141.99616204077083 31.31591023045377 140.9649349063973 31.439748953923214 Q 139.93370777202378 31.563587677392658 138.77109719076694 31.292211041838044 Q 137.60848660951012 31.02083440628343 136.4475553758759 30.411530691826044 L 136.4475553758759 30.411530691826044 Q 134.9521185325505 29.626664890152124 134.15144808864363 28.641759843274457 Q 133.35077764473675 27.656854796396786 133.16567761665223 26.455442169282037 Q 132.9805775885677 25.254029542167288 133.3815327754504 23.820618562413998 Q 133.78248796233314 22.387207582660707 134.67062558001678 20.695002733634574 L 134.67062558001678 20.695002733634574 Q 135.55876319770042 19.00279788460844 136.4956668094596 17.863222799166934 Q 137.4325704212188 16.723647713725427 138.47678164744778 16.192524328042026 Q 139.5209928736768 15.661400942358624 140.69735210574618 15.739218037749263 Q 141.87371133781554 15.817035133139902 143.25108737772052 16.539937845207987 L 143.25108737772052 16.539937845207987 Q 143.97912899881317 16.922043564443975 144.64471874898402 17.447050478470945 Q 145.3103084991549 17.97205739249792 145.730214019841 18.606540049933276 Q 146.15011954052707 19.241022707368632 146.2493308763008 20.008355155635115 Q 146.3485422120745 20.775687603901602 145.92415020380275 21.632117210015643 L 145.92415020380275 21.632117210015643 Q 145.51943499610107 22.498873997730655 144.82913040249224 22.977321138811025 Q 144.1388258088834 23.455768279891394 143.3338818810657 23.69836959177202 Q 142.528937953248 23.94097090365265 141.6824095213853 24.023713904393027 Q 140.8358810895226 24.1064569051334 140.09338903262665 24.206157022223042 Q 139.35089697573073 24.305857139312685 138.79065971476592 24.488663490526047 Q 138.23042245380114 24.67146984173941 138.00322445857972 25.10435945428098 L 138.00322445857972 25.10435945428098 Q 137.8276623713632 25.43886506397219 137.90050419785223 25.77825848682277 Q 137.97334602434128 26.117651909673356 138.28817483346242 26.28288681528892 L 138.28817483346242 26.28288681528892 Q 138.56365004144342 26.427467357702536 138.8346634436147 26.29364000423953 Q 139.10567684578595 26.159812650776527 139.40397454590746 25.902272121776672 Q 139.70227224602897 25.644731592776818 140.05590310100803 25.353489834753244 Q 140.4095339559871 25.06224807672967 140.8455692600991 24.876997818936623 Q 141.2816045642111 24.691747561143575 141.83793157464842 24.707664340894677 Q 142.3942585850857 24.723581120645775 143.10262340560828 25.095359658280792 Z" fill-opacity="1"/></g></g><g><g><path fill="rgb(0,0,0)" stroke="none" paint-order="stroke fill markers" d=" M 147.1916407851502 37.19933161905749 L 147.1916407851502 37.19933161905749 Q 146.0191247321584 36.31824296484179 145.34455537270006 35.25539418100439 Q 144.6699860132417 34.192545397166995 144.57335918773202 32.95245517850583 Q 144.47673236222238 31.71236495984467 144.995838207545 30.281735042340472 Q 145.5149440528676 28.851105124836273 146.71642858134356 27.25221959802927 L 146.71642858134356 27.25221959802927 Q 147.91791310981952 25.653334071222268 149.15430965888123 24.74781458011401 Q 150.39070620794294 23.842295089005756 151.6309511188288 23.579001668618503 Q 152.87119602971467 23.315708248231253 154.08422564366316 23.643500933587262 Q 155.29725525761162 23.97129361894327 156.46977131060342 24.852382273158973 L 156.46977131060342 24.852382273158973 Q 157.64228736359524 25.733470927374675 158.29462419758826 26.80741019190728 Q 158.94696103158128 27.881349456439892 159.0391207263679 29.145879983890445 Q 159.13128042115454 30.41041051134099 158.60549966178485 31.84992312621634 Q 158.07971890241515 33.28943574109169 156.8782343739392 34.88832126789869 L 156.8782343739392 34.88832126789869 Q 155.67674984546323 36.48720679470569 154.44702821044862 37.3838435884428 Q 153.217306575434 38.2804803821799 151.99929419001344 38.53268332187194 Q 150.7812818045929 38.78488626156398 149.57271932136746 38.43265326741859 Q 148.364156838142 38.08042027327319 147.1916407851502 37.19933161905749 Z M 147.7256339089173 36.48871582936549 L 147.7256339089173 36.48871582936549 Q 148.3474227248978 36.955959812661696 149.06317597828658 36.74329071650314 Q 149.77892923167536 36.53062162034458 150.25952304306574 35.89106740962178 L 150.25952304306574 35.89106740962178 Q 150.74011685445615 35.251513198898984 150.7519292322 34.49596828160219 Q 150.76374160994388 33.74042336430539 150.14195279396338 33.273179381009186 L 150.14195279396338 33.273179381009186 Q 149.5201639779829 32.80593539771298 148.78885311317586 33.020812277195596 Q 148.05754224836883 33.23568915667821 147.57694843697845 33.87524336740101 L 147.57694843697845 33.87524336740101 Q 147.09635462558808 34.51479757812381 147.10009985926243 35.26813471209655 Q 147.10384509293678 36.02147184606928 147.7256339089173 36.48871582936549 Z" fill-opacity="1"/></g></g><g><g><path fill="rgb(0,0,0)" stroke="none" paint-order="stroke fill markers" d="" fill-opacity="1"/></g></g><g><g><path fill="rgb(0,0,0)" stroke="none" paint-order="stroke fill markers" d=" M 179.790536050953 50.12245734492423 L 179.790536050953 50.12245734492423 Q 180.8509235781845 51.65869389459239 179.98050625753268 53.48809124770178 Q 179.11008893688089 55.317488600811174 176.45825203566798 57.14791945138934 L 176.45825203566798 57.14791945138934 Q 169.28914813721659 62.096394578469635 164.68151185817499 55.42108099955443 L 164.68151185817499 55.42108099955443 Q 160.01075727394104 48.654324768873245 167.14328411168606 43.731096963869895 L 167.14328411168606 43.731096963869895 Q 168.44176976676272 42.83481703013852 169.62655566417973 42.34104254570326 Q 170.81134156159675 41.84726806126801 171.83039454495187 41.77841391354846 Q 172.84944752830702 41.709559765828914 173.65639931051282 42.05712865085298 Q 174.4633510927186 42.40469753587705 174.99354485633435 43.17281581071113 L 174.99354485633435 43.17281581071113 Q 175.7762118407195 44.30670469260906 175.4035534151444 45.46849971461445 Q 175.03089498956928 46.630294736619845 173.56781256131387 47.64018761969746 L 173.56781256131387 47.64018761969746 Q 173.33006166672237 47.80429521319757 172.75138511577876 48.041714709636345 Q 172.17270856483515 48.27913420607512 171.5265427617935 48.53613615527611 Q 170.88037695875184 48.7931381044771 170.27426761227844 49.04949309247358 Q 169.66815826580503 49.305848080470064 169.35725324980078 49.520450318124055 L 169.35725324980078 49.520450318124055 Q 168.90003999097095 49.83604184408581 168.8320615591943 50.20698814078576 Q 168.76408312741762 50.57793443748571 168.95343804299466 50.852262392783594 L 168.95343804299466 50.852262392783594 Q 169.1554166196102 51.144878878434675 169.56358693822105 51.227666444702656 Q 169.9717572568319 51.310454010970645 170.4472590460149 50.98223882397042 L 170.4472590460149 50.98223882397042 Q 170.73987553166597 50.780260247354896 170.98766224247788 50.474215357934945 Q 171.23544895328982 50.16817046851499 171.50718906376966 49.818589726664904 Q 171.77892917424947 49.46900898481481 172.09987000647416 49.11246945124098 Q 172.42081083869886 48.755929917667146 172.85973556717548 48.452962052743864 L 172.85973556717548 48.452962052743864 Q 173.5364111902436 47.98588659432047 174.08457792116076 47.9585406071041 Q 174.6327446520779 47.93119461988773 174.91046519492423 48.333542287657956 L 174.91046519492423 48.333542287657956 Q 175.20080939880904 48.75417848578138 174.9900021200687 49.25071443166152 Q 174.77919484132838 49.74725037754166 174.12080774861346 50.20170217492658 L 174.12080774861346 50.20170217492658 Q 173.68188302013684 50.50467003984987 173.22556131235086 50.68463610041101 Q 172.76923960456486 50.86460216097216 172.34318312696604 51.010176634279766 Q 171.9171266493672 51.15575110758738 171.5431033281706 51.27891069347541 Q 171.16908000697396 51.402070279363436 170.87646352132288 51.60404885597896 L 170.87646352132288 51.60404885597896 Q 170.40096173213988 51.932264042979185 170.3273184310485 52.3341225310708 Q 170.2536751299571 52.73598101916241 170.45565370657263 53.02859750481349 L 170.45565370657263 53.02859750481349 Q 170.64500862214967 53.302925460111375 171.01595491884962 53.37090389188804 Q 171.38690121554959 53.43888232366471 171.84411447437938 53.12329079770295 L 171.84411447437938 53.12329079770295 Q 172.15501949038367 52.90868856004896 172.60964490439542 52.43287120781417 Q 173.06427031840718 51.95705385557938 173.54001669742948 51.4531567466103 Q 174.0157630764518 50.949259637641205 174.44295569493377 50.49237777696412 Q 174.87014831341574 50.03549591628704 175.10789920800724 49.87138832278693 L 175.10789920800724 49.87138832278693 Q 176.57098163626262 48.861495439709316 177.78942535141525 48.925031951367814 Q 179.00786906656785 48.988568463026304 179.790536050953 50.12245734492423 Z" fill-opacity="1"/></g></g><g><g><path fill="rgb(0,0,0)" stroke="none" paint-order="stroke fill markers" d=" M 170.97104851013341 66.32381876667053 L 170.97104851013341 66.32381876667053 Q 170.3422994200756 64.99875812924196 170.23892837424995 63.74416425674393 Q 170.1355573284243 62.4895703842459 170.6262971835737 61.346620302923405 Q 171.1170370387231 60.2036702216009 172.2415293106991 59.17815085573184 Q 173.36602158267505 58.152631489862785 175.17292245189583 57.29524636705668 L 175.17292245189583 57.29524636705668 Q 176.97982332111658 56.43786124425057 178.4954139858354 56.210645680686255 Q 180.01100465055418 55.98343011712195 181.23154553368445 56.326665920623235 Q 182.4520864168147 56.66990172412453 183.37383794126976 57.52387070251521 Q 184.29558946572485 58.3778396809059 184.92433855578264 59.702900318334464 L 184.92433855578264 59.702900318334464 Q 185.55308764584046 61.02796095576302 185.63161876465918 62.28204299146323 Q 185.7101498834779 63.53612502716343 185.2040966026861 64.69863994801278 Q 184.69804332189426 65.86115486886213 183.56351271175595 66.89143748541345 Q 182.42898210161763 67.92172010196477 180.62208123239685 68.77910522477087 L 180.62208123239685 68.77910522477087 Q 178.8151803631761 69.63649034757698 177.30962803661964 69.85894266045904 Q 175.80407571006316 70.08139497334109 174.60837475393984 69.73867100663762 Q 173.41267379781652 69.39594703993416 172.50623569900387 68.52241322201662 Q 171.59979760019124 67.64887940409908 170.97104851013341 66.32381876667053 Z M 171.77411556312043 65.94275871209003 L 171.77411556312043 65.94275871209003 Q 172.10754311087834 66.64544238345366 172.84014339893483 66.78976037310534 Q 173.5727436869913 66.934078362757 174.2955040346796 66.59112431363455 L 174.2955040346796 66.59112431363455 Q 175.0182643823679 66.24817026451211 175.37984295400622 65.58465795049452 Q 175.74142152564457 64.92114563647694 175.40799397788663 64.2184619651133 L 175.40799397788663 64.2184619651133 Q 175.0745664301287 63.51577829374967 174.32716455322762 63.366185216617914 Q 173.57976267632657 63.21659213948617 172.85700232863826 63.55954618860861 L 172.85700232863826 63.55954618860861 Q 172.13424198094995 63.902500237731054 171.78746499815622 64.57128763922873 Q 171.4406880153625 65.2400750407264 171.77411556312043 65.94275871209003 Z" fill-opacity="1"/></g></g><g><g><path fill="rgb(0,0,0)" stroke="none" paint-order="stroke fill markers" d=" M 181.10542057116209 70.0989501093719 L 181.10542057116209 70.0989501093719 Q 184.862113629987 69.0108106949431 187.14262411865826 69.93504561241016 Q 189.4231346073295 70.85928052987722 190.3752565949547 74.14638695634903 L 190.3752565949547 74.14638695634903 Q 191.11716983206523 76.70776858736602 190.39114820944616 78.51442398190053 Q 189.66512658682706 80.32107937643505 187.25315888428605 81.01971434138082 L 187.25315888428605 81.01971434138082 Q 186.33533046650498 81.28556658467876 185.68203125981773 81.26657605101161 Q 185.02873205313045 81.24758551734446 184.56893497676816 81.13784291535168 Q 184.10913790040587 81.0281003133589 183.7546665506706 80.92255323536219 Q 183.40019520093534 80.81700615736548 183.08002249705822 80.9097453120043 L 183.08002249705822 80.9097453120043 Q 182.73850494625594 81.00866707695236 182.46190480370086 81.33170973461444 Q 182.18530466114575 81.65475239227649 181.85703519843375 82.0390325747166 Q 181.52876573572175 82.4233127571567 181.07073439430295 82.79890760244743 Q 180.61270305288414 83.17450244773815 179.88697825742932 83.3847111982528 L 179.88697825742932 83.3847111982528 Q 178.60628744192084 83.75566781680807 177.69479004803114 83.24464158502123 Q 176.78329265414143 82.73361535323437 176.4617969180602 81.62368331312702 L 176.4617969180602 81.62368331312702 Q 176.25158816754555 80.8979585176722 176.3823813273062 80.3510892564534 Q 176.5131744870669 79.8042199952346 176.73442542599594 79.36996328979352 Q 176.95567636492498 78.93570658435245 177.14520432262358 78.59161336892248 Q 177.33473228032216 78.24752015349253 177.24817573599262 77.94869229654056 L 177.24817573599262 77.94869229654056 Q 177.1554365813538 77.62851959266342 176.851530332934 77.57773313997826 Q 176.54762408451418 77.52694668729309 176.16562527754454 77.4062373726805 Q 175.78362647057486 77.2855280580679 175.405528898444 76.97860344228103 Q 175.02743132631315 76.67167882649416 174.78630952425223 75.83922979641363 L 174.78630952425223 75.83922979641363 Q 174.55755294280982 75.0494704601834 174.69673715056263 74.29194974571057 Q 174.83592135831543 73.53442903123772 175.5399340799003 72.80995686820648 Q 176.24394680148515 72.08548470517525 177.58609649314138 71.40753053304556 Q 178.92824618479762 70.72957636091586 181.10542057116209 70.0989501093719 Z M 188.52443244676257 78.06029133731354 L 188.52443244676257 78.06029133731354 Q 188.2647628137739 77.1638077664576 187.6243444682321 76.90972962745664 Q 186.9839261226903 76.65565148845567 186.13013224568462 76.90295590082586 L 186.13013224568462 76.90295590082586 Q 185.25499352175382 77.1564429235053 184.86018679142626 77.7103776625051 Q 184.4653800610987 78.2643124015049 184.72504969408737 79.16079597236084 L 184.72504969408737 79.16079597236084 Q 184.98471932707608 80.0572795432168 185.60040723138087 80.22597829451718 Q 186.21609513568563 80.39467704581756 187.0698890126913 80.14737263344739 L 187.0698890126913 80.14737263344739 Q 187.92368288969698 79.9000682210772 188.35389248472413 79.42842156462335 Q 188.78410207975128 78.95677490816949 188.52443244676257 78.06029133731354 Z" fill-opacity="1"/></g></g><g><g><path fill="rgb(0,0,0)" stroke="none" paint-order="stroke fill markers" d=" M 186.13039133015727 92.92207809579885 L 186.13039133015727 92.92207809579885 Q 186.30449986830385 94.35599091394049 185.5766661373438 95.18308535871122 Q 184.84883240638374 96.01017980348195 183.45903998264646 96.1789311558394 L 183.45903998264646 96.1789311558394 Q 182.26778933372879 96.32357517214578 181.325113105514 95.93436445087927 Q 180.38243687729917 95.54515372961275 179.69471582500074 94.76681884903478 Q 179.00699477270234 93.98848396845679 178.56989527995566 92.87751471802008 Q 178.13279578720898 91.76654546758337 177.97475880642978 90.46499383265481 L 177.97475880642978 90.46499383265481 Q 177.77118574644302 88.78841884528921 178.1269140565275 87.56999015204715 Q 178.48264236661197 86.3515614588051 179.36623677443455 85.51674696237352 Q 180.24983118225714 84.68193246594194 181.657273798476 84.19764187051757 Q 183.06471641469483 83.7133512750932 184.96189337408222 83.48299228616081 L 184.96189337408222 83.48299228616081 Q 186.85907033346962 83.25263329722841 188.32914415568786 83.37633742131126 Q 189.7992179779061 83.5000415453941 190.82950354088393 84.05769806559435 Q 191.8597891038618 84.61535458579462 192.46399509909494 85.6276844028672 Q 193.0682010943281 86.64001421993979 193.2557025969475 88.1842280240923 L 193.2557025969475 88.1842280240923 Q 193.3548105340463 89.00045532057293 193.30083638717716 89.84646286591658 Q 193.24686224030802 90.69247041126023 192.96322677330892 91.39847311008589 Q 192.67959130630987 92.10447580891154 192.10444754393902 92.62201965045016 Q 191.52930378156816 93.13956349198878 190.58339389476905 93.27680318365715 L 190.58339389476905 93.27680318365715 Q 189.64016260086447 93.43610307252771 188.85427061893662 93.13978248345744 Q 188.06837863700878 92.84346189438715 187.41146140299784 92.31881928163423 Q 186.7545441689869 91.7941766688813 186.20556505511513 91.1445008091974 Q 185.65658594124338 90.49482494951349 185.15275079120042 89.94040208789754 Q 184.64891564115743 89.38597922628159 184.18021792576664 89.02875884303798 Q 183.71152021037582 88.67153845979436 183.22619587192787 88.73046750347474 L 183.22619587192787 88.73046750347474 Q 182.85117251949083 88.7760035826823 182.6132360820103 89.02874866943884 Q 182.3752996445298 89.28149375619539 182.41815713084281 89.63445691143025 L 182.41815713084281 89.63445691143025 Q 182.4556574313667 89.94329967226076 182.71974834374714 90.090316728038 Q 182.98383925612762 90.23733378381525 183.36524336377823 90.33652828286912 Q 183.74664747142884 90.43572278192299 184.18721996142673 90.56131109454374 Q 184.62779245142465 90.68689940716447 185.0279467093372 90.94051528663361 Q 185.42810096724975 91.19413116610274 185.73103147660137 91.66102108131157 Q 186.033961985953 92.12791099652041 186.13039133015727 92.92207809579885 Z" fill-opacity="1"/></g></g><g><g><path fill="rgb(0,0,0)" stroke="none" paint-order="stroke fill markers" d=" M 178.5200304733742 102.46368089414013 L 178.5200304733742 102.46368089414013 Q 178.58087678287288 100.9537952969031 179.07677622148387 99.96184757146835 Q 179.5726756600949 98.96989984603361 180.55161582241337 98.40886278990189 Q 181.53055598473185 97.84782573377016 182.98411916678543 97.6506393477288 Q 184.437682348839 97.45345296168745 186.3916519452634 97.53219524456809 L 186.3916519452634 97.53219524456809 Q 188.36782574164715 97.6118323261178 189.81191065429115 97.92578993847647 Q 191.25599556693513 98.23974755083513 192.19771870110202 98.87818469184384 Q 193.13944183526888 99.51662183285255 193.57611879495133 100.54615110238942 Q 194.01279575463377 101.57568037192628 193.9528442438042 103.06336176920395 L 193.9528442438042 103.06336176920395 Q 193.89110313563643 104.59545156640036 193.34184731041572 105.80765169409058 Q 192.79259148519498 107.01985182178082 191.78070953888795 107.84644447875586 Q 190.76882759258092 108.67303713573091 189.29566172319124 109.08071602205172 Q 187.82249585380157 109.48839490837251 185.9129346572959 109.41144222283008 L 185.9129346572959 109.41144222283008 Q 184.00337346079024 109.33448953728764 182.5784438361478 108.82114152462921 Q 181.15351421150538 108.30779351197079 180.23318336201282 107.4144554707639 Q 179.31285251252027 106.521117429557 178.8851235395288 105.26954616042646 Q 178.45739456653732 104.0179748912959 178.5200304733742 102.46368089414013 Z M 185.93977861736883 108.74531622404903 L 185.93977861736883 108.74531622404903 Q 186.5392920162718 108.76947578811468 187.023840704751 108.61108035982535 Q 187.50838939323017 108.45268493153601 187.8637394759641 108.18900181141493 Q 188.21908955869804 107.92531869129384 188.41103993707856 107.57720988129674 Q 188.6029903154591 107.22910107129962 188.61730709416466 106.87383387194974 L 188.61730709416466 106.87383387194974 Q 188.6432562555685 106.22991207312806 188.04829973339508 105.81673161043892 Q 187.4533432112217 105.40355114774978 186.07668281374086 105.34807363026569 L 186.07668281374086 105.34807363026569 Q 184.70002241626003 105.29259611278161 184.07374794066817 105.65656264867036 Q 183.44747346507634 106.02052918455911 183.4215243036725 106.66445098338077 L 183.4215243036725 106.66445098338077 Q 183.4072075249669 107.01971818273067 183.5705243459363 107.38214377143335 Q 183.73384116690568 107.74456936013603 184.06682128291214 108.03599123899915 Q 184.39980139891864 108.32741311786228 184.87003330869226 108.52428488892284 Q 185.3402652184659 108.72115665998338 185.93977861736883 108.74531622404903 Z" fill-opacity="1"/></g></g><g><g><path fill="rgb(0,0,0)" stroke="none" paint-order="stroke fill markers" d="" fill-opacity="1"/></g></g><g><g><path fill="rgb(0,0,0)" stroke="none" paint-order="stroke fill markers" d="" fill-opacity="1"/></g></g><g><g><path fill="rgb(0,0,0)" stroke="none" paint-order="stroke fill markers" d=" M 171.1813448529433 149.2436224106911 L 171.1813448529433 149.2436224106911 Q 167.83271329164347 147.3102890773578 166.6513533488134 145.51202007592173 Q 165.4699934059833 143.71375107448566 166.5588822948722 141.82774019513286 L 166.5588822948722 141.82774019513286 Q 167.19221562820553 140.7307746836726 168.06034226385157 140.44935746555203 Q 168.92846889949763 140.16794024743146 169.890719348147 140.723495802987 L 169.890719348147 140.723495802987 Q 170.3525995634987 140.99016246965368 170.71894559872425 141.3556325234916 Q 171.0852916339498 141.72110257732953 171.41165904460476 142.08915097347378 Q 171.73802645525973 142.45719936961802 172.0370149590798 142.78378053456706 Q 172.33600346289992 143.1103616995161 172.64392360646772 143.28813947729387 L 172.64392360646772 143.28813947729387 Q 173.1442938397654 143.57702836618276 173.5611456230809 143.43279767603238 Q 173.9779974063964 143.28856698588203 174.1779974063964 142.94215682436825 L 174.1779974063964 142.94215682436825 Q 174.37799740639642 142.59574666285448 174.28485645192774 142.15707152825965 Q 174.19171549745909 141.71839639366485 173.69134526416138 141.42950750477596 L 173.69134526416138 141.42950750477596 Q 173.38342512059359 141.25172972699818 172.95110328344018 141.156088669725 Q 172.51878144628674 141.0604476124518 172.03685848007623 140.9618293419294 Q 171.5549355138657 140.86321107140697 171.05525614530683 140.7286811252449 Q 170.55557677674793 140.59415117908281 170.11294157036923 140.33859562352725 L 170.11294157036923 140.33859562352725 Q 169.15069112171983 139.7830400679717 168.9714533749627 138.87126672976703 Q 168.79221562820553 137.95949339156238 169.42554896153885 136.86252788010208 L 169.42554896153885 136.86252788010208 Q 170.53666007264997 134.93802698280334 172.74133197338398 135.03053434782368 Q 174.946003874118 135.12304171284404 178.23690040849885 137.02304171284405 L 178.23690040849885 137.02304171284405 Q 181.54704195185272 138.93415282395515 182.72949163036452 140.79720101449035 Q 183.9119413088763 142.66024920502556 182.8008301977652 144.5847501023243 L 182.8008301977652 144.5847501023243 Q 182.16749686443185 145.6817156137846 181.2882591176747 145.98237784087814 Q 180.40902137091754 146.2830400679717 179.44677092226817 145.72748451241614 L 179.44677092226817 145.72748451241614 Q 179.00413571588945 145.47192895686058 178.6377896806639 145.10645890302266 Q 178.27144364543835 144.74098884918473 177.9450762347834 144.37294045304048 Q 177.61870882412842 144.00489205689624 177.32934282479482 143.68386644750277 Q 177.03997682546122 143.3628408381093 176.71281167292045 143.1739519492204 L 176.71281167292045 143.1739519492204 Q 176.21244143962275 142.8850630603315 175.78596715182076 143.02373819492632 Q 175.35949286401876 143.16241332952114 175.15949286401877 143.50882349103492 L 175.15949286401877 143.50882349103492 Q 174.95949286401876 143.8552336525487 175.04301131400095 144.28835323158793 Q 175.12652976398311 144.7214728106272 175.6268999972808 145.0103616995161 L 175.6268999972808 145.0103616995161 Q 175.9540651498216 145.19925058840496 176.3767644824885 145.28933609012262 Q 176.79946381515543 145.37942159184024 177.28138678136597 145.47803986236266 Q 177.76330974757647 145.5766581328851 178.26298911613537 145.71118807904716 Q 178.76266848469425 145.84571802520924 179.22454870004594 146.1123846918759 L 179.22454870004594 146.1123846918759 Q 180.18679914869531 146.66794024743146 180.3771480065636 147.5604685766631 Q 180.56749686443186 148.4529969058948 179.93416353109853 149.5499624173551 L 179.93416353109853 149.5499624173551 Q 178.84527464220963 151.43597329670786 176.69724803271288 151.3120200759217 Q 174.54922142321612 151.18806685513556 171.1813448529433 149.2436224106911 Z" fill-opacity="1"/></g></g><g><g><path fill="rgb(0,0,0)" stroke="none" paint-order="stroke fill markers" d=" M 160.2499079601352 156.56546102824282 L 160.2499079601352 156.56546102824282 Q 158.76955181086458 155.35678764377164 158.8116782174291 153.74159643223643 Q 158.85380462399363 152.12640522070123 160.41383655046224 150.21571298152634 L 160.41383655046224 150.21571298152634 Q 162.46577043572722 147.70255021648552 164.86581538108038 147.69696686041928 Q 167.26586032643357 147.69138350435304 170.32985328655184 150.19305632337478 L 170.32985328655184 150.19305632337478 Q 173.41105969026628 152.70878348407638 173.91305954182593 155.09815730584333 Q 174.41505939338555 157.48753112761028 172.40528853316025 159.94905356186263 L 172.40528853316025 159.94905356186263 Q 170.85931094837153 161.8425323574413 169.2296796620357 162.20459864150013 Q 167.60004837569983 162.56666492555894 166.10247878283303 161.3439371994079 L 166.10247878283303 161.3439371994079 Q 164.98360494908198 160.43040499021456 164.83790052781268 159.37906611454264 Q 164.6921961065434 158.3277272388707 165.53545660733724 157.2949206231005 L 165.53545660733724 157.2949206231005 Q 165.95708685773417 156.7785173152154 166.47426163186074 156.42618907155799 Q 166.99143640598732 156.07386082790057 167.53285179455003 155.72698020412497 Q 168.07426718311274 155.38009958034937 168.61955064059913 154.9933444494996 Q 169.1648340980855 154.60658931864984 169.642681715202 154.02133223638006 L 169.642681715202 154.02133223638006 Q 170.28918143247728 153.22951383095625 170.3503615682487 152.66266401012 Q 170.4115417040201 152.0958141892838 170.17055349367374 151.89905340576524 L 170.17055349367374 151.89905340576524 Q 169.98120561411585 151.74445564728637 169.70453419950564 151.81978924244692 Q 169.42786278489547 151.8951228376075 169.1467759512975 152.23939170953088 L 169.1467759512975 152.23939170953088 Q 168.92190648441917 152.51480680706962 168.76904989384175 152.87770705660398 Q 168.61619330326434 153.24060730613837 168.48055015628313 153.61756189735263 Q 168.3449070093019 153.99451648856692 168.17799607704458 154.37463018169746 Q 168.01108514478727 154.75474387482802 167.74405265286924 155.08179930315524 L 167.74405265286924 155.08179930315524 Q 167.29431371911252 155.6326294982327 166.80421542745168 155.70583619237104 Q 166.3141171357908 155.7790428865094 165.98706170746357 155.51201039459133 L 165.98706170746357 155.51201039459133 Q 165.6772197227325 155.2590322443532 165.65091470650827 154.7641952998179 Q 165.62460969028402 154.26935835528266 166.07434862404074 153.7185281602052 L 166.07434862404074 153.7185281602052 Q 166.3273267742789 153.40868617547414 166.6663721424979 153.16911589914258 Q 167.00541751071688 152.929545622811 167.34604242989403 152.70560923911745 Q 167.68666734907117 152.4816728554239 168.00463120477033 152.26792274448658 Q 168.32259506046947 152.05417263354926 168.54746452734784 151.77875753601054 L 168.54746452734784 151.77875753601054 Q 168.82855136094577 151.43448866408716 168.84702112161344 151.14833994372813 Q 168.86549088228108 150.8621912233691 168.6761430027232 150.70759346489024 L 168.6761430027232 150.70759346489024 Q 168.4351547923768 150.51083268137168 167.9076321285507 150.68258138421265 Q 167.38010946472454 150.8543300870536 166.73360974744926 151.64614849247744 L 166.73360974744926 151.64614849247744 Q 166.25576213033276 152.2314055747472 165.97728704858702 152.83600300163536 Q 165.69881196684128 153.44060042852354 165.47584528480772 154.04748637337724 Q 165.25287860277416 154.65437231823094 165.0025122043882 155.22454285792676 Q 164.75214580600226 155.7947133976226 164.33051555560533 156.3111167055077 L 164.33051555560533 156.3111167055077 Q 163.4872550548115 157.34392332127788 162.42801842434886 157.41145827935702 Q 161.36878179388626 157.47899323743613 160.2499079601352 156.56546102824282 Z" fill-opacity="1"/></g></g><g><g><path fill="rgb(0,0,0)" stroke="none" paint-order="stroke fill markers" d=" M 154.75265446803397 166.86320451393337 L 154.75265446803397 166.86320451393337 Q 153.67147227623127 167.82104835361451 152.57733020857447 167.69189613227263 Q 151.4831881409177 167.56274391093075 150.55481641938056 166.5148288634912 L 150.55481641938056 166.5148288634912 Q 149.75906922949162 165.6166159656859 149.54388224069646 164.6197117493023 Q 149.3286952519013 163.6228075329187 149.57858221548366 162.61467959583413 Q 149.82846917906602 161.6065516587496 150.49447813503596 160.61572336255335 Q 151.16048709100588 159.62489506635708 152.1418678497191 158.75546758110806 L 152.1418678497191 158.75546758110806 Q 153.40601933551918 157.6355270916347 154.6108432041725 157.23613936443934 Q 155.81566707282587 156.83675163724396 157.004644767896 157.0897068933929 Q 158.19362246296612 157.34266214954184 159.3917043427254 158.2258563004271 Q 160.5897862224847 159.10905045131233 161.8570873026782 160.53953765892823 L 161.8570873026782 160.53953765892823 Q 163.12438838287173 161.9700248665441 163.85767899810156 163.25014385581903 Q 164.59096961333137 164.53026284509397 164.71729620188992 165.69495625059847 Q 164.8436227904485 166.85964965610293 164.35371980969026 167.93197032299977 Q 163.86381682893202 169.0042909898966 162.6994667762214 170.03581512493784 L 162.6994667762214 170.03581512493784 Q 162.08402460550295 170.58104931060248 161.35711323518956 171.0172165205321 Q 160.6302018648762 171.4533837304617 159.8880497247405 171.62101156162615 Q 159.1458975846048 171.7886393927906 158.3932484574207 171.60930376705593 Q 157.6405993302366 171.42996814132127 156.99031521795825 170.72946059658534 L 156.99031521795825 170.72946059658534 Q 156.32339753349834 170.04368911092143 156.1208270677634 169.2285834090782 Q 155.91825660202846 168.41347770723496 155.97685748552266 167.5748144494786 Q 156.03545836901685 166.73615119172226 156.25827543831502 165.9152922856045 Q 156.48109250761323 165.09443337948676 156.6511625907023 164.36483709746545 Q 156.82123267379143 163.63524081544418 156.84896863678233 163.0465858511618 Q 156.8767045997732 162.45793088687947 156.55251130018883 162.09199229888472 L 156.55251130018883 162.09199229888472 Q 156.30199829596452 161.80922157179785 155.9588298652845 161.75697929633907 Q 155.6156614346045 161.7047370208803 155.3495242796992 161.94051396603257 L 155.3495242796992 161.94051396603257 Q 155.1166542691571 162.1468187930408 155.14568234149667 162.44767655961434 Q 155.1747104138362 162.74853432618787 155.30973716934423 163.11877265115206 Q 155.44476392485225 163.48901097611622 155.59168046976794 163.92293732014238 Q 155.73859701468365 164.35686366416854 155.7571887649206 164.83025440263685 Q 155.77578051515758 165.30364514110516 155.5636217908642 165.81817576422296 Q 155.35146306657086 166.33270638734072 154.75265446803397 166.86320451393337 Z" fill-opacity="1"/></g></g><g><g><path fill="rgb(0,0,0)" stroke="none" paint-order="stroke fill markers" d=" M 143.31800969446138 174.7802870098701 L 143.31800969446138 174.7802870098701 Q 142.09717957089813 175.55229320316582 141.03792382890538 175.24930073865684 Q 139.97866808691262 174.9463082741479 139.2304159303337 173.7630421543866 L 139.2304159303337 173.7630421543866 Q 138.58905693898035 172.74881405173403 138.53657124741642 171.7303010626312 Q 138.4840855558525 170.71178807352837 138.89245164254248 169.75679981635435 Q 139.30081772923245 168.80181155918032 140.11714208024472 167.93064957888063 Q 140.933466431257 167.05948759858092 142.04160454341442 166.35874351543558 L 142.04160454341442 166.35874351543558 Q 143.46903668788838 165.4560901201975 144.72232470075338 165.25514169915365 Q 145.97561271361837 165.05419327810978 147.1086165831694 165.49459826510474 Q 148.24162045272044 165.9350032520997 149.28251318180898 166.9989461195959 Q 150.32340591089752 168.06288898709212 151.34482948971953 169.6781411505758 L 151.34482948971953 169.6781411505758 Q 152.36625306854154 171.2933933140595 152.88470223617412 172.6745631854611 Q 153.4031514038067 174.05573305686272 153.34101213523803 175.2256081985356 Q 153.27887286666936 176.39548334020853 152.62330166917766 177.37533177146165 Q 151.96773047168597 178.35518020271476 150.65299033861783 179.18657148780244 L 150.65299033861783 179.18657148780244 Q 149.95805626828184 179.62602116706307 149.17059206848657 179.9399353421961 Q 148.3831278686913 180.25384951732912 147.62369700874856 180.30025703671492 Q 146.86426614880585 180.34666455610073 146.1501310875721 180.04891786909093 Q 145.43599602633836 179.7511711820811 144.90650223502638 178.95542211869764 L 144.90650223502638 178.95542211869764 Q 144.35822644181343 178.1715500736726 144.2890313600742 177.33450518871805 Q 144.21983627833498 176.49746030376355 144.4122093431638 175.67905775771106 Q 144.60458240799258 174.86065521165858 144.9561890832974 174.0861685842695 Q 145.30779575860225 173.3116819568804 145.5926989528903 172.61881491495555 Q 145.87760214717835 171.92594787303068 145.99940583353683 171.34936499728187 Q 146.12120951989533 170.77278212153306 145.85991511601063 170.35957807971167 L 145.85991511601063 170.35957807971167 Q 145.6580058039179 170.04028404739512 145.3276615646074 169.9336702081674 Q 144.99731732529693 169.82705636893968 144.69680529488136 170.01708866267398 L 144.69680529488136 170.01708866267398 Q 144.43385726826773 170.18336691969154 144.4142484550023 170.4849850874694 Q 144.39463964173686 170.7866032552473 144.46852743229408 171.1737069059429 Q 144.54241522285128 171.56081055663853 144.617822556453 172.01268473962418 Q 144.69322989005474 172.46455892260985 144.63564366730512 172.93480170181425 Q 144.57805744455553 173.40504448101865 144.28610960372598 173.87887941499326 Q 143.99416176289643 174.35271434896785 143.31800969446138 174.7802870098701 Z" fill-opacity="1"/></g></g><g><g><path fill="rgb(0,0,0)" stroke="none" paint-order="stroke fill markers" d=" M 130.79115379996327 172.26949395668117 L 130.79115379996327 172.26949395668117 Q 132.14045698399622 171.69460959555306 133.39819571090996 171.64183978556622 Q 134.65593443782373 171.58906997557938 135.77819748292373 172.12543379933157 Q 136.90046052802373 172.66179762308374 137.87986945733508 173.8266714311382 Q 138.85927838664645 174.9915452391927 139.6432116063666 176.83150412651034 L 139.6432116063666 176.83150412651034 Q 140.42714482608676 178.671463013828 140.5931494344776 180.19497358002096 Q 140.75915404286846 181.71848414621394 140.3670503781302 182.92421445614912 Q 139.9749467133919 184.12994476608426 139.08455511372463 185.01656288462846 Q 138.19416351405738 185.90318100317268 136.84486033002443 186.4780653643008 L 136.84486033002443 186.4780653643008 Q 135.49555714599148 187.0529497254289 134.23933004378816 187.08092036322486 Q 132.98310294158483 187.10889100102082 131.8419075335584 186.5564383741858 Q 130.70071212553196 186.00398574735075 129.7169480116666 184.82888994547784 Q 128.73318389780124 183.65379414360496 127.9492506780811 181.8138352562873 L 127.9492506780811 181.8138352562873 Q 127.16531745836095 179.97387636896966 127.0036680345241 178.4605877965951 Q 126.84201861068723 176.94729922422056 127.23261065071509 175.76636808647626 Q 127.62320269074294 174.58543694873197 128.53252665333665 173.71490763327063 Q 129.44185061593032 172.8443783178093 130.79115379996327 172.26949395668117 Z M 131.13956856428334 173.08725346215567 L 131.13956856428334 173.08725346215567 Q 130.42402899699314 173.39211638093573 130.25032921017194 174.11831142929105 Q 130.0766294233507 174.84450647764638 130.39020271123877 175.58049003257344 L 130.39020271123877 175.58049003257344 Q 130.70377599912683 176.3164735875005 131.35219090233414 176.7044758653542 Q 132.00060580554145 177.0924781432079 132.71614537283165 176.78761522442784 L 132.71614537283165 176.78761522442784 Q 133.43168494012184 176.48275230564778 133.61125153620748 175.74198007892002 Q 133.7908181322931 175.00120785219227 133.47724484440505 174.2652242972652 L 133.47724484440505 174.2652242972652 Q 133.163671556517 173.52924074233815 132.50938984404527 173.15581564285688 Q 131.85510813157353 172.7823905433756 131.13956856428334 173.08725346215567 Z" fill-opacity="1"/></g></g><g><g><path fill="rgb(0,0,0)" stroke="none" paint-order="stroke fill markers" d="" fill-opacity="1"/></g></g><g><g><path fill="rgb(0,0,0)" stroke="none" paint-order="stroke fill markers" d=" M 103.29995099216106 194.03940252924127 L 103.29995099216106 194.03940252924127 Q 101.43933735031054 194.18960679084583 100.29024142922769 192.52110460271268 Q 99.14114550814485 190.85260241457954 98.88186434227984 187.64082886614707 L 98.88186434227984 187.64082886614707 Q 98.18091112145858 178.95796520417795 106.26572039854717 178.30529192458675 L 106.26572039854717 178.30529192458675 Q 114.46128048765068 177.6436779151381 115.15865741652897 186.28224125230125 L 115.15865741652897 186.28224125230125 Q 115.28561578050426 187.854902782913 115.12084407905724 189.1278447103393 Q 114.95607237761023 190.4007866377656 114.50617532701372 191.31773948301327 Q 114.0562782764172 192.23469232826093 113.35179890131843 192.75974862876822 Q 112.64731952621965 193.28480492927554 111.7170127052944 193.3599070600778 L 111.7170127052944 193.3599070600778 Q 110.34370263630947 193.47077211030975 109.52388784605006 192.56714293582468 Q 108.70407305579064 191.66351376133963 108.56102137807203 189.89150076910101 L 108.56102137807203 189.89150076910101 Q 108.53777548044275 189.60354865786226 108.62150244064486 188.98369031595135 Q 108.70522940084699 188.3638319740404 108.80574208553763 187.67573499894908 Q 108.90625477022829 186.98763802385773 108.98729951147318 186.33455443834234 Q 109.06834425271808 185.68147085282695 109.03794577120287 185.30491809197625 L 109.03794577120287 185.30491809197625 Q 108.9932421219158 184.7511640319017 108.70598242142222 184.5068198347237 Q 108.41872272092863 184.2624756375457 108.08647028488389 184.28929782711793 L 108.08647028488389 184.28929782711793 Q 107.73206768643617 184.31790816266167 107.45628639162518 184.63000024451546 Q 107.1805050968142 184.94209232636925 107.22699689207275 185.51799654884678 L 107.22699689207275 185.51799654884678 Q 107.25560722761648 185.87239914729452 107.3967565211466 186.2400111782878 Q 107.53790581467672 186.6076232092811 107.70478156255278 187.01774741910884 Q 107.87165731042886 187.42787162893663 108.0199591878449 187.88408430954183 Q 108.16826106526095 188.34029699014707 108.21117656857655 188.87190088781864 L 108.21117656857655 188.87190088781864 Q 108.27733796952141 189.691456896729 108.02693692368378 190.1798562048209 Q 107.77653587784614 190.66825551291282 107.28923230498053 190.70759472428543 L 107.28923230498053 190.70759472428543 Q 106.77977856971194 190.74872208162952 106.45516946605777 190.31788964999768 Q 106.13056036240359 189.8870572183658 106.06618710743021 189.08965137185845 L 106.06618710743021 189.08965137185845 Q 106.02327160411463 188.55804747418685 106.09557727774265 188.07287825266533 Q 106.16788295137069 187.5877090311438 106.25483999814318 187.14594606144246 Q 106.34179704491567 186.70418309174116 106.42214937541537 186.31868960103304 Q 106.50250170591508 185.93319611032493 106.47389137037135 185.57879351187722 L 106.47389137037135 185.57879351187722 Q 106.4273995751128 185.00288928939966 106.11620156624475 184.73818307579018 Q 105.8050035573767 184.47347686218066 105.45060095892899 184.5020871977244 L 105.45060095892899 184.5020871977244 Q 105.11834852288425 184.52890938729664 104.87400432570625 184.81616908779023 Q 104.62966012852826 185.10342878828382 104.67436377781533 185.65718284835836 L 104.67436377781533 185.65718284835836 Q 104.70476225933054 186.03373560920906 104.88951946692143 186.66536144306667 Q 105.07427667451232 187.29698727692426 105.27279118226194 187.9609442814006 Q 105.47130569001155 188.62490128587692 105.65338067864522 189.22330187613002 Q 105.8354556672789 189.82170246638316 105.85870156490816 190.10965457762194 L 105.85870156490816 190.10965457762194 Q 106.00175324262679 191.88166756986053 105.33750715188638 192.90510252443494 Q 104.67326106114596 193.92853747900935 103.29995099216106 194.03940252924127 Z" fill-opacity="1"/></g></g><g><g><path fill="rgb(0,0,0)" stroke="none" paint-order="stroke fill markers" d=" M 93.67890419544541 178.30082155965803 L 93.67890419544541 178.30082155965803 Q 95.14081491404225 178.4188391937759 96.27901060197067 178.95661417832414 Q 97.41720628989908 179.49438916287238 98.16166016800716 180.4908573847425 Q 98.90611404611523 181.48732560661261 99.23199373304276 182.97392416343763 Q 99.55787341997028 184.46052272026265 99.39694028253683 186.45403733653106 L 99.39694028253683 186.45403733653106 Q 99.23600714510339 188.44755195279947 98.67498626292587 189.87369975196665 Q 98.11396538074835 191.29984755113384 97.20644401386275 192.18524906053148 Q 96.29892264697715 193.07065056992914 95.09848805541944 193.44192631688892 Q 93.89805346386171 193.8132020638487 92.43614274526487 193.69518442973083 L 92.43614274526487 193.69518442973083 Q 90.97423202666803 193.57716679561298 89.84889956591259 193.0181357216475 Q 88.72356710515716 192.459104647682 87.96982629181907 191.43959219042316 Q 87.21608547848099 190.42007973316433 86.8910998645392 188.92240609513783 Q 86.56611425059742 187.42473245711133 86.72704738803087 185.4312178408429 L 86.72704738803087 185.4312178408429 Q 86.88798052546431 183.43770322457448 87.44810733465609 182.02263050660878 Q 88.00823414384786 180.60755778864308 88.90289228356049 179.7434123686627 Q 89.79755042327312 178.8792669486823 91.00727195006084 178.53103543711123 Q 92.21699347684857 178.18280392554016 93.67890419544541 178.30082155965803 Z M 93.6073783565861 179.18682805577734 L 93.6073783565861 179.18682805577734 Q 92.83212267248172 179.12424294677544 92.34083948319203 179.6865344122263 Q 91.84955629390235 180.24882587767718 91.78518303892896 181.04623172418454 L 91.78518303892896 181.04623172418454 Q 91.72080978395559 181.84363757069193 92.11463901779946 182.4885299562036 Q 92.50846825164334 183.13342234171526 93.28372393574772 183.19600745071716 L 93.28372393574772 183.19600745071716 Q 94.0589796198521 183.25859255971906 94.56223196332901 182.68612008605243 Q 95.06548430680593 182.11364761238582 95.12985756177932 181.31624176587843 L 95.12985756177932 181.31624176587843 Q 95.1942308167527 180.51883591937107 94.78843242872159 179.88412454207514 Q 94.38263404069049 179.24941316477924 93.6073783565861 179.18682805577734 Z" fill-opacity="1"/></g></g><g><g><path fill="rgb(0,0,0)" stroke="none" paint-order="stroke fill markers" d=" M 85.34235851952886 185.1898795445614 L 85.34235851952886 185.1898795445614 Q 84.40636836587085 188.98734087493884 82.46570220394413 190.5002034329915 Q 80.52503604201742 192.01306599104413 77.20225737793716 191.19407460659338 L 77.20225737793716 191.19407460659338 Q 74.61307919813434 190.55589950182656 73.4114805418928 189.0238186356744 Q 72.20988188565126 187.4917377695222 72.81083010930668 185.05359498354122 L 72.81083010930668 185.05359498354122 Q 73.03950952184812 184.12580613577853 73.38260540977893 183.56952769334873 Q 73.72570129770973 183.01324925091893 74.05063971709403 182.66992460319975 Q 74.37557813647832 182.3265999554806 74.64422026218632 182.07239230069445 Q 74.91286238789434 181.81818464590827 74.99263427599018 181.49453737343293 L 74.99263427599018 181.49453737343293 Q 75.0777242899591 181.1493136161259 74.93626121319527 180.74824953715176 Q 74.79479813643142 180.34718545817762 74.62613646762338 179.8707556729623 Q 74.45747479881533 179.394325887747 74.36121579197248 178.8098616877035 Q 74.26495678512963 178.22539748765996 74.44577306481355 177.49179700338252 L 74.44577306481355 177.49179700338252 Q 74.76486061719697 176.1972079134811 75.66317101286946 175.66334113078275 Q 76.56148140854195 175.1294743480844 77.68345861978983 175.40601689348333 L 77.68345861978983 175.40601689348333 Q 78.41705910406729 175.58683317316726 78.82526519695126 175.97353800277062 Q 79.23347128983524 176.360242832374 79.49892315904643 176.76898011881826 Q 79.76437502825762 177.17771740526254 79.96760451524052 177.51390003907187 Q 80.17083400222344 177.8500826728812 80.4729047898671 177.924536435104 L 80.4729047898671 177.924536435104 Q 80.79655206234246 178.00430832319987 80.99248754474581 177.76651101804208 Q 81.18842302714916 177.5287137128843 81.48395976356191 177.2582476991395 Q 81.77949649997467 176.9877816853947 82.2343498003583 176.81380189071362 Q 82.68920310074193 176.6398220960325 83.53068600917784 176.84722900508174 L 83.53068600917784 176.84722900508174 Q 84.32901594795037 177.04399966238483 84.91545602670038 177.5432970793408 Q 85.5018961054504 178.04259449629674 85.77730104217767 179.01452347929228 Q 86.05270597890495 179.98645246228782 85.9687566687428 181.4877652770084 Q 85.88480735858064 182.98907809172903 85.34235851952886 185.1898795445614 Z M 74.73812883013474 187.63426168583908 L 74.73812883013474 187.63426168583908 Q 75.64434119306571 187.85762297250744 76.18458848875773 187.43004348571912 Q 76.72483578444972 187.0024639989308 76.937560819372 186.1394046056632 L 76.937560819372 186.1394046056632 Q 77.15560398016733 185.2547687275639 76.87328578931859 184.63588870001527 Q 76.59096759846983 184.01700867246663 75.68475523553886 183.79364738579824 L 75.68475523553886 183.79364738579824 Q 74.77854287260787 183.57028609912985 74.32460151624262 184.0191380894104 Q 73.87066015987739 184.46799007969096 73.65793512495512 185.33104947295857 L 73.65793512495512 185.33104947295857 Q 73.44521009003284 186.19410886622617 73.63856327861829 186.80250463269843 Q 73.83191646720375 187.41090039917069 74.73812883013474 187.63426168583908 Z" fill-opacity="1"/></g></g><g><g><path fill="rgb(0,0,0)" stroke="none" paint-order="stroke fill markers" d=" M 63.064464509961894 178.13006788191174 L 63.064464509961894 178.13006788191174 Q 61.73560531356581 177.56389388989163 61.38323737854541 176.52002416676365 Q 61.030869443525 175.4761544436357 61.5796226973291 174.18818322251332 L 61.5796226973291 174.18818322251332 Q 62.04998262916119 173.08420789012274 62.85838711531067 172.46243168957827 Q 63.66679160146015 171.8406554890338 64.6847099068414 171.634239027315 Q 65.70262821222268 171.4278225655962 66.88330555229756 171.60476792611462 Q 68.06398289237245 171.78171328663308 69.27017816294735 172.29562506400518 L 69.27017816294735 172.29562506400518 Q 70.82392122334892 172.9576131162133 71.70124726935417 173.8748972162128 Q 72.57857331535944 174.7921813162123 72.8597466728054 175.9748037682443 Q 73.14092003025137 177.15742622027634 72.85660668059333 178.61845257800286 Q 72.57229333093531 180.07947893572938 71.82320158764716 181.8376618724996 L 71.82320158764716 181.8376618724996 Q 71.07410984435901 183.5958448092698 70.23194201924126 184.80711402270785 Q 69.3897741941235 186.0183832361459 68.39168669955512 186.63180844673695 Q 67.39359920498674 187.24523365732801 66.21479286877685 187.26232648978248 Q 65.03598653256698 187.27941932223695 63.60490739798658 186.66969348467683 L 63.60490739798658 186.66969348467683 Q 62.84847985542266 186.34740982768076 62.14280290279632 185.87766307267265 Q 61.43712595016997 185.40791631766456 60.96752741134612 184.80927944841628 Q 60.497928872522266 184.210642579168 60.33729463936306 183.45378154935736 Q 60.17666040620385 182.69692051954675 60.53076229021106 181.80911868205365 L 60.53076229021106 181.80911868205365 Q 60.864420186581405 180.91260647545255 61.51398733534456 180.38016434900766 Q 62.16355448410771 179.8477222225628 62.946366931665054 179.54113651610197 Q 63.72917937922239 179.23455080964115 64.56630473487003 179.0839588807231 Q 65.40343009051767 178.93336695180503 66.13549194813744 178.77424434335626 Q 66.8675538057572 178.61512173490746 67.41126459009119 178.3878277983051 Q 67.95497537442517 178.16053386170276 68.14660349480121 177.71076613369178 L 68.14660349480121 177.71076613369178 Q 68.29467976963724 177.3632183438651 68.19476432256464 177.03078680114274 Q 68.09484887549203 176.69835525842035 67.76774507330222 176.55898935269232 L 67.76774507330222 176.55898935269232 Q 67.48152924638615 176.4370441851803 67.22216328510322 176.5922450963218 Q 66.96279732382031 176.74744600746325 66.68619031389868 177.0281544042695 Q 66.40958330397703 177.30886280107572 66.0805343898301 177.6276156133121 Q 65.75148547568317 177.94636842554848 65.3317705523035 178.16610423859868 Q 64.91205562892382 178.3858400516489 64.35625184690639 178.41474061072435 Q 63.800448064888954 178.4436411697998 63.064464509961894 178.13006788191174 Z" fill-opacity="1"/></g></g><g><g><path fill="rgb(0,0,0)" stroke="none" paint-order="stroke fill markers" d=" M 58.6063745221692 166.76850064880026 L 58.6063745221692 166.76850064880026 Q 59.88355065143537 167.57613789717115 60.494652861582544 168.5015732714481 Q 61.10575507172972 169.42700864572504 61.10215733364499 170.55531422314357 Q 61.09855959556025 171.6836198005621 60.54254642412573 173.0410356352469 Q 59.98653325269121 174.39845146993173 58.941355637152405 176.05126763721736 L 58.941355637152405 176.05126763721736 Q 57.884301003255196 177.722865806404 56.8903632789191 178.81650121979618 Q 55.89642555458299 179.9101366331884 54.87266120466651 180.40647422020405 Q 53.84889685475002 180.9028118072197 52.738959873550236 180.7662205127836 Q 51.62902289235045 180.62962921834753 50.37062876498524 179.83386898833504 L 50.37062876498524 179.83386898833504 Q 49.074670633818094 179.01435472160574 48.29950244137798 177.9325851599429 Q 47.52433424893786 176.85081559828004 47.314424982569314 175.5612037986598 Q 47.104515716200765 174.27159199903954 47.488038378755235 172.7919534889995 Q 47.871561041309704 171.31231497895945 48.89298462013173 169.69706281547573 L 48.89298462013173 169.69706281547573 Q 49.914408198953744 168.08181065199204 51.07144543121941 167.1044594047759 Q 52.228482663485075 166.12710815755975 53.46230152608355 165.77674728261613 Q 54.69612038868203 165.4263864076725 55.99387738889155 165.68174788569254 Q 57.29163438910107 165.93710936371255 58.6063745221692 166.76850064880026 Z M 49.456444677160924 170.05337336622762 L 49.456444677160924 170.05337336622762 Q 49.135765181484246 170.56048741755387 49.030665301986524 171.05931660529197 Q 48.9255654224888 171.55814579303006 48.97624666169584 171.99772955197508 Q 49.026927900902876 172.43731331092013 49.232423784451285 172.77760161986222 Q 49.43791966799969 173.11788992880435 49.738431698415255 173.30792222253868 L 49.738431698415255 173.30792222253868 Q 50.283109753543485 173.65235575493216 50.938412791666394 173.34369852392732 Q 51.5937158297893 173.03504129292247 52.33009096800983 171.87055717506212 L 52.33009096800983 171.87055717506212 Q 53.06646610623035 170.7060730572018 53.064399077819196 169.9817201836531 Q 53.06233204940804 169.25736731010443 52.517653994279826 168.91293377771095 L 52.517653994279826 168.91293377771095 Q 52.21714196386425 168.7229014839766 51.821613786581516 168.68312520545007 Q 51.42608560929878 168.64334892692352 51.00721680098148 168.78600722690868 Q 50.58834799266418 168.9286655268938 50.18273608275089 169.23746242089757 Q 49.7771241728376 169.54625931490133 49.456444677160924 170.05337336622762 Z" fill-opacity="1"/></g></g><g><g><path fill="rgb(0,0,0)" stroke="none" paint-order="stroke fill markers" d="" fill-opacity="1"/></g></g><g><g><path fill="rgb(0,0,0)" stroke="none" paint-order="stroke fill markers" d="" fill-opacity="1"/></g></g><g><g><path fill="rgb(0,0,0)" stroke="none" paint-order="stroke fill markers" d=" M 21.76309959150116 137.02304171284408 L 21.76309959150116 137.02304171284408 Q 25.111731152800985 135.08970837951074 27.259757762297742 134.9657551587246 Q 29.407784371794495 134.84180193793844 30.496673260683384 136.7278128172912 L 30.496673260683384 136.7278128172912 Q 31.13000659401672 137.8247783287515 30.93965773614845 138.71730665798316 Q 30.749308878280186 139.60983498721484 29.787058429630807 140.1653905427704 L 29.787058429630807 140.1653905427704 Q 29.32517821427911 140.43205720943706 28.825498845720222 140.56658715559914 Q 28.325819477161335 140.7011171017612 27.84389651095082 140.79973537228364 Q 27.3619735447403 140.89835364280606 26.929651707586874 140.99399470007924 Q 26.497329870433447 141.08963575735243 26.189409726865645 141.2674135351302 L 26.189409726865645 141.2674135351302 Q 25.689039493567968 141.5563024240191 25.605521043585796 141.98942200305837 Q 25.522002593603627 142.4225415820976 25.722002593603627 142.76895174361138 L 25.722002593603627 142.76895174361138 Q 25.922002593603626 143.11536190512516 26.348476881405624 143.25403703971998 Q 26.774951169207625 143.3927121743148 27.2753214025053 143.1038232854259 L 27.2753214025053 143.1038232854259 Q 27.5832415460731 142.92604550764813 27.882230049893195 142.5994643426991 Q 28.181218553713293 142.27288317775006 28.507585964368253 141.9048347816058 Q 28.833953375023214 141.53678638546157 29.200299410248764 141.17131633162364 Q 29.566645445474318 140.80584627778572 30.00928065185303 140.55029072223016 L 30.00928065185303 140.55029072223016 Q 30.971531100502407 139.9947351666746 31.850768847259562 140.29539739376816 Q 32.73000659401672 140.5960596208617 33.363339927350054 141.693025132322 L 33.363339927350054 141.693025132322 Q 34.47445103846117 143.61752602962073 33.292001359949374 145.48057422015594 Q 32.10955168143759 147.34362241069115 28.81865514705672 149.24362241069116 L 28.81865514705672 149.24362241069116 Q 25.508513603702866 151.15473352180226 23.303841702968853 151.24724088682262 Q 21.09916980223484 151.33974825184296 19.988058691123726 149.41524735454422 L 19.988058691123726 149.41524735454422 Q 19.354725357790393 148.31828184308392 19.53396310454755 147.40650850487927 Q 19.713200851304705 146.49473516667462 20.675451299954084 145.93917961111904 L 20.675451299954084 145.93917961111904 Q 21.118086506332794 145.68362405556348 21.61776587489168 145.5490941094014 Q 22.117445243450568 145.41456416323933 22.599368209661083 145.3159458927169 Q 23.0812911758716 145.2173276221945 23.503990508538536 145.12724212047686 Q 23.92668984120547 145.03715661875924 24.25385499374626 144.84826772987034 L 24.25385499374626 144.84826772987034 Q 24.754225227043932 144.55937884098145 24.847366181512598 144.12070370638665 Q 24.940507135981264 143.68202857179182 24.740507135981264 143.33561841027804 L 24.740507135981264 143.33561841027804 Q 24.540507135981265 142.98920824876427 24.123655352665757 142.84497755861392 Q 23.706803569350253 142.70074686846354 23.206433336052577 142.98963575735243 L 23.206433336052577 142.98963575735243 Q 22.87926818351179 143.17852464624133 22.589902184178186 143.4995502556348 Q 22.30053618484459 143.82057586502827 21.97416877418963 144.18862426117252 Q 21.647801363534665 144.55667265731677 21.281455328309114 144.9221427111547 Q 20.91510929308356 145.28761276499262 20.453229077731862 145.5542794316593 L 20.453229077731862 145.5542794316593 Q 19.490978629082484 146.10983498721484 18.622851993436438 145.8284177690943 Q 17.75472535779039 145.54700055097373 17.12139202445706 144.45003503951344 L 17.12139202445706 144.45003503951344 Q 16.03250313556817 142.56402416016067 17.213863078398255 140.7657551587246 Q 18.39522302122834 138.96748615728853 21.76309959150116 137.02304171284408 Z" fill-opacity="1"/></g></g><g><g><path fill="rgb(0,0,0)" stroke="none" paint-order="stroke fill markers" d=" M 20.887919792695477 123.89522035502995 L 20.887919792695477 123.89522035502995 Q 22.67483972316094 123.21753101534865 24.052573141037534 124.06160915937129 Q 25.43030655891413 124.90568730339393 26.304998613619052 127.21206070201795 L 26.304998613619052 127.21206070201795 Q 27.455494469357056 130.24566895606395 26.2603073248722 132.32696052699737 Q 25.06512018038735 134.40825209793076 21.366611487098375 135.810911428899 L 21.366611487098375 135.810911428899 Q 17.647324655083057 137.2214508684682 15.327066300515547 136.46150858173138 Q 13.006807945948038 135.70156629499456 11.879952416012868 132.73029245712758 L 11.879952416012868 132.73029245712758 Q 11.01314046990889 130.44469719722989 11.51439751322805 128.85236196243173 Q 12.01565455654721 127.26002672763357 13.82335262573901 126.57445727935134 L 13.82335262573901 126.57445727935134 Q 15.173931642951278 126.0622502202899 16.157270027903984 126.46173592786295 Q 17.140608412856697 126.861221635436 17.61341492891341 128.10790995901655 L 17.61341492891341 128.10790995901655 Q 17.849818186941768 128.73125412080682 17.896356009356552 129.35530473522564 Q 17.94289383177133 129.97935534964444 17.972593569760242 130.62167514202739 Q 18.002293307749152 131.2639949344103 18.064591347365823 131.92960182628178 Q 18.126889386982498 132.5952087181533 18.394813079414636 133.30166543484893 L 18.394813079414636 133.30166543484893 Q 18.757298075058117 134.2574598162607 19.217614352147233 134.59386827846382 Q 19.67793062923635 134.93027674066695 19.96882457140515 134.81995522025372 L 19.96882457140515 134.81995522025372 Q 20.197384097394917 134.73327402564334 20.27047899753256 134.45600275450965 Q 20.343573897670204 134.17873148337594 20.1859717256513 133.7631687088491 L 20.1859717256513 133.7631687088491 Q 20.059889988036176 133.43071848922762 19.822037448188393 133.1168906738845 Q 19.58418490834061 132.80306285854144 19.32555422976649 132.49711515179928 Q 19.066923551192364 132.19116744505712 18.821190902743638 131.85656149098767 Q 18.575458254294908 131.52195553691826 18.42573619087695 131.12717090111772 L 18.42573619087695 131.12717090111772 Q 18.173572715646703 130.46227046187477 18.355223004626243 130.00122954387595 Q 18.536873293605787 129.5401886258771 18.931657929406292 129.39046656245915 L 18.931657929406292 129.39046656245915 Q 19.30566442648046 129.24862460764214 19.747358299291193 129.47326226761263 Q 20.18905217210193 129.69789992758308 20.44121564733218 130.36280036682604 L 20.44121564733218 130.36280036682604 Q 20.58305760214919 130.73680686390023 20.621008863334495 131.1502139039791 Q 20.658960124519794 131.563620944058 20.682582262041453 131.97057896907418 Q 20.70620439956311 132.37753699409038 20.732335497846993 132.75977682607976 Q 20.75846659613088 133.14201665806914 20.884548333746004 133.47446687769062 L 20.884548333746004 133.47446687769062 Q 21.04215050576491 133.89002965221746 21.2807276865224 134.04909929433697 Q 21.519304867279896 134.2081689364565 21.747864393269662 134.1214877418461 L 21.747864393269662 134.1214877418461 Q 22.03875833543846 134.01116622143286 22.153780927624233 133.4684438420669 Q 22.268803519810007 132.92572146270095 21.906318524166526 131.9699270812892 L 21.906318524166526 131.9699270812892 Q 21.638394831734388 131.26347036459356 21.254035641859407 130.7200051560367 Q 20.869676451984425 130.17653994747985 20.455581147558178 129.68000216421441 Q 20.04148584313193 129.18346438094898 19.67288687045884 128.6815554498448 Q 19.30428789778575 128.17964651874067 19.067884639757388 127.55630235695038 L 19.067884639757388 127.55630235695038 Q 18.595078123700674 126.30961403336983 19.066209449591945 125.3585207237306 Q 19.537340775483212 124.40742741409139 20.887919792695477 123.89522035502995 Z" fill-opacity="1"/></g></g><g><g><path fill="rgb(0,0,0)" stroke="none" paint-order="stroke fill markers" d=" M 14.718439078482376 113.98558743698229 L 14.718439078482376 113.98558743698229 Q 14.429513076361424 112.57033427292123 15.088433214827077 111.68735555765215 Q 15.74735335329273 110.80437684238308 17.119060266151905 110.52434087109661 L 17.119060266151905 110.52434087109661 Q 18.294809048602627 110.28431003856537 19.265746919528222 110.59640474789667 Q 20.236684790453815 110.90849945722799 20.984805712442657 111.62897188430715 Q 21.732926634431497 112.3494443113863 22.25800463174094 113.42163913450234 Q 22.783082629050384 114.49383395761836 23.045338538667863 115.77844836807378 L 23.045338538667863 115.77844836807378 Q 23.383159710378514 117.43320591374517 23.126627693762767 118.6763078546825 Q 22.87009567714702 119.91940979561984 22.056541151766165 120.82261705600916 Q 21.242986626385314 121.7258243163985 19.879077115365227 122.32179658464122 Q 18.51516760434514 122.91776885288395 16.642678802664364 123.30004017876705 L 16.642678802664364 123.30004017876705 Q 14.770190000983584 123.68231150465016 13.294929128789716 123.67730031115843 Q 11.81966825659585 123.67228911766671 10.747850885529475 123.19934444977962 Q 9.6760335144631 122.72639978189252 8.992328066306502 121.76597102171775 Q 8.308622618149904 120.80554226154297 7.9974715389427224 119.2814234694772 L 7.9974715389427224 119.2814234694772 Q 7.833005968504642 118.47581782224246 7.818729769564513 117.62821050428651 Q 7.804453570624382 116.78060318633058 8.030359680522519 116.05406666391785 Q 8.256265790420654 115.32753014150512 8.787899561702515 114.76538469009483 Q 9.319533332984376 114.20323923868456 10.251332718407522 113.99033045014207 L 10.251332718407522 113.99033045014207 Q 11.178687088413419 113.75564853599863 11.985874565846679 113.98777021753735 Q 12.793062043279942 114.21989189907606 13.49006528797046 114.68997338174442 Q 14.187068532660977 115.16005486441277 14.786544663632554 115.76344955988068 Q 15.386020794604132 116.36684425534858 15.9328346677967 116.87892740873812 Q 16.479648540989267 117.39101056212768 16.97557071262615 117.70935809281738 Q 17.47149288426304 118.0277056235071 17.950501647483705 117.9299152843277 L 17.950501647483705 117.9299152843277 Q 18.320644782699674 117.85435002223453 18.53747213573849 117.58327858121818 Q 18.754299488777306 117.31220714020185 18.683179242101378 116.96383713058682 L 18.683179242101378 116.96383713058682 Q 18.620949026259943 116.65901337217367 18.345884521311646 116.53372353695586 Q 18.07082001636335 116.40843370173805 17.682670843735757 116.34025113971649 Q 17.294521671108164 116.27206857769494 16.845272161352355 116.18233886581508 Q 16.396022651596546 116.09260915393523 15.976758371048234 115.8720147127071 Q 15.557494090499922 115.65142027147897 15.217976862001567 115.21042011504753 Q 14.878459633503212 114.7694199586161 14.718439078482376 113.98558743698229 Z" fill-opacity="1"/></g></g><g><g><path fill="rgb(0,0,0)" stroke="none" paint-order="stroke fill markers" d=" M 13.579366899930335 100.12435333184908 L 13.579366899930335 100.12435333184908 Q 13.521204986438956 98.68108033449015 14.313232028855342 97.91523418507437 Q 15.105259071271728 97.14938803565859 16.504123668711927 97.0930157195054 L 16.504123668711927 97.0930157195054 Q 17.703150466517812 97.0446965913741 18.611451434947245 97.50849914369597 Q 19.519752403376682 97.97230169601782 20.142613451060217 98.8034512297224 Q 20.765474498743753 99.63460076342697 21.111760728988326 100.77713937928131 Q 21.4580469592329 101.91967799513563 21.510840080709688 103.22972579273835 L 21.510840080709688 103.22972579273835 Q 21.578844779561145 104.91724498965033 21.12622721060301 106.10309845757187 Q 20.673609641644877 107.28895192549341 19.725705800178364 108.0499595656132 Q 18.77780195871185 108.81096720573298 17.335954042740607 109.18043531799006 Q 15.894106126769362 109.54990343024714 13.984544930263695 109.62685611578958 L 13.984544930263695 109.62685611578958 Q 12.074983733758028 109.70380880133202 10.61963095436627 109.46221401537193 Q 9.16427817497451 109.22061922941184 8.182206217314187 108.58186747342232 Q 7.200134259653861 107.9431157174328 6.679346225076184 106.88545019078906 Q 6.1585581904985105 105.82778466414531 6.095922283661642 104.27349066698953 L 6.095922283661642 104.27349066698953 Q 6.062814732905011 103.45193526849292 6.184689182529409 102.61301417933292 Q 6.306563632153807 101.77409309017293 6.646088971410439 101.09320291335176 Q 6.9856143106670725 100.4123127365306 7.600538036127103 99.94272697527393 Q 8.215461761587136 99.47314121401728 9.169347561170872 99.41246067128668 L 9.169347561170872 99.41246067128668 Q 10.12233856208551 99.32957592859673 10.88183823743356 99.68817367247088 Q 11.641337912781612 100.04677141634504 12.253908775770519 100.62257265051689 Q 12.866479638759426 101.19837388468872 13.361401395317298 101.89011751133745 Q 13.85632315187517 102.58186113798617 14.313912014483048 103.17502806282138 Q 14.771500877090926 103.7681949876566 15.209934451697238 104.16197151219204 Q 15.64836802630355 104.5557480367275 16.13686042540965 104.53606246600734 L 16.13686042540965 104.53606246600734 Q 16.51433182471891 104.52085088863267 16.771834237540347 104.28807130500981 Q 17.029336650361785 104.05529172138695 17.015019871656214 103.70002452203705 L 17.015019871656214 103.70002452203705 Q 17.00249269028884 103.3891657226059 16.751088101383004 103.22137490829104 Q 16.49968351247717 103.05358409397617 16.12749802179846 102.92402097228039 Q 15.755312531119744 102.79445785058462 15.326274342538962 102.63382542562253 Q 14.897236153958183 102.47319300066046 14.518787072595781 102.1882004792491 Q 14.140337991233382 101.90320795783775 13.875958821625623 101.41345624411204 Q 13.611579652017866 100.92370453038635 13.579366899930335 100.12435333184908 Z" fill-opacity="1"/></g></g><g><g><path fill="rgb(0,0,0)" stroke="none" paint-order="stroke fill markers" d=" M 22.01720541488653 90.53117442426142 L 22.01720541488653 90.53117442426142 Q 21.84041828384539 91.98714743960524 21.257248916389987 93.10276603342946 Q 20.674079548934582 94.2183846272537 19.648443329344243 94.92211102216268 Q 18.622807109753907 95.62583741707168 17.12429233511993 95.89159352652139 Q 15.62577756048595 96.15734963597112 13.640359812289843 95.91627627546048 L 13.640359812289843 95.91627627546048 Q 11.654942064093733 95.67520291494984 10.252540906641176 95.0572118398651 Q 8.850139749188617 94.43922076478039 8.001998503041023 93.49678387523248 Q 7.153857256893428 92.55434698568457 6.831219242612212 91.33993618178435 Q 6.508581228330996 90.12552537788414 6.685368359372136 88.66955236254033 L 6.685368359372136 88.66955236254033 Q 6.862155490413276 87.21357934719651 7.4660457586235776 86.11166944486794 Q 8.06993602683388 85.00975954253936 9.118971740073675 84.29768164192384 Q 10.168007453313475 83.58560374130833 11.677552326548543 83.32118692830589 Q 13.18709719978361 83.05677011530345 15.172514947979717 83.29784347581409 L 15.172514947979717 83.29784347581409 Q 17.157932696175827 83.53891683632474 18.549303755027296 84.15556861496218 Q 19.940674813878765 84.77222039359961 20.76809515927146 85.70094859165187 Q 21.595515504664156 86.62967678970412 21.894754025295914 87.85243909931087 Q 22.193992545927667 89.07520140891761 22.01720541488653 90.53117442426142 Z M 21.13479752679937 90.42403070847891 L 21.13479752679937 90.42403070847891 Q 21.228548278109066 89.65192380640265 20.686494811541486 89.13839785420588 Q 20.14444134497391 88.6248719020091 19.350274245695466 88.52844255780485 L 19.350274245695466 88.52844255780485 Q 18.556107146417023 88.43201321360058 17.895879865465844 88.79955585304369 Q 17.235652584514668 89.1670984924868 17.141901833204976 89.93920539456306 L 17.141901833204976 89.93920539456306 Q 17.048151081895277 90.71131229663932 17.599895350616663 91.23720764388447 Q 18.151639619338052 91.76310299112961 18.945806718616495 91.85953233533387 L 18.945806718616495 91.85953233533387 Q 19.73997381789494 91.95596167953813 20.390510296692305 91.57604964504665 Q 21.041046775489676 91.19613761055518 21.13479752679937 90.42403070847891 Z" fill-opacity="1"/></g></g><g><g><path fill="rgb(0,0,0)" stroke="none" paint-order="stroke fill markers" d="" fill-opacity="1"/></g></g><g><g><path fill="rgb(0,0,0)" stroke="none" paint-order="stroke fill markers" d=" M 16.909512956885937 55.83814012583454 L 16.909512956885937 55.83814012583454 Q 17.70973907150497 54.151699314561824 19.729252313239616 53.99080414958558 Q 21.748765554974263 53.82990898460933 24.659883622052163 55.21125168246362 L 24.659883622052163 55.21125168246362 Q 32.52994074132483 58.94564021735244 29.05276774327784 66.27362707585888 L 29.05276774327784 66.27362707585888 Q 25.527962238408286 73.70199731598869 17.698058471784968 69.9866617838289 L 17.698058471784968 69.9866617838289 Q 16.272614452733034 69.31028018694852 15.252600256763033 68.53111274395746 Q 14.232586060793032 67.75194530096643 13.663430128034404 66.90384660343832 Q 13.094274195275775 66.05574790591021 12.99180178816876 65.18312272037883 Q 12.889329381061742 64.31049753484746 13.28944243837126 63.467277129211105 L 13.28944243837126 63.467277129211105 Q 13.880085522971022 62.222523197081244 15.072558738805554 61.96435734956091 Q 16.265031954640087 61.70619150204058 17.8711660606141 62.468311611201564 L 17.8711660606141 62.468311611201564 Q 18.132162852834877 62.592156128940225 18.62711244357637 62.97459497441236 Q 19.122062034317864 63.357033819884506 19.66771515266887 63.78812884577486 Q 20.213368271019878 64.2192238716652 20.738432876248382 64.61595246918411 Q 21.26349748147689 65.01268106670302 21.604800978996366 65.17463158989973 L 21.604800978996366 65.17463158989973 Q 22.106717887113245 65.41279412401254 22.461956019383496 65.28619202449059 Q 22.817194151653744 65.15958992496863 22.96009167212143 64.85843978009851 L 22.96009167212143 64.85843978009851 Q 23.11251569395363 64.5372129589037 22.980126670153766 64.14233331078192 Q 22.847737646353906 63.74745366266015 22.325744061912353 63.49976462718283 L 22.325744061912353 63.49976462718283 Q 22.004517240717547 63.34734060535063 21.615581236375508 63.2857734637773 Q 21.22664523203347 63.22420632220397 20.788029373677567 63.16366285422628 Q 20.349413515321665 63.1031193862486 19.880170805680926 63.00344623921722 Q 19.410928096040184 62.90377309218584 18.929087864247983 62.67513705943754 L 18.929087864247983 62.67513705943754 Q 18.186250840234997 62.32265650895059 17.88848515515548 61.86160318807505 Q 17.59071947007596 61.400549867199516 17.800302500095235 60.95886298805666 L 17.800302500095235 60.95886298805666 Q 18.019412031479018 60.49709943258913 18.554828413873516 60.431395918340854 Q 19.090244796268017 60.365692404092584 19.813005143956325 60.708646453215025 L 19.813005143956325 60.708646453215025 Q 20.29484537574853 60.93728248596332 20.67886140990648 61.24248564692371 Q 21.06287744406444 61.5476888078841 21.401976874890785 61.843877304277804 Q 21.741076305717137 62.14006580067151 22.03474729641405 62.40239970549159 Q 22.328418287110967 62.66473361031168 22.64964510830577 62.817157632143875 L 22.64964510830577 62.817157632143875 Q 23.171638692747322 63.0648466676212 23.55648000270676 62.92769439313908 Q 23.941321312666197 62.79054211865696 24.093745334498394 62.46931529746216 L 24.093745334498394 62.46931529746216 Q 24.236642854966078 62.16816515259203 24.110040755444125 61.81292702032178 Q 23.98343865592217 61.457688888051536 23.48152174780529 61.219526353938726 L 23.48152174780529 61.219526353938726 Q 23.140218250285812 61.05757583074202 22.50083562868316 60.90176734911921 Q 21.861453007080506 60.745958867496405 21.187192120308584 60.58589897198917 Q 20.512931233536662 60.42583907648193 19.90366362642102 60.28432034690589 Q 19.29439601930538 60.14280161732985 19.0333992270846 60.01895709959119 L 19.0333992270846 60.01895709959119 Q 17.427265121110587 59.25683699043021 16.873067496698383 58.169865524197306 Q 16.31886987228617 57.0828940579644 16.909512956885937 55.83814012583454 Z" fill-opacity="1"/></g></g><g><g><path fill="rgb(0,0,0)" stroke="none" paint-order="stroke fill markers" d=" M 35.350047294421174 55.37535967367146 L 35.350047294421174 55.37535967367146 Q 34.51688566588215 56.58240267698216 33.48206102377938 57.299221564931955 Q 32.44723638167662 58.01604045288175 31.212042648419146 58.16252231233412 Q 29.97684891516167 58.30900417178649 28.52647695625817 57.84792498083055 Q 27.076104997354665 57.3868457898746 25.430137265567353 56.25071629641229 L 25.430137265567353 56.25071629641229 Q 23.784169533780037 55.11458680294998 22.829599751238746 53.915654567347104 Q 21.87502996869745 52.71672233174423 21.56201045245281 51.4880850188453 Q 21.248990936208166 50.25944770594637 21.527674003310807 49.03420298059589 Q 21.80635707041345 47.80895825524542 22.63951869895248 46.60191525193473 L 22.63951869895248 46.60191525193473 Q 23.472680327491506 45.39487224862403 24.51948166942823 44.6998212868893 Q 25.56628301136495 44.00477032515458 26.826077105494853 43.861767861564076 Q 28.08587119962475 43.718765397973584 29.545387423704852 44.186156419448764 Q 31.00490364778495 44.653547440923944 32.650871379572266 45.78967693438625 L 32.650871379572266 45.78967693438625 Q 34.296839111359574 46.92580642784856 35.24226462872428 48.11842683293221 Q 36.187690146088975 49.311047238015846 36.48873296249966 50.51791662469971 Q 36.78977577891035 51.72478601138357 36.48649235093527 52.94655134087217 Q 36.183208922960205 54.16831667036077 35.350047294421174 55.37535967367146 Z M 34.61850608029348 54.87041323213266 L 34.61850608029348 54.87041323213266 Q 35.06033421663994 54.23031466977093 34.819017117873145 53.52370521466838 Q 34.57770001910635 52.817095759565845 33.91931292639143 52.36264396218092 L 33.91931292639143 52.36264396218092 Q 33.2609258336765 51.908192164796 32.50551802819431 51.92681209330191 Q 31.750110222712117 51.94543202180783 31.30828208636566 52.58553058416957 L 31.30828208636566 52.58553058416957 Q 30.866453950019206 53.225629146531304 31.11060348344336 53.94769469732967 Q 31.354753016867512 54.66976024812804 32.01314010958244 55.12421204551297 L 32.01314010958244 55.12421204551297 Q 32.67152720229736 55.578663842897896 33.4241025731222 55.544587818696144 Q 34.17667794394703 55.51051179449439 34.61850608029348 54.87041323213266 Z" fill-opacity="1"/></g></g><g><g><path fill="rgb(0,0,0)" stroke="none" paint-order="stroke fill markers" d=" M 33.55222090930911 44.711170346066716 L 33.55222090930911 44.711170346066716 Q 30.731518004142195 42.001848430118066 30.391673677397655 39.56475095459837 Q 30.051829350653115 37.12765347907867 32.422486027108185 34.659538437057606 L 32.422486027108185 34.659538437057606 Q 34.269750969800455 32.736331910807436 36.197371248661085 32.461757382425105 Q 38.124991527521715 32.187182854042774 39.93601100640729 33.92669067507799 L 39.93601100640729 33.92669067507799 Q 40.62516001164694 34.58862727954272 40.93536333040339 35.16389625563968 Q 41.24556664915985 35.739165231736635 41.38042530613784 36.192232481448585 Q 41.515283963115834 36.645299731160534 41.6011131871431 37.005054463943395 Q 41.68694241117037 37.364809196726256 41.92734322695164 37.59571731456279 L 41.92734322695164 37.59571731456279 Q 42.183770763785 37.842019306921756 42.60183398310393 37.920040728233836 Q 43.019897202422854 37.998062149545916 43.51682833394291 38.09021175232113 Q 44.01375946546297 38.18236135509635 44.56804981372461 38.391230709849125 Q 45.122340161986266 38.600100064601904 45.66724867775715 39.12349179836471 L 45.66724867775715 39.12349179836471 Q 46.628851940882235 40.04712426971085 46.64203893909944 41.09201728419606 Q 46.65522593731665 42.13691029868127 45.85474446215 42.97029979338968 L 45.85474446215 42.97029979338968 Q 45.331352728387195 43.51520830916056 44.79235347574255 43.675372740775984 Q 44.25335422309791 43.835537172391405 43.766651414957664 43.86105659138823 Q 43.27994860681743 43.88657601038505 42.88719116213592 43.89448659200566 Q 42.49443371745442 43.902397173626284 42.278919474140324 44.12677126835547 L 42.278919474140324 44.12677126835547 Q 42.04801135630379 44.36717208413674 42.15598212232023 44.65575584197969 Q 42.26395288833668 44.94433959982265 42.3504149588936 45.335514928180025 Q 42.436877029450514 45.72669025653741 42.360121301197736 46.20759466700538 Q 42.28336557294495 46.688499077473345 41.68300446656997 47.31354119850465 L 41.68300446656997 47.31354119850465 Q 41.113431109239855 47.906529877431794 40.38780682273704 48.164753174948665 Q 39.66218253623422 48.42297647246554 38.682764877922075 48.17551965250125 Q 37.703347219609924 47.92806283253695 36.445146838115846 47.10470418994605 Q 35.18694645662176 46.281345547355144 33.55222090930911 44.711170346066716 Z M 36.73743872310271 34.30544697684742 L 36.73743872310271 34.30544697684742 Q 36.090895993160416 34.97856926103498 36.19106704301022 35.66022688682426 Q 36.29123809286002 36.34188451261354 36.93230693494341 36.95763949351097 L 36.93230693494341 36.95763949351097 Q 37.58940249807889 37.58878834893082 38.2665274192552 37.65373363747966 Q 38.943652340431505 37.7186789260285 39.5901950703738 37.045556641840946 L 39.5901950703738 37.045556641840946 Q 40.23673780031609 36.37243435765338 40.07499125237655 35.75488361607244 Q 39.913244704437005 35.1373328744915 39.27217586235361 34.52157789359408 L 39.27217586235361 34.52157789359408 Q 38.63110702027022 33.90582291269666 38.007544236657615 33.76907380267826 Q 37.383981453045 33.63232469265986 36.73743872310271 34.30544697684742 Z" fill-opacity="1"/></g></g><g><g><path fill="rgb(0,0,0)" stroke="none" paint-order="stroke fill markers" d=" M 50.805144159880804 28.947854022289448 L 50.805144159880804 28.947854022289448 Q 51.9598948181303 28.080115196167924 53.04009648411076 28.296890474525174 Q 54.12029815009123 28.51366575288242 54.9613373200244 29.632885621647322 L 54.9613373200244 29.632885621647322 Q 55.68222803710997 30.592216937731525 55.81649977917532 31.603203859542514 Q 55.95077152124066 32.61419078135351 55.62057426815781 33.59894212365028 Q 55.29037701507496 34.583693465947064 54.54679916774675 35.51771735586533 Q 53.803221320418544 36.4517412457836 52.75506303062284 37.239381103340065 L 52.75506303062284 37.239381103340065 Q 51.404893030208044 38.25396803849754 50.1718386741183 38.5551126317401 Q 48.93878431802856 38.85625722498266 47.77401655276 38.508449269382226 Q 46.60924878749145 38.16064131378179 45.486119520930636 37.18390555147962 Q 44.36299025436982 36.20716978917745 43.21490503827057 34.67934584133965 L 43.21490503827057 34.67934584133965 Q 42.066819822171325 33.151521893501844 41.43891382507084 31.81654855598095 Q 40.81100782797037 30.481575218460055 40.77880975956089 29.310493487668747 Q 40.74661169115142 28.139411756877436 41.32121203212816 27.109989107350387 Q 41.895812373104896 26.080566457823338 43.1393900050659 25.146078491230924 L 43.1393900050659 25.146078491230924 Q 43.796709610530996 24.65213485174636 44.55636071002649 24.27587406141081 Q 45.31601180952198 23.89961327107526 46.069245815344914 23.792247441497892 Q 46.82247982116783 23.684881611920524 47.55825781669789 23.924198800192528 Q 48.294035812227946 24.163515988464532 48.88584381501987 24.914078134289255 L 48.88584381501987 24.914078134289255 Q 49.495417212554095 25.6512904520198 49.63174204571879 26.480053167534955 Q 49.768066878883474 27.30881588305011 49.642171665337074 28.140044202263844 Q 49.516276451790674 28.971272521477587 49.2281302100148 29.77154031007956 Q 48.93998396823892 30.571808098681533 48.711757260662125 31.28535356874626 Q 48.48353055308533 31.99889903881099 48.40851748414215 32.58341335865697 Q 48.33350441519897 33.16792767850295 48.627200633270874 33.55876636283355 L 48.627200633270874 33.55876636283355 Q 48.854147710871885 33.86077807345265 49.19199959542502 33.94046452941848 Q 49.52985147997814 34.020150985384305 49.81409779585494 33.806553735877465 L 49.81409779585494 33.806553735877465 Q 50.062813322247145 33.61965614255898 50.058088371149594 33.31743817564026 Q 50.053363420052044 33.015220208721544 49.94856632232307 32.635317312861446 Q 49.84376922459409 32.25541441700134 49.732245648743124 31.811073292144222 Q 49.62072207289215 31.366732167287104 49.640282738359275 30.89338047476776 Q 49.6598434038264 30.420028782248416 49.9127166764922 29.924238307964124 Q 50.165589949158004 29.428447833679833 50.805144159880804 28.947854022289448 Z" fill-opacity="1"/></g></g><g><g><path fill="rgb(0,0,0)" stroke="none" paint-order="stroke fill markers" d=" M 62.87359500445658 30.76781845705963 L 62.87359500445658 30.76781845705963 Q 61.53557256569173 31.470066805925768 60.428570916933545 31.536579157083562 Q 59.32156926817536 31.603091508241356 58.34622684394161 31.03582298695455 Q 57.37088441970786 30.468554465667744 56.47333440908882 29.308325017024295 Q 55.57578439846978 28.148095568380842 54.66699241758418 26.416537118214567 L 54.66699241758418 26.416537118214567 Q 53.747873255097616 24.665301867478217 53.29772606678973 23.25770884172736 Q 52.84757887848184 21.850115815976505 52.92962009423145 20.71534108795214 Q 53.01166130998107 19.580566359927776 53.6849213314984 18.687628384826986 Q 54.35818135301574 17.794690409726197 55.676526991210515 17.10276924246103 L 55.676526991210515 17.10276924246103 Q 57.03422623054544 16.390193711993916 58.35865024820628 16.259763145966538 Q 59.68307426586713 16.12933257993916 60.9048654785427 16.592351722584365 Q 62.12665669121829 17.05537086522957 63.21629989805349 18.127330488948814 Q 64.3059431048887 19.199290112668066 65.19408072257234 20.8914949616942 L 65.19408072257234 20.8914949616942 Q 66.08221834025599 22.583699810720333 66.35011073263276 24.074399070594907 Q 66.61800312500951 25.565098330469482 66.30451511190358 26.808797246619996 Q 65.99102709879767 28.05249616277051 65.12099907157962 29.048705953881026 Q 64.25097104436158 30.044915744991542 62.87359500445658 30.76781845705963 Z M 64.60377670547021 21.201310409723376 L 64.60377670547021 21.201310409723376 Q 64.32494280224394 20.670036794331452 63.94549399326246 20.329603034882698 Q 63.56604518428097 19.989169275433945 63.16001386234001 19.813268636609997 Q 62.75398254039904 19.63736799778605 62.35653627847012 19.645188498841044 Q 61.9590900165412 19.653008999896038 61.64426120742006 19.8182439055116 L 61.64426120742006 19.8182439055116 Q 61.073633990887984 20.117732171939807 61.01328747493849 20.839569865633788 Q 60.95294095898899 21.56140755932777 61.59322621824929 22.781369194672195 L 61.59322621824929 22.781369194672195 Q 62.233511477509595 24.001330830016617 62.86185298151259 24.361717167676556 Q 63.49019448551559 24.722103505336495 64.06082170204766 24.42261523890829 L 64.06082170204766 24.42261523890829 Q 64.3756505111688 24.257380333292726 64.60786186748216 23.934731023116594 Q 64.84007322379551 23.61208171294046 64.92596191610633 23.178001534092196 Q 65.01185060841715 22.743921355243934 64.94723060855681 22.238252690179618 Q 64.88261060869647 21.732584025115305 64.60377670547021 21.201310409723376 Z" fill-opacity="1"/></g></g><g><g><path fill="rgb(0,0,0)" stroke="none" paint-order="stroke fill markers" d="" fill-opacity="1"/></g></g><g><g><path fill="rgb(0,0,0)" stroke="none" paint-order="stroke fill markers" d="" fill-opacity="1"/></g></g></g></g></svg>