<svg version="1.1" xmlns="http://www.w3.org/2000/svg" xmlns:xlink="http://www.w3.org/1999/xlink" width="200" height="200" viewBox="0 0 200 200"><defs/><g><g/><g><g><g><path fill="rgb(0,0,0)" stroke="none" paint-order="stroke fill markers" d=" M 108.46666666666667 12.213335876464843 L 108.46666666666667 12.213335876464843 Q 108.46666666666667 16.853335876464843 107.30666666666667 19.16000254313151 Q 106.14666666666666 21.466669209798177 103.53333333333333 21.466669209798177 L 103.53333333333333 21.466669209798177 Q 102.01333333333334 21.466669209798177 101.2 20.733335876464842 Q 100.38666666666667 20.00000254313151 100.38666666666667 18.666669209798176 L 100.38666666666667 18.666669209798176 Q 100.38666666666667 18.026669209798175 100.54666666666667 17.426669209798177 Q 100.70666666666666 16.826669209798176 100.89333333333333 16.266669209798177 Q 101.08 15.706669209798177 101.24 15.200002543131511 Q 101.4 14.693335876464843 101.4 14.266669209798177 L 101.4 14.266669209798177 Q 101.4 13.573335876464842 101 13.226669209798176 Q 100.6 12.88000254313151 100.12 12.88000254313151 L 100.12 12.88000254313151 Q 99.64 12.88000254313151 99.24 13.24000254313151 Q 98.84 13.60000254313151 98.84 14.293335876464845 L 98.84 14.293335876464845 Q 98.84 14.72000254313151 99 15.226669209798176 Q 99.16 15.733335876464842 99.34666666666666 16.293335876464845 Q 99.53333333333333 16.853335876464843 99.69333333333333 17.453335876464845 Q 99.85333333333334 18.053335876464843 99.85333333333334 18.666669209798176 L 99.85333333333334 18.666669209798176 Q 99.85333333333334 20.00000254313151 99.01333333333334 20.733335876464842 Q 98.17333333333333 21.466669209798177 96.65333333333334 21.466669209798177 L 96.65333333333334 21.466669209798177 Q 93.98666666666666 21.466669209798177 92.76 19.12000254313151 Q 91.53333333333333 16.77333587646484 91.53333333333333 12.213335876464843 L 91.53333333333333 12.213335876464843 Q 91.53333333333333 7.626669209798177 92.76 5.280002543131509 Q 93.98666666666666 2.9333358764648416 96.65333333333334 2.9333358764648416 L 96.65333333333334 2.9333358764648416 Q 98.17333333333333 2.9333358764648416 99.01333333333334 3.666669209798176 Q 99.85333333333334 4.40000254313151 99.85333333333334 5.733335876464842 L 99.85333333333334 5.733335876464842 Q 99.85333333333334 6.346669209798176 99.69333333333333 6.946669209798177 Q 99.53333333333333 7.546669209798177 99.34666666666666 8.106669209798175 Q 99.16 8.666669209798176 99 9.16000254313151 Q 98.84 9.653335876464842 98.84 10.106669209798177 L 98.84 10.106669209798177 Q 98.84 10.80000254313151 99.24 11.16000254313151 Q 99.64 11.52000254313151 100.12 11.52000254313151 L 100.12 11.52000254313151 Q 100.6 11.52000254313151 101 11.173335876464844 Q 101.4 10.826669209798176 101.4 10.133335876464843 L 101.4 10.133335876464843 Q 101.4 9.68000254313151 101.24 9.186669209798175 Q 101.08 8.693335876464843 100.89333333333333 8.133335876464843 Q 100.70666666666666 7.573335876464842 100.54666666666667 6.9733358764648425 Q 100.38666666666667 6.373335876464843 100.38666666666667 5.733335876464842 L 100.38666666666667 5.733335876464842 Q 100.38666666666667 4.40000254313151 101.2 3.666669209798176 Q 102.01333333333334 2.9333358764648416 103.53333333333333 2.9333358764648416 L 103.53333333333333 2.9333358764648416 Q 106.14666666666666 2.9333358764648416 107.30666666666667 5.24000254313151 Q 108.46666666666667 7.546669209798177 108.46666666666667 12.213335876464843 Z" fill-opacity="1"/></g></g><g><g><path fill="rgb(0,0,0)" stroke="none" paint-order="stroke fill markers" d=" M 125.19524709741812 20.41101031988945 L 125.19524709741812 20.41101031988945 Q 124.68493242221163 22.646844998493098 122.92598478190467 23.462560688882512 Q 121.16703714159772 24.27827637927193 118.28125052153953 23.619614414761237 L 118.28125052153953 23.619614414761237 Q 114.48553118344496 22.753266245224655 113.20014281013556 20.175955188072926 Q 111.91475443682614 17.598644130921198 112.97098713667212 12.970986307764807 L 112.97098713667212 12.970986307764807 Q 114.03315372809027 8.317330406950234 116.33436881592522 6.503933285655297 Q 118.63558390376016 4.690536164360353 122.35330900888019 5.539082659180433 L 122.35330900888019 5.539082659180433 Q 125.2130975512802 6.191810732118956 126.47105817500712 7.7508209459823565 Q 127.72901879873402 9.30983115984575 127.21277023195537 11.57166391610758 L 127.21277023195537 11.57166391610758 Q 126.82706727976442 13.261538963889409 125.77444355084762 13.978620205830307 Q 124.72181982193081 14.695701447771201 123.16193516243989 14.339667953441099 L 123.16193516243989 14.339667953441099 Q 122.38199283269444 14.161651206276046 121.72751586850086 13.793451512562044 Q 121.0730389043073 13.425251818848043 120.41149679285681 13.028087101689774 Q 119.74995468140632 12.630922384531505 119.0434815618964 12.250854907673167 Q 118.33700844238646 11.87078743081483 117.45307380200828 11.669035117361105 L 117.45307380200828 11.669035117361105 Q 116.2571622297319 11.396076105041358 115.61512907807064 11.632470523454284 Q 114.97309592640937 11.868864941867212 114.89002144439901 12.232838029081758 L 114.89002144439901 12.232838029081758 Q 114.82474863710516 12.518816883321762 115.05322426572481 12.776108327265895 Q 115.28169989434446 13.033399771210027 115.8016614475081 13.152077602653394 L 115.8016614475081 13.152077602653394 Q 116.217630690039 13.247019867808088 116.68926746808894 13.21790563624404 Q 117.16090424613887 13.188791404679995 117.63847491576098 13.133679095457763 Q 118.11604558538308 13.078566786235536 118.6136804410912 13.055386446243658 Q 119.11131529679932 13.032206106251778 119.60527877230477 13.144950046122975 L 119.60527877230477 13.144950046122975 Q 120.4372172573666 13.334834576432364 120.77717716514407 13.822714952245873 Q 121.11713707292155 14.310595328059382 121.00439313305036 14.80455880356484 L 121.00439313305036 14.80455880356484 Q 120.89758308475132 15.272524201412114 120.37960642980879 15.564586155344065 Q 119.86162977486626 15.856648109276016 119.02969128980445 15.666763578966627 L 119.02969128980445 15.666763578966627 Q 118.56172589195717 15.559953530667597 118.12342995197073 15.323153094077655 Q 117.6851340119843 15.086352657487714 117.26280405661304 14.839520127854767 Q 116.84047410124178 14.59268759822182 116.44117527774262 14.364787998990133 Q 116.04187645424346 14.136888399758444 115.62590721171254 14.04194613460375 L 115.62590721171254 14.04194613460375 Q 115.1059456585489 13.923268303160382 114.78846165634674 14.055948024088979 Q 114.47097765414456 14.188627745017573 114.40570484685071 14.474606599257577 L 114.40570484685071 14.474606599257577 Q 114.32263036484035 14.838579686472125 114.7884824594379 15.314165457873116 Q 115.25433455403545 15.78975122927411 116.45024612631182 16.062710241593855 L 116.45024612631182 16.062710241593855 Q 117.33418076669001 16.26446255504758 118.13262920556855 16.2415598282041 Q 118.93107764444709 16.218657101360616 119.7023967499827 16.13485738184252 Q 120.4737158555183 16.05105766232442 121.22016813908047 16.016287152336602 Q 121.96662042264265 15.981516642348783 122.7465627523881 16.159533389513836 L 122.7465627523881 16.159533389513836 Q 124.30644741187902 16.51556688384394 124.94369873074405 17.61835107797578 Q 125.58095004960906 18.72113527210762 125.19524709741812 20.41101031988945 Z" fill-opacity="1"/></g></g><g><g><path fill="rgb(0,0,0)" stroke="none" paint-order="stroke fill markers" d=" M 141.76338831483622 22.557950451292385 L 141.76338831483622 22.557950451292385 Q 143.32506768586708 23.31001559909615 143.68982166702523 24.580789239183325 Q 144.05457564818337 25.851562879270496 143.32565096646587 27.36519057734656 L 143.32565096646587 27.36519057734656 Q 142.70085838213657 28.66258574712604 141.69746773966975 29.363288962751422 Q 140.6940770972029 30.0639921783768 139.46247121718 30.25522287286715 Q 138.2308653371571 30.4464535673575 136.8253236942501 30.169150241559358 Q 135.41978205134308 29.891846915761214 134.00225769917662 29.209203166216255 L 134.00225769917662 29.209203166216255 Q 132.1762941268944 28.329865454938005 131.17526795530154 27.18184689943197 Q 130.17424178370868 26.03382834392594 129.90249235209117 24.60065896501855 Q 129.6307429204737 23.16748958611116 130.05223147411544 21.431814034237714 Q 130.47372002775722 19.69613848236427 131.4687600694668 17.62991654530805 L 131.4687600694668 17.62991654530805 Q 132.46380011117643 15.563694608251836 133.54021405142504 14.158213383303297 Q 134.61662799167368 12.752732158354757 135.84693602508912 12.072513297642264 Q 137.07724405850456 11.392294436929774 138.49125713808576 11.43689525525776 Q 139.90527021766695 11.481496073585749 141.5870787710848 12.291412386605188 L 141.5870787710848 12.291412386605188 Q 142.47603472074852 12.719511009201181 143.29601195734898 13.321575603660524 Q 144.11598919394947 13.92364019811987 144.64585544305967 14.667173491290978 Q 145.1757216921699 15.41070678446209 145.3264867799885 16.326847784930628 Q 145.47725186780713 17.242988785399163 145.0037576834297 18.287669986970407 L 145.0037576834297 18.287669986970407 Q 144.55428933552972 19.34392142158478 143.74623439023023 19.946307865322748 Q 142.93817944493074 20.548694309060714 141.98287068439794 20.872982683547114 Q 141.0275619238651 21.197271058033518 140.01576026268256 21.331566166678556 Q 139.0039586015 21.465861275323597 138.1176285540304 21.616183677946644 Q 137.23129850656085 21.76650608056969 136.56698610390941 22.00894766234226 Q 135.902673701258 22.25138924411482 135.64812857430903 22.77995764661757 L 135.64812857430903 22.77995764661757 Q 135.45143461257572 23.188396866733335 135.5528501808321 23.59240923489346 Q 135.65426574908847 23.99642160305358 136.03867913272683 24.18154533174374 L 136.03867913272683 24.18154533174374 Q 136.3750408434104 24.343528594347628 136.69452009870406 24.171806257441332 Q 137.01399935399772 24.000083920535033 137.36107613631253 23.678864133438346 Q 137.70815291862735 23.357644346341658 138.1201940382661 22.99371531761618 Q 138.53223515790484 22.6297862888907 139.04749279556142 22.389558133095953 Q 139.56275043321804 22.14932997730121 140.23060431743397 22.14537601952037 Q 140.8984582016499 22.141422061739526 141.76338831483622 22.557950451292385 Z" fill-opacity="1"/></g></g><g><g><path fill="rgb(0,0,0)" stroke="none" paint-order="stroke fill markers" d=" M 157.94877016849165 33.79281249139474 L 157.94877016849165 33.79281249139474 Q 159.3039447381029 34.873528147949884 159.37677983817417 36.19360623628736 Q 159.44961493824542 37.51368432462483 158.40215207112274 38.82716121517112 L 158.40215207112274 38.82716121517112 Q 157.50432675644618 39.952998549925084 156.37017207831602 40.412858250109075 Q 155.2360174001859 40.872717950293065 153.9927376182052 40.78509600132884 Q 152.74945783622454 40.69747405236461 151.44086185186637 40.11436086080899 Q 150.13226586750824 39.531247669253375 148.90218433509187 38.550290380995634 L 148.90218433509187 38.550290380995634 Q 147.31767253062333 37.28668438256194 146.59720233628332 35.94469977047889 Q 145.87673214194334 34.602715158395846 145.93070622465194 33.14500839068912 Q 145.98468030736058 31.687301622982396 146.7818254078191 30.088933107577645 Q 147.57897050827762 28.49056459217289 149.00884045387366 26.697564392379544 L 149.00884045387366 26.697564392379544 Q 150.43871039946967 24.904564192586193 151.8008853897133 23.773845951644088 Q 153.16306037995693 22.643127710701982 154.51388495849562 22.25373264965041 Q 155.8647095370343 21.86433758859884 157.2333457407586 22.222467682387798 Q 158.60198194448293 22.580597776176756 160.0614007117566 23.74444540631306 L 160.0614007117566 23.74444540631306 Q 160.8328077744584 24.359622010813673 161.49825449391278 25.129053689399775 Q 162.16370121336718 25.898485367985874 162.51483088652375 26.741283061758793 Q 162.86596055968036 27.584080755531712 162.80908510091732 28.510800576532073 Q 162.7522096421543 29.43752039753243 162.05812350888877 30.350646892145342 L 162.05812350888877 30.350646892145342 Q 161.38488621515572 31.28039978147448 160.4630473003435 31.687873998278512 Q 159.5412083855313 32.095348215082545 158.53769025817414 32.19892980535499 Q 157.53417213081698 32.30251139562745 156.51785497673671 32.208292394890094 Q 155.50153782265642 32.11407339415274 154.60398003854667 32.06339991033971 Q 153.70642225443692 32.01272642652668 153.00481722347757 32.101266075393504 Q 152.30321219251826 32.18980572426033 151.93743150876114 32.64848019397491 L 151.93743150876114 32.64848019397491 Q 151.6547827985852 33.00291046602708 151.66375445731518 33.41936048757918 Q 151.6727261160452 33.83581050913128 152.0063075485649 34.10183282459101 L 152.0063075485649 34.10183282459101 Q 152.29819130201963 34.33460235061827 152.64787236015803 34.23827627349084 Q 152.99755341829643 34.14195019636342 153.4074063880754 33.906015909733 Q 153.81725935785437 33.670081623102575 154.29995157372267 33.40696482971531 Q 154.78264378959094 33.14384803632803 155.33843863609727 33.02429851271124 Q 155.8942334826036 32.90474898909446 156.54622271396298 33.0495056353524 Q 157.19821194532236 33.19426228161036 157.94877016849165 33.79281249139474 Z" fill-opacity="1"/></g></g><g><g><path fill="rgb(0,0,0)" stroke="none" paint-order="stroke fill markers" d=" M 161.39983043485566 51.03526914631069 L 161.39983043485566 51.03526914631069 Q 160.3024883835843 49.659245737166955 159.83826625427358 48.221729347620816 Q 159.37404412496284 46.784212958074676 159.63451878082643 45.3144973172911 Q 159.89499343669 43.84478167650753 160.92806453174282 42.33877603194466 Q 161.96113562679565 40.832770387381785 163.83753118471893 39.33639486292083 L 163.83753118471893 39.33639486292083 Q 165.7139267426422 37.84001933845987 167.4224780461106 37.15965407783811 Q 169.131029349579 36.47928881721636 170.6510192513344 36.54618532688637 Q 172.1710091530898 36.61308183655639 173.48172050587414 37.35849162297074 Q 174.79243185865846 38.10390140938509 175.88977390992983 39.47992481852882 L 175.88977390992983 39.47992481852882 Q 176.9871159612012 40.855948227672556 177.4221760536213 42.29966659216869 Q 177.85723614604146 43.74338495666482 177.5842258480035 45.24015141193087 Q 177.31121554996557 46.73691786719691 176.2677200351465 48.2512367091179 Q 175.22422452032743 49.76555555103889 173.34782896240415 51.261931075499845 L 173.34782896240415 51.261931075499845 Q 171.47143340448088 52.758306599960804 169.77330652077873 53.430358663224446 Q 168.0751796370766 54.10241072648808 166.58435177221176 54.02931224186808 Q 165.09352390734696 53.956213757248065 163.795348196737 53.183753156351244 Q 162.49717248612703 52.411292555454416 161.39983043485566 51.03526914631069 Z M 162.23378401615489 50.37021335766137 L 162.23378401615489 50.37021335766137 Q 162.81570783122305 51.0999227412982 163.7111543929247 51.067986874609524 Q 164.60660095462632 51.036051007920854 165.35715917779564 50.43750079813647 L 165.35715917779564 50.43750079813647 Q 166.10771740096496 49.838950588352084 166.34853259378352 48.96474794300607 Q 166.58934778660208 48.09054529766004 166.0074239715339 47.36083591402321 L 166.0074239715339 47.36083591402321 Q 165.42550015646577 46.63112653038639 164.51131597763978 46.660951174666934 Q 163.5971317988138 46.690775818947486 162.84657357564447 47.28932602873187 L 162.84657357564447 47.28932602873187 Q 162.09601535247515 47.887876238516256 161.87393777678096 48.7641901062704 Q 161.65186020108675 49.64050397402454 162.23378401615489 50.37021335766137 Z" fill-opacity="1"/></g></g><g><g><path fill="rgb(0,0,0)" stroke="none" paint-order="stroke fill markers" d="" fill-opacity="1"/></g></g><g><g><path fill="rgb(0,0,0)" stroke="none" paint-order="stroke fill markers" d=" M 195.77527432405486 83.4052651924071 L 195.77527432405486 83.4052651924071 Q 196.273721216117 85.58910371569439 194.48986514765429 87.24079368334297 Q 192.70600907919157 88.89248365099155 188.93628781875518 89.75289792895596 L 188.93628781875518 89.75289792895596 Q 178.74504137674785 92.07898342524598 176.5791709529064 82.58968508000956 L 176.5791709529064 82.58968508000956 Q 174.3836310712041 72.97039634648223 184.52288135789505 70.65617863333657 L 184.52288135789505 70.65617863333657 Q 186.36874487162598 70.23487233171261 187.90884295817926 70.21158438978327 Q 189.44894104473258 70.18829644785394 190.61531156417672 70.56486255572057 Q 191.78168208362086 70.94142866358719 192.52642708211033 71.68775254212075 Q 193.2711720805998 72.4340764206543 193.52039552663086 73.52599568229795 L 193.52039552663086 73.52599568229795 Q 193.8882968041053 75.13787649710524 192.95616579364201 76.26693638204365 Q 192.02403478317876 77.39599626698208 189.9441885705242 77.87070759275555 L 189.9441885705242 77.87070759275555 Q 189.60621356096783 77.94784818319374 188.8556630759348 77.95504173547928 Q 188.1051125909018 77.96223528776481 187.27063398132208 77.96123243710868 Q 186.43615537174236 77.96022958645254 185.64660777022206 77.97632397609632 Q 184.85706016870176 77.99241836574012 184.41509284851267 78.09329452246698 L 184.41509284851267 78.09329452246698 Q 183.76514090705814 78.24164181177119 183.52437067402596 78.6248254425354 Q 183.2836004409938 79.0080090732996 183.37260881457632 79.39798023817234 L 183.37260881457632 79.39798023817234 Q 183.467551079731 79.81394948070324 183.88563362551167 80.0877829386505 Q 184.3037161712923 80.36161639659778 184.97966619040503 80.2073352157214 L 184.97966619040503 80.2073352157214 Q 185.39563543293593 80.1123929505667 185.8079332952642 79.88152640554894 Q 186.22023115759245 79.65065986053116 186.6785912836649 79.38192745471088 Q 187.13695140973732 79.11319504889057 187.6532415826983 78.85859293758413 Q 188.1695317556593 78.60399082627768 188.79348561945565 78.46157742854565 L 188.79348561945565 78.46157742854565 Q 189.7554144928084 78.24202344037542 190.37851471406842 78.45538672691625 Q 191.0016149353284 78.66875001345707 191.1321605499161 79.24070772193707 L 191.1321605499161 79.24070772193707 Q 191.26864005607598 79.83866350807526 190.81282005452144 80.29828329486108 Q 190.3570000529669 80.7579030816469 189.42106925727236 80.97152317824496 L 189.42106925727236 80.97152317824496 Q 188.797115393476 81.11393657597701 188.20848726596424 81.11152485648772 Q 187.61985913845248 81.10911313699842 187.08026022047102 81.08183459553571 Q 186.54066130248953 81.05455605407299 186.0690245244396 81.02544182250894 Q 185.59738774638967 80.99632759094489 185.18141850385877 81.09126985609959 L 185.18141850385877 81.09126985609959 Q 184.50546848474602 81.24555103697597 184.24463406562785 81.66066663697052 Q 183.98379964650968 82.07578223696507 184.07874191166437 82.49175147949599 L 184.07874191166437 82.49175147949599 Q 184.16775028524688 82.88172264436872 184.5509339160111 83.12249287740087 Q 184.9341175467753 83.36326311043304 185.58406948822986 83.21491582112883 L 185.58406948822986 83.21491582112883 Q 186.02603680841895 83.11403966440197 186.7443777110732 82.78596834285999 Q 187.46271861372747 82.45789702131802 188.21708968708293 82.1079258235887 Q 188.9714607604384 81.75795462585938 189.65080454660537 81.43878414167565 Q 190.33014833277238 81.11961365749194 190.66812334232873 81.04247306705375 L 190.66812334232873 81.04247306705375 Q 192.74796955498329 80.56776174128028 194.07767130078184 81.18057305944005 Q 195.4073730465804 81.79338437759982 195.77527432405486 83.4052651924071 Z" fill-opacity="1"/></g></g><g><g><path fill="rgb(0,0,0)" stroke="none" paint-order="stroke fill markers" d=" M 178.53333079020183 100 L 178.53333079020183 100 Q 178.53333079020183 98.24 179.06666412353516 96.82666666666667 Q 179.5999974568685 95.41333333333333 180.7199974568685 94.42666666666666 Q 181.8399974568685 93.44 183.58666412353514 92.90666666666667 Q 185.3333307902018 92.37333333333333 187.73333079020182 92.37333333333333 L 187.73333079020182 92.37333333333333 Q 190.13333079020182 92.37333333333333 191.89333079020182 92.90666666666667 Q 193.65333079020184 93.44 194.79999745686848 94.44 Q 195.94666412353516 95.44 196.50666412353516 96.84 Q 197.06666412353516 98.24 197.06666412353516 100 L 197.06666412353516 100 Q 197.06666412353516 101.76 196.50666412353516 103.16 Q 195.94666412353516 104.56 194.79999745686848 105.56 Q 193.65333079020184 106.56 191.89333079020182 107.09333333333333 Q 190.13333079020182 107.62666666666667 187.73333079020182 107.62666666666667 L 187.73333079020182 107.62666666666667 Q 185.3333307902018 107.62666666666667 183.58666412353514 107.09333333333333 Q 181.8399974568685 106.56 180.7199974568685 105.57333333333334 Q 179.5999974568685 104.58666666666667 179.06666412353516 103.17333333333333 Q 178.53333079020183 101.76 178.53333079020183 100 Z M 179.5999974568685 100 L 179.5999974568685 100 Q 179.5999974568685 100.93333333333334 180.3199974568685 101.46666666666667 Q 181.0399974568685 102 181.9999974568685 102 L 181.9999974568685 102 Q 182.95999745686848 102 183.69333079020183 101.46666666666667 Q 184.42666412353515 100.93333333333334 184.42666412353515 100 L 184.42666412353515 100 Q 184.42666412353515 99.06666666666666 183.69333079020183 98.52 Q 182.95999745686848 97.97333333333333 181.9999974568685 97.97333333333333 L 181.9999974568685 97.97333333333333 Q 181.0399974568685 97.97333333333333 180.3199974568685 98.52 Q 179.5999974568685 99.06666666666666 179.5999974568685 100 Z" fill-opacity="1"/></g></g><g><g><path fill="rgb(0,0,0)" stroke="none" paint-order="stroke fill markers" d=" M 187.17736098153938 112.32103519521758 L 187.17736098153938 112.32103519521758 Q 191.7530226493794 113.36540011191921 193.6083838329477 115.66251699828332 Q 195.46374501651601 117.95963388464743 194.5499257144021 121.96333784400746 L 194.5499257144021 121.96333784400746 Q 193.83785872574188 125.0831071629893 192.02452401372042 126.55654437650676 Q 190.211189301699 128.02998159002422 187.2734065263244 127.3594518423692 L 187.2734065263244 127.3594518423692 Q 186.1554891870226 127.10429450476596 185.480948036743 126.7041628418216 Q 184.80640688646344 126.30403117887725 184.38774831129484 125.92127436938122 Q 183.96908973612625 125.5385175598852 183.65852167306122 125.2214603789512 Q 183.34795360999618 124.9044031980172 182.95798244512343 124.81539482443468 L 182.95798244512343 124.81539482443468 Q 182.54201320259253 124.72045255927999 182.06373809855384 124.8984901095362 Q 181.58546299451518 125.07652765979242 181.01732587435762 125.28875969064849 Q 180.44918875420004 125.50099172150458 179.74992999006682 125.62859119339736 Q 179.0506712259336 125.75619066529015 178.1667365855554 125.55443835183641 L 178.1667365855554 125.55443835183641 Q 176.6068519260645 125.19840485750632 175.94770073101213 124.13165083407566 Q 175.28854953595976 123.06489681064501 175.59711189771252 121.71299677241954 L 175.59711189771252 121.71299677241954 Q 175.79886421116623 120.82906213204136 176.25438579648122 120.33127806821346 Q 176.7099073817962 119.83349400438556 177.19482081182363 119.50653313543718 Q 177.67973424185107 119.17957226648879 178.07888385723044 118.92876994041362 Q 178.4780334726098 118.67796761433846 178.56110795462016 118.31399452712391 L 178.56110795462016 118.31399452712391 Q 178.6501163282027 117.92402336225118 178.36074370690844 117.69386125164998 Q 178.07137108561417 117.46369914104878 177.74073883646312 117.11470999088444 Q 177.41010658731207 116.76572084072009 177.19194066488382 116.2235817982207 Q 176.9737747424556 115.68144275572133 177.20519651377015 114.66751772705223 L 177.20519651377015 114.66751772705223 Q 177.4247505019404 113.7055888536995 178.01167134437944 112.99162376566447 Q 178.59859218681845 112.27765867762943 179.75902881469045 111.927090647421 Q 180.91946544256243 111.57652261721255 182.7225112514836 111.64615043603447 Q 184.52555706040482 111.7157782548564 187.17736098153938 112.32103519521758 Z M 190.32982552696 124.9935851692923 L 190.32982552696 124.9935851692923 Q 190.5790489729911 123.90166590764866 190.05484001023683 123.26232208862508 Q 189.5306310474826 122.6229782696015 188.4907079411553 122.38562260671476 L 188.4907079411553 122.38562260671476 Q 187.42478675716984 122.14233305225585 186.68808895350227 122.49388313002927 Q 185.9513911498347 122.84543320780269 185.70216770380364 123.93735246944632 L 185.70216770380364 123.93735246944632 Q 185.45294425777257 125.02927173108998 186.0008887868155 125.56462323948082 Q 186.54883331585842 126.09997474787168 187.5887564221857 126.33733041075843 L 187.5887564221857 126.33733041075843 Q 188.62867952851298 126.57468607364515 189.35464080472096 126.33009525229055 Q 190.08060208092894 126.08550443093594 190.32982552696 124.9935851692923 Z" fill-opacity="1"/></g></g><g><g><path fill="rgb(0,0,0)" stroke="none" paint-order="stroke fill markers" d=" M 177.44204954870762 141.76338831483622 L 177.44204954870762 141.76338831483622 Q 176.68998440090385 143.32506768586708 175.41921076081667 143.68982166702523 Q 174.1484371207295 144.05457564818337 172.63480942265343 143.32565096646587 L 172.63480942265343 143.32565096646587 Q 171.33741425287397 142.70085838213657 170.63671103724857 141.69746773966975 Q 169.9360078216232 140.6940770972029 169.74477712713286 139.46247121718 Q 169.5535464326425 138.2308653371571 169.83084975844065 136.8253236942501 Q 170.10815308423878 135.41978205134308 170.79079683378373 134.00225769917662 L 170.79079683378373 134.00225769917662 Q 171.67013454506198 132.1762941268944 172.81815310056803 131.17526795530154 Q 173.96617165607407 130.17424178370868 175.39934103498146 129.90249235209117 Q 176.83251041388883 129.6307429204737 178.5681859657623 130.05223147411544 Q 180.30386151763574 130.47372002775722 182.37008345469195 131.4687600694668 L 182.37008345469195 131.4687600694668 Q 184.43630539174816 132.46380011117643 185.8417866166967 133.54021405142504 Q 187.24726784164523 134.61662799167368 187.92748670235773 135.84693602508912 Q 188.60770556307023 137.07724405850456 188.56310474474225 138.49125713808576 Q 188.51850392641424 139.90527021766695 187.7085876133948 141.5870787710848 L 187.7085876133948 141.5870787710848 Q 187.28048899079883 142.47603472074852 186.67842439633947 143.29601195734898 Q 186.07635980188013 144.11598919394947 185.33282650870902 144.64585544305967 Q 184.5892932155379 145.17572169216987 183.67315221506936 145.3264867799885 Q 182.75701121460085 145.47725186780713 181.7123300130296 145.0037576834297 L 181.7123300130296 145.0037576834297 Q 180.65607857841522 144.55428933552972 180.05369213467725 143.74623439023023 Q 179.45130569093928 142.93817944493074 179.12701731645288 141.98287068439794 Q 178.80272894196648 141.0275619238651 178.66843383332144 140.01576026268256 Q 178.5341387246764 139.0039586015 178.38381632205335 138.1176285540304 Q 178.23349391943032 137.23129850656085 177.99105233765775 136.56698610390941 Q 177.74861075588518 135.902673701258 177.22004235338244 135.64812857430903 L 177.22004235338244 135.64812857430903 Q 176.81160313326666 135.45143461257572 176.40759076510653 135.5528501808321 Q 176.0035783969464 135.65426574908847 175.81845466825627 136.03867913272683 L 175.81845466825627 136.03867913272683 Q 175.65647140565238 136.3750408434104 175.82819374255868 136.69452009870406 Q 175.99991607946495 137.01399935399772 176.32113586656166 137.36107613631253 Q 176.64235565365834 137.70815291862735 177.0062846823838 138.1201940382661 Q 177.3702137111093 138.53223515790484 177.61044186690404 139.04749279556142 Q 177.85067002269878 139.56275043321804 177.85462398047963 140.23060431743397 Q 177.85857793826048 140.8984582016499 177.44204954870762 141.76338831483622 Z" fill-opacity="1"/></g></g><g><g><path fill="rgb(0,0,0)" stroke="none" paint-order="stroke fill markers" d=" M 161.923561868417 148.30799240841617 L 161.923561868417 148.30799240841617 Q 163.05415670912083 146.89027132020746 164.2380588791253 146.28249021316236 Q 165.42196104912975 145.67470910611726 166.7673738063647 145.8267254115383 Q 168.11278656359968 145.97874171695935 169.6591646724476 146.81969571889096 Q 171.20554278129552 147.66064972082256 173.04024066015384 149.12377245585105 L 173.04024066015384 149.12377245585105 Q 174.89578737854464 150.6035215855958 176.07018282868543 151.93231209413256 Q 177.24457827882625 153.26110260266935 177.7025901411509 154.54726944020246 Q 178.1606020034755 155.83343627773556 177.85235109383524 157.13952596286245 Q 177.544100184195 158.44561564798934 176.4301317382074 159.84248789666555 L 176.4301317382074 159.84248789666555 Q 175.28291050278733 161.28105782440673 173.89104670655558 162.06407453734417 Q 172.49918291032384 162.8470912502816 170.9334045769616 162.9286346245341 Q 169.36762624359935 163.01017799878662 167.65287296518096 162.35897477505546 Q 165.9381196867626 161.7077715513243 164.14511948696924 160.2779016057283 L 164.14511948696924 160.2779016057283 Q 162.3521192871759 158.84803166013225 161.3377858092474 157.33991479316126 Q 160.32345233131895 155.83179792619026 160.06706842799724 154.31418263139173 Q 159.8106845246755 152.7965673365932 160.28519938147812 151.28198925614151 Q 160.7597142382807 149.76741117568983 161.923561868417 148.30799240841617 Z M 164.64391132845623 159.65243641975385 L 164.64391132845623 159.65243641975385 Q 165.2068299958332 160.10134907709215 165.7880912035114 160.2920258472313 Q 166.36935241118962 160.48270261737045 166.90033935789597 160.47980124131607 Q 167.43132630460235 160.47689986526166 167.8641393363219 160.27632959047185 Q 168.29695236804147 160.075759315682 168.5629746835012 159.7421778831623 L 168.5629746835012 159.7421778831623 Q 169.04514013027196 159.13756153672037 168.76275895066283 158.31548099020554 Q 168.48037777105367 157.49340044369072 167.18774972003985 156.46256397128428 L 167.18774972003985 156.46256397128428 Q 165.89512166902605 155.43172749887785 165.03081667434876 155.33935633599987 Q 164.16651167967146 155.24698517312186 163.6843462329007 155.85160151956381 L 163.6843462329007 155.85160151956381 Q 163.41832391744097 156.1851829520835 163.3190923182411 156.65177554233307 Q 163.2198607190412 157.11836813258262 163.33518779784177 157.63668774484023 Q 163.4505148766423 158.15500735709784 163.76575376886078 158.67926555975671 Q 164.08099266107925 159.20352376241556 164.64391132845623 159.65243641975385 Z" fill-opacity="1"/></g></g><g><g><path fill="rgb(0,0,0)" stroke="none" paint-order="stroke fill markers" d="" fill-opacity="1"/></g></g><g><g><path fill="rgb(0,0,0)" stroke="none" paint-order="stroke fill markers" d="" fill-opacity="1"/></g></g><g><g><path fill="rgb(0,0,0)" stroke="none" paint-order="stroke fill markers" d="" fill-opacity="1"/></g></g><g><g><path fill="rgb(0,0,0)" stroke="none" paint-order="stroke fill markers" d=" M 91.53333333333335 187.78666412353516 L 91.53333333333335 187.78666412353516 Q 91.53333333333335 183.14666412353515 92.69333333333334 180.8399974568685 Q 93.85333333333335 178.53333079020183 96.46666666666668 178.53333079020183 L 96.46666666666668 178.53333079020183 Q 97.98666666666668 178.53333079020183 98.80000000000001 179.26666412353515 Q 99.61333333333334 179.9999974568685 99.61333333333334 181.3333307902018 L 99.61333333333334 181.3333307902018 Q 99.61333333333334 181.97333079020183 99.45333333333335 182.57333079020182 Q 99.29333333333335 183.17333079020182 99.10666666666668 183.73333079020182 Q 98.92000000000002 184.29333079020182 98.76000000000002 184.79999745686848 Q 98.60000000000001 185.30666412353514 98.60000000000001 185.73333079020182 L 98.60000000000001 185.73333079020182 Q 98.60000000000001 186.42666412353515 99.00000000000001 186.7733307902018 Q 99.40000000000002 187.11999745686848 99.88000000000001 187.11999745686848 L 99.88000000000001 187.11999745686848 Q 100.36000000000001 187.11999745686848 100.76000000000002 186.7599974568685 Q 101.16000000000001 186.39999745686848 101.16000000000001 185.70666412353515 L 101.16000000000001 185.70666412353515 Q 101.16000000000001 185.2799974568685 101.00000000000001 184.7733307902018 Q 100.84000000000002 184.26666412353515 100.65333333333335 183.70666412353515 Q 100.46666666666668 183.14666412353515 100.30666666666669 182.54666412353515 Q 100.14666666666668 181.94666412353516 100.14666666666668 181.3333307902018 L 100.14666666666668 181.3333307902018 Q 100.14666666666668 179.9999974568685 100.98666666666668 179.26666412353515 Q 101.82666666666668 178.53333079020183 103.34666666666668 178.53333079020183 L 103.34666666666668 178.53333079020183 Q 106.01333333333335 178.53333079020183 107.24000000000001 180.8799974568685 Q 108.46666666666668 183.22666412353516 108.46666666666668 187.78666412353516 L 108.46666666666668 187.78666412353516 Q 108.46666666666668 192.37333079020183 107.24000000000002 194.7199974568685 Q 106.01333333333335 197.06666412353516 103.34666666666668 197.06666412353516 L 103.34666666666668 197.06666412353516 Q 101.82666666666668 197.06666412353516 100.98666666666668 196.3333307902018 Q 100.14666666666669 195.5999974568685 100.14666666666669 194.26666412353515 L 100.14666666666669 194.26666412353515 Q 100.14666666666669 193.65333079020184 100.30666666666669 193.0533307902018 Q 100.46666666666668 192.45333079020182 100.65333333333335 191.89333079020182 Q 100.84000000000002 191.3333307902018 101.00000000000001 190.8399974568685 Q 101.16000000000001 190.34666412353516 101.16000000000001 189.89333079020182 L 101.16000000000001 189.89333079020182 Q 101.16000000000001 189.1999974568685 100.76000000000002 188.8399974568685 Q 100.36000000000001 188.4799974568685 99.88000000000001 188.4799974568685 L 99.88000000000001 188.4799974568685 Q 99.40000000000002 188.4799974568685 99.00000000000001 188.82666412353515 Q 98.60000000000001 189.17333079020182 98.60000000000001 189.86666412353514 L 98.60000000000001 189.86666412353514 Q 98.60000000000001 190.3199974568685 98.76000000000002 190.81333079020183 Q 98.92000000000002 191.30666412353514 99.10666666666668 191.86666412353514 Q 99.29333333333335 192.42666412353515 99.45333333333335 193.02666412353517 Q 99.61333333333334 193.62666412353516 99.61333333333334 194.26666412353515 L 99.61333333333334 194.26666412353515 Q 99.61333333333334 195.5999974568685 98.80000000000001 196.3333307902018 Q 97.98666666666668 197.06666412353516 96.46666666666668 197.06666412353516 L 96.46666666666668 197.06666412353516 Q 93.85333333333335 197.06666412353516 92.69333333333334 194.7599974568685 Q 91.53333333333335 192.45333079020182 91.53333333333335 187.78666412353516 Z" fill-opacity="1"/></g></g><g><g><path fill="rgb(0,0,0)" stroke="none" paint-order="stroke fill markers" d=" M 74.80475290258188 179.58898968011053 L 74.80475290258188 179.58898968011053 Q 75.31506757778837 177.35315500150688 77.07401521809533 176.53743931111748 Q 78.83296285840228 175.72172362072806 81.71874947846047 176.38038558523874 L 81.71874947846047 176.38038558523874 Q 85.51446881655504 177.24673375477533 86.79985718986444 179.82404481192705 Q 88.08524556317386 182.4013558690788 87.02901286332788 187.02901369223517 L 87.02901286332788 187.02901369223517 Q 85.96684627190973 191.68266959304975 83.66563118407478 193.4960667143447 Q 81.36441609623984 195.30946383563963 77.64669099111981 194.46091734081955 L 77.64669099111981 194.46091734081955 Q 74.7869024487198 193.80818926788103 73.52894182499288 192.24917905401762 Q 72.27098120126598 190.69016884015423 72.78722976804463 188.42833608389242 L 72.78722976804463 188.42833608389242 Q 73.17293272023558 186.73846103611058 74.22555644915238 186.0213797941697 Q 75.27818017806919 185.30429855222877 76.83806483756011 185.6603320465589 L 76.83806483756011 185.6603320465589 Q 77.61800716730556 185.83834879372395 78.27248413149914 186.20654848743794 Q 78.9269610956927 186.57474818115193 79.58850320714319 186.97191289831022 Q 80.25004531859368 187.36907761546848 80.95651843810361 187.7491450923268 Q 81.66299155761354 188.12921256918514 82.54692619799172 188.33096488263888 L 82.54692619799172 188.33096488263888 Q 83.7428377702681 188.60392389495863 84.38487092192936 188.3675294765457 Q 85.02690407359063 188.13113505813277 85.10997855560099 187.76716197091824 L 85.10997855560099 187.76716197091824 Q 85.17525136289484 187.4811831166782 84.94677573427519 187.22389167273408 Q 84.71830010565554 186.96660022878996 84.1983385524919 186.8479223973466 L 84.1983385524919 186.8479223973466 Q 83.782369309961 186.7529801321919 83.31073253191106 186.78209436375596 Q 82.83909575386113 186.81120859531998 82.36152508423902 186.86632090454222 Q 81.88395441461692 186.92143321376446 81.38631955890881 186.94461355375634 Q 80.88868470320068 186.9677938937482 80.39472122769523 186.855049953877 L 80.39472122769523 186.855049953877 Q 79.5627827426334 186.66516542356763 79.22282283485593 186.1772850477541 Q 78.88286292707845 185.6894046719406 78.99560686694966 185.19544119643516 L 78.99560686694966 185.19544119643516 Q 79.10241691524868 184.72747579858788 79.62039357019121 184.43541384465593 Q 80.13837022513374 184.14335189072398 80.97030871019557 184.33323642103335 L 80.97030871019557 184.33323642103335 Q 81.43827410804283 184.4400464693324 81.87657004802927 184.67684690592233 Q 82.3148659880157 184.91364734251226 82.73719594338696 185.16047987214523 Q 83.15952589875822 185.40731240177817 83.55882472225738 185.63521200100985 Q 83.95812354575654 185.86311160024155 84.37409278828746 185.95805386539624 L 84.37409278828746 185.95805386539624 Q 84.8940543414511 186.0767316968396 85.21153834365326 185.944051975911 Q 85.52902234585544 185.81137225498242 85.59429515314929 185.52539340074242 L 85.59429515314929 185.52539340074242 Q 85.67736963515965 185.16142031352786 85.2115175405621 184.68583454212686 Q 84.74566544596455 184.21024877072588 83.54975387368818 183.93728975840614 L 83.54975387368818 183.93728975840614 Q 82.66581923330999 183.7355374449524 81.86737079443145 183.75844017179588 Q 81.06892235555291 183.78134289863937 80.29760325001732 183.86514261815748 Q 79.5262841444817 183.94894233767556 78.77983186091953 183.98371284766338 Q 78.03337957735735 184.0184833576512 77.2534372476119 183.84046661048615 L 77.2534372476119 183.84046661048615 Q 75.69355258812098 183.48443311615605 75.05630126925595 182.3816489220242 Q 74.41904995039094 181.27886472789237 74.80475290258188 179.58898968011053 Z" fill-opacity="1"/></g></g><g><g><path fill="rgb(0,0,0)" stroke="none" paint-order="stroke fill markers" d=" M 58.23661168516377 177.44204954870762 L 58.23661168516377 177.44204954870762 Q 56.67493231413292 176.68998440090385 56.31017833297478 175.41921076081667 Q 55.94542435181664 174.1484371207295 56.674349033534135 172.63480942265343 L 56.674349033534135 172.63480942265343 Q 57.29914161786342 171.33741425287397 58.30253226033027 170.63671103724857 Q 59.305922902797114 169.9360078216232 60.537528782820004 169.74477712713286 Q 61.769134662842895 169.5535464326425 63.174676305749905 169.83084975844065 Q 64.58021794865691 170.10815308423878 65.99774230082339 170.79079683378373 L 65.99774230082339 170.79079683378373 Q 67.82370587310562 171.67013454506198 68.82473204469848 172.81815310056803 Q 69.82575821629133 173.96617165607407 70.09750764790883 175.39934103498146 Q 70.36925707952632 176.83251041388883 69.94776852588456 178.5681859657623 Q 69.52627997224279 180.30386151763574 68.53123993053319 182.37008345469195 L 68.53123993053319 182.37008345469195 Q 67.53619988882359 184.43630539174816 66.45978594857495 185.8417866166967 Q 65.38337200832632 187.24726784164523 64.15306397491088 187.92748670235773 Q 62.922755941495446 188.60770556307023 61.50874286191425 188.56310474474225 Q 60.094729782333054 188.51850392641424 58.4129212289152 187.7085876133948 L 58.4129212289152 187.7085876133948 Q 57.523965279251485 187.28048899079883 56.703988042651005 186.67842439633947 Q 55.88401080605053 186.07635980188013 55.35414455694033 185.33282650870902 Q 54.82427830783011 184.5892932155379 54.6735132200115 183.67315221506936 Q 54.52274813219289 182.75701121460085 54.99624231657029 181.7123300130296 L 54.99624231657029 181.7123300130296 Q 55.4457106644703 180.65607857841522 56.25376560976977 180.05369213467725 Q 57.06182055506926 179.45130569093928 58.01712931560208 179.12701731645288 Q 58.972438076134885 178.80272894196648 59.98423973731745 178.66843383332144 Q 60.99604139850001 178.5341387246764 61.88237144596959 178.38381632205335 Q 62.76870149343916 178.23349391943032 63.43301389609058 177.99105233765775 Q 64.097326298742 177.74861075588518 64.35187142569097 177.22004235338244 L 64.35187142569097 177.22004235338244 Q 64.54856538742426 176.81160313326666 64.4471498191679 176.40759076510653 Q 64.34573425091155 176.0035783969464 63.96132086727318 175.81845466825627 L 63.96132086727318 175.81845466825627 Q 63.62495915658961 175.65647140565238 63.30547990129594 175.82819374255868 Q 62.986000646002275 175.99991607946495 62.63892386368747 176.32113586656166 Q 62.29184708137265 176.64235565365834 61.87980596173391 177.0062846823838 Q 61.467764842095164 177.3702137111093 60.95250720443856 177.61044186690404 Q 60.437249566781965 177.85067002269878 59.769395682566035 177.85462398047963 Q 59.1015417983501 177.85857793826048 58.23661168516377 177.44204954870762 Z" fill-opacity="1"/></g></g><g><g><path fill="rgb(0,0,0)" stroke="none" paint-order="stroke fill markers" d=" M 42.05122983150835 166.20718750860527 L 42.05122983150835 166.20718750860527 Q 40.6960552618971 165.12647185205012 40.623220161825856 163.80639376371263 Q 40.550385061754604 162.48631567537518 41.59784792887728 161.17283878482888 L 41.59784792887728 161.17283878482888 Q 42.49567324355385 160.04700145007493 43.62982792168398 159.58714174989092 Q 44.76398259981412 159.12728204970693 46.0072623817948 159.21490399867116 Q 47.250542163775485 159.3025259476354 48.559138148133634 159.885639139191 Q 49.867734132491776 160.4687523307466 51.09781566490814 161.44970961900435 L 51.09781566490814 161.44970961900435 Q 52.68232746937669 162.71331561743807 53.40279766371668 164.0553002295211 Q 54.123267858056685 165.39728484160415 54.069293775348065 166.85499160931087 Q 54.015319692639444 168.3126983770176 53.21817459218092 169.91106689242235 Q 52.4210294917224 171.5094354078271 50.99115954612637 173.30243560762045 L 50.99115954612637 173.30243560762045 Q 49.561289600530344 175.0954358074138 48.19911461028671 176.2261540483559 Q 46.83693962004308 177.35687228929802 45.486115041504405 177.7462673503496 Q 44.13529046296573 178.13566241140117 42.7666542592414 177.7775323176122 Q 41.39801805551707 177.41940222382325 39.93859928824342 176.25555459368695 L 39.93859928824342 176.25555459368695 Q 39.167192225541626 175.64037798918633 38.50174550608723 174.87094631060023 Q 37.83629878663283 174.10151463201413 37.485169113476246 173.2587169382412 Q 37.13403944031967 172.41591924446828 37.190914899082685 171.48919942346794 Q 37.24779035784571 170.56247960246756 37.941876491111245 169.64935310785467 L 37.941876491111245 169.64935310785467 Q 38.6151137848443 168.71960021852553 39.53695269965651 168.31212600172148 Q 40.45879161446873 167.90465178491746 41.462309741825884 167.801070194645 Q 42.46582786918303 167.69748860437255 43.482145023263314 167.7917076051099 Q 44.49846217734358 167.88592660584726 45.39601996145335 167.9366000896603 Q 46.29357774556311 167.98727357347332 46.995182776522434 167.8987339246065 Q 47.696787807481755 167.81019427573966 48.06256849123888 167.3515198060251 L 48.06256849123888 167.3515198060251 Q 48.34521720141483 166.9970895339729 48.33624554268482 166.58063951242082 Q 48.32727388395481 166.16418949086872 47.993692451435116 165.898167175409 L 47.993692451435116 165.898167175409 Q 47.70180869798038 165.66539764938173 47.35212763984198 165.76172372650916 Q 47.002446581703566 165.8580498036366 46.5925936119246 166.093984090267 Q 46.18274064214563 166.3299183768974 45.70004842627736 166.5930351702847 Q 45.21735621040909 166.85615196367198 44.661561363902756 166.97570148728875 Q 44.105766517396425 167.09525101090554 43.453777286037045 166.9504943646476 Q 42.801788054677665 166.80573771838965 42.05122983150835 166.20718750860527 Z" fill-opacity="1"/></g></g><g><g><path fill="rgb(0,0,0)" stroke="none" paint-order="stroke fill markers" d=" M 38.60016956514435 148.9647308536893 L 38.60016956514435 148.9647308536893 Q 39.69751161641572 150.34075426283306 40.16173374572645 151.77827065237918 Q 40.62595587503718 153.21578704192532 40.3654812191736 154.6855026827089 Q 40.10500656331003 156.15521832349248 39.07193546825719 157.66122396805534 Q 38.038864373204355 159.1672296126182 36.16246881528109 160.66360513707917 L 36.16246881528109 160.66360513707917 Q 34.28607325735781 162.15998066154015 32.57752195388942 162.84034592216187 Q 30.868970650421033 163.52071118278366 29.348980748665625 163.45381467311364 Q 27.828990846910216 163.38691816344362 26.518279494125895 162.64150837702925 Q 25.207568141341568 161.8960985906149 24.1102260900702 160.52007518147119 L 24.1102260900702 160.52007518147119 Q 23.012884038798823 159.14405177232746 22.577823946378697 157.70033340783132 Q 22.142763853958563 156.2566150433352 22.415774151996505 154.75984858806913 Q 22.688784450034444 153.2630821328031 23.732279964853518 151.7487632908821 Q 24.775775479672596 150.2344444489611 26.652171037595867 148.73806892450017 L 26.652171037595867 148.73806892450017 Q 28.528566595519138 147.2416934000392 30.22669347922129 146.56964133677556 Q 31.924820362923438 145.89758927351193 33.415648227788246 145.97068775813193 Q 34.90647609265306 146.04378624275193 36.20465180326302 146.81624684364877 Q 37.50282751387298 147.58870744454558 38.60016956514435 148.9647308536893 Z M 37.766215983845115 149.62978664233864 L 37.766215983845115 149.62978664233864 Q 37.18429216877696 148.9000772587018 36.288845607075324 148.93201312539048 Q 35.393399045373684 148.96394899207914 34.64284082220438 149.56249920186352 L 34.64284082220438 149.56249920186352 Q 33.89228259903507 150.16104941164792 33.651467406216504 151.03525205699393 Q 33.41065221339794 151.90945470233996 33.99257602846609 152.63916408597677 L 33.99257602846609 152.63916408597677 Q 34.57449984353424 153.36887346961362 35.48868402236024 153.33904882533307 Q 36.40286820118624 153.3092241810525 37.153426424355544 152.71067397126814 L 37.153426424355544 152.71067397126814 Q 37.90398464752486 152.11212376148376 38.12606222321906 151.2358098937296 Q 38.348139798913266 150.35949602597546 37.766215983845115 149.62978664233864 Z" fill-opacity="1"/></g></g><g><g><path fill="rgb(0,0,0)" stroke="none" paint-order="stroke fill markers" d="" fill-opacity="1"/></g></g><g><g><path fill="rgb(0,0,0)" stroke="none" paint-order="stroke fill markers" d=" M 4.224725675945134 116.59473480759291 L 4.224725675945134 116.59473480759291 Q 3.7262787838829894 114.41089628430564 5.510134852345708 112.75920631665704 Q 7.293990920808419 111.10751634900846 11.063712181244805 110.24710207104405 L 11.063712181244805 110.24710207104405 Q 21.254958623252136 107.92101657475405 23.420829047093598 117.41031491999045 L 23.420829047093598 117.41031491999045 Q 25.6163689287959 127.02960365351778 15.477118642104934 129.34382136666346 L 15.477118642104934 129.34382136666346 Q 13.631255128374015 129.76512766828742 12.091157041820713 129.78841561021676 Q 10.551058955267413 129.81170355214607 9.384688435823268 129.43513744427946 Q 8.218317916379124 129.05857133641283 7.473572917889664 128.31224745787927 Q 6.728827919400196 127.56592357934571 6.479604473369122 126.47400431770207 L 6.479604473369122 126.47400431770207 Q 6.111703195894684 124.86212350289478 7.043834206357957 123.73306361795636 Q 7.975965216821233 122.60400373301793 10.055811429475792 122.12929240724446 L 10.055811429475792 122.12929240724446 Q 10.393786439032155 122.05215181680627 11.14433692406517 122.04495826452074 Q 11.894887409098185 122.0377647122352 12.729366018677915 122.03876756289134 Q 13.563844628257643 122.03977041354747 14.35339222977793 122.02367602390369 Q 15.142939831298216 122.00758163425989 15.584907151487311 121.90670547753304 L 15.584907151487311 121.90670547753304 Q 16.23485909294186 121.75835818822883 16.475629325974023 121.37517455746462 Q 16.716399559006184 120.99199092670041 16.62739118542366 120.60201976182768 L 16.62739118542366 120.60201976182768 Q 16.532448920268966 120.18605051929677 16.114366374488327 119.91221706134951 Q 15.696283828707688 119.63838360340223 15.020333809594957 119.79266478427861 L 15.020333809594957 119.79266478427861 Q 14.604364567064046 119.88760704943331 14.192066704735794 120.11847359445109 Q 13.779768842407544 120.34934013946885 13.321408716335096 120.61807254528915 Q 12.86304859026265 120.88680495110944 12.346758417301668 121.14140706241588 Q 11.83046824434069 121.39600917372233 11.206514380544323 121.53842257145436 L 11.206514380544323 121.53842257145436 Q 10.24458550719159 121.7579765596246 9.62148528593158 121.54461327308377 Q 8.99838506467157 121.33124998654294 8.867839450083865 120.75929227806294 L 8.867839450083865 120.75929227806294 Q 8.731359943923993 120.16133649192476 9.187179945478535 119.70171670513894 Q 9.642999947033076 119.24209691835311 10.578930742727625 119.02847682175505 L 10.578930742727625 119.02847682175505 Q 11.202884606523993 118.88606342402302 11.791512734035747 118.88847514351231 Q 12.3801408615475 118.8908868630016 12.919739779528975 118.91816540446432 Q 13.45933869751045 118.94544394592702 13.930975475560386 118.97455817749108 Q 14.40261225361032 119.00367240905513 14.818581496141231 118.90873014390043 L 14.818581496141231 118.90873014390043 Q 15.494531515253964 118.75444896302405 15.75536593437214 118.3393333630295 Q 16.016200353490316 117.92421776303495 15.921258088335623 117.50824852050403 L 15.921258088335623 117.50824852050403 Q 15.832249714753097 117.1182773556313 15.449066083988892 116.87750712259914 Q 15.065882453224686 116.63673688956698 14.415930511770137 116.78508417887119 L 14.415930511770137 116.78508417887119 Q 13.973963191581044 116.88596033559804 13.255622288926778 117.21403165714003 Q 12.537281386272511 117.542102978682 11.782910312917055 117.89207417641131 Q 11.028539239561601 118.24204537414063 10.349195453394607 118.56121585832436 Q 9.669851667227613 118.88038634250807 9.331876657671248 118.95752693294627 L 9.331876657671248 118.95752693294627 Q 7.25203044501669 119.43223825871974 5.922328699218131 118.81942694055996 Q 4.592626953419575 118.2066156224002 4.224725675945134 116.59473480759291 Z" fill-opacity="1"/></g></g><g><g><path fill="rgb(0,0,0)" stroke="none" paint-order="stroke fill markers" d=" M 21.466669209798177 100.00000000000001 L 21.466669209798177 100.00000000000001 Q 21.466669209798177 101.76000000000002 20.933335876464845 103.17333333333335 Q 20.40000254313151 104.58666666666667 19.28000254313151 105.57333333333335 Q 18.16000254313151 106.56000000000002 16.413335876464846 107.09333333333335 Q 14.66666920979818 107.62666666666668 12.266669209798179 107.62666666666668 L 12.266669209798179 107.62666666666668 Q 9.866669209798179 107.62666666666668 8.106669209798177 107.09333333333335 Q 6.346669209798177 106.56000000000002 5.200002543131511 105.56000000000002 Q 4.053335876464843 104.56000000000002 3.493335876464844 103.16000000000001 Q 2.9333358764648416 101.76000000000002 2.9333358764648416 100.00000000000001 L 2.9333358764648416 100.00000000000001 Q 2.9333358764648416 98.24000000000002 3.493335876464844 96.84000000000002 Q 4.053335876464843 95.44000000000001 5.200002543131511 94.44000000000001 Q 6.346669209798174 93.44000000000001 8.106669209798174 92.90666666666668 Q 9.866669209798175 92.37333333333335 12.266669209798176 92.37333333333335 L 12.266669209798176 92.37333333333335 Q 14.666669209798176 92.37333333333335 16.413335876464842 92.90666666666668 Q 18.160002543131508 93.44000000000001 19.28000254313151 94.42666666666668 Q 20.40000254313151 95.41333333333334 20.93333587646484 96.82666666666668 Q 21.466669209798177 98.24000000000001 21.466669209798177 100.00000000000001 Z M 20.40000254313151 100.00000000000001 L 20.40000254313151 100.00000000000001 Q 20.40000254313151 99.06666666666668 19.68000254313151 98.53333333333335 Q 18.96000254313151 98.00000000000001 18.000002543131508 98.00000000000001 L 18.000002543131508 98.00000000000001 Q 17.04000254313151 98.00000000000001 16.306669209798176 98.53333333333335 Q 15.573335876464842 99.06666666666668 15.573335876464842 100.00000000000001 L 15.573335876464842 100.00000000000001 Q 15.573335876464842 100.93333333333335 16.306669209798176 101.48000000000002 Q 17.04000254313151 102.02666666666669 18.00000254313151 102.02666666666669 L 18.00000254313151 102.02666666666669 Q 18.96000254313151 102.02666666666669 19.68000254313151 101.48000000000002 Q 20.40000254313151 100.93333333333335 20.40000254313151 100.00000000000001 Z" fill-opacity="1"/></g></g><g><g><path fill="rgb(0,0,0)" stroke="none" paint-order="stroke fill markers" d=" M 12.822639018460599 87.67896480478242 L 12.822639018460599 87.67896480478242 Q 8.246977350620572 86.6345998880808 6.391616167052273 84.33748300171668 Q 4.536254983483978 82.04036611535257 5.450074285597907 78.03666215599254 L 5.450074285597907 78.03666215599254 Q 6.162141274258111 74.9168928370107 7.975475986279561 73.44345562349324 Q 9.788810698301004 71.97001840997578 12.726593473675566 72.6405481576308 L 12.726593473675566 72.6405481576308 Q 13.84451081297739 72.89570549523404 14.51905196325697 73.2958371581784 Q 15.19359311353655 73.69596882112275 15.612251688705149 74.07872563061878 Q 16.030910263873746 74.4614824401148 16.341478326938777 74.7785396210488 Q 16.65204639000381 75.0955968019828 17.04201755487654 75.18460517556532 L 17.04201755487654 75.18460517556532 Q 17.45798679740745 75.27954744072001 17.93626190144613 75.1015098904638 Q 18.41453700548481 74.92347234020758 18.982674125642372 74.71124030935151 Q 19.550811245799935 74.49900827849542 20.25007000993316 74.37140880660264 Q 20.949328774066387 74.24380933470987 21.833263414444573 74.44556164816359 L 21.833263414444573 74.44556164816359 Q 23.393148073935492 74.80159514249368 24.052299268987856 75.86834916592434 Q 24.71145046404022 76.93510318935499 24.402888102287463 78.28700322758046 L 24.402888102287463 78.28700322758046 Q 24.20113578883374 79.17093786795864 23.74561420351876 79.66872193178654 Q 23.290092618203783 80.16650599561444 22.805179188176357 80.49346686456282 Q 22.320265758148935 80.82042773351121 21.921116142769556 81.07123005958638 Q 21.521966527390177 81.32203238566154 21.43889204537982 81.68600547287609 L 21.43889204537982 81.68600547287609 Q 21.349883671797294 82.07597663774882 21.639256293091556 82.30613874835002 Q 21.928628914385822 82.53630085895122 22.259261163536866 82.88529000911556 Q 22.589893412687914 83.23427915927991 22.808059335116155 83.7764182017793 Q 23.0262252575444 84.31855724427867 22.79480348622983 85.33248227294777 L 22.79480348622983 85.33248227294777 Q 22.575249498059602 86.2944111463005 21.988328655620563 87.00837623433553 Q 21.40140781318152 87.72234132237057 20.240971185309547 88.072909352579 Q 19.08053455743757 88.42347738278745 17.277488748516365 88.35384956396553 Q 15.47444293959516 88.2842217451436 12.822639018460599 87.67896480478242 Z M 9.670174473039967 75.0064148307077 L 9.670174473039967 75.0064148307077 Q 9.420951027008895 76.09833409235134 9.945159989763152 76.73767791137492 Q 10.469368952517412 77.37702173039851 11.50929205884469 77.61437739328524 L 11.50929205884469 77.61437739328524 Q 12.57521324283015 77.85766694774415 13.311911046497718 77.50611686997073 Q 14.048608850165284 77.15456679219731 14.297832296196356 76.06264753055368 L 14.297832296196356 76.06264753055368 Q 14.547055742227428 74.97072826891002 13.999111213184495 74.43537676051918 Q 13.451166684141564 73.90002525212832 12.411243577814284 73.66266958924157 L 12.411243577814284 73.66266958924157 Q 11.371320471487007 73.42531392635485 10.64535919527902 73.66990474770945 Q 9.91939791907104 73.91449556906406 9.670174473039967 75.0064148307077 Z" fill-opacity="1"/></g></g><g><g><path fill="rgb(0,0,0)" stroke="none" paint-order="stroke fill markers" d=" M 22.557950451292385 58.23661168516377 L 22.557950451292385 58.23661168516377 Q 23.31001559909615 56.67493231413292 24.58078923918332 56.31017833297477 Q 25.851562879270492 55.94542435181664 27.365190577346556 56.674349033534135 L 27.365190577346556 56.674349033534135 Q 28.66258574712604 57.29914161786342 29.36328896275142 58.30253226033027 Q 30.0639921783768 59.305922902797114 30.25522287286715 60.537528782820004 Q 30.446453567357498 61.769134662842895 30.169150241559358 63.174676305749905 Q 29.891846915761214 64.58021794865691 29.209203166216255 65.99774230082339 L 29.209203166216255 65.99774230082339 Q 28.329865454938005 67.82370587310562 27.18184689943197 68.82473204469848 Q 26.03382834392594 69.82575821629133 24.60065896501855 70.09750764790883 Q 23.16748958611116 70.36925707952632 21.431814034237714 69.94776852588456 Q 19.69613848236427 69.52627997224279 17.629916545308053 68.53123993053319 L 17.629916545308053 68.53123993053319 Q 15.563694608251836 67.53619988882359 14.158213383303298 66.45978594857495 Q 12.752732158354757 65.38337200832632 12.072513297642264 64.15306397491088 Q 11.39229443692977 62.922755941495446 11.43689525525776 61.50874286191425 Q 11.481496073585749 60.094729782333054 12.291412386605188 58.4129212289152 L 12.291412386605188 58.4129212289152 Q 12.719511009201181 57.523965279251485 13.321575603660524 56.703988042651005 Q 13.923640198119866 55.88401080605053 14.667173491290974 55.35414455694033 Q 15.410706784462088 54.82427830783011 16.326847784930624 54.6735132200115 Q 17.24298878539916 54.52274813219289 18.287669986970403 54.99624231657029 L 18.287669986970403 54.99624231657029 Q 19.343921421584778 55.4457106644703 19.946307865322744 56.25376560976977 Q 20.548694309060714 57.06182055506926 20.872982683547114 58.01712931560208 Q 21.197271058033515 58.972438076134885 21.331566166678556 59.98423973731745 Q 21.465861275323594 60.99604139850002 21.616183677946644 61.88237144596959 Q 21.76650608056969 62.76870149343916 22.008947662342255 63.43301389609058 Q 22.25138924411482 64.097326298742 22.77995764661757 64.35187142569097 L 22.77995764661757 64.35187142569097 Q 23.188396866733335 64.54856538742426 23.59240923489346 64.4471498191679 Q 23.996421603053584 64.34573425091155 24.18154533174374 63.96132086727318 L 24.18154533174374 63.96132086727318 Q 24.343528594347628 63.62495915658961 24.171806257441332 63.30547990129594 Q 24.000083920535033 62.986000646002275 23.678864133438346 62.63892386368747 Q 23.357644346341658 62.29184708137265 22.99371531761618 61.87980596173391 Q 22.629786288890696 61.467764842095164 22.389558133095953 60.95250720443857 Q 22.14932997730121 60.437249566781965 22.14537601952037 59.769395682566035 Q 22.141422061739526 59.1015417983501 22.557950451292385 58.23661168516377 Z" fill-opacity="1"/></g></g><g><g><path fill="rgb(0,0,0)" stroke="none" paint-order="stroke fill markers" d=" M 38.07643813158299 51.692007591583845 L 38.07643813158299 51.692007591583845 Q 36.945843290879154 53.10972867979254 35.7619411208747 53.71750978683764 Q 34.57803895087025 54.325290893882745 33.232626193635284 54.17327458846171 Q 31.887213436400323 54.02125828304068 30.340835327552394 53.18030428110907 Q 28.794457218704466 52.33935027917746 26.959759339846155 50.87622754414897 L 26.959759339846155 50.87622754414897 Q 25.10421262145536 49.39647841440424 23.92981717131455 48.06768790586746 Q 22.755421721173736 46.738897397330675 22.297409858849107 45.45273055979756 Q 21.839397996524482 44.16656372226445 22.14764890616474 42.860474037137564 Q 22.455899815804997 41.55438435201068 23.5698682617926 40.15751210333447 L 23.5698682617926 40.15751210333447 Q 24.71708949721267 38.71894217559329 26.108953293444415 37.935925462655845 Q 27.500817089676158 37.15290874971841 29.0665954230384 37.0713653754659 Q 30.632373756400636 36.9898220012134 32.34712703481902 37.641025224944556 Q 34.0618803132374 38.292228448675715 35.85488051303075 39.72209839427174 L 35.85488051303075 39.72209839427174 Q 37.6478807128241 41.151968339867764 38.66221419075258 42.66008520683876 Q 39.67654766868105 44.16820207380975 39.932931572002765 45.685817368608284 Q 40.18931547532447 47.20343266340681 39.714800618521885 48.7180107438585 Q 39.24028576171929 50.23258882431019 38.07643813158299 51.692007591583845 Z M 35.356088671543766 40.34756358024616 L 35.356088671543766 40.34756358024616 Q 34.79317000416678 39.898650922907876 34.211908796488586 39.70797415276871 Q 33.63064758881038 39.51729738262955 33.09966064210402 39.520198758683954 Q 32.568673695397656 39.52310013473836 32.13586066367808 39.72367040952818 Q 31.70304763195851 39.924240684318015 31.437025316498783 40.2578221168377 L 31.437025316498783 40.2578221168377 Q 30.95485986972803 40.862438463279645 31.237241049337175 41.68451900979447 Q 31.51962222894632 42.50659955630928 32.81225027996013 43.537436028715724 L 32.81225027996013 43.537436028715724 Q 34.10487833097394 44.568272501122166 34.96918332565124 44.660643664000155 Q 35.833488320328534 44.75301482687814 36.31565376709929 44.1483984804362 L 36.31565376709929 44.1483984804362 Q 36.581676082559014 43.814817047916506 36.680907681758896 43.34822445766695 Q 36.78013928095878 42.8816318674174 36.66481220215824 42.36331225515978 Q 36.54948512335769 41.844992642902156 36.23424623113922 41.32073444024331 Q 35.91900733892074 40.79647623758445 35.356088671543766 40.34756358024616 Z" fill-opacity="1"/></g></g><g><g><path fill="rgb(0,0,0)" stroke="none" paint-order="stroke fill markers" d="" fill-opacity="1"/></g></g><g><g><path fill="rgb(0,0,0)" stroke="none" paint-order="stroke fill markers" d="" fill-opacity="1"/></g></g><g><g><path fill="rgb(0,0,0)" stroke="none" paint-order="stroke fill markers" d="" fill-opacity="1"/></g></g></g></g></svg>