<svg version="1.1" xmlns="http://www.w3.org/2000/svg" xmlns:xlink="http://www.w3.org/1999/xlink" width="200" height="200" viewBox="0 0 200 200"><defs/><g><g/><g><g><g><path fill="rgb(0,0,0)" stroke="none" paint-order="stroke fill markers" d=" M 101.95555555555555 23.333335876464844 L 105.31111111111112 23.333335876464844 L 105.31111111111112 7.822224765353729 L 101.95555555555555 7.822224765353729 L 101.95555555555555 14.11111365424262 L 98.04444444444445 14.11111365424262 L 98.04444444444445 7.822224765353729 L 94.68888888888888 7.822224765353729 L 94.68888888888888 23.333335876464844 L 98.04444444444445 23.333335876464844 L 98.04444444444445 16.844446987575953 L 101.95555555555555 16.844446987575953 Z" fill-opacity="1"/></g></g><g><g><path fill="rgb(0,0,0)" stroke="none" paint-order="stroke fill markers" d=" M 121.95624232970837 26.37307879152179 L 122.56446621585563 23.70827583155814 L 116.15160706017075 22.24458257708994 L 116.98729678991779 18.583186640229314 L 123.18350529845117 19.997430798262776 L 123.79172918459842 17.332627838299125 L 117.59552067606506 15.918383680265661 L 118.38670621902084 12.451973325841399 L 124.79956537470574 13.915666580309601 L 125.407789260853 11.250863620345946 L 115.74517039789535 9.045433919356697 L 112.29362346675074 24.167649090532542 Z" fill-opacity="1"/></g></g><g><g><path fill="rgb(0,0,0)" stroke="none" paint-order="stroke fill markers" d=" M 138.12965078226244 33.26869460999833 L 139.31559966918377 30.806046371065047 L 133.30914054983432 27.913488110281328 L 138.85321054966977 16.40110813152819 L 135.8299594595972 14.94518714026705 L 129.09994057284044 28.920215357953467 Z" fill-opacity="1"/></g></g><g><g><path fill="rgb(0,0,0)" stroke="none" paint-order="stroke fill markers" d=" M 152.02277322888037 43.426433262455156 L 153.72697868729423 41.28942721037588 L 148.51476880417403 37.13282853131765 L 156.48158293903563 27.1427595886706 L 153.8581039645318 25.050604920211292 L 144.18708437125633 37.17767991493763 Z" fill-opacity="1"/></g></g><g><g><path fill="rgb(0,0,0)" stroke="none" paint-order="stroke fill markers" d=" M 159.73192327225718 52.36538072360931 C 162.3228697822035 55.61432488408757 165.8251744517168 55.265732969532884 169.78645396288815 52.10671797344863 C 173.7477334740595 48.94770297736438 174.86692156757942 45.61077739648744 172.27597505763313 42.36183323600919 C 169.68502854768684 39.11288907553093 166.18272387817353 39.46148099008562 162.2214443670022 42.62049598616987 C 158.26016485583082 45.779510982254116 157.14097676231088 49.11643656313105 159.73192327225718 52.36538072360931 Z M 161.834181258449 50.68888592305583 C 160.6564782993825 49.21209312283844 161.43258929656724 47.79731316209089 163.37848098626546 46.24551632190915 L 165.498113005401 44.55516619242547 C 167.4440046950992 43.00336935224374 168.99601411237484 42.56153523634528 170.17371707144133 44.03832803656267 C 171.35142003050782 45.515120836780056 170.57530903332307 46.929900797527615 168.62941734362488 48.48169763770935 L 166.52715935743305 50.15819243826284 C 164.5638936347911 51.723844607374765 163.0118842175155 52.16567872327322 161.834181258449 50.68888592305583 Z" fill-opacity="1"/></g></g><g><g><path fill="rgb(0,0,0)" stroke="none" paint-order="stroke fill markers" d="" fill-opacity="1"/></g></g><g><g><path fill="rgb(0,0,0)" stroke="none" paint-order="stroke fill markers" d=" M 174.46755584786874 81.7268186718674 L 183.06079615501926 80.92794675960278 L 183.110245251454 81.1445974067543 L 175.02138572793777 84.15330591996438 L 175.96091856019777 88.2696682158432 L 191.29576484604297 85.7497190674501 L 190.68259605025224 83.0632510427713 L 181.44104054758878 84.71670161801416 L 178.63824280618854 85.21965966408787 L 178.59373861939727 85.02467408165151 L 186.9197397974192 81.75669616063989 L 186.25217699555026 78.83191242409443 L 177.33278666031148 79.50008257928783 L 177.2882824735202 79.30509699685147 L 180.1184015580594 78.52237853562204 L 189.0755004161233 76.02210501034702 L 188.4376070721152 73.22731166209246 L 173.52802301560874 77.61045637598859 Z" fill-opacity="1"/></g></g><g><g><path fill="rgb(0,0,0)" stroke="none" paint-order="stroke fill markers" d=" M 176.39999745686848 100 C 176.39999745686848 104.15555555555555 179.35555301242405 106.06666666666666 184.42221967909072 106.06666666666666 C 189.48888634575738 106.06666666666666 192.44444190131293 104.15555555555555 192.44444190131293 100 C 192.44444190131293 95.84444444444445 189.48888634575738 93.93333333333334 184.42221967909072 93.93333333333334 C 179.35555301242405 93.93333333333334 176.39999745686848 95.84444444444445 176.39999745686848 100 Z M 179.08888634575737 100 C 179.08888634575737 98.11111111111111 180.57777523464628 97.4888888888889 183.06666412353516 97.4888888888889 L 185.77777523464627 97.4888888888889 C 188.26666412353515 97.4888888888889 189.75555301242406 98.11111111111111 189.75555301242406 100 C 189.75555301242406 101.88888888888889 188.26666412353515 102.5111111111111 185.77777523464627 102.5111111111111 L 183.08888634575737 102.5111111111111 C 180.57777523464628 102.5111111111111 179.08888634575737 101.88888888888889 179.08888634575737 100 Z" fill-opacity="1"/></g></g><g><g><path fill="rgb(0,0,0)" stroke="none" paint-order="stroke fill markers" d=" M 180.73153568203153 116.69412438339225 L 180.39033691663184 118.1890138487377 L 174.20053072712116 119.44309482275077 L 173.38956554559147 122.99616543603564 L 180.11157122227468 121.40768136058901 C 180.20249969381706 123.20634442052726 181.64818874292743 124.56203037525655 183.7713650850123 125.04663152031698 C 186.69614882155776 125.71419432218592 188.96176749432342 124.47619147810146 189.6392201154793 121.50807761212567 L 190.97434571921718 115.65851013903473 L 175.85213054804134 112.20696320789013 L 175.12028392080725 115.41339278573257 Z M 183.24468318898911 117.26773390203519 L 187.62102626144974 118.26660565001687 L 187.19576403211101 120.1298012155199 C 186.84962035706786 121.64635574558052 186.1893159077457 122.04269455765731 184.86774696012145 121.74105506940543 L 184.2177950186669 121.59270778010122 C 182.89622607104266 121.29106829184933 182.47327728460724 120.64748399759884 182.8194209596504 119.13092946753822 Z" fill-opacity="1"/></g></g><g><g><path fill="rgb(0,0,0)" stroke="none" paint-order="stroke fill markers" d=" M 166.73130539000167 138.12965078226244 L 169.19395362893496 139.31559966918377 L 172.08651188971868 133.30914054983432 L 183.5988918684718 138.85321054966977 L 185.05481285973295 135.8299594595972 L 171.07978464204655 129.09994057284044 Z" fill-opacity="1"/></g></g><g><g><path fill="rgb(0,0,0)" stroke="none" paint-order="stroke fill markers" d=" M 163.2102692951078 143.70061144883178 L 160.09282028581413 147.60976886117191 C 157.50187377586784 150.85871302165017 158.42664829011713 154.1542921028605 162.31843166951353 157.25788578322397 C 166.21021504890996 160.36147946358744 169.62894877059418 160.52973261492565 172.21989528054047 157.2807884544474 L 175.33734428983414 153.37163104210725 Z M 163.2098165007997 147.9068971382673 L 171.2366197208048 154.30805910401696 L 170.30831268248178 155.47211931124716 C 169.07518840769453 157.0184082432395 167.49590730680646 156.8959051541074 165.61951174888318 155.39952962964642 L 163.41300956502897 153.6399028555118 C 161.51923997416196 152.12967200212063 161.0483851876894 150.6172462774898 162.2815094624767 149.07095734549748 Z" fill-opacity="1"/></g></g><g><g><path fill="rgb(0,0,0)" stroke="none" paint-order="stroke fill markers" d="" fill-opacity="1"/></g></g><g><g><path fill="rgb(0,0,0)" stroke="none" paint-order="stroke fill markers" d="" fill-opacity="1"/></g></g><g><g><path fill="rgb(0,0,0)" stroke="none" paint-order="stroke fill markers" d="" fill-opacity="1"/></g></g><g><g><path fill="rgb(0,0,0)" stroke="none" paint-order="stroke fill markers" d=" M 98.04444444444445 176.66666412353516 L 94.6888888888889 176.66666412353516 L 94.6888888888889 192.17777523464628 L 98.04444444444447 192.17777523464628 L 98.04444444444447 185.88888634575738 L 101.95555555555558 185.88888634575738 L 101.95555555555558 192.17777523464628 L 105.31111111111113 192.17777523464628 L 105.31111111111113 176.66666412353516 L 101.95555555555558 176.66666412353516 L 101.95555555555558 183.15555301242404 L 98.04444444444447 183.15555301242404 Z" fill-opacity="1"/></g></g><g><g><path fill="rgb(0,0,0)" stroke="none" paint-order="stroke fill markers" d=" M 78.04375767029164 173.6269212084782 L 77.43553378414438 176.29172416844185 L 83.84839293982927 177.75541742291006 L 83.01270321008222 181.41681335977069 L 76.81649470154885 180.00256920173723 L 76.20827081540159 182.66737216170088 L 82.40447932393495 184.08161631973434 L 81.61329378097918 187.5480266741586 L 75.20043462529429 186.0843334196904 L 74.59221073914702 188.74913637965406 L 84.25482960210466 190.9545660806433 L 87.70637653324927 175.83235090946746 Z" fill-opacity="1"/></g></g><g><g><path fill="rgb(0,0,0)" stroke="none" paint-order="stroke fill markers" d=" M 61.87034921773756 166.73130539000167 L 60.68440033081624 169.19395362893496 L 66.6908594501657 172.08651188971868 L 61.14678945033023 183.5988918684718 L 64.1700405404028 185.05481285973295 L 70.90005942715959 171.07978464204655 Z" fill-opacity="1"/></g></g><g><g><path fill="rgb(0,0,0)" stroke="none" paint-order="stroke fill markers" d=" M 47.977226771119646 156.57356673754484 L 46.27302131270577 158.7105727896241 L 51.485231195825975 162.86717146868233 L 43.518417060964374 172.8572404113294 L 46.141896035468214 174.9493950797887 L 55.81291562874368 162.82232008506236 Z" fill-opacity="1"/></g></g><g><g><path fill="rgb(0,0,0)" stroke="none" paint-order="stroke fill markers" d=" M 40.26807672774281 147.6346192763907 C 37.67713021779652 144.38567511591245 34.1748255482832 144.73426703046712 30.213546037111854 147.8932820265514 C 26.2522665259405 151.05229702263563 25.13307843242057 154.38922260351256 27.724024942366867 157.63816676399082 C 30.31497145231316 160.88711092446908 33.817276121826474 160.5385190099144 37.77855563299782 157.37950401383014 C 41.73983514416918 154.2204890177459 42.8590232376891 150.88356343686897 40.26807672774281 147.6346192763907 Z M 38.165818741551 149.3111140769442 C 39.343521700617494 150.78790687716156 38.56741070343275 152.20268683790914 36.62151901373454 153.75448367809088 L 34.501886994599 155.44483380757455 C 32.55599530490079 156.9966306477563 31.003985887625177 157.43846476365474 29.826282928558676 155.96167196343734 C 28.648579969492182 154.48487916321994 29.424690966676927 153.0700992024724 31.370582656375134 151.51830236229065 L 33.47284064256694 149.84180756173717 C 35.436106365208886 148.27615539262524 36.9881157824845 147.8343212767268 38.165818741551 149.3111140769442 Z" fill-opacity="1"/></g></g><g><g><path fill="rgb(0,0,0)" stroke="none" paint-order="stroke fill markers" d="" fill-opacity="1"/></g></g><g><g><path fill="rgb(0,0,0)" stroke="none" paint-order="stroke fill markers" d=" M 25.532444152131273 118.27318132813261 L 16.93920384498073 119.07205324039724 L 16.889754748545997 118.85540259324571 L 24.97861427206222 115.84669408003563 L 24.039081439802228 111.73033178415682 L 8.704235153957015 114.25028093254991 L 9.317403949747748 116.93674895722872 L 18.558959452411212 115.28329838198586 L 21.361757193811464 114.78034033591214 L 21.40626138060273 114.9753259183485 L 13.080260202580796 118.24330383936012 L 13.747823004449739 121.16808757590559 L 22.667213339688512 120.49991742071218 L 22.711717526479774 120.69490300314854 L 19.8815984419406 121.47762146437798 L 10.924499583876687 123.977894989653 L 11.562392927884789 126.77268833790755 L 26.471976984391265 122.38954362401142 Z" fill-opacity="1"/></g></g><g><g><path fill="rgb(0,0,0)" stroke="none" paint-order="stroke fill markers" d=" M 23.60000254313151 100.00000000000001 C 23.60000254313151 95.84444444444446 20.644446987575954 93.93333333333335 15.577780320909286 93.93333333333335 C 10.511113654242617 93.93333333333335 7.555558098687063 95.84444444444446 7.555558098687063 100.00000000000001 C 7.555558098687063 104.15555555555558 10.511113654242621 106.06666666666669 15.577780320909287 106.06666666666669 C 20.644446987575954 106.06666666666668 23.60000254313151 104.15555555555557 23.60000254313151 100.00000000000001 Z M 20.91111365424262 100.00000000000001 C 20.911113654242623 101.8888888888889 19.422224765353732 102.51111111111112 16.933335876464845 102.51111111111112 L 14.222224765353731 102.51111111111112 C 11.733335876464842 102.51111111111113 10.244446987575952 101.8888888888889 10.244446987575952 100.00000000000001 C 10.244446987575952 98.11111111111113 11.733335876464842 97.48888888888891 14.222224765353731 97.48888888888891 L 16.91111365424262 97.48888888888891 C 19.422224765353732 97.48888888888891 20.91111365424262 98.11111111111113 20.91111365424262 100.00000000000001 Z" fill-opacity="1"/></g></g><g><g><path fill="rgb(0,0,0)" stroke="none" paint-order="stroke fill markers" d=" M 19.268464317968473 83.30587561660775 L 19.609663083368154 81.8109861512623 L 25.79946927287885 80.55690517724923 L 26.610434454408527 77.00383456396436 L 19.88842877772533 78.59231863941099 C 19.79750030618294 76.79365557947274 18.351811257072576 75.43796962474345 16.228634914987715 74.95336847968302 C 13.303851178442242 74.28580567781408 11.038232505676579 75.52380852189854 10.360779884520689 78.49192238787433 L 9.025654280782803 84.34148986096527 L 24.14786945195865 87.79303679210987 L 24.87971607919275 84.58660721426743 Z M 16.755316811010882 82.73226609796481 L 12.378973738550252 81.73339434998314 L 12.804235967888987 79.8701987844801 C 13.150379642932142 78.35364425441948 13.8106840922543 77.95730544234269 15.13225303987855 78.25894493059458 L 15.782204981333098 78.40729221989878 C 17.10377392895735 78.70893170815067 17.526722715392772 79.35251600240116 17.180579040349617 80.86907053246178 Z" fill-opacity="1"/></g></g><g><g><path fill="rgb(0,0,0)" stroke="none" paint-order="stroke fill markers" d=" M 33.26869460999833 61.87034921773758 L 30.806046371065047 60.68440033081625 L 27.913488110281328 66.69085945016572 L 16.40110813152819 61.14678945033025 L 14.945187140267048 64.17004054040281 L 28.920215357953467 70.9000594271596 Z" fill-opacity="1"/></g></g><g><g><path fill="rgb(0,0,0)" stroke="none" paint-order="stroke fill markers" d=" M 36.789730704892186 56.29938855116823 L 39.90717971418585 52.39023113882808 C 42.49812622413214 49.141286978349825 41.573351709882864 45.845707897139505 37.68156833048645 42.74211421677603 C 33.78978495109003 39.63852053641256 30.37105122940581 39.47026738507435 27.78010471945952 42.71921154555261 L 24.66265571016585 46.62836895789276 Z M 36.790183499200296 52.093102861732696 L 28.76338027919519 45.69194089598304 L 29.69168731751819 44.52788068875286 C 30.924811592305463 42.98159175676053 32.504092693193535 43.10409484589262 34.38048825111681 44.60047037035358 L 36.58699043497102 46.36009714448823 C 38.48076002583803 47.870327997879386 38.951614812310574 49.382753722510195 37.7184905375233 50.92904265450252 Z" fill-opacity="1"/></g></g><g><g><path fill="rgb(0,0,0)" stroke="none" paint-order="stroke fill markers" d="" fill-opacity="1"/></g></g><g><g><path fill="rgb(0,0,0)" stroke="none" paint-order="stroke fill markers" d="" fill-opacity="1"/></g></g><g><g><path fill="rgb(0,0,0)" stroke="none" paint-order="stroke fill markers" d="" fill-opacity="1"/></g></g></g></g></svg>