<svg version="1.1" xmlns="http://www.w3.org/2000/svg" xmlns:xlink="http://www.w3.org/1999/xlink" width="500" height="500" viewBox="0 0 500 500"><defs/><g><g><g><path fill="rgb(0,0,0)" stroke="none" paint-order="stroke fill markers" d=" M 163.6 259.4 L 163.6 259.4 Q 163.2 263.8 163 268.2 Q 162.8 272.6 162.8 277.2 L 162.8 277.2 Q 162.8 282.4 163.1 287.5 Q 163.39999999999998 292.6 164.39999999999998 297.8 L 164.39999999999998 297.8 Q 165 300.8 166.3 303.3 Q 167.6 305.8 167.6 309.2 L 167.6 309.2 Q 167.6 314.8 163.7 318.9 Q 159.8 323 154.2 323 L 154.2 323 Q 149.2 323 145.3 319.5 Q 141.39999999999998 316 138.29999999999998 310.3 Q 135.2 304.6 133 297.7 Q 130.79999999999998 290.8 129.2 283.9 Q 127.6 277 126.6 271 Q 125.6 265 125 261.4 L 125 261.4 Q 122 260.8 119 260.1 Q 116 259.4 113.6 258 Q 111.19999999999999 256.6 109.69999999999999 254.2 Q 108.19999999999999 251.8 108.19999999999999 248 L 108.19999999999999 248 Q 108.19999999999999 243.39999999999998 110.49999999999999 240.3 Q 112.8 237.2 117.39999999999999 236.2 L 117.39999999999999 236.2 Q 120.39999999999999 235.6 122.3 234.5 Q 124.19999999999999 233.39999999999998 125.3 231.89999999999998 Q 126.39999999999999 230.39999999999998 127 228.3 Q 127.6 226.2 128 223.39999999999998 L 128 223.39999999999998 Q 128.6 219.2 130.2 212.2 Q 131.79999999999998 205.2 134.1 197.2 Q 136.39999999999998 189.2 139.7 181.1 Q 143 173 147 166.39999999999998 Q 151 159.79999999999998 155.89999999999998 155.6 Q 160.8 151.39999999999998 166.39999999999998 151.39999999999998 L 166.39999999999998 151.39999999999998 Q 171.8 151.39999999999998 176 155.5 Q 180.2 159.6 180.2 165 L 180.2 165 Q 180.2 167.6 179.3 172 Q 178.39999999999998 176.4 177 182 Q 175.6 187.6 173.89999999999998 194 Q 172.2 200.39999999999998 170.7 206.5 Q 169.2 212.6 168.1 218.2 Q 167 223.8 166.6 227.8 L 166.6 227.8 Q 182.8 226.2 199.1 225.8 Q 215.39999999999998 225.39999999999998 231.60000000000002 226.6 L 231.60000000000002 226.6 Q 232 223.2 232.8 217.6 Q 233.60000000000002 212 234.7 205.39999999999998 Q 235.8 198.8 237.10000000000002 191.79999999999998 Q 238.39999999999998 184.79999999999998 239.89999999999998 178.4 Q 241.39999999999998 172 243.10000000000002 167.1 Q 244.8 162.2 246.39999999999998 159.6 L 246.39999999999998 159.6 Q 248 157 250.60000000000002 155.39999999999998 Q 253.2 153.79999999999998 256.4 153.79999999999998 L 256.4 153.79999999999998 Q 260.4 153.79999999999998 263.1 155.39999999999998 Q 265.8 157 267.4 159.5 Q 269 162 269.6 165.29999999999998 Q 270.2 168.6 270.2 172 L 270.2 172 Q 270.2 193.79999999999998 269.5 215.6 Q 268.8 237.39999999999998 268.8 259.2 L 268.8 259.2 Q 268.8 273 270 286.6 Q 271.2 300.2 271.2 314 L 271.2 314 Q 271.2 319.2 267.3 322.8 Q 263.4 326.4 258.2 326.4 L 258.2 326.4 Q 253.8 326.4 250.2 322.3 Q 246.60000000000002 318.2 243.89999999999998 311.7 Q 241.2 305.2 239.10000000000002 297.3 Q 237 289.4 235.60000000000002 281.8 Q 234.2 274.2 233.3 267.8 Q 232.39999999999998 261.4 232 258 L 232 258 Q 222.2 258.2 212.5 258.1 Q 202.8 258 193 258 L 193 258 Q 185.6 258 178.3 258.3 Q 171 258.6 163.6 259.4 Z M 282.4 236.6 L 282.4 236.6 Q 284 232 286.7 228.5 Q 289.4 225 294 225 L 294 225 Q 299.79999999999995 225 302.09999999999997 227.89999999999998 Q 304.4 230.8 304.79999999999995 235 Q 305.2 239.2 304.59999999999997 244 Q 304 248.8 304 252.39999999999998 L 304 252.39999999999998 Q 304 257.8 304.5 263.1 Q 305 268.4 305 273.8 L 305 273.8 Q 305 277.4 301.7 279.9 Q 298.4 282.4 295 282.4 L 295 282.4 Q 290.2 282.4 287.09999999999997 279.8 Q 284 277.2 282.29999999999995 273.1 Q 280.59999999999997 269 280 263.8 Q 279.4 258.6 279.59999999999997 253.5 Q 279.79999999999995 248.39999999999998 280.59999999999997 243.89999999999998 Q 281.4 239.39999999999998 282.4 236.6 Z M 308.59999999999997 208.2 L 308.59999999999997 208.2 Q 308.59999999999997 212.39999999999998 305.4 216.1 Q 302.2 219.8 297.59999999999997 219.8 L 297.59999999999997 219.8 Q 293.2 219.8 289.4 216.6 Q 285.59999999999997 213.39999999999998 285.59999999999997 208.8 L 285.59999999999997 208.8 Q 285.59999999999997 203.6 288.9 200 Q 292.2 196.4 297.2 196.4 L 297.2 196.4 Q 302 196.4 305.29999999999995 199.89999999999998 Q 308.59999999999997 203.39999999999998 308.59999999999997 208.2 Z M 320.4 251.6 L 320.4 251.6 Q 320.4 246.39999999999998 321.99999999999994 236.5 Q 323.59999999999997 226.6 326.59999999999997 214.7 Q 329.59999999999997 202.8 333.79999999999995 190.29999999999998 Q 337.99999999999994 177.79999999999998 343.09999999999997 167.6 Q 348.19999999999993 157.39999999999998 354.29999999999995 150.89999999999998 Q 360.4 144.39999999999998 366.99999999999994 144.39999999999998 L 366.99999999999994 144.39999999999998 Q 372.4 144.39999999999998 376.09999999999997 148.2 Q 379.79999999999995 152 379.79999999999995 157.39999999999998 L 379.79999999999995 157.39999999999998 Q 379.79999999999995 160.79999999999998 378.49999999999994 163.89999999999998 Q 377.19999999999993 167 375.79999999999995 170 L 375.79999999999995 170 Q 366.4 189.6 358.19999999999993 208.5 Q 349.99999999999994 227.39999999999998 343.99999999999994 248.39999999999998 L 343.99999999999994 248.39999999999998 Q 342.99999999999994 251.39999999999998 342.9 255.39999999999998 Q 342.79999999999995 259.4 341.99999999999994 263 Q 341.19999999999993 266.6 339.09999999999997 269.1 Q 336.99999999999994 271.6 332.4 271.6 L 332.4 271.6 Q 328.79999999999995 271.6 326.49999999999994 269.5 Q 324.19999999999993 267.4 322.9 264.4 Q 321.59999999999997 261.4 320.99999999999994 257.9 Q 320.4 254.39999999999998 320.4 251.6 Z M 327.99999999999994 280 L 327.99999999999994 280 Q 333.59999999999997 280 337.29999999999995 283.4 Q 340.99999999999994 286.8 340.99999999999994 292.6 L 340.99999999999994 292.6 Q 340.99999999999994 298 336.99999999999994 302.4 Q 332.99999999999994 306.8 327.4 306.8 L 327.4 306.8 Q 321.79999999999995 306.8 318.09999999999997 303.2 Q 314.4 299.6 314.4 294 L 314.4 294 Q 314.4 288.2 318.29999999999995 284.1 Q 322.19999999999993 280 327.99999999999994 280 Z" fill-opacity="1"/></g></g><g><g><g><path fill="rgb(0,0,0)" stroke="none" paint-order="stroke fill markers" d=" M 253.125 41.875 L 256.25 41.875 L 256.25 20 L 253.125 20 L 253.125 29.375 L 243.75 29.375 L 243.75 20 L 240.625 20 L 240.625 41.875 L 243.75 41.875 L 243.75 32.5 L 253.125 32.5 L 253.125 41.875 Z M 259.375 45 L 237.5 45 L 237.5 16.875 L 259.375 16.875 L 259.375 45 Z" fill-opacity="1"/></g></g><g><g><path fill="rgb(0,0,0)" stroke="none" paint-order="stroke fill markers" d=" M 275.00911188277723 43.17047944542652 L 290.42100724844477 45.74226991856299 L 290.9353653430721 42.65989084542949 L 284.77060719680503 41.6311746561749 L 287.34239766994153 26.21927929050736 L 293.5071558162085 27.247995479761947 L 294.02151391083584 24.16561640662844 L 278.6096185451683 21.593825933491974 L 278.095260450541 24.67620500662548 L 284.26001859680804 25.704921195880065 L 281.68822812367154 41.1168165615476 L 275.52346997740455 40.08810037229301 L 275.00911188277723 43.17047944542652 Z M 292.989028226951 49.33900708632379 L 271.4123747150164 45.738500423932734 L 276.04159756666206 17.997088765731174 L 297.61825107859664 21.597595428122226 L 292.989028226951 49.33900708632379 Z" fill-opacity="1"/></g></g><g><g><path fill="rgb(0,0,0)" stroke="none" paint-order="stroke fill markers" d=" M 320.5337559085392 54.166472412320054 L 323.48943478885366 55.18115825358469 L 330.5922356777061 34.49140609138331 L 327.6365567973916 33.476720250118674 L 324.59249927359775 42.34375689106213 L 315.7254626326543 39.29969936726822 L 318.7695201564482 30.432662726324764 L 315.8138412761337 29.41797688506013 L 308.7110403872813 50.107729047261515 L 311.66671926759574 51.12241488852615 L 314.71077679138966 42.2553782475827 L 323.5778134323331 45.29943577137661 L 320.5337559085392 54.166472412320054 Z M 325.43042782790354 59.151522975163815 L 304.74067566570216 52.04872208631136 L 313.8728482370839 25.44761216348101 L 334.56260039928526 32.55041305233346 L 325.43042782790354 59.151522975163815 Z" fill-opacity="1"/></g></g><g><g><path fill="rgb(0,0,0)" stroke="none" paint-order="stroke fill markers" d=" M 340.8114847582801 62.49751872042691 L 354.55326212088147 69.93419673663118 L 356.04059772412234 67.1858412641109 L 350.5438867790818 64.21117005762919 L 357.98056479528606 50.46939269502781 L 363.4772757403266 53.44406390150951 L 364.96461134356747 50.695708428989235 L 351.2228339809661 43.25903041278496 L 349.7354983777252 46.00738588530524 L 355.23220932276575 48.98205709178695 L 347.7955313065615 62.72383445438834 L 342.29882036152094 59.74916324790663 L 340.8114847582801 62.49751872042691 Z M 355.8142819901609 74.16988781239232 L 336.57579368251896 63.75853858970633 L 349.96181411168664 39.02333933702383 L 369.2003024193286 49.43468855970981 L 355.8142819901609 74.16988781239232 Z" fill-opacity="1"/></g></g><g><g><path fill="rgb(0,0,0)" stroke="none" paint-order="stroke fill markers" d=" M 380.29908492040084 87.6795462090308 L 382.7651490122646 89.59896093618602 L 396.20105210235107 72.3365122931399 L 393.7349880104873 70.41709756598469 L 387.9767438290217 77.81528984157588 L 380.5785515534305 72.05704566011025 L 386.33679573489616 64.65885338451906 L 383.8707316430324 62.73943865736385 L 370.43482855294593 80.00188730040995 L 372.90089264480963 81.92130202756516 L 378.6591368262753 74.52310975197398 L 386.05732910186646 80.28135393343962 L 380.29908492040084 87.6795462090308 Z M 383.3117983769731 93.98443975520496 L 366.049349733927 80.54853666511848 L 383.3240822783239 58.3539598383449 L 400.58653092137 71.78986292843138 L 383.3117983769731 93.98443975520496 Z" fill-opacity="1"/></g></g><g><g><path fill="rgb(0,0,0)" stroke="none" paint-order="stroke fill markers" d=" M 396.7730241748542 102.14336124283203 L 407.3555487315064 113.63904734709972 L 409.65468595235996 111.52254243576927 L 405.42167612969905 106.9242679940622 L 416.91736223396674 96.34174343740999 L 421.1503720566276 100.94001787911706 L 423.4495092774811 98.82351296778663 L 412.86698472082895 87.32782686351894 L 410.5678474999754 89.44433177484939 L 414.80085732263626 94.04260621655646 L 403.3051712183686 104.62513077320867 L 399.0721613957077 100.02685633150159 L 396.7730241748542 102.14336124283203 Z M 407.1729164219833 118.0546894792837 L 392.3573820426702 101.96072893330893 L 413.049617030352 82.91218473133497 L 427.86515140966515 99.00614527730973 L 407.1729164219833 118.0546894792837 Z" fill-opacity="1"/></g></g><g><g><path fill="rgb(0,0,0)" stroke="none" paint-order="stroke fill markers" d=" M 425.9444862825213 138.7825598353403 L 427.6536992766539 141.39870507991068 L 445.96671598864674 129.4342141209826 L 444.25750299451414 126.8180688764122 L 436.40906726080294 131.94570785880995 L 431.2814282784052 124.09727212509875 L 439.1298640121164 118.969633142701 L 437.4206510179838 116.3534878981306 L 419.107634305991 128.31797885705868 L 420.8168473001236 130.9341241016291 L 428.6652830338348 125.80648511923133 L 433.7929220162326 133.65492085294255 L 425.9444862825213 138.7825598353403 Z M 426.7467670262161 145.72406331861367 L 414.782276067288 127.41104660662087 L 438.3275832684216 112.0281296594276 L 450.29207422734976 130.34114637142042 L 426.7467670262161 145.72406331861367 Z" fill-opacity="1"/></g></g><g><g><path fill="rgb(0,0,0)" stroke="none" paint-order="stroke fill markers" d=" M 436.8294290039622 157.81176480670956 L 443.10592001416484 172.12072303569482 L 445.9677116599619 170.8654248336543 L 443.4571152558808 165.14184154206018 L 457.7660734848661 158.86535053185753 L 460.27666988894714 164.58893382345164 L 463.13846153474424 163.3336356214111 L 456.86197052454156 149.02467739242584 L 454.0001788787445 150.27997559446638 L 456.5107752828256 156.0035588860605 L 442.20181705384033 162.28004989626314 L 439.69122064975926 156.55646660466903 L 436.8294290039622 157.81176480670956 Z M 441.49942657040833 176.2378128835324 L 432.7123391561246 156.20527136295303 L 458.4684639682981 144.90758754458827 L 467.2555513825818 164.94012906516764 L 441.49942657040833 176.2378128835324 Z" fill-opacity="1"/></g></g><g><g><path fill="rgb(0,0,0)" stroke="none" paint-order="stroke fill markers" d=" M 452.5235724959381 201.93770881988158 L 453.29071464325307 204.96708465094198 L 474.49634546067597 199.597089619737 L 473.7292033133609 196.56771378867657 L 464.6410758201797 198.86914023062158 L 462.33964937823475 189.78101273744036 L 471.427776871416 187.47958629549535 L 470.660634724101 184.45021046443495 L 449.4550039066781 189.82020549563993 L 450.22214605399313 192.84958132670033 L 459.31027354717435 190.54815488475535 L 461.6116999891193 199.63628237793657 L 452.5235724959381 201.93770881988158 Z M 451.0284809595077 208.76360262931738 L 445.6584859283027 187.55797181189453 L 472.92286840784635 180.65369248605955 L 478.29286343905136 201.8593233034824 L 451.0284809595077 208.76360262931738 Z" fill-opacity="1"/></g></g><g><g><path fill="rgb(0,0,0)" stroke="none" paint-order="stroke fill markers" d=" M 456.63996624321004 223.4701941016333 L 457.9302685162152 239.04182680486252 L 461.04459505686106 238.7837663502615 L 460.528474147659 232.5551132689698 L 476.1001068508882 231.26481099596458 L 476.6162277600903 237.49346407725628 L 479.7305543007361 237.23540362265524 L 478.44025202773093 221.663770919426 L 475.3259254870851 221.92183137402705 L 475.8420463962872 228.15048445531875 L 460.27041369305795 229.44078672832393 L 459.7542927838559 223.21213364703226 L 456.63996624321004 223.4701941016333 Z M 455.0740024301704 242.4142138001094 L 453.26757924796317 220.6139280155885 L 481.29651811377573 218.29138392417914 L 483.10294129598304 240.09166970870004 L 455.0740024301704 242.4142138001094 Z" fill-opacity="1"/></g></g><g><g><path fill="rgb(0,0,0)" stroke="none" paint-order="stroke fill markers" d=" M 457.1560871524121 270.301152817075 L 456.8980266978111 273.4154793577208 L 478.69831248233197 275.2219025399281 L 478.956372936933 272.10757599928223 L 469.6133933149955 271.3333946354791 L 470.3875746787986 261.9904150135416 L 479.7305543007361 262.76459637734473 L 479.98861475533715 259.6502698366989 L 458.18832897081626 257.84384665449164 L 457.9302685162152 260.9581731951375 L 467.2732481381528 261.7323545589406 L 466.49906677434967 271.0753341808781 L 457.1560871524121 270.301152817075 Z M 453.5256397025642 276.27174544376567 L 455.33206288477146 254.47145965924474 L 483.3610017505841 256.7940037506541 L 481.55457856837677 278.594289535175 L 453.5256397025642 276.27174544376567 Z" fill-opacity="1"/></g></g><g><g><path fill="rgb(0,0,0)" stroke="none" paint-order="stroke fill markers" d=" M 454.0578567905681 292.0035395179976 L 450.22214605399313 307.1504186732996 L 453.25152188505353 307.9175608206146 L 454.7858061796835 301.8588091584938 L 469.93268533498554 305.6945198950688 L 468.39840104035557 311.75327155718963 L 471.427776871416 312.5204137045046 L 475.26348760799095 297.3735345492026 L 472.23411177693055 296.60639240188755 L 470.6998274823005 302.6651440640084 L 455.5529483269985 298.8294333274334 L 457.0872326216285 292.77068166531257 L 454.0578567905681 292.0035395179976 Z M 446.4256280756177 309.41265235704503 L 451.7956231068227 288.2070215396222 L 479.06000558636634 295.11130086545717 L 473.6900105551614 316.31693168288 L 446.4256280756177 309.41265235704503 Z" fill-opacity="1"/></g></g><g><g><path fill="rgb(0,0,0)" stroke="none" paint-order="stroke fill markers" d=" M 439.3400254080433 336.4646519016963 L 438.08472720600275 339.32644354749334 L 458.11726872658215 348.1135309617771 L 459.3725669286227 345.25173931598 L 450.7871919912315 341.48584470985844 L 454.5530865973531 332.90046977246726 L 463.1384615347443 336.66636437858887 L 464.39375973678483 333.80457273279177 L 444.36121821620543 325.0174853185081 L 443.1059200141649 327.8792769643051 L 451.6912949515561 331.6451715704267 L 447.92540034543447 340.2305465078179 L 439.3400254080433 336.4646519016963 Z M 433.9676373581652 340.9329369912499 L 442.7547247724489 320.9003954706705 L 468.5108495846224 332.19807928903526 L 459.72376217033866 352.23062080961466 L 433.9676373581652 340.9329369912499 Z" fill-opacity="1"/></g></g><g><g><path fill="rgb(0,0,0)" stroke="none" paint-order="stroke fill markers" d=" M 429.3629122707865 355.98514967551887 L 420.8168473001236 369.06587589837085 L 423.432992544694 370.77508889250345 L 426.85141853295914 365.5427984033626 L 439.9321447558112 374.08886337402555 L 436.51371876754604 379.32115386316633 L 439.1298640121164 381.03036685729893 L 447.67592898277934 367.94964063444695 L 445.0597837382089 366.24042764031435 L 441.6413577499438 371.47271812945513 L 428.56063152709174 362.92665315879225 L 431.97905751535694 357.6943626696514 L 429.3629122707865 355.98514967551887 Z M 416.4914890614206 369.97280814880867 L 428.4559800203487 351.65979143681585 L 452.0012872214823 367.04270838400913 L 440.0367962625542 385.35572509600195 L 416.4914890614206 369.97280814880867 Z" fill-opacity="1"/></g></g><g><g><path fill="rgb(0,0,0)" stroke="none" paint-order="stroke fill markers" d=" M 401.00603399751515 393.2583643154609 L 398.88952908618467 395.5575015363144 L 414.98348963215943 410.3730359156275 L 417.09999454348986 408.07389869477396 L 410.2025828809293 401.72438396078263 L 416.5520976149206 394.8269722982221 L 423.4495092774812 401.17648703221334 L 425.56601418881166 398.8773498113598 L 409.4720536428369 384.0618154320467 L 407.3555487315065 386.36095265290027 L 414.25296039406703 392.7104673868916 L 407.90344566007576 399.6078790494522 L 401.00603399751515 393.2583643154609 Z M 394.4738869540007 395.74013384583753 L 409.2894213333138 379.64617329986277 L 429.9816563209956 398.69471750183675 L 415.16612194168255 414.7886780478115 L 394.4738869540007 395.74013384583753 Z" fill-opacity="1"/></g></g><g><g><path fill="rgb(0,0,0)" stroke="none" paint-order="stroke fill markers" d=" M 385.2312131041283 408.48162433665874 L 372.90089264480963 418.0786979724348 L 374.8203073719649 420.54476206429854 L 379.75243555569233 416.7059326099881 L 389.34950919146837 429.0362530693068 L 384.4173810077409 432.8750825236172 L 386.33679573489616 435.3411466154809 L 398.66711619421477 425.74407297970487 L 396.7477014670596 423.2780088878411 L 391.8155732833321 427.11683834215154 L 382.21849964755603 414.7865178828329 L 387.1506278312835 410.9476884285225 L 385.2312131041283 408.48162433665874 Z M 368.5154138257907 417.53204860772627 L 385.7778624688368 404.0961455176398 L 403.0525950132337 426.2907223444134 L 385.79014637018764 439.72662543449985 L 368.5154138257907 417.53204860772627 Z" fill-opacity="1"/></g></g><g><g><path fill="rgb(0,0,0)" stroke="none" paint-order="stroke fill markers" d=" M 346.3081957033207 434.52781007309136 L 343.55984023080043 436.0151456763322 L 353.9711894534864 455.25363398397417 L 356.7195449260067 453.7662983807333 L 352.25753811628414 445.5212319631725 L 360.50260453384493 441.0592251534499 L 364.9646113435675 449.30429157101076 L 367.71296681608777 447.8169559677699 L 357.30161759340183 428.57846766012796 L 354.5532621208815 430.0658032633688 L 359.01526893060407 438.31086968092967 L 350.7702025130433 442.7728764906522 L 346.3081957033207 434.52781007309136 Z M 339.32414915503927 434.7541258070528 L 358.5626374626812 424.34277658436685 L 371.94865789184894 449.07797583704934 L 352.710169584207 459.48932505973534 L 339.32414915503927 434.7541258070528 Z" fill-opacity="1"/></g></g><g><g><path fill="rgb(0,0,0)" stroke="none" paint-order="stroke fill markers" d=" M 326.4451136691682 443.8041559051507 L 311.6667192675958 448.8775851114739 L 312.6814051088604 451.8332639917884 L 318.5927628694894 449.8038923092591 L 323.6661920758126 464.5822867108315 L 317.75483431518364 466.61165839336076 L 318.76952015644827 469.56733727367526 L 333.5479145580207 464.4939080673521 L 332.533228716756 461.5382291870376 L 326.62187095612705 463.5676008695669 L 321.5484417498039 448.78920646799446 L 327.45979951043284 446.75983478546516 L 326.4451136691682 443.8041559051507 Z M 307.69635454601666 446.93659207242405 L 328.38610670821805 439.8337911835716 L 337.51827927959977 466.4349011064019 L 316.8285271173984 473.5377019952544 L 307.69635454601666 446.93659207242405 Z" fill-opacity="1"/></g></g><g><g><path fill="rgb(0,0,0)" stroke="none" paint-order="stroke fill markers" d=" M 281.1738700290442 455.80080436531887 L 278.09149095591073 456.3151624599462 L 281.6919976183018 477.8918159718807 L 284.7743766914353 477.3774578772534 L 283.2313024075534 468.1303206578529 L 292.47843962695396 466.587246373971 L 294.02151391083584 475.8343835933715 L 297.10389298396933 475.32002549874426 L 293.50338632157826 453.7433719868097 L 290.42100724844477 454.257730081437 L 291.96408153232665 463.5048673008375 L 282.71694431292616 465.0479415847194 L 281.1738700290442 455.80080436531887 Z M 274.4947537881499 453.74714148143994 L 296.0714073000845 450.14663481904887 L 300.70063015173014 477.88804647725044 L 279.1239766397956 481.4885531396415 L 274.4947537881499 453.74714148143994 Z" fill-opacity="1"/></g></g><g><g><path fill="rgb(0,0,0)" stroke="none" paint-order="stroke fill markers" d=" M 259.375 458.125 L 243.75000000000003 458.125 L 243.75000000000003 461.25 L 250.00000000000003 461.25 L 250.00000000000003 476.875 L 243.75000000000003 476.875 L 243.75000000000003 480 L 259.37500000000006 480 L 259.37500000000006 476.875 L 253.12500000000003 476.875 L 253.12500000000003 461.25 L 259.375 461.25 L 259.375 458.125 Z M 240.62500000000003 455 L 262.5 455 L 262.50000000000006 483.125 L 240.62500000000003 483.125 L 240.62500000000003 455 Z" fill-opacity="1"/></g></g><g><g><path fill="rgb(0,0,0)" stroke="none" paint-order="stroke fill markers" d=" M 212.66137182468876 454.7720881760643 L 209.57899275155526 454.257730081437 L 205.9784860891642 475.8343835933715 L 209.06086516229772 476.3487416879988 L 210.6039394461796 467.1016044685983 L 219.8510766655801 468.64467875248016 L 218.30800238169823 477.8918159718807 L 221.39038145483175 478.406174066508 L 224.9908881172228 456.82952055457343 L 221.9085090440893 456.3151624599462 L 220.3654347602074 465.56229967934667 L 211.11829754080688 464.0192253954648 L 212.66137182468876 454.7720881760643 Z M 207.01097177304905 450.6609929136762 L 228.5876252849836 454.26149957606725 L 223.95840243333797 482.0029112342688 L 202.3817489214034 478.40240457187775 L 207.01097177304905 450.6609929136762 Z" fill-opacity="1"/></g></g><g><g><path fill="rgb(0,0,0)" stroke="none" paint-order="stroke fill markers" d=" M 191.2889596127187 449.8922709527385 L 176.5105652111463 444.81884174641533 L 175.49587936988166 447.77452062672984 L 181.40723713051062 449.8038923092591 L 176.33380792418745 464.5822867108315 L 170.4224501635585 462.5529150283022 L 169.40776432229384 465.5085939086167 L 184.18615872386627 470.5820231149399 L 185.2008445651309 467.62634423462544 L 179.28948680450193 465.59697255209613 L 184.3629160108251 450.8185781505237 L 190.27427377145406 452.847949833053 L 191.2889596127187 449.8922709527385 Z M 174.56957217209646 440.8484770248362 L 195.25932433429784 447.95127791368867 L 186.1271517629161 474.552387836519 L 165.43739960071474 467.44958694766655 L 174.56957217209646 440.8484770248362 Z" fill-opacity="1"/></g></g><g><g><path fill="rgb(0,0,0)" stroke="none" paint-order="stroke fill markers" d=" M 148.1950933516388 431.5531388666097 L 145.44673787911853 430.0658032633688 L 135.03538865643256 449.30429157101076 L 137.78374412895283 450.79162717425163 L 142.2457509386754 442.5465607566908 L 150.49081735623622 447.0085675664134 L 146.02881054651365 455.25363398397417 L 148.77716601903393 456.74096958721503 L 159.18851524171993 437.5024812795731 L 156.44015976919965 436.0151456763322 L 151.9781529594771 444.2602120938931 L 143.73308654191624 439.79820528417054 L 148.1950933516388 431.5531388666097 Z M 144.1857180098391 425.8301121876077 L 163.42420631748107 436.24146141029365 L 150.03818588831336 460.9766606629762 L 130.79969758067142 450.5653114402902 L 144.1857180098391 425.8301121876077 Z" fill-opacity="1"/></g></g><g><g><path fill="rgb(0,0,0)" stroke="none" paint-order="stroke fill markers" d=" M 129.56517144705407 419.9981126995901 L 117.23485098773543 410.40103906381404 L 115.31543626058021 412.86710315567774 L 120.24756444430767 416.70593260998817 L 110.65049080853161 429.03625306930684 L 105.71836262480416 425.1974236149964 L 103.79894789764894 427.6634877068601 L 116.1292683569676 437.2605613426362 L 118.0486830841228 434.79449725077245 L 113.11655490039534 430.955667796462 L 122.7136285361714 418.6253473371434 L 127.64575671989887 422.4641767914538 L 129.56517144705407 419.9981126995901 Z M 116.68820162302691 406.0155602447951 L 133.950650266073 419.45146333488157 L 116.67591772167611 441.64604016165515 L 99.41346907863 428.2101370715686 L 116.68820162302691 406.0155602447951 Z" fill-opacity="1"/></g></g><g><g><path fill="rgb(0,0,0)" stroke="none" paint-order="stroke fill markers" d=" M 94.7609561798241 388.6600898737539 L 92.64445126849367 386.3609526529004 L 76.55049072251892 401.1764870322135 L 78.66699563384935 403.47562425306705 L 85.56440729640997 397.1261095190757 L 91.9139220304013 404.0235211816363 L 85.01651036784068 410.3730359156276 L 87.13301527917113 412.6721731364812 L 103.22697582514587 397.85663875716807 L 101.11047091381543 395.55750153631453 L 94.21305925125483 401.90701627030586 L 87.8635445172635 395.00960460774525 L 94.7609561798241 388.6600898737539 Z M 92.82708357801675 381.9453105207164 L 107.64261795732985 398.0392710666912 L 86.95038296964803 417.08781526866517 L 72.13484859033494 400.9938547226904 L 92.82708357801675 381.9453105207164 Z" fill-opacity="1"/></g></g><g><g><path fill="rgb(0,0,0)" stroke="none" paint-order="stroke fill markers" d=" M 80.89236569400899 371.6820211429413 L 72.34630072334606 358.6012949200893 L 69.73015547877566 360.3105079142219 L 73.14858146704083 365.54279840336267 L 60.06785524418882 374.0888633740256 L 56.64942925592366 368.8565728848848 L 54.03328401135325 370.56578587901737 L 62.57934898201617 383.6465121018694 L 65.19549422658658 381.9372991077368 L 61.777068238321405 376.705008618596 L 74.85779446117341 368.1589436479331 L 78.27622044943858 373.3912341370739 L 80.89236569400899 371.6820211429413 Z M 73.25323297378388 354.2759366813863 L 85.21772393271198 372.58895339337914 L 61.67241673157836 387.97187034057237 L 49.70792577265027 369.65885362857955 L 73.25323297378388 354.2759366813863 Z" fill-opacity="1"/></g></g><g><g><path fill="rgb(0,0,0)" stroke="none" paint-order="stroke fill markers" d=" M 58.14937818787566 330.74106861010233 L 56.894079985835134 327.87927696430523 L 36.861538465255755 336.666364378589 L 38.11683666729628 339.528156024386 L 46.70221160468745 335.7622614182644 L 50.46810621080904 344.3476363556556 L 41.882731273417875 348.1135309617772 L 43.13802947545841 350.97532260757424 L 63.17057099603778 342.18823519329055 L 61.915272793997254 339.32644354749345 L 53.329897856606095 343.09233815361506 L 49.564003250484504 334.5069632162239 L 58.14937818787566 330.74106861010233 Z M 58.500573429591654 323.76218711646766 L 67.28766084387537 343.79472863704706 L 41.53153603170188 355.0924124554118 L 32.74444861741817 335.0598709348325 L 58.500573429591654 323.76218711646766 Z" fill-opacity="1"/></g></g><g><g><path fill="rgb(0,0,0)" stroke="none" paint-order="stroke fill markers" d=" M 50.54499609332186 310.17979450436 L 46.709285356746875 295.032915349058 L 43.67990952568647 295.800057496373 L 45.21419382031647 301.8588091584938 L 30.06731466501443 305.6945198950688 L 28.533030370384434 299.63576823294795 L 25.503654539324025 300.402910380263 L 29.339365275899013 315.549789535565 L 32.36874110695942 314.78264738825004 L 30.834456812329428 308.72389572612923 L 45.98133596763146 304.8881849895542 L 47.51562026226146 310.94693665167506 L 50.54499609332186 310.17979450436 Z M 48.97151904049229 291.2363973706826 L 54.34151407169727 312.44202818810544 L 27.077131592153602 319.3463075139404 L 21.70713656094862 298.1406766965176 L 48.97151904049229 291.2363973706826 Z" fill-opacity="1"/></g></g><g><g><path fill="rgb(0,0,0)" stroke="none" paint-order="stroke fill markers" d=" M 42.3277919383858 264.0724997357834 L 42.069731483784764 260.9581731951376 L 20.26944569926386 262.76459637734484 L 20.5275061538649 265.8789229179907 L 29.87048577580243 265.10474155418757 L 30.64466713960555 274.4477211761251 L 21.301687517668018 275.22190253992824 L 21.559747972269058 278.33622908057407 L 43.36003375678996 276.5298058983668 L 43.101973302188924 273.4154793577209 L 33.75899368025139 274.1896607215241 L 32.98481231644827 264.84668109958653 L 42.3277919383858 264.0724997357834 Z M 44.92599756982957 257.58578619989066 L 46.732420752036845 279.3860719844116 L 18.703481886224257 281.70861607582094 L 16.897058704016978 259.90833029130005 L 44.92599756982957 257.58578619989066 Z" fill-opacity="1"/></g></g><g><g><path fill="rgb(0,0,0)" stroke="none" paint-order="stroke fill markers" d=" M 41.81167102918373 242.15615334550836 L 43.10197330218892 226.58452064227913 L 39.987646761543076 226.3264601876781 L 39.471525852340996 232.5551132689698 L 23.899893149111783 231.26481099596458 L 24.41601405831386 225.0361579146729 L 21.301687517668014 224.77809746007188 L 20.011385244662822 240.34973016330107 L 23.125711785308667 240.6077906179021 L 23.641832694510743 234.37913753661044 L 39.21346539773996 235.66943980961562 L 38.69734448853788 241.89809289090732 L 41.81167102918373 242.15615334550836 Z M 46.4743602974358 223.72825455623433 L 44.66793711522853 245.52854034075523 L 16.63899824941594 243.2059962493459 L 18.445421431623213 221.40571046482498 L 46.4743602974358 223.72825455623433 Z" fill-opacity="1"/></g></g><g><g><path fill="rgb(0,0,0)" stroke="none" paint-order="stroke fill markers" d=" M 49.01071179869184 195.87895715776085 L 49.777853946006836 192.84958132670042 L 28.57222312858398 187.47958629549547 L 27.805080981268983 190.50896212655587 L 36.893208474450205 192.81038856850085 L 34.59178203250522 201.89851606168207 L 25.503654539323996 199.5970896197371 L 24.736512392008997 202.6264654507975 L 45.942143209431855 207.99646048200248 L 46.70928535674685 204.96708465094207 L 37.62115786356563 202.6656582089971 L 39.92258430551061 193.57753071581584 L 49.01071179869184 195.87895715776085 Z M 53.57437192438224 190.58734764295502 L 48.20437689317727 211.79297846037787 L 20.939994413633595 204.88869913454292 L 26.30998944483857 183.68306831712005 L 53.57437192438224 190.58734764295502 Z" fill-opacity="1"/></g></g><g><g><path fill="rgb(0,0,0)" stroke="none" paint-order="stroke fill markers" d=" M 55.6387817837946 174.9825146814919 L 61.915272793997254 160.6735564525066 L 59.0534811482002 159.41825825046607 L 56.542884744119135 165.14184154206018 L 42.23392651513387 158.86535053185753 L 44.74452291921493 153.14176724026342 L 41.882731273417875 151.8864690382229 L 35.60624026321523 166.19542726720817 L 38.46803190901228 167.4507254692487 L 40.97862831309334 161.7271421776546 L 55.28758654207861 168.00363318785725 L 52.776990137997544 173.72721647945136 L 55.6387817837946 174.9825146814919 Z M 66.03236264183484 159.0670630087501 L 57.245275227551126 179.09960452932947 L 31.489150415377637 167.8019207109647 L 40.27623782966134 147.7693791903853 L 66.03236264183484 159.0670630087501 Z" fill-opacity="1"/></g></g><g><g><path fill="rgb(0,0,0)" stroke="none" paint-order="stroke fill markers" d=" M 77.47393970574379 133.55026934619954 L 79.18315269987637 130.93412410162915 L 60.87013598788356 118.96963314270107 L 59.16092299375097 121.58577838727146 L 67.00935872746217 126.71341736966922 L 61.88171974506443 134.56185310338043 L 54.03328401135322 129.43421412098266 L 52.32407101722064 132.05035936555308 L 70.63708772921346 144.01485032448116 L 72.34630072334603 141.39870507991074 L 64.49786498963483 136.271066097513 L 69.62550397203258 128.4226303638018 L 77.47393970574379 133.55026934619954 Z M 83.50851093857936 130.02719185119133 L 71.54401997965128 148.34020856318415 L 47.99871277851766 132.9572916159909 L 59.96320373744574 114.64427490399808 L 83.50851093857936 130.02719185119133 Z" fill-opacity="1"/></g></g><g><g><path fill="rgb(0,0,0)" stroke="none" paint-order="stroke fill markers" d=" M 90.52794635716306 115.93818456795337 L 101.11047091381525 104.44249846368568 L 98.81133369296171 102.32599355235524 L 94.57832387030084 106.92426799406232 L 83.08263776603314 96.34174343741012 L 87.31564758869402 91.74346899570304 L 85.01651036784048 89.6269640843726 L 74.4339858111883 101.12265018864029 L 76.73312303204183 103.23915509997073 L 80.9661328547027 98.64088065826365 L 92.4618189589704 109.22340521491586 L 88.22880913630952 113.82167965662293 L 90.52794635716306 115.93818456795337 Z M 105.52611304599922 104.25986615416258 L 90.71057866668616 120.35382670013735 L 70.01834367900432 101.3052824981634 L 84.83387805831738 85.21132195218863 L 105.52611304599922 104.25986615416258 Z" fill-opacity="1"/></g></g><g><g><path fill="rgb(0,0,0)" stroke="none" paint-order="stroke fill markers" d=" M 124.63304326332657 83.84071675472043 L 127.0991073551903 81.92130202756522 L 113.66320426510381 64.65885338451912 L 111.19714017324009 66.57826811167433 L 116.95538435470573 73.97646038726552 L 109.55719207911453 79.73470456873116 L 103.7989478976489 72.33651229313996 L 101.33288380578517 74.25592702029518 L 114.76878689587166 91.51837566334129 L 117.23485098773538 89.59896093618607 L 111.47660680626974 82.20076866059489 L 118.87479908186093 76.44252447912925 L 124.63304326332657 83.84071675472043 Z M 131.48458617420926 82.46795139227373 L 114.22213753116314 95.90385448236023 L 96.94740498676623 73.70927765558666 L 114.20985362981233 60.27337456550018 L 131.48458617420926 82.46795139227373 Z" fill-opacity="1"/></g></g><g><g><path fill="rgb(0,0,0)" stroke="none" paint-order="stroke fill markers" d=" M 142.6983824065981 71.4215323398721 L 156.4401597691995 63.98485432366782 L 154.95282416595865 61.23649885114754 L 149.4561132209181 64.21117005762926 L 142.0194352047138 50.469392695027864 L 147.51614614975435 47.494721488546155 L 146.0288105465135 44.746366016025874 L 132.28703318391211 52.18304403223016 L 133.77436878715298 54.93139950475044 L 139.27107973219353 51.95672829826873 L 146.7077577483978 65.69850566087011 L 141.21104680335725 68.67317686735183 L 142.6983824065981 71.4215323398721 Z M 160.67585084496062 65.24587419294724 L 141.43736253731868 75.65722341563324 L 128.05134210815098 50.92202416295074 L 147.28983041579292 40.51067494026474 L 160.67585084496062 65.24587419294724 Z" fill-opacity="1"/></g></g><g><g><path fill="rgb(0,0,0)" stroke="none" paint-order="stroke fill markers" d=" M 185.3776018520897 52.13710072979079 L 188.33328073240418 51.12241488852615 L 181.2304798435517 30.432662726324764 L 178.27480096323723 31.4473485675894 L 181.31885848703115 40.314385208532855 L 172.45182184608768 43.358442732326765 L 169.4077643222938 34.49140609138331 L 166.4520854419793 35.50609193264795 L 173.55488633083175 56.195844094849335 L 176.51056521114623 55.1811582535847 L 173.46650768735233 46.314121612641244 L 182.33354432829577 43.270064088847334 L 185.3776018520897 52.13710072979079 Z M 192.30364545398328 53.063407927575994 L 171.6138932917819 60.16620881642845 L 162.48172072040018 33.565098893598105 L 183.17147288260156 26.462298004745644 L 192.30364545398328 53.063407927575994 Z" fill-opacity="1"/></g></g><g><g><path fill="rgb(0,0,0)" stroke="none" paint-order="stroke fill markers" d=" M 206.4966136784216 46.25662801319032 L 221.90850904408913 43.68483754005384 L 221.39415094946185 40.60245846692033 L 215.22939280319483 41.63117465617493 L 212.65760233005835 26.21927929050739 L 218.82236047632537 25.1905631012528 L 218.30800238169806 22.108184028119293 L 202.89610701603053 24.67997450125577 L 203.41046511065784 27.762353574389277 L 209.57522325692486 26.733637385134685 L 212.14701373006133 42.14553275080222 L 205.9822555837943 43.17424894005681 L 206.4966136784216 46.25662801319032 Z M 225.50524621184994 46.25285851856005 L 203.92859269991538 49.85336518095112 L 199.29936984826975 22.11195352274956 L 220.87602336020427 18.51144686035849 L 225.50524621184994 46.25285851856005 Z" fill-opacity="1"/></g></g></g></g></svg>