<svg version="1.1" xmlns="http://www.w3.org/2000/svg" xmlns:xlink="http://www.w3.org/1999/xlink" width="500" height="500" viewBox="0 0 500 500"><defs/><g><g><g><path fill="rgb(0,0,0)" stroke="none" paint-order="stroke fill markers" d=" M 163.6 263.4 L 163.6 263.4 Q 163.2 267.8 163 272.2 Q 162.8 276.6 162.8 281.2 L 162.8 281.2 Q 162.8 286.4 163.1 291.5 Q 163.39999999999998 296.6 164.39999999999998 301.8 L 164.39999999999998 301.8 Q 165 304.8 166.3 307.3 Q 167.6 309.8 167.6 313.2 L 167.6 313.2 Q 167.6 318.8 163.7 322.9 Q 159.8 327 154.2 327 L 154.2 327 Q 149.2 327 145.3 323.5 Q 141.39999999999998 320 138.29999999999998 314.3 Q 135.2 308.6 133 301.7 Q 130.79999999999998 294.8 129.2 287.9 Q 127.6 281 126.6 275 Q 125.6 269 125 265.4 L 125 265.4 Q 122 264.8 119 264.1 Q 116 263.4 113.6 262 Q 111.19999999999999 260.6 109.69999999999999 258.2 Q 108.19999999999999 255.8 108.19999999999999 252 L 108.19999999999999 252 Q 108.19999999999999 247.39999999999998 110.49999999999999 244.3 Q 112.8 241.2 117.39999999999999 240.2 L 117.39999999999999 240.2 Q 120.39999999999999 239.6 122.3 238.5 Q 124.19999999999999 237.39999999999998 125.3 235.89999999999998 Q 126.39999999999999 234.39999999999998 127 232.3 Q 127.6 230.2 128 227.39999999999998 L 128 227.39999999999998 Q 128.6 223.2 130.2 216.2 Q 131.79999999999998 209.2 134.1 201.2 Q 136.39999999999998 193.2 139.7 185.1 Q 143 177 147 170.39999999999998 Q 151 163.79999999999998 155.89999999999998 159.6 Q 160.8 155.39999999999998 166.39999999999998 155.39999999999998 L 166.39999999999998 155.39999999999998 Q 171.8 155.39999999999998 176 159.5 Q 180.2 163.6 180.2 169 L 180.2 169 Q 180.2 171.6 179.3 176 Q 178.39999999999998 180.4 177 186 Q 175.6 191.6 173.89999999999998 198 Q 172.2 204.39999999999998 170.7 210.5 Q 169.2 216.6 168.1 222.2 Q 167 227.8 166.6 231.8 L 166.6 231.8 Q 182.8 230.2 199.1 229.8 Q 215.39999999999998 229.39999999999998 231.60000000000002 230.6 L 231.60000000000002 230.6 Q 232 227.2 232.8 221.6 Q 233.60000000000002 216 234.7 209.39999999999998 Q 235.8 202.8 237.10000000000002 195.79999999999998 Q 238.39999999999998 188.79999999999998 239.89999999999998 182.4 Q 241.39999999999998 176 243.10000000000002 171.1 Q 244.8 166.2 246.39999999999998 163.6 L 246.39999999999998 163.6 Q 248 161 250.60000000000002 159.39999999999998 Q 253.2 157.79999999999998 256.4 157.79999999999998 L 256.4 157.79999999999998 Q 260.4 157.79999999999998 263.1 159.39999999999998 Q 265.8 161 267.4 163.5 Q 269 166 269.6 169.29999999999998 Q 270.2 172.6 270.2 176 L 270.2 176 Q 270.2 197.79999999999998 269.5 219.6 Q 268.8 241.39999999999998 268.8 263.2 L 268.8 263.2 Q 268.8 277 270 290.6 Q 271.2 304.2 271.2 318 L 271.2 318 Q 271.2 323.2 267.3 326.8 Q 263.4 330.4 258.2 330.4 L 258.2 330.4 Q 253.8 330.4 250.2 326.3 Q 246.60000000000002 322.2 243.89999999999998 315.7 Q 241.2 309.2 239.10000000000002 301.3 Q 237 293.4 235.60000000000002 285.8 Q 234.2 278.2 233.3 271.8 Q 232.39999999999998 265.4 232 262 L 232 262 Q 222.2 262.2 212.5 262.1 Q 202.8 262 193 262 L 193 262 Q 185.6 262 178.3 262.3 Q 171 262.6 163.6 263.4 Z M 282.4 240.6 L 282.4 240.6 Q 284 236 286.7 232.5 Q 289.4 229 294 229 L 294 229 Q 299.79999999999995 229 302.09999999999997 231.89999999999998 Q 304.4 234.8 304.79999999999995 239 Q 305.2 243.2 304.59999999999997 248 Q 304 252.8 304 256.4 L 304 256.4 Q 304 261.8 304.5 267.1 Q 305 272.4 305 277.8 L 305 277.8 Q 305 281.4 301.7 283.9 Q 298.4 286.4 295 286.4 L 295 286.4 Q 290.2 286.4 287.09999999999997 283.8 Q 284 281.2 282.29999999999995 277.1 Q 280.59999999999997 273 280 267.8 Q 279.4 262.6 279.59999999999997 257.5 Q 279.79999999999995 252.39999999999998 280.59999999999997 247.89999999999998 Q 281.4 243.39999999999998 282.4 240.6 Z M 308.59999999999997 212.2 L 308.59999999999997 212.2 Q 308.59999999999997 216.39999999999998 305.4 220.1 Q 302.2 223.8 297.59999999999997 223.8 L 297.59999999999997 223.8 Q 293.2 223.8 289.4 220.6 Q 285.59999999999997 217.39999999999998 285.59999999999997 212.8 L 285.59999999999997 212.8 Q 285.59999999999997 207.6 288.9 204 Q 292.2 200.4 297.2 200.4 L 297.2 200.4 Q 302 200.4 305.29999999999995 203.89999999999998 Q 308.59999999999997 207.39999999999998 308.59999999999997 212.2 Z M 320.4 255.6 L 320.4 255.6 Q 320.4 250.39999999999998 321.99999999999994 240.5 Q 323.59999999999997 230.6 326.59999999999997 218.7 Q 329.59999999999997 206.8 333.79999999999995 194.29999999999998 Q 337.99999999999994 181.79999999999998 343.09999999999997 171.6 Q 348.19999999999993 161.39999999999998 354.29999999999995 154.89999999999998 Q 360.4 148.39999999999998 366.99999999999994 148.39999999999998 L 366.99999999999994 148.39999999999998 Q 372.4 148.39999999999998 376.09999999999997 152.2 Q 379.79999999999995 156 379.79999999999995 161.39999999999998 L 379.79999999999995 161.39999999999998 Q 379.79999999999995 164.79999999999998 378.49999999999994 167.89999999999998 Q 377.19999999999993 171 375.79999999999995 174 L 375.79999999999995 174 Q 366.4 193.6 358.19999999999993 212.5 Q 349.99999999999994 231.39999999999998 343.99999999999994 252.39999999999998 L 343.99999999999994 252.39999999999998 Q 342.99999999999994 255.39999999999998 342.9 259.4 Q 342.79999999999995 263.4 341.99999999999994 267 Q 341.19999999999993 270.6 339.09999999999997 273.1 Q 336.99999999999994 275.6 332.4 275.6 L 332.4 275.6 Q 328.79999999999995 275.6 326.49999999999994 273.5 Q 324.19999999999993 271.4 322.9 268.4 Q 321.59999999999997 265.4 320.99999999999994 261.9 Q 320.4 258.4 320.4 255.6 Z M 327.99999999999994 284 L 327.99999999999994 284 Q 333.59999999999997 284 337.29999999999995 287.4 Q 340.99999999999994 290.8 340.99999999999994 296.6 L 340.99999999999994 296.6 Q 340.99999999999994 302 336.99999999999994 306.4 Q 332.99999999999994 310.8 327.4 310.8 L 327.4 310.8 Q 321.79999999999995 310.8 318.09999999999997 307.2 Q 314.4 303.6 314.4 298 L 314.4 298 Q 314.4 292.2 318.29999999999995 288.1 Q 322.19999999999993 284 327.99999999999994 284 Z" fill-opacity="1"/></g></g><g><g><g><path fill="rgb(0,0,0)" stroke="none" paint-order="stroke fill markers" d=" M 250 26.75 L 250 26.75 Q 243.7 26.75 240.875 25.475 Q 238.05 24.2 238.05 21.35 L 238.05 21.35 Q 238.05 18.5 240.875 17.224999999999998 Q 243.7 15.95 250 15.95 L 250 15.95 Q 256.3 15.95 259.125 17.224999999999998 Q 261.95 18.5 261.95 21.35 L 261.95 21.35 Q 261.95 24.2 259.15 25.475 Q 256.35 26.75 250 26.75 Z" fill-opacity="1"/></g></g><g><g><path fill="rgb(0,0,0)" stroke="none" paint-order="stroke fill markers" d=" M 296.4162849750648 31.628548136177866 L 296.4162849750648 31.628548136177866 Q 290.2539550904418 30.318704484025982 287.75577552416144 28.48421576653021 Q 285.2575959578811 26.649727049034436 285.8501442767117 23.86200638694309 L 285.8501442767117 23.86200638694309 Q 286.4426925955423 21.074285724851745 289.47104697340797 20.414498060476312 Q 292.4994013512736 19.75471039610088 298.6617312358966 21.064554048252763 L 298.6617312358966 21.064554048252763 Q 304.82406112051956 22.374397700404646 307.32224068679994 24.208886417900416 Q 309.8204202530803 26.043375135396193 309.22787193424966 28.83109579748754 L 309.22787193424966 28.83109579748754 Q 308.63532361541905 31.618816459578884 305.63142292757175 32.28380191622476 Q 302.62752223972444 32.94878737287064 296.4162849750648 31.628548136177866 Z" fill-opacity="1"/></g></g><g><g><path fill="rgb(0,0,0)" stroke="none" paint-order="stroke fill markers" d=" M 340.80395556667236 46.05097658128936 L 340.80395556667236 46.05097658128936 Q 335.048619183524 43.48853572991182 332.98644248560527 41.17473425472837 Q 330.9242657876866 38.86093277954492 332.08346522045264 36.25732822526351 L 332.08346522045264 36.25732822526351 Q 333.24266465321864 33.65372367098209 336.34201979098066 33.63798422917691 Q 339.4413749287426 33.62224478737173 345.196711311891 36.18468563874927 L 345.196711311891 36.18468563874927 Q 350.9520476950394 38.74712649012682 353.0142243929581 41.06092796531026 Q 355.0764010908768 43.37472944049372 353.9172016581108 45.97833399477513 L 353.9172016581108 45.97833399477513 Q 352.75800222534474 48.58193854905654 349.68148572402384 48.60784640693862 Q 346.6049692227029 48.633754264820695 340.80395556667236 46.05097658128936 Z" fill-opacity="1"/></g></g><g><g><path fill="rgb(0,0,0)" stroke="none" paint-order="stroke fill markers" d=" M 381.2230575742946 69.38695600579298 L 381.2230575742946 69.38695600579298 Q 376.1262505097324 65.6839089163504 374.5902036972961 62.99191891079611 Q 373.05415688485976 60.29992890524181 374.72934485389334 57.99423047127321 L 374.72934485389334 57.99423047127321 Q 376.40453282292685 55.68853203730461 379.439432028709 56.31752870720279 Q 382.47433123449116 56.94652537710097 387.5711382990533 60.64957246654355 L 387.5711382990533 60.64957246654355 Q 392.6679453636155 64.35261955598614 394.2039921760518 67.04460956154043 Q 395.74003898848815 69.73659956709473 394.0648510194546 72.04229800106333 L 394.0648510194546 72.04229800106333 Q 392.389663050421 74.34799643503192 389.37498926949826 73.73369439644105 Q 386.3603154885755 73.11939235785019 381.2230575742946 69.38695600579298 Z" fill-opacity="1"/></g></g><g><g><path fill="rgb(0,0,0)" stroke="none" paint-order="stroke fill markers" d=" M 415.90708228782825 100.61659213038492 L 415.90708228782825 100.61659213038492 Q 411.69155946776743 95.93477972987732 410.74877515728735 92.98225407479615 Q 409.8059908468072 90.02972841971496 411.9239535994178 88.12270619159221 L 411.9239535994178 88.12270619159221 Q 414.0419163520284 86.21568396346947 416.87971996747586 87.46192657233556 Q 419.71752358292326 88.70816918120165 423.9330464029841 93.38998158170924 L 423.9330464029841 93.38998158170924 Q 428.1485692230449 98.07179398221683 429.091353533525 101.024319637298 Q 430.0341378440051 103.9768452923792 427.9161750913945 105.88386752050194 L 427.9161750913945 105.88386752050194 Q 425.79821233878397 107.79088974862468 422.9771369884955 106.56322576039553 Q 420.156061638207 105.33556177216636 415.90708228782825 100.61659213038492 Z" fill-opacity="1"/></g></g><g><g><path fill="rgb(0,0,0)" stroke="none" paint-order="stroke fill markers" d=" M 443.34017139487594 138.37499999999997 L 443.34017139487594 138.37499999999997 Q 440.19017139487596 132.919039956158 439.8818537847011 129.83501819046697 Q 439.5735361745263 126.75099642477593 442.04170857531193 125.32599642477592 L 442.04170857531193 125.32599642477592 Q 444.5098809760976 123.90099642477593 447.02656336592275 125.71001819046697 Q 449.5432457557479 127.51903995615801 452.6932457557479 132.97499999999997 L 452.6932457557479 132.97499999999997 Q 455.8432457557479 138.43096004384194 456.15156336592275 141.51498180953297 Q 456.45988097609757 144.599003575224 453.9917085753119 146.02400357522401 L 453.9917085753119 146.02400357522401 Q 451.52353617452627 147.44900357522403 449.01935378470114 145.66163244462757 Q 446.51517139487595 143.87426131403114 443.34017139487594 138.37499999999997 Z" fill-opacity="1"/></g></g><g><g><path fill="rgb(0,0,0)" stroke="none" paint-order="stroke fill markers" d=" M 462.32336726289304 181.011956005793 L 462.32336726289304 181.011956005793 Q 460.3765601983309 175.02029995313353 460.71618424749795 171.93956862677166 Q 461.055808296665 168.8588373004098 463.7663193681062 167.97813886644118 L 463.7663193681062 167.97813886644118 Q 466.4768304395474 167.09744043247258 468.562400506933 169.39017842317833 Q 470.6479705743185 171.68291641388407 472.59477763888066 177.67457246654357 L 472.59477763888066 177.67457246654357 Q 474.5415847034428 183.66622851920303 474.20196065427575 186.74695984556487 Q 473.8623366051087 189.82769117192674 471.1518255336675 190.70838960589535 L 471.1518255336675 190.70838960589535 Q 468.4413144622263 191.58908803986395 466.36346981970013 189.3201264620656 Q 464.2856251771739 187.05116488426722 462.32336726289304 181.011956005793 Z" fill-opacity="1"/></g></g><g><g><path fill="rgb(0,0,0)" stroke="none" paint-order="stroke fill markers" d=" M 472.02701314096703 226.66402057549632 L 472.02701314096703 226.66402057549632 Q 471.3684838223808 220.3985326346762 472.34120633024423 217.45573448959456 Q 473.31392883810764 214.51293634451292 476.1483162399073 214.21503022420012 L 476.1483162399073 214.21503022420012 Q 478.98270364170685 213.91712410388732 480.5460119670325 216.59337466763643 Q 482.1093202923582 219.26962523138553 482.7678496109444 225.53511317220566 L 482.7678496109444 225.53511317220566 Q 483.4263789295306 231.80060111302578 482.4536564216672 234.74339925810742 Q 481.48093391380377 237.68619740318906 478.6465465120042 237.98410352350186 L 478.6465465120042 237.98410352350186 Q 475.8121591102046 238.28200964381466 474.2514639964606 235.63062212744975 Q 472.6907688827166 232.97923461108485 472.02701314096703 226.66402057549632 Z" fill-opacity="1"/></g></g><g><g><path fill="rgb(0,0,0)" stroke="none" paint-order="stroke fill markers" d=" M 472.02701314096703 273.3359794245036 L 472.02701314096703 273.3359794245036 Q 472.68554245955323 267.0704914836835 474.2488507848789 264.39424091993436 Q 475.81215911020456 261.7179903561852 478.6465465120042 262.015896476498 L 478.6465465120042 262.015896476498 Q 481.48093391380377 262.3138025968109 482.4536564216672 265.2566007418925 Q 483.4263789295306 268.1993988869741 482.7678496109444 274.46488682779426 L 482.7678496109444 274.46488682779426 Q 482.1093202923582 280.73037476861435 480.5460119670325 283.4066253323635 Q 478.98270364170685 286.0828758961126 476.1483162399073 285.78496977579977 L 476.1483162399073 285.78496977579977 Q 473.3139288381077 285.48706365548696 472.3385931186626 282.56912855778955 Q 471.36325739921745 279.65119346009214 472.02701314096703 273.3359794245036 Z" fill-opacity="1"/></g></g><g><g><path fill="rgb(0,0,0)" stroke="none" paint-order="stroke fill markers" d=" M 462.3233672628931 318.988043994207 L 462.3233672628931 318.988043994207 Q 464.27017432745527 312.99638794154754 466.35574439484077 310.7036499508418 Q 468.44131446222633 308.410911960136 471.15182553366753 309.2916103941046 L 471.15182553366753 309.2916103941046 Q 473.86233660510874 310.1723088280732 474.2019606542758 313.2530401544351 Q 474.54158470344294 316.33377148079694 472.5947776388807 322.32542753345643 L 472.5947776388807 322.32542753345643 Q 470.64797057431855 328.31708358611587 468.56240050693305 330.6098215768216 Q 466.4768304395475 332.9025595675274 463.7663193681063 332.0218611335588 L 463.7663193681063 332.0218611335588 Q 461.0558082966651 331.1411626995902 460.70845882263865 328.0842077861357 Q 460.36110934861216 325.02725287268123 462.3233672628931 318.988043994207 Z" fill-opacity="1"/></g></g><g><g><path fill="rgb(0,0,0)" stroke="none" paint-order="stroke fill markers" d=" M 443.34017139487594 361.62499999999994 L 443.34017139487594 361.62499999999994 Q 446.490171394876 356.169039956158 449.0068537847011 354.3600181904669 Q 451.52353617452627 352.5509964247759 453.9917085753119 353.9759964247759 L 453.9917085753119 353.9759964247759 Q 456.45988097609757 355.4009964247759 456.15156336592275 358.4850181904669 Q 455.8432457557479 361.56903995615795 452.6932457557479 367.0249999999999 L 452.6932457557479 367.0249999999999 Q 449.5432457557479 372.4809600438419 447.02656336592275 374.28998180953295 Q 444.5098809760976 376.099003575224 442.04170857531193 374.674003575224 L 442.04170857531193 374.674003575224 Q 439.5735361745263 373.249003575224 439.8693537847011 370.18663244462755 Q 440.1651713948759 367.1242613140311 443.34017139487594 361.62499999999994 Z" fill-opacity="1"/></g></g><g><g><path fill="rgb(0,0,0)" stroke="none" paint-order="stroke fill markers" d=" M 415.90708228782836 399.38340786961504 L 415.90708228782836 399.38340786961504 Q 420.12260510788917 394.7015954691074 422.9604087233366 393.45535286024136 Q 425.7982123387841 392.20911025137525 427.9161750913946 394.116132479498 L 427.9161750913946 394.116132479498 Q 430.0341378440052 396.02315470762073 429.09135353352514 398.97568036270195 Q 428.148569223045 401.9282060177831 423.9330464029842 406.6100184182907 L 423.9330464029842 406.6100184182907 Q 419.71752358292343 411.2918308187983 416.879719967476 412.53807342766436 Q 414.0419163520285 413.78431603653047 411.9239535994179 411.8772938084077 L 411.9239535994179 411.8772938084077 Q 409.80599084680733 409.970271580285 410.7320468921285 407.0363245458407 Q 411.6581029374496 404.10237751139647 415.90708228782836 399.38340786961504 Z" fill-opacity="1"/></g></g><g><g><path fill="rgb(0,0,0)" stroke="none" paint-order="stroke fill markers" d=" M 381.22305757429467 430.613043994207 L 381.22305757429467 430.613043994207 Q 386.3198646388568 426.9099969047644 389.35476384463897 426.2810002348662 Q 392.38966305042106 425.652003564968 394.06485101945464 427.95770199893667 L 394.06485101945464 427.95770199893667 Q 395.7400389884882 430.26340043290526 394.2039921760519 432.9553904384595 Q 392.66794536361556 435.64738044401383 387.57113829905336 439.3504275334564 L 387.57113829905336 439.3504275334564 Q 382.4743312344912 443.053474622899 379.43943202870906 443.6824712927972 Q 376.40453282292697 444.31146796269536 374.7293448538934 442.0057695287268 L 374.7293448538934 442.0057695287268 Q 373.0541568848598 439.7000710947582 374.5699782724368 437.02277572051116 Q 376.0857996600137 434.3454803462642 381.22305757429467 430.613043994207 Z" fill-opacity="1"/></g></g><g><g><path fill="rgb(0,0,0)" stroke="none" paint-order="stroke fill markers" d=" M 340.8039555666724 453.94902341871057 L 340.8039555666724 453.94902341871057 Q 346.5592919498208 451.38658256733305 349.65864708758284 451.40232200913823 Q 352.7580022253448 451.4180614509434 353.91720165811086 454.0216660052248 L 353.91720165811086 454.0216660052248 Q 355.07640109087686 456.62527055950625 353.01422439295817 458.9390720346897 Q 350.9520476950395 461.25287350987315 345.1967113118911 463.81531436125067 L 345.1967113118911 463.81531436125067 Q 339.4413749287427 466.3777552126282 336.3420197909807 466.36201577082306 Q 333.2426646532187 466.3462763290179 332.0834652204527 463.74267177473644 L 332.0834652204527 463.74267177473644 Q 330.92426578768664 461.13906722045505 332.96360384916426 458.8354341613485 Q 335.00294191064194 456.5318011022419 340.8039555666724 453.94902341871057 Z" fill-opacity="1"/></g></g><g><g><path fill="rgb(0,0,0)" stroke="none" paint-order="stroke fill markers" d=" M 296.41628497506485 468.37145186382213 L 296.41628497506485 468.37145186382213 Q 302.57861485968783 467.06160821167026 305.60696923755347 467.7213958760457 Q 308.6353236154191 468.3811835404211 309.2278719342497 471.16890420251246 L 309.2278719342497 471.16890420251246 Q 309.82042025308033 473.9566248646038 307.3222406868 475.79111358209957 Q 304.8240611205196 477.62560229959536 298.66173123589664 478.9354459517472 L 298.66173123589664 478.9354459517472 Q 292.49940135127366 480.2452896038991 289.471046973408 479.5855019395237 Q 286.4426925955424 478.92571427514827 285.8501442767118 476.1379936130569 L 285.8501442767118 476.1379936130569 Q 285.25759595788116 473.3502729509656 287.73132183414316 471.52098202574024 Q 290.20504771040515 469.6916911005149 296.41628497506485 468.37145186382213 Z" fill-opacity="1"/></g></g><g><g><path fill="rgb(0,0,0)" stroke="none" paint-order="stroke fill markers" d=" M 250.00000000000003 473.25 L 250.00000000000003 473.25 Q 256.3 473.25 259.12500000000006 474.525 Q 261.95000000000005 475.8 261.95000000000005 478.65 L 261.95000000000005 478.65 Q 261.95000000000005 481.5 259.12500000000006 482.775 Q 256.3 484.05 250.00000000000003 484.05 L 250.00000000000003 484.05 Q 243.70000000000005 484.05 240.87500000000003 482.775 Q 238.05000000000004 481.5 238.05000000000004 478.65 L 238.05000000000004 478.65 Q 238.05000000000004 475.8 240.85000000000002 474.525 Q 243.65000000000003 473.25 250.00000000000003 473.25 Z" fill-opacity="1"/></g></g><g><g><path fill="rgb(0,0,0)" stroke="none" paint-order="stroke fill markers" d=" M 203.5837150249353 468.37145186382213 L 203.5837150249353 468.37145186382213 Q 209.74604490955826 469.681295515974 212.24422447583862 471.5157842334698 Q 214.74240404211898 473.3502729509656 214.14985572328834 476.1379936130569 L 214.14985572328834 476.1379936130569 Q 213.55730740445773 478.92571427514827 210.5289530265921 479.5855019395237 Q 207.50059864872645 480.2452896038991 201.33826876410347 478.9354459517472 L 201.33826876410347 478.9354459517472 Q 195.1759388794805 477.62560229959536 192.67775931320014 475.79111358209957 Q 190.17957974691979 473.9566248646038 190.7721280657504 471.16890420251246 L 190.7721280657504 471.16890420251246 Q 191.364676384581 468.38118354042115 194.3685770724283 467.7161980837752 Q 197.37247776027561 467.05121262712936 203.5837150249353 468.37145186382213 Z" fill-opacity="1"/></g></g><g><g><path fill="rgb(0,0,0)" stroke="none" paint-order="stroke fill markers" d=" M 159.1960444333277 453.9490234187107 L 159.1960444333277 453.9490234187107 Q 164.95138081647607 456.51146427008825 167.01355751439476 458.8252657452717 Q 169.07573421231348 461.13906722045516 167.91653477954745 463.74267177473655 L 167.91653477954745 463.74267177473655 Q 166.75733534678142 466.346276329018 163.65798020901943 466.3620157708232 Q 160.55862507125744 466.37775521262836 154.80328868810903 463.8153143612508 L 154.80328868810903 463.8153143612508 Q 149.04795230496066 461.25287350987327 146.98577560704194 458.9390720346898 Q 144.92359890912326 456.62527055950636 146.0827983418893 454.0216660052249 L 146.0827983418893 454.0216660052249 Q 147.24199777465532 451.4180614509435 150.31851427597624 451.39215359306144 Q 153.39503077729717 451.36624573517935 159.1960444333277 453.9490234187107 Z" fill-opacity="1"/></g></g><g><g><path fill="rgb(0,0,0)" stroke="none" paint-order="stroke fill markers" d=" M 118.7769424257054 430.61304399420703 L 118.7769424257054 430.61304399420703 Q 123.87374949026757 434.3160910836496 125.4097963027039 437.0080810892039 Q 126.94584311514022 439.7000710947582 125.27065514610666 442.00576952872683 L 125.27065514610666 442.00576952872683 Q 123.59546717707312 444.3114679626954 120.560567971291 443.68247129279723 Q 117.52566876550885 443.05347462289905 112.4288617009467 439.35042753345647 L 112.4288617009467 439.35042753345647 Q 107.33205463638453 435.6473804440139 105.7960078239482 432.95539043845963 Q 104.25996101151188 430.2634004329053 105.93514898054542 427.9577019989367 L 105.93514898054542 427.9577019989367 Q 107.61033694957897 425.6520035649681 110.62501073050173 426.266305603559 Q 113.63968451142449 426.88060764214987 118.7769424257054 430.61304399420703 Z" fill-opacity="1"/></g></g><g><g><path fill="rgb(0,0,0)" stroke="none" paint-order="stroke fill markers" d=" M 84.0929177121718 399.38340786961516 L 84.0929177121718 399.38340786961516 Q 88.3084405322326 404.0652202701227 89.2512248427127 407.01774592520394 Q 90.1940091531928 409.9702715802851 88.07604640058223 411.87729380840784 L 88.07604640058223 411.87729380840784 Q 85.95808364797165 413.7843160365306 83.12028003252419 412.5380734276645 Q 80.28247641707674 411.2918308187984 76.06695359701594 406.6100184182908 L 76.06695359701594 406.6100184182908 Q 71.85143077695513 401.9282060177832 70.90864646647503 398.97568036270206 Q 69.96586215599493 396.02315470762085 72.08382490860551 394.1161324794981 L 72.08382490860551 394.1161324794981 Q 74.20178766121607 392.20911025137536 77.02286301150455 393.4367742396045 Q 79.84393836179304 394.66443822783367 84.0929177121718 399.38340786961516 Z" fill-opacity="1"/></g></g><g><g><path fill="rgb(0,0,0)" stroke="none" paint-order="stroke fill markers" d=" M 56.65982860512413 361.6250000000001 L 56.65982860512413 361.6250000000001 Q 59.80982860512414 367.0809600438421 60.11814621529898 370.1649818095331 Q 60.426463825473824 373.24900357522415 57.95829142468818 374.67400357522416 L 57.95829142468818 374.67400357522416 Q 55.49011902390252 376.0990035752242 52.97343663407736 374.2899818095331 Q 50.4567542442522 372.48096004384206 47.306754244252204 367.02500000000015 L 47.306754244252204 367.02500000000015 Q 44.1567542442522 361.5690399561582 43.84843663407735 358.48501819046714 Q 43.54011902390251 355.40099642477605 46.00829142468817 353.9759964247761 L 46.00829142468817 353.9759964247761 Q 48.476463825473814 352.5509964247761 50.980646215298975 354.3383675553725 Q 53.484828605124136 356.12573868596894 56.65982860512413 361.6250000000001 Z" fill-opacity="1"/></g></g><g><g><path fill="rgb(0,0,0)" stroke="none" paint-order="stroke fill markers" d=" M 37.67663273710698 318.98804399420703 L 37.67663273710698 318.98804399420703 Q 39.62343980166915 324.9797000468665 39.28381575250206 328.06043137322837 Q 38.94419170333496 331.14116269959027 36.233680631893776 332.02186113355884 L 36.233680631893776 332.02186113355884 Q 33.52316956045259 332.9025595675274 31.437599493067037 330.6098215768217 Q 29.35202942568149 328.3170835861159 27.40522236111932 322.3254275334565 L 27.40522236111932 322.3254275334565 Q 25.458415296557153 316.333771480797 25.798039345724245 313.25304015443515 Q 26.137663394891337 310.17230882807326 28.848174466332527 309.2916103941047 L 28.848174466332527 309.2916103941047 Q 31.558685537773712 308.4109119601361 33.636530180299886 310.67987353793444 Q 35.71437482282606 312.94883511573283 37.67663273710698 318.98804399420703 Z" fill-opacity="1"/></g></g><g><g><path fill="rgb(0,0,0)" stroke="none" paint-order="stroke fill markers" d=" M 27.972986859032996 273.3359794245038 L 27.972986859032996 273.3359794245038 Q 28.63151617761922 279.60146736532397 27.65879366975579 282.5442655104056 Q 26.686071161892365 285.4870636554872 23.85168376009279 285.78496977580005 L 23.85168376009279 285.78496977580005 Q 21.01729635829321 286.08287589611285 19.453988032967537 283.4066253323637 Q 17.890679707641866 280.73037476861464 17.232150389055644 274.4648868277945 L 17.232150389055644 274.4648868277945 Q 16.57362107046942 268.1993988869744 17.546343578332845 265.2566007418927 Q 18.519066086196275 262.3138025968111 21.35345348799585 262.0158964764983 L 21.35345348799585 262.0158964764983 Q 24.18784088979543 261.7179903561855 25.74853600353941 264.3693778725504 Q 27.309231117283392 267.0207653889153 27.972986859032996 273.3359794245038 Z" fill-opacity="1"/></g></g><g><g><path fill="rgb(0,0,0)" stroke="none" paint-order="stroke fill markers" d=" M 27.972986859032964 226.66402057549647 L 27.972986859032964 226.66402057549647 Q 27.314457540446753 232.9295085163166 25.751149215121085 235.6057590800657 Q 24.187840889795417 238.28200964381483 21.353453487995836 237.984103523502 L 21.353453487995836 237.984103523502 Q 18.519066086196258 237.6861974031892 17.546343578332827 234.74339925810756 Q 16.5736210704694 231.80060111302595 17.232150389055615 225.53511317220583 L 17.232150389055615 225.53511317220583 Q 17.89067970764183 219.2696252313857 19.453988032967494 216.59337466763657 Q 21.017296358293166 213.91712410388746 23.851683760092744 214.21503022420026 L 23.851683760092744 214.21503022420026 Q 26.686071161892322 214.5129363445131 27.66140688133744 217.4308714422105 Q 28.63674260078256 220.34880653990794 27.972986859032964 226.66402057549647 Z" fill-opacity="1"/></g></g><g><g><path fill="rgb(0,0,0)" stroke="none" paint-order="stroke fill markers" d=" M 37.67663273710695 181.01195600579302 L 37.67663273710695 181.01195600579302 Q 35.72982567254478 187.0036120584525 33.64425560515923 189.29635004915824 Q 31.558685537773687 191.58908803986398 28.848174466332498 190.70838960589538 L 28.848174466332498 190.70838960589538 Q 26.137663394891312 189.8276911719268 25.798039345724217 186.74695984556493 Q 25.45841529655712 183.66622851920306 27.40522236111929 177.6745724665436 L 27.40522236111929 177.6745724665436 Q 29.352029425681458 171.68291641388413 31.437599493067005 169.39017842317836 Q 33.52316956045255 167.0974404324726 36.23368063189374 167.9781388664412 L 36.23368063189374 167.9781388664412 Q 38.94419170333492 168.85883730040982 39.291541177361395 171.9157922138643 Q 39.63889065138787 174.9727471273188 37.67663273710695 181.01195600579302 Z" fill-opacity="1"/></g></g><g><g><path fill="rgb(0,0,0)" stroke="none" paint-order="stroke fill markers" d=" M 56.65982860512399 138.37500000000014 L 56.65982860512399 138.37500000000014 Q 53.50982860512399 143.8309600438421 50.993146215298836 145.63998180953314 Q 48.47646382547367 147.4490035752242 46.008291424688025 146.02400357522419 L 46.008291424688025 146.02400357522419 Q 43.54011902390238 144.5990035752242 43.84843663407721 141.51498180953317 Q 44.15675424425205 138.43096004384213 47.30675424425205 132.97500000000016 L 47.30675424425205 132.97500000000016 Q 50.45675424425204 127.5190399561582 52.9734366340772 125.71001819046714 Q 55.49011902390236 123.90099642477611 57.958291424688014 125.32599642477611 L 57.958291424688014 125.32599642477611 Q 60.42646382547366 126.7509964247761 60.130646215298825 129.81336755537254 Q 59.83482860512398 132.87573868596897 56.65982860512399 138.37500000000014 Z" fill-opacity="1"/></g></g><g><g><path fill="rgb(0,0,0)" stroke="none" paint-order="stroke fill markers" d=" M 84.09291771217167 100.616592130385 L 84.09291771217167 100.616592130385 Q 79.87739489211087 105.29840453089258 77.03959127666342 106.54464713975868 Q 74.20178766121597 107.79088974862478 72.0838249086054 105.88386752050204 L 72.0838249086054 105.88386752050204 Q 69.96586215599481 103.9768452923793 70.90864646647492 101.0243196372981 Q 71.851430776955 98.07179398221692 76.06695359701581 93.38998158170934 L 76.06695359701581 93.38998158170934 Q 80.28247641707661 88.70816918120175 83.12028003252406 87.46192657233564 Q 85.95808364797152 86.21568396346956 88.07604640058209 88.1227061915923 L 88.07604640058209 88.1227061915923 Q 90.19400915319267 90.02972841971504 89.26795310787155 92.9636754541593 Q 88.34189706255042 95.89762248860355 84.09291771217167 100.616592130385 Z" fill-opacity="1"/></g></g><g><g><path fill="rgb(0,0,0)" stroke="none" paint-order="stroke fill markers" d=" M 118.77694242570533 69.38695600579301 L 118.77694242570533 69.38695600579301 Q 113.68013536114316 73.0900030952356 110.64523615536103 73.71899976513377 Q 107.6103369495789 74.34799643503196 105.93514898054535 72.04229800106336 L 105.93514898054535 72.04229800106336 Q 104.25996101151179 69.73659956709476 105.79600782394812 67.04460956154045 Q 107.33205463638444 64.35261955598617 112.42886170094661 60.64957246654358 L 112.42886170094661 60.64957246654358 Q 117.52566876550878 56.946525377101 120.56056797129091 56.31752870720282 Q 123.59546717707305 55.68853203730464 125.27065514610659 57.99423047127324 L 125.27065514610659 57.99423047127324 Q 126.94584311514014 60.29992890524184 125.43002172756319 62.97722427948882 Q 123.91420033998624 65.6545196537358 118.77694242570533 69.38695600579301 Z" fill-opacity="1"/></g></g><g><g><path fill="rgb(0,0,0)" stroke="none" paint-order="stroke fill markers" d=" M 159.19604443332744 46.05097658128942 L 159.19604443332744 46.05097658128942 Q 153.44070805017907 48.613417432666964 150.34135291241708 48.59767799086178 Q 147.2419977746551 48.58193854905661 146.08279834188903 45.9783339947752 L 146.08279834188903 45.9783339947752 Q 144.92359890912303 43.37472944049379 146.98577560704172 41.060927965310334 Q 149.0479523049604 38.74712649012688 154.8032886881088 36.18468563874933 L 154.8032886881088 36.18468563874933 Q 160.55862507125718 33.622244787371784 163.65798020901917 33.637984229176965 Q 166.75733534678116 33.653723670982146 167.9165347795472 36.25732822526356 L 167.9165347795472 36.25732822526356 Q 169.07573421231322 38.86093277954497 167.0363961508356 41.16456583865153 Q 164.99705808935795 43.468198897758086 159.19604443332744 46.05097658128942 Z" fill-opacity="1"/></g></g><g><g><path fill="rgb(0,0,0)" stroke="none" paint-order="stroke fill markers" d=" M 203.5837150249351 31.628548136177898 L 203.5837150249351 31.628548136177898 Q 197.4213851403121 32.93839178832978 194.39303076244647 32.27860412395435 Q 191.36467638458083 31.61881645957892 190.77212806575022 28.831095797487574 L 190.77212806575022 28.831095797487574 Q 190.17957974691961 26.043375135396232 192.67775931319997 24.208886417900455 Q 195.17593887948033 22.374397700404682 201.3382687641033 21.064554048252795 L 201.3382687641033 21.064554048252795 Q 207.50059864872625 19.754710396100908 210.52895302659192 20.414498060476337 Q 213.55730740445756 21.07428572485177 214.14985572328817 23.862006386943115 L 214.14985572328817 23.862006386943115 Q 214.74240404211878 26.64972704903446 212.26867816585678 28.47901797425979 Q 209.79495228959476 30.30830889948512 203.5837150249351 31.628548136177898 Z" fill-opacity="1"/></g></g></g></g></svg>