<svg version="1.1" xmlns="http://www.w3.org/2000/svg" xmlns:xlink="http://www.w3.org/1999/xlink" width="500" height="500" viewBox="0 0 500 500"><defs/><g><g><g><path fill="rgb(0,0,0)" stroke="none" paint-order="stroke fill markers" d=" M 163.6 263.4 L 163.6 263.4 Q 163.2 267.8 163 272.2 Q 162.8 276.6 162.8 281.2 L 162.8 281.2 Q 162.8 286.4 163.1 291.5 Q 163.39999999999998 296.6 164.39999999999998 301.8 L 164.39999999999998 301.8 Q 165 304.8 166.3 307.3 Q 167.6 309.8 167.6 313.2 L 167.6 313.2 Q 167.6 318.8 163.7 322.9 Q 159.8 327 154.2 327 L 154.2 327 Q 149.2 327 145.3 323.5 Q 141.39999999999998 320 138.29999999999998 314.3 Q 135.2 308.6 133 301.7 Q 130.79999999999998 294.8 129.2 287.9 Q 127.6 281 126.6 275 Q 125.6 269 125 265.4 L 125 265.4 Q 122 264.8 119 264.1 Q 116 263.4 113.6 262 Q 111.19999999999999 260.6 109.69999999999999 258.2 Q 108.19999999999999 255.8 108.19999999999999 252 L 108.19999999999999 252 Q 108.19999999999999 247.39999999999998 110.49999999999999 244.3 Q 112.8 241.2 117.39999999999999 240.2 L 117.39999999999999 240.2 Q 120.39999999999999 239.6 122.3 238.5 Q 124.19999999999999 237.39999999999998 125.3 235.89999999999998 Q 126.39999999999999 234.39999999999998 127 232.3 Q 127.6 230.2 128 227.39999999999998 L 128 227.39999999999998 Q 128.6 223.2 130.2 216.2 Q 131.79999999999998 209.2 134.1 201.2 Q 136.39999999999998 193.2 139.7 185.1 Q 143 177 147 170.39999999999998 Q 151 163.79999999999998 155.89999999999998 159.6 Q 160.8 155.39999999999998 166.39999999999998 155.39999999999998 L 166.39999999999998 155.39999999999998 Q 171.8 155.39999999999998 176 159.5 Q 180.2 163.6 180.2 169 L 180.2 169 Q 180.2 171.6 179.3 176 Q 178.39999999999998 180.4 177 186 Q 175.6 191.6 173.89999999999998 198 Q 172.2 204.39999999999998 170.7 210.5 Q 169.2 216.6 168.1 222.2 Q 167 227.8 166.6 231.8 L 166.6 231.8 Q 182.8 230.2 199.1 229.8 Q 215.39999999999998 229.39999999999998 231.60000000000002 230.6 L 231.60000000000002 230.6 Q 232 227.2 232.8 221.6 Q 233.60000000000002 216 234.7 209.39999999999998 Q 235.8 202.8 237.10000000000002 195.79999999999998 Q 238.39999999999998 188.79999999999998 239.89999999999998 182.4 Q 241.39999999999998 176 243.10000000000002 171.1 Q 244.8 166.2 246.39999999999998 163.6 L 246.39999999999998 163.6 Q 248 161 250.60000000000002 159.39999999999998 Q 253.2 157.79999999999998 256.4 157.79999999999998 L 256.4 157.79999999999998 Q 260.4 157.79999999999998 263.1 159.39999999999998 Q 265.8 161 267.4 163.5 Q 269 166 269.6 169.29999999999998 Q 270.2 172.6 270.2 176 L 270.2 176 Q 270.2 197.79999999999998 269.5 219.6 Q 268.8 241.39999999999998 268.8 263.2 L 268.8 263.2 Q 268.8 277 270 290.6 Q 271.2 304.2 271.2 318 L 271.2 318 Q 271.2 323.2 267.3 326.8 Q 263.4 330.4 258.2 330.4 L 258.2 330.4 Q 253.8 330.4 250.2 326.3 Q 246.60000000000002 322.2 243.89999999999998 315.7 Q 241.2 309.2 239.10000000000002 301.3 Q 237 293.4 235.60000000000002 285.8 Q 234.2 278.2 233.3 271.8 Q 232.39999999999998 265.4 232 262 L 232 262 Q 222.2 262.2 212.5 262.1 Q 202.8 262 193 262 L 193 262 Q 185.6 262 178.3 262.3 Q 171 262.6 163.6 263.4 Z M 282.4 240.6 L 282.4 240.6 Q 284 236 286.7 232.5 Q 289.4 229 294 229 L 294 229 Q 299.79999999999995 229 302.09999999999997 231.89999999999998 Q 304.4 234.8 304.79999999999995 239 Q 305.2 243.2 304.59999999999997 248 Q 304 252.8 304 256.4 L 304 256.4 Q 304 261.8 304.5 267.1 Q 305 272.4 305 277.8 L 305 277.8 Q 305 281.4 301.7 283.9 Q 298.4 286.4 295 286.4 L 295 286.4 Q 290.2 286.4 287.09999999999997 283.8 Q 284 281.2 282.29999999999995 277.1 Q 280.59999999999997 273 280 267.8 Q 279.4 262.6 279.59999999999997 257.5 Q 279.79999999999995 252.39999999999998 280.59999999999997 247.89999999999998 Q 281.4 243.39999999999998 282.4 240.6 Z M 308.59999999999997 212.2 L 308.59999999999997 212.2 Q 308.59999999999997 216.39999999999998 305.4 220.1 Q 302.2 223.8 297.59999999999997 223.8 L 297.59999999999997 223.8 Q 293.2 223.8 289.4 220.6 Q 285.59999999999997 217.39999999999998 285.59999999999997 212.8 L 285.59999999999997 212.8 Q 285.59999999999997 207.6 288.9 204 Q 292.2 200.4 297.2 200.4 L 297.2 200.4 Q 302 200.4 305.29999999999995 203.89999999999998 Q 308.59999999999997 207.39999999999998 308.59999999999997 212.2 Z M 320.4 255.6 L 320.4 255.6 Q 320.4 250.39999999999998 321.99999999999994 240.5 Q 323.59999999999997 230.6 326.59999999999997 218.7 Q 329.59999999999997 206.8 333.79999999999995 194.29999999999998 Q 337.99999999999994 181.79999999999998 343.09999999999997 171.6 Q 348.19999999999993 161.39999999999998 354.29999999999995 154.89999999999998 Q 360.4 148.39999999999998 366.99999999999994 148.39999999999998 L 366.99999999999994 148.39999999999998 Q 372.4 148.39999999999998 376.09999999999997 152.2 Q 379.79999999999995 156 379.79999999999995 161.39999999999998 L 379.79999999999995 161.39999999999998 Q 379.79999999999995 164.79999999999998 378.49999999999994 167.89999999999998 Q 377.19999999999993 171 375.79999999999995 174 L 375.79999999999995 174 Q 366.4 193.6 358.19999999999993 212.5 Q 349.99999999999994 231.39999999999998 343.99999999999994 252.39999999999998 L 343.99999999999994 252.39999999999998 Q 342.99999999999994 255.39999999999998 342.9 259.4 Q 342.79999999999995 263.4 341.99999999999994 267 Q 341.19999999999993 270.6 339.09999999999997 273.1 Q 336.99999999999994 275.6 332.4 275.6 L 332.4 275.6 Q 328.79999999999995 275.6 326.49999999999994 273.5 Q 324.19999999999993 271.4 322.9 268.4 Q 321.59999999999997 265.4 320.99999999999994 261.9 Q 320.4 258.4 320.4 255.6 Z M 327.99999999999994 284 L 327.99999999999994 284 Q 333.59999999999997 284 337.29999999999995 287.4 Q 340.99999999999994 290.8 340.99999999999994 296.6 L 340.99999999999994 296.6 Q 340.99999999999994 302 336.99999999999994 306.4 Q 332.99999999999994 310.8 327.4 310.8 L 327.4 310.8 Q 321.79999999999995 310.8 318.09999999999997 307.2 Q 314.4 303.6 314.4 298 L 314.4 298 Q 314.4 292.2 318.29999999999995 288.1 Q 322.19999999999993 284 327.99999999999994 284 Z" fill-opacity="1"/></g></g><g><g><g><path fill="rgb(0,0,0)" stroke="none" paint-order="stroke fill markers" d=" M 244.9 4.149999999999999 L 244.9 4.149999999999999 Q 244.9 2.3500000000000014 246.1 1.4249999999999972 Q 247.3 0.5 250 0.5 L 250 0.5 Q 252.7 0.5 253.9 1.4249999999999972 Q 255.1 2.3500000000000014 255.1 4.149999999999999 L 255.1 4.149999999999999 Q 255.1 6 253.9 6.924999999999997 Q 252.7 7.849999999999998 250 7.849999999999998 L 250 7.849999999999998 Q 247.3 7.849999999999998 246.1 6.924999999999997 Q 244.9 6 244.9 4.149999999999999 Z M 241.85 22.299999999999997 L 241.85 22.299999999999997 Q 241.85 15.95 243.625 12.674999999999997 Q 245.4 9.399999999999999 250 9.399999999999999 L 250 9.399999999999999 Q 254.6 9.399999999999999 256.375 12.674999999999997 Q 258.15 15.95 258.15 22.299999999999997 L 258.15 22.299999999999997 Q 258.15 25.5 257.75 27.925 Q 257.35 30.35 256.4 31.975 Q 255.45 33.6 253.875 34.425 Q 252.3 35.25 250 35.25 L 250 35.25 Q 247.7 35.25 246.125 34.425 Q 244.55 33.6 243.6 31.975 Q 242.65 30.35 242.25 27.925 Q 241.85 25.5 241.85 22.299999999999997 Z" fill-opacity="1"/></g></g><g><g><path fill="rgb(0,0,0)" stroke="none" paint-order="stroke fill markers" d=" M 288.7669556641422 30.141669140024568 L 288.7669556641422 30.141669140024568 Q 282.5626668201653 29.04768562072291 280.00198634443115 27.301499633723264 Q 277.441305868697 25.55531364672362 277.93620317504775 22.748611550638827 L 277.93620317504775 22.748611550638827 Q 278.43110048139846 19.941909454554036 281.4345838101833 19.176835671372544 Q 284.4380671389681 18.41176188819106 290.64235598294505 19.50574540749272 L 290.64235598294505 19.50574540749272 Q 296.84664482692193 20.599728926794384 299.4073253026561 22.345914913794026 Q 301.96800577839025 24.092100900793668 301.4731084720395 26.898802996878462 L 301.4731084720395 26.898802996878462 Q 300.9782111656888 29.705505092963257 297.99934803072927 30.474920080586415 Q 295.0204848957697 31.244335068209576 288.7669556641422 30.141669140024568 Z" fill-opacity="1"/></g></g><g><g><path fill="rgb(0,0,0)" stroke="none" paint-order="stroke fill markers" d=" M 329.2932198706075 17.232266448823488 L 329.2932198706075 17.232266448823488 Q 329.90885612859375 15.54081973140886 331.35285590611306 15.082028229172685 Q 332.79685568363243 14.623236726936526 335.33402575975435 15.546691113915834 L 335.33402575975435 15.546691113915834 Q 337.87119583587634 16.47014550089514 338.6824583482432 17.749785347112905 Q 339.49372086061 19.029425193330678 338.8780846026238 20.72087191074531 L 338.8780846026238 20.72087191074531 Q 338.24534733747134 22.459303259199242 336.801347559952 22.918094761435402 Q 335.35734778243267 23.37688626367156 332.8201777063107 22.453431876692257 L 332.8201777063107 22.453431876692257 Q 330.28300763018876 21.52997748971295 329.4717451178219 20.250337643495183 Q 328.66048260545506 18.97069779727742 329.2932198706075 17.232266448823488 Z M 320.21949177584963 33.24452607894443 L 320.21949177584963 33.24452607894443 Q 322.39131968596763 27.277477936953918 325.1793900572542 24.807070358283127 Q 327.96746042854073 22.33666277961234 332.29004648415594 23.909955438910416 L 332.29004648415594 23.909955438910416 Q 336.6126325397711 25.48324809820849 337.16047097227454 29.167827185685404 Q 337.70830940477794 32.852406273162316 335.53648149465994 38.81945441515283 L 335.53648149465994 38.81945441515283 Q 334.4420170360178 41.826470801667746 333.2367411401387 43.968417349743305 Q 332.03146524425955 46.110363897818864 330.5829745216088 47.312445270436584 Q 329.13448379895794 48.514526643054296 327.37230130297644 48.75109132946474 Q 325.610118806995 48.98765601587519 323.44882577918736 48.20100968622615 L 323.44882577918736 48.20100968622615 Q 321.2875327513798 47.41436335657711 320.08968349188564 46.10043521869081 Q 318.89183423239155 44.786507080804505 318.5549089755491 42.934587435868025 Q 318.2179837187067 41.08266779093154 318.6715055179571 38.66710512819544 Q 319.12502731720747 36.251542465459345 320.21949177584963 33.24452607894443 Z" fill-opacity="1"/></g></g><g><g><path fill="rgb(0,0,0)" stroke="none" paint-order="stroke fill markers" d=" M 361.625 56.65982860512405 L 361.625 56.65982860512405 Q 356.16903995615803 53.50982860512405 354.360018190467 50.99314621529889 Q 352.550996424776 48.47646382547373 353.97599642477593 46.00829142468808 L 353.97599642477593 46.00829142468808 Q 355.40099642477594 43.54011902390243 358.485018190467 43.84843663407727 Q 361.569039956158 44.15675424425211 367.025 47.306754244252105 L 367.025 47.306754244252105 Q 372.48096004384195 50.45675424425211 374.289981809533 52.97343663407727 Q 376.09900357522406 55.49011902390243 374.67400357522405 57.95829142468808 L 374.67400357522405 57.95829142468808 Q 373.24900357522404 60.42646382547373 370.1866324446276 60.13064621529889 Q 367.1242613140312 59.834828605124045 361.625 56.65982860512405 Z" fill-opacity="1"/></g></g><g><g><path fill="rgb(0,0,0)" stroke="none" paint-order="stroke fill markers" d=" M 404.12250718152893 58.389756849797905 L 404.12250718152893 58.389756849797905 Q 405.27952487896465 57.01087685218374 406.7933567496675 57.07363087392253 Q 408.3071886203703 57.13638489566132 410.37550861679154 58.87191144181499 L 410.37550861679154 58.87191144181499 Q 412.4438286132128 60.60743798796864 412.76850340599555 62.08737422947754 Q 413.0931781987782 63.56731047098644 411.9361605013425 64.9461904686006 L 411.9361605013425 64.9461904686006 Q 410.74700342342237 66.3633726883707 409.23317155271957 66.30061866663192 Q 407.71933968201677 66.23786464489312 405.6510196855955 64.50233809873947 L 405.6510196855955 64.50233809873947 Q 403.58269968917426 62.76681155258581 403.25802489639153 61.28687531107691 Q 402.9333501036088 59.80693906956801 404.12250718152893 58.389756849797905 Z M 390.1194765142053 70.33296128286341 L 390.1194765142053 70.33296128286341 Q 394.2011778357149 65.4685790690579 397.66603614397445 64.10073152503685 Q 401.1308944522341 62.7328839810158 404.65469889058136 65.68970698557388 L 404.65469889058136 65.68970698557388 Q 408.1785033289286 68.64652999013197 407.43310279374145 72.29627354854023 Q 406.68770225855417 75.94601710694849 402.60600093704466 80.810399320754 L 402.60600093704466 80.810399320754 Q 400.54908058604775 83.26174153873473 398.6839028553103 84.86228426942364 Q 396.81872512457284 86.46282700011254 395.0464530378692 87.09700099097867 Q 393.27418095116553 87.73117498184479 391.53736117526176 87.35077116216165 Q 389.80054139935794 86.97036734247851 388.0386391801843 85.49195584019947 L 388.0386391801843 85.49195584019947 Q 386.27673696101067 84.01354433792042 385.6005167410897 82.36916718709097 Q 384.9242965211687 80.72479003626151 385.2410841659463 78.86931958699097 Q 385.5578718107239 77.01384913772041 386.8102139869661 74.89907631928227 Q 388.0625561632084 72.78430350084413 390.1194765142053 70.33296128286341 Z" fill-opacity="1"/></g></g><g><g><path fill="rgb(0,0,0)" stroke="none" paint-order="stroke fill markers" d=" M 421.01942192631185 106.4976661374801 L 421.01942192631185 106.4976661374801 Q 416.96985998528663 101.67158614583053 416.13069165289886 98.68795639166909 Q 415.2915233205111 95.70432663750763 417.47474998340016 93.872381949901 L 417.47474998340016 93.872381949901 Q 419.6579766462893 92.04043726229436 422.45055830863043 93.38495861175514 Q 425.2431399709716 94.7294799612159 429.2927019119968 99.55555995286548 L 429.2927019119968 99.55555995286548 Q 433.342263853022 104.38163994451503 434.1814321854098 107.36526969867649 Q 435.02060051779756 110.34889945283794 432.8373738549085 112.18084414044458 L 432.8373738549085 112.18084414044458 Q 430.65414719201937 114.01278882805121 427.87763521992036 112.68741858966841 Q 425.10112324782136 111.36204835128561 421.01942192631185 106.4976661374801 Z" fill-opacity="1"/></g></g><g><g><path fill="rgb(0,0,0)" stroke="none" paint-order="stroke fill markers" d=" M 460.3623455204043 122.65827044069934 L 460.3623455204043 122.65827044069934 Q 461.92119124721626 121.75827044069933 463.32226474571684 122.33500092524065 Q 464.7233382442175 122.91173140978198 466.07333824421744 125.24999999999997 L 466.07333824421744 125.24999999999997 Q 467.42333824421746 127.58826859021795 467.22226474571687 129.08999907475928 Q 467.0211912472163 130.5917295593006 465.46234552040426 131.4917295593006 L 465.46234552040426 131.4917295593006 Q 463.860198523403 132.4167295593006 462.45912502490245 131.83999907475928 Q 461.05805152640187 131.26326859021796 459.70805152640185 128.92499999999995 L 459.70805152640185 128.92499999999995 Q 458.3580515264018 126.58673140978198 458.55912502490247 125.08500092524065 Q 458.76019852340306 123.58327044069932 460.3623455204043 122.65827044069934 Z M 443.1189844417167 129.09189295915678 L 443.1189844417167 129.09189295915678 Q 448.61824575574786 125.9168929591568 452.3419789531419 125.81658805087417 Q 456.06571215053594 125.71628314259155 458.36571215053596 129.69999999999996 L 458.36571215053596 129.69999999999996 Q 460.66571215053597 133.6837168574084 458.7169789531419 136.85841194912575 Q 456.7682457557479 140.03310704084313 451.2689844417167 143.20810704084315 L 451.2689844417167 143.20810704084315 Q 448.4977031496065 144.80810704084314 446.19759154542925 145.67419687932937 Q 443.89747994125196 146.5402867178156 442.01518866010224 146.5300625842204 Q 440.1328973789525 146.51983845062517 438.6309264208304 145.56834843966467 Q 437.12895546270823 144.61685842870418 435.9789554627082 142.62499999999997 L 435.9789554627082 142.62499999999997 Q 434.8289554627082 140.63314157129577 434.7559264208304 138.85665156033528 Q 434.68289737895253 137.0801615493748 435.61518866010226 135.44493741577958 Q 436.547479941252 133.80971328218436 438.44759154542925 132.25080312067058 Q 440.3477031496065 130.6918929591568 443.1189844417167 129.09189295915678 Z" fill-opacity="1"/></g></g><g><g><path fill="rgb(0,0,0)" stroke="none" paint-order="stroke fill markers" d=" M 459.78637759045404 173.64400300254445 L 459.78637759045404 173.64400300254445 Q 457.6316506875023 167.72393949159323 457.86355187410936 164.6332321551328 Q 458.09545306071635 161.54252481867238 460.7735770299562 160.56776741019422 L 460.7735770299562 160.56776741019422 Q 463.451700999196 159.59301000171607 465.6160159955931 161.81156597269603 Q 467.7803309919901 164.030121943676 469.93505789494185 169.95018545462722 L 469.93505789494185 169.95018545462722 Q 472.08978479789357 175.87024896557844 471.8578836112865 178.96095630203885 Q 471.62598242467953 182.0516636384993 468.9478584554397 183.02642104697745 L 468.9478584554397 183.02642104697745 Q 466.26973448619987 184.0011784554556 464.1139699933859 181.80611479999527 Q 461.95820550057203 179.61105114453497 459.78637759045404 173.64400300254445 Z" fill-opacity="1"/></g></g><g><g><path fill="rgb(0,0,0)" stroke="none" paint-order="stroke fill markers" d=" M 491.22938037195 202.28607598022288 L 491.22938037195 202.28607598022288 Q 493.002034327372 201.97350926042242 494.1213593121086 202.99465399969515 Q 495.2406842968452 204.0157987389679 495.7095343765459 206.67477967210084 L 495.7095343765459 206.67477967210084 Q 496.17838445624665 209.3337606052338 495.47581509791064 210.67615447319037 Q 494.7732457395747 212.01854834114692 493.00059178415273 212.3311150609474 L 493.00059178415273 212.3311150609474 Q 491.17869744108015 212.65236418963124 490.0593724563435 211.6312194503585 Q 488.94004747160693 210.61007471108576 488.4711973919062 207.9510937779528 L 488.4711973919062 207.9510937779528 Q 488.0023473122055 205.29211284481983 488.7049166705415 203.94971897686327 Q 489.40748602887743 202.6073251089067 491.22938037195 202.28607598022288 Z M 472.8254927128943 202.43412675819044 L 472.8254927128943 202.43412675819044 Q 479.0790219445218 201.33146083000543 482.61249285099564 202.5107968097429 Q 486.1459637574694 203.69013278948037 486.9447453747373 208.22024845333652 L 486.9447453747373 208.22024845333652 Q 487.7435269920052 212.75036411719267 484.826507116249 215.06709566064856 Q 481.9094872404928 217.38382720410442 475.65595800886524 218.48649313228944 L 475.65595800886524 218.48649313228944 Q 472.50457319922623 219.04216730082362 470.0469551271048 219.06934103046103 Q 467.58933705498345 219.09651476009844 465.824058687555 218.44312568344563 Q 464.05878032012663 217.7897366067928 462.9728180440661 216.38192414237378 Q 461.88685576800566 214.97411167795477 461.48746495937166 212.70905384602668 L 461.48746495937166 212.70905384602668 Q 461.0880741507377 210.44399601409862 461.6270446671474 208.74966405652916 Q 462.1660151835571 207.05533209895972 463.60136201341834 205.83758644488935 Q 465.0367088432796 204.61984079081898 467.3554083732674 203.80482085877182 Q 469.6741079032552 202.98980092672463 472.8254927128943 202.43412675819044 Z" fill-opacity="1"/></g></g><g><g><path fill="rgb(0,0,0)" stroke="none" paint-order="stroke fill markers" d=" M 473.25 250 L 473.25 250 Q 473.25 243.7 474.525 240.875 Q 475.8 238.05 478.65 238.05 L 478.65 238.05 Q 481.5 238.05 482.775 240.875 Q 484.05 243.7 484.05 250 L 484.05 250 Q 484.05 256.3 482.775 259.125 Q 481.5 261.95 478.65 261.95 L 478.65 261.95 Q 475.8 261.95 474.525 259.15 Q 473.25 256.35 473.25 250 Z" fill-opacity="1"/></g></g><g><g><path fill="rgb(0,0,0)" stroke="none" paint-order="stroke fill markers" d=" M 493.00059178415273 287.66888493905253 L 493.00059178415273 287.66888493905253 Q 494.7732457395747 287.981451658853 495.47581509791064 289.3238455268096 Q 496.17838445624665 290.66623939476614 495.7095343765459 293.3252203278991 L 495.7095343765459 293.3252203278991 Q 495.2406842968452 295.98420126103207 494.1213593121086 297.0053460003048 Q 493.002034327372 298.0264907395776 491.22938037195 297.7139240197771 L 491.22938037195 297.7139240197771 Q 489.40748602887743 297.39267489109324 488.7049166705415 296.0502810231367 Q 488.0023473122055 294.7078871551801 488.4711973919062 292.04890622204715 L 488.4711973919062 292.04890622204715 Q 488.94004747160693 289.38992528891424 490.0593724563435 288.3687805496415 Q 491.17869744108015 287.34763581036873 493.00059178415273 287.66888493905253 Z M 475.65595800886524 281.51350686771053 L 475.65595800886524 281.51350686771053 Q 481.9094872404928 282.6161727958955 484.826507116249 284.9329043393514 Q 487.7435269920052 287.2496358828073 486.9447453747373 291.7797515466634 L 486.9447453747373 291.7797515466634 Q 486.1459637574694 296.3098672105196 482.61249285099564 297.48920319025706 Q 479.0790219445218 298.6685391699945 472.8254927128943 297.5658732418095 L 472.8254927128943 297.5658732418095 Q 469.6741079032552 297.0101990732754 467.3554083732674 296.19517914122815 Q 465.0367088432796 295.380159209181 463.60136201341834 294.1624135551106 Q 462.1660151835571 292.94466790104025 461.6270446671474 291.2503359434708 Q 461.0880741507377 289.5560039859014 461.48746495937166 287.29094615397327 L 461.48746495937166 287.29094615397327 Q 461.88685576800566 285.0258883220452 462.9728180440661 283.6180758576262 Q 464.05878032012663 282.2102633932072 465.824058687555 281.55687431655434 Q 467.58933705498345 280.9034852399015 470.0469551271048 280.93065896953897 Q 472.50457319922623 280.9578326991764 475.65595800886524 281.51350686771053 Z" fill-opacity="1"/></g></g><g><g><path fill="rgb(0,0,0)" stroke="none" paint-order="stroke fill markers" d=" M 459.7863775904541 326.3559969974556 L 459.7863775904541 326.3559969974556 Q 461.9411044934058 320.4359334865043 464.10541948980284 318.2173775155244 Q 466.2697344861999 315.9988215445444 468.94785845543976 316.9735789530226 L 468.94785845543976 316.9735789530226 Q 471.6259824246796 317.9483363615007 471.8578836112866 321.0390436979611 Q 472.0897847978936 324.12975103442153 469.9350578949419 330.0498145453728 L 469.9350578949419 330.0498145453728 Q 467.7803309919902 335.969878056324 465.61601599559316 338.18843402730397 Q 463.4517009991961 340.40698999828396 460.77357702995624 339.4322325898058 L 460.77357702995624 339.4322325898058 Q 458.0954530607164 338.4574751813276 457.8550013705263 335.39026016038684 Q 457.6145496803361 332.3230451394461 459.7863775904541 326.3559969974556 Z" fill-opacity="1"/></g></g><g><g><path fill="rgb(0,0,0)" stroke="none" paint-order="stroke fill markers" d=" M 465.46234552040426 368.5082704406993 L 465.46234552040426 368.5082704406993 Q 467.0211912472163 369.4082704406993 467.22226474571687 370.91000092524064 Q 467.42333824421746 372.41173140978196 466.07333824421744 374.74999999999994 L 466.07333824421744 374.74999999999994 Q 464.7233382442175 377.0882685902179 463.3222647457169 377.66499907475924 Q 461.92119124721626 378.24172955930055 460.3623455204043 377.3417295593006 L 460.3623455204043 377.3417295593006 Q 458.76019852340306 376.41672955930056 458.55912502490247 374.91499907475924 Q 458.3580515264018 373.4132685902179 459.70805152640185 371.07499999999993 L 459.70805152640185 371.07499999999993 Q 461.05805152640187 368.73673140978195 462.45912502490245 368.16000092524064 Q 463.860198523403 367.5832704406993 465.46234552040426 368.5082704406993 Z M 451.2689844417167 356.79189295915677 L 451.2689844417167 356.79189295915677 Q 456.7682457557479 359.9668929591568 458.7169789531419 363.14158805087413 Q 460.66571215053597 366.31628314259154 458.36571215053596 370.29999999999995 L 458.36571215053596 370.29999999999995 Q 456.06571215053594 374.28371685740836 452.3419789531419 374.18341194912574 Q 448.6182457557479 374.0831070408431 443.1189844417167 370.9081070408431 L 443.1189844417167 370.9081070408431 Q 440.3477031496065 369.30810704084314 438.44759154542925 367.74919687932936 Q 436.547479941252 366.1902867178156 435.61518866010226 364.55506258422037 Q 434.68289737895253 362.91983845062515 434.7559264208304 361.14334843966463 Q 434.8289554627082 359.3668584287042 435.9789554627082 357.37499999999994 L 435.9789554627082 357.37499999999994 Q 437.12895546270823 355.3831415712957 438.6309264208304 354.43165156033524 Q 440.1328973789525 353.48016154937477 442.01518866010224 353.46993741577955 Q 443.89747994125196 353.45971328218434 446.19759154542925 354.3258031206705 Q 448.4977031496065 355.19189295915675 451.2689844417167 356.79189295915677 Z" fill-opacity="1"/></g></g><g><g><path fill="rgb(0,0,0)" stroke="none" paint-order="stroke fill markers" d=" M 421.01942192631185 393.5023338625199 L 421.01942192631185 393.5023338625199 Q 425.06898386733707 388.67625387087037 427.8615655296782 387.33173252140955 Q 430.65414719201937 385.9872111719488 432.8373738549085 387.81915585955545 L 432.8373738549085 387.81915585955545 Q 435.02060051779756 389.65110054716206 434.1814321854098 392.63473030132354 Q 433.342263853022 395.61836005548497 429.2927019119968 400.44444004713455 L 429.2927019119968 400.44444004713455 Q 425.2431399709716 405.27052003878407 422.45055830863043 406.6150413882449 Q 419.6579766462893 407.95956273770565 417.47474998340016 406.127618050099 L 417.47474998340016 406.127618050099 Q 415.2915233205111 404.2956733624924 416.1146219626567 401.33119471940887 Q 416.93772060480234 398.3667160763254 421.01942192631185 393.5023338625199 Z" fill-opacity="1"/></g></g><g><g><path fill="rgb(0,0,0)" stroke="none" paint-order="stroke fill markers" d=" M 411.93616050134256 435.0538095313994 L 411.93616050134256 435.0538095313994 Q 413.09317819877833 436.43268952901354 412.7685034059956 437.9126257705225 Q 412.4438286132129 439.39256201203136 410.37550861679165 441.128088558185 L 410.37550861679165 441.128088558185 Q 408.30718862037037 442.8636151043387 406.79335674966757 442.9263691260775 Q 405.2795248789647 442.98912314781626 404.122507181529 441.6102431502021 L 404.122507181529 441.6102431502021 Q 402.93335010360886 440.193060930432 403.2580248963916 438.7131246889231 Q 403.5826996891743 437.2331884474142 405.65101968559554 435.4976619012605 L 405.65101968559554 435.4976619012605 Q 407.7193396820168 433.76213535510686 409.2331715527196 433.6993813333681 Q 410.7470034234224 433.6366273116293 411.93616050134256 435.0538095313994 Z M 402.6060009370447 419.189600679246 L 402.6060009370447 419.189600679246 Q 406.6877022585543 424.0539828930515 407.4331027937415 427.7037264514598 Q 408.17850332892874 431.35347000986803 404.6546988905814 434.3102930144261 L 404.6546988905814 434.3102930144261 Q 401.13089445223414 437.2671160189842 397.6660361439745 435.89926847496315 Q 394.20117783571493 434.5314209309421 390.1194765142054 429.6670387171366 L 390.1194765142054 429.6670387171366 Q 388.06255616320846 427.21569649915585 386.8102139869662 425.10092368071776 Q 385.55787181072395 422.9861508622796 385.24108416594635 421.13068041300903 Q 384.92429652116874 419.27520996373846 385.60051674108973 417.63083281290903 Q 386.2767369610107 415.98645566207955 388.03863918018436 414.50804415980053 L 388.03863918018436 414.50804415980053 Q 389.800541399358 413.0296326575215 391.5373611752618 412.64922883783834 Q 393.2741809511656 412.2688250181552 395.04645303786924 412.90299900902136 Q 396.8187251245729 413.53717299988745 398.68390285531035 415.13771573057636 Q 400.5490805860478 416.7382584612653 402.6060009370447 419.189600679246 Z" fill-opacity="1"/></g></g><g><g><path fill="rgb(0,0,0)" stroke="none" paint-order="stroke fill markers" d=" M 361.625 443.34017139487594 L 361.625 443.34017139487594 Q 367.08096004384197 440.19017139487596 370.164981809533 439.8818537847011 Q 373.24900357522404 439.5735361745263 374.67400357522405 442.04170857531193 L 374.67400357522405 442.04170857531193 Q 376.09900357522406 444.5098809760976 374.289981809533 447.02656336592275 Q 372.48096004384195 449.5432457557479 367.025 452.6932457557479 L 367.025 452.6932457557479 Q 361.569039956158 455.8432457557479 358.485018190467 456.15156336592275 Q 355.40099642477594 456.45988097609757 353.97599642477593 453.9917085753119 L 353.97599642477593 453.9917085753119 Q 352.550996424776 451.52353617452627 354.3383675553724 449.01935378470114 Q 356.1257386859688 446.51517139487595 361.625 443.34017139487594 Z" fill-opacity="1"/></g></g><g><g><path fill="rgb(0,0,0)" stroke="none" paint-order="stroke fill markers" d=" M 338.8780846026238 479.27912808925464 L 338.8780846026238 479.27912808925464 Q 339.49372086061 480.9705748066693 338.6824583482432 482.25021465288705 Q 337.87119583587634 483.52985449910483 335.33402575975435 484.45330888608413 L 335.33402575975435 484.45330888608413 Q 332.79685568363243 485.37676327306343 331.35285590611306 484.9179717708273 Q 329.90885612859375 484.4591802685911 329.2932198706076 482.7677335511765 L 329.2932198706076 482.7677335511765 Q 328.66048260545506 481.02930220272253 329.4717451178219 479.7496623565048 Q 330.28300763018876 478.47002251028704 332.8201777063107 477.54656812330774 L 332.8201777063107 477.54656812330774 Q 335.35734778243267 476.6231137363284 336.801347559952 477.08190523856456 Q 338.24534733747134 477.54069674080074 338.8780846026238 479.27912808925464 Z M 335.53648149465994 461.18054558484715 L 335.53648149465994 461.18054558484715 Q 337.70830940477794 467.14759372683767 337.16047097227454 470.83217281431456 Q 336.6126325397711 474.51675190179145 332.29004648415594 476.09004456108954 L 332.29004648415594 476.09004456108954 Q 327.96746042854073 477.66333722038763 325.1793900572542 475.19292964171683 Q 322.39131968596763 472.72252206304603 320.21949177584963 466.7554739210555 L 320.21949177584963 466.7554739210555 Q 319.12502731720747 463.74845753454065 318.6715055179571 461.3328948718045 Q 318.2179837187067 458.91733220906843 318.5549089755491 457.065412564132 Q 318.89183423239155 455.21349291919546 320.08968349188564 453.89956478130915 Q 321.2875327513798 452.58563664342284 323.44882577918736 451.7989903137738 L 323.44882577918736 451.7989903137738 Q 325.610118806995 451.01234398412475 327.37230130297644 451.24890867053523 Q 329.13448379895794 451.48547335694565 330.5829745216088 452.6875547295634 Q 332.0314652442596 453.8896361021811 333.2367411401387 456.03158265025667 Q 334.4420170360178 458.17352919833223 335.53648149465994 461.18054558484715 Z" fill-opacity="1"/></g></g><g><g><path fill="rgb(0,0,0)" stroke="none" paint-order="stroke fill markers" d=" M 288.76695566414224 469.85833085997547 L 288.76695566414224 469.85833085997547 Q 294.9712445081192 468.7643473406738 297.974727836904 469.5294211238553 Q 300.97821116568883 470.2944949070368 301.47310847203954 473.10119700312157 L 301.47310847203954 473.10119700312157 Q 301.9680057783903 475.90789909920636 299.40732530265615 477.654085086206 Q 296.84664482692205 479.40027107320566 290.6423559829451 480.49425459250733 L 290.6423559829451 480.49425459250733 Q 284.4380671389682 481.58823811180895 281.43458381018337 480.8231643286275 Q 278.4311004813986 480.058090545446 277.9362031750478 477.25138844936123 L 277.9362031750478 477.25138844936123 Q 277.44130586869704 474.44468635327644 279.97736615060586 472.7028415707184 Q 282.51342643251473 470.96099678816046 288.76695566414224 469.85833085997547 Z" fill-opacity="1"/></g></g><g><g><path fill="rgb(0,0,0)" stroke="none" paint-order="stroke fill markers" d=" M 255.10000000000002 495.85 L 255.10000000000002 495.85 Q 255.10000000000002 497.65 253.90000000000003 498.575 Q 252.70000000000005 499.5 250.00000000000003 499.5 L 250.00000000000003 499.5 Q 247.30000000000004 499.5 246.10000000000002 498.575 Q 244.90000000000003 497.65 244.90000000000003 495.85 L 244.90000000000003 495.85 Q 244.90000000000003 494 246.10000000000002 493.075 Q 247.30000000000004 492.15 250.00000000000003 492.15 L 250.00000000000003 492.15 Q 252.70000000000005 492.15 253.90000000000003 493.075 Q 255.10000000000002 494 255.10000000000002 495.85 Z M 258.15000000000003 477.7 L 258.15000000000003 477.7 Q 258.15000000000003 484.05 256.37500000000006 487.325 Q 254.60000000000002 490.6 250.00000000000003 490.6 L 250.00000000000003 490.6 Q 245.40000000000003 490.6 243.62500000000003 487.325 Q 241.85000000000002 484.05 241.85000000000002 477.7 L 241.85000000000002 477.7 Q 241.85000000000002 474.5 242.25000000000003 472.075 Q 242.65000000000003 469.65 243.60000000000002 468.025 Q 244.55000000000004 466.4 246.12500000000003 465.575 Q 247.70000000000002 464.75 250.00000000000003 464.75 L 250.00000000000003 464.75 Q 252.30000000000004 464.75 253.87500000000003 465.575 Q 255.45000000000002 466.4 256.40000000000003 468.025 Q 257.35 469.65 257.75000000000006 472.075 Q 258.15000000000003 474.5 258.15000000000003 477.7 Z" fill-opacity="1"/></g></g><g><g><path fill="rgb(0,0,0)" stroke="none" paint-order="stroke fill markers" d=" M 211.23304433585787 469.85833085997547 L 211.23304433585787 469.85833085997547 Q 217.43733317983478 470.95231437927714 219.99801365556894 472.6985003662768 Q 222.55869413130307 474.4446863532764 222.06379682495233 477.2513884493612 L 222.06379682495233 477.2513884493612 Q 221.56889951860157 480.058090545446 218.56541618981674 480.8231643286275 Q 215.56193286103192 481.58823811180895 209.357644017055 480.49425459250733 L 209.357644017055 480.49425459250733 Q 203.1533551730781 479.40027107320566 200.59267469734397 477.654085086206 Q 198.0319942216098 475.90789909920636 198.52689152796054 473.10119700312157 L 198.52689152796054 473.10119700312157 Q 199.0217888343113 470.2944949070368 202.00065196927082 469.5250799194136 Q 204.97951510423033 468.7556649317905 211.23304433585787 469.85833085997547 Z" fill-opacity="1"/></g></g><g><g><path fill="rgb(0,0,0)" stroke="none" paint-order="stroke fill markers" d=" M 170.70678012939248 482.76773355117655 L 170.70678012939248 482.76773355117655 Q 170.0911438714063 484.4591802685912 168.64714409388696 484.91797177082736 Q 167.20314431636763 485.3767632730635 164.66597424024567 484.4533088860842 L 164.66597424024567 484.4533088860842 Q 162.12880416412372 483.5298544991049 161.31754165175687 482.2502146528871 Q 160.50627913939002 480.97057480666933 161.12191539737623 479.2791280892547 L 161.12191539737623 479.2791280892547 Q 161.7546526625287 477.5406967408008 163.19865244004805 477.0819052385646 Q 164.6426522175674 476.6231137363285 167.17982229368934 477.5465681233078 L 167.17982229368934 477.5465681233078 Q 169.7169923698113 478.4700225102871 170.52825488217815 479.7496623565048 Q 171.33951739454497 481.0293022027226 170.70678012939248 482.76773355117655 Z M 179.7805082241504 466.75547392105557 L 179.7805082241504 466.75547392105557 Q 177.6086803140324 472.7225220630461 174.82060994274585 475.1929296417169 Q 172.0325395714593 477.6633372203877 167.70995351584412 476.0900445610896 L 167.70995351584412 476.0900445610896 Q 163.38736746022894 474.5167519017915 162.83952902772552 470.8321728143146 Q 162.2916905952221 467.1475937268377 164.4635185053401 461.1805455848472 L 164.4635185053401 461.1805455848472 Q 165.55798296398223 458.1735291983323 166.76325885986134 456.0315826502567 Q 167.96853475574045 453.88963610218116 169.41702547839128 452.68755472956343 Q 170.8655162010421 451.4854733569457 172.6276986970236 451.2489086705353 Q 174.38988119300507 451.0123439841248 176.55117422081264 451.79899031377386 L 176.55117422081264 451.79899031377386 Q 178.71246724862024 452.5856366434229 179.91031650811436 453.8995647813092 Q 181.1081657676085 455.2134929191955 181.4450910244509 457.06541256413203 Q 181.7820162812933 458.9173322090685 181.3284944820429 461.33289487180457 Q 180.87497268279253 463.7484575345407 179.7805082241504 466.75547392105557 Z" fill-opacity="1"/></g></g><g><g><path fill="rgb(0,0,0)" stroke="none" paint-order="stroke fill markers" d=" M 138.37500000000006 443.34017139487594 L 138.37500000000006 443.34017139487594 Q 143.83096004384203 446.490171394876 145.63998180953305 449.0068537847011 Q 147.4490035752241 451.52353617452627 146.0240035752241 453.9917085753119 L 146.0240035752241 453.9917085753119 Q 144.59900357522412 456.45988097609757 141.51498180953305 456.15156336592275 Q 138.43096004384202 455.8432457557479 132.97500000000005 452.6932457557479 L 132.97500000000005 452.6932457557479 Q 127.5190399561581 449.5432457557479 125.71001819046705 447.02656336592275 Q 123.90099642477603 444.5098809760976 125.32599642477601 442.04170857531193 L 125.32599642477601 442.04170857531193 Q 126.75099642477602 439.5735361745263 129.81336755537245 439.8693537847011 Q 132.87573868596888 440.165171394876 138.37500000000006 443.34017139487594 Z" fill-opacity="1"/></g></g><g><g><path fill="rgb(0,0,0)" stroke="none" paint-order="stroke fill markers" d=" M 95.8774928184711 441.6102431502021 L 95.8774928184711 441.6102431502021 Q 94.72047512103532 442.98912314781626 93.2066432503325 442.9263691260775 Q 91.69281137962969 442.8636151043387 89.62449138320844 441.128088558185 L 89.62449138320844 441.128088558185 Q 87.5561713867872 439.39256201203136 87.23149659400448 437.9126257705225 Q 86.90682180122175 436.43268952901354 88.06383949865753 435.0538095313994 L 88.06383949865753 435.0538095313994 Q 89.25299657657763 433.6366273116293 90.76682844728045 433.6993813333681 Q 92.28066031798326 433.76213535510686 94.3489803144045 435.4976619012605 L 94.3489803144045 435.4976619012605 Q 96.41730031082574 437.2331884474142 96.74197510360847 438.7131246889231 Q 97.0666498963912 440.193060930432 95.8774928184711 441.6102431502021 Z M 109.88052348579467 429.6670387171366 L 109.88052348579467 429.6670387171366 Q 105.79882216428514 434.5314209309421 102.33396385602555 435.89926847496315 Q 98.86910554776594 437.2671160189842 95.34530110941864 434.3102930144261 L 95.34530110941864 434.3102930144261 Q 91.82149667107134 431.35347000986803 92.56689720625857 427.7037264514598 Q 93.3122977414458 424.0539828930515 97.39399906295533 419.189600679246 L 97.39399906295533 419.189600679246 Q 99.45091941395225 416.7382584612653 101.3160971446897 415.13771573057636 Q 103.18127487542715 413.53717299988745 104.9535469621308 412.90299900902136 Q 106.72581904883447 412.2688250181552 108.46263882473825 412.64922883783834 Q 110.19945860064203 413.0296326575215 111.96136081981568 414.50804415980053 L 111.96136081981568 414.50804415980053 Q 113.72326303898933 415.98645566207955 114.39948325891032 417.63083281290903 Q 115.07570347883133 419.27520996373846 114.75891583405372 421.13068041300903 Q 114.44212818927613 422.9861508622796 113.18978601303387 425.1009236807177 Q 111.9374438367916 427.21569649915585 109.88052348579467 429.6670387171366 Z" fill-opacity="1"/></g></g><g><g><path fill="rgb(0,0,0)" stroke="none" paint-order="stroke fill markers" d=" M 78.98057807368818 393.50233386251995 L 78.98057807368818 393.50233386251995 Q 83.03014001471338 398.3284138541695 83.86930834710115 401.31204360833095 Q 84.70847667948894 404.29567336249244 82.52525001659986 406.12761805009904 L 82.52525001659986 406.12761805009904 Q 80.34202335371076 407.9595627377057 77.5494416913696 406.61504138824495 Q 74.75686002902842 405.2705200387841 70.70729808800323 400.4444400471346 L 70.70729808800323 400.4444400471346 Q 66.65773614697802 395.618360055485 65.81856781459024 392.6347303013236 Q 64.97939948220247 389.6511005471621 67.16262614509156 387.8191558595555 L 67.16262614509156 387.8191558595555 Q 69.34585280798065 385.98721117194884 72.12236478007965 387.31258141033163 Q 74.89887675217867 388.6379516487145 78.98057807368818 393.50233386251995 Z" fill-opacity="1"/></g></g><g><g><path fill="rgb(0,0,0)" stroke="none" paint-order="stroke fill markers" d=" M 39.637654479595824 377.34172955930075 L 39.637654479595824 377.34172955930075 Q 38.07880875278384 378.2417295593008 36.677735254283235 377.66499907475946 Q 35.27666175578263 377.0882685902181 33.92666175578263 374.7500000000001 L 33.92666175578263 374.7500000000001 Q 32.576661755782624 372.41173140978213 32.77773525428323 370.9100009252408 Q 32.97880875278384 369.4082704406995 34.53765447959583 368.5082704406995 L 34.53765447959583 368.5082704406995 Q 36.13980147659704 367.5832704406995 37.54087497509764 368.1600009252408 Q 38.941948473598245 368.7367314097821 40.291948473598254 371.0750000000001 L 40.291948473598254 371.0750000000001 Q 41.64194847359825 373.41326859021814 41.44087497509764 374.9149990747594 Q 41.23980147659704 376.41672955930073 39.637654479595824 377.34172955930075 Z M 56.88101555828339 370.9081070408433 L 56.88101555828339 370.9081070408433 Q 51.38175424425221 374.0831070408433 47.65802104685817 374.1834119491259 Q 43.934287849464134 374.28371685740854 41.63428784946413 370.3000000000001 L 41.63428784946413 370.3000000000001 Q 39.33428784946413 366.3162831425917 41.28302104685816 363.1415880508743 Q 43.2317542442522 359.96689295915695 48.73101555828338 356.79189295915694 L 48.73101555828338 356.79189295915694 Q 51.502296850393584 355.1918929591569 53.802408454570845 354.32580312067074 Q 56.10252005874811 353.4597132821845 57.984811339897824 353.4699374157797 Q 59.867102621047536 353.48016154937494 61.3690735791697 354.4316515603354 Q 62.87104453729186 355.3831415712959 64.02104453729186 357.3750000000001 L 64.02104453729186 357.3750000000001 Q 65.17104453729186 359.36685842870435 65.24407357916971 361.1433484396648 Q 65.31710262104754 362.9198384506253 64.38481133989782 364.55506258422054 Q 63.452520058748114 366.19028671781575 61.55240845457085 367.74919687932953 Q 59.65229685039359 369.3081070408433 56.88101555828339 370.9081070408433 Z" fill-opacity="1"/></g></g><g><g><path fill="rgb(0,0,0)" stroke="none" paint-order="stroke fill markers" d=" M 40.21362240954599 326.3559969974557 L 40.21362240954599 326.3559969974557 Q 42.368349312497706 332.2760605084069 42.13644812589069 335.3667678448673 Q 41.90454693928367 338.4574751813277 39.226422970043835 339.4322325898059 L 39.226422970043835 339.4322325898059 Q 36.54829900080399 340.4069899982841 34.38398400440694 338.1884340273041 Q 32.219669008009895 335.96987805632415 30.06494210505818 330.0498145453729 L 30.06494210505818 330.0498145453729 Q 27.910215202106464 324.1297510344217 28.14211638871348 321.0390436979613 Q 28.374017575320494 317.9483363615008 31.052141544560335 316.9735789530227 L 31.052141544560335 316.9735789530227 Q 33.73026551380017 315.9988215445445 35.88603000661408 318.19388520000484 Q 38.041794499427986 320.3889488554652 40.21362240954599 326.3559969974557 Z" fill-opacity="1"/></g></g><g><g><path fill="rgb(0,0,0)" stroke="none" paint-order="stroke fill markers" d=" M 8.77061962805001 297.7139240197771 L 8.77061962805001 297.7139240197771 Q 6.997965672628041 298.0264907395776 5.878640687891426 297.0053460003048 Q 4.759315703154826 295.98420126103207 4.290465623454111 293.3252203278991 L 4.290465623454111 293.3252203278991 Q 3.8216155437533956 290.66623939476614 4.524184902089367 289.3238455268096 Q 5.226754260425352 287.981451658853 6.999408215847321 287.6688849390526 L 6.999408215847321 287.6688849390526 Q 8.821302558919907 287.34763581036873 9.940627543656511 288.3687805496415 Q 11.059952528393122 289.38992528891424 11.528802608093834 292.0489062220472 L 11.528802608093834 292.0489062220472 Q 11.997652687794545 294.7078871551801 11.29508332945857 296.0502810231367 Q 10.592513971122596 297.39267489109324 8.77061962805001 297.7139240197771 Z M 27.174507287105726 297.5658732418095 L 27.174507287105726 297.5658732418095 Q 20.920978055478205 298.6685391699945 17.387507149004417 297.48920319025706 Q 13.85403624253064 296.3098672105196 13.055254625262759 291.7797515466634 L 13.055254625262759 291.7797515466634 Q 12.256473007994877 287.2496358828073 15.173492883751056 284.9329043393514 Q 18.090512759507238 282.6161727958955 24.34404199113476 281.51350686771053 L 24.34404199113476 281.51350686771053 Q 27.495426800773828 280.9578326991764 29.9530448728952 280.93065896953897 Q 32.41066294501658 280.9034852399015 34.175941312445005 281.55687431655434 Q 35.94121967987342 282.2102633932072 37.02718195593391 283.6180758576262 Q 38.1131442319944 285.0258883220452 38.512535040628336 287.29094615397327 L 38.512535040628336 287.29094615397327 Q 38.911925849262275 289.5560039859014 38.37295533285262 291.2503359434708 Q 37.833984816442964 292.94466790104025 36.39863798658171 294.1624135551106 Q 34.96329115672046 295.380159209181 32.64459162673262 296.19517914122815 Q 30.325892096744788 297.0101990732754 27.174507287105726 297.5658732418095 Z" fill-opacity="1"/></g></g><g><g><path fill="rgb(0,0,0)" stroke="none" paint-order="stroke fill markers" d=" M 26.75 250.00000000000003 L 26.75 250.00000000000003 Q 26.75 256.3 25.475 259.12500000000006 Q 24.200000000000003 261.95000000000005 21.35 261.95000000000005 L 21.35 261.95000000000005 Q 18.500000000000004 261.95000000000005 17.224999999999998 259.12500000000006 Q 15.95 256.3 15.95 250.00000000000003 L 15.95 250.00000000000003 Q 15.95 243.70000000000005 17.224999999999998 240.87500000000003 Q 18.499999999999996 238.05000000000004 21.349999999999998 238.05000000000004 L 21.349999999999998 238.05000000000004 Q 24.199999999999996 238.05000000000004 25.474999999999998 240.85000000000002 Q 26.75 243.65000000000003 26.75 250.00000000000003 Z" fill-opacity="1"/></g></g><g><g><path fill="rgb(0,0,0)" stroke="none" paint-order="stroke fill markers" d=" M 6.999408215847289 212.33111506094752 L 6.999408215847289 212.33111506094752 Q 5.2267542604253165 212.01854834114707 4.524184902089338 210.6761544731905 Q 3.821615543753367 209.33376060523395 4.290465623454075 206.67477967210098 L 4.290465623454075 206.67477967210098 Q 4.759315703154783 204.01579873896802 5.878640687891398 202.9946539996953 Q 6.9979656726280055 201.97350926042253 8.770619628049978 202.28607598022302 L 8.770619628049978 202.28607598022302 Q 10.592513971122564 202.60732510890682 11.295083329458535 203.94971897686338 Q 11.997652687794513 205.29211284481994 11.528802608093802 207.9510937779529 L 11.528802608093802 207.9510937779529 Q 11.05995252839309 210.61007471108587 9.940627543656483 211.63121945035863 Q 8.821302558919875 212.65236418963136 6.999408215847289 212.33111506094752 Z M 24.34404199113473 218.48649313228955 L 24.34404199113473 218.48649313228955 Q 18.09051275950721 217.38382720410453 15.173492883751031 215.06709566064868 Q 12.256473007994849 212.75036411719282 13.055254625262727 208.22024845333667 L 13.055254625262727 208.22024845333667 Q 13.854036242530604 203.69013278948051 17.387507149004385 202.51079680974303 Q 20.92097805547817 201.33146083000554 27.17450728710569 202.43412675819056 L 27.17450728710569 202.43412675819056 Q 30.32589209674476 202.98980092672474 32.64459162673259 203.80482085877193 Q 34.96329115672042 204.61984079081913 36.398637986581676 205.83758644488947 Q 37.833984816442936 207.05533209895984 38.37295533285259 208.74966405652927 Q 38.911925849262246 210.44399601409873 38.51253504062831 212.7090538460268 L 38.51253504062831 212.7090538460268 Q 38.11314423199437 214.97411167795488 37.027181955933884 216.3819241423739 Q 35.9412196798734 217.7897366067929 34.17594131244498 218.44312568344574 Q 32.410662945016554 219.09651476009856 29.953044872895177 219.06934103046115 Q 27.4954268007738 219.04216730082373 24.34404199113473 218.48649313228955 Z" fill-opacity="1"/></g></g><g><g><path fill="rgb(0,0,0)" stroke="none" paint-order="stroke fill markers" d=" M 40.21362240954593 173.6440030025446 L 40.21362240954593 173.6440030025446 Q 38.05889550659422 179.56406651349582 35.89458051019717 181.78262248447578 Q 33.73026551380013 184.00117845545574 31.05214154456029 183.0264210469776 L 31.05214154456029 183.0264210469776 Q 28.374017575320448 182.05166363849943 28.142116388713426 178.96095630203902 Q 27.910215202106407 175.87024896557858 30.064942105058115 169.95018545462736 L 30.064942105058115 169.95018545462736 Q 32.219669008009824 164.03012194367614 34.38398400440687 161.81156597269617 Q 36.54829900080392 159.5930100017162 39.22642297004376 160.56776741019436 L 39.22642297004376 160.56776741019436 Q 41.9045469392836 161.54252481867252 42.14499862947376 164.6097398396133 Q 42.38545031966392 167.67695486055408 40.21362240954593 173.6440030025446 Z" fill-opacity="1"/></g></g><g><g><path fill="rgb(0,0,0)" stroke="none" paint-order="stroke fill markers" d=" M 34.53765447959576 131.4917295593006 L 34.53765447959576 131.4917295593006 Q 32.97880875278378 130.5917295593006 32.77773525428317 129.08999907475928 Q 32.57666175578257 127.58826859021795 33.92666175578256 125.24999999999997 L 33.92666175578256 125.24999999999997 Q 35.27666175578257 122.91173140978198 36.677735254283164 122.33500092524065 Q 38.07880875278377 121.75827044069933 39.63765447959577 122.65827044069934 L 39.63765447959577 122.65827044069934 Q 41.23980147659698 123.58327044069932 41.44087497509758 125.08500092524065 Q 41.64194847359819 126.58673140978198 40.29194847359818 128.92499999999995 L 40.29194847359818 128.92499999999995 Q 38.94194847359819 131.26326859021796 37.54087497509758 131.83999907475928 Q 36.13980147659697 132.4167295593006 34.53765447959576 131.4917295593006 Z M 48.731015558283325 143.20810704084315 L 48.731015558283325 143.20810704084315 Q 43.23175424425214 140.03310704084313 41.2830210468581 136.85841194912575 Q 39.33428784946406 133.6837168574084 41.634287849464066 129.69999999999996 L 41.634287849464066 129.69999999999996 Q 43.93428784946407 125.71628314259155 47.6580210468581 125.81658805087417 Q 51.38175424425214 125.9168929591568 56.88101555828332 129.09189295915678 L 56.88101555828332 129.09189295915678 Q 59.652296850393526 130.6918929591568 61.552408454570795 132.25080312067058 Q 63.45252005874806 133.80971328218436 64.38481133989777 135.44493741577958 Q 65.31710262104748 137.0801615493748 65.24407357916964 138.85665156033528 Q 65.1710445372918 140.63314157129577 64.0210445372918 142.62499999999997 L 64.0210445372918 142.62499999999997 Q 62.8710445372918 144.61685842870418 61.369073579169644 145.56834843966467 Q 59.86710262104748 146.51983845062517 57.98481133989777 146.5300625842204 Q 56.102520058748055 146.5402867178156 53.802408454570795 145.67419687932937 Q 51.50229685039353 144.80810704084314 48.731015558283325 143.20810704084315 Z" fill-opacity="1"/></g></g><g><g><path fill="rgb(0,0,0)" stroke="none" paint-order="stroke fill markers" d=" M 78.98057807368812 106.4976661374801 L 78.98057807368812 106.4976661374801 Q 74.93101613266293 111.32374612912966 72.13843447032176 112.66826747859044 Q 69.34585280798059 114.01278882805121 67.1626261450915 112.18084414044458 L 67.1626261450915 112.18084414044458 Q 64.97939948220241 110.34889945283794 65.81856781459018 107.36526969867649 Q 66.65773614697797 104.38163994451503 70.70729808800316 99.55555995286548 L 70.70729808800316 99.55555995286548 Q 74.75686002902836 94.72947996121592 77.54944169136952 93.38495861175514 Q 80.3420233537107 92.04043726229436 82.52525001659978 93.872381949901 L 82.52525001659978 93.872381949901 Q 84.70847667948888 95.70432663750763 83.88537803734326 98.66880528059112 Q 83.06227939519765 101.63328392367458 78.98057807368812 106.4976661374801 Z" fill-opacity="1"/></g></g><g><g><path fill="rgb(0,0,0)" stroke="none" paint-order="stroke fill markers" d=" M 88.06383949865746 64.94619046860066 L 88.06383949865746 64.94619046860066 Q 86.90682180122168 63.567310470986506 87.23149659400441 62.087374229477604 Q 87.55617138678713 60.60743798796871 89.62449138320838 58.871911441815044 L 89.62449138320838 58.871911441815044 Q 91.69281137962962 57.136384895661394 93.20664325033243 57.073630873922596 Q 94.72047512103526 57.010876852183806 95.87749281847103 58.38975684979796 L 95.87749281847103 58.38975684979796 Q 97.06664989639113 59.806939069568074 96.74197510360841 61.28687531107697 Q 96.41730031082568 62.76681155258588 94.34898031440444 64.50233809873953 L 94.34898031440444 64.50233809873953 Q 92.2806603179832 66.2378646448932 90.76682844728037 66.30061866663198 Q 89.25299657657756 66.36337268837077 88.06383949865746 64.94619046860066 Z M 97.39399906295527 80.81039932075406 L 97.39399906295527 80.81039932075406 Q 93.31229774144575 75.94601710694855 92.56689720625852 72.29627354854028 Q 91.82149667107127 68.64652999013202 95.34530110941857 65.68970698557395 L 95.34530110941857 65.68970698557395 Q 98.86910554776587 62.73288398101587 102.33396385602548 64.1007315250369 Q 105.79882216428508 65.46857906905795 109.88052348579461 70.33296128286347 L 109.88052348579461 70.33296128286347 Q 111.93744383679153 72.78430350084419 113.1897860130338 74.89907631928233 Q 114.44212818927606 77.01384913772047 114.75891583405367 78.86931958699103 Q 115.07570347883126 80.72479003626157 114.39948325891027 82.36916718709102 Q 113.72326303898927 84.01354433792048 111.96136081981562 85.49195584019952 L 111.96136081981562 85.49195584019952 Q 110.19945860064198 86.97036734247857 108.46263882473819 87.3507711621617 Q 106.72581904883441 87.73117498184484 104.95354696213074 87.09700099097873 Q 103.18127487542709 86.4628270001126 101.31609714468965 84.8622842694237 Q 99.45091941395219 83.26174153873478 97.39399906295527 80.81039932075406 Z" fill-opacity="1"/></g></g><g><g><path fill="rgb(0,0,0)" stroke="none" paint-order="stroke fill markers" d=" M 138.3749999999999 56.65982860512413 L 138.3749999999999 56.65982860512413 Q 132.91903995615792 59.80982860512414 129.83501819046688 60.11814621529898 Q 126.75099642477585 60.426463825473824 125.32599642477584 57.95829142468818 L 125.32599642477584 57.95829142468818 Q 123.90099642477584 55.49011902390252 125.71001819046688 52.97343663407736 Q 127.51903995615791 50.4567542442522 132.97499999999988 47.306754244252204 L 132.97499999999988 47.306754244252204 Q 138.43096004384185 44.1567542442522 141.51498180953288 43.84843663407735 Q 144.59900357522392 43.54011902390251 146.02400357522393 46.00829142468817 L 146.02400357522393 46.00829142468817 Q 147.4490035752239 48.476463825473814 145.6616324446275 50.980646215298975 Q 143.87426131403106 53.484828605124136 138.3749999999999 56.65982860512413 Z" fill-opacity="1"/></g></g><g><g><path fill="rgb(0,0,0)" stroke="none" paint-order="stroke fill markers" d=" M 161.12191539737603 20.72087191074541 L 161.12191539737603 20.72087191074541 Q 160.50627913938982 19.029425193330777 161.31754165175667 17.749785347113 Q 162.12880416412352 16.470145500895242 164.66597424024548 15.546691113915934 L 164.66597424024548 15.546691113915934 Q 167.20314431636743 14.623236726936625 168.64714409388677 15.082028229172778 Q 170.0911438714061 15.540819731408952 170.70678012939229 17.23226644882358 L 170.70678012939229 17.23226644882358 Q 171.33951739454477 18.97069779727751 170.52825488217795 20.25033764349528 Q 169.7169923698111 21.529977489713044 167.17982229368914 22.453431876692353 L 167.17982229368914 22.453431876692353 Q 164.6426522175672 23.37688626367166 163.19865244004785 22.918094761435498 Q 161.7546526625285 22.459303259199338 161.12191539737603 20.72087191074541 Z M 164.46351850533992 38.81945441515293 L 164.46351850533992 38.81945441515293 Q 162.29169059522192 32.852406273162416 162.83952902772532 29.1678271856855 Q 163.38736746022875 25.48324809820859 167.70995351584392 23.90995543891051 L 167.70995351584392 23.90995543891051 Q 172.0325395714591 22.336662779612432 174.82060994274565 24.807070358283216 Q 177.60868031403223 27.277477936954007 179.78050822415022 33.24452607894452 L 179.78050822415022 33.24452607894452 Q 180.87497268279236 36.25154246545942 181.32849448204274 38.66710512819552 Q 181.78201628129312 41.082667790931616 181.44509102445073 42.9345874358681 Q 181.10816576760834 44.78650708080459 179.9103165081142 46.10043521869089 Q 178.71246724862007 47.4143633565772 176.5511742208125 48.201009686226236 L 176.5511742208125 48.201009686226236 Q 174.3898811930049 48.987656015875274 172.62769869702342 48.751091329464835 Q 170.86551620104194 48.51452664305439 169.4170254783911 47.31244527043667 Q 167.96853475574028 46.11036389781896 166.76325885986117 43.9684173497434 Q 165.55798296398206 41.82647080166784 164.46351850533992 38.81945441515293 Z" fill-opacity="1"/></g></g><g><g><path fill="rgb(0,0,0)" stroke="none" paint-order="stroke fill markers" d=" M 211.2330443358578 30.141669140024568 L 211.2330443358578 30.141669140024568 Q 205.0287554918809 31.23565265932623 202.02527216309608 30.470578876144742 Q 199.02178883431125 29.705505092963257 198.5268915279605 26.898802996878462 L 198.5268915279605 26.898802996878462 Q 198.03199422160975 24.09210090079367 200.59267469734388 22.345914913794026 Q 203.15335517307804 20.599728926794384 209.35764401705495 19.50574540749272 L 209.35764401705495 19.50574540749272 Q 215.56193286103186 18.41176188819106 218.5654161898167 19.176835671372544 Q 221.5688995186015 19.941909454554033 222.06379682495228 22.748611550638827 L 222.06379682495228 22.748611550638827 Q 222.558694131303 25.55531364672362 220.02263384939417 27.297158429281588 Q 217.48657356748532 29.03900321183956 211.2330443358578 30.141669140024568 Z" fill-opacity="1"/></g></g></g></g></svg>