<svg version="1.1" xmlns="http://www.w3.org/2000/svg" xmlns:xlink="http://www.w3.org/1999/xlink" width="500" height="500" viewBox="0 0 500 500"><defs/><g><g><g><path fill="rgb(0,0,0)" stroke="none" paint-order="stroke fill markers" d=" M 232.52 194.88 C 224.54000000000002 212.36 217.51 229.07999999999998 212.38 244.28 C 204.78 244.66 196.99 245.23000000000002 188.06 245.61 C 212.76 192.79 200.79000000000002 173.03 169.44 170.18 C 146.45 168.28 127.64 178.73 114.15 193.93 C 97.81 212.17000000000002 101.23 227.94 112.44 234.01999999999998 C 115.28999999999999 235.54 118.9 236.11 122.51 236.11 C 130.49 236.11 138.47 233.45 138.28 231.55 C 137.32999999999998 223.76 140.56 207.04 154.81 194.69 C 165.64 185.38 176.66 184.62 177.99 185.57 C 185.21 189.94 179.89 204 155.19 255.49 C 139.8 287.41 137.71 307.93 156.52 310.02 C 171.34 311.73 167.92000000000002 303.94 167.92000000000002 303.94 C 167.73000000000002 303.94 169.25 287.03 182.93 256.82 C 190.72 256.44 199.65 255.68 208.76999999999998 255.11 C 206.87 261.57 205.35 267.46 204.4 272.97 C 199.26999999999998 295.2 199.46 321.23 219.79000000000002 323.51 C 246.39000000000001 326.55 250.95 290.83 244.3 294.63 C 242.21 295.77 239.74 296.53 236.89000000000001 296.53 C 231.19 296.53 229.48 290.26 231.19 280.57 C 236.89000000000001 253.4 247.15 226.8 258.74 201.53 C 261.21000000000004 196.01999999999998 250.19 190.7 241.45 190.7 C 237.46 190.7 233.85 191.84 232.52 194.88 Z M 300.34999999999997 206.85 C 307.57 206.85 313.46 200.95999999999998 313.46 193.55 C 313.46 186.14 307.57 180.25 300.34999999999997 180.25 C 292.94 180.25 287.04999999999995 186.14 287.04999999999995 193.55 C 287.04999999999995 200.95999999999998 292.94 206.85 300.34999999999997 206.85 Z M 318.59 251.88 C 314.59999999999997 261.57 305.66999999999996 277.53 293.13 277.53 C 279.26 277.53 295.97999999999996 239.72 302.44 224.70999999999998 C 304.90999999999997 219.2 293.7 213.88 284.58 213.88 C 280.21 213.88 276.40999999999997 215.20999999999998 274.89 218.44 C 267.28999999999996 235.54 234.79999999999998 305.27 273.37 309.45 C 303.77 312.87 318.21 281.52 323.15 259.48 C 323.15 259.48 324.66999999999996 252.26 318.59 251.88 Z M 377.10999999999996 184.05 C 340.63 254.16 331.13 292.73 355.07 292.73 C 369.32 292.73 365.9 285.32 365.9 285.32 C 365.9 285.32 380.53 232.88 408.08 189.56 C 410.92999999999995 185 397.63 180.25 387.55999999999995 180.25 C 382.62 180.25 378.44 181.39 377.10999999999996 184.05 Z M 350.7 299 C 344.42999999999995 299 332.27 304.51 332.27 316.86 C 332.27 322.37 335.31 330.54 345.38 330.54 C 353.54999999999995 330.54 363.42999999999995 323.89 363.42999999999995 314.01 C 363.42999999999995 307.74 361.15 299 350.7 299 Z" fill-opacity="1"/></g></g><g><g><g><path fill="rgb(0,0,0)" stroke="none" paint-order="stroke fill markers" d=" M 265.1 27.599999999999998 C 264 30.15 261.7 34.35 258.4 34.35 C 255.4 34.35 257.2 29.6 257.7 28.099999999999998 C 259.3 23.599999999999998 258.5 19.2 252.6 18.849999999999998 C 249.2 18.65 246.3 20.65 243.95 23.2 C 245.05 19.549999999999997 246.6 15.25 248.7 10.350000000000001 C 249.3 8.899999999999999 246.35 7.5 244 7.5 C 242.85 7.5 241.8 7.850000000000001 241.45 8.699999999999996 C 234.1 25.75 230.35 40.65 238.2 40.65 C 242.4 40.65 241 38.45 241 38.45 C 240.95 38.45 240.9 35.9 241.95 30.75 C 242.55 28.9 244.6 23.5 248.8 23.599999999999998 C 250.5 23.65 250.55 25.549999999999997 249.9 27.7 C 247.55 35.25 246.45 42 253.2 42.75 C 261.15 43.65 265 35.4 266.3 29.6 C 266.3 29.6 266.7 27.7 265.1 27.599999999999998 Z" fill-opacity="1"/></g></g><g><g><path fill="rgb(0,0,0)" stroke="none" paint-order="stroke fill markers" d=" M 287.65715639454356 18.77997124540253 C 289.53593496437134 19.06315155113726 291.29963825759336 17.76147928306138 291.59027067663686 15.833259171922379 C 291.8809030956804 13.905039060783373 290.57923082760453 12.141335767561358 288.7004522577768 11.858155461826627 C 286.7722321466378 11.567523042783087 285.0085288534158 12.869195310858963 284.7178964343722 14.797415421997968 C 284.4272640153287 16.725635533136966 285.72893628340455 18.48933882635899 287.65715639454356 18.77997124540253 Z M 290.63739350623655 31.213019413815935 C 289.2190633599509 33.57804364120503 286.2693334003819 37.38088378583656 283.006191673839 36.88904430745519 C 279.3969591581173 36.34504003591215 285.23078534196077 27.161959286147287 287.50051469793937 23.509449375057528 C 288.35936602094114 22.172522150045605 285.65097425622366 20.34848430811071 283.2777802732834 19.99078286928789 C 282.1406248231245 19.81938426318529 281.09962920373766 20.016432786187913 280.5774109469979 20.7973220820088 C 277.9290590967548 24.94897626766953 266.7396299481972 41.819710553094346 276.61231634158844 44.42020346363016 C 284.3888249118309 46.50248933664217 289.3759807474398 38.91099563175432 291.52590596535435 33.36953178567761 C 291.52590596535435 33.36953178567761 292.2046186015791 31.550370122320327 290.63739350623655 31.213019413815935 Z" fill-opacity="1"/></g></g><g><g><path fill="rgb(0,0,0)" stroke="none" paint-order="stroke fill markers" d=" M 329.9827001563558 41.93141112676696 C 328.1799443752432 44.04389108966962 324.7441551894093 47.379359972826336 321.59076493031506 46.40666789727035 C 318.72404651295665 45.52240237403764 321.8441646418235 41.513990860493095 322.7640838063329 40.228009239019336 C 325.6193985804398 36.39953989203915 326.1518631032189 31.95921540705141 320.6171478601245 29.885709396001925 C 317.42715135533376 28.69242724184762 314.0664798697322 29.74878284762828 311.0692580813869 31.492818842517316 C 313.1962445543515 28.329208793249897 315.9448296532869 24.677116248706394 319.3958329000512 20.613795366617204 C 320.3965715864187 19.40506790287384 317.99028905352486 17.19773821026108 315.7446929599274 16.505063550395455 C 314.64578423327333 16.16609509982292 313.53926847615406 16.191052648716614 312.95427609587966 16.900125222591015 C 300.9052402496456 31.02619102932457 292.92999012922513 44.158893931497175 300.43123665464634 46.47272205062277 C 304.4446424389481 47.71069378314857 303.7553018945515 45.19577636624379 303.7553018945515 45.19577636624379 C 303.7075232542622 45.18103860752325 304.4113703087207 42.72959019404804 306.9327109030123 38.117883177380875 C 308.0513516591442 36.52692659132305 311.60195385282464 31.971081547620248 315.5858841196853 33.304610560724655 C 317.1956201308012 33.8534729975125 316.6833639397098 35.68379908722672 315.42851799096536 37.54668975629983 C 310.9575203305656 44.06858978011957 307.9167928169273 50.19447552732402 314.14584287517556 52.90075255893723 C 321.47736702420553 56.104071720711445 327.58805251537217 49.35540349445777 330.5398771744774 44.19626294763233 C 330.5398771744774 44.19626294763233 331.48214112817254 42.49857668640302 329.9827001563558 41.93141112676696 Z" fill-opacity="1"/></g></g><g><g><path fill="rgb(0,0,0)" stroke="none" paint-order="stroke fill markers" d=" M 354.13745449671717 40.152070069909556 C 355.8492953457318 40.97644917423291 357.91831688661273 40.25246722461638 358.764390177892 38.49557793220666 C 359.61046346917124 36.73868863979695 358.8864815195547 34.66966709891598 357.1746406705401 33.84528799459262 C 355.4177513781304 32.99921470331338 353.3487298372494 33.723196652929914 352.5026565459702 35.48008594533963 C 351.65658325469093 37.23697523774935 352.38056520430746 39.305996778630316 354.13745449671717 40.152070069909556 Z M 353.3205827541057 52.9111931023175 C 351.2681619080584 54.75308578939523 347.32857336419397 57.51752824765913 344.355376100116 56.085711908571184 C 341.0668397322722 54.5020362607921 349.34824595526254 47.44648447728028 352.593733800211 44.62525980556558 C 353.808494986068 43.60087937753349 351.75807406052047 41.0595659320733 349.59574877755466 40.01824495819116 C 348.5596345794669 39.51927865820596 347.50680640287334 39.40073402285425 346.77761767746244 39.99300406492429 C 343.0232031156286 43.179596492250056 327.3581526822557 56.00266924880433 336.02571457843595 61.397654955540204 C 342.8429701564495 65.67959684959285 349.84619270219855 59.89536189804461 353.5339779173535 55.23379132506341 C 353.5339779173535 55.23379132506341 354.71874456883785 53.695503971695835 353.3205827541057 52.9111931023175 Z" fill-opacity="1"/></g></g><g><g><path fill="rgb(0,0,0)" stroke="none" paint-order="stroke fill markers" d=" M 387.7585864055211 74.75062946888342 C 385.41325760571124 76.23788627951923 381.1469641809172 78.41245299810008 378.4203762256745 76.55349680649012 C 375.9416599027265 74.86353663229926 380.1046599722975 71.9528785588128 381.3627594465509 70.99518042637061 C 385.2196817467428 68.17841803485044 387.0372989827699 64.09231138140916 382.35965223462784 60.47953946782319 C 379.6631044135662 58.399003515543676 376.14037185192257 58.417852895791164 372.76224458421774 59.20095963384743 C 375.7272254478975 56.804840171464036 379.4301717977609 54.125159531903876 383.9255415083362 51.25956165968911 C 385.2380988571181 50.39950747176909 383.589342554175 47.58097901643901 381.6476814345324 46.2571768799895 C 380.697506844069 45.60935881321633 379.63279411071494 45.307056323260134 378.86478849035024 45.812197261106455 C 363.18732650914296 55.75916593642655 351.69546224031 65.95767345599629 358.18143661869055 70.37973591179572 C 361.6516394708177 72.74568015566294 361.7342093145153 70.13930677087868 361.7342093145153 70.13930677087868 C 361.6928973757995 70.1111407679755 363.08805158514593 67.97606589056653 366.85670059720536 64.31242226380596 C 368.3945859692127 63.12187256615954 373.13030377010404 59.81498930388359 376.54417461642487 62.2635574251824 C 377.9206145298589 63.262513462606364 376.89161835825377 64.86053313670993 375.1434250301116 66.27078846374796 C 368.94869747208867 71.18508907338422 364.2374244284116 76.1425487361472 369.3920461114969 80.56463820881365 C 375.4536563150518 85.78664756730383 383.28206607519326 81.13895990274182 387.623432818573 77.07909108719176 C 387.623432818573 77.07909108719176 389.0242364386203 75.73456543921682 387.7585864055211 74.75062946888342 Z" fill-opacity="1"/></g></g><g><g><path fill="rgb(0,0,0)" stroke="none" paint-order="stroke fill markers" d=" M 411.3646827671657 80.17007837117748 C 412.75748132364237 81.46240657294223 414.9479794685235 81.38044391515092 416.2743163071768 79.95099276508276 C 417.6006531458301 78.5215416150146 417.51869048803877 76.33104347013344 416.12589193156214 75.03871526836869 C 414.69644078149395 73.7123784297154 412.5059426366128 73.79434108750671 411.1796057979595 75.22379223757487 C 409.8532689593062 76.65324338764303 409.93523161709754 78.84374153252418 411.3646827671657 80.17007837117748 Z M 406.82328480936343 92.12157219366134 C 404.3191398626263 93.27667309216793 399.73974246518833 94.75708502009154 397.3206712881499 92.5125149854475 C 394.64503195597104 90.02988449258365 404.63817893284295 85.72877841406891 408.5710494291488 83.98951717455166 C 410.033783615606 83.36870423994952 408.82352242658726 80.33592204296355 407.0641979341957 78.70350747231333 C 406.2211882815914 77.92130882387679 405.25007595154176 77.4977042412463 404.37870837570455 77.84872923719328 C 399.8518273120757 79.78711718488566 381.1030640698344 87.42314212502161 387.7953505573591 95.13325247240925 C 393.04761006800385 101.23438105922347 401.4446322675673 97.77135952015689 406.3426015800174 94.40388322264609 C 406.3426015800174 94.40388322264609 407.9281505305141 93.28315376127779 406.82328480936343 92.12157219366134 Z" fill-opacity="1"/></g></g><g><g><path fill="rgb(0,0,0)" stroke="none" paint-order="stroke fill markers" d=" M 433.2940177089567 123.14152345188491 C 430.6145086466186 123.87140781590983 425.8967898759778 124.69185257404006 423.839273529844 122.11180868189555 C 421.96880412426776 119.76631423449146 426.80478530933664 118.21203434410494 428.28927743396804 117.66771538255085 C 432.80510278804815 116.1129416461354 435.74636946942053 112.74412133198254 432.3414206573178 107.91309415477062 C 430.37792162749173 105.13016915400756 427.0061382371653 104.10983745856774 423.5472669225038 103.86243246950764 C 427.08679061555677 102.4467093234381 431.4150751830503 100.97754197327099 436.555378031047 99.56428805734606 C 438.0631275617409 99.12932673413172 437.3183967217129 95.9500381382488 435.85319568734485 94.11273415444893 C 435.13618241520726 93.2136279496107 434.2078771043918 92.61092632366982 433.32509891364344 92.86725163638593 C 415.41222209390185 97.75129136193732 401.4248462481579 104.10942135037735 406.31924119274896 110.24679848775138 C 408.93789836055566 113.5304907141171 409.7850418993831 111.06424907457264 409.7850418993831 111.06424907457264 C 409.75386740929014 111.02515750044924 411.71636319949073 109.39616693158607 416.39745962615274 107.00611750860503 C 418.2179417498338 106.32176026464718 423.7179858489716 104.55766987366948 426.2584598685315 107.90371108022109 C 427.2793009575679 109.26399909050967 425.8249956309716 110.48772128816466 423.73878957245716 111.32003389855672 C 416.3707608454555 114.1900779187903 410.4075595567517 117.53861945062191 414.02974210744713 123.28359930867516 C 418.2828376980028 130.06030041596887 427.1333831655202 127.92656075813622 432.47854250625113 125.32670083456401 C 432.47854250625113 125.32670083456401 434.21341824368386 124.45480280401962 433.2940177089567 123.14152345188491 Z" fill-opacity="1"/></g></g><g><g><path fill="rgb(0,0,0)" stroke="none" paint-order="stroke fill markers" d=" M 454.2539508365047 135.27822049550184 C 455.20395083650476 136.92366876269227 457.3212902123706 137.49100813855816 459.01003974975026 136.51600813855816 C 460.69878928712996 135.54100813855817 461.2661286629958 133.42366876269227 460.3161286629958 131.77822049550184 C 459.3411286629958 130.0894709581222 457.22378928712993 129.52213158225632 455.5350397497503 130.49713158225632 C 453.8462902123706 131.4721315822563 453.27895083650475 133.5894709581222 454.2539508365047 135.27822049550184 Z M 446.39154980165915 145.36014243366716 C 443.6581850220088 145.7258157596935 438.8458783261142 145.79065606080007 437.19587832611415 142.93277222831142 C 435.37087832611417 139.7717795044982 446.1878310937693 138.60729128114974 450.4586314387179 138.10453446758328 C 452.03936827420534 137.9424509800432 451.77680383950354 134.6876760388791 450.57680383950355 132.60921506979642 C 450.0018038395035 131.61328585544433 449.19869494817897 130.9222604516599 448.2625733549622 131.0008502901461 C 443.3654590379322 131.51879948257724 423.19889287848775 133.28928228022028 427.3212649343249 142.62944012863233 C 430.5418420709189 150.00764335890784 439.58655165214054 149.1735398932887 445.2594989940903 147.39937291820848 C 445.2594989940903 147.39937291820848 447.1049472612807 146.79578307972224 446.39154980165915 145.36014243366716 Z" fill-opacity="1"/></g></g><g><g><path fill="rgb(0,0,0)" stroke="none" paint-order="stroke fill markers" d=" M 462.54297116640356 182.80434978544122 C 459.7673679805578 182.7120082740669 455.01741388020946 182.10543095452408 453.81178849980034 179.03354758399823 C 452.7157654267012 176.2409263380656 457.79502957662066 176.18112921988478 459.37401071177015 176.0985545576573 C 464.1474882196553 175.94391794583925 467.9510598941967 173.59171843971174 466.1213536624604 167.97169396418272 C 465.0653689293435 164.73365501391913 462.1441324613926 162.76480319158372 458.9118529950888 161.50886949440417 C 462.7114173044432 161.19933587897543 467.28045301138116 161.07122378459846 472.60895053090724 161.23588763735594 C 474.1779220810611 161.2646674012112 474.40338930728217 158.00711240859783 473.54483790002115 155.81955909928396 C 473.1246957219998 154.74905428834313 472.4152818343896 153.89950621079495 471.4961697895138 153.88424026948093 C 452.9395158460371 153.27138268239307 437.69946814986446 155.22418738803657 440.5673951911407 162.53154631489357 C 442.10182749347956 166.44121605919923 443.63827230638384 164.33424255749128 443.63827230638384 164.33424255749128 C 443.6200052551655 164.28769887005907 445.9754662629899 163.30953557049256 451.1530741440923 162.40544673108204 C 453.0943951937039 162.28809008519073 458.8700625363337 162.22353973833282 460.31140746380817 166.1697435850751 C 460.8859435177988 167.77049600898857 459.13555044659313 168.51118764271695 456.89670022116997 168.69160290848595 C 449.0100520116452 169.26237433313835 442.3247790814938 170.7044651241029 444.09267568448377 177.26186869572606 C 446.1593504544168 184.99112191937726 455.2456218245421 185.56092240063467 461.11963289835484 184.65208033254706 C 461.11963289835484 184.65208033254706 463.0344294305254 184.3302818857086 462.54297116640356 182.80434978544122 Z" fill-opacity="1"/></g></g><g><g><path fill="rgb(0,0,0)" stroke="none" paint-order="stroke fill markers" d=" M 478.9943590203209 200.57989617703788 C 479.41714879483794 202.43225921018336 481.273194506352 203.5984900264329 483.1743039351066 203.1645742052181 C 485.0754133638612 202.73065838400328 486.2416441801107 200.87461267248915 485.8188544055937 199.0222496393437 C 485.38493858437886 197.12114021058915 483.5288928728648 195.9549093943396 481.6277834441102 196.38882521555442 C 479.7266740153556 196.82274103676923 478.5604431991061 198.67878674828333 478.9943590203209 200.57989617703788 Z M 468.5095637439566 207.89642322289296 C 465.78985058723885 207.44017729669065 461.17222916127787 206.0836846256799 460.437910079222 202.86642251547988 C 459.6257086702815 199.30793563601623 470.3053335058984 201.38353515675092 474.53458434674235 202.16195491833258 C 476.0928684264776 202.4730027070141 476.801330748361 199.2854360585389 476.26728050686586 196.9456090693025 C 476.0113814328161 195.8244419702934 475.44763572959613 194.92739638499629 474.52993863065905 194.72656801398642 C 469.69772115792824 193.7780563924262 449.90523998406525 189.52568188136996 451.09140676032183 199.66597321736742 C 451.99413911100874 207.6656653553827 460.88287393554276 209.53459371653403 466.82673304034057 209.51137858542378 C 466.82673304034057 209.51137858542378 468.76810444706854 209.47855997577952 468.5095637439566 207.89642322289296 Z" fill-opacity="1"/></g></g><g><g><path fill="rgb(0,0,0)" stroke="none" paint-order="stroke fill markers" d=" M 472.90654890624944 248.4378045238151 C 470.2814761204924 247.53144208556117 465.92134095708263 245.55173974510743 465.6747316482475 242.26096721440953 C 465.4505413674882 239.269355822866 470.3217735725544 240.7093547132566 471.8549443151193 241.09586147146757 C 476.46192955217293 242.35510212581855 480.789842184901 241.22852667629334 480.6979559617545 235.31886874016914 C 480.6433144029969 231.91342981103583 478.4321895372339 229.17099898638327 475.7137041344938 227.01813180165286 C 479.4357010971502 227.8422911369617 483.8395090700882 229.06661762017092 488.88274087280746 230.7945681356779 C 490.373524434872 231.28453177828632 491.54915597484575 228.23815844558084 491.37354025491766 225.89472952220507 C 491.28760064729323 224.7479451554467 490.86011272001406 223.72703670116172 489.9863339596548 223.44153595169675 C 472.4347430298555 217.38623613806362 457.2961686009068 214.7602002930719 457.88279983556026 222.58825010094418 C 458.19666622862326 226.77650604910514 460.28589245140085 225.21601452716135 460.28589245140085 225.21601452716135 C 460.2821559467215 225.1661543373023 462.8212891248542 224.92573240879784 468.03535527860305 225.587936413868 C 469.92502035954004 226.04800801904182 475.46311755617063 227.68873329789656 475.67726356951545 231.88446225541617 C 475.7544445387533 233.58344521530347 473.8634938287884 233.77529258297676 471.6709311040177 233.2877798160198 C 463.9664267153717 231.50856309922153 457.15309798145364 230.91606705403058 456.90962326527614 237.70324025519338 C 456.60624409182515 245.69826752701152 465.1208862788776 248.92097887407107 471.0018174241908 249.78390926760534 C 471.0018174241908 249.78390926760534 472.92639667626963 250.04080360866362 472.90654890624944 248.4378045238151 Z" fill-opacity="1"/></g></g><g><g><path fill="rgb(0,0,0)" stroke="none" paint-order="stroke fill markers" d=" M 483.3876134799891 270.27276495979766 C 483.2456263021749 272.1674521744419 484.6754605427468 273.8289497051317 486.6200079472501 273.9746733876252 C 488.56455535175337 274.12039707011877 490.2260528824432 272.6905628295469 490.3680400602574 270.7958756149026 C 490.5137637427509 268.85132821039934 489.08392950217905 267.18983067970953 487.1393820976757 267.04410699721603 C 485.1948346931724 266.8983833147225 483.53333716248267 268.3282175552944 483.3876134799891 270.27276495979766 Z M 471.2120440341773 274.1737915772682 C 468.74764094963103 272.9361658515826 464.7350007213982 270.2788705351438 464.98161003023336 266.98809800444593 C 465.2543748718238 263.34830414473464 474.8477402419963 268.47956528351676 478.65965408176504 270.4699956083911 C 480.0570250268466 271.2265367122592 481.67356411898015 268.3894076415957 481.8529163435876 265.9961185283609 C 481.93885595121196 264.84933416160254 481.664564715785 263.8259748316661 480.8468335256156 263.3635727332452 C 476.5088766254731 261.03287971774387 458.8491292473624 251.13549003453392 456.99369462056086 261.17490547297785 C 455.4983704544064 269.0852787661995 463.44132742552273 273.491176467576 469.12796032751123 275.22097594671277 C 469.12796032751123 275.22097594671277 470.9927555047209 275.76184464339946 471.2120440341773 274.1737915772682 Z" fill-opacity="1"/></g></g><g><g><path fill="rgb(0,0,0)" stroke="none" paint-order="stroke fill markers" d=" M 463.4639015664972 314.21006718582987 C 461.22260841778547 312.57021810084126 457.6397093347214 309.3932959802065 458.3740284167772 306.1760338700065 C 459.04159121864615 303.25125013346104 463.2719611203884 306.0630948116808 464.623092521683 306.8843401687062 C 468.6542346321711 309.44556903100056 473.1219341929362 309.6447188106629 474.77603247254206 303.9705264556748 C 475.72758923042994 300.70027574104785 474.4230441145396 297.427942927808 472.45990213327326 294.5694339525921 C 475.773615985385 296.4540560649326 479.62089856013455 298.9220343448266 483.93075136851724 302.05973553679434 C 485.2108842808071 302.96734763834013 487.2322201130327 300.4028396049426 487.7551443078301 298.1117590113153 C 488.01104338187986 296.9905919123062 487.9034655932703 295.88903527763057 487.1526591948005 295.35866771450407 C 472.1656671566793 284.3989656360125 458.47369476750634 277.42742404938156 456.7269054359493 285.08060816000886 C 455.7923175133327 289.17530539117257 458.2486882276716 288.2999523688219 458.2486882276716 288.2999523688219 C 458.2598142743694 288.2512059732128 460.7570064971309 288.7698879591923 465.5442382642131 290.9395450768582 C 467.2143423413757 291.9361655519865 472.0227851525471 295.1363808153234 470.99070443871244 299.2088259530914 C 470.56367245537757 300.8550773571027 468.7001833755343 300.4810339781948 466.748726971415 299.3689108272705 C 459.9109454292396 295.39779718227305 453.5749550493642 292.8233601746679 451.3417428110227 299.237232881428 C 448.69526626510634 306.7876409427128 455.8817159448746 312.3769111097524 461.24702062138596 314.9349388125354 C 461.24702062138596 314.9349388125354 463.0103752809489 315.74769975192515 463.4639015664972 314.21006718582987 Z" fill-opacity="1"/></g></g><g><g><path fill="rgb(0,0,0)" stroke="none" paint-order="stroke fill markers" d=" M 467.0433542772881 338.16430961031574 C 466.34920633099193 339.9329697327397 467.22578205362254 341.9421026309061 469.04098586347874 342.6545176284206 C 470.85618967333494 343.3669326259351 472.86532257150134 342.4903569033045 473.55947051779754 340.7216967808805 C 474.27188551531196 338.9064929710243 473.39530979268136 336.89736007285785 471.58010598282516 336.18494507534336 C 469.76490217296896 335.47253007782894 467.75576927480256 336.34910580045954 467.0433542772881 338.16430961031574 Z M 454.25886343889556 338.3032124650661 C 452.2687434554376 336.3941754168554 449.2176251183929 332.67218980520266 450.423250498802 329.6003064346768 C 451.7567452377394 326.20261725212544 459.41143852953707 333.9336049386056 462.4673100952588 336.959187357548 C 463.5796053649547 338.09399977949795 465.9605846349375 335.8593996551105 466.83740309341687 333.62530265836443 C 467.2575452714382 332.55479784742363 467.2970804837791 331.49605474025117 466.6519742071781 330.81316537008206 C 463.19372438701197 327.30738326314486 449.2358568577235 312.64440491511357 444.50368433689596 321.6908983370492 C 440.743169768185 328.80908140427306 447.0345823019074 335.3604651001438 451.9587067123675 338.6895789147064 C 451.9587067123675 338.6895789147064 453.5812304250449 339.7560763604602 454.25886343889556 338.3032124650661 Z" fill-opacity="1"/></g></g><g><g><path fill="rgb(0,0,0)" stroke="none" paint-order="stroke fill markers" d=" M 435.0540498016591 374.2769835971451 C 433.3956850220088 372.0493556529822 430.9083783261142 367.957497224278 432.55837832611417 365.0996133917893 C 434.05837832611417 362.501537180436 437.27199899409027 366.435382907248 438.3210370997669 367.61839560914024 C 441.4181514167969 371.25403625519533 445.6286631934484 372.7612159321678 448.881772084773 367.8266660498396 C 450.75497716552985 364.9821796769725 450.472926357961 361.4707060059976 449.43956157831065 358.1605463071042 C 452.0505543021239 360.93817425126707 454.999463538397 364.430513627133 458.1929880169407 368.6991669750803 C 459.14872485242813 369.943782217351 461.8361604177264 368.08900727618686 463.01116041772633 366.0538475772934 C 463.5861604177264 365.05791836294134 463.8080515264018 363.97359168896764 463.246929933185 363.2454827976431 C 452.15619679866035 348.35519607982746 441.12741828227223 337.6576008156358 437.2024182822722 344.4559002353437 C 435.1024182822722 348.09320693123834 437.707674170598 347.9807713659401 437.707674170598 347.9807713659401 C 437.732674170598 347.9374700957509 439.9660389502483 349.16916882556166 443.9010697797382 352.6534954995353 C 445.2032167767394 354.098110741806 448.8547539571753 358.5734628195641 446.6681514167969 362.16076951545875 C 445.77485014660766 363.6080127018923 444.10440187941725 362.7013139720815 442.5674472612807 361.0633974596216 C 437.20395546270817 355.2532377607282 431.9082839871632 350.9256098165653 427.8837649343249 356.39628129211025 C 423.1293420709189 362.8311832521965 428.34905165214053 370.29038105676665 432.72199899409026 374.3162140816864 C 432.72199899409026 374.3162140816864 434.1674472612807 375.6126242432002 435.0540498016591 374.2769835971451 Z" fill-opacity="1"/></g></g><g><g><path fill="rgb(0,0,0)" stroke="none" paint-order="stroke fill markers" d=" M 431.41384056797807 398.2220684492571 C 430.22920994444644 399.70754826594634 430.4746395493909 401.88579625665284 431.9992109402035 403.10160137027736 C 433.5237823310162 404.3174064839019 435.70203032172265 404.07197687895746 436.8866609452543 402.5864970622682 C 438.1024660588788 401.0619256714556 437.85703645393437 398.8836776807491 436.33246506312173 397.66787256712456 C 434.8078936723091 396.45206745350004 432.6296456816026 396.6974970584444 431.41384056797807 398.2220684492571 Z M 419.15638645180996 394.58650541307765 C 417.81738046346817 392.17568336174645 415.9988892714705 387.7197222101399 418.0564056176043 385.1396783179954 C 420.33214339438865 382.2859934069871 425.3680115167671 391.9297754583408 427.39631320935604 395.72167369587845 C 428.1247004877265 397.13392437217783 431.05855947866496 395.7004072214994 432.55493500312593 393.82401166357613 C 433.27194827526347 392.9249054587379 433.62179705825844 391.9248525456193 433.20663621890407 391.08215362105216 C 430.9353741515154 386.7127865477518 421.91960425411924 368.58708950854236 414.7311681345383 375.83684027354826 C 409.03960138544716 381.53035131161965 413.1204498687452 389.64510181033273 416.84453572464344 394.2777235883218 C 416.84453572464344 394.2777235883218 418.0806196205892 395.7750868048406 419.15638645180996 394.58650541307765 Z" fill-opacity="1"/></g></g><g><g><path fill="rgb(0,0,0)" stroke="none" paint-order="stroke fill markers" d=" M 390.2013336156221 423.30134463529424 C 389.27325019331903 420.6838723505802 388.1025439998898 416.0406571920218 390.5216151769282 413.79608715737777 C 392.7207707924177 411.75556894406503 394.6320979275359 416.46187626324433 395.28583109827736 417.90154043987457 C 397.17372542331873 422.28855024354226 400.75292696697466 424.96984028937675 405.3159934689904 421.21338929166876 C 407.94440438076606 419.0474123576136 408.70990933353073 415.60880767441824 408.69814075101493 412.14111946749057 C 410.374414184866 415.56494881121745 412.16292655594475 419.7713396036306 413.9563640401796 424.7916565249157 C 414.5027833868495 426.2626853817315 417.6175282416268 425.282448425869 419.3402001404269 423.6840424921074 C 420.1832097930312 422.9018438436708 420.7148538002327 421.9310943138709 420.3932751282679 421.06993976459574 C 414.1842612072229 403.57213572728097 406.79863193379805 390.0990150703756 401.0441747399339 395.4383710618773 C 397.96535687824866 398.29509656051516 400.4880095219064 398.9555688456615 400.4880095219064 398.9555688456615 C 400.5246621154979 398.9215602087729 402.29575519040526 400.75683384505044 405.02894032450416 405.24623235963355 C 405.84742876628246 407.01048196518127 408.0176052129943 412.3633161854927 404.8707700775319 415.1467364969476 C 403.5905732585327 416.26637755756667 402.26159246317644 414.9075876379785 401.27570479365835 412.88941383399333 C 397.863072522288 405.75646626791644 394.0782636013471 400.06017612151715 388.62003391316756 404.10155319759843 C 382.1801160681266 408.84917977823045 384.9692914481919 417.51552276124454 387.96132589388446 422.6514481769597 C 387.96132589388446 422.6514481769597 388.9604333469173 424.31631582854476 390.2013336156221 423.30134463529424 Z" fill-opacity="1"/></g></g><g><g><path fill="rgb(0,0,0)" stroke="none" paint-order="stroke fill markers" d=" M 379.66491100267655 445.1096460446484 C 378.09505733147614 446.17995415496927 377.68753332128495 448.3337703451577 378.78600743450903 449.94493595507384 C 379.88448154773306 451.55610156499006 382.0382977379215 451.96362557518125 383.6081514091219 450.8933174648604 C 385.21931701903804 449.7948433516363 385.62684102922924 447.6410271614479 384.5283669160052 446.0298615515317 C 383.4298928027811 444.4186959416155 381.2760766125927 444.0111719314243 379.66491100267655 445.1096460446484 Z M 369.0236221979058 438.02265284770925 C 368.4547067628754 435.32425791223665 368.03042363865075 430.53025292365993 370.75701159389354 428.67129673205 C 373.7727831201469 426.6151785201178 375.7423670908896 437.31486258004185 376.5628754039037 441.53614983729824 C 376.84263428479056 443.1003540977978 380.0686867503118 442.5952942105525 382.0516598086702 441.24332607119976 C 383.0018343991336 440.5955080044266 383.63091115312733 439.74300437535237 383.4825846134996 438.81537339395834 C 382.60012190084535 433.97065879340914 379.32754035577966 413.99279078826663 370.3215647326023 418.8016267258648 C 363.2046664858171 422.5645722934894 364.7123496224412 431.52165840223813 366.9054955525994 437.0461593687536 C 366.9054955525994 437.0461593687536 367.64530815319387 438.8413410631794 369.0236221979058 438.02265284770925 Z" fill-opacity="1"/></g></g><g><g><path fill="rgb(0,0,0)" stroke="none" paint-order="stroke fill markers" d=" M 332.8911136744184 456.92712068217315 C 332.77577589436135 454.1523779559927 333.02569258624317 449.3703761108321 335.9988898503211 447.93855977174417 C 338.7017964540284 446.6369085543915 339.14100025261246 451.6975014073396 339.34134142733757 453.265896578752 C 339.8522680647227 458.014470466901 342.4821316111619 461.63162649437754 347.9497072404773 459.3870515373498 C 351.0997781391691 458.0920405979306 352.84482037785097 455.0318400186849 353.85569368267187 451.71474261860743 C 354.4483035757583 455.4805510994806 354.91750190871505 460.0272370270932 355.151497607796 465.3531403319619 C 355.240047708775 466.919875433891 358.5053431038517 466.90127481855757 360.6226199434224 465.8816480316313 C 361.6587341415102 465.3826817316461 362.45289214411656 464.6117647018068 362.3994300696325 463.6940818553986 C 361.6238334967609 445.1435171751483 358.53759903854336 430.0920170217114 351.46499342550936 433.4980043737842 C 347.6809241803192 435.320316078078 349.8968248214412 436.6950103526987 349.8968248214412 436.6950103526987 C 349.9418732648364 436.67331616574285 351.0933252429812 438.94909259193815 352.38180918813913 444.04466018770904 C 352.6439127847652 445.97178283679904 353.1398987968 451.7264763886631 349.3124411776981 453.45869120616663 C 347.7590999153081 454.1512451192713 346.88967236758964 452.46109845721264 346.5424520926234 450.241990960796 C 345.3839067018566 442.42004922120645 343.4462572175057 435.8612372498358 337.03930455482623 438.1142258379525 C 329.4861066897962 440.75272958282494 329.5969173960917 449.8561751386225 330.9421835547004 455.6458434333094 C 330.9421835547004 455.6458434333094 331.4061751118628 457.531237777971 332.8911136744184 456.92712068217315 Z" fill-opacity="1"/></g></g><g><g><path fill="rgb(0,0,0)" stroke="none" paint-order="stroke fill markers" d=" M 316.39468506969774 474.6608753643938 C 314.5790967387041 475.2209101957745 313.5548294100725 477.15891856507994 314.12960200017375 479.0222855363629 C 314.704374590275 480.8856525076459 316.6423829595804 481.9099198362775 318.4579712905741 481.34988500489675 C 320.3213382618571 480.7751124147955 321.3456055904887 478.8371040454901 320.7708330003874 476.9737370742071 C 320.1960604102862 475.11037010292415 318.2580520409807 474.0861027742925 316.39468506969774 474.6608753643938 Z M 308.3150867851551 464.7521624530004 C 308.5668125364827 462.0059588651142 309.57443689755434 457.2998784209468 312.72782715664863 456.3271863453908 C 316.215667897768 455.251329958791 314.9439615376975 466.05620214377115 314.4837707067841 470.3317985231249 C 314.290043385919 471.9089699548819 317.5216404071633 472.37724411847034 319.8150151410501 471.6698316998842 C 320.9139238677041 471.3308632493116 321.76633236244646 470.70165759287556 321.8980195865116 469.771518638193 C 322.48276691323485 464.88193066333355 325.2441569522663 444.82701293594465 315.22086228168496 446.7676478698506 C 307.311000178426 448.26567373993026 306.1115537053286 457.26921905042735 306.5788890693899 463.19472305072117 C 306.5788890693899 463.19472305072117 306.75669477845616 465.12821345147916 308.3150867851551 464.7521624530004 Z" fill-opacity="1"/></g></g><g><g><path fill="rgb(0,0,0)" stroke="none" paint-order="stroke fill markers" d=" M 268.2156545215817 472.1665139717288 C 268.92331065168014 469.48104887206097 270.571644034058 464.9851621897102 273.83478576060094 464.49332271132886 C 276.8012782392763 464.04619591280033 275.7293335164079 469.0114184164868 275.4584815025596 470.5691857889126 C 274.5470423783922 475.2573921328075 275.9938930105474 479.4890139552571 281.88015967843734 478.9557553739965 C 285.27199294083806 478.6467778342425 287.84151780453857 476.2368936098814 289.7852124674184 473.3651256774933 C 289.24150283011375 477.13830468600884 288.34969679402235 481.6212927513499 287.0034591632128 486.779552558823 C 286.6262719534332 488.3027826165552 289.751982063444 489.24747108805064 292.07573450507306 488.8972217625366 C 293.21288995523196 488.72582315643405 294.1989975296067 488.22323798777023 294.4184023925357 487.33056699231724 C 299.1451383269866 469.3755407487839 300.6325241593059 454.0830529398688 292.8702021734386 455.2530347293518 C 288.7171127032931 455.8790122472917 290.42936884559583 457.8457808923404 290.42936884559583 457.8457808923404 C 290.47881038690707 457.83832877903154 290.9083097069676 460.3523952725968 290.63760501023853 465.60136840714125 C 290.32003470692933 467.5201307953634 289.0977597505192 473.1653539026403 284.929766053756 473.69244833795767 C 283.2413015358645 473.89637864914596 282.9086796888185 472.025052192627 283.23097885358607 469.80218844322843 C 284.429462185585 461.9862663797147 284.51114079774345 455.1477118099013 277.7247510210917 455.41212398692164 C 269.7294079130434 455.7070622594196 267.1520079280301 464.4387293005552 266.73097299775924 470.36770303868997 C 266.73097299775924 470.36770303868997 266.6186209730039 472.3060985149882 268.2156545215817 472.1665139717288 Z" fill-opacity="1"/></g></g><g><g><path fill="rgb(0,0,0)" stroke="none" paint-order="stroke fill markers" d=" M 247.22500000000002 484.25 C 245.32500000000005 484.25 243.77500000000003 485.8 243.77500000000003 487.75 C 243.77500000000003 489.7 245.32500000000005 491.25 247.22500000000002 491.25 C 249.17500000000004 491.25 250.72500000000002 489.7 250.72500000000002 487.75 C 250.72500000000002 485.8 249.17500000000004 484.25 247.22500000000002 484.25 Z M 242.42500000000004 472.4 C 243.47500000000002 469.85 245.82500000000002 465.65 249.12500000000003 465.65 C 252.77500000000003 465.65 248.37500000000003 475.6 246.67500000000004 479.55 C 246.02500000000003 481 248.97500000000002 482.4 251.37500000000003 482.4 C 252.52500000000003 482.4 253.52500000000003 482.05 253.92500000000004 481.2 C 255.92500000000004 476.7 264.475 458.35 254.32500000000002 457.25 C 246.32500000000002 456.35 242.52500000000003 464.6 241.22500000000002 470.4 C 241.22500000000002 470.4 240.82500000000002 472.3 242.42500000000004 472.4 Z" fill-opacity="1"/></g></g><g><g><path fill="rgb(0,0,0)" stroke="none" paint-order="stroke fill markers" d=" M 201.92165452641936 467.6654375332084 C 203.38942621401623 465.30786541912806 206.28971463227396 461.49757316118774 209.55285635881688 461.9894126395691 C 212.5193488374923 462.4365394380976 210.03150258595022 466.86520978354986 209.3135237735734 468.2739348897995 C 207.0607042538204 472.4852059819307 207.19598294362532 476.9552954302622 212.97792002519193 478.1807355898804 C 216.31013638112213 478.88524546012445 219.47583030952737 477.33980637958507 222.17964052990564 475.168537098225 C 220.54792234951498 478.6138231211529 218.3743528243085 482.6347801613479 215.56750098497244 487.1670624508811 C 214.7580912032819 488.5114417892018 217.4664829679994 490.3354796311367 219.79023540962845 490.68572895665073 C 220.92739085978735 490.8571275627533 222.0178280204854 490.6675311530595 222.49060473591393 489.8791897439298 C 232.2996819469724 474.11508481318623 238.22852731134165 459.9404140005925 230.4662053254744 458.7704322111095 C 226.31311585532885 458.14445469316956 227.36958602645643 460.5285416835115 227.36958602645643 460.5285416835115 C 227.4190275677677 460.5359937968203 227.0884113303297 463.0649645170032 225.28257129198602 468.00094889257764 C 224.41354460382502 469.74086056138844 221.58161317271217 474.77501037734294 217.44342792918425 474.05014977678053 C 215.76986763791035 473.74733638296976 216.00360640233382 471.8611056998332 216.96678731165892 469.8319968964637 C 220.41580886291808 462.716573483978 222.5095580684549 456.20591189975215 215.9467316910674 454.4582534833941 C 208.2196646621362 452.3834197236909 203.18306728521603 459.96746131527 201.03314206730155 465.50892516134667 C 201.03314206730155 465.50892516134667 200.35442943107677 467.328086824704 201.92165452641936 467.6654375332084 Z" fill-opacity="1"/></g></g><g><g><path fill="rgb(0,0,0)" stroke="none" paint-order="stroke fill markers" d=" M 178.3018858581891 473.0249841464132 C 176.48629752719543 472.46494931503247 174.54828915789 473.4892166436641 173.97351656778875 475.3525836149471 C 173.39874397768747 477.21595058623006 174.4230113063191 479.1539589555355 176.23859963731277 479.7139937869162 C 178.10196660859575 480.28876637701745 180.03997497790115 479.26449904838586 180.61474756800243 477.4011320771029 C 181.18952015810368 475.53776510581986 180.16525282947208 473.59975673651445 178.3018858581891 473.0249841464132 Z M 177.20798520718483 460.2866215606751 C 178.9629623480081 458.1594038390519 182.4465301741313 454.8386727146157 185.59992043322558 455.8113647901717 C 189.087761174345 456.8872211767715 181.9504268434975 465.0982478269356 179.16167013473796 468.3716766132923 C 178.11315280808117 469.56566631831515 180.519435340975 471.77299601092795 182.81281007486174 472.4804084295141 C 183.9117188015158 472.8193768800866 184.97045591834578 472.7796815724724 185.6032269389095 472.0853467573185 C 188.84077083533086 468.3747794801027 202.41967577524244 453.3601752351403 193.0448424883651 449.3172801285048 C 185.6655396990458 446.0992232080101 179.6026328481685 452.8626291929843 176.65080818906327 458.0217697398097 C 176.65080818906327 458.0217697398097 175.7085442353681 459.719456001039 177.20798520718483 460.2866215606751 Z" fill-opacity="1"/></g></g><g><g><path fill="rgb(0,0,0)" stroke="none" paint-order="stroke fill markers" d=" M 139.89962651492857 443.8238317608229 C 141.99709580437099 442.003633260701 145.8916359048403 439.21749661548125 148.8648331689183 440.6493129545692 C 151.56773977262554 441.95096417192184 147.8850480495928 445.44957556404677 146.78373800696525 446.5840869963416 C 143.38971099229235 449.9442329193144 142.20139763449706 454.2556029293791 147.36525464643017 457.1308560939385 C 150.34177204947488 458.7862545805187 153.82234924462702 458.24257968815476 157.04602961894747 456.96473586192985 C 154.47128821647573 459.7760001167444 151.2090863930215 462.9776464530926 147.19102144875038 466.48123805366754 C 146.02130870628847 467.52731266865555 148.071729631836 470.0686261141157 150.18900647140669 471.088252901042 C 151.2251206694945 471.58721920102715 152.32299728948317 471.72745802333475 153.00713757149893 471.11349379430885 C 167.0269765025361 458.9410200790866 176.87047747002177 447.14364796903146 169.79787185698777 443.73766061695864 C 166.01380261179762 441.91534891266485 166.3206148008024 444.50491765681477 166.3206148008024 444.50491765681477 C 166.3656632441975 444.52661184377064 165.30430815284285 446.8457766438777 162.12378958508987 451.0301883875017 C 160.78052334698094 452.43665054965066 156.59056497654618 456.41242077113276 152.84988410526776 454.50001218004877 C 151.33993121678952 453.71736138015376 152.11926187771778 451.9838263441833 153.6377416809571 450.3287677086195 C 159.03084075086534 444.5460795428825 162.95062174460153 438.9418117975705 157.19449469059836 435.3373699076002 C 150.42228755597992 431.0771222005034 143.37401656683576 436.8396629650958 139.6862313516808 441.501233538077 C 139.6862313516808 441.501233538077 138.50146470019646 443.03952089144457 139.89962651492857 443.8238317608229 Z" fill-opacity="1"/></g></g><g><g><path fill="rgb(0,0,0)" stroke="none" paint-order="stroke fill markers" d=" M 115.74946379986963 441.9832197223953 C 114.17961012866925 440.9129116120744 112.02579393848085 441.32043562226556 110.92731982525677 442.9316012321818 C 109.82884571203272 444.542766842098 110.2363697222239 446.69658303228636 111.80622339342429 447.7668911426073 C 113.41738900334047 448.8653652558313 115.57120519352888 448.4578412456401 116.66967930675294 446.84667563572395 C 117.76815341997701 445.23551002580774 117.36062940978583 443.0816938356194 115.74946379986963 441.9832197223953 Z M 118.45886037120678 429.4883539680454 C 120.76287723230081 427.9729311545064 125.07048259581062 425.8265304388287 127.7970705510534 427.6854866304387 C 130.81284207730678 429.74160484237086 121.57235689258337 435.4840723913351 117.94263674689486 437.7900714511751 C 116.58876745939722 438.62195963619195 118.23752376234033 441.440488091522 120.22049682069871 442.79245623087473 C 121.17067141116212 443.4402742976479 122.19407220580038 443.71441078470093 123.00338976488085 443.2374358497578 C 127.19080757479914 440.64600148146303 144.59207216066835 430.3009064692085 136.825400665231 423.67434522811516 C 130.7224785229603 418.4241698667218 122.93538070153464 423.10002353418696 118.59401395815483 427.15989234973705 C 118.59401395815483 427.15989234973705 117.19321033810755 428.504417997712 118.45886037120678 429.4883539680454 Z" fill-opacity="1"/></g></g><g><g><path fill="rgb(0,0,0)" stroke="none" paint-order="stroke fill markers" d=" M 87.66049985511714 402.76012795461247 C 90.20129739544579 401.63903569299447 94.74404219929225 400.1246151281823 97.16311337633067 402.36918516282634 C 99.36226899182016 404.4097033761391 94.81195511811461 406.6673888393431 93.4251700755433 407.42688027820236 C 89.19150976064645 409.63733732100314 86.78519121191826 413.4069037472711 90.87213679749442 417.67649105526 C 93.22847861416165 420.13568873804707 96.71467451800999 420.64208593392306 100.17178689812592 420.3712095945187 C 96.88279934624926 422.29865891514953 92.82182617249808 424.39651422047285 87.94957082657793 426.5601056431201 C 86.5234892337122 427.2149272146108 87.7337504227309 430.24770941159676 89.456422321531 431.8461153453584 C 90.29943197413529 432.62831399379496 91.30719689777644 433.085927213314 92.14191188002215 432.70089358047846 C 109.12678831696556 425.2016287883962 122.0103066291141 416.8298036647727 116.25584943524996 411.490447673271 C 113.17703157356469 408.63372217463314 112.70692417103042 411.19867812553804 112.70692417103042 411.19867812553804 C 112.74357676462192 411.23268676242657 111.04578887689756 413.1359776724812 106.77319481195602 416.19701343774534 C 105.07504412398191 417.14505575796795 99.8993550027678 419.70918175341865 96.88855441485963 416.7791510675978 C 95.67637486963747 415.58620481979574 96.93205047781072 414.1593976264305 98.87090558070759 413.0254483815475 C 105.72888164967812 409.089312682994 111.12640468864464 404.88940255969067 106.6884341071215 399.74844767586455 C 101.4728271900682 393.6813277259389 93.0391523969133 397.11034062811694 88.1411830844632 400.47781692562774 C 88.1411830844632 400.47781692562774 86.5556341339665 401.598546386996 87.66049985511714 402.76012795461247 Z" fill-opacity="1"/></g></g><g><g><path fill="rgb(0,0,0)" stroke="none" paint-order="stroke fill markers" d=" M 65.12579103170606 393.8829037215596 C 63.94116040817447 392.3974239048703 61.76291241746799 392.15199429992595 60.238341026655334 393.3677994135505 C 58.71376963584267 394.583604527175 58.46834003089826 396.7618525178815 59.65297065442986 398.24733233457073 C 60.86877576805439 399.77190372538337 63.04702375876087 400.0173333303278 64.57159514957353 398.8015282167033 C 66.09616654038618 397.58572310307875 66.3415961453306 395.40747511237225 65.12579103170606 393.8829037215596 Z M 71.3977430500303 382.74175845368705 C 74.04607762227545 381.9727825155387 78.79497088300919 381.1914293315319 80.85248722914301 383.7714732236764 C 83.12822500592739 386.6251581346847 72.60564662719207 389.3888231403198 68.4574796082835 390.5224943374661 C 66.91855558749668 390.91836408655706 67.66328642752471 394.09765268243996 69.15966195198567 395.97404824036323 C 69.8766752241232 396.8731544452015 70.77380604484576 397.43676449701894 71.68775872568708 397.21953075842623 C 76.45298000051068 395.97748961499803 96.1304255096912 391.2211109259919 90.66201865153988 382.5996825968968 C 86.37774857089123 375.7838899154797 77.5583775934668 377.95672114743576 72.21321825273587 380.55658107100794 C 72.21321825273587 380.55658107100794 70.47834251530313 381.42847910155234 71.3977430500303 382.74175845368705 Z" fill-opacity="1"/></g></g><g><g><path fill="rgb(0,0,0)" stroke="none" paint-order="stroke fill markers" d=" M 49.8459501983408 348.12301640285483 C 52.60431497799112 347.80064434701774 57.391621673885766 347.69250277572195 59.041621673885764 350.5503866082106 C 60.541621673885764 353.1484628195639 55.52800100590968 353.9646170927519 53.978962900233014 354.2816043908597 C 49.28184858320304 355.1459637448046 45.87133680655151 358.0387840678321 48.51822791522696 363.32333395016036 C 50.04502283447007 366.36782032302744 53.227073642038945 367.8792939940023 56.61043842168927 368.63945369289576 C 52.89944569787606 369.51182574873286 48.40053646160298 370.31948637286695 43.10701198305923 370.95083302491963 C 41.551275147571786 371.156217782649 41.81383958227357 374.4109927238131 42.98883958227357 376.4461524227065 C 43.56383958227357 377.4420816370586 44.39194847359813 378.1764083110323 45.3030700668149 378.0545172023568 C 63.74380320133958 375.8948039201725 78.52258171772772 371.6923991843641 74.59758171772772 364.8940997646563 C 72.49758171772773 361.2567930687616 71.29232582940196 363.5692286340598 71.29232582940196 363.5692286340598 C 71.31732582940195 363.6125299042491 69.13396104975163 364.93083117443825 64.14893022026178 366.5965045004646 C 62.246783223260564 367.00188925819396 56.545246042824594 367.92653718043584 54.53184858320304 364.2392304845412 C 53.72514985339227 362.7419872981077 55.3455981205827 361.74868602791844 57.53255273871924 361.2366025403783 C 65.24604453729175 359.49676223927173 71.64171601283672 357.0743901834346 68.91623506567505 350.8537187078897 C 65.72065792908104 343.5188167478034 56.650948347859426 344.3096189432333 50.97800100590968 346.08378591831354 C 50.97800100590968 346.08378591831354 49.13255273871925 346.6873757567997 49.8459501983408 348.12301640285483 Z" fill-opacity="1"/></g></g><g><g><path fill="rgb(0,0,0)" stroke="none" paint-order="stroke fill markers" d=" M 30.92900303747837 332.9979603053403 C 30.23485509118222 331.22930018291635 28.22572219301579 330.35272446028574 26.41051838315959 331.06513945780017 C 24.59531457330339 331.77755445531466 23.718738850672786 333.7866873534811 24.41288679696894 335.5553474759051 C 25.125301794483406 337.3705512857613 27.13443469264984 338.2471270083919 28.949638502506037 337.5347120108774 C 30.764842312362234 336.82229701336297 31.64141803499284 334.8131641151965 30.92900303747837 332.9979603053403 Z M 40.20622004195349 324.2004751731064 C 42.96355617658093 324.2462729970485 47.731777328147615 324.89939400402346 48.93740270855672 327.97127737454935 C 50.270897447494065 331.3689665571007 39.40120314127209 330.9082652555118 35.10317209270461 330.76887692906394 C 33.51593349133236 330.6935534777765 33.290466265111334 333.95110847038984 34.16728472359068 336.1852054671359 C 34.587426901612034 337.2557102780768 35.27857373800391 338.05871466819275 36.21595283409803 338.120524296939 C 41.13556675172974 338.3382371845786 61.340765797683574 339.5931999383632 58.65651552387329 329.7429562628215 C 56.57157370272191 321.96715935173813 47.50356938381493 321.4439025579129 41.62955831000223 322.3527446260005 C 41.62955831000223 322.3527446260005 39.71476177783168 322.674543072839 40.20622004195349 324.2004751731064 Z" fill-opacity="1"/></g></g><g><g><path fill="rgb(0,0,0)" stroke="none" paint-order="stroke fill markers" d=" M 29.815966228022077 284.7672442379388 C 32.546805431437676 285.27223655975024 37.153300810700856 286.5799828351519 37.887619892756696 289.7972449453519 C 38.55518269462564 292.7220286818974 33.52373743064061 292.0241328762626 31.950085095389717 291.87045032110615 C 27.206875996241408 291.3119098644187 23.095209929806437 293.07094430357193 24.066858670885054 298.9009013123294 C 24.62844426390016 302.26016040053884 27.223610796737116 304.6424094779535 30.23260116759811 306.3660616899922 C 26.429341260782504 306.1058423955327 21.892243790768376 305.55154414766304 16.64780305976919 304.59454810846717 C 15.10064502673174 304.3322467153947 14.392182704848317 307.51981336386996 14.915106899645657 309.8108939574972 C 15.171005973695422 310.9320610565063 15.74587772361319 311.87785303741254 16.65244877585245 312.0299350128133 C 34.91049854313146 315.40167324339455 50.27137793697681 315.7420909981273 48.52458860541974 308.0889068875 C 47.59000068280322 303.99420965633635 45.756688583542044 305.8486547880948 45.756688583542044 305.8486547880948 C 45.76781463023986 305.8974011837039 43.29287450087403 306.51357596090156 38.0383487724835 306.63588446298564 C 36.10121957457334 306.46259144349574 30.38044093418105 305.6656022668871 29.54334580278271 301.5486529423278 C 29.213806610666065 299.8801494449209 31.055043597113716 299.4086132747948 33.29577721537625 299.5638964097069 C 41.17940714714635 300.17494395196405 48.004943581725605 299.7453483511589 47.23412321165685 292.99769424346437 C 46.34251690766779 285.0467485010582 37.442656036435935 283.1290737442978 31.49879693163815 283.15228887540803 C 31.49879693163815 283.15228887540803 29.55742552491016 283.1851074850523 29.815966228022077 284.7672442379388 Z" fill-opacity="1"/></g></g><g><g><path fill="rgb(0,0,0)" stroke="none" paint-order="stroke fill markers" d=" M 16.197634500606235 264.738283885442 C 16.05564732279203 262.84359667079775 14.39414979210224 261.41376243022586 12.449602387598937 261.5594861127194 C 10.505054983095633 261.7052097952129 9.075220742523769 263.3667073259027 9.21720792033797 265.261394540547 C 9.362931602831502 267.20594194505026 11.02442913352128 268.63577618562215 12.968976538024584 268.4900525031286 C 14.913523942527885 268.3443288206351 16.34335818309976 266.6828312899453 16.197634500606235 264.738283885442 Z M 27.65579504798838 259.0661540499732 C 30.277131329066137 259.92265629836805 34.64100299715519 261.9522188286808 34.88761230599039 265.2429913593788 C 35.16037714758083 268.88278521909007 24.909386953847825 265.2386529426778 20.843390795885245 263.8385903571361 C 19.348870729141357 263.2987665246687 18.173239189167656 266.3451398573742 18.352591413775073 268.738428970609 C 18.43853102139946 269.88521333736736 18.862282443999298 270.8562616017933 19.73979770903787 271.1916225411173 C 24.376674983526026 272.8497447143408 43.31430696196461 280.00453996292896 43.65272068896171 269.80071831859493 C 43.952363357733375 261.7558308569177 35.441457675360226 258.5829796997172 29.560526530047035 257.72004930618294 C 29.560526530047035 257.72004930618294 27.635947277968224 257.46315496512466 27.65579504798838 259.0661540499732 Z" fill-opacity="1"/></g></g><g><g><path fill="rgb(0,0,0)" stroke="none" paint-order="stroke fill markers" d=" M 29.35029992006055 218.32224984894341 C 31.810966499927492 219.6097357644881 35.827343232839674 222.21717089106778 35.58073392400448 225.50794342176567 C 35.3565436432452 228.49955481330923 30.75433977509016 226.3496200338476 29.2958991261116 225.73892299487736 C 24.92805018853457 223.80711149824856 20.480569406068234 224.27606212421324 19.690640524894917 230.13340899482696 C 19.23711744726484 233.50895588652568 21.014807770226568 236.55030708552394 23.382061733110483 239.08429774754512 C 19.824470976344237 237.71460872905536 15.652326293524126 235.84760344100292 10.92296088386783 233.38729800834895 C 9.52185343410698 232.68061709433994 7.905314341973373 235.51774616500342 7.729698622045277 237.86117508837918 C 7.643759014420887 239.00795945513755 7.914313745168556 240.08117897493304 8.735781440017313 240.49372088349492 C 25.188839994096213 249.09731688842513 39.7669387211467 253.95030952229226 40.35356995580014 246.12225971442 C 40.66743634886312 241.93400376625905 38.36896586404353 243.16568287642255 38.36896586404353 243.16568287642255 C 38.36522935936421 243.2155430662816 35.81862317187288 243.0748415174953 30.761490214655545 241.64291754848497 C 28.961501246022216 240.90634459704137 23.729797433096014 238.45853430745328 24.143384205877112 234.27775136865094 C 24.32028555483309 232.58624141812226 26.218709274156655 232.67836840607742 28.31412287726502 233.487220575456 C 35.66739582605483 236.39486170540928 42.31631835408273 237.99621401401694 43.56864933367698 231.32113595323378 C 45.06023699515212 223.46062284987119 37.12101652871511 219.00486495863564 31.43438362672662 217.27506547949883 C 31.43438362672662 217.27506547949883 29.56958844951695 216.73419678281218 29.35029992006055 218.32224984894341 Z" fill-opacity="1"/></g></g><g><g><path fill="rgb(0,0,0)" stroke="none" paint-order="stroke fill markers" d=" M 22.240632163136592 195.16904626442883 C 22.663421937653588 193.31668323128338 21.49719112140405 191.46063751976925 19.596081692649495 191.02672169855444 C 17.694972263894932 190.59280587733963 15.838926552380826 191.75903669358917 15.416136777863827 193.61139972673465 C 14.982220956649016 195.5125091554892 16.148451772898547 197.3685548670033 18.049561201653113 197.8024706882181 C 19.950670630407664 198.23638650943292 21.806716341921778 197.07015569318338 22.240632163136592 195.16904626442883 Z M 34.86162840548151 193.1262653533384 C 37.11404760089103 194.7173680427179 40.68582063725735 197.94303655896172 39.95150155520152 201.16029866916173 C 39.139300146260965 204.7187855486254 30.417859529459605 198.21501944216004 26.945179864067136 195.67868430232352 C 25.676172998475096 194.72232580516868 23.654837166249415 197.2868338385662 23.12078692475426 199.6266608278026 C 22.8648878507045 200.74782792681168 22.983591686011824 201.8006381658782 23.723272037783843 202.37975212461382 C 27.66540577468942 205.33095215178088 43.6527789778994 217.74984493903384 46.983787160956 208.09909965774025 C 49.64138975357015 200.49994520084635 42.4438140271041 194.95942142941584 37.07850935059273 192.40139372663285 C 37.07850935059273 192.40139372663285 35.3151546910298 191.5886327872431 34.86162840548151 193.1262653533384 Z" fill-opacity="1"/></g></g><g><g><path fill="rgb(0,0,0)" stroke="none" paint-order="stroke fill markers" d=" M 48.490327769461565 154.69196257638617 C 50.46218070170126 156.64754331202911 53.5315660899642 160.32298523624965 52.3259407095551 163.39486860677553 C 51.22991763645591 166.18748985270813 47.46588117425545 162.7765472394082 46.25224106347234 161.7630988285365 C 42.64785483355966 158.629666221057 38.25973752003205 157.76686471276022 35.778419664244836 163.1311504712328 C 34.35008543167025 166.22305301174978 35.152343958296115 169.65326893155077 36.66752061007781 172.77244185299895 C 33.67170655432949 170.414985990553 30.235228022927334 167.401165275379 26.441162805740163 163.6561593838308 C 25.310600484825905 162.56789064931303 22.929621214843152 164.80249077370047 22.07106980758212 166.99004408301434 C 21.650927629560762 168.06054889395517 21.59312536600153 169.16583568855984 22.25649869382086 169.80218137129674 C 35.44263957911153 182.87316788927868 47.94262959253619 191.80752570975375 50.810556633812396 184.50016678289674 C 52.34498893615125 180.59049703859108 49.78558925502105 181.0899700330869 49.78558925502105 181.0899700330869 C 49.767322203802735 181.1365137205191 47.37532709354169 180.25143779581703 42.96493536360876 177.39251408425366 C 41.46202354323682 176.15810893998932 37.184254400509225 172.27697622369016 38.811774077712506 168.40384058182113 C 39.47939750656759 166.8396222603443 41.26632468020989 167.48722651920824 43.030231573956776 168.87777765821474 C 49.19977696895949 173.82365570149489 55.081299645504835 177.3136687394767 58.24550687146115 171.3042767044031 C 61.98775438895378 164.23263732461143 55.71460890644972 157.6347099413085 50.79048449598965 154.30559612674594 C 50.79048449598965 154.30559612674594 49.16796078331222 153.2390986809921 48.490327769461565 154.69196257638617 Z" fill-opacity="1"/></g></g><g><g><path fill="rgb(0,0,0)" stroke="none" paint-order="stroke fill markers" d=" M 48.52104916349526 130.47177950449816 C 49.471049163495266 128.82633123730773 48.90370978762938 126.70899186144183 47.21496025024973 125.73399186144184 C 45.52621071287007 124.75899186144184 43.40887133700419 125.32633123730773 42.45887133700419 126.97177950449816 C 41.48387133700419 128.6605290418778 42.05121071287007 130.7778684177437 43.73996025024972 131.75286841774368 C 45.42870978762938 132.72786841774368 47.54604916349527 132.1605290418778 48.52104916349526 130.47177950449816 Z M 61.18345019834086 132.23985756633286 C 62.866814977991176 134.42418424030652 65.32912167388582 138.55934393919995 63.67912167388582 141.4172277716886 C 61.85412167388582 144.5782204955018 55.43716890623065 135.79270871885026 52.86636856128213 132.3454655324167 C 51.93563172579469 131.0575490199568 49.24819616049648 132.91232396112093 48.048196160496474 134.99078493020357 C 47.47319616049647 135.98671414455566 47.276305051821026 137.02773954834012 47.812426645037796 137.79914970985388 C 50.70954096206777 141.78120051742277 62.32610712151222 158.36071771977973 68.35373506567511 150.12055987136767 C 73.1331579290811 143.64235664109216 67.88844834785948 136.2264601067113 63.51550100590974 132.2006270817915 C 63.51550100590974 132.2006270817915 62.070052738719305 130.90421692027775 61.18345019834086 132.23985756633286 Z" fill-opacity="1"/></g></g><g><g><path fill="rgb(0,0,0)" stroke="none" paint-order="stroke fill markers" d=" M 85.53537430717702 99.53021268135045 C 86.84320580542588 101.98012630680505 88.69287148751653 106.3969958842882 86.6353551413827 108.97703977643269 C 84.7648857358065 111.32253422383678 82.17346783742909 106.95366099656535 81.3124655146564 105.62751055254324 C 78.79180752652424 101.57087607223008 74.85295716217792 99.45298613002609 70.90072631234759 103.8475704459369 C 68.62449468953429 106.38109952595646 68.38003722908002 109.8953904288312 68.90850647500548 113.32259340737085 C 66.74066034604178 110.18684099987163 64.34519416431027 106.29399605405365 61.82354848412027 101.59704991176298 C 61.06398671565687 100.223890809587 58.13012772471836 101.65740796026546 56.66492669035034 103.49471194406533 C 55.9479134182128 104.39381814890358 55.56689014512494 105.43296263614556 56.0132254745722 106.2365699865893 C 64.76080220699043 122.61353250442072 74.07200453879382 134.83539861137095 78.96639948338488 128.69802147399693 C 81.58505665119156 125.4143292476312 78.99214166715967 125.13721575899723 78.99214166715967 125.13721575899723 C 78.96096717706673 125.17630733312063 76.93612240668031 123.62549991250427 73.56435456392163 119.59360437634035 C 72.49206020247101 117.97104935342088 69.54832429095406 113.00144988432426 72.24516460700754 109.7801066381444 C 73.34418884429078 108.48216760804169 74.86084315107298 109.62770665744988 76.13651246717107 111.47640019505037 C 80.57413912543667 118.02105218288368 85.16566285005126 123.08962297614497 89.96059262444874 118.27987782087982 C 95.62098488344691 112.62545835693183 91.57131089024178 104.47161628409538 87.84722503434355 99.83899450610627 C 87.84722503434355 99.83899450610627 86.6111411383978 98.34163128958747 85.53537430717702 99.53021268135045 Z" fill-opacity="1"/></g></g><g><g><path fill="rgb(0,0,0)" stroke="none" paint-order="stroke fill markers" d=" M 92.70375512148996 76.39511967654884 C 94.09655367796663 75.1027914747841 94.17851633575793 72.91229332990294 92.85217949710464 71.48284217983478 C 91.52584265845134 70.05339102976662 89.33534451357019 69.9714283719753 87.94254595709351 71.26375657374005 C 86.51309480702535 72.59009341239334 86.43113214923405 74.7805915572745 87.75746898788735 76.21004270734267 C 89.08380582654064 77.63949385741083 91.2743039714218 77.72145651520214 92.70375512148996 76.39511967654884 Z M 104.28245104885852 81.81695521643186 C 105.24718706475304 84.4004188642574 106.3812406645908 89.07764265970432 103.96216948755237 91.32221269434837 C 101.28653015537351 93.80484318721221 97.7442396506041 83.5182170163134 96.30374551851968 79.46636846837502 C 95.79397876544124 77.96133097467067 92.67923391066395 78.94156793053313 90.91990941827237 80.57398250118334 C 90.07689976566807 81.35618114961989 89.58190835205806 82.29292204253125 89.86683443043141 83.18808522869497 C 91.4615080067409 87.84716412747102 97.67508424069226 107.1141428834897 105.863750751313 101.01674665412769 C 112.34032118994544 96.23511143660717 109.5144932162887 87.60277709048161 106.52245877059615 82.46685167476642 C 106.52245877059615 82.46685167476642 105.52335131756332 80.80198402318138 104.28245104885852 81.81695521643186 Z" fill-opacity="1"/></g></g><g><g><path fill="rgb(0,0,0)" stroke="none" paint-order="stroke fill markers" d=" M 137.193824578822 57.738363715362034 C 137.72142807513663 60.46492465373781 138.18702313807705 65.23076363941132 135.4604351828343 67.08971983102127 C 132.98171885988629 68.77968000521213 131.79317837785288 63.841069722696645 131.36131767791545 62.32005153219084 C 130.14835945553475 57.700664954867065 127.00876018060201 54.515870394327585 121.93678939181537 57.55027516589236 C 119.01491354752827 59.30031560844547 117.74546121813913 62.58642132546196 117.24026624655878 66.01713233641726 C 116.09301068637414 62.381708746293896 114.95140453689037 57.95573592673651 113.9262376784422 52.724193810654526 C 113.60516685883955 51.18815555305816 110.37911439331829 51.69321544030345 108.4374532736757 53.01701757675296 C 107.48727868321231 53.66483564352613 106.81688999050279 54.54550527550353 107.00652846884626 55.44497025399439 C 110.53828046760846 73.67274378284972 115.83335392907144 88.09615173789663 122.319328307452 83.6740892820972 C 125.78953115957918 81.30814503823 123.39349274779681 80.27906781602387 123.39349274779681 80.27906781602387 C 123.35218080908102 80.30723381892706 121.87440272230299 78.22849094732445 119.84085513630713 73.38187519863027 C 119.29445629347902 71.5153414313075 117.94631746728325 65.89884593097071 121.47285232521679 63.61552556453509 C 122.90562424445717 62.69919340454274 124.01724429349385 64.24088107283994 124.69132721502524 66.38345247536068 C 127.002732533763 73.94535735789596 129.89628027394485 80.14212114839891 135.89588204412553 76.95938983720646 C 142.97146835219496 73.22461027248507 141.50509715428666 64.23935816083316 139.31195122412845 58.71485719431768 C 139.31195122412845 58.71485719431768 138.57213862353396 56.919675499891845 137.193824578822 57.738363715362034 Z" fill-opacity="1"/></g></g><g><g><path fill="rgb(0,0,0)" stroke="none" paint-order="stroke fill markers" d=" M 150.86292272014117 37.74401531780711 C 152.57476356915578 36.91963621348375 153.2987455187723 34.85061467260278 152.45267222749308 33.093725380193064 C 151.60659893621383 31.336836087783347 149.53757739533287 30.612854138166817 147.82573654631827 31.43723324249018 C 146.06884725390856 32.28330653376942 145.34486530429203 34.35232807465037 146.19093859557125 36.1092173670601 C 147.0370118868505 37.86610665946981 149.10603342773146 38.59008860908635 150.86292272014117 37.74401531780711 Z M 160.32909559461586 46.33785445468649 C 160.4894818180681 49.0909029939111 160.19451668279115 53.89459902602752 157.22131941871316 55.326415365115466 C 153.93278305086935 56.91009101289455 153.57990286542028 46.036362325148225 153.39770917134004 41.73993294043382 C 153.35420751375614 40.1515036515489 150.08891211867945 40.170104266882305 147.92658683571364 41.21142524076445 C 146.89047263762583 41.71039154074964 146.14136307841457 42.459614383633046 146.14977670950353 43.39899141699712 C 146.30031579972768 48.32111880079313 146.5587985919692 68.56360349625764 156.18090471420808 65.15074929890709 C 163.77915102263324 62.490551367078794 163.62329187294256 53.408799998237114 162.27802571433386 47.619131703550266 C 162.27802571433386 47.619131703550266 161.81403415717148 45.73373735888864 160.32909559461586 46.33785445468649 Z" fill-opacity="1"/></g></g><g><g><path fill="rgb(0,0,0)" stroke="none" paint-order="stroke fill markers" d=" M 198.8755985783857 33.02980485955763 C 198.57609418676876 35.79074620616428 197.61624846598642 40.482088891611156 194.46285820689215 41.45478096716713 C 191.59613978953374 42.339046490399845 191.916083761497 37.26951634897605 191.95173740277372 35.68877955309138 C 192.15425560718248 30.917093647996303 190.0928745951456 26.94837744206601 184.35183072996352 28.35298248906519 C 181.04393215540847 29.16403552090504 178.86228136745046 31.929971138268943 177.36831096860084 35.059356452889226 C 177.3435846683658 31.247285019917815 177.55727526736743 26.68145143470051 178.1196778049049 21.38015882008552 C 178.26562648548077 19.817725147049075 175.0340294642364 19.349450983460642 172.78843337063896 20.042125643326273 C 171.6895246439849 20.38109409389881 170.78933750895328 21.02503750905541 170.7054289251774 21.940438705017442 C 168.70754452635515 40.39940557559129 169.51599860337961 55.742772285845675 177.01724512880082 53.42894416672008 C 181.0306509131026 52.19097243419428 179.044387601298 50.501369505640035 179.044387601298 50.501369505640035 C 178.99660896100872 50.516107264360585 178.1972046259716 48.09413436832647 177.6825669238309 42.86344148539639 C 177.7106135346424 40.91877869004549 178.07785984468512 35.154437431257975 182.120741146428 34.01202297931079 C 183.759952674985 33.55871782310157 184.36776614665501 35.35956839537469 184.38036744787746 37.60564079118198 C 184.36017292108235 45.51289013473297 185.29864026199118 52.287237265641416 191.96982308185582 51.01431944270742 C 199.83190654482544 49.53103133134826 201.07913165821213 40.512748262130614 200.61179629415088 34.58724426183682 C 200.61179629415088 34.58724426183682 200.43399058508462 32.6537538610788 198.8755985783857 33.02980485955763 Z" fill-opacity="1"/></g></g><g><g><path fill="rgb(0,0,0)" stroke="none" paint-order="stroke fill markers" d=" M 217.8308546910059 17.95278666812476 C 219.70963326083364 17.669606362390027 221.0113055289095 15.905903069168009 220.72067310986597 13.977682958029007 C 220.43004069082244 12.049462846890002 218.66633739760042 10.747790578814133 216.78755882777267 11.030970884548864 C 214.85933871663366 11.321603303592404 213.5576664485578 13.085306596814412 213.84829886760133 15.013526707953417 C 214.13893128664486 16.941746819092423 215.90263457986688 18.2434190871683 217.8308546910059 17.95278666812476 Z M 224.34339351107417 28.95502908124689 C 223.68517892228704 31.633042067605956 221.9874039985979 36.13638086326551 218.724262272055 36.62822034164688 C 215.11502975633326 37.17222461318992 217.9829148432709 26.677571921074723 219.07521029645773 22.518318304985968 C 219.5018390475486 20.98763613394502 216.37612893753783 20.042947662449553 214.00293495459752 20.40064910127237 C 212.86577950443862 20.57204770737497 211.92911347137516 21.06718076272994 211.66026706713487 21.96730387149177 C 210.35329561247738 26.715127121857194 204.63371763258533 46.134484158894594 214.8342970115642 45.70941906605407 C 222.87908166092376 45.407028680247286 225.40704010462582 36.682813752420515 225.82807503489667 30.753840014285743 C 225.82807503489667 30.753840014285743 225.940427059652 28.815444537987528 224.34339351107417 28.95502908124689 Z" fill-opacity="1"/></g></g></g></g></svg>