<svg version="1.1" xmlns="http://www.w3.org/2000/svg" xmlns:xlink="http://www.w3.org/1999/xlink" width="400" height="400" viewBox="0 0 400 400"><defs/><g><path fill="rgb(0,255,0)" stroke="none" paint-order="stroke fill markers" d=" M 195 200 C 195 197.238576251 197.238576251 195 200 195 C 202.761423749 195 205 197.238576251 205 200 C 205 202.761423749 202.761423749 205 200 205 C 197.238576251 205 195 202.761423749 195 200" fill-opacity="1"/><g><path fill="rgb(0,0,0)" stroke="none" paint-order="stroke fill markers" d=" M 95.12 200.88 C 98.10999999999999 198.35 101.32999999999998 196.05 103.63 193.98 C 113.28999999999999 185.01 127.32 175.57999999999998 127.32 164.54 C 127.32 160.63 125.47999999999999 156.72 121.33999999999999 152.35 C 116.74 147.51999999999998 112.37 145.45 108.46 145.45 C 97.19 145.45 87.99 160.86 78.1 170.06 C 60.849999999999994 185.93 50.03999999999999 182.48 50.03999999999999 203.87 C 50.03999999999999 225.26 60.38999999999999 221.57999999999998 78.55999999999999 236.07 C 87.75999999999999 243.66 97.41999999999999 261.6 109.38 261.6 C 113.06 261.6 117.19999999999999 259.76 121.33999999999999 255.39 C 125.47999999999999 251.02 127.32 246.88 127.32 242.97 C 127.32 231.93 113.28999999999999 222.5 103.63 213.53 C 101.32999999999998 211.45999999999998 98.10999999999999 209.16 95.12 206.63 C 94.19999999999999 205.70999999999998 93.74 204.79 93.74 203.64 C 93.74 202.49 94.19999999999999 201.57 95.12 200.88 Z M 243.01 131.65 C 240.25 129.81 237.49 129.12 234.96 129.12 C 218.86 129.12 207.36 161.55 188.73 191.22 C 173.09 216.06 152.16 241.13 152.16 257.92 C 152.16 263.44 154.46 268.04 159.98 271.49 C 163.2 273.33 165.96 274.25 168.72 274.25 C 186.2 274.25 198.62 241.13 220.47 203.87 C 236.34 176.73 251.06 157.87 251.06 144.98999999999998 C 251.06 139.7 248.53 135.32999999999998 243.01 131.65 Z M 321.67 170.98 C 312.24 163.39 302.58 145.45 290.62 145.45 C 286.94 145.45 282.8 147.29 278.66 151.66 C 274.52 156.03 272.68 160.17000000000002 272.68 164.07999999999998 C 272.68 175.12 286.71 184.55 296.37 193.51999999999998 C 298.67 195.59 302.12 197.89 304.88 200.42000000000002 C 305.8 201.11 306.26 202.26 306.26 203.18 C 306.26 204.32999999999998 305.8 205.48 304.88 206.17000000000002 C 301.89 208.7 298.67 211 296.37 213.07 C 286.71 222.04 272.68 231.47 272.68 242.51 C 272.68 246.42000000000002 274.52 250.32999999999998 278.66 254.7 C 283.26 259.53 287.63 261.6 291.54 261.6 C 302.81 261.6 312.01 246.19 321.9 236.99 C 339.15 221.12 349.96000000000004 224.57 349.96000000000004 203.18 C 349.96000000000004 181.79 339.61 185.47 321.67 170.98 Z" fill-opacity="1"/></g></g></svg>