<svg version="1.1" xmlns="http://www.w3.org/2000/svg" xmlns:xlink="http://www.w3.org/1999/xlink" width="400" height="400" viewBox="0 0 400 400"><defs/><g><path fill="rgb(0,255,0)" stroke="none" paint-order="stroke fill markers" d=" M 195 200 C 195 197.238576251 197.238576251 195 200 195 C 202.761423749 195 205 197.238576251 205 200 C 205 202.761423749 202.761423749 205 200 205 C 197.238576251 205 195 202.761423749 195 200" fill-opacity="1"/><g><path fill="rgb(0,0,0)" stroke="none" paint-order="stroke fill markers" d=" M 133.6279296875 258.1591796875 L 133.6279296875 258.1591796875 Q 129.248046875 258.1591796875 125.3173828125 252.9931640625 L 125.3173828125 252.9931640625 Q 122.734375 249.8486328125 111.78466796875 243.1103515625 Q 100.8349609375 236.3720703125 88.9306640625 230.3076171875 Q 77.0263671875 224.2431640625 73.2080078125 224.2431640625 L 73.2080078125 224.2431640625 L 71.6357421875 224.2431640625 Q 67.705078125 224.2431640625 65.06591796875 221.37939453125 Q 62.4267578125 218.515625 61.0791015625 213.96728515625 Q 59.7314453125 209.4189453125 59.7314453125 204.58984375 L 59.7314453125 204.58984375 Q 59.7314453125 199.7607421875 61.0791015625 195.2685546875 Q 62.4267578125 190.7763671875 65.1220703125 187.8564453125 Q 67.8173828125 184.9365234375 71.748046875 184.9365234375 L 71.748046875 184.9365234375 L 73.2080078125 184.9365234375 Q 77.0263671875 184.9365234375 88.9306640625 178.8720703125 Q 100.8349609375 172.8076171875 111.78466796875 166.0693359375 Q 122.734375 159.3310546875 125.3173828125 156.1865234375 L 125.3173828125 156.1865234375 Q 129.3603515625 151.0205078125 133.515625 151.0205078125 L 133.515625 151.0205078125 Q 137.6708984375 151.0205078125 141.43310546875 154.7265625 Q 145.1953125 158.4326171875 147.5537109375 163.7109375 Q 149.912109375 168.9892578125 149.912109375 173.9306640625 L 149.912109375 173.9306640625 Q 149.912109375 178.0859375 147.72216796875 181.17431640625 Q 145.5322265625 184.2626953125 140.478515625 184.2626953125 L 140.478515625 184.2626953125 L 138.0078125 184.2626953125 Q 134.4140625 184.2626953125 123.46435546875 188.24951171875 Q 112.5146484375 192.236328125 101.5087890625 197.0654296875 L 101.5087890625 197.0654296875 Q 92.0751953125 200.99609375 92.0751953125 204.58984375 L 92.0751953125 204.58984375 Q 92.0751953125 208.2958984375 101.845703125 212.3388671875 L 101.845703125 212.3388671875 Q 112.9638671875 217.2802734375 123.91357421875 221.15478515625 Q 134.86328125 225.029296875 138.232421875 225.029296875 L 138.232421875 225.029296875 L 140.25390625 225.029296875 Q 145.5322265625 225.029296875 147.72216796875 228.11767578125 Q 149.912109375 231.2060546875 149.912109375 235.361328125 L 149.912109375 235.361328125 Q 149.912109375 240.1904296875 147.5537109375 245.52490234375 Q 145.1953125 250.859375 141.4892578125 254.50927734375 Q 137.783203125 258.1591796875 133.6279296875 258.1591796875 Z M 181.0205078125 285.44921875 L 181.0205078125 285.44921875 Q 175.966796875 285.44921875 171.41845703125 283.3154296875 Q 166.8701171875 281.181640625 164.00634765625 277.138671875 Q 161.142578125 273.095703125 161.142578125 267.255859375 L 161.142578125 267.255859375 Q 161.142578125 262.2021484375 163.837890625 256.025390625 L 163.837890625 256.025390625 Q 168.2177734375 246.4794921875 173.49609375 235.6982421875 L 173.49609375 235.6982421875 Q 180.009765625 222.4462890625 186.24267578125 208.46435546875 Q 192.4755859375 194.482421875 196.68701171875 180.94970703125 Q 200.8984375 167.4169921875 200.8984375 155.9619140625 L 200.8984375 155.9619140625 Q 200.8984375 152.255859375 200.44921875 149.2236328125 Q 200 146.19140625 200 143.720703125 L 200 143.720703125 Q 200 136.982421875 203.2568359375 132.54638671875 Q 206.513671875 128.1103515625 211.51123046875 125.92041015625 Q 216.5087890625 123.73046875 221.6748046875 123.73046875 L 221.6748046875 123.73046875 Q 228.4130859375 123.73046875 233.63525390625 127.15576171875 Q 238.857421875 130.5810546875 238.857421875 137.20703125 L 238.857421875 137.20703125 Q 238.857421875 141.923828125 235.263671875 148.3251953125 L 235.263671875 148.3251953125 Q 222.01171875 171.572265625 214.20654296875 202.28759765625 Q 206.4013671875 233.0029296875 205.390625 258.49609375 L 205.390625 258.49609375 Q 204.94140625 267.8173828125 201.29150390625 273.76953125 Q 197.6416015625 279.7216796875 192.19482421875 282.58544921875 Q 186.748046875 285.44921875 181.0205078125 285.44921875 Z M 266.3720703125 258.1591796875 L 266.3720703125 258.1591796875 Q 262.216796875 258.1591796875 258.5107421875 254.50927734375 Q 254.8046875 250.859375 252.4462890625 245.52490234375 Q 250.087890625 240.1904296875 250.087890625 235.361328125 L 250.087890625 235.361328125 Q 250.087890625 231.2060546875 252.27783203125 228.11767578125 Q 254.4677734375 225.029296875 259.74609375 225.029296875 L 259.74609375 225.029296875 L 261.767578125 225.029296875 Q 265.13671875 225.029296875 276.08642578125 221.15478515625 Q 287.0361328125 217.2802734375 298.154296875 212.3388671875 L 298.154296875 212.3388671875 Q 307.9248046875 208.2958984375 307.9248046875 204.58984375 L 307.9248046875 204.58984375 Q 307.9248046875 200.99609375 298.4912109375 197.0654296875 L 298.4912109375 197.0654296875 Q 287.4853515625 192.236328125 276.53564453125 188.24951171875 Q 265.5859375 184.2626953125 261.9921875 184.2626953125 L 261.9921875 184.2626953125 L 259.521484375 184.2626953125 Q 254.4677734375 184.2626953125 252.27783203125 181.17431640625 Q 250.087890625 178.0859375 250.087890625 173.9306640625 L 250.087890625 173.9306640625 Q 250.087890625 168.9892578125 252.4462890625 163.7109375 Q 254.8046875 158.4326171875 258.56689453125 154.7265625 Q 262.3291015625 151.0205078125 266.484375 151.0205078125 L 266.484375 151.0205078125 Q 270.751953125 151.0205078125 274.6826171875 156.1865234375 L 274.6826171875 156.1865234375 Q 277.265625 159.3310546875 288.21533203125 166.0693359375 Q 299.1650390625 172.8076171875 311.0693359375 178.8720703125 Q 322.9736328125 184.9365234375 326.7919921875 184.9365234375 L 326.7919921875 184.9365234375 L 328.251953125 184.9365234375 Q 332.1826171875 184.9365234375 334.8779296875 187.8564453125 Q 337.5732421875 190.7763671875 338.9208984375 195.2685546875 Q 340.2685546875 199.7607421875 340.2685546875 204.58984375 L 340.2685546875 204.58984375 Q 340.2685546875 209.4189453125 338.9208984375 213.96728515625 Q 337.5732421875 218.515625 334.93408203125 221.37939453125 Q 332.294921875 224.2431640625 328.3642578125 224.2431640625 L 328.3642578125 224.2431640625 L 326.7919921875 224.2431640625 Q 322.9736328125 224.2431640625 311.0693359375 230.3076171875 Q 299.1650390625 236.3720703125 288.21533203125 243.1103515625 Q 277.265625 249.8486328125 274.6826171875 252.9931640625 L 274.6826171875 252.9931640625 Q 270.751953125 258.1591796875 266.3720703125 258.1591796875 Z" fill-opacity="1"/></g></g></svg>