<svg version="1.1" xmlns="http://www.w3.org/2000/svg" xmlns:xlink="http://www.w3.org/1999/xlink" width="400" height="400" viewBox="0 0 400 400"><defs/><g><path fill="rgb(0,255,0)" stroke="none" paint-order="stroke fill markers" d=" M 195 200 C 195 197.238576251 197.238576251 195 200 195 C 202.761423749 195 205 197.238576251 205 200 C 205 202.761423749 202.761423749 205 200 205 C 197.238576251 205 195 202.761423749 195 200" fill-opacity="1"/><g><path fill="rgb(0,0,0)" stroke="none" paint-order="stroke fill markers" d=" M 132.38 242.68 L 132.38 242.68 Q 132.38 246.36 131.345 250.26999999999998 Q 130.31 254.18 128.125 257.285 Q 125.94 260.39 122.72 262.345 Q 119.5 264.3 115.13 264.3 L 115.13 264.3 Q 94.88999999999999 264.3 80.16999999999999 254.065 Q 65.44999999999999 243.82999999999998 54.63999999999999 227.73 L 54.63999999999999 227.73 Q 51.18999999999999 222.44 49.349999999999994 216.115 Q 47.50999999999999 209.79 47.50999999999999 203.57999999999998 L 47.50999999999999 203.57999999999998 Q 47.50999999999999 197.6 49.11999999999999 191.85 Q 50.72999999999999 186.1 54.63999999999999 181.5 L 54.63999999999999 181.5 Q 56.709999999999994 178.97 61.07999999999999 175.29 Q 65.44999999999999 171.61 70.97 167.47 Q 76.49 163.32999999999998 82.815 159.19 Q 89.13999999999999 155.04999999999998 95.005 151.82999999999998 Q 100.87 148.60999999999999 105.92999999999999 146.54 Q 110.99 144.47 114.21 144.47 L 114.21 144.47 Q 120.42 144.47 123.755 149.53 Q 127.08999999999999 154.59 127.08999999999999 160.57 L 127.08999999999999 160.57 Q 127.08999999999999 165.86 123.52499999999999 169.885 Q 119.96 173.91 114.785 176.785 Q 109.61 179.66 103.39999999999999 181.845 Q 97.19 184.03 92.01499999999999 185.755 Q 86.84 187.48 83.27499999999999 189.08999999999997 Q 79.71 190.7 79.71 192.54 L 79.71 192.54 Q 79.71 194.38 83.61999999999999 196.79500000000002 Q 87.53 199.20999999999998 93.395 202.315 Q 99.25999999999999 205.42000000000002 106.04499999999999 209.32999999999998 Q 112.83 213.24 118.695 218.185 Q 124.56 223.13 128.47 229.225 Q 132.38 235.32 132.38 242.68 Z M 245.53999999999996 106.28999999999999 L 245.53999999999996 106.28999999999999 Q 250.59999999999997 106.28999999999999 255.2 109.16499999999999 Q 259.79999999999995 112.03999999999999 259.79999999999995 118.47999999999999 L 259.79999999999995 118.47999999999999 Q 259.79999999999995 122.16 258.19 131.935 Q 256.58 141.71 253.58999999999997 155.28 Q 250.59999999999997 168.85 246.34499999999997 184.83499999999998 Q 242.08999999999997 200.82 236.79999999999998 216.92000000000002 Q 231.51 233.01999999999998 225.185 248.2 Q 218.85999999999999 263.38 211.95999999999998 274.995 Q 205.06 286.61 197.355 293.625 Q 189.64999999999998 300.64 181.59999999999997 300.64 L 181.59999999999997 300.64 Q 173.54999999999998 300.64 167.33999999999997 298.915 Q 161.13 297.19 156.76 294.43 Q 152.39 291.67 150.20499999999998 288.105 Q 148.01999999999998 284.54 148.01999999999998 280.86 L 148.01999999999998 280.86 Q 148.01999999999998 274.88 151.355 264.07 Q 154.68999999999997 253.26 160.325 239.92 Q 165.95999999999998 226.57999999999998 173.32 211.39999999999998 Q 180.67999999999998 196.22 188.84499999999997 181.385 Q 197.01 166.55 205.28999999999996 152.98 Q 213.57 139.41 221.27499999999998 129.06 Q 228.98 118.70999999999998 235.30499999999998 112.5 Q 241.63 106.28999999999999 245.53999999999996 106.28999999999999 Z M 268.08 242.68 L 268.08 242.68 Q 268.08 235.09 271.99 229.11 Q 275.9 223.13 281.765 218.185 Q 287.63 213.24 294.41499999999996 209.32999999999998 Q 301.2 205.42000000000002 307.065 202.315 Q 312.93 199.20999999999998 316.84 196.79500000000002 Q 320.75 194.38 320.75 192.54 L 320.75 192.54 Q 320.75 190.7 317.185 189.08999999999997 Q 313.62 187.48 308.445 185.755 Q 303.27 184.03 297.06 181.845 Q 290.84999999999997 179.66 285.675 176.785 Q 280.5 173.91 276.935 169.885 Q 273.37 165.86 273.37 160.57 L 273.37 160.57 Q 273.37 154.59 276.705 149.53 Q 280.03999999999996 144.47 286.25 144.47 L 286.25 144.47 Q 289.46999999999997 144.47 294.53 146.54 Q 299.59 148.60999999999999 305.455 151.82999999999998 Q 311.32 155.04999999999998 317.645 159.19 Q 323.96999999999997 163.32999999999998 329.49 167.47 Q 335.01 171.61 339.38 175.29 Q 343.75 178.97 345.82 181.5 L 345.82 181.5 Q 349.73 186.1 351.34 191.85 Q 352.95 197.6 352.95 203.57999999999998 L 352.95 203.57999999999998 Q 352.95 209.79 351.11 216.115 Q 349.27 222.44 345.82 227.73 L 345.82 227.73 Q 340.3 235.78 333.975 242.45 Q 327.65 249.12 320.28999999999996 253.95 Q 312.93 258.78 304.19 261.54 Q 295.45 264.3 285.33 264.3 L 285.33 264.3 Q 280.96 264.3 277.74 262.345 Q 274.52 260.39 272.335 257.285 Q 270.15 254.18 269.115 250.26999999999998 Q 268.08 246.36 268.08 242.68 Z" fill-opacity="1"/></g></g></svg>