<svg version="1.1" xmlns="http://www.w3.org/2000/svg" xmlns:xlink="http://www.w3.org/1999/xlink" width="400" height="400" viewBox="0 0 400 400"><defs/><g><path fill="rgb(0,255,0)" stroke="none" paint-order="stroke fill markers" d=" M 195 200 C 195 197.238576251 197.238576251 195 200 195 C 202.761423749 195 205 197.238576251 205 200 C 205 202.761423749 202.761423749 205 200 205 C 197.238576251 205 195 202.761423749 195 200" fill-opacity="1"/><g><path fill="rgb(0,0,0)" stroke="none" paint-order="stroke fill markers" d=" M 147.125 177.75 L 147.125 177.75 Q 147.125 185.5 142 191.5 Q 136.875 197.5 127.875 201.875 Q 118.875 206.25 106.875 209.125 Q 94.875 212 81.375 214 L 81.375 214 Q 94.875 215.75 106.875 218.75 Q 118.875 221.75 127.875 226.125 Q 136.875 230.5 142 236.375 Q 147.125 242.25 147.125 250 L 147.125 250 Q 147.125 259 140.375 264 Q 133.625 269 122.125 269 L 122.125 269 Q 110.125 269 95.75 263.75 Q 81.375 258.5 68.75 250.375 Q 56.125 242.25 47.75 232.625 Q 39.375 223 39.375 214 L 39.375 214 Q 39.375 205 47.75 195.25 Q 56.125 185.5 68.75 177.375 Q 81.375 169.25 95.75 164 Q 110.125 158.75 122.125 158.75 L 122.125 158.75 Q 133.625 158.75 140.375 163.875 Q 147.125 169 147.125 177.75 Z M 152.125 276 L 152.125 276 Q 152.125 268.5 155.75 254 Q 159.375 239.5 165.5 221.875 Q 171.625 204.25 179.75 185.75 Q 187.875 167.25 197 152.125 Q 206.125 137 215.625 127.25 Q 225.125 117.5 233.875 117.5 L 233.875 117.5 Q 235.875 117.5 238.375 118.125 Q 240.875 118.75 243 120.5 Q 245.125 122.25 246.5 125.25 Q 247.875 128.25 247.875 133 L 247.875 133 Q 247.875 138.5 245.75 148.25 Q 243.625 158 240 170.25 Q 236.375 182.5 231.25 196.125 Q 226.125 209.75 220.125 223.25 Q 214.125 236.75 207.5 249.125 Q 200.875 261.5 193.875 270.875 Q 186.875 280.25 179.75 285.875 Q 172.625 291.5 166.125 291.5 L 166.125 291.5 Q 164.125 291.5 161.625 290.875 Q 159.125 290.25 157 288.5 Q 154.875 286.75 153.5 283.75 Q 152.125 280.75 152.125 276 Z M 252.875 177.75 L 252.875 177.75 Q 252.875 169 259.625 163.875 Q 266.375 158.75 277.875 158.75 L 277.875 158.75 Q 289.875 158.75 304.25 164 Q 318.625 169.25 331.25 177.375 Q 343.875 185.5 352.25 195.25 Q 360.625 205 360.625 214 L 360.625 214 Q 360.625 223 352.25 232.625 Q 343.875 242.25 331.25 250.375 Q 318.625 258.5 304.25 263.75 Q 289.875 269 277.875 269 L 277.875 269 Q 266.375 269 259.625 264 Q 252.875 259 252.875 250 L 252.875 250 Q 252.875 242.25 258 236.375 Q 263.125 230.5 272.125 226.125 Q 281.125 221.75 293.125 218.75 Q 305.125 215.75 318.625 214 L 318.625 214 Q 305.125 212 293.125 209.125 Q 281.125 206.25 272.125 201.875 Q 263.125 197.5 258 191.5 Q 252.875 185.5 252.875 177.75 Z" fill-opacity="1"/></g></g></svg>