<svg version="1.1" xmlns="http://www.w3.org/2000/svg" xmlns:xlink="http://www.w3.org/1999/xlink" width="400" height="400" viewBox="0 0 400 400"><defs/><g><path fill="rgb(0,255,0)" stroke="none" paint-order="stroke fill markers" d=" M 195 200 C 195 197.238576251 197.238576251 195 200 195 C 202.761423749 195 205 197.238576251 205 200 C 205 202.761423749 202.761423749 205 200 205 C 197.238576251 205 195 202.761423749 195 200" fill-opacity="1"/><g><path fill="rgb(0,0,0)" stroke="none" paint-order="stroke fill markers" d=" M 84.31 213.3 C 81.78 212.38 81.78 210.07999999999998 84.31 209.39 C 97.64999999999999 204.79 133.76 195.13 139.28 193.06 C 148.01999999999998 189.83999999999997 149.39999999999998 172.36 142.26999999999998 164.76999999999998 C 134.91 157.41 127.55 158.56 119.96 162.47 C 113.52 165.92000000000002 53.02999999999999 190.3 50.03999999999999 192.6 C 44.74999999999999 196.97 40.60999999999999 202.03 40.60999999999999 211.23000000000002 C 40.60999999999999 220.43 44.51999999999999 225.72 50.03999999999999 229.63 C 52.10999999999999 231.24 113.52 256.54 119.96 259.99 C 127.55 263.9 135.14 265.05 142.26999999999998 257.69 C 149.39999999999998 250.1 148.01999999999998 232.39 139.28 229.17 C 133.76 227.1 97.64999999999999 217.67 84.31 213.3 Z M 152.62 274.48 C 149.85999999999999 281.84 153.31 286.9 161.13 286.9 L 180.22 286.9 C 185.51 286.9 190.11 283.68 191.95 278.62 L 247.15 132.57 C 249.91 125.20999999999998 246.46 120.15 238.41 120.15 L 219.55 120.15 C 214.26 120.15 209.66 123.37 207.82 128.43 Z M 315.69 213.3 C 302.35 217.67 266.24 227.1 260.72 229.17 C 251.98000000000002 232.39 250.37 250.1 257.73 257.69 C 264.86 265.05 272.45 263.9 280.04 259.99 C 286.48 256.54 347.89 231.24 349.96000000000004 229.63 C 355.48 225.72 359.16 220.43 359.16 211.23000000000002 C 359.16 202.03 355.48 196.97 349.96000000000004 192.6 C 347.89 191.22 286.48 165.92000000000002 280.04 162.47 C 272.45 158.56 264.86 157.41 257.73 164.76999999999998 C 250.37 172.36 251.98000000000002 189.83999999999997 260.72 193.06 C 266.24 195.13 302.35 204.79 315.69 209.39 C 318.22 210.07999999999998 318.22 212.38 315.69 213.3 Z" fill-opacity="1"/></g></g></svg>