<svg version="1.1" xmlns="http://www.w3.org/2000/svg" xmlns:xlink="http://www.w3.org/1999/xlink" width="180" height="50" viewBox="0 0 180 50"><defs/><g><g><path fill="rgb(0,0,0)" stroke="none" paint-order="stroke fill markers" d=" M 10 29.919999999999998 L 20 29.919999999999998 L 20 20.08 L 10 20.08 L 10 29.919999999999998 Z M 30 50 L 10 50 L 10 40 L 0 40 L 0 20 L 10 20 L 10 10 L 30 10 L 30 20 L 40 20 L 40 30 L 20 30 L 20 40 L 30 40 L 30 50 Z M 90 40 L 50 40 L 50 50 L 90 50 L 90 40 Z M 110 50 L 110 0 L 100 0 L 100 50 L 110 50 Z M 120 40 L 120 50 L 130 50 L 130 40 L 120 40 Z M 150 20.08 L 150 39.92 L 170 39.92 L 170 20.08 L 150 20.08 Z M 140 20 L 150 20 L 150 10 L 180 10 L 180 50 L 150 50 L 150 40 L 140 40 L 140 20 Z" fill-opacity="1"/></g></g></svg>