<svg version="1.1" xmlns="http://www.w3.org/2000/svg" xmlns:xlink="http://www.w3.org/1999/xlink" width="500" height="500" viewBox="0 0 500 500"><defs/><g><g><g><g><path fill="rgb(255,255,255)" stroke="none" paint-order="stroke fill markers" d=" M 256.4583333333333 75 L 259.6666666666667 75 L 259.6666666666667 45.91666666666667 L 255.33333333333334 45.91666666666667 L 250.20833333333334 58.75 L 249.95833333333334 58.75 L 244.83333333333334 45.91666666666667 L 240.33333333333334 45.91666666666667 L 240.33333333333334 75 L 243.54166666666666 75 L 243.54166666666666 60.41666666666667 L 243.54166666666666 51.208333333333336 L 243.875 51.208333333333336 L 250 66.16666666666667 L 256.125 51.208333333333336 L 256.4583333333333 51.208333333333336 L 256.4583333333333 60.41666666666667 Z" fill-opacity="1"/></g></g><g><g><path fill="rgb(255,255,255)" stroke="none" paint-order="stroke fill markers" d=" M 286.2490986651378 78.71998621046622 L 289.5288639604666 79.315175859795 L 293.36783719863723 58.160689704924465 L 290.0880719033085 57.56550005559568 L 287.42459822256217 72.2424497521919 C 286.9186870206327 75.03025025322135 284.06423879525477 75.82500758569822 281.44042655899176 75.34885586623518 C 278.2016583298546 74.761106087523 276.78101853197944 72.55532660619474 277.4803663699408 68.70160238418345 L 279.8388053554061 55.705532401443214 L 276.55904006007734 55.11034275211443 L 274.09644288597946 68.6803716615372 C 273.16645905890323 73.80500493548838 275.5415800741116 77.28502451506358 279.96926322280547 78.08853054165745 C 283.45401384909223 78.72091954406928 285.4286906745041 77.17364639011124 286.7100595321666 75.24647316790457 L 286.87404779693304 75.27623265037101 Z" fill-opacity="1"/></g></g><g><g><path fill="rgb(255,255,255)" stroke="none" paint-order="stroke fill markers" d=" M 311.5489655198543 86.7148587793862 C 316.69825730837283 88.64742031183359 320.9168953706985 87.60493604113572 322.4102383730442 83.62593784091683 C 324.04998755209044 79.25684177793138 320.324791918996 76.96866243238252 317.5991145288941 75.45614907575516 L 314.6150092525257 73.80214160916076 C 312.92304340748996 72.8556046924016 311.3725716724212 71.6506398893759 312.16316502660425 69.54411143043649 C 312.93911776311717 67.47659275777374 315.11913605799833 67.00413675090324 318.2789287464074 68.19002678217777 C 321.8288192975831 69.52232299015286 323.09620723018725 71.60014370893504 323.60786418839535 73.0828023350394 L 326.3537633406142 71.93263492632617 C 325.20359593190096 69.18673577410735 323.0047896128601 66.98187039796721 319.37687948913117 65.620292954652 C 314.6957051359325 63.863418834245294 310.5161724424139 64.5645435793898 309.00818882239815 68.58255156588535 C 307.3684396433519 72.95164762887079 311.13264506272293 75.25446759208972 313.8193126665482 76.75234033104702 L 316.80341794291667 78.40634779764142 C 318.53439357422906 79.36752533207064 320.04585552302115 80.55784951742628 319.2552621688381 82.66437797636569 C 318.3621844909647 85.04397493924169 315.7286893784338 85.30173374779486 312.6079064763013 84.13048433419038 C 309.40910400161556 82.92995368524579 307.64913388255445 80.97879529369965 306.4989664738412 78.23289614148081 L 303.7043289844092 79.2757627423006 C 304.9177797654752 82.44595305935962 307.33590860197546 85.13367207102016 311.5489655198543 86.7148587793862 Z" fill-opacity="1"/></g></g><g><g><path fill="rgb(255,255,255)" stroke="none" paint-order="stroke fill markers" d=" M 354.3655779694078 77.92104599083233 C 356.01093815714466 78.90410293919365 357.0891637235681 78.48049519988778 357.70891701710025 77.44320290761885 L 358.0508498687042 76.87090371188428 C 358.6706031622363 75.83361141961535 358.5326929377237 74.68339637065114 356.8873327499868 73.70033942228982 C 355.2419725622499 72.71728247392849 354.1637469958265 73.14089021323436 353.54399370229436 74.17818250550327 L 353.20206085069043 74.75048170123785 C 352.5823075571583 75.78777399350678 352.7202177816709 76.937989042471 354.3655779694078 77.92104599083233 Z M 332.81824579775184 95.62552529397568 L 348.5564736804527 105.02867871308396 L 350.00968829976944 102.59640713121202 L 343.78593454615594 98.8778873700192 L 353.36005439106617 82.85350988945103 L 343.8455802619788 77.16887623153556 L 342.39236564266207 79.60114781340752 L 349.04534379307654 83.57611721330329 L 340.92443856748304 97.16822311199951 L 334.27146041706857 93.19325371210374 Z" fill-opacity="1"/></g></g><g><g><path fill="rgb(255,255,255)" stroke="none" paint-order="stroke fill markers" d=" M 365.3751112759826 119.08248322682468 C 368.6070429842481 121.90613692564926 372.04473133062976 122.08777744314499 374.8776445002109 120.74512038580924 L 374.1582501981044 117.95877477944656 C 371.8072324160745 119.00317458035363 369.4631435555698 118.83639071272178 367.2980630908094 116.94481687564512 C 364.2543992490448 114.28564785830544 364.4320759023712 110.7891674205928 366.92676023822594 107.93377144532911 L 369.3392022333382 105.17250940331587 C 371.83388656919294 102.31711342805218 375.30625088628517 101.69911491632578 378.2557807947993 104.27604159292298 C 380.2639713708089 106.03054486209555 380.79476487081007 108.20948316990635 379.9379984282794 110.39338414869994 L 382.87826886603693 111.08103617436738 C 383.8872954619401 108.08956843801303 383.28515240689103 104.85237248624475 380.14735463187594 102.1109611281626 C 375.566169880354 98.10850054536269 369.93038977652384 99.04953830534717 365.43447514926913 104.19552665637185 C 360.9659746355953 109.31013702964637 360.7311705689603 115.02519441686312 365.3751112759826 119.08248322682468 Z" fill-opacity="1"/></g></g><g><g><path fill="rgb(255,255,255)" stroke="none" paint-order="stroke fill markers" d="" fill-opacity="1"/></g></g><g><g><path fill="rgb(255,255,255)" stroke="none" paint-order="stroke fill markers" d="" fill-opacity="1"/></g></g><g><g><path fill="rgb(255,255,255)" stroke="none" paint-order="stroke fill markers" d="" fill-opacity="1"/></g></g><g><g><path fill="rgb(255,255,255)" stroke="none" paint-order="stroke fill markers" d="" fill-opacity="1"/></g></g><g><g><path fill="rgb(255,255,255)" stroke="none" paint-order="stroke fill markers" d="" fill-opacity="1"/></g></g><g><g><path fill="rgb(255,255,255)" stroke="none" paint-order="stroke fill markers" d=" M 420.1434640868913 288.748658982695 C 418.70634972175674 295.045068415536 421.049683639593 299.38361912523493 426.2899211675703 300.5796691452501 C 429.9865228345931 301.4233943531678 433.4910213076703 300.30005414202185 435.73617288451936 294.9573615772736 L 436.9596367555647 292.03124402426505 C 438.56810954592993 288.1672853814008 440.48968397817475 287.2382497217522 443.0082477513111 287.813095467806 C 446.21738546224293 288.54556020874554 447.3914869164 291.0786659436558 446.5199465917378 294.89713359970125 C 445.71330820614617 298.43124728136036 443.82795305513866 300.13783740305286 441.3946347240733 301.24923827569114 L 442.91932590815037 304.118793044462 C 446.07676982532246 302.8307634904006 448.4062993031538 300.11435999175205 449.43545862270173 295.6053183979111 C 450.7520408152766 289.836994917502 448.9147142646943 285.52846068209936 443.7150987330579 284.3416823676657 C 440.1403630550579 283.52577227649255 436.53254200412096 284.5400533782121 434.3280124236128 289.89201764854187 L 433.0767334358229 292.9400011905731 C 431.54596946412465 296.65074355365533 429.75906790049896 297.7387320246527 426.9967721493171 297.1082560451098 C 423.58452445668075 296.3294327762627 422.1039904429594 293.64090940401854 423.04043270669223 289.5380877735867 C 423.8192559755393 286.1258400809503 425.68826907293555 284.1163525737084 428.9512369255191 282.5532407508422 L 427.48571114894594 279.61171369497106 C 424.07879872216176 281.0564947028294 421.3024272845804 283.67090944008135 420.1434640868913 288.748658982695 Z" fill-opacity="1"/></g></g><g><g><path fill="rgb(255,255,255)" stroke="none" paint-order="stroke fill markers" d=" M 410.45759631022815 318.58286802360965 C 408.083070077319 324.13834831610797 410.68684991370463 329.28412436245776 416.9702896928062 331.96979541209294 C 423.2537294719078 334.65546646172805 428.77244495972667 332.98141152832125 431.14697119263576 327.42593123582293 C 433.5214974255449 321.87045094332456 430.9177175891593 316.72467489697476 424.6342778100577 314.03900384733964 C 418.35083803095614 311.35333279770447 412.83212254313725 313.0273877311113 410.45759631022815 318.58286802360965 Z M 413.10123865631357 319.7128149896147 C 414.5587064820302 316.3028994997364 417.5718928922161 314.87201034659347 421.82470884026657 316.6897511179929 L 424.6599194723002 317.9015782989258 C 428.91273542035066 319.71931907032524 429.960796672267 322.8860687799396 428.50332884655035 326.2959842698179 C 427.04586102083374 329.7058997596962 424.0326746106478 331.13678891283905 419.77985866259735 329.3190481414397 L 416.9446480305637 328.10722096050677 C 412.69183208251326 326.28948018910734 411.6437708305969 323.122730479493 413.10123865631357 319.7128149896147 Z" fill-opacity="1"/></g></g><g><g><path fill="rgb(255,255,255)" stroke="none" paint-order="stroke fill markers" d=" M 393.2499264121798 350.6493857938679 L 391.41360314067276 353.43129663960553 L 409.35692809568076 365.27558174082577 L 411.19325136718777 362.4936708950881 L 398.7442003325117 354.2761242550942 C 396.37957611363464 352.7152494743133 396.77064427811695 349.77814553001417 398.2397028953225 347.552616853424 C 400.05307212593567 344.80547989325805 402.6396946206699 344.3660886947906 405.90843986441166 346.52376853881134 L 416.93176159064717 353.80019950215785 L 418.7680848621542 351.01828865642017 L 407.25792873791454 343.42050112055995 C 402.91119304144945 340.5512460088302 398.77773637682304 341.3675009400661 396.2986999602886 345.12308058181196 C 394.3476064843124 348.07886085540827 394.99426969928635 350.50274811849977 396.2627489637797 352.43842968666337 L 396.17093280020435 352.57752522895026 Z" fill-opacity="1"/></g></g><g><g><path fill="rgb(255,255,255)" stroke="none" paint-order="stroke fill markers" d=" M 380.0020029688101 367.2617563482454 L 390.783693020902 377.57010752896616 C 392.83161180174625 379.52811836776226 391.9223881035584 382.3481939262433 390.07955437292674 384.2756468964497 C 387.8048064866783 386.6548466565482 385.18129575157434 386.62531737701414 382.3503492015837 383.9186553351489 L 372.80343370853024 374.7908695131141 L 370.4998915452407 377.2001857258721 L 380.4684373755268 386.7310914264826 C 384.2329939579611 390.33037605662247 388.44577221936277 390.2652958647604 391.5555541398037 387.01271897753713 C 394.0030676882988 384.45282050148177 393.7995984002672 381.9524199282524 392.89713340953864 379.82134984064686 L 393.0123105177031 379.700884030009 L 395.542092541099 382.11960330146303 L 397.84563470438854 379.71028708870506 L 382.3055451320996 364.8524401354874 Z" fill-opacity="1"/></g></g><g><g><path fill="rgb(255,255,255)" stroke="none" paint-order="stroke fill markers" d=" M 348.6487889721467 394.6393555379724 L 345.9520656575635 396.59863971228066 L 364.0754442699148 421.54333037217486 L 366.77216758449794 419.5840461978666 L 359.2289235134112 409.20166143672145 L 359.36375967914034 409.10369722800607 C 362.01909433367365 410.41916211633816 364.6475872929194 410.2090436659456 367.07463827604425 408.4456879090682 C 371.3219774965127 405.3598153345327 371.41026837530256 400.09388218427864 367.2712805570764 394.3970541822217 C 363.13229273885025 388.7002261801648 358.0968093199321 387.1569329610964 353.8494700994636 390.2428055356319 C 351.42241911633874 392.0061612925093 350.41033560089727 394.44107647743294 350.8408735208995 397.3729508095693 L 350.70603735517034 397.4709150182847 Z M 354.5433545197612 393.3953700948689 C 357.6782953729641 391.11770224223557 361.0170288453966 391.8851459933794 363.29469669802995 395.02008684658233 L 365.44990928976904 397.98648249262385 C 367.72757714240237 401.12142334582677 367.42573414014765 404.5339007322868 364.29079328694473 406.8115685849201 C 361.8974513452522 408.55043328961864 358.93503088726493 408.797152939534 357.24514828692406 406.471229080706 L 352.6898125816574 400.20134737430016 C 350.99992998131654 397.8754235154722 352.15001257806864 395.1342347995675 354.5433545197612 393.3953700948689 Z" fill-opacity="1"/></g></g><g><g><path fill="rgb(255,255,255)" stroke="none" paint-order="stroke fill markers" d="" fill-opacity="1"/></g></g><g><g><path fill="rgb(255,255,255)" stroke="none" paint-order="stroke fill markers" d="" fill-opacity="1"/></g></g><g><g><path fill="rgb(255,255,255)" stroke="none" paint-order="stroke fill markers" d="" fill-opacity="1"/></g></g><g><g><path fill="rgb(255,255,255)" stroke="none" paint-order="stroke fill markers" d="" fill-opacity="1"/></g></g><g><g><path fill="rgb(255,255,255)" stroke="none" paint-order="stroke fill markers" d="" fill-opacity="1"/></g></g><g><g><path fill="rgb(255,255,255)" stroke="none" paint-order="stroke fill markers" d=" M 178.80043221091503 409.94744151329047 L 173.44919942846516 421.059390884087 L 167.06733661415637 417.9860477320043 C 162.22462894918087 415.6539226342474 158.2409163997231 417.2039561073496 155.9630267693559 421.9340426638373 C 153.68513713898875 426.664129220325 154.95707631896175 430.7451511716129 159.79978398393726 433.0772762693698 L 169.33503783590453 437.66921250836396 L 181.9538232485735 411.46603460020197 Z M 167.50137650472863 433.41017244824934 L 161.1945944294117 430.3729862744264 C 158.5667685646963 429.10749203533356 157.65897714367333 426.9592018205283 158.83407893711671 424.51907780329253 L 159.7741603718714 422.56697858950395 C 160.9492621653148 420.12685457226826 163.19486178195027 419.4971574443744 165.82268764666566 420.7626516834673 L 172.1294697219826 423.7998378572902 Z" fill-opacity="1"/></g></g><g><g><path fill="rgb(255,255,255)" stroke="none" paint-order="stroke fill markers" d=" M 154.65469708821777 397.0394786515001 L 141.4407528467603 387.4389861973897 L 139.77536129859828 389.73120101478537 L 145.2025169691969 393.6742604155807 L 139.74101233331265 401.19137665498124 C 137.78172815900442 403.8880999695644 134.40323057146762 404.781161897184 130.9986173868064 402.30756562711986 L 127.72884036787431 399.9319335657711 L 125.76955619356606 402.6286568803543 L 128.19660717669092 404.3920126372317 C 131.83718365137815 407.0370462725478 134.90624479235237 406.07367410397313 137.24581716916018 404.27128033015447 L 137.4143623763216 404.39373559104877 L 134.23052559307072 408.7759109772464 L 142.0173141639296 414.43334403056144 L 143.6827057120916 412.14112921316575 L 138.59264045581588 408.44298033415896 L 147.89924028378005 395.6335445898889 L 152.98930554005577 399.33169346889576 Z" fill-opacity="1"/></g></g><g><g><path fill="rgb(255,255,255)" stroke="none" paint-order="stroke fill markers" d=" M 123.8722962621202 370.5904322482079 C 119.69712609115788 366.2235466125841 113.94209145259396 366.5953756922495 109.0029932164401 371.3176371269931 C 104.06389498028628 376.0398985617366 103.43424165504157 381.7724562147885 107.60941182600389 386.13934185041234 C 111.7845819969662 390.50622748603615 117.53961663553014 390.1343984063708 122.47871487168398 385.4121369716272 C 127.41781310783782 380.6898755368836 128.0474664330825 374.9573178838317 123.8722962621202 370.5904322482079 Z M 121.79426102861645 372.5772373640451 C 124.35695168527607 375.25760165073837 124.48843631679108 378.5906854934862 121.14551007158938 381.7868502450504 L 118.91689257478826 383.9176267460933 C 115.57396632958658 387.11379149765753 112.25013771616726 386.83290102126836 109.68744705950763 384.1525367345751 C 107.12475640284802 381.47217244788186 106.99327177133301 378.1390886051341 110.3361980165347 374.9429238535698 L 112.56481551333582 372.812147352527 C 115.9077417585375 369.61598260096275 119.23157037195682 369.89687307735187 121.79426102861645 372.5772373640451 Z" fill-opacity="1"/></g></g><g><g><path fill="rgb(255,255,255)" stroke="none" paint-order="stroke fill markers" d=" M 101.08042548704236 342.0602360576529 L 99.24410221553535 339.2783252119152 L 73.51142689246186 356.26431547335505 L 75.34775016396887 359.0462263190927 L 86.05810692005892 351.9763817237907 L 86.14992308363426 352.1154772660776 C 84.71665164211248 354.70912006625616 84.80863162651292 357.34439323662576 86.46132257086924 359.84811299778966 C 89.35353172349278 364.22962257982647 94.61020127416825 364.55407975299966 100.48698793578909 360.67484684194113 C 106.36377459740993 356.79561393088255 108.13142993222208 351.83444049715416 105.23922077959854 347.45293091511735 C 103.58652983524223 344.9492111539534 101.19947340310821 343.82890468257716 98.25123526259316 344.1274710350221 L 98.1594190990178 343.98837549273526 Z M 102.05869963629739 348.0046773658565 C 104.19342543942429 351.2386487240265 103.27696274224482 354.53958908031734 100.04299138407477 356.67431488344425 L 96.98288945376333 358.69427048210196 C 93.74891809559328 360.82899628522887 90.35341898187936 360.37435699977385 88.21869317875246 357.1403856416038 C 86.58895627528999 354.67143976601164 86.47539354691956 351.7009332330647 88.87479165136831 350.11710441138985 L 95.3427343677084 345.8476528051361 C 97.74213247215715 344.2638239834613 100.42896273283492 345.53573149026425 102.05869963629739 348.0046773658565 Z" fill-opacity="1"/></g></g><g><g><path fill="rgb(255,255,255)" stroke="none" paint-order="stroke fill markers" d=" M 87.08476255925535 314.1051143623001 L 85.77467912040895 311.04002178712864 L 66.00483201055276 319.49005996768796 L 67.31491544939917 322.5551525428595 L 81.03120472329164 316.69252915402177 C 83.63653341218742 315.57895823100233 85.87232353614351 317.52337495858654 86.92039028722064 319.97544901872374 C 88.21409768308146 323.0022279367056 87.1558393007378 325.403013173197 83.55435552491129 326.94236121384154 L 71.40892619579421 332.1335668402704 L 72.71900963464063 335.1986594154419 L 85.40083016441271 329.7781891872149 C 90.19003731311818 327.73118381401736 91.78592157879635 323.8318390585909 90.01730893635369 319.69396408210935 C 88.62534528257937 316.43730322098963 86.2461889896222 315.641678867755 83.9319195272676 315.63395660184744 L 83.86641535532527 315.48070197308886 Z" fill-opacity="1"/></g></g><g><g><path fill="rgb(255,255,255)" stroke="none" paint-order="stroke fill markers" d=" M 79.70818862380453 288.0987070412405 C 78.75320294890868 283.91464141812685 76.07882027272396 281.74706864062495 72.99775135775582 281.16815643552206 L 71.9419807186066 283.8452067446329 C 74.45787685881687 284.3821631369318 76.25625148557587 285.8949149825013 76.89599917070028 288.697832730024 C 77.79535461210705 292.6381663750922 75.59643154384572 295.3624427531994 71.89982987682296 296.20616796111705 L 68.32509419882295 297.0220780522902 C 64.6284925318002 297.86580326020794 61.456040377479994 296.3247700225196 60.58450005281776 292.50630236647413 C 59.991110895600926 289.9064946006559 60.84243773658253 287.831703888629 62.819241136601974 286.56848556233155 L 60.84470410379423 284.28391578628475 C 58.27004382179445 286.11097307087704 56.85441174714371 289.08385041750756 57.78158230529502 293.14605005159854 C 59.135251320195934 299.0768615173713 64.24782131792396 301.62817440739 70.90982871783308 300.10761469202185 C 77.5312141214013 298.5963266822352 81.08040104986847 294.1107624996951 79.70818862380453 288.0987070412405 Z" fill-opacity="1"/></g></g><g><g><path fill="rgb(255,255,255)" stroke="none" paint-order="stroke fill markers" d=" M 74.75373620280259 248.44416060140944 L 71.92325584760219 248.57127762073588 L 72.36255731145098 258.35308473061957 L 56.545167091213514 259.0634445445028 L 56.105865627364714 249.28163743461906 L 53.27538527216432 249.4087544539455 L 53.71468673601312 259.1905615638292 L 46.13898931474148 259.53078652732063 L 46.28293064544938 262.735889282474 L 51.90226664474427 262.48352461175233 C 53.35913153345036 262.41809673415787 53.88292984982755 262.93678556335914 53.94648835949078 264.35202574095933 L 54.185767454693526 269.679988762513 L 57.01624780989392 269.55287174318653 L 56.69471652571522 262.3934214329738 L 70.4308711906583 261.7765300156542 C 73.30297625696458 261.6475436283965 75.27528985562732 260.0574549999522 75.12947915698815 256.81072753369295 Z" fill-opacity="1"/></g></g><g><g><path fill="rgb(255,255,255)" stroke="none" paint-order="stroke fill markers" d=" M 50.75033813195999 221.66428890517295 C 51.007618558110494 219.76496852845108 50.194329839777396 218.93999862019928 48.99693221097448 218.7778000906696 L 48.33629903646252 218.68831124679116 C 47.138901407659596 218.5261127172615 46.13544889608482 219.1049883048476 45.87816846993431 221.00430868156948 C 45.62088804378381 222.90362905829136 46.434176762116905 223.72859896654316 47.63157439091983 223.89079749607282 L 48.29220756543178 223.98028633995125 C 49.48960519423471 224.14248486948094 50.493057705809484 223.56360928189483 50.75033813195999 221.66428890517295 Z M 75.49873945858536 234.51935572286777 L 77.95968266524237 216.35194342378898 L 75.15199167356656 215.97161583730562 L 74.17880049638856 223.15600161012316 L 55.68107161005377 220.65031398152692 L 54.19331958057476 231.6333405077882 L 57.00101057225058 232.01366809427157 L 58.04131838233741 224.33380744057007 L 73.73135627699638 226.45916748268294 L 72.69104846690955 234.13902813638444 Z" fill-opacity="1"/></g></g><g><g><path fill="rgb(255,255,255)" stroke="none" paint-order="stroke fill markers" d=" M 84.04063790649569 196.07653448157168 C 85.90761558084432 190.33056802895516 82.8530539880145 185.43890838920458 76.35416779333094 183.32729226097578 C 69.8552815986474 181.21567613274698 64.50884396420338 183.37768565551883 62.64186628985473 189.1236521081354 C 60.77488861550609 194.86961856075195 63.82945020833593 199.7612782005025 70.32833640301948 201.8728943287313 C 76.82722259770303 203.9845104569601 82.17366023214704 201.82250093418824 84.04063790649569 196.07653448157168 Z M 81.30635042214712 195.18811062274372 C 80.16041240134003 198.71494520400492 77.28762010858419 200.41017396549813 72.88898372071911 198.980970366514 L 69.95655946214238 198.02816796719125 C 65.5579230742773 196.5989643682071 64.23021575339621 193.53891054822455 65.3761537742033 190.01207596696335 C 66.5220917950104 186.48524138570215 69.39488408776623 184.79001262420894 73.79352047563131 186.2192162231931 L 76.72594473420804 187.17201862251585 C 81.12458112207312 188.60122222149997 82.45228844295421 191.66127604148252 81.30635042214712 195.18811062274372 Z" fill-opacity="1"/></g></g><g><g><path fill="rgb(255,255,255)" stroke="none" paint-order="stroke fill markers" d=" M 93.48694955749974 171.549344687497 L 80.35139954063673 164.48080380560813 C 77.85637886704265 163.1381759286013 77.98259273832235 160.17784082128904 79.24624250491702 157.82958606967105 C 80.8060601855573 154.93095911064265 83.34288297521351 154.26147371913922 86.7918821416524 156.11745931382515 L 98.42308145826014 162.37647456398932 L 100.00264366650347 159.44115612446686 L 87.85776362297929 152.9057174878601 C 83.27132856122545 150.4376515374799 79.22768050583929 151.6211406651371 77.0952715247108 155.5838205584924 C 75.41698667845225 158.70259640048502 76.27832219656197 161.0587593623831 77.71520809449063 162.87294284100693 L 77.63622998407845 163.01970876298304 L 74.55414562257988 161.36116844432755 L 72.97458341433655 164.29648688385 L 91.90738734925641 174.48466312701947 Z" fill-opacity="1"/></g></g><g><g><path fill="rgb(255,255,255)" stroke="none" paint-order="stroke fill markers" d="" fill-opacity="1"/></g></g><g><g><path fill="rgb(255,255,255)" stroke="none" paint-order="stroke fill markers" d="" fill-opacity="1"/></g></g><g><g><path fill="rgb(255,255,255)" stroke="none" paint-order="stroke fill markers" d="" fill-opacity="1"/></g></g><g><g><path fill="rgb(255,255,255)" stroke="none" paint-order="stroke fill markers" d="" fill-opacity="1"/></g></g><g><g><path fill="rgb(255,255,255)" stroke="none" paint-order="stroke fill markers" d="" fill-opacity="1"/></g></g></g><g><g><g><path fill="rgb(255,255,255)" stroke="none" paint-order="stroke fill markers" d=" M 250.48611111111111 111.36110941569011 L 250.48611111111111 98.88888719346788 L 249.51388888888889 98.88888719346788 L 249.51388888888889 111.36110941569011 Z" fill-opacity="1"/></g></g><g><g><path fill="rgb(255,255,255)" stroke="none" paint-order="stroke fill markers" d=" M 275.2332289066311 113.67589191413666 L 277.4602301778696 101.40410343411486 L 276.5036319667321 101.23050645306063 L 274.2766306954935 113.50229493308242 Z" fill-opacity="1"/></g></g><g><g><path fill="rgb(255,255,255)" stroke="none" paint-order="stroke fill markers" d=" M 299.16932996312204 120.3722434143126 L 303.5517548523588 108.69531405550033 L 302.64152650590347 108.35369964319902 L 298.2591016166667 120.03062900201131 Z" fill-opacity="1"/></g></g><g><g><path fill="rgb(255,255,255)" stroke="none" paint-order="stroke fill markers" d=" M 321.5250882979388 131.23493766922593 L 327.9220820633625 120.52817354902487 L 327.0874790695829 120.02952147376914 L 320.6904853041592 130.7362855939702 Z" fill-opacity="1"/></g></g><g><g><path fill="rgb(255,255,255)" stroke="none" paint-order="stroke fill markers" d=" M 341.58197144382115 145.9148387476691 L 349.78792944234704 136.5223640744574 L 349.05577662817683 135.88270142423826 L 340.849818629651 145.27517609744996 Z" fill-opacity="1"/></g></g><g><g><path fill="rgb(255,255,255)" stroke="none" paint-order="stroke fill markers" d=" M 358.69533467360196 163.94012255031816 L 368.44651066327265 156.16381918824672 L 367.8403400225767 155.40370524695837 L 358.08916403290596 163.18000860902978 Z" fill-opacity="1"/></g></g><g><g><path fill="rgb(255,255,255)" stroke="none" paint-order="stroke fill markers" d=" M 372.31514041215394 184.73144162450302 L 383.29812357336715 178.82124636199256 L 382.8374179292962 177.96511181713186 L 371.85443476808297 183.8753070796423 Z" fill-opacity="1"/></g></g><g><g><path fill="rgb(255,255,255)" stroke="none" paint-order="stroke fill markers" d=" M 382.0036368966265 207.62054586802506 L 393.8654251137522 203.76641724373752 L 393.56499192477656 202.84177896400612 L 381.7032037076509 206.69590758829366 Z" fill-opacity="1"/></g></g><g><g><path fill="rgb(255,255,255)" stroke="none" paint-order="stroke fill markers" d=" M 387.44942787828734 231.87176063727978 L 399.8087735181152 230.19757351638734 L 399.67826895412577 229.23415013689075 L 387.31892331429793 230.90833725778316 Z" fill-opacity="1"/></g></g><g><g><path fill="rgb(255,255,255)" stroke="none" paint-order="stroke fill markers" d=" M 388.47748115417403 256.70563193561736 L 400.9371446785365 257.2651960697113 L 400.9807632635995 256.2939528105739 L 388.521099739237 255.73438867647997 Z" fill-opacity="1"/></g></g><g><g><path fill="rgb(255,255,255)" stroke="none" paint-order="stroke fill markers" d=" M 385.05475424611456 281.32397870613187 L 397.2142718174934 284.0993092435314 L 397.4306116143954 283.15146266224355 L 385.27109404301655 280.376132124844 Z" fill-opacity="1"/></g></g><g><g><path fill="rgb(255,255,255)" stroke="none" paint-order="stroke fill markers" d=" M 377.291256413163 304.93554702757575 L 388.7598111319297 309.8374425612594 L 389.14191880159325 308.94345722683437 L 377.67336408282654 304.04156169315075 Z" fill-opacity="1"/></g></g><g><g><path fill="rgb(255,255,255)" stroke="none" paint-order="stroke fill markers" d=" M 365.43651286349774 326.7814416664347 L 375.8454959446329 333.6523512406568 L 376.38109023215577 332.8409605773166 L 365.9721071510206 325.97005100309457 Z" fill-opacity="1"/></g></g><g><g><path fill="rgb(255,255,255)" stroke="none" paint-order="stroke fill markers" d=" M 349.87154480892053 346.15951759415384 L 358.8864029716566 354.77860452179556 L 359.5582694359494 354.07588729307446 L 350.5434112732133 345.45680036543274 Z" fill-opacity="1"/></g></g><g><g><path fill="rgb(255,255,255)" stroke="none" paint-order="stroke fill markers" d=" M 331.0966231296038 362.4469475060822 L 338.42761141514046 372.53718724148086 L 339.21415571522726 371.9657293573076 L 331.88316742969056 361.87548962190897 Z" fill-opacity="1"/></g></g><g><g><path fill="rgb(255,255,255)" stroke="none" paint-order="stroke fill markers" d=" M 309.7151892563778 375.1202400035085 L 315.1266836692607 386.35732393929146 L 316.00262562416583 385.9354925262605 L 310.59113121128297 374.6984085904775 Z" fill-opacity="1"/></g></g><g><g><path fill="rgb(255,255,255)" stroke="none" paint-order="stroke fill markers" d=" M 286.4144600666305 383.77206503794565 L 289.7325307238371 395.7948240505134 L 290.66971683840256 395.5361771173236 L 287.351646181196 383.51341810475583 Z" fill-opacity="1"/></g></g><g><g><path fill="rgb(255,255,255)" stroke="none" paint-order="stroke fill markers" d=" M 261.94334016842413 388.1243458340415 L 263.0613415489142 400.546358556371 L 264.02964989029846 400.4592092282705 L 262.9116485098084 388.0371965059409 Z" fill-opacity="1"/></g></g><g><g><path fill="rgb(255,255,255)" stroke="none" paint-order="stroke fill markers" d=" M 237.08835149019163 388.0371965059409 L 235.97035010970157 400.4592092282705 L 236.93865845108584 400.546358556371 L 238.05665983157587 388.1243458340415 Z" fill-opacity="1"/></g></g><g><g><path fill="rgb(255,255,255)" stroke="none" paint-order="stroke fill markers" d=" M 212.64835381880408 383.51341810475583 L 209.3302831615975 395.5361771173236 L 210.2674692761629 395.7948240505134 L 213.5855399333695 383.77206503794565 Z" fill-opacity="1"/></g></g><g><g><path fill="rgb(255,255,255)" stroke="none" paint-order="stroke fill markers" d=" M 189.40886878871706 374.6984085904776 L 183.99737437583417 385.93549252626053 L 184.8733163307393 386.3573239392915 L 190.2848107436222 375.12024000350857 Z" fill-opacity="1"/></g></g><g><g><path fill="rgb(255,255,255)" stroke="none" paint-order="stroke fill markers" d=" M 168.11683257030947 361.875489621909 L 160.7858442847728 371.9657293573077 L 161.57238858485954 372.5371872414809 L 168.90337687039622 362.44694750608227 Z" fill-opacity="1"/></g></g><g><g><path fill="rgb(255,255,255)" stroke="none" paint-order="stroke fill markers" d=" M 149.4565887267867 345.45680036543274 L 140.44173056405063 354.07588729307446 L 141.1135970283434 354.77860452179556 L 150.1284551910795 346.15951759415384 Z" fill-opacity="1"/></g></g><g><g><path fill="rgb(255,255,255)" stroke="none" paint-order="stroke fill markers" d=" M 134.02789284897938 325.97005100309457 L 123.61890976784426 332.8409605773166 L 124.15450405536713 333.6523512406568 L 134.56348713650226 326.7814416664347 Z" fill-opacity="1"/></g></g><g><g><path fill="rgb(255,255,255)" stroke="none" paint-order="stroke fill markers" d=" M 122.32663591717348 304.0415616931508 L 110.85808119840677 308.9434572268344 L 111.2401888680703 309.8374425612595 L 122.708743586837 304.9355470275758 Z" fill-opacity="1"/></g></g><g><g><path fill="rgb(255,255,255)" stroke="none" paint-order="stroke fill markers" d=" M 114.72890595698347 280.37613212484405 L 102.56938838560461 283.1514626622436 L 102.78572818250659 284.0993092435315 L 114.94524575388544 281.3239787061319 Z" fill-opacity="1"/></g></g><g><g><path fill="rgb(255,255,255)" stroke="none" paint-order="stroke fill markers" d=" M 111.47890026076297 255.73438867648002 L 99.01923673640046 256.29395281057396 L 99.06285532146346 257.26519606971135 L 111.52251884582597 256.7056319356174 Z" fill-opacity="1"/></g></g><g><g><path fill="rgb(255,255,255)" stroke="none" paint-order="stroke fill markers" d=" M 112.68107668570202 230.9083372577832 L 100.32173104587417 229.23415013689078 L 100.19122648188478 230.1975735163874 L 112.55057212171265 231.8717606372798 Z" fill-opacity="1"/></g></g><g><g><path fill="rgb(255,255,255)" stroke="none" paint-order="stroke fill markers" d=" M 118.29679629234909 206.6959075882937 L 106.43500807522342 202.84177896400615 L 106.13457488624778 203.76641724373755 L 117.99636310337344 207.6205458680251 Z" fill-opacity="1"/></g></g><g><g><path fill="rgb(255,255,255)" stroke="none" paint-order="stroke fill markers" d=" M 128.145565231917 183.87530707964234 L 117.16258207070379 177.96511181713188 L 116.70187642663282 178.8212463619926 L 127.68485958784602 184.73144162450305 Z" fill-opacity="1"/></g></g><g><g><path fill="rgb(255,255,255)" stroke="none" paint-order="stroke fill markers" d=" M 141.910835967094 163.1800086090298 L 132.1596599774233 155.4037052469584 L 131.5534893367273 156.16381918824675 L 141.304665326398 163.9401225503182 Z" fill-opacity="1"/></g></g><g><g><path fill="rgb(255,255,255)" stroke="none" paint-order="stroke fill markers" d=" M 159.150181370349 145.27517609745 L 150.94422337182314 135.8827014242383 L 150.21207055765296 136.52236407445744 L 158.41802855617883 145.91483874766914 Z" fill-opacity="1"/></g></g><g><g><path fill="rgb(255,255,255)" stroke="none" paint-order="stroke fill markers" d=" M 179.30951469584073 130.73628559397022 L 172.91252093041706 120.02952147376917 L 172.07791793663745 120.5281735490249 L 178.47491170206112 131.23493766922596 Z" fill-opacity="1"/></g></g><g><g><path fill="rgb(255,255,255)" stroke="none" paint-order="stroke fill markers" d=" M 201.7408983833332 120.03062900201131 L 197.35847349409644 108.35369964319902 L 196.44824514764116 108.69531405550033 L 200.8306700368779 120.3722434143126 Z" fill-opacity="1"/></g></g><g><g><path fill="rgb(255,255,255)" stroke="none" paint-order="stroke fill markers" d=" M 225.72336930450643 113.50229493308242 L 223.49636803326786 101.23050645306063 L 222.53976982213032 101.40410343411486 L 224.76677109336887 113.67589191413666 Z" fill-opacity="1"/></g></g><g><g><path fill="rgb(255,255,255)" stroke="none" paint-order="stroke fill markers" d=" M 250.4861111111111 111.36110941569011 L 250.4861111111111 98.88888719346788 L 249.51388888888886 98.88888719346788 L 249.51388888888886 111.36110941569011 Z" fill-opacity="1"/></g></g><g><g><path fill="rgb(255,255,255)" stroke="none" paint-order="stroke fill markers" d=" M 275.2332289066311 113.67589191413666 L 277.4602301778696 101.40410343411486 L 276.5036319667321 101.23050645306063 L 274.2766306954935 113.50229493308242 Z" fill-opacity="1"/></g></g><g><g><path fill="rgb(255,255,255)" stroke="none" paint-order="stroke fill markers" d=" M 299.16932996312204 120.37224341431258 L 303.5517548523588 108.6953140555003 L 302.64152650590347 108.353699643199 L 298.2591016166667 120.03062900201128 Z" fill-opacity="1"/></g></g><g><g><path fill="rgb(255,255,255)" stroke="none" paint-order="stroke fill markers" d=" M 321.52508829793874 131.2349376692259 L 327.92208206336244 120.52817354902484 L 327.08747906958286 120.02952147376911 L 320.69048530415915 130.73628559397017 Z" fill-opacity="1"/></g></g></g></g></svg>