<svg version="1.1" xmlns="http://www.w3.org/2000/svg" xmlns:xlink="http://www.w3.org/1999/xlink" width="200" height="200" viewBox="0 0 200 200"><defs/><g><g/><g><g><g><path fill="rgb(255,255,255)" stroke="none" paint-order="stroke fill markers" d=" M 103.22222222222223 23.333335876464844 L 105.42222222222222 23.333335876464844 L 105.42222222222222 7.822224765353729 L 102.55555555555556 7.822224765353729 L 100.15555555555555 13.977780320909286 L 100 13.977780320909286 L 97.62222222222222 7.822224765353729 L 94.57777777777778 7.822224765353729 L 94.57777777777778 23.333335876464844 L 96.77777777777777 23.333335876464844 L 96.77777777777777 15.91111365424262 L 96.71111111111111 11.244446987575952 L 96.88888888888889 11.244446987575952 L 100 19.222224765353733 L 103.11111111111111 11.244446987575952 L 103.28888888888889 11.244446987575952 L 103.22222222222223 15.91111365424262 Z" fill-opacity="1"/></g></g><g><g><path fill="rgb(255,255,255)" stroke="none" paint-order="stroke fill markers" d=" M 116.02892739113634 24.989969326221942 L 118.4122235057419 25.422473804734196 L 120.45967589943294 14.14008118880324 L 118.07637978482737 13.707576710290986 L 116.68760393639353 21.36036239939144 C 116.449528076662 22.672268517522948 115.1100123675357 23.084152338870428 113.88556665727963 22.861948203121013 C 112.35500951945954 22.584193033434246 111.70868591742831 21.540910405876616 112.03405625906139 19.74797204443022 L 113.28792245364737 12.838599822270954 L 110.9046263390418 12.406095343758702 L 109.58727324852741 19.665309197419703 C 109.09128187408675 22.39844694352701 110.34011591122454 24.228624353002726 112.61408651598583 24.641289176537352 C 114.47262018333879 24.978563311157 115.57347929182501 24.139421722401572 116.26877980889826 23.046000697984773 L 116.37810531874256 23.0658403529624 Z" fill-opacity="1"/></g></g><g><g><path fill="rgb(255,255,255)" stroke="none" paint-order="stroke fill markers" d=" M 126.86584088556974 28.479466593516513 C 129.79937681357424 29.58044104230472 132.08055043117741 28.941228553875654 132.89261669127652 26.777485741730484 C 133.72029961022366 24.572132490890212 132.06646309281703 23.286836700996133 130.45413505940633 22.39689105605509 L 128.84961535541962 21.4861401917665 C 128.00184090001918 21.025550710447916 127.34655295659573 20.494788219012246 127.69011945125305 19.579358567720057 C 128.0414942753344 18.64312369708032 129.019492516718 18.44051495085226 130.49666309039404 18.994906339958376 C 132.18188585754555 19.627381023304796 132.91767295473545 20.63933430600824 133.2373556649744 21.495121000231087 L 135.00620712831284 20.639895056853724 C 134.4265866196035 19.21183738719929 133.22527636734347 18.048906076514736 131.2279753099787 17.299306451807873 C 128.48168635610213 16.268606967835936 126.21356060577209 16.746566261984093 125.39368601624896 18.931114293476814 C 124.5660030973018 21.13646754431708 126.23283650463196 22.450376882982738 127.82435931869513 23.33251419849975 L 129.42887902268183 24.243265062788346 C 130.29745869742982 24.71166287353096 130.9319414215057 25.2346170355426 130.5883749268484 26.150046686834788 C 130.19015012622287 27.211112873559824 129.01190802078779 27.314833106200034 127.55554266645932 26.768250046517945 C 125.95354077669799 26.167008680867646 125.02007860703156 25.175809640162164 124.46645187816928 23.804979068050883 L 122.60400241644166 24.53013415749387 C 123.15495839902981 26.161055460124313 124.55646153799172 27.6127420274492 126.86584088556974 28.479466593516513 Z" fill-opacity="1"/></g></g><g><g><path fill="rgb(255,255,255)" stroke="none" paint-order="stroke fill markers" d=" M 146.88536375481277 22.91357273544623 C 147.915502307135 23.52905186833332 148.5933769090148 23.26101446643264 148.96950304577913 22.63148535112461 L 149.2088560419019 22.230875914110406 C 149.58498217866622 21.601346798802368 149.49979118623324 20.87739892809644 148.4505759940532 20.25052203348922 C 147.42043744173094 19.635042900602134 146.74256283985116 19.90308030250281 146.3664367030868 20.532609417810846 L 146.12708370696407 20.93321885482505 C 145.75095757019974 21.56274797013309 145.8361485626327 22.28669584083901 146.88536375481277 22.91357273544623 Z M 135.52602529837645 31.917440091365656 L 144.1105132343951 37.04643286542472 L 145.11351626576666 35.367688557936624 L 141.96587068922648 33.48705787411497 L 146.84411270544265 25.32225601496833 L 141.40727034596418 22.07389392473092 L 140.40426731459263 23.752638232219013 L 143.7617559295688 25.758644294962117 L 139.88651694472418 32.24470184662066 L 136.529028329748 30.23869578387756 Z" fill-opacity="1"/></g></g><g><g><path fill="rgb(255,255,255)" stroke="none" paint-order="stroke fill markers" d=" M 150.58448049643752 42.74313826343622 C 152.3918520148462 44.32219120569153 154.25875564251658 44.44830786950879 155.86371001242276 43.72588192292547 L 155.24133846332847 41.73620192493982 C 154.10865731930463 42.22204734444266 152.9881278436555 42.18735126889747 151.9170928697837 41.251616192005436 C 150.49462454511018 40.0088430430082 150.52685142845363 38.384506993777784 151.7111411351451 37.02897835497129 L 152.96853514471877 35.58977510883105 C 154.16744571198672 34.2175115485578 155.77486927409464 33.99889217555575 157.14713283436788 35.19780274282367 C 158.15122812237271 36.075054377409955 158.34852932081594 37.13269472331701 157.94795659954838 38.19914644409674 L 160.042984510738 38.672113205623624 C 160.56016898530564 36.99933132157183 160.23691196172248 35.241471031918884 158.4630102862473 33.69165981081645 C 155.9193022233018 31.46928900319786 152.8444990878351 31.881336584173987 150.4320570927228 34.64259862618723 C 148.0196150976105 37.403860668200466 148.00730259055848 40.49152573466476 150.58448049643752 42.74313826343622 Z" fill-opacity="1"/></g></g><g><g><path fill="rgb(255,255,255)" stroke="none" paint-order="stroke fill markers" d="" fill-opacity="1"/></g></g><g><g><path fill="rgb(255,255,255)" stroke="none" paint-order="stroke fill markers" d="" fill-opacity="1"/></g></g><g><g><path fill="rgb(255,255,255)" stroke="none" paint-order="stroke fill markers" d="" fill-opacity="1"/></g></g><g><g><path fill="rgb(255,255,255)" stroke="none" paint-order="stroke fill markers" d="" fill-opacity="1"/></g></g><g><g><path fill="rgb(255,255,255)" stroke="none" paint-order="stroke fill markers" d="" fill-opacity="1"/></g></g><g><g><path fill="rgb(255,255,255)" stroke="none" paint-order="stroke fill markers" d=" M 174.5141594691823 116.8706084000715 C 173.7031942876526 120.42367901335636 175.121347985243 122.79879706705874 177.91614133349756 123.43669041106685 C 180.0609827402976 123.92623646577074 181.88789252053607 123.11235646548266 183.00924762406225 120.49629123317344 L 183.65681677897626 118.95736026961738 C 184.38538991432713 117.16339343912297 185.22701927451618 116.67167860625958 186.46192796327983 116.95353845593758 C 187.93515236391013 117.28979231169379 188.4925737596993 118.44273697104066 188.08709116893445 120.21927227768309 C 187.70633312638697 121.88748226074978 186.78252572840012 122.83910836227481 185.576361120336 123.42997006820733 L 186.74677197535345 125.2926682733111 C 188.34902671529474 124.56427447452265 189.55800212666145 123.06230599319282 190.10194218744354 120.67914887452615 C 190.83378881467766 117.4727192966837 189.75050090710147 115.12844475820312 186.9123774294166 114.48066159490807 C 184.8975264109075 114.02078499806503 182.95357554516724 114.64839517784273 181.8242160484954 117.39939570808633 L 181.1884221390096 118.98660171071617 C 180.46973882294566 120.73723841178027 179.6448296178283 121.2555632190023 178.34492573491917 120.95886864039387 C 176.74171094599797 120.59294532677683 176.0740788004918 119.3236709507085 176.50923084911747 117.41714525577515 C 176.88009907237802 115.79226540213878 177.82180068279752 114.66237387324904 179.44877997095617 113.82565475088485 L 178.3099239999408 111.92457132599425 C 176.53128925877607 112.72667608085413 175.1124935360426 114.24913556953815 174.5141594691823 116.8706084000715 Z" fill-opacity="1"/></g></g><g><g><path fill="rgb(255,255,255)" stroke="none" paint-order="stroke fill markers" d=" M 170.25191948445078 130.0271114188454 C 168.92436826641975 133.13307189501919 170.25768133695502 135.95048769881802 173.62928316964368 137.39157948154906 C 177.00088500233232 138.83267126428012 179.95870153703717 137.84937227486628 181.28625275506818 134.74341179869248 C 182.6138039730992 131.6374513225187 181.28049090256394 128.8200355187199 177.9088890698753 127.37894373598883 C 174.53728723718663 125.93785195325778 171.5794707024818 126.92115094267162 170.25191948445078 130.0271114188454 Z M 172.0092392275491 130.77822592378402 C 172.69921650534155 129.1639438341937 174.15464233869767 128.52933899815739 176.11630158680742 129.3677923990191 L 177.7101497258966 130.04903578721922 C 179.67180897400638 130.88748918808093 180.2189102897623 132.37801520416355 179.52893301196985 133.9922972937539 C 178.83895573417743 135.6065793833442 177.38352990082132 136.2411842193805 175.42187065271153 135.4027308185188 L 173.82802251362236 134.72148743031866 C 171.8663632655126 133.88303402945695 171.31926194975665 132.39250801337434 172.0092392275491 130.77822592378402 Z" fill-opacity="1"/></g></g><g><g><path fill="rgb(255,255,255)" stroke="none" paint-order="stroke fill markers" d=" M 162.67403672919534 144.2198635802839 L 161.3396418185669 146.24138546151997 L 170.9094151279045 152.5583375155041 L 172.24381003853293 150.53681563426804 L 165.75268473181168 146.25206133408503 C 164.6399203935166 145.5175320254822 164.7876449847033 144.1239294772488 165.47320567273258 143.0853494281734 C 166.33015653276917 141.78712436682915 167.54350523757586 141.60284805242577 169.06428316657912 142.60670477418293 L 174.92484201493315 146.47522579949103 L 176.2592369255616 144.45370391825497 L 170.10194092032887 140.3893084106528 C 167.78368188221413 138.8590390177303 165.60995988852835 139.28807106389456 164.33677575361685 141.21686258360603 C 163.29619256642954 142.79327872952405 163.63514137643378 144.13535290292606 164.367301867745 145.20444287137678 L 164.30609109202808 145.29717323290137 Z" fill-opacity="1"/></g></g><g><g><path fill="rgb(255,255,255)" stroke="none" paint-order="stroke fill markers" d=" M 157.05746446508417 151.26282243309572 L 162.67920229485276 156.63775414743802 C 163.64292877995595 157.55917101275384 163.24874084012774 158.90400055041945 162.38875176583295 159.80347860318244 C 161.3137654229645 160.92782616913615 160.08701192453256 160.8924893103173 158.7699190615582 159.63321959438568 L 153.69429290668143 154.78042410372237 L 152.02038560135767 156.53119388499317 L 157.35300548559533 161.6297005397407 C 159.36076899622697 163.54931900914866 161.5761650131342 163.51531473381866 163.1732875796816 161.84485549297312 C 164.47862813887903 160.47957630574362 164.38476297268767 159.09854816942925 163.8552619867106 157.91590661277385 L 163.9320467254869 157.83559607234858 L 165.3455122369716 159.1870074748118 L 167.0194195422953 157.436237693541 L 158.7313717704079 149.51205265182494 Z" fill-opacity="1"/></g></g><g><g><path fill="rgb(255,255,255)" stroke="none" paint-order="stroke fill markers" d=" M 143.04998110605231 163.48756636145953 L 141.0903621641219 164.91131286145685 L 150.75616409070923 178.2151478800671 L 152.71578303263965 176.79140138006977 L 148.6404719500785 171.1822168857368 L 148.74834088266184 171.10384551876447 C 150.09752300429255 171.82663432059718 151.492782766645 171.85670950218883 152.85912257936715 170.86400552053934 C 155.03447938646423 169.28351628659735 155.22201932197635 166.5927200609155 152.91006399629262 163.41058654970738 C 150.5981086706089 160.22845303849925 147.98105635895456 159.57531235409797 145.80569955185746 161.15580158803996 C 144.43935973913534 162.14850556968946 144.03680395843236 163.48477020081995 144.3072967542298 164.99127267237597 L 144.19942782164648 165.0696440393483 Z M 146.1591911675721 163.34364267365177 C 147.63339991287754 162.27256732502994 149.19677741535995 162.64745683242717 150.29397655297257 164.15762188859375 L 151.3911756905852 165.6677869447603 C 152.4883748281978 167.1779520009269 152.3618057202081 168.78065959089062 150.88759697490264 169.85173493951245 C 149.75497318277772 170.67463429272192 148.36617216567535 170.80467562169514 147.5432728124659 169.67205182957022 L 145.2966269592591 166.57980909551486 C 144.47372760604964 165.44718530338994 145.02656737544714 164.16654202686124 146.1591911675721 163.34364267365177 Z" fill-opacity="1"/></g></g><g><g><path fill="rgb(255,255,255)" stroke="none" paint-order="stroke fill markers" d="" fill-opacity="1"/></g></g><g><g><path fill="rgb(255,255,255)" stroke="none" paint-order="stroke fill markers" d="" fill-opacity="1"/></g></g><g><g><path fill="rgb(255,255,255)" stroke="none" paint-order="stroke fill markers" d="" fill-opacity="1"/></g></g><g><g><path fill="rgb(255,255,255)" stroke="none" paint-order="stroke fill markers" d="" fill-opacity="1"/></g></g><g><g><path fill="rgb(255,255,255)" stroke="none" paint-order="stroke fill markers" d="" fill-opacity="1"/></g></g><g><g><path fill="rgb(255,255,255)" stroke="none" paint-order="stroke fill markers" d=" M 68.8178202657851 170.0770311116415 L 66.13738294412553 175.64301656223867 L 63.154174914848625 174.2063792927161 C 60.511332902334864 172.93365365797126 58.278412313750835 173.8315202463404 57.02497040074456 176.43431919805852 C 55.77152848773828 179.0371181497766 56.46175133723766 181.3426964250605 59.10459334975142 182.61542205980535 L 64.33021278358545 185.1319477466872 L 71.06023167034223 171.15691952900076 Z M 62.98449443987127 182.19005700232958 L 60.34165242735751 180.91733136758475 C 58.9401452995093 180.24240110673523 58.55831095293068 179.29391039484696 59.17539004856454 178.01253244938573 L 59.58999006594354 177.15160664227898 C 60.2070691615774 175.87022869681775 61.196340742920604 175.55736299364264 62.59784787076881 176.23229325449216 L 65.24068988328257 177.50501888923702 Z" fill-opacity="1"/></g></g><g><g><path fill="rgb(255,255,255)" stroke="none" paint-order="stroke fill markers" d=" M 58.96357230216978 164.950498544943 L 51.89815721796191 159.8171740082554 L 50.748710502367736 161.3992516861442 L 53.39149935065923 163.31935017696628 L 50.87055371304929 166.78913417506328 C 49.93009730938134 168.08356136606318 48.31447222891737 168.53036349518266 46.71441639559803 167.3678548850931 L 44.88064454168148 166.03554164656347 L 43.522207514161096 167.90526981134113 L 44.63685315085547 168.7151072700552 C 46.52455947106368 170.08660619207097 48.18259960763887 169.5058113413774 49.48261911991791 168.47262204028527 L 49.590488052501236 168.5509934072576 L 47.801008506633046 171.01400070124356 L 52.22363474254942 174.22722674710906 L 53.373081458143595 172.64514906922028 L 50.91007416415764 170.85566952335208 L 55.35111829258966 164.7430966769636 L 57.814125586575614 166.53257622283178 Z" fill-opacity="1"/></g></g><g><g><path fill="rgb(255,255,255)" stroke="none" paint-order="stroke fill markers" d=" M 44.778474241749684 152.79718462513327 C 42.44421818294961 150.3557441962052 39.329500692779504 150.4744476585979 36.67925285874574 153.00834403821642 C 34.02900502471197 155.54224041783493 33.770679817020905 158.64849598404757 36.104935875820985 161.08993641297565 C 38.439191934621064 163.53137684190372 41.553909424791165 163.41267337951098 44.204157258824935 160.87877699989247 C 46.854405092858705 158.34488062027395 47.112730300549764 155.23862505406134 44.778474241749684 152.79718462513327 Z M 43.397132946435114 154.11788213208592 C 44.61033181910094 155.38678867080512 44.62184980620705 156.9745087312358 43.07988743004195 158.44877571574114 L 41.8270429994078 159.6466176406517 C 40.285080623242706 161.120884625157 38.69947604380138 161.03814544474216 37.486277171135555 159.76923890602296 C 36.27307829846973 158.50033236730377 36.261560311363624 156.9126123068731 37.80352268752873 155.43834532236778 L 39.05636711816287 154.2405033974572 C 40.59832949432797 152.76623641295188 42.18393407376929 152.84897559336673 43.397132946435114 154.11788213208592 Z" fill-opacity="1"/></g></g><g><g><path fill="rgb(255,255,255)" stroke="none" paint-order="stroke fill markers" d=" M 34.644931294404444 140.15827374550696 L 33.31053638377602 138.1367518642709 L 19.58644287813682 147.19594667037214 L 20.920837788765247 149.2174685516082 L 26.70721234789961 145.39791614687363 L 26.78066527875989 145.50919258070311 C 25.998073450156383 146.82458836874022 25.90543045973851 148.21709387943454 26.835834250635394 149.6265953746083 C 28.31713502298438 151.87067012350337 30.99680784852539 152.17874333495263 34.279462646495844 150.01188187457433 C 37.5621174444663 147.84502041419609 38.33201406764002 145.25990634607814 36.85071329529103 143.01583159718308 C 35.92030950439414 141.6063301020093 34.60345099963826 141.14422838221188 33.08632986243195 141.3468598319539 L 33.012876931571675 141.2355833981244 Z M 34.64921587870124 143.2708101512226 C 35.6530726004584 144.79158808022586 35.20841991542679 146.3365720114429 33.650549841813685 147.36491304348684 L 32.09267976820059 148.39325407553076 C 30.53480969458749 149.4215951075747 28.939394426078145 149.22324824212944 27.93553770432098 147.70247031312618 C 27.164281930288038 146.53406775791635 27.096679866302885 145.14083088886264 28.26508242151271 144.3695751148297 L 31.455006857958576 142.26392443016832 C 32.6234094131684 141.49266865613538 33.8779601046683 142.10240759601277 34.64921587870124 143.2708101512226 Z" fill-opacity="1"/></g></g><g><g><path fill="rgb(255,255,255)" stroke="none" paint-order="stroke fill markers" d=" M 28.568346923158405 127.9454853903308 L 27.61635295759668 125.71818478570619 L 17.07243449900671 130.22487181533785 L 18.024428464568437 132.45217241996247 L 25.17631113996861 129.39531106265417 C 26.40234817003721 128.8712776871156 27.484030551739696 129.76229611700265 27.973128368909023 130.9065973450667 C 28.58450064037068 132.33697388014673 28.069862584739255 133.4511195219737 26.3942786436455 134.1672984685431 L 19.9371502852842 136.92720757971287 L 20.889144250845927 139.1545081843375 L 27.67321581722552 136.25485683969077 C 30.227459629868438 135.1631206406521 31.066897843987956 133.11263794451807 30.158573326387778 130.98750709239917 C 29.416192711041475 129.250621299802 28.109407625111885 128.7941543000002 26.813828727019338 128.81623742695976 L 26.770159279057793 128.71406767445404 Z" fill-opacity="1"/></g></g><g><g><path fill="rgb(255,255,255)" stroke="none" paint-order="stroke fill markers" d=" M 25.421556705452566 116.58896255877455 C 24.88750646395741 114.24913556953818 23.451279217371944 113.04976662544017 21.728212539646393 112.69085298417028 L 21.062217140081856 114.66635873391262 C 22.264148207282805 114.93907480490257 23.15028175426313 115.62577522020233 23.466755971445444 117.01233936197204 C 23.887073291140705 118.85386986275992 22.906240420335475 120.14904284440658 21.151370178408193 120.54958052552794 L 19.288174612905152 120.97484275486667 C 17.51163930626272 121.38032534563152 16.082705084042644 120.61237226969529 15.677222493277801 118.83583696305286 C 15.380527914669383 117.53593308014375 15.842573289671932 116.56431333166378 16.793488022416685 115.93698650390432 L 15.37657772582445 114.32292184671621 C 13.97493017492469 115.37223741193117 13.203206246705946 116.98438197115941 13.727366668914154 119.28087883096548 C 14.47899293472215 122.57396866766854 17.20875641701265 124.04793910889775 20.78349209501267 123.2320290177246 C 24.35822777301269 122.41611892655143 26.18307279054751 119.9253825249079 25.421556705452566 116.58896255877455 Z" fill-opacity="1"/></g></g><g><g><path fill="rgb(255,255,255)" stroke="none" paint-order="stroke fill markers" d=" M 23.18321896529402 98.37807200896634 L 21.22963252405767 98.46580767720735 L 21.44897169466019 103.34977378029822 L 13.901024080792478 103.68875249850211 L 13.68168491018996 98.80478639541124 L 11.728098468953611 98.89252206365225 L 11.94743763955613 103.77648816674312 L 7.907065681544589 103.9579414806052 L 8.008759297005756 106.22232576476551 L 10.87253942109086 106.09371325109403 C 11.760533258016473 106.05383340189358 12.064086198467468 106.37387013975054 12.101972055207904 107.21746428482987 L 12.214632629199198 109.72604687414473 L 14.168219070435546 109.63831120590372 L 14.009696669863725 106.1085357041244 L 20.603050909036405 105.812427823811 C 22.312439045118207 105.73565911410012 23.469356883307306 104.74942778890761 23.379627222606274 102.75144165582498 Z" fill-opacity="1"/></g></g><g><g><path fill="rgb(255,255,255)" stroke="none" paint-order="stroke fill markers" d=" M 10.689767669634444 87.18450141701163 C 10.85084758861563 85.99536170289011 10.337958066624227 85.47738258852083 9.611261574661075 85.37894486025455 L 9.148818352502705 85.31630266953964 C 8.422121860539551 85.21786494127336 7.789913880043564 85.58073005958668 7.625850999599763 86.79189087952527 C 7.464771080618576 87.98103059364679 7.977660602609983 88.49900970801608 8.704357094573135 88.59744743628237 L 9.166800316731505 88.66008962699726 C 9.893496808694657 88.75852735526355 10.525704789190643 88.39566223695022 10.689767669634444 87.18450141701163 Z M 23.433578120180268 94.09098335294858 L 24.77591077835682 84.18148573526923 L 22.83805346645508 83.91898512655915 L 22.345864825123677 87.55246758637492 L 12.920831535419763 86.27576008037587 L 12.070687518574612 92.55177523823947 L 14.008544830476351 92.81427584694956 L 14.533546047896515 88.93856122314607 L 22.02072202569869 89.95276812043502 L 21.495720808278527 93.8284827442385 Z" fill-opacity="1"/></g></g><g><g><path fill="rgb(255,255,255)" stroke="none" paint-order="stroke fill markers" d=" M 27.339284573712057 76.39110241562489 C 28.383075310267433 73.17864484947236 26.802578560620297 70.4920883955875 23.315371334204734 69.35902608287937 C 19.82816410778917 68.22596377017122 16.970397114725586 69.470440916973 15.92660637817021 72.68289848312551 C 14.882815641614831 75.89535604927804 16.463312391261965 78.5819125031629 19.95051961767753 79.71497481587105 C 23.437726844093095 80.84803712857918 26.295493837156677 79.60355998177741 27.339284573712057 76.39110241562489 Z M 25.52170989812576 75.80053660415277 C 24.979213396889744 77.47016915498203 23.586532218979524 78.2326826243815 21.557611650883196 77.57344636971494 L 19.90911368930493 77.03781691279836 C 17.880193121208602 76.37858065813181 17.201684552520483 74.94309684542691 17.744181053756503 73.27346429459764 C 18.286677554992522 71.60383174376837 19.67935873290274 70.84131827436892 21.708279300999067 71.50055452903547 L 23.356777262577335 72.03618398595204 C 25.385697830673664 72.6954202406186 26.06420639936178 74.13090405332349 25.52170989812576 75.80053660415277 Z" fill-opacity="1"/></g></g><g><g><path fill="rgb(255,255,255)" stroke="none" paint-order="stroke fill markers" d=" M 31.360923755240083 65.76393090237313 L 24.51184739635434 62.07828574980537 C 23.33772002054536 61.44646086650803 23.359928346648523 60.04522662215927 23.94963157105937 58.949374404737554 C 24.68676060157292 57.579559132960405 25.878706319742413 57.28726092146471 27.48334706668136 58.150754928637724 L 33.66708457927535 61.47836598067034 L 34.81489978393216 59.345367914617356 L 28.318061637789118 55.84927022703879 C 25.871962938187067 54.53296838683601 23.745449846299547 55.15512421337798 22.65028671525084 57.19027833144689 C 21.755201463912954 58.853625447176285 22.213088367058376 60.1599136874372 23.038133881410776 61.159069453534755 L 22.985481807802664 61.25691340151884 L 21.26342832328282 60.33023690601608 L 20.115613118626 62.463234972069074 L 30.213108550583264 67.89692896842612 Z" fill-opacity="1"/></g></g><g><g><path fill="rgb(255,255,255)" stroke="none" paint-order="stroke fill markers" d="" fill-opacity="1"/></g></g><g><g><path fill="rgb(255,255,255)" stroke="none" paint-order="stroke fill markers" d="" fill-opacity="1"/></g></g><g><g><path fill="rgb(255,255,255)" stroke="none" paint-order="stroke fill markers" d="" fill-opacity="1"/></g></g><g><g><path fill="rgb(255,255,255)" stroke="none" paint-order="stroke fill markers" d="" fill-opacity="1"/></g></g><g><g><path fill="rgb(255,255,255)" stroke="none" paint-order="stroke fill markers" d="" fill-opacity="1"/></g></g></g><g><g><g><path fill="rgb(255,255,255)" stroke="none" paint-order="stroke fill markers" d=" M 100 41.83333206176758 L 101.96666666666667 44.53333206176758 L 103.25 43.64999872843424 L 101.25 40.949998728434245 L 104.36666666666667 39.89999872843424 L 103.9 38.46666539510091 L 100.8 39.51666539510091 L 100.8 36.18333206176757 L 99.2 36.18333206176757 L 99.2 39.51666539510091 L 96.1 38.46666539510091 L 95.63333333333333 39.89999872843424 L 98.75 40.949998728434245 L 96.75 43.64999872843424 L 98.03333333333333 44.53333206176758 Z" fill-opacity="1"/></g></g><g><g><path fill="rgb(255,255,255)" stroke="none" paint-order="stroke fill markers" d=" M 125.23757137704966 47.5936430380348 L 125.83799072164035 50.879563668302524 L 127.37749807166897 50.64052530018959 L 126.74704643148154 47.34014187861794 L 130.01064399585084 47.74639555423679 L 130.21209188356488 46.252527765321794 L 126.96351046699394 45.8535054853549 L 128.4097895973858 42.85027592568017 L 126.96823940874194 42.156061943092084 L 125.52196027835006 45.15929150276681 L 123.18453471392601 42.86823460020484 L 122.14218254950305 43.95714423261012 L 124.49462426172548 46.255432530824045 L 121.52120043030324 47.82028099592546 L 122.29417984122416 49.17295429444013 Z" fill-opacity="1"/></g></g><g><g><path fill="rgb(255,255,255)" stroke="none" paint-order="stroke fill markers" d=" M 145.47653222437387 63.73367573240871 L 144.59178383203238 66.95470011294776 L 146.0825468872645 67.40730119047318 L 146.94651228621072 64.16021576051854 L 149.71064522526186 65.94225958892557 L 150.54030844259864 64.68373618110962 L 147.78656700024513 62.914722877410405 L 150.39267194180522 60.836423537881295 L 149.39508825883127 59.58549316593245 L 146.78898331727115 61.66379250546156 L 145.6770879881005 58.585450617858996 L 144.2655009556956 59.1142646420381 L 145.38778778156387 62.205637054348465 L 142.02986317518273 62.32539655443099 L 142.13939061138802 63.87949628190684 Z" fill-opacity="1"/></g></g><g><g><path fill="rgb(255,255,255)" stroke="none" paint-order="stroke fill markers" d=" M 156.70830813159435 87.0566987252577 L 154.51362727215084 89.57486347423068 L 155.6603821264887 90.6294608032026 L 157.84764562146702 88.0787984571569 L 159.56484350675512 90.8836768028028 L 160.85839707836945 90.10976377178056 L 159.14490787531395 87.32113422467104 L 162.3946675825867 86.57939777815 L 162.0386340882566 85.01951311865908 L 158.78887438098386 85.76124956518012 L 159.1227337935102 82.50532605676234 L 157.62149401686997 82.3693063697482 L 157.29134328657622 85.64147867670235 L 154.21399605577267 84.29242937402076 L 153.638378265256 85.74014701964884 Z" fill-opacity="1"/></g></g><g><g><path fill="rgb(255,255,255)" stroke="none" paint-order="stroke fill markers" d=" M 156.70830813159435 112.94330127474228 L 153.638378265256 114.25985298035116 L 154.21399605577267 115.70757062597923 L 157.29134328657622 114.35852132329764 L 157.62149401686997 117.63069363025178 L 159.1227337935102 117.49467394323764 L 158.78887438098386 114.23875043481986 L 162.0386340882566 114.98048688134091 L 162.3946675825867 113.42060222184999 L 159.14490787531395 112.67886577532894 L 160.85839707836945 109.89023622821942 L 159.56484350675512 109.11632319719719 L 157.84764562146702 111.92120154284308 L 155.6603821264887 109.37053919679738 L 154.51362727215084 110.4251365257693 Z" fill-opacity="1"/></g></g><g><g><path fill="rgb(255,255,255)" stroke="none" paint-order="stroke fill markers" d=" M 145.47653222437387 136.26632426759127 L 142.13939061138802 136.12050371809318 L 142.02986317518273 137.674603445569 L 145.38778778156387 137.79436294565153 L 144.2655009556956 140.8857353579619 L 145.6770879881005 141.414549382141 L 146.78898331727115 138.33620749453843 L 149.39508825883127 140.41450683406754 L 150.39267194180522 139.1635764621187 L 147.78656700024513 137.0852771225896 L 150.54030844259864 135.31626381889038 L 149.71064522526186 134.05774041107443 L 146.94651228621072 135.83978423948145 L 146.0825468872645 132.5926988095268 L 144.59178383203238 133.04529988705224 Z" fill-opacity="1"/></g></g><g><g><path fill="rgb(255,255,255)" stroke="none" paint-order="stroke fill markers" d=" M 125.23757137704968 152.40635696196523 L 122.29417984122418 150.8270457055599 L 121.52120043030325 152.17971900407454 L 124.49462426172549 153.74456746917596 L 122.14218254950306 156.0428557673899 L 123.18453471392603 157.13176539979517 L 125.5219602783501 154.8407084972332 L 126.96823940874195 157.84393805690794 L 128.4097895973858 157.14972407431983 L 126.96351046699395 154.1464945146451 L 130.21209188356488 153.7474722346782 L 130.01064399585084 152.25360444576322 L 126.74704643148155 152.65985812138206 L 127.37749807166898 149.35947469981042 L 125.83799072164037 149.12043633169748 Z" fill-opacity="1"/></g></g><g><g><path fill="rgb(255,255,255)" stroke="none" paint-order="stroke fill markers" d=" M 100 158.16666793823242 L 98.03333333333333 155.46666793823243 L 96.75 156.35000127156576 L 98.75 159.05000127156575 L 95.63333333333333 160.10000127156576 L 96.1 161.5333346048991 L 99.2 160.48333460489908 L 99.2 163.81666793823243 L 100.8 163.81666793823243 L 100.8 160.48333460489908 L 103.9 161.5333346048991 L 104.36666666666667 160.10000127156576 L 101.25 159.05000127156575 L 103.25 156.35000127156576 L 101.96666666666667 155.46666793823243 Z" fill-opacity="1"/></g></g><g><g><path fill="rgb(255,255,255)" stroke="none" paint-order="stroke fill markers" d=" M 74.76242862295034 152.40635696196523 L 74.16200927835965 149.12043633169748 L 72.62250192833103 149.35947469981042 L 73.25295356851846 152.6598581213821 L 69.98935600414916 152.25360444576322 L 69.78790811643512 153.7474722346782 L 73.03648953300606 154.1464945146451 L 71.5902104026142 157.14972407431983 L 73.03176059125806 157.84393805690794 L 74.47803972164994 154.8407084972332 L 76.81546528607399 157.13176539979517 L 77.85781745049695 156.0428557673899 L 75.50537573827452 153.74456746917596 L 78.47879956969676 152.17971900407454 L 77.70582015877584 150.8270457055599 Z" fill-opacity="1"/></g></g><g><g><path fill="rgb(255,255,255)" stroke="none" paint-order="stroke fill markers" d=" M 54.52346777562613 136.26632426759127 L 55.40821616796764 133.04529988705224 L 53.9174531127355 132.5926988095268 L 53.05348771378929 135.83978423948147 L 50.289354774738136 134.05774041107443 L 49.45969155740137 135.31626381889038 L 52.21343299975487 137.0852771225896 L 49.607328058194774 139.1635764621187 L 50.60491174116875 140.41450683406757 L 53.21101668272885 138.33620749453843 L 54.32291201189949 141.414549382141 L 55.73449904430441 140.8857353579619 L 54.61221221843612 137.79436294565153 L 57.97013682481727 137.674603445569 L 57.860609388611984 136.12050371809318 Z" fill-opacity="1"/></g></g><g><g><path fill="rgb(255,255,255)" stroke="none" paint-order="stroke fill markers" d=" M 43.29169186840564 112.9433012747423 L 45.48637272784915 110.42513652576932 L 44.339617873511266 109.3705391967974 L 42.152354378532976 111.9212015428431 L 40.435156493244875 109.1163231971972 L 39.14160292163054 109.89023622821944 L 40.85509212468603 112.67886577532896 L 37.60533241741329 113.42060222185002 L 37.96136591174339 114.98048688134092 L 41.21112561901614 114.23875043481988 L 40.8772662064898 117.49467394323766 L 42.378505983130026 117.6306936302518 L 42.70865671342376 114.35852132329765 L 45.78600394422731 115.70757062597924 L 46.361621734743984 114.25985298035116 Z" fill-opacity="1"/></g></g><g><g><path fill="rgb(255,255,255)" stroke="none" paint-order="stroke fill markers" d=" M 43.29169186840564 87.05669872525772 L 46.361621734743984 85.74014701964884 L 45.78600394422731 84.29242937402077 L 42.70865671342376 85.64147867670236 L 42.378505983130026 82.36930636974822 L 40.87726620648979 82.50532605676236 L 41.21112561901614 85.76124956518014 L 37.96136591174339 85.01951311865909 L 37.60533241741329 86.57939777815001 L 40.85509212468603 87.32113422467106 L 39.14160292163054 90.10976377178058 L 40.435156493244875 90.88367680280281 L 42.152354378532976 88.07879845715692 L 44.33961787351127 90.62946080320262 L 45.48637272784915 89.5748634742307 Z" fill-opacity="1"/></g></g><g><g><path fill="rgb(255,255,255)" stroke="none" paint-order="stroke fill markers" d=" M 54.52346777562612 63.73367573240872 L 57.86060938861198 63.87949628190684 L 57.97013682481726 62.32539655443099 L 54.61221221843611 62.205637054348465 L 55.7344990443044 59.1142646420381 L 54.32291201189948 58.585450617858996 L 53.21101668272884 61.66379250546156 L 50.604911741168735 59.58549316593245 L 49.60732805819477 60.836423537881295 L 52.213432999754865 62.914722877410405 L 49.45969155740136 64.68373618110964 L 50.28935477473813 65.94225958892557 L 53.05348771378928 64.16021576051854 L 53.917453112735494 67.40730119047318 L 55.40821616796763 66.95470011294776 Z" fill-opacity="1"/></g></g><g><g><path fill="rgb(255,255,255)" stroke="none" paint-order="stroke fill markers" d=" M 74.76242862295032 47.5936430380348 L 77.70582015877582 49.17295429444013 L 78.47879956969675 47.82028099592546 L 75.5053757382745 46.255432530824045 L 77.85781745049694 43.95714423261011 L 76.81546528607397 42.86823460020484 L 74.4780397216499 45.15929150276681 L 73.03176059125805 42.156061943092084 L 71.59021040261418 42.85027592568017 L 73.03648953300605 45.85350548535491 L 69.7879081164351 46.252527765321794 L 69.98935600414914 47.74639555423679 L 73.25295356851845 47.34014187861794 L 72.62250192833102 50.64052530018959 L 74.16200927835963 50.879563668302524 Z" fill-opacity="1"/></g></g><g/><g/><g/><g/><g/><g/><g/><g/><g/><g/><g/><g/><g/><g/><g/><g/><g/><g/><g/><g/><g/></g></g></svg>