<svg version="1.1" xmlns="http://www.w3.org/2000/svg" xmlns:xlink="http://www.w3.org/1999/xlink" width="500" height="500" viewBox="0 0 500 500"><defs/><g><g><g><g><path fill="rgb(255,255,255)" stroke="none" paint-order="stroke fill markers" d=" M 253.22916666666666 75 L 254.83333333333334 75 L 254.83333333333334 60.458333333333336 L 252.66666666666666 60.458333333333336 L 250.10416666666666 66.875 L 249.97916666666666 66.875 L 247.41666666666666 60.458333333333336 L 245.16666666666666 60.458333333333336 L 245.16666666666666 75 L 246.77083333333334 75 L 246.77083333333334 67.70833333333333 L 246.77083333333334 63.10416666666667 L 246.9375 63.10416666666667 L 250 70.58333333333333 L 253.0625 63.10416666666667 L 253.22916666666666 63.10416666666667 L 253.22916666666666 67.70833333333333 Z" fill-opacity="1"/></g></g><g><g><path fill="rgb(255,255,255)" stroke="none" paint-order="stroke fill markers" d=" M 264.4781637938434 75.58141485895752 L 266.14094507582763 75.6951522145653 L 266.87455101949786 64.970212945767 L 265.2117697375136 64.8564755901592 L 264.7027950711688 72.29742182703865 C 264.60611831890213 73.71078591672524 263.23182006801676 74.2641237790079 261.90159504242934 74.17313389452168 C 260.2595985264699 74.06081825585899 259.4312525668779 73.04358519007887 259.56489395971704 71.0898171837474 L 260.0155782313129 64.50104635388489 L 258.35279694932865 64.38730899827709 L 257.88220864050146 71.26706655248685 C 257.70449402236426 73.86516230558722 259.0778487900783 75.46260736247494 261.32260352075696 75.61615279254545 C 263.08930863286525 75.73699873287872 263.9846765363867 74.85855293956648 264.51444895313233 73.82980764509368 L 264.59758801723154 73.83549451287406 Z" fill-opacity="1"/></g></g><g><g><path fill="rgb(255,255,255)" stroke="none" paint-order="stroke fill markers" d=" M 273.91895767282364 76.89465176128823 C 276.6433440244235 77.26911004630291 278.58569451725276 76.29535715059737 278.8750486465823 74.19014951527016 C 279.1927708278069 71.87854897451872 277.12366000572734 71.17357222915122 275.6275573626726 70.73661644916119 L 273.9898164910103 70.25916374230219 C 273.06026676238537 69.98419566978798 272.17121396062936 69.56758936866632 272.32440144086263 68.45306767937545 C 272.4747521159064 67.359185280627 273.48578754081115 66.88830208842445 275.15757007474747 67.11808330877437 C 277.035745514108 67.37623258101934 277.8830278922373 68.24974007926382 278.2961035147598 68.91636282954222 L 279.5083500772516 68.05255146281775 C 278.6445387105271 66.84030490032596 277.329007914517 66.00758414062449 275.40955389407156 65.7437612580005 C 272.9328390289807 65.40334463525988 270.9719043965827 66.20630959624704 270.67971346206366 68.33215652211666 C 270.3619912808391 70.6437570628681 272.451741393461 71.35157061342511 273.9272047459734 71.78568958822564 L 275.56494561763566 72.26314229508463 C 276.515134636803 72.54094717278835 277.3835481480166 72.95471666872051 277.2303606677833 74.06923835801138 C 277.0573155512235 75.32823508109921 275.8014454449992 75.74443732048528 274.1503022016053 75.51749290532487 C 272.45788037712657 75.28487487978545 271.3843474572465 74.52747436344288 270.52053609052206 73.31522780095109 L 269.2726845573244 74.13208697621172 C 270.21416113005546 75.54427117953284 271.6899142942419 76.58827680082167 273.91895767282364 76.89465176128823 Z" fill-opacity="1"/></g></g><g><g><path fill="rgb(255,255,255)" stroke="none" paint-order="stroke fill markers" d=" M 288.9278851806483 65.9454433467981 C 289.8661740980105 66.14042202597354 290.30618371838045 65.76373249040861 290.42910505959975 65.17220252076721 L 290.4969237306173 64.84584115820644 C 290.6198450718366 64.25431118856504 290.36633679676487 63.73350697708783 289.42804787940264 63.53852829791239 C 288.4897589620404 63.34354961873695 288.04974934167046 63.72023915430187 287.92682800045117 64.31176912394328 L 287.85900932943366 64.63813048650405 C 287.73608798821436 65.22966045614545 287.98959626328605 65.75046466762267 288.9278851806483 65.9454433467981 Z M 281.6476707631615 77.83798326950577 L 290.6226082335828 79.70299672248825 L 290.91083758540736 78.31596093160496 L 287.36165776755894 77.57843288428916 L 289.26058055605023 68.44031473258748 L 283.83482290347735 67.3128293269208 L 283.5465935516528 68.6998651178041 L 287.34054439142176 69.48825716838304 L 285.7298509547551 77.23933952920143 L 281.93590011498605 76.45094747862248 Z" fill-opacity="1"/></g></g><g><g><path fill="rgb(255,255,255)" stroke="none" paint-order="stroke fill markers" d=" M 297.5080797424454 81.83137782515597 C 299.5743397548792 82.41031672993041 301.164949317517 81.75256690639851 302.1546054806476 80.53699628780919 L 301.2303510784872 79.43424232609013 C 300.39400798149063 80.41150591028584 299.30016697836584 80.84063784919749 297.91597337780337 80.45280499065927 C 295.97007802628804 79.90759068227945 295.2978881920021 78.29129957675612 295.80937790398735 76.46576888615925 L 296.3040053177752 74.70042052602162 C 296.8154950297604 72.87488983542475 298.2496867615478 71.8487791668074 300.13539978260394 72.3771311769899 C 301.4192894990677 72.73686020519928 302.1277199310976 73.60605799350533 302.2109740891869 74.77607372020152 L 303.68596985188685 74.45373633653952 C 303.4976609487182 72.88647974324995 302.52931032311676 71.55501418300459 300.52323264114216 70.99293757642745 C 297.5943592254593 70.17230573082483 295.2532704391696 71.80974142599578 294.33146480438313 75.0997088244341 C 293.4152799356624 78.36961544605266 294.539084773123 80.9995044474218 297.5080797424454 81.83137782515597 Z" fill-opacity="1"/></g></g><g><g><path fill="rgb(255,255,255)" stroke="none" paint-order="stroke fill markers" d="" fill-opacity="1"/></g></g><g><g><path fill="rgb(255,255,255)" stroke="none" paint-order="stroke fill markers" d=" M 317.31251105664046 88.44221937569932 L 319.76931777735894 82.78608301641569 L 323.0177744701908 84.1970868762878 C 325.4827798429867 85.26778980524958 327.4428813605669 84.4156487360064 328.4886842214133 82.00796906955459 C 329.53448708225966 79.60028940310278 328.8193889704489 77.5861451551414 326.35438359765305 76.51544222617963 L 321.5008071271867 74.4072364590766 L 315.70739127900595 87.74501746846839 Z M 322.50002524734674 76.49936388734707 L 325.7102648026158 77.89376770180891 C 327.0478646173113 78.47476929116802 327.54332366603876 79.53038728969392 327.0038221902053 80.77244426048256 L 326.5722210095385 81.76608983711347 C 326.03271953370506 83.00814680790211 324.923058804798 83.36656289919709 323.58545899010255 82.78556130983799 L 320.37521943483347 81.39115749537615 Z" fill-opacity="1"/></g></g><g><g><path fill="rgb(255,255,255)" stroke="none" paint-order="stroke fill markers" d=" M 326.38641485912393 92.4827012917917 L 333.6374774760767 96.23989909992943 L 334.2892362795291 94.98206170719274 L 331.31112127613784 93.43892689313617 L 333.4485067639305 89.31396014930847 C 334.2152818268157 87.83415145197118 335.81865982739595 87.1397953645461 337.6869183077843 88.10784888143874 L 339.48118635330576 89.0375636451871 L 340.247961416191 87.55775494784982 L 338.91613358858746 86.86765739125309 C 336.9183918471821 85.832511056358 335.4732511724771 86.53846713563537 334.4515401946903 87.60461076265076 L 334.3590521511067 87.55668732122044 L 335.60506162829523 85.15199818804733 L 331.3321140147338 82.93793519396615 L 330.6803552112814 84.19577258670286 L 333.4734941275055 85.64306051789877 L 329.8313125788005 92.67215183025091 L 327.0381736625764 91.224863899055 Z" fill-opacity="1"/></g></g><g><g><path fill="rgb(255,255,255)" stroke="none" paint-order="stroke fill markers" d=" M 340.79729526869204 100.69020905550111 C 343.3783538865929 102.25978557123315 346.11000442218443 101.33633796021702 347.8852495848055 98.41707166134985 C 349.6604947474265 95.49780536248268 349.22367332449153 92.64756727008515 346.6426147065907 91.07799075435312 C 344.0615560886898 89.50841423862107 341.3299055530983 90.43186184963722 339.55466039047724 93.35112814850437 C 337.77941522785613 96.27039444737154 338.2162366507912 99.12063253976908 340.79729526869204 100.69020905550111 Z M 341.54419719686797 99.46198116146553 C 339.9599612176047 98.49858592077484 339.46564424008574 96.90568455737713 340.66718212454265 94.92983968436337 L 341.4682073808473 93.61260976902088 C 342.66974526530424 91.63676489600712 344.3114767991515 91.34282340769799 345.89571277841475 92.3062186483887 C 347.479948757678 93.2696138890794 347.974265735197 94.8625152524771 346.77272785074007 96.83836012549085 L 345.97170259443544 98.15559004083336 C 344.7701647099785 100.13143491384712 343.12843317613124 100.42537640215623 341.54419719686797 99.46198116146553 Z" fill-opacity="1"/></g></g><g><g><path fill="rgb(255,255,255)" stroke="none" paint-order="stroke fill markers" d=" M 353.0465821331498 108.53204039534677 L 354.40819862150056 109.49317426553822 L 363.2986869207714 96.8982217482939 L 361.9370704324207 95.93708787810246 L 358.2367050321836 101.17931135825279 L 358.1686242077661 101.13125466474322 C 358.36385032909715 99.66251395871305 357.8412269209144 98.45208179488914 356.6157720813987 97.58706131171684 C 354.4712261122463 96.07327546616531 351.9642589371964 96.87923910602625 349.93386363641696 99.75565393766718 C 347.90346833563757 102.6320687693081 347.98357248845406 105.26418676253279 350.12811845760643 106.77797260808431 C 351.3535732971221 107.64299309125661 352.66913214821284 107.73009165219116 353.9876918724333 107.05428638906892 L 354.0557726968508 107.1023430825785 Z M 351.5087511566373 105.94197734937222 C 349.92587198892954 104.82465922527466 349.75165960869117 103.12064108442362 350.8689777327887 101.53776191671588 L 351.9262249899993 100.03998377953008 C 353.04354311409685 98.45710461182234 354.70751299313196 98.05061719572976 356.2903921608397 99.16793531982731 C 357.498826794251 100.02094162962221 358.0925349516549 101.38355383150541 357.26355698861477 102.55794805270791 L 355.02892074041966 105.72370638812338 C 354.19994277737953 106.8981006093259 352.7171857900486 106.79498365916713 351.5087511566373 105.94197734937222 Z" fill-opacity="1"/></g></g><g><g><path fill="rgb(255,255,255)" stroke="none" paint-order="stroke fill markers" d=" M 362.4119897875996 115.85453931855523 L 363.70484193877365 116.90635255909864 L 370.48903734027874 108.56745618402613 L 369.1961851891047 107.5156429434827 L 364.48932093767286 113.3011563199865 C 363.59527968321095 114.40008064848443 362.15342033156116 114.05961026462964 361.1191386106219 113.2181596721949 C 359.8424471113376 112.17949409715827 359.752331693394 110.87075449344111 360.9882122510325 109.35165321581162 L 365.1560222166858 104.22872656678452 L 363.8631700655118 103.17691332624109 L 359.5112927827634 108.52608910172366 C 357.8678345944143 110.54617058793308 358.0686089620922 112.643221774972 359.81395936617713 114.06316964970561 C 361.18761477679953 115.180721217783 362.42568580019224 114.97939850301933 363.4517510826115 114.44445389779531 L 363.5163936901702 114.49704455982248 Z" fill-opacity="1"/></g></g><g><g><path fill="rgb(255,255,255)" stroke="none" paint-order="stroke fill markers" d=" M 369.5502252640641 122.5423726711048 C 371.11847743741095 124.00701795759483 372.8333638537074 124.15479546032458 374.27130647475803 123.53081447618644 L 373.95801319604294 122.12647839763831 C 372.7658317149705 122.60940407005269 371.59719785534656 122.4871859729822 370.54662115669674 121.50601582960539 C 369.0697234788847 120.12668968601768 369.21649508950907 118.38235766331506 370.5105020901944 116.99681448103779 L 371.7618495194286 115.65694854652789 C 373.055856520114 114.27140536425061 374.80133180259674 114.02015834233879 376.2325522326414 115.35682491447533 C 377.2070001850122 116.2668957721002 377.4361175806051 117.36456771364692 376.9717543874946 118.44170971006139 L 378.42967748297866 118.83410509298926 C 378.98352075508785 117.3559267877224 378.73629730159763 115.72823393086438 377.2137223760182 114.30624821582552 C 374.99076298467224 112.23014907186878 372.15881794147697 112.60695092089915 369.8267613688132 115.10397379884941 C 367.50892465329986 117.58577092754388 367.2968143742066 120.43783381284729 369.5502252640641 122.5423726711048 Z" fill-opacity="1"/></g></g><g><g><path fill="rgb(255,255,255)" stroke="none" paint-order="stroke fill markers" d=" M 381.10998146465954 133.994219268545 L 382.14533241405354 133.0272689823186 L 378.8036659837122 129.44921790720696 L 384.589450700914 124.04567219005926 L 387.9311171312554 127.62372326517092 L 388.9664680806494 126.65677297894449 L 385.6248016503081 123.07872190383284 L 388.39588801486263 120.4907079024621 L 387.3009590142827 119.31832520976596 L 385.24548286475044 121.23800592506842 C 384.7125816407977 121.73570092533203 384.34501450677305 121.70840447081136 383.86153936365986 121.19072899611436 L 382.0413976484101 119.2418330913727 L 381.0060466990161 120.20878337759912 L 383.45186212888296 122.82761224959573 L 378.42736487447087 127.52016510922398 C 377.37678817582105 128.5013352526008 377.1426413197011 129.74623522617844 378.2517901774314 130.93384366813038 Z" fill-opacity="1"/></g></g><g><g><path fill="rgb(255,255,255)" stroke="none" paint-order="stroke fill markers" d=" M 396.35141185998634 131.7937213341309 C 396.95620447329884 132.537111321056 397.5352491284871 132.52259376203102 398.00390803328776 132.14131146233404 L 398.26247846352254 131.93094881422536 C 398.7311373683231 131.54966651452835 398.86316139628053 130.98568679125444 398.25836878296803 130.24229680432938 C 397.6535761696556 129.4989068174043 397.07453151446725 129.51342437642927 396.6058726096667 129.89470667612625 L 396.34730217943184 130.10506932423493 C 395.87864327463126 130.48635162393194 395.7466192466739 131.05033134720586 396.35141185998634 131.7937213341309 Z M 383.1988287649557 136.4244432763437 L 388.98380158794447 143.5351301078009 L 390.0827259164424 142.641088853339 L 387.79503211826045 139.82913542453548 L 395.0350041648351 133.9389812774923 L 391.53772514002816 129.64024787483865 L 390.43880081153026 130.53428912930056 L 392.8842665957937 133.54017038078018 L 386.743218877717 138.53628327336145 L 384.2977530934536 135.5304020218818 Z" fill-opacity="1"/></g></g><g><g><path fill="rgb(255,255,255)" stroke="none" paint-order="stroke fill markers" d=" M 392.7654888035747 149.22511371042694 C 394.50754394329675 151.69304359556264 397.38094722094945 151.9343395608492 400.1722610220685 149.96401512695672 C 402.96357482318746 147.99369069306425 403.6984552396642 145.2053899717704 401.95640009994224 142.73746008663468 C 400.2143449602202 140.26953020149898 397.3409416825675 140.02823423621246 394.5496278814485 141.9985586701049 C 391.7583140803295 143.96888310399737 391.02343366385276 146.75718382529124 392.7654888035747 149.22511371042694 Z M 393.93988302477726 148.39613574738684 C 392.8706215941893 146.88133740409663 393.05184211507805 145.22337384883176 394.9410849926647 143.88980060394113 L 396.20058024438913 143.00075177401402 C 398.08982312197577 141.6671785291234 399.71274444815174 142.0516397063846 400.7820058787397 143.56643804967482 C 401.8512673093277 145.081236392965 401.6700467884389 146.7391999482299 399.7808039108523 148.07277319312053 L 398.52130865912784 148.9618220230476 C 396.6320657815412 150.29539526793823 395.00914445536523 149.91093409067702 393.93988302477726 148.39613574738684 Z" fill-opacity="1"/></g></g><g><g><path fill="rgb(255,255,255)" stroke="none" paint-order="stroke fill markers" d=" M 398.20278658929544 156.90115942391014 L 404.57533131487133 153.02592912989587 C 405.7857588046455 152.28985186734567 407.03034993679574 153.09351310567644 407.723128536843 154.23273897840508 C 408.5782771212763 155.6389709150545 408.2249191471593 156.90232291707804 406.5516811465891 157.91984148589742 L 400.90895299573 161.35126048925642 L 401.77492624578906 162.77529283016725 L 407.66686005630754 159.1923285080479 C 409.8919105889807 157.83924530483063 410.404988436373 155.79604067721914 409.23592454879326 153.87359701698952 C 408.31582797060554 152.3605626547718 407.0818231538137 152.1356564374746 405.9358598927168 152.29610549063676 L 405.89256123021386 152.22490387359124 L 407.3877951881702 151.31563196102923 L 406.52182193811115 149.89159962011843 L 397.3368133392364 155.47712708299932 Z" fill-opacity="1"/></g></g><g><g><path fill="rgb(255,255,255)" stroke="none" paint-order="stroke fill markers" d="" fill-opacity="1"/></g></g><g><g><path fill="rgb(255,255,255)" stroke="none" paint-order="stroke fill markers" d="" fill-opacity="1"/></g></g><g><g><path fill="rgb(255,255,255)" stroke="none" paint-order="stroke fill markers" d="" fill-opacity="1"/></g></g><g><g><path fill="rgb(255,255,255)" stroke="none" paint-order="stroke fill markers" d="" fill-opacity="1"/></g></g><g><g><path fill="rgb(255,255,255)" stroke="none" paint-order="stroke fill markers" d="" fill-opacity="1"/></g></g><g><g><path fill="rgb(255,255,255)" stroke="none" paint-order="stroke fill markers" d=" M 429.16311168412244 222.72491785333895 L 429.4779970601575 225.01587910354797 L 423.8097453607312 229.3699264422325 L 424.07640504854464 231.3100197532203 L 429.8045194686247 226.77951086943835 C 430.34643704062637 229.03926726256282 432.0055110762407 230.09401401200628 434.3171116169921 229.7762918307817 C 436.9176622253375 229.41885437690408 438.2670326527539 227.76134364972154 437.90108478330774 225.0988751697489 L 437.18053626517343 219.85649537197332 L 422.7743114665618 221.8365853942479 L 423.0126031024802 223.57028579981147 Z M 430.6285013126345 222.52350468488407 L 435.91215969149494 221.79728255637076 L 436.3887429633318 225.26468336749792 C 436.5873193265972 226.70943370546757 435.94281139448674 227.68124570026106 434.6012575092292 227.8656380375789 L 433.52801440102314 228.01315190743315 C 432.18646051576565 228.197544244751 431.3036609477368 227.4356558339809 431.1050845844714 225.99090549601124 Z" fill-opacity="1"/></g></g><g><g><path fill="rgb(255,255,255)" stroke="none" paint-order="stroke fill markers" d=" M 424.3554128685526 238.26170115874694 C 424.5004279969525 240.38174729327685 425.6448733521299 241.8487341318574 427.12309543313927 242.39496340941457 L 427.8706047743707 241.1117935361473 C 426.6682715194641 240.6302210024031 425.8876601934757 239.59775154524664 425.789561724264 238.16360268953525 C 425.65165518058956 236.14748038512937 426.93672500457564 234.78577633923996 428.8281387128327 234.65640009723612 L 429.326973097428 234.62227889055376 L 429.8700689704551 242.56205951202847 L 430.65989007939766 242.50803426811478 C 433.69446591901885 242.30046359413058 435.7696965925892 240.279132655718 435.5720779372207 237.3900501782704 C 435.37303756490707 234.480182934798 433.0319458226035 232.61476262657243 429.60245942851105 232.84934592251346 C 426.21454256646814 233.08108578456435 424.1449987606782 235.18555578707614 424.3554128685526 238.26170115874694 Z M 434.2002833795837 237.48388349664683 C 434.32112931991696 239.25058860875507 433.1149334091948 240.54425148878966 431.22351970093774 240.67362773079353 L 430.9948872746649 240.6892666171896 L 430.57405905891613 234.53697587384792 L 430.71955242108976 234.52702385523224 C 432.590181363322 234.3990693301735 434.0751722884151 235.65482408646417 434.2002833795837 237.48388349664683 Z" fill-opacity="1"/></g></g><g><g><path fill="rgb(255,255,255)" stroke="none" paint-order="stroke fill markers" d=" M 425 255.20833333333334 L 426.4583333333333 255.20833333333334 L 426.4583333333333 253.70833333333334 L 432.375 253.70833333333334 C 434.6458333333333 253.70833333333334 436 252.10416666666666 436 249.58333333333334 C 436 247.39583333333334 434.9583333333333 246.02083333333334 433.8333333333333 245.47916666666666 L 433 246.60416666666666 C 433.9791666666667 247.16666666666666 434.5833333333333 248.04166666666666 434.5833333333333 249.47916666666666 C 434.5833333333333 251.10416666666666 433.7708333333333 252.04166666666666 432.2083333333333 252.04166666666666 L 431.1458333333333 252.04166666666666 L 431.1458333333333 249.75 C 431.1458333333333 246.52083333333334 430 245.125 428.0208333333333 245.125 C 426 245.125 424.75 246.5625 424.75 248.8125 C 424.75 250.5625 425.5208333333333 251.58333333333334 426.75 252.04166666666666 L 426.75 252.14583333333334 C 425.75 252.27083333333334 425 252.77083333333334 425 254.0625 Z M 426.1458333333333 249.10416666666666 C 426.1458333333333 247.72916666666666 426.7291666666667 246.875 427.8333333333333 246.875 L 428.2708333333333 246.875 C 429.3125 246.875 429.8958333333333 247.77083333333334 429.8958333333333 249.75 L 429.8958333333333 252.04166666666666 L 428.125 252.04166666666666 C 427.0208333333333 252.04166666666666 426.1458333333333 250.8125 426.1458333333333 249.10416666666666 Z" fill-opacity="1"/></g></g><g><g><path fill="rgb(255,255,255)" stroke="none" paint-order="stroke fill markers" d=" M 424.33408711437613 262.050070331625 C 424.1464204776233 264.793659446899 425.2504540158083 266.6650306247928 427.3705001503382 266.81004575319275 C 429.6983939451161 266.9692780510436 430.2605261109572 264.8568814893909 430.5943655911672 263.3344476899515 L 430.95894185601776 261.66794224528365 C 431.16983419766586 260.7217950267584 431.5247981845425 259.80638459287366 432.6471755498818 259.8831573079089 C 433.7487681491964 259.95850830599903 434.2875491013863 260.935052568523 434.1723900288334 262.61861861653205 C 434.04301378682953 264.5100323247891 433.2293632304622 265.41494975190653 432.5924838090605 265.872554345094 L 433.5370080631308 267.0230263086935 C 434.6874800267303 266.07850205462324 435.42848452576584 264.7092111902346 435.5607042016599 262.77622794992794 C 435.7313102350716 260.28205602695164 434.7963982589752 258.38048905256903 432.6555673584205 258.234052207224 C 430.3276735636426 258.0748199093731 429.76411968085637 260.20800123705067 429.43170191759145 261.7096502704652 L 429.06712565274097 263.37615571513305 C 428.85481159414775 264.3430876996831 428.50126932421625 265.23771336754305 427.37889195887686 265.1609406525078 C 426.1110212313639 265.07421591885685 425.61008564853995 263.8496761809804 425.72382300414773 262.1868948989962 C 425.84040379364575 260.48254408496234 426.5227781572905 259.3598269789812 427.67325012089 258.4153027249109 L 426.7731388327595 257.22610466315194 C 425.42849539021125 258.2617572948404 424.4876325444466 259.8053156009463 424.33408711437613 262.050070331625 Z" fill-opacity="1"/></g></g><g><g><path fill="rgb(255,255,255)" stroke="none" paint-order="stroke fill markers" d=" M 423.1223690698488 273.7951219295691 C 422.71103231737055 276.7878190582205 424.6463214530015 278.92541726658374 428.03116510195895 279.3906533176626 C 431.41600875091643 279.85588936874143 433.85624921027926 278.3196938605533 434.2675859627575 275.3269967319019 C 434.6789227152358 272.33429960325043 432.7436335796048 270.1967013948872 429.35878993064733 269.7314653438084 C 425.9739462816899 269.2662292927295 423.533705822327 270.80242480091766 423.1223690698488 273.7951219295691 Z M 424.546480117276 273.99086148764496 C 424.798955779142 272.1539646293692 426.0630464892607 271.0659578718676 428.35400773946975 271.3808432479027 L 429.8813152396091 271.59076683192603 C 432.1722764898181 271.9056522079611 433.0959505771963 273.2943603155503 432.8434749153303 275.131257173826 C 432.59099925346436 276.9681540321017 431.32690854334555 278.0561607896033 429.0359472931366 277.7412754135683 L 427.5086397929972 277.5313518295449 C 425.2176785427882 277.21646645350984 424.29400445541006 275.82775834592064 424.546480117276 273.99086148764496 Z" fill-opacity="1"/></g></g><g><g><path fill="rgb(255,255,255)" stroke="none" paint-order="stroke fill markers" d=" M 421.8568327109153 283.116296894685 L 429.1591681982126 284.63373965870255 C 430.5462039890959 284.9219690105271 430.9072544449872 286.35881313586674 430.63597976091705 287.66425858610984 C 430.3011250727679 289.2756678137536 429.18057347704604 289.95778529646026 427.2632004720015 289.5593506042322 L 420.7971659762662 288.2156931846971 L 420.4580726211784 289.84749999750096 L 427.2096733091544 291.2504987541764 C 429.7593714541605 291.780332121501 431.52894293832435 290.6372875947165 431.98671896769275 288.4343483974313 C 432.34700565747346 286.7005536588272 431.59866100281516 285.69391024018836 430.6516348323018 285.02899135279887 L 430.66858950005616 284.9474010121587 L 432.38198665350023 285.3034490350008 L 432.721080008588 283.67164222219697 L 422.195926066003 281.4844900818811 Z" fill-opacity="1"/></g></g><g><g><path fill="rgb(255,255,255)" stroke="none" paint-order="stroke fill markers" d=" M 418.2810374961595 297.1068642060505 C 417.4098187559649 300.2162846131111 418.4743111680515 302.44011350319863 421.06215137779867 303.1651923256831 C 422.8876820683955 303.6766820376683 424.6652355796559 303.20112530177835 425.9167391743405 300.5876972630517 L 426.59908672793006 299.1562089604258 C 427.4965757743771 297.2657450783891 428.4788713612716 296.84863086278807 429.7226395240958 297.1971183588659 C 431.30744089285577 297.64115887806184 431.8320321409795 298.934831458205 431.303680130797 300.82054447926106 C 430.81467348307484 302.565832062579 429.8315079910952 303.37214409126426 428.58919849672304 303.86785531788 L 429.2806729166496 305.33810021959937 C 430.8889209686638 304.771835035478 432.1185302624523 303.4720466398081 432.7424352957529 301.2453004128164 C 433.54058407709243 298.39667010441246 432.7280625189744 296.2001688534747 430.16028308604695 295.48071079705596 C 428.3949347259093 294.98608338326807 426.5684404163212 295.40465626732123 425.3369975984564 298.0237050721136 L 424.6377877466695 299.5153757051988 C 423.7828425413053 301.3312172460223 422.8639277634925 301.8309968563456 421.49979493974973 301.44878476387316 C 419.8146896868911 300.97664041434837 419.14085375634096 299.5978801520396 419.70855112898386 297.57174169324526 C 420.18069547850865 295.8866364403866 421.16308477930926 294.92865744183155 422.8307389706036 294.2275875860377 L 422.17056685962837 292.7228418967447 C 420.43391109318657 293.3613071346359 418.9836332543809 294.59926710358224 418.2810374961595 297.1068642060505 Z" fill-opacity="1"/></g></g><g><g><path fill="rgb(255,255,255)" stroke="none" paint-order="stroke fill markers" d=" M 413.3189365301552 313.040410638232 L 414.65380616982355 313.5148234221409 L 416.293320937744 308.9016709909342 L 423.75288657118466 311.5528012539545 L 422.1133718032642 316.1659536851612 L 423.44824144293256 316.6403664690701 L 425.087756210853 312.02721403786336 L 428.66049554055354 313.29696590067834 L 429.1976982517445 311.78542233811277 L 426.5475894082853 310.8435734288819 C 425.86052415257365 310.5993903783405 425.7156554836736 310.2604748088906 425.95286187562806 309.5930399890564 L 426.8458741747507 307.0803441967396 L 425.51100453508235 306.60593141283067 L 424.3110192581363 309.98236638375647 L 417.83297541856945 307.68006905008093 C 416.4784753430236 307.1986796075851 415.2654242758991 307.56351902841635 414.7212449061212 309.09469302685943 Z" fill-opacity="1"/></g></g><g><g><path fill="rgb(255,255,255)" stroke="none" paint-order="stroke fill markers" d=" M 409.49937499342843 322.05143611441866 L 408.835373177018 323.5801216169277 L 418.69539466820163 327.86293333277484 L 419.35939648461203 326.3342478302657 L 412.51852886088386 323.3628397018292 C 411.21914618375115 322.79843815788035 411.1579820046572 321.318189052014 411.68918345778553 320.09524065000676 C 412.3448852514908 318.58566371627904 413.5807803917541 318.1457963031164 415.37698585720227 318.9259984373986 L 421.43440216089454 321.5571056349248 L 422.09840397730494 320.02842013241576 L 415.77346771067363 317.2811126170177 C 413.38489661300315 316.2436097788765 411.41977804868077 317.0027165275839 410.5233755965267 319.0664419559712 C 409.81787366659063 320.6906703023871 410.3457583535468 321.8285140753725 411.1376948618835 322.67220374652413 L 411.104494771063 322.7486380216496 Z" fill-opacity="1"/></g></g><g><g><path fill="rgb(255,255,255)" stroke="none" paint-order="stroke fill markers" d=" M 404.1818271846575 332.8235826925411 L 403.41505212177225 334.3033913898784 L 417.1032825721422 341.396060721567 L 417.8700576350274 339.9162520242297 L 412.17279415027883 336.96416803212145 L 412.2111329034231 336.8901775972546 C 413.6927769660164 336.88359187162513 414.8207712211156 336.2010157143626 415.5108687777123 334.86918788675905 C 416.7185395017566 332.5384891884528 415.57871733110926 330.1646174090898 412.4526214579842 328.5448050887447 C 409.3265255848592 326.92499276839953 406.7298307947299 327.36275751397733 405.5221600706856 329.6934562122836 C 404.8320625140889 331.02528403988714 404.92491043429294 332.34044962403 405.7739650700059 333.55470607370376 L 405.7356263168616 333.6286965085706 Z M 406.5383649527044 330.94739495081245 C 407.4297409633085 329.22711734015786 409.09416587119244 328.82249714319124 410.81444348184704 329.71387315379536 L 412.44223304891807 330.55732572296915 C 414.16251065957266 331.4487017335732 414.79178923256154 333.041823278012 413.9004132219574 334.76210088866657 C 413.2199003536468 336.0754311075534 411.95082284567826 336.8491517726887 410.67448784422487 336.18780828095015 L 407.23393262291563 334.40505625974197 C 405.95759762146224 333.74371276800343 405.85785208439376 332.2607251696993 406.5383649527044 330.94739495081245 Z" fill-opacity="1"/></g></g><g><g><path fill="rgb(255,255,255)" stroke="none" paint-order="stroke fill markers" d=" M 410.3912611802846 348.3163435367802 C 409.8933265615006 349.13516213280394 410.1009161396135 349.67591164901376 410.6171278631937 349.9898269521602 L 410.90193433137586 350.16302160217197 C 411.418146054956 350.4769369053184 411.99377426434404 350.4124726766411 412.491708883128 349.59365408061734 C 412.9896435019119 348.7748354845936 412.782053923799 348.23408596838385 412.26584220021886 347.92017066523744 L 411.98103573203673 347.7469760152256 C 411.4648240084565 347.4330607120792 410.8891957990685 347.49752494075653 410.3912611802846 348.3163435367802 Z M 401.62338092702873 337.4739128294921 L 396.8605280517039 345.30609070450157 L 398.0709555414781 346.0421679670518 L 399.95444736035654 342.9448976255708 L 407.92902846945714 347.79434782590147 L 410.80838952590346 343.05944029237304 L 409.5979620361293 342.3233630298228 L 407.584574229742 345.63423822244044 L 400.8204206104156 341.52086528466 L 402.8338084168029 338.2099900920423 Z" fill-opacity="1"/></g></g><g><g><path fill="rgb(255,255,255)" stroke="none" paint-order="stroke fill markers" d=" M 392.7654888035747 350.77488628957303 C 391.02343366385276 353.24281617470876 391.7583140803295 356.03111689600263 394.5496278814485 358.0014413298951 C 397.3409416825675 359.9717657637876 400.2143449602202 359.730469798501 401.95640009994224 357.2625399133653 C 403.6984552396642 354.7946100282296 402.96357482318746 352.00630930693575 400.1722610220685 350.0359848730433 C 397.38094722094945 348.0656604391508 394.50754394329675 348.30695640443736 392.7654888035747 350.77488628957303 Z M 393.93988302477726 351.60386425261316 C 395.00914445536523 350.089065909323 396.6320657815412 349.70460473206174 398.52130865912784 351.0381779769524 L 399.7808039108523 351.9272268068795 C 401.6700467884389 353.2608000517701 401.8512673093277 354.918763607035 400.7820058787397 356.4335619503252 C 399.71274444815174 357.9483602936154 398.08982312197577 358.3328214708766 396.20058024438913 356.999248225986 L 394.9410849926647 356.1101993960589 C 393.05184211507805 354.7766261511683 392.8706215941893 353.11866259590334 393.93988302477726 351.60386425261316 Z" fill-opacity="1"/></g></g><g><g><path fill="rgb(255,255,255)" stroke="none" paint-order="stroke fill markers" d="" fill-opacity="1"/></g></g><g><g><path fill="rgb(255,255,255)" stroke="none" paint-order="stroke fill markers" d="" fill-opacity="1"/></g></g><g><g><path fill="rgb(255,255,255)" stroke="none" paint-order="stroke fill markers" d="" fill-opacity="1"/></g></g><g><g><path fill="rgb(255,255,255)" stroke="none" paint-order="stroke fill markers" d="" fill-opacity="1"/></g></g><g><g><path fill="rgb(255,255,255)" stroke="none" paint-order="stroke fill markers" d="" fill-opacity="1"/></g></g><g><g><path fill="rgb(255,255,255)" stroke="none" paint-order="stroke fill markers" d=" M 340.8328960772148 399.2881416132474 C 338.0738334167001 400.9659647852368 337.3339213562444 403.3177915583155 338.7303032219646 405.6140437080342 C 339.7153477939068 407.23388049582024 341.33904057322525 408.0996012665273 344.0374879320527 407.04383177807443 L 345.5132389047912 406.4633871115421 C 347.4594982423059 405.69435208703754 348.46209780369975 406.0599789574693 349.1332270724955 407.1636040216752 C 349.98837565692884 408.56983595832463 349.48876552173067 409.87335981120555 347.8155275211605 410.89087838002496 C 346.26689235042 411.83262428946415 344.99800884044987 411.7508434216026 343.75173512734324 411.26518476367573 L 343.25356922283413 412.81166065292496 C 344.8154408200437 413.49552845402803 346.6012581689385 413.38487003692734 348.5771030419522 412.1833321524704 C 351.10476044706894 410.6462296336156 352.01016930355627 408.48635838042196 350.6246121034618 406.2079066349647 C 349.67204152839685 404.6414710599628 348.05147556072393 403.7006997452201 345.3638528675222 404.77426963793437 L 343.83470068199955 405.38718830134394 C 341.97046762715615 406.13072506760693 340.9577655154811 405.86877381109787 340.2216882529309 404.6583463213237 C 339.3124163403689 403.16311236336736 339.7610299590839 401.69553594514383 341.5588707894838 400.6022447169443 C 343.05410474744014 399.6929728043823 344.4259417559885 399.6633802043409 346.1232408486535 400.28927575032526 L 346.66783222731107 398.73895093408595 C 344.9628352806659 398.0202044398046 343.05794660988795 397.9350584100301 340.8328960772148 399.2881416132474 Z" fill-opacity="1"/></g></g><g><g><path fill="rgb(255,255,255)" stroke="none" paint-order="stroke fill markers" d=" M 330.3963653435189 405.1579419158151 C 327.71421207959503 406.5477217172946 327.08390186213023 409.3615054987264 328.655790741045 412.3951133282678 C 330.22767961995976 415.42872115780926 332.8899437540705 416.53643042432134 335.57209701799434 415.14665062284183 C 338.2542502819182 413.75687082136227 338.8845604993829 410.94308703993056 337.31267162046817 407.90947921038907 C 335.7407827415534 404.8758713808476 333.0785186074427 403.76816211433555 330.3963653435189 405.1579419158151 Z M 331.0577088352574 406.4342769172685 C 332.70399601104515 405.58123965980866 334.32184101320956 405.9865316246307 335.3857414129629 408.03976619218616 L 336.09500834613175 409.40858923722317 C 337.158908745885 411.46182380477865 336.55704070204354 413.01727836392854 334.9107535262558 413.8703156213884 C 333.26446635046807 414.72335287884823 331.6466213483036 414.3180609140262 330.58272094855033 412.2648263464707 L 329.87345401538147 410.8960033014337 C 328.80955361562815 408.84276873387824 329.4114216594696 407.28731417472835 331.0577088352574 406.4342769172685 Z" fill-opacity="1"/></g></g><g><g><path fill="rgb(255,255,255)" stroke="none" paint-order="stroke fill markers" d=" M 317.3889453317659 411.5245805334801 L 315.86025982925685 412.1885823498905 L 320.14307154510396 422.0486038410741 L 321.671757047613 421.3846020246637 L 318.70034891917646 414.54373440093553 C 318.13594737522766 413.2443517238028 319.10159507337585 412.1207846384522 320.32454347538317 411.58958318532393 C 321.8341204091109 410.9338813916186 323.03758991114546 411.4559745792408 323.8177920454277 413.25218004468894 L 326.4488992429539 419.3095963483812 L 327.977584745463 418.6455945319708 L 325.230277230065 412.32065826533943 C 324.1927743919237 409.932087167669 322.2384643736775 409.14557182747507 320.17473894529024 410.04197427962913 C 318.5505105988744 410.74747620956515 318.1596688693507 411.9393627129317 318.1625815141223 413.0965002202941 L 318.08614723899683 413.1297003111147 Z" fill-opacity="1"/></g></g><g><g><path fill="rgb(255,255,255)" stroke="none" paint-order="stroke fill markers" d=" M 310.9988453069746 414.0445090231923 L 313.4964890810832 421.0722050673285 C 313.97090186499213 422.4070747069968 312.93083038502743 423.4621243687599 311.67448248886905 423.9086305183212 C 310.12367805454846 424.45978654668596 308.95864301681985 423.8567828155586 308.30283710965165 422.0115218430759 L 306.0912363376058 415.7886736699162 L 304.52080146740775 416.34680635686783 L 306.8300754596701 422.8444806323122 C 307.7021577830321 425.2982851169966 309.5982381485893 426.21633374050526 311.71832522335666 425.46285461312056 C 313.3869122729421 424.86983863323445 313.8581800716308 423.7074026752722 313.9342400730036 422.5527639566093 L 314.0127618165135 422.5248573222617 L 314.5988011378127 424.17381393596963 L 316.1692360080107 423.615681249018 L 312.56928017717263 413.48637633624065 Z" fill-opacity="1"/></g></g><g><g><path fill="rgb(255,255,255)" stroke="none" paint-order="stroke fill markers" d=" M 294.70683785001097 419.21312104408634 L 293.1019757044313 419.66278232934803 L 297.26134259310214 434.5077571759599 L 298.8662047386818 434.0580958906982 L 297.1350087904242 427.8793766302165 L 297.2152518977032 427.85689356595344 C 298.2313657948984 428.93523722542693 299.50013302333514 429.2937214929269 300.9445089543568 428.88902633619136 C 303.4721668336448 428.18080981190417 304.42908849930257 425.72749313211125 303.4791790341872 422.3372218495742 C 302.52926956907186 418.94695056703716 300.4369531581283 417.34799032924144 297.9092952788403 418.05620685352864 C 296.46491934781864 418.4609020102642 295.5671226797228 419.42642901286746 295.25922530681476 420.8757432326819 L 295.17898219953577 420.898226296945 Z M 297.686485588098 419.6547657557695 C 299.5521378323343 419.13203451165276 300.9839072766784 420.07228130692533 301.50663852079515 421.93793355116173 L 302.00126593458305 423.70328191129937 C 302.52399717869974 425.5689341555357 301.7892027265113 427.1162236859116 299.92355048227495 427.6389549300283 C 298.499235328073 428.0380293206981 297.06755959763495 427.6386473083796 296.67972673909674 426.2544537078171 L 295.6342642508633 422.52314921934436 C 295.24643139232506 421.1389556187819 296.262170433896 420.05384014643926 297.686485588098 419.6547657557695 Z" fill-opacity="1"/></g></g><g><g><path fill="rgb(255,255,255)" stroke="none" paint-order="stroke fill markers" d="" fill-opacity="1"/></g></g><g><g><path fill="rgb(255,255,255)" stroke="none" paint-order="stroke fill markers" d="" fill-opacity="1"/></g></g><g><g><path fill="rgb(255,255,255)" stroke="none" paint-order="stroke fill markers" d="" fill-opacity="1"/></g></g><g><g><path fill="rgb(255,255,255)" stroke="none" paint-order="stroke fill markers" d="" fill-opacity="1"/></g></g><g><g><path fill="rgb(255,255,255)" stroke="none" paint-order="stroke fill markers" d="" fill-opacity="1"/></g></g><g><g><path fill="rgb(255,255,255)" stroke="none" paint-order="stroke fill markers" d=" M 220.59822796170252 422.60410315519147 L 223.03494611550659 437.6174042643572 L 225.32590736571558 437.9322896403923 L 231.7228055640688 424.13314115233476 L 229.92718728687797 423.8863391008478 L 228.14494491216345 427.8261864126093 L 223.08831872926967 427.1311691411805 L 222.4351248199782 422.8565788170574 Z M 223.29401776128427 428.69457345456755 L 227.5250723224811 429.2761185184161 L 224.54641850046036 435.95355252264136 L 224.36066488557856 435.9280212759358 Z" fill-opacity="1"/></g></g><g><g><path fill="rgb(255,255,255)" stroke="none" paint-order="stroke fill markers" d=" M 218.57670267359902 422.2086420668188 L 216.94489586079516 421.86954871173106 L 216.58884783795304 423.58294586517513 L 216.50725749731285 423.5659911974208 C 216.10117320416282 422.141067323364 215.1395796144939 421.2390589983982 213.67095348297042 420.93387497881923 C 211.10085775280433 420.3998029445561 209.1225359198424 422.1378203583876 208.40620120721957 425.5850122504358 C 207.68986649459677 429.032204142484 208.8119776059622 431.41449893098223 211.3820733361283 431.9485709652454 C 212.85069946765176 432.25375498482435 214.09204507526806 431.8095226892269 215.03220140268124 430.66435083311757 L 215.11379174332143 430.681305500872 L 213.8082823262337 436.9637617301669 L 215.44008913903758 437.3028550852546 Z M 214.00233327029156 422.51350220027916 C 215.450561816655 422.81444755291955 216.53798383468987 423.82771688709573 216.24551581592672 425.2351502631391 L 215.45712376534777 429.02910110290804 C 215.1646557465846 430.4365344789514 213.7635723750936 430.9326864466188 212.31534382873014 430.63174109397846 C 210.41836840884565 430.237545068689 209.579696160396 428.74400677408175 209.9738921856855 426.84703135419727 L 210.346894876282 425.052043860113 C 210.74109090157145 423.1550684402285 212.10535785040707 422.1193061749897 214.00233327029156 422.51350220027916 Z" fill-opacity="1"/></g></g><g><g><path fill="rgb(255,255,255)" stroke="none" paint-order="stroke fill markers" d=" M 207.19893594786487 419.7470938203346 L 198.37219414717669 417.2739567513952 L 197.98998205470426 418.63808957513794 L 201.6009218822585 419.6498274669768 L 197.82376708606014 433.13066948984596 L 203.03956905919406 434.5920686669465 L 203.42178115166652 433.2279358432038 L 199.81084132411226 432.21619795136496 L 203.20578402783815 420.09948875223847 L 206.8167238553924 421.1112266440773 Z" fill-opacity="1"/></g></g><g><g><path fill="rgb(255,255,255)" stroke="none" paint-order="stroke fill markers" d=" M 191.3031138502229 414.59730621298183 C 189.30080939072042 413.8856870371185 187.49932420644245 414.350936095562 186.40939125174492 415.48915975491406 L 187.28852062504015 416.6860000466399 C 188.20923527459814 415.77506541934747 189.4672243321813 415.47041684603187 190.82172440772712 415.9518062885277 C 192.72587668784223 416.6285421714565 193.46287380963312 418.34972711317056 192.82799787822563 420.1360967780208 L 192.66055807214013 420.6072272390802 L 185.16173156694452 417.9421436588861 L 184.8966185406425 418.68810022223016 C 183.87802638695575 421.5541438603416 184.9052398057176 424.26286933617456 187.6338703926867 425.2326248797531 C 190.38213141553325 426.2093570819184 193.0258095058593 424.8052667618349 194.17695817269706 421.56624484205145 C 195.31415352236104 418.366483794023 194.20841836008927 415.6298516838424 191.3031138502229 414.59730621298183 Z M 188.0943298594218 423.9370161118397 C 186.42574280983638 423.3440001319536 185.71973036133033 421.72226690951015 186.35460629273783 419.9358972446599 L 186.43134953719368 419.71996245000764 L 192.24195855692642 421.78505339172875 L 192.19312194681814 421.92246644287104 C 191.56522267399754 423.68920567184387 189.82180821663965 424.55096206748647 188.0943298594218 423.9370161118397 Z" fill-opacity="1"/></g></g><g><g><path fill="rgb(255,255,255)" stroke="none" paint-order="stroke fill markers" d=" M 175.96127273231963 408.63617263209494 L 175.3968711883708 409.93555530922765 L 179.88738485199124 411.8860606449332 L 176.73337622404182 419.1473167818514 L 172.24286256042137 417.19681144614583 L 171.67846101647254 418.49619412327854 L 176.168974680093 420.4466994589841 L 174.65837054775932 423.9244589771923 L 176.1297303439243 424.56356072548726 L 177.25023340911687 421.9839039400032 C 177.5407342037964 421.3151040326555 177.8887458704157 421.1937015024458 178.53843720898206 421.4759022744202 L 180.9843340129966 422.53830518067684 L 181.54873555694545 421.23892250354413 L 178.2620617265509 419.8113185982618 L 181.00106921924382 413.50549090041176 C 181.57377078589778 412.1869996544977 181.29256342232006 410.9518789668262 179.80209505737372 410.30447719582605 Z" fill-opacity="1"/></g></g><g><g><path fill="rgb(255,255,255)" stroke="none" paint-order="stroke fill markers" d=" M 169.6036346564812 405.1579419158151 C 166.92148139255735 403.76816211433555 164.25921725844665 404.8758713808476 162.6873283795319 407.90947921038907 C 161.11543950061713 410.94308703993056 161.7457497180819 413.75687082136227 164.42790298200575 415.14665062284183 C 167.11005624592957 416.53643042432134 169.77232038004027 415.42872115780926 171.34420925895506 412.3951133282678 C 172.91609813786982 409.3615054987264 172.28578792040506 406.5477217172946 169.6036346564812 405.1579419158151 Z M 168.94229116474267 406.4342769172685 C 170.5885783405304 407.28731417472835 171.1904463843719 408.84276873387824 170.12654598461862 410.8960033014337 L 169.41727905144975 412.2648263464707 C 168.35337865169646 414.3180609140262 166.73553364953202 414.72335287884823 165.08924647374428 413.8703156213884 C 163.44295929795652 413.01727836392854 162.84109125411504 411.46182380477865 163.90499165386834 409.40858923722317 L 164.6142585870372 408.03976619218616 C 165.6781589867905 405.9865316246307 167.29600398895494 405.58123965980866 168.94229116474267 406.4342769172685 Z" fill-opacity="1"/></g></g><g><g><path fill="rgb(255,255,255)" stroke="none" paint-order="stroke fill markers" d=" M 161.24445806368817 400.84400500197563 L 157.3692277696739 407.2165497275515 C 156.6331505071237 408.4269772173257 155.15835999999717 408.2860111493814 154.01913412726853 407.5932325493342 C 152.61290219061908 406.73808396490085 152.3454194261635 405.4538047469704 153.36293799498287 403.78056674640015 L 156.7943569983419 398.1378385955411 L 155.37032465743107 397.271865345482 L 151.78736033531172 403.1637991560005 C 150.43427713209445 405.38884968867364 150.91872990959965 407.4390300549208 152.84117356982924 408.60809394250055 C 154.354207932047 409.52819052068827 155.55333405566063 409.1601589539555 156.49700089632373 408.49048098039106 L 156.56820251336927 408.53377964289405 L 155.65893060080728 410.02901360085036 L 157.08296294171808 410.89498685090945 L 162.668490404599 401.70997825203466 Z" fill-opacity="1"/></g></g><g><g><path fill="rgb(255,255,255)" stroke="none" paint-order="stroke fill markers" d="" fill-opacity="1"/></g></g><g><g><path fill="rgb(255,255,255)" stroke="none" paint-order="stroke fill markers" d=" M 135.76185654886706 382.65977447917714 L 134.8020769668712 383.8395020671235 L 140.15125274235373 388.19137934987185 L 131.93396180060827 398.291786780919 L 133.29145655934101 399.3961906834896 L 142.46852708308236 388.1160556644962 Z" fill-opacity="1"/></g></g><g><g><path fill="rgb(255,255,255)" stroke="none" paint-order="stroke fill markers" d=" M 121.10746595580531 387.03348035100964 C 120.40708149003876 386.3793669220918 119.83540689538172 386.47259583416263 119.42303103802044 386.9141425625807 L 119.19551332361422 387.1577545506734 C 118.78313746625295 387.59930127909143 118.72913834629291 388.1760053342755 119.42952281205945 388.8301187631934 C 120.12990727782598 389.4842321921113 120.70158187248303 389.3910032800404 121.1139577298443 388.94945655162235 L 121.34147544425052 388.70584456352964 C 121.75385130161179 388.2642978351116 121.80785042157184 387.68759377992757 121.10746595580531 387.03348035100964 Z M 133.50699529235965 380.6549460358471 L 126.80766561981017 374.39820888967614 L 125.84071533358374 375.43355983907014 L 128.48999570409194 377.90781498323776 L 122.11949970071784 384.72895064983356 L 126.16954900275911 388.51143265183697 L 127.13649928898553 387.47608170244297 L 124.3045099274078 384.8311882724707 L 129.7080556445555 379.0454035552688 L 132.5400450061332 381.6902969852411 Z" fill-opacity="1"/></g></g><g><g><path fill="rgb(255,255,255)" stroke="none" paint-order="stroke fill markers" d=" M 121.37849353665847 368.670286851219 L 110.89133334784674 373.1909695284976 L 112.01470206272744 374.3938037197053 L 116.35573333110776 372.44902002015016 L 121.04092147973891 370.35385324457314 L 121.09780090834046 370.41475624159636 L 118.68778990377149 374.9460428981004 L 116.4512974936487 379.1442374875131 L 117.60310592283017 380.3775231772325 L 122.82891896599811 370.22331327531003 Z" fill-opacity="1"/></g></g><g><g><path fill="rgb(255,255,255)" stroke="none" paint-order="stroke fill markers" d=" M 114.32612295984153 360.1371724039707 C 112.98506107814866 358.4887859112238 111.20410123616223 357.95028094672745 109.68143862506405 358.35648965811623 L 109.8107248143778 359.83587473987876 C 111.07070828888304 359.5359430725196 112.30384905948523 359.9292763435518 113.21103797945393 361.04436132393937 C 114.48636153361282 362.6119445572379 114.22176610480861 364.4654902459564 112.75114678284815 365.66192780707456 L 112.36329113749593 365.9774717792376 L 107.3408829139011 359.8041027573816 L 106.72677814209344 360.3037140466397 C 104.36732296620082 362.2232732106315 103.83758376150658 365.07138442442226 105.66510926695078 367.31771503708717 C 107.50578243790176 369.58020630164174 110.49413509236625 369.7541369912202 113.1606426541627 367.5847721825994 C 115.79482891217978 365.44170270499217 116.27197745484686 362.52894888364267 114.32612295984153 360.1371724039707 Z M 106.73171229166935 366.4499691136388 C 105.61416072359197 365.0763137030164 105.85355654135786 363.3238406319941 107.32417586331832 362.12740307087597 L 107.50194303410476 361.98277875030124 L 111.39365202411541 366.76633170964516 L 111.28052746088768 366.8583653681927 C 109.8260687908169 368.04165526380405 107.88870685626712 367.87210647993027 106.73171229166935 366.4499691136388 Z" fill-opacity="1"/></g></g><g><g><path fill="rgb(255,255,255)" stroke="none" paint-order="stroke fill markers" d="" fill-opacity="1"/></g></g><g><g><path fill="rgb(255,255,255)" stroke="none" paint-order="stroke fill markers" d="" fill-opacity="1"/></g></g><g><g><path fill="rgb(255,255,255)" stroke="none" paint-order="stroke fill markers" d="" fill-opacity="1"/></g></g><g><g><path fill="rgb(255,255,255)" stroke="none" paint-order="stroke fill markers" d="" fill-opacity="1"/></g></g><g><g><path fill="rgb(255,255,255)" stroke="none" paint-order="stroke fill markers" d="" fill-opacity="1"/></g></g><g><g><path fill="rgb(255,255,255)" stroke="none" paint-order="stroke fill markers" d=" M 82.68107712007865 301.4673196382654 L 81.1803325805177 296.11109222739327 C 80.5732898454144 293.9445283308607 78.35828020001506 292.8342935990689 76.09141241938379 293.46944016450107 C 74.14551706786844 294.0146544728809 73.48292266944986 295.4335362888292 73.5602484398246 297.0994506699533 L 73.50006610936536 297.11631296815057 C 72.73912154476108 295.9448385730023 71.54333056127332 295.30627962120496 69.87828608523441 295.772803204664 C 67.69166141188212 296.3854667058331 66.67766218048148 298.2489778043443 67.34653334230826 300.636210245894 L 68.67865489989607 305.39061435217377 Z M 80.74449606271241 300.19253030820806 L 75.66911952731672 301.6145841228482 L 74.78103848892485 298.4449813853284 C 74.34823950186046 296.90030157020794 74.80625146228006 295.75509748131213 76.21050583966226 295.3616438567081 L 77.03299768927184 295.1311924480115 C 78.45731284347379 294.7321180573417 79.42361603725615 295.4782477555678 79.85641502432054 297.02292757068824 Z M 74.28492592675425 302.00241698138643 L 69.67094725821272 303.2951931765138 L 68.86155694474165 300.40644131447044 C 68.46810332013766 299.00218693708825 68.86835523754135 297.9597090197345 70.15224495400508 297.5999799915251 L 70.93461524997517 297.38077011496 C 72.2185049664389 297.02104108675064 73.08208198867919 297.7094107419608 73.47553561328318 299.113665119343 Z" fill-opacity="1"/></g></g><g><g><path fill="rgb(255,255,255)" stroke="none" paint-order="stroke fill markers" d=" M 78.86690767506671 285.3703600145073 C 78.43456364732987 283.28980632818235 77.10102303587131 281.99231837326863 75.56219098473147 281.6524612520703 L 74.99636892770673 283.025465454057 C 76.25307770401155 283.3388349048169 77.16700628026021 284.25539465722716 77.45947429902337 285.66282803327044 C 77.87062499206723 287.64139379379515 76.78294305475843 289.1653985065055 74.92676280519403 289.5511171979178 L 74.43722076135286 289.6528452044441 L 72.81804999080899 281.8609676733056 L 72.04294175472715 282.02203701697226 C 69.06489432136009 282.6408823900074 67.28423031886865 284.92596374990296 67.87340502333356 287.7612280871497 C 68.46681839473707 290.61689000955647 71.04011311474608 292.1461570745899 74.40571466615405 291.4467770297215 C 77.73052104724195 290.75587431873026 79.494230381979 288.3892026181945 78.86690767506671 285.3703600145073 Z M 69.21964564389675 287.4814760692023 C 68.85935895411605 285.7476813305982 69.87816655160046 284.3018240411224 71.73434680116486 283.9161053497101 L 71.95872023792539 283.86948001338556 L 73.21336565174997 289.9071652207599 L 73.07058255562963 289.93683588933004 C 71.23479989122526 290.31831591380376 69.59264833449325 289.2764635632866 69.21964564389675 287.4814760692023 Z" fill-opacity="1"/></g></g><g><g><path fill="rgb(255,255,255)" stroke="none" paint-order="stroke fill markers" d=" M 75.92075814626587 268.66934095623736 L 74.47600780829622 268.86791731950274 L 74.68025778194058 270.3539462385572 L 68.8186992678923 271.1595989123767 C 66.56901659876813 271.46881067803275 65.4458967131025 273.24242838711723 65.78915014103262 275.73978254275045 C 66.08701468593065 277.90690804970495 67.30620835555918 279.1272609660296 68.49448697977718 279.51069503989936 L 69.16687112124085 278.2827011430283 C 68.1202307256303 277.8587701422896 67.40254548194079 277.07418729000347 67.20680592386495 275.65007624257623 C 66.98553511908354 274.04021158026717 67.66281121671034 273.0008081034674 69.2107580073921 272.78804771425456 L 70.2633618250557 272.64337064958977 L 70.57541039590126 274.9136926092564 C 71.01511520027456 278.112782643332 72.3403421278047 279.3395908242516 74.30107472933494 279.07009433124864 C 76.30308591195002 278.7949242278666 77.34570378641958 277.2006048690691 77.03932882595302 274.9715614904874 C 76.80103719003459 273.2378610849238 75.89837998567917 272.3314976403567 74.61825212950707 272.0448047546042 L 74.60406810355954 271.9416083018921 C 75.57773321845885 271.6816059095413 76.25266435343796 271.08413794970096 76.07678243168864 269.80450193607066 Z M 75.61678108695757 274.8726773705903 C 75.80401022946492 276.2348705463902 75.34241910704677 277.1605120039357 74.24853670829832 277.3108626789795 L 73.81511160690742 277.3704355879591 C 72.78314707978625 277.51227584743435 72.08326432144966 276.7042168994163 71.81376782844667 274.7434842978861 L 71.50171925760111 272.4731623382195 L 73.25605895370711 272.23203389711153 C 74.34994135245556 272.08168322206774 75.38416306141815 273.18025554611154 75.61678108695757 274.8726773705903 Z" fill-opacity="1"/></g></g><g><g><path fill="rgb(255,255,255)" stroke="none" paint-order="stroke fill markers" d=" M 75.08665736206365 257.245065217212 L 73.67329327237705 257.3417419694787 L 74.00739675447491 262.22616198530733 L 66.10918566504981 262.7664144244443 L 65.77508218295195 257.88199440861564 L 64.36171809326535 257.97867116088224 L 64.69582157536321 262.86309117671095 L 60.91299415884909 263.12184366071864 L 61.02246636362158 264.72227064462845 L 63.82840977696998 264.5303388570403 C 64.55587658783807 264.48057876396194 64.82377610042198 264.7337201189432 64.87211447655528 265.4404021637865 L 65.05409424552774 268.10085221496126 L 66.46745833521435 268.00417546269466 L 66.2229230206576 264.4291957064286 L 73.08189580884256 263.96002911454644 C 74.51604466455396 263.8619306453347 75.4833163897458 263.044014938132 75.3724224680282 261.4228031881974 Z" fill-opacity="1"/></g></g><g><g><path fill="rgb(255,255,255)" stroke="none" paint-order="stroke fill markers" d=" M 75 253.58333333333337 L 67.10416666666667 253.58333333333337 C 65.95833333333333 253.58333333333337 65.375 252.95833333333337 65.375 252.06250000000003 C 65.375 251.08333333333337 65.97916666666667 250.77083333333337 67.8125 250.77083333333337 L 75 250.77083333333337 L 75 249.22916666666669 L 67.10416666666667 249.22916666666669 C 65.95833333333333 249.22916666666669 65.375 248.60416666666669 65.375 247.72916666666669 C 65.375 246.72916666666669 65.97916666666667 246.41666666666669 67.8125 246.41666666666669 L 75 246.41666666666669 L 75 244.87500000000003 L 67.54166666666667 244.87500000000003 C 65.27083333333333 244.87500000000003 64 245.33333333333337 64 247.08333333333337 C 64 248.35416666666669 64.70833333333333 249.02083333333337 65.6875 249.41666666666669 L 65.6875 249.47916666666669 C 64.6875 249.60416666666669 64 250.20833333333337 64 251.43750000000003 C 64 252.62500000000003 64.66666666666667 253.16666666666669 65.5 253.50000000000003 L 65.5 253.58333333333337 L 64.25 253.58333333333337 L 64.25 255.12500000000003 L 75 255.12500000000003 Z" fill-opacity="1"/></g></g><g><g><path fill="rgb(255,255,255)" stroke="none" paint-order="stroke fill markers" d=" M 75.76339462792997 232.86138615498186 L 74.30846100619377 232.76186596882505 L 74.20609738614675 234.25836912261087 L 68.30322383510273 233.85460151020322 C 66.03768433839922 233.6996343631876 64.57720234201453 235.20764974566612 64.40517459165775 237.72260643466726 C 64.25589431242254 239.90500686727157 65.20129929528626 241.34788727216343 66.28671202005309 241.96506390384357 L 67.19487537608046 240.8995552163081 C 66.25637773043235 240.27154583721884 65.71333162740716 239.3573558727693 65.81143009661886 237.9232070170579 C 65.92232401833647 236.3019952671233 66.79690715583315 235.42212775686593 68.35576460769337 235.52875652774824 L 69.41578767495832 235.6012640919482 L 69.25939881099761 237.88758835467652 C 69.03903268450753 241.10922708852098 70.08693978055017 242.58000084416312 72.06149255290644 242.71506395394735 C 74.07761485731233 242.8529704976218 75.42279928801221 241.50412465861623 75.57634471808272 239.2593699279375 C 75.6957689414709 237.51344958185408 74.99639672886296 236.44239251967014 73.80137330619173 235.90124636736374 L 73.80848189091722 235.79732253723972 C 74.81468096177834 235.7408563544556 75.59705374535358 235.2932037798838 75.68520019594962 234.00454828634602 Z M 74.20366943165229 238.87312816826878 C 74.10983611327588 240.24492272590575 73.4695722698324 241.05729005845996 72.36797967051784 240.9819390603698 L 71.93149958399698 240.95208300452276 C 70.89226128275683 240.88099715726787 70.37142166270155 239.94744414373864 70.50648477248579 237.97289137138236 L 70.66287363644649 235.68656710865403 L 72.42957874855473 235.8074130489873 C 73.53117134786929 235.88276404707747 74.32025022115027 237.16877735423492 74.20366943165229 238.87312816826878 Z" fill-opacity="1"/></g></g><g><g><path fill="rgb(255,255,255)" stroke="none" paint-order="stroke fill markers" d=" M 76.0767824316886 230.19549806392956 L 76.303726846849 228.54435482053566 L 72.4441795154158 228.01387225009822 L 71.02487264334545 225.9471941714726 L 77.12640035180549 222.55896056323283 L 77.4072440655665 220.5156707995329 L 70.24851039495377 224.55770440966754 L 66.6864500159383 219.56786158530886 L 66.40844310736681 221.59051205846635 L 69.18152052047485 225.58868525170502 L 70.68054774952539 227.68734984163106 L 70.66920052876738 227.76990700380077 L 61.03065184545557 226.44511898030188 L 60.80370743029516 228.09626222369576 Z" fill-opacity="1"/></g></g><g><g><path fill="rgb(255,255,255)" stroke="none" paint-order="stroke fill markers" d=" M 65.94544334679807 211.0721148193518 C 66.1404220259735 210.13382590198958 65.76373249040859 209.69381628161966 65.17220252076719 209.57089494040034 L 64.84584115820641 209.5030762693828 C 64.25431118856501 209.3801549281635 63.7335069770878 209.63366320323522 63.538528297912364 210.57195212059742 C 63.34354961873692 211.51024103795964 63.720239154301844 211.9502506583296 64.31176912394325 212.0731719995489 L 64.63813048650402 212.14099067056645 C 65.22966045614542 212.26391201178575 65.75046466762264 212.01040373671404 65.94544334679807 211.0721148193518 Z M 77.83798326950574 218.35232923683856 L 79.70299672248822 209.37739176641728 L 78.31596093160492 209.08916241459272 L 77.57843288428913 212.63834223244112 L 68.44031473258745 210.73941944394988 L 67.31282932692078 216.16517709652277 L 68.69986511780407 216.45340644834732 L 69.48825716838302 212.65945560857833 L 77.2393395292014 214.270149045245 L 76.45094747862245 218.064099885014 Z" fill-opacity="1"/></g></g><g><g><path fill="rgb(255,255,255)" stroke="none" paint-order="stroke fill markers" d=" M 80.803741254111 205.2329798195298 L 73.62198315264199 203.22074556798367 C 72.25785032889928 202.8385334755112 71.99569527569652 201.38040001100856 72.35542430390589 200.09651029454483 C 72.79946482310183 198.51170892578492 73.9639534976383 197.9076507615613 75.8496665186944 198.43600277174383 L 82.20893277055383 200.21778561459334 L 82.65859405581554 198.61292346901368 L 76.01847692847967 196.75244990124335 C 73.51087982601145 196.04985414302195 71.66742950431998 197.06947414048835 71.06038676921668 199.2360380370209 C 70.5826216536261 200.9412040666993 71.26052596788382 201.99656961244884 72.15996873224388 202.7245657718376 L 72.1374856679808 202.8048088791166 L 70.45238041512215 202.3326645295918 L 70.00271912986045 203.93752667517145 L 80.35407996884929 206.83784196510948 Z" fill-opacity="1"/></g></g><g><g><path fill="rgb(255,255,255)" stroke="none" paint-order="stroke fill markers" d=" M 88.0834422371572 186.6841469626832 C 86.43448562344926 186.09810764138396 84.97677254661254 186.8403029227077 84.04887695455544 189.45115089441194 L 83.25353787564934 191.68902058444414 C 82.91168160489146 192.65091194244044 82.53706216179468 193.26951015216633 81.92851864959295 193.05323373597258 C 81.2414533938813 192.80905068543123 81.18810186732325 191.83936208813566 81.28659566825216 191.18895862441255 C 81.45711351327492 190.89580162613362 81.58837048654273 190.58869131068093 81.70697368251994 190.25497390076384 C 82.55114937153431 187.8796911595893 81.67626023943025 185.79996021254792 79.61506447229533 185.06741106092386 C 78.55502093491165 184.6906714972315 77.52514149010045 184.7889610142482 76.6388311743061 185.29203406693412 L 75.95176591859446 185.0478510163928 L 76.76105831467434 182.77072045460562 L 75.38692780325107 182.28235435352295 L 74.72414523749599 184.1472457618831 C 74.41019560108569 185.0306153763695 74.88050548143273 185.57363254389347 75.66572291653175 185.85269888736929 L 75.84239683942903 185.91548881465133 C 75.3652476381244 186.3870982348816 74.99062819502763 187.00569644460748 74.7185385101387 187.77128344382902 C 73.87436282112434 190.14656618500356 74.75622861181529 192.20666669616747 76.81742437895022 192.93921584779153 C 78.25044619800592 193.4485119246349 79.63449406932405 193.10022490074388 80.62367576486778 192.05885388089598 L 80.70219750837768 192.08676051524358 C 80.58763026967941 193.21787017837943 80.77969438726299 194.17052741956394 81.82010748876918 194.5402903246694 C 82.50717274448083 194.78447337521072 83.05764552976251 194.60424245420535 83.53479473106714 194.1326330339751 L 83.77035996159684 194.21635293701786 C 83.67542315877604 195.3544392587406 84.04805981890654 196.1722825285492 85.12773379216769 196.55599875082845 C 86.73742953412066 197.12808475495387 88.11484236839344 196.11414141028274 89.27296769381809 192.8554890546218 C 90.47295297076413 189.47905408369604 90.12500756841465 187.40971945572034 88.0834422371572 186.6841469626832 Z M 87.63871458664994 188.18433628784143 C 88.73801899578855 188.57502916870757 88.92358541395609 189.85702624098872 88.2747561653748 191.68265677759393 L 87.73057679559695 193.213830776037 C 87.14453747429772 194.86278738974494 86.1683511775861 195.2454787473996 85.2849815630997 194.9315291109893 C 84.63717717914302 194.70129937762175 84.3112570085252 194.1874883843286 84.273637298195 193.42238034427788 L 85.5224591852493 189.9085323222098 C 86.10152184796164 188.27920614437932 86.83386671567344 187.89829328577872 87.63871458664994 188.18433628784143 Z M 80.48988665811648 189.82242106837631 C 79.93873062975173 191.37322550269687 78.8757463910601 191.81350862810075 77.6782898025341 191.3879324543001 L 77.10900716208731 191.18560935528015 C 75.91155057356131 190.7600331814795 75.38446950617742 189.7546407105371 75.93562553454217 188.20383627621655 C 76.49375822149382 186.63340140601852 77.53711202430797 186.18614162202775 78.73456861283397 186.61171779582838 L 79.30385125328075 186.81404089484835 C 80.50130784180676 187.23961706864898 81.04801934506811 188.2519861981783 80.48988665811648 189.82242106837631 Z" fill-opacity="1"/></g></g><g><g><path fill="rgb(255,255,255)" stroke="none" paint-order="stroke fill markers" d="" fill-opacity="1"/></g></g><g><g><path fill="rgb(255,255,255)" stroke="none" paint-order="stroke fill markers" d="" fill-opacity="1"/></g></g><g><g><path fill="rgb(255,255,255)" stroke="none" paint-order="stroke fill markers" d="" fill-opacity="1"/></g></g><g><g><path fill="rgb(255,255,255)" stroke="none" paint-order="stroke fill markers" d="" fill-opacity="1"/></g></g><g><g><path fill="rgb(255,255,255)" stroke="none" paint-order="stroke fill markers" d="" fill-opacity="1"/></g></g><g><g><path fill="rgb(255,255,255)" stroke="none" paint-order="stroke fill markers" d=" M 115.77473097215254 128.2341269121499 L 117.35313511584567 126.54406874475671 L 124.30778410963842 128.1932088020875 L 125.64445068177496 126.76198837204284 L 118.51513983375591 125.17777488015686 C 119.92606073563532 123.33129828410942 119.69721807539183 121.37869786467799 117.99193415874288 119.78607386383446 C 116.0734897525128 117.9943718628855 113.93616855780103 117.99368502451195 112.1018069854009 119.95780667850941 L 108.48996326920219 123.82514698948115 L 119.11753624974658 133.7506072804524 L 120.31200425037923 132.47164434296567 Z M 114.69370277499114 127.22451705447229 L 110.79591096550782 123.5842336239728 L 113.1848469667731 121.02630774899937 C 114.1802369673003 119.96050530109378 115.34082369008101 119.84715854691478 116.33049739170764 120.77144926169005 L 117.12223635300894 121.51088183351025 C 118.11191005463557 122.43517254828552 118.07802877678364 123.60078873159325 117.08263877625643 124.66659117949885 Z" fill-opacity="1"/></g></g><g><g><path fill="rgb(255,255,255)" stroke="none" paint-order="stroke fill markers" d=" M 130.86086996584228 122.15843652804438 C 132.41389638993329 120.70801109870474 132.82960897734264 118.89445420678626 132.32043706089544 117.40306193647442 L 130.85332356878803 117.63300353811557 C 131.23854033930334 118.86958163950055 130.93027652111527 120.12668968601776 129.87969982246545 121.10785982939458 C 128.40280214465344 122.48718597298227 126.53552086812432 122.34969780827356 125.24151386743895 120.96415462599629 L 124.90023729582963 120.59873664385722 L 130.71647351154303 115.16675121240877 L 130.17611893982826 114.58817274068858 C 128.10001979587153 112.36521334934262 125.22239750490884 112.0310710717634 123.10601835835344 114.00763121566743 C 120.97441346254226 115.99841121672185 121.0048206426714 118.99166678142373 123.35109707248553 121.50391540862978 C 125.66893378799888 123.98571253732425 128.60745907598474 124.2629753863019 130.86086996584228 122.15843652804438 Z M 124.0445289302791 115.01253066654985 C 125.3387176170216 113.80384280876682 127.10344221718177 113.92308754790352 128.39744921786712 115.3086307301808 L 128.5538676465214 115.47611397199454 L 124.04704586680631 119.68519168850958 L 123.94750686675359 119.57861144371901 C 122.66771972321861 118.20829401069753 122.7046629957692 116.26387809578405 124.0445289302791 115.01253066654985 Z" fill-opacity="1"/></g></g><g><g><path fill="rgb(255,255,255)" stroke="none" paint-order="stroke fill markers" d=" M 143.59977271535956 110.96360775002837 L 142.67943612988407 109.83236211775109 L 141.51586919382746 110.77899403424017 L 137.7819321898983 106.18936889757235 C 136.3488366496579 104.42785784159773 134.24986819621137 104.38978571279188 132.29442931756063 105.9806532391138 C 130.5975608691447 107.36115811732704 130.18834111976577 109.03693663525914 130.47813810800102 110.25145114047822 L 131.8767199303152 110.18790327869843 C 131.69511725251718 109.07336567120028 131.99258233218657 108.05250481511439 133.10766731257416 107.1453158951457 C 134.36819815996884 106.11979798561586 135.60818644976916 106.15841846150752 136.5942613627786 107.37046735323318 L 137.26479230362506 108.19466059960662 L 135.48712059576076 109.64090380535383 C 132.98221955286107 111.67879195890671 132.62257747912642 113.44852140179397 133.87160570227172 114.98378333131313 C 135.1469292564306 116.55136656461166 137.0508741672258 116.61381675802348 138.79622457131074 115.19386888328985 C 140.15371933004346 114.08946498071926 140.45912764888624 112.84728525096843 140.03894972555833 111.60455814832814 L 140.1197529850067 111.53881982079417 C 140.8478048406708 112.23564511845784 141.70897644426756 112.50188461432312 142.71093686142743 111.68672935290196 Z M 138.14158010881107 113.9270378895865 C 137.0749770840925 114.79478381303483 136.04425572242562 114.88133984590242 135.34742945056558 114.02482529574962 L 135.07132847492295 113.68545160606644 C 134.4139451995833 112.87741901158266 134.74071859664915 111.85957114187967 136.27598052616833 110.61054291873435 L 138.0536522340326 109.16429971298714 L 139.17120380211 110.53795512360956 C 139.86803007397 111.39446967376236 139.46675356376446 112.84892931802949 138.14158010881107 113.9270378895865 Z" fill-opacity="1"/></g></g><g><g><path fill="rgb(255,255,255)" stroke="none" paint-order="stroke fill markers" d=" M 145.76200343954332 109.37303253176432 L 147.12361992789405 108.41189866157288 L 144.87696950632153 105.22912012005303 L 145.4186198060429 102.78122199500991 L 152.05947969816546 104.92778838212888 L 153.7444801024995 103.73838521776696 L 145.90420040305025 101.26542793818727 L 147.11966148715507 95.25631320233954 L 145.4516812889254 96.43370219332407 L 144.42244523259944 101.18933257872838 L 143.91183142028328 103.71732570156641 L 143.84375059586574 103.76538239507599 L 138.23313162862317 95.81694614432855 L 136.87151514027244 96.77808001452 Z" fill-opacity="1"/></g></g><g><g><path fill="rgb(255,255,255)" stroke="none" paint-order="stroke fill markers" d=" M 163.0957001068722 98.03022977294766 L 162.359622844322 96.81980228317347 L 158.17652784289646 99.36359870522195 L 154.06315490511594 92.59944508589558 L 158.24624990654146 90.0556486638471 L 157.51017264399127 88.8452211740729 L 153.32707764256574 91.38901759612138 L 151.3569884986814 88.14934402054928 L 149.98635737055474 88.98284327373112 L 151.4476872300294 91.38589784901812 C 151.82655052693025 92.0089119981666 151.7250412590411 92.36323750243783 151.119827514154 92.73127613371292 L 148.84137576869668 94.1168333338074 L 149.57745303124688 95.3272608235816 L 152.63912256420514 93.46541833595464 L 156.21126222069873 99.33955174221174 C 156.9581641488747 100.56777963624732 158.1293873179457 101.05031148252861 159.51781885033375 100.20598756372104 Z" fill-opacity="1"/></g></g><g><g><path fill="rgb(255,255,255)" stroke="none" paint-order="stroke fill markers" d=" M 169.60363465648106 94.842058084185 C 172.28578792040489 93.45227828270546 172.91609813786968 90.63849450127371 171.3442092589549 87.60488667173226 C 169.77232038004013 84.57127884219082 167.11005624592943 83.46356957567875 164.42790298200558 84.85334937715828 C 161.74574971808175 86.2431291786378 161.115439500617 89.05691296006955 162.68732837953175 92.090520789611 C 164.2592172584465 95.12412861915244 166.9214813925572 96.23183788566452 169.60363465648106 94.842058084185 Z M 168.94229116474253 93.56572308273158 C 167.2960039889548 94.41876034019143 165.67815898679035 94.01346837536941 164.61425858703706 91.96023380781392 L 163.9049916538682 90.59141076277692 C 162.8410912541149 88.53817619522144 163.44295929795638 86.98272163607153 165.0892464737441 86.12968437861169 C 166.73553364953185 85.27664712115184 168.35337865169632 85.68193908597385 169.4172790514496 87.73517365352934 L 170.12654598461847 89.10399669856635 C 171.19044638437174 91.15723126612184 170.58857834053026 92.71268582527173 168.94229116474253 93.56572308273158 Z" fill-opacity="1"/></g></g><g><g><path fill="rgb(255,255,255)" stroke="none" paint-order="stroke fill markers" d=" M 176.01859843866356 91.33892729978976 L 183.50915740095812 88.08531839937878 L 182.94475585700926 86.78593572224605 L 179.86827628320972 88.12223937777199 L 178.01737121996572 83.86102853952791 C 177.35336940355532 82.33234303701883 177.82662207313413 80.6503848628583 179.75658752005185 79.81208256964017 L 181.61011869184412 79.00698036724255 L 180.94611687543372 77.47829486473346 L 179.57029992317555 78.07589649950282 C 177.50657449478828 78.97229895165687 177.1421817385636 80.53883126053739 177.3244119068852 82.00421439177272 L 177.22886906297836 82.04571450529838 L 176.14986611131147 79.5616005637211 L 171.73578672281647 81.47890580860614 L 172.3001882667653 82.77828848573887 L 175.1855821527512 81.52498505726423 L 178.33959078070063 88.7862411941824 L 175.45419689471473 90.03954462265703 Z" fill-opacity="1"/></g></g><g><g><path fill="rgb(255,255,255)" stroke="none" paint-order="stroke fill markers" d="" fill-opacity="1"/></g></g><g><g><path fill="rgb(255,255,255)" stroke="none" paint-order="stroke fill markers" d="" fill-opacity="1"/></g></g><g><g><path fill="rgb(255,255,255)" stroke="none" paint-order="stroke fill markers" d="" fill-opacity="1"/></g></g><g><g><path fill="rgb(255,255,255)" stroke="none" paint-order="stroke fill markers" d="" fill-opacity="1"/></g></g><g><g><path fill="rgb(255,255,255)" stroke="none" paint-order="stroke fill markers" d="" fill-opacity="1"/></g></g></g><g><g><g><path fill="rgb(255,255,255)" stroke="none" paint-order="stroke fill markers" d=" M 253.75 84.30729675292969 L 253.75 83.15104675292969 L 246.25 83.15104675292969 L 246.25 84.30729675292969 Z" fill-opacity="1"/></g></g><g><g><path fill="rgb(255,255,255)" stroke="none" paint-order="stroke fill markers" d=" M 265.0485278309609 84.94947373775962 L 265.1274331214138 83.79591922338305 L 257.64491735248475 83.28410112314802 L 257.5660120620318 84.43765563752459 Z" fill-opacity="1"/></g></g><g><g><path fill="rgb(255,255,255)" stroke="none" paint-order="stroke fill markers" d=" M 276.2768924784886 86.36119246647006 L 276.4343351665061 85.21571184136555 L 269.00419057123366 84.1944619731437 L 268.8467478832161 85.33994259824821 Z" fill-opacity="1"/></g></g><g><g><path fill="rgb(255,255,255)" stroke="none" paint-order="stroke fill markers" d=" M 287.3827421233708 88.53587085467169 L 287.6179881384629 87.403804878289 L 280.27485748084547 85.87788478039424 L 280.03961146575335 87.00995075677693 Z" fill-opacity="1"/></g></g><g><g><path fill="rgb(255,255,255)" stroke="none" paint-order="stroke fill markers" d=" M 298.3142961678928 91.46336954784601 L 298.6262486845431 90.34999643435012 L 291.40436902943463 88.32652065067244 L 291.09241651278427 89.43989376416833 Z" fill-opacity="1"/></g></g><g><g><path fill="rgb(255,255,255)" stroke="none" paint-order="stroke fill markers" d=" M 309.02058666088675 95.13003919569664 L 309.4077912124595 94.04055000449675 L 302.3408342965683 91.52895291321435 L 301.9536297449956 92.61844210441424 Z" fill-opacity="1"/></g></g><g><g><path fill="rgb(255,255,255)" stroke="none" paint-order="stroke fill markers" d=" M 319.45169593384816 99.51878409172124 L 319.9123471939829 98.45825852435556 L 313.03326243269197 95.47025035050875 L 312.5726111725573 96.53077591787442 Z" fill-opacity="1"/></g></g><g><g><path fill="rgb(255,255,255)" stroke="none" paint-order="stroke fill markers" d=" M 329.5589893401489 104.60914188128685 L 330.09093954002554 103.5825245975091 L 323.4318004020077 100.13203681452546 L 322.89985020213106 101.1586540983032 Z" fill-opacity="1"/></g></g><g><g><path fill="rgb(255,255,255)" stroke="none" paint-order="stroke fill markers" d=" M 339.29534201221105 110.37737896657303 L 339.8961109544395 109.38945653006616 L 333.48796542034086 105.4925769048004 L 332.8871964781124 106.48049934130728 Z" fill-opacity="1"/></g></g><g><g><path fill="rgb(255,255,255)" stroke="none" paint-order="stroke fill markers" d=" M 348.61535857939276 116.79660116356078 L 349.2821452018381 115.85197972476745 L 343.15487100425975 111.52687730890595 L 342.4880843818145 112.47149874769927 Z" fill-opacity="1"/></g></g><g><g><path fill="rgb(255,255,255)" stroke="none" paint-order="stroke fill markers" d=" M 357.47558482216186 123.83687909513334 L 358.20528025778884 122.93996291525636 L 352.38744557750573 118.20680333281096 L 351.6577501418787 119.10371951268795 Z" fill-opacity="1"/></g></g><g><g><path fill="rgb(255,255,255)" stroke="none" paint-order="stroke fill markers" d=" M 365.8347102757265 131.46538773564825 L 366.6239123475731 130.62035865195168 L 361.14264261548715 125.50121007781176 L 360.35344054364055 126.34623916150834 Z" fill-opacity="1"/></g></g><g><g><path fill="rgb(255,255,255)" stroke="none" paint-order="stroke fill markers" d=" M 373.6537608384916 139.64655945635943 L 374.4987899221882 138.85735738451285 L 369.3796413480483 133.37608765242695 L 368.5346122643517 134.1652897242735 Z" fill-opacity="1"/></g></g><g><g><path fill="rgb(255,255,255)" stroke="none" paint-order="stroke fill markers" d=" M 380.89628048731197 148.34224985812128 L 381.79319666718897 147.6125544224943 L 377.06003708474356 141.79471974221113 L 376.1631209048666 142.52441517783814 Z" fill-opacity="1"/></g></g><g><g><path fill="rgb(255,255,255)" stroke="none" paint-order="stroke fill markers" d=" M 387.5285012523007 157.51191561818555 L 388.47312269109403 156.84512899574023 L 384.1480202752325 150.71785479816194 L 383.2033988364392 151.38464142060724 Z" fill-opacity="1"/></g></g><g><g><path fill="rgb(255,255,255)" stroke="none" paint-order="stroke fill markers" d=" M 393.5195006586927 167.11280352188763 L 394.5074230951996 166.51203457965914 L 390.6105434699339 160.1038890455605 L 389.622621033427 160.70465798778895 Z" fill-opacity="1"/></g></g><g><g><path fill="rgb(255,255,255)" stroke="none" paint-order="stroke fill markers" d=" M 398.8413459016968 177.1001497978689 L 399.86796318547454 176.56819959799225 L 396.4174754024909 169.90906045997443 L 395.39085811871314 170.4410106598511 Z" fill-opacity="1"/></g></g><g><g><path fill="rgb(255,255,255)" stroke="none" paint-order="stroke fill markers" d=" M 403.46922408212555 187.42738882744274 L 404.52974964949124 186.96673756730803 L 401.5417414756444 180.08765280601713 L 400.4812159082788 180.54830406615184 Z" fill-opacity="1"/></g></g><g><g><path fill="rgb(255,255,255)" stroke="none" paint-order="stroke fill markers" d=" M 407.38155789558573 198.04637025500435 L 408.4710470867856 197.65916570343165 L 405.9594499955032 190.5922087875405 L 404.86996080430333 190.9794133391132 Z" fill-opacity="1"/></g></g><g><g><path fill="rgb(255,255,255)" stroke="none" paint-order="stroke fill markers" d=" M 410.56010623583165 208.90758348721565 L 411.6734793493275 208.59563097056534 L 409.65000356564985 201.37375131545684 L 408.53663045215393 201.68570383210715 Z" fill-opacity="1"/></g></g><g><g><path fill="rgb(255,255,255)" stroke="none" paint-order="stroke fill markers" d=" M 412.9900492432231 219.96038853424656 L 414.12211521960575 219.72514251915447 L 412.596195121711 212.38201186153705 L 411.46412914532834 212.61725787662914 Z" fill-opacity="1"/></g></g><g><g><path fill="rgb(255,255,255)" stroke="none" paint-order="stroke fill markers" d=" M 414.66005740175177 231.1532521167839 L 415.80553802685625 230.99580942876636 L 414.7842881586344 223.56566483349388 L 413.6388075335299 223.72310752151142 Z" fill-opacity="1"/></g></g><g><g><path fill="rgb(255,255,255)" stroke="none" paint-order="stroke fill markers" d=" M 415.5623443624754 242.43398793796817 L 416.71589887685195 242.35508264751527 L 416.20408077661693 234.87256687858624 L 415.0505262622404 234.95147216903914 Z" fill-opacity="1"/></g></g><g><g><path fill="rgb(255,255,255)" stroke="none" paint-order="stroke fill markers" d=" M 415.6927032470703 253.75 L 416.8489532470703 253.75 L 416.8489532470703 246.25 L 415.6927032470703 246.25 Z" fill-opacity="1"/></g></g><g><g><path fill="rgb(255,255,255)" stroke="none" paint-order="stroke fill markers" d=" M 415.0505262622404 265.04852783096084 L 416.20408077661693 265.12743312141373 L 416.71589887685195 257.6449173524847 L 415.5623443624754 257.56601206203175 Z" fill-opacity="1"/></g></g><g><g><path fill="rgb(255,255,255)" stroke="none" paint-order="stroke fill markers" d=" M 413.6388075335299 276.27689247848855 L 414.7842881586344 276.43433516650606 L 415.80553802685625 269.0041905712336 L 414.66005740175177 268.84674788321604 Z" fill-opacity="1"/></g></g><g><g><path fill="rgb(255,255,255)" stroke="none" paint-order="stroke fill markers" d=" M 411.46412914532834 287.3827421233708 L 412.596195121711 287.6179881384629 L 414.12211521960575 280.27485748084547 L 412.9900492432231 280.03961146575335 Z" fill-opacity="1"/></g></g><g><g><path fill="rgb(255,255,255)" stroke="none" paint-order="stroke fill markers" d=" M 408.536630452154 298.3142961678928 L 409.6500035656499 298.6262486845431 L 411.6734793493276 291.40436902943463 L 410.5601062358317 291.09241651278427 Z" fill-opacity="1"/></g></g><g><g><path fill="rgb(255,255,255)" stroke="none" paint-order="stroke fill markers" d=" M 404.8699608043034 309.0205866608868 L 405.95944999550323 309.40779121245953 L 408.47104708678563 302.34083429656835 L 407.3815578955858 301.9536297449957 Z" fill-opacity="1"/></g></g><g><g><path fill="rgb(255,255,255)" stroke="none" paint-order="stroke fill markers" d=" M 400.4812159082788 319.45169593384816 L 401.54174147564447 319.9123471939829 L 404.52974964949124 313.03326243269197 L 403.46922408212555 312.5726111725573 Z" fill-opacity="1"/></g></g><g><g><path fill="rgb(255,255,255)" stroke="none" paint-order="stroke fill markers" d=" M 395.39085811871314 329.5589893401489 L 396.4174754024909 330.09093954002554 L 399.86796318547454 323.4318004020077 L 398.8413459016968 322.89985020213106 Z" fill-opacity="1"/></g></g><g><g><path fill="rgb(255,255,255)" stroke="none" paint-order="stroke fill markers" d=" M 389.622621033427 339.295342012211 L 390.6105434699339 339.89611095443945 L 394.5074230951996 333.4879654203408 L 393.5195006586927 332.88719647811234 Z" fill-opacity="1"/></g></g><g><g><path fill="rgb(255,255,255)" stroke="none" paint-order="stroke fill markers" d=" M 383.20339883643925 348.61535857939276 L 384.14802027523257 349.2821452018381 L 388.4731226910941 343.15487100425975 L 387.52850125230077 342.4880843818145 Z" fill-opacity="1"/></g></g><g><g><path fill="rgb(255,255,255)" stroke="none" paint-order="stroke fill markers" d=" M 376.1631209048666 357.47558482216186 L 377.06003708474356 358.20528025778884 L 381.79319666718897 352.38744557750573 L 380.89628048731197 351.6577501418787 Z" fill-opacity="1"/></g></g><g><g><path fill="rgb(255,255,255)" stroke="none" paint-order="stroke fill markers" d=" M 368.5346122643518 365.8347102757265 L 369.3796413480484 366.6239123475731 L 374.4987899221883 361.14264261548715 L 373.6537608384917 360.35344054364055 Z" fill-opacity="1"/></g></g><g><g><path fill="rgb(255,255,255)" stroke="none" paint-order="stroke fill markers" d=" M 360.35344054364055 373.6537608384917 L 361.14264261548715 374.4987899221883 L 366.6239123475731 369.3796413480484 L 365.8347102757265 368.5346122643518 Z" fill-opacity="1"/></g></g><g><g><path fill="rgb(255,255,255)" stroke="none" paint-order="stroke fill markers" d=" M 351.65775014187875 380.89628048731197 L 352.3874455775058 381.79319666718897 L 358.2052802577889 377.06003708474356 L 357.4755848221619 376.1631209048666 Z" fill-opacity="1"/></g></g><g><g><path fill="rgb(255,255,255)" stroke="none" paint-order="stroke fill markers" d=" M 342.4880843818145 387.5285012523007 L 343.15487100425975 388.47312269109403 L 349.2821452018381 384.1480202752325 L 348.61535857939276 383.2033988364392 Z" fill-opacity="1"/></g></g><g><g><path fill="rgb(255,255,255)" stroke="none" paint-order="stroke fill markers" d=" M 332.88719647811246 393.5195006586927 L 333.4879654203409 394.50742309519956 L 339.89611095443956 390.6105434699338 L 339.2953420122111 389.6226210334269 Z" fill-opacity="1"/></g></g><g><g><path fill="rgb(255,255,255)" stroke="none" paint-order="stroke fill markers" d=" M 322.8998502021311 398.8413459016968 L 323.43180040200775 399.86796318547454 L 330.0909395400256 396.4174754024909 L 329.55898934014897 395.39085811871314 Z" fill-opacity="1"/></g></g><g><g><path fill="rgb(255,255,255)" stroke="none" paint-order="stroke fill markers" d=" M 312.5726111725573 403.46922408212555 L 313.03326243269197 404.52974964949124 L 319.9123471939829 401.5417414756444 L 319.45169593384816 400.4812159082788 Z" fill-opacity="1"/></g></g><g><g><path fill="rgb(255,255,255)" stroke="none" paint-order="stroke fill markers" d=" M 301.9536297449957 407.38155789558573 L 302.34083429656835 408.4710470867856 L 309.40779121245953 405.9594499955032 L 309.0205866608868 404.86996080430333 Z" fill-opacity="1"/></g></g><g><g><path fill="rgb(255,255,255)" stroke="none" paint-order="stroke fill markers" d=" M 291.09241651278427 410.56010623583165 L 291.40436902943463 411.6734793493275 L 298.6262486845431 409.65000356564985 L 298.3142961678928 408.536630452154 Z" fill-opacity="1"/></g></g><g><g><path fill="rgb(255,255,255)" stroke="none" paint-order="stroke fill markers" d=" M 280.0396114657534 412.9900492432231 L 280.2748574808455 414.12211521960575 L 287.617988138463 412.596195121711 L 287.38274212337086 411.46412914532834 Z" fill-opacity="1"/></g></g><g><g><path fill="rgb(255,255,255)" stroke="none" paint-order="stroke fill markers" d=" M 268.8467478832161 414.66005740175177 L 269.00419057123366 415.80553802685625 L 276.4343351665061 414.7842881586344 L 276.2768924784886 413.6388075335299 Z" fill-opacity="1"/></g></g><g><g><path fill="rgb(255,255,255)" stroke="none" paint-order="stroke fill markers" d=" M 257.56601206203186 415.5623443624754 L 257.6449173524848 416.71589887685195 L 265.12743312141384 416.20408077661693 L 265.04852783096095 415.0505262622404 Z" fill-opacity="1"/></g></g><g><g><path fill="rgb(255,255,255)" stroke="none" paint-order="stroke fill markers" d=" M 246.25000000000003 415.6927032470703 L 246.25000000000003 416.8489532470703 L 253.75000000000003 416.8489532470703 L 253.75000000000003 415.6927032470703 Z" fill-opacity="1"/></g></g><g><g><path fill="rgb(255,255,255)" stroke="none" paint-order="stroke fill markers" d=" M 234.95147216903922 415.0505262622404 L 234.87256687858633 416.20408077661693 L 242.35508264751536 416.71589887685195 L 242.43398793796825 415.5623443624754 Z" fill-opacity="1"/></g></g><g><g><path fill="rgb(255,255,255)" stroke="none" paint-order="stroke fill markers" d=" M 223.72310752151145 413.6388075335299 L 223.5656648334939 414.7842881586344 L 230.9958094287664 415.80553802685625 L 231.15325211678393 414.66005740175177 Z" fill-opacity="1"/></g></g><g><g><path fill="rgb(255,255,255)" stroke="none" paint-order="stroke fill markers" d=" M 212.61725787662917 411.46412914532834 L 212.38201186153708 412.596195121711 L 219.7251425191545 414.12211521960575 L 219.9603885342466 412.9900492432231 Z" fill-opacity="1"/></g></g><g><g><path fill="rgb(255,255,255)" stroke="none" paint-order="stroke fill markers" d=" M 201.68570383210724 408.53663045215404 L 201.37375131545693 409.6500035656499 L 208.59563097056542 411.6734793493276 L 208.90758348721573 410.5601062358317 Z" fill-opacity="1"/></g></g><g><g><path fill="rgb(255,255,255)" stroke="none" paint-order="stroke fill markers" d=" M 190.97941333911322 404.8699608043034 L 190.59220878754053 405.95944999550323 L 197.65916570343168 408.47104708678563 L 198.04637025500438 407.3815578955858 Z" fill-opacity="1"/></g></g><g><g><path fill="rgb(255,255,255)" stroke="none" paint-order="stroke fill markers" d=" M 180.5483040661519 400.4812159082788 L 180.0876528060172 401.54174147564447 L 186.9667375673081 404.52974964949124 L 187.4273888274428 403.46922408212555 Z" fill-opacity="1"/></g></g><g><g><path fill="rgb(255,255,255)" stroke="none" paint-order="stroke fill markers" d=" M 170.44101065985112 395.3908581187132 L 169.90906045997446 396.41747540249094 L 176.56819959799228 399.8679631854746 L 177.10014979786894 398.84134590169685 Z" fill-opacity="1"/></g></g><g><g><path fill="rgb(255,255,255)" stroke="none" paint-order="stroke fill markers" d=" M 160.704657987789 389.622621033427 L 160.10388904556055 390.6105434699339 L 166.5120345796592 394.5074230951996 L 167.11280352188768 393.5195006586927 Z" fill-opacity="1"/></g></g><g><g><path fill="rgb(255,255,255)" stroke="none" paint-order="stroke fill markers" d=" M 151.38464142060727 383.20339883643925 L 150.71785479816197 384.14802027523257 L 156.84512899574025 388.4731226910941 L 157.51191561818558 387.52850125230077 Z" fill-opacity="1"/></g></g><g><g><path fill="rgb(255,255,255)" stroke="none" paint-order="stroke fill markers" d=" M 142.52441517783814 376.1631209048666 L 141.79471974221113 377.06003708474356 L 147.6125544224943 381.79319666718897 L 148.34224985812128 380.89628048731197 Z" fill-opacity="1"/></g></g><g><g><path fill="rgb(255,255,255)" stroke="none" paint-order="stroke fill markers" d=" M 134.16528972427352 368.5346122643518 L 133.37608765242697 369.3796413480484 L 138.85735738451288 374.4987899221883 L 139.64655945635945 373.6537608384917 Z" fill-opacity="1"/></g></g><g><g><path fill="rgb(255,255,255)" stroke="none" paint-order="stroke fill markers" d=" M 126.34623916150836 360.35344054364055 L 125.50121007781179 361.14264261548715 L 130.6203586519517 366.6239123475731 L 131.46538773564828 365.8347102757265 Z" fill-opacity="1"/></g></g><g><g><path fill="rgb(255,255,255)" stroke="none" paint-order="stroke fill markers" d=" M 119.103719512688 351.65775014187875 L 118.20680333281102 352.3874455775058 L 122.93996291525642 358.2052802577889 L 123.83687909513341 357.4755848221619 Z" fill-opacity="1"/></g></g><g><g><path fill="rgb(255,255,255)" stroke="none" paint-order="stroke fill markers" d=" M 112.4714987476993 342.4880843818145 L 111.52687730890598 343.15487100425975 L 115.85197972476747 349.2821452018381 L 116.79660116356081 348.61535857939276 Z" fill-opacity="1"/></g></g><g><g><path fill="rgb(255,255,255)" stroke="none" paint-order="stroke fill markers" d=" M 106.48049934130728 332.8871964781124 L 105.4925769048004 333.48796542034086 L 109.38945653006616 339.8961109544395 L 110.37737896657303 339.29534201221105 Z" fill-opacity="1"/></g></g><g><g><path fill="rgb(255,255,255)" stroke="none" paint-order="stroke fill markers" d=" M 101.15865409830323 322.8998502021312 L 100.13203681452549 323.4318004020078 L 103.58252459750913 330.09093954002566 L 104.60914188128687 329.558989340149 Z" fill-opacity="1"/></g></g><g><g><path fill="rgb(255,255,255)" stroke="none" paint-order="stroke fill markers" d=" M 96.53077591787445 312.57261117255734 L 95.47025035050878 313.033262432692 L 98.45825852435559 319.91234719398295 L 99.51878409172127 319.4516959338482 Z" fill-opacity="1"/></g></g><g><g><path fill="rgb(255,255,255)" stroke="none" paint-order="stroke fill markers" d=" M 92.61844210441427 301.9536297449957 L 91.52895291321438 302.34083429656835 L 94.04055000449678 309.40779121245953 L 95.13003919569667 309.0205866608868 Z" fill-opacity="1"/></g></g><g><g><path fill="rgb(255,255,255)" stroke="none" paint-order="stroke fill markers" d=" M 89.43989376416833 291.0924165127843 L 88.32652065067244 291.40436902943463 L 90.34999643435012 298.62624868454316 L 91.46336954784601 298.31429616789285 Z" fill-opacity="1"/></g></g><g><g><path fill="rgb(255,255,255)" stroke="none" paint-order="stroke fill markers" d=" M 87.00995075677693 280.03961146575335 L 85.87788478039424 280.27485748084547 L 87.403804878289 287.6179881384629 L 88.53587085467169 287.3827421233708 Z" fill-opacity="1"/></g></g><g><g><path fill="rgb(255,255,255)" stroke="none" paint-order="stroke fill markers" d=" M 85.33994259824824 268.8467478832162 L 84.19446197314373 269.0041905712338 L 85.21571184136559 276.43433516650623 L 86.36119246647009 276.2768924784887 Z" fill-opacity="1"/></g></g><g><g><path fill="rgb(255,255,255)" stroke="none" paint-order="stroke fill markers" d=" M 84.43765563752459 257.56601206203186 L 83.28410112314802 257.6449173524848 L 83.79591922338307 265.12743312141384 L 84.94947373775962 265.04852783096095 Z" fill-opacity="1"/></g></g><g><g><path fill="rgb(255,255,255)" stroke="none" paint-order="stroke fill markers" d=" M 84.30729675292969 246.25000000000003 L 83.15104675292969 246.25000000000003 L 83.15104675292969 253.75000000000003 L 84.30729675292969 253.75000000000003 Z" fill-opacity="1"/></g></g><g><g><path fill="rgb(255,255,255)" stroke="none" paint-order="stroke fill markers" d=" M 84.94947373775962 234.95147216903916 L 83.79591922338305 234.87256687858627 L 83.28410112314802 242.3550826475153 L 84.43765563752459 242.4339879379682 Z" fill-opacity="1"/></g></g><g><g><path fill="rgb(255,255,255)" stroke="none" paint-order="stroke fill markers" d=" M 86.36119246647003 223.72310752151154 L 85.21571184136552 223.565664833494 L 84.19446197314367 230.99580942876648 L 85.33994259824819 231.15325211678402 Z" fill-opacity="1"/></g></g><g><g><path fill="rgb(255,255,255)" stroke="none" paint-order="stroke fill markers" d=" M 88.53587085467166 212.61725787662925 L 87.40380487828897 212.38201186153714 L 85.87788478039421 219.7251425191546 L 87.0099507567769 219.96038853424668 Z" fill-opacity="1"/></g></g><g><g><path fill="rgb(255,255,255)" stroke="none" paint-order="stroke fill markers" d=" M 91.46336954784599 201.68570383210724 L 90.34999643435009 201.37375131545693 L 88.3265206506724 208.59563097056542 L 89.4398937641683 208.90758348721573 Z" fill-opacity="1"/></g></g><g><g><path fill="rgb(255,255,255)" stroke="none" paint-order="stroke fill markers" d=" M 95.13003919569664 190.97941333911325 L 94.04055000449675 190.59220878754056 L 91.52895291321435 197.6591657034317 L 92.61844210441424 198.0463702550044 Z" fill-opacity="1"/></g></g><g><g><path fill="rgb(255,255,255)" stroke="none" paint-order="stroke fill markers" d=" M 99.51878409172127 180.54830406615184 L 98.45825852435559 180.08765280601713 L 95.47025035050878 186.96673756730803 L 96.53077591787445 187.42738882744274 Z" fill-opacity="1"/></g></g><g><g><path fill="rgb(255,255,255)" stroke="none" paint-order="stroke fill markers" d=" M 104.60914188128679 170.44101065985117 L 103.58252459750905 169.9090604599745 L 100.1320368145254 176.56819959799233 L 101.15865409830316 177.100149797869 Z" fill-opacity="1"/></g></g><g><g><path fill="rgb(255,255,255)" stroke="none" paint-order="stroke fill markers" d=" M 110.377378966573 160.704657987789 L 109.38945653006613 160.10388904556055 L 105.49257690480037 166.5120345796592 L 106.48049934130725 167.11280352188768 Z" fill-opacity="1"/></g></g><g><g><path fill="rgb(255,255,255)" stroke="none" paint-order="stroke fill markers" d=" M 116.79660116356078 151.38464142060727 L 115.85197972476745 150.71785479816197 L 111.52687730890595 156.84512899574025 L 112.47149874769927 157.51191561818558 Z" fill-opacity="1"/></g></g><g><g><path fill="rgb(255,255,255)" stroke="none" paint-order="stroke fill markers" d=" M 123.83687909513337 142.52441517783814 L 122.93996291525639 141.79471974221113 L 118.20680333281099 147.6125544224943 L 119.10371951268797 148.34224985812128 Z" fill-opacity="1"/></g></g><g><g><path fill="rgb(255,255,255)" stroke="none" paint-order="stroke fill markers" d=" M 131.46538773564816 134.16528972427358 L 130.6203586519516 133.376087652427 L 125.50121007781169 138.85735738451294 L 126.34623916150827 139.6465594563595 Z" fill-opacity="1"/></g></g><g><g><path fill="rgb(255,255,255)" stroke="none" paint-order="stroke fill markers" d=" M 139.64655945635937 126.34623916150842 L 138.8573573845128 125.50121007781185 L 133.3760876524269 130.62035865195176 L 134.16528972427344 131.46538773564833 Z" fill-opacity="1"/></g></g><g><g><path fill="rgb(255,255,255)" stroke="none" paint-order="stroke fill markers" d=" M 148.34224985812122 119.103719512688 L 147.61255442249424 118.20680333281102 L 141.79471974221107 122.93996291525642 L 142.52441517783808 123.83687909513341 Z" fill-opacity="1"/></g></g><g><g><path fill="rgb(255,255,255)" stroke="none" paint-order="stroke fill markers" d=" M 157.51191561818553 112.47149874769933 L 156.8451289957402 111.52687730890601 L 150.7178547981619 115.8519797247675 L 151.3846414206072 116.79660116356084 Z" fill-opacity="1"/></g></g><g><g><path fill="rgb(255,255,255)" stroke="none" paint-order="stroke fill markers" d=" M 167.11280352188763 106.48049934130728 L 166.51203457965914 105.4925769048004 L 160.1038890455605 109.38945653006616 L 160.70465798778895 110.37737896657303 Z" fill-opacity="1"/></g></g><g><g><path fill="rgb(255,255,255)" stroke="none" paint-order="stroke fill markers" d=" M 177.10014979786882 101.15865409830326 L 176.56819959799216 100.13203681452552 L 169.90906045997434 103.58252459750916 L 170.441010659851 104.6091418812869 Z" fill-opacity="1"/></g></g><g><g><path fill="rgb(255,255,255)" stroke="none" paint-order="stroke fill markers" d=" M 187.42738882744268 96.53077591787445 L 186.96673756730797 95.47025035050878 L 180.08765280601708 98.45825852435559 L 180.5483040661518 99.51878409172127 Z" fill-opacity="1"/></g></g><g><g><path fill="rgb(255,255,255)" stroke="none" paint-order="stroke fill markers" d=" M 198.04637025500432 92.61844210441427 L 197.65916570343163 91.52895291321438 L 190.59220878754047 94.04055000449678 L 190.97941333911317 95.13003919569667 Z" fill-opacity="1"/></g></g><g><g><path fill="rgb(255,255,255)" stroke="none" paint-order="stroke fill markers" d=" M 208.90758348721567 89.43989376416833 L 208.59563097056537 88.32652065067244 L 201.37375131545687 90.34999643435012 L 201.68570383210718 91.46336954784601 Z" fill-opacity="1"/></g></g><g><g><path fill="rgb(255,255,255)" stroke="none" paint-order="stroke fill markers" d=" M 219.96038853424662 87.00995075677693 L 219.72514251915453 85.87788478039424 L 212.3820118615371 87.403804878289 L 212.6172578766292 88.53587085467169 Z" fill-opacity="1"/></g></g><g><g><path fill="rgb(255,255,255)" stroke="none" paint-order="stroke fill markers" d=" M 231.1532521167838 85.33994259824824 L 230.99580942876625 84.19446197314373 L 223.56566483349377 85.21571184136559 L 223.7231075215113 86.36119246647009 Z" fill-opacity="1"/></g></g><g><g><path fill="rgb(255,255,255)" stroke="none" paint-order="stroke fill markers" d=" M 242.4339879379681 84.43765563752459 L 242.35508264751522 83.28410112314802 L 234.87256687858618 83.79591922338307 L 234.95147216903908 84.94947373775962 Z" fill-opacity="1"/></g></g><g><g><path fill="rgb(255,255,255)" stroke="none" paint-order="stroke fill markers" d=" M 253.74999999999997 84.30729675292969 L 253.74999999999997 83.15104675292969 L 246.24999999999997 83.15104675292969 L 246.24999999999997 84.30729675292969 Z" fill-opacity="1"/></g></g><g><g><path fill="rgb(255,255,255)" stroke="none" paint-order="stroke fill markers" d=" M 265.0485278309609 84.94947373775962 L 265.1274331214138 83.79591922338305 L 257.64491735248475 83.28410112314802 L 257.5660120620318 84.43765563752459 Z" fill-opacity="1"/></g></g><g><g><path fill="rgb(255,255,255)" stroke="none" paint-order="stroke fill markers" d=" M 276.2768924784885 86.36119246647003 L 276.434335166506 85.21571184136552 L 269.00419057123355 84.19446197314367 L 268.846747883216 85.33994259824819 Z" fill-opacity="1"/></g></g><g><g><path fill="rgb(255,255,255)" stroke="none" paint-order="stroke fill markers" d=" M 287.38274212337075 88.53587085467166 L 287.61798813846286 87.40380487828897 L 280.2748574808454 85.87788478039421 L 280.0396114657533 87.0099507567769 Z" fill-opacity="1"/></g></g><g><g><path fill="rgb(255,255,255)" stroke="none" paint-order="stroke fill markers" d=" M 298.31429616789273 91.46336954784599 L 298.62624868454304 90.34999643435009 L 291.4043690294345 88.3265206506724 L 291.0924165127842 89.4398937641683 Z" fill-opacity="1"/></g></g><g><g><path fill="rgb(255,255,255)" stroke="none" paint-order="stroke fill markers" d=" M 309.02058666088675 95.13003919569664 L 309.4077912124595 94.04055000449675 L 302.3408342965683 91.52895291321435 L 301.9536297449956 92.61844210441424 Z" fill-opacity="1"/></g></g></g></g></svg>