<svg version="1.1" xmlns="http://www.w3.org/2000/svg" xmlns:xlink="http://www.w3.org/1999/xlink" width="500" height="500" viewBox="0 0 500 500"><defs/><g><g><g><g><path fill="rgb(255,255,255)" stroke="none" paint-order="stroke fill markers" d=" M 256.4583333333333 75 L 259.6666666666667 75 L 259.6666666666667 45.91666666666667 L 255.33333333333334 45.91666666666667 L 250.20833333333334 58.75 L 249.95833333333334 58.75 L 244.83333333333334 45.91666666666667 L 240.33333333333334 45.91666666666667 L 240.33333333333334 75 L 243.54166666666666 75 L 243.54166666666666 60.41666666666667 L 243.54166666666666 51.208333333333336 L 243.875 51.208333333333336 L 250 66.16666666666667 L 256.125 51.208333333333336 L 256.4583333333333 51.208333333333336 L 256.4583333333333 60.41666666666667 Z" fill-opacity="1"/></g></g><g><g><path fill="rgb(255,255,255)" stroke="none" paint-order="stroke fill markers" d=" M 292.5843148617888 80.18416915514086 L 295.83971671415577 80.90073728917761 L 300.4615811786928 59.90339534141076 L 297.20617932632587 59.18682720737401 L 293.9995369265114 73.75475049671613 C 293.39045401258016 76.52184207122804 290.50846237874737 77.21005578179084 287.9041408968538 76.63680127456145 C 284.6894315676414 75.92919024220015 283.35167974906534 73.67217880504441 284.1936473065585 69.84708162851324 L 287.0330485376791 56.94755178850917 L 283.77764668531216 56.230983654472425 L 280.8128460307351 69.7002088186407 C 279.6932083213027 74.78677421296408 281.9374661446453 78.35259009905194 286.3322586453407 79.31995708000156 C 289.7911231134806 80.0813107224156 291.8218936150597 78.60843124747755 293.1739413099091 76.73016880345372 L 293.3367114025274 76.76599721015556 Z" fill-opacity="1"/></g></g><g><g><path fill="rgb(255,255,255)" stroke="none" paint-order="stroke fill markers" d=" M 323.4975420771839 91.73306154280806 C 328.48920688537413 94.04245160138952 332.7735795138641 93.3159313086227 334.5581081954952 89.45873577502113 C 336.5175906694431 85.22338381655665 332.9724870779888 82.66504690596805 330.3665787055518 80.95441677547473 L 327.51345621494244 79.08350334787335 C 325.89640431519484 78.01400640581214 324.4396357125553 76.6972953455786 325.3843861910659 74.65525065131894 C 326.3116412903448 72.65102159954557 328.5207111999465 72.34166003286866 331.583778241336 73.75878575063456 C 335.0250017075884 75.35086526071723 336.1346876096173 77.51701583488084 336.5348970315696 79.0335585685435 L 339.3585840232089 78.09035180676254 C 338.4153772614279 75.26666481512326 336.3862703285422 72.90469411029419 332.8694155773173 71.27762384174817 C 328.3315384789625 69.17817833394685 324.1114975993534 69.56718272836 322.3094735384906 73.46219390444784 C 320.3499910645427 77.6975458629123 323.9329102984833 80.27337815273259 326.501003028434 81.96651290399424 L 329.35412551904335 83.83742633159562 C 331.00899306127724 84.9244186528885 332.4279460214305 86.22363433389037 331.48319554291993 88.26567902815003 C 330.41597740978756 90.57243321981372 327.7706151695821 90.6340345932242 324.74536377067886 89.23440425468999 C 321.6444810868031 87.79978315769242 320.03417110528954 85.72338828861606 319.0909643435086 82.89970129697679 L 316.22663682536006 83.7322860153218 C 317.2014633864874 86.98379068549609 319.41345268866456 89.84356058578686 323.4975420771839 91.73306154280806 Z" fill-opacity="1"/></g></g><g><g><path fill="rgb(255,255,255)" stroke="none" paint-order="stroke fill markers" d=" M 372.8527682286861 90.59316948033087 C 374.3786132712886 91.75308672611891 375.4972555567577 91.45199981831766 376.22850773345016 90.49005403059 L 376.631957210246 89.95932532011958 C 377.3632093869385 88.99737953239193 377.3540531626579 87.83896248639951 375.8282081200554 86.67904524061146 C 374.3023630774529 85.5191279948234 373.18372079198383 85.82021490262466 372.45246861529137 86.78216069035231 L 372.0490191384955 87.31288940082274 C 371.31776696180304 88.2748351885504 371.3269231860836 89.43325223454282 372.8527682286861 90.59316948033087 Z M 349.47040204445494 105.79188859536272 L 364.06544158239177 116.88674920724843 L 365.78010185877406 114.6311521877491 L 360.00842713240814 110.2436391275943 L 371.3050124826918 95.38323523442229 L 362.48164767112087 88.67588768269138 L 360.7669873947386 90.93148470219072 L 366.9367086539573 95.6215848699424 L 357.354783580056 108.22639174361508 L 351.1850623208373 103.5362915758634 Z" fill-opacity="1"/></g></g><g><g><path fill="rgb(255,255,255)" stroke="none" paint-order="stroke fill markers" d=" M 383.4828183333589 137.6027148469168 C 386.26118447221427 140.87366033350622 389.63411669397794 141.56215337764885 392.6345654584472 140.65362037781065 L 392.33553637167273 137.79148278411205 C 389.85582310119463 138.4763752222147 387.5622442391312 137.96445193895798 385.70100867038343 135.77323603046602 C 383.0844891027236 132.6928310576585 383.7777644706306 129.26116765506526 386.66762892965625 126.80649465860083 L 389.4622231317909 124.43274494773412 C 392.3520875908165 121.9780719512697 395.87767795464407 121.88086753985986 398.41327423670623 124.86600225577644 C 400.1396376627911 126.89843440278347 400.3420531970179 129.13193878836066 399.17145946739663 131.16496179422992 L 401.97755247157903 132.28026337112937 C 403.4182667049232 129.47110755723645 403.30193299845575 126.18044191672718 400.60449014519816 123.00476668702868 C 396.66622357944203 118.3682808516689 390.9532325536275 118.46473282628429 385.745125176922 122.88853910562678 C 380.5687745525135 127.2853709564367 379.49060291053763 132.90271550696303 383.4828183333589 137.6027148469168 Z" fill-opacity="1"/></g></g><g><g><path fill="rgb(255,255,255)" stroke="none" paint-order="stroke fill markers" d="" fill-opacity="1"/></g></g><g><g><path fill="rgb(255,255,255)" stroke="none" paint-order="stroke fill markers" d="" fill-opacity="1"/></g></g><g><g><path fill="rgb(255,255,255)" stroke="none" paint-order="stroke fill markers" d="" fill-opacity="1"/></g></g><g><g><path fill="rgb(255,255,255)" stroke="none" paint-order="stroke fill markers" d=" M 422.21471001654237 278.1487228549123 C 421.1698679554724 284.52197747965965 423.77711258318254 288.7072506562143 429.08130514184325 289.5768288876854 C 432.82302237314656 290.1902522912813 436.2513142713978 288.85226221726634 438.1616463575947 283.38090948097795 L 439.2017461298654 280.38470851283506 C 440.56809898577916 276.4286446882428 442.42851918541874 275.3825126524421 444.9778210353177 275.80044947687 C 448.2261250053502 276.33298188218953 449.5546850723046 278.78860136357974 448.9210389191396 282.65367191020067 C 448.33457918163583 286.23091805441373 446.5584113434445 288.0508745647358 444.1985092386455 289.31068092119114 L 445.8978015241874 292.08041619844704 C 448.96951530953163 290.5995223321797 451.1265358361846 287.7442083383861 451.8747775702411 283.18013567163155 C 452.83198771651166 277.3414120799275 450.7316381831184 273.15479435810414 445.46856339623025 272.29195704315606 C 441.8501994802446 271.69875638912924 438.31203609972175 272.93428817002996 436.4428217852974 278.41238182284144 L 435.3824992634576 281.531936106302 C 434.0842278454086 285.33026976032704 432.36805598329016 286.5267187775376 429.5720475027558 286.0683364539714 C 426.1181546738605 285.5020994660368 424.4741342657716 282.9103171089172 425.1549668345978 278.7574221598883 C 425.7212038225325 275.30352933099294 427.46232253283995 273.1822665852169 430.62234050561796 271.4202892330646 L 428.97764782489475 268.5750593287866 C 425.6666405980725 270.22783747130165 423.05732458192136 273.00900138334185 422.21471001654237 278.1487228549123 Z" fill-opacity="1"/></g></g><g><g><path fill="rgb(255,255,255)" stroke="none" paint-order="stroke fill markers" d=" M 412.1064376080301 314.5891081068151 C 409.87018625285145 320.20167578904153 412.60057110599007 325.2814079777801 418.9485786914048 327.81068537260285 C 425.29658627681954 330.33996276742556 430.77216244872926 328.5297842841896 433.0084138039079 322.91721660196316 C 435.24466515908654 317.30464891973674 432.51428030594786 312.22491673099813 426.16627272053313 309.6956393361754 C 419.8182651351184 307.16636194135265 414.34268896320873 308.9765404245886 412.1064376080301 314.5891081068151 Z M 414.77724567750334 315.6532553034173 C 416.14984133688887 312.2082999674301 419.12667698150074 310.70324659426376 423.4231943106534 312.4151355627108 L 426.2875391967552 313.5563948750089 C 430.58405652590784 315.268283843456 431.7102013938201 318.40811406937365 430.3376057344346 321.8530694053609 C 428.9650100750491 325.2980247413482 425.98817443043725 326.8030781145145 421.6916571012846 325.0911891460674 L 418.8273122151828 323.9499298337693 C 414.53079488603015 322.2380408653222 413.4046500181178 319.0982106394046 414.77724567750334 315.6532553034173 Z" fill-opacity="1"/></g></g><g><g><path fill="rgb(255,255,255)" stroke="none" paint-order="stroke fill markers" d=" M 391.99287376186373 352.4151555123811 L 390.1222502106558 355.1741188395707 L 407.9175636710289 367.2396407448619 L 409.78818722223684 364.48067741767227 L 397.44182633306326 356.10963702601674 C 395.09670750495206 354.51960700749 395.52410805663243 351.5875697196452 397.0206068975988 349.3803990578935 C 398.8678476544166 346.65592277229376 401.45971172632494 346.24858852587386 404.70149363577275 348.4465711985432 L 415.6338858197617 355.8589170202047 L 417.50450937096963 353.09995369301504 L 406.0892986047225 345.3602487498922 C 401.7784184059887 342.43739945112975 397.63517300982096 343.2024182079234 395.10983121569024 346.92701869962946 C 393.1222936925318 349.8584172347684 393.738898788472 352.29012464591773 394.98331643297325 354.24136207478995 L 394.88978525541285 354.3793102411494 Z" fill-opacity="1"/></g></g><g><g><path fill="rgb(255,255,255)" stroke="none" paint-order="stroke fill markers" d=" M 374.0378823832917 373.553405504043 L 384.2960659778552 384.382838258563 C 386.24454777793994 386.43982548567857 385.1968382671639 389.21143488635505 383.2608502887022 391.04530010996416 C 380.8711151277886 393.3089774953567 378.25228257529056 393.14961433294974 375.5587930281147 390.3061319895842 L 366.47542934242574 380.71694153376615 L 364.0554443693486 383.00927306327753 L 373.5399660727021 393.02196088938405 C 377.12173408756365 396.80318740981704 381.33256912772987 396.94672965314504 384.5995488413839 393.85208208830466 C 387.17078287527835 391.41647983819877 387.09133887646675 388.9090725260872 386.29547339399943 386.7359409351349 L 386.4164726426533 386.6213243586593 L 388.8234207486403 389.1623085803903 L 391.24340572171735 386.86997705087884 L 376.45786735636875 371.26107397453154 Z" fill-opacity="1"/></g></g><g><g><path fill="rgb(255,255,255)" stroke="none" paint-order="stroke fill markers" d=" M 335.7591272134393 402.6351821687918 L 332.90293662621394 404.3536950260485 L 348.7991805558388 430.7734579578825 L 351.6553711430641 429.0549451006258 L 345.0390966426257 418.0586113398084 L 345.1819061719869 417.9726856969455 C 347.71341366430704 419.5130492307671 350.3502288643025 419.5312316693492 352.9208003928053 417.9845700978181 C 357.4193005676851 415.2779123476388 357.9630591432625 410.03938451687293 354.33270073230767 404.0056819013595 C 350.70234232135283 397.97197928584603 345.81933878120213 395.998625883868 341.3208386063223 398.70528363404736 C 338.7502670778195 400.25194520557847 337.5312249850609 402.5901200014572 337.7063752429201 405.5482566425155 L 337.56356571355883 405.63418228537836 Z M 341.73924491458786 401.9060765123968 C 345.05956647223724 399.90830531583583 348.3193425829883 400.96185684228715 350.3171137795493 404.2821783999366 L 352.20747792253167 407.4239880458844 C 354.2052491190926 410.7443096035338 353.6091679370895 414.1178534872817 350.28884637944014 416.11562468384267 C 347.7539772332777 417.640804844658 344.7813197140371 417.6301827517246 343.2991023746532 415.1667183702428 L 339.3035599815313 408.526075254944 C 337.82134264214733 406.0626108734621 339.2043757684254 403.43125667321215 341.73924491458786 401.9060765123968 Z" fill-opacity="1"/></g></g><g><g><path fill="rgb(255,255,255)" stroke="none" paint-order="stroke fill markers" d="" fill-opacity="1"/></g></g><g><g><path fill="rgb(255,255,255)" stroke="none" paint-order="stroke fill markers" d="" fill-opacity="1"/></g></g><g><g><path fill="rgb(255,255,255)" stroke="none" paint-order="stroke fill markers" d="" fill-opacity="1"/></g></g><g><g><path fill="rgb(255,255,255)" stroke="none" paint-order="stroke fill markers" d=" M 199.0974113749132 417.5156379902043 L 195.15935916990279 429.2033604347922 L 188.4468158740246 426.9416412629957 C 183.35318007891703 425.2253955385148 179.59137438129227 427.25551556889775 177.91504134807838 432.2306947176075 C 176.23870831486448 437.2058738663172 178.00487944913937 441.09858615582675 183.09851524424693 442.8148318803076 L 193.12784463926494 446.1941064075801 L 202.41419747405303 418.63319334568024 Z M 190.7822673609554 442.19410598975645 L 184.14869516267578 439.9589952788046 C 181.38470674672595 439.0276991492413 180.21857022278235 437.0079561659299 181.08334520023396 434.4413954939765 L 181.77516518219525 432.3881469564137 C 182.63994015964684 429.8215862844603 184.79058973484305 428.91939865662476 187.5545781507929 429.85069478618806 L 194.18815034907252 432.0858054971399 Z" fill-opacity="1"/></g></g><g><g><path fill="rgb(255,255,255)" stroke="none" paint-order="stroke fill markers" d=" M 167.7397062559117 404.7403604189313 L 153.74437237850773 396.3196474183733 L 152.28363644983952 398.74740941751475 L 158.03172000663042 402.2059165427439 L 153.24136541702725 410.16754780463447 C 151.5228525597705 413.02373839185975 148.23433459921267 414.2058784760477 144.62839398284072 412.0362559937611 L 141.16526289583004 409.9525591543373 L 139.44675003857333 412.80874974156256 L 142.01732156707607 414.35541131309367 C 145.87317885983023 416.67540367039027 148.84733591185875 415.4500008582133 151.0221194873333 413.451867073386 L 151.20063139903488 413.5592741269645 L 148.40804800599267 418.2005838312056 L 156.65529832660573 423.16278970653445 L 158.11603425527397 420.73502770739293 L 152.72497452188622 417.49133468932087 L 160.8879105938557 403.9244294000007 L 166.27897032724348 407.1681224180728 Z" fill-opacity="1"/></g></g><g><g><path fill="rgb(255,255,255)" stroke="none" paint-order="stroke fill markers" d=" M 129.99644443007762 376.6862133405863 C 125.61022166637537 372.5313624433469 119.88064910722446 373.1876237060926 115.18136947172607 378.14859290090067 C 110.48208983622767 383.1095620957087 110.13698384217334 388.8662610116173 114.52320660587557 393.02111190885677 C 118.90942936957782 397.1759628060962 124.63900192872873 396.5197015433505 129.33828156422712 391.5587323485424 C 134.0375611997255 386.5977631537343 134.38266719377987 380.8410642378257 129.99644443007762 376.6862133405863 Z M 128.019308485874 378.7734503798653 C 130.71154176842228 381.32366920644677 131.0078608599288 384.64615789824387 127.82725086273173 388.0038870483884 L 125.70684419793366 390.2423731484847 C 122.52623420073658 393.60010229862917 119.19257583262745 393.4840936961592 116.50034255007917 390.9338748695777 C 113.8081092675309 388.3836560429963 113.51179017602438 385.0611673511992 116.69240017322146 381.70343820105467 L 118.81280683801953 379.4649521009584 C 121.9934168352166 376.1072229508139 125.32707520332573 376.2232315532839 128.019308485874 378.7734503798653 Z" fill-opacity="1"/></g></g><g><g><path fill="rgb(255,255,255)" stroke="none" paint-order="stroke fill markers" d=" M 102.23157602378176 343.89685623968313 L 100.36095247257381 341.1378929124935 L 74.84054169606969 358.44116076116694 L 76.71116524727765 361.2001240883566 L 87.33317405695773 353.99822341620603 L 87.42670523451812 354.1361715825655 C 86.02565382922957 356.7473600016075 86.1502523538292 359.38129246233376 87.83381354991636 361.86435945680444 C 90.78004564306886 366.2097266971281 96.04032921729332 366.4690796245582 101.86863924598143 362.51738737263145 C 107.69694927466952 358.5656951207047 109.4030481015989 353.5830177264745 106.4568160084464 349.2376504861508 C 104.77325481235924 346.75458349168014 102.37251154282816 345.6639154607004 99.42819570779304 345.99895913481095 L 99.33466453023264 345.86101096845147 Z M 103.28336942947251 349.8287305985619 C 105.45796930775174 353.03602546641986 104.58244362624514 356.34805896445897 101.37514875838718 358.5226588427382 L 98.34028909847859 360.58034474906697 C 95.13299423062064 362.75494462734616 91.73212675498331 362.34237763367935 89.55752687670407 359.1350827658214 C 87.89734847500704 356.6865028129406 87.74701855603618 353.7176298835248 90.12662442573725 352.10421707060794 L 96.54121416145314 347.7550173140495 C 98.9208200311542 346.14160450113263 101.62319102777546 347.38015064568106 103.28336942947251 349.8287305985619 Z" fill-opacity="1"/></g></g><g><g><path fill="rgb(255,255,255)" stroke="none" paint-order="stroke fill markers" d=" M 85.5475384090836 310.05187885874966 L 84.31374455795054 306.9552897926937 L 64.34074508188954 314.9132601325019 L 65.57453893302258 318.00984919855784 L 79.43177500362304 312.48862171473746 C 82.06387570977063 311.43989694127436 84.25083905377376 313.4390730768051 85.2378741346802 315.91634432964986 C 86.45624556267408 318.97422603238016 85.33887104467591 321.3480741197867 81.70037889206014 322.7977818948681 L 69.43014471781336 327.68669002998274 L 70.6639385689464 330.7832790960387 L 83.47607582975299 325.6784570369757 C 88.31449624546543 323.7506541445804 90.00643436203524 319.89201688243594 88.34081266300562 315.7116216432604 C 87.02990669617675 312.4214957605759 84.67117842095375 311.56721026881024 82.35780958228148 311.5021918557422 L 82.29611988972482 311.3473624024394 Z" fill-opacity="1"/></g></g><g><g><path fill="rgb(255,255,255)" stroke="none" paint-order="stroke fill markers" d=" M 77.6774353190891 277.49083850655126 C 76.98312091721682 273.25570801397726 74.44795498281901 270.9268395914352 71.40860123482116 270.1584296783475 L 70.189240377504 272.7650384137819 C 72.66709942636639 273.45660915457876 74.36844491016998 275.07771772256103 74.83356815025918 277.9148439748679 C 75.48743705299327 281.9032678368066 73.12419177520174 284.48629245949996 69.38247454389845 285.09971586309587 L 65.76411062791286 285.6929165171227 C 62.022393396609566 286.3063399207186 58.951351883899676 284.57199850729285 58.31770573073469 280.70692796067186 C 57.88628707326065 278.07539056722777 58.864337671196715 276.057240197021 60.915502161204984 274.9187339576216 L 59.08607926346378 272.5163877259606 C 56.40332181855225 274.18066726397717 54.80648782612461 277.0602740235047 55.4805794784278 281.1720512007611 C 56.46475329079045 287.17524587955535 61.40969683618596 290.03795487232696 68.15301140688639 288.9324445625498 C 74.85520820581425 287.8336751692956 78.67509096449783 283.5762687288907 77.6774353190891 277.49083850655126 Z" fill-opacity="1"/></g></g><g><g><path fill="rgb(255,255,255)" stroke="none" paint-order="stroke fill markers" d=" M 75.76646063189935 231.12283468378718 L 72.93728262598783 230.96944110946183 L 72.40717247942229 240.74674745342074 L 56.59706009344617 239.88954806748495 L 57.127170240011715 230.11224172352604 L 54.29799223410019 229.9588481492007 L 53.767882087534645 239.7361544931596 L 46.195670365830296 239.32560110305354 L 46.02197470078541 242.5292291391592 L 51.63872515369798 242.8337604999522 C 53.0949197155642 242.9127130749726 53.564861180339335 243.48065479510132 53.48816439317666 244.8952437980571 L 53.19942354738777 250.2207553385964 L 56.02860155329928 250.37414891292175 L 56.41659706482811 243.21799278032205 L 70.14643150528106 243.96240277337154 C 73.01721507010303 244.11805213555462 75.13709581959388 242.73078561980648 75.31304727249649 239.48555202479034 Z" fill-opacity="1"/></g></g><g><g><path fill="rgb(255,255,255)" stroke="none" paint-order="stroke fill markers" d=" M 56.442268456878686 194.87518854763533 C 56.95503110572636 193.0283843953068 56.2612761857086 192.10063550695392 55.096986611414536 191.77737209789777 L 54.45461994973506 191.5990198722116 C 53.290330375441 191.2757564631555 52.21757697584018 191.71303673087147 51.704814326992505 193.5598408832 C 51.192051678144836 195.4066450355285 51.88580659816259 196.3343939238814 53.05009617245665 196.65765733293753 L 53.69246283413613 196.8360095586237 C 54.8567524084302 197.15927296767984 55.92950580803101 196.72199269996383 56.442268456878686 194.87518854763533 Z M 79.21623057269146 210.97123653025005 L 84.12091677906051 193.3061533340643 L 81.39085846692271 192.54815637489818 L 79.45127801258586 199.53389382066254 L 61.46501148556037 194.54003150145041 L 58.499905733528166 205.2193772518718 L 61.229964045665966 205.97737421103793 L 63.30330866926742 198.50986176901395 L 78.55951688415512 202.74572712905996 L 76.48617226055366 210.21323957108393 Z" fill-opacity="1"/></g></g><g><g><path fill="rgb(255,255,255)" stroke="none" paint-order="stroke fill markers" d=" M 95.82714824416902 168.2627270978866 C 98.65711590673025 162.92484182935854 96.49195234468871 157.5796807181138 90.45462004097422 154.37888970666523 C 84.41728773725973 151.17809869521665 78.77809490669473 152.38565191361326 75.9481272441335 157.72353718214129 C 73.11815958157227 163.06142245066934 75.28332314361381 168.4065835619141 81.3206554473283 171.60737457336268 C 87.3579877510428 174.80816558481123 92.99718058160778 173.60061236641462 95.82714824416902 168.2627270978866 Z M 93.2870511163867 166.9160528308747 C 91.55003648212498 170.19240999569536 88.42792628222386 171.36678813359836 84.34168307666101 169.20039909536183 L 81.61752093961911 167.75613973653748 C 77.53127773405626 165.58975069830097 76.7512097376541 162.34656861397386 78.48822437191582 159.0702114491532 C 80.22523900617755 155.79385428433253 83.34734920607866 154.61947614642952 87.43359241164151 156.78586518466605 L 90.15775454868341 158.2301245434904 C 94.24399775424627 160.39651358172694 95.02406575064842 163.63969566605402 93.2870511163867 166.9160528308747 Z" fill-opacity="1"/></g></g><g><g><path fill="rgb(255,255,255)" stroke="none" paint-order="stroke fill markers" d=" M 113.33076007168937 140.58172394341227 L 101.9618427493688 130.92487852875 C 99.80238359317383 129.09061738853484 100.54428769805217 126.22197795701794 102.27065112413705 124.18954581001091 C 104.40163097821056 121.6807623785491 107.02234201077263 121.55604574227726 110.00747672668922 124.09164202433942 L 120.07436720483341 132.64253586916607 L 122.2323214874395 130.10199568540727 L 111.72083647713752 121.17345984112457 C 107.75124244001441 117.80165627455256 103.5495718488186 118.11422683329299 100.63633356730037 121.54395608136736 C 98.3435071420314 124.24328002661106 98.69358385409268 126.72739940245638 99.71974079352222 128.80174380815143 L 99.61184307939192 128.92877081733937 L 96.94427588644518 126.66291882060298 L 94.7863216038391 129.20345900436178 L 111.17280578908327 143.12226412717106 Z" fill-opacity="1"/></g></g><g><g><path fill="rgb(255,255,255)" stroke="none" paint-order="stroke fill markers" d="" fill-opacity="1"/></g></g><g><g><path fill="rgb(255,255,255)" stroke="none" paint-order="stroke fill markers" d="" fill-opacity="1"/></g></g><g><g><path fill="rgb(255,255,255)" stroke="none" paint-order="stroke fill markers" d="" fill-opacity="1"/></g></g></g><g><g><g><path fill="rgb(255,255,255)" stroke="none" paint-order="stroke fill markers" d=" M 254.53125 94.3125 L 254.53125 91.6875 L 245.46875 91.6875 L 245.46875 94.3125 Z" fill-opacity="1"/></g></g><g><g><path fill="rgb(255,255,255)" stroke="none" paint-order="stroke fill markers" d=" M 287.8935223034151 98.92647204009208 L 288.45781970896905 96.3628430813531 L 279.6071959228464 94.41467346694068 L 279.04289851729243 96.97830242567967 Z" fill-opacity="1"/></g></g><g><g><path fill="rgb(255,255,255)" stroke="none" paint-order="stroke fill markers" d=" M 319.4839356195477 110.60447434142284 L 320.5861445111434 108.22208886478657 L 312.3612422703754 104.41684388189668 L 311.2590333787797 106.79922935853294 Z" fill-opacity="1"/></g></g><g><g><path fill="rgb(255,255,255)" stroke="none" paint-order="stroke fill markers" d=" M 347.825357331958 128.80045649554933 L 349.41393964684164 126.71071219807202 L 342.1993462388843 121.22632087287852 L 340.61076392400065 123.31606517035584 Z" fill-opacity="1"/></g></g><g><g><path fill="rgb(255,255,255)" stroke="none" paint-order="stroke fill markers" d=" M 371.5925740606016 152.6635946003263 L 373.5932494553116 150.964205602774 L 367.7263112494763 144.0571119781798 L 365.72563585476627 145.75650097573208 Z" fill-opacity="1"/></g></g><g><g><path fill="rgb(255,255,255)" stroke="none" paint-order="stroke fill markers" d=" M 389.67425716661114 181.07807483994745 L 391.99347628328195 179.8485026831105 L 387.74852478944007 171.8416747803184 L 385.42930567276926 173.07124693715537 Z" fill-opacity="1"/></g></g><g><g><path fill="rgb(255,255,255)" stroke="none" paint-order="stroke fill markers" d=" M 401.2249272442971 212.71526769883468 L 403.75424597466 212.01300581019547 L 401.329770406739 203.28083400299002 L 398.800451676376 203.98309589162923 Z" fill-opacity="1"/></g></g><g><g><path fill="rgb(255,255,255)" stroke="none" paint-order="stroke fill markers" d=" M 405.70448779847453 246.0958532011207 L 408.3256380098337 245.95373856608398 L 407.8350041507784 236.90452950305817 L 405.21385393941915 237.04664413809488 Z" fill-opacity="1"/></g></g><g><g><path fill="rgb(255,255,255)" stroke="none" paint-order="stroke fill markers" d=" M 402.9034795563041 279.6589922685748 L 405.4938991779756 280.0836700095258 L 406.960048521735 271.14055464899326 L 404.3696289000635 270.7158769080422 Z" fill-opacity="1"/></g></g><g><g><path fill="rgb(255,255,255)" stroke="none" paint-order="stroke fill markers" d=" M 392.95287455009276 311.83530982115275 L 395.3914384396118 312.80692247892006 L 398.7458154723798 304.38807095558036 L 396.3072515828607 303.4164582978131 Z" fill-opacity="1"/></g></g><g><g><path fill="rgb(255,255,255)" stroke="none" paint-order="stroke fill markers" d=" M 376.3179520106276 341.12027701150436 L 378.4906356307894 342.5933930580806 L 383.57639341063606 335.09246151228376 L 381.4037097904742 333.6193454657075 Z" fill-opacity="1"/></g></g><g><g><path fill="rgb(255,255,255)" stroke="none" paint-order="stroke fill markers" d=" M 353.77654242746564 366.144561321712 L 355.58175350695586 368.05029948801024 L 362.16108765250925 361.81802314215105 L 360.35587657301903 359.91228497585286 Z" fill-opacity="1"/></g></g><g><g><path fill="rgb(255,255,255)" stroke="none" paint-order="stroke fill markers" d=" M 326.38265705973816 385.7380550299249 L 327.73598593482785 387.9873051173649 L 335.5012540938466 383.3150982866981 L 334.14792521875694 381.0658481992582 Z" fill-opacity="1"/></g></g><g><g><path fill="rgb(255,255,255)" stroke="none" paint-order="stroke fill markers" d=" M 295.4172035411233 398.98458814695124 L 296.25537005773026 401.4721777213061 L 304.8434769215744 398.57850760444876 L 304.0053104049675 396.0909180300939 Z" fill-opacity="1"/></g></g><g><g><path fill="rgb(255,255,255)" stroke="none" paint-order="stroke fill markers" d=" M 262.32809206252176 405.26476750670287 L 262.6119044858846 407.87437964423304 L 271.621279722596 406.8945510397661 L 271.33746729923314 404.2849389022359 Z" fill-opacity="1"/></g></g><g><g><path fill="rgb(255,255,255)" stroke="none" paint-order="stroke fill markers" d=" M 228.6625327007669 404.2849389022359 L 228.37872027740403 406.8945510397661 L 237.38809551411543 407.87437964423304 L 237.67190793747827 405.26476750670287 Z" fill-opacity="1"/></g></g><g><g><path fill="rgb(255,255,255)" stroke="none" paint-order="stroke fill markers" d=" M 195.99468959503255 396.0909180300939 L 195.1565230784256 398.57850760444876 L 203.74462994226974 401.4721777213061 L 204.5827964588767 398.98458814695124 Z" fill-opacity="1"/></g></g><g><g><path fill="rgb(255,255,255)" stroke="none" paint-order="stroke fill markers" d=" M 165.852074781243 381.0658481992582 L 164.49874590615335 383.3150982866981 L 172.26401406517212 387.9873051173649 L 173.6173429402618 385.7380550299249 Z" fill-opacity="1"/></g></g><g><g><path fill="rgb(255,255,255)" stroke="none" paint-order="stroke fill markers" d=" M 139.64412342698097 359.91228497585286 L 137.83891234749072 361.81802314215105 L 144.41824649304408 368.05029948801024 L 146.22345757253433 366.144561321712 Z" fill-opacity="1"/></g></g><g><g><path fill="rgb(255,255,255)" stroke="none" paint-order="stroke fill markers" d=" M 118.59629020952582 333.6193454657075 L 116.42360658936398 335.09246151228376 L 121.50936436921057 342.5933930580806 L 123.68204798937242 341.12027701150436 Z" fill-opacity="1"/></g></g><g><g><path fill="rgb(255,255,255)" stroke="none" paint-order="stroke fill markers" d=" M 103.69274841713928 303.4164582978131 L 101.25418452762021 304.38807095558036 L 104.60856156038818 312.80692247892006 L 107.04712544990726 311.83530982115275 Z" fill-opacity="1"/></g></g><g><g><path fill="rgb(255,255,255)" stroke="none" paint-order="stroke fill markers" d=" M 95.63037109993644 270.7158769080423 L 93.03995147826494 271.1405546489933 L 94.50610082202437 280.08367000952586 L 97.09652044369587 279.6589922685749 Z" fill-opacity="1"/></g></g><g><g><path fill="rgb(255,255,255)" stroke="none" paint-order="stroke fill markers" d=" M 94.78614606058083 237.04664413809488 L 92.16499584922164 236.90452950305817 L 91.67436199016629 245.95373856608398 L 94.29551220152548 246.0958532011207 Z" fill-opacity="1"/></g></g><g><g><path fill="rgb(255,255,255)" stroke="none" paint-order="stroke fill markers" d=" M 101.19954832362403 203.9830958916292 L 98.67022959326107 203.28083400299 L 96.24575402534 212.01300581019544 L 98.77507275570295 212.71526769883465 Z" fill-opacity="1"/></g></g><g><g><path fill="rgb(255,255,255)" stroke="none" paint-order="stroke fill markers" d=" M 114.57069432723074 173.07124693715534 L 112.25147521055993 171.84167478031839 L 108.00652371671808 179.84850268311047 L 110.32574283338889 181.07807483994742 Z" fill-opacity="1"/></g></g><g><g><path fill="rgb(255,255,255)" stroke="none" paint-order="stroke fill markers" d=" M 134.2743641452338 145.75650097573208 L 132.27368875052375 144.0571119781798 L 126.40675054468844 150.964205602774 L 128.40742593939848 152.6635946003263 Z" fill-opacity="1"/></g></g><g><g><path fill="rgb(255,255,255)" stroke="none" paint-order="stroke fill markers" d=" M 159.38923607599943 123.31606517035581 L 157.8006537611158 121.22632087287849 L 150.5860603531584 126.71071219807199 L 152.17464266804203 128.8004564955493 Z" fill-opacity="1"/></g></g><g><g><path fill="rgb(255,255,255)" stroke="none" paint-order="stroke fill markers" d=" M 188.74096662122028 106.79922935853294 L 187.6387577296246 104.41684388189668 L 179.41385548885654 108.22208886478658 L 180.51606438045224 110.60447434142284 Z" fill-opacity="1"/></g></g><g><g><path fill="rgb(255,255,255)" stroke="none" paint-order="stroke fill markers" d=" M 220.9571014827075 96.97830242567967 L 220.39280407715356 94.41467346694068 L 211.5421802910309 96.3628430813531 L 212.10647769658482 98.92647204009208 Z" fill-opacity="1"/></g></g><g><g><path fill="rgb(255,255,255)" stroke="none" paint-order="stroke fill markers" d=" M 254.53124999999997 94.3125 L 254.53124999999997 91.6875 L 245.46874999999997 91.6875 L 245.46874999999997 94.3125 Z" fill-opacity="1"/></g></g><g><g><path fill="rgb(255,255,255)" stroke="none" paint-order="stroke fill markers" d=" M 287.8935223034151 98.92647204009208 L 288.45781970896905 96.36284308135309 L 279.6071959228464 94.4146734669407 L 279.04289851729243 96.97830242567967 Z" fill-opacity="1"/></g></g><g><g><path fill="rgb(255,255,255)" stroke="none" paint-order="stroke fill markers" d=" M 319.4839356195477 110.60447434142282 L 320.5861445111434 108.22208886478654 L 312.3612422703754 104.41684388189665 L 311.2590333787797 106.79922935853291 Z" fill-opacity="1"/></g></g><g><g><path fill="rgb(255,255,255)" stroke="none" paint-order="stroke fill markers" d=" M 347.825357331958 128.80045649554933 L 349.41393964684164 126.71071219807202 L 342.1993462388843 121.22632087287852 L 340.61076392400065 123.31606517035584 Z" fill-opacity="1"/></g></g></g></g></svg>