<svg version="1.1" xmlns="http://www.w3.org/2000/svg" xmlns:xlink="http://www.w3.org/1999/xlink" width="500" height="500" viewBox="0 0 500 500"><defs/><g><g><g><g><path fill="rgb(255,255,255)" stroke="none" paint-order="stroke fill markers" d=" M 258.85714285714283 52.142852783203125 L 263.25714285714287 52.142852783203125 L 263.25714285714287 12.257138497488839 L 257.3142857142857 12.257138497488839 L 250.28571428571428 29.857138497488837 L 249.94285714285715 29.857138497488837 L 242.9142857142857 12.257138497488839 L 236.74285714285713 12.257138497488839 L 236.74285714285713 52.142852783203125 L 241.14285714285714 52.142852783203125 L 241.14285714285714 32.142852783203125 L 241.14285714285714 19.51428135463169 L 241.6 19.51428135463169 L 250 40.02856706891741 L 258.4 19.51428135463169 L 258.85714285714283 19.51428135463169 L 258.85714285714283 32.142852783203125 Z" fill-opacity="1"/></g></g><g><g><path fill="rgb(255,255,255)" stroke="none" paint-order="stroke fill markers" d=" M 292.1881526669784 56.56729517570332 L 296.68611650057215 57.383555266211374 L 301.9509940843491 28.371688539531778 L 297.4530302507554 27.555428449023726 L 293.8002663457318 47.68381660435569 C 293.1064452688 51.50708586291037 289.1917734168531 52.5970387760215 285.59340234997813 51.944030703615056 C 281.15166306430433 51.137973864238354 279.2033570557898 48.112904861273876 280.16246266213676 42.82779735680124 L 283.3968932707749 25.00461566618606 L 278.8989294371812 24.188355575678006 L 275.52165331270413 42.79868093717209 C 274.2462469212853 49.8267494271623 277.5035557421425 54.59934770772256 283.57580691749405 55.70129882990843 C 288.35489349068735 56.56857517607324 291.063021708395 54.44660056493079 292.82032757033215 51.803620145904496 L 293.04522576201185 51.8444331504299 Z" fill-opacity="1"/></g></g><g><g><path fill="rgb(255,255,255)" stroke="none" paint-order="stroke fill markers" d=" M 319.6020723728162 65.52170036417273 C 326.66395825421307 68.17207046581487 332.4495190254026 66.74237775171491 334.4975322857624 61.285465934271876 C 336.746331159883 55.29356276217756 331.6374914344964 52.1554882311391 327.89941958521376 50.08118419919302 L 323.80693234905135 47.81283110214926 C 321.48652204728796 46.51472333059384 319.3601608106223 44.8622001721586 320.44440312493043 41.9732468570417 C 321.5085668778625 39.137792677389925 324.4983062536995 38.48985301082466 328.83173622637486 40.11621648228688 C 333.7001575537015 41.94336556750986 335.4382895755586 44.792948267553996 336.13999054681545 46.82630866906854 L 339.90579509842985 45.248936222833265 C 338.3284226521946 41.48313167121886 335.3129168432243 38.45931629822668 330.3374972449674 36.59201009025155 C 323.91760098915205 34.18258272512234 318.18567043804086 35.144125232749104 316.11757861630497 40.65453618565727 C 313.86877974218436 46.64643935775159 319.03111860303613 49.804592450166126 322.7156913168536 51.858817920736136 L 326.8081785530161 54.12717101777989 C 329.18208799024455 55.44535735071138 331.2549500914451 57.07780194777055 330.17070777713695 59.96675526288745 C 328.9459155331963 63.23020252626026 325.3342650931538 63.58370032084746 321.0543342559436 61.977415410761324 C 316.6674051478031 60.33097337792303 314.25373184166216 57.65509901237402 312.6763593954269 53.889294460759615 L 308.8437136956344 55.319511513312484 C 310.50787476681063 59.66720109099342 313.8241657425824 63.35321573555645 319.6020723728162 65.52170036417273 Z" fill-opacity="1"/></g></g><g><g><path fill="rgb(255,255,255)" stroke="none" paint-order="stroke fill markers" d=" M 371.5148967605737 50.183487060966094 C 373.7713907323272 51.53167944729019 375.250100080565 50.95073169052787 376.10004745455194 49.52815940398763 L 376.56898393675164 48.743291935551646 C 377.41893131073857 47.32071964901141 377.2297972885499 45.74328186757475 374.9733033167964 44.39508948125065 C 372.7168093450429 43.04689709492656 371.2380999968051 43.627844851688884 370.38815262281815 45.05041713822912 L 369.9192161406185 45.835284606665105 C 369.0692687666316 47.25785689320534 369.25840278882026 48.835294674642 371.5148967605737 50.183487060966094 Z M 341.9642697823027 74.46391581956271 L 363.54812516429246 87.35966908005408 L 365.5411052136412 84.02398233920111 L 357.00567149439973 78.92429809527953 L 370.13589299599096 56.94800897907175 L 357.08747133324255 49.15193996250198 L 355.0944912838939 52.48762670335494 L 364.21857560446233 57.93901330892629 L 353.08133415221977 76.5796156842811 L 343.9572498316514 71.12822907870975 Z" fill-opacity="1"/></g></g><g><g><path fill="rgb(255,255,255)" stroke="none" paint-order="stroke fill markers" d=" M 380.50130916798764 102.19255692380925 C 384.9336726536089 106.06499628219727 389.64821667150375 106.31410327761996 393.53335473264366 104.47274502755951 L 392.54675683261183 100.65147105311927 C 389.3225038743994 102.08379078007754 386.1077534371358 101.85505861875386 383.13850022832156 99.26090021362013 C 378.96433267390154 95.61403984698288 379.20800351274914 90.81886667526268 382.62928488763566 86.9028950520439 L 385.9377767666468 83.11602139442574 C 389.3590581415333 79.20004977120696 394.1211577764026 78.35250895512505 398.16622736522197 81.88657982588693 C 400.9203172980352 84.29275573789502 401.64826266946534 87.28101398860699 400.47326869113755 90.27607818809533 L 404.5056395772051 91.2191438232964 C 405.88944748015797 87.11655949915328 405.06365129037636 82.67697647958533 400.7603857703557 78.91732661707269 C 394.4776181111256 73.42823781780423 386.74854825444424 74.71880388864011 380.5827224799235 81.77615934147394 C 374.45449320402787 88.79048213910758 374.1324761983571 96.62827512729054 380.50130916798764 102.19255692380925 Z" fill-opacity="1"/></g></g><g><g><path fill="rgb(255,255,255)" stroke="none" paint-order="stroke fill markers" d="" fill-opacity="1"/></g></g><g><g><path fill="rgb(255,255,255)" stroke="none" paint-order="stroke fill markers" d="" fill-opacity="1"/></g></g><g><g><path fill="rgb(255,255,255)" stroke="none" paint-order="stroke fill markers" d="" fill-opacity="1"/></g></g><g><g><path fill="rgb(255,255,255)" stroke="none" paint-order="stroke fill markers" d="" fill-opacity="1"/></g></g><g><g><path fill="rgb(255,255,255)" stroke="none" paint-order="stroke fill markers" d="" fill-opacity="1"/></g></g><g><g><path fill="rgb(255,255,255)" stroke="none" paint-order="stroke fill markers" d=" M 442.25336441327954 293.7633510725085 C 440.2824647125236 302.39842686611894 443.4961797998419 308.3484392679918 450.6827912667822 309.98873643829836 C 455.7524164101277 311.14584529487115 460.55858574463355 309.60526443387107 463.63765076431235 302.2781432022163 L 465.31554407317446 298.26518198666173 C 467.5214496142468 292.9660387050193 470.15675169275397 291.69193265750124 473.61078201019814 292.4802925378036 C 478.011885156619 293.4848156110921 479.6220814366058 296.95878919039757 478.4268261342119 302.19554483297424 C 477.3205792054005 307.04232931067816 474.73494928401885 309.382795763285 471.3978270014149 310.9070026743318 L 473.48883205386346 314.84239207150324 C 477.81904085455653 313.0759515402191 481.0138241384396 309.3505981706439 482.4252426338196 303.1667696990906 C 484.23084106935084 295.2559260688152 481.71107894283796 289.34707911740594 474.58017764230806 287.71949742903973 C 469.67768299819375 286.600535018288 464.7298141283374 287.99154910064624 461.706459275069 295.33138581424134 L 459.9904195203858 299.5114775290271 C 457.89108607348527 304.6004956269684 455.44047821479865 306.092594101479 451.6521868988921 305.2279413295345 C 446.9725329204193 304.15984084654417 444.9420862730301 300.47272307889506 446.22634994900653 294.84599627144564 C 447.29445043199684 290.1663422929729 449.85766839414026 287.4104737116126 454.33259573482627 285.26677749739605 L 452.3227318126688 281.23268324934423 C 447.65039477022196 283.21409720297856 443.84279965582465 286.7995802712098 442.25336441327954 293.7633510725085 Z" fill-opacity="1"/></g></g><g><g><path fill="rgb(255,255,255)" stroke="none" paint-order="stroke fill markers" d=" M 431.30460853389616 327.49330866898816 C 428.04811541447793 335.11225307012876 431.61901347580675 342.16931736226564 440.23630231571747 345.85252337319383 C 448.85359115562824 349.535729384122 456.4221152532084 347.239882618307 459.6786083726266 339.6209382171664 C 462.93510149204485 332.0019938160258 459.364203430716 324.94492952388896 450.74691459080526 321.2617235129607 C 442.12962575089455 317.5785175020325 434.5611016533144 319.87436426784757 431.30460853389616 327.49330866898816 Z M 434.9301751799561 329.04295022236647 C 436.9289881980818 324.36649469339056 441.06135813205105 322.40413242622316 446.8937914322346 324.89703405557094 L 450.78208029902356 326.55896847513606 C 456.61451359920704 329.05187010448384 458.05185474469226 333.3948411348121 456.0530417265666 338.0712966637881 C 454.0542287084409 342.747752192764 449.9218587744717 344.7101144599314 444.0894254742882 342.21721283058366 L 440.20113660749917 340.5552784110185 C 434.3687033073157 338.0623767816707 432.93136216183046 333.71940575134244 434.9301751799561 329.04295022236647 Z" fill-opacity="1"/></g></g><g><g><path fill="rgb(255,255,255)" stroke="none" paint-order="stroke fill markers" d=" M 411.285744168328 364.81707298640043 L 408.76735796740405 368.6322650034121 L 433.37534647712937 384.87585599937125 L 435.89373267805325 381.0606639823596 L 418.82074840192604 369.79088573322514 C 415.5778351874661 367.6502574624398 416.1141572416132 363.62222919597247 418.1288662023523 360.57007558236313 C 420.61577257576465 356.80257346556414 424.163140568543 356.19997982195156 428.6459911885317 359.1590836080372 L 443.7636895559404 369.1381889291981 L 446.2820757568643 365.32299691218645 L 430.49671878647854 354.90317400586383 C 424.5354812598978 350.9681955669202 418.86674069126735 352.08763090118657 415.46691932002005 357.2381401241523 C 412.79113398153845 361.29178164222725 413.6779863906456 364.6159698887528 415.41761509623643 367.2706188965199 L 415.29169578619025 367.4613784973705 Z" fill-opacity="1"/></g></g><g><g><path fill="rgb(255,255,255)" stroke="none" paint-order="stroke fill markers" d=" M 397.82782367563505 381.6927715116556 L 412.6141414613611 395.82993884521545 C 415.4227157893761 398.51521085270724 414.17578043186126 402.3827430471956 411.6484656012807 405.0261071206215 C 408.52881135728285 408.2890096487566 404.9308537777117 408.24851235110987 401.04841279486743 404.5365186936947 L 387.9555001186798 392.01841242347547 L 384.7963565804542 395.32261751525783 L 398.46750514770366 408.39357390466654 C 403.63032560361364 413.3297356831441 409.407850076393 413.2404828485904 413.67269385299767 408.7798059746842 C 417.02928386236243 405.2690880646654 416.7502402673477 401.83996727852235 415.5125739943485 398.91735687266333 L 415.67053117125977 398.7521466180742 L 419.13994651763124 402.06924733321114 L 422.29909005585694 398.7650422414288 L 400.9869672138607 378.38856641987326 Z" fill-opacity="1"/></g></g><g><g><path fill="rgb(255,255,255)" stroke="none" paint-order="stroke fill markers" d=" M 360.5188203777301 414.26826064473784 L 356.82045697487314 416.95527894093203 L 381.6753762146692 451.1651404173584 L 385.3737396175261 448.47812212116423 L 375.0287191771786 434.23942302016513 L 375.2136373473214 434.1050721053554 C 378.8552391592528 435.90913823792516 382.4600295033613 435.62097579167255 385.7885565659325 433.2026593250978 C 391.6134789254321 428.97060550859203 391.73456355920104 421.7487543311007 386.05823740849087 413.9359616425655 C 380.3819112577807 406.1231689540303 373.4761054261215 404.00665253930794 367.65118306662185 408.23870635581375 C 364.32265600405066 410.65702282238846 362.93465575430236 413.996335075998 363.5251077588768 418.0171913029279 L 363.34018958873395 418.1515422177376 Z M 368.60279598588716 412.56222346562447 C 372.9021434417083 409.4385646962987 377.4809779181872 410.4910589835818 380.6046366875129 414.79040643940294 L 383.5603568133265 418.85860618254554 C 386.6840155826522 423.1579536383667 386.27005946527424 427.83792262551185 381.9707120094531 430.96158139483754 C 378.6884144894176 433.34631013270985 374.6256664327494 433.6846685097366 372.308113152282 430.4948300747725 L 366.06079561363055 421.8961351631302 C 363.74324233316304 418.70629672816614 365.32049846585164 414.9469522034968 368.60279598588716 412.56222346562447 Z" fill-opacity="1"/></g></g><g><g><path fill="rgb(255,255,255)" stroke="none" paint-order="stroke fill markers" d="" fill-opacity="1"/></g></g><g><g><path fill="rgb(255,255,255)" stroke="none" paint-order="stroke fill markers" d="" fill-opacity="1"/></g></g><g><g><path fill="rgb(255,255,255)" stroke="none" paint-order="stroke fill markers" d="" fill-opacity="1"/></g></g><g><g><path fill="rgb(255,255,255)" stroke="none" paint-order="stroke fill markers" d="" fill-opacity="1"/></g></g><g><g><path fill="rgb(255,255,255)" stroke="none" paint-order="stroke fill markers" d="" fill-opacity="1"/></g></g><g><g><path fill="rgb(255,255,255)" stroke="none" paint-order="stroke fill markers" d=" M 170.63997700334045 431.38709285596616 L 163.30114347312346 446.62633770734425 L 154.5488744706428 442.41146709877364 C 147.90744681581927 439.2131241075642 142.44406960513433 441.33888429924724 139.32010668348792 447.82586014814467 C 136.1961437618415 454.31283599704204 137.94051749437594 459.90966610166555 144.58194514919947 463.10800909287497 L 157.65886471761175 469.4055216492098 L 174.96462756927204 433.46973480373043 Z M 155.14412917771335 463.56455242390973 L 146.49482804585014 459.3992685283811 C 142.89095257424046 457.66373357191094 141.64598148255178 454.7175069916065 143.25754965641698 451.3710511965404 L 144.54680419550917 448.6938865604875 C 146.15837236937438 445.34743076542134 149.2380518436173 444.48384613288124 152.841927315227 446.2193810893515 L 161.4912284470902 450.38466498488003 Z" fill-opacity="1"/></g></g><g><g><path fill="rgb(255,255,255)" stroke="none" paint-order="stroke fill markers" d=" M 144.0116747907697 417.55985805757575 L 125.88969411677087 404.3934684062244 L 123.60572856500583 407.5370772986527 L 131.04868491325536 412.9447016197435 L 123.55862141261413 423.2538896052071 C 120.87160311641996 426.952253008064 116.2382349963695 428.1770236516566 111.56905120026266 424.7846630527115 L 107.08478557429868 421.52665336857604 L 104.39776727810451 425.225016771433 L 107.72629434067572 427.6433332380077 C 112.71908493453255 431.27080793786985 116.92808307072573 429.9496118209674 120.136639473205 427.47775750258756 L 120.36778718588356 427.6456961460997 L 116.00138245456804 433.65553667574216 L 126.68040678031736 441.4143020060028 L 128.96437233208238 438.27069311357445 L 121.98371140918998 433.19894607950795 L 134.74704831611226 415.63171991593765 L 141.72770923900467 420.70346695000416 Z" fill-opacity="1"/></g></g><g><g><path fill="rgb(255,255,255)" stroke="none" paint-order="stroke fill markers" d=" M 107.48550098392651 386.25781274588985 C 101.7595533208925 380.2689410170343 93.86693438800481 380.7788780405755 87.09331394985097 387.2551222939381 C 80.31969351169712 393.7313665473007 79.45616895136156 401.59315990005757 85.18211661439558 407.5820316289131 C 90.9080642774296 413.57090335776866 98.80068321031729 413.0609663342275 105.57430364847113 406.5847220808649 C 112.34792408662497 400.10847782750227 113.21144864696053 392.2466844747454 107.48550098392651 386.25781274588985 Z M 104.63562409226422 388.9825740476095 C 108.15017127854028 392.65850221221734 108.33049305890373 397.22958862512866 103.7459084940557 401.61290028441675 L 100.68951878415702 404.53510805727547 C 96.10493421930899 408.9184197165636 91.54654069233392 408.53319849180133 88.03199350605786 404.8572703271935 C 84.51744631978181 401.18134216258557 84.33712453941837 396.6102557496743 88.9217091042664 392.2269440903862 L 91.97809881416508 389.30473631752744 C 96.56268337901311 384.92142465823935 101.12107690598818 385.30664588300164 104.63562409226422 388.9825740476095 Z" fill-opacity="1"/></g></g><g><g><path fill="rgb(255,255,255)" stroke="none" paint-order="stroke fill markers" d=" M 80.9387384363195 353.03766763387694 L 78.4203522353956 349.22247561686527 L 43.12982607803766 372.51754797541133 L 45.64821227896156 376.332739992423 L 60.33670154445648 366.636953118866 L 60.462620854502674 366.8277127197166 C 58.496991448987096 370.3847085599615 58.62313542759341 373.99879747932545 60.889683008424925 377.43247029463595 C 64.85614127488006 383.4413977214293 72.06528808723499 383.886367558924 80.12488122317215 378.5662767094723 C 88.1844743591093 373.24618586002055 90.60868738970882 366.44229086519306 86.64222912325368 360.4333634383997 C 84.37568154242219 356.9996906230892 81.10200414978124 355.4632703194874 77.05870612850343 355.87273274569765 L 76.93278681845725 355.68197314484706 Z M 82.28037155529782 361.1900442851276 C 85.20799551387185 365.62520500490365 83.95113238631144 370.15220892210255 79.51597166653538 373.0798328806766 L 75.31926044782254 375.8500577016929 C 70.88409972804648 378.7776816602669 66.2274152292388 378.15417635450007 63.29979127066477 373.719015634724 C 61.0647235173448 370.33303271962615 60.90898034700823 366.2591951887274 64.19958346168079 364.08708709043054 L 73.06990490123293 358.2318391732825 C 76.3605080159055 356.0597310749856 80.04530380197787 357.80406137002973 82.28037155529782 361.1900442851276 Z" fill-opacity="1"/></g></g><g><g><path fill="rgb(255,255,255)" stroke="none" paint-order="stroke fill markers" d=" M 65.32491220139555 321.3523893620494 L 63.528226342406185 317.1488338303856 L 36.41529316317484 328.737457620867 L 38.2119790221642 332.9410131525308 L 57.02289002635959 324.9008439335534 C 60.595912228273804 323.3736609534124 63.662138683985006 326.0402896083851 65.09948737117651 329.40313403371607 C 66.8737146569285 333.55414512123406 65.42238887542861 336.8466505884222 60.48321112572368 338.95775647273473 L 43.82662233150597 346.07712418898006 L 45.62330819049534 350.2806797206439 L 63.015519202754206 342.84689197907534 C 69.58357472097886 340.03957032440445 71.77221599962319 334.69189751696246 69.34669008998755 329.0170975492164 C 67.43771136481134 324.5508197968236 64.17486844875579 323.4596778266732 61.00101318609806 323.4490872905714 L 60.91117889314859 323.23890951398823 Z" fill-opacity="1"/></g></g><g><g><path fill="rgb(255,255,255)" stroke="none" paint-order="stroke fill markers" d=" M 57.54318787567468 292.87198840994233 C 56.23349323581752 287.1338412696722 52.56576842276418 284.16117003195524 48.34030248223645 283.36723329352844 L 46.8923884628318 287.0386165745947 C 50.342760312263025 287.77501391260466 52.80910265753252 289.84964501509995 53.686470911417416 293.69364649741686 C 54.91987265963242 299.09753263922465 51.90420673744545 302.8336831006288 46.834581594099966 303.99079195720157 L 41.93208694998565 305.1097543679533 C 36.86246180664017 306.26686322452616 32.51167028071531 304.1534462128393 31.31641497832139 298.9166905702627 C 30.502624134138298 295.35123991999774 31.67015808748451 292.50581265778936 34.38120275036832 290.7733989531528 L 31.67326624823197 287.64027468886013 C 28.142303575775138 290.14595325058673 26.200865301968403 294.2230421831086 27.472413496004485 299.79405882414756 C 29.32887385929717 307.9277431200645 36.34039842760989 311.42668651209016 45.47686571891384 309.341347473871 C 54.557622843807394 307.2687239175922 59.42507920284809 301.11709303868 57.54318787567468 292.87198840994233 Z" fill-opacity="1"/></g></g><g><g><path fill="rgb(255,255,255)" stroke="none" paint-order="stroke fill markers" d=" M 51.76268452710626 245.97554545561349 L 47.880882897117154 246.14987736783263 L 48.483353476109784 259.5649271185303 L 26.790932602641238 260.53913486328435 L 26.188462023648604 247.12408511258667 L 22.306660393659495 247.29841702480581 L 22.90913097265213 260.7134667755035 L 12.519603080622453 261.18006101114884 L 12.717008334164724 265.5756305039306 L 20.42352627605487 265.2295303840838 C 22.42151240913749 265.13980072338273 23.13986438588335 265.8511454034302 23.227030341992922 267.7920462184248 L 23.555184529699545 275.0989669336984 L 27.436986159688654 274.9246350214793 L 26.996028969957877 265.1059603103303 L 45.834183939022665 264.2599377951492 C 49.77307088709985 264.0830421783386 52.47795810812305 261.90234920218643 52.27798914998932 257.4496943913166 Z" fill-opacity="1"/></g></g><g><g><path fill="rgb(255,255,255)" stroke="none" paint-order="stroke fill markers" d=" M 18.504770792424274 216.79656897277064 C 18.857612519716398 214.1917867418378 17.742245134573857 213.06039943909246 16.10009981507271 212.83795574145176 L 15.194088604313457 212.71522818413277 C 13.551943284812303 212.4927844864921 12.175779840366886 213.28667100661016 11.822938113074763 215.89145323754303 C 11.47009638578264 218.49623546847587 12.58546377092518 219.6276227712212 14.227609090426334 219.8500664688619 L 15.133620301185587 219.9727940261809 C 16.775765620686734 220.19523772382158 18.15192906513215 219.4013512037035 18.504770792424274 216.79656897277064 Z M 52.44543546893907 234.42637489418073 L 55.82044329521154 209.5110665983012 L 51.969895649484705 208.98947447969547 L 50.63523346364059 218.84234639670237 L 25.266919562381457 215.40597479177038 L 23.226573921953097 230.46841117064298 L 27.07712156767993 230.99000328924873 L 28.503829421513295 220.4576229641724 L 50.021595677045596 223.37240245049864 L 48.59488782321223 233.90478277557497 Z" fill-opacity="1"/></g></g><g><g><path fill="rgb(255,255,255)" stroke="none" paint-order="stroke fill markers" d=" M 62.47882388364106 189.07067641903538 C 65.03925040846205 181.19049385544696 60.85013736686685 174.48193206378906 51.93737915701512 171.5860013736467 C 43.0246209471634 168.69007068350436 35.69236361992588 171.6551123147343 33.13193709510489 179.53529487832273 C 30.571510570283895 187.41547744191115 34.7606236118791 194.12403923356902 43.67338182173082 197.0199699237114 C 52.586140031582545 199.91590061385375 59.918397358820066 196.9508589826238 62.47882388364106 189.07067641903538 Z M 58.72894390510588 187.85226655549988 C 57.157371762284725 192.6890682669438 53.21754233221958 195.01395342556305 47.18512671457603 193.05390277552766 L 43.16351630281367 191.74720234217077 C 37.131100685170125 189.78715169213538 35.310244930818904 185.59050645330214 36.881817073640065 180.75370474185823 C 38.453389216461225 175.9169030304143 42.393218646526364 173.59201787179504 48.425634264169915 175.55206852183042 L 52.447244675932275 176.85876895518734 C 58.479660293575826 178.81881960522273 60.30051604792704 183.01546484405594 58.72894390510588 187.85226655549988 Z" fill-opacity="1"/></g></g><g><g><path fill="rgb(255,255,255)" stroke="none" paint-order="stroke fill markers" d=" M 72.46433868229892 162.38070713831172 L 54.449870087743925 152.68670821457837 C 51.02812744967203 150.84538998325473 51.20122075885563 146.78550183608363 52.934226153042594 143.56503817672186 C 55.07340468649213 139.58977834719715 58.552475940877784 138.67162695313533 63.282531940565406 141.21697862584745 L 79.23389100334175 149.80077096892975 L 81.40014774607546 145.77519139472753 L 64.74431225781373 136.8123041216668 C 58.454344173122735 133.4275279611454 52.90876969716456 135.05059876478953 49.98432309447405 140.48513118996254 C 47.68267530531949 144.76230948755241 48.863935444441395 147.99361869244123 50.83452181874355 150.4816417488396 L 50.72620898160686 150.6829207275497 L 46.49935042869452 148.4083511476793 L 44.33309368596081 152.43393072188155 L 70.29808193956521 166.40628671251395 Z" fill-opacity="1"/></g></g><g><g><path fill="rgb(255,255,255)" stroke="none" paint-order="stroke fill markers" d="" fill-opacity="1"/></g></g><g><g><path fill="rgb(255,255,255)" stroke="none" paint-order="stroke fill markers" d="" fill-opacity="1"/></g></g><g><g><path fill="rgb(255,255,255)" stroke="none" paint-order="stroke fill markers" d="" fill-opacity="1"/></g></g><g><g><path fill="rgb(255,255,255)" stroke="none" paint-order="stroke fill markers" d="" fill-opacity="1"/></g></g><g><g><path fill="rgb(255,255,255)" stroke="none" paint-order="stroke fill markers" d="" fill-opacity="1"/></g></g></g><g><g><g><path fill="rgb(255,255,255)" stroke="none" paint-order="stroke fill markers" d=" M 251 97.51428353445871 L 251 71.85714067731584 L 249 71.85714067731584 L 249 97.51428353445871 Z" fill-opacity="1"/></g></g><g><g><path fill="rgb(255,255,255)" stroke="none" paint-order="stroke fill markers" d=" M 278.211305621831 100.14334862569129 L 282.79256537980746 74.89852660964645 L 280.8247062026102 74.54141282004917 L 276.2434464446337 99.78623483609402 Z" fill-opacity="1"/></g></g><g><g><path fill="rgb(255,255,255)" stroke="none" paint-order="stroke fill markers" d=" M 304.5158766686368 107.58892979455766 L 313.5311507264953 83.56781797071525 L 311.65868098521577 82.86506832255257 L 302.6434069273573 106.88618014639498 Z" fill-opacity="1"/></g></g><g><g><path fill="rgb(255,255,255)" stroke="none" paint-order="stroke fill markers" d=" M 329.06826258349986 119.61171993604576 L 342.22779261522857 97.58637660306074 L 340.51089502802483 96.56057804824893 L 327.3513649962961 118.58592138123394 Z" fill-opacity="1"/></g></g><g><g><path fill="rgb(255,255,255)" stroke="none" paint-order="stroke fill markers" d=" M 351.0793294813461 135.82529668262356 L 367.96015736402785 116.50363449773093 L 366.45401443202064 115.1877570458515 L 349.57318654933886 134.50941923074416 Z" fill-opacity="1"/></g></g><g><g><path fill="rgb(255,255,255)" stroke="none" paint-order="stroke fill markers" d=" M 369.84162356131253 155.70854233708067 L 389.90118559720656 139.71157542081943 L 388.6542059934891 138.1479124558834 L 368.59464395759505 154.1448793721446 Z" fill-opacity="1"/></g></g><g><g><path fill="rgb(255,255,255)" stroke="none" paint-order="stroke fill markers" d=" M 384.75210925400205 178.62239302409378 L 407.3456746142121 166.46427705550084 L 406.3979372892661 164.70308599178736 L 383.80437192905606 176.86120196038033 Z" fill-opacity="1"/></g></g><g><g><path fill="rgb(255,255,255)" stroke="none" paint-order="stroke fill markers" d=" M 395.33155128086315 203.83037872900314 L 419.7329441846645 195.9018855590402 L 419.1149101959146 193.9997725264499 L 394.71351729211324 201.92826569641284 Z" fill-opacity="1"/></g></g><g><g><path fill="rgb(255,255,255)" stroke="none" paint-order="stroke fill markers" d=" M 401.23991767035864 230.5222940500533 L 426.66485727229025 227.07825197278888 L 426.3963907406549 225.096352449253 L 400.97145113872335 228.54039452651742 Z" fill-opacity="1"/></g></g><g><g><path fill="rgb(255,255,255)" stroke="none" paint-order="stroke fill markers" d=" M 402.28730866531004 257.84023886664454 L 427.91861648685574 258.99134222820913 L 428.0083461475568 256.9933560951265 L 402.3770383260111 255.84225273356188 Z" fill-opacity="1"/></g></g><g><g><path fill="rgb(255,255,255)" stroke="none" paint-order="stroke fill markers" d=" M 398.44006025734336 284.9061919550918 L 423.45392497560846 290.61544334631384 L 423.89896684352107 288.66558752195016 L 398.885102125256 282.9563361307282 Z" fill-opacity="1"/></g></g><g><g><path fill="rgb(255,255,255)" stroke="none" paint-order="stroke fill markers" d=" M 389.8218261758173 310.850231313192 L 413.41428159728025 320.93413069676984 L 414.20033166058806 319.09507515166695 L 390.6078762391251 309.0111757680891 Z" fill-opacity="1"/></g></g><g><g><path fill="rgb(255,255,255)" stroke="none" paint-order="stroke fill markers" d=" M 376.70960355521873 334.83849416914916 L 398.12236875069675 348.9729367218345 L 399.22416271360095 347.3037902143919 L 377.81139751812293 333.1693476617065 Z" fill-opacity="1"/></g></g><g><g><path fill="rgb(255,255,255)" stroke="none" paint-order="stroke fill markers" d=" M 359.52483001934627 356.09997801716435 L 378.06968109697476 373.83067112545586 L 379.4518063949485 372.3850813978011 L 360.90695531732 354.65438828950954 Z" fill-opacity="1"/></g></g><g><g><path fill="rgb(255,255,255)" stroke="none" paint-order="stroke fill markers" d=" M 338.8198383293218 373.9513212723551 L 353.9007285167115 394.70838587088946 L 355.51876250546144 393.53281536630453 L 340.4378723180717 372.77575076777015 Z" fill-opacity="1"/></g></g><g><g><path fill="rgb(255,255,255)" stroke="none" paint-order="stroke fill markers" d=" M 315.26010395418643 387.8187670743656 L 326.3923210321169 410.9350540279762 L 328.1942587679218 410.0672865497411 L 317.06204168999125 386.9509995961305 Z" fill-opacity="1"/></g></g><g><g><path fill="rgb(255,255,255)" stroke="none" paint-order="stroke fill markers" d=" M 289.60285614177116 397.2566043049466 L 296.428601493739 421.98913713080026 L 298.3565272151307 421.45706343966685 L 291.5307818631629 396.7245306138133 Z" fill-opacity="1"/></g></g><g><g><path fill="rgb(255,255,255)" stroke="none" paint-order="stroke fill markers" d=" M 262.6727399476208 401.9614931100291 L 264.97262850177174 427.51534785310696 L 266.96457708976226 427.3360692353001 L 264.6646885356113 401.78221449222224 Z" fill-opacity="1"/></g></g><g><g><path fill="rgb(255,255,255)" stroke="none" paint-order="stroke fill markers" d=" M 235.33531146438875 401.78221449222224 L 233.0354229102378 427.3360692353001 L 235.0273714982283 427.51534785310696 L 237.32726005237922 401.9614931100291 Z" fill-opacity="1"/></g></g><g><g><path fill="rgb(255,255,255)" stroke="none" paint-order="stroke fill markers" d=" M 208.46921813683713 396.7245306138133 L 201.64347278486932 421.4570634396669 L 203.571398506261 421.98913713080026 L 210.39714385822884 397.2566043049466 Z" fill-opacity="1"/></g></g><g><g><path fill="rgb(255,255,255)" stroke="none" paint-order="stroke fill markers" d=" M 182.93795831000872 386.9509995961305 L 171.80574123207825 410.0672865497411 L 173.6076789678831 410.9350540279762 L 184.73989604581357 387.8187670743656 Z" fill-opacity="1"/></g></g><g><g><path fill="rgb(255,255,255)" stroke="none" paint-order="stroke fill markers" d=" M 159.56212768192836 372.7757507677702 L 144.48123749453862 393.5328153663046 L 146.0992714832885 394.7083858708895 L 161.18016167067825 373.95132127235513 Z" fill-opacity="1"/></g></g><g><g><path fill="rgb(255,255,255)" stroke="none" paint-order="stroke fill markers" d=" M 139.09304468268 354.65438828950954 L 120.5481936050515 372.3850813978011 L 121.93031890302522 373.8306711254559 L 140.47516998065373 356.09997801716435 Z" fill-opacity="1"/></g></g><g><g><path fill="rgb(255,255,255)" stroke="none" paint-order="stroke fill markers" d=" M 122.1886024818771 333.1693476617066 L 100.77583728639911 347.303790214392 L 101.8776312493033 348.97293672183457 L 123.2903964447813 334.8384941691492 Z" fill-opacity="1"/></g></g><g><g><path fill="rgb(255,255,255)" stroke="none" paint-order="stroke fill markers" d=" M 109.39212376087484 309.0111757680892 L 85.7996683394119 319.095075151667 L 86.58571840271975 320.9341306967699 L 110.17817382418268 310.85023131319207 Z" fill-opacity="1"/></g></g><g><g><path fill="rgb(255,255,255)" stroke="none" paint-order="stroke fill markers" d=" M 101.11489787474399 282.95633613072823 L 76.1010331564789 288.6655875219502 L 76.54607502439154 290.6154433463139 L 101.55993974265661 284.90619195509186 Z" fill-opacity="1"/></g></g><g><g><path fill="rgb(255,255,255)" stroke="none" paint-order="stroke fill markers" d=" M 97.62296167398897 255.84225273356193 L 71.99165385244325 256.9933560951266 L 72.08138351314427 258.99134222820925 L 97.71269133469 257.8402388666446 Z" fill-opacity="1"/></g></g><g><g><path fill="rgb(255,255,255)" stroke="none" paint-order="stroke fill markers" d=" M 99.02854886127665 228.54039452651745 L 73.60360925934506 225.09635244925303 L 73.33514272770975 227.0782519727889 L 98.76008232964134 230.52229405005332 Z" fill-opacity="1"/></g></g><g><g><path fill="rgb(255,255,255)" stroke="none" paint-order="stroke fill markers" d=" M 105.28648270788669 201.92826569641286 L 80.88508980408533 193.99977252644993 L 80.26705581533542 195.90188555904024 L 104.6684487191368 203.83037872900317 Z" fill-opacity="1"/></g></g><g><g><path fill="rgb(255,255,255)" stroke="none" paint-order="stroke fill markers" d=" M 116.1956280709439 176.86120196038033 L 93.60206271073388 164.7030859917874 L 92.65432538578787 166.46427705550087 L 115.24789074599789 178.62239302409378 Z" fill-opacity="1"/></g></g><g><g><path fill="rgb(255,255,255)" stroke="none" paint-order="stroke fill markers" d=" M 131.40535604240492 154.14487937214463 L 111.34579400651089 138.14791245588341 L 110.09881440279341 139.71157542081949 L 130.15837643868744 155.7085423370807 Z" fill-opacity="1"/></g></g><g><g><path fill="rgb(255,255,255)" stroke="none" paint-order="stroke fill markers" d=" M 150.42681345066106 134.5094192307442 L 133.5459855679793 115.18775704585153 L 132.03984263597206 116.50363449773096 L 148.92067051865385 135.8252966826236 Z" fill-opacity="1"/></g></g><g><g><path fill="rgb(255,255,255)" stroke="none" paint-order="stroke fill markers" d=" M 172.64863500370382 118.58592138123397 L 159.48910497197514 96.56057804824896 L 157.7722073847714 97.58637660306077 L 170.93173741650008 119.61171993604579 Z" fill-opacity="1"/></g></g><g><g><path fill="rgb(255,255,255)" stroke="none" paint-order="stroke fill markers" d=" M 197.35659307264262 106.88618014639498 L 188.34131901478418 82.86506832255257 L 186.4688492735047 83.56781797071525 L 195.48412333136315 107.58892979455766 Z" fill-opacity="1"/></g></g><g><g><path fill="rgb(255,255,255)" stroke="none" paint-order="stroke fill markers" d=" M 223.7565535553662 99.78623483609402 L 219.17529379738974 74.54141282004917 L 217.2074346201925 74.89852660964645 L 221.78869437816894 100.14334862569129 Z" fill-opacity="1"/></g></g></g></g></svg>