<svg version="1.1" xmlns="http://www.w3.org/2000/svg" xmlns:xlink="http://www.w3.org/1999/xlink" width="500" height="500" viewBox="0 0 500 500"><defs/><g><g><g><g><path fill="rgb(255,255,255)" stroke="none" paint-order="stroke fill markers" d=" M 258.85714285714283 52.142852783203125 L 263.25714285714287 52.142852783203125 L 263.25714285714287 12.257138497488839 L 257.3142857142857 12.257138497488839 L 250.28571428571428 29.857138497488837 L 249.94285714285715 29.857138497488837 L 242.9142857142857 12.257138497488839 L 236.74285714285713 12.257138497488839 L 236.74285714285713 52.142852783203125 L 241.14285714285714 52.142852783203125 L 241.14285714285714 32.142852783203125 L 241.14285714285714 19.51428135463169 L 241.6 19.51428135463169 L 250 40.02856706891741 L 258.4 19.51428135463169 L 258.85714285714283 19.51428135463169 L 258.85714285714283 32.142852783203125 Z" fill-opacity="1"/></g></g><g><g><path fill="rgb(255,255,255)" stroke="none" paint-order="stroke fill markers" d=" M 292.1881526669784 56.56729517570332 L 296.68611650057215 57.383555266211374 L 301.9509940843491 28.371688539531778 L 297.4530302507554 27.555428449023726 L 293.8002663457318 47.68381660435569 C 293.1064452688 51.50708586291037 289.1917734168531 52.5970387760215 285.59340234997813 51.944030703615056 C 281.15166306430433 51.137973864238354 279.2033570557898 48.112904861273876 280.16246266213676 42.82779735680124 L 283.3968932707749 25.00461566618606 L 278.8989294371812 24.188355575678006 L 275.52165331270413 42.79868093717209 C 274.2462469212853 49.8267494271623 277.5035557421425 54.59934770772256 283.57580691749405 55.70129882990843 C 288.35489349068735 56.56857517607324 291.063021708395 54.44660056493079 292.82032757033215 51.803620145904496 L 293.04522576201185 51.8444331504299 Z" fill-opacity="1"/></g></g><g><g><path fill="rgb(255,255,255)" stroke="none" paint-order="stroke fill markers" d=" M 319.6020723728162 65.52170036417273 C 326.66395825421307 68.17207046581487 332.4495190254026 66.74237775171491 334.4975322857624 61.285465934271876 C 336.746331159883 55.29356276217756 331.6374914344964 52.1554882311391 327.89941958521376 50.08118419919302 L 323.80693234905135 47.81283110214926 C 321.48652204728796 46.51472333059384 319.3601608106223 44.8622001721586 320.44440312493043 41.9732468570417 C 321.5085668778625 39.137792677389925 324.4983062536995 38.48985301082466 328.83173622637486 40.11621648228688 C 333.7001575537015 41.94336556750986 335.4382895755586 44.792948267553996 336.13999054681545 46.82630866906854 L 339.90579509842985 45.248936222833265 C 338.3284226521946 41.48313167121886 335.3129168432243 38.45931629822668 330.3374972449674 36.59201009025155 C 323.91760098915205 34.18258272512234 318.18567043804086 35.144125232749104 316.11757861630497 40.65453618565727 C 313.86877974218436 46.64643935775159 319.03111860303613 49.804592450166126 322.7156913168536 51.858817920736136 L 326.8081785530161 54.12717101777989 C 329.18208799024455 55.44535735071138 331.2549500914451 57.07780194777055 330.17070777713695 59.96675526288745 C 328.9459155331963 63.23020252626026 325.3342650931538 63.58370032084746 321.0543342559436 61.977415410761324 C 316.6674051478031 60.33097337792303 314.25373184166216 57.65509901237402 312.6763593954269 53.889294460759615 L 308.8437136956344 55.319511513312484 C 310.50787476681063 59.66720109099342 313.8241657425824 63.35321573555645 319.6020723728162 65.52170036417273 Z" fill-opacity="1"/></g></g><g><g><path fill="rgb(255,255,255)" stroke="none" paint-order="stroke fill markers" d=" M 371.5148967605737 50.183487060966094 C 373.7713907323272 51.53167944729019 375.250100080565 50.95073169052787 376.10004745455194 49.52815940398763 L 376.56898393675164 48.743291935551646 C 377.41893131073857 47.32071964901141 377.2297972885499 45.74328186757475 374.9733033167964 44.39508948125065 C 372.7168093450429 43.04689709492656 371.2380999968051 43.627844851688884 370.38815262281815 45.05041713822912 L 369.9192161406185 45.835284606665105 C 369.0692687666316 47.25785689320534 369.25840278882026 48.835294674642 371.5148967605737 50.183487060966094 Z M 341.9642697823027 74.46391581956271 L 363.54812516429246 87.35966908005408 L 365.5411052136412 84.02398233920111 L 357.00567149439973 78.92429809527953 L 370.13589299599096 56.94800897907175 L 357.08747133324255 49.15193996250198 L 355.0944912838939 52.48762670335494 L 364.21857560446233 57.93901330892629 L 353.08133415221977 76.5796156842811 L 343.9572498316514 71.12822907870975 Z" fill-opacity="1"/></g></g><g><g><path fill="rgb(255,255,255)" stroke="none" paint-order="stroke fill markers" d=" M 380.50130916798764 102.19255692380925 C 384.9336726536089 106.06499628219727 389.64821667150375 106.31410327761996 393.53335473264366 104.47274502755951 L 392.54675683261183 100.65147105311927 C 389.3225038743994 102.08379078007754 386.1077534371358 101.85505861875386 383.13850022832156 99.26090021362013 C 378.96433267390154 95.61403984698288 379.20800351274914 90.81886667526268 382.62928488763566 86.9028950520439 L 385.9377767666468 83.11602139442574 C 389.3590581415333 79.20004977120696 394.1211577764026 78.35250895512505 398.16622736522197 81.88657982588693 C 400.9203172980352 84.29275573789502 401.64826266946534 87.28101398860699 400.47326869113755 90.27607818809533 L 404.5056395772051 91.2191438232964 C 405.88944748015797 87.11655949915328 405.06365129037636 82.67697647958533 400.7603857703557 78.91732661707269 C 394.4776181111256 73.42823781780423 386.74854825444424 74.71880388864011 380.5827224799235 81.77615934147394 C 374.45449320402787 88.79048213910758 374.1324761983571 96.62827512729054 380.50130916798764 102.19255692380925 Z" fill-opacity="1"/></g></g><g><g><path fill="rgb(255,255,255)" stroke="none" paint-order="stroke fill markers" d="" fill-opacity="1"/></g></g><g><g><path fill="rgb(255,255,255)" stroke="none" paint-order="stroke fill markers" d="" fill-opacity="1"/></g></g><g><g><path fill="rgb(255,255,255)" stroke="none" paint-order="stroke fill markers" d="" fill-opacity="1"/></g></g><g><g><path fill="rgb(255,255,255)" stroke="none" paint-order="stroke fill markers" d="" fill-opacity="1"/></g></g><g><g><path fill="rgb(255,255,255)" stroke="none" paint-order="stroke fill markers" d="" fill-opacity="1"/></g></g><g><g><path fill="rgb(255,255,255)" stroke="none" paint-order="stroke fill markers" d=" M 442.25336441327954 293.7633510725085 C 440.2824647125236 302.39842686611894 443.4961797998419 308.3484392679918 450.6827912667822 309.98873643829836 C 455.7524164101277 311.14584529487115 460.55858574463355 309.60526443387107 463.63765076431235 302.2781432022163 L 465.31554407317446 298.26518198666173 C 467.5214496142468 292.9660387050193 470.15675169275397 291.69193265750124 473.61078201019814 292.4802925378036 C 478.011885156619 293.4848156110921 479.6220814366058 296.95878919039757 478.4268261342119 302.19554483297424 C 477.3205792054005 307.04232931067816 474.73494928401885 309.382795763285 471.3978270014149 310.9070026743318 L 473.48883205386346 314.84239207150324 C 477.81904085455653 313.0759515402191 481.0138241384396 309.3505981706439 482.4252426338196 303.1667696990906 C 484.23084106935084 295.2559260688152 481.71107894283796 289.34707911740594 474.58017764230806 287.71949742903973 C 469.67768299819375 286.600535018288 464.7298141283374 287.99154910064624 461.706459275069 295.33138581424134 L 459.9904195203858 299.5114775290271 C 457.89108607348527 304.6004956269684 455.44047821479865 306.092594101479 451.6521868988921 305.2279413295345 C 446.9725329204193 304.15984084654417 444.9420862730301 300.47272307889506 446.22634994900653 294.84599627144564 C 447.29445043199684 290.1663422929729 449.85766839414026 287.4104737116126 454.33259573482627 285.26677749739605 L 452.3227318126688 281.23268324934423 C 447.65039477022196 283.21409720297856 443.84279965582465 286.7995802712098 442.25336441327954 293.7633510725085 Z" fill-opacity="1"/></g></g><g><g><path fill="rgb(255,255,255)" stroke="none" paint-order="stroke fill markers" d=" M 431.30460853389616 327.49330866898816 C 428.04811541447793 335.11225307012876 431.61901347580675 342.16931736226564 440.23630231571747 345.85252337319383 C 448.85359115562824 349.535729384122 456.4221152532084 347.239882618307 459.6786083726266 339.6209382171664 C 462.93510149204485 332.0019938160258 459.364203430716 324.94492952388896 450.74691459080526 321.2617235129607 C 442.12962575089455 317.5785175020325 434.5611016533144 319.87436426784757 431.30460853389616 327.49330866898816 Z M 434.9301751799561 329.04295022236647 C 436.9289881980818 324.36649469339056 441.06135813205105 322.40413242622316 446.8937914322346 324.89703405557094 L 450.78208029902356 326.55896847513606 C 456.61451359920704 329.05187010448384 458.05185474469226 333.3948411348121 456.0530417265666 338.0712966637881 C 454.0542287084409 342.747752192764 449.9218587744717 344.7101144599314 444.0894254742882 342.21721283058366 L 440.20113660749917 340.5552784110185 C 434.3687033073157 338.0623767816707 432.93136216183046 333.71940575134244 434.9301751799561 329.04295022236647 Z" fill-opacity="1"/></g></g><g><g><path fill="rgb(255,255,255)" stroke="none" paint-order="stroke fill markers" d=" M 411.285744168328 364.81707298640043 L 408.76735796740405 368.6322650034121 L 433.37534647712937 384.87585599937125 L 435.89373267805325 381.0606639823596 L 418.82074840192604 369.79088573322514 C 415.5778351874661 367.6502574624398 416.1141572416132 363.62222919597247 418.1288662023523 360.57007558236313 C 420.61577257576465 356.80257346556414 424.163140568543 356.19997982195156 428.6459911885317 359.1590836080372 L 443.7636895559404 369.1381889291981 L 446.2820757568643 365.32299691218645 L 430.49671878647854 354.90317400586383 C 424.5354812598978 350.9681955669202 418.86674069126735 352.08763090118657 415.46691932002005 357.2381401241523 C 412.79113398153845 361.29178164222725 413.6779863906456 364.6159698887528 415.41761509623643 367.2706188965199 L 415.29169578619025 367.4613784973705 Z" fill-opacity="1"/></g></g><g><g><path fill="rgb(255,255,255)" stroke="none" paint-order="stroke fill markers" d=" M 397.82782367563505 381.6927715116556 L 412.6141414613611 395.82993884521545 C 415.4227157893761 398.51521085270724 414.17578043186126 402.3827430471956 411.6484656012807 405.0261071206215 C 408.52881135728285 408.2890096487566 404.9308537777117 408.24851235110987 401.04841279486743 404.5365186936947 L 387.9555001186798 392.01841242347547 L 384.7963565804542 395.32261751525783 L 398.46750514770366 408.39357390466654 C 403.63032560361364 413.3297356831441 409.407850076393 413.2404828485904 413.67269385299767 408.7798059746842 C 417.02928386236243 405.2690880646654 416.7502402673477 401.83996727852235 415.5125739943485 398.91735687266333 L 415.67053117125977 398.7521466180742 L 419.13994651763124 402.06924733321114 L 422.29909005585694 398.7650422414288 L 400.9869672138607 378.38856641987326 Z" fill-opacity="1"/></g></g><g><g><path fill="rgb(255,255,255)" stroke="none" paint-order="stroke fill markers" d=" M 360.5188203777301 414.26826064473784 L 356.82045697487314 416.95527894093203 L 381.6753762146692 451.1651404173584 L 385.3737396175261 448.47812212116423 L 375.0287191771786 434.23942302016513 L 375.2136373473214 434.1050721053554 C 378.8552391592528 435.90913823792516 382.4600295033613 435.62097579167255 385.7885565659325 433.2026593250978 C 391.6134789254321 428.97060550859203 391.73456355920104 421.7487543311007 386.05823740849087 413.9359616425655 C 380.3819112577807 406.1231689540303 373.4761054261215 404.00665253930794 367.65118306662185 408.23870635581375 C 364.32265600405066 410.65702282238846 362.93465575430236 413.996335075998 363.5251077588768 418.0171913029279 L 363.34018958873395 418.1515422177376 Z M 368.60279598588716 412.56222346562447 C 372.9021434417083 409.4385646962987 377.4809779181872 410.4910589835818 380.6046366875129 414.79040643940294 L 383.5603568133265 418.85860618254554 C 386.6840155826522 423.1579536383667 386.27005946527424 427.83792262551185 381.9707120094531 430.96158139483754 C 378.6884144894176 433.34631013270985 374.6256664327494 433.6846685097366 372.308113152282 430.4948300747725 L 366.06079561363055 421.8961351631302 C 363.74324233316304 418.70629672816614 365.32049846585164 414.9469522034968 368.60279598588716 412.56222346562447 Z" fill-opacity="1"/></g></g><g><g><path fill="rgb(255,255,255)" stroke="none" paint-order="stroke fill markers" d="" fill-opacity="1"/></g></g><g><g><path fill="rgb(255,255,255)" stroke="none" paint-order="stroke fill markers" d="" fill-opacity="1"/></g></g><g><g><path fill="rgb(255,255,255)" stroke="none" paint-order="stroke fill markers" d="" fill-opacity="1"/></g></g><g><g><path fill="rgb(255,255,255)" stroke="none" paint-order="stroke fill markers" d="" fill-opacity="1"/></g></g><g><g><path fill="rgb(255,255,255)" stroke="none" paint-order="stroke fill markers" d="" fill-opacity="1"/></g></g><g><g><path fill="rgb(255,255,255)" stroke="none" paint-order="stroke fill markers" d=" M 170.63997700334045 431.38709285596616 L 163.30114347312346 446.62633770734425 L 154.5488744706428 442.41146709877364 C 147.90744681581927 439.2131241075642 142.44406960513433 441.33888429924724 139.32010668348792 447.82586014814467 C 136.1961437618415 454.31283599704204 137.94051749437594 459.90966610166555 144.58194514919947 463.10800909287497 L 157.65886471761175 469.4055216492098 L 174.96462756927204 433.46973480373043 Z M 155.14412917771335 463.56455242390973 L 146.49482804585014 459.3992685283811 C 142.89095257424046 457.66373357191094 141.64598148255178 454.7175069916065 143.25754965641698 451.3710511965404 L 144.54680419550917 448.6938865604875 C 146.15837236937438 445.34743076542134 149.2380518436173 444.48384613288124 152.841927315227 446.2193810893515 L 161.4912284470902 450.38466498488003 Z" fill-opacity="1"/></g></g><g><g><path fill="rgb(255,255,255)" stroke="none" paint-order="stroke fill markers" d=" M 144.0116747907697 417.55985805757575 L 125.88969411677087 404.3934684062244 L 123.60572856500583 407.5370772986527 L 131.04868491325536 412.9447016197435 L 123.55862141261413 423.2538896052071 C 120.87160311641996 426.952253008064 116.2382349963695 428.1770236516566 111.56905120026266 424.7846630527115 L 107.08478557429868 421.52665336857604 L 104.39776727810451 425.225016771433 L 107.72629434067572 427.6433332380077 C 112.71908493453255 431.27080793786985 116.92808307072573 429.9496118209674 120.136639473205 427.47775750258756 L 120.36778718588356 427.6456961460997 L 116.00138245456804 433.65553667574216 L 126.68040678031736 441.4143020060028 L 128.96437233208238 438.27069311357445 L 121.98371140918998 433.19894607950795 L 134.74704831611226 415.63171991593765 L 141.72770923900467 420.70346695000416 Z" fill-opacity="1"/></g></g><g><g><path fill="rgb(255,255,255)" stroke="none" paint-order="stroke fill markers" d=" M 107.48550098392651 386.25781274588985 C 101.7595533208925 380.2689410170343 93.86693438800481 380.7788780405755 87.09331394985097 387.2551222939381 C 80.31969351169712 393.7313665473007 79.45616895136156 401.59315990005757 85.18211661439558 407.5820316289131 C 90.9080642774296 413.57090335776866 98.80068321031729 413.0609663342275 105.57430364847113 406.5847220808649 C 112.34792408662497 400.10847782750227 113.21144864696053 392.2466844747454 107.48550098392651 386.25781274588985 Z M 104.63562409226422 388.9825740476095 C 108.15017127854028 392.65850221221734 108.33049305890373 397.22958862512866 103.7459084940557 401.61290028441675 L 100.68951878415702 404.53510805727547 C 96.10493421930899 408.9184197165636 91.54654069233392 408.53319849180133 88.03199350605786 404.8572703271935 C 84.51744631978181 401.18134216258557 84.33712453941837 396.6102557496743 88.9217091042664 392.2269440903862 L 91.97809881416508 389.30473631752744 C 96.56268337901311 384.92142465823935 101.12107690598818 385.30664588300164 104.63562409226422 388.9825740476095 Z" fill-opacity="1"/></g></g><g><g><path fill="rgb(255,255,255)" stroke="none" paint-order="stroke fill markers" d=" M 80.9387384363195 353.03766763387694 L 78.4203522353956 349.22247561686527 L 43.12982607803766 372.51754797541133 L 45.64821227896156 376.332739992423 L 60.33670154445648 366.636953118866 L 60.462620854502674 366.8277127197166 C 58.496991448987096 370.3847085599615 58.62313542759341 373.99879747932545 60.889683008424925 377.43247029463595 C 64.85614127488006 383.4413977214293 72.06528808723499 383.886367558924 80.12488122317215 378.5662767094723 C 88.1844743591093 373.24618586002055 90.60868738970882 366.44229086519306 86.64222912325368 360.4333634383997 C 84.37568154242219 356.9996906230892 81.10200414978124 355.4632703194874 77.05870612850343 355.87273274569765 L 76.93278681845725 355.68197314484706 Z M 82.28037155529782 361.1900442851276 C 85.20799551387185 365.62520500490365 83.95113238631144 370.15220892210255 79.51597166653538 373.0798328806766 L 75.31926044782254 375.8500577016929 C 70.88409972804648 378.7776816602669 66.2274152292388 378.15417635450007 63.29979127066477 373.719015634724 C 61.0647235173448 370.33303271962615 60.90898034700823 366.2591951887274 64.19958346168079 364.08708709043054 L 73.06990490123293 358.2318391732825 C 76.3605080159055 356.0597310749856 80.04530380197787 357.80406137002973 82.28037155529782 361.1900442851276 Z" fill-opacity="1"/></g></g><g><g><path fill="rgb(255,255,255)" stroke="none" paint-order="stroke fill markers" d=" M 65.32491220139555 321.3523893620494 L 63.528226342406185 317.1488338303856 L 36.41529316317484 328.737457620867 L 38.2119790221642 332.9410131525308 L 57.02289002635959 324.9008439335534 C 60.595912228273804 323.3736609534124 63.662138683985006 326.0402896083851 65.09948737117651 329.40313403371607 C 66.8737146569285 333.55414512123406 65.42238887542861 336.8466505884222 60.48321112572368 338.95775647273473 L 43.82662233150597 346.07712418898006 L 45.62330819049534 350.2806797206439 L 63.015519202754206 342.84689197907534 C 69.58357472097886 340.03957032440445 71.77221599962319 334.69189751696246 69.34669008998755 329.0170975492164 C 67.43771136481134 324.5508197968236 64.17486844875579 323.4596778266732 61.00101318609806 323.4490872905714 L 60.91117889314859 323.23890951398823 Z" fill-opacity="1"/></g></g><g><g><path fill="rgb(255,255,255)" stroke="none" paint-order="stroke fill markers" d=" M 57.54318787567468 292.87198840994233 C 56.23349323581752 287.1338412696722 52.56576842276418 284.16117003195524 48.34030248223645 283.36723329352844 L 46.8923884628318 287.0386165745947 C 50.342760312263025 287.77501391260466 52.80910265753252 289.84964501509995 53.686470911417416 293.69364649741686 C 54.91987265963242 299.09753263922465 51.90420673744545 302.8336831006288 46.834581594099966 303.99079195720157 L 41.93208694998565 305.1097543679533 C 36.86246180664017 306.26686322452616 32.51167028071531 304.1534462128393 31.31641497832139 298.9166905702627 C 30.502624134138298 295.35123991999774 31.67015808748451 292.50581265778936 34.38120275036832 290.7733989531528 L 31.67326624823197 287.64027468886013 C 28.142303575775138 290.14595325058673 26.200865301968403 294.2230421831086 27.472413496004485 299.79405882414756 C 29.32887385929717 307.9277431200645 36.34039842760989 311.42668651209016 45.47686571891384 309.341347473871 C 54.557622843807394 307.2687239175922 59.42507920284809 301.11709303868 57.54318787567468 292.87198840994233 Z" fill-opacity="1"/></g></g><g><g><path fill="rgb(255,255,255)" stroke="none" paint-order="stroke fill markers" d=" M 51.76268452710626 245.97554545561349 L 47.880882897117154 246.14987736783263 L 48.483353476109784 259.5649271185303 L 26.790932602641238 260.53913486328435 L 26.188462023648604 247.12408511258667 L 22.306660393659495 247.29841702480581 L 22.90913097265213 260.7134667755035 L 12.519603080622453 261.18006101114884 L 12.717008334164724 265.5756305039306 L 20.42352627605487 265.2295303840838 C 22.42151240913749 265.13980072338273 23.13986438588335 265.8511454034302 23.227030341992922 267.7920462184248 L 23.555184529699545 275.0989669336984 L 27.436986159688654 274.9246350214793 L 26.996028969957877 265.1059603103303 L 45.834183939022665 264.2599377951492 C 49.77307088709985 264.0830421783386 52.47795810812305 261.90234920218643 52.27798914998932 257.4496943913166 Z" fill-opacity="1"/></g></g><g><g><path fill="rgb(255,255,255)" stroke="none" paint-order="stroke fill markers" d=" M 18.504770792424274 216.79656897277064 C 18.857612519716398 214.1917867418378 17.742245134573857 213.06039943909246 16.10009981507271 212.83795574145176 L 15.194088604313457 212.71522818413277 C 13.551943284812303 212.4927844864921 12.175779840366886 213.28667100661016 11.822938113074763 215.89145323754303 C 11.47009638578264 218.49623546847587 12.58546377092518 219.6276227712212 14.227609090426334 219.8500664688619 L 15.133620301185587 219.9727940261809 C 16.775765620686734 220.19523772382158 18.15192906513215 219.4013512037035 18.504770792424274 216.79656897277064 Z M 52.44543546893907 234.42637489418073 L 55.82044329521154 209.5110665983012 L 51.969895649484705 208.98947447969547 L 50.63523346364059 218.84234639670237 L 25.266919562381457 215.40597479177038 L 23.226573921953097 230.46841117064298 L 27.07712156767993 230.99000328924873 L 28.503829421513295 220.4576229641724 L 50.021595677045596 223.37240245049864 L 48.59488782321223 233.90478277557497 Z" fill-opacity="1"/></g></g><g><g><path fill="rgb(255,255,255)" stroke="none" paint-order="stroke fill markers" d=" M 62.47882388364106 189.07067641903538 C 65.03925040846205 181.19049385544696 60.85013736686685 174.48193206378906 51.93737915701512 171.5860013736467 C 43.0246209471634 168.69007068350436 35.69236361992588 171.6551123147343 33.13193709510489 179.53529487832273 C 30.571510570283895 187.41547744191115 34.7606236118791 194.12403923356902 43.67338182173082 197.0199699237114 C 52.586140031582545 199.91590061385375 59.918397358820066 196.9508589826238 62.47882388364106 189.07067641903538 Z M 58.72894390510588 187.85226655549988 C 57.157371762284725 192.6890682669438 53.21754233221958 195.01395342556305 47.18512671457603 193.05390277552766 L 43.16351630281367 191.74720234217077 C 37.131100685170125 189.78715169213538 35.310244930818904 185.59050645330214 36.881817073640065 180.75370474185823 C 38.453389216461225 175.9169030304143 42.393218646526364 173.59201787179504 48.425634264169915 175.55206852183042 L 52.447244675932275 176.85876895518734 C 58.479660293575826 178.81881960522273 60.30051604792704 183.01546484405594 58.72894390510588 187.85226655549988 Z" fill-opacity="1"/></g></g><g><g><path fill="rgb(255,255,255)" stroke="none" paint-order="stroke fill markers" d=" M 72.46433868229892 162.38070713831172 L 54.449870087743925 152.68670821457837 C 51.02812744967203 150.84538998325473 51.20122075885563 146.78550183608363 52.934226153042594 143.56503817672186 C 55.07340468649213 139.58977834719715 58.552475940877784 138.67162695313533 63.282531940565406 141.21697862584745 L 79.23389100334175 149.80077096892975 L 81.40014774607546 145.77519139472753 L 64.74431225781373 136.8123041216668 C 58.454344173122735 133.4275279611454 52.90876969716456 135.05059876478953 49.98432309447405 140.48513118996254 C 47.68267530531949 144.76230948755241 48.863935444441395 147.99361869244123 50.83452181874355 150.4816417488396 L 50.72620898160686 150.6829207275497 L 46.49935042869452 148.4083511476793 L 44.33309368596081 152.43393072188155 L 70.29808193956521 166.40628671251395 Z" fill-opacity="1"/></g></g><g><g><path fill="rgb(255,255,255)" stroke="none" paint-order="stroke fill markers" d="" fill-opacity="1"/></g></g><g><g><path fill="rgb(255,255,255)" stroke="none" paint-order="stroke fill markers" d="" fill-opacity="1"/></g></g><g><g><path fill="rgb(255,255,255)" stroke="none" paint-order="stroke fill markers" d="" fill-opacity="1"/></g></g><g><g><path fill="rgb(255,255,255)" stroke="none" paint-order="stroke fill markers" d="" fill-opacity="1"/></g></g><g><g><path fill="rgb(255,255,255)" stroke="none" paint-order="stroke fill markers" d="" fill-opacity="1"/></g></g></g><g><g><g><path fill="rgb(255,255,255)" stroke="none" paint-order="stroke fill markers" d=" M 250 80.07691955566406 L 254.46428571428572 86.2197766985212 L 256.5 84.7197766985212 L 252.07142857142858 78.64834812709263 L 259.17857142857144 76.29120526994977 L 258.42857142857144 73.93406241280692 L 251.32142857142858 76.2197766985212 L 251.32142857142858 68.5054909842355 L 248.67857142857142 68.5054909842355 L 248.67857142857142 76.2197766985212 L 241.57142857142858 73.93406241280692 L 240.82142857142858 76.29120526994977 L 247.92857142857142 78.64834812709263 L 243.5 84.7197766985212 L 245.53571428571428 86.2197766985212 Z" fill-opacity="1"/></g></g><g><g><path fill="rgb(255,255,255)" stroke="none" paint-order="stroke fill markers" d=" M 280.3409375987596 82.8076533649927 L 283.63663090838327 89.64892126102106 L 285.9074657702284 88.53651769967747 L 282.6341587391405 81.77190752050612 L 290.04797099584897 80.72167427827108 L 289.7309079135682 78.26849400547533 L 282.32984972077395 79.24844656281047 L 283.70728862350626 71.65813259362103 L 281.1069032822099 71.18623222879607 L 279.7294643794775 78.7765461979855 L 273.14466627719133 75.25853492172689 L 271.9858349765741 77.44387985232468 L 278.55787901494614 81.03217181348319 L 273.1163811184462 86.2152780672952 L 274.8515452958955 88.05466327174751 Z" fill-opacity="1"/></g></g><g><g><path fill="rgb(255,255,255)" stroke="none" paint-order="stroke fill markers" d=" M 309.70669249848834 90.91208676149148 L 311.72786710877324 98.23188143149872 L 314.1608360458404 97.54282787456184 L 312.14800019350116 90.30245622474607 L 319.6301958237396 90.59288795795908 L 319.75626032752297 88.12251750196155 L 312.2991628990046 87.76521184941713 L 315.009768684775 80.54282856162487 L 312.5354336695128 79.61419509798131 L 309.82482788374244 86.83657838577358 L 303.97401536531027 82.19934189601892 L 302.4435985555673 84.14265011589444 L 308.2693128722794 88.8467605249805 L 301.98978272752385 92.97495516150438 L 303.368627192347 95.09460621648672 Z" fill-opacity="1"/></g></g><g><g><path fill="rgb(255,255,255)" stroke="none" paint-order="stroke fill markers" d=" M 337.15342517448556 104.12973658744696 L 337.835118870429 111.69279380799193 L 340.3520242592274 111.44923700373687 L 339.6643537860979 103.96581538549938 L 346.97444886593934 105.58757737928696 L 347.539589138909 103.17941647917098 L 340.2661297217394 101.49633671441185 L 344.2227812902992 94.87401744948316 L 341.9540237643514 93.5184979306247 L 337.99737219579157 100.14081719555338 L 333.0685951896204 94.53340008861429 L 331.21578172624794 96.17221207262139 L 336.10792306974724 101.84094695053206 L 329.19218994240316 104.78154639746009 L 330.1703974989838 107.11333597401062 Z" fill-opacity="1"/></g></g><g><g><path fill="rgb(255,255,255)" stroke="none" paint-order="stroke fill markers" d=" M 361.7989750552977 122.03577670193442 L 361.1192776406127 129.5990135910446 L 363.6392240710296 129.80878165555933 L 364.2988212719333 122.3228333970901 L 371.2018633307455 125.22380088658169 L 372.1879152995292 122.95524981511839 L 365.3318688639985 120.00049150662655 L 370.40739617839057 114.19108305459869 L 368.417135875381 112.4522449931866 L 363.34160856098896 118.26165344521445 L 359.49328201546837 111.86428272070609 L 357.37762284767916 113.14592570325982 L 361.1789537699184 119.59708724676844 L 353.8492950129827 121.25557821834306 L 354.39542526558046 123.7245606808686 Z" fill-opacity="1"/></g></g><g><g><path fill="rgb(255,255,255)" stroke="none" paint-order="stroke fill markers" d=" M 382.8512138893295 144.0546922425353 L 380.83197139818094 151.37502014354268 L 383.273965718524 152.03137095863593 L 385.25963059670545 144.7835005964209 L 391.53375018287613 148.87043409958025 L 392.909021325871 146.8144059547765 L 386.6907468455909 142.6829374657701 L 392.7220182817729 137.87315899428845 L 391.0742238054319 135.80689007633723 L 385.04295236925 140.61666854781888 L 382.3987646659666 133.63496096460113 L 380.0882588201836 134.51824188570285 L 382.6766014175764 141.54448445476763 L 375.16859829436044 141.86756168655154 L 375.26509816729936 144.39438190722097 Z" fill-opacity="1"/></g></g><g><g><path fill="rgb(255,255,255)" stroke="none" paint-order="stroke fill markers" d=" M 399.6335053986153 169.47877714655075 L 396.3396179461069 176.32091469753104 L 398.6251724496406 177.40275260795846 L 401.87308410210466 170.62591265900684 L 407.3166258497715 175.76745477030232 L 409.0369138208648 173.9900319884377 L 403.65627175404484 168.81464211553703 L 410.4494372855111 165.1590838621739 L 409.1970701061182 162.83179567083823 L 402.4039045746519 166.48735392420136 L 401.04884208203424 159.14570730856695 L 398.6177511172315 159.6022367926465 L 399.90991392900224 166.97773116988608 L 392.46487983749165 165.95501069382087 L 392.10864774545513 168.4584545916673 Z" fill-opacity="1"/></g></g><g><g><path fill="rgb(255,255,255)" stroke="none" paint-order="stroke fill markers" d=" M 411.60645292553124 197.4908804061589 L 407.1437887646063 203.63491567649407 L 409.19944384902664 205.10746952167537 L 413.6052117228724 199.01947319794894 L 418.04321572130436 205.05037052344855 L 420.0532290496475 203.6086809352005 L 415.6831576595223 197.55571096724555 L 423.01987935665636 195.1718655820674 L 422.20319158580827 192.65835907471592 L 414.8664698886742 195.04220445989407 L 414.84408543018407 187.5765853747965 L 412.37054661027855 187.5916901886018 L 412.3249984604619 195.07938191615472 L 405.1822229221523 192.74373480983837 L 404.38470845768717 195.1433396381445 Z" fill-opacity="1"/></g></g><g><g><path fill="rgb(255,255,255)" stroke="none" paint-order="stroke fill markers" d=" M 418.38523608518835 227.19066997416058 L 412.8972289138713 232.43912861493303 L 414.6569141333663 234.25506930266272 L 420.07893322405056 229.0515898152261 L 423.36875837313613 235.77800435264945 L 425.6038935765116 234.71838504761044 L 422.3848505532666 227.98238241977154 L 430.0293201440478 226.94686865489248 L 429.67456079867253 224.32792999879152 L 422.03009120789136 225.36344376367057 L 423.34110423844254 218.0138033492367 L 420.9046191363406 217.5869980116238 L 419.52282397994884 224.94622651647322 L 412.91188167773674 221.37272239967956 L 411.6987176119279 223.59136288486218 Z" fill-opacity="1"/></g></g><g><g><path fill="rgb(255,255,255)" stroke="none" paint-order="stroke fill markers" d=" M 419.7519792092337 257.623570176772 L 413.41501809355793 261.80776240882113 L 414.8221757172992 263.90872411123456 L 421.0861778699952 259.75700557225116 L 423.1220864825657 266.96274482385314 L 425.5105044764617 266.3192528383448 L 423.5459525115013 259.1167182174822 L 431.2524704533914 259.462818337329 L 431.37104179074635 256.8226223757555 L 423.6645238488562 256.47652225590866 L 426.2667973309418 249.47908400236264 L 423.9456765825716 248.62408638805903 L 421.2720464528759 255.61832001086572 L 415.40541851185594 250.9218142461975 L 413.81559693597325 252.8881814575594 Z" fill-opacity="1"/></g></g><g><g><path fill="rgb(255,255,255)" stroke="none" paint-order="stroke fill markers" d=" M 415.6627540491005 287.81144256120757 L 408.6805141333929 290.7968850034305 L 409.6899169575403 293.1153410827351 L 416.59457198902214 290.1488231420932 L 417.3111282871184 297.60228871942536 L 419.77606335201415 297.39560641532887 L 419.12914476193095 289.95803519042215 L 426.6500172273336 291.6746252523709 L 427.2381082670753 289.0980300558903 L 419.71723580167264 287.3814399939416 L 423.5271305244206 280.9611073242638 L 421.39597686045926 279.7053977600876 L 417.5164444296983 286.10983607733993 L 412.58268909897237 280.4412782243714 L 410.66730818657425 282.09217150180706 Z" fill-opacity="1"/></g></g><g><g><path fill="rgb(255,255,255)" stroke="none" paint-order="stroke fill markers" d=" M 406.2489916660612 316.7840240703673 L 398.8458878862187 318.4747621462408 L 399.4250928734647 320.9361955164157 L 406.74847948985155 319.2502245015867 L 406.12265276446817 326.7118558882616 L 408.5848798592227 326.94862620488936 L 409.27638713978837 319.51506803476116 L 416.369887099471 322.5469754218057 L 417.40859611169924 320.1167948800626 L 410.3150961520166 317.0848874930181 L 415.21015896424603 311.4480151818792 L 413.33746941697234 309.83195320642426 L 408.37672604956066 315.44075230101635 L 404.5344182849657 308.98233447324685 L 402.3550399545573 310.26469274846 Z" fill-opacity="1"/></g></g><g><g><path fill="rgb(255,255,255)" stroke="none" paint-order="stroke fill markers" d=" M 391.81325812877606 343.61011209582745 L 384.2272323315769 343.9518040924489 L 384.35762335705994 346.4771022597026 L 391.8643618867986 346.12586666632455 L 389.9162667238213 353.3558408901238 L 392.2966478436821 354.02845383468417 L 394.3043553819251 346.8378293952744 L 400.7424919106323 351.0876061093335 L 402.19843393304143 348.8819482244986 L 395.7602974043342 344.63217151043955 L 401.5831969595889 339.9599332719537 L 400.02916131190636 338.03546044681127 L 394.1466493813858 342.66834890090774 L 391.51928411593724 335.62764996132563 L 389.1459553802564 336.50025718422296 Z" fill-opacity="1"/></g></g><g><g><path fill="rgb(255,255,255)" stroke="none" paint-order="stroke fill markers" d=" M 372.81952979089465 367.4274940958709 L 365.2944030872636 366.40915775132385 L 364.97178927613857 368.9171555547385 L 372.42060696631813 369.9119443837803 L 369.2128567471832 376.67788412430826 L 371.43488448437364 377.76472136333535 L 374.6942629080677 371.04814324059214 L 380.2701090004504 376.3791979613479 L 382.09648885848713 374.46895439266126 L 376.5206427661044 369.1378996719055 L 383.0842262815808 365.5804650873879 L 381.8987925178707 363.40943555261975 L 375.28358079783516 366.9175085193525 L 373.95560371296784 359.5208223249824 L 371.46460531036064 359.95563218143644 Z" fill-opacity="1"/></g></g><g><g><path fill="rgb(255,255,255)" stroke="none" paint-order="stroke fill markers" d=" M 349.8782807092882 387.47065981600906 L 342.6559168631749 385.1250252982972 L 341.8906672887789 387.5351136248836 L 349.0421530099294 389.8439535448648 L 344.6778474660254 395.92839593182725 L 346.67010402078176 397.394525622206 L 351.0763942255638 391.36787016341316 L 355.6107376003914 397.6088584057342 L 357.74885394266806 396.0554259532469 L 353.2145105678404 389.8144377109259 L 360.30781906881657 387.48614565499 L 359.52908800562267 385.13833808617255 L 352.39379484376843 387.40884321393884 L 352.4078882156532 379.8939053450814 L 349.8792828843798 379.87694268854295 Z" fill-opacity="1"/></g></g><g><g><path fill="rgb(255,255,255)" stroke="none" paint-order="stroke fill markers" d=" M 323.72686150556217 403.095405418425 L 317.0393932335613 399.4978633509421 L 315.8561036468649 401.73257997885645 L 322.4804027636465 405.2812629750291 L 317.0998142661171 410.48864902381314 L 318.79826687353534 412.28694855095927 L 324.20984706671595 407.1439174213111 L 327.5569501970514 414.0942486879869 L 329.93808220507924 412.9475559488905 L 326.59097907474376 405.99722468221466 L 333.9860277896047 404.9729083772633 L 333.6390284840401 402.52378324144087 L 326.2129880735279 403.4837446272564 L 327.56869892959634 396.0920913703282 L 325.0837581255472 395.6239013945353 Z" fill-opacity="1"/></g></g><g><g><path fill="rgb(255,255,255)" stroke="none" paint-order="stroke fill markers" d=" M 295.20580031038355 413.79953872337364 L 289.26816834522464 409.0657170682361 L 287.7048706471581 411.0532363663263 L 293.58907273546595 415.7277048473273 L 287.36513782578476 419.8906648856735 L 288.71519682157094 421.96333542313874 L 294.95813436307833 417.8692298748422 L 297.010418600307 425.30551480021023 L 299.55803473214604 424.60241742264117 L 297.5057504949174 417.1661324972731 L 304.96485647330104 417.47871431215765 L 305.0607417685586 415.0069885063424 L 297.5826331583488 414.6255522014082 L 300.2363878362042 407.5947573739595 L 297.8749796014376 406.6903880899622 Z" fill-opacity="1"/></g></g><g><g><path fill="rgb(255,255,255)" stroke="none" paint-order="stroke fill markers" d=" M 265.23178749777287 419.2390200790437 L 260.23483221631585 413.521067759249 L 258.3417720811807 415.19750922193816 L 263.29675404435903 420.8475219246226 L 256.42951511159384 423.83225499160363 L 257.3877884887912 426.1126792029148 L 264.26143022933525 423.19908715693344 L 264.95293346944743 430.8823174248967 L 267.58515124643486 430.6454135370805 L 266.8936480063227 422.96218326911725 L 274.177069444711 424.6016165671141 L 274.71275750850646 422.18673339244776 L 267.4229332623393 420.47615907345124 L 271.2894379031188 414.03219820619347 L 269.1274598412734 412.7207167868969 Z" fill-opacity="1"/></g></g><g><g><path fill="rgb(255,255,255)" stroke="none" paint-order="stroke fill markers" d=" M 234.76821250222721 419.2390200790437 L 230.8725401587267 412.7207167868969 L 228.71056209688123 414.03219820619347 L 232.57706673766074 420.47615907345124 L 225.28724249149363 422.18673339244776 L 225.8229305552891 424.6016165671141 L 233.1063519936774 422.96218326911725 L 232.4148487535652 430.6454135370805 L 235.04706653055263 430.8823174248967 L 235.7385697706648 423.19908715693344 L 242.61221151120884 426.1126792029148 L 243.5704848884062 423.83225499160363 L 236.70324595564102 420.8475219246226 L 241.65822791881934 415.1975092219381 L 239.76516778368418 413.521067759249 Z" fill-opacity="1"/></g></g><g><g><path fill="rgb(255,255,255)" stroke="none" paint-order="stroke fill markers" d=" M 204.7941996896165 413.7995387233737 L 202.12502039856244 406.69038808996225 L 199.76361216379587 407.59475737395957 L 202.41736684165127 414.62555220140825 L 194.93925823144144 415.00698850634245 L 195.03514352669902 417.4787143121577 L 202.49424950508265 417.16613249727317 L 200.44196526785402 424.6024174226412 L 202.98958139969307 425.3055148002103 L 205.0418656369217 417.8692298748423 L 211.28480317842912 421.9633354231388 L 212.6348621742153 419.8906648856736 L 206.41092726453408 415.72770484732735 L 212.29512935284197 411.05323636632636 L 210.73183165477542 409.06571706823615 Z" fill-opacity="1"/></g></g><g><g><path fill="rgb(255,255,255)" stroke="none" paint-order="stroke fill markers" d=" M 176.27313849443792 403.09540541842506 L 174.91624187445282 395.6239013945354 L 172.43130107040372 396.09209137032826 L 173.7870119264721 403.48374462725644 L 166.36097151595996 402.5237832414409 L 166.0139722103954 404.97290837726337 L 173.40902092525627 405.9972246822147 L 170.06191779492082 412.94755594889057 L 172.44304980294865 414.094248687987 L 175.7901529332841 407.14391742131113 L 181.20173312646475 412.2869485509593 L 182.90018573388295 410.4886490238132 L 177.51959723635355 405.28126297502916 L 184.14389635313515 401.7325799788565 L 182.96060676643873 399.49786335094217 Z" fill-opacity="1"/></g></g><g><g><path fill="rgb(255,255,255)" stroke="none" paint-order="stroke fill markers" d=" M 150.1217192907118 387.4706598160091 L 150.12071711562027 379.876942688543 L 147.59211178434686 379.89390534508146 L 147.6062051562316 387.4088432139389 L 140.4709119943774 385.1383380861726 L 139.6921809311835 387.4861456549901 L 146.78548943215966 389.814437710926 L 142.25114605733202 396.055425953247 L 144.38926239960867 397.6088584057343 L 148.9236057744363 391.3678701634132 L 153.32989597921832 397.39452562220606 L 155.32215253397464 395.9283959318273 L 150.95784699007066 389.84395354486486 L 158.10933271122116 387.53511362488365 L 157.34408313682516 385.12502529829726 Z" fill-opacity="1"/></g></g><g><g><path fill="rgb(255,255,255)" stroke="none" paint-order="stroke fill markers" d=" M 127.18047020910532 367.42749409587094 L 128.53539468963936 359.9556321814365 L 126.04439628703217 359.5208223249825 L 124.71641920216483 366.91750851935257 L 118.10120748212934 363.4094355526198 L 116.9157737184192 365.58046508738795 L 123.4793572338956 369.13789967190553 L 117.90351114151287 374.4689543926613 L 119.72989099954958 376.379197961348 L 125.30573709193231 371.0481432405922 L 128.56511551562636 377.7647213633354 L 130.78714325281678 376.6778841243083 L 127.57939303368184 369.91194438378034 L 135.0282107238614 368.91715555473854 L 134.70559691273638 366.4091577513239 Z" fill-opacity="1"/></g></g><g><g><path fill="rgb(255,255,255)" stroke="none" paint-order="stroke fill markers" d=" M 108.18674187122392 343.6101120958275 L 110.8540446197436 336.500257184223 L 108.48071588406272 335.6276499613257 L 105.85335061861413 342.6683489009078 L 99.97083868809361 338.0354604468113 L 98.41680304041105 339.95993327195373 L 104.23970259566575 344.6321715104396 L 97.80156606695856 348.8819482244987 L 99.25750808936769 351.08760610933354 L 105.69564461807488 346.83782939527447 L 107.70335215631792 354.0284538346842 L 110.08373327617863 353.35584089012383 L 108.13563811320141 346.1258666663246 L 115.64237664294006 346.47710225970263 L 115.77276766842309 343.9518040924489 Z" fill-opacity="1"/></g></g><g><g><path fill="rgb(255,255,255)" stroke="none" paint-order="stroke fill markers" d=" M 93.75100833393881 316.78402407036737 L 97.6449600454427 310.26469274846 L 95.46558171503433 308.98233447324685 L 91.62327395043933 315.44075230101635 L 86.66253058302766 309.83195320642426 L 84.78984103575397 311.4480151818792 L 89.68490384798339 317.0848874930181 L 82.59140388830077 320.1167948800626 L 83.630112900529 322.5469754218057 L 90.72361286021162 319.51506803476116 L 91.41512014077726 326.94862620488936 L 93.87734723553184 326.7118558882616 L 93.25152051014844 319.2502245015867 L 100.57490712653534 320.9361955164157 L 101.15411211378131 318.4747621462408 Z" fill-opacity="1"/></g></g><g><g><path fill="rgb(255,255,255)" stroke="none" paint-order="stroke fill markers" d=" M 84.33724595089949 287.8114425612076 L 89.33269181342573 282.0921715018071 L 87.41731090102763 280.44127822437144 L 82.48355557030166 286.10983607734 L 78.6040231395407 279.70539776008764 L 76.47286947557936 280.9611073242639 L 80.28276419832733 287.3814399939417 L 72.76189173292468 289.0980300558904 L 73.34998277266638 291.67462525237096 L 80.87085523806901 289.9580351904222 L 80.2239366479858 297.3956064153289 L 82.68887171288162 297.60228871942536 L 83.40542801097783 290.14882314209325 L 90.31008304245972 293.11534108273514 L 91.3194858666071 290.79688500343053 Z" fill-opacity="1"/></g></g><g><g><path fill="rgb(255,255,255)" stroke="none" paint-order="stroke fill markers" d=" M 80.24802079076635 257.62357017677203 L 86.18440306402677 252.88818145755945 L 84.5945814881441 250.92181424619756 L 78.72795354712412 255.61832001086577 L 76.05432341742844 248.62408638805908 L 73.73320266905822 249.4790840023627 L 76.33547615114381 256.4765222559087 L 68.62895820925367 256.82262237575554 L 68.7475295466086 259.46281833732905 L 76.45404748849874 259.11671821748223 L 74.48949552353832 266.3192528383449 L 76.87791351743431 266.9627448238532 L 78.91382213000483 259.7570055722512 L 85.1778242827008 263.9087241112346 L 86.58498190644208 261.8077624088212 Z" fill-opacity="1"/></g></g><g><g><path fill="rgb(255,255,255)" stroke="none" paint-order="stroke fill markers" d=" M 81.61476391481169 227.1906699741606 L 88.30128238807211 223.5913628848622 L 87.08811832226328 221.3727223996796 L 80.4771760200512 224.94622651647325 L 79.09538086365941 217.5869980116238 L 76.65889576155747 218.01380334923672 L 77.9699087921087 225.3634437636706 L 70.32543920132748 224.32792999879155 L 69.97067985595226 226.9468686548925 L 77.61514944673347 227.98238241977157 L 74.39610642348842 234.71838504761047 L 76.63124162686388 235.77800435264948 L 79.9210667759495 229.05158981522612 L 85.34308586663377 234.25506930266275 L 87.10277108612875 232.43912861493305 Z" fill-opacity="1"/></g></g><g><g><path fill="rgb(255,255,255)" stroke="none" paint-order="stroke fill markers" d=" M 88.39354707446873 197.49088040615894 L 95.61529154231283 195.14333963814454 L 94.81777707784767 192.7437348098384 L 87.67500153953804 195.07938191615474 L 87.62945338972142 187.59169018860183 L 85.1559145698159 187.57658537479654 L 85.13353011132574 195.0422044598941 L 77.7968084141917 192.65835907471595 L 76.98012064334362 195.17186558206743 L 84.31684234047766 197.55571096724557 L 79.94677095035252 203.60868093520054 L 81.9567842786956 205.05037052344858 L 86.39478827712755 199.01947319794897 L 90.80055615097335 205.1074695216754 L 92.85621123539366 203.6349156764941 Z" fill-opacity="1"/></g></g><g><g><path fill="rgb(255,255,255)" stroke="none" paint-order="stroke fill markers" d=" M 100.36649460138472 169.4787771465508 L 107.89135225454484 168.45845459166736 L 107.53512016250835 165.95501069382092 L 100.09008607099773 166.97773116988614 L 101.38224888276851 159.60223679264655 L 98.95115791796573 159.145707308567 L 97.59609542534804 166.48735392420141 L 90.80292989388178 162.8317956708383 L 89.55056271448885 165.15908386217396 L 96.34372824595512 168.81464211553708 L 90.96308617913519 173.99003198843775 L 92.68337415022847 175.76745477030238 L 98.1269158978953 170.62591265900693 L 101.37482755035936 177.40275260795852 L 103.66038205389307 176.3209146975311 Z" fill-opacity="1"/></g></g><g><g><path fill="rgb(255,255,255)" stroke="none" paint-order="stroke fill markers" d=" M 117.14878611067053 144.05469224253537 L 124.73490183270063 144.39438190722103 L 124.83140170563958 141.8675616865516 L 117.32339858242358 141.5444844547677 L 119.91174117981636 134.5182418857029 L 117.60123533403339 133.6349609646012 L 114.95704763075003 140.61666854781893 L 108.92577619456809 135.80689007633728 L 107.27798171822714 137.8731589942885 L 113.30925315440909 142.68293746577015 L 107.09097867412902 146.81440595477656 L 108.4662498171239 148.8704340995803 L 114.74036940329454 144.78350059642096 L 116.72603428147605 152.031370958636 L 119.16802860181909 151.37502014354274 Z" fill-opacity="1"/></g></g><g><g><path fill="rgb(255,255,255)" stroke="none" paint-order="stroke fill markers" d=" M 138.2010249447023 122.03577670193445 L 145.60457473441951 123.72456068086863 L 146.1507049870173 121.25557821834309 L 138.8210462300816 119.59708724676847 L 142.6223771523208 113.14592570325985 L 140.50671798453163 111.86428272070611 L 136.65839143901104 118.26165344521448 L 131.58286412461896 112.45224499318662 L 129.59260382160943 114.19108305459872 L 134.6681311360015 120.00049150662657 L 127.81208470047078 122.95524981511842 L 128.79813666925452 125.22380088658173 L 135.70117872806665 122.32283339709014 L 136.36077592897036 129.80878165555936 L 138.88072235938728 129.59901359104464 Z" fill-opacity="1"/></g></g><g><g><path fill="rgb(255,255,255)" stroke="none" paint-order="stroke fill markers" d=" M 162.84657482551438 104.12973658744698 L 169.82960250101615 107.11333597401065 L 170.80781005759678 104.78154639746012 L 163.89207693025267 101.84094695053209 L 168.784218273752 96.17221207262142 L 166.93140481037955 94.53340008861431 L 162.00262780420834 100.14081719555341 L 158.0459762356485 93.51849793062473 L 155.77721870970072 94.8740174494832 L 159.73387027826055 101.49633671441188 L 152.46041086109096 103.17941647917101 L 153.0255511340606 105.58757737928698 L 160.3356462139021 103.96581538549941 L 159.64797574077255 111.4492370037369 L 162.16488112957092 111.69279380799196 Z" fill-opacity="1"/></g></g><g><g><path fill="rgb(255,255,255)" stroke="none" paint-order="stroke fill markers" d=" M 190.29330750151158 90.91208676149151 L 196.63137280765295 95.09460621648675 L 198.0102172724761 92.97495516150441 L 191.73068712772056 88.84676052498052 L 197.55640144443265 84.14265011589447 L 196.02598463468968 82.19934189601895 L 190.17517211625747 86.8365783857736 L 187.46456633048712 79.61419509798134 L 184.99023131522495 80.5428285616249 L 187.70083710099533 87.76521184941716 L 180.24373967247698 88.12251750196158 L 180.36980417626035 90.5928879579591 L 187.85199980649878 90.3024562247461 L 185.83916395415952 97.54282787456188 L 188.27213289122673 98.23188143149875 Z" fill-opacity="1"/></g></g><g><g><path fill="rgb(255,255,255)" stroke="none" paint-order="stroke fill markers" d=" M 219.65906240124042 82.8076533649927 L 225.1484547041045 88.05466327174751 L 226.88361888155373 86.2152780672952 L 221.4421209850538 81.03217181348319 L 228.01416502342585 77.44387985232468 L 226.85533372280867 75.25853492172689 L 220.27053562052242 78.7765461979855 L 218.8930967177901 71.18623222879607 L 216.2927113764937 71.65813259362103 L 217.67015027922605 79.24844656281047 L 210.26909208643175 78.26849400547533 L 209.952029004151 80.72167427827108 L 217.36584126085947 81.77190752050612 L 214.09253422977156 88.53651769967747 L 216.36336909161673 89.64892126102106 Z" fill-opacity="1"/></g></g><g><g><path fill="rgb(255,255,255)" stroke="none" paint-order="stroke fill markers" d=" M 249.99999999999997 80.07691955566406 L 254.4642857142857 86.2197766985212 L 256.49999999999994 84.7197766985212 L 252.07142857142856 78.64834812709263 L 259.1785714285714 76.29120526994977 L 258.4285714285714 73.93406241280692 L 251.32142857142856 76.2197766985212 L 251.32142857142853 68.5054909842355 L 248.6785714285714 68.5054909842355 L 248.6785714285714 76.2197766985212 L 241.57142857142853 73.93406241280692 L 240.82142857142853 76.29120526994978 L 247.9285714285714 78.64834812709263 L 243.49999999999997 84.7197766985212 L 245.53571428571425 86.2197766985212 Z" fill-opacity="1"/></g></g><g><g><path fill="rgb(255,255,255)" stroke="none" paint-order="stroke fill markers" d=" M 280.3409375987595 82.8076533649927 L 283.6366309083832 89.64892126102104 L 285.9074657702283 88.53651769967747 L 282.63415873914045 81.77190752050612 L 290.0479709958489 80.72167427827108 L 289.73090791356816 78.26849400547533 L 282.32984972077384 79.24844656281047 L 283.7072886235062 71.65813259362103 L 281.1069032822098 71.18623222879607 L 279.72946437947746 78.7765461979855 L 273.1446662771912 75.25853492172689 L 271.98583497657404 77.44387985232468 L 278.5578790149461 81.03217181348319 L 273.11638111844616 86.2152780672952 L 274.85154529589545 88.05466327174751 Z" fill-opacity="1"/></g></g><g><g><path fill="rgb(255,255,255)" stroke="none" paint-order="stroke fill markers" d=" M 309.70669249848834 90.91208676149148 L 311.72786710877324 98.23188143149872 L 314.1608360458404 97.54282787456184 L 312.14800019350116 90.30245622474607 L 319.6301958237396 90.59288795795908 L 319.75626032752297 88.12251750196155 L 312.2991628990046 87.76521184941711 L 315.009768684775 80.54282856162486 L 312.5354336695128 79.61419509798131 L 309.82482788374244 86.83657838577358 L 303.97401536531027 82.19934189601892 L 302.4435985555673 84.14265011589444 L 308.2693128722794 88.8467605249805 L 301.98978272752385 92.97495516150438 L 303.368627192347 95.09460621648672 Z" fill-opacity="1"/></g></g><g><g><path fill="rgb(255,255,255)" stroke="none" paint-order="stroke fill markers" d=" M 337.1534251744855 104.12973658744696 L 337.83511887042897 111.69279380799193 L 340.35202425922733 111.44923700373687 L 339.6643537860978 103.96581538549938 L 346.9744488659393 105.58757737928696 L 347.5395891389089 103.17941647917098 L 340.26612972173933 101.49633671441185 L 344.22278129029917 94.87401744948316 L 341.95402376435135 93.5184979306247 L 337.9973721957915 100.14081719555338 L 333.06859518962034 94.53340008861429 L 331.2157817262479 96.17221207262139 L 336.1079230697472 101.84094695053206 L 329.1921899424031 104.78154639746009 L 330.17039749898373 107.11333597401062 Z" fill-opacity="1"/></g></g><g><g><path fill="rgb(255,255,255)" stroke="none" paint-order="stroke fill markers" d=" M 361.79897505529766 122.0357767019344 L 361.11927764061267 129.59901359104458 L 363.6392240710296 129.8087816555593 L 364.29882127193326 122.32283339709006 L 371.2018633307454 125.22380088658166 L 372.18791529952915 122.95524981511836 L 365.33186886399847 120.00049150662652 L 370.4073961783905 114.19108305459866 L 368.41713587538095 112.45224499318655 L 363.3416085609889 118.26165344521442 L 359.4932820154683 111.86428272070606 L 357.3776228476791 113.14592570325979 L 361.17895376991834 119.59708724676841 L 353.8492950129826 121.25557821834303 L 354.3954252655804 123.72456068086858 Z" fill-opacity="1"/></g></g><g><g><path fill="rgb(255,255,255)" stroke="none" paint-order="stroke fill markers" d=" M 382.8512138893294 144.0546922425353 L 380.8319713981809 151.37502014354268 L 383.2739657185239 152.03137095863593 L 385.2596305967054 144.7835005964209 L 391.5337501828761 148.87043409958025 L 392.9090213258709 146.8144059547765 L 386.69074684559087 142.6829374657701 L 392.7220182817728 137.87315899428845 L 391.07422380543187 135.80689007633723 L 385.0429523692499 140.61666854781888 L 382.39876466596655 133.63496096460113 L 380.08825882018357 134.51824188570285 L 382.67660141757636 141.54448445476763 L 375.1685982943604 141.86756168655154 L 375.2650981672993 144.39438190722097 Z" fill-opacity="1"/></g></g><g><g><path fill="rgb(255,255,255)" stroke="none" paint-order="stroke fill markers" d=" M 399.6335053986153 169.47877714655075 L 396.3396179461069 176.32091469753104 L 398.6251724496406 177.40275260795846 L 401.87308410210466 170.62591265900684 L 407.3166258497715 175.76745477030232 L 409.0369138208648 173.9900319884377 L 403.65627175404484 168.81464211553703 L 410.4494372855111 165.15908386217387 L 409.1970701061182 162.83179567083823 L 402.4039045746519 166.48735392420136 L 401.04884208203424 159.14570730856695 L 398.6177511172315 159.6022367926465 L 399.90991392900224 166.97773116988608 L 392.46487983749165 165.95501069382087 L 392.10864774545513 168.4584545916673 Z" fill-opacity="1"/></g></g></g></g></svg>