<svg version="1.1" xmlns="http://www.w3.org/2000/svg" xmlns:xlink="http://www.w3.org/1999/xlink" width="200" height="200" viewBox="0 0 200 200"><defs/><g><g/><g><g><g><path fill="rgb(255,255,255)" stroke="none" paint-order="stroke fill markers" d=" M 103.22222222222223 23.333335876464844 L 105.42222222222222 23.333335876464844 L 105.42222222222222 7.822224765353729 L 102.55555555555556 7.822224765353729 L 100.15555555555555 13.977780320909286 L 100 13.977780320909286 L 97.62222222222222 7.822224765353729 L 94.57777777777778 7.822224765353729 L 94.57777777777778 23.333335876464844 L 96.77777777777777 23.333335876464844 L 96.77777777777777 15.91111365424262 L 96.71111111111111 11.244446987575952 L 96.88888888888889 11.244446987575952 L 100 19.222224765353733 L 103.11111111111111 11.244446987575952 L 103.28888888888889 11.244446987575952 L 103.22222222222223 15.91111365424262 Z" fill-opacity="1"/></g></g><g><g><path fill="rgb(255,255,255)" stroke="none" paint-order="stroke fill markers" d=" M 116.02892739113634 24.989969326221942 L 118.4122235057419 25.422473804734196 L 120.45967589943294 14.14008118880324 L 118.07637978482737 13.707576710290986 L 116.68760393639353 21.36036239939144 C 116.449528076662 22.672268517522948 115.1100123675357 23.084152338870428 113.88556665727963 22.861948203121013 C 112.35500951945954 22.584193033434246 111.70868591742831 21.540910405876616 112.03405625906139 19.74797204443022 L 113.28792245364737 12.838599822270954 L 110.9046263390418 12.406095343758702 L 109.58727324852741 19.665309197419703 C 109.09128187408675 22.39844694352701 110.34011591122454 24.228624353002726 112.61408651598583 24.641289176537352 C 114.47262018333879 24.978563311157 115.57347929182501 24.139421722401572 116.26877980889826 23.046000697984773 L 116.37810531874256 23.0658403529624 Z" fill-opacity="1"/></g></g><g><g><path fill="rgb(255,255,255)" stroke="none" paint-order="stroke fill markers" d=" M 126.86584088556974 28.479466593516513 C 129.79937681357424 29.58044104230472 132.08055043117741 28.941228553875654 132.89261669127652 26.777485741730484 C 133.72029961022366 24.572132490890212 132.06646309281703 23.286836700996133 130.45413505940633 22.39689105605509 L 128.84961535541962 21.4861401917665 C 128.00184090001918 21.025550710447916 127.34655295659573 20.494788219012246 127.69011945125305 19.579358567720057 C 128.0414942753344 18.64312369708032 129.019492516718 18.44051495085226 130.49666309039404 18.994906339958376 C 132.18188585754555 19.627381023304796 132.91767295473545 20.63933430600824 133.2373556649744 21.495121000231087 L 135.00620712831284 20.639895056853724 C 134.4265866196035 19.21183738719929 133.22527636734347 18.048906076514736 131.2279753099787 17.299306451807873 C 128.48168635610213 16.268606967835936 126.21356060577209 16.746566261984093 125.39368601624896 18.931114293476814 C 124.5660030973018 21.13646754431708 126.23283650463196 22.450376882982738 127.82435931869513 23.33251419849975 L 129.42887902268183 24.243265062788346 C 130.29745869742982 24.71166287353096 130.9319414215057 25.2346170355426 130.5883749268484 26.150046686834788 C 130.19015012622287 27.211112873559824 129.01190802078779 27.314833106200034 127.55554266645932 26.768250046517945 C 125.95354077669799 26.167008680867646 125.02007860703156 25.175809640162164 124.46645187816928 23.804979068050883 L 122.60400241644166 24.53013415749387 C 123.15495839902981 26.161055460124313 124.55646153799172 27.6127420274492 126.86584088556974 28.479466593516513 Z" fill-opacity="1"/></g></g><g><g><path fill="rgb(255,255,255)" stroke="none" paint-order="stroke fill markers" d=" M 146.88536375481277 22.91357273544623 C 147.915502307135 23.52905186833332 148.5933769090148 23.26101446643264 148.96950304577913 22.63148535112461 L 149.2088560419019 22.230875914110406 C 149.58498217866622 21.601346798802368 149.49979118623324 20.87739892809644 148.4505759940532 20.25052203348922 C 147.42043744173094 19.635042900602134 146.74256283985116 19.90308030250281 146.3664367030868 20.532609417810846 L 146.12708370696407 20.93321885482505 C 145.75095757019974 21.56274797013309 145.8361485626327 22.28669584083901 146.88536375481277 22.91357273544623 Z M 135.52602529837645 31.917440091365656 L 144.1105132343951 37.04643286542472 L 145.11351626576666 35.367688557936624 L 141.96587068922648 33.48705787411497 L 146.84411270544265 25.32225601496833 L 141.40727034596418 22.07389392473092 L 140.40426731459263 23.752638232219013 L 143.7617559295688 25.758644294962117 L 139.88651694472418 32.24470184662066 L 136.529028329748 30.23869578387756 Z" fill-opacity="1"/></g></g><g><g><path fill="rgb(255,255,255)" stroke="none" paint-order="stroke fill markers" d=" M 150.58448049643752 42.74313826343622 C 152.3918520148462 44.32219120569153 154.25875564251658 44.44830786950879 155.86371001242276 43.72588192292547 L 155.24133846332847 41.73620192493982 C 154.10865731930463 42.22204734444266 152.9881278436555 42.18735126889747 151.9170928697837 41.251616192005436 C 150.49462454511018 40.0088430430082 150.52685142845363 38.384506993777784 151.7111411351451 37.02897835497129 L 152.96853514471877 35.58977510883105 C 154.16744571198672 34.2175115485578 155.77486927409464 33.99889217555575 157.14713283436788 35.19780274282367 C 158.15122812237271 36.075054377409955 158.34852932081594 37.13269472331701 157.94795659954838 38.19914644409674 L 160.042984510738 38.672113205623624 C 160.56016898530564 36.99933132157183 160.23691196172248 35.241471031918884 158.4630102862473 33.69165981081645 C 155.9193022233018 31.46928900319786 152.8444990878351 31.881336584173987 150.4320570927228 34.64259862618723 C 148.0196150976105 37.403860668200466 148.00730259055848 40.49152573466476 150.58448049643752 42.74313826343622 Z" fill-opacity="1"/></g></g><g><g><path fill="rgb(255,255,255)" stroke="none" paint-order="stroke fill markers" d="" fill-opacity="1"/></g></g><g><g><path fill="rgb(255,255,255)" stroke="none" paint-order="stroke fill markers" d="" fill-opacity="1"/></g></g><g><g><path fill="rgb(255,255,255)" stroke="none" paint-order="stroke fill markers" d="" fill-opacity="1"/></g></g><g><g><path fill="rgb(255,255,255)" stroke="none" paint-order="stroke fill markers" d="" fill-opacity="1"/></g></g><g><g><path fill="rgb(255,255,255)" stroke="none" paint-order="stroke fill markers" d="" fill-opacity="1"/></g></g><g><g><path fill="rgb(255,255,255)" stroke="none" paint-order="stroke fill markers" d=" M 174.5141594691823 116.8706084000715 C 173.7031942876526 120.42367901335636 175.121347985243 122.79879706705874 177.91614133349756 123.43669041106685 C 180.0609827402976 123.92623646577074 181.88789252053607 123.11235646548266 183.00924762406225 120.49629123317344 L 183.65681677897626 118.95736026961738 C 184.38538991432713 117.16339343912297 185.22701927451618 116.67167860625958 186.46192796327983 116.95353845593758 C 187.93515236391013 117.28979231169379 188.4925737596993 118.44273697104066 188.08709116893445 120.21927227768309 C 187.70633312638697 121.88748226074978 186.78252572840012 122.83910836227481 185.576361120336 123.42997006820733 L 186.74677197535345 125.2926682733111 C 188.34902671529474 124.56427447452265 189.55800212666145 123.06230599319282 190.10194218744354 120.67914887452615 C 190.83378881467766 117.4727192966837 189.75050090710147 115.12844475820312 186.9123774294166 114.48066159490807 C 184.8975264109075 114.02078499806503 182.95357554516724 114.64839517784273 181.8242160484954 117.39939570808633 L 181.1884221390096 118.98660171071617 C 180.46973882294566 120.73723841178027 179.6448296178283 121.2555632190023 178.34492573491917 120.95886864039387 C 176.74171094599797 120.59294532677683 176.0740788004918 119.3236709507085 176.50923084911747 117.41714525577515 C 176.88009907237802 115.79226540213878 177.82180068279752 114.66237387324904 179.44877997095617 113.82565475088485 L 178.3099239999408 111.92457132599425 C 176.53128925877607 112.72667608085413 175.1124935360426 114.24913556953815 174.5141594691823 116.8706084000715 Z" fill-opacity="1"/></g></g><g><g><path fill="rgb(255,255,255)" stroke="none" paint-order="stroke fill markers" d=" M 170.25191948445078 130.0271114188454 C 168.92436826641975 133.13307189501919 170.25768133695502 135.95048769881802 173.62928316964368 137.39157948154906 C 177.00088500233232 138.83267126428012 179.95870153703717 137.84937227486628 181.28625275506818 134.74341179869248 C 182.6138039730992 131.6374513225187 181.28049090256394 128.8200355187199 177.9088890698753 127.37894373598883 C 174.53728723718663 125.93785195325778 171.5794707024818 126.92115094267162 170.25191948445078 130.0271114188454 Z M 172.0092392275491 130.77822592378402 C 172.69921650534155 129.1639438341937 174.15464233869767 128.52933899815739 176.11630158680742 129.3677923990191 L 177.7101497258966 130.04903578721922 C 179.67180897400638 130.88748918808093 180.2189102897623 132.37801520416355 179.52893301196985 133.9922972937539 C 178.83895573417743 135.6065793833442 177.38352990082132 136.2411842193805 175.42187065271153 135.4027308185188 L 173.82802251362236 134.72148743031866 C 171.8663632655126 133.88303402945695 171.31926194975665 132.39250801337434 172.0092392275491 130.77822592378402 Z" fill-opacity="1"/></g></g><g><g><path fill="rgb(255,255,255)" stroke="none" paint-order="stroke fill markers" d=" M 162.67403672919534 144.2198635802839 L 161.3396418185669 146.24138546151997 L 170.9094151279045 152.5583375155041 L 172.24381003853293 150.53681563426804 L 165.75268473181168 146.25206133408503 C 164.6399203935166 145.5175320254822 164.7876449847033 144.1239294772488 165.47320567273258 143.0853494281734 C 166.33015653276917 141.78712436682915 167.54350523757586 141.60284805242577 169.06428316657912 142.60670477418293 L 174.92484201493315 146.47522579949103 L 176.2592369255616 144.45370391825497 L 170.10194092032887 140.3893084106528 C 167.78368188221413 138.8590390177303 165.60995988852835 139.28807106389456 164.33677575361685 141.21686258360603 C 163.29619256642954 142.79327872952405 163.63514137643378 144.13535290292606 164.367301867745 145.20444287137678 L 164.30609109202808 145.29717323290137 Z" fill-opacity="1"/></g></g><g><g><path fill="rgb(255,255,255)" stroke="none" paint-order="stroke fill markers" d=" M 157.05746446508417 151.26282243309572 L 162.67920229485276 156.63775414743802 C 163.64292877995595 157.55917101275384 163.24874084012774 158.90400055041945 162.38875176583295 159.80347860318244 C 161.3137654229645 160.92782616913615 160.08701192453256 160.8924893103173 158.7699190615582 159.63321959438568 L 153.69429290668143 154.78042410372237 L 152.02038560135767 156.53119388499317 L 157.35300548559533 161.6297005397407 C 159.36076899622697 163.54931900914866 161.5761650131342 163.51531473381866 163.1732875796816 161.84485549297312 C 164.47862813887903 160.47957630574362 164.38476297268767 159.09854816942925 163.8552619867106 157.91590661277385 L 163.9320467254869 157.83559607234858 L 165.3455122369716 159.1870074748118 L 167.0194195422953 157.436237693541 L 158.7313717704079 149.51205265182494 Z" fill-opacity="1"/></g></g><g><g><path fill="rgb(255,255,255)" stroke="none" paint-order="stroke fill markers" d=" M 143.04998110605231 163.48756636145953 L 141.0903621641219 164.91131286145685 L 150.75616409070923 178.2151478800671 L 152.71578303263965 176.79140138006977 L 148.6404719500785 171.1822168857368 L 148.74834088266184 171.10384551876447 C 150.09752300429255 171.82663432059718 151.492782766645 171.85670950218883 152.85912257936715 170.86400552053934 C 155.03447938646423 169.28351628659735 155.22201932197635 166.5927200609155 152.91006399629262 163.41058654970738 C 150.5981086706089 160.22845303849925 147.98105635895456 159.57531235409797 145.80569955185746 161.15580158803996 C 144.43935973913534 162.14850556968946 144.03680395843236 163.48477020081995 144.3072967542298 164.99127267237597 L 144.19942782164648 165.0696440393483 Z M 146.1591911675721 163.34364267365177 C 147.63339991287754 162.27256732502994 149.19677741535995 162.64745683242717 150.29397655297257 164.15762188859375 L 151.3911756905852 165.6677869447603 C 152.4883748281978 167.1779520009269 152.3618057202081 168.78065959089062 150.88759697490264 169.85173493951245 C 149.75497318277772 170.67463429272192 148.36617216567535 170.80467562169514 147.5432728124659 169.67205182957022 L 145.2966269592591 166.57980909551486 C 144.47372760604964 165.44718530338994 145.02656737544714 164.16654202686124 146.1591911675721 163.34364267365177 Z" fill-opacity="1"/></g></g><g><g><path fill="rgb(255,255,255)" stroke="none" paint-order="stroke fill markers" d="" fill-opacity="1"/></g></g><g><g><path fill="rgb(255,255,255)" stroke="none" paint-order="stroke fill markers" d="" fill-opacity="1"/></g></g><g><g><path fill="rgb(255,255,255)" stroke="none" paint-order="stroke fill markers" d="" fill-opacity="1"/></g></g><g><g><path fill="rgb(255,255,255)" stroke="none" paint-order="stroke fill markers" d="" fill-opacity="1"/></g></g><g><g><path fill="rgb(255,255,255)" stroke="none" paint-order="stroke fill markers" d="" fill-opacity="1"/></g></g><g><g><path fill="rgb(255,255,255)" stroke="none" paint-order="stroke fill markers" d=" M 68.8178202657851 170.0770311116415 L 66.13738294412553 175.64301656223867 L 63.154174914848625 174.2063792927161 C 60.511332902334864 172.93365365797126 58.278412313750835 173.8315202463404 57.02497040074456 176.43431919805852 C 55.77152848773828 179.0371181497766 56.46175133723766 181.3426964250605 59.10459334975142 182.61542205980535 L 64.33021278358545 185.1319477466872 L 71.06023167034223 171.15691952900076 Z M 62.98449443987127 182.19005700232958 L 60.34165242735751 180.91733136758475 C 58.9401452995093 180.24240110673523 58.55831095293068 179.29391039484696 59.17539004856454 178.01253244938573 L 59.58999006594354 177.15160664227898 C 60.2070691615774 175.87022869681775 61.196340742920604 175.55736299364264 62.59784787076881 176.23229325449216 L 65.24068988328257 177.50501888923702 Z" fill-opacity="1"/></g></g><g><g><path fill="rgb(255,255,255)" stroke="none" paint-order="stroke fill markers" d=" M 58.96357230216978 164.950498544943 L 51.89815721796191 159.8171740082554 L 50.748710502367736 161.3992516861442 L 53.39149935065923 163.31935017696628 L 50.87055371304929 166.78913417506328 C 49.93009730938134 168.08356136606318 48.31447222891737 168.53036349518266 46.71441639559803 167.3678548850931 L 44.88064454168148 166.03554164656347 L 43.522207514161096 167.90526981134113 L 44.63685315085547 168.7151072700552 C 46.52455947106368 170.08660619207097 48.18259960763887 169.5058113413774 49.48261911991791 168.47262204028527 L 49.590488052501236 168.5509934072576 L 47.801008506633046 171.01400070124356 L 52.22363474254942 174.22722674710906 L 53.373081458143595 172.64514906922028 L 50.91007416415764 170.85566952335208 L 55.35111829258966 164.7430966769636 L 57.814125586575614 166.53257622283178 Z" fill-opacity="1"/></g></g><g><g><path fill="rgb(255,255,255)" stroke="none" paint-order="stroke fill markers" d=" M 44.778474241749684 152.79718462513327 C 42.44421818294961 150.3557441962052 39.329500692779504 150.4744476585979 36.67925285874574 153.00834403821642 C 34.02900502471197 155.54224041783493 33.770679817020905 158.64849598404757 36.104935875820985 161.08993641297565 C 38.439191934621064 163.53137684190372 41.553909424791165 163.41267337951098 44.204157258824935 160.87877699989247 C 46.854405092858705 158.34488062027395 47.112730300549764 155.23862505406134 44.778474241749684 152.79718462513327 Z M 43.397132946435114 154.11788213208592 C 44.61033181910094 155.38678867080512 44.62184980620705 156.9745087312358 43.07988743004195 158.44877571574114 L 41.8270429994078 159.6466176406517 C 40.285080623242706 161.120884625157 38.69947604380138 161.03814544474216 37.486277171135555 159.76923890602296 C 36.27307829846973 158.50033236730377 36.261560311363624 156.9126123068731 37.80352268752873 155.43834532236778 L 39.05636711816287 154.2405033974572 C 40.59832949432797 152.76623641295188 42.18393407376929 152.84897559336673 43.397132946435114 154.11788213208592 Z" fill-opacity="1"/></g></g><g><g><path fill="rgb(255,255,255)" stroke="none" paint-order="stroke fill markers" d=" M 34.644931294404444 140.15827374550696 L 33.31053638377602 138.1367518642709 L 19.58644287813682 147.19594667037214 L 20.920837788765247 149.2174685516082 L 26.70721234789961 145.39791614687363 L 26.78066527875989 145.50919258070311 C 25.998073450156383 146.82458836874022 25.90543045973851 148.21709387943454 26.835834250635394 149.6265953746083 C 28.31713502298438 151.87067012350337 30.99680784852539 152.17874333495263 34.279462646495844 150.01188187457433 C 37.5621174444663 147.84502041419609 38.33201406764002 145.25990634607814 36.85071329529103 143.01583159718308 C 35.92030950439414 141.6063301020093 34.60345099963826 141.14422838221188 33.08632986243195 141.3468598319539 L 33.012876931571675 141.2355833981244 Z M 34.64921587870124 143.2708101512226 C 35.6530726004584 144.79158808022586 35.20841991542679 146.3365720114429 33.650549841813685 147.36491304348684 L 32.09267976820059 148.39325407553076 C 30.53480969458749 149.4215951075747 28.939394426078145 149.22324824212944 27.93553770432098 147.70247031312618 C 27.164281930288038 146.53406775791635 27.096679866302885 145.14083088886264 28.26508242151271 144.3695751148297 L 31.455006857958576 142.26392443016832 C 32.6234094131684 141.49266865613538 33.8779601046683 142.10240759601277 34.64921587870124 143.2708101512226 Z" fill-opacity="1"/></g></g><g><g><path fill="rgb(255,255,255)" stroke="none" paint-order="stroke fill markers" d=" M 28.568346923158405 127.9454853903308 L 27.61635295759668 125.71818478570619 L 17.07243449900671 130.22487181533785 L 18.024428464568437 132.45217241996247 L 25.17631113996861 129.39531106265417 C 26.40234817003721 128.8712776871156 27.484030551739696 129.76229611700265 27.973128368909023 130.9065973450667 C 28.58450064037068 132.33697388014673 28.069862584739255 133.4511195219737 26.3942786436455 134.1672984685431 L 19.9371502852842 136.92720757971287 L 20.889144250845927 139.1545081843375 L 27.67321581722552 136.25485683969077 C 30.227459629868438 135.1631206406521 31.066897843987956 133.11263794451807 30.158573326387778 130.98750709239917 C 29.416192711041475 129.250621299802 28.109407625111885 128.7941543000002 26.813828727019338 128.81623742695976 L 26.770159279057793 128.71406767445404 Z" fill-opacity="1"/></g></g><g><g><path fill="rgb(255,255,255)" stroke="none" paint-order="stroke fill markers" d=" M 25.421556705452566 116.58896255877455 C 24.88750646395741 114.24913556953818 23.451279217371944 113.04976662544017 21.728212539646393 112.69085298417028 L 21.062217140081856 114.66635873391262 C 22.264148207282805 114.93907480490257 23.15028175426313 115.62577522020233 23.466755971445444 117.01233936197204 C 23.887073291140705 118.85386986275992 22.906240420335475 120.14904284440658 21.151370178408193 120.54958052552794 L 19.288174612905152 120.97484275486667 C 17.51163930626272 121.38032534563152 16.082705084042644 120.61237226969529 15.677222493277801 118.83583696305286 C 15.380527914669383 117.53593308014375 15.842573289671932 116.56431333166378 16.793488022416685 115.93698650390432 L 15.37657772582445 114.32292184671621 C 13.97493017492469 115.37223741193117 13.203206246705946 116.98438197115941 13.727366668914154 119.28087883096548 C 14.47899293472215 122.57396866766854 17.20875641701265 124.04793910889775 20.78349209501267 123.2320290177246 C 24.35822777301269 122.41611892655143 26.18307279054751 119.9253825249079 25.421556705452566 116.58896255877455 Z" fill-opacity="1"/></g></g><g><g><path fill="rgb(255,255,255)" stroke="none" paint-order="stroke fill markers" d=" M 23.18321896529402 98.37807200896634 L 21.22963252405767 98.46580767720735 L 21.44897169466019 103.34977378029822 L 13.901024080792478 103.68875249850211 L 13.68168491018996 98.80478639541124 L 11.728098468953611 98.89252206365225 L 11.94743763955613 103.77648816674312 L 7.907065681544589 103.9579414806052 L 8.008759297005756 106.22232576476551 L 10.87253942109086 106.09371325109403 C 11.760533258016473 106.05383340189358 12.064086198467468 106.37387013975054 12.101972055207904 107.21746428482987 L 12.214632629199198 109.72604687414473 L 14.168219070435546 109.63831120590372 L 14.009696669863725 106.1085357041244 L 20.603050909036405 105.812427823811 C 22.312439045118207 105.73565911410012 23.469356883307306 104.74942778890761 23.379627222606274 102.75144165582498 Z" fill-opacity="1"/></g></g><g><g><path fill="rgb(255,255,255)" stroke="none" paint-order="stroke fill markers" d=" M 10.689767669634444 87.18450141701163 C 10.85084758861563 85.99536170289011 10.337958066624227 85.47738258852083 9.611261574661075 85.37894486025455 L 9.148818352502705 85.31630266953964 C 8.422121860539551 85.21786494127336 7.789913880043564 85.58073005958668 7.625850999599763 86.79189087952527 C 7.464771080618576 87.98103059364679 7.977660602609983 88.49900970801608 8.704357094573135 88.59744743628237 L 9.166800316731505 88.66008962699726 C 9.893496808694657 88.75852735526355 10.525704789190643 88.39566223695022 10.689767669634444 87.18450141701163 Z M 23.433578120180268 94.09098335294858 L 24.77591077835682 84.18148573526923 L 22.83805346645508 83.91898512655915 L 22.345864825123677 87.55246758637492 L 12.920831535419763 86.27576008037587 L 12.070687518574612 92.55177523823947 L 14.008544830476351 92.81427584694956 L 14.533546047896515 88.93856122314607 L 22.02072202569869 89.95276812043502 L 21.495720808278527 93.8284827442385 Z" fill-opacity="1"/></g></g><g><g><path fill="rgb(255,255,255)" stroke="none" paint-order="stroke fill markers" d=" M 27.339284573712057 76.39110241562489 C 28.383075310267433 73.17864484947236 26.802578560620297 70.4920883955875 23.315371334204734 69.35902608287937 C 19.82816410778917 68.22596377017122 16.970397114725586 69.470440916973 15.92660637817021 72.68289848312551 C 14.882815641614831 75.89535604927804 16.463312391261965 78.5819125031629 19.95051961767753 79.71497481587105 C 23.437726844093095 80.84803712857918 26.295493837156677 79.60355998177741 27.339284573712057 76.39110241562489 Z M 25.52170989812576 75.80053660415277 C 24.979213396889744 77.47016915498203 23.586532218979524 78.2326826243815 21.557611650883196 77.57344636971494 L 19.90911368930493 77.03781691279836 C 17.880193121208602 76.37858065813181 17.201684552520483 74.94309684542691 17.744181053756503 73.27346429459764 C 18.286677554992522 71.60383174376837 19.67935873290274 70.84131827436892 21.708279300999067 71.50055452903547 L 23.356777262577335 72.03618398595204 C 25.385697830673664 72.6954202406186 26.06420639936178 74.13090405332349 25.52170989812576 75.80053660415277 Z" fill-opacity="1"/></g></g><g><g><path fill="rgb(255,255,255)" stroke="none" paint-order="stroke fill markers" d=" M 31.360923755240083 65.76393090237313 L 24.51184739635434 62.07828574980537 C 23.33772002054536 61.44646086650803 23.359928346648523 60.04522662215927 23.94963157105937 58.949374404737554 C 24.68676060157292 57.579559132960405 25.878706319742413 57.28726092146471 27.48334706668136 58.150754928637724 L 33.66708457927535 61.47836598067034 L 34.81489978393216 59.345367914617356 L 28.318061637789118 55.84927022703879 C 25.871962938187067 54.53296838683601 23.745449846299547 55.15512421337798 22.65028671525084 57.19027833144689 C 21.755201463912954 58.853625447176285 22.213088367058376 60.1599136874372 23.038133881410776 61.159069453534755 L 22.985481807802664 61.25691340151884 L 21.26342832328282 60.33023690601608 L 20.115613118626 62.463234972069074 L 30.213108550583264 67.89692896842612 Z" fill-opacity="1"/></g></g><g><g><path fill="rgb(255,255,255)" stroke="none" paint-order="stroke fill markers" d="" fill-opacity="1"/></g></g><g><g><path fill="rgb(255,255,255)" stroke="none" paint-order="stroke fill markers" d="" fill-opacity="1"/></g></g><g><g><path fill="rgb(255,255,255)" stroke="none" paint-order="stroke fill markers" d="" fill-opacity="1"/></g></g><g><g><path fill="rgb(255,255,255)" stroke="none" paint-order="stroke fill markers" d="" fill-opacity="1"/></g></g><g><g><path fill="rgb(255,255,255)" stroke="none" paint-order="stroke fill markers" d="" fill-opacity="1"/></g></g></g><g><g><g><path fill="rgb(255,255,255)" stroke="none" paint-order="stroke fill markers" d=" M 107.94270833333333 43.363931020100914 Q 107.4951171875 43.39648310343424 107.82877604166667 43.925454457600914 L 107.82877604166667 43.925454457600914 Q 107.91829427083333 44.05566279093424 108.349609375 44.55208206176758 L 108.349609375 44.55208206176758 Q 108.41471354166667 44.633462270100914 108.544921875 44.79622268676758 L 108.544921875 44.79622268676758 Q 108.65071614583333 44.93456904093424 108.7158203125 45.00781122843424 L 108.7158203125 45.00781122843424 Q 108.91927083333333 45.219399770100914 109.17154947916667 45.292641957600914 L 109.17154947916667 45.292641957600914 Q 109.2041015625 45.30891799926758 109.26920572916667 45.20312372843424 L 109.26920572916667 45.20312372843424 Q 109.326171875 45.10546747843424 109.33430989583333 45.048501332600914 L 109.33430989583333 45.048501332600914 Q 109.34244791666667 44.877602895100914 108.70768229166667 44.11262893676758 L 108.70768229166667 44.11262893676758 Q 108.07291666666667 43.35579299926758 107.94270833333333 43.363931020100914 L 107.94270833333333 43.363931020100914 Z M 91.87825520833333 43.486001332600914 Q 91.0888671875 44.35676956176758 90.9912109375 44.47883987426758 L 90.9912109375 44.47883987426758 Q 90.48665364583333 45.15429560343424 90.85286458333333 45.33333206176758 L 90.85286458333333 45.33333206176758 Q 91.05631510416667 45.30077997843424 91.259765625 45.04036331176758 L 91.259765625 45.04036331176758 Q 91.29231770833333 44.99153518676758 91.4306640625 44.78808466593424 L 91.4306640625 44.78808466593424 Q 91.54459635416667 44.61718622843424 91.63411458333333 44.511391957600914 L 91.63411458333333 44.511391957600914 Q 91.69108072916667 44.44628779093424 91.89453125 44.242837270100914 L 91.89453125 44.242837270100914 Q 92.07356770833333 44.06380081176758 92.15494791666667 43.949868520100914 L 92.15494791666667 43.949868520100914 Q 92.42350260416667 43.59179560343424 92.17122395833333 43.363931020100914 L 92.17122395833333 43.363931020100914 Q 92.041015625 43.339516957600914 91.9677734375 43.388345082600914 L 91.9677734375 43.388345082600914 Q 91.97591145833333 43.38020706176758 91.87825520833333 43.486001332600914 L 91.87825520833333 43.486001332600914 Z M 107.94270833333333 42.59081904093424 Q 107.79622395833333 42.66406122843424 107.79622395833333 42.83495966593424 L 107.79622395833333 42.83495966593424 Q 107.7880859375 42.997720082600914 107.89388020833333 43.119790395100914 L 107.89388020833333 43.119790395100914 Q 109.521484375 43.24999872843424 109.90397135416667 43.03841018676758 L 109.90397135416667 43.03841018676758 L 109.90397135416667 42.71288935343424 Q 109.6435546875 42.55012893676758 108.95182291666667 42.582681020100914 L 108.95182291666667 42.582681020100914 Q 108.09733072916667 42.61523310343424 107.94270833333333 42.59081904093424 L 107.94270833333333 42.59081904093424 Z M 92.17122395833333 43.07910029093424 Q 92.2607421875 42.875649770100914 92.17122395833333 42.67219924926758 L 92.17122395833333 42.67219924926758 Q 92.17936197916667 42.67219924926758 91.6259765625 42.607095082600914 L 91.6259765625 42.607095082600914 Q 91.17838541666667 42.558266957600914 90.88541666666667 42.55012893676758 L 90.88541666666667 42.55012893676758 Q 89.97395833333333 42.54199091593424 90.07975260416667 42.997720082600914 L 90.07975260416667 42.997720082600914 Q 90.31575520833333 43.18489456176758 91.08072916666667 43.18489456176758 L 91.08072916666667 43.18489456176758 Q 91.68294270833333 43.17675654093424 92.17122395833333 43.07910029093424 L 92.17122395833333 43.07910029093424 Z M 107.94270833333333 42.25716018676758 Q 108.06477864583333 42.27343622843424 108.33333333333333 41.96419143676758 L 108.33333333333333 41.96419143676758 Q 108.41471354166667 41.86653518676758 108.544921875 41.703774770100914 L 108.544921875 41.703774770100914 Q 108.68326822916667 41.52473831176758 108.7158203125 41.484048207600914 L 108.7158203125 41.484048207600914 Q 109.16341145833333 40.946938832600914 109.23665364583333 40.81673049926758 L 109.23665364583333 40.81673049926758 Q 109.48079427083333 40.37727737426758 109.00065104166667 40.336587270100914 L 109.00065104166667 40.336587270100914 Q 108.935546875 40.39355341593424 108.18684895833333 41.32128779093424 L 108.18684895833333 41.32128779093424 Q 107.80436197916667 41.78515497843424 107.77180989583333 41.83398310343424 L 107.77180989583333 41.83398310343424 Q 107.5439453125 42.23274612426758 107.94270833333333 42.25716018676758 L 107.94270833333333 42.25716018676758 Z M 92.08170572916667 42.29785029093424 Q 92.09798177083333 42.24902216593424 92.17122395833333 42.25716018676758 L 92.17122395833333 42.25716018676758 Q 92.37467447916667 42.045571645100914 92.1875 41.728188832600914 L 92.1875 41.728188832600914 Q 92.1630859375 41.68749872843424 91.75618489583333 41.19921747843424 L 91.75618489583333 41.19921747843424 Q 91.73990885416667 41.17480341593424 91.59342447916667 40.971352895100914 L 91.59342447916667 40.971352895100914 Q 91.455078125 40.79231643676758 91.34928385416667 40.67024612426758 L 91.34928385416667 40.67024612426758 Q 91.03190104166667 40.30403518676758 90.85286458333333 40.336587270100914 L 90.85286458333333 40.336587270100914 Q 90.48665364583333 40.409829457600914 90.81217447916667 40.88997268676758 L 90.81217447916667 40.88997268676758 Q 90.90983072916667 41.044595082600914 91.09700520833333 41.24804560343424 L 91.09700520833333 41.24804560343424 Q 91.34114583333333 41.52473831176758 91.30859375 41.484048207600914 L 91.30859375 41.484048207600914 Q 91.87825520833333 42.17577997843424 92.08170572916667 42.29785029093424 L 92.08170572916667 42.29785029093424 Z M 105.810546875 39.59602737426758 Q 106.591796875 40.68652216593424 106.70572916666667 41.76887893676758 L 106.70572916666667 41.76887893676758 Q 106.9091796875 43.64876174926758 105.89192708333333 45.25195185343424 L 105.89192708333333 45.25195185343424 Q 106.689453125 45.06477737426758 107.12890625 44.21028518676758 L 107.12890625 44.21028518676758 Q 107.52766927083333 43.437173207600914 107.4951171875 42.40364456176758 L 107.4951171875 42.40364456176758 Q 107.470703125 41.37011591593424 107.04752604166667 40.605141957600914 L 107.04752604166667 40.605141957600914 Q 106.58365885416667 39.76692581176758 105.810546875 39.59602737426758 L 105.810546875 39.59602737426758 Z M 94.29524739583333 39.59602737426758 Q 93.53841145833333 39.750649770100914 93.07454427083333 40.605141957600914 L 93.07454427083333 40.605141957600914 Q 92.6513671875 41.37825393676758 92.626953125 42.41992060343424 L 92.626953125 42.41992060343424 Q 92.6025390625 43.46972529093424 93.00130208333333 44.242837270100914 L 93.00130208333333 44.242837270100914 Q 93.44889322916667 45.097329457600914 94.25455729166667 45.25195185343424 L 94.25455729166667 45.25195185343424 Q 93.4326171875 44.27538935343424 93.42447916666667 42.39550654093424 L 93.42447916666667 42.39550654093424 Q 93.42447916666667 40.483071645100914 94.29524739583333 39.59602737426758 L 94.29524739583333 39.59602737426758 Z M 105.9326171875 40.580727895100914 Q 105.86751302083333 40.434243520100914 105.6884765625 40.14941279093424 L 105.6884765625 40.14941279093424 Q 105.52571614583333 39.897134145100914 105.47688802083333 39.75878779093424 L 105.47688802083333 39.75878779093424 Q 105.37923177083333 39.42512893676758 105.25716145833333 38.69270706176758 L 105.25716145833333 38.69270706176758 Q 105.1513671875 38.041665395100914 105.029296875 37.71614456176758 L 105.029296875 37.71614456176758 Q 104.4921875 36.25943883260091 103.4912109375 35.22591018676758 L 103.4912109375 35.22591018676758 Q 102.35188802083333 34.03775914510091 100.93587239583333 33.77734247843424 L 100.93587239583333 33.77734247843424 Q 99.12923177083333 33.45182164510091 97.61555989583333 34.27376174926758 L 97.61555989583333 34.27376174926758 Q 96.40299479166667 34.93294143676758 95.556640625 36.29199091593424 L 95.556640625 36.29199091593424 Q 94.7265625 37.64290237426758 94.4580078125 39.35188674926758 L 94.4580078125 39.35188674926758 Q 94.44173177083333 39.457681020100914 94.43359375 39.78320185343424 L 94.43359375 39.78320185343424 Q 94.42545572916667 40.05175654093424 94.37662760416667 40.214516957600914 L 94.37662760416667 40.214516957600914 Q 94.34407552083333 40.336587270100914 94.19759114583333 40.62141799926758 L 94.19759114583333 40.62141799926758 Q 94.05110677083333 40.90624872843424 94.01041666666667 41.069009145100914 L 94.01041666666667 41.069009145100914 Q 93.75 42.08626174926758 93.9208984375 43.20117060343424 L 93.9208984375 43.20117060343424 Q 94.09993489583333 44.28352737426758 94.62890625 45.08919143676758 L 94.62890625 45.08919143676758 Q 95.22298177083333 44.72298049926758 95.39388020833333 43.17675654093424 L 95.39388020833333 43.17675654093424 Q 95.51595052083333 41.96419143676758 95.361328125 40.580727895100914 L 95.361328125 40.580727895100914 Q 95.35319010416667 40.47493362426758 95.27180989583333 40.263345082600914 L 95.27180989583333 40.263345082600914 Q 95.20670572916667 40.05989456176758 95.19856770833333 39.970376332600914 L 95.19856770833333 39.970376332600914 Q 95.18229166666667 39.604165395100914 95.40201822916667 38.74153518676758 L 95.40201822916667 38.74153518676758 Q 95.8984375 36.79654820760091 97.25748697916667 35.64094924926758 L 97.25748697916667 35.64094924926758 Q 98.8525390625 34.29003779093424 100.9765625 34.76204299926758 L 100.9765625 34.76204299926758 Q 102.21354166666667 35.03873570760091 103.19010416666667 36.15364456176758 L 103.19010416666667 36.15364456176758 Q 104.18294270833333 37.30110549926758 104.58170572916667 39.189126332600914 L 104.58170572916667 39.189126332600914 Q 104.64680989583333 39.49837112426758 104.69563802083333 42.40364456176758 L 104.69563802083333 42.40364456176758 Q 104.736328125 44.44628779093424 105.47688802083333 45.08919143676758 L 105.47688802083333 45.08919143676758 Q 106.08723958333333 44.22656122843424 106.2255859375 42.948891957600914 L 106.2255859375 42.948891957600914 Q 106.36393229166667 41.63867060343424 105.9326171875 40.580727895100914 L 105.9326171875 40.580727895100914 Z" fill-opacity="1"/></g></g><g><g><path fill="rgb(255,255,255)" stroke="none" paint-order="stroke fill markers" d=" M 156.00130335489908 108.82568359375 Q 157.00227991739908 109.10237630208333 158.63802210489908 109.78597005208333 L 158.63802210489908 109.78597005208333 Q 160.42024866739908 110.52652994791667 161.24218877156576 110.78694661458333 L 161.24218877156576 110.78694661458333 Q 162.11295700073242 110.02197265625 161.57584762573242 109.20817057291667 L 161.57584762573242 109.20817057291667 Q 161.09570439656576 108.49202473958333 159.81803512573242 108.04443359375 L 159.81803512573242 108.04443359375 Q 158.54850387573242 107.61311848958333 157.46614710489908 107.76774088541667 L 157.46614710489908 107.76774088541667 Q 156.24544397989908 107.94677734375 156.00130335489908 108.82568359375 L 156.00130335489908 108.82568359375 Z M 161.90136845906576 102.92561848958333 Q 161.95833460489908 102.81982421875 162.08040491739908 102.65706380208333 L 162.08040491739908 102.65706380208333 Q 162.21061325073242 102.47802734375 162.26757939656576 102.38850911458333 L 162.26757939656576 102.38850911458333 Q 162.45475387573242 102.05485026041666 162.38964970906576 101.61539713541666 L 162.38964970906576 101.61539713541666 Q 161.87695439656576 101.11083984375 159.85058720906576 100.05289713541666 L 159.85058720906576 100.05289713541666 Q 158.17415491739908 99.18212890625 157.63704554239908 98.17301432291667 L 157.63704554239908 98.17301432291667 Q 158.91471481323242 98.13232421875 160.23307418823242 98.93798828125 L 160.23307418823242 98.93798828125 Q 161.73860804239908 99.85758463541666 162.55241012573242 99.97151692708333 L 162.55241012573242 99.97151692708333 Q 163.20345179239908 98.27880859375 160.81087366739908 97.16389973958333 L 160.81087366739908 97.16389973958333 Q 158.99609502156576 96.32568359375 156.82324345906576 96.20361328125 L 156.82324345906576 96.20361328125 Q 156.01757939656576 96.69189453125 155.83854293823242 97.84749348958333 L 155.83854293823242 97.84749348958333 Q 156.01757939656576 98.17301432291667 156.68489710489908 98.63688151041667 L 156.68489710489908 98.63688151041667 Q 157.31152470906576 99.06819661458333 157.47428512573242 99.48323567708333 L 157.47428512573242 99.48323567708333 Q 156.16406377156576 99.89827473958333 156.00130335489908 101.28987630208333 L 156.00130335489908 101.28987630208333 Q 157.43359502156576 101.11083984375 159.11002731323242 101.76188151041666 L 159.11002731323242 101.76188151041666 Q 159.48437627156576 101.90022786458333 160.50162887573242 102.36409505208333 L 160.50162887573242 102.36409505208333 Q 161.37239710489908 102.74658203125 161.90136845906576 102.92561848958333 L 161.90136845906576 102.92561848958333 Z M 159.76920700073242 114.88850911458334 Q 159.57389450073242 115.32796223958334 159.75293095906576 115.70231119791666 L 159.75293095906576 115.70231119791666 Q 159.91569137573242 116.04410807291666 160.34700647989908 116.26383463541666 L 160.34700647989908 116.26383463541666 Q 161.27474085489908 116.72770182291666 162.22688929239908 116.36149088541666 L 162.22688929239908 116.36149088541666 Q 163.39062627156576 114.94547526041666 162.70703252156576 113.50504557291667 L 162.70703252156576 113.50504557291667 Q 162.10481897989908 112.25992838541667 160.46093877156576 111.51123046875 L 160.46093877156576 111.51123046875 Q 158.85774866739908 110.78694661458333 157.50683720906576 111.07991536458333 L 157.50683720906576 111.07991536458333 Q 156.00944137573242 111.41357421875 155.83854293823242 112.91910807291667 L 155.83854293823242 112.91910807291667 Q 155.65136845906576 114.57926432291667 157.63704554239908 115.53955078125 L 157.63704554239908 115.53955078125 Q 157.71842575073242 114.95361328125 157.29524866739908 114.32698567708333 L 157.29524866739908 114.32698567708333 Q 156.88020960489908 113.71663411458333 156.98600387573242 113.08186848958333 L 156.98600387573242 113.08186848958333 Q 157.65332158406576 112.78889973958333 158.51595179239908 112.84586588541667 L 158.51595179239908 112.84586588541667 Q 159.32161585489908 112.90283203125 160.06217575073242 113.25276692708333 L 160.06217575073242 113.25276692708333 Q 160.81087366739908 113.61083984375 161.21777470906576 114.15608723958333 L 161.21777470906576 114.15608723958333 Q 161.65722783406576 114.73388671875 161.57584762573242 115.37679036458334 L 161.57584762573242 115.37679036458334 Q 161.27474085489908 115.43375651041666 161.02246220906576 115.29541015625 L 161.02246220906576 115.29541015625 Q 160.89225387573242 115.23030598958334 160.62369918823242 114.98616536458334 L 160.62369918823242 114.98616536458334 Q 160.39583460489908 114.78271484375 160.24935022989908 114.75016276041666 L 160.24935022989908 114.75016276041666 Q 160.02962366739908 114.69319661458333 159.76920700073242 114.88850911458334 L 159.76920700073242 114.88850911458334 Z M 155.83854293823242 103.41389973958333 Q 157.24642054239908 103.43017578125 157.31152470906576 104.56136067708333 L 157.31152470906576 104.56136067708333 Q 157.15690231323242 104.48811848958333 156.83138147989908 104.38232421875 L 156.83138147989908 104.38232421875 Q 156.48958460489908 104.28466796875 156.35123825073242 104.21956380208333 L 156.35123825073242 104.21956380208333 Q 155.82226689656576 103.97542317708333 155.83854293823242 103.41389973958333 L 155.83854293823242 103.41389973958333 Z M 163.37435022989908 106.20524088541666 Q 163.41504033406576 104.83805338541666 161.80371220906576 104.47998046875 L 161.80371220906576 104.47998046875 Q 160.53418095906576 104.19514973958333 158.62174606323242 104.56136067708333 L 158.62174606323242 104.56136067708333 Q 158.62988408406576 103.62548828125 157.96256637573242 102.90934244791666 L 157.96256637573242 102.90934244791666 Q 157.36035283406576 102.25830078125 156.52213668823242 102.07926432291666 L 156.52213668823242 102.07926432291666 Q 155.67578252156576 101.90022786458333 155.14681116739908 102.33154296875 L 155.14681116739908 102.33154296875 Q 154.56087366739908 102.81982421875 154.69108200073242 103.91031901041666 L 154.69108200073242 103.91031901041666 Q 154.76432418823242 104.53694661458333 155.18750127156576 104.91943359375 L 155.18750127156576 104.91943359375 Q 155.50488408406576 105.20426432291666 156.15592575073242 105.44840494791666 L 156.15592575073242 105.44840494791666 Q 157.89746220906576 106.09130859375 158.29622522989908 106.53076171875 L 158.29622522989908 106.53076171875 Q 158.47526168823242 106.23779296875 158.92285283406576 106.05875651041666 L 158.92285283406576 106.05875651041666 Q 159.36230595906576 105.87158203125 159.84244918823242 105.87972005208333 L 159.84244918823242 105.87972005208333 Q 160.36328252156576 105.88785807291666 160.68880335489908 106.10758463541666 L 160.68880335489908 106.10758463541666 Q 161.05501429239908 106.36800130208333 161.07942835489908 106.85628255208333 L 161.07942835489908 106.85628255208333 Q 161.09570439656576 107.06787109375 160.77018356323242 107.03531901041666 L 160.77018356323242 107.03531901041666 Q 160.31445439656576 107.00276692708333 160.25748825073242 107.01904296875 L 160.25748825073242 107.01904296875 Q 160.58300908406576 107.64567057291666 161.13639450073242 107.78401692708333 L 161.13639450073242 107.78401692708333 Q 161.60839970906576 107.91422526041667 162.15364710489908 107.66194661458333 L 162.15364710489908 107.66194661458333 Q 162.65006637573242 107.44222005208333 163.00813929239908 107.01090494791666 L 163.00813929239908 107.01090494791666 Q 163.36621220906576 106.58772786458333 163.37435022989908 106.20524088541666 L 163.37435022989908 106.20524088541666 Z M 164.68457158406576 112.43082682291667 Q 165.35188929239908 112.03206380208333 165.44954554239908 111.51123046875 L 165.44954554239908 111.51123046875 Q 165.53906377156576 111.03922526041667 165.14843877156576 110.65673828125 L 165.14843877156576 110.65673828125 Q 164.76595179239908 110.27425130208333 164.13118616739908 110.20100911458333 L 164.13118616739908 110.20100911458333 Q 163.42317835489908 110.11149088541667 162.71517054239908 110.46142578125 L 162.71517054239908 110.46142578125 Q 162.91048304239908 111.15315755208333 163.48828252156576 111.65771484375 L 163.48828252156576 111.65771484375 Q 163.87076950073242 111.99137369791667 164.68457158406576 112.43082682291667 L 164.68457158406576 112.43082682291667 Z M 160.59114710489908 90.14078776041666 Q 161.61653772989908 90.21402994791666 163.15462366739908 90.77555338541666 L 163.15462366739908 90.77555338541666 Q 164.74153772989908 91.36149088541666 165.66927210489908 91.45914713541666 L 165.66927210489908 91.45914713541666 Q 165.72623825073242 91.32893880208333 165.91341272989908 90.96272786458333 L 165.91341272989908 90.96272786458333 Q 166.06803512573242 90.66162109375 166.14941533406576 90.45817057291666 L 166.14941533406576 90.45817057291666 Q 166.38541793823242 89.84781901041666 166.32031377156576 89.16422526041666 L 166.32031377156576 89.16422526041666 Q 164.38346481323242 87.08089192708333 159.11816533406576 84.41162109375 L 159.11816533406576 84.41162109375 Q 157.10807418823242 83.39436848958333 156.96972783406576 83.35367838541666 L 156.96972783406576 83.35367838541666 Q 155.55371220906576 82.93050130208333 155.17936325073242 84.24886067708333 L 155.17936325073242 84.24886067708333 Q 155.97688929239908 84.68017578125 157.42545700073242 85.24169921875 L 157.42545700073242 85.24169921875 Q 159.63899866739908 86.10432942708333 159.83431116739908 86.18570963541666 L 159.83431116739908 86.18570963541666 Q 162.65006637573242 87.38199869791666 163.37435022989908 88.83056640625 L 163.37435022989908 88.83056640625 Q 162.86165491739908 88.79801432291666 161.25032679239908 88.39111328125 L 161.25032679239908 88.39111328125 Q 159.50065231323242 87.94352213541666 158.60547002156576 87.82958984375 L 158.60547002156576 87.82958984375 Q 157.10807418823242 87.63427734375 156.29427210489908 87.97607421875 L 156.29427210489908 87.97607421875 Q 155.28515752156576 88.39925130208333 155.17936325073242 89.65250651041666 L 155.17936325073242 89.65250651041666 Q 158.31250127156576 90.45817057291666 160.15169397989908 91.28011067708333 L 160.15169397989908 91.28011067708333 Q 162.75586064656576 92.42757161458333 163.69987106323242 93.91682942708333 L 163.69987106323242 93.91682942708333 Q 157.15690231323242 92.87516276041666 155.83854293823242 92.93212890625 L 155.83854293823242 92.93212890625 Q 155.06543095906576 93.82731119791666 155.17936325073242 94.89339192708333 L 155.17936325073242 94.89339192708333 Q 162.59310022989908 95.25960286458333 165.50651168823242 96.53727213541667 L 165.50651168823242 96.53727213541667 Q 166.37727991739908 95.35725911458333 166.01106897989908 94.38069661458333 L 166.01106897989908 94.38069661458333 Q 165.71810022989908 93.60758463541666 164.54622522989908 92.81819661458333 L 164.54622522989908 92.81819661458333 Q 164.49739710489908 92.78564453125 162.34082158406576 91.51611328125 L 162.34082158406576 91.51611328125 Q 161.03060022989908 90.75113932291666 160.59114710489908 90.14078776041666 L 160.59114710489908 90.14078776041666 Z" fill-opacity="1"/></g></g><g><g><path fill="rgb(255,255,255)" stroke="none" paint-order="stroke fill markers" d=" M 92.05729166666667 156.63606897989908 Q 92.5048828125 156.60351689656576 92.17122395833333 156.07454554239908 L 92.17122395833333 156.07454554239908 Q 92.08170572916667 155.94433720906576 91.650390625 155.44791793823242 L 91.650390625 155.44791793823242 Q 91.58528645833333 155.36653772989908 91.455078125 155.20377731323242 L 91.455078125 155.20377731323242 Q 91.34928385416667 155.06543095906576 91.2841796875 154.99218877156576 L 91.2841796875 154.99218877156576 Q 91.08072916666667 154.78060022989908 90.82845052083333 154.70735804239908 L 90.82845052083333 154.70735804239908 Q 90.7958984375 154.69108200073242 90.73079427083333 154.79687627156576 L 90.73079427083333 154.79687627156576 Q 90.673828125 154.89453252156576 90.66569010416667 154.95149866739908 L 90.66569010416667 154.95149866739908 Q 90.65755208333333 155.12239710489908 91.29231770833333 155.88737106323242 L 91.29231770833333 155.88737106323242 Q 91.92708333333333 156.64420700073242 92.05729166666667 156.63606897989908 L 92.05729166666667 156.63606897989908 Z M 108.12174479166667 156.51399866739908 Q 108.9111328125 155.64323043823242 109.0087890625 155.52116012573242 L 109.0087890625 155.52116012573242 Q 109.51334635416667 154.84570439656576 109.14713541666667 154.66666793823242 L 109.14713541666667 154.66666793823242 Q 108.94368489583333 154.69922002156576 108.740234375 154.95963668823242 L 108.740234375 154.95963668823242 Q 108.70768229166667 155.00846481323242 108.5693359375 155.21191533406576 L 108.5693359375 155.21191533406576 Q 108.45540364583333 155.38281377156576 108.36588541666667 155.48860804239908 L 108.36588541666667 155.48860804239908 Q 108.30891927083333 155.55371220906576 108.10546875 155.75716272989908 L 108.10546875 155.75716272989908 Q 107.92643229166667 155.93619918823242 107.84505208333333 156.05013147989908 L 107.84505208333333 156.05013147989908 Q 107.57649739583333 156.40820439656576 107.82877604166667 156.63606897989908 L 107.82877604166667 156.63606897989908 Q 107.958984375 156.66048304239908 108.0322265625 156.61165491739908 L 108.0322265625 156.61165491739908 Q 108.02408854166667 156.61979293823242 108.12174479166667 156.51399866739908 L 108.12174479166667 156.51399866739908 Z M 92.05729166666667 157.40918095906576 Q 92.20377604166667 157.33593877156576 92.20377604166667 157.16504033406576 L 92.20377604166667 157.16504033406576 Q 92.2119140625 157.00227991739908 92.10611979166667 156.88020960489908 L 92.10611979166667 156.88020960489908 Q 90.478515625 156.75000127156576 90.09602864583333 156.96158981323242 L 90.09602864583333 156.96158981323242 L 90.09602864583333 157.28711064656576 Q 90.3564453125 157.44987106323242 91.04817708333333 157.41731897989908 L 91.04817708333333 157.41731897989908 Q 91.90266927083333 157.38476689656576 92.05729166666667 157.40918095906576 L 92.05729166666667 157.40918095906576 Z M 107.82877604166667 156.92089970906576 Q 107.7392578125 157.12435022989908 107.82877604166667 157.32780075073242 L 107.82877604166667 157.32780075073242 Q 107.82063802083333 157.32780075073242 108.3740234375 157.39290491739908 L 108.3740234375 157.39290491739908 Q 108.82161458333333 157.44173304239908 109.11458333333333 157.44987106323242 L 109.11458333333333 157.44987106323242 Q 110.02604166666667 157.45800908406576 109.92024739583333 157.00227991739908 L 109.92024739583333 157.00227991739908 Q 109.68424479166667 156.81510543823242 108.91927083333333 156.81510543823242 L 108.91927083333333 156.81510543823242 Q 108.31705729166667 156.82324345906576 107.82877604166667 156.92089970906576 L 107.82877604166667 156.92089970906576 Z M 92.05729166666667 157.74283981323242 Q 91.93522135416667 157.72656377156576 91.66666666666667 158.03580856323242 L 91.66666666666667 158.03580856323242 Q 91.58528645833333 158.13346481323242 91.455078125 158.29622522989908 L 91.455078125 158.29622522989908 Q 91.31673177083333 158.47526168823242 91.2841796875 158.51595179239908 L 91.2841796875 158.51595179239908 Q 90.83658854166667 159.05306116739908 90.76334635416667 159.18326950073242 L 90.76334635416667 159.18326950073242 Q 90.51920572916667 159.62272262573242 90.99934895833333 159.66341272989908 L 90.99934895833333 159.66341272989908 Q 91.064453125 159.60644658406576 91.81315104166667 158.67871220906576 L 91.81315104166667 158.67871220906576 Q 92.19563802083333 158.21484502156576 92.22819010416667 158.16601689656576 L 92.22819010416667 158.16601689656576 Q 92.4560546875 157.76725387573242 92.05729166666667 157.74283981323242 L 92.05729166666667 157.74283981323242 Z M 107.91829427083333 157.70214970906576 Q 107.90201822916667 157.75097783406576 107.82877604166667 157.74283981323242 L 107.82877604166667 157.74283981323242 Q 107.62532552083333 157.95442835489908 107.8125 158.27181116739908 L 107.8125 158.27181116739908 Q 107.8369140625 158.31250127156576 108.24381510416667 158.80078252156576 L 108.24381510416667 158.80078252156576 Q 108.26009114583333 158.82519658406576 108.40657552083333 159.02864710489908 L 108.40657552083333 159.02864710489908 Q 108.544921875 159.20768356323242 108.65071614583333 159.32975387573242 L 108.65071614583333 159.32975387573242 Q 108.96809895833333 159.69596481323242 109.14713541666667 159.66341272989908 L 109.14713541666667 159.66341272989908 Q 109.51334635416667 159.59017054239908 109.18782552083333 159.11002731323242 L 109.18782552083333 159.11002731323242 Q 109.09016927083333 158.95540491739908 108.90299479166667 158.75195439656576 L 108.90299479166667 158.75195439656576 Q 108.65885416666667 158.47526168823242 108.69140625 158.51595179239908 L 108.69140625 158.51595179239908 Q 108.12174479166667 157.82422002156576 107.91829427083333 157.70214970906576 L 107.91829427083333 157.70214970906576 Z M 94.189453125 160.40397262573242 Q 93.408203125 159.31347783406576 93.29427083333333 158.23112106323242 L 93.29427083333333 158.23112106323242 Q 93.0908203125 156.35123825073242 94.10807291666667 154.74804814656576 L 94.10807291666667 154.74804814656576 Q 93.310546875 154.93522262573242 92.87109375 155.78971481323242 L 92.87109375 155.78971481323242 Q 92.47233072916667 156.56282679239908 92.5048828125 157.59635543823242 L 92.5048828125 157.59635543823242 Q 92.529296875 158.62988408406576 92.95247395833333 159.39485804239908 L 92.95247395833333 159.39485804239908 Q 93.41634114583333 160.23307418823242 94.189453125 160.40397262573242 L 94.189453125 160.40397262573242 Z M 105.70475260416667 160.40397262573242 Q 106.46158854166667 160.24935022989908 106.92545572916667 159.39485804239908 L 106.92545572916667 159.39485804239908 Q 107.3486328125 158.62174606323242 107.373046875 157.58007939656576 L 107.373046875 157.58007939656576 Q 107.3974609375 156.53027470906576 106.99869791666667 155.75716272989908 L 106.99869791666667 155.75716272989908 Q 106.55110677083333 154.90267054239908 105.74544270833333 154.74804814656576 L 105.74544270833333 154.74804814656576 Q 106.5673828125 155.72461064656576 106.57552083333333 157.60449345906576 L 106.57552083333333 157.60449345906576 Q 106.57552083333333 159.51692835489908 105.70475260416667 160.40397262573242 L 105.70475260416667 160.40397262573242 Z M 94.0673828125 159.41927210489908 Q 94.13248697916667 159.56575647989908 94.3115234375 159.85058720906576 L 94.3115234375 159.85058720906576 Q 94.47428385416667 160.10286585489908 94.52311197916667 160.24121220906576 L 94.52311197916667 160.24121220906576 Q 94.62076822916667 160.57487106323242 94.74283854166667 161.30729293823242 L 94.74283854166667 161.30729293823242 Q 94.8486328125 161.95833460489908 94.970703125 162.28385543823242 L 94.970703125 162.28385543823242 Q 95.5078125 163.74056116739908 96.5087890625 164.77408981323242 L 96.5087890625 164.77408981323242 Q 97.64811197916667 165.96224085489908 99.06412760416667 166.22265752156576 L 99.06412760416667 166.22265752156576 Q 100.87076822916667 166.54817835489908 102.38444010416667 165.72623825073242 L 102.38444010416667 165.72623825073242 Q 103.59700520833333 165.06705856323242 104.443359375 163.70800908406576 L 104.443359375 163.70800908406576 Q 105.2734375 162.35709762573242 105.5419921875 160.64811325073242 L 105.5419921875 160.64811325073242 Q 105.55826822916667 160.54231897989908 105.56640625 160.21679814656576 L 105.56640625 160.21679814656576 Q 105.57454427083333 159.94824345906576 105.62337239583333 159.78548304239908 L 105.62337239583333 159.78548304239908 Q 105.65592447916667 159.66341272989908 105.80240885416667 159.37858200073242 L 105.80240885416667 159.37858200073242 Q 105.94889322916667 159.09375127156576 105.98958333333333 158.93099085489908 L 105.98958333333333 158.93099085489908 Q 106.25 157.91373825073242 106.0791015625 156.79882939656576 L 106.0791015625 156.79882939656576 Q 105.90006510416667 155.71647262573242 105.37109375 154.91080856323242 L 105.37109375 154.91080856323242 Q 104.77701822916667 155.27701950073242 104.60611979166667 156.82324345906576 L 104.60611979166667 156.82324345906576 Q 104.48404947916667 158.03580856323242 104.638671875 159.41927210489908 L 104.638671875 159.41927210489908 Q 104.64680989583333 159.52506637573242 104.72819010416667 159.73665491739908 L 104.72819010416667 159.73665491739908 Q 104.79329427083333 159.94010543823242 104.80143229166667 160.02962366739908 L 104.80143229166667 160.02962366739908 Q 104.81770833333333 160.39583460489908 104.59798177083333 161.25846481323242 L 104.59798177083333 161.25846481323242 Q 104.1015625 163.20345179239908 102.74251302083333 164.35905075073242 L 102.74251302083333 164.35905075073242 Q 101.1474609375 165.70996220906576 99.0234375 165.23795700073242 L 99.0234375 165.23795700073242 Q 97.78645833333333 164.96126429239908 96.80989583333333 163.84635543823242 L 96.80989583333333 163.84635543823242 Q 95.81705729166667 162.69889450073242 95.41829427083333 160.81087366739908 L 95.41829427083333 160.81087366739908 Q 95.35319010416667 160.50162887573242 95.30436197916667 157.59635543823242 L 95.30436197916667 157.59635543823242 Q 95.263671875 155.55371220906576 94.52311197916667 154.91080856323242 L 94.52311197916667 154.91080856323242 Q 93.91276041666667 155.77343877156576 93.7744140625 157.05110804239908 L 93.7744140625 157.05110804239908 Q 93.63606770833333 158.36132939656576 94.0673828125 159.41927210489908 L 94.0673828125 159.41927210489908 Z" fill-opacity="1"/></g></g><g><g><path fill="rgb(255,255,255)" stroke="none" paint-order="stroke fill markers" d=" M 43.99869664510091 91.17431640625001 Q 42.99772008260091 90.89762369791669 41.36197789510091 90.21402994791669 L 41.36197789510091 90.21402994791669 Q 39.57975133260091 89.47347005208334 38.75781122843424 89.21305338541669 L 38.75781122843424 89.21305338541669 Q 37.88704299926758 89.97802734375001 38.42415237426758 90.79182942708334 L 38.42415237426758 90.79182942708334 Q 38.90429560343424 91.50797526041669 40.18196487426758 91.95556640625001 L 40.18196487426758 91.95556640625001 Q 41.45149612426758 92.38688151041669 42.53385289510091 92.23225911458334 L 42.53385289510091 92.23225911458334 Q 43.75455602010091 92.05322265625001 43.99869664510091 91.17431640625001 L 43.99869664510091 91.17431640625001 Z M 38.09863154093424 97.07438151041669 Q 38.04166539510091 97.18017578125001 37.91959508260091 97.34293619791669 L 37.91959508260091 97.34293619791669 Q 37.78938674926758 97.52197265625001 37.73242060343424 97.61149088541669 L 37.73242060343424 97.61149088541669 Q 37.54524612426758 97.94514973958336 37.61035029093424 98.38460286458336 L 37.61035029093424 98.38460286458336 Q 38.12304560343424 98.88916015625001 40.14941279093424 99.94710286458336 L 40.14941279093424 99.94710286458336 Q 41.825845082600914 100.81787109375001 42.362954457600914 101.82698567708334 L 42.362954457600914 101.82698567708334 Q 41.08528518676758 101.86767578125001 39.76692581176758 101.06201171875001 L 39.76692581176758 101.06201171875001 Q 38.261391957600914 100.14241536458336 37.44758987426758 100.02848307291669 L 37.44758987426758 100.02848307291669 Q 36.79654820760091 101.72119140625001 39.189126332600914 102.83610026041669 L 39.189126332600914 102.83610026041669 Q 41.00390497843424 103.67431640625001 43.17675654093424 103.79638671875001 L 43.17675654093424 103.79638671875001 Q 43.98242060343424 103.30810546875001 44.16145706176758 102.15250651041669 L 44.16145706176758 102.15250651041669 Q 43.98242060343424 101.82698567708334 43.315102895100914 101.36311848958334 L 43.315102895100914 101.36311848958334 Q 42.68847529093424 100.93180338541669 42.52571487426758 100.51676432291669 L 42.52571487426758 100.51676432291669 Q 43.83593622843424 100.10172526041669 43.998696645100914 98.71012369791669 L 43.998696645100914 98.71012369791669 Q 42.56640497843424 98.88916015625001 40.88997268676758 98.23811848958336 L 40.88997268676758 98.23811848958336 Q 40.51562372843424 98.09977213541669 39.49837112426758 97.63590494791669 L 39.49837112426758 97.63590494791669 Q 38.62760289510091 97.25341796875001 38.09863154093424 97.07438151041669 L 38.09863154093424 97.07438151041669 Z M 40.23079299926758 85.11149088541669 Q 40.42610549926758 84.67203776041669 40.24706904093424 84.29768880208336 L 40.24706904093424 84.29768880208336 Q 40.08430862426758 83.95589192708334 39.65299352010091 83.73616536458334 L 39.65299352010091 83.73616536458334 Q 38.72525914510091 83.27229817708334 37.77311070760091 83.63850911458334 L 37.77311070760091 83.63850911458334 Q 36.60937372843424 85.05452473958336 37.29296747843424 86.49495442708334 L 37.29296747843424 86.49495442708334 Q 37.89518102010091 87.74007161458334 39.53906122843424 88.48876953125001 L 39.53906122843424 88.48876953125001 Q 41.14225133260091 89.21305338541669 42.49316279093424 88.92008463541669 L 42.49316279093424 88.92008463541669 Q 43.99055862426758 88.58642578125001 44.16145706176758 87.08089192708334 L 44.16145706176758 87.08089192708334 Q 44.34863154093424 85.42073567708334 42.36295445760091 84.46044921875001 L 42.36295445760091 84.46044921875001 Q 42.28157424926758 85.04638671875001 42.70475133260091 85.67301432291669 L 42.70475133260091 85.67301432291669 Q 43.11979039510091 86.28336588541669 43.01399612426758 86.91813151041669 L 43.01399612426758 86.91813151041669 Q 42.34667841593424 87.21110026041669 41.48404820760091 87.15413411458334 L 41.48404820760091 87.15413411458334 Q 40.67838414510091 87.09716796875001 39.93782424926758 86.74723307291669 L 39.93782424926758 86.74723307291669 Q 39.18912633260091 86.38916015625001 38.78222529093424 85.84391276041669 L 38.78222529093424 85.84391276041669 Q 38.34277216593424 85.26611328125001 38.42415237426758 84.62320963541669 L 38.42415237426758 84.62320963541669 Q 38.72525914510091 84.56624348958336 38.97753779093424 84.70458984375001 L 38.97753779093424 84.70458984375001 Q 39.10774612426758 84.76969401041669 39.37630081176758 85.01383463541669 L 39.37630081176758 85.01383463541669 Q 39.60416539510091 85.21728515625001 39.75064977010091 85.24983723958336 L 39.75064977010091 85.24983723958336 Q 39.97037633260091 85.30680338541669 40.23079299926758 85.11149088541669 L 40.23079299926758 85.11149088541669 Z M 44.16145706176758 96.58610026041669 Q 42.753579457600914 96.56982421875001 42.68847529093424 95.43863932291669 L 42.68847529093424 95.43863932291669 Q 42.84309768676758 95.51188151041669 43.16861852010091 95.61767578125001 L 43.16861852010091 95.61767578125001 Q 43.510415395100914 95.71533203125001 43.64876174926758 95.78043619791669 L 43.64876174926758 95.78043619791669 Q 44.17773310343424 96.02457682291669 44.16145706176758 96.58610026041669 L 44.16145706176758 96.58610026041669 Z M 36.62564977010091 93.79475911458336 Q 36.58495966593424 95.16194661458336 38.19628779093424 95.52001953125001 L 38.19628779093424 95.52001953125001 Q 39.46581904093424 95.80485026041669 41.37825393676758 95.43863932291669 L 41.37825393676758 95.43863932291669 Q 41.37011591593424 96.37451171875001 42.03743362426758 97.09065755208336 L 42.03743362426758 97.09065755208336 Q 42.63964716593424 97.74169921875001 43.47786331176758 97.92073567708336 L 43.47786331176758 97.92073567708336 Q 44.32421747843424 98.09977213541669 44.853188832600914 97.66845703125001 L 44.853188832600914 97.66845703125001 Q 45.439126332600914 97.18017578125001 45.30891799926758 96.08968098958334 L 45.30891799926758 96.08968098958334 Q 45.23567581176758 95.46305338541669 44.81249872843424 95.08056640625001 L 44.81249872843424 95.08056640625001 Q 44.49511591593424 94.79573567708334 43.84407424926758 94.55159505208334 L 43.84407424926758 94.55159505208334 Q 42.10253779093424 93.90869140625001 41.70377477010091 93.46923828125001 L 41.70377477010091 93.46923828125001 Q 41.52473831176758 93.76220703125001 41.07714716593424 93.94124348958336 L 41.07714716593424 93.94124348958336 Q 40.63769404093424 94.12841796875001 40.15755081176758 94.12027994791669 L 40.15755081176758 94.12027994791669 Q 39.63671747843424 94.11214192708336 39.31119664510091 93.89241536458336 L 39.31119664510091 93.89241536458336 Q 38.94498570760091 93.63199869791669 38.92057164510091 93.14371744791669 L 38.92057164510091 93.14371744791669 Q 38.90429560343424 92.93212890625001 39.22981643676758 92.96468098958336 L 39.22981643676758 92.96468098958336 Q 39.68554560343424 92.99723307291669 39.74251174926758 92.98095703125001 L 39.74251174926758 92.98095703125001 Q 39.41699091593424 92.35432942708336 38.86360549926758 92.21598307291669 L 38.86360549926758 92.21598307291669 Q 38.39160029093424 92.08577473958334 37.84635289510091 92.33805338541669 L 37.84635289510091 92.33805338541669 Q 37.34993362426758 92.55777994791669 36.99186070760091 92.98909505208336 L 36.99186070760091 92.98909505208336 Q 36.63378779093424 93.41227213541669 36.62564977010091 93.79475911458336 L 36.62564977010091 93.79475911458336 Z M 35.31542841593424 87.56917317708334 Q 34.64811070760091 87.96793619791669 34.55045445760091 88.48876953125001 L 34.55045445760091 88.48876953125001 Q 34.46093622843424 88.96077473958334 34.85156122843424 89.34326171875001 L 34.85156122843424 89.34326171875001 Q 35.23404820760091 89.72574869791669 35.86881383260091 89.79899088541669 L 35.86881383260091 89.79899088541669 Q 36.57682164510091 89.88850911458334 37.28482945760091 89.53857421875001 L 37.28482945760091 89.53857421875001 Q 37.08951695760091 88.84684244791669 36.51171747843424 88.34228515625001 L 36.51171747843424 88.34228515625001 Q 36.12923049926758 88.00862630208334 35.31542841593424 87.56917317708334 L 35.31542841593424 87.56917317708334 Z M 39.408852895100914 109.85921223958336 Q 38.383462270100914 109.78597005208336 36.845376332600914 109.22444661458336 L 36.845376332600914 109.22444661458336 Q 35.258462270100914 108.63850911458336 34.330727895100914 108.54085286458336 L 34.330727895100914 108.54085286458336 Q 34.27376174926758 108.67106119791669 34.086587270100914 109.03727213541669 L 34.086587270100914 109.03727213541669 Q 33.93196487426758 109.33837890625001 33.85058466593425 109.54182942708336 L 33.85058466593425 109.54182942708336 Q 33.61458206176758 110.15218098958336 33.67968622843425 110.83577473958336 L 33.67968622843425 110.83577473958336 Q 35.61653518676758 112.91910807291669 40.88183466593425 115.58837890625001 L 40.88183466593425 115.58837890625001 Q 42.89192581176758 116.60563151041669 43.03027216593425 116.64632161458334 L 43.03027216593425 116.64632161458334 Q 44.44628779093425 117.06949869791669 44.82063674926758 115.75113932291669 L 44.82063674926758 115.75113932291669 Q 44.023110707600914 115.31982421875001 42.57454299926758 114.75830078125001 L 42.57454299926758 114.75830078125001 Q 40.361001332600914 113.89567057291669 40.165688832600914 113.81429036458336 L 40.165688832600914 113.81429036458336 Q 37.34993362426758 112.61800130208336 36.625649770100914 111.16943359375001 L 36.625649770100914 111.16943359375001 Q 37.138345082600914 111.20198567708336 38.749673207600914 111.60888671875001 L 38.749673207600914 111.60888671875001 Q 40.49934768676758 112.05647786458334 41.39452997843425 112.17041015625001 L 41.39452997843425 112.17041015625001 Q 42.89192581176758 112.36572265625001 43.705727895100914 112.02392578125001 L 43.705727895100914 112.02392578125001 Q 44.71484247843425 111.60074869791669 44.82063674926758 110.34749348958334 L 44.82063674926758 110.34749348958334 Q 41.68749872843425 109.54182942708334 39.848306020100914 108.71988932291669 L 39.848306020100914 108.71988932291669 Q 37.24413935343425 107.57242838541669 36.30012893676758 106.08317057291669 L 36.30012893676758 106.08317057291669 Q 42.84309768676758 107.12483723958336 44.16145706176758 107.06787109375001 L 44.16145706176758 107.06787109375001 Q 44.93456904093424 106.17268880208334 44.82063674926758 105.10660807291669 L 44.82063674926758 105.10660807291669 Q 37.406899770100914 104.74039713541669 34.49348831176758 103.46272786458334 L 34.49348831176758 103.46272786458334 Q 33.62272008260091 104.64274088541669 33.988931020100914 105.61930338541669 L 33.988931020100914 105.61930338541669 Q 34.281899770100914 106.39241536458336 35.453774770100914 107.18180338541669 L 35.453774770100914 107.18180338541669 Q 35.502602895100914 107.21435546875001 37.65917841593425 108.48388671875001 L 37.65917841593425 108.48388671875001 Q 38.969399770100914 109.24886067708336 39.408852895100914 109.85921223958336 L 39.408852895100914 109.85921223958336 Z" fill-opacity="1"/></g></g><g/><g/><g/><g/><g/><g/><g/><g/><g/><g/><g/><g/><g/><g/><g/><g/><g/><g/><g/><g/><g/><g/><g/><g/><g/><g/><g/><g/><g/><g/><g/></g></g></svg>