<svg version="1.1" xmlns="http://www.w3.org/2000/svg" xmlns:xlink="http://www.w3.org/1999/xlink" width="500" height="500" viewBox="0 0 500 500"><defs/><g><g><g><g><path fill="rgb(255,255,255)" stroke="none" paint-order="stroke fill markers" d=" M 253.22916666666666 25 L 254.83333333333334 25 L 254.83333333333334 10.458333333333334 L 252.66666666666666 10.458333333333334 L 250.10416666666666 16.875 L 249.97916666666666 16.875 L 247.41666666666666 10.458333333333334 L 245.16666666666666 10.458333333333334 L 245.16666666666666 25 L 246.77083333333334 25 L 246.77083333333334 17.708333333333336 L 246.77083333333334 13.104166666666668 L 246.9375 13.104166666666668 L 250 20.583333333333336 L 253.0625 13.104166666666668 L 253.22916666666666 13.104166666666668 L 253.22916666666666 17.708333333333336 Z" fill-opacity="1"/></g></g><g><g><path fill="rgb(255,255,255)" stroke="none" paint-order="stroke fill markers" d=" M 266.12219145366527 25.563962314035194 L 267.7858173773708 25.664593143072338 L 268.4348862246604 14.934205935171676 L 266.77126030095485 14.833575106134532 L 266.32093734101363 22.278301114716776 C 266.2354011363321 23.692383149866473 264.8655059511157 24.256533532072652 263.53460521215135 24.176028868842938 C 261.8917746124921 24.076655925168758 261.05543840519675 23.065981948430615 261.1736796293154 21.111221488076616 L 261.57242928937507 14.519103765393458 L 259.90880336566954 14.418472936356315 L 259.49244331052836 21.301725195687943 C 259.3352076401578 23.901140701477832 260.7211079013131 25.487713893583273 262.9670028983155 25.623565512783415 C 264.73460544225264 25.73048576863538 265.6230232454388 24.845011601069594 266.144672527969 23.812123552692533 L 266.2278538241543 23.81715509414439 Z" fill-opacity="1"/></g></g><g><g><path fill="rgb(255,255,255)" stroke="none" paint-order="stroke fill markers" d=" M 277.2147074966461 26.903747631494294 C 279.9446569004158 27.235223502196433 281.87141996932195 26.230980396575028 282.1275604148645 24.121474039116663 C 282.4088126687936 21.80515333288787 280.32884849323125 21.132873008965802 278.82604530155527 20.71954984325804 L 277.18098324657865 20.26796697680267 C 276.2472155081052 20.007682614085354 275.35170747037944 19.605139388067386 275.48731123566665 18.488341904707077 C 275.62040382011526 17.39222585622381 276.6238926339031 16.905467382528933 278.29908885894355 17.10887303045979 C 280.1810994327545 17.337390486777174 281.04204292690696 18.19743646092873 281.46557311963505 18.857466412490634 L 282.66405559433525 17.97465750712547 C 281.7812466889701 16.77617503242527 280.4527557233294 15.964290254208569 278.52938227976443 15.730750436213881 C 276.0476100945193 15.429408735575574 274.0995736025682 16.26317800050333 273.840921976187 18.393365792838736 C 273.5596697222579 20.70968649906753 275.66031533269734 21.384478003828253 277.1424370894963 21.795289988697363 L 278.7874991444729 22.24687285515273 C 279.74194831782336 22.5096683987087 280.6167749206721 22.909700443888013 280.48117115538486 24.026497927248325 C 280.3279891242271 25.288065454747933 279.07883427275334 25.724008323501938 277.4243194825899 25.523113856409733 C 275.72844182267244 25.31719702764022 274.643105713879 24.576809289241435 273.7602968085138 23.378326814541236 L 272.5254738257368 24.21475048847501 C 273.4890892779393 25.611921781261856 274.9811125299255 26.632540100919815 277.2147074966461 26.903747631494294 Z" fill-opacity="1"/></g></g><g><g><path fill="rgb(255,255,255)" stroke="none" paint-order="stroke fill markers" d=" M 293.57897748406776 15.895679683420697 C 294.5216132282254 16.068424094659022 294.9525955042672 15.68143862986734 295.06149958961316 15.087168269420108 L 295.12158460221775 14.759294967104394 C 295.23048868756365 14.16502460665716 294.9647401961846 13.65035849008063 294.0221044520269 13.477614078842304 C 293.07946870786924 13.304869667603977 292.6484864318274 13.69185513239566 292.5395823464815 14.286125492842892 L 292.4794973338769 14.613998795158606 C 292.370593248531 15.208269155605839 292.63634173991005 15.72293527218237 293.57897748406776 15.895679683420697 Z M 286.58191971755076 27.956990159061483 L 295.5984355312329 29.609328005688955 L 295.8537968348026 28.215866470847168 L 292.2881746721192 27.562441958771757 L 293.970555025049 18.38198949393175 L 288.51966137405026 17.38307615937969 L 288.26430007048054 18.776537694221478 L 292.0758272099007 19.475025965750362 L 290.6488081605406 27.26201689574858 L 286.8372810211205 26.563528624219696 Z" fill-opacity="1"/></g></g><g><g><path fill="rgb(255,255,255)" stroke="none" paint-order="stroke fill markers" d=" M 304.15029873016334 31.870569907602643 C 306.2337780467234 32.3841014372197 307.8028679844601 31.676549051593916 308.7537228877647 30.43039247922369 L 307.7951734568049 29.357314901223546 C 306.990045030697 30.360451036731515 305.91027181465637 30.82384305547205 304.5145429521064 30.479826788058684 C 302.5524313627246 29.99620971647758 301.8296367655751 28.401906081205237 302.28333937912026 26.56116221900168 L 302.72208476364744 24.78110222038725 C 303.1757873771926 22.940358358183694 304.5769280056626 21.869557738540387 306.4783557314553 22.338217581103518 C 307.7729448213567 22.65730513348693 308.5084167874782 23.503744416171514 308.62850354422517 24.67055512335994 L 310.09260789633026 24.30189222173323 C 309.85499922538804 22.74134885747984 308.8451674518396 21.441063019152647 306.8223719988687 20.94248871855357 C 303.8690906375311 20.214570239678913 301.58076983481135 21.924973778306914 300.76310798182885 25.242358321179257 C 299.95043187185235 28.53951490952189 301.15656145976635 31.13267994271601 304.15029873016334 31.870569907602643 Z" fill-opacity="1"/></g></g><g><g><path fill="rgb(255,255,255)" stroke="none" paint-order="stroke fill markers" d="" fill-opacity="1"/></g></g><g><g><path fill="rgb(255,255,255)" stroke="none" paint-order="stroke fill markers" d=" M 327.33168194752125 38.690507567295015 L 329.51841208428357 32.92457407073496 L 332.8299279437944 34.18046637901061 C 335.3427840960115 35.13346701293742 337.26041958593163 34.18963626067849 338.1912574144183 31.73521862362928 C 339.12209524290495 29.280800986580065 338.3126000249927 27.302705980447072 335.79974387277565 26.34970534652026 L 330.85194958856533 24.473254485920172 L 325.6954035228218 38.06994901497058 Z M 331.9489330808876 26.51581690732868 L 335.22148993028657 27.756934011977556 C 336.5850552842028 28.274066138914584 337.12985322945724 29.30508710214681 336.64965911158714 30.57125493078331 L 336.26550381729106 31.58418919369251 C 335.78530969942096 32.85035702232901 334.69382921997595 33.2608194332368 333.3302638660597 32.74368730629977 L 330.05770701666074 31.50257020165089 Z" fill-opacity="1"/></g></g><g><g><path fill="rgb(255,255,255)" stroke="none" paint-order="stroke fill markers" d=" M 338.1063465256987 42.91582515978047 L 345.5535286013008 46.26752973764465 L 346.13494674235886 44.97567162248919 L 343.07628267559375 43.5990786708664 L 344.982992167593 39.36254396969481 C 345.66701351001427 37.84271089304133 347.22967026401443 37.06101065761446 349.1484595232895 37.924587602421305 L 350.99125712873183 38.75396348010708 L 351.6752784711531 37.2341304034536 L 350.30742870216494 36.618511195274465 C 348.25565404868274 35.69508238300576 346.85163348923055 36.47964074551999 345.8902570790091 37.60049352507013 L 345.79526751171824 37.5577421911688 L 346.90680219315277 35.08801344160689 L 342.51828418431586 33.112901815365504 L 341.9368660432578 34.40475993052096 L 344.80555097544124 35.69585021434109 L 341.5564495989402 42.91505732844514 L 338.6877646667568 41.623967044625005 Z" fill-opacity="1"/></g></g><g><g><path fill="rgb(255,255,255)" stroke="none" paint-order="stroke fill markers" d=" M 354.446532916837 50.99375823444107 C 357.121347994331 52.397609483323286 359.78939471349304 51.3039016415036 361.37719888464255 48.27859355385513 C 362.9650030557921 45.25328546620666 362.34948367982344 42.436229194724675 359.67466860232935 41.032377945842455 C 356.9998535248353 39.628526696960236 354.3318068056733 40.72223453877992 352.7440026345238 43.74754262642839 C 351.1561984633742 46.77285071407685 351.7717178393429 49.58990698555885 354.446532916837 50.99375823444107 Z M 355.11457247664987 49.72091519756458 C 353.47278942908457 48.859240982733425 352.87910123281637 47.30064598935329 353.9537735681676 45.25302893003025 L 354.67022179173506 43.88795089048155 C 355.7448941270863 41.8403338311585 357.3648459949511 41.44354676788779 359.00662904251647 42.30522098271894 C 360.64841209008176 43.1668951975501 361.24210028634997 44.72549019093023 360.16742795099873 46.773107250253275 L 359.4509797274313 48.138185289801974 C 358.37630739208004 50.18580234912502 356.7563555242152 50.582589412395734 355.11457247664987 49.72091519756458 Z" fill-opacity="1"/></g></g><g><g><path fill="rgb(255,255,255)" stroke="none" paint-order="stroke fill markers" d=" M 368.6296052532578 58.79644762326196 L 370.05590737376025 59.65867731355806 L 378.0315320089991 46.465382698910744 L 376.6052298884967 45.60315300861465 L 373.28564558085674 51.09441617254893 L 373.2143304748316 51.05130468803413 C 373.30498673123253 49.57242202089134 372.69790254714053 48.40206735523423 371.41423063868837 47.62606063396775 C 369.16780479889707 46.2680488717514 366.72425280042097 47.249637093104404 364.90279257967046 50.26270032266575 C 363.08133235891995 53.2757635522271 363.34775438939846 55.895588185142685 365.59418022918976 57.25359994735903 C 366.8778521376419 58.02960666862552 368.1962758162282 58.023262084868136 369.4636313220436 57.25571891221962 L 369.53494642806874 57.29883039673443 Z M 366.9121011510222 56.32187082040288 C 365.25402493593816 55.31952880543366 364.9594990145785 53.63213962109443 365.9618410295477 51.97406340601038 L 366.9102936888734 50.405131073457724 C 367.9126357038426 48.74705485837367 369.54361764516125 48.22367575593417 371.20169386024526 49.226017770903375 C 372.4675369921912 49.99124662104116 373.15631112731234 51.30836149062429 372.41263801943194 52.53854706955762 L 370.40795398949354 55.85469949972573 C 369.66428088161314 57.08488507865907 368.1779442829681 57.08709967054066 366.9121011510222 56.32187082040288 Z" fill-opacity="1"/></g></g><g><g><path fill="rgb(255,255,255)" stroke="none" paint-order="stroke fill markers" d=" M 379.9063186736564 66.27246140520234 L 381.27795845014583 67.21923598308759 L 387.38465447750576 58.37215942473078 L 386.01301470101635 57.42538484684552 L 381.7761984649798 63.56347284663571 C 380.97144007377733 64.72936665665172 379.5072531036552 64.50345740773317 378.4099412824637 63.746037745424964 C 377.0554470031804 62.811097849763264 376.8625860056014 61.51351364266852 377.97504613461655 59.90183690529344 L 381.7266403994869 54.46671429095409 L 380.35500062299747 53.51993971306882 L 376.43772080699716 59.19509928829383 C 374.95838552905144 61.338286439058564 375.3236187105891 63.41302467577221 377.17533240884984 64.69117035591732 C 378.63269967136983 65.6971183449204 379.85108025967503 65.39895825958773 380.8318499916115 64.78490091099417 L 380.90043198043594 64.83223963988843 Z" fill-opacity="1"/></g></g><g><g><path fill="rgb(255,255,255)" stroke="none" paint-order="stroke fill markers" d=" M 388.9027604284934 73.31178231035166 C 390.5919249806337 74.63515822453374 392.31316641279295 74.63391591640445 393.69168946757713 73.88778895842178 L 393.2579931683646 72.51584871918052 C 392.11209676496804 73.10017339055062 390.9372697171185 73.07958774622611 389.80569346374295 72.19305436682258 C 388.21492684667885 70.94676831171907 388.21013319254996 69.19627891386736 389.3793293885749 67.70391023187938 L 390.5099806550606 66.26074051742945 C 391.6791768510855 64.76837183544146 393.3963470607889 64.3669549714647 394.937914710315 65.57469609702893 C 395.9874926844604 66.39698792720031 396.31077993644607 67.47070289166983 395.94141297565983 68.58400253859112 L 397.42783348458374 68.84870606999776 C 397.8516251542991 67.32812917522982 397.4644136743207 65.72795082829622 395.8244480897185 64.44311984365342 C 393.4300983361993 62.56726660607493 390.64140743387406 63.187827169114016 388.53428461905986 65.8773707278616 C 386.4400101140921 68.55051463076317 386.4756113632822 71.41023245308033 388.9027604284934 73.31178231035166 Z" fill-opacity="1"/></g></g><g><g><path fill="rgb(255,255,255)" stroke="none" paint-order="stroke fill markers" d=" M 402.72683621015113 84.70728417738599 L 403.66625997599226 83.64689395081027 L 400.00167610473795 80.40035593650637 L 405.2513971491442 74.47464584681849 L 408.9159810203986 77.72118386112237 L 409.8554047862397 76.66079363454665 L 406.19082091498535 73.41425562024276 L 408.70516099414834 70.57615236676067 L 407.5044250022906 69.51239310249939 L 405.63939252598834 71.61757958173061 C 405.15586558768774 72.1633686689387 404.78736326216455 72.17090063604127 404.2571681488767 71.7011887531207 L 402.26113948708706 69.93286166447858 L 401.32171572124594 70.99325189105431 L 404.00387923552574 73.36944141641716 L 399.44491096012024 78.51545281009348 C 398.4916721388991 79.59143701058943 398.37611748640666 80.85288372636137 399.5924474521847 81.93045804600266 Z" fill-opacity="1"/></g></g><g><g><path fill="rgb(255,255,255)" stroke="none" paint-order="stroke fill markers" d=" M 418.85120679083764 82.0916022507444 C 419.52885078947475 82.76924624938151 420.1033750491888 82.69558929300791 420.5305853961557 82.26837894604103 L 420.7662876565512 82.03267668564551 C 421.1934980035181 81.60546633867864 421.2671549598917 81.03094207896457 420.5895109612546 80.35329808032746 C 419.91186696261747 79.67565408169035 419.3373427029034 79.74931103806395 418.9101323559365 80.17652138503082 L 418.674430095541 80.41222364542634 C 418.24721974857414 80.83943399239323 418.1735627922005 81.41395825210729 418.85120679083764 82.0916022507444 Z M 406.2411358596775 88.04308432573117 L 412.7229480205542 94.52489648660786 L 413.72468262723515 93.52316187992692 L 411.16142054543394 90.95989979812568 L 417.76108383650836 84.36023650705124 L 413.84253375743293 80.44168642797578 L 412.840799150752 81.44342103465672 L 415.58083792784987 84.1834598117546 L 409.98290924345633 89.7813884961481 L 407.2428704663585 87.04134971905023 Z" fill-opacity="1"/></g></g><g><g><path fill="rgb(255,255,255)" stroke="none" paint-order="stroke fill markers" d=" M 418.22779065145494 100.96318256038126 C 420.2309736815574 103.22430877881479 423.11347484592335 103.14777658743361 425.6708865688413 100.8821075051109 C 428.2282982917592 98.61643842278818 428.65171959848226 95.76417887360584 426.6485365683798 93.50305265517231 C 424.64535353827745 91.24192643673877 421.76285237391147 91.31845862811994 419.2054406509935 93.58412771044266 C 416.6480289280756 95.84979679276537 416.22460762135256 98.70205634194772 418.22779065145494 100.96318256038126 Z M 419.3037748519509 100.00994373916011 C 418.07423492312944 98.62208006025952 418.0718122181007 96.95424368990477 419.8027433232464 95.42077254272293 L 420.95669739334346 94.3984584446017 C 422.6876284984892 92.86498729741987 424.3430124390624 93.06842779749286 425.5725523678839 94.45629147639345 C 426.8020922967054 95.84415515529403 426.8045150017341 97.51199152564878 425.07358389658845 99.04546267283062 L 423.9196298264913 100.06777677095185 C 422.18869872134565 101.6012479181337 420.5333147807724 101.3978074180607 419.3037748519509 100.00994373916011 Z" fill-opacity="1"/></g></g><g><g><path fill="rgb(255,255,255)" stroke="none" paint-order="stroke fill markers" d=" M 425.5487893357721 109.23749564536314 L 431.4198661286479 104.63780072034191 C 432.53504272617744 103.76411565078482 433.8657238875755 104.41539601969095 434.68801571774685 105.46497399383635 C 435.7030321956147 106.76054680567208 435.50112535009407 108.0567542599867 433.95955770056804 109.26449538555093 L 428.7608667973791 113.3374096068686 L 429.78873158509333 114.64938207455036 L 435.21701767012655 110.3965915153827 C 437.2669746508793 108.79055278457919 437.5355198726965 106.70109891056883 436.14790240928227 104.92993607919847 C 435.0557960723359 103.53596533228661 433.8038791654078 103.45815304153498 432.68483390063926 103.75262441509034 L 432.63344066125353 103.68702579170625 L 434.0110117523194 102.6077677646063 L 432.98314696460517 101.29579529692455 L 424.52092454805785 107.92552317768138 Z" fill-opacity="1"/></g></g><g><g><path fill="rgb(255,255,255)" stroke="none" paint-order="stroke fill markers" d="" fill-opacity="1"/></g></g><g><g><path fill="rgb(255,255,255)" stroke="none" paint-order="stroke fill markers" d="" fill-opacity="1"/></g></g><g><g><path fill="rgb(255,255,255)" stroke="none" paint-order="stroke fill markers" d="" fill-opacity="1"/></g></g><g><g><path fill="rgb(255,255,255)" stroke="none" paint-order="stroke fill markers" d=" M 455.00648412709677 157.7340711741521 C 455.4681985332311 158.7599585008932 456.1331496187488 158.91760983376966 456.77907867632655 158.62690076324063 L 457.12104111857354 158.47299596119583 C 457.7669701761513 158.1822868906668 458.0899105904584 157.5800216852165 457.628196184324 156.5541343584754 C 457.1664817781897 155.5282470317343 456.50153069267196 155.37059569885784 455.8556016350942 155.66130476938687 L 455.5136391928472 155.81520957143167 C 454.8677101352695 156.1059186419607 454.5447697209624 156.708183847411 455.00648412709677 157.7340711741521 Z" fill-opacity="1"/></g></g><g><g><path fill="rgb(255,255,255)" stroke="none" paint-order="stroke fill markers" d="" fill-opacity="1"/></g></g><g><g><path fill="rgb(255,255,255)" stroke="none" paint-order="stroke fill markers" d="" fill-opacity="1"/></g></g><g><g><path fill="rgb(255,255,255)" stroke="none" paint-order="stroke fill markers" d="" fill-opacity="1"/></g></g><g><g><path fill="rgb(255,255,255)" stroke="none" paint-order="stroke fill markers" d=" M 476.94794984447594 205.7415308763736 L 477.3647896194206 208.01615191118887 L 471.8965526227147 212.61888910805467 L 472.2495520717669 214.54514475915948 L 477.76971488774944 209.76344965798467 C 478.41196755803617 211.99676224663426 480.1164715290121 212.97639665499204 482.4115846452221 212.5558015667596 C 484.9935869009583 212.0826320924981 486.26762107541794 210.36653789828262 485.7831856612931 207.72305939836218 L 484.8293360861945 202.5180707241002 L 470.5258632726715 205.13927939897744 L 470.8413095888458 206.86061423613492 Z M 478.40288762350195 205.47490363294054 L 483.64886046055335 204.51354343126636 L 484.27975309290207 207.95621310558136 C 484.5426250230473 209.3906588032126 483.9421411695294 210.3902728134396 482.6101558788718 210.63436817714592 L 481.54456764634574 210.82964446811098 C 480.21258235568814 211.0737398318173 479.2966521859959 210.35201900488678 479.0337802558506 208.91757330725554 Z" fill-opacity="1"/></g></g><g><g><path fill="rgb(255,255,255)" stroke="none" paint-order="stroke fill markers" d=" M 473.13392008108553 223.09551402650948 C 473.3900605266281 225.20502038396785 474.6099596525405 226.6098875229364 476.1148252650547 227.07774052625768 L 476.7939229906559 225.75708863496607 C 475.5679607548979 225.33931602025044 474.7342105654685 224.34926155515842 474.56093908760147 222.92224254864246 C 474.3173545462522 220.9161433655693 475.5291472169792 219.48883790271864 477.41115779079007 219.26032044640124 L 477.9075122278391 219.20005210627357 L 478.8667833082044 227.10036022930393 L 479.65267783353204 227.00493535743513 C 482.6721673255803 226.63830295499184 484.6383931470681 224.51078864716084 484.2893390104954 221.6360691992519 C 483.937773693084 218.7406683164659 481.5019570547682 217.00075430228992 478.0895203000561 217.4150991406676 C 474.71844641509813 217.82442161736796 472.76226531696494 220.03466166470716 473.13392008108553 223.09551402650948 Z M 482.92436430861056 221.80180713460297 C 483.137814679896 223.55972909915158 482.0012142061612 224.91494553401654 480.1192036323503 225.14346299033392 L 479.8917078487028 225.1710859795591 L 479.1483983204617 219.04938125595444 L 479.293168364601 219.03180299008386 C 481.15449750353486 218.80579671460512 482.70338039480913 219.98184086542318 482.92436430861056 221.80180713460297 Z" fill-opacity="1"/></g></g><g><g><path fill="rgb(255,255,255)" stroke="none" paint-order="stroke fill markers" d=" M 474.9039710409875 241.61366909156538 L 476.35964372422984 241.5256171161579 L 476.26907597809645 240.0283537848229 L 482.17494800725103 239.67111434174103 C 484.44163832829986 239.53400483717792 485.69647721836236 237.85100233701868 485.54427308944366 235.33476812741407 C 485.4121951263324 233.15125910255057 484.2894084900608 231.84166198364173 483.1337559721225 231.3689093680375 L 482.3698688198698 232.5421722810573 C 483.38121195484683 233.04452541824858 484.0371075374346 233.88145035266803 484.12390162747914 235.31632771186403 C 484.2220166857903 236.93836298747695 483.4676038893173 237.9232100987169 481.90795458584336 238.01755150093922 L 480.8473930594811 238.0817036544504 L 480.709025669555 235.7942180093553 C 480.51405343829555 232.57094278217585 479.28603229642937 231.2468397660355 477.3104765120291 231.3663388755171 C 475.29333007953613 231.48835375572463 474.1324047268015 232.99870423669853 474.26825634600164 235.244599233701 C 474.37391871649066 236.9914064535918 475.2049820889897 237.96383557343174 476.45957968570775 238.34711746603588 L 476.46586911252257 238.45109408626746 C 475.475240870477 238.63624452796768 474.7567984535207 239.18061617814604 474.8347873460245 240.46992626901783 Z M 475.67915345218654 235.45145545103085 C 475.5961330182309 234.07896406397379 476.1268287916463 233.1911349879117 477.2289809661012 233.1244670636746 L 477.66568277107393 233.09805147105234 C 478.7054489733899 233.03515720290412 479.34180711729425 233.89413534673284 479.4613062267759 235.86969113113315 L 479.5996736167019 238.15717677622825 L 477.8320710727648 238.26409703208023 C 476.7299188983099 238.33076495631732 475.7823000519496 237.156672022829 475.67915345218654 235.45145545103085 Z" fill-opacity="1"/></g></g><g><g><path fill="rgb(255,255,255)" stroke="none" paint-order="stroke fill markers" d=" M 474.75 250.125 C 474.75 252.875 475.9791666666667 254.66666666666666 478.1041666666667 254.66666666666666 C 480.4375 254.66666666666666 480.8541666666667 252.52083333333334 481.0833333333333 250.97916666666666 L 481.3333333333333 249.29166666666666 C 481.4791666666667 248.33333333333334 481.7708333333333 247.39583333333334 482.8958333333333 247.39583333333334 C 484 247.39583333333334 484.6041666666667 248.33333333333334 484.6041666666667 250.02083333333334 C 484.6041666666667 251.91666666666666 483.8541666666667 252.875 483.25 253.375 L 484.2708333333333 254.45833333333334 C 485.3541666666667 253.4375 486 252.02083333333334 486 250.08333333333334 C 486 247.58333333333334 484.9375 245.75 482.7916666666667 245.75 C 480.4583333333333 245.75 480.0416666666667 247.91666666666666 479.8125 249.4375 L 479.5625 251.125 C 479.4166666666667 252.10416666666666 479.125 253.02083333333334 478 253.02083333333334 C 476.7291666666667 253.02083333333334 476.1458333333333 251.83333333333334 476.1458333333333 250.16666666666666 C 476.1458333333333 248.45833333333334 476.75 247.29166666666666 477.8333333333333 246.27083333333334 L 476.8541666666667 245.14583333333334 C 475.5833333333333 246.27083333333334 474.75 247.875 474.75 250.125 Z" fill-opacity="1"/></g></g><g><g><path fill="rgb(255,255,255)" stroke="none" paint-order="stroke fill markers" d=" M 474.33995581169063 263.57006729565876 C 474.1575624340608 266.58538928237505 476.2499149856668 268.56950897097164 479.6603481292631 268.7758021704978 C 483.07078127285945 268.98209537002396 485.3870374190731 267.26464737837574 485.56943079670293 264.2493253916595 C 485.75182417433274 261.2340034049432 483.65947162272676 259.2498837163466 480.24903847913043 259.0435905168205 C 476.8386053355341 258.8372973172943 474.52234918932044 260.5547453089425 474.33995581169063 263.57006729565876 Z M 475.77483317088667 263.6568613857033 C 475.88678496819045 261.80607754558093 477.06441026442326 260.62502602703887 479.37269123356464 260.7646513023279 L 480.9115452129923 260.85773481918727 C 483.2198261821337 260.9973600944763 484.24650523481074 262.31174746149253 484.13455343750695 264.16253130161493 C 484.0226016402031 266.01331514173734 482.8449763439703 267.1943666602794 480.5366953748289 267.05474138499034 L 478.9978413954013 266.961657868131 C 476.68956042625985 266.82203259284194 475.6628813735828 265.5076452258257 475.77483317088667 263.6568613857033 Z" fill-opacity="1"/></g></g><g><g><path fill="rgb(255,255,255)" stroke="none" paint-order="stroke fill markers" d=" M 473.66586073437776 274.5976180024484 L 481.0698144203591 275.49662074268605 C 482.476151991998 275.6673810397144 482.95656089951257 277.06883947784337 482.7958453258388 278.3924513099741 C 482.59746203958525 280.0262846652605 481.5381352591792 280.8000720463953 479.5940803807372 280.564021047562 L 473.0380655247146 279.76797672170915 L 472.8371710576224 281.4224915118725 L 479.6827260019236 282.25369236946653 C 482.26790536155397 282.56758997429813 483.93526251224534 281.28001311841103 484.20647004281983 279.04641815169043 C 484.4199204141053 277.2884961871418 483.58970307818447 276.3482356543207 482.59019587790567 275.7651738642545 L 482.6002406012603 275.6824481247463 L 484.33748113093185 275.89338731519314 L 484.53837559802406 274.2388725250297 L 473.86675520146997 272.943103212285 Z" fill-opacity="1"/></g></g><g><g><path fill="rgb(255,255,255)" stroke="none" paint-order="stroke fill markers" d=" M 471.0760847129461 290.4713355858858 C 470.4940111533387 293.6476082020693 471.75817061951454 295.764317882648 474.401649119435 296.2487532967729 C 476.26642852635564 296.59048680596175 477.9928158103058 295.95374695307083 478.99910368420655 293.2364593208995 L 479.5471492389223 291.74837228903584 C 480.26729063812394 289.7834965568498 481.20714391912253 289.27796248372994 482.4776529655959 289.5107919075729 C 484.09652739577973 289.8074616573083 484.7376711287109 291.0475098160285 484.38467167965865 292.9737654671333 C 484.05795942362096 294.756576548475 483.15297091041583 295.64974465313895 481.9614175410607 296.2574148498562 L 482.7849502082125 297.65796862982273 C 484.33441938618563 296.94644679455223 485.4395064518469 295.5392611400642 485.8563462267916 293.2646401052489 C 486.3896007136577 290.3547645471969 485.37885685079425 288.2421344632822 482.7558704322686 287.7614543624451 C 480.95256726953215 287.4309867931196 479.1722143679733 288.0154765433577 478.1864185754673 290.73651948881684 L 477.6271070808882 292.28608276486466 C 476.9424790162324 294.1727454847596 476.07332812094944 294.7547770552148 474.67986658610766 294.4994157516451 C 472.9585317489502 294.1839694354708 472.16096199143675 292.8728946076588 472.5402486335035 290.80319438679084 C 472.8556949496778 289.08185954963335 473.745986493108 288.03773624863067 475.3422349454904 287.18652515688484 L 474.546704986309 285.7487425274167 C 472.8759988349232 286.54394820322193 471.5454988739198 287.90982541154426 471.0760847129461 290.4713355858858 Z" fill-opacity="1"/></g></g><g><g><path fill="rgb(255,255,255)" stroke="none" paint-order="stroke fill markers" d=" M 467.33513100150776 308.4175421884148 L 468.710631909528 308.75657271282216 L 469.88228151593586 304.00300339834047 L 477.5689042372254 305.89758574061693 L 476.3972546308176 310.6511550550987 L 477.7727555388378 310.99018557950603 L 478.94440514524564 306.23661626502434 L 482.6258928696528 307.14402149211463 L 483.0097950811141 305.586468993327 L 480.2790212196033 304.91339368751824 C 479.5710428110635 304.7388926823086 479.3931220157848 304.4161003573505 479.56263727798853 303.72834990334036 L 480.2008123827553 301.1391717235376 L 478.8253114747351 300.80014119913017 L 477.9677636777047 304.27934937824017 L 471.29253868290056 302.63405418626326 C 469.8968098203506 302.29003791884986 468.7261533001792 302.77394287462585 468.3372653457119 304.3517233279432 Z" fill-opacity="1"/></g></g><g><g><path fill="rgb(255,255,255)" stroke="none" paint-order="stroke fill markers" d=" M 464.0560413692075 319.3647693197965 L 463.5602029461155 320.9559707639774 L 473.82345226108237 324.15412859292087 L 474.31929068417435 322.56292714873996 L 467.1986642214648 320.3440502054032 C 465.84614299391103 319.922587545775 465.6262231727645 318.45748900148214 466.02289391123816 317.1845278461374 C 466.51253435404146 315.61321642000877 467.69398833685744 315.04305273703943 469.56365003377005 315.6256628841725 L 475.8687857563369 317.5904226356746 L 476.3646241794289 315.9992211914937 L 469.7810282041304 313.9476897159505 C 467.2947759475977 313.17294217986927 465.42263804734074 314.138878880797 464.75325617616653 316.28700083044123 C 464.2264278516313 317.97765236488345 464.873559452437 319.05216219996316 465.75159480675205 319.80583959183406 L 465.72680288559746 319.8853996640431 Z" fill-opacity="1"/></g></g><g><g><path fill="rgb(255,255,255)" stroke="none" paint-order="stroke fill markers" d=" M 459.4552043775451 332.2210377165637 L 458.86419623247417 333.77939812103943 L 473.27902997387434 339.2462234629452 L 473.8700381189452 337.6878630584695 L 467.8703505617138 335.41248169994657 L 467.89990096896736 335.3345636797228 C 469.3709006473337 335.1571589271199 470.4126548121028 334.3490565139405 470.9445621426666 332.9465321499124 C 471.87539997115323 330.4921145128632 470.46942769832003 328.2655243454593 467.1773913438651 327.01701963899706 C 463.88535498941025 325.7685149325348 461.3564672409423 326.50280953363466 460.4256294124557 328.9572271706839 C 459.8937220818919 330.359751534712 460.13761525081526 331.65543566757486 461.1210332094981 332.7636782486644 L 461.09148280224457 332.84159626888817 Z M 461.5796586152129 330.08561155616866 C 462.2667055838578 328.2740175859656 463.8733653952493 327.6801556253745 465.6849593654523 328.36720259401943 L 467.39915581037553 329.0173115535974 C 469.21074978057857 329.70435852224233 470.01954859612437 331.21428310769335 469.3325016274795 333.0258770778963 C 468.80798189872905 334.4089219368685 467.63659650104245 335.3238304781859 466.29251065218216 334.81408595306226 L 462.6693227117762 333.4399920157725 C 461.3252368629159 332.9302474906488 461.0551388864625 331.4686564151408 461.5796586152129 330.08561155616866 Z" fill-opacity="1"/></g></g><g><g><path fill="rgb(255,255,255)" stroke="none" paint-order="stroke fill markers" d=" M 466.8725422898979 348.3374825290991 C 466.4792300180057 349.2113865481748 466.7518295788209 349.7224569461295 467.3027690691078 349.9704146827572 L 467.6067356844385 350.1072189512415 C 468.1576751747254 350.3551766878692 468.7209838060696 350.2203180282462 469.11429607796185 349.3464140091704 C 469.5076083498541 348.4725099900947 469.2350087890389 347.96143959214 468.684069298752 347.71348185551227 L 468.3801026834213 347.57667758702803 C 467.8291631931344 347.3287198504003 467.26585456179015 347.4635785100233 466.8725422898979 348.3374825290991 Z M 456.8362171035918 338.65728601598556 L 453.0740997202749 347.01636793757973 L 454.3659578354303 347.5977860786378 L 455.8537042551966 344.29214913691646 L 464.3647694844561 348.1226686544755 L 466.6391404480068 343.0692236746027 L 465.3472823328513 342.4878055335446 L 463.7569327117219 346.02141743676395 L 456.53772559761785 342.772316060263 L 458.1280752187473 339.2387041570436 Z" fill-opacity="1"/></g></g><g><g><path fill="rgb(255,255,255)" stroke="none" paint-order="stroke fill markers" d=" M 449.0062417655589 354.446532916837 C 447.6023905166767 357.121347994331 448.6960983584964 359.78939471349304 451.72140644614484 361.37719888464255 C 454.7467145337933 362.9650030557921 457.5637708052753 362.34948367982344 458.9676220541575 359.67466860232935 C 460.37147330303975 356.9998535248353 459.27776546122004 354.3318068056733 456.2524573735716 352.7440026345238 C 453.22714928592313 351.1561984633742 450.41009301444114 351.7717178393429 449.0062417655589 354.446532916837 Z M 450.2790848024354 355.11457247664987 C 451.14075901726653 353.47278942908457 452.6993540106467 352.87910123281637 454.74697106996973 353.9537735681676 L 456.1120491095184 354.67022179173506 C 458.15966616884145 355.7448941270863 458.5564532321122 357.3648459949511 457.694779017281 359.00662904251647 C 456.8331048024499 360.64841209008176 455.27450980906974 361.24210028634997 453.2268927497467 360.16742795099873 L 451.861814710198 359.4509797274313 C 449.814197650875 358.37630739208004 449.41741058760425 356.7563555242152 450.2790848024354 355.11457247664987 Z" fill-opacity="1"/></g></g><g><g><path fill="rgb(255,255,255)" stroke="none" paint-order="stroke fill markers" d="" fill-opacity="1"/></g></g><g><g><path fill="rgb(255,255,255)" stroke="none" paint-order="stroke fill markers" d="" fill-opacity="1"/></g></g><g><g><path fill="rgb(255,255,255)" stroke="none" paint-order="stroke fill markers" d="" fill-opacity="1"/></g></g><g><g><path fill="rgb(255,255,255)" stroke="none" paint-order="stroke fill markers" d=" M 418.2745725732157 399.0782626057587 C 417.5285595826948 399.92033719745115 417.6577017970205 400.5914081157362 418.1878969103084 401.0611199986568 L 418.4685884408725 401.3097909954971 C 418.99878355416035 401.77950287841765 419.6805279836867 401.8268148398935 420.4265409742076 400.984740248201 C 421.17255396472854 400.1426656565085 421.0434117504028 399.4715947382234 420.51321663711497 399.0018828553029 L 420.2325251065508 398.7532118584626 C 419.70232999326294 398.283499975542 419.0205855637366 398.2361880140662 418.2745725732157 399.0782626057587 Z" fill-opacity="1"/></g></g><g><g><path fill="rgb(255,255,255)" stroke="none" paint-order="stroke fill markers" d="" fill-opacity="1"/></g></g><g><g><path fill="rgb(255,255,255)" stroke="none" paint-order="stroke fill markers" d="" fill-opacity="1"/></g></g><g><g><path fill="rgb(255,255,255)" stroke="none" paint-order="stroke fill markers" d="" fill-opacity="1"/></g></g><g><g><path fill="rgb(255,255,255)" stroke="none" paint-order="stroke fill markers" d=" M 377.70684282223954 434.9419544951521 C 375.0492907552913 436.77633023980485 374.4464467173849 439.16696573977936 375.9731207242249 441.3787348793686 C 377.0500768065694 442.9389751251253 378.72106002983566 443.7094722127298 381.3540255204394 442.4996126810481 L 382.7937886798046 441.8349029779602 C 384.69238250101085 440.9547428903312 385.71442570054927 441.2618529474218 386.44817599841036 442.32487377420114 C 387.38311589407203 443.67936805348444 386.959626513314 445.00957159678427 385.3479497759389 446.12203172579945 C 383.8562915190067 447.15164907924964 382.584802780876 447.14329078821385 381.3125595964355 446.7304230374209 L 380.9045440546764 448.3030896461233 C 382.50330613234286 448.89560789442555 384.2797512089505 448.6819919336793 386.18290139882953 447.3683422068635 C 388.6175620020983 445.6878173311172 389.3967132210997 443.47925843316887 387.8818738964832 441.2846347907858 C 386.84042186080944 439.77583103664745 385.1682255852847 438.9302280929775 382.54709477690454 440.15723312186526 L 381.055895125921 440.85744687162384 C 379.23771797576273 441.7074137275647 378.21157701350023 441.5043897059693 377.40681862229775 440.33849589595326 C 376.4127053155183 438.8982741306394 376.77580823290003 437.4072372452435 378.50750345071793 436.21193434066333 C 379.9477252160318 435.2178210338838 381.3155630701582 435.10904555494244 383.04617831049103 435.6358665248859 L 383.50031952888594 434.0566760489425 C 381.75665655407107 433.43760372572746 379.85002997300427 433.46261921720645 377.70684282223954 434.9419544951521 Z" fill-opacity="1"/></g></g><g><g><path fill="rgb(255,255,255)" stroke="none" paint-order="stroke fill markers" d=" M 366.2716737364284 442.33684094975024 C 363.6865011430178 443.89963226341195 363.24219437360114 446.74871310353205 365.00976523870816 449.672632450562 C 366.7773361038151 452.5965517975919 369.5065515525164 453.5271715768032 372.091724145927 451.96438026314155 C 374.6768967393376 450.4015889494799 375.12120350875426 447.5525081093598 373.35363264364725 444.62858876232985 C 371.5860617785403 441.70466941529986 368.856846329839 440.7740496360886 366.2716737364284 442.33684094975024 Z M 367.0153468443088 443.5670265286836 C 368.6021079533677 442.60779599822916 370.2430617135657 442.90604888533994 371.4394054088515 444.8850430775371 L 372.2369678723754 446.2043725390018 C 373.43331156766124 448.1833667311989 372.93481214710556 449.7749641537538 371.34805103804666 450.7341946842082 C 369.7612899289877 451.6934252146626 368.1203361687897 451.39517232755185 366.9239924735039 449.41617813535476 L 366.12643000998 448.09684867389 C 364.93008631469417 446.1178544816929 365.42858573524984 444.526257059138 367.0153468443088 443.5670265286836 Z" fill-opacity="1"/></g></g><g><g><path fill="rgb(255,255,255)" stroke="none" paint-order="stroke fill markers" d=" M 352.31217964464605 450.4087771675835 L 350.8364196018907 451.1833157876564 L 355.83219370136123 460.7019680634284 L 357.30795374411656 459.92742944335544 L 353.84189341929016 453.3234032520253 C 353.1835355922281 452.0690072156832 354.06400991115413 450.87751930305717 355.2446179453584 450.2578884069988 C 356.7019309875793 449.4930315196768 357.94051171710225 449.92527903597187 358.850594595688 451.65929708620945 L 361.91970387772704 457.5069962556275 L 363.39546392048237 456.73245763555457 L 360.19081037993055 450.6265004586543 C 358.9805937860666 448.32062539184903 356.9737719900556 447.679844378684 354.98149593233586 448.7254715157825 C 353.4135008869083 449.54841879961 353.11129883932165 450.76580313369635 353.19923319786045 451.91959828147293 L 353.12544519572265 451.95832521247655 Z" fill-opacity="1"/></g></g><g><g><path fill="rgb(255,255,255)" stroke="none" paint-order="stroke fill markers" d=" M 344.6606266687669 454.1343328010278 L 347.7216221761021 460.93558581905216 C 348.30304031716014 462.22744393420766 347.35223212602557 463.3635963253479 346.1363656647028 463.9108133992849 C 344.6355305015075 464.5862844749259 343.42530795091403 464.08004192740157 342.621582873569 462.2942380623337 L 339.9111483042248 456.2718994960943 L 338.3913152275713 456.95592083851557 L 341.2214535318393 463.24423019316936 C 342.2902368793725 465.61896937544043 344.2547079430816 466.3797502030297 346.3064825965638 465.456321390761 C 347.9213052405081 464.72954871443835 348.2964597737229 463.5326319376102 348.2783502640091 462.3756324820777 L 348.35434191784174 462.3414314149567 L 349.07256432738404 463.9372561454428 L 350.59239740403757 463.25323480302154 L 346.1804597454204 453.45031145860656 Z" fill-opacity="1"/></g></g><g><g><path fill="rgb(255,255,255)" stroke="none" paint-order="stroke fill markers" d=" M 327.35116145257734 461.3021048308916 L 325.79280104810164 461.89311297596254 L 331.2596263900074 476.30794671736265 L 332.8179867944831 475.7169385722918 L 330.5426054359601 469.71725101506036 L 330.62052345618395 469.6877006078068 C 331.7287660372735 470.67111856648967 333.02445017013633 470.91501173541303 334.42697453416446 470.38310440484923 C 336.88139217121363 469.4522665763626 337.61568677231355 466.9233788278947 336.3671820658513 463.63134247343976 C 335.11867735938904 460.3393061189849 332.8920871919851 458.9333338461517 330.4376695549359 459.8641716746383 C 329.03514519090777 460.3960790052021 328.22704277772846 461.4378331699712 328.04963802512555 462.90883284833757 L 327.9717200049018 462.9383832555911 Z M 330.358324626952 461.47623218982545 C 332.169918597155 460.78918522118056 333.679843182606 461.59798403672636 334.3668901512509 463.40957800692934 L 335.0169991108289 465.1237744518526 C 335.7040460794738 466.9353684220556 335.11018411888267 468.5420282334471 333.2985901486797 469.229075202092 C 331.9155452897075 469.75359493084244 330.45395421419954 469.483496954389 329.9442096890759 468.1394111055287 L 328.57011575178603 464.5162231651227 C 328.0603712266624 463.1721373162625 328.9752797679798 462.0007519185759 330.358324626952 461.47623218982545 Z" fill-opacity="1"/></g></g><g><g><path fill="rgb(255,255,255)" stroke="none" paint-order="stroke fill markers" d="" fill-opacity="1"/></g></g><g><g><path fill="rgb(255,255,255)" stroke="none" paint-order="stroke fill markers" d="" fill-opacity="1"/></g></g><g><g><path fill="rgb(255,255,255)" stroke="none" paint-order="stroke fill markers" d="" fill-opacity="1"/></g></g><g><g><path fill="rgb(255,255,255)" stroke="none" paint-order="stroke fill markers" d=" M 277.0981524298999 473.17336375816876 C 275.9813549465396 473.30896752345603 275.6330169508037 473.89690844703216 275.71839709931794 474.6000772328516 L 275.76359835441366 474.9723430606384 C 275.8489785029279 475.6755118464579 276.32789790227366 476.1630055364879 277.444695385634 476.0274017712007 C 278.5614928689943 475.8917980059135 278.90983086473017 475.3038570823373 278.824450716216 474.60068829651783 L 278.7792494611203 474.2284224687311 C 278.69386931260607 473.5252536829116 278.2149499132602 473.03775999288155 277.0981524298999 473.17336375816876 Z" fill-opacity="1"/></g></g><g><g><path fill="rgb(255,255,255)" stroke="none" paint-order="stroke fill markers" d="" fill-opacity="1"/></g></g><g><g><path fill="rgb(255,255,255)" stroke="none" paint-order="stroke fill markers" d="" fill-opacity="1"/></g></g><g><g><path fill="rgb(255,255,255)" stroke="none" paint-order="stroke fill markers" d="" fill-opacity="1"/></g></g><g><g><path fill="rgb(255,255,255)" stroke="none" paint-order="stroke fill markers" d=" M 217.2952595257508 472.681477845626 L 219.96828236405847 487.6545120892735 L 222.2639216354102 487.93325316236394 L 228.44255292447687 474.0350043176597 L 226.64326809017413 473.8165315846969 L 224.92333844553676 477.78397745574796 L 219.85638690066128 477.16873815027805 L 219.1359072298076 472.9049729402661 Z M 220.0866993969805 478.7287065130752 L 224.32639354677426 479.24349858499903 L 221.45334498619818 485.9670464163745 L 221.26721207230477 485.9444457888266 Z" fill-opacity="1"/></g></g><g><g><path fill="rgb(255,255,255)" stroke="none" paint-order="stroke fill markers" d=" M 213.6434931777913 472.0843182871042 L 212.00412666621273 471.78389322408105 L 211.6886803500384 473.50522806123854 L 211.60671202445945 473.4902068080874 C 211.16705807556406 472.0752803417222 210.18441101874558 471.1962547381554 208.70898115832486 470.92587218143456 C 206.1269789025886 470.45270270717305 204.1902940745222 472.23699911816897 203.55564612888574 475.7001608738787 C 202.92099818324928 479.16332262958844 204.09910972718217 481.51842666032843 206.68111198291842 481.99159613458994 C 208.15654184333914 482.2619786913108 209.38703957715174 481.78852692282527 210.29986300030865 480.6214511334542 L 210.3818313258876 480.63647238660536 L 209.22519483324834 486.9480334561828 L 210.8645613448269 487.24845851920605 Z M 209.0776084381285 472.497224672382 C 210.53254621715448 472.76385191581505 211.6436165905849 473.75113303797536 211.38449997372743 475.16508665421185 L 210.68601170219853 478.97661379363205 C 210.42689508534104 480.39056740986854 209.03793152861417 480.9197003109185 207.58299374958818 480.6530730674854 C 205.6772301798781 480.30382893172094 204.80348720840553 478.8305329677069 205.15273134416998 476.92476939799684 L 205.48319891349547 475.1214662352604 C 205.8324430492599 473.21570266555034 207.1718448684184 472.1479805366176 209.0776084381285 472.497224672382 Z" fill-opacity="1"/></g></g><g><g><path fill="rgb(255,255,255)" stroke="none" paint-order="stroke fill markers" d=" M 200.60412553183568 469.5587723821797 L 191.7038255387635 467.36504545954375 L 191.36479501435616 468.740546367564 L 195.00582682970384 469.63798010864235 L 191.65540752967803 483.2311655526071 L 196.9146757074025 484.52745873416467 L 197.25370623180987 483.15195782614444 L 193.61267441646217 482.25452408506607 L 196.6240631920806 470.0368395491216 L 200.2650950074283 470.93427329019994 Z" fill-opacity="1"/></g></g><g><g><path fill="rgb(255,255,255)" stroke="none" paint-order="stroke fill markers" d=" M 182.95717848357282 464.51773292519783 C 180.92839664224218 463.8855389357555 179.14663629194231 464.4213892970085 178.10238509240537 465.6016631536664 L 179.02797694594278 466.7629447127872 C 179.91209432951825 465.8164491696541 181.15710659804992 465.462483530887 182.52951784365598 465.89014417080386 C 184.45884959472534 466.49134825880293 185.26307399686237 468.1821662478598 184.69905779059522 469.9921578906156 L 184.5503062636676 470.46951832386986 L 176.95231936770375 468.10188985360554 L 176.71679611673505 468.8577105395915 C 175.81189099459215 471.7616531752216 176.94500670869877 474.42781331473986 179.7097192179631 475.2893325748622 C 182.49432174527968 476.15704981527324 185.08063940694595 474.6499119897326 186.1033061545732 471.36805901110944 C 187.11357694162317 468.12598606859086 185.9009011553075 465.43503400791803 182.95717848357282 464.51773292519783 Z M 180.118785917014 473.976591383413 C 178.42813438257178 473.4497630588777 177.65878811343694 471.8570990828958 178.2228043197041 470.04710744014 L 178.29098210287924 469.8283172415652 L 184.1784274463486 471.6629194070056 L 184.13504158432806 471.8021495333714 C 183.57722335834956 473.59225115807493 181.86910750561302 474.52201364881415 180.118785917014 473.976591383413 Z" fill-opacity="1"/></g></g><g><g><path fill="rgb(255,255,255)" stroke="none" paint-order="stroke fill markers" d=" M 165.81153227278574 458.7090565943931 L 165.30917534947548 460.03366293819744 L 169.88685903762283 461.76974936434317 L 167.0795703485361 469.1719612856027 L 162.50188666038875 467.43587485945693 L 161.9995297370785 468.7604812032613 L 166.57721342522584 470.496567629407 L 165.23266989518956 474.0418375495892 L 166.7325917844974 474.61068288921996 L 167.72991802930454 471.9809497066672 C 167.98848409277306 471.2991670297091 168.330368880261 471.1614517926118 168.99267205216316 471.4126302542669 L 171.48604869932427 472.35824328638034 L 171.98840562263453 471.03363694257604 L 168.6379307530118 469.7629694306736 L 171.0758393514292 463.3347327622114 C 171.58558387655287 461.9906469133511 171.24631418339473 460.7701975003278 169.72691278903093 460.1939645588837 Z" fill-opacity="1"/></g></g><g><g><path fill="rgb(255,255,255)" stroke="none" paint-order="stroke fill markers" d=" M 157.75972197449298 454.94949038672223 C 155.00502452305852 453.70970170358373 152.40788194657335 454.96250678670594 151.0056381946098 458.07816459384554 C 149.6033944426462 461.1938224009852 150.387880461715 463.9685749709947 153.14257791314947 465.2083636541333 C 155.8972753645839 466.4481523372718 158.49441794106906 465.19534725414957 159.89666169303266 462.0796894470099 C 161.29890544499625 458.9640316398703 160.5144194259274 456.1892790698608 157.75972197449298 454.94949038672223 Z M 157.16975356665463 456.26034641533585 C 158.86056786443163 457.02132015877953 159.54727853256767 458.5412255788784 158.59819891995815 460.6499939727351 L 157.9654791782185 462.0558395686396 C 157.016399565609 464.1646079624963 155.4233606187648 464.6584813689633 153.7325463209878 463.8975076255196 C 152.04173202321078 463.136533882076 151.35502135507477 461.6166284619771 152.30410096768426 459.5078600681204 L 152.93682070942393 458.1020144722159 C 153.88590032203342 455.9932460783592 155.47893926887764 455.4993726718922 157.16975356665463 456.26034641533585 Z" fill-opacity="1"/></g></g><g><g><path fill="rgb(255,255,255)" stroke="none" paint-order="stroke fill markers" d=" M 147.687820355354 450.4087771675835 L 144.22176003052755 457.01280335891363 C 143.56340220346556 458.2671993952557 142.082660453983 458.219425515765 140.90205241977873 457.5997946197067 C 139.44473937755782 456.8349377323846 139.09687806111876 455.5700611995111 140.00696093970447 453.83604314927356 L 143.07607022174352 447.9883439798555 L 141.60031017898817 447.21380535978255 L 138.39565663843635 453.3197625366828 C 137.18544004457237 455.62563760348803 137.79809232445209 457.6412246672826 139.79036838217183 458.6868518043811 C 141.3583634275994 459.5097990882086 142.53192142276808 459.0669533741952 143.43152380482232 458.3391544674587 L 143.5053118069601 458.37788139846236 L 142.6920462558835 459.92742944335544 L 144.16780629863882 460.7019680634284 L 149.16358039810936 451.1833157876564 Z" fill-opacity="1"/></g></g><g><g><path fill="rgb(255,255,255)" stroke="none" paint-order="stroke fill markers" d="" fill-opacity="1"/></g></g><g><g><path fill="rgb(255,255,255)" stroke="none" paint-order="stroke fill markers" d=" M 118.15624014205231 432.39021950353475 L 117.292308339732 433.64184079958136 L 122.96746791495701 437.5591206155816 L 115.57079152522843 448.27505636940526 L 117.01101329054232 449.2691696761848 L 125.27162148259121 437.3016126263145 Z" fill-opacity="1"/></g></g><g><g><path fill="rgb(255,255,255)" stroke="none" paint-order="stroke fill markers" d=" M 102.61902946825559 437.03692040494445 C 101.86464529933859 436.4458981520088 101.3031883333348 436.588269313232 100.93058734778839 437.0638593327666 L 100.72501439024555 437.32625382630295 C 100.35241340469913 437.8018438458376 100.34854473746009 438.38105754183937 101.1029289063771 438.972079794775 C 101.8573130752941 439.56310204771074 102.41877004129789 439.4207308864875 102.7913710268443 438.9451408669529 L 102.99694398438714 438.68274637341653 C 103.36954496993356 438.2071563538819 103.3734136371726 437.62794265788017 102.61902946825559 437.03692040494445 Z M 114.41978689270617 429.6088552472434 L 107.20393832045653 423.9555989148151 L 106.33025325089943 425.0707755123446 L 109.18379336810725 427.30638142562304 L 103.42775055690751 434.65342724464085 L 107.79005901194932 438.0710776637907 L 108.66374408150644 436.9559010662612 L 105.61340809414637 434.5661154348256 L 110.49576583578899 428.3342462133373 L 113.54610182314906 430.72403184477287 Z" fill-opacity="1"/></g></g><g><g><path fill="rgb(255,255,255)" stroke="none" paint-order="stroke fill markers" d=" M 100.00210922588934 417.71035051411695 L 89.98865547455802 423.2010558116532 L 91.22057941425628 424.2924451866745 L 95.35858544643698 421.9464609180258 L 99.82501126359934 419.41826942501325 L 99.88738715928027 419.4735296465333 L 97.91599716935491 424.2121300003485 L 96.08589927736844 428.6027424652397 L 97.34901116490717 429.72176195102105 L 101.59269456575294 419.1194861628786 Z" fill-opacity="1"/></g></g><g><g><path fill="rgb(255,255,255)" stroke="none" paint-order="stroke fill markers" d=" M 90.94516840685098 408.7896665502041 C 89.44256649682957 407.2870646401827 87.61587397876433 406.9335112495894 86.14273485129235 407.4933041180288 L 86.42263128551203 408.951711854226 C 87.64533676131377 408.5245015072592 88.91223641093967 408.7896665502041 89.92870240889533 409.8061325481598 C 91.35764736254315 411.2350775018076 91.28399040616955 413.105964193697 89.94343380017004 414.4465207996965 L 89.58988040957678 414.80007419028976 L 83.96248894263383 409.17268272334684 L 83.40269607419448 409.73247559178617 C 81.2519129480854 411.8832587178953 81.01621068768989 414.7706114077403 83.06387407487593 416.81827479492637 C 85.1262688533367 418.88066957338714 88.1167412821048 418.74808705191464 90.54742084243355 416.3174074915859 C 92.94863762021288 413.9161907138066 93.12541431550952 410.9699124588626 90.94516840685098 408.7896665502041 Z M 84.03614589900744 415.84600297079487 C 82.78397764065625 414.5938347124437 82.84290320575514 412.8260677594773 84.18345981175463 411.48551115347783 L 84.34550511577655 411.3234658494559 L 88.70599693309359 415.6839576667729 L 88.60287719417055 415.787077405696 C 87.27705197944577 417.11290262042075 85.33250833118277 417.1423654029702 84.03614589900744 415.84600297079487 Z" fill-opacity="1"/></g></g><g><g><path fill="rgb(255,255,255)" stroke="none" paint-order="stroke fill markers" d="" fill-opacity="1"/></g></g><g><g><path fill="rgb(255,255,255)" stroke="none" paint-order="stroke fill markers" d="" fill-opacity="1"/></g></g><g><g><path fill="rgb(255,255,255)" stroke="none" paint-order="stroke fill markers" d="" fill-opacity="1"/></g></g><g><g><path fill="rgb(255,255,255)" stroke="none" paint-order="stroke fill markers" d=" M 57.60967272073089 366.3040073498145 C 57.027667679781025 365.3412534184754 56.34856206804372 365.26490253769606 55.74238366683019 365.6313501560719 L 55.42146568971715 365.8253518363885 C 54.815287288503626 366.19179945476435 54.567296521914365 366.8285996342362 55.14930156286423 367.7913535655753 C 55.7313066038141 368.75410749691446 56.4104122155514 368.8304583776938 57.01659061676493 368.46401075931794 L 57.33750859387797 368.27000907900134 C 57.9436869950915 367.9035614606255 58.19167776168076 367.26676128115366 57.60967272073089 366.3040073498145 Z" fill-opacity="1"/></g></g><g><g><path fill="rgb(255,255,255)" stroke="none" paint-order="stroke fill markers" d="" fill-opacity="1"/></g></g><g><g><path fill="rgb(255,255,255)" stroke="none" paint-order="stroke fill markers" d="" fill-opacity="1"/></g></g><g><g><path fill="rgb(255,255,255)" stroke="none" paint-order="stroke fill markers" d="" fill-opacity="1"/></g></g><g><g><path fill="rgb(255,255,255)" stroke="none" paint-order="stroke fill markers" d=" M 36.50177685677109 321.1548709445002 L 34.84691611970152 315.8442361245464 C 34.17753424852731 313.6961141749022 31.9313742368363 312.65033499612247 29.683802196930767 313.35070676873994 C 27.754470445861415 313.951910856739 27.133144437753664 315.38934291986175 27.258566575327663 317.05232797313386 L 27.19889652117088 317.07092191399977 C 26.40442542165205 315.92192036442805 25.19068546020651 315.3181746256429 23.539813961868816 315.83260698960083 C 21.37180199417233 316.50818684106366 20.412063273533228 318.4002147593729 21.14962292788259 320.767126907592 L 22.618544256292655 325.481061185978 Z M 34.5291751947094 319.9365619891817 L 29.497000627487274 321.50465100221015 L 28.517719741880562 318.3620281499529 C 28.040475259654507 316.83049675992874 28.465210835969366 315.67253862108106 29.85751209962766 315.23868000087555 L 30.673002839770376 314.98456280904094 C 32.08519412148093 314.54450620854675 33.072649826876635 315.2624077469003 33.54989430910269 316.7939391369244 Z M 28.124589381881243 321.93231164212705 L 23.549885229861125 323.3578471085165 L 22.65737606829552 320.4936845089909 C 22.223517448090014 319.1013832453326 22.593484873350423 318.0477770998486 23.86644602869515 317.65110636137496 L 24.642156732733344 317.40938513011764 C 25.915117888078072 317.012714391644 26.798221600110125 317.6758477789431 27.23208022031563 319.0681490426014 Z" fill-opacity="1"/></g></g><g><g><path fill="rgb(255,255,255)" stroke="none" paint-order="stroke fill markers" d=" M 31.735954846440894 303.6041439578612 C 31.22740905982983 301.5408925958308 29.847066350901045 300.2933111109319 28.296779455165378 300.01026078792427 L 27.78182011133046 301.40313982541676 C 29.049200626155937 301.6700929893834 29.99620971647758 302.5524313627246 30.340225983890942 303.94816022527453 C 30.82384305547205 305.91027181465637 29.792928379876667 307.473236079364 27.95218451767311 307.9269386929092 L 27.466713608960085 308.04659652505296 L 25.562159780671603 300.31951789470395 L 24.793497508542643 300.50897612893164 C 21.84021614720507 301.2368946078063 20.144769837595042 303.58589927411515 20.837788115427763 306.39758495374474 C 21.535792136266473 309.22949858790406 24.16357238799678 310.66312141865086 27.501184885398832 309.8404738226624 C 30.798341473741466 309.02779771268587 32.47384481132753 306.5978812282582 31.735954846440894 303.6041439578612 Z M 22.17283311438858 306.06852591534937 C 21.749044958879367 304.34914978032407 22.714005045373888 302.8668123512295 24.55474890757744 302.41310973768435 L 24.777256407404245 302.3582665646184 L 26.25303633717752 308.3457411054124 L 26.11144065546955 308.3806413064544 C 24.290924747795707 308.82935817699354 22.611578498915772 307.8485859139638 22.17283311438858 306.06852591534937 Z" fill-opacity="1"/></g></g><g><g><path fill="rgb(255,255,255)" stroke="none" paint-order="stroke fill markers" d=" M 27.74669261494529 285.4343631594458 L 26.312246917314038 285.6972350895911 L 26.582629474034896 287.17266495001184 L 20.762878357930965 288.2391739237441 C 18.52924148590516 288.64850307211316 17.486415318407374 290.47048870321385 17.94080822622993 292.95003055197645 C 18.335116121447847 295.10169909842335 19.607570868178577 296.2664108060862 20.81178140897665 296.5964180048086 L 21.42867774722529 295.33963307798143 C 20.364156462902557 294.9628466048498 19.61216294436816 294.2110832716169 19.35304632751067 292.79712965538045 C 19.060131891063072 291.1987473065913 19.690333967507087 290.13014642560455 21.227240072111996 289.8484979290203 L 22.272336223243336 289.65697695134304 L 22.685420684900205 291.9111059047636 C 23.26749424450761 295.0873785209471 24.64616471149979 296.2538057435657 26.592912443999346 295.8970509812257 C 28.580644339288362 295.53278559231006 29.5510526061148 293.8935131788062 29.145478771033513 291.6803683881751 C 28.83003245485918 289.9590335510176 27.887815092152394 289.09386815432396 26.596165397531824 288.86460584761943 L 26.577388831092875 288.7621454406458 C 27.53847685831328 288.4589379144635 28.186064269616683 287.8319366826295 27.95323484577372 286.56142763615605 Z M 27.719934931557404 291.6450852389308 C 27.967785608551523 292.9975626109831 27.5479751742984 293.9428867202252 26.461894860377598 294.14191832447807 L 26.031561151088223 294.22077990352165 C 25.006957081351615 294.4085455679111 24.271700330924155 293.6325348399958 23.914945568584134 291.6857871074962 L 23.501861106927265 289.4316581540757 L 25.2436880254795 289.11245652461355 C 26.329768339400303 288.9134249203607 27.411999241958647 289.9647345645627 27.719934931557404 291.6450852389308 Z" fill-opacity="1"/></g></g><g><g><path fill="rgb(255,255,255)" stroke="none" paint-order="stroke fill markers" d=" M 26.072976458402383 272.44674877523613 L 24.666638886763472 272.6175090722645 L 25.256766383846827 277.4776462683696 L 17.39782113057057 278.43189498705755 L 16.80769363348721 273.5717577909525 L 15.401356061848302 273.7425180879809 L 15.991483558931657 278.6026552840859 L 12.22746241130987 279.0596901967207 L 12.420823335886118 280.652160682253 L 15.212817044286894 280.3131512690349 C 15.936667264983392 280.2252599396821 16.217489834410387 280.4639844230198 16.302869982924577 281.16715320883924 L 16.624301130272105 283.8143768731007 L 18.030638701911016 283.64361657607236 L 17.598715597662775 280.086409777221 L 24.423589107086894 279.25772010046563 C 25.850608113602846 279.0844486225986 26.77359591238645 278.2168691059311 26.57772380697155 276.60371718552176 Z" fill-opacity="1"/></g></g><g><g><path fill="rgb(255,255,255)" stroke="none" paint-order="stroke fill markers" d=" M 25.62685658218344 267.1619576559814 L 17.745428768628496 267.6386962085449 C 16.60168594608095 267.7078799035079 15.981680311895081 267.1192409722813 15.927591241287617 266.22504203828964 C 15.868470629228295 265.24766180811264 16.452666746127086 264.8992532718919 18.282655262203164 264.788559359951 L 25.45704205818326 264.3545889097283 L 25.3639585413239 262.8157349303007 L 17.482530727768957 263.2924734828642 C 16.338787905221405 263.3616571778272 15.718782271035542 262.77301824660066 15.66595108579104 261.89961463665526 C 15.605572588368753 260.9014390824319 16.189768705267543 260.5530305462112 18.019757221343625 260.4423366342703 L 25.19414401732372 260.00836618404765 L 25.10106050046436 258.46951220462 L 17.656334491882117 258.9198351645612 C 15.389644170833334 259.05694466912433 14.148802881993083 259.5911728052842 14.254465252482085 261.337980025175 C 14.331196259622907 262.60649479200043 15.078489608812616 263.2291770591419 16.079769660885937 263.5651676039626 L 16.083543316974826 263.6275535761016 C 15.092915074929296 263.81270401780176 14.44314805692673 264.45727863212284 14.517363293341624 265.68420275085566 C 14.589062759030591 266.8695362214959 15.287218147949876 267.36996231508533 16.139157275610067 267.65237208530783 L 16.144188817061924 267.7355533814931 L 14.896469374282779 267.81102650327097 L 14.989552891142138 269.3498804826986 L 25.719940099042798 268.700811635409 Z" fill-opacity="1"/></g></g><g><g><path fill="rgb(255,255,255)" stroke="none" paint-order="stroke fill markers" d=" M 25 244.79166666666669 L 23.541666666666664 244.79166666666669 L 23.541666666666664 246.29166666666669 L 17.625 246.29166666666669 C 15.354166666666668 246.29166666666669 14 247.89583333333337 14 250.41666666666669 C 14 252.60416666666669 15.041666666666668 253.97916666666669 16.166666666666668 254.52083333333337 L 17 253.39583333333337 C 16.020833333333336 252.83333333333337 15.416666666666668 251.95833333333337 15.416666666666668 250.52083333333337 C 15.416666666666668 248.89583333333337 16.229166666666668 247.95833333333337 17.791666666666668 247.95833333333337 L 18.854166666666668 247.95833333333337 L 18.854166666666668 250.25000000000003 C 18.854166666666668 253.47916666666669 20 254.87500000000003 21.979166666666668 254.87500000000003 C 24 254.87500000000003 25.25 253.43750000000003 25.25 251.18750000000003 C 25.25 249.43750000000003 24.479166666666668 248.41666666666669 23.25 247.95833333333337 L 23.25 247.85416666666669 C 24.25 247.72916666666669 25 247.22916666666669 25 245.93750000000003 Z M 23.854166666666668 250.89583333333337 C 23.854166666666668 252.27083333333337 23.270833333333336 253.12500000000003 22.166666666666668 253.12500000000003 L 21.729166666666668 253.12500000000003 C 20.6875 253.12500000000003 20.104166666666668 252.22916666666669 20.104166666666668 250.25000000000003 L 20.104166666666668 247.95833333333337 L 21.875 247.95833333333337 C 22.979166666666668 247.95833333333337 23.854166666666668 249.18750000000003 23.854166666666668 250.89583333333337 Z" fill-opacity="1"/></g></g><g><g><path fill="rgb(255,255,255)" stroke="none" paint-order="stroke fill markers" d=" M 25.165212653975516 240.46992626901798 L 25.26584348301266 238.80630034531245 L 21.377117886350984 238.57107578243813 L 19.804648435902955 236.61840322791562 L 25.6306302382723 232.7756563718799 L 25.755160889205765 230.71691929129432 L 18.924794536913097 235.29202573439377 L 14.993326547230994 230.5877335451627 L 14.870053781660495 232.625675301702 L 17.939358698549057 236.40121692501722 L 19.593751559819395 238.3797163450379 L 19.58872001836754 238.46289764122318 L 9.877303688736514 237.87546517671888 L 9.776672859699373 239.5390911004244 Z" fill-opacity="1"/></g></g><g><g><path fill="rgb(255,255,255)" stroke="none" paint-order="stroke fill markers" d=" M 13.691557142237757 220.635397098136 C 13.807071460815775 219.68405109379202 13.394769967777929 219.27722072243193 12.795008356343686 219.20439647811102 L 12.464105398311002 219.16421758469258 C 11.864343786876761 219.09139334037167 11.366662145324726 219.38773175483104 11.251147826746708 220.33907775917498 C 11.135633508168691 221.29042376351896 11.54793500120654 221.69725413487905 12.14769661264078 221.77007837919996 L 12.478599570673465 221.8102572726184 C 13.078361182107708 221.88308151693934 13.57604282365974 221.58674310247997 13.691557142237757 220.635397098136 Z M 26.15333424523924 226.89144530869876 L 27.258253814246363 217.79161396279994 L 25.85191624260745 217.62085366577156 L 25.41497077668191 221.219423334377 L 16.149687951766737 220.09441431866068 L 15.48171384868516 225.59567599595405 L 16.88805142032407 225.76643629298243 L 17.355131056313446 221.91968940585247 L 25.214076309589707 222.87393812454044 L 24.746996673600332 226.7206850116704 Z" fill-opacity="1"/></g></g><g><g><path fill="rgb(255,255,255)" stroke="none" paint-order="stroke fill markers" d=" M 28.227372715782344 211.94265042202855 L 20.89120757646823 210.59824826499985 C 19.497746041626442 210.34288696143014 19.102831568808288 208.9149790402458 19.34317161922683 207.60348583098295 C 19.639841368962216 205.9846114007991 20.743955584494852 205.27619631206395 22.670211235599673 205.6291957611162 L 29.166201037729767 206.8196300733455 L 29.466626100752944 205.18026356176694 L 22.683747159096598 203.93725486350854 C 20.122236984755077 203.46784070253483 18.380179880901295 204.65239592483996 17.97460604582001 206.86554071547104 C 17.655404416357882 208.60736763402326 18.427335547609243 209.5960399877631 19.38981480640921 210.23838675612447 L 19.37479355325805 210.3203550817034 L 17.65345871610055 210.00490876552908 L 17.35303365307737 211.64427527710765 L 27.926947652759168 213.58201693360712 Z" fill-opacity="1"/></g></g><g><g><path fill="rgb(255,255,255)" stroke="none" paint-order="stroke fill markers" d=" M 34.032819320954715 191.16863824039888 C 32.333671140459124 190.74983582789565 30.957174244513343 191.6335991137656 30.29407042471657 194.32391706621695 L 29.72569572203362 196.62990388260383 C 29.481394314740072 197.62107365455958 29.17028337082842 198.27392390752777 28.543216780407427 198.11936587434207 C 27.8352383718676 197.94486486913237 27.685522139590432 196.98531945024703 27.71871244559789 196.32833840179012 C 27.859168197282873 196.01964835833272 27.959168039908434 195.70098682886336 28.043925671010278 195.35711160185832 C 28.64720057473516 192.90952910376348 27.569419334545636 190.9273335019494 25.445484108926145 190.40383048632035 C 24.35317456432184 190.13460036399687 23.338216007359108 190.33502897385117 22.50644897118675 190.92391951525872 L 21.79847056264692 190.74941851004903 L 22.37681675134185 188.40297578460275 L 20.96085993426219 188.0539737741834 L 20.487214348693065 189.9756294545058 C 20.26285591342348 190.8858874083427 20.78493691821292 191.3793349255275 21.594055099401295 191.5787646457671 L 21.77610669016868 191.62363633282104 C 21.348328779579017 192.14044661209874 21.037217835667363 192.79329686506694 20.842773858433723 193.5821870917256 C 20.23949895470884 196.02976958982043 21.322265937904355 197.99173723710481 23.446201163523845 198.51524025273383 C 24.922841844192632 198.87919949217115 26.265293486613718 198.39472457138368 27.145778022823002 197.25996424017973 L 27.226689840941837 197.27990721220368 C 27.22540887051055 198.41680346135618 27.511450058983947 199.34557947468832 28.583531649058543 199.60982385400584 C 29.291510057598373 199.7843248592155 29.821282688353826 199.55013597834224 30.249060598943487 199.03332569906453 L 30.4917960533 199.09315461513643 C 30.510743037398424 200.23503660729492 30.96302364010399 201.01167548789562 32.07556113923801 201.2858913532251 C 33.73425341067418 201.69472227971636 35.00376984344819 200.5485655499717 35.831403182442656 197.19072509803993 C 36.68895097947307 193.7115169189299 36.1365265920445 191.68715551302193 34.032819320954715 191.16863824039888 Z M 33.739800413624245 192.70567780215106 C 34.872565867287975 192.98487941048654 35.18496068332006 194.2420034567943 34.72128658376291 196.12320322805726 L 34.33239862929563 197.7009836813746 C 33.913596216792406 199.4001318618702 32.98040442546575 199.87819612712295 32.07014647162883 199.65383769185337 C 31.40262397214842 199.48930817265568 31.027124392072935 199.0105329019831 30.91344829086069 198.25298204588913 L 31.805896288933038 194.63217818507115 C 32.21971295843027 192.95325795910526 32.91045427790616 192.50126233890543 33.739800413624245 192.70567780215106 Z M 26.789792490168292 195.04799553548688 C 26.39591879269502 196.64600394333394 25.382100165755276 197.19002279768756 24.148194939443 196.8858924743221 L 23.561584258081428 196.74130592714837 C 22.32767903176915 196.43717560378295 21.70303334180244 195.48931156594406 22.09690703927571 193.89130315809703 C 22.49576647975497 192.27306679572027 23.489357152165006 191.72406219836066 24.72326237847728 192.02819252172608 L 25.309873059838853 192.1727790688998 C 26.543778286151127 192.47690939226527 27.188651930647556 193.4297591731101 26.789792490168292 195.04799553548688 Z" fill-opacity="1"/></g></g><g><g><path fill="rgb(255,255,255)" stroke="none" paint-order="stroke fill markers" d="" fill-opacity="1"/></g></g><g><g><path fill="rgb(255,255,255)" stroke="none" paint-order="stroke fill markers" d="" fill-opacity="1"/></g></g><g><g><path fill="rgb(255,255,255)" stroke="none" paint-order="stroke fill markers" d="" fill-opacity="1"/></g></g><g><g><path fill="rgb(255,255,255)" stroke="none" paint-order="stroke fill markers" d=" M 50.938417232837686 145.5244218849104 C 51.461230801386925 144.52828385605054 51.17524344250967 143.907618793838 50.548045424338646 143.578439880307 L 50.215999414718695 143.40416869079058 C 49.588801396547666 143.0749897772596 48.91554472763394 143.1922047364247 48.392731159084704 144.18834276528457 C 47.869917590535465 145.18448079414443 48.155904949412715 145.80514585635697 48.783102967583744 146.134324769888 L 49.115148977203695 146.30859595940439 C 49.74234699537472 146.6377748729354 50.41560366428845 146.52055991377026 50.938417232837686 145.5244218849104 Z" fill-opacity="1"/></g></g><g><g><path fill="rgb(255,255,255)" stroke="none" paint-order="stroke fill markers" d="" fill-opacity="1"/></g></g><g><g><path fill="rgb(255,255,255)" stroke="none" paint-order="stroke fill markers" d="" fill-opacity="1"/></g></g><g><g><path fill="rgb(255,255,255)" stroke="none" paint-order="stroke fill markers" d="" fill-opacity="1"/></g></g><g><g><path fill="rgb(255,255,255)" stroke="none" paint-order="stroke fill markers" d=" M 75.19738045539113 98.6453561065254 L 76.73085160257295 96.91442500137973 L 83.7264152454047 98.38033593818535 L 85.02503045112626 96.9145023896836 L 77.85657046957346 95.51808302271978 C 79.21850790363276 93.63518630839393 78.93846015955711 91.68926991189862 77.1919350804912 90.14198370933677 C 75.22709436654206 88.40128673145468 73.09049244592356 88.45673575236962 71.30835030190143 90.46835838807947 L 67.79932623537722 94.4292277638182 L 78.68392003169865 104.07213641906976 L 79.84438468362005 102.76224260977034 Z M 74.0902083070547 97.66448717454423 L 70.09815098347549 94.12783299725999 L 72.41908028731828 91.50804537866114 C 73.38613416391944 90.41646720424495 74.54334352492869 90.27267734865585 75.55695182974372 91.17065594835692 L 76.36783847359574 91.88903882811778 C 77.38144677841078 92.78701742781885 77.37819148749864 93.95312138152919 76.41113761089748 95.04469955594537 Z" fill-opacity="1"/></g></g><g><g><path fill="rgb(255,255,255)" stroke="none" paint-order="stroke fill markers" d=" M 91.21033344979588 90.94516840685101 C 92.7129353598173 89.4425664968296 93.06648875041057 87.61587397876436 92.50669588197123 86.14273485129237 L 91.04828814577397 86.42263128551205 C 91.47549849274084 87.6453367613138 91.21033344979588 88.9122364109397 90.19386745184022 89.92870240889536 C 88.7649224981924 91.35764736254318 86.89403580630301 91.28399040616958 85.55347920030351 89.94343380017008 L 85.19992580971024 89.5898804095768 L 90.82731727665318 83.96248894263385 L 90.26752440821382 83.40269607419451 C 88.11674128210474 81.25191294808543 85.22938859225967 81.01621068768992 83.18172520507363 83.06387407487595 C 81.11933042661286 85.12626885333673 81.25191294808535 88.11674128210483 83.6825925084141 90.54742084243358 C 86.08380928619341 92.9486376202129 89.03008754113736 93.12541431550954 91.21033344979588 90.94516840685101 Z M 84.15399702920513 84.03614589900747 C 85.4061652875563 82.78397764065629 87.17393224052267 82.84290320575516 88.51448884652217 84.18345981175466 L 88.67653415054409 84.34550511577658 L 84.31604233322705 88.70599693309362 L 84.21292259430402 88.60287719417057 C 82.88709737957923 87.2770519794458 82.8576345970298 85.3325083311828 84.15399702920513 84.03614589900747 Z" fill-opacity="1"/></g></g><g><g><path fill="rgb(255,255,255)" stroke="none" paint-order="stroke fill markers" d=" M 104.6958953758788 78.13131781649818 L 103.72884149927765 77.039739642082 L 102.606075377021 78.0344236294432 L 98.68259964909629 73.60573503609751 C 97.17675861267449 71.9059918787923 95.0780440211156 71.95614283823855 93.19117317676762 73.62776453922055 C 91.55380591514334 75.07834535412229 91.2153564054089 76.76983770521495 91.55592607400379 77.97110373678787 L 92.95060288089694 77.84884970307623 C 92.7223325738824 76.7429264335649 92.97664287251163 75.71046886391751 94.05262707300759 74.75723004269636 C 95.26895703878563 73.67965572305508 96.50947302501669 73.66614321384334 97.54560217851792 74.83569125786069 L 98.25017000289877 75.63098392779249 L 96.53483287167333 77.1506400195943 C 94.11776691403749 79.29197360349687 93.8327987072829 81.0752508795707 95.14522896838447 82.55667840199267 C 96.48528934024608 84.0692938722551 98.39017686354303 84.05169348624784 100.07432604692801 82.55966750520605 C 101.38421985622745 81.39920285328466 101.63716752925816 80.14528810461529 101.16514668808227 78.92131242496129 L 101.24311655768342 78.85223714806119 C 101.99980305944561 79.51785756395219 102.87140042721175 79.74767929596013 103.8382268102661 78.8911458623991 Z M 99.36703297135014 81.32146047723032 C 98.33783069261487 82.23325413231142 97.31165621124494 82.36304013312562 96.57945827610405 81.53655951535336 L 96.28934211312371 81.20908606302851 C 95.59858934412287 80.42938736701694 95.88230867205236 79.39870871590975 97.36373619447433 78.08627845480818 L 99.07907332569977 76.56662236300636 L 100.25335303300118 77.89211014622602 C 100.98555096814205 78.71859076399828 100.6457388328091 80.18862593606896 99.36703297135014 81.32146047723032 Z" fill-opacity="1"/></g></g><g><g><path fill="rgb(255,255,255)" stroke="none" paint-order="stroke fill markers" d=" M 108.04032076860342 75.38913728301726 L 109.35229323628518 74.36127249530303 L 106.94965929500314 71.29453685209694 L 107.36851556773841 68.82266515223708 L 114.10819343163152 70.63526263983891 L 115.73175936038768 69.36327996504254 L 107.77787232141007 67.28453408268797 L 108.6920400834803 61.222265294655955 L 107.08487381057014 62.4813996596059 L 106.29416596079001 67.28245457686296 L 105.91030327159442 69.83277320995334 L 105.84470464821034 69.88416644933906 L 99.84454394992846 62.225527169246845 L 98.53257148224671 63.25339195696108 Z" fill-opacity="1"/></g></g><g><g><path fill="rgb(255,255,255)" stroke="none" paint-order="stroke fill markers" d=" M 126.06031435407255 62.15399199140145 L 125.25555596287008 60.98809818138544 L 121.22636411943238 63.769248503923386 L 116.7291848744774 57.253959565598606 L 120.75837671791508 54.47280924306066 L 119.95361832671261 53.306915433044644 L 115.92442648327493 56.08806575558259 L 113.77051431858597 52.96758526406914 L 112.45031103371488 53.87885579528371 L 114.04799313389626 56.19349791810962 C 114.46220701172106 56.793590320323744 114.38133173472433 57.15318715570351 113.79838482971631 57.55556635130475 L 111.60376118733323 59.070405675921165 L 112.4085195785357 60.23629948593718 L 115.35754509798797 58.20073414348387 L 119.26299023176466 63.85874822150276 C 120.07958330519071 65.04178752872488 121.27672063356567 65.45586833177629 122.61406941564286 64.53276311833817 Z" fill-opacity="1"/></g></g><g><g><path fill="rgb(255,255,255)" stroke="none" paint-order="stroke fill markers" d=" M 133.72832626357155 57.66315905024973 C 136.3134988569822 56.10036773658806 136.75780562639878 53.25128689646796 134.9902347612918 50.327367549438016 C 133.2226638961848 47.40344820240807 130.49344844748353 46.47282842319678 127.90827585407291 48.03561973685845 C 125.3231032606623 49.59841105052012 124.87879649124568 52.44749189064022 126.64636735635268 55.37141123767017 C 128.4139382214597 58.29533058470012 131.14315367016093 59.22595036391141 133.72832626357155 57.66315905024973 Z M 132.98465315569118 56.4329734713164 C 131.39789204663225 57.39220400177081 129.75693828643426 57.09395111466003 128.56059459114843 55.11495692246294 L 127.76303212762456 53.795627460998205 C 126.56668843233872 51.816633268801105 127.06518785289437 50.225035846246186 128.6519489619533 49.26580531579178 C 130.23871007101224 48.306574785337375 131.8796638312102 48.60482767244815 133.07600752649603 50.58382186464525 L 133.87356999001992 51.90315132610998 C 135.06991368530575 53.88214551830708 134.5714142647501 55.473742940861996 132.98465315569118 56.4329734713164 Z" fill-opacity="1"/></g></g><g><g><path fill="rgb(255,255,255)" stroke="none" paint-order="stroke fill markers" d=" M 141.32360517097138 52.931420631481195 L 148.5548293804726 49.13618139312375 L 147.89647155341058 47.8817853567817 L 144.92650446736545 49.44054432967851 L 142.7674780639121 45.326863210497976 C 141.99293944383916 43.85110316774262 142.3413178433553 42.13891629720557 144.20446489733393 41.161061289363474 L 145.99382394917478 40.22193321252502 L 145.21928532910184 38.746173169769676 L 143.89110129062203 39.44325792783533 C 141.8988252329023 40.48888506493381 141.65053063887453 42.07795880461115 141.93994845524767 43.52598949597144 L 141.84771345257548 43.574398159725995 L 140.58908819495693 41.17628809024855 L 136.32783107150087 43.41276835570919 L 136.98618889856286 44.66716439205124 L 139.7716859792636 43.20522274666355 L 143.4507444246101 50.215082949751455 L 140.66524734390939 51.677024595139144 Z" fill-opacity="1"/></g></g><g><g><path fill="rgb(255,255,255)" stroke="none" paint-order="stroke fill markers" d="" fill-opacity="1"/></g></g><g><g><path fill="rgb(255,255,255)" stroke="none" paint-order="stroke fill markers" d="" fill-opacity="1"/></g></g><g><g><path fill="rgb(255,255,255)" stroke="none" paint-order="stroke fill markers" d="" fill-opacity="1"/></g></g><g><g><path fill="rgb(255,255,255)" stroke="none" paint-order="stroke fill markers" d=" M 196.19884722235324 31.720142669905737 C 197.29115676695753 31.450912547582234 197.56608653939597 30.825270869689973 197.39657127719227 30.137520415679855 L 197.30682790308444 29.773417234145086 C 197.13731264088077 29.085666780134964 196.6031242321308 28.659454822482335 195.5108146875265 28.92868494480584 C 194.41850514292219 29.197915067129344 194.14357537048377 29.823556745021605 194.31309063268745 30.511307199031723 L 194.40283400679527 30.875410380566493 C 194.57234926899898 31.563160834576614 195.10653767774892 31.989372792229243 196.19884722235324 31.720142669905737 Z" fill-opacity="1"/></g></g><g><g><path fill="rgb(255,255,255)" stroke="none" paint-order="stroke fill markers" d="" fill-opacity="1"/></g></g><g><g><path fill="rgb(255,255,255)" stroke="none" paint-order="stroke fill markers" d="" fill-opacity="1"/></g></g><g><g><path fill="rgb(255,255,255)" stroke="none" paint-order="stroke fill markers" d="" fill-opacity="1"/></g></g></g></g></svg>