<svg version="1.1" xmlns="http://www.w3.org/2000/svg" xmlns:xlink="http://www.w3.org/1999/xlink" width="500" height="500" viewBox="0 0 500 500"><defs/><g><g/><g><g><g><path fill="rgb(244,244,245)" stroke="none" paint-order="stroke fill markers" d=" M 263.375 14.6875 L 255.75 14.6875 L 250.0625 32.125 L 244.8125 14.6875 L 236.625 14.6875 L 236.625 60 L 243.375 60 L 243.375 32.1875 L 250.0625 52.0625 L 256.75 32.1875 L 256.75 60 L 263.375 60 Z" fill-opacity="1"/></g></g><g><g><path fill="rgb(244,244,245)" stroke="none" paint-order="stroke fill markers" d=" M 302.3974692127056 34.77212896536012 L 295.14098849679067 33.45527186622017 L 291.7372476896916 52.21142964888155 C 291.00070049864723 56.270139201850895 287.8314121840159 57.283018305565264 285.1256058153697 56.79198684486901 C 282.41979944672346 56.30095538417276 279.9314926269127 54.26137413536623 280.66803981795704 50.202664582396885 L 284.0717806250561 31.44650679973551 L 276.5693175119915 30.085010476895903 L 273.06513845156826 49.39462865314401 C 271.7036421287287 56.89709176620856 276.37324443871466 62.317997642219815 283.9372031510666 63.69065377098433 C 291.4396662641312 65.05215009382394 297.5317938294427 61.584210254672776 298.8932901522823 54.081747141608226 Z" fill-opacity="1"/></g></g><g><g><path fill="rgb(244,244,245)" stroke="none" paint-order="stroke fill markers" d=" M 327.7052694488829 42.24355905020297 C 320.9760813161598 39.71805250211832 316.1403202346512 41.57478242662721 314.2077587022038 46.72407421514577 C 313.1755951564649 49.47426414765 313.5261097377719 51.74203056602098 315.21523721931896 54.17840304392381 C 316.7727425156313 56.43186338348142 319.5883851062636 58.890483535480776 321.8406984554555 61.60497995784942 C 323.639630569528 63.74877903867734 324.0123928249315 64.8900303479631 323.52925244181966 66.17735329509274 C 322.9802292791926 67.64022028046733 321.68525148437124 68.42258529177576 318.99357623128196 67.4123826725419 C 316.4774450164377 66.46806283282329 315.3659528551444 64.98280479955645 316.2224289888427 62.70073230237209 L 309.0836381002147 60.02149926875185 C 307.15093319397164 65.70479127210552 309.98796321592613 70.24089760403038 316.7171513486492 72.76640415211503 C 324.2070303137671 75.57740274476578 328.9478663367466 73.0842360729966 330.7925841631736 68.16900300213798 C 332.0223960474583 64.8921809548989 331.39404426927695 62.119599974502435 329.5293727494849 59.61734471708435 C 327.73780873551266 57.27604067150641 324.83432243886 55.05147923716699 322.70626317480264 52.71739991789359 C 320.95847764004486 50.793066728320795 320.7173375698761 49.834727557380255 321.1345951734727 48.72294864849557 C 321.6396964830896 47.37711102195094 322.82501301918126 46.35331919288231 325.75074698993046 47.451365518136505 C 328.20836352535974 48.37372443135003 328.79322357191813 49.66133412607111 328.2514251355956 51.46069636153079 L 335.15615730656367 54.05208568913069 C 336.5255329713663 48.62466995614631 333.90782546687115 44.571417259741864 327.7052694488829 42.24355905020297 Z" fill-opacity="1"/></g></g><g><g><path fill="rgb(244,244,245)" stroke="none" paint-order="stroke fill markers" d=" M 359.66816114989564 85.82156508085322 L 354.5711214378846 82.77622562125565 L 366.84864789078847 62.22710762441098 L 354.88401782996243 55.07857394556616 L 351.19755427360747 61.24867464957958 L 356.6701653328194 64.51840754304223 L 348.07910243627043 78.8974248358735 L 342.60649137705855 75.62769194241083 L 338.92002782070364 81.79779264642426 L 355.9816975935407 91.99166578486663 Z M 365.8831804888969 56.044225695578376 C 368.4585268697025 57.5829235277961 370.88976407419295 56.56012496233886 372.2361246773835 54.30669687913396 C 373.58248528057396 52.053268795929064 373.39518241473434 49.32035388937814 370.81983603392877 47.78165605716042 C 368.24448965312314 46.2429582249427 365.74914003895697 47.37306288960017 364.40277943576643 49.626490972805065 C 363.05641883257596 51.87991905600997 363.3078341080913 54.505527863360655 365.8831804888969 56.044225695578376 Z" fill-opacity="1"/></g></g><g><g><path fill="rgb(244,244,245)" stroke="none" paint-order="stroke fill markers" d=" M 396.8333060133818 83.74063768412745 C 389.7732610195979 77.57246212844264 381.2963070822434 79.29565014603398 375.2103738673011 86.26156120656736 C 369.1244406523587 93.22747226710078 368.4313735969285 102.00021780693477 375.53848555733754 108.20951453299081 C 379.53917772048175 111.70481401454553 384.45542841748755 113.01224865313735 389.54505896804596 110.32148814561859 L 386.353899813005 104.37970520636559 C 384.67882461347904 105.15705926079188 381.9444929631821 104.67699501906526 379.82647946504693 102.82654235235982 C 376.48472483465594 99.90693925600235 377.12827495105404 95.65557188800366 380.9525437955786 91.27834399185768 C 384.7768126401032 86.9011160957117 388.7799547756543 85.83391623505986 392.07464243942013 88.71239816104611 C 394.2397229041805 90.60397199812277 395.0824807174007 93.24911670460979 394.53701271688016 95.01337884794567 L 400.85338082013476 97.37807232368152 C 402.8365915734283 91.97331457166146 400.88106514315115 87.2770583360534 396.8333060133818 83.74063768412745 Z" fill-opacity="1"/></g></g><g><g><path fill="rgb(244,244,245)" stroke="none" paint-order="stroke fill markers" d="" fill-opacity="1"/></g></g><g><g><path fill="rgb(244,244,245)" stroke="none" paint-order="stroke fill markers" d="" fill-opacity="1"/></g></g><g><g><path fill="rgb(244,244,245)" stroke="none" paint-order="stroke fill markers" d="" fill-opacity="1"/></g></g><g><g><path fill="rgb(244,244,245)" stroke="none" paint-order="stroke fill markers" d="" fill-opacity="1"/></g></g><g><g><path fill="rgb(244,244,245)" stroke="none" paint-order="stroke fill markers" d="" fill-opacity="1"/></g></g><g><g><path fill="rgb(244,244,245)" stroke="none" paint-order="stroke fill markers" d=" M 479.99423916365447 302.6228988443407 C 481.774406635305 294.8234755468861 478.62170168929106 288.9753068999181 470.88321138634785 287.20904698663986 C 466.4351027870183 286.19379522546416 463.0268565437711 287.0826751641461 460.2021258535876 289.06634827933806 C 457.2277140576368 291.1440722668082 454.7811875812606 294.5603214088338 452.4631311665625 296.85196153291025 C 449.56556064818994 299.7165116880058 447.6037979901486 300.1662544183691 445.4102101877395 299.6655823169674 C 442.7900914237509 299.06755730695977 440.50905682171896 297.2647799650972 441.2739725321938 293.91346526697214 C 441.98325800917956 290.8058825468926 444.616584918479 289.09905928751294 447.9904119723263 289.4844694725473 L 449.6454114186264 282.233443125695 C 441.53802111228725 280.95994992952996 436.4349559578279 284.2186125814997 434.6965111612942 291.8352368954202 C 432.73554543080417 300.4267891215226 436.9605311976058 306.0709477408673 444.5162225170149 307.79548497902874 C 448.5987331492763 308.7272913899708 451.8765086061508 308.1291688654734 455.5052750586598 305.431509410845 C 458.97045284702915 302.8888338230062 461.60838310428943 299.1957348251684 464.1231460608938 296.88488438169736 C 465.74512514391694 295.39597870831324 467.031322101311 294.5356132994373 469.5295748762769 295.1058231927003 C 471.7840956731974 295.6204028524743 474.20950861997426 297.071489785641 473.3472400008935 300.84933544534556 C 472.65186208228005 303.8959851709137 470.54241904316603 305.27363037731976 467.3129703340637 304.53652978358946 L 465.6857860045082 311.665690141419 C 472.76792092619866 313.21803391809095 478.17234901688715 310.60512112532933 479.99423916365447 302.6228988443407 Z" fill-opacity="1"/></g></g><g><g><path fill="rgb(244,244,245)" stroke="none" paint-order="stroke fill markers" d=" M 447.6410006127774 334.4758177411152 C 446.2408489375103 337.75163543082977 441.52270478238523 338.4537906711143 436.63771349070566 336.36584519045283 C 431.75272219902604 334.27789970979137 428.9997032021706 330.3824160873187 430.3998548774377 327.1065983976041 C 431.8000065527048 323.8307807078896 436.5181507078299 323.12862546760505 441.40314199950944 325.2165709482665 C 446.28813329118907 327.30451642892797 449.0411522880445 331.20000005140065 447.6410006127774 334.4758177411152 Z M 453.9627540490686 337.1778648337359 C 457.1806464957351 329.6492311959709 452.74986301827363 322.04597110401994 444.30170160795717 318.43505362569954 C 435.8535401976407 314.82413614737914 427.35346437359743 316.90048173169674 424.13557192693094 324.4291153694618 C 420.91767948026444 331.95774900722677 425.2909924719415 339.53644503469934 433.73915388225794 343.1473625130198 C 442.1873152925744 346.7582799913402 450.7448616024021 344.70649847150094 453.9627540490686 337.1778648337359 Z" fill-opacity="1"/></g></g><g><g><path fill="rgb(244,244,245)" stroke="none" paint-order="stroke fill markers" d=" M 427.3144878475642 382.77086897868827 L 431.37735308577345 376.61589123249365 L 415.4683004367111 366.11441752356296 C 412.0256857651107 363.84196747507303 412.33992493918674 360.5296320087478 413.85489163818005 358.23455556101425 C 415.3698583371733 355.93947911328064 418.2232768064469 354.4530183707084 421.6658914780473 356.7254684191983 L 437.5749441271096 367.226942128129 L 441.77553361068186 360.8633210685041 L 425.3970335064013 350.05196780750657 C 419.03341244677637 345.8513783239343 412.2134683457032 348.01465563122457 407.97844780079015 354.4304375192071 C 403.77785831721786 360.794058578832 404.5723666836587 367.75892623411846 410.93598774328365 371.95951571769075 Z" fill-opacity="1"/></g></g><g><g><path fill="rgb(244,244,245)" stroke="none" paint-order="stroke fill markers" d=" M 393.26278681052526 405.304868050818 C 398.7289229682199 410.5310293337812 403.32792641172125 410.6046318246513 408.0357907079443 405.68059181482715 C 410.75684988833007 402.8345870385068 411.84412795123814 400.06945568287125 411.56272318032114 397.3792479576379 L 413.36971033988965 399.1069045801051 L 418.46629737616774 393.77629245937806 L 395.96930723954017 372.26696750966187 L 390.69995454101536 377.77827834634576 L 406.14969475532587 392.54974246844 C 406.7334394351746 394.92372744074885 407.01484420609154 397.6139351659822 404.81208201244596 399.917843794432 C 402.9980425588554 401.8151803119789 400.88122281648907 402.03951082334146 397.8545193242119 399.145685980709 L 383.44379672665326 385.3676244165334 L 378.17444402812845 390.8789352532172 Z" fill-opacity="1"/></g></g><g><g><path fill="rgb(244,244,245)" stroke="none" paint-order="stroke fill markers" d=" M 381.7988989105817 408.33171842198345 C 376.21493901380325 400.64605697542146 370.10989196671466 396.815428691075 363.58719244956666 401.55444728768305 C 360.8567600935512 403.5382225141702 359.0909675192554 406.2117223897194 359.0024489701295 408.74817083517627 L 357.5329858393983 406.72562834923895 L 351.56648550588307 411.0605445848959 L 378.20050475038573 447.71912714251073 L 384.3692593324947 443.2372645937806 L 374.74427582620547 429.98961131089084 C 377.5378803195403 430.43207479505577 380.3275527119758 429.48681864306127 382.6534765708037 427.7969360427204 C 389.1761760879518 423.05791744611236 387.3828588073602 416.01737986854545 381.7988989105817 408.33171842198345 Z M 363.46614629784364 414.46659773132154 C 363.0905101771257 412.03561464729734 363.8730916124495 409.0721542465012 365.9461976605353 407.56595453750174 C 368.47437576795704 405.72912562408777 371.47891098415715 407.09989844794046 375.63014432847274 412.81358097071353 C 379.8181142510566 418.57782705563505 380.15660765726994 421.80833838728984 377.5778659876998 423.6819038789721 C 375.5553235017624 425.1513670097033 372.8581017593523 424.9478943524004 370.3358864340119 423.92198385307876 Z" fill-opacity="1"/></g></g><g><g><path fill="rgb(244,244,245)" stroke="none" paint-order="stroke fill markers" d="" fill-opacity="1"/></g></g><g><g><path fill="rgb(244,244,245)" stroke="none" paint-order="stroke fill markers" d="" fill-opacity="1"/></g></g><g><g><path fill="rgb(244,244,245)" stroke="none" paint-order="stroke fill markers" d="" fill-opacity="1"/></g></g><g><g><path fill="rgb(244,244,245)" stroke="none" paint-order="stroke fill markers" d="" fill-opacity="1"/></g></g><g><g><path fill="rgb(244,244,245)" stroke="none" paint-order="stroke fill markers" d="" fill-opacity="1"/></g></g><g><g><path fill="rgb(244,244,245)" stroke="none" paint-order="stroke fill markers" d=" M 159.16384348767986 467.4327834672575 L 178.82420041644423 426.60763164042913 L 171.61644947322486 423.13656172748864 L 164.91836925059755 437.04526862573226 L 161.4834254417196 435.39108687034656 C 152.698978979671 431.16072041395034 146.2269906015603 433.94040523126324 142.21356601472286 442.27436725936064 C 138.0103172920215 451.00250316716534 140.07456559899737 458.2398717447042 148.40852762709474 462.2532963315416 Z M 155.2644560552319 457.09182593656107 L 151.82951224635391 455.4376441811754 C 147.94408400352472 453.5665205562309 147.20388805552736 450.78211914684897 149.31907128372546 446.38989591582464 C 151.51560771300808 441.82874102206864 154.45856535085073 440.47120406424256 158.1750619309482 442.2609744881025 L 161.6100057398262 443.9151562434882 Z" fill-opacity="1"/></g></g><g><g><path fill="rgb(244,244,245)" stroke="none" paint-order="stroke fill markers" d=" M 116.28468862407917 427.02546789908655 C 119.11624810439149 429.0827162821102 122.43880394983519 429.71984668784194 126.4312946783795 428.371577322141 L 123.96994393440477 431.75933598608606 L 129.58249933288099 435.83709617386506 L 147.8773153104842 410.65644222394485 L 142.06250566341427 406.4317357230927 L 130.3068006175648 422.61207561059166 C 127.81264539622117 424.6626782005257 124.59636718468292 425.26157674450815 122.11875263940965 423.46148440936247 C 119.79282878058167 421.7716018090216 120.19611886905994 419.5152190058308 121.07739061126226 417.45160170448935 L 113.66948725101254 416.16392004538216 C 111.43804472339187 419.8732253032338 112.29016721435286 424.12327821589247 116.28468862407917 427.02546789908655 Z" fill-opacity="1"/></g></g><g><g><path fill="rgb(244,244,245)" stroke="none" paint-order="stroke fill markers" d=" M 94.64427895610004 398.5352781166142 C 92.18236826908434 395.96032141422916 93.39106578091595 391.3458922431515 97.23091349499896 387.6746219204088 C 101.07076120908198 384.0033515976661 105.73477196584793 383.0028967457254 108.19668265286363 385.5778534481105 C 110.65859333987933 388.1528101504956 109.44989582804772 392.76723932157324 105.6100481139647 396.43850964431596 C 101.77020039988169 400.10977996705867 97.10618964311574 401.1102348189993 94.64427895610004 398.5352781166142 Z M 89.67506426728673 403.28633382839894 C 95.33313970586667 409.2042167759857 104.06595733882867 408.11825985260975 110.70663515024283 401.76912176504294 C 117.34731296165698 395.4199836774761 118.77879810126768 386.78787209947427 113.12072266268773 380.8699891518875 C 107.46264722410778 374.9521062043007 98.775004270135 375.99487171211496 92.13432645872084 382.3440097996818 C 85.49364864730669 388.69314788724864 84.01698882870676 397.36845088081213 89.67506426728673 403.28633382839894 Z" fill-opacity="1"/></g></g><g><g><path fill="rgb(244,244,245)" stroke="none" paint-order="stroke fill markers" d=" M 85.91457584285888 374.562660503343 C 93.84302175321126 369.329139179548 97.94369474981994 363.4020999967111 93.50208783686236 356.6733531385831 C 91.64281052446152 353.8566684072737 89.05122466966874 351.9727077502434 86.52130162870723 351.7704810042081 L 88.60773476301048 350.3932385505778 L 84.54486952480123 344.23826080438323 L 46.728268965554705 369.2007802764316 L 50.928858449126984 375.56440133605656 L 64.59499547881332 366.5434632647784 C 64.02764293427492 369.31440373512515 64.84678909760282 372.1436758699869 66.43061791927761 374.5430739744357 C 70.87222483223519 381.27182083256366 77.98612993250651 379.79618182713796 85.91457584285888 374.562660503343 Z M 80.6083697845908 355.97312743316616 C 83.05375788123978 355.7069351966761 85.97912389127355 356.62168377270075 87.39079740624456 358.7602777353616 C 89.11235047328238 361.3683191532407 87.6081599636933 364.3083295122126 81.7139863592866 368.19903944371805 C 75.76765192652232 372.1241804365643 72.52520705557149 372.31739665960123 70.76922292719291 369.65719441336455 C 69.39198047356265 367.57076127906134 69.71625864332998 364.88538422572 70.85429488172309 362.4117359038876 Z" fill-opacity="1"/></g></g><g><g><path fill="rgb(244,244,245)" stroke="none" paint-order="stroke fill markers" d=" M 41.51096775410275 324.8388581097361 L 44.409527362550435 331.6203754323031 L 61.93802552681247 324.12833576640014 C 65.7310775885872 322.5071075108277 68.32235076368224 324.59411873073833 69.40316960073054 327.12282010525485 C 70.48398843777882 329.6515214797713 70.15260919469384 332.8517949520315 66.35955713291911 334.47302320760394 L 48.83105896865708 341.9650628735069 L 51.82787483501825 348.9764621392117 L 69.87360737134047 341.2633458930034 C 76.88500663704528 338.2665300266423 78.83667987495186 331.38304414938216 75.81529994411231 324.3141743978929 C 72.81848407775115 317.30277513218806 66.56809955612978 314.1289259971667 59.55670029042497 317.1257418635279 Z" fill-opacity="1"/></g></g><g><g><path fill="rgb(244,244,245)" stroke="none" paint-order="stroke fill markers" d=" M 33.48455887009612 298.20019776746915 C 35.57069262593657 307.34014694417374 43.44155692545726 310.92868706217865 52.45964011313913 308.87036842308277 C 61.477723300821 306.8120497839868 67.19491677733447 300.1221241489658 65.09487546312175 290.92124197774984 C 63.912733001478834 285.7419374442839 60.703893437894045 281.79450094635604 55.00470648363185 280.9797621474962 L 54.09391608779925 287.6624818112902 C 55.905997640073316 288.0181736693753 57.83594373198093 290.01375361824495 58.46178385873307 292.7557383712563 C 59.44922050316421 297.08198098156316 56.42968648127908 300.14314016407525 50.76291799172223 301.43654309269635 C 45.096149502165375 302.7299460213174 41.23025514426639 301.24034093487177 40.256726058207505 296.9750313190763 C 39.61697837308311 294.17211357155355 40.48995002869823 291.5367859375595 41.96825018003782 290.43008592737186 L 38.24813299300675 284.80434069987035 C 33.46684489131435 288.0111795387606 32.28850885008093 292.95996023949186 33.48455887009612 298.20019776746915 Z" fill-opacity="1"/></g></g><g><g><path fill="rgb(244,244,245)" stroke="none" paint-order="stroke fill markers" d=" M 52.37584311282977 247.48884570662852 L 52.68709287338647 254.4193601057589 C 52.77121443029368 256.29247210552387 51.737824816062606 256.9645116543596 49.92714988295647 257.04582915936993 L 35.69149868474274 257.68515299186475 L 35.38866107987677 250.9419497927109 L 28.70789494738172 251.24198334567996 L 29.0107325522477 257.9851865448338 L 20.456854419987692 258.3693416547101 L 20.79894875141037 265.98666378708765 L 29.352826883670378 265.60250867721135 L 29.655664488536353 272.3457118763652 L 36.3364306210314 272.04567832339615 L 36.033593016165426 265.3024751242423 L 52.079919147485285 264.58183378673715 C 57.69925514678018 264.3294691160155 60.345540211480134 261.9583564328336 60.087567436964676 256.21414630022105 L 59.68097991191313 247.1607716346904 Z" fill-opacity="1"/></g></g><g><g><path fill="rgb(244,244,245)" stroke="none" paint-order="stroke fill markers" d=" M 55.93103693044829 213.68331463901222 L 55.13402691465596 219.56707884950936 L 31.413166992336023 216.35387004899923 L 29.542290850002452 230.16523235363982 L 36.66474226270949 231.1300339517042 L 37.52047933229704 224.81272922043362 L 54.118887841909945 227.06113642287934 L 53.26315077232239 233.37844115414995 L 60.38560218502943 234.34324275221434 L 63.05348834315532 214.64811623707664 Z M 26.107288200557214 219.6716715043235 C 26.509987998010182 216.6988222190197 24.613959232093407 214.8652175263948 22.012716107452576 214.51285520362345 C 19.411472982811745 214.16049288085208 16.97209654099381 215.40682703552477 16.569396743540842 218.37967632082857 C 16.166696946087875 221.35252560613236 18.186594432225647 223.2029094569845 20.787837556866478 223.55527177975583 C 23.38908068150731 223.9076341025272 25.704588403104246 222.6445207896273 26.107288200557214 219.6716715043235 Z" fill-opacity="1"/></g></g><g><g><path fill="rgb(244,244,245)" stroke="none" paint-order="stroke fill markers" d=" M 45.58229002881041 183.58065977153478 C 46.68316307127116 180.1925209322333 51.31937265465759 179.07026118114365 56.3718603974756 180.71191396376054 C 61.4243481402936 182.35356674637745 64.51547275180529 185.98658957676355 63.41459970934454 189.37472841606504 C 62.313726666883795 192.76286725536653 57.677517083497364 193.8851270064562 52.62502934067936 192.24347422383929 C 47.57254159786136 190.60182144122237 44.481416986349664 186.96879861083627 45.58229002881041 183.58065977153478 Z M 39.043776479281235 181.45616793520702 C 36.513699837836356 189.2429431623736 41.6081972637024 196.4184223956962 50.34602900716413 199.25751603151605 C 59.083860750625846 202.09660966733588 67.3635955851604 199.26668191741095 69.89367222660528 191.47990669024438 C 72.42374886805015 183.6931314630778 67.38869247445255 176.5369657919036 58.65086073099083 173.6978721560838 C 49.91302898752911 170.85877852026397 41.57385312072611 173.66939270804045 39.043776479281235 181.45616793520702 Z" fill-opacity="1"/></g></g><g><g><path fill="rgb(244,244,245)" stroke="none" paint-order="stroke fill markers" d=" M 70.5831769974776 138.4050550039047 C 63.92367328781101 134.82142324395264 59.4708237975664 135.97397754515856 56.2425935344691 141.9730346059326 C 54.376735675981664 145.4403795126185 54.06426682751975 148.39511947050667 55.05122495264652 150.9135157676065 L 52.84973612300468 149.72884411142402 L 49.35495473726632 156.22323615886745 L 76.76349066630729 170.97239827833954 L 80.37673921766391 164.25785734793192 L 61.55400972422613 154.12891468757155 C 60.35973405926741 151.99577893565905 59.37277593414064 149.4773826385592 60.883232295773325 146.67048438076583 C 62.12713753476494 144.3589211096419 64.10799296758658 143.57952278127507 67.79548675723667 145.56384780538076 L 85.35236017363039 155.01160426343617 L 88.965608724987 148.29706333302852 Z" fill-opacity="1"/></g></g><g><g><path fill="rgb(244,244,245)" stroke="none" paint-order="stroke fill markers" d="" fill-opacity="1"/></g></g><g><g><path fill="rgb(244,244,245)" stroke="none" paint-order="stroke fill markers" d="" fill-opacity="1"/></g></g><g><g><path fill="rgb(244,244,245)" stroke="none" paint-order="stroke fill markers" d="" fill-opacity="1"/></g></g><g><g><path fill="rgb(244,244,245)" stroke="none" paint-order="stroke fill markers" d="" fill-opacity="1"/></g></g><g><g><path fill="rgb(244,244,245)" stroke="none" paint-order="stroke fill markers" d="" fill-opacity="1"/></g></g></g><g><g><g><path fill="rgb(244,244,245)" stroke="none" paint-order="stroke fill markers" d=" M 239.66666666666666 79.125 L 248.20833333333334 80.66666666666667 L 242.33333333333334 86.91666666666667 L 246.08333333333334 89.625 L 250.20833333333334 81.95833333333334 L 254.29166666666666 89.45833333333333 L 258.0416666666667 86.75 L 252.04166666666666 80.45833333333334 L 260.4166666666667 78.875 L 259 74.5 L 251.16666666666666 78.25 L 252.25 69.79166666666667 L 247.66666666666666 69.79166666666667 L 248.83333333333334 78.41666666666667 L 241.08333333333334 74.75 Z" fill-opacity="1"/></g></g><g><g><path fill="rgb(244,244,245)" stroke="none" paint-order="stroke fill markers" d=" M 282.4861918042987 81.92355684144167 L 290.3761093962266 85.54101533438146 L 283.13137152981557 90.13360700434187 L 286.09002327297645 93.68944014260012 L 291.9920512808959 87.28948169183565 L 294.08192503510145 95.56933910622352 L 298.38764700040525 93.87868012170169 L 294.1408219070457 86.29253840994492 L 302.64646486950903 86.84172620983026 L 302.3623236475897 82.25186420640895 L 293.8425018085472 83.93598027784995 L 296.99530219537263 76.01279508439887 L 292.5559627068664 74.87296643489329 L 291.5410261180529 83.51713440132006 L 284.9463695389105 78.03831618498745 Z" fill-opacity="1"/></g></g><g><g><path fill="rgb(244,244,245)" stroke="none" paint-order="stroke fill markers" d=" M 323.2644900350107 95.28297474845375 L 330.0069060128119 100.74892684647352 L 321.84764380441845 103.3955407614001 L 323.8290443205575 107.575447631067 L 331.1372542105182 102.84433032306696 L 331.10235393160116 111.38379125931127 L 335.6932535157911 110.81703694540724 L 333.4664469684179 102.41308537218764 L 341.5682920644463 105.06028681605338 L 342.43452992524584 100.54396071921738 L 333.76355132035417 100.0563736555851 L 338.7877167171787 93.16617946715762 L 334.771311100311 90.95814179419142 L 331.63854345456815 99.07833286268841 L 326.6135968226012 92.13161739490596 Z" fill-opacity="1"/></g></g><g><g><path fill="rgb(244,244,245)" stroke="none" paint-order="stroke fill markers" d=" M 359.4393109088768 118.36383236143652 L 364.6105744797946 125.33483219185207 L 356.0494643816395 125.86917186590485 L 356.9291149892463 130.4105135457371 L 365.18430505614623 127.64551088079544 L 363.02682365698513 135.9080096023315 L 367.614437755039 136.50077121696444 L 367.54756819864514 127.80706096719925 L 374.73654670435326 132.38594265260144 L 376.69873473727756 128.22692984090045 L 368.4214288419106 125.5982765306227 L 375.001272459264 120.17400958843933 L 371.6601662502492 117.03650201959951 L 366.60641086027255 124.12249472135933 L 363.46691005282844 116.14436968320015 Z" fill-opacity="1"/></g></g><g><g><path fill="rgb(244,244,245)" stroke="none" paint-order="stroke fill markers" d=" M 388.7376573887072 149.7158745111098 L 392.01283904400384 157.75390851703213 L 383.5878070891146 156.14239942332654 L 383.3104361053846 160.75982671369385 L 391.99390239685505 160.13467397821736 L 387.84940236842084 167.6010473030264 L 392.14547431449336 169.31607945392417 L 394.24274340923625 160.87886831583592 L 400.06714536589686 167.10172226653188 L 403.0019920804146 163.56134881070423 L 395.6384524657799 158.95679720877635 L 403.36053853021167 155.33928415387285 L 400.9046657198913 151.4694478286553 L 394.24746862324525 157.07600318176816 L 393.19068002233206 148.5677635108712 Z" fill-opacity="1"/></g></g><g><g><path fill="rgb(244,244,245)" stroke="none" paint-order="stroke fill markers" d=" M 409.3186066133932 187.36913708446428 L 410.4919146443908 195.9691460274801 L 402.7323365755933 192.3130452090895 L 401.3153722395333 196.71642817162845 L 409.8815006329262 198.27040601113805 L 404.0103961544102 204.471514243822 L 407.7449879482823 207.2010551534967 L 411.87461656372295 199.5504841327834 L 415.9684733757471 207.02630554899497 L 419.69157155917395 204.3270261338531 L 413.70447650046333 198.03589715178046 L 422.08359794469936 196.45243963367878 L 420.6672700538142 192.09343060065933 L 412.82492742753925 195.86826811282094 L 413.917252947549 187.36451779882535 Z" fill-opacity="1"/></g></g><g><g><path fill="rgb(244,244,245)" stroke="none" paint-order="stroke fill markers" d=" M 419.8889818517114 228.9577271150031 L 418.88669299969735 237.57934080460228 L 412.2801316447859 232.1083745221444 L 409.8126070368609 236.02103241080897 L 417.7231561812028 239.65649868251754 L 410.4943503394021 244.20270338673615 L 413.43280384379693 247.77524596128362 L 419.3353122263156 241.3920285720087 L 421.4413918140517 249.6510841000074 L 425.7188055149255 247.96250437845995 L 421.48434621367323 240.3800927873401 L 429.9940120211191 240.93018526545194 L 429.70622213994307 236.35589609348904 L 421.17149721336676 238.061828840929 L 424.3443020245849 230.09688979066908 Z" fill-opacity="1"/></g></g><g><g><path fill="rgb(244,244,245)" stroke="none" paint-order="stroke fill markers" d=" M 419.7846075523172 271.8684805389726 L 416.6696993120241 279.9699712789605 L 411.63126921816087 273.02790046476866 L 408.26822798440753 276.2039865946649 L 415.02614898399474 281.6925115824113 L 406.89385423563783 284.29815799682723 L 408.8515356099982 288.4892262473961 L 416.15604745001394 283.77444351395917 L 416.14201708734555 292.2977863202393 L 420.7049806716134 291.7260059663529 L 418.48922377896895 283.32874257261506 L 426.5947403505812 285.97782071344204 L 427.4535713757658 281.4756708142689 L 418.7627323045475 281.0055087684838 L 423.8166574119254 274.07984739548414 Z" fill-opacity="1"/></g></g><g><g><path fill="rgb(244,244,245)" stroke="none" paint-order="stroke fill markers" d=" M 409.0120419363035 313.4051569040329 L 403.98023544830005 320.4774782360173 L 400.8265197083322 312.5004987304978 L 396.77927409786776 314.7404479292566 L 401.9599419224013 321.7371674226778 L 393.4351402550154 322.238533200176 L 394.2890411787419 326.7847868949123 L 402.536587133231 324.03468595621314 L 400.4033283994448 332.2867630655941 L 404.9651340837008 332.8677091418644 L 404.90730375421293 324.1832248875116 L 412.0993716737925 328.7648373688377 L 414.05086009346576 324.6177133783684 L 405.7499842591204 322.00099854983 L 412.36747296112515 316.54977962895697 Z" fill-opacity="1"/></g></g><g><g><path fill="rgb(244,244,245)" stroke="none" paint-order="stroke fill markers" d=" M 388.2481649200495 350.95785407295756 L 381.61562709166674 356.5566260374715 L 380.5447852640916 348.0459608002344 L 376.0676386033496 349.20902882174096 L 379.34553284025066 357.274313202931 L 370.9638688946251 355.639895687817 L 370.66033563225193 360.2556769871289 L 379.3326920565417 359.64305679930965 L 375.2142454434581 367.1053598579923 L 379.4882581994128 368.80252938587716 L 381.59198812536835 360.3765023559092 L 387.4187033149525 366.60276961554064 L 390.340229934634 363.0712505861516 L 382.95089189431934 358.4724007911409 L 390.71614303838294 354.83814445537377 Z" fill-opacity="1"/></g></g><g><g><path fill="rgb(244,244,245)" stroke="none" paint-order="stroke fill markers" d=" M 358.7976472606842 382.1669979734636 L 350.98112483644724 385.9404291371337 L 352.06044185157214 377.430834565072 L 347.43470973104064 377.44394156807 L 348.6038682301529 386.0710193573177 L 340.891992777595 382.4035150130332 L 339.4500974403144 386.7987974022288 L 348.0023482855709 388.36215114474965 L 342.15749094047715 394.56579620712614 L 345.8751588279545 397.2725497834355 L 350.00826392112816 389.6344182449051 L 354.10351243619584 397.11412101231 L 357.8115069937477 394.4201052726362 L 351.798006032621 388.1280831571602 L 360.2231003307659 386.539143097935 Z" fill-opacity="1"/></g></g><g><g><path fill="rgb(244,244,245)" stroke="none" paint-order="stroke fill markers" d=" M 322.5109732941729 405.07160331508 L 314.00160712515526 406.7825951201839 L 317.16326552546946 398.8087603363598 L 312.6795997065342 397.67108275964665 L 311.66655993949433 406.3178829312809 L 305.1090384769823 400.8477345439148 L 302.61938065175565 404.746346265763 L 310.5141565443929 408.3874426733685 L 303.3101423501629 412.9426319047591 L 306.2378706231667 416.4888942475502 L 312.14065269005715 410.118590096106 L 314.2471150051361 418.3817511379858 L 318.50859056545727 416.6945136048477 L 314.2487770650156 409.10467005886034 L 322.80433485716003 409.660885223811 Z" fill-opacity="1"/></g></g><g><g><path fill="rgb(244,244,245)" stroke="none" paint-order="stroke fill markers" d=" M 281.6681681988834 418.23248950694693 L 273.00063305674394 417.7735340457822 L 278.04597421718955 410.83648441537645 L 273.9860999130236 408.61950672518253 L 270.8545148940944 416.74271902371294 L 265.86338061199467 409.81363613424196 L 262.48239465630206 412.97061307616815 L 269.223637792031 418.46066867055254 L 261.11312145499903 421.08118277873484 L 263.06695017870504 425.2441291827696 L 270.36851571313565 420.5419220565866 L 270.35383505394304 429.0693365748996 L 274.9010274349677 428.49489258772985 L 272.66256114394207 420.0841253947175 L 280.811005268865 422.7505467394139 Z" fill-opacity="1"/></g></g><g><g><path fill="rgb(244,244,245)" stroke="none" paint-order="stroke fill markers" d=" M 238.83553562828243 420.8227096672759 L 230.55444462296623 418.22264479938764 L 237.1664512029657 412.7582606633624 L 233.78546524727307 409.60128372143623 L 228.73210398035783 416.69049684306117 L 225.62096820172266 408.737859212815 L 221.5610938975567 410.9548369030089 L 226.7252271776015 417.948891300165 L 218.21782226761593 418.4700737461452 L 219.07498519763428 422.98813097861216 L 227.31654998379716 420.24947784493656 L 225.18164879014174 428.5053370238602 L 229.72884117116644 429.0797810110299 L 229.652373159125 420.3765696063675 L 236.88170690457642 424.98565607131064 Z" fill-opacity="1"/></g></g><g><g><path fill="rgb(244,244,245)" stroke="none" paint-order="stroke fill markers" d=" M 196.7044074141842 412.6795107372299 L 189.3300919492776 408.1017081006372 L 197.0933072581503 404.45333681085816 L 194.6036494329237 400.55472508900993 L 187.94603319138545 406.1644977009955 L 186.91038001914353 397.6879988000379 L 182.42671420020824 398.825676376751 L 185.68925613822998 406.8842674165727 L 177.31951419383182 405.2733703904949 L 177.0261526308447 409.86265229922594 L 185.6898688428702 409.2596328065083 L 181.5688908083667 416.7251906509047 L 185.83036636868786 418.4124281840428 L 187.92070140205692 409.96362734845786 L 193.77667914118038 416.22577308002104 Z" fill-opacity="1"/></g></g><g><g><path fill="rgb(244,244,245)" stroke="none" paint-order="stroke fill markers" d=" M 157.9220372897314 394.31455985417466 L 151.91785272672962 388.0466596245151 L 160.34448539551042 386.44354176688995 L 158.9025900582298 382.04825937769436 L 151.0590413555242 385.82610883552917 L 152.16394468735336 377.35835826418946 L 147.53821256682187 377.3452512611915 L 148.69416565406473 385.9620280312221 L 140.98798834337813 382.3202701176996 L 139.56253527329642 386.692415242171 L 148.10402975866361 388.26291932288933 L 142.25591108911692 394.4690873769939 L 145.96390564666876 397.16310311666774 L 150.08970028758722 389.4995820791759 L 154.204369402254 397.0213134304841 Z" fill-opacity="1"/></g></g><g><g><path fill="rgb(244,244,245)" stroke="none" paint-order="stroke fill markers" d=" M 124.92526420142345 366.8817944236572 L 120.66847553826607 359.31763182408474 L 129.2290492453883 359.8604971894632 L 128.92551598301515 355.24471589015127 L 120.38887383068742 356.9532660184411 L 123.56490852669869 349.0263236873248 L 119.08776186595667 347.8632556658183 L 118.06449331865113 356.4967943913085 L 111.50608810344418 351.0530006334967 L 109.03810998511075 354.9332910159129 L 116.9206892318847 358.5786381227657 L 109.7128887311784 363.1354600230496 L 112.6344153508599 366.66697905243865 L 118.5364307484276 360.2702650242844 L 120.65125144546872 368.578963951542 Z" fill-opacity="1"/></g></g><g><g><path fill="rgb(244,244,245)" stroke="none" paint-order="stroke fill markers" d=" M 99.78739675604129 332.10491598833056 L 97.54547367980808 323.7197751740205 L 105.7020960956655 326.37451353497664 L 106.55599701939195 321.8282598402404 L 97.86265003944654 321.3601561508169 L 102.91025415905098 314.4721009998426 L 98.86300854858649 312.2321518010838 L 95.72481409287822 320.3399754919768 L 90.72626969294953 313.43619947255195 L 87.37083866812787 316.580822197476 L 94.09921123213519 322.0719617650908 L 85.98462151416462 324.6931156327405 L 87.93610993383786 328.84023962320975 L 95.24350075453137 324.11226167225067 L 95.22559107178526 332.6858620646009 Z" fill-opacity="1"/></g></g><g><g><path fill="rgb(244,244,245)" stroke="none" paint-order="stroke fill markers" d=" M 84.08793961578782 292.1690837206988 L 84.00175039857481 283.4898339274049 L 91.24191093882025 288.0896383092752 L 93.19959231318064 283.89857005870624 L 84.89577546826126 281.283225227941 L 91.49778948083471 275.86685909473925 L 88.13474824708138 272.690772964843 L 83.0788121820944 279.7634372401503 L 79.95420552545185 271.8334685967249 L 75.92215566584362 274.04483545323643 L 81.07355315366438 281.0367389875814 L 72.56204373378301 281.5575280851629 L 73.42087475896759 286.059677984336 L 81.67449076281918 283.2975123535174 L 79.52497603152003 291.59730336681235 Z" fill-opacity="1"/></g></g><g><g><path fill="rgb(244,244,245)" stroke="none" paint-order="stroke fill markers" d=" M 78.81334741134951 249.58361283585398 L 80.88830763865599 241.15560324813686 L 86.75708038909798 247.41145102471117 L 89.6955338934928 243.8389084501637 L 82.3030065352678 239.24065421233902 L 90.04460161989121 235.6363073010601 L 87.57707701196622 231.7236494123955 L 80.92108239509581 237.3167527642599 L 79.86674400947571 228.85886059108503 L 75.41142383660215 229.998023266751 L 78.66216499856188 238.0513637543407 L 70.28854531676285 236.43906498752463 L 70.00075543558683 241.01335415948756 L 78.68199157439821 240.39055787392823 L 74.53593371047569 247.89503311430653 Z" fill-opacity="1"/></g></g><g><g><path fill="rgb(244,244,245)" stroke="none" paint-order="stroke fill markers" d=" M 84.29504216952449 207.0243050878975 L 88.40077445909887 199.37709854420442 L 92.52940284399077 206.89591179228188 L 96.26399463786285 204.1663708826072 L 90.24725644806334 197.87413246268176 L 98.64199971397468 196.30827914562198 L 97.22503537791471 191.90489618308303 L 89.38720282997468 195.66700335791157 L 90.46938067373087 187.2126281261793 L 85.87073433957505 187.2080088405404 L 87.01656315307814 195.81676528042513 L 79.30697852998782 192.17268531035063 L 77.89065063910265 196.53169434337008 L 86.45403291891911 198.08739998417633 L 80.57194398609771 204.32502567275563 Z" fill-opacity="1"/></g></g><g><g><path fill="rgb(244,244,245)" stroke="none" paint-order="stroke fill markers" d=" M 100.18858884839355 167.16531830481807 L 106.06711494065476 160.77941691674766 L 108.19618205454074 169.08876094769073 L 112.49225400061329 167.37372879679296 L 108.22935876771953 159.78287067592484 L 116.74977762181554 160.35389927580076 L 116.47240663808549 155.7364719854334 L 107.94521600359467 157.43119595336933 L 111.09591286283224 149.51155715190652 L 106.64289022920734 148.36344615166794 L 105.61181005583776 156.9866987159383 L 99.05068204719379 151.53980848911377 L 96.59480923687339 155.40964481433133 L 104.5022688551371 159.04610167460615 L 97.25374213387582 163.62494484899045 Z" fill-opacity="1"/></g></g><g><g><path fill="rgb(244,244,245)" stroke="none" paint-order="stroke fill markers" d=" M 125.49533745774745 132.51113921729603 L 132.77728793861206 127.78779265476317 L 132.77301666456557 136.36556082347803 L 137.3606307626194 135.77279920884513 L 135.11943187194612 127.36028291999179 L 143.23015706171537 130.0323136097769 L 144.10980766932215 125.49097192994466 L 135.429053696659 125.01182695132374 L 140.45029970025956 118.12454461242041 L 136.4227005563079 115.90508193418404 L 133.27949795540607 124.00099995012239 L 128.27908636413247 117.0935476117602 L 124.93798015511766 120.23105518060002 L 131.6926623424109 125.71977130185957 L 123.53314942482311 128.35212640559504 Z" fill-opacity="1"/></g></g><g><g><path fill="rgb(244,244,245)" stroke="none" paint-order="stroke fill markers" d=" M 158.6251719107495 105.23921734655588 L 166.85299505036429 102.47521084533801 L 164.7156537682423 110.78243043095974 L 169.30655335243227 111.34918474486376 L 169.2278735728334 102.64359962552457 L 176.41927840544204 107.24873888993821 L 178.40067892158103 103.06883202027132 L 170.1118053084279 100.4459245362723 L 176.68809710313423 95.02375193893431 L 173.33899031554373 91.8723945853865 L 168.2811642664149 98.93228174934777 L 165.15566334301874 90.9982879336999 L 161.13925772615104 93.2063256066661 L 166.31674095866285 100.20242476892574 L 157.75893404994994 100.72289124971988 Z" fill-opacity="1"/></g></g><g><g><path fill="rgb(244,244,245)" stroke="none" paint-order="stroke fill markers" d=" M 197.49642286570963 87.06314784284864 L 206.15313427639583 86.43215409672214 L 202.01701999954548 93.9468519408696 L 206.3227419648493 95.63751092539145 L 208.41152503624104 87.18586090551692 L 214.23174709791937 93.4347509080585 L 217.19039884108025 89.87891776980025 L 209.81422600089624 85.27705470402174 L 217.5323509873375 81.66068689389574 L 215.07217325272572 77.77544623744153 L 208.41752556741963 83.35570387446526 L 207.36332202970627 74.893690592157 L 202.92398254120005 76.03351924166259 L 206.1989465059803 84.0974108047047 L 197.78056408762896 82.47328583942733 Z" fill-opacity="1"/></g></g><g/><g/><g/><g/><g/><g/><g/><g/><g/><g/></g></g></svg>