<svg version="1.1" xmlns="http://www.w3.org/2000/svg" xmlns:xlink="http://www.w3.org/1999/xlink" width="400" height="400" viewBox="0 0 400 400"><defs/><g><g><path fill="rgb(0,0,0)" stroke="none" paint-order="stroke fill markers" d=" M 190.72265625 176.001953125 Q 180.224609375 178.6875 175.830078125 186.744140625 L 175.830078125 186.744140625 Q 171.923828125 194.068359375 174.12109375 202.857421875 L 174.12109375 202.857421875 Q 176.07421875 211.40234375 182.91015625 217.26171875 L 182.91015625 217.26171875 Q 189.990234375 223.609375 199.51171875 223.365234375 L 199.51171875 223.365234375 Q 210.7421875 223.365234375 217.822265625 214.087890625 L 217.822265625 214.087890625 Q 224.169921875 205.787109375 223.681640625 195.044921875 L 223.681640625 195.044921875 Q 223.193359375 184.05859375 215.380859375 178.19921875 L 215.380859375 178.19921875 Q 206.103515625 171.8515625 190.72265625 176.001953125 L 190.72265625 176.001953125 Z M 134.326171875 193.580078125 Q 136.03515625 170.142578125 150.1953125 155.494140625 L 150.1953125 155.494140625 Q 163.623046875 141.333984375 187.060546875 137.18359375 L 187.060546875 137.18359375 Q 205.615234375 134.009765625 223.92578125 141.578125 L 223.92578125 141.578125 Q 241.50390625 149.146484375 252.734375 164.0390625 L 252.734375 164.0390625 Q 264.697265625 179.419921875 265.185546875 197.486328125 L 265.185546875 197.486328125 Q 265.91796875 217.505859375 252.24609375 235.81640625 L 252.24609375 235.81640625 Q 240.0390625 252.173828125 218.798828125 258.033203125 L 218.798828125 258.033203125 Q 199.0234375 263.6484375 178.759765625 257.7890625 L 178.759765625 257.7890625 Q 158.0078125 251.685546875 146.044921875 235.81640625 L 146.044921875 235.81640625 Q 132.6171875 218.23828125 134.326171875 193.580078125 L 134.326171875 193.580078125 Z M 187.060546875 126.685546875 Q 150.927734375 132.544921875 133.59375 166.236328125 L 133.59375 166.236328125 Q 115.52734375 201.1484375 134.326171875 235.81640625 L 134.326171875 235.81640625 Q 143.115234375 251.9296875 160.693359375 261.6953125 L 160.693359375 261.6953125 Q 177.05078125 270.728515625 196.826171875 271.4609375 L 196.826171875 271.4609375 Q 216.845703125 272.193359375 233.935546875 263.892578125 L 233.935546875 263.892578125 Q 252.490234375 254.859375 262.744140625 237.525390625 L 262.744140625 237.525390625 Q 274.462890625 217.75 273.2421875 195.77734375 L 273.2421875 195.77734375 Q 271.77734375 175.513671875 259.814453125 158.1796875 L 259.814453125 158.1796875 Q 247.8515625 140.845703125 229.052734375 132.30078125 L 229.052734375 132.30078125 Q 209.033203125 123.267578125 187.060546875 126.685546875 L 187.060546875 126.685546875 Z M 134.326171875 147.92578125 Q 154.58984375 119.1171875 198.779296875 119.361328125 L 198.779296875 119.361328125 Q 241.748046875 119.60546875 262.744140625 145.97265625 L 262.744140625 145.97265625 Q 288.134765625 178.19921875 276.66015625 220.19140625 L 276.66015625 220.19140625 Q 265.185546875 261.451171875 229.296875 274.390625 L 229.296875 274.390625 Q 202.197265625 284.400390625 176.07421875 275.611328125 L 176.07421875 275.611328125 Q 152.1484375 267.310546875 136.279296875 246.314453125 L 136.279296875 246.314453125 Q 120.41015625 225.07421875 119.189453125 199.439453125 L 119.189453125 199.439453125 Q 117.96875 171.607421875 134.326171875 147.92578125 L 134.326171875 147.92578125 Z M 363.0859375 145.97265625 L 363.0859375 218.23828125 Q 361.62109375 226.294921875 348.4375 234.83984375 L 348.4375 234.83984375 Q 334.765625 243.873046875 333.056640625 248.0234375 L 333.056640625 248.0234375 Q 332.32421875 250.46484375 334.27734375 257.7890625 L 334.27734375 257.7890625 Q 336.23046875 265.357421875 335.009765625 269.263671875 L 335.009765625 269.263671875 Q 333.7890625 272.681640625 306.689453125 299.048828125 L 306.689453125 299.048828125 Q 304.00390625 301.734375 298.14453125 308.08203125 L 298.14453125 308.08203125 Q 293.26171875 313.453125 290.33203125 315.89453125 L 290.33203125 315.89453125 Q 281.787109375 323.462890625 273.2421875 323.70703125 L 273.2421875 323.70703125 Q 262.744140625 323.951171875 255.908203125 317.603515625 L 255.908203125 317.603515625 Q 248.828125 311.5 248.828125 300.7578125 L 248.828125 300.7578125 Q 248.583984375 285.865234375 273.486328125 264.625 L 273.486328125 264.625 Q 279.1015625 259.7421875 292.7734375 249 L 292.7734375 249 Q 303.759765625 240.943359375 306.689453125 237.525390625 L 306.689453125 237.525390625 Q 318.408203125 237.037109375 324.267578125 239.234375 L 324.267578125 239.234375 Q 326.708984375 234.595703125 338.427734375 225.07421875 L 338.427734375 225.07421875 Q 348.4375 216.7734375 350.634765625 207.49609375 L 350.634765625 207.49609375 Q 354.052734375 193.580078125 351.3671875 160.865234375 L 351.3671875 160.865234375 Q 348.4375 125.953125 350.634765625 110.81640625 L 350.634765625 110.81640625 Q 336.962890625 81.03125 307.666015625 59.791015625 L 307.666015625 59.791015625 Q 279.833984375 39.283203125 243.45703125 30.494140625 L 243.45703125 30.494140625 Q 207.32421875 21.4609375 170.947265625 26.34375 L 170.947265625 26.34375 Q 132.861328125 31.470703125 102.83203125 51.001953125 L 102.83203125 51.001953125 Q 57.177734375 80.54296875 35.9375 139.13671875 L 35.9375 139.13671875 Q 12.5 203.833984375 35.9375 265.6015625 L 35.9375 265.6015625 Q 54.736328125 315.162109375 104.296875 346.16796875 L 104.296875 346.16796875 Q 157.51953125 379.37109375 220.5078125 373.0234375 L 220.5078125 373.0234375 Q 257.861328125 369.1171875 289.84375 349.830078125 L 289.84375 349.830078125 Q 321.826171875 330.54296875 342.578125 299.78125 L 342.578125 299.78125 Q 388.96484375 231.666015625 363.0859375 145.97265625 L 363.0859375 145.97265625 Z" fill-opacity="1"/></g></g></svg>