<svg version="1.1" xmlns="http://www.w3.org/2000/svg" xmlns:xlink="http://www.w3.org/1999/xlink" width="400" height="400" viewBox="0 0 400 400"><defs/><g><g><path fill="rgb(0,0,0)" stroke="none" paint-order="stroke fill markers" d=" M 131.89999999999998 155.5 L 131.89999999999998 155.5 Q 131.89999999999998 159.10000000000002 131.29999999999998 162.625 Q 130.7 166.15 129.95 169.60000000000002 L 129.95 169.60000000000002 Q 129.2 173.05 128.45 176.35000000000002 Q 127.69999999999999 179.65 126.94999999999999 183.10000000000002 L 126.94999999999999 183.10000000000002 Q 123.94999999999999 195.1 119.67499999999998 206.5 Q 115.39999999999999 217.9 110.14999999999999 229.15 L 110.14999999999999 229.15 Q 104.89999999999999 240.25 98.14999999999999 251.05 L 98.14999999999999 251.05 Q 96.49999999999999 253.6 94.84999999999998 256.225 Q 93.19999999999999 258.85 91.54999999999998 261.4 L 91.54999999999998 261.4 Q 90.04999999999998 263.5 88.24999999999999 265.6 Q 86.44999999999999 267.7 84.19999999999999 268.9 L 84.19999999999999 268.9 Q 81.94999999999999 270.1 79.54999999999998 270.175 Q 77.14999999999998 270.25 74.975 269.425 Q 72.79999999999998 268.6 71.07499999999999 266.875 Q 69.35 265.15 68.6 262.9 L 68.6 262.9 Q 67.85 260.65 67.77499999999998 258.25 Q 67.69999999999999 255.85 67.99999999999999 253.45 L 67.99999999999999 253.45 Q 68.74999999999999 247.15 69.79999999999998 241 L 69.79999999999998 241 Q 70.69999999999999 236.65 71.67499999999998 232.3 Q 72.64999999999998 227.95 73.99999999999999 223.6 L 73.99999999999999 223.6 Q 72.79999999999998 225.7 71.52499999999998 227.95 Q 70.24999999999999 230.2 69.04999999999998 232.3 L 69.04999999999998 232.3 Q 66.49999999999999 236.8 63.79999999999999 241.3 Q 61.09999999999999 245.8 58.399999999999984 250.15 L 58.399999999999984 250.15 Q 55.84999999999999 254.2 53.44999999999999 258.475 Q 51.04999999999998 262.75 47.89999999999999 266.2 L 47.89999999999999 266.2 Q 45.79999999999998 268.45 43.39999999999999 269.65 Q 40.999999999999986 270.85 37.999999999999986 269.8 L 37.999999999999986 269.8 Q 34.54999999999999 268.6 32.749999999999986 265.75 Q 30.94999999999999 262.9 31.099999999999987 259.45 L 31.099999999999987 259.45 Q 31.249999999999986 255.55 32.07499999999999 251.575 Q 32.89999999999999 247.6 33.79999999999999 243.7 L 33.79999999999999 243.7 Q 34.84999999999999 239.8 35.97499999999999 236.05 Q 37.09999999999999 232.3 38.44999999999999 228.55 L 38.44999999999999 228.55 Q 41.14999999999999 220.75 44.374999999999986 213.025 Q 47.59999999999999 205.3 50.89999999999999 197.65 Q 54.19999999999999 190 57.42499999999999 182.35000000000002 Q 60.649999999999984 174.7 63.34999999999999 166.75 L 63.34999999999999 166.75 Q 63.79999999999999 165.25 65.225 161.275 Q 66.64999999999998 157.3 67.39999999999998 153.175 Q 68.14999999999998 149.05 67.32499999999999 146.05 Q 66.49999999999999 143.05 62.749999999999986 143.5 L 62.749999999999986 143.5 Q 55.54999999999999 144.55 49.39999999999999 148.97500000000002 Q 43.249999999999986 153.4 38.89999999999999 159.10000000000002 L 38.89999999999999 159.10000000000002 Q 34.84999999999999 164.35000000000002 31.474999999999987 171.10000000000002 Q 28.099999999999987 177.85000000000002 26.599999999999987 185.05 Q 25.099999999999987 192.25 26.224999999999987 199.375 Q 27.349999999999987 206.5 32.29999999999999 212.2 L 32.29999999999999 212.2 Q 33.04999999999999 212.95 32.29999999999999 212.875 Q 31.54999999999999 212.8 31.099999999999987 212.5 L 31.099999999999987 212.5 Q 24.94999999999999 206.65 23.07499999999999 199 Q 21.19999999999999 191.35 22.32499999999999 183.4 Q 23.44999999999999 175.45 26.974999999999987 167.95 Q 30.499999999999986 160.45 35.14999999999999 154.75 L 35.14999999999999 154.75 Q 39.499999999999986 149.35000000000002 45.34999999999999 145.3 Q 51.19999999999999 141.25 58.09999999999999 139.75 L 58.09999999999999 139.75 Q 61.54999999999999 139 64.77499999999998 139.75 Q 67.99999999999999 140.5 70.39999999999998 143.2 L 70.39999999999998 143.2 Q 72.49999999999999 145.3 73.1 148.15 Q 73.69999999999999 151 73.69999999999999 153.85000000000002 L 73.69999999999999 153.85000000000002 Q 73.54999999999998 157.60000000000002 72.725 161.125 Q 71.89999999999998 164.65 70.85 168.10000000000002 L 70.85 168.10000000000002 Q 68.14999999999998 176.2 64.99999999999999 184.3 L 64.99999999999999 184.3 Q 61.84999999999999 192.1 58.47499999999999 199.75 Q 55.09999999999999 207.4 51.79999999999998 215.2 L 51.79999999999998 215.2 Q 48.34999999999999 223.3 45.499999999999986 231.4 Q 42.64999999999999 239.5 40.54999999999998 248.05 L 40.54999999999998 248.05 Q 39.79999999999998 251.65 38.89999999999999 255.55 Q 37.999999999999986 259.45 38.29999999999998 263.2 L 38.29999999999998 263.2 Q 38.29999999999998 263.65 38.374999999999986 265 Q 38.44999999999999 266.35 39.19999999999999 266.65 L 39.19999999999999 266.65 Q 39.64999999999999 266.95 40.999999999999986 266.275 Q 42.34999999999999 265.6 42.64999999999999 265.3 L 42.64999999999999 265.3 Q 44.29999999999998 264.1 45.499999999999986 262.675 Q 46.69999999999999 261.25 47.89999999999999 259.6 L 47.89999999999999 259.6 Q 53.14999999999999 251.65 58.024999999999984 243.625 Q 62.899999999999984 235.6 67.54999999999998 227.35 L 67.54999999999998 227.35 Q 69.94999999999999 223.3 72.19999999999999 219.175 Q 74.44999999999999 215.05 76.54999999999998 211 L 76.54999999999998 211 Q 78.79999999999998 206.65 80.89999999999998 202.375 Q 82.99999999999999 198.1 85.69999999999999 194.2 L 85.69999999999999 194.2 Q 86.14999999999999 193.45 87.19999999999999 193.975 Q 88.24999999999999 194.5 88.09999999999998 195.25 L 88.09999999999998 195.25 Q 88.54999999999998 195.1 89.14999999999999 195.475 Q 89.74999999999999 195.85 89.74999999999999 196.3 L 89.74999999999999 196.3 Q 89.59999999999998 199.3 88.77499999999999 202.075 Q 87.94999999999999 204.85 87.04999999999998 207.55 L 87.04999999999998 207.55 Q 85.99999999999999 210.55 85.02499999999998 213.325 Q 84.04999999999998 216.1 83.14999999999998 219.1 L 83.14999999999998 219.1 Q 81.35 225.1 79.77499999999998 230.95 Q 78.19999999999999 236.8 76.99999999999999 242.95 L 76.99999999999999 242.95 Q 76.54999999999998 245.8 76.1 248.5 Q 75.64999999999998 251.2 75.35 254.05 L 75.35 254.05 Q 75.04999999999998 256.15 74.89999999999998 258.1 Q 74.74999999999999 260.05 75.04999999999998 262.15 L 75.04999999999998 262.15 Q 75.04999999999998 262.75 75.35 264.1 Q 75.64999999999998 265.45 76.24999999999999 265.75 L 76.24999999999999 265.75 Q 76.99999999999999 266.05 78.12499999999999 265.375 Q 79.24999999999999 264.7 79.85 264.25 L 79.85 264.25 Q 81.94999999999999 263.05 83.37499999999999 261.25 Q 84.79999999999998 259.45 86.14999999999999 257.5 L 86.14999999999999 257.5 Q 92.14999999999999 248.65 97.24999999999999 239.5 Q 102.34999999999998 230.35 106.69999999999999 220.6 L 106.69999999999999 220.6 Q 115.24999999999999 201.85 120.49999999999999 181.9 L 120.49999999999999 181.9 Q 121.84999999999998 176.65 123.04999999999998 171.325 Q 124.24999999999999 166 125.14999999999999 160.75 L 125.14999999999999 160.75 Q 125.59999999999998 158.5 125.89999999999999 155.65 Q 126.19999999999999 152.8 125.82499999999999 150.10000000000002 Q 125.44999999999999 147.4 124.17499999999998 145.15 Q 122.89999999999999 142.9 120.19999999999999 141.7 L 120.19999999999999 141.7 Q 119.89999999999999 141.55 119.44999999999999 141.025 Q 118.99999999999999 140.5 119.74999999999999 140.5 L 119.74999999999999 140.5 Q 122.59999999999998 140.5 124.77499999999999 141.925 Q 126.94999999999999 143.35000000000002 128.52499999999998 145.525 Q 130.09999999999997 147.7 131 150.4 Q 131.89999999999998 153.10000000000002 131.89999999999998 155.5 Z M 171.2 211.3 L 171.2 211.3 Q 171.49999999999997 210.85 172.17499999999998 211.225 Q 172.84999999999997 211.6 172.7 212.05 L 172.7 212.05 Q 171.49999999999997 216.4 168.87499999999997 219.85 Q 166.24999999999997 223.3 163.09999999999997 226.3 L 163.09999999999997 226.3 Q 160.1 229.3 156.725 231.625 Q 153.35 233.95 149.14999999999998 234.7 L 149.14999999999998 234.7 Q 145.54999999999998 235.15 142.325 234.325 Q 139.1 233.5 136.7 231.55 Q 134.29999999999998 229.6 132.79999999999998 226.6 Q 131.29999999999998 223.6 131.14999999999998 220 L 131.14999999999998 220 Q 130.99999999999997 216.55 131.89999999999998 213.1 Q 132.79999999999998 209.65 134.52499999999998 206.5 Q 136.24999999999997 203.35 138.725 200.8 Q 141.2 198.25 144.2 196.45 L 144.2 196.45 Q 147.2 194.8 150.725 194.275 Q 154.24999999999997 193.75 157.1 196.45 L 157.1 196.45 Q 159.2 198.55 158.89999999999998 201.55 Q 158.6 204.55 156.95 206.65 L 156.95 206.65 Q 153.79999999999998 211.15 148.7 212.95 Q 143.6 214.75 138.35 213.55 L 138.35 213.55 Q 138.04999999999998 214.75 137.74999999999997 215.35 L 137.74999999999997 215.35 Q 136.99999999999997 218.35 136.99999999999997 222.1 Q 136.99999999999997 225.85 138.64999999999998 228.7 L 138.64999999999998 228.7 Q 140.6 232.15 144.35 232.375 Q 148.1 232.6 151.39999999999998 231.4 L 151.39999999999998 231.4 Q 154.7 230.2 157.54999999999998 228.025 Q 160.39999999999998 225.85 162.95 223.45 L 162.95 223.45 Q 165.64999999999998 220.75 167.825 217.825 Q 169.99999999999997 214.9 171.2 211.3 Z M 143.89999999999998 204.4 L 143.89999999999998 204.4 Q 142.24999999999997 206.05 140.975 208.15 Q 139.7 210.25 138.79999999999998 212.5 L 138.79999999999998 212.5 Q 144.35 212.8 148.7 210.1 L 148.7 210.1 Q 151.1 208.6 153.27499999999998 205.975 Q 155.45 203.35 155.29999999999998 200.35 L 155.29999999999998 200.35 Q 155.14999999999998 198.4 153.575 198.55 Q 151.99999999999997 198.7 150.04999999999998 199.825 Q 148.1 200.95 146.29999999999998 202.375 Q 144.49999999999997 203.8 143.89999999999998 204.4 Z M 177.79999999999998 212.5 L 177.79999999999998 212.5 Q 177.34999999999997 214 176.89999999999998 215.5 Q 176.45 217 176.14999999999998 218.5 L 176.14999999999998 218.5 Q 174.49999999999997 225.1 174.79999999999998 231.7 L 174.79999999999998 231.7 Q 174.95 234.25 175.39999999999998 236.8 Q 175.84999999999997 239.35 177.49999999999997 241.45 L 177.49999999999997 241.45 Q 178.84999999999997 243.1 180.34999999999997 243.1 Q 181.84999999999997 243.1 183.34999999999997 242.275 Q 184.84999999999997 241.45 186.27499999999998 240.175 Q 187.7 238.9 188.74999999999997 238 L 188.74999999999997 238 Q 192.79999999999998 234.55 196.24999999999997 230.5 L 196.24999999999997 230.5 Q 199.99999999999997 226.15 202.99999999999997 221.35 Q 205.99999999999997 216.55 208.54999999999998 211.3 L 208.54999999999998 211.3 Q 208.7 211 209.075 211 Q 209.45 211 209.89999999999998 211.225 Q 210.34999999999997 211.45 210.64999999999998 211.825 Q 210.95 212.2 210.79999999999998 212.5 L 210.79999999999998 212.5 Q 207.95 219.25 203.825 225.325 Q 199.7 231.4 194.45 236.65 L 194.45 236.65 Q 192.34999999999997 238.9 189.49999999999997 241.75 Q 186.64999999999998 244.6 183.49999999999997 245.35 L 183.49999999999997 245.35 Q 180.95 246.1 178.47499999999997 244.975 Q 175.99999999999997 243.85 174.34999999999997 242.2 L 174.34999999999997 242.2 Q 171.79999999999998 239.8 170.52499999999998 236.65 Q 169.24999999999997 233.5 168.87499999999997 230.2 Q 168.49999999999997 226.9 168.72499999999997 223.45 Q 168.95 220 169.7 216.85 L 169.7 216.85 Q 171.2 210.25 173.45 203.875 Q 175.7 197.5 178.24999999999997 191.35 L 178.24999999999997 191.35 Q 183.49999999999997 178.9 190.99999999999997 168.4 L 190.99999999999997 168.4 Q 192.79999999999998 165.85000000000002 194.825 163.45 Q 196.84999999999997 161.05 198.95 158.65 L 198.95 158.65 Q 201.04999999999998 156.25 203.59999999999997 153.85000000000002 Q 206.14999999999998 151.45 208.99999999999997 149.8 L 208.99999999999997 149.8 Q 211.39999999999998 148.60000000000002 213.87499999999997 148.97500000000002 Q 216.34999999999997 149.35000000000002 218.14999999999998 151.3 L 218.14999999999998 151.3 Q 219.64999999999998 152.95 219.72499999999997 155.425 Q 219.79999999999998 157.9 219.34999999999997 160 L 219.34999999999997 160 Q 218.14999999999998 165.7 215.67499999999998 171.25 Q 213.2 176.8 210.2 181.75 L 210.2 181.75 Q 204.49999999999997 191.5 196.24999999999997 199.525 Q 187.99999999999997 207.55 177.79999999999998 212.5 Z M 206.59999999999997 160 L 206.59999999999997 160 Q 198.95 167.8 193.325 177.175 Q 187.7 186.55 183.49999999999997 196.6 L 183.49999999999997 196.6 Q 182.14999999999998 199.9 180.95 203.2 Q 179.74999999999997 206.5 178.54999999999998 209.95 L 178.54999999999998 209.95 Q 187.39999999999998 204.25 194.74999999999997 196.9 Q 202.09999999999997 189.55 207.34999999999997 180.25 L 207.34999999999997 180.25 Q 209.89999999999998 175.9 211.84999999999997 171.175 Q 213.79999999999998 166.45 215.14999999999998 161.65 L 215.14999999999998 161.65 Q 215.45 160.45 215.74999999999997 159.175 Q 216.04999999999998 157.9 216.2 156.7 L 216.2 156.7 Q 216.2 156.10000000000002 216.2 155.425 Q 216.2 154.75 216.04999999999998 154.3 L 216.04999999999998 154.3 Q 215.74999999999997 153.7 215.29999999999998 153.10000000000002 L 215.29999999999998 153.10000000000002 Q 213.95 153.10000000000002 212.67499999999998 154.22500000000002 Q 211.39999999999998 155.35000000000002 210.49999999999997 156.25 L 210.49999999999997 156.25 Q 209.45 157.15 208.47499999999997 158.05 Q 207.49999999999997 158.95 206.59999999999997 160 Z M 247.09999999999997 210.85 L 247.09999999999997 210.85 Q 247.39999999999998 210.4 248.22499999999997 210.85 Q 249.04999999999998 211.3 248.74999999999997 211.75 L 248.74999999999997 211.75 Q 245.74999999999997 218.05 240.87499999999997 224.125 Q 235.99999999999997 230.2 229.54999999999998 233.2 L 229.54999999999998 233.2 Q 227.14999999999998 234.4 224.37499999999997 234.775 Q 221.59999999999997 235.15 218.97499999999997 234.7 Q 216.34999999999997 234.25 213.95 232.9 Q 211.54999999999998 231.55 209.89999999999998 229.3 L 209.89999999999998 229.3 Q 206.45 224.5 207.04999999999998 218.575 Q 207.64999999999998 212.65 210.04999999999998 207.55 L 210.04999999999998 207.55 Q 211.09999999999997 205.15 212.825 202.525 Q 214.54999999999998 199.9 216.79999999999998 197.725 Q 219.04999999999998 195.55 221.74999999999997 194.35 Q 224.45 193.15 227.45 193.6 L 227.45 193.6 Q 230.29999999999998 194.2 231.79999999999998 196 L 231.79999999999998 196 Q 232.99999999999997 196.9 233.45 198.4 Q 233.89999999999998 199.9 233.45 201.7 L 233.45 201.7 Q 232.99999999999997 203.5 231.95 205.375 Q 230.89999999999998 207.25 229.39999999999998 208.75 Q 227.89999999999998 210.25 225.95 211.15 Q 223.99999999999997 212.05 222.04999999999998 212.05 L 222.04999999999998 212.05 L 221.89999999999998 212.05 Q 221.89999999999998 212.05 221.89999999999998 211.9 L 221.89999999999998 211.9 Q 226.39999999999998 209.5 228.79999999999998 204.85 L 228.79999999999998 204.85 Q 229.54999999999998 203.65 230.075 202.225 Q 230.59999999999997 200.8 230.59999999999997 199.3 L 230.59999999999997 199.3 L 230.59999999999997 198.85 Q 229.84999999999997 196.45 227.59999999999997 197.2 L 227.59999999999997 197.2 Q 224.89999999999998 197.95 222.64999999999998 200.05 Q 220.39999999999998 202.15 218.74999999999997 204.4 L 218.74999999999997 204.4 Q 215.74999999999997 208.6 214.02499999999998 213.85 Q 212.29999999999998 219.1 212.74999999999997 224.35 L 212.74999999999997 224.35 Q 213.04999999999998 227.8 214.77499999999998 229.975 Q 216.49999999999997 232.15 219.95 232.75 L 219.95 232.75 Q 223.24999999999997 233.2 226.24999999999997 232.15 Q 229.24999999999997 231.1 231.79999999999998 229.3 L 231.79999999999998 229.3 Q 236.89999999999998 225.85 240.72499999999997 221.125 Q 244.54999999999998 216.4 247.09999999999997 210.85 Z M 282.65 211.3 L 282.65 211.3 Q 282.95 210.7 283.92499999999995 211.3 Q 284.9 211.9 284.59999999999997 212.35 L 284.59999999999997 212.35 Q 281.15 217 275.37499999999994 220.15 Q 269.59999999999997 223.3 263.59999999999997 223 L 263.59999999999997 223 Q 262.7 224.8 261.65 226.45 Q 260.59999999999997 228.1 259.4 229.75 L 259.4 229.75 Q 258.2 231.1 256.99999999999994 232.375 Q 255.79999999999995 233.65 254.29999999999995 234.4 Q 252.79999999999995 235.15 251.14999999999998 235.3 Q 249.49999999999997 235.45 247.69999999999996 234.7 L 247.69999999999996 234.7 Q 243.94999999999996 233.2 242.67499999999995 229.675 Q 241.39999999999998 226.15 241.92499999999995 222.175 Q 242.44999999999996 218.2 244.39999999999998 214.525 Q 246.34999999999997 210.85 249.04999999999995 208.9 L 249.04999999999995 208.9 Q 248.44999999999996 204.55 249.94999999999996 200.65 Q 251.44999999999996 196.75 255.19999999999996 194.8 L 255.19999999999996 194.8 Q 258.65 193 262.4 194.35 Q 266.15 195.7 267.79999999999995 199 L 267.79999999999995 199 Q 269.45 202.45 268.92499999999995 206.35 Q 268.4 210.25 267.34999999999997 213.7 L 267.34999999999997 213.7 Q 266.15 217.6 264.65 220.9 L 264.65 220.9 Q 269.9 220.6 274.7 217.9 Q 279.49999999999994 215.2 282.65 211.3 Z M 258.95 198.55 L 258.95 198.55 Q 257.74999999999994 199.3 256.84999999999997 200.5 Q 255.94999999999996 201.7 255.19999999999996 202.9 L 255.19999999999996 202.9 Q 253.24999999999997 206.35 253.09999999999997 209.95 L 253.09999999999997 209.95 Q 253.24999999999997 210.4 253.09999999999997 210.55 L 253.09999999999997 210.55 Q 252.94999999999996 214 254.59999999999997 216.775 Q 256.24999999999994 219.55 260.15 220.45 L 260.15 220.45 Q 262.09999999999997 216.25 263.29999999999995 211.45 L 263.29999999999995 211.45 Q 263.9 208.9 264.2 205.9 Q 264.49999999999994 202.9 263.74999999999994 200.35 L 263.74999999999994 200.35 Q 263.59999999999997 199.75 263.37499999999994 198.925 Q 263.15 198.1 262.54999999999995 197.8 L 262.54999999999995 197.8 Q 261.79999999999995 197.35 260.74999999999994 197.725 Q 259.7 198.1 258.95 198.55 Z M 258.95 222.85 L 258.95 222.85 Q 258.95 222.55 259.24999999999994 222.25 L 259.24999999999994 222.25 Q 257.9 221.8 256.7 221.125 Q 255.49999999999997 220.45 254.29999999999995 219.55 L 254.29999999999995 219.55 Q 252.04999999999995 217.45 250.69999999999996 214.9 L 250.69999999999996 214.9 Q 249.79999999999995 216.85 248.97499999999997 218.8 Q 248.14999999999998 220.75 247.69999999999996 222.85 L 247.69999999999996 222.85 Q 247.54999999999995 223.6 247.47499999999997 225.325 Q 247.39999999999998 227.05 247.62499999999997 228.7 Q 247.84999999999997 230.35 248.52499999999998 231.4 Q 249.19999999999996 232.45 250.69999999999996 232 L 250.69999999999996 232 Q 253.39999999999998 231.1 255.49999999999997 228.175 Q 257.59999999999997 225.25 258.95 222.85 Z M 339.49999999999994 211.6 L 339.49999999999994 211.6 Q 339.79999999999995 211 340.775 211.525 Q 341.74999999999994 212.05 341.44999999999993 212.65 L 341.44999999999993 212.65 Q 338.9 219.7 335.37499999999994 226.15 Q 331.84999999999997 232.6 327.04999999999995 238.3 L 327.04999999999995 238.3 Q 325.7 240.1 323.825 242.35 Q 321.95 244.6 319.54999999999995 245.2 L 319.54999999999995 245.2 Q 317.59999999999997 245.65 316.025 244.675 Q 314.45 243.7 313.24999999999994 242.2 L 313.24999999999994 242.2 Q 311.29999999999995 239.65 311.59999999999997 236.125 Q 311.9 232.6 312.34999999999997 229.6 L 312.34999999999997 229.6 Q 312.95 226.3 313.84999999999997 223.075 Q 314.74999999999994 219.85 315.95 216.55 L 315.95 216.55 Q 317.15 213.25 318.575 210.175 Q 319.99999999999994 207.1 321.65 203.95 L 321.65 203.95 Q 321.79999999999995 203.65 322.24999999999994 202.675 Q 322.7 201.7 323.15 200.5 Q 323.59999999999997 199.3 323.9 198.325 Q 324.2 197.35 323.74999999999994 197.05 L 323.74999999999994 197.05 Q 323.29999999999995 196.75 322.54999999999995 197.2 Q 321.79999999999995 197.65 321.04999999999995 198.4 Q 320.29999999999995 199.15 319.54999999999995 199.9 Q 318.79999999999995 200.65 318.65 200.95 L 318.65 200.95 Q 316.24999999999994 203.65 314.37499999999994 206.725 Q 312.49999999999994 209.8 310.7 212.8 L 310.7 212.8 Q 309.04999999999995 215.35 307.54999999999995 218.05 Q 306.04999999999995 220.75 304.54999999999995 223.3 L 304.54999999999995 223.3 Q 304.24999999999994 224.05 303.95 224.8 Q 303.65 225.55 302.9 226 L 302.9 226 Q 302.15 226.3 301.17499999999995 226 Q 300.2 225.7 299.59999999999997 225.1 L 299.59999999999997 225.1 Q 298.24999999999994 223.3 298.09999999999997 221.2 Q 297.95 219.1 298.47499999999997 216.85 Q 298.99999999999994 214.6 299.97499999999997 212.425 Q 300.95 210.25 301.84999999999997 208.45 L 301.84999999999997 208.45 Q 302.74999999999994 206.35 303.79999999999995 204.25 Q 304.84999999999997 202.15 306.04999999999995 200.05 L 306.04999999999995 200.05 Q 306.65 199.15 307.24999999999994 198.1 L 307.24999999999994 198.1 Q 307.24999999999994 197.65 307.4 197.5 L 307.4 197.5 L 307.24999999999994 197.5 Q 306.34999999999997 197.95 305.45 198.85 L 305.45 198.85 Q 301.7 202 298.92499999999995 206.65 Q 296.15 211.3 293.9 215.65 L 293.9 215.65 Q 292.7 217.75 291.65 220 Q 290.59999999999997 222.25 289.54999999999995 224.5 L 289.54999999999995 224.5 Q 288.49999999999994 226.6 287.67499999999995 228.625 Q 286.84999999999997 230.65 285.65 232.75 L 285.65 232.75 Q 285.65 233.05 285.575 233.275 Q 285.49999999999994 233.5 285.49999999999994 233.8 L 285.49999999999994 233.8 Q 285.34999999999997 234.25 284.825 234.25 Q 284.29999999999995 234.25 283.7 233.95 Q 283.09999999999997 233.65 282.65 233.2 Q 282.2 232.75 282.04999999999995 232.45 L 282.04999999999995 232.45 Q 280.09999999999997 227.65 280.4 222.625 Q 280.7 217.6 281.9 212.5 L 281.9 212.5 Q 282.65 209.95 283.4 207.625 Q 284.15 205.3 285.34999999999997 202.9 L 285.34999999999997 202.9 Q 286.4 200.8 287.67499999999995 198.475 Q 288.95 196.15 290.74999999999994 194.65 L 290.74999999999994 194.65 Q 291.34999999999997 194.05 292.47499999999997 194.275 Q 293.59999999999997 194.5 294.575 195.1 Q 295.54999999999995 195.7 296.15 196.525 Q 296.74999999999994 197.35 296.45 198.25 L 296.45 198.25 Q 295.7 200.5 294.275 202.6 Q 292.84999999999997 204.7 291.79999999999995 206.8 L 291.79999999999995 206.8 Q 289.7 211.3 288.65 215.8 L 288.65 215.8 Q 288.04999999999995 217.9 287.67499999999995 220.15 Q 287.29999999999995 222.4 286.99999999999994 224.65 L 286.99999999999994 224.65 L 288.34999999999997 221.5 Q 289.54999999999995 218.8 290.825 216.175 Q 292.09999999999997 213.55 293.45 211 L 293.45 211 Q 294.95 208.45 296.525 205.9 Q 298.09999999999997 203.35 299.74999999999994 200.95 L 299.74999999999994 200.95 Q 300.95 199 302.67499999999995 196.975 Q 304.4 194.95 306.65 194.2 L 306.65 194.2 Q 308.29999999999995 193.6 309.72499999999997 194.425 Q 311.15 195.25 311.9 196.75 L 311.9 196.75 Q 312.95 198.7 312.275 201.025 Q 311.59999999999997 203.35 310.84999999999997 205.3 L 310.84999999999997 205.3 Q 309.79999999999995 208 308.59999999999997 210.625 Q 307.4 213.25 306.34999999999997 216.1 L 306.34999999999997 216.1 Q 306.2 216.4 306.04999999999995 216.85 Q 305.9 217.3 305.74999999999994 217.75 L 305.74999999999994 217.75 Q 306.95 215.65 307.92499999999995 213.85 Q 308.9 212.05 310.09999999999997 210.1 L 310.09999999999997 210.1 Q 311.9 207.1 313.7 204.25 Q 315.49999999999994 201.4 317.9 198.85 L 317.9 198.85 Q 319.24999999999994 197.5 321.04999999999995 196 Q 322.84999999999997 194.5 324.95 195.25 L 324.95 195.25 Q 327.49999999999994 196.15 328.17499999999995 198.775 Q 328.84999999999997 201.4 328.54999999999995 203.65 L 328.54999999999995 203.65 Q 328.24999999999994 206.95 326.74999999999994 210.1 Q 325.24999999999994 213.25 324.04999999999995 216.25 L 324.04999999999995 216.25 Q 322.84999999999997 219.4 321.79999999999995 222.55 Q 320.74999999999994 225.7 319.7 229 L 319.7 229 Q 319.09999999999997 230.65 318.65 232.375 Q 318.2 234.1 317.59999999999997 235.75 L 317.59999999999997 235.75 Q 317.29999999999995 236.8 316.99999999999994 237.7 Q 316.7 238.6 316.54999999999995 239.65 L 316.54999999999995 239.65 Q 316.4 240.1 316.325 241.15 Q 316.24999999999994 242.2 316.54999999999995 242.5 L 316.54999999999995 242.5 Q 317.29999999999995 243.25 318.42499999999995 243.1 Q 319.54999999999995 242.95 320.29999999999995 242.5 L 320.29999999999995 242.5 L 321.2 241.6 Q 321.95 240.85 322.54999999999995 240.175 Q 323.15 239.5 323.9 238.75 L 323.9 238.75 Q 325.99999999999994 236.35 327.79999999999995 233.95 L 327.79999999999995 233.95 Q 331.7 228.85 334.54999999999995 223.225 Q 337.4 217.6 339.49999999999994 211.6 Z M 378.34999999999997 211.3 L 378.34999999999997 211.3 Q 378.65 210.85 379.325 211.225 Q 380 211.6 379.84999999999997 212.05 L 379.84999999999997 212.05 Q 378.65 216.4 376.025 219.85 Q 373.4 223.3 370.25 226.3 L 370.25 226.3 Q 367.25 229.3 363.875 231.625 Q 360.5 233.95 356.3 234.7 L 356.3 234.7 Q 352.7 235.15 349.47499999999997 234.325 Q 346.25 233.5 343.84999999999997 231.55 Q 341.45 229.6 339.95 226.6 Q 338.45 223.6 338.3 220 L 338.3 220 Q 338.15 216.55 339.05 213.1 Q 339.95 209.65 341.675 206.5 Q 343.4 203.35 345.875 200.8 Q 348.34999999999997 198.25 351.34999999999997 196.45 L 351.34999999999997 196.45 Q 354.34999999999997 194.8 357.875 194.275 Q 361.4 193.75 364.25 196.45 L 364.25 196.45 Q 366.34999999999997 198.55 366.05 201.55 Q 365.75 204.55 364.09999999999997 206.65 L 364.09999999999997 206.65 Q 360.95 211.15 355.84999999999997 212.95 Q 350.75 214.75 345.5 213.55 L 345.5 213.55 Q 345.2 214.75 344.9 215.35 L 344.9 215.35 Q 344.15 218.35 344.15 222.1 Q 344.15 225.85 345.8 228.7 L 345.8 228.7 Q 347.75 232.15 351.5 232.375 Q 355.25 232.6 358.55 231.4 L 358.55 231.4 Q 361.84999999999997 230.2 364.7 228.025 Q 367.55 225.85 370.09999999999997 223.45 L 370.09999999999997 223.45 Q 372.8 220.75 374.97499999999997 217.825 Q 377.15 214.9 378.34999999999997 211.3 Z M 351.05 204.4 L 351.05 204.4 Q 349.4 206.05 348.125 208.15 Q 346.84999999999997 210.25 345.95 212.5 L 345.95 212.5 Q 351.5 212.8 355.84999999999997 210.1 L 355.84999999999997 210.1 Q 358.25 208.6 360.425 205.975 Q 362.59999999999997 203.35 362.45 200.35 L 362.45 200.35 Q 362.3 198.4 360.72499999999997 198.55 Q 359.15 198.7 357.2 199.825 Q 355.25 200.95 353.45 202.375 Q 351.65 203.8 351.05 204.4 Z" fill-opacity="1"/></g></g></svg>