<svg version="1.1" xmlns="http://www.w3.org/2000/svg" xmlns:xlink="http://www.w3.org/1999/xlink" width="400" height="400" viewBox="0 0 400 400"><defs/><g><g><path fill="rgb(0,0,0)" stroke="none" paint-order="stroke fill markers" d=" M 100.72500000000001 203.25 L 100.72500000000001 203.25 Q 101.38500000000002 201.6 101.88000000000001 200.28 Q 102.37500000000001 198.96 102.81500000000001 198.07999999999998 L 102.81500000000001 198.07999999999998 Q 98.19500000000002 200.94 92.58500000000002 206 Q 86.97500000000001 211.06 81.09000000000002 217.275 Q 75.20500000000001 223.49 69.32000000000002 230.2 Q 63.43500000000002 236.91 58.155000000000015 243.07 L 58.155000000000015 243.07 Q 54.85500000000002 246.92 51.83000000000001 250.33 Q 48.805000000000014 253.74 46.22000000000001 256.545 Q 43.63500000000002 259.35 41.600000000000016 261.385 Q 39.56500000000001 263.42 38.13500000000002 264.41 L 38.13500000000002 264.41 Q 36.70500000000001 265.29 35.66000000000001 265.18 Q 34.615000000000016 265.07 33.95500000000001 264.245 Q 33.295000000000016 263.42 33.02000000000001 262.155 Q 32.74500000000002 260.89 32.74500000000002 259.57 L 32.74500000000002 259.57 Q 32.52500000000001 253.96 34.12000000000002 247.36 Q 35.71500000000002 240.76 38.35500000000002 233.61 Q 40.99500000000002 226.46 44.405000000000015 219.145 Q 47.81500000000001 211.82999999999998 51.280000000000015 204.735 Q 54.74500000000001 197.64 57.88000000000002 191.15 Q 61.015000000000015 184.66 63.10500000000002 179.26999999999998 L 63.10500000000002 179.26999999999998 Q 64.20500000000001 174.98000000000002 63.38000000000002 173 Q 62.555000000000014 171.01999999999998 60.57500000000002 170.69 Q 58.59500000000001 170.36 55.90000000000001 171.29500000000002 Q 53.20500000000001 172.23000000000002 50.78500000000002 173.66 L 50.78500000000002 173.66 Q 46.71500000000002 175.97 42.31500000000001 179.765 Q 37.91500000000001 183.56 33.95500000000001 188.51 Q 29.995000000000015 193.46 26.805000000000014 199.345 Q 23.615000000000016 205.23 22.185000000000016 211.61 L 22.185000000000016 211.61 Q 21.965000000000014 212.49 21.195000000000014 212.27 Q 20.425000000000015 212.05 20.645000000000014 211.28 L 20.645000000000014 211.28 Q 22.185000000000016 204.68 25.375000000000014 198.685 Q 28.565000000000015 192.69 32.69000000000001 187.63 Q 36.81500000000001 182.57 41.32500000000002 178.61 Q 45.835000000000015 174.65 50.015000000000015 172.34 L 50.015000000000015 172.34 Q 52.43500000000002 170.91 55.240000000000016 169.975 Q 58.045000000000016 169.04000000000002 60.46500000000002 169.26 Q 62.88500000000001 169.48000000000002 64.70000000000002 171.185 Q 66.51500000000001 172.89 67.06500000000001 176.74 L 67.06500000000001 176.74 Q 67.61500000000001 180.26 66.24000000000001 186.145 Q 64.86500000000001 192.03 62.390000000000015 199.18 Q 59.91500000000001 206.32999999999998 56.615000000000016 214.195 Q 53.31500000000001 222.06 50.070000000000014 229.595 Q 46.82500000000002 237.13 43.85500000000002 243.785 Q 40.88500000000002 250.44 39.015000000000015 255.115 Q 37.14500000000001 259.79 36.70500000000001 261.935 Q 36.265000000000015 264.08 38.02500000000002 262.65 L 38.02500000000002 262.65 Q 40.555000000000014 260.56 45.56000000000002 254.95 Q 50.56500000000001 249.34 56.945000000000014 242.08 L 56.945000000000014 242.08 Q 62.335000000000015 235.81 68.33000000000001 228.88 Q 74.32500000000002 221.95 80.37500000000001 215.68 Q 86.42500000000001 209.41 92.09000000000002 204.29500000000002 Q 97.75500000000001 199.18 102.59500000000001 196.43 L 102.59500000000001 196.43 Q 103.91500000000002 194.89 105.95000000000002 194.23 Q 107.98500000000001 193.57 109.63500000000002 195.44 L 109.63500000000002 195.44 Q 110.95500000000001 196.98 109.96500000000002 201.6 Q 108.97500000000001 206.22 106.77500000000002 212.54500000000002 Q 104.57500000000002 218.87 101.49500000000002 226.13 Q 98.41500000000002 233.39 95.44500000000002 240.155 Q 92.47500000000001 246.92 90.16500000000002 252.53 Q 87.85500000000002 258.14 87.08500000000002 261.11 L 87.08500000000002 261.11 Q 86.86500000000001 262.1 87.14000000000001 262.155 Q 87.41500000000002 262.21 87.96500000000002 261.88 Q 88.51500000000001 261.55 89.06500000000001 261 Q 89.61500000000001 260.45 89.94500000000002 260.23 L 89.94500000000002 260.23 Q 93.35500000000002 257.04 97.81000000000002 250.44 Q 102.26500000000001 243.84 107.76500000000001 235.15 L 107.76500000000001 235.15 Q 113.15500000000002 226.57 119.48000000000002 216.89 Q 125.80500000000002 207.21 133.065 198.135 Q 140.32500000000002 189.06 148.465 181.36 Q 156.60500000000002 173.66 165.51500000000001 169.04000000000002 L 165.51500000000001 169.04000000000002 Q 166.28500000000003 168.70999999999998 166.615 169.425 Q 166.94500000000002 170.14 166.28500000000003 170.47 L 166.28500000000003 170.47 Q 157.485 174.98000000000002 149.455 182.57 Q 141.425 190.16 134.27500000000003 199.18 Q 127.12500000000001 208.2 120.80000000000001 217.825 Q 114.47500000000001 227.45 109.08500000000002 236.03 L 109.08500000000002 236.03 Q 103.36500000000001 244.94 98.74500000000002 251.87 Q 94.12500000000001 258.8 90.38500000000002 261.88 L 90.38500000000002 261.88 Q 89.61500000000001 262.54 88.57000000000002 263.145 Q 87.52500000000002 263.75 86.53500000000001 263.915 Q 85.54500000000002 264.08 84.66500000000002 263.64 Q 83.78500000000001 263.2 83.34500000000001 261.77 L 83.34500000000001 261.77 Q 82.68500000000002 259.68 83.29000000000002 255.61 Q 83.89500000000001 251.54 85.32500000000002 246.315 Q 86.75500000000001 241.09 88.73500000000001 235.15 Q 90.71500000000002 229.21 92.86000000000001 223.38 Q 95.00500000000001 217.55 97.09500000000001 212.325 Q 99.18500000000002 207.1 100.72500000000001 203.25 Z M 148.24500000000003 214.91 L 148.24500000000003 214.91 Q 149.89500000000004 214.47 151.71000000000004 213.7 Q 153.52500000000003 212.93 155.23000000000002 211.82999999999998 Q 156.93500000000003 210.73 158.25500000000002 209.355 Q 159.57500000000002 207.98 160.235 206.32999999999998 L 160.235 206.32999999999998 Q 161.11500000000004 204.13 160.40000000000003 203.69 Q 159.68500000000003 203.25 158.03500000000003 204.46 L 158.03500000000003 204.46 Q 156.16500000000002 205.78 153.52500000000003 208.585 Q 150.88500000000002 211.39 148.24500000000003 214.91 Z M 145.82500000000002 218.21 L 145.82500000000002 218.21 Q 143.29500000000002 222.06 141.15000000000003 225.57999999999998 Q 139.00500000000002 229.1 138.12500000000003 231.52 L 138.12500000000003 231.52 Q 136.91500000000002 234.93 137.96000000000004 236.085 Q 139.00500000000002 237.24 142.08500000000004 236.69 L 142.08500000000004 236.69 Q 145.27500000000003 236.03 149.01500000000001 233.72 Q 152.75500000000002 231.41 156.55000000000004 228.44 Q 160.34500000000003 225.47 163.81000000000003 222.335 Q 167.27500000000003 219.2 170.02500000000003 217 L 170.02500000000003 217 Q 170.57500000000002 216.45 171.01500000000004 217.055 Q 171.45500000000004 217.66 170.90500000000003 218.21 L 170.90500000000003 218.21 Q 168.04500000000002 220.52 164.36 223.82 Q 160.67500000000004 227.12 156.60500000000002 230.255 Q 152.53500000000003 233.39 148.46500000000003 235.645 Q 144.39500000000004 237.9 140.985 238.23 L 140.985 238.23 Q 138.67500000000004 238.45 137.13500000000002 237.845 Q 135.59500000000003 237.24 134.66000000000003 235.92 Q 133.72500000000002 234.6 133.45000000000002 232.785 Q 133.17500000000004 230.97 133.50500000000002 228.88 L 133.50500000000002 228.88 Q 134.16500000000002 223.71 137.46500000000003 218.32 L 137.46500000000003 218.32 Q 139.33500000000004 215.02 141.75500000000002 211.94 Q 144.17500000000004 208.86 146.92500000000004 206.495 Q 149.67500000000004 204.13 152.42500000000004 202.645 Q 155.17500000000004 201.16 157.70500000000004 201.16 L 157.70500000000004 201.16 Q 160.235 201.05 161.55500000000004 202.535 Q 162.87500000000003 204.02 161.66500000000002 206.88 L 161.66500000000002 206.88 Q 160.89500000000004 208.86 159.24500000000003 210.51 Q 157.59500000000003 212.16 155.50500000000002 213.425 Q 153.41500000000002 214.69 151.16000000000003 215.57 Q 148.90500000000003 216.45 146.81500000000003 216.89 L 146.81500000000003 216.89 Q 146.485 217.44 145.82500000000002 218.21 Z M 209.07500000000005 217 L 209.07500000000005 217 Q 209.62500000000003 216.45 210.12000000000003 217 Q 210.61500000000004 217.55 210.06500000000003 218.1 L 210.06500000000003 218.1 Q 207.09500000000003 220.85 202.97000000000003 224.315 Q 198.84500000000003 227.78 194.39000000000004 231.245 Q 189.93500000000003 234.71 185.48000000000005 237.735 Q 181.02500000000003 240.76 177.50500000000002 242.52 L 177.50500000000002 242.52 Q 174.86500000000004 243.84 172.33500000000004 244.5 Q 169.80500000000004 245.16 167.82500000000005 244.665 Q 165.84500000000003 244.17 164.63500000000005 242.3 Q 163.42500000000004 240.43 163.31500000000003 236.91 L 163.31500000000003 236.91 Q 163.20500000000004 231.41 166.17500000000004 224.425 Q 169.14500000000004 217.44 174.15000000000003 210.18 Q 179.15500000000003 202.92000000000002 185.59000000000003 195.88 Q 192.02500000000003 188.84 198.84500000000003 183.285 Q 205.66500000000002 177.73000000000002 212.37500000000003 174.155 Q 219.08500000000004 170.57999999999998 224.69500000000005 170.14 L 224.69500000000005 170.14 Q 230.85500000000002 169.7 233.11000000000004 173.055 Q 235.36500000000004 176.41 231.73500000000004 182.35 L 231.73500000000004 182.35 Q 228.32500000000005 187.85 221.94500000000005 192.965 Q 215.56500000000003 198.07999999999998 208.14000000000004 202.37 Q 200.71500000000003 206.66 193.18000000000004 210.07 Q 185.64500000000004 213.48 179.92500000000004 215.57 L 179.92500000000004 215.57 Q 178.49500000000003 217.55 176.57000000000002 220.41 Q 174.64500000000004 223.27 172.77500000000003 226.405 Q 170.90500000000003 229.54 169.47500000000002 232.62 Q 168.04500000000004 235.7 167.60500000000005 238.12 L 167.60500000000005 238.12 Q 167.16500000000002 240.76 167.99000000000004 241.805 Q 168.81500000000003 242.85 170.30000000000004 242.96 Q 171.78500000000003 243.07 173.65500000000003 242.465 Q 175.52500000000003 241.86 177.06500000000003 240.98 L 177.06500000000003 240.98 Q 180.36500000000004 239.22 184.76500000000004 236.25 Q 189.16500000000002 233.28 193.62000000000003 229.87 Q 198.07500000000005 226.46 202.20000000000005 223.05 Q 206.32500000000005 219.64 209.07500000000005 217 Z M 181.57500000000005 213.26 L 181.57500000000005 213.26 Q 186.96500000000003 211.17000000000002 194.06000000000003 207.925 Q 201.15500000000003 204.68 208.19500000000005 200.555 Q 215.23500000000004 196.43 221.23000000000002 191.59 Q 227.22500000000002 186.75 230.41500000000002 181.57999999999998 L 230.41500000000002 181.57999999999998 Q 232.06500000000003 178.94 232.28500000000003 176.905 Q 232.50500000000002 174.87 231.57000000000005 173.66 Q 230.63500000000005 172.45 228.71000000000004 172.285 Q 226.78500000000003 172.12 224.03500000000003 173.22 L 224.03500000000003 173.22 Q 218.86500000000004 175.31 212.98000000000002 180.04000000000002 Q 207.09500000000003 184.76999999999998 201.32000000000005 190.6 Q 195.54500000000004 196.43 190.37500000000003 202.48 Q 185.20500000000004 208.53 181.57500000000005 213.26 Z M 230.74500000000006 213.81 L 230.74500000000006 213.81 Q 230.19500000000005 214.36 229.64500000000004 213.81 Q 229.09500000000006 213.26 229.64500000000004 212.71 L 229.64500000000004 212.71 Q 231.95500000000004 210.29 232.83500000000004 208.09 L 232.83500000000004 208.09 Q 233.05500000000004 207.43 233.16500000000005 206.55 Q 233.27500000000003 205.67000000000002 233.16500000000005 204.95499999999998 Q 233.05500000000004 204.24 232.56000000000006 203.855 Q 232.06500000000005 203.47 231.07500000000005 203.8 L 231.07500000000005 203.8 Q 229.42500000000004 204.35 227.33500000000004 206.11 Q 225.24500000000006 207.87 222.93500000000006 210.345 Q 220.62500000000006 212.82 218.37000000000003 215.735 Q 216.11500000000004 218.65 214.19000000000005 221.565 Q 212.26500000000004 224.48 210.78000000000006 227.065 Q 209.29500000000004 229.65 208.63500000000005 231.52 L 208.63500000000005 231.52 Q 207.42500000000004 234.93 208.52500000000003 236.085 Q 209.62500000000006 237.24 212.59500000000006 236.69 L 212.59500000000006 236.69 Q 215.89500000000004 236.03 219.63500000000005 233.72 Q 223.37500000000006 231.41 227.06000000000006 228.44 Q 230.74500000000006 225.47 234.21000000000004 222.335 Q 237.67500000000004 219.2 240.42500000000004 217 L 240.42500000000004 217 Q 240.97500000000005 216.56 241.47000000000006 217.165 Q 241.96500000000003 217.77 241.41500000000005 218.21 L 241.41500000000005 218.21 Q 238.55500000000004 220.52 234.81500000000005 223.82 Q 231.07500000000005 227.12 227.06000000000006 230.255 Q 223.04500000000004 233.39 218.97500000000005 235.645 Q 214.90500000000006 237.9 211.49500000000003 238.23 L 211.49500000000003 238.23 Q 209.18500000000006 238.45 207.64500000000004 237.845 Q 206.10500000000005 237.24 205.17000000000004 235.92 Q 204.23500000000004 234.6 203.96000000000004 232.785 Q 203.68500000000006 230.97 204.01500000000004 228.88 L 204.01500000000004 228.88 Q 204.56500000000005 225.14 206.82000000000005 220.795 Q 209.07500000000005 216.45 212.26500000000004 212.49 Q 215.45500000000004 208.53 219.14000000000004 205.505 Q 222.82500000000005 202.48 226.34500000000006 201.38 L 226.34500000000006 201.38 Q 228.10500000000005 200.82999999999998 229.81000000000006 200.94 Q 231.51500000000004 201.05 232.72500000000005 201.82 Q 233.93500000000006 202.59 234.48500000000004 204.075 Q 235.03500000000005 205.56 234.48500000000004 207.65 L 234.48500000000004 207.65 Q 234.15500000000006 208.97 233.27500000000003 210.45499999999998 Q 232.39500000000004 211.94 230.74500000000006 213.81 Z M 260.88500000000005 226.13 L 260.88500000000005 226.13 Q 261.76500000000004 227.67 263.415 227.835 Q 265.06500000000005 228 267.045 227.23 Q 269.02500000000003 226.46 271.225 225.085 Q 273.42500000000007 223.71 275.40500000000003 222.17 Q 277.38500000000005 220.63 279.09000000000003 219.2 Q 280.795 217.77 281.785 217 L 281.785 217 Q 282.33500000000004 216.56 282.77500000000003 217.11 Q 283.21500000000003 217.66 282.665 218.21 L 282.665 218.21 Q 281.01500000000004 219.53 277.93500000000006 222.115 Q 274.855 224.7 271.50000000000006 226.735 Q 268.14500000000004 228.77 264.95500000000004 229.375 Q 261.76500000000004 229.98 259.89500000000004 227.45 L 259.89500000000004 227.45 Q 258.90500000000003 228.77 257.80500000000006 229.98 Q 256.70500000000004 231.19 255.49500000000003 232.4 L 255.49500000000003 232.4 Q 252.96500000000003 234.93 250.16000000000003 236.36 Q 247.35500000000005 237.79 244.88000000000005 237.68 Q 242.40500000000003 237.57 240.59000000000003 235.645 Q 238.77500000000003 233.72 238.33500000000004 229.54 L 238.33500000000004 229.54 Q 237.78500000000005 225.03 239.10500000000005 220.575 Q 240.42500000000004 216.12 242.95500000000004 212.325 Q 245.48500000000004 208.53 248.95000000000005 205.725 Q 252.41500000000005 202.92000000000002 256.045 201.71 L 256.045 201.71 Q 259.56500000000005 200.5 262.70000000000005 201.215 Q 265.83500000000004 201.93 266.82500000000005 204.79 L 266.82500000000005 204.79 Q 267.595 207.32 267.32000000000005 210.235 Q 267.045 213.15 266.05500000000006 216.065 Q 265.06500000000005 218.98 263.63500000000005 221.62 Q 262.20500000000004 224.26 260.88500000000005 226.13 Z M 262.75500000000005 219.97 L 262.75500000000005 219.97 Q 263.63500000000005 218.1 264.07500000000005 216.56 Q 264.51500000000004 215.02 264.18500000000006 214.03 L 264.18500000000006 214.03 Q 263.74500000000006 212.38 262.86500000000007 212.93 Q 261.985 213.48 261.21500000000003 214.91 L 261.21500000000003 214.91 Q 260.88500000000005 215.79 260.55500000000006 217.055 Q 260.225 218.32 260.06000000000006 219.695 Q 259.89500000000004 221.07 259.95000000000005 222.39 Q 260.00500000000005 223.71 260.225 224.48 L 260.225 224.48 Q 260.88500000000005 223.38 261.545 222.28 Q 262.20500000000004 221.18 262.75500000000005 219.97 Z M 265.285 212.71 L 265.285 212.71 Q 265.39500000000004 211.94 265.61500000000007 210.73 Q 265.83500000000004 209.52 265.83500000000004 208.31 Q 265.83500000000004 207.1 265.50500000000005 206.055 Q 265.17500000000007 205.01 264.40500000000003 204.35 L 264.40500000000003 204.35 Q 262.975 203.14 260.77500000000003 203.8 Q 258.57500000000005 204.46 256.92500000000007 205.67000000000002 L 256.92500000000007 205.67000000000002 Q 254.06500000000005 207.76 251.42500000000004 211.005 Q 248.78500000000003 214.25 246.75000000000003 217.935 Q 244.71500000000003 221.62 243.50500000000005 225.305 Q 242.29500000000004 228.99 242.40500000000003 231.85 L 242.40500000000003 231.85 Q 242.51500000000004 233.61 243.28500000000005 234.765 Q 244.05500000000004 235.92 245.54000000000005 236.085 Q 247.02500000000003 236.25 249.22500000000005 235.15 Q 251.42500000000004 234.05 254.39500000000004 231.3 L 254.39500000000004 231.3 Q 257.035 228.88 259.12500000000006 225.91 L 259.12500000000006 225.91 Q 258.57500000000005 224.59 258.30000000000007 222.94 Q 258.02500000000003 221.29 258.08000000000004 219.585 Q 258.13500000000005 217.88 258.57500000000005 216.23 Q 259.01500000000004 214.57999999999998 259.89500000000004 213.37 L 259.89500000000004 213.37 Q 261.105 211.82999999999998 262.59000000000003 211.335 Q 264.07500000000005 210.84 265.285 212.71 Z M 291.90500000000003 202.59 L 291.90500000000003 202.59 Q 292.675 201.6 294.21500000000003 201.325 Q 295.75500000000005 201.05 297.07500000000005 201.49 Q 298.39500000000004 201.93 298.89000000000004 203.03 Q 299.38500000000005 204.13 298.06500000000005 205.89 L 298.06500000000005 205.89 Q 295.20500000000004 209.63 291.74 214.14 Q 288.27500000000003 218.65 284.425 223.93 L 284.425 223.93 L 282.995 225.91 Q 285.52500000000003 223.27 289.045 219.695 Q 292.565 216.12 296.47 212.655 Q 300.375 209.19 304.28000000000003 206.275 Q 308.185 203.36 311.485 202.04 L 311.485 202.04 Q 313.13500000000005 201.38 314.73 201.16 Q 316.32500000000005 200.94 317.37 201.49 Q 318.415 202.04 318.69000000000005 203.415 Q 318.96500000000003 204.79 318.08500000000004 207.32 L 318.08500000000004 207.32 Q 317.535 209.07999999999998 316.545 210.895 Q 315.555 212.71 314.40000000000003 214.47 Q 313.245 216.23 312.035 217.935 Q 310.82500000000005 219.64 309.725 221.07 L 309.725 221.07 Q 311.70500000000004 219.09 313.795 217.055 Q 315.88500000000005 215.02 318.08500000000004 213.15 L 318.08500000000004 213.15 Q 322.485 209.3 326.61 206.22 Q 330.735 203.14 333.925 201.82 L 333.925 201.82 Q 336.675 200.72 338.545 201.325 Q 340.415 201.93 341.40500000000003 203.635 Q 342.39500000000004 205.34 342.45000000000005 207.815 Q 342.505 210.29 341.625 212.82 L 341.625 212.82 Q 339.975 216.89 337.83000000000004 219.695 Q 335.685 222.5 333.43 224.865 Q 331.175 227.23 328.865 229.54 Q 326.555 231.85 324.57500000000005 234.82 L 324.57500000000005 234.82 Q 323.365 236.58 324.13500000000005 237.075 Q 324.90500000000003 237.57 326.44500000000005 237.02 L 326.44500000000005 237.02 Q 329.08500000000004 236.25 332.495 233.82999999999998 Q 335.90500000000003 231.41 339.31500000000005 228.385 Q 342.725 225.36 345.915 222.28 Q 349.105 219.2 351.305 217 L 351.305 217 Q 351.855 216.45 352.40500000000003 217 Q 352.95500000000004 217.55 352.40500000000003 218.1 L 352.40500000000003 218.1 Q 350.095 220.3 346.74 223.6 Q 343.38500000000005 226.9 339.70000000000005 230.035 Q 336.01500000000004 233.17 332.38500000000005 235.645 Q 328.755 238.12 325.785 238.67 L 325.785 238.67 Q 322.26500000000004 239.33 321.165 236.91 Q 320.06500000000005 234.49 321.495 231.19 L 321.495 231.19 Q 322.70500000000004 228.55 324.57500000000005 225.91 Q 326.44500000000005 223.27 328.535 220.63 Q 330.625 217.99 332.71500000000003 215.405 Q 334.805 212.82 336.45500000000004 210.29 L 336.45500000000004 210.29 Q 337.44500000000005 208.64 338.105 206.935 Q 338.76500000000004 205.23 338.65500000000003 204.02 Q 338.545 202.81 337.44500000000005 202.48 Q 336.345 202.15 333.925 203.25 L 333.925 203.25 Q 331.06500000000005 204.57 327.16 207.595 Q 323.255 210.62 319.07500000000005 214.36 L 319.07500000000005 214.36 Q 313.46500000000003 219.31 307.855 224.755 Q 302.245 230.2 297.295 235.81 L 297.295 235.81 Q 296.305 236.91 294.93 236.745 Q 293.555 236.58 292.40000000000003 235.81 Q 291.245 235.04 290.805 233.94 Q 290.365 232.84 291.245 231.96 L 291.245 231.96 Q 293.555 229.87 297.02000000000004 226.46 Q 300.485 223.05 303.95000000000005 219.255 Q 307.415 215.46 310.38500000000005 211.72 Q 313.355 207.98 314.675 205.12 L 314.675 205.12 Q 315.33500000000004 203.8 315.225 203.305 Q 315.115 202.81 314.51000000000005 202.755 Q 313.90500000000003 202.7 313.08000000000004 202.975 Q 312.255 203.25 311.375 203.69 L 311.375 203.69 Q 307.855 205.56 304.005 208.475 Q 300.15500000000003 211.39 296.415 214.8 Q 292.675 218.21 289.15500000000003 221.73 Q 285.63500000000005 225.25 282.88500000000005 228.11 L 282.88500000000005 228.11 Q 280.685 230.53 278.375 233.005 Q 276.065 235.48 273.75500000000005 238.34 L 273.75500000000005 238.34 Q 273.095 239.11 272.16 239.055 Q 271.225 239 270.40000000000003 238.45 Q 269.57500000000005 237.9 269.245 237.075 Q 268.915 236.25 269.57500000000005 235.48 L 269.57500000000005 235.48 Q 272.105 231.52 274.91 227.285 Q 277.71500000000003 223.05 280.57500000000005 218.76 Q 283.435 214.47 286.295 210.345 Q 289.15500000000003 206.22 291.90500000000003 202.59 Z M 361.205 214.91 L 361.205 214.91 Q 362.855 214.47 364.67 213.7 Q 366.485 212.93 368.19 211.82999999999998 Q 369.895 210.73 371.21500000000003 209.355 Q 372.535 207.98 373.195 206.32999999999998 L 373.195 206.32999999999998 Q 374.075 204.13 373.36 203.69 Q 372.645 203.25 370.995 204.46 L 370.995 204.46 Q 369.125 205.78 366.485 208.585 Q 363.845 211.39 361.205 214.91 Z M 358.785 218.21 L 358.785 218.21 Q 356.255 222.06 354.11 225.57999999999998 Q 351.96500000000003 229.1 351.085 231.52 L 351.085 231.52 Q 349.875 234.93 350.92 236.085 Q 351.96500000000003 237.24 355.045 236.69 L 355.045 236.69 Q 358.235 236.03 361.975 233.72 Q 365.71500000000003 231.41 369.51 228.44 Q 373.305 225.47 376.77 222.335 Q 380.235 219.2 382.985 217 L 382.985 217 Q 383.535 216.45 383.975 217.055 Q 384.415 217.66 383.865 218.21 L 383.865 218.21 Q 381.005 220.52 377.32 223.82 Q 373.635 227.12 369.565 230.255 Q 365.495 233.39 361.425 235.645 Q 357.355 237.9 353.945 238.23 L 353.945 238.23 Q 351.635 238.45 350.095 237.845 Q 348.555 237.24 347.62 235.92 Q 346.685 234.6 346.41 232.785 Q 346.135 230.97 346.46500000000003 228.88 L 346.46500000000003 228.88 Q 347.125 223.71 350.425 218.32 L 350.425 218.32 Q 352.295 215.02 354.71500000000003 211.94 Q 357.135 208.86 359.885 206.495 Q 362.635 204.13 365.385 202.645 Q 368.135 201.16 370.665 201.16 L 370.665 201.16 Q 373.195 201.05 374.515 202.535 Q 375.83500000000004 204.02 374.625 206.88 L 374.625 206.88 Q 373.855 208.86 372.205 210.51 Q 370.555 212.16 368.46500000000003 213.425 Q 366.375 214.69 364.12 215.57 Q 361.865 216.45 359.77500000000003 216.89 L 359.77500000000003 216.89 Q 359.445 217.44 358.785 218.21 Z" fill-opacity="1"/></g></g></svg>