<svg version="1.1" xmlns="http://www.w3.org/2000/svg" xmlns:xlink="http://www.w3.org/1999/xlink" width="202" height="78" viewBox="0 0 202 78"><defs/><g><g><path fill="rgb(12,10,9)" stroke="none" paint-order="stroke fill markers" d=" M 0 34 L 11.25 34 L 11.25 22.75 L 45 22.75 L 45 34 L 56.25 34 L 56.25 56.5 L 11.25 56.5 L 11.25 67.75 L 45 67.75 L 45 79 L 11.25 79 L 11.25 67.75 L 0 67.75 L 0 34 Z M 45 45.25 L 45 34.45 L 11.25 34.45 L 11.25 45.25 L 45 45.25 Z M 67.5 45.25 L 67.5 34 L 112.5 34 L 112.5 45.25 L 67.5 45.25 Z M 123.75 79 L 123.75 0.25 L 135 0.25 L 135 79 L 123.75 79 Z M 157.95 34 L 157.95 67.75 L 191.25 67.75 L 191.25 34 L 157.95 34 Z M 146.25 34 L 157.5 34 L 157.5 22.75 L 202.5 22.75 L 202.5 79 L 157.5 79 L 157.5 67.75 L 146.25 67.75 L 146.25 34 Z" fill-opacity="1"/></g></g></svg>