<svg version="1.1" xmlns="http://www.w3.org/2000/svg" xmlns:xlink="http://www.w3.org/1999/xlink" width="300" height="62" viewBox="0 0 300 62"><defs/><g><g><path fill="rgb(0,0,0)" stroke="none" paint-order="stroke fill markers" d=" M 12.5 24.5 L 25 24.5 L 25 12 L 12.5 12 L 12.5 24.5 Z M 37.5 62 L 0 62 L 0 -0.5 L 37.5 -0.5 L 37.5 37 L 12.5 37 L 12.5 49.5 L 37.5 49.5 L 37.5 62 Z M 62.5 62 L 50 62 L 50 -0.5 L 87.5 -0.5 L 87.5 12 L 62.5 12 L 62.5 62 Z M 112.5 62 L 100 62 L 100 24.5 L 112.5 24.5 L 112.5 62 Z M 112.5 12 L 100 12 L 100 -0.5 L 112.5 -0.5 L 112.5 12 Z M 162.5 62 L 125 62 L 125 -0.5 L 162.5 -0.5 L 162.5 12 L 137.5 12 L 137.5 49.5 L 162.5 49.5 L 162.5 62 Z M 200 62 L 187.5 62 L 187.5 -0.5 L 200 -0.5 L 200 62 Z M 225 62 L 212.5 62 L 212.5 49.5 L 225 49.5 L 225 62 Z M 250 49.5 L 262.5 49.5 L 262.5 37 L 250 37 L 250 49.5 Z M 275 62 L 237.5 62 L 237.5 24.5 L 262.5 24.5 L 262.5 12 L 237.5 12 L 237.5 -0.5 L 275 -0.5 L 275 62 Z M 300 62 L 287.5 62 L 287.5 49.5 L 300 49.5 L 300 62 Z" fill-opacity="1"/></g></g></svg>