<svg version="1.1" xmlns="http://www.w3.org/2000/svg" xmlns:xlink="http://www.w3.org/1999/xlink" width="325" height="62" viewBox="0 0 325 62"><defs/><g><g><path fill="rgb(0,0,0)" stroke="none" paint-order="stroke fill markers" d=" M 25 62 L 0 62 L 0 24.5 L 37.5 24.5 L 37.5 49.5 L 25 49.5 L 25 37 L 12.5 37 L 12.5 49.5 L 25 49.5 L 25 62 Z M 62.5 62 L 50 62 L 50 24.5 L 75 24.5 L 75 37 L 62.5 37 L 62.5 62 Z M 100 62 L 87.5 62 L 87.5 37 L 100 37 L 100 62 Z M 100 24.5 L 87.5 24.5 L 87.5 12 L 100 12 L 100 24.5 Z M 150 62 L 112.5 62 L 112.5 24.5 L 150 24.5 L 150 37 L 125 37 L 125 49.5 L 150 49.5 L 150 62 Z M 237.5 62 L 212.5 62 L 212.5 -0.5 L 225 -0.5 L 225 49.5 L 237.5 49.5 L 237.5 62 Z M 262.5 62 L 250 62 L 250 49.5 L 262.5 49.5 L 262.5 62 Z M 325 62 L 312.5 62 L 312.5 49.5 L 325 49.5 L 325 62 Z M 300 62 L 275 62 L 275 24.5 L 312.5 24.5 L 312.5 49.5 L 300 49.5 L 300 37 L 287.5 37 L 287.5 49.5 L 300 49.5 L 300 62 Z" fill-opacity="1"/></g></g></svg>