<svg version="1.1" xmlns="http://www.w3.org/2000/svg" xmlns:xlink="http://www.w3.org/1999/xlink" width="287" height="62" viewBox="0 0 287 62"><defs/><g><g><path fill="rgb(0,0,0)" stroke="none" paint-order="stroke fill markers" d=" M 37.5 62 L 12.5 62 L 12.5 49.5 L 37.5 49.5 L 37.5 62 Z M 12.5 49.5 L 0 49.5 L 0 24.5 L 12.5 24.5 L 12.5 30.75 L 25 30.75 L 25 24.5 L 37.5 24.5 L 37.5 37 L 12.5 37 L 12.5 49.5 Z M 25 24.5 L 12.5 24.5 L 12.5 12 L 25 12 L 25 24.5 Z M 62.5 62 L 50 62 L 50 12 L 62.5 12 L 62.5 24.5 L 75 24.5 L 75 37 L 62.5 37 L 62.5 62 Z M 100 62 L 87.5 62 L 87.5 37 L 100 37 L 100 62 Z M 100 24.5 L 87.5 24.5 L 87.5 12 L 100 12 L 100 24.5 Z M 150 62 L 125 62 L 125 49.5 L 150 49.5 L 150 62 Z M 125 49.5 L 112.5 49.5 L 112.5 24.5 L 125 24.5 L 125 49.5 Z M 150 24.5 L 125 24.5 L 125 12 L 150 12 L 150 24.5 Z M 187.5 62 L 175 62 L 175 -0.5 L 187.5 -0.5 L 187.5 62 Z M 212.5 62 L 200 62 L 200 49.5 L 212.5 49.5 L 212.5 62 Z M 237.5 49.5 L 225 49.5 L 225 24.5 L 237.5 24.5 L 237.5 49.5 Z M 262.5 62 L 237.5 62 L 237.5 49.5 L 250 49.5 L 250 24.5 L 262.5 24.5 L 262.5 62 Z M 250 24.5 L 237.5 24.5 L 237.5 12 L 250 12 L 250 24.5 Z M 287.5 62 L 275 62 L 275 49.5 L 287.5 49.5 L 287.5 62 Z" fill-opacity="1"/></g></g></svg>