<svg version="1.1" xmlns="http://www.w3.org/2000/svg" xmlns:xlink="http://www.w3.org/1999/xlink" width="611" height="75" viewBox="0 0 611 75"><defs/><g><g><path fill="rgb(0,0,0)" stroke="none" paint-order="stroke fill markers" d=" M 75 75 L 0 75 L 0 0 L 75 0 L 75 25 L 50 25 L 50 50 L 75 50 L 75 75 Z M 163.96484375 75 L 138.96484375 75 L 138.96484375 50 L 163.96484375 50 L 163.96484375 75 Z M 113.96484375 75 L 88.96484375 75 L 88.96484375 0 L 163.96484375 0 L 163.96484375 25 L 138.96484375 25 L 138.96484375 50 L 113.96484375 50 L 113.96484375 75 Z M 252.9296875 75 L 177.9296875 75 L 177.9296875 50 L 202.9296875 50 L 202.9296875 25 L 177.9296875 25 L 177.9296875 0 L 252.9296875 0 L 252.9296875 25 L 227.9296875 25 L 227.9296875 50 L 252.9296875 50 L 252.9296875 75 Z M 341.89453125 75 L 266.89453125 75 L 266.89453125 0 L 341.89453125 0 L 341.89453125 25 L 291.89453125 25 L 291.89453125 50 L 341.89453125 50 L 341.89453125 75 Z M 444.82421875 75 L 369.82421875 75 L 369.82421875 0 L 394.82421875 0 L 394.82421875 50 L 444.82421875 50 L 444.82421875 75 Z M 483.7890625 75 L 458.7890625 75 L 458.7890625 50 L 483.7890625 50 L 483.7890625 75 Z M 522.75390625 75 L 497.75390625 75 L 497.75390625 25 L 522.75390625 25 L 522.75390625 0 L 547.75390625 0 L 547.75390625 25 L 572.75390625 25 L 572.75390625 75 L 547.75390625 75 L 547.75390625 50 L 522.75390625 50 L 522.75390625 75 Z M 611.71875 75 L 586.71875 75 L 586.71875 50 L 611.71875 50 L 611.71875 75 Z" fill-opacity="1"/></g></g></svg>