<svg version="1.1" xmlns="http://www.w3.org/2000/svg" xmlns:xlink="http://www.w3.org/1999/xlink" width="312" height="50" viewBox="0 0 312 50"><defs/><g><g><path fill="rgb(0,0,0)" stroke="none" paint-order="stroke fill markers" d=" M 25 50 L 0 50 L 0 12.5 L 37.5 12.5 L 37.5 37.5 L 25 37.5 L 25 25 L 12.5 25 L 12.5 37.5 L 25 37.5 L 25 50 Z M 62.5 50 L 50 50 L 50 12.5 L 87.5 12.5 L 87.5 25 L 62.5 25 L 62.5 50 Z M 112.5 50 L 100 50 L 100 25 L 112.5 25 L 112.5 50 Z M 112.5 12.5 L 100 12.5 L 100 0 L 112.5 0 L 112.5 12.5 Z M 162.5 50 L 125 50 L 125 12.5 L 162.5 12.5 L 162.5 25 L 137.5 25 L 137.5 37.5 L 162.5 37.5 L 162.5 50 Z M 212.5 50 L 200 50 L 200 0 L 212.5 0 L 212.5 50 Z M 237.5 50 L 225 50 L 225 37.5 L 237.5 37.5 L 237.5 50 Z M 287.5 50 L 250 50 L 250 25 L 262.5 25 L 262.5 37.5 L 275 37.5 L 275 25 L 262.5 25 L 262.5 12.5 L 287.5 12.5 L 287.5 50 Z M 312.5 50 L 300 50 L 300 37.5 L 312.5 37.5 L 312.5 50 Z" fill-opacity="1"/></g></g></svg>