<svg version="1.1" xmlns="http://www.w3.org/2000/svg" xmlns:xlink="http://www.w3.org/1999/xlink" width="530" height="80" viewBox="0 0 530 80"><defs/><g><g><path fill="rgb(0,0,0)" stroke="none" paint-order="stroke fill markers" d=" M 60 40 L 60 0 L 0 0 L 0 80 L 60 80 L 60 60 L 20 60 L 20 20 L 40 20 L 40 40 L 60 40 Z M 140 20 L 140 0 L 80 0 L 80 80 L 100 80 L 100 20 L 140 20 Z M 180 80 L 180 0 L 160 0 L 160 80 L 180 80 Z M 220 60 L 220 20 L 260 20 L 260 0 L 200 0 L 200 80 L 260 80 L 260 60 L 220 60 Z M 350 60 L 350 0 L 330 0 L 330 80 L 370 80 L 370 60 L 350 60 Z M 410 60 L 390 60 L 390 80 L 410 80 L 410 60 Z M 490 80 L 490 0 L 430 0 L 430 80 L 450 80 L 450 60 L 470 60 L 470 80 L 490 80 Z M 450 40 L 450 20 L 470 20 L 470 40 L 450 40 Z M 530 60 L 510 60 L 510 80 L 530 80 L 530 60 Z" fill-opacity="1"/></g></g></svg>