<svg version="1.1" xmlns="http://www.w3.org/2000/svg" xmlns:xlink="http://www.w3.org/1999/xlink" width="378" height="78" viewBox="0 0 378 78"><defs/><g><g><path fill="rgb(0,0,0)" stroke="none" paint-order="stroke fill markers" d=" M 50 -0.5714285714285694 L 0 -0.5714285714285694 L 0 78 L 50 78 L 50 56.57142857142857 L 21.428571428571427 56.57142857142857 L 21.428571428571427 49.42857142857143 L 50 49.42857142857143 L 50 -0.5714285714285694 Z M 28.57142857142857 20.85714285714286 L 28.57142857142857 28 L 21.428571428571427 28 L 21.428571428571427 20.85714285714286 L 28.57142857142857 20.85714285714286 Z M 107.14285714285714 6.571428571428569 L 57.14285714285714 6.571428571428569 L 57.14285714285714 78 L 78.57142857142857 78 L 78.57142857142857 28 L 85.71428571428571 28 L 85.71428571428571 42.285714285714285 L 107.14285714285714 42.285714285714285 L 107.14285714285714 6.571428571428569 Z M 135.7142857142857 -0.5714285714285694 L 114.28571428571428 -0.5714285714285694 L 114.28571428571428 20.85714285714286 L 135.7142857142857 20.85714285714286 L 135.7142857142857 -0.5714285714285694 Z M 135.7142857142857 28 L 114.28571428571428 28 L 114.28571428571428 78 L 135.7142857142857 78 L 135.7142857142857 28 Z M 192.85714285714283 6.571428571428569 L 142.85714285714283 6.571428571428569 L 142.85714285714283 78 L 192.85714285714283 78 L 192.85714285714283 42.285714285714285 L 171.4285714285714 42.285714285714285 L 171.4285714285714 56.57142857142857 L 164.28571428571425 56.57142857142857 L 164.28571428571425 28 L 171.4285714285714 28 L 171.4285714285714 35.142857142857146 L 192.85714285714283 35.142857142857146 L 192.85714285714283 6.571428571428569 Z M 242.85714285714283 78 L 264.2857142857143 78 L 264.2857142857143 -0.5714285714285694 L 242.85714285714283 -0.5714285714285694 L 242.85714285714283 78 Z M 292.85714285714283 56.57142857142857 L 271.4285714285714 56.57142857142857 L 271.4285714285714 78 L 292.85714285714283 78 L 292.85714285714283 56.57142857142857 Z M 349.99999999999994 -0.5714285714285694 L 307.1428571428571 -0.5714285714285694 L 307.1428571428571 20.85714285714286 L 328.5714285714285 20.85714285714286 L 328.5714285714285 28 L 299.99999999999994 28 L 299.99999999999994 78 L 349.99999999999994 78 L 349.99999999999994 -0.5714285714285694 Z M 328.5714285714285 49.42857142857143 L 328.5714285714285 56.57142857142857 L 321.4285714285714 56.57142857142857 L 321.4285714285714 49.42857142857143 L 328.5714285714285 49.42857142857143 Z M 378.57142857142856 56.57142857142857 L 357.1428571428571 56.57142857142857 L 357.1428571428571 78 L 378.57142857142856 78 L 378.57142857142856 56.57142857142857 Z" fill-opacity="1"/></g></g></svg>