<svg version="1.1" xmlns="http://www.w3.org/2000/svg" xmlns:xlink="http://www.w3.org/1999/xlink" width="542" height="60" viewBox="0 0 542 60"><defs/><g><g><path fill="rgb(0,0,0)" stroke="none" paint-order="stroke fill markers" d=" M 60.400000000000006 -0.30000000000000426 L 60.400000000000006 19.799999999999997 L 20.1 19.799999999999997 L 20.1 39.9 L 60.300000000000004 39.9 L 60.300000000000004 60 L 0 60 L 0 -0.30000000000000426 L 60.400000000000006 -0.30000000000000426 Z M 120.60000000000001 -0.30000000000000426 L 120.60000000000001 19.799999999999997 L 100.5 19.799999999999997 L 100.5 60 L 80.4 60 L 80.4 -0.30000000000000426 L 120.60000000000001 -0.30000000000000426 Z M 160.8 -0.30000000000000426 L 160.8 60 L 140.70000000000002 60 L 140.70000000000002 -0.30000000000000426 L 160.8 -0.30000000000000426 Z M 221.20000000000005 -0.30000000000000426 L 221.20000000000005 19.799999999999997 L 201.00000000000003 19.799999999999997 L 201.00000000000003 39.9 L 241.20000000000005 39.9 L 241.20000000000005 60 L 180.90000000000003 60 L 180.90000000000003 -0.30000000000000426 L 221.20000000000005 -0.30000000000000426 Z M 381.90000000000003 39.9 L 381.90000000000003 60 L 341.70000000000005 60 L 341.70000000000005 -0.30000000000000426 L 361.80000000000007 -0.30000000000000426 L 361.80000000000007 39.9 L 381.90000000000003 39.9 Z M 422.1000000000001 39.9 L 422.1000000000001 60 L 402.00000000000006 60 L 402.00000000000006 39.9 L 422.1000000000001 39.9 Z M 502.50000000000006 60 L 462.30000000000007 60 L 462.30000000000007 39.9 L 482.40000000000003 39.9 L 482.40000000000003 19.799999999999997 L 462.30000000000007 19.799999999999997 L 462.30000000000007 -0.30000000000000426 L 502.50000000000006 -0.30000000000000426 L 502.50000000000006 60 Z M 442.20000000000005 39.9 L 442.20000000000005 19.799999999999997 L 462.30000000000007 19.799999999999997 L 462.30000000000007 39.9 L 442.20000000000005 39.9 Z M 542.7 39.9 L 542.7 60 L 522.6 60 L 522.6 39.9 L 542.7 39.9 Z" fill-opacity="1"/></g></g></svg>